G04 #@! TF.GenerationSoftware,KiCad,Pcbnew,8.0.2-1*
G04 #@! TF.CreationDate,2024-09-23T21:31:36+02:00*
G04 #@! TF.ProjectId,kicks,6b69636b-732e-46b6-9963-61645f706362,rev?*
G04 #@! TF.SameCoordinates,Original*
G04 #@! TF.FileFunction,Soldermask,Top*
G04 #@! TF.FilePolarity,Negative*
%FSLAX46Y46*%
G04 Gerber Fmt 4.6, Leading zero omitted, Abs format (unit mm)*
G04 Created by KiCad (PCBNEW 8.0.2-1) date 2024-09-23 21:31:36*
%MOMM*%
%LPD*%
G01*
G04 APERTURE LIST*
G04 Aperture macros list*
%AMRoundRect*
0 Rectangle with rounded corners*
0 $1 Rounding radius*
0 $2 $3 $4 $5 $6 $7 $8 $9 X,Y pos of 4 corners*
0 Add a 4 corners polygon primitive as box body*
4,1,4,$2,$3,$4,$5,$6,$7,$8,$9,$2,$3,0*
0 Add four circle primitives for the rounded corners*
1,1,$1+$1,$2,$3*
1,1,$1+$1,$4,$5*
1,1,$1+$1,$6,$7*
1,1,$1+$1,$8,$9*
0 Add four rect primitives between the rounded corners*
20,1,$1+$1,$2,$3,$4,$5,0*
20,1,$1+$1,$4,$5,$6,$7,0*
20,1,$1+$1,$6,$7,$8,$9,0*
20,1,$1+$1,$8,$9,$2,$3,0*%
G04 Aperture macros list end*
%ADD10R,1.930000X1.830000*%
%ADD11C,2.130000*%
%ADD12O,4.000000X4.000000*%
%ADD13R,1.800000X1.800000*%
%ADD14C,1.800000*%
%ADD15C,2.000000*%
%ADD16R,1.200000X1.200000*%
%ADD17C,1.200000*%
%ADD18RoundRect,0.225000X0.225000X0.375000X-0.225000X0.375000X-0.225000X-0.375000X0.225000X-0.375000X0*%
%ADD19R,1.600000X1.600000*%
%ADD20C,1.600000*%
%ADD21RoundRect,0.225000X-0.225000X-0.375000X0.225000X-0.375000X0.225000X0.375000X-0.225000X0.375000X0*%
%ADD22RoundRect,0.250000X0.350000X0.450000X-0.350000X0.450000X-0.350000X-0.450000X0.350000X-0.450000X0*%
%ADD23RoundRect,0.250000X-0.600000X-0.600000X0.600000X-0.600000X0.600000X0.600000X-0.600000X0.600000X0*%
%ADD24C,1.700000*%
G04 APERTURE END LIST*
D10*
X84310000Y-145520000D03*
D11*
X84310000Y-156920000D03*
X84310000Y-148620000D03*
D12*
X65250000Y-57000000D03*
X74750000Y-57000000D03*
D13*
X67500000Y-64500000D03*
D14*
X70000000Y-64500000D03*
X72500000Y-64500000D03*
D15*
X61500000Y-141250000D03*
D12*
X54250000Y-105000000D03*
X63750000Y-105000000D03*
D13*
X56500000Y-112500000D03*
D14*
X59000000Y-112500000D03*
X61500000Y-112500000D03*
D10*
X56000000Y-145520000D03*
D11*
X56000000Y-156920000D03*
X56000000Y-148620000D03*
D10*
X56000000Y-137480000D03*
D11*
X56000000Y-126080000D03*
X56000000Y-134380000D03*
D12*
X65250000Y-131000000D03*
X74750000Y-131000000D03*
D13*
X67500000Y-138500000D03*
D14*
X70000000Y-138500000D03*
X72500000Y-138500000D03*
D12*
X75250000Y-78500000D03*
X84750000Y-78500000D03*
D13*
X77500000Y-86000000D03*
D14*
X80000000Y-86000000D03*
X82500000Y-86000000D03*
D10*
X67000000Y-145520000D03*
D11*
X67000000Y-156920000D03*
X67000000Y-148620000D03*
D13*
X83000000Y-141000000D03*
D14*
X85540000Y-141000000D03*
D12*
X55250000Y-78500000D03*
X64750000Y-78500000D03*
D13*
X57500000Y-86000000D03*
D14*
X60000000Y-86000000D03*
X62500000Y-86000000D03*
D16*
X59000000Y-61250000D03*
D17*
X61000000Y-61250000D03*
D15*
X61000000Y-66500000D03*
D16*
X60972600Y-54000000D03*
D17*
X58972600Y-54000000D03*
D18*
X58950000Y-71300000D03*
X62250000Y-71300000D03*
D19*
X55250000Y-61250000D03*
D20*
X52750000Y-61250000D03*
D21*
X78350000Y-51600000D03*
X81650000Y-51600000D03*
D15*
X69250000Y-92750000D03*
X57500000Y-66450000D03*
X54000000Y-66500000D03*
D19*
X52817621Y-54000000D03*
D20*
X55317621Y-54000000D03*
D22*
X80500000Y-53800000D03*
X78500000Y-53800000D03*
D23*
X83460000Y-66160000D03*
D24*
X86000000Y-66160000D03*
X83460000Y-63620000D03*
X86000000Y-63620000D03*
X83460000Y-61080000D03*
X86000000Y-61080000D03*
X83460000Y-58540000D03*
X86000000Y-58540000D03*
X83460000Y-56000000D03*
X86000000Y-56000000D03*
D22*
X55900000Y-69300000D03*
X53900000Y-69300000D03*
M02*
