G04 #@! TF.GenerationSoftware,KiCad,Pcbnew,8.0.2-1*
G04 #@! TF.CreationDate,2024-09-23T21:31:36+02:00*
G04 #@! TF.ProjectId,kicks,6b69636b-732e-46b6-9963-61645f706362,rev?*
G04 #@! TF.SameCoordinates,Original*
G04 #@! TF.FileFunction,Copper,L1,Top*
G04 #@! TF.FilePolarity,Positive*
%FSLAX46Y46*%
G04 Gerber Fmt 4.6, Leading zero omitted, Abs format (unit mm)*
G04 Created by KiCad (PCBNEW 8.0.2-1) date 2024-09-23 21:31:36*
%MOMM*%
%LPD*%
G01*
G04 APERTURE LIST*
G04 Aperture macros list*
%AMRoundRect*
0 Rectangle with rounded corners*
0 $1 Rounding radius*
0 $2 $3 $4 $5 $6 $7 $8 $9 X,Y pos of 4 corners*
0 Add a 4 corners polygon primitive as box body*
4,1,4,$2,$3,$4,$5,$6,$7,$8,$9,$2,$3,0*
0 Add four circle primitives for the rounded corners*
1,1,$1+$1,$2,$3*
1,1,$1+$1,$4,$5*
1,1,$1+$1,$6,$7*
1,1,$1+$1,$8,$9*
0 Add four rect primitives between the rounded corners*
20,1,$1+$1,$2,$3,$4,$5,0*
20,1,$1+$1,$4,$5,$6,$7,0*
20,1,$1+$1,$6,$7,$8,$9,0*
20,1,$1+$1,$8,$9,$2,$3,0*%
G04 Aperture macros list end*
G04 #@! TA.AperFunction,ComponentPad*
%ADD10R,1.930000X1.830000*%
G04 #@! TD*
G04 #@! TA.AperFunction,ComponentPad*
%ADD11C,2.130000*%
G04 #@! TD*
G04 #@! TA.AperFunction,ComponentPad*
%ADD12O,4.000000X4.000000*%
G04 #@! TD*
G04 #@! TA.AperFunction,ComponentPad*
%ADD13R,1.800000X1.800000*%
G04 #@! TD*
G04 #@! TA.AperFunction,ComponentPad*
%ADD14C,1.800000*%
G04 #@! TD*
G04 #@! TA.AperFunction,ComponentPad*
%ADD15C,2.000000*%
G04 #@! TD*
G04 #@! TA.AperFunction,ComponentPad*
%ADD16R,1.200000X1.200000*%
G04 #@! TD*
G04 #@! TA.AperFunction,ComponentPad*
%ADD17C,1.200000*%
G04 #@! TD*
G04 #@! TA.AperFunction,SMDPad,CuDef*
%ADD18RoundRect,0.225000X0.225000X0.375000X-0.225000X0.375000X-0.225000X-0.375000X0.225000X-0.375000X0*%
G04 #@! TD*
G04 #@! TA.AperFunction,ComponentPad*
%ADD19R,1.600000X1.600000*%
G04 #@! TD*
G04 #@! TA.AperFunction,ComponentPad*
%ADD20C,1.600000*%
G04 #@! TD*
G04 #@! TA.AperFunction,SMDPad,CuDef*
%ADD21RoundRect,0.225000X-0.225000X-0.375000X0.225000X-0.375000X0.225000X0.375000X-0.225000X0.375000X0*%
G04 #@! TD*
G04 #@! TA.AperFunction,SMDPad,CuDef*
%ADD22RoundRect,0.250000X0.350000X0.450000X-0.350000X0.450000X-0.350000X-0.450000X0.350000X-0.450000X0*%
G04 #@! TD*
G04 #@! TA.AperFunction,ComponentPad*
%ADD23RoundRect,0.250000X-0.600000X-0.600000X0.600000X-0.600000X0.600000X0.600000X-0.600000X0.600000X0*%
G04 #@! TD*
G04 #@! TA.AperFunction,ComponentPad*
%ADD24C,1.700000*%
G04 #@! TD*
G04 #@! TA.AperFunction,ViaPad*
%ADD25C,0.800000*%
G04 #@! TD*
G04 #@! TA.AperFunction,ViaPad*
%ADD26C,1.000000*%
G04 #@! TD*
G04 #@! TA.AperFunction,Conductor*
%ADD27C,0.500000*%
G04 #@! TD*
G04 #@! TA.AperFunction,Conductor*
%ADD28C,0.300000*%
G04 #@! TD*
G04 APERTURE END LIST*
D10*
X84310000Y-145520000D03*
D11*
X84310000Y-156920000D03*
X84310000Y-148620000D03*
D12*
X65250000Y-57000000D03*
X74750000Y-57000000D03*
D13*
X67500000Y-64500000D03*
D14*
X70000000Y-64500000D03*
X72500000Y-64500000D03*
D15*
X61500000Y-141250000D03*
D12*
X54250000Y-105000000D03*
X63750000Y-105000000D03*
D13*
X56500000Y-112500000D03*
D14*
X59000000Y-112500000D03*
X61500000Y-112500000D03*
D10*
X56000000Y-145520000D03*
D11*
X56000000Y-156920000D03*
X56000000Y-148620000D03*
D10*
X56000000Y-137480000D03*
D11*
X56000000Y-126080000D03*
X56000000Y-134380000D03*
D12*
X65250000Y-131000000D03*
X74750000Y-131000000D03*
D13*
X67500000Y-138500000D03*
D14*
X70000000Y-138500000D03*
X72500000Y-138500000D03*
D12*
X75250000Y-78500000D03*
X84750000Y-78500000D03*
D13*
X77500000Y-86000000D03*
D14*
X80000000Y-86000000D03*
X82500000Y-86000000D03*
D10*
X67000000Y-145520000D03*
D11*
X67000000Y-156920000D03*
X67000000Y-148620000D03*
D13*
X83000000Y-141000000D03*
D14*
X85540000Y-141000000D03*
D12*
X55250000Y-78500000D03*
X64750000Y-78500000D03*
D13*
X57500000Y-86000000D03*
D14*
X60000000Y-86000000D03*
X62500000Y-86000000D03*
D16*
X59000000Y-61250000D03*
D17*
X61000000Y-61250000D03*
D15*
X61000000Y-66500000D03*
D16*
X60972600Y-54000000D03*
D17*
X58972600Y-54000000D03*
D18*
X58950000Y-71300000D03*
X62250000Y-71300000D03*
D19*
X55250000Y-61250000D03*
D20*
X52750000Y-61250000D03*
D21*
X78350000Y-51600000D03*
X81650000Y-51600000D03*
D15*
X69250000Y-92750000D03*
X57500000Y-66450000D03*
X54000000Y-66500000D03*
D19*
X52817621Y-54000000D03*
D20*
X55317621Y-54000000D03*
D22*
X80500000Y-53800000D03*
X78500000Y-53800000D03*
D23*
X83460000Y-66160000D03*
D24*
X86000000Y-66160000D03*
X83460000Y-63620000D03*
X86000000Y-63620000D03*
X83460000Y-61080000D03*
X86000000Y-61080000D03*
X83460000Y-58540000D03*
X86000000Y-58540000D03*
X83460000Y-56000000D03*
X86000000Y-56000000D03*
D22*
X55900000Y-69300000D03*
X53900000Y-69300000D03*
D25*
X77599997Y-134800000D03*
X77200000Y-110600000D03*
X69750000Y-98800000D03*
X78250000Y-132100000D03*
X72400000Y-125950000D03*
D26*
X66100000Y-97300000D03*
X69100000Y-125350000D03*
X77121381Y-125431460D03*
X82000000Y-97000000D03*
X82100000Y-122300000D03*
D25*
X73240254Y-110106190D03*
X64844666Y-92905331D03*
X71900000Y-114500000D03*
X78148959Y-98398959D03*
X78250000Y-125357996D03*
X77300000Y-118100000D03*
X66594669Y-93655331D03*
X81250000Y-116750000D03*
X78000000Y-157000000D03*
X71500000Y-94750000D03*
X69750000Y-97799997D03*
X75750000Y-122000000D03*
X65844669Y-92905331D03*
X67500000Y-122930000D03*
X77250000Y-94750000D03*
X78600000Y-134800000D03*
X69750000Y-103750000D03*
X68750000Y-103900000D03*
D27*
X83750000Y-55710000D02*
X83460000Y-56000000D01*
X78350000Y-51600000D02*
X78350000Y-51650000D01*
X64985176Y-53800000D02*
X59885176Y-58900000D01*
X83750000Y-53700000D02*
X83750000Y-55710000D01*
X78500000Y-53800000D02*
X64985176Y-53800000D01*
X78350000Y-51650000D02*
X80500000Y-53800000D01*
X81650000Y-51600000D02*
X83750000Y-53700000D01*
X59885176Y-58900000D02*
X56800000Y-58900000D01*
X56800000Y-58900000D02*
X55250000Y-60450000D01*
X55250000Y-60450000D02*
X55250000Y-61250000D01*
D28*
X78250000Y-125357996D02*
X77392004Y-124500000D01*
X61000000Y-121500000D02*
X61000000Y-116700000D01*
X61000000Y-116700000D02*
X56800000Y-112500000D01*
X77392004Y-124500000D02*
X64000000Y-124500000D01*
X64000000Y-124500000D02*
X61000000Y-121500000D01*
X56800000Y-112500000D02*
X56500000Y-112500000D01*
X78000000Y-157000000D02*
X78000000Y-155973022D01*
X78973022Y-155000000D02*
X85500000Y-155000000D01*
X87000000Y-153500000D02*
X87000000Y-140400000D01*
X87000000Y-140400000D02*
X85200000Y-138600000D01*
X83607106Y-138600000D02*
X81000000Y-135992894D01*
X85500000Y-155000000D02*
X87000000Y-153500000D01*
X78000000Y-155973022D02*
X78973022Y-155000000D01*
X85200000Y-138600000D02*
X83607106Y-138600000D01*
X81000000Y-135992894D02*
X81000000Y-117000000D01*
X81000000Y-117000000D02*
X81250000Y-116750000D01*
X78250000Y-127950000D02*
X76250000Y-125950000D01*
X78250000Y-132100000D02*
X78250000Y-127950000D01*
X76250000Y-125950000D02*
X72400000Y-125950000D01*
X64844666Y-92905331D02*
X64844666Y-93801772D01*
X67292893Y-106633705D02*
X67292894Y-106633705D01*
X64844666Y-93801772D02*
X67000000Y-95957106D01*
X67000000Y-106340812D02*
X67292893Y-106633705D01*
X67000000Y-95957106D02*
X67000000Y-106340812D01*
X67292894Y-106633705D02*
X71900000Y-111240811D01*
X71900000Y-111240811D02*
X71900000Y-114500000D01*
D27*
X66100000Y-97300000D02*
X53900000Y-97300000D01*
X53900000Y-97300000D02*
X50600000Y-94000000D01*
X50600000Y-94000000D02*
X50600000Y-72600000D01*
X50600000Y-72600000D02*
X53900000Y-69300000D01*
D28*
X77300000Y-118100000D02*
X76250000Y-117050000D01*
X76250000Y-114176598D02*
X68000000Y-105926598D01*
X76250000Y-117050000D02*
X76250000Y-114176598D01*
X68000000Y-105926598D02*
X68000000Y-95542894D01*
X66594669Y-94137563D02*
X66594669Y-93655331D01*
X68000000Y-95542894D02*
X66594669Y-94137563D01*
X72886698Y-110106190D02*
X68750000Y-105969492D01*
X68750000Y-105969492D02*
X68750000Y-103900000D01*
X73240254Y-110106190D02*
X72886698Y-110106190D01*
X68750000Y-103900000D02*
X68750000Y-102457107D01*
X68750000Y-102457107D02*
X68500000Y-102207107D01*
X68500000Y-102207107D02*
X68500000Y-94500000D01*
X68500000Y-94500000D02*
X60000000Y-86000000D01*
D27*
X61000000Y-66500000D02*
X61000000Y-71610828D01*
X61000000Y-71610828D02*
X63989172Y-74600000D01*
X86100000Y-74600000D02*
X89500000Y-78000000D01*
X63989172Y-74600000D02*
X86100000Y-74600000D01*
X89500000Y-78000000D02*
X89500000Y-94800000D01*
X89500000Y-94800000D02*
X89500000Y-114900000D01*
X89500000Y-114900000D02*
X82100000Y-122300000D01*
X89500000Y-94800000D02*
X87300000Y-97000000D01*
X87300000Y-97000000D02*
X82000000Y-97000000D01*
D28*
X80500000Y-136200000D02*
X85300000Y-141000000D01*
X77767768Y-93500000D02*
X80500000Y-96232232D01*
X80500000Y-96232232D02*
X80500000Y-136200000D01*
X72750000Y-93500000D02*
X77767768Y-93500000D01*
X71500000Y-94750000D02*
X72750000Y-93500000D01*
X85300000Y-141000000D02*
X85540000Y-141000000D01*
X73500000Y-94000000D02*
X77560661Y-94000000D01*
X77560661Y-94000000D02*
X80000000Y-96439339D01*
X69750000Y-97799997D02*
X69750000Y-97750000D01*
X80000000Y-96439339D02*
X80000000Y-137000000D01*
X69750000Y-97750000D02*
X73500000Y-94000000D01*
X80000000Y-137000000D02*
X83000000Y-140000000D01*
X83000000Y-140000000D02*
X83000000Y-141000000D01*
X69750000Y-103750000D02*
X69750000Y-102750000D01*
X69750000Y-102750000D02*
X69000000Y-102000000D01*
X69000000Y-102000000D02*
X69000000Y-93000000D01*
X69000000Y-93000000D02*
X69250000Y-92750000D01*
X69750000Y-98800000D02*
X76782233Y-98800000D01*
X76782233Y-98800000D02*
X78500000Y-100517767D01*
X78500000Y-100517767D02*
X78500000Y-109300000D01*
X78500000Y-109300000D02*
X77200000Y-110600000D01*
D27*
X77121381Y-125431460D02*
X76789921Y-125100000D01*
X76789921Y-125100000D02*
X69350000Y-125100000D01*
X69350000Y-125100000D02*
X69100000Y-125350000D01*
D28*
X61500000Y-121292894D02*
X61500000Y-112500000D01*
X79000000Y-134400000D02*
X79000000Y-125000000D01*
X78600000Y-134800000D02*
X79000000Y-134400000D01*
X79000000Y-125000000D02*
X78000000Y-124000000D01*
X78000000Y-124000000D02*
X64207106Y-124000000D01*
X64207106Y-124000000D02*
X61500000Y-121292894D01*
D27*
X55900000Y-69300000D02*
X56950000Y-69300000D01*
X56950000Y-69300000D02*
X58950000Y-71300000D01*
X62250000Y-71300000D02*
X62450000Y-71500000D01*
X62450000Y-71500000D02*
X78120000Y-71500000D01*
X78120000Y-71500000D02*
X83460000Y-66160000D01*
X83460000Y-66160000D02*
X86000000Y-66160000D01*
X55317621Y-54000000D02*
X58972600Y-54000000D01*
X54000000Y-66500000D02*
X51000000Y-63500000D01*
X51000000Y-63500000D02*
X51000000Y-58317621D01*
X51000000Y-58317621D02*
X55317621Y-54000000D01*
X59000000Y-61250000D02*
X59000000Y-64500000D01*
X59000000Y-64500000D02*
X61000000Y-66500000D01*
X55250000Y-61250000D02*
X59000000Y-61250000D01*
X83460000Y-56000000D02*
X86000000Y-56000000D01*
X53900000Y-69300000D02*
X53900000Y-66600000D01*
X53900000Y-66600000D02*
X54000000Y-66500000D01*
D28*
X65844669Y-92905331D02*
X65844669Y-94094669D01*
X65844669Y-94094669D02*
X67500000Y-95750000D01*
X75750000Y-114383705D02*
X75750000Y-122000000D01*
X67500000Y-95750000D02*
X67500000Y-106133705D01*
X67500000Y-106133705D02*
X75750000Y-114383705D01*
X79500000Y-137000000D02*
X75250000Y-141250000D01*
X78148959Y-98398959D02*
X78148959Y-98666726D01*
X75250000Y-141250000D02*
X61500000Y-141250000D01*
X78148959Y-98666726D02*
X79500000Y-100017767D01*
X79500000Y-100017767D02*
X79500000Y-137000000D01*
X68070000Y-123500000D02*
X76250000Y-123500000D01*
X77250000Y-98560661D02*
X77250000Y-94750000D01*
X76250000Y-123500000D02*
X79000000Y-120750000D01*
X67500000Y-122930000D02*
X68070000Y-123500000D01*
X79000000Y-120750000D02*
X79000000Y-100310661D01*
X79000000Y-100310661D02*
X77250000Y-98560661D01*
X77500000Y-86000000D02*
X80000000Y-86000000D01*
X67457106Y-92750000D02*
X62500000Y-87792894D01*
X69250000Y-92750000D02*
X67457106Y-92750000D01*
X62500000Y-87792894D02*
X62500000Y-86000000D01*
X60000000Y-86000000D02*
X57500000Y-86000000D01*
X77599997Y-134800000D02*
X77500000Y-134700003D01*
X77500000Y-134700003D02*
X77500000Y-127907106D01*
X77500000Y-127907106D02*
X76292894Y-126700000D01*
X76292894Y-126700000D02*
X56620000Y-126700000D01*
X56620000Y-126700000D02*
X56000000Y-126080000D01*
G04 #@! TA.AperFunction,NonConductor*
G36*
X84879338Y-56770185D02*
G01*
X84913873Y-56803376D01*
X84961505Y-56871401D01*
X85128597Y-57038493D01*
X85128603Y-57038498D01*
X85314158Y-57168425D01*
X85357783Y-57223002D01*
X85364977Y-57292500D01*
X85333454Y-57354855D01*
X85314158Y-57371575D01*
X85128597Y-57501505D01*
X84961505Y-57668597D01*
X84831575Y-57854158D01*
X84776998Y-57897783D01*
X84707500Y-57904977D01*
X84645145Y-57873454D01*
X84628425Y-57854158D01*
X84498494Y-57668597D01*
X84331402Y-57501506D01*
X84331396Y-57501501D01*
X84145842Y-57371575D01*
X84102217Y-57316998D01*
X84095023Y-57247500D01*
X84126546Y-57185145D01*
X84145842Y-57168425D01*
X84168026Y-57152891D01*
X84331401Y-57038495D01*
X84498495Y-56871401D01*
X84546127Y-56803376D01*
X84600704Y-56759751D01*
X84647701Y-56750500D01*
X84812299Y-56750500D01*
X84879338Y-56770185D01*
G37*
G04 #@! TD.AperFunction*
G04 #@! TA.AperFunction,NonConductor*
G36*
X84814855Y-59206546D02*
G01*
X84831575Y-59225842D01*
X84961501Y-59411396D01*
X84961506Y-59411402D01*
X85128597Y-59578493D01*
X85128603Y-59578498D01*
X85314158Y-59708425D01*
X85357783Y-59763002D01*
X85364977Y-59832500D01*
X85333454Y-59894855D01*
X85314158Y-59911575D01*
X85128597Y-60041505D01*
X84961505Y-60208597D01*
X84831575Y-60394158D01*
X84776998Y-60437783D01*
X84707500Y-60444977D01*
X84645145Y-60413454D01*
X84628425Y-60394158D01*
X84498494Y-60208597D01*
X84331402Y-60041506D01*
X84331396Y-60041501D01*
X84145842Y-59911575D01*
X84102217Y-59856998D01*
X84095023Y-59787500D01*
X84126546Y-59725145D01*
X84145842Y-59708425D01*
X84269756Y-59621659D01*
X84331401Y-59578495D01*
X84498495Y-59411401D01*
X84628425Y-59225842D01*
X84683002Y-59182217D01*
X84752500Y-59175023D01*
X84814855Y-59206546D01*
G37*
G04 #@! TD.AperFunction*
G04 #@! TA.AperFunction,NonConductor*
G36*
X84814855Y-61746546D02*
G01*
X84831575Y-61765842D01*
X84961501Y-61951396D01*
X84961506Y-61951402D01*
X85128597Y-62118493D01*
X85128603Y-62118498D01*
X85314158Y-62248425D01*
X85357783Y-62303002D01*
X85364977Y-62372500D01*
X85333454Y-62434855D01*
X85314158Y-62451575D01*
X85128597Y-62581505D01*
X84961505Y-62748597D01*
X84831575Y-62934158D01*
X84776998Y-62977783D01*
X84707500Y-62984977D01*
X84645145Y-62953454D01*
X84628425Y-62934158D01*
X84498494Y-62748597D01*
X84331402Y-62581506D01*
X84331396Y-62581501D01*
X84145842Y-62451575D01*
X84102217Y-62396998D01*
X84095023Y-62327500D01*
X84126546Y-62265145D01*
X84145842Y-62248425D01*
X84275720Y-62157483D01*
X84331401Y-62118495D01*
X84498495Y-61951401D01*
X84628425Y-61765842D01*
X84683002Y-61722217D01*
X84752500Y-61715023D01*
X84814855Y-61746546D01*
G37*
G04 #@! TD.AperFunction*
G04 #@! TA.AperFunction,NonConductor*
G36*
X84814855Y-64286546D02*
G01*
X84831575Y-64305842D01*
X84961501Y-64491396D01*
X84961506Y-64491402D01*
X85128597Y-64658493D01*
X85128603Y-64658498D01*
X85314158Y-64788425D01*
X85357783Y-64843002D01*
X85364977Y-64912500D01*
X85333454Y-64974855D01*
X85314158Y-64991575D01*
X85128597Y-65121505D01*
X84961503Y-65288599D01*
X84960349Y-65289975D01*
X84959688Y-65290414D01*
X84957676Y-65292427D01*
X84957271Y-65292022D01*
X84902173Y-65328671D01*
X84832312Y-65329772D01*
X84772946Y-65292928D01*
X84747663Y-65249265D01*
X84744814Y-65240666D01*
X84652712Y-65091344D01*
X84528656Y-64967288D01*
X84435888Y-64910069D01*
X84379336Y-64875187D01*
X84379331Y-64875185D01*
X84379215Y-64875146D01*
X84370733Y-64872336D01*
X84313290Y-64832564D01*
X84286467Y-64768048D01*
X84298782Y-64699272D01*
X84327767Y-64662517D01*
X84327573Y-64662323D01*
X84329219Y-64660676D01*
X84330040Y-64659636D01*
X84331388Y-64658504D01*
X84331401Y-64658495D01*
X84498495Y-64491401D01*
X84628425Y-64305842D01*
X84683002Y-64262217D01*
X84752500Y-64255023D01*
X84814855Y-64286546D01*
G37*
G04 #@! TD.AperFunction*
G04 #@! TA.AperFunction,NonConductor*
G36*
X81704808Y-52720184D02*
G01*
X81725450Y-52736818D01*
X82963181Y-53974548D01*
X82996666Y-54035871D01*
X82999500Y-54062229D01*
X82999500Y-54645625D01*
X82979815Y-54712664D01*
X82927905Y-54758007D01*
X82782171Y-54825964D01*
X82782169Y-54825965D01*
X82588597Y-54961505D01*
X82421505Y-55128597D01*
X82285965Y-55322169D01*
X82285964Y-55322171D01*
X82186098Y-55536335D01*
X82186094Y-55536344D01*
X82124938Y-55764586D01*
X82124936Y-55764596D01*
X82104341Y-55999999D01*
X82104341Y-56000000D01*
X82124936Y-56235403D01*
X82124938Y-56235413D01*
X82186094Y-56463655D01*
X82186096Y-56463659D01*
X82186097Y-56463663D01*
X82285965Y-56677830D01*
X82285967Y-56677834D01*
X82421501Y-56871395D01*
X82421506Y-56871402D01*
X82588597Y-57038493D01*
X82588603Y-57038498D01*
X82774158Y-57168425D01*
X82817783Y-57223002D01*
X82824977Y-57292500D01*
X82793454Y-57354855D01*
X82774158Y-57371575D01*
X82588597Y-57501505D01*
X82421505Y-57668597D01*
X82285965Y-57862169D01*
X82285964Y-57862171D01*
X82186098Y-58076335D01*
X82186094Y-58076344D01*
X82124938Y-58304586D01*
X82124936Y-58304596D01*
X82104341Y-58539999D01*
X82104341Y-58540000D01*
X82124936Y-58775403D01*
X82124938Y-58775413D01*
X82186094Y-59003655D01*
X82186096Y-59003659D01*
X82186097Y-59003663D01*
X82266004Y-59175023D01*
X82285965Y-59217830D01*
X82285967Y-59217834D01*
X82394281Y-59372521D01*
X82421501Y-59411396D01*
X82421506Y-59411402D01*
X82588597Y-59578493D01*
X82588603Y-59578498D01*
X82774158Y-59708425D01*
X82817783Y-59763002D01*
X82824977Y-59832500D01*
X82793454Y-59894855D01*
X82774158Y-59911575D01*
X82588597Y-60041505D01*
X82421505Y-60208597D01*
X82285965Y-60402169D01*
X82285964Y-60402171D01*
X82186098Y-60616335D01*
X82186094Y-60616344D01*
X82124938Y-60844586D01*
X82124936Y-60844596D01*
X82104341Y-61079999D01*
X82104341Y-61080000D01*
X82124936Y-61315403D01*
X82124938Y-61315413D01*
X82186094Y-61543655D01*
X82186096Y-61543659D01*
X82186097Y-61543663D01*
X82190000Y-61552032D01*
X82285965Y-61757830D01*
X82285967Y-61757834D01*
X82337774Y-61831821D01*
X82421501Y-61951396D01*
X82421506Y-61951402D01*
X82588597Y-62118493D01*
X82588603Y-62118498D01*
X82774158Y-62248425D01*
X82817783Y-62303002D01*
X82824977Y-62372500D01*
X82793454Y-62434855D01*
X82774158Y-62451575D01*
X82588597Y-62581505D01*
X82421505Y-62748597D01*
X82285965Y-62942169D01*
X82285964Y-62942171D01*
X82186098Y-63156335D01*
X82186094Y-63156344D01*
X82124938Y-63384586D01*
X82124936Y-63384596D01*
X82104341Y-63619999D01*
X82104341Y-63620000D01*
X82124936Y-63855403D01*
X82124938Y-63855413D01*
X82186094Y-64083655D01*
X82186096Y-64083659D01*
X82186097Y-64083663D01*
X82190000Y-64092032D01*
X82285965Y-64297830D01*
X82285967Y-64297834D01*
X82394281Y-64452521D01*
X82421505Y-64491401D01*
X82588599Y-64658495D01*
X82588604Y-64658499D01*
X82589968Y-64659643D01*
X82590407Y-64660303D01*
X82592427Y-64662323D01*
X82592021Y-64662728D01*
X82628669Y-64717815D01*
X82629776Y-64787676D01*
X82592937Y-64847046D01*
X82549267Y-64872336D01*
X82540669Y-64875184D01*
X82540663Y-64875187D01*
X82391342Y-64967289D01*
X82267289Y-65091342D01*
X82175187Y-65240663D01*
X82175185Y-65240668D01*
X82158701Y-65290414D01*
X82120001Y-65407203D01*
X82120001Y-65407204D01*
X82120000Y-65407204D01*
X82109500Y-65509983D01*
X82109500Y-66397770D01*
X82089815Y-66464809D01*
X82073181Y-66485451D01*
X77845451Y-70713181D01*
X77784128Y-70746666D01*
X77757770Y-70749500D01*
X63270681Y-70749500D01*
X63203642Y-70729815D01*
X63157887Y-70677011D01*
X63152975Y-70664504D01*
X63137003Y-70616303D01*
X63136999Y-70616297D01*
X63136998Y-70616294D01*
X63047970Y-70471959D01*
X63047967Y-70471955D01*
X62928044Y-70352032D01*
X62928040Y-70352029D01*
X62783705Y-70263001D01*
X62783699Y-70262998D01*
X62783697Y-70262997D01*
X62749499Y-70251665D01*
X62622709Y-70209651D01*
X62523346Y-70199500D01*
X61976662Y-70199500D01*
X61976641Y-70199502D01*
X61887100Y-70208648D01*
X61818407Y-70195878D01*
X61767524Y-70147996D01*
X61750500Y-70085290D01*
X61750500Y-67873872D01*
X61770185Y-67806833D01*
X61815487Y-67764815D01*
X61823509Y-67760474D01*
X62019744Y-67607738D01*
X62188164Y-67424785D01*
X62324173Y-67216607D01*
X62424063Y-66988881D01*
X62485108Y-66747821D01*
X62505643Y-66500000D01*
X62504437Y-66485451D01*
X62485109Y-66252187D01*
X62485107Y-66252175D01*
X62424063Y-66011118D01*
X62324173Y-65783393D01*
X62188166Y-65575217D01*
X62144492Y-65527775D01*
X62019744Y-65392262D01*
X61823509Y-65239526D01*
X61823507Y-65239525D01*
X61823506Y-65239524D01*
X61604811Y-65121172D01*
X61604802Y-65121169D01*
X61369616Y-65040429D01*
X61124335Y-64999500D01*
X60875665Y-64999500D01*
X60668841Y-65034012D01*
X60599476Y-65025630D01*
X60560751Y-64999384D01*
X59786819Y-64225451D01*
X59753334Y-64164128D01*
X59750500Y-64137770D01*
X59750500Y-63552135D01*
X66099500Y-63552135D01*
X66099500Y-65447870D01*
X66099501Y-65447876D01*
X66105908Y-65507483D01*
X66156202Y-65642328D01*
X66156206Y-65642335D01*
X66242452Y-65757544D01*
X66242455Y-65757547D01*
X66357664Y-65843793D01*
X66357671Y-65843797D01*
X66492517Y-65894091D01*
X66492516Y-65894091D01*
X66499444Y-65894835D01*
X66552127Y-65900500D01*
X68447872Y-65900499D01*
X68507483Y-65894091D01*
X68642331Y-65843796D01*
X68757546Y-65757546D01*
X68843796Y-65642331D01*
X68862092Y-65593274D01*
X68903961Y-65537342D01*
X68969425Y-65512924D01*
X69037699Y-65527775D01*
X69054436Y-65538755D01*
X69231365Y-65676464D01*
X69231371Y-65676468D01*
X69231374Y-65676470D01*
X69435497Y-65786936D01*
X69549487Y-65826068D01*
X69655015Y-65862297D01*
X69655017Y-65862297D01*
X69655019Y-65862298D01*
X69883951Y-65900500D01*
X69883952Y-65900500D01*
X70116048Y-65900500D01*
X70116049Y-65900500D01*
X70344981Y-65862298D01*
X70564503Y-65786936D01*
X70768626Y-65676470D01*
X70951784Y-65533913D01*
X71108979Y-65363153D01*
X71122628Y-65342262D01*
X71146191Y-65306196D01*
X71199337Y-65260839D01*
X71268569Y-65251415D01*
X71331904Y-65280917D01*
X71353809Y-65306196D01*
X71391016Y-65363147D01*
X71391019Y-65363151D01*
X71391021Y-65363153D01*
X71548216Y-65533913D01*
X71548219Y-65533915D01*
X71548222Y-65533918D01*
X71731365Y-65676464D01*
X71731371Y-65676468D01*
X71731374Y-65676470D01*
X71935497Y-65786936D01*
X72049487Y-65826068D01*
X72155015Y-65862297D01*
X72155017Y-65862297D01*
X72155019Y-65862298D01*
X72383951Y-65900500D01*
X72383952Y-65900500D01*
X72616048Y-65900500D01*
X72616049Y-65900500D01*
X72844981Y-65862298D01*
X73064503Y-65786936D01*
X73268626Y-65676470D01*
X73451784Y-65533913D01*
X73608979Y-65363153D01*
X73735924Y-65168849D01*
X73829157Y-64956300D01*
X73886134Y-64731305D01*
X73886135Y-64731297D01*
X73905300Y-64500006D01*
X73905300Y-64499993D01*
X73886135Y-64268702D01*
X73886133Y-64268691D01*
X73829157Y-64043699D01*
X73735924Y-63831151D01*
X73608983Y-63636852D01*
X73608980Y-63636849D01*
X73608979Y-63636847D01*
X73451784Y-63466087D01*
X73451779Y-63466083D01*
X73451777Y-63466081D01*
X73268634Y-63323535D01*
X73268628Y-63323531D01*
X73064504Y-63213064D01*
X73064495Y-63213061D01*
X72844984Y-63137702D01*
X72654450Y-63105908D01*
X72616049Y-63099500D01*
X72383951Y-63099500D01*
X72345550Y-63105908D01*
X72155015Y-63137702D01*
X71935504Y-63213061D01*
X71935495Y-63213064D01*
X71731371Y-63323531D01*
X71731365Y-63323535D01*
X71548222Y-63466081D01*
X71548219Y-63466084D01*
X71548216Y-63466086D01*
X71548216Y-63466087D01*
X71400500Y-63626551D01*
X71391015Y-63636854D01*
X71353808Y-63693804D01*
X71300662Y-63739161D01*
X71231430Y-63748584D01*
X71168095Y-63719082D01*
X71146192Y-63693804D01*
X71108984Y-63636854D01*
X71108982Y-63636852D01*
X71108979Y-63636847D01*
X70951784Y-63466087D01*
X70951779Y-63466083D01*
X70951777Y-63466081D01*
X70768634Y-63323535D01*
X70768628Y-63323531D01*
X70564504Y-63213064D01*
X70564495Y-63213061D01*
X70344984Y-63137702D01*
X70154450Y-63105908D01*
X70116049Y-63099500D01*
X69883951Y-63099500D01*
X69845550Y-63105908D01*
X69655015Y-63137702D01*
X69435504Y-63213061D01*
X69435495Y-63213064D01*
X69231372Y-63323531D01*
X69054436Y-63461245D01*
X68989442Y-63486887D01*
X68920902Y-63473320D01*
X68870577Y-63424852D01*
X68862092Y-63406723D01*
X68843798Y-63357673D01*
X68843793Y-63357664D01*
X68757547Y-63242455D01*
X68757544Y-63242452D01*
X68642335Y-63156206D01*
X68642328Y-63156202D01*
X68507482Y-63105908D01*
X68507483Y-63105908D01*
X68447883Y-63099501D01*
X68447881Y-63099500D01*
X68447873Y-63099500D01*
X68447864Y-63099500D01*
X66552129Y-63099500D01*
X66552123Y-63099501D01*
X66492516Y-63105908D01*
X66357671Y-63156202D01*
X66357664Y-63156206D01*
X66242455Y-63242452D01*
X66242452Y-63242455D01*
X66156206Y-63357664D01*
X66156202Y-63357671D01*
X66105908Y-63492517D01*
X66099501Y-63552116D01*
X66099500Y-63552135D01*
X59750500Y-63552135D01*
X59750500Y-62414141D01*
X59770185Y-62347102D01*
X59822989Y-62301347D01*
X59831149Y-62297966D01*
X59842331Y-62293796D01*
X59957546Y-62207546D01*
X60043796Y-62092331D01*
X60043797Y-62092326D01*
X60048047Y-62084546D01*
X60050262Y-62085755D01*
X60084130Y-62040509D01*
X60149593Y-62016088D01*
X60217867Y-62030937D01*
X60241984Y-62048135D01*
X60333958Y-62131980D01*
X60333960Y-62131982D01*
X60375141Y-62157480D01*
X60507363Y-62239348D01*
X60697544Y-62313024D01*
X60898024Y-62350500D01*
X60898026Y-62350500D01*
X61101974Y-62350500D01*
X61101976Y-62350500D01*
X61302456Y-62313024D01*
X61492637Y-62239348D01*
X61666041Y-62131981D01*
X61816764Y-61994579D01*
X61939673Y-61831821D01*
X62030582Y-61649250D01*
X62086397Y-61453083D01*
X62105215Y-61250000D01*
X62086397Y-61046917D01*
X62030582Y-60850750D01*
X61939673Y-60668179D01*
X61816764Y-60505421D01*
X61816762Y-60505418D01*
X61666041Y-60368019D01*
X61666039Y-60368017D01*
X61492642Y-60260655D01*
X61492635Y-60260651D01*
X61358272Y-60208599D01*
X61302456Y-60186976D01*
X61101976Y-60149500D01*
X60898024Y-60149500D01*
X60697544Y-60186976D01*
X60697541Y-60186976D01*
X60697541Y-60186977D01*
X60507364Y-60260651D01*
X60507357Y-60260655D01*
X60333962Y-60368016D01*
X60241984Y-60451865D01*
X60179179Y-60482481D01*
X60109792Y-60474283D01*
X60055853Y-60429873D01*
X60048327Y-60415301D01*
X60048047Y-60415454D01*
X60043793Y-60407664D01*
X59957547Y-60292455D01*
X59957544Y-60292452D01*
X59842335Y-60206206D01*
X59842328Y-60206202D01*
X59707482Y-60155908D01*
X59707483Y-60155908D01*
X59647883Y-60149501D01*
X59647881Y-60149500D01*
X59647873Y-60149500D01*
X59647864Y-60149500D01*
X58352129Y-60149500D01*
X58352123Y-60149501D01*
X58292516Y-60155908D01*
X58157671Y-60206202D01*
X58157664Y-60206206D01*
X58042455Y-60292452D01*
X58042452Y-60292455D01*
X57956206Y-60407664D01*
X57956204Y-60407668D01*
X57956204Y-60407669D01*
X57952039Y-60418834D01*
X57910171Y-60474766D01*
X57844707Y-60499184D01*
X57835859Y-60499500D01*
X56672351Y-60499500D01*
X56605312Y-60479815D01*
X56559557Y-60427011D01*
X56549061Y-60388752D01*
X56544091Y-60342516D01*
X56544090Y-60342513D01*
X56537918Y-60325965D01*
X56532933Y-60256273D01*
X56566415Y-60194951D01*
X57074549Y-59686819D01*
X57135872Y-59653334D01*
X57162230Y-59650500D01*
X59959096Y-59650500D01*
X60056638Y-59631096D01*
X60104089Y-59621658D01*
X60240671Y-59565084D01*
X60289905Y-59532186D01*
X60363592Y-59482952D01*
X62561579Y-57284962D01*
X62622902Y-57251478D01*
X62692594Y-57256462D01*
X62748527Y-57298334D01*
X62771064Y-57349409D01*
X62823270Y-57623083D01*
X62920497Y-57922316D01*
X62920499Y-57922321D01*
X63054461Y-58207003D01*
X63054464Y-58207009D01*
X63223051Y-58472661D01*
X63223054Y-58472665D01*
X63423606Y-58715090D01*
X63423608Y-58715092D01*
X63423610Y-58715094D01*
X63487833Y-58775403D01*
X63652968Y-58930476D01*
X63652978Y-58930484D01*
X63907504Y-59115408D01*
X63907509Y-59115410D01*
X63907516Y-59115416D01*
X64183234Y-59266994D01*
X64183239Y-59266996D01*
X64183241Y-59266997D01*
X64183242Y-59266998D01*
X64475771Y-59382818D01*
X64475774Y-59382819D01*
X64587098Y-59411402D01*
X64780527Y-59461066D01*
X64846010Y-59469338D01*
X65092670Y-59500499D01*
X65092679Y-59500499D01*
X65092682Y-59500500D01*
X65092684Y-59500500D01*
X65407316Y-59500500D01*
X65407318Y-59500500D01*
X65407321Y-59500499D01*
X65407329Y-59500499D01*
X65593593Y-59476968D01*
X65719473Y-59461066D01*
X66024225Y-59382819D01*
X66024228Y-59382818D01*
X66316757Y-59266998D01*
X66316758Y-59266997D01*
X66316756Y-59266997D01*
X66316766Y-59266994D01*
X66592484Y-59115416D01*
X66847030Y-58930478D01*
X67076390Y-58715094D01*
X67276947Y-58472663D01*
X67445537Y-58207007D01*
X67579503Y-57922315D01*
X67676731Y-57623079D01*
X67735688Y-57314015D01*
X67739309Y-57256462D01*
X67755444Y-57000005D01*
X67755444Y-56999994D01*
X67735689Y-56685995D01*
X67735688Y-56685988D01*
X67735688Y-56685985D01*
X67676731Y-56376921D01*
X67579503Y-56077685D01*
X67445537Y-55792993D01*
X67282659Y-55536337D01*
X67276948Y-55527338D01*
X67276945Y-55527334D01*
X67076393Y-55284909D01*
X67076391Y-55284907D01*
X67038687Y-55249500D01*
X66847030Y-55069522D01*
X66847027Y-55069520D01*
X66847021Y-55069515D01*
X66592495Y-54884591D01*
X66592488Y-54884586D01*
X66592484Y-54884584D01*
X66407996Y-54783160D01*
X66358735Y-54733616D01*
X66344078Y-54665301D01*
X66368682Y-54599906D01*
X66424734Y-54558195D01*
X66467736Y-54550500D01*
X73532264Y-54550500D01*
X73599303Y-54570185D01*
X73645058Y-54622989D01*
X73655002Y-54692147D01*
X73625977Y-54755703D01*
X73592004Y-54783160D01*
X73412253Y-54881980D01*
X73407516Y-54884584D01*
X73407504Y-54884591D01*
X73152978Y-55069515D01*
X73152968Y-55069523D01*
X72923608Y-55284907D01*
X72923606Y-55284909D01*
X72723054Y-55527334D01*
X72723051Y-55527338D01*
X72554464Y-55792990D01*
X72554461Y-55792996D01*
X72420499Y-56077678D01*
X72420497Y-56077683D01*
X72323270Y-56376916D01*
X72264311Y-56685988D01*
X72264310Y-56685995D01*
X72244556Y-56999994D01*
X72244556Y-57000005D01*
X72264310Y-57314004D01*
X72264311Y-57314011D01*
X72323270Y-57623083D01*
X72420497Y-57922316D01*
X72420499Y-57922321D01*
X72554461Y-58207003D01*
X72554464Y-58207009D01*
X72723051Y-58472661D01*
X72723054Y-58472665D01*
X72923606Y-58715090D01*
X72923608Y-58715092D01*
X72923610Y-58715094D01*
X72987833Y-58775403D01*
X73152968Y-58930476D01*
X73152978Y-58930484D01*
X73407504Y-59115408D01*
X73407509Y-59115410D01*
X73407516Y-59115416D01*
X73683234Y-59266994D01*
X73683239Y-59266996D01*
X73683241Y-59266997D01*
X73683242Y-59266998D01*
X73975771Y-59382818D01*
X73975774Y-59382819D01*
X74087098Y-59411402D01*
X74280527Y-59461066D01*
X74346010Y-59469338D01*
X74592670Y-59500499D01*
X74592679Y-59500499D01*
X74592682Y-59500500D01*
X74592684Y-59500500D01*
X74907316Y-59500500D01*
X74907318Y-59500500D01*
X74907321Y-59500499D01*
X74907329Y-59500499D01*
X75093593Y-59476968D01*
X75219473Y-59461066D01*
X75524225Y-59382819D01*
X75524228Y-59382818D01*
X75816757Y-59266998D01*
X75816758Y-59266997D01*
X75816756Y-59266997D01*
X75816766Y-59266994D01*
X76092484Y-59115416D01*
X76347030Y-58930478D01*
X76576390Y-58715094D01*
X76776947Y-58472663D01*
X76945537Y-58207007D01*
X77079503Y-57922315D01*
X77176731Y-57623079D01*
X77235688Y-57314015D01*
X77239309Y-57256462D01*
X77255444Y-57000005D01*
X77255444Y-56999994D01*
X77235689Y-56685995D01*
X77235688Y-56685988D01*
X77235688Y-56685985D01*
X77176731Y-56376921D01*
X77079503Y-56077685D01*
X76945537Y-55792993D01*
X76782659Y-55536337D01*
X76776948Y-55527338D01*
X76776945Y-55527334D01*
X76576393Y-55284909D01*
X76576391Y-55284907D01*
X76538687Y-55249500D01*
X76347030Y-55069522D01*
X76347027Y-55069520D01*
X76347021Y-55069515D01*
X76092495Y-54884591D01*
X76092488Y-54884586D01*
X76092484Y-54884584D01*
X75907996Y-54783160D01*
X75858735Y-54733616D01*
X75844078Y-54665301D01*
X75868682Y-54599906D01*
X75924734Y-54558195D01*
X75967736Y-54550500D01*
X77384362Y-54550500D01*
X77451401Y-54570185D01*
X77489899Y-54609401D01*
X77557288Y-54718656D01*
X77681344Y-54842712D01*
X77830666Y-54934814D01*
X77997203Y-54989999D01*
X78099991Y-55000500D01*
X78900008Y-55000499D01*
X78900016Y-55000498D01*
X78900019Y-55000498D01*
X78956302Y-54994748D01*
X79002797Y-54989999D01*
X79169334Y-54934814D01*
X79318656Y-54842712D01*
X79412319Y-54749049D01*
X79473642Y-54715564D01*
X79543334Y-54720548D01*
X79587681Y-54749049D01*
X79681344Y-54842712D01*
X79830666Y-54934814D01*
X79997203Y-54989999D01*
X80099991Y-55000500D01*
X80900008Y-55000499D01*
X80900016Y-55000498D01*
X80900019Y-55000498D01*
X80956302Y-54994748D01*
X81002797Y-54989999D01*
X81169334Y-54934814D01*
X81318656Y-54842712D01*
X81442712Y-54718656D01*
X81534814Y-54569334D01*
X81589999Y-54402797D01*
X81600500Y-54300009D01*
X81600499Y-53299992D01*
X81599735Y-53292517D01*
X81589999Y-53197203D01*
X81589998Y-53197200D01*
X81575065Y-53152135D01*
X81534814Y-53030666D01*
X81447800Y-52889593D01*
X81429361Y-52822203D01*
X81450284Y-52755540D01*
X81503926Y-52710770D01*
X81553337Y-52700499D01*
X81637769Y-52700499D01*
X81704808Y-52720184D01*
G37*
G04 #@! TD.AperFunction*
G04 #@! TA.AperFunction,NonConductor*
G36*
X50455703Y-64017517D02*
G01*
X50462181Y-64023549D01*
X52500618Y-66061985D01*
X52534103Y-66123308D01*
X52533143Y-66180106D01*
X52514891Y-66252182D01*
X52494357Y-66499994D01*
X52494357Y-66500005D01*
X52514890Y-66747812D01*
X52514892Y-66747824D01*
X52575936Y-66988881D01*
X52675826Y-67216606D01*
X52811833Y-67424782D01*
X52830272Y-67444812D01*
X52980256Y-67607738D01*
X53101663Y-67702233D01*
X53142475Y-67758942D01*
X53149500Y-67800085D01*
X53149500Y-68146042D01*
X53129815Y-68213081D01*
X53090598Y-68251580D01*
X53081344Y-68257287D01*
X52957289Y-68381342D01*
X52865187Y-68530663D01*
X52865186Y-68530666D01*
X52810001Y-68697203D01*
X52810001Y-68697204D01*
X52810000Y-68697204D01*
X52799500Y-68799983D01*
X52799500Y-69287769D01*
X52779815Y-69354808D01*
X52763181Y-69375450D01*
X50462181Y-71676450D01*
X50400858Y-71709935D01*
X50331166Y-71704951D01*
X50275233Y-71663079D01*
X50250816Y-71597615D01*
X50250500Y-71588769D01*
X50250500Y-64111230D01*
X50270185Y-64044191D01*
X50322989Y-63998436D01*
X50392147Y-63988492D01*
X50455703Y-64017517D01*
G37*
G04 #@! TD.AperFunction*
G04 #@! TA.AperFunction,NonConductor*
G36*
X89692539Y-50270185D02*
G01*
X89738294Y-50322989D01*
X89749500Y-50374500D01*
X89749500Y-76888769D01*
X89729815Y-76955808D01*
X89677011Y-77001563D01*
X89607853Y-77011507D01*
X89544297Y-76982482D01*
X89537819Y-76976450D01*
X86578421Y-74017052D01*
X86578414Y-74017046D01*
X86504729Y-73967812D01*
X86504729Y-73967813D01*
X86455491Y-73934913D01*
X86318917Y-73878343D01*
X86318907Y-73878340D01*
X86173920Y-73849500D01*
X86173918Y-73849500D01*
X64351401Y-73849500D01*
X64284362Y-73829815D01*
X64263720Y-73813181D01*
X62912721Y-72462181D01*
X62879236Y-72400858D01*
X62884220Y-72331166D01*
X62926092Y-72275233D01*
X62991556Y-72250816D01*
X63000402Y-72250500D01*
X78193920Y-72250500D01*
X78291462Y-72231096D01*
X78338913Y-72221658D01*
X78475495Y-72165084D01*
X78524729Y-72132186D01*
X78530929Y-72128044D01*
X78588991Y-72089249D01*
X78598416Y-72082952D01*
X83134548Y-67546817D01*
X83195871Y-67513333D01*
X83222229Y-67510499D01*
X84110002Y-67510499D01*
X84110008Y-67510499D01*
X84212797Y-67499999D01*
X84379334Y-67444814D01*
X84528656Y-67352712D01*
X84652712Y-67228656D01*
X84744814Y-67079334D01*
X84747662Y-67070738D01*
X84787429Y-67013294D01*
X84851944Y-66986468D01*
X84920720Y-66998779D01*
X84957483Y-67027766D01*
X84957677Y-67027573D01*
X84959313Y-67029209D01*
X84960354Y-67030030D01*
X84961501Y-67031397D01*
X84961505Y-67031401D01*
X85128599Y-67198495D01*
X85171675Y-67228657D01*
X85322165Y-67334032D01*
X85322167Y-67334033D01*
X85322170Y-67334035D01*
X85536337Y-67433903D01*
X85764592Y-67495063D01*
X85952918Y-67511539D01*
X85999999Y-67515659D01*
X86000000Y-67515659D01*
X86000001Y-67515659D01*
X86039234Y-67512226D01*
X86235408Y-67495063D01*
X86463663Y-67433903D01*
X86677830Y-67334035D01*
X86871401Y-67198495D01*
X87038495Y-67031401D01*
X87174035Y-66837830D01*
X87273903Y-66623663D01*
X87335063Y-66395408D01*
X87355659Y-66160000D01*
X87335063Y-65924592D01*
X87273903Y-65696337D01*
X87174035Y-65482171D01*
X87150022Y-65447876D01*
X87038494Y-65288597D01*
X86871402Y-65121506D01*
X86871396Y-65121501D01*
X86685842Y-64991575D01*
X86642217Y-64936998D01*
X86635023Y-64867500D01*
X86666546Y-64805145D01*
X86685842Y-64788425D01*
X86767413Y-64731308D01*
X86871401Y-64658495D01*
X87038495Y-64491401D01*
X87174035Y-64297830D01*
X87273903Y-64083663D01*
X87335063Y-63855408D01*
X87355659Y-63620000D01*
X87335063Y-63384592D01*
X87273903Y-63156337D01*
X87174035Y-62942171D01*
X87168425Y-62934158D01*
X87038494Y-62748597D01*
X86871402Y-62581506D01*
X86871396Y-62581501D01*
X86685842Y-62451575D01*
X86642217Y-62396998D01*
X86635023Y-62327500D01*
X86666546Y-62265145D01*
X86685842Y-62248425D01*
X86815720Y-62157483D01*
X86871401Y-62118495D01*
X87038495Y-61951401D01*
X87174035Y-61757830D01*
X87273903Y-61543663D01*
X87335063Y-61315408D01*
X87355659Y-61080000D01*
X87335063Y-60844592D01*
X87273903Y-60616337D01*
X87174035Y-60402171D01*
X87174005Y-60402127D01*
X87038494Y-60208597D01*
X86871402Y-60041506D01*
X86871396Y-60041501D01*
X86685842Y-59911575D01*
X86642217Y-59856998D01*
X86635023Y-59787500D01*
X86666546Y-59725145D01*
X86685842Y-59708425D01*
X86809756Y-59621659D01*
X86871401Y-59578495D01*
X87038495Y-59411401D01*
X87174035Y-59217830D01*
X87273903Y-59003663D01*
X87335063Y-58775408D01*
X87355659Y-58540000D01*
X87335063Y-58304592D01*
X87273903Y-58076337D01*
X87174035Y-57862171D01*
X87168425Y-57854158D01*
X87038494Y-57668597D01*
X86871402Y-57501506D01*
X86871396Y-57501501D01*
X86685842Y-57371575D01*
X86642217Y-57316998D01*
X86635023Y-57247500D01*
X86666546Y-57185145D01*
X86685842Y-57168425D01*
X86708026Y-57152891D01*
X86871401Y-57038495D01*
X87038495Y-56871401D01*
X87174035Y-56677830D01*
X87273903Y-56463663D01*
X87335063Y-56235408D01*
X87355659Y-56000000D01*
X87335063Y-55764592D01*
X87273903Y-55536337D01*
X87174035Y-55322171D01*
X87162340Y-55305468D01*
X87038494Y-55128597D01*
X86871402Y-54961506D01*
X86871395Y-54961501D01*
X86677834Y-54825967D01*
X86677830Y-54825965D01*
X86629390Y-54803377D01*
X86463663Y-54726097D01*
X86463659Y-54726096D01*
X86463655Y-54726094D01*
X86235413Y-54664938D01*
X86235403Y-54664936D01*
X86000001Y-54644341D01*
X85999999Y-54644341D01*
X85764596Y-54664936D01*
X85764586Y-54664938D01*
X85536344Y-54726094D01*
X85536335Y-54726098D01*
X85322171Y-54825964D01*
X85322169Y-54825965D01*
X85128597Y-54961505D01*
X84961506Y-55128596D01*
X84913874Y-55196623D01*
X84859297Y-55240248D01*
X84812299Y-55249500D01*
X84647701Y-55249500D01*
X84580662Y-55229815D01*
X84546126Y-55196623D01*
X84522925Y-55163488D01*
X84500598Y-55097281D01*
X84500500Y-55092365D01*
X84500500Y-53626079D01*
X84471659Y-53481092D01*
X84471658Y-53481091D01*
X84471658Y-53481087D01*
X84471656Y-53481082D01*
X84415087Y-53344511D01*
X84415080Y-53344498D01*
X84332952Y-53221585D01*
X84296954Y-53185587D01*
X84228416Y-53117049D01*
X82636818Y-51525450D01*
X82603333Y-51464127D01*
X82600499Y-51437769D01*
X82600499Y-51176662D01*
X82600498Y-51176644D01*
X82590349Y-51077292D01*
X82590348Y-51077289D01*
X82537003Y-50916303D01*
X82536999Y-50916297D01*
X82536998Y-50916294D01*
X82447970Y-50771959D01*
X82447967Y-50771955D01*
X82328044Y-50652032D01*
X82328040Y-50652029D01*
X82183705Y-50563001D01*
X82183699Y-50562998D01*
X82183697Y-50562997D01*
X82183694Y-50562996D01*
X82022709Y-50509651D01*
X81923346Y-50499500D01*
X81376662Y-50499500D01*
X81376644Y-50499501D01*
X81277292Y-50509650D01*
X81277289Y-50509651D01*
X81116305Y-50562996D01*
X81116294Y-50563001D01*
X80971959Y-50652029D01*
X80971955Y-50652032D01*
X80852032Y-50771955D01*
X80852029Y-50771959D01*
X80763001Y-50916294D01*
X80762996Y-50916305D01*
X80709651Y-51077290D01*
X80699500Y-51176647D01*
X80699500Y-52023337D01*
X80699501Y-52023355D01*
X80709650Y-52122707D01*
X80709651Y-52122710D01*
X80762996Y-52283694D01*
X80763001Y-52283705D01*
X80841150Y-52410403D01*
X80859591Y-52477795D01*
X80838669Y-52544459D01*
X80785027Y-52589229D01*
X80735612Y-52599500D01*
X80412229Y-52599500D01*
X80345190Y-52579815D01*
X80324548Y-52563181D01*
X79336818Y-51575450D01*
X79303333Y-51514127D01*
X79300499Y-51487769D01*
X79300499Y-51176662D01*
X79300498Y-51176644D01*
X79290349Y-51077292D01*
X79290348Y-51077289D01*
X79237003Y-50916303D01*
X79236999Y-50916297D01*
X79236998Y-50916294D01*
X79147970Y-50771959D01*
X79147967Y-50771955D01*
X79028044Y-50652032D01*
X79028040Y-50652029D01*
X78883705Y-50563001D01*
X78883699Y-50562998D01*
X78883697Y-50562997D01*
X78883694Y-50562996D01*
X78722709Y-50509651D01*
X78623346Y-50499500D01*
X78076662Y-50499500D01*
X78076644Y-50499501D01*
X77977292Y-50509650D01*
X77977289Y-50509651D01*
X77816305Y-50562996D01*
X77816294Y-50563001D01*
X77671959Y-50652029D01*
X77671955Y-50652032D01*
X77552032Y-50771955D01*
X77552029Y-50771959D01*
X77463001Y-50916294D01*
X77462996Y-50916305D01*
X77409651Y-51077290D01*
X77399500Y-51176647D01*
X77399500Y-52023337D01*
X77399501Y-52023355D01*
X77409650Y-52122707D01*
X77409651Y-52122710D01*
X77462996Y-52283694D01*
X77463001Y-52283705D01*
X77552029Y-52428040D01*
X77552032Y-52428044D01*
X77671956Y-52547968D01*
X77675226Y-52549985D01*
X77676996Y-52551953D01*
X77677623Y-52552449D01*
X77677538Y-52552555D01*
X77721950Y-52601934D01*
X77733171Y-52670896D01*
X77705327Y-52734978D01*
X77686239Y-52751831D01*
X77687011Y-52752807D01*
X77681343Y-52757288D01*
X77557289Y-52881342D01*
X77557288Y-52881344D01*
X77510210Y-52957671D01*
X77489901Y-52990597D01*
X77437953Y-53037321D01*
X77384362Y-53049500D01*
X64911256Y-53049500D01*
X64766268Y-53078340D01*
X64766258Y-53078343D01*
X64629687Y-53134912D01*
X64629674Y-53134919D01*
X64506760Y-53217048D01*
X64506756Y-53217051D01*
X59610627Y-58113181D01*
X59549304Y-58146666D01*
X59522946Y-58149500D01*
X56726080Y-58149500D01*
X56581092Y-58178340D01*
X56581086Y-58178342D01*
X56444508Y-58234914D01*
X56444496Y-58234921D01*
X56395269Y-58267813D01*
X56321588Y-58317044D01*
X56321580Y-58317050D01*
X54725449Y-59913181D01*
X54664126Y-59946666D01*
X54637769Y-59949500D01*
X54402130Y-59949500D01*
X54402123Y-59949501D01*
X54342516Y-59955908D01*
X54207671Y-60006202D01*
X54207664Y-60006206D01*
X54092455Y-60092452D01*
X54092452Y-60092455D01*
X54006206Y-60207664D01*
X54006202Y-60207671D01*
X53955909Y-60342513D01*
X53954632Y-60347922D01*
X53920058Y-60408638D01*
X53858147Y-60441023D01*
X53788556Y-60434796D01*
X53746274Y-60407087D01*
X53589141Y-60249954D01*
X53402734Y-60119432D01*
X53402732Y-60119431D01*
X53196497Y-60023261D01*
X53196488Y-60023258D01*
X52976697Y-59964366D01*
X52976693Y-59964365D01*
X52976692Y-59964365D01*
X52976691Y-59964364D01*
X52976686Y-59964364D01*
X52750002Y-59944532D01*
X52749998Y-59944532D01*
X52523313Y-59964364D01*
X52523302Y-59964366D01*
X52303511Y-60023258D01*
X52303502Y-60023261D01*
X52097267Y-60119431D01*
X52097265Y-60119432D01*
X51945623Y-60225612D01*
X51879416Y-60247940D01*
X51811649Y-60230928D01*
X51763837Y-60179980D01*
X51750500Y-60124037D01*
X51750500Y-58679850D01*
X51770185Y-58612811D01*
X51786819Y-58592169D01*
X53378994Y-56999994D01*
X55052273Y-55326714D01*
X55113594Y-55293231D01*
X55150756Y-55290869D01*
X55293987Y-55303400D01*
X55317620Y-55305468D01*
X55317621Y-55305468D01*
X55317623Y-55305468D01*
X55374428Y-55300498D01*
X55544313Y-55285635D01*
X55764117Y-55226739D01*
X55970355Y-55130568D01*
X56156760Y-55000047D01*
X56317668Y-54839139D01*
X56342709Y-54803377D01*
X56397286Y-54759752D01*
X56444284Y-54750500D01*
X58114293Y-54750500D01*
X58181332Y-54770185D01*
X58197831Y-54782863D01*
X58306558Y-54881980D01*
X58306560Y-54881982D01*
X58310774Y-54884591D01*
X58479963Y-54989348D01*
X58670144Y-55063024D01*
X58870624Y-55100500D01*
X58870626Y-55100500D01*
X59074574Y-55100500D01*
X59074576Y-55100500D01*
X59275056Y-55063024D01*
X59465237Y-54989348D01*
X59638641Y-54881981D01*
X59730617Y-54798133D01*
X59793418Y-54767518D01*
X59862805Y-54775715D01*
X59916746Y-54820125D01*
X59924273Y-54834698D01*
X59924553Y-54834546D01*
X59928806Y-54842335D01*
X60015052Y-54957544D01*
X60015055Y-54957547D01*
X60130264Y-55043793D01*
X60130271Y-55043797D01*
X60265117Y-55094091D01*
X60265116Y-55094091D01*
X60272044Y-55094835D01*
X60324727Y-55100500D01*
X61620472Y-55100499D01*
X61680083Y-55094091D01*
X61814931Y-55043796D01*
X61930146Y-54957546D01*
X62016396Y-54842331D01*
X62066691Y-54707483D01*
X62073100Y-54647873D01*
X62073099Y-53352128D01*
X62066691Y-53292517D01*
X62049995Y-53247754D01*
X62016397Y-53157671D01*
X62016393Y-53157664D01*
X61930147Y-53042455D01*
X61930144Y-53042452D01*
X61814935Y-52956206D01*
X61814928Y-52956202D01*
X61680082Y-52905908D01*
X61680083Y-52905908D01*
X61620483Y-52899501D01*
X61620481Y-52899500D01*
X61620473Y-52899500D01*
X61620464Y-52899500D01*
X60324729Y-52899500D01*
X60324723Y-52899501D01*
X60265116Y-52905908D01*
X60130271Y-52956202D01*
X60130264Y-52956206D01*
X60015055Y-53042452D01*
X60015052Y-53042455D01*
X59928806Y-53157664D01*
X59924553Y-53165454D01*
X59922341Y-53164246D01*
X59888440Y-53209511D01*
X59822970Y-53233913D01*
X59754701Y-53219045D01*
X59730615Y-53201864D01*
X59638641Y-53118019D01*
X59638639Y-53118017D01*
X59465242Y-53010655D01*
X59465235Y-53010651D01*
X59328458Y-52957664D01*
X59275056Y-52936976D01*
X59074576Y-52899500D01*
X58870624Y-52899500D01*
X58670144Y-52936976D01*
X58670141Y-52936976D01*
X58670141Y-52936977D01*
X58479964Y-53010651D01*
X58479957Y-53010655D01*
X58306560Y-53118017D01*
X58306558Y-53118019D01*
X58197831Y-53217137D01*
X58135027Y-53247754D01*
X58114293Y-53249500D01*
X56444284Y-53249500D01*
X56377245Y-53229815D01*
X56342709Y-53196623D01*
X56317666Y-53160858D01*
X56156762Y-52999954D01*
X55970355Y-52869432D01*
X55970353Y-52869431D01*
X55764118Y-52773261D01*
X55764109Y-52773258D01*
X55544318Y-52714366D01*
X55544314Y-52714365D01*
X55544313Y-52714365D01*
X55544312Y-52714364D01*
X55544307Y-52714364D01*
X55317623Y-52694532D01*
X55317619Y-52694532D01*
X55090934Y-52714364D01*
X55090923Y-52714366D01*
X54871132Y-52773258D01*
X54871123Y-52773261D01*
X54664888Y-52869431D01*
X54664886Y-52869432D01*
X54478483Y-52999951D01*
X54321347Y-53157087D01*
X54260024Y-53190571D01*
X54190332Y-53185587D01*
X54134399Y-53143715D01*
X54112990Y-53097923D01*
X54111712Y-53092518D01*
X54061418Y-52957671D01*
X54061414Y-52957664D01*
X53975168Y-52842455D01*
X53975165Y-52842452D01*
X53859956Y-52756206D01*
X53859949Y-52756202D01*
X53725103Y-52705908D01*
X53725104Y-52705908D01*
X53665504Y-52699501D01*
X53665502Y-52699500D01*
X53665494Y-52699500D01*
X53665485Y-52699500D01*
X51969750Y-52699500D01*
X51969744Y-52699501D01*
X51910137Y-52705908D01*
X51775292Y-52756202D01*
X51775285Y-52756206D01*
X51660076Y-52842452D01*
X51660073Y-52842455D01*
X51573827Y-52957664D01*
X51573823Y-52957671D01*
X51523529Y-53092517D01*
X51517122Y-53152116D01*
X51517121Y-53152135D01*
X51517121Y-54847870D01*
X51517122Y-54847876D01*
X51523529Y-54907483D01*
X51573823Y-55042328D01*
X51573827Y-55042335D01*
X51660073Y-55157544D01*
X51660076Y-55157547D01*
X51775285Y-55243793D01*
X51775292Y-55243797D01*
X51910138Y-55294091D01*
X51910137Y-55294091D01*
X51917065Y-55294835D01*
X51969748Y-55300500D01*
X52656392Y-55300499D01*
X52723430Y-55320183D01*
X52769185Y-55372987D01*
X52779129Y-55442146D01*
X52750104Y-55505702D01*
X52744072Y-55512180D01*
X50462181Y-57794071D01*
X50400858Y-57827556D01*
X50331166Y-57822572D01*
X50275233Y-57780700D01*
X50250816Y-57715236D01*
X50250500Y-57706390D01*
X50250500Y-50374500D01*
X50270185Y-50307461D01*
X50322989Y-50261706D01*
X50374500Y-50250500D01*
X89625500Y-50250500D01*
X89692539Y-50270185D01*
G37*
G04 #@! TD.AperFunction*
G04 #@! TA.AperFunction,NonConductor*
G36*
X57902898Y-62020185D02*
G01*
X57948653Y-62072989D01*
X57952030Y-62081140D01*
X57956204Y-62092331D01*
X57956205Y-62092332D01*
X57956206Y-62092335D01*
X58042452Y-62207544D01*
X58042455Y-62207547D01*
X58157665Y-62293794D01*
X58157667Y-62293794D01*
X58157669Y-62293796D01*
X58168830Y-62297958D01*
X58224764Y-62339826D01*
X58249184Y-62405289D01*
X58249500Y-62414141D01*
X58249500Y-64573918D01*
X58249500Y-64573920D01*
X58249499Y-64573920D01*
X58278340Y-64718907D01*
X58278343Y-64718917D01*
X58334914Y-64855492D01*
X58334915Y-64855494D01*
X58334916Y-64855495D01*
X58348073Y-64875186D01*
X58409613Y-64967289D01*
X58412915Y-64972230D01*
X58433792Y-65038907D01*
X58415307Y-65106287D01*
X58363328Y-65152977D01*
X58294358Y-65164153D01*
X58250795Y-65150175D01*
X58142081Y-65091342D01*
X58104811Y-65071172D01*
X58104802Y-65071169D01*
X57869616Y-64990429D01*
X57624335Y-64949500D01*
X57375665Y-64949500D01*
X57130383Y-64990429D01*
X56895197Y-65071169D01*
X56895188Y-65071172D01*
X56676493Y-65189524D01*
X56480257Y-65342261D01*
X56311833Y-65525217D01*
X56175826Y-65733393D01*
X56075936Y-65961118D01*
X56014892Y-66202175D01*
X56014890Y-66202187D01*
X55994357Y-66449994D01*
X55994357Y-66450005D01*
X56014890Y-66697812D01*
X56014892Y-66697824D01*
X56075936Y-66938881D01*
X56175826Y-67166606D01*
X56311833Y-67374782D01*
X56311836Y-67374785D01*
X56480256Y-67557738D01*
X56676491Y-67710474D01*
X56895190Y-67828828D01*
X57130386Y-67909571D01*
X57375665Y-67950500D01*
X57624335Y-67950500D01*
X57869614Y-67909571D01*
X58104810Y-67828828D01*
X58323509Y-67710474D01*
X58519744Y-67557738D01*
X58688164Y-67374785D01*
X58824173Y-67166607D01*
X58924063Y-66938881D01*
X58985108Y-66697821D01*
X58991254Y-66623655D01*
X59005643Y-66450005D01*
X59005643Y-66449994D01*
X58985109Y-66202187D01*
X58985107Y-66202175D01*
X58924063Y-65961118D01*
X58824173Y-65733392D01*
X58822555Y-65730916D01*
X58822204Y-65729753D01*
X58821733Y-65728883D01*
X58821912Y-65728786D01*
X58802365Y-65664027D01*
X58821542Y-65596841D01*
X58873999Y-65550689D01*
X58943081Y-65540223D01*
X59006854Y-65568768D01*
X59014042Y-65575410D01*
X59500618Y-66061985D01*
X59534103Y-66123308D01*
X59533143Y-66180106D01*
X59514891Y-66252182D01*
X59494357Y-66499994D01*
X59494357Y-66500005D01*
X59514890Y-66747812D01*
X59514892Y-66747824D01*
X59575936Y-66988881D01*
X59675826Y-67216606D01*
X59811833Y-67424782D01*
X59830272Y-67444812D01*
X59980256Y-67607738D01*
X60101660Y-67702231D01*
X60174522Y-67758942D01*
X60176491Y-67760474D01*
X60184513Y-67764815D01*
X60234106Y-67814032D01*
X60249500Y-67873872D01*
X60249500Y-71684746D01*
X60249500Y-71684748D01*
X60249499Y-71684748D01*
X60278340Y-71829735D01*
X60278343Y-71829745D01*
X60334912Y-71966316D01*
X60334918Y-71966327D01*
X60346522Y-71983692D01*
X60346524Y-71983697D01*
X60417046Y-72089242D01*
X60417052Y-72089249D01*
X63406221Y-75078416D01*
X63510756Y-75182951D01*
X63510759Y-75182953D01*
X63510760Y-75182954D01*
X63633675Y-75265083D01*
X63633678Y-75265085D01*
X63690251Y-75288518D01*
X63690252Y-75288518D01*
X63770260Y-75321659D01*
X63886413Y-75344763D01*
X63905640Y-75348587D01*
X63915253Y-75350500D01*
X63915254Y-75350500D01*
X63915255Y-75350500D01*
X64063090Y-75350500D01*
X85737770Y-75350500D01*
X85804809Y-75370185D01*
X85825451Y-75386819D01*
X88713181Y-78274548D01*
X88746666Y-78335871D01*
X88749500Y-78362229D01*
X88749500Y-94437770D01*
X88729815Y-94504809D01*
X88713181Y-94525451D01*
X87025451Y-96213181D01*
X86964128Y-96246666D01*
X86937770Y-96249500D01*
X82706978Y-96249500D01*
X82639939Y-96229815D01*
X82628313Y-96221353D01*
X82558539Y-96164090D01*
X82558532Y-96164086D01*
X82384733Y-96071188D01*
X82384727Y-96071186D01*
X82196132Y-96013976D01*
X82196129Y-96013975D01*
X82000000Y-95994659D01*
X81803870Y-96013975D01*
X81615266Y-96071188D01*
X81441467Y-96164086D01*
X81441460Y-96164091D01*
X81350557Y-96238693D01*
X81286247Y-96266006D01*
X81217379Y-96254215D01*
X81165819Y-96207062D01*
X81150275Y-96167032D01*
X81125502Y-96042493D01*
X81125501Y-96042492D01*
X81125501Y-96042488D01*
X81080590Y-95934063D01*
X81076466Y-95924106D01*
X81076465Y-95924104D01*
X81076462Y-95924099D01*
X81005278Y-95817564D01*
X81005272Y-95817557D01*
X78182441Y-92994726D01*
X78182437Y-92994723D01*
X78075895Y-92923535D01*
X77957512Y-92874499D01*
X77957506Y-92874497D01*
X77831839Y-92849500D01*
X77831837Y-92849500D01*
X72685931Y-92849500D01*
X72685929Y-92849500D01*
X72560261Y-92874497D01*
X72560255Y-92874499D01*
X72441874Y-92923534D01*
X72335326Y-92994726D01*
X72335325Y-92994727D01*
X71516873Y-93813181D01*
X71455550Y-93846666D01*
X71429192Y-93849500D01*
X71405354Y-93849500D01*
X71372897Y-93856398D01*
X71220197Y-93888855D01*
X71220192Y-93888857D01*
X71047270Y-93965848D01*
X71047265Y-93965851D01*
X70894129Y-94077111D01*
X70767466Y-94217785D01*
X70672821Y-94381715D01*
X70672818Y-94381722D01*
X70637919Y-94489132D01*
X70614326Y-94561744D01*
X70594540Y-94750000D01*
X70614326Y-94938256D01*
X70614327Y-94938259D01*
X70672818Y-95118277D01*
X70672821Y-95118284D01*
X70767467Y-95282216D01*
X70894129Y-95422888D01*
X70929019Y-95448237D01*
X70971685Y-95503565D01*
X70977666Y-95573178D01*
X70945061Y-95634973D01*
X70943816Y-95636236D01*
X69862181Y-96717872D01*
X69800858Y-96751357D01*
X69731166Y-96746373D01*
X69675233Y-96704501D01*
X69650816Y-96639037D01*
X69650500Y-96630191D01*
X69650500Y-94287501D01*
X69670185Y-94220462D01*
X69722989Y-94174707D01*
X69734220Y-94170226D01*
X69854810Y-94128828D01*
X70073509Y-94010474D01*
X70269744Y-93857738D01*
X70438164Y-93674785D01*
X70574173Y-93466607D01*
X70674063Y-93238881D01*
X70735108Y-92997821D01*
X70735109Y-92997812D01*
X70755643Y-92750005D01*
X70755643Y-92749994D01*
X70735109Y-92502187D01*
X70735107Y-92502175D01*
X70674063Y-92261118D01*
X70574173Y-92033393D01*
X70438166Y-91825217D01*
X70408646Y-91793150D01*
X70269744Y-91642262D01*
X70073509Y-91489526D01*
X70073507Y-91489525D01*
X70073506Y-91489524D01*
X69854811Y-91371172D01*
X69854802Y-91371169D01*
X69619616Y-91290429D01*
X69374335Y-91249500D01*
X69125665Y-91249500D01*
X68880383Y-91290429D01*
X68645197Y-91371169D01*
X68645188Y-91371172D01*
X68426493Y-91489524D01*
X68230257Y-91642261D01*
X68061833Y-91825217D01*
X67925826Y-92033393D01*
X67925214Y-92034525D01*
X67924842Y-92034898D01*
X67923022Y-92037686D01*
X67922448Y-92037311D01*
X67875991Y-92084112D01*
X67816163Y-92099500D01*
X67777914Y-92099500D01*
X67710875Y-92079815D01*
X67690233Y-92063181D01*
X63186819Y-87559767D01*
X63153334Y-87498444D01*
X63150500Y-87472086D01*
X63150500Y-87314284D01*
X63170185Y-87247245D01*
X63215484Y-87205229D01*
X63268619Y-87176474D01*
X63268620Y-87176472D01*
X63268626Y-87176470D01*
X63451784Y-87033913D01*
X63608979Y-86863153D01*
X63735924Y-86668849D01*
X63829157Y-86456300D01*
X63886134Y-86231305D01*
X63905300Y-86000000D01*
X63905300Y-85999993D01*
X63886135Y-85768702D01*
X63886133Y-85768691D01*
X63829157Y-85543699D01*
X63735924Y-85331151D01*
X63608983Y-85136852D01*
X63608980Y-85136849D01*
X63608979Y-85136847D01*
X63530996Y-85052135D01*
X76099500Y-85052135D01*
X76099500Y-86947870D01*
X76099501Y-86947876D01*
X76105908Y-87007483D01*
X76156202Y-87142328D01*
X76156206Y-87142335D01*
X76242452Y-87257544D01*
X76242455Y-87257547D01*
X76357664Y-87343793D01*
X76357671Y-87343797D01*
X76492517Y-87394091D01*
X76492516Y-87394091D01*
X76499444Y-87394835D01*
X76552127Y-87400500D01*
X78447872Y-87400499D01*
X78507483Y-87394091D01*
X78642331Y-87343796D01*
X78757546Y-87257546D01*
X78843796Y-87142331D01*
X78862092Y-87093274D01*
X78903961Y-87037342D01*
X78969425Y-87012924D01*
X79037699Y-87027775D01*
X79054436Y-87038755D01*
X79231365Y-87176464D01*
X79231371Y-87176468D01*
X79231374Y-87176470D01*
X79435497Y-87286936D01*
X79515159Y-87314284D01*
X79655015Y-87362297D01*
X79655017Y-87362297D01*
X79655019Y-87362298D01*
X79883951Y-87400500D01*
X79883952Y-87400500D01*
X80116048Y-87400500D01*
X80116049Y-87400500D01*
X80344981Y-87362298D01*
X80345034Y-87362280D01*
X80353452Y-87359390D01*
X80564503Y-87286936D01*
X80768626Y-87176470D01*
X80951784Y-87033913D01*
X81108979Y-86863153D01*
X81146191Y-86806196D01*
X81199337Y-86760839D01*
X81268569Y-86751415D01*
X81331904Y-86780917D01*
X81353809Y-86806196D01*
X81391016Y-86863147D01*
X81391019Y-86863151D01*
X81391021Y-86863153D01*
X81548216Y-87033913D01*
X81548219Y-87033915D01*
X81548222Y-87033918D01*
X81731365Y-87176464D01*
X81731371Y-87176468D01*
X81731374Y-87176470D01*
X81935497Y-87286936D01*
X82015159Y-87314284D01*
X82155015Y-87362297D01*
X82155017Y-87362297D01*
X82155019Y-87362298D01*
X82383951Y-87400500D01*
X82383952Y-87400500D01*
X82616048Y-87400500D01*
X82616049Y-87400500D01*
X82844981Y-87362298D01*
X82845034Y-87362280D01*
X82853452Y-87359390D01*
X83064503Y-87286936D01*
X83268626Y-87176470D01*
X83451784Y-87033913D01*
X83608979Y-86863153D01*
X83735924Y-86668849D01*
X83829157Y-86456300D01*
X83886134Y-86231305D01*
X83905300Y-86000000D01*
X83905300Y-85999993D01*
X83886135Y-85768702D01*
X83886133Y-85768691D01*
X83829157Y-85543699D01*
X83735924Y-85331151D01*
X83608983Y-85136852D01*
X83608980Y-85136849D01*
X83608979Y-85136847D01*
X83451784Y-84966087D01*
X83451779Y-84966083D01*
X83451777Y-84966081D01*
X83268634Y-84823535D01*
X83268628Y-84823531D01*
X83064504Y-84713064D01*
X83064495Y-84713061D01*
X82844984Y-84637702D01*
X82654450Y-84605908D01*
X82616049Y-84599500D01*
X82383951Y-84599500D01*
X82345550Y-84605908D01*
X82155015Y-84637702D01*
X81935504Y-84713061D01*
X81935495Y-84713064D01*
X81731371Y-84823531D01*
X81731365Y-84823535D01*
X81548222Y-84966081D01*
X81548219Y-84966084D01*
X81548216Y-84966086D01*
X81548216Y-84966087D01*
X81400500Y-85126551D01*
X81391015Y-85136854D01*
X81353808Y-85193804D01*
X81300662Y-85239161D01*
X81231430Y-85248584D01*
X81168095Y-85219082D01*
X81146192Y-85193804D01*
X81108984Y-85136854D01*
X81108982Y-85136852D01*
X81108979Y-85136847D01*
X80951784Y-84966087D01*
X80951779Y-84966083D01*
X80951777Y-84966081D01*
X80768634Y-84823535D01*
X80768628Y-84823531D01*
X80564504Y-84713064D01*
X80564495Y-84713061D01*
X80344984Y-84637702D01*
X80154450Y-84605908D01*
X80116049Y-84599500D01*
X79883951Y-84599500D01*
X79845550Y-84605908D01*
X79655015Y-84637702D01*
X79435504Y-84713061D01*
X79435495Y-84713064D01*
X79231372Y-84823531D01*
X79054436Y-84961245D01*
X78989442Y-84986887D01*
X78920902Y-84973320D01*
X78870577Y-84924852D01*
X78862092Y-84906723D01*
X78843798Y-84857673D01*
X78843793Y-84857664D01*
X78757547Y-84742455D01*
X78757544Y-84742452D01*
X78642335Y-84656206D01*
X78642328Y-84656202D01*
X78507482Y-84605908D01*
X78507483Y-84605908D01*
X78447883Y-84599501D01*
X78447881Y-84599500D01*
X78447873Y-84599500D01*
X78447864Y-84599500D01*
X76552129Y-84599500D01*
X76552123Y-84599501D01*
X76492516Y-84605908D01*
X76357671Y-84656202D01*
X76357664Y-84656206D01*
X76242455Y-84742452D01*
X76242452Y-84742455D01*
X76156206Y-84857664D01*
X76156202Y-84857671D01*
X76105908Y-84992517D01*
X76099501Y-85052116D01*
X76099500Y-85052135D01*
X63530996Y-85052135D01*
X63451784Y-84966087D01*
X63451779Y-84966083D01*
X63451777Y-84966081D01*
X63268634Y-84823535D01*
X63268628Y-84823531D01*
X63064504Y-84713064D01*
X63064495Y-84713061D01*
X62844984Y-84637702D01*
X62654450Y-84605908D01*
X62616049Y-84599500D01*
X62383951Y-84599500D01*
X62345550Y-84605908D01*
X62155015Y-84637702D01*
X61935504Y-84713061D01*
X61935495Y-84713064D01*
X61731371Y-84823531D01*
X61731365Y-84823535D01*
X61548222Y-84966081D01*
X61548219Y-84966084D01*
X61548216Y-84966086D01*
X61548216Y-84966087D01*
X61400500Y-85126551D01*
X61391015Y-85136854D01*
X61353808Y-85193804D01*
X61300662Y-85239161D01*
X61231430Y-85248584D01*
X61168095Y-85219082D01*
X61146192Y-85193804D01*
X61108984Y-85136854D01*
X61108982Y-85136852D01*
X61108979Y-85136847D01*
X60951784Y-84966087D01*
X60951779Y-84966083D01*
X60951777Y-84966081D01*
X60768634Y-84823535D01*
X60768628Y-84823531D01*
X60564504Y-84713064D01*
X60564495Y-84713061D01*
X60344984Y-84637702D01*
X60154450Y-84605908D01*
X60116049Y-84599500D01*
X59883951Y-84599500D01*
X59845550Y-84605908D01*
X59655015Y-84637702D01*
X59435504Y-84713061D01*
X59435495Y-84713064D01*
X59231372Y-84823531D01*
X59054436Y-84961245D01*
X58989442Y-84986887D01*
X58920902Y-84973320D01*
X58870577Y-84924852D01*
X58862092Y-84906723D01*
X58843798Y-84857673D01*
X58843793Y-84857664D01*
X58757547Y-84742455D01*
X58757544Y-84742452D01*
X58642335Y-84656206D01*
X58642328Y-84656202D01*
X58507482Y-84605908D01*
X58507483Y-84605908D01*
X58447883Y-84599501D01*
X58447881Y-84599500D01*
X58447873Y-84599500D01*
X58447864Y-84599500D01*
X56552129Y-84599500D01*
X56552123Y-84599501D01*
X56492516Y-84605908D01*
X56357671Y-84656202D01*
X56357664Y-84656206D01*
X56242455Y-84742452D01*
X56242452Y-84742455D01*
X56156206Y-84857664D01*
X56156202Y-84857671D01*
X56105908Y-84992517D01*
X56099501Y-85052116D01*
X56099500Y-85052135D01*
X56099500Y-86947870D01*
X56099501Y-86947876D01*
X56105908Y-87007483D01*
X56156202Y-87142328D01*
X56156206Y-87142335D01*
X56242452Y-87257544D01*
X56242455Y-87257547D01*
X56357664Y-87343793D01*
X56357671Y-87343797D01*
X56492517Y-87394091D01*
X56492516Y-87394091D01*
X56499444Y-87394835D01*
X56552127Y-87400500D01*
X58447872Y-87400499D01*
X58507483Y-87394091D01*
X58642331Y-87343796D01*
X58757546Y-87257546D01*
X58843796Y-87142331D01*
X58862092Y-87093274D01*
X58903961Y-87037342D01*
X58969425Y-87012924D01*
X59037699Y-87027775D01*
X59054436Y-87038755D01*
X59231365Y-87176464D01*
X59231371Y-87176468D01*
X59231374Y-87176470D01*
X59435497Y-87286936D01*
X59515159Y-87314284D01*
X59655015Y-87362297D01*
X59655017Y-87362297D01*
X59655019Y-87362298D01*
X59883951Y-87400500D01*
X59883952Y-87400500D01*
X60116048Y-87400500D01*
X60116049Y-87400500D01*
X60344981Y-87362298D01*
X60349944Y-87361041D01*
X60350257Y-87362280D01*
X60414032Y-87359390D01*
X60472200Y-87392146D01*
X64873204Y-91793150D01*
X64906689Y-91854473D01*
X64901705Y-91924165D01*
X64859833Y-91980098D01*
X64794369Y-92004515D01*
X64785523Y-92004831D01*
X64750020Y-92004831D01*
X64717563Y-92011729D01*
X64564863Y-92044186D01*
X64564858Y-92044188D01*
X64391936Y-92121179D01*
X64391931Y-92121182D01*
X64238795Y-92232442D01*
X64112132Y-92373116D01*
X64017487Y-92537046D01*
X64017484Y-92537053D01*
X63958993Y-92717071D01*
X63958992Y-92717075D01*
X63939206Y-92905331D01*
X63958992Y-93093587D01*
X63958993Y-93093590D01*
X64017484Y-93273608D01*
X64017487Y-93273615D01*
X64112132Y-93437546D01*
X64162315Y-93493279D01*
X64192546Y-93556271D01*
X64194166Y-93576252D01*
X64194166Y-93865841D01*
X64217523Y-93983261D01*
X64219165Y-93991516D01*
X64268201Y-94109899D01*
X64339389Y-94216441D01*
X64339392Y-94216445D01*
X64339393Y-94216446D01*
X66207253Y-96084305D01*
X66240738Y-96145628D01*
X66235754Y-96215320D01*
X66193882Y-96271253D01*
X66128418Y-96295670D01*
X66107424Y-96295389D01*
X66100008Y-96294659D01*
X66100000Y-96294659D01*
X65903870Y-96313975D01*
X65715266Y-96371188D01*
X65541467Y-96464086D01*
X65541460Y-96464090D01*
X65471687Y-96521353D01*
X65407377Y-96548666D01*
X65393022Y-96549500D01*
X54262230Y-96549500D01*
X54195191Y-96529815D01*
X54174549Y-96513181D01*
X51386819Y-93725451D01*
X51353334Y-93664128D01*
X51350500Y-93637770D01*
X51350500Y-78499994D01*
X52744556Y-78499994D01*
X52744556Y-78500005D01*
X52764310Y-78814004D01*
X52764311Y-78814011D01*
X52823270Y-79123083D01*
X52920497Y-79422316D01*
X52920499Y-79422321D01*
X53054461Y-79707003D01*
X53054464Y-79707009D01*
X53223051Y-79972661D01*
X53223054Y-79972665D01*
X53423606Y-80215090D01*
X53423608Y-80215092D01*
X53652968Y-80430476D01*
X53652978Y-80430484D01*
X53907504Y-80615408D01*
X53907509Y-80615410D01*
X53907516Y-80615416D01*
X54183234Y-80766994D01*
X54183239Y-80766996D01*
X54183241Y-80766997D01*
X54183242Y-80766998D01*
X54475771Y-80882818D01*
X54475774Y-80882819D01*
X54780523Y-80961065D01*
X54780527Y-80961066D01*
X54846010Y-80969338D01*
X55092670Y-81000499D01*
X55092679Y-81000499D01*
X55092682Y-81000500D01*
X55092684Y-81000500D01*
X55407316Y-81000500D01*
X55407318Y-81000500D01*
X55407321Y-81000499D01*
X55407329Y-81000499D01*
X55593593Y-80976968D01*
X55719473Y-80961066D01*
X56024225Y-80882819D01*
X56024228Y-80882818D01*
X56316757Y-80766998D01*
X56316758Y-80766997D01*
X56316756Y-80766997D01*
X56316766Y-80766994D01*
X56592484Y-80615416D01*
X56847030Y-80430478D01*
X57076390Y-80215094D01*
X57276947Y-79972663D01*
X57445537Y-79707007D01*
X57579503Y-79422315D01*
X57676731Y-79123079D01*
X57735688Y-78814015D01*
X57755444Y-78500000D01*
X57755444Y-78499994D01*
X62244556Y-78499994D01*
X62244556Y-78500005D01*
X62264310Y-78814004D01*
X62264311Y-78814011D01*
X62323270Y-79123083D01*
X62420497Y-79422316D01*
X62420499Y-79422321D01*
X62554461Y-79707003D01*
X62554464Y-79707009D01*
X62723051Y-79972661D01*
X62723054Y-79972665D01*
X62923606Y-80215090D01*
X62923608Y-80215092D01*
X63152968Y-80430476D01*
X63152978Y-80430484D01*
X63407504Y-80615408D01*
X63407509Y-80615410D01*
X63407516Y-80615416D01*
X63683234Y-80766994D01*
X63683239Y-80766996D01*
X63683241Y-80766997D01*
X63683242Y-80766998D01*
X63975771Y-80882818D01*
X63975774Y-80882819D01*
X64280523Y-80961065D01*
X64280527Y-80961066D01*
X64346010Y-80969338D01*
X64592670Y-81000499D01*
X64592679Y-81000499D01*
X64592682Y-81000500D01*
X64592684Y-81000500D01*
X64907316Y-81000500D01*
X64907318Y-81000500D01*
X64907321Y-81000499D01*
X64907329Y-81000499D01*
X65093593Y-80976968D01*
X65219473Y-80961066D01*
X65524225Y-80882819D01*
X65524228Y-80882818D01*
X65816757Y-80766998D01*
X65816758Y-80766997D01*
X65816756Y-80766997D01*
X65816766Y-80766994D01*
X66092484Y-80615416D01*
X66347030Y-80430478D01*
X66576390Y-80215094D01*
X66776947Y-79972663D01*
X66945537Y-79707007D01*
X67079503Y-79422315D01*
X67176731Y-79123079D01*
X67235688Y-78814015D01*
X67255444Y-78500000D01*
X67255444Y-78499994D01*
X72744556Y-78499994D01*
X72744556Y-78500005D01*
X72764310Y-78814004D01*
X72764311Y-78814011D01*
X72823270Y-79123083D01*
X72920497Y-79422316D01*
X72920499Y-79422321D01*
X73054461Y-79707003D01*
X73054464Y-79707009D01*
X73223051Y-79972661D01*
X73223054Y-79972665D01*
X73423606Y-80215090D01*
X73423608Y-80215092D01*
X73652968Y-80430476D01*
X73652978Y-80430484D01*
X73907504Y-80615408D01*
X73907509Y-80615410D01*
X73907516Y-80615416D01*
X74183234Y-80766994D01*
X74183239Y-80766996D01*
X74183241Y-80766997D01*
X74183242Y-80766998D01*
X74475771Y-80882818D01*
X74475774Y-80882819D01*
X74780523Y-80961065D01*
X74780527Y-80961066D01*
X74846010Y-80969338D01*
X75092670Y-81000499D01*
X75092679Y-81000499D01*
X75092682Y-81000500D01*
X75092684Y-81000500D01*
X75407316Y-81000500D01*
X75407318Y-81000500D01*
X75407321Y-81000499D01*
X75407329Y-81000499D01*
X75593593Y-80976968D01*
X75719473Y-80961066D01*
X76024225Y-80882819D01*
X76024228Y-80882818D01*
X76316757Y-80766998D01*
X76316758Y-80766997D01*
X76316756Y-80766997D01*
X76316766Y-80766994D01*
X76592484Y-80615416D01*
X76847030Y-80430478D01*
X77076390Y-80215094D01*
X77276947Y-79972663D01*
X77445537Y-79707007D01*
X77579503Y-79422315D01*
X77676731Y-79123079D01*
X77735688Y-78814015D01*
X77755444Y-78500000D01*
X77755444Y-78499994D01*
X82244556Y-78499994D01*
X82244556Y-78500005D01*
X82264310Y-78814004D01*
X82264311Y-78814011D01*
X82323270Y-79123083D01*
X82420497Y-79422316D01*
X82420499Y-79422321D01*
X82554461Y-79707003D01*
X82554464Y-79707009D01*
X82723051Y-79972661D01*
X82723054Y-79972665D01*
X82923606Y-80215090D01*
X82923608Y-80215092D01*
X83152968Y-80430476D01*
X83152978Y-80430484D01*
X83407504Y-80615408D01*
X83407509Y-80615410D01*
X83407516Y-80615416D01*
X83683234Y-80766994D01*
X83683239Y-80766996D01*
X83683241Y-80766997D01*
X83683242Y-80766998D01*
X83975771Y-80882818D01*
X83975774Y-80882819D01*
X84280523Y-80961065D01*
X84280527Y-80961066D01*
X84346010Y-80969338D01*
X84592670Y-81000499D01*
X84592679Y-81000499D01*
X84592682Y-81000500D01*
X84592684Y-81000500D01*
X84907316Y-81000500D01*
X84907318Y-81000500D01*
X84907321Y-81000499D01*
X84907329Y-81000499D01*
X85093593Y-80976968D01*
X85219473Y-80961066D01*
X85524225Y-80882819D01*
X85524228Y-80882818D01*
X85816757Y-80766998D01*
X85816758Y-80766997D01*
X85816756Y-80766997D01*
X85816766Y-80766994D01*
X86092484Y-80615416D01*
X86347030Y-80430478D01*
X86576390Y-80215094D01*
X86776947Y-79972663D01*
X86945537Y-79707007D01*
X87079503Y-79422315D01*
X87176731Y-79123079D01*
X87235688Y-78814015D01*
X87255444Y-78500000D01*
X87246776Y-78362229D01*
X87235689Y-78185995D01*
X87235688Y-78185988D01*
X87235688Y-78185985D01*
X87176731Y-77876921D01*
X87079503Y-77577685D01*
X86945537Y-77292993D01*
X86776947Y-77027337D01*
X86776945Y-77027334D01*
X86576393Y-76784909D01*
X86576391Y-76784907D01*
X86347031Y-76569523D01*
X86347021Y-76569515D01*
X86092495Y-76384591D01*
X86092488Y-76384586D01*
X86092484Y-76384584D01*
X85816766Y-76233006D01*
X85816763Y-76233004D01*
X85816758Y-76233002D01*
X85816757Y-76233001D01*
X85524228Y-76117181D01*
X85524225Y-76117180D01*
X85219476Y-76038934D01*
X85219463Y-76038932D01*
X84907329Y-75999500D01*
X84907318Y-75999500D01*
X84592682Y-75999500D01*
X84592670Y-75999500D01*
X84280536Y-76038932D01*
X84280523Y-76038934D01*
X83975774Y-76117180D01*
X83975771Y-76117181D01*
X83683242Y-76233001D01*
X83683241Y-76233002D01*
X83407516Y-76384584D01*
X83407504Y-76384591D01*
X83152978Y-76569515D01*
X83152968Y-76569523D01*
X82923608Y-76784907D01*
X82923606Y-76784909D01*
X82723054Y-77027334D01*
X82723051Y-77027338D01*
X82554464Y-77292990D01*
X82554461Y-77292996D01*
X82420499Y-77577678D01*
X82420497Y-77577683D01*
X82323270Y-77876916D01*
X82264311Y-78185988D01*
X82264310Y-78185995D01*
X82244556Y-78499994D01*
X77755444Y-78499994D01*
X77746776Y-78362229D01*
X77735689Y-78185995D01*
X77735688Y-78185988D01*
X77735688Y-78185985D01*
X77676731Y-77876921D01*
X77579503Y-77577685D01*
X77445537Y-77292993D01*
X77276947Y-77027337D01*
X77276945Y-77027334D01*
X77076393Y-76784909D01*
X77076391Y-76784907D01*
X76847031Y-76569523D01*
X76847021Y-76569515D01*
X76592495Y-76384591D01*
X76592488Y-76384586D01*
X76592484Y-76384584D01*
X76316766Y-76233006D01*
X76316763Y-76233004D01*
X76316758Y-76233002D01*
X76316757Y-76233001D01*
X76024228Y-76117181D01*
X76024225Y-76117180D01*
X75719476Y-76038934D01*
X75719463Y-76038932D01*
X75407329Y-75999500D01*
X75407318Y-75999500D01*
X75092682Y-75999500D01*
X75092670Y-75999500D01*
X74780536Y-76038932D01*
X74780523Y-76038934D01*
X74475774Y-76117180D01*
X74475771Y-76117181D01*
X74183242Y-76233001D01*
X74183241Y-76233002D01*
X73907516Y-76384584D01*
X73907504Y-76384591D01*
X73652978Y-76569515D01*
X73652968Y-76569523D01*
X73423608Y-76784907D01*
X73423606Y-76784909D01*
X73223054Y-77027334D01*
X73223051Y-77027338D01*
X73054464Y-77292990D01*
X73054461Y-77292996D01*
X72920499Y-77577678D01*
X72920497Y-77577683D01*
X72823270Y-77876916D01*
X72764311Y-78185988D01*
X72764310Y-78185995D01*
X72744556Y-78499994D01*
X67255444Y-78499994D01*
X67246776Y-78362229D01*
X67235689Y-78185995D01*
X67235688Y-78185988D01*
X67235688Y-78185985D01*
X67176731Y-77876921D01*
X67079503Y-77577685D01*
X66945537Y-77292993D01*
X66776947Y-77027337D01*
X66776945Y-77027334D01*
X66576393Y-76784909D01*
X66576391Y-76784907D01*
X66347031Y-76569523D01*
X66347021Y-76569515D01*
X66092495Y-76384591D01*
X66092488Y-76384586D01*
X66092484Y-76384584D01*
X65816766Y-76233006D01*
X65816763Y-76233004D01*
X65816758Y-76233002D01*
X65816757Y-76233001D01*
X65524228Y-76117181D01*
X65524225Y-76117180D01*
X65219476Y-76038934D01*
X65219463Y-76038932D01*
X64907329Y-75999500D01*
X64907318Y-75999500D01*
X64592682Y-75999500D01*
X64592670Y-75999500D01*
X64280536Y-76038932D01*
X64280523Y-76038934D01*
X63975774Y-76117180D01*
X63975771Y-76117181D01*
X63683242Y-76233001D01*
X63683241Y-76233002D01*
X63407516Y-76384584D01*
X63407504Y-76384591D01*
X63152978Y-76569515D01*
X63152968Y-76569523D01*
X62923608Y-76784907D01*
X62923606Y-76784909D01*
X62723054Y-77027334D01*
X62723051Y-77027338D01*
X62554464Y-77292990D01*
X62554461Y-77292996D01*
X62420499Y-77577678D01*
X62420497Y-77577683D01*
X62323270Y-77876916D01*
X62264311Y-78185988D01*
X62264310Y-78185995D01*
X62244556Y-78499994D01*
X57755444Y-78499994D01*
X57746776Y-78362229D01*
X57735689Y-78185995D01*
X57735688Y-78185988D01*
X57735688Y-78185985D01*
X57676731Y-77876921D01*
X57579503Y-77577685D01*
X57445537Y-77292993D01*
X57276947Y-77027337D01*
X57276945Y-77027334D01*
X57076393Y-76784909D01*
X57076391Y-76784907D01*
X56847031Y-76569523D01*
X56847021Y-76569515D01*
X56592495Y-76384591D01*
X56592488Y-76384586D01*
X56592484Y-76384584D01*
X56316766Y-76233006D01*
X56316763Y-76233004D01*
X56316758Y-76233002D01*
X56316757Y-76233001D01*
X56024228Y-76117181D01*
X56024225Y-76117180D01*
X55719476Y-76038934D01*
X55719463Y-76038932D01*
X55407329Y-75999500D01*
X55407318Y-75999500D01*
X55092682Y-75999500D01*
X55092670Y-75999500D01*
X54780536Y-76038932D01*
X54780523Y-76038934D01*
X54475774Y-76117180D01*
X54475771Y-76117181D01*
X54183242Y-76233001D01*
X54183241Y-76233002D01*
X53907516Y-76384584D01*
X53907504Y-76384591D01*
X53652978Y-76569515D01*
X53652968Y-76569523D01*
X53423608Y-76784907D01*
X53423606Y-76784909D01*
X53223054Y-77027334D01*
X53223051Y-77027338D01*
X53054464Y-77292990D01*
X53054461Y-77292996D01*
X52920499Y-77577678D01*
X52920497Y-77577683D01*
X52823270Y-77876916D01*
X52764311Y-78185988D01*
X52764310Y-78185995D01*
X52744556Y-78499994D01*
X51350500Y-78499994D01*
X51350500Y-72962229D01*
X51370185Y-72895190D01*
X51386814Y-72874553D01*
X53724549Y-70536817D01*
X53785872Y-70503333D01*
X53812230Y-70500499D01*
X54300002Y-70500499D01*
X54300008Y-70500499D01*
X54402797Y-70489999D01*
X54569334Y-70434814D01*
X54718656Y-70342712D01*
X54812319Y-70249049D01*
X54873642Y-70215564D01*
X54943334Y-70220548D01*
X54987681Y-70249049D01*
X55081344Y-70342712D01*
X55230666Y-70434814D01*
X55397203Y-70489999D01*
X55499991Y-70500500D01*
X56300008Y-70500499D01*
X56300016Y-70500498D01*
X56300019Y-70500498D01*
X56356302Y-70494748D01*
X56402797Y-70489999D01*
X56569334Y-70434814D01*
X56718656Y-70342712D01*
X56737319Y-70324048D01*
X56798637Y-70290564D01*
X56868329Y-70295545D01*
X56912681Y-70324048D01*
X57963181Y-71374548D01*
X57996666Y-71435871D01*
X57999500Y-71462229D01*
X57999500Y-71723336D01*
X57999501Y-71723355D01*
X58009650Y-71822707D01*
X58009651Y-71822710D01*
X58031330Y-71888132D01*
X58062997Y-71983697D01*
X58062999Y-71983700D01*
X58063001Y-71983705D01*
X58152029Y-72128040D01*
X58152032Y-72128044D01*
X58271955Y-72247967D01*
X58271959Y-72247970D01*
X58416294Y-72336998D01*
X58416297Y-72336999D01*
X58416303Y-72337003D01*
X58577292Y-72390349D01*
X58676655Y-72400500D01*
X59223344Y-72400499D01*
X59223352Y-72400498D01*
X59223355Y-72400498D01*
X59277760Y-72394940D01*
X59322708Y-72390349D01*
X59483697Y-72337003D01*
X59628044Y-72247968D01*
X59747968Y-72128044D01*
X59837003Y-71983697D01*
X59890349Y-71822708D01*
X59900500Y-71723345D01*
X59900499Y-70876656D01*
X59890349Y-70777292D01*
X59837003Y-70616303D01*
X59836999Y-70616297D01*
X59836998Y-70616294D01*
X59747970Y-70471959D01*
X59747967Y-70471955D01*
X59628044Y-70352032D01*
X59628040Y-70352029D01*
X59483705Y-70263001D01*
X59483699Y-70262998D01*
X59483697Y-70262997D01*
X59449499Y-70251665D01*
X59322709Y-70209651D01*
X59223352Y-70199500D01*
X59223345Y-70199500D01*
X58962229Y-70199500D01*
X58895190Y-70179815D01*
X58874548Y-70163181D01*
X57428421Y-68717052D01*
X57428414Y-68717046D01*
X57354729Y-68667812D01*
X57354729Y-68667813D01*
X57305491Y-68634913D01*
X57168917Y-68578343D01*
X57168907Y-68578340D01*
X57023920Y-68549500D01*
X57023918Y-68549500D01*
X57015638Y-68549500D01*
X56948599Y-68529815D01*
X56910099Y-68490597D01*
X56842712Y-68381344D01*
X56718656Y-68257288D01*
X56569334Y-68165186D01*
X56402797Y-68110001D01*
X56402795Y-68110000D01*
X56300010Y-68099500D01*
X55499998Y-68099500D01*
X55499980Y-68099501D01*
X55397203Y-68110000D01*
X55397200Y-68110001D01*
X55230668Y-68165185D01*
X55230663Y-68165187D01*
X55081342Y-68257289D01*
X54987681Y-68350951D01*
X54926358Y-68384436D01*
X54856666Y-68379452D01*
X54812319Y-68350951D01*
X54718655Y-68257287D01*
X54709402Y-68251580D01*
X54662678Y-68199632D01*
X54650500Y-68146042D01*
X54650500Y-67927989D01*
X54670185Y-67860950D01*
X54715483Y-67818934D01*
X54724542Y-67814032D01*
X54823509Y-67760474D01*
X55019744Y-67607738D01*
X55188164Y-67424785D01*
X55324173Y-67216607D01*
X55424063Y-66988881D01*
X55485108Y-66747821D01*
X55505643Y-66500000D01*
X55504437Y-66485451D01*
X55485109Y-66252187D01*
X55485107Y-66252175D01*
X55424063Y-66011118D01*
X55324173Y-65783393D01*
X55188166Y-65575217D01*
X55144492Y-65527775D01*
X55019744Y-65392262D01*
X54823509Y-65239526D01*
X54823507Y-65239525D01*
X54823506Y-65239524D01*
X54604811Y-65121172D01*
X54604802Y-65121169D01*
X54369616Y-65040429D01*
X54124335Y-64999500D01*
X53875665Y-64999500D01*
X53668841Y-65034012D01*
X53599476Y-65025630D01*
X53560751Y-64999384D01*
X51786819Y-63225451D01*
X51753334Y-63164128D01*
X51750500Y-63137770D01*
X51750500Y-62375962D01*
X51770185Y-62308923D01*
X51822989Y-62263168D01*
X51892147Y-62253224D01*
X51945621Y-62274386D01*
X52097266Y-62380568D01*
X52303504Y-62476739D01*
X52523308Y-62535635D01*
X52685230Y-62549801D01*
X52749998Y-62555468D01*
X52750000Y-62555468D01*
X52750002Y-62555468D01*
X52806807Y-62550498D01*
X52976692Y-62535635D01*
X53196496Y-62476739D01*
X53402734Y-62380568D01*
X53589139Y-62250047D01*
X53746274Y-62092911D01*
X53807596Y-62059428D01*
X53877287Y-62064412D01*
X53933221Y-62106283D01*
X53954629Y-62152070D01*
X53955908Y-62157480D01*
X54006202Y-62292328D01*
X54006206Y-62292335D01*
X54092452Y-62407544D01*
X54092455Y-62407547D01*
X54207664Y-62493793D01*
X54207671Y-62493797D01*
X54342517Y-62544091D01*
X54342516Y-62544091D01*
X54349444Y-62544835D01*
X54402127Y-62550500D01*
X56097872Y-62550499D01*
X56157483Y-62544091D01*
X56292331Y-62493796D01*
X56407546Y-62407546D01*
X56493796Y-62292331D01*
X56544091Y-62157483D01*
X56549062Y-62111242D01*
X56575799Y-62046694D01*
X56633191Y-62006846D01*
X56672351Y-62000500D01*
X57835859Y-62000500D01*
X57902898Y-62020185D01*
G37*
G04 #@! TD.AperFunction*
G04 #@! TA.AperFunction,NonConductor*
G36*
X76289471Y-94670185D02*
G01*
X76335226Y-94722989D01*
X76345752Y-94761535D01*
X76364326Y-94938256D01*
X76364327Y-94938259D01*
X76422818Y-95118277D01*
X76422821Y-95118284D01*
X76517466Y-95282215D01*
X76567649Y-95337948D01*
X76597880Y-95400940D01*
X76599500Y-95420921D01*
X76599500Y-98025500D01*
X76579815Y-98092539D01*
X76527011Y-98138294D01*
X76475500Y-98149500D01*
X70753953Y-98149500D01*
X70686914Y-98129815D01*
X70641159Y-98077011D01*
X70631215Y-98007853D01*
X70634622Y-97993201D01*
X70635672Y-97988258D01*
X70635674Y-97988253D01*
X70655041Y-97803980D01*
X70681624Y-97739369D01*
X70690671Y-97729273D01*
X73733127Y-94686819D01*
X73794450Y-94653334D01*
X73820808Y-94650500D01*
X76222432Y-94650500D01*
X76289471Y-94670185D01*
G37*
G04 #@! TD.AperFunction*
G04 #@! TA.AperFunction,NonConductor*
G36*
X78105703Y-95465434D02*
G01*
X78112181Y-95471466D01*
X79313181Y-96672466D01*
X79346666Y-96733789D01*
X79349500Y-96760147D01*
X79349500Y-98647959D01*
X79329815Y-98714998D01*
X79277011Y-98760753D01*
X79207853Y-98770697D01*
X79144297Y-98741672D01*
X79137819Y-98735640D01*
X79072152Y-98669973D01*
X79038667Y-98608650D01*
X79036512Y-98569334D01*
X79054419Y-98398959D01*
X79034633Y-98210703D01*
X78976138Y-98030675D01*
X78881492Y-97866743D01*
X78754830Y-97726071D01*
X78754829Y-97726070D01*
X78601693Y-97614810D01*
X78601688Y-97614807D01*
X78428766Y-97537816D01*
X78428761Y-97537814D01*
X78282960Y-97506824D01*
X78243605Y-97498459D01*
X78054313Y-97498459D01*
X78054310Y-97498459D01*
X78050278Y-97499316D01*
X78047887Y-97499133D01*
X78047845Y-97499138D01*
X78047844Y-97499130D01*
X77980611Y-97493998D01*
X77924879Y-97451860D01*
X77900775Y-97386279D01*
X77900500Y-97378025D01*
X77900500Y-95559147D01*
X77920185Y-95492108D01*
X77972989Y-95446353D01*
X78042147Y-95436409D01*
X78105703Y-95465434D01*
G37*
G04 #@! TD.AperFunction*
G04 #@! TA.AperFunction,NonConductor*
G36*
X60331904Y-113280917D02*
G01*
X60353809Y-113306196D01*
X60391016Y-113363147D01*
X60391019Y-113363151D01*
X60391021Y-113363153D01*
X60548216Y-113533913D01*
X60548219Y-113533915D01*
X60548222Y-113533918D01*
X60731365Y-113676464D01*
X60731380Y-113676474D01*
X60784516Y-113705229D01*
X60834107Y-113754447D01*
X60849500Y-113814284D01*
X60849500Y-115330192D01*
X60829815Y-115397231D01*
X60777011Y-115442986D01*
X60707853Y-115452930D01*
X60644297Y-115423905D01*
X60637819Y-115417873D01*
X59289647Y-114069701D01*
X59256162Y-114008378D01*
X59261146Y-113938686D01*
X59303018Y-113882753D01*
X59340449Y-113864895D01*
X59340130Y-113863964D01*
X59444528Y-113828123D01*
X59564503Y-113786936D01*
X59768626Y-113676470D01*
X59951784Y-113533913D01*
X60108979Y-113363153D01*
X60146191Y-113306196D01*
X60199337Y-113260839D01*
X60268569Y-113251415D01*
X60331904Y-113280917D01*
G37*
G04 #@! TD.AperFunction*
G04 #@! TA.AperFunction,NonConductor*
G36*
X76528464Y-99470185D02*
G01*
X76549106Y-99486819D01*
X77813181Y-100750894D01*
X77846666Y-100812217D01*
X77849500Y-100838575D01*
X77849500Y-108979192D01*
X77829815Y-109046231D01*
X77813181Y-109066873D01*
X77216873Y-109663181D01*
X77155550Y-109696666D01*
X77129192Y-109699500D01*
X77105354Y-109699500D01*
X77072897Y-109706398D01*
X76920197Y-109738855D01*
X76920192Y-109738857D01*
X76747270Y-109815848D01*
X76747265Y-109815851D01*
X76594129Y-109927111D01*
X76467466Y-110067785D01*
X76372821Y-110231715D01*
X76372818Y-110231722D01*
X76314327Y-110411740D01*
X76314326Y-110411744D01*
X76294540Y-110600000D01*
X76314326Y-110788256D01*
X76314327Y-110788259D01*
X76372818Y-110968277D01*
X76372821Y-110968284D01*
X76467467Y-111132216D01*
X76540263Y-111213064D01*
X76594129Y-111272888D01*
X76747265Y-111384148D01*
X76747270Y-111384151D01*
X76920192Y-111461142D01*
X76920197Y-111461144D01*
X77105354Y-111500500D01*
X77105355Y-111500500D01*
X77294644Y-111500500D01*
X77294646Y-111500500D01*
X77479803Y-111461144D01*
X77652730Y-111384151D01*
X77805871Y-111272888D01*
X77932533Y-111132216D01*
X78027179Y-110968284D01*
X78085674Y-110788256D01*
X78099168Y-110659855D01*
X78125752Y-110595242D01*
X78134803Y-110585141D01*
X78137835Y-110582109D01*
X78199162Y-110548636D01*
X78268853Y-110553632D01*
X78324779Y-110595513D01*
X78349186Y-110660981D01*
X78349500Y-110669807D01*
X78349500Y-117654013D01*
X78329815Y-117721052D01*
X78277011Y-117766807D01*
X78207853Y-117776751D01*
X78144297Y-117747726D01*
X78118113Y-117716013D01*
X78032796Y-117568240D01*
X78032533Y-117567784D01*
X77905871Y-117427112D01*
X77905870Y-117427111D01*
X77752734Y-117315851D01*
X77752729Y-117315848D01*
X77579807Y-117238857D01*
X77579802Y-117238855D01*
X77434001Y-117207865D01*
X77394646Y-117199500D01*
X77394645Y-117199500D01*
X77370808Y-117199500D01*
X77303769Y-117179815D01*
X77283127Y-117163181D01*
X76936819Y-116816873D01*
X76903334Y-116755550D01*
X76900500Y-116729192D01*
X76900500Y-114112526D01*
X76875502Y-113986859D01*
X76875501Y-113986858D01*
X76875501Y-113986854D01*
X76826465Y-113868471D01*
X76785552Y-113807240D01*
X76770414Y-113784584D01*
X76755279Y-113761931D01*
X73894413Y-110901065D01*
X73860928Y-110839742D01*
X73865912Y-110770050D01*
X73889944Y-110730412D01*
X73972787Y-110638406D01*
X74067433Y-110474474D01*
X74125928Y-110294446D01*
X74145714Y-110106190D01*
X74125928Y-109917934D01*
X74067433Y-109737906D01*
X73972787Y-109573974D01*
X73846125Y-109433302D01*
X73846124Y-109433301D01*
X73692988Y-109322041D01*
X73692983Y-109322038D01*
X73520061Y-109245047D01*
X73520056Y-109245045D01*
X73374255Y-109214055D01*
X73334900Y-109205690D01*
X73145608Y-109205690D01*
X73058329Y-109224241D01*
X73013974Y-109233669D01*
X72944307Y-109228352D01*
X72900513Y-109200059D01*
X69436819Y-105736365D01*
X69403334Y-105675042D01*
X69400500Y-105648684D01*
X69400500Y-104749456D01*
X69420185Y-104682417D01*
X69472989Y-104636662D01*
X69542147Y-104626718D01*
X69550274Y-104628164D01*
X69655354Y-104650500D01*
X69655355Y-104650500D01*
X69844644Y-104650500D01*
X69844646Y-104650500D01*
X70029803Y-104611144D01*
X70202730Y-104534151D01*
X70355871Y-104422888D01*
X70482533Y-104282216D01*
X70577179Y-104118284D01*
X70635674Y-103938256D01*
X70655460Y-103750000D01*
X70635674Y-103561744D01*
X70577179Y-103381716D01*
X70482533Y-103217784D01*
X70432350Y-103162050D01*
X70402120Y-103099058D01*
X70400500Y-103079078D01*
X70400500Y-102685928D01*
X70375502Y-102560261D01*
X70375501Y-102560260D01*
X70375501Y-102560256D01*
X70326465Y-102441873D01*
X70326464Y-102441872D01*
X70326461Y-102441866D01*
X70255277Y-102335332D01*
X70255276Y-102335331D01*
X70164669Y-102244724D01*
X69686819Y-101766873D01*
X69653334Y-101705550D01*
X69650500Y-101679192D01*
X69650500Y-99824500D01*
X69670185Y-99757461D01*
X69722989Y-99711706D01*
X69774500Y-99700500D01*
X69844644Y-99700500D01*
X69844646Y-99700500D01*
X70029803Y-99661144D01*
X70202730Y-99584151D01*
X70354090Y-99474182D01*
X70419896Y-99450702D01*
X70426975Y-99450500D01*
X76461425Y-99450500D01*
X76528464Y-99470185D01*
G37*
G04 #@! TD.AperFunction*
G04 #@! TA.AperFunction,NonConductor*
G36*
X88668834Y-96795048D02*
G01*
X88724767Y-96836920D01*
X88749184Y-96902384D01*
X88749500Y-96911230D01*
X88749500Y-114537769D01*
X88729815Y-114604808D01*
X88713181Y-114625450D01*
X82069225Y-121269405D01*
X82007902Y-121302890D01*
X81993700Y-121305127D01*
X81903869Y-121313975D01*
X81810495Y-121342300D01*
X81740628Y-121342923D01*
X81681515Y-121305674D01*
X81651924Y-121242380D01*
X81650500Y-121223639D01*
X81650500Y-117635279D01*
X81670185Y-117568240D01*
X81701615Y-117534961D01*
X81702730Y-117534151D01*
X81855871Y-117422888D01*
X81982533Y-117282216D01*
X82077179Y-117118284D01*
X82135674Y-116938256D01*
X82155460Y-116750000D01*
X82135674Y-116561744D01*
X82077179Y-116381716D01*
X81982533Y-116217784D01*
X81855871Y-116077112D01*
X81855870Y-116077111D01*
X81702734Y-115965851D01*
X81702729Y-115965848D01*
X81529807Y-115888857D01*
X81529802Y-115888855D01*
X81384001Y-115857865D01*
X81344646Y-115849500D01*
X81274500Y-115849500D01*
X81207461Y-115829815D01*
X81161706Y-115777011D01*
X81150500Y-115725500D01*
X81150500Y-97859299D01*
X81170185Y-97792260D01*
X81222989Y-97746505D01*
X81292147Y-97736561D01*
X81353165Y-97763446D01*
X81441460Y-97835909D01*
X81441467Y-97835913D01*
X81615266Y-97928811D01*
X81615269Y-97928811D01*
X81615273Y-97928814D01*
X81803868Y-97986024D01*
X82000000Y-98005341D01*
X82196132Y-97986024D01*
X82384727Y-97928814D01*
X82419623Y-97910162D01*
X82500852Y-97866744D01*
X82558538Y-97835910D01*
X82628313Y-97778647D01*
X82692623Y-97751334D01*
X82706978Y-97750500D01*
X87373920Y-97750500D01*
X87480676Y-97729264D01*
X87518913Y-97721658D01*
X87655495Y-97665084D01*
X87735329Y-97611741D01*
X87778416Y-97582952D01*
X88537819Y-96823549D01*
X88599142Y-96790064D01*
X88668834Y-96795048D01*
G37*
G04 #@! TD.AperFunction*
G04 #@! TA.AperFunction,NonConductor*
G36*
X78302151Y-118448515D02*
G01*
X78342680Y-118505429D01*
X78349500Y-118545986D01*
X78349500Y-120429191D01*
X78329815Y-120496230D01*
X78313181Y-120516872D01*
X76855892Y-121974160D01*
X76794569Y-122007645D01*
X76724877Y-122002661D01*
X76668944Y-121960789D01*
X76644891Y-121899443D01*
X76635674Y-121811744D01*
X76577179Y-121631716D01*
X76482533Y-121467784D01*
X76432350Y-121412050D01*
X76402120Y-121349058D01*
X76400500Y-121329078D01*
X76400500Y-118769811D01*
X76420185Y-118702772D01*
X76472989Y-118657017D01*
X76542147Y-118647073D01*
X76605703Y-118676098D01*
X76616650Y-118686839D01*
X76694129Y-118772888D01*
X76847265Y-118884148D01*
X76847270Y-118884151D01*
X77020192Y-118961142D01*
X77020197Y-118961144D01*
X77205354Y-119000500D01*
X77205355Y-119000500D01*
X77394644Y-119000500D01*
X77394646Y-119000500D01*
X77579803Y-118961144D01*
X77752730Y-118884151D01*
X77905871Y-118772888D01*
X78032533Y-118632216D01*
X78118113Y-118483987D01*
X78168679Y-118435771D01*
X78237286Y-118422547D01*
X78302151Y-118448515D01*
G37*
G04 #@! TD.AperFunction*
G04 #@! TA.AperFunction,NonConductor*
G36*
X78768834Y-122003626D02*
G01*
X78824767Y-122045498D01*
X78849184Y-122110962D01*
X78849500Y-122119808D01*
X78849500Y-123630191D01*
X78829815Y-123697230D01*
X78777011Y-123742985D01*
X78707853Y-123752929D01*
X78644297Y-123723904D01*
X78637819Y-123717872D01*
X78414673Y-123494726D01*
X78414669Y-123494723D01*
X78308127Y-123423535D01*
X78189744Y-123374499D01*
X78189738Y-123374497D01*
X78064071Y-123349500D01*
X78064069Y-123349500D01*
X77619808Y-123349500D01*
X77552769Y-123329815D01*
X77507014Y-123277011D01*
X77497070Y-123207853D01*
X77526095Y-123144297D01*
X77532127Y-123137819D01*
X78637819Y-122032127D01*
X78699142Y-121998642D01*
X78768834Y-122003626D01*
G37*
G04 #@! TD.AperFunction*
G04 #@! TA.AperFunction,NonConductor*
G36*
X77890039Y-126183450D02*
G01*
X77970197Y-126219140D01*
X78155354Y-126258496D01*
X78155355Y-126258496D01*
X78225500Y-126258496D01*
X78292539Y-126278181D01*
X78338294Y-126330985D01*
X78349500Y-126382496D01*
X78349500Y-126830192D01*
X78329815Y-126897231D01*
X78277011Y-126942986D01*
X78207853Y-126952930D01*
X78144297Y-126923905D01*
X78137819Y-126917873D01*
X77670874Y-126450928D01*
X77637389Y-126389605D01*
X77642373Y-126319913D01*
X77679889Y-126267395D01*
X77710760Y-126242058D01*
X77760939Y-126200877D01*
X77825248Y-126173564D01*
X77890039Y-126183450D01*
G37*
G04 #@! TD.AperFunction*
G04 #@! TA.AperFunction,NonConductor*
G36*
X84946231Y-139270185D02*
G01*
X84966873Y-139286819D01*
X85145925Y-139465871D01*
X85179410Y-139527194D01*
X85174426Y-139596886D01*
X85132554Y-139652819D01*
X85098507Y-139670833D01*
X85017078Y-139698788D01*
X84947280Y-139701938D01*
X84889134Y-139669188D01*
X84682127Y-139462181D01*
X84648642Y-139400858D01*
X84653626Y-139331166D01*
X84695498Y-139275233D01*
X84760962Y-139250816D01*
X84769808Y-139250500D01*
X84879192Y-139250500D01*
X84946231Y-139270185D01*
G37*
G04 #@! TD.AperFunction*
G04 #@! TA.AperFunction,NonConductor*
G36*
X50455703Y-94917517D02*
G01*
X50462181Y-94923549D01*
X53421586Y-97882954D01*
X53448733Y-97901092D01*
X53462308Y-97910162D01*
X53544505Y-97965084D01*
X53595059Y-97986024D01*
X53681088Y-98021659D01*
X53797241Y-98044763D01*
X53816468Y-98048587D01*
X53826081Y-98050500D01*
X53826082Y-98050500D01*
X53826083Y-98050500D01*
X53973918Y-98050500D01*
X65393022Y-98050500D01*
X65460061Y-98070185D01*
X65471687Y-98078647D01*
X65541460Y-98135909D01*
X65541467Y-98135913D01*
X65715266Y-98228811D01*
X65715269Y-98228811D01*
X65715273Y-98228814D01*
X65903868Y-98286024D01*
X66100000Y-98305341D01*
X66213347Y-98294177D01*
X66281992Y-98307196D01*
X66332702Y-98355260D01*
X66349500Y-98417580D01*
X66349500Y-104125744D01*
X66329815Y-104192783D01*
X66277011Y-104238538D01*
X66207853Y-104248482D01*
X66144297Y-104219457D01*
X66107569Y-104164062D01*
X66079502Y-104077683D01*
X66079500Y-104077678D01*
X65945538Y-103792996D01*
X65945537Y-103792993D01*
X65910414Y-103737648D01*
X65776948Y-103527338D01*
X65776945Y-103527334D01*
X65576393Y-103284909D01*
X65576391Y-103284907D01*
X65504913Y-103217784D01*
X65347030Y-103069522D01*
X65347027Y-103069520D01*
X65347021Y-103069515D01*
X65092495Y-102884591D01*
X65092488Y-102884586D01*
X65092484Y-102884584D01*
X64816766Y-102733006D01*
X64816763Y-102733004D01*
X64816758Y-102733002D01*
X64816757Y-102733001D01*
X64524228Y-102617181D01*
X64524225Y-102617180D01*
X64219476Y-102538934D01*
X64219463Y-102538932D01*
X63907329Y-102499500D01*
X63907318Y-102499500D01*
X63592682Y-102499500D01*
X63592670Y-102499500D01*
X63280536Y-102538932D01*
X63280523Y-102538934D01*
X62975774Y-102617180D01*
X62975771Y-102617181D01*
X62683242Y-102733001D01*
X62683241Y-102733002D01*
X62407516Y-102884584D01*
X62407504Y-102884591D01*
X62152978Y-103069515D01*
X62152968Y-103069523D01*
X61923608Y-103284907D01*
X61923606Y-103284909D01*
X61723054Y-103527334D01*
X61723051Y-103527338D01*
X61554464Y-103792990D01*
X61554461Y-103792996D01*
X61420499Y-104077678D01*
X61420497Y-104077683D01*
X61323270Y-104376916D01*
X61264311Y-104685988D01*
X61264310Y-104685995D01*
X61244556Y-104999994D01*
X61244556Y-105000005D01*
X61264310Y-105314004D01*
X61264311Y-105314011D01*
X61323270Y-105623083D01*
X61420497Y-105922316D01*
X61420499Y-105922321D01*
X61554461Y-106207003D01*
X61554464Y-106207009D01*
X61723051Y-106472661D01*
X61723054Y-106472665D01*
X61923606Y-106715090D01*
X61923608Y-106715092D01*
X62152968Y-106930476D01*
X62152978Y-106930484D01*
X62407504Y-107115408D01*
X62407509Y-107115410D01*
X62407516Y-107115416D01*
X62683234Y-107266994D01*
X62683239Y-107266996D01*
X62683241Y-107266997D01*
X62683242Y-107266998D01*
X62975771Y-107382818D01*
X62975774Y-107382819D01*
X63280523Y-107461065D01*
X63280527Y-107461066D01*
X63346010Y-107469338D01*
X63592670Y-107500499D01*
X63592679Y-107500499D01*
X63592682Y-107500500D01*
X63592684Y-107500500D01*
X63907316Y-107500500D01*
X63907318Y-107500500D01*
X63907321Y-107500499D01*
X63907329Y-107500499D01*
X64093593Y-107476968D01*
X64219473Y-107461066D01*
X64524225Y-107382819D01*
X64524228Y-107382818D01*
X64816757Y-107266998D01*
X64816758Y-107266997D01*
X64816756Y-107266997D01*
X64816766Y-107266994D01*
X65092484Y-107115416D01*
X65347030Y-106930478D01*
X65576390Y-106715094D01*
X65776947Y-106472663D01*
X65945537Y-106207007D01*
X66079503Y-105922315D01*
X66107569Y-105835936D01*
X66147006Y-105778261D01*
X66211365Y-105751063D01*
X66280211Y-105762978D01*
X66331687Y-105810222D01*
X66349500Y-105874255D01*
X66349500Y-106404881D01*
X66349500Y-106404883D01*
X66349499Y-106404883D01*
X66362983Y-106472663D01*
X66369030Y-106503063D01*
X66374499Y-106530556D01*
X66423535Y-106648939D01*
X66467738Y-106715094D01*
X66494726Y-106755485D01*
X66882542Y-107143301D01*
X66882564Y-107143321D01*
X71213181Y-111473938D01*
X71246666Y-111535261D01*
X71249500Y-111561619D01*
X71249500Y-113829078D01*
X71229815Y-113896117D01*
X71217650Y-113912050D01*
X71167466Y-113967785D01*
X71072821Y-114131715D01*
X71072818Y-114131722D01*
X71014327Y-114311740D01*
X71014326Y-114311744D01*
X70994540Y-114500000D01*
X71014326Y-114688256D01*
X71014327Y-114688259D01*
X71072818Y-114868277D01*
X71072821Y-114868284D01*
X71167467Y-115032216D01*
X71294129Y-115172888D01*
X71447265Y-115284148D01*
X71447270Y-115284151D01*
X71620192Y-115361142D01*
X71620197Y-115361144D01*
X71805354Y-115400500D01*
X71805355Y-115400500D01*
X71994644Y-115400500D01*
X71994646Y-115400500D01*
X72179803Y-115361144D01*
X72352730Y-115284151D01*
X72505871Y-115172888D01*
X72632533Y-115032216D01*
X72727179Y-114868284D01*
X72785674Y-114688256D01*
X72805460Y-114500000D01*
X72785674Y-114311744D01*
X72727179Y-114131716D01*
X72632533Y-113967784D01*
X72582350Y-113912050D01*
X72552120Y-113849058D01*
X72550500Y-113829078D01*
X72550500Y-112403513D01*
X72570185Y-112336474D01*
X72622989Y-112290719D01*
X72692147Y-112280775D01*
X72755703Y-112309800D01*
X72762181Y-112315832D01*
X75063181Y-114616832D01*
X75096666Y-114678155D01*
X75099500Y-114704513D01*
X75099500Y-121329078D01*
X75079815Y-121396117D01*
X75067650Y-121412050D01*
X75017466Y-121467785D01*
X74922821Y-121631715D01*
X74922818Y-121631722D01*
X74903966Y-121689744D01*
X74864326Y-121811744D01*
X74844540Y-122000000D01*
X74864326Y-122188256D01*
X74864327Y-122188259D01*
X74922818Y-122368277D01*
X74922821Y-122368284D01*
X75017467Y-122532216D01*
X75116793Y-122642528D01*
X75147023Y-122705519D01*
X75138398Y-122774854D01*
X75093657Y-122828520D01*
X75027004Y-122849478D01*
X75024643Y-122849500D01*
X68508650Y-122849500D01*
X68441611Y-122829815D01*
X68395856Y-122777011D01*
X68387912Y-122747917D01*
X68387027Y-122748106D01*
X68385675Y-122741747D01*
X68327181Y-122561722D01*
X68327180Y-122561721D01*
X68327179Y-122561716D01*
X68232533Y-122397784D01*
X68105871Y-122257112D01*
X68105870Y-122257111D01*
X67952734Y-122145851D01*
X67952729Y-122145848D01*
X67779807Y-122068857D01*
X67779802Y-122068855D01*
X67634001Y-122037865D01*
X67594646Y-122029500D01*
X67405354Y-122029500D01*
X67392995Y-122032127D01*
X67220197Y-122068855D01*
X67220192Y-122068857D01*
X67047270Y-122145848D01*
X67047265Y-122145851D01*
X66894129Y-122257111D01*
X66767466Y-122397785D01*
X66672821Y-122561715D01*
X66672818Y-122561722D01*
X66632852Y-122684727D01*
X66614326Y-122741744D01*
X66594540Y-122930000D01*
X66614326Y-123118256D01*
X66614327Y-123118259D01*
X66636721Y-123187182D01*
X66638716Y-123257024D01*
X66602635Y-123316856D01*
X66539934Y-123347684D01*
X66518790Y-123349500D01*
X64527914Y-123349500D01*
X64460875Y-123329815D01*
X64440233Y-123313181D01*
X62186819Y-121059767D01*
X62153334Y-120998444D01*
X62150500Y-120972086D01*
X62150500Y-113814284D01*
X62170185Y-113747245D01*
X62215484Y-113705229D01*
X62268619Y-113676474D01*
X62268620Y-113676472D01*
X62268626Y-113676470D01*
X62451784Y-113533913D01*
X62608979Y-113363153D01*
X62735924Y-113168849D01*
X62829157Y-112956300D01*
X62886134Y-112731305D01*
X62905300Y-112500000D01*
X62905300Y-112499993D01*
X62886135Y-112268702D01*
X62886133Y-112268691D01*
X62829157Y-112043699D01*
X62735924Y-111831151D01*
X62608983Y-111636852D01*
X62608980Y-111636849D01*
X62608979Y-111636847D01*
X62451784Y-111466087D01*
X62451779Y-111466083D01*
X62451777Y-111466081D01*
X62268634Y-111323535D01*
X62268628Y-111323531D01*
X62064504Y-111213064D01*
X62064495Y-111213061D01*
X61844984Y-111137702D01*
X61654450Y-111105908D01*
X61616049Y-111099500D01*
X61383951Y-111099500D01*
X61345550Y-111105908D01*
X61155015Y-111137702D01*
X60935504Y-111213061D01*
X60935495Y-111213064D01*
X60731371Y-111323531D01*
X60731365Y-111323535D01*
X60548222Y-111466081D01*
X60548219Y-111466084D01*
X60548216Y-111466086D01*
X60548216Y-111466087D01*
X60400500Y-111626551D01*
X60391015Y-111636854D01*
X60353808Y-111693804D01*
X60300662Y-111739161D01*
X60231430Y-111748584D01*
X60168095Y-111719082D01*
X60146192Y-111693804D01*
X60108984Y-111636854D01*
X60108982Y-111636852D01*
X60108979Y-111636847D01*
X59951784Y-111466087D01*
X59951779Y-111466083D01*
X59951777Y-111466081D01*
X59768634Y-111323535D01*
X59768628Y-111323531D01*
X59564504Y-111213064D01*
X59564495Y-111213061D01*
X59344984Y-111137702D01*
X59154450Y-111105908D01*
X59116049Y-111099500D01*
X58883951Y-111099500D01*
X58845550Y-111105908D01*
X58655015Y-111137702D01*
X58435504Y-111213061D01*
X58435495Y-111213064D01*
X58231372Y-111323531D01*
X58054436Y-111461245D01*
X57989442Y-111486887D01*
X57920902Y-111473320D01*
X57870577Y-111424852D01*
X57862092Y-111406723D01*
X57843798Y-111357673D01*
X57843793Y-111357664D01*
X57757547Y-111242455D01*
X57757544Y-111242452D01*
X57642335Y-111156206D01*
X57642328Y-111156202D01*
X57507482Y-111105908D01*
X57507483Y-111105908D01*
X57447883Y-111099501D01*
X57447881Y-111099500D01*
X57447873Y-111099500D01*
X57447864Y-111099500D01*
X55552129Y-111099500D01*
X55552123Y-111099501D01*
X55492516Y-111105908D01*
X55357671Y-111156202D01*
X55357664Y-111156206D01*
X55242455Y-111242452D01*
X55242452Y-111242455D01*
X55156206Y-111357664D01*
X55156202Y-111357671D01*
X55105908Y-111492517D01*
X55099501Y-111552116D01*
X55099500Y-111552135D01*
X55099500Y-113447870D01*
X55099501Y-113447876D01*
X55105908Y-113507483D01*
X55156202Y-113642328D01*
X55156206Y-113642335D01*
X55242452Y-113757544D01*
X55242455Y-113757547D01*
X55357664Y-113843793D01*
X55357671Y-113843797D01*
X55492517Y-113894091D01*
X55492516Y-113894091D01*
X55499444Y-113894835D01*
X55552127Y-113900500D01*
X57229191Y-113900499D01*
X57296230Y-113920184D01*
X57316872Y-113936818D01*
X60313181Y-116933127D01*
X60346666Y-116994450D01*
X60349500Y-117020808D01*
X60349500Y-121564069D01*
X60364646Y-121640210D01*
X60374499Y-121689744D01*
X60423535Y-121808127D01*
X60494723Y-121914669D01*
X60494726Y-121914673D01*
X63585325Y-125005272D01*
X63585332Y-125005278D01*
X63673320Y-125064069D01*
X63673321Y-125064069D01*
X63691873Y-125076465D01*
X63810256Y-125125501D01*
X63810260Y-125125501D01*
X63810261Y-125125502D01*
X63935928Y-125150500D01*
X63935931Y-125150500D01*
X64064069Y-125150500D01*
X67977495Y-125150500D01*
X68044534Y-125170185D01*
X68090289Y-125222989D01*
X68100898Y-125286654D01*
X68094659Y-125350000D01*
X68113975Y-125546129D01*
X68171188Y-125734732D01*
X68241912Y-125867047D01*
X68256154Y-125935450D01*
X68231154Y-126000693D01*
X68174849Y-126042064D01*
X68132554Y-126049500D01*
X57682565Y-126049500D01*
X57615526Y-126029815D01*
X57569771Y-125977011D01*
X57558947Y-125935230D01*
X57556846Y-125908538D01*
X57551007Y-125834345D01*
X57493483Y-125594738D01*
X57473350Y-125546132D01*
X57399184Y-125367079D01*
X57270436Y-125156981D01*
X57270435Y-125156979D01*
X57191082Y-125064069D01*
X57110399Y-124969601D01*
X56986516Y-124863795D01*
X56923020Y-124809564D01*
X56923018Y-124809563D01*
X56712920Y-124680815D01*
X56485264Y-124586517D01*
X56245658Y-124528993D01*
X56000000Y-124509659D01*
X55754341Y-124528993D01*
X55514735Y-124586517D01*
X55287079Y-124680815D01*
X55076981Y-124809563D01*
X55076979Y-124809564D01*
X54889601Y-124969601D01*
X54729564Y-125156979D01*
X54729563Y-125156981D01*
X54600815Y-125367079D01*
X54506517Y-125594735D01*
X54448993Y-125834341D01*
X54429659Y-126080000D01*
X54448993Y-126325658D01*
X54506517Y-126565264D01*
X54600815Y-126792920D01*
X54729563Y-127003018D01*
X54729564Y-127003020D01*
X54729567Y-127003023D01*
X54889601Y-127190399D01*
X55034648Y-127314280D01*
X55076979Y-127350435D01*
X55076981Y-127350436D01*
X55287079Y-127479184D01*
X55514735Y-127573482D01*
X55514736Y-127573482D01*
X55514738Y-127573483D01*
X55754345Y-127631007D01*
X56000000Y-127650341D01*
X56245655Y-127631007D01*
X56485262Y-127573483D01*
X56712920Y-127479184D01*
X56893095Y-127368772D01*
X56957885Y-127350500D01*
X75972086Y-127350500D01*
X76039125Y-127370185D01*
X76059767Y-127386819D01*
X76813181Y-128140233D01*
X76846666Y-128201556D01*
X76849500Y-128227914D01*
X76849500Y-129270615D01*
X76829815Y-129337654D01*
X76777011Y-129383409D01*
X76707853Y-129393353D01*
X76644297Y-129364328D01*
X76629957Y-129349656D01*
X76576393Y-129284909D01*
X76576391Y-129284907D01*
X76347031Y-129069523D01*
X76347021Y-129069515D01*
X76092495Y-128884591D01*
X76092488Y-128884586D01*
X76092484Y-128884584D01*
X75816766Y-128733006D01*
X75816763Y-128733004D01*
X75816758Y-128733002D01*
X75816757Y-128733001D01*
X75524228Y-128617181D01*
X75524225Y-128617180D01*
X75219476Y-128538934D01*
X75219463Y-128538932D01*
X74907329Y-128499500D01*
X74907318Y-128499500D01*
X74592682Y-128499500D01*
X74592670Y-128499500D01*
X74280536Y-128538932D01*
X74280523Y-128538934D01*
X73975774Y-128617180D01*
X73975771Y-128617181D01*
X73683242Y-128733001D01*
X73683241Y-128733002D01*
X73407516Y-128884584D01*
X73407504Y-128884591D01*
X73152978Y-129069515D01*
X73152968Y-129069523D01*
X72923608Y-129284907D01*
X72923606Y-129284909D01*
X72723054Y-129527334D01*
X72723051Y-129527338D01*
X72554464Y-129792990D01*
X72554461Y-129792996D01*
X72420499Y-130077678D01*
X72420497Y-130077683D01*
X72323270Y-130376916D01*
X72264311Y-130685988D01*
X72264310Y-130685995D01*
X72244556Y-130999994D01*
X72244556Y-131000005D01*
X72264310Y-131314004D01*
X72264311Y-131314011D01*
X72323270Y-131623083D01*
X72420497Y-131922316D01*
X72420499Y-131922321D01*
X72554461Y-132207003D01*
X72554464Y-132207009D01*
X72723051Y-132472661D01*
X72723054Y-132472665D01*
X72923606Y-132715090D01*
X72923608Y-132715092D01*
X72923610Y-132715094D01*
X73106157Y-132886517D01*
X73152968Y-132930476D01*
X73152978Y-132930484D01*
X73407504Y-133115408D01*
X73407509Y-133115410D01*
X73407516Y-133115416D01*
X73683234Y-133266994D01*
X73683239Y-133266996D01*
X73683241Y-133266997D01*
X73683242Y-133266998D01*
X73975771Y-133382818D01*
X73975774Y-133382819D01*
X74264601Y-133456977D01*
X74280527Y-133461066D01*
X74346010Y-133469338D01*
X74592670Y-133500499D01*
X74592679Y-133500499D01*
X74592682Y-133500500D01*
X74592684Y-133500500D01*
X74907316Y-133500500D01*
X74907318Y-133500500D01*
X74907321Y-133500499D01*
X74907329Y-133500499D01*
X75093593Y-133476968D01*
X75219473Y-133461066D01*
X75524225Y-133382819D01*
X75524228Y-133382818D01*
X75816757Y-133266998D01*
X75816758Y-133266997D01*
X75816756Y-133266997D01*
X75816766Y-133266994D01*
X76092484Y-133115416D01*
X76347030Y-132930478D01*
X76576390Y-132715094D01*
X76629956Y-132650343D01*
X76687856Y-132611236D01*
X76757707Y-132609640D01*
X76817333Y-132646061D01*
X76847803Y-132708937D01*
X76849500Y-132729384D01*
X76849500Y-134265672D01*
X76832887Y-134327672D01*
X76772818Y-134431714D01*
X76714324Y-134611740D01*
X76714323Y-134611744D01*
X76694537Y-134800000D01*
X76714323Y-134988256D01*
X76714324Y-134988259D01*
X76772815Y-135168277D01*
X76772818Y-135168284D01*
X76867464Y-135332216D01*
X76994126Y-135472888D01*
X77147262Y-135584148D01*
X77147267Y-135584151D01*
X77320189Y-135661142D01*
X77320194Y-135661144D01*
X77505351Y-135700500D01*
X77505352Y-135700500D01*
X77694641Y-135700500D01*
X77694643Y-135700500D01*
X77879800Y-135661144D01*
X78049562Y-135585559D01*
X78118812Y-135576275D01*
X78150434Y-135585560D01*
X78320192Y-135661142D01*
X78320197Y-135661144D01*
X78505354Y-135700500D01*
X78505355Y-135700500D01*
X78694643Y-135700500D01*
X78694646Y-135700500D01*
X78699716Y-135699422D01*
X78769381Y-135704735D01*
X78825117Y-135746870D01*
X78849224Y-135812449D01*
X78849500Y-135820711D01*
X78849500Y-136679192D01*
X78829815Y-136746231D01*
X78813181Y-136766873D01*
X75016873Y-140563181D01*
X74955550Y-140596666D01*
X74929192Y-140599500D01*
X62933837Y-140599500D01*
X62866798Y-140579815D01*
X62827438Y-140537384D01*
X62826978Y-140537686D01*
X62825214Y-140534987D01*
X62824786Y-140534525D01*
X62824173Y-140533393D01*
X62688166Y-140325217D01*
X62582341Y-140210261D01*
X62519744Y-140142262D01*
X62323509Y-139989526D01*
X62323507Y-139989525D01*
X62323506Y-139989524D01*
X62104811Y-139871172D01*
X62104802Y-139871169D01*
X61869616Y-139790429D01*
X61624335Y-139749500D01*
X61375665Y-139749500D01*
X61130383Y-139790429D01*
X60895197Y-139871169D01*
X60895188Y-139871172D01*
X60676493Y-139989524D01*
X60480257Y-140142261D01*
X60311833Y-140325217D01*
X60175826Y-140533393D01*
X60075936Y-140761118D01*
X60014892Y-141002175D01*
X60014890Y-141002187D01*
X59994357Y-141249994D01*
X59994357Y-141250005D01*
X60014890Y-141497812D01*
X60014892Y-141497824D01*
X60075936Y-141738881D01*
X60175826Y-141966606D01*
X60311833Y-142174782D01*
X60313385Y-142176468D01*
X60480256Y-142357738D01*
X60676491Y-142510474D01*
X60895190Y-142628828D01*
X61130386Y-142709571D01*
X61375665Y-142750500D01*
X61624335Y-142750500D01*
X61869614Y-142709571D01*
X62104810Y-142628828D01*
X62323509Y-142510474D01*
X62519744Y-142357738D01*
X62688164Y-142174785D01*
X62824173Y-141966607D01*
X62824175Y-141966601D01*
X62824786Y-141965475D01*
X62825157Y-141965101D01*
X62826978Y-141962314D01*
X62827551Y-141962688D01*
X62874009Y-141915888D01*
X62933837Y-141900500D01*
X75314071Y-141900500D01*
X75398615Y-141883682D01*
X75439744Y-141875501D01*
X75558127Y-141826465D01*
X75664669Y-141755277D01*
X79662319Y-137757627D01*
X79723642Y-137724142D01*
X79793334Y-137729126D01*
X79837681Y-137757627D01*
X81700749Y-139620695D01*
X81734234Y-139682018D01*
X81729250Y-139751710D01*
X81712335Y-139782687D01*
X81656204Y-139857668D01*
X81656202Y-139857671D01*
X81605908Y-139992517D01*
X81599501Y-140052116D01*
X81599500Y-140052135D01*
X81599500Y-141947870D01*
X81599501Y-141947876D01*
X81605908Y-142007483D01*
X81656202Y-142142328D01*
X81656206Y-142142335D01*
X81742452Y-142257544D01*
X81742455Y-142257547D01*
X81857664Y-142343793D01*
X81857671Y-142343797D01*
X81992517Y-142394091D01*
X81992516Y-142394091D01*
X81999444Y-142394835D01*
X82052127Y-142400500D01*
X83947872Y-142400499D01*
X84007483Y-142394091D01*
X84142331Y-142343796D01*
X84257546Y-142257546D01*
X84343796Y-142142331D01*
X84372455Y-142065493D01*
X84414326Y-142009559D01*
X84479790Y-141985141D01*
X84548063Y-141999992D01*
X84579866Y-142024843D01*
X84587302Y-142032920D01*
X84588215Y-142033912D01*
X84588222Y-142033918D01*
X84771365Y-142176464D01*
X84771371Y-142176468D01*
X84771374Y-142176470D01*
X84975497Y-142286936D01*
X85070504Y-142319552D01*
X85195015Y-142362297D01*
X85195017Y-142362297D01*
X85195019Y-142362298D01*
X85423951Y-142400500D01*
X85423952Y-142400500D01*
X85656048Y-142400500D01*
X85656049Y-142400500D01*
X85884981Y-142362298D01*
X86104503Y-142286936D01*
X86104510Y-142286932D01*
X86104513Y-142286931D01*
X86166482Y-142253395D01*
X86234810Y-142238799D01*
X86300182Y-142263461D01*
X86341844Y-142319552D01*
X86349500Y-142362449D01*
X86349500Y-153179192D01*
X86329815Y-153246231D01*
X86313181Y-153266873D01*
X85266873Y-154313181D01*
X85205550Y-154346666D01*
X85179192Y-154349500D01*
X78908951Y-154349500D01*
X78783283Y-154374497D01*
X78783277Y-154374499D01*
X78664896Y-154423534D01*
X78558348Y-154494726D01*
X77494724Y-155558350D01*
X77449856Y-155625500D01*
X77449857Y-155625501D01*
X77423534Y-155664896D01*
X77374499Y-155783277D01*
X77374497Y-155783283D01*
X77349500Y-155908950D01*
X77349500Y-156329078D01*
X77329815Y-156396117D01*
X77317650Y-156412050D01*
X77267466Y-156467785D01*
X77172821Y-156631715D01*
X77172818Y-156631722D01*
X77114327Y-156811740D01*
X77114326Y-156811744D01*
X77094540Y-157000000D01*
X77114326Y-157188256D01*
X77114327Y-157188259D01*
X77172818Y-157368277D01*
X77172821Y-157368284D01*
X77267467Y-157532216D01*
X77358142Y-157632920D01*
X77394129Y-157672888D01*
X77547265Y-157784148D01*
X77547270Y-157784151D01*
X77720192Y-157861142D01*
X77720197Y-157861144D01*
X77905354Y-157900500D01*
X77905355Y-157900500D01*
X78094644Y-157900500D01*
X78094646Y-157900500D01*
X78279803Y-157861144D01*
X78452730Y-157784151D01*
X78605871Y-157672888D01*
X78732533Y-157532216D01*
X78827179Y-157368284D01*
X78885674Y-157188256D01*
X78905460Y-157000000D01*
X78885674Y-156811744D01*
X78827179Y-156631716D01*
X78732533Y-156467784D01*
X78682350Y-156412050D01*
X78652120Y-156349058D01*
X78650500Y-156329078D01*
X78650500Y-156293830D01*
X78670185Y-156226791D01*
X78686819Y-156206149D01*
X79206149Y-155686819D01*
X79267472Y-155653334D01*
X79293830Y-155650500D01*
X83066510Y-155650500D01*
X83133549Y-155670185D01*
X83179304Y-155722989D01*
X83189248Y-155792147D01*
X83160800Y-155855030D01*
X83118763Y-155904249D01*
X83039564Y-155996979D01*
X83039563Y-155996981D01*
X82910815Y-156207079D01*
X82816517Y-156434735D01*
X82758993Y-156674341D01*
X82739659Y-156920000D01*
X82758993Y-157165658D01*
X82816517Y-157405264D01*
X82910815Y-157632920D01*
X83039563Y-157843018D01*
X83039564Y-157843020D01*
X83088657Y-157900500D01*
X83199601Y-158030399D01*
X83344648Y-158154280D01*
X83386979Y-158190435D01*
X83386981Y-158190436D01*
X83597079Y-158319184D01*
X83824735Y-158413482D01*
X83824736Y-158413482D01*
X83824738Y-158413483D01*
X84064345Y-158471007D01*
X84310000Y-158490341D01*
X84555655Y-158471007D01*
X84795262Y-158413483D01*
X85022920Y-158319184D01*
X85233023Y-158190433D01*
X85420399Y-158030399D01*
X85580433Y-157843023D01*
X85709184Y-157632920D01*
X85803483Y-157405262D01*
X85861007Y-157165655D01*
X85880341Y-156920000D01*
X85861007Y-156674345D01*
X85803483Y-156434738D01*
X85803482Y-156434735D01*
X85709184Y-156207079D01*
X85580436Y-155996981D01*
X85580435Y-155996979D01*
X85544239Y-155954599D01*
X85459199Y-155855030D01*
X85430629Y-155791270D01*
X85441066Y-155722185D01*
X85487197Y-155669709D01*
X85553490Y-155650500D01*
X85564071Y-155650500D01*
X85648615Y-155633682D01*
X85689744Y-155625501D01*
X85808127Y-155576465D01*
X85835234Y-155558353D01*
X85835239Y-155558350D01*
X85861712Y-155540661D01*
X85914669Y-155505277D01*
X87505276Y-153914670D01*
X87576465Y-153808127D01*
X87625501Y-153689744D01*
X87650500Y-153564069D01*
X87650500Y-140335931D01*
X87650500Y-140335928D01*
X87625502Y-140210261D01*
X87625501Y-140210260D01*
X87625501Y-140210256D01*
X87576465Y-140091873D01*
X87576464Y-140091872D01*
X87576460Y-140091864D01*
X87557888Y-140064070D01*
X87557887Y-140064068D01*
X87505277Y-139985331D01*
X87505271Y-139985324D01*
X85614673Y-138094726D01*
X85614669Y-138094723D01*
X85508127Y-138023535D01*
X85389744Y-137974499D01*
X85389738Y-137974497D01*
X85264071Y-137949500D01*
X85264069Y-137949500D01*
X83927914Y-137949500D01*
X83860875Y-137929815D01*
X83840233Y-137913181D01*
X81686819Y-135759767D01*
X81653334Y-135698444D01*
X81650500Y-135672086D01*
X81650500Y-123376360D01*
X81670185Y-123309321D01*
X81722989Y-123263566D01*
X81792147Y-123253622D01*
X81810496Y-123257700D01*
X81829834Y-123263566D01*
X81903868Y-123286024D01*
X82100000Y-123305341D01*
X82296132Y-123286024D01*
X82484727Y-123228814D01*
X82658538Y-123135910D01*
X82810883Y-123010883D01*
X82935910Y-122858538D01*
X82998340Y-122741740D01*
X83028811Y-122684733D01*
X83028811Y-122684732D01*
X83028814Y-122684727D01*
X83086024Y-122496132D01*
X83094871Y-122406299D01*
X83121031Y-122341513D01*
X83130584Y-122330782D01*
X89537819Y-115923548D01*
X89599142Y-115890063D01*
X89668834Y-115895047D01*
X89724767Y-115936919D01*
X89749184Y-116002383D01*
X89749500Y-116011229D01*
X89749500Y-159625500D01*
X89729815Y-159692539D01*
X89677011Y-159738294D01*
X89625500Y-159749500D01*
X50374500Y-159749500D01*
X50307461Y-159729815D01*
X50261706Y-159677011D01*
X50250500Y-159625500D01*
X50250500Y-156920000D01*
X54429659Y-156920000D01*
X54448993Y-157165658D01*
X54506517Y-157405264D01*
X54600815Y-157632920D01*
X54729563Y-157843018D01*
X54729564Y-157843020D01*
X54778657Y-157900500D01*
X54889601Y-158030399D01*
X55034648Y-158154280D01*
X55076979Y-158190435D01*
X55076981Y-158190436D01*
X55287079Y-158319184D01*
X55514735Y-158413482D01*
X55514736Y-158413482D01*
X55514738Y-158413483D01*
X55754345Y-158471007D01*
X56000000Y-158490341D01*
X56245655Y-158471007D01*
X56485262Y-158413483D01*
X56712920Y-158319184D01*
X56923023Y-158190433D01*
X57110399Y-158030399D01*
X57270433Y-157843023D01*
X57399184Y-157632920D01*
X57493483Y-157405262D01*
X57551007Y-157165655D01*
X57570341Y-156920000D01*
X65429659Y-156920000D01*
X65448993Y-157165658D01*
X65506517Y-157405264D01*
X65600815Y-157632920D01*
X65729563Y-157843018D01*
X65729564Y-157843020D01*
X65778657Y-157900500D01*
X65889601Y-158030399D01*
X66034648Y-158154280D01*
X66076979Y-158190435D01*
X66076981Y-158190436D01*
X66287079Y-158319184D01*
X66514735Y-158413482D01*
X66514736Y-158413482D01*
X66514738Y-158413483D01*
X66754345Y-158471007D01*
X67000000Y-158490341D01*
X67245655Y-158471007D01*
X67485262Y-158413483D01*
X67712920Y-158319184D01*
X67923023Y-158190433D01*
X68110399Y-158030399D01*
X68270433Y-157843023D01*
X68399184Y-157632920D01*
X68493483Y-157405262D01*
X68551007Y-157165655D01*
X68570341Y-156920000D01*
X68551007Y-156674345D01*
X68493483Y-156434738D01*
X68493482Y-156434735D01*
X68399184Y-156207079D01*
X68270436Y-155996981D01*
X68270435Y-155996979D01*
X68234280Y-155954648D01*
X68110399Y-155809601D01*
X67947164Y-155670185D01*
X67923020Y-155649564D01*
X67923018Y-155649563D01*
X67712920Y-155520815D01*
X67485264Y-155426517D01*
X67245658Y-155368993D01*
X67000000Y-155349659D01*
X66754341Y-155368993D01*
X66514735Y-155426517D01*
X66287079Y-155520815D01*
X66076981Y-155649563D01*
X66076979Y-155649564D01*
X65889601Y-155809601D01*
X65729564Y-155996979D01*
X65729563Y-155996981D01*
X65600815Y-156207079D01*
X65506517Y-156434735D01*
X65448993Y-156674341D01*
X65429659Y-156920000D01*
X57570341Y-156920000D01*
X57551007Y-156674345D01*
X57493483Y-156434738D01*
X57493482Y-156434735D01*
X57399184Y-156207079D01*
X57270436Y-155996981D01*
X57270435Y-155996979D01*
X57234280Y-155954648D01*
X57110399Y-155809601D01*
X56947164Y-155670185D01*
X56923020Y-155649564D01*
X56923018Y-155649563D01*
X56712920Y-155520815D01*
X56485264Y-155426517D01*
X56245658Y-155368993D01*
X56000000Y-155349659D01*
X55754341Y-155368993D01*
X55514735Y-155426517D01*
X55287079Y-155520815D01*
X55076981Y-155649563D01*
X55076979Y-155649564D01*
X54889601Y-155809601D01*
X54729564Y-155996979D01*
X54729563Y-155996981D01*
X54600815Y-156207079D01*
X54506517Y-156434735D01*
X54448993Y-156674341D01*
X54429659Y-156920000D01*
X50250500Y-156920000D01*
X50250500Y-151963225D01*
X54495307Y-151963225D01*
X54509507Y-152209474D01*
X54509507Y-152209479D01*
X54563731Y-152450092D01*
X54656533Y-152678636D01*
X54785412Y-152888947D01*
X54860393Y-152975507D01*
X54946908Y-153075382D01*
X55136687Y-153232939D01*
X55136690Y-153232941D01*
X55136696Y-153232945D01*
X55349650Y-153357385D01*
X55580072Y-153445375D01*
X55580075Y-153445375D01*
X55580079Y-153445377D01*
X55821785Y-153494553D01*
X56068278Y-153503592D01*
X56312936Y-153472250D01*
X56549191Y-153401370D01*
X56770697Y-153292856D01*
X56971505Y-153149621D01*
X57146223Y-152975512D01*
X57290158Y-152775205D01*
X57399445Y-152554079D01*
X57471149Y-152318074D01*
X57503344Y-152073526D01*
X57505141Y-152000000D01*
X57502118Y-151963225D01*
X65495307Y-151963225D01*
X65509507Y-152209474D01*
X65509507Y-152209479D01*
X65563731Y-152450092D01*
X65656533Y-152678636D01*
X65785412Y-152888947D01*
X65860393Y-152975507D01*
X65946908Y-153075382D01*
X66136687Y-153232939D01*
X66136690Y-153232941D01*
X66136696Y-153232945D01*
X66349650Y-153357385D01*
X66580072Y-153445375D01*
X66580075Y-153445375D01*
X66580079Y-153445377D01*
X66821785Y-153494553D01*
X67068278Y-153503592D01*
X67312936Y-153472250D01*
X67549191Y-153401370D01*
X67770697Y-153292856D01*
X67971505Y-153149621D01*
X68146223Y-152975512D01*
X68290158Y-152775205D01*
X68399445Y-152554079D01*
X68471149Y-152318074D01*
X68503344Y-152073526D01*
X68505141Y-152000000D01*
X68502118Y-151963225D01*
X82805307Y-151963225D01*
X82819507Y-152209474D01*
X82819507Y-152209479D01*
X82873731Y-152450092D01*
X82966533Y-152678636D01*
X83095412Y-152888947D01*
X83170393Y-152975507D01*
X83256908Y-153075382D01*
X83446687Y-153232939D01*
X83446690Y-153232941D01*
X83446696Y-153232945D01*
X83659650Y-153357385D01*
X83890072Y-153445375D01*
X83890075Y-153445375D01*
X83890079Y-153445377D01*
X84131785Y-153494553D01*
X84378278Y-153503592D01*
X84622936Y-153472250D01*
X84859191Y-153401370D01*
X85080697Y-153292856D01*
X85281505Y-153149621D01*
X85456223Y-152975512D01*
X85600158Y-152775205D01*
X85709445Y-152554079D01*
X85781149Y-152318074D01*
X85813344Y-152073526D01*
X85815141Y-152000000D01*
X85794930Y-151754171D01*
X85734841Y-151514945D01*
X85636486Y-151288744D01*
X85502508Y-151081645D01*
X85336504Y-150899210D01*
X85142932Y-150746336D01*
X84926991Y-150627130D01*
X84926982Y-150627126D01*
X84694491Y-150544796D01*
X84694471Y-150544791D01*
X84451644Y-150501538D01*
X84451652Y-150501538D01*
X84210496Y-150498592D01*
X84205007Y-150498525D01*
X84205006Y-150498525D01*
X84205005Y-150498525D01*
X84205004Y-150498525D01*
X83961190Y-150535834D01*
X83961180Y-150535837D01*
X83726732Y-150612466D01*
X83507951Y-150726356D01*
X83507948Y-150726358D01*
X83310698Y-150874456D01*
X83140289Y-151052779D01*
X83140279Y-151052792D01*
X83001287Y-151256547D01*
X83001285Y-151256552D01*
X82897439Y-151480268D01*
X82897436Y-151480276D01*
X82831520Y-151717960D01*
X82831519Y-151717967D01*
X82805307Y-151963225D01*
X68502118Y-151963225D01*
X68484930Y-151754171D01*
X68424841Y-151514945D01*
X68326486Y-151288744D01*
X68192508Y-151081645D01*
X68026504Y-150899210D01*
X67832932Y-150746336D01*
X67616991Y-150627130D01*
X67616982Y-150627126D01*
X67384491Y-150544796D01*
X67384471Y-150544791D01*
X67141644Y-150501538D01*
X67141652Y-150501538D01*
X66900496Y-150498592D01*
X66895007Y-150498525D01*
X66895006Y-150498525D01*
X66895005Y-150498525D01*
X66895004Y-150498525D01*
X66651190Y-150535834D01*
X66651180Y-150535837D01*
X66416732Y-150612466D01*
X66197951Y-150726356D01*
X66197948Y-150726358D01*
X66000698Y-150874456D01*
X65830289Y-151052779D01*
X65830279Y-151052792D01*
X65691287Y-151256547D01*
X65691285Y-151256552D01*
X65587439Y-151480268D01*
X65587436Y-151480276D01*
X65521520Y-151717960D01*
X65521519Y-151717967D01*
X65495307Y-151963225D01*
X57502118Y-151963225D01*
X57484930Y-151754171D01*
X57424841Y-151514945D01*
X57326486Y-151288744D01*
X57192508Y-151081645D01*
X57026504Y-150899210D01*
X56832932Y-150746336D01*
X56616991Y-150627130D01*
X56616982Y-150627126D01*
X56384491Y-150544796D01*
X56384471Y-150544791D01*
X56141644Y-150501538D01*
X56141652Y-150501538D01*
X55900496Y-150498592D01*
X55895007Y-150498525D01*
X55895006Y-150498525D01*
X55895005Y-150498525D01*
X55895004Y-150498525D01*
X55651190Y-150535834D01*
X55651180Y-150535837D01*
X55416732Y-150612466D01*
X55197951Y-150726356D01*
X55197948Y-150726358D01*
X55000698Y-150874456D01*
X54830289Y-151052779D01*
X54830279Y-151052792D01*
X54691287Y-151256547D01*
X54691285Y-151256552D01*
X54587439Y-151480268D01*
X54587436Y-151480276D01*
X54521520Y-151717960D01*
X54521519Y-151717967D01*
X54495307Y-151963225D01*
X50250500Y-151963225D01*
X50250500Y-148620000D01*
X54429659Y-148620000D01*
X54448993Y-148865658D01*
X54506517Y-149105264D01*
X54600815Y-149332920D01*
X54729563Y-149543018D01*
X54729564Y-149543020D01*
X54729567Y-149543023D01*
X54889601Y-149730399D01*
X55034648Y-149854280D01*
X55076979Y-149890435D01*
X55076981Y-149890436D01*
X55287079Y-150019184D01*
X55514735Y-150113482D01*
X55514736Y-150113482D01*
X55514738Y-150113483D01*
X55754345Y-150171007D01*
X56000000Y-150190341D01*
X56245655Y-150171007D01*
X56485262Y-150113483D01*
X56712920Y-150019184D01*
X56923023Y-149890433D01*
X57110399Y-149730399D01*
X57270433Y-149543023D01*
X57399184Y-149332920D01*
X57493483Y-149105262D01*
X57551007Y-148865655D01*
X57570341Y-148620000D01*
X65429659Y-148620000D01*
X65448993Y-148865658D01*
X65506517Y-149105264D01*
X65600815Y-149332920D01*
X65729563Y-149543018D01*
X65729564Y-149543020D01*
X65729567Y-149543023D01*
X65889601Y-149730399D01*
X66034648Y-149854280D01*
X66076979Y-149890435D01*
X66076981Y-149890436D01*
X66287079Y-150019184D01*
X66514735Y-150113482D01*
X66514736Y-150113482D01*
X66514738Y-150113483D01*
X66754345Y-150171007D01*
X67000000Y-150190341D01*
X67245655Y-150171007D01*
X67485262Y-150113483D01*
X67712920Y-150019184D01*
X67923023Y-149890433D01*
X68110399Y-149730399D01*
X68270433Y-149543023D01*
X68399184Y-149332920D01*
X68493483Y-149105262D01*
X68551007Y-148865655D01*
X68570341Y-148620000D01*
X82739659Y-148620000D01*
X82758993Y-148865658D01*
X82816517Y-149105264D01*
X82910815Y-149332920D01*
X83039563Y-149543018D01*
X83039564Y-149543020D01*
X83039567Y-149543023D01*
X83199601Y-149730399D01*
X83344648Y-149854280D01*
X83386979Y-149890435D01*
X83386981Y-149890436D01*
X83597079Y-150019184D01*
X83824735Y-150113482D01*
X83824736Y-150113482D01*
X83824738Y-150113483D01*
X84064345Y-150171007D01*
X84310000Y-150190341D01*
X84555655Y-150171007D01*
X84795262Y-150113483D01*
X85022920Y-150019184D01*
X85233023Y-149890433D01*
X85420399Y-149730399D01*
X85580433Y-149543023D01*
X85709184Y-149332920D01*
X85803483Y-149105262D01*
X85861007Y-148865655D01*
X85880341Y-148620000D01*
X85861007Y-148374345D01*
X85803483Y-148134738D01*
X85709184Y-147907080D01*
X85709184Y-147907079D01*
X85580436Y-147696981D01*
X85580435Y-147696979D01*
X85544280Y-147654648D01*
X85420399Y-147509601D01*
X85296516Y-147403795D01*
X85233020Y-147349564D01*
X85233018Y-147349563D01*
X85022920Y-147220815D01*
X84910042Y-147174060D01*
X84855639Y-147130219D01*
X84833574Y-147063925D01*
X84850853Y-146996225D01*
X84901990Y-146948615D01*
X84957494Y-146935499D01*
X85322872Y-146935499D01*
X85382483Y-146929091D01*
X85517331Y-146878796D01*
X85632546Y-146792546D01*
X85718796Y-146677331D01*
X85769091Y-146542483D01*
X85775500Y-146482873D01*
X85775499Y-144557128D01*
X85769091Y-144497517D01*
X85718796Y-144362669D01*
X85718795Y-144362668D01*
X85718793Y-144362664D01*
X85632547Y-144247455D01*
X85632544Y-144247452D01*
X85517335Y-144161206D01*
X85517328Y-144161202D01*
X85382482Y-144110908D01*
X85382483Y-144110908D01*
X85322883Y-144104501D01*
X85322881Y-144104500D01*
X85322873Y-144104500D01*
X85322864Y-144104500D01*
X83297129Y-144104500D01*
X83297123Y-144104501D01*
X83237516Y-144110908D01*
X83102671Y-144161202D01*
X83102664Y-144161206D01*
X82987455Y-144247452D01*
X82987452Y-144247455D01*
X82901206Y-144362664D01*
X82901202Y-144362671D01*
X82850908Y-144497517D01*
X82844501Y-144557116D01*
X82844501Y-144557123D01*
X82844500Y-144557135D01*
X82844500Y-146482870D01*
X82844501Y-146482876D01*
X82850908Y-146542483D01*
X82901202Y-146677328D01*
X82901206Y-146677335D01*
X82987452Y-146792544D01*
X82987455Y-146792547D01*
X83102664Y-146878793D01*
X83102671Y-146878797D01*
X83237517Y-146929091D01*
X83237516Y-146929091D01*
X83244444Y-146929835D01*
X83297127Y-146935500D01*
X83662504Y-146935499D01*
X83729541Y-146955183D01*
X83775296Y-147007987D01*
X83785240Y-147077146D01*
X83756215Y-147140701D01*
X83709956Y-147174060D01*
X83597077Y-147220816D01*
X83386981Y-147349563D01*
X83386979Y-147349564D01*
X83199601Y-147509601D01*
X83039564Y-147696979D01*
X83039563Y-147696981D01*
X82910815Y-147907079D01*
X82816517Y-148134735D01*
X82758993Y-148374341D01*
X82739659Y-148620000D01*
X68570341Y-148620000D01*
X68551007Y-148374345D01*
X68493483Y-148134738D01*
X68399184Y-147907080D01*
X68399184Y-147907079D01*
X68270436Y-147696981D01*
X68270435Y-147696979D01*
X68234280Y-147654648D01*
X68110399Y-147509601D01*
X67986516Y-147403795D01*
X67923020Y-147349564D01*
X67923018Y-147349563D01*
X67712920Y-147220815D01*
X67600042Y-147174060D01*
X67545639Y-147130219D01*
X67523574Y-147063925D01*
X67540853Y-146996225D01*
X67591990Y-146948615D01*
X67647494Y-146935499D01*
X68012872Y-146935499D01*
X68072483Y-146929091D01*
X68207331Y-146878796D01*
X68322546Y-146792546D01*
X68408796Y-146677331D01*
X68459091Y-146542483D01*
X68465500Y-146482873D01*
X68465499Y-144557128D01*
X68459091Y-144497517D01*
X68408796Y-144362669D01*
X68408795Y-144362668D01*
X68408793Y-144362664D01*
X68322547Y-144247455D01*
X68322544Y-144247452D01*
X68207335Y-144161206D01*
X68207328Y-144161202D01*
X68072482Y-144110908D01*
X68072483Y-144110908D01*
X68012883Y-144104501D01*
X68012881Y-144104500D01*
X68012873Y-144104500D01*
X68012864Y-144104500D01*
X65987129Y-144104500D01*
X65987123Y-144104501D01*
X65927516Y-144110908D01*
X65792671Y-144161202D01*
X65792664Y-144161206D01*
X65677455Y-144247452D01*
X65677452Y-144247455D01*
X65591206Y-144362664D01*
X65591202Y-144362671D01*
X65540908Y-144497517D01*
X65534501Y-144557116D01*
X65534501Y-144557123D01*
X65534500Y-144557135D01*
X65534500Y-146482870D01*
X65534501Y-146482876D01*
X65540908Y-146542483D01*
X65591202Y-146677328D01*
X65591206Y-146677335D01*
X65677452Y-146792544D01*
X65677455Y-146792547D01*
X65792664Y-146878793D01*
X65792671Y-146878797D01*
X65927517Y-146929091D01*
X65927516Y-146929091D01*
X65934444Y-146929835D01*
X65987127Y-146935500D01*
X66352504Y-146935499D01*
X66419541Y-146955183D01*
X66465296Y-147007987D01*
X66475240Y-147077146D01*
X66446215Y-147140701D01*
X66399956Y-147174060D01*
X66287077Y-147220816D01*
X66076981Y-147349563D01*
X66076979Y-147349564D01*
X65889601Y-147509601D01*
X65729564Y-147696979D01*
X65729563Y-147696981D01*
X65600815Y-147907079D01*
X65506517Y-148134735D01*
X65448993Y-148374341D01*
X65429659Y-148620000D01*
X57570341Y-148620000D01*
X57551007Y-148374345D01*
X57493483Y-148134738D01*
X57399184Y-147907080D01*
X57399184Y-147907079D01*
X57270436Y-147696981D01*
X57270435Y-147696979D01*
X57234280Y-147654648D01*
X57110399Y-147509601D01*
X56986516Y-147403795D01*
X56923020Y-147349564D01*
X56923018Y-147349563D01*
X56712920Y-147220815D01*
X56600042Y-147174060D01*
X56545639Y-147130219D01*
X56523574Y-147063925D01*
X56540853Y-146996225D01*
X56591990Y-146948615D01*
X56647494Y-146935499D01*
X57012872Y-146935499D01*
X57072483Y-146929091D01*
X57207331Y-146878796D01*
X57322546Y-146792546D01*
X57408796Y-146677331D01*
X57459091Y-146542483D01*
X57465500Y-146482873D01*
X57465499Y-144557128D01*
X57459091Y-144497517D01*
X57408796Y-144362669D01*
X57408795Y-144362668D01*
X57408793Y-144362664D01*
X57322547Y-144247455D01*
X57322544Y-144247452D01*
X57207335Y-144161206D01*
X57207328Y-144161202D01*
X57072482Y-144110908D01*
X57072483Y-144110908D01*
X57012883Y-144104501D01*
X57012881Y-144104500D01*
X57012873Y-144104500D01*
X57012864Y-144104500D01*
X54987129Y-144104500D01*
X54987123Y-144104501D01*
X54927516Y-144110908D01*
X54792671Y-144161202D01*
X54792664Y-144161206D01*
X54677455Y-144247452D01*
X54677452Y-144247455D01*
X54591206Y-144362664D01*
X54591202Y-144362671D01*
X54540908Y-144497517D01*
X54534501Y-144557116D01*
X54534501Y-144557123D01*
X54534500Y-144557135D01*
X54534500Y-146482870D01*
X54534501Y-146482876D01*
X54540908Y-146542483D01*
X54591202Y-146677328D01*
X54591206Y-146677335D01*
X54677452Y-146792544D01*
X54677455Y-146792547D01*
X54792664Y-146878793D01*
X54792671Y-146878797D01*
X54927517Y-146929091D01*
X54927516Y-146929091D01*
X54934444Y-146929835D01*
X54987127Y-146935500D01*
X55352504Y-146935499D01*
X55419541Y-146955183D01*
X55465296Y-147007987D01*
X55475240Y-147077146D01*
X55446215Y-147140701D01*
X55399956Y-147174060D01*
X55287077Y-147220816D01*
X55076981Y-147349563D01*
X55076979Y-147349564D01*
X54889601Y-147509601D01*
X54729564Y-147696979D01*
X54729563Y-147696981D01*
X54600815Y-147907079D01*
X54506517Y-148134735D01*
X54448993Y-148374341D01*
X54429659Y-148620000D01*
X50250500Y-148620000D01*
X50250500Y-134380000D01*
X54429659Y-134380000D01*
X54448993Y-134625658D01*
X54506517Y-134865264D01*
X54600815Y-135092920D01*
X54729563Y-135303018D01*
X54729564Y-135303020D01*
X54729567Y-135303023D01*
X54889601Y-135490399D01*
X55034648Y-135614280D01*
X55076979Y-135650435D01*
X55076981Y-135650436D01*
X55287080Y-135779184D01*
X55287083Y-135779186D01*
X55399956Y-135825939D01*
X55454360Y-135869780D01*
X55476425Y-135936074D01*
X55459146Y-136003773D01*
X55408009Y-136051384D01*
X55352504Y-136064500D01*
X54987129Y-136064500D01*
X54987123Y-136064501D01*
X54927516Y-136070908D01*
X54792671Y-136121202D01*
X54792664Y-136121206D01*
X54677455Y-136207452D01*
X54677452Y-136207455D01*
X54591206Y-136322664D01*
X54591202Y-136322671D01*
X54540908Y-136457517D01*
X54534501Y-136517116D01*
X54534501Y-136517123D01*
X54534500Y-136517135D01*
X54534500Y-138442870D01*
X54534501Y-138442876D01*
X54540908Y-138502483D01*
X54591202Y-138637328D01*
X54591206Y-138637335D01*
X54677452Y-138752544D01*
X54677455Y-138752547D01*
X54792664Y-138838793D01*
X54792671Y-138838797D01*
X54927517Y-138889091D01*
X54927516Y-138889091D01*
X54934444Y-138889835D01*
X54987127Y-138895500D01*
X57012872Y-138895499D01*
X57072483Y-138889091D01*
X57207331Y-138838796D01*
X57322546Y-138752546D01*
X57408796Y-138637331D01*
X57459091Y-138502483D01*
X57465500Y-138442873D01*
X57465500Y-137552135D01*
X66099500Y-137552135D01*
X66099500Y-139447870D01*
X66099501Y-139447876D01*
X66105908Y-139507483D01*
X66156202Y-139642328D01*
X66156206Y-139642335D01*
X66242452Y-139757544D01*
X66242455Y-139757547D01*
X66357664Y-139843793D01*
X66357671Y-139843797D01*
X66492517Y-139894091D01*
X66492516Y-139894091D01*
X66499444Y-139894835D01*
X66552127Y-139900500D01*
X68447872Y-139900499D01*
X68507483Y-139894091D01*
X68642331Y-139843796D01*
X68757546Y-139757546D01*
X68843796Y-139642331D01*
X68862092Y-139593274D01*
X68903961Y-139537342D01*
X68969425Y-139512924D01*
X69037699Y-139527775D01*
X69054436Y-139538755D01*
X69231365Y-139676464D01*
X69231371Y-139676468D01*
X69231374Y-139676470D01*
X69370405Y-139751710D01*
X69427645Y-139782687D01*
X69435497Y-139786936D01*
X69549487Y-139826068D01*
X69655015Y-139862297D01*
X69655017Y-139862297D01*
X69655019Y-139862298D01*
X69883951Y-139900500D01*
X69883952Y-139900500D01*
X70116048Y-139900500D01*
X70116049Y-139900500D01*
X70344981Y-139862298D01*
X70564503Y-139786936D01*
X70768626Y-139676470D01*
X70775869Y-139670833D01*
X70840286Y-139620695D01*
X70951784Y-139533913D01*
X71108979Y-139363153D01*
X71146191Y-139306196D01*
X71199337Y-139260839D01*
X71268569Y-139251415D01*
X71331904Y-139280917D01*
X71353809Y-139306196D01*
X71391016Y-139363147D01*
X71391019Y-139363151D01*
X71391021Y-139363153D01*
X71548216Y-139533913D01*
X71548219Y-139533915D01*
X71548222Y-139533918D01*
X71731365Y-139676464D01*
X71731371Y-139676468D01*
X71731374Y-139676470D01*
X71870405Y-139751710D01*
X71927645Y-139782687D01*
X71935497Y-139786936D01*
X72049487Y-139826068D01*
X72155015Y-139862297D01*
X72155017Y-139862297D01*
X72155019Y-139862298D01*
X72383951Y-139900500D01*
X72383952Y-139900500D01*
X72616048Y-139900500D01*
X72616049Y-139900500D01*
X72844981Y-139862298D01*
X73064503Y-139786936D01*
X73268626Y-139676470D01*
X73275869Y-139670833D01*
X73340286Y-139620695D01*
X73451784Y-139533913D01*
X73608979Y-139363153D01*
X73735924Y-139168849D01*
X73829157Y-138956300D01*
X73886134Y-138731305D01*
X73886135Y-138731297D01*
X73905300Y-138500006D01*
X73905300Y-138499993D01*
X73886135Y-138268702D01*
X73886133Y-138268691D01*
X73829157Y-138043699D01*
X73735924Y-137831151D01*
X73608983Y-137636852D01*
X73608980Y-137636849D01*
X73608979Y-137636847D01*
X73451784Y-137466087D01*
X73451779Y-137466083D01*
X73451777Y-137466081D01*
X73268634Y-137323535D01*
X73268628Y-137323531D01*
X73064504Y-137213064D01*
X73064495Y-137213061D01*
X72844984Y-137137702D01*
X72654450Y-137105908D01*
X72616049Y-137099500D01*
X72383951Y-137099500D01*
X72345550Y-137105908D01*
X72155015Y-137137702D01*
X71935504Y-137213061D01*
X71935495Y-137213064D01*
X71731371Y-137323531D01*
X71731365Y-137323535D01*
X71548222Y-137466081D01*
X71548219Y-137466084D01*
X71548216Y-137466086D01*
X71548216Y-137466087D01*
X71400500Y-137626551D01*
X71391015Y-137636854D01*
X71353808Y-137693804D01*
X71300662Y-137739161D01*
X71231430Y-137748584D01*
X71168095Y-137719082D01*
X71146192Y-137693804D01*
X71108984Y-137636854D01*
X71108982Y-137636852D01*
X71108979Y-137636847D01*
X70951784Y-137466087D01*
X70951779Y-137466083D01*
X70951777Y-137466081D01*
X70768634Y-137323535D01*
X70768628Y-137323531D01*
X70564504Y-137213064D01*
X70564495Y-137213061D01*
X70344984Y-137137702D01*
X70154450Y-137105908D01*
X70116049Y-137099500D01*
X69883951Y-137099500D01*
X69845550Y-137105908D01*
X69655015Y-137137702D01*
X69435504Y-137213061D01*
X69435495Y-137213064D01*
X69231372Y-137323531D01*
X69054436Y-137461245D01*
X68989442Y-137486887D01*
X68920902Y-137473320D01*
X68870577Y-137424852D01*
X68862092Y-137406723D01*
X68843798Y-137357673D01*
X68843793Y-137357664D01*
X68757547Y-137242455D01*
X68757544Y-137242452D01*
X68642335Y-137156206D01*
X68642328Y-137156202D01*
X68507482Y-137105908D01*
X68507483Y-137105908D01*
X68447883Y-137099501D01*
X68447881Y-137099500D01*
X68447873Y-137099500D01*
X68447864Y-137099500D01*
X66552129Y-137099500D01*
X66552123Y-137099501D01*
X66492516Y-137105908D01*
X66357671Y-137156202D01*
X66357664Y-137156206D01*
X66242455Y-137242452D01*
X66242452Y-137242455D01*
X66156206Y-137357664D01*
X66156202Y-137357671D01*
X66105908Y-137492517D01*
X66099501Y-137552116D01*
X66099500Y-137552135D01*
X57465500Y-137552135D01*
X57465499Y-136517128D01*
X57459091Y-136457517D01*
X57408796Y-136322669D01*
X57408795Y-136322668D01*
X57408793Y-136322664D01*
X57322547Y-136207455D01*
X57322544Y-136207452D01*
X57207335Y-136121206D01*
X57207328Y-136121202D01*
X57072482Y-136070908D01*
X57072483Y-136070908D01*
X57012883Y-136064501D01*
X57012881Y-136064500D01*
X57012873Y-136064500D01*
X57012865Y-136064500D01*
X56647497Y-136064500D01*
X56580458Y-136044815D01*
X56534703Y-135992011D01*
X56524759Y-135922853D01*
X56553784Y-135859297D01*
X56600044Y-135825939D01*
X56712920Y-135779184D01*
X56923018Y-135650436D01*
X56923020Y-135650435D01*
X56923020Y-135650434D01*
X56923023Y-135650433D01*
X57110399Y-135490399D01*
X57270433Y-135303023D01*
X57399184Y-135092920D01*
X57493483Y-134865262D01*
X57551007Y-134625655D01*
X57570341Y-134380000D01*
X57551007Y-134134345D01*
X57493483Y-133894738D01*
X57399184Y-133667080D01*
X57399184Y-133667079D01*
X57270436Y-133456981D01*
X57270435Y-133456979D01*
X57207095Y-133382818D01*
X57110399Y-133269601D01*
X56986516Y-133163795D01*
X56923020Y-133109564D01*
X56923018Y-133109563D01*
X56712920Y-132980815D01*
X56485264Y-132886517D01*
X56245658Y-132828993D01*
X56000000Y-132809659D01*
X55754341Y-132828993D01*
X55514735Y-132886517D01*
X55287079Y-132980815D01*
X55076981Y-133109563D01*
X55076979Y-133109564D01*
X54889601Y-133269601D01*
X54729564Y-133456979D01*
X54729563Y-133456981D01*
X54600815Y-133667079D01*
X54506517Y-133894735D01*
X54448993Y-134134341D01*
X54429659Y-134380000D01*
X50250500Y-134380000D01*
X50250500Y-130999995D01*
X54494858Y-130999995D01*
X54494859Y-131000007D01*
X54515070Y-131245831D01*
X54575159Y-131485055D01*
X54575162Y-131485063D01*
X54673512Y-131711253D01*
X54673514Y-131711256D01*
X54807492Y-131918355D01*
X54973496Y-132100790D01*
X55167068Y-132253664D01*
X55356683Y-132358337D01*
X55383008Y-132372869D01*
X55383017Y-132372873D01*
X55615508Y-132455203D01*
X55615513Y-132455204D01*
X55615518Y-132455206D01*
X55615524Y-132455207D01*
X55615528Y-132455208D01*
X55749371Y-132479048D01*
X55858354Y-132498461D01*
X55858347Y-132498461D01*
X55877566Y-132498695D01*
X56104993Y-132501475D01*
X56348813Y-132464165D01*
X56583266Y-132387534D01*
X56802054Y-132273640D01*
X56999303Y-132125542D01*
X57169714Y-131947216D01*
X57308712Y-131743452D01*
X57412564Y-131519722D01*
X57478481Y-131282035D01*
X57504692Y-131036774D01*
X57502571Y-130999994D01*
X62744556Y-130999994D01*
X62744556Y-131000005D01*
X62764310Y-131314004D01*
X62764311Y-131314011D01*
X62823270Y-131623083D01*
X62920497Y-131922316D01*
X62920499Y-131922321D01*
X63054461Y-132207003D01*
X63054464Y-132207009D01*
X63223051Y-132472661D01*
X63223054Y-132472665D01*
X63423606Y-132715090D01*
X63423608Y-132715092D01*
X63423610Y-132715094D01*
X63606157Y-132886517D01*
X63652968Y-132930476D01*
X63652978Y-132930484D01*
X63907504Y-133115408D01*
X63907509Y-133115410D01*
X63907516Y-133115416D01*
X64183234Y-133266994D01*
X64183239Y-133266996D01*
X64183241Y-133266997D01*
X64183242Y-133266998D01*
X64475771Y-133382818D01*
X64475774Y-133382819D01*
X64764601Y-133456977D01*
X64780527Y-133461066D01*
X64846010Y-133469338D01*
X65092670Y-133500499D01*
X65092679Y-133500499D01*
X65092682Y-133500500D01*
X65092684Y-133500500D01*
X65407316Y-133500500D01*
X65407318Y-133500500D01*
X65407321Y-133500499D01*
X65407329Y-133500499D01*
X65593593Y-133476968D01*
X65719473Y-133461066D01*
X66024225Y-133382819D01*
X66024228Y-133382818D01*
X66316757Y-133266998D01*
X66316758Y-133266997D01*
X66316756Y-133266997D01*
X66316766Y-133266994D01*
X66592484Y-133115416D01*
X66847030Y-132930478D01*
X67076390Y-132715094D01*
X67276947Y-132472663D01*
X67445537Y-132207007D01*
X67579503Y-131922315D01*
X67676731Y-131623079D01*
X67735688Y-131314015D01*
X67739978Y-131245829D01*
X67755444Y-131000005D01*
X67755444Y-130999994D01*
X67735689Y-130685995D01*
X67735688Y-130685988D01*
X67735688Y-130685985D01*
X67676731Y-130376921D01*
X67579503Y-130077685D01*
X67554470Y-130024488D01*
X67523695Y-129959087D01*
X67445537Y-129792993D01*
X67391056Y-129707144D01*
X67276948Y-129527338D01*
X67276945Y-129527334D01*
X67076393Y-129284909D01*
X67076391Y-129284907D01*
X66847031Y-129069523D01*
X66847021Y-129069515D01*
X66592495Y-128884591D01*
X66592488Y-128884586D01*
X66592484Y-128884584D01*
X66316766Y-128733006D01*
X66316763Y-128733004D01*
X66316758Y-128733002D01*
X66316757Y-128733001D01*
X66024228Y-128617181D01*
X66024225Y-128617180D01*
X65719476Y-128538934D01*
X65719463Y-128538932D01*
X65407329Y-128499500D01*
X65407318Y-128499500D01*
X65092682Y-128499500D01*
X65092670Y-128499500D01*
X64780536Y-128538932D01*
X64780523Y-128538934D01*
X64475774Y-128617180D01*
X64475771Y-128617181D01*
X64183242Y-128733001D01*
X64183241Y-128733002D01*
X63907516Y-128884584D01*
X63907504Y-128884591D01*
X63652978Y-129069515D01*
X63652968Y-129069523D01*
X63423608Y-129284907D01*
X63423606Y-129284909D01*
X63223054Y-129527334D01*
X63223051Y-129527338D01*
X63054464Y-129792990D01*
X63054461Y-129792996D01*
X62920499Y-130077678D01*
X62920497Y-130077683D01*
X62823270Y-130376916D01*
X62764311Y-130685988D01*
X62764310Y-130685995D01*
X62744556Y-130999994D01*
X57502571Y-130999994D01*
X57490493Y-130790525D01*
X57466020Y-130681928D01*
X57436268Y-130549907D01*
X57394044Y-130445921D01*
X57343468Y-130321366D01*
X57214589Y-130111055D01*
X57214588Y-130111054D01*
X57214587Y-130111052D01*
X57139601Y-130024487D01*
X57053092Y-129924618D01*
X56863313Y-129767061D01*
X56863311Y-129767059D01*
X56863303Y-129767054D01*
X56650349Y-129642614D01*
X56419927Y-129554624D01*
X56355731Y-129541563D01*
X56178215Y-129505447D01*
X56178216Y-129505447D01*
X56137132Y-129503940D01*
X55931722Y-129496408D01*
X55931720Y-129496408D01*
X55931717Y-129496408D01*
X55687062Y-129527750D01*
X55450815Y-129598627D01*
X55450813Y-129598628D01*
X55229302Y-129707144D01*
X55028500Y-129850374D01*
X55028493Y-129850380D01*
X54853777Y-130024487D01*
X54853773Y-130024492D01*
X54709843Y-130224791D01*
X54709840Y-130224797D01*
X54600555Y-130445918D01*
X54600554Y-130445923D01*
X54528850Y-130681928D01*
X54496657Y-130926459D01*
X54496656Y-130926480D01*
X54494858Y-130999995D01*
X50250500Y-130999995D01*
X50250500Y-104999994D01*
X51744556Y-104999994D01*
X51744556Y-105000005D01*
X51764310Y-105314004D01*
X51764311Y-105314011D01*
X51823270Y-105623083D01*
X51920497Y-105922316D01*
X51920499Y-105922321D01*
X52054461Y-106207003D01*
X52054464Y-106207009D01*
X52223051Y-106472661D01*
X52223054Y-106472665D01*
X52423606Y-106715090D01*
X52423608Y-106715092D01*
X52652968Y-106930476D01*
X52652978Y-106930484D01*
X52907504Y-107115408D01*
X52907509Y-107115410D01*
X52907516Y-107115416D01*
X53183234Y-107266994D01*
X53183239Y-107266996D01*
X53183241Y-107266997D01*
X53183242Y-107266998D01*
X53475771Y-107382818D01*
X53475774Y-107382819D01*
X53780523Y-107461065D01*
X53780527Y-107461066D01*
X53846010Y-107469338D01*
X54092670Y-107500499D01*
X54092679Y-107500499D01*
X54092682Y-107500500D01*
X54092684Y-107500500D01*
X54407316Y-107500500D01*
X54407318Y-107500500D01*
X54407321Y-107500499D01*
X54407329Y-107500499D01*
X54593593Y-107476968D01*
X54719473Y-107461066D01*
X55024225Y-107382819D01*
X55024228Y-107382818D01*
X55316757Y-107266998D01*
X55316758Y-107266997D01*
X55316756Y-107266997D01*
X55316766Y-107266994D01*
X55592484Y-107115416D01*
X55847030Y-106930478D01*
X56076390Y-106715094D01*
X56276947Y-106472663D01*
X56445537Y-106207007D01*
X56579503Y-105922315D01*
X56676731Y-105623079D01*
X56735688Y-105314015D01*
X56755444Y-105000000D01*
X56739681Y-104749456D01*
X56735689Y-104685995D01*
X56735688Y-104685988D01*
X56735688Y-104685985D01*
X56676731Y-104376921D01*
X56579503Y-104077685D01*
X56445537Y-103792993D01*
X56410414Y-103737648D01*
X56276948Y-103527338D01*
X56276945Y-103527334D01*
X56076393Y-103284909D01*
X56076391Y-103284907D01*
X56004913Y-103217784D01*
X55847030Y-103069522D01*
X55847027Y-103069520D01*
X55847021Y-103069515D01*
X55592495Y-102884591D01*
X55592488Y-102884586D01*
X55592484Y-102884584D01*
X55316766Y-102733006D01*
X55316763Y-102733004D01*
X55316758Y-102733002D01*
X55316757Y-102733001D01*
X55024228Y-102617181D01*
X55024225Y-102617180D01*
X54719476Y-102538934D01*
X54719463Y-102538932D01*
X54407329Y-102499500D01*
X54407318Y-102499500D01*
X54092682Y-102499500D01*
X54092670Y-102499500D01*
X53780536Y-102538932D01*
X53780523Y-102538934D01*
X53475774Y-102617180D01*
X53475771Y-102617181D01*
X53183242Y-102733001D01*
X53183241Y-102733002D01*
X52907516Y-102884584D01*
X52907504Y-102884591D01*
X52652978Y-103069515D01*
X52652968Y-103069523D01*
X52423608Y-103284907D01*
X52423606Y-103284909D01*
X52223054Y-103527334D01*
X52223051Y-103527338D01*
X52054464Y-103792990D01*
X52054461Y-103792996D01*
X51920499Y-104077678D01*
X51920497Y-104077683D01*
X51823270Y-104376916D01*
X51764311Y-104685988D01*
X51764310Y-104685995D01*
X51744556Y-104999994D01*
X50250500Y-104999994D01*
X50250500Y-95011230D01*
X50270185Y-94944191D01*
X50322989Y-94898436D01*
X50392147Y-94888492D01*
X50455703Y-94917517D01*
G37*
G04 #@! TD.AperFunction*
M02*
