G04 #@! TF.GenerationSoftware,KiCad,Pcbnew,8.0.5*
G04 #@! TF.CreationDate,2024-11-24T11:21:00+01:00*
G04 #@! TF.ProjectId,kicks,6b69636b-732e-46b6-9963-61645f706362,rev?*
G04 #@! TF.SameCoordinates,Original*
G04 #@! TF.FileFunction,Legend,Bot*
G04 #@! TF.FilePolarity,Positive*
%FSLAX46Y46*%
G04 Gerber Fmt 4.6, Leading zero omitted, Abs format (unit mm)*
G04 Created by KiCad (PCBNEW 8.0.5) date 2024-11-24 11:21:00*
%MOMM*%
%LPD*%
G01*
G04 APERTURE LIST*
G04 Aperture macros list*
%AMRoundRect*
0 Rectangle with rounded corners*
0 $1 Rounding radius*
0 $2 $3 $4 $5 $6 $7 $8 $9 X,Y pos of 4 corners*
0 Add a 4 corners polygon primitive as box body*
4,1,4,$2,$3,$4,$5,$6,$7,$8,$9,$2,$3,0*
0 Add four circle primitives for the rounded corners*
1,1,$1+$1,$2,$3*
1,1,$1+$1,$4,$5*
1,1,$1+$1,$6,$7*
1,1,$1+$1,$8,$9*
0 Add four rect primitives between the rounded corners*
20,1,$1+$1,$2,$3,$4,$5,0*
20,1,$1+$1,$4,$5,$6,$7,0*
20,1,$1+$1,$6,$7,$8,$9,0*
20,1,$1+$1,$8,$9,$2,$3,0*%
G04 Aperture macros list end*
%ADD10C,0.150000*%
%ADD11C,0.100000*%
%ADD12C,0.120000*%
%ADD13C,0.000000*%
%ADD14C,1.000000*%
%ADD15R,1.930000X1.830000*%
%ADD16C,2.130000*%
%ADD17O,4.000000X4.000000*%
%ADD18R,1.800000X1.800000*%
%ADD19C,1.800000*%
%ADD20R,1.200000X1.200000*%
%ADD21C,1.200000*%
%ADD22RoundRect,0.250000X0.350000X0.450000X-0.350000X0.450000X-0.350000X-0.450000X0.350000X-0.450000X0*%
%ADD23C,2.000000*%
%ADD24RoundRect,0.250000X-0.450000X0.350000X-0.450000X-0.350000X0.450000X-0.350000X0.450000X0.350000X0*%
%ADD25RoundRect,0.250000X-0.350000X-0.450000X0.350000X-0.450000X0.350000X0.450000X-0.350000X0.450000X0*%
%ADD26RoundRect,0.250000X0.250000X-0.250000X0.250000X0.250000X-0.250000X0.250000X-0.250000X-0.250000X0*%
%ADD27RoundRect,0.250000X-0.250000X0.250000X-0.250000X-0.250000X0.250000X-0.250000X0.250000X0.250000X0*%
%ADD28R,1.600000X1.600000*%
%ADD29C,1.600000*%
%ADD30RoundRect,0.250000X-0.337500X-0.475000X0.337500X-0.475000X0.337500X0.475000X-0.337500X0.475000X0*%
%ADD31RoundRect,0.250000X0.337500X0.475000X-0.337500X0.475000X-0.337500X-0.475000X0.337500X-0.475000X0*%
%ADD32RoundRect,0.250000X-0.475000X0.337500X-0.475000X-0.337500X0.475000X-0.337500X0.475000X0.337500X0*%
%ADD33RoundRect,0.150000X-0.150000X0.587500X-0.150000X-0.587500X0.150000X-0.587500X0.150000X0.587500X0*%
%ADD34RoundRect,0.250000X0.250000X0.250000X-0.250000X0.250000X-0.250000X-0.250000X0.250000X-0.250000X0*%
%ADD35RoundRect,0.250000X0.450000X-0.350000X0.450000X0.350000X-0.450000X0.350000X-0.450000X-0.350000X0*%
%ADD36RoundRect,0.150000X-0.587500X-0.150000X0.587500X-0.150000X0.587500X0.150000X-0.587500X0.150000X0*%
%ADD37RoundRect,0.250000X-0.250000X-0.250000X0.250000X-0.250000X0.250000X0.250000X-0.250000X0.250000X0*%
%ADD38RoundRect,0.150000X0.825000X0.150000X-0.825000X0.150000X-0.825000X-0.150000X0.825000X-0.150000X0*%
%ADD39RoundRect,0.250000X-0.600000X-0.600000X0.600000X-0.600000X0.600000X0.600000X-0.600000X0.600000X0*%
%ADD40C,1.700000*%
%ADD41RoundRect,0.150000X0.587500X0.150000X-0.587500X0.150000X-0.587500X-0.150000X0.587500X-0.150000X0*%
G04 APERTURE END LIST*
D10*
G36*
X76124703Y-72504584D02*
G01*
X75998674Y-72504584D01*
X75998674Y-75410586D01*
X75899950Y-75295210D01*
X75772386Y-75184148D01*
X75627408Y-75095899D01*
X75486035Y-75036390D01*
X75326029Y-74990000D01*
X75442464Y-74892112D01*
X75452058Y-74822205D01*
X75452058Y-72602037D01*
X74578646Y-74990000D01*
X73944103Y-74990000D01*
X73070690Y-72602037D01*
X73070690Y-74822205D01*
X73125609Y-74962926D01*
X73196720Y-74990000D01*
X73036718Y-75036390D01*
X72895379Y-75095899D01*
X72750515Y-75184148D01*
X72623191Y-75295210D01*
X72524808Y-75410586D01*
X72524808Y-72504584D01*
X72398778Y-72504584D01*
X72398778Y-72042965D01*
X72524808Y-72042965D01*
X72524808Y-71623112D01*
X72622501Y-71744573D01*
X72729226Y-71853844D01*
X72848606Y-71944142D01*
X72984263Y-72008687D01*
X73139819Y-72040697D01*
X73196720Y-72042965D01*
X73356454Y-72042965D01*
X74263572Y-74452909D01*
X75167027Y-72042965D01*
X75326029Y-72042965D01*
X75489300Y-72023307D01*
X75631272Y-71968854D01*
X75755681Y-71886386D01*
X75866267Y-71782686D01*
X75966768Y-71664535D01*
X75998674Y-71623112D01*
X75998674Y-72042965D01*
X76124703Y-72042965D01*
X76124703Y-72504584D01*
G37*
G36*
X70298778Y-72879741D02*
G01*
X70844661Y-72879741D01*
X70844661Y-74528381D01*
X71307013Y-74528381D01*
X71459402Y-74490273D01*
X71548054Y-74365731D01*
X71559071Y-74274856D01*
X71559071Y-72879741D01*
X72104954Y-72879741D01*
X72104954Y-74274856D01*
X72091689Y-74444642D01*
X72053102Y-74590926D01*
X71972019Y-74741137D01*
X71857740Y-74855562D01*
X71713804Y-74934722D01*
X71543748Y-74979136D01*
X71391277Y-74990000D01*
X70844661Y-74990000D01*
X70844661Y-75410586D01*
X70746277Y-75295210D01*
X70618953Y-75184148D01*
X70474089Y-75095899D01*
X70332751Y-75036390D01*
X70172749Y-74990000D01*
X70289184Y-74892421D01*
X70298778Y-74822205D01*
X70298778Y-72879741D01*
G37*
G36*
X69892509Y-72978426D02*
G01*
X69781448Y-73105635D01*
X69693198Y-73249576D01*
X69633689Y-73389235D01*
X69587299Y-73546524D01*
X69489411Y-73435550D01*
X69419504Y-73426357D01*
X68621563Y-73426357D01*
X68621563Y-73590488D01*
X69251709Y-73590488D01*
X69404181Y-73601369D01*
X69574237Y-73645961D01*
X69718173Y-73725662D01*
X69832452Y-73841191D01*
X69913535Y-73993271D01*
X69952122Y-74141736D01*
X69965387Y-74314424D01*
X69965387Y-74822205D01*
X70020306Y-74963119D01*
X70091416Y-74990000D01*
X69931414Y-75036390D01*
X69790076Y-75095899D01*
X69645212Y-75184148D01*
X69517888Y-75295210D01*
X69419504Y-75410586D01*
X69419504Y-74990000D01*
X68747592Y-74990000D01*
X68584597Y-75009725D01*
X68442710Y-75064343D01*
X68318307Y-75147013D01*
X68207766Y-75250897D01*
X68107464Y-75369154D01*
X68075680Y-75410586D01*
X68075680Y-74528381D01*
X68621563Y-74528381D01*
X69419504Y-74528381D01*
X69419504Y-74314424D01*
X69389822Y-74170465D01*
X69278325Y-74070690D01*
X69167445Y-74052107D01*
X68621563Y-74052107D01*
X68621563Y-74528381D01*
X68075680Y-74528381D01*
X68075680Y-72879741D01*
X70007885Y-72879741D01*
X69892509Y-72978426D01*
G37*
G36*
X65934647Y-72879741D02*
G01*
X66480530Y-72879741D01*
X66480530Y-74427264D01*
X66942882Y-74427264D01*
X67095271Y-74389568D01*
X67183923Y-74266459D01*
X67194940Y-74176671D01*
X67194940Y-72879741D01*
X67740823Y-72879741D01*
X67740823Y-74176671D01*
X67727558Y-74345731D01*
X67688971Y-74491469D01*
X67607888Y-74641213D01*
X67493609Y-74755363D01*
X67349673Y-74834387D01*
X67179617Y-74878756D01*
X67027145Y-74889616D01*
X66480530Y-74889616D01*
X66480530Y-75475799D01*
X67194940Y-75475799D01*
X67335661Y-75421381D01*
X67362735Y-75350502D01*
X67409126Y-75510164D01*
X67468634Y-75651288D01*
X67556884Y-75796023D01*
X67667945Y-75923302D01*
X67783321Y-76021681D01*
X65934647Y-76021681D01*
X65934647Y-72879741D01*
G37*
G36*
X64704396Y-72052491D02*
G01*
X64704396Y-72598374D01*
X63734263Y-72598374D01*
X63734263Y-75412784D01*
X63635879Y-75297413D01*
X63508555Y-75186396D01*
X63363692Y-75098276D01*
X63222353Y-75038981D01*
X63062351Y-74992930D01*
X63178683Y-74894939D01*
X63188381Y-74825136D01*
X63188381Y-72598374D01*
X62545778Y-72598374D01*
X62404684Y-72653292D01*
X62377250Y-72724403D01*
X62331199Y-72564736D01*
X62271905Y-72423578D01*
X62183785Y-72278729D01*
X62072768Y-72151209D01*
X61957397Y-72052491D01*
X63062351Y-72052491D01*
X63225346Y-72032833D01*
X63367234Y-71978379D01*
X63491637Y-71895912D01*
X63602178Y-71792212D01*
X63702479Y-71674060D01*
X63734263Y-71632637D01*
X63734263Y-72052491D01*
X64704396Y-72052491D01*
G37*
G36*
X61750034Y-75400327D02*
G01*
X61651651Y-75284957D01*
X61524327Y-75173939D01*
X61379463Y-75085819D01*
X61238124Y-75026525D01*
X61078122Y-74980474D01*
X61194454Y-74882174D01*
X61204152Y-74811946D01*
X61204152Y-73342093D01*
X60741800Y-73342093D01*
X60589726Y-73380102D01*
X60500821Y-73503956D01*
X60489741Y-73594152D01*
X60489741Y-75400327D01*
X60391357Y-75284957D01*
X60264033Y-75173939D01*
X60119170Y-75085819D01*
X59977831Y-75026525D01*
X59817829Y-74980474D01*
X59934264Y-74882174D01*
X59943859Y-74811946D01*
X59943859Y-73594152D01*
X59957155Y-73424818D01*
X59995825Y-73278815D01*
X60077058Y-73128765D01*
X60191507Y-73014354D01*
X60335600Y-72935127D01*
X60505765Y-72890633D01*
X60658269Y-72879741D01*
X61204152Y-72879741D01*
X61204152Y-71829741D01*
X61750034Y-71829741D01*
X61750034Y-75400327D01*
G37*
G36*
X59537590Y-72978426D02*
G01*
X59426528Y-73105635D01*
X59338278Y-73249576D01*
X59278770Y-73389235D01*
X59232379Y-73546524D01*
X59134491Y-73435550D01*
X59064584Y-73426357D01*
X58266643Y-73426357D01*
X58266643Y-73590488D01*
X58896789Y-73590488D01*
X59049261Y-73601369D01*
X59219317Y-73645961D01*
X59363253Y-73725662D01*
X59477532Y-73841191D01*
X59558615Y-73993271D01*
X59597202Y-74141736D01*
X59610467Y-74314424D01*
X59610467Y-74822205D01*
X59665386Y-74963119D01*
X59736496Y-74990000D01*
X59576495Y-75036390D01*
X59435156Y-75095899D01*
X59290292Y-75184148D01*
X59162968Y-75295210D01*
X59064584Y-75410586D01*
X59064584Y-74990000D01*
X58392672Y-74990000D01*
X58229678Y-75009725D01*
X58087790Y-75064343D01*
X57963387Y-75147013D01*
X57852846Y-75250897D01*
X57752545Y-75369154D01*
X57720760Y-75410586D01*
X57720760Y-74528381D01*
X58266643Y-74528381D01*
X59064584Y-74528381D01*
X59064584Y-74314424D01*
X59034902Y-74170465D01*
X58923405Y-74070690D01*
X58812526Y-74052107D01*
X58266643Y-74052107D01*
X58266643Y-74528381D01*
X57720760Y-74528381D01*
X57720760Y-72879741D01*
X59652965Y-72879741D01*
X59537590Y-72978426D01*
G37*
G36*
X56840020Y-72676043D02*
G01*
X56840020Y-72129427D01*
X57385903Y-72129427D01*
X57385903Y-72676043D01*
X56840020Y-72676043D01*
G37*
G36*
X56831960Y-72879741D02*
G01*
X57377843Y-72879741D01*
X57377843Y-75400327D01*
X57279124Y-75284957D01*
X57151605Y-75173939D01*
X57006756Y-75085819D01*
X56865598Y-75026525D01*
X56705931Y-74980474D01*
X56822263Y-74882174D01*
X56831960Y-74811946D01*
X56831960Y-72879741D01*
G37*
X58389411Y-68167438D02*
X58484649Y-68119819D01*
X58484649Y-68119819D02*
X58627506Y-68119819D01*
X58627506Y-68119819D02*
X58770363Y-68167438D01*
X58770363Y-68167438D02*
X58865601Y-68262676D01*
X58865601Y-68262676D02*
X58913220Y-68357914D01*
X58913220Y-68357914D02*
X58960839Y-68548390D01*
X58960839Y-68548390D02*
X58960839Y-68691247D01*
X58960839Y-68691247D02*
X58913220Y-68881723D01*
X58913220Y-68881723D02*
X58865601Y-68976961D01*
X58865601Y-68976961D02*
X58770363Y-69072200D01*
X58770363Y-69072200D02*
X58627506Y-69119819D01*
X58627506Y-69119819D02*
X58532268Y-69119819D01*
X58532268Y-69119819D02*
X58389411Y-69072200D01*
X58389411Y-69072200D02*
X58341792Y-69024580D01*
X58341792Y-69024580D02*
X58341792Y-68691247D01*
X58341792Y-68691247D02*
X58532268Y-68691247D01*
X57913220Y-69119819D02*
X57913220Y-68119819D01*
X57913220Y-68119819D02*
X57341792Y-69119819D01*
X57341792Y-69119819D02*
X57341792Y-68119819D01*
X56865601Y-69119819D02*
X56865601Y-68119819D01*
X56865601Y-68119819D02*
X56627506Y-68119819D01*
X56627506Y-68119819D02*
X56484649Y-68167438D01*
X56484649Y-68167438D02*
X56389411Y-68262676D01*
X56389411Y-68262676D02*
X56341792Y-68357914D01*
X56341792Y-68357914D02*
X56294173Y-68548390D01*
X56294173Y-68548390D02*
X56294173Y-68691247D01*
X56294173Y-68691247D02*
X56341792Y-68881723D01*
X56341792Y-68881723D02*
X56389411Y-68976961D01*
X56389411Y-68976961D02*
X56484649Y-69072200D01*
X56484649Y-69072200D02*
X56627506Y-69119819D01*
X56627506Y-69119819D02*
X56865601Y-69119819D01*
X51153990Y-158829887D02*
X51106371Y-158687030D01*
X51106371Y-158687030D02*
X51058752Y-158639411D01*
X51058752Y-158639411D02*
X50963514Y-158591792D01*
X50963514Y-158591792D02*
X50820657Y-158591792D01*
X50820657Y-158591792D02*
X50725419Y-158639411D01*
X50725419Y-158639411D02*
X50677800Y-158687030D01*
X50677800Y-158687030D02*
X50630180Y-158782268D01*
X50630180Y-158782268D02*
X50630180Y-159163220D01*
X50630180Y-159163220D02*
X51630180Y-159163220D01*
X51630180Y-159163220D02*
X51630180Y-158829887D01*
X51630180Y-158829887D02*
X51582561Y-158734649D01*
X51582561Y-158734649D02*
X51534942Y-158687030D01*
X51534942Y-158687030D02*
X51439704Y-158639411D01*
X51439704Y-158639411D02*
X51344466Y-158639411D01*
X51344466Y-158639411D02*
X51249228Y-158687030D01*
X51249228Y-158687030D02*
X51201609Y-158734649D01*
X51201609Y-158734649D02*
X51153990Y-158829887D01*
X51153990Y-158829887D02*
X51153990Y-159163220D01*
X50630180Y-157734649D02*
X51153990Y-157734649D01*
X51153990Y-157734649D02*
X51249228Y-157782268D01*
X51249228Y-157782268D02*
X51296847Y-157877506D01*
X51296847Y-157877506D02*
X51296847Y-158067982D01*
X51296847Y-158067982D02*
X51249228Y-158163220D01*
X50677800Y-157734649D02*
X50630180Y-157829887D01*
X50630180Y-157829887D02*
X50630180Y-158067982D01*
X50630180Y-158067982D02*
X50677800Y-158163220D01*
X50677800Y-158163220D02*
X50773038Y-158210839D01*
X50773038Y-158210839D02*
X50868276Y-158210839D01*
X50868276Y-158210839D02*
X50963514Y-158163220D01*
X50963514Y-158163220D02*
X51011133Y-158067982D01*
X51011133Y-158067982D02*
X51011133Y-157829887D01*
X51011133Y-157829887D02*
X51058752Y-157734649D01*
X50677800Y-157306077D02*
X50630180Y-157210839D01*
X50630180Y-157210839D02*
X50630180Y-157020363D01*
X50630180Y-157020363D02*
X50677800Y-156925125D01*
X50677800Y-156925125D02*
X50773038Y-156877506D01*
X50773038Y-156877506D02*
X50820657Y-156877506D01*
X50820657Y-156877506D02*
X50915895Y-156925125D01*
X50915895Y-156925125D02*
X50963514Y-157020363D01*
X50963514Y-157020363D02*
X50963514Y-157163220D01*
X50963514Y-157163220D02*
X51011133Y-157258458D01*
X51011133Y-157258458D02*
X51106371Y-157306077D01*
X51106371Y-157306077D02*
X51153990Y-157306077D01*
X51153990Y-157306077D02*
X51249228Y-157258458D01*
X51249228Y-157258458D02*
X51296847Y-157163220D01*
X51296847Y-157163220D02*
X51296847Y-157020363D01*
X51296847Y-157020363D02*
X51249228Y-156925125D01*
X50677800Y-156067982D02*
X50630180Y-156163220D01*
X50630180Y-156163220D02*
X50630180Y-156353696D01*
X50630180Y-156353696D02*
X50677800Y-156448934D01*
X50677800Y-156448934D02*
X50773038Y-156496553D01*
X50773038Y-156496553D02*
X51153990Y-156496553D01*
X51153990Y-156496553D02*
X51249228Y-156448934D01*
X51249228Y-156448934D02*
X51296847Y-156353696D01*
X51296847Y-156353696D02*
X51296847Y-156163220D01*
X51296847Y-156163220D02*
X51249228Y-156067982D01*
X51249228Y-156067982D02*
X51153990Y-156020363D01*
X51153990Y-156020363D02*
X51058752Y-156020363D01*
X51058752Y-156020363D02*
X50963514Y-156496553D01*
X50630180Y-155163220D02*
X51630180Y-155163220D01*
X50677800Y-155163220D02*
X50630180Y-155258458D01*
X50630180Y-155258458D02*
X50630180Y-155448934D01*
X50630180Y-155448934D02*
X50677800Y-155544172D01*
X50677800Y-155544172D02*
X50725419Y-155591791D01*
X50725419Y-155591791D02*
X50820657Y-155639410D01*
X50820657Y-155639410D02*
X51106371Y-155639410D01*
X51106371Y-155639410D02*
X51201609Y-155591791D01*
X51201609Y-155591791D02*
X51249228Y-155544172D01*
X51249228Y-155544172D02*
X51296847Y-155448934D01*
X51296847Y-155448934D02*
X51296847Y-155258458D01*
X51296847Y-155258458D02*
X51249228Y-155163220D01*
X50630180Y-153782267D02*
X50677800Y-153877505D01*
X50677800Y-153877505D02*
X50725419Y-153925124D01*
X50725419Y-153925124D02*
X50820657Y-153972743D01*
X50820657Y-153972743D02*
X51106371Y-153972743D01*
X51106371Y-153972743D02*
X51201609Y-153925124D01*
X51201609Y-153925124D02*
X51249228Y-153877505D01*
X51249228Y-153877505D02*
X51296847Y-153782267D01*
X51296847Y-153782267D02*
X51296847Y-153639410D01*
X51296847Y-153639410D02*
X51249228Y-153544172D01*
X51249228Y-153544172D02*
X51201609Y-153496553D01*
X51201609Y-153496553D02*
X51106371Y-153448934D01*
X51106371Y-153448934D02*
X50820657Y-153448934D01*
X50820657Y-153448934D02*
X50725419Y-153496553D01*
X50725419Y-153496553D02*
X50677800Y-153544172D01*
X50677800Y-153544172D02*
X50630180Y-153639410D01*
X50630180Y-153639410D02*
X50630180Y-153782267D01*
X51296847Y-153020362D02*
X50630180Y-153020362D01*
X51201609Y-153020362D02*
X51249228Y-152972743D01*
X51249228Y-152972743D02*
X51296847Y-152877505D01*
X51296847Y-152877505D02*
X51296847Y-152734648D01*
X51296847Y-152734648D02*
X51249228Y-152639410D01*
X51249228Y-152639410D02*
X51153990Y-152591791D01*
X51153990Y-152591791D02*
X50630180Y-152591791D01*
X50677800Y-151401314D02*
X50630180Y-151306076D01*
X50630180Y-151306076D02*
X50630180Y-151115600D01*
X50630180Y-151115600D02*
X50677800Y-151020362D01*
X50677800Y-151020362D02*
X50773038Y-150972743D01*
X50773038Y-150972743D02*
X50820657Y-150972743D01*
X50820657Y-150972743D02*
X50915895Y-151020362D01*
X50915895Y-151020362D02*
X50963514Y-151115600D01*
X50963514Y-151115600D02*
X50963514Y-151258457D01*
X50963514Y-151258457D02*
X51011133Y-151353695D01*
X51011133Y-151353695D02*
X51106371Y-151401314D01*
X51106371Y-151401314D02*
X51153990Y-151401314D01*
X51153990Y-151401314D02*
X51249228Y-151353695D01*
X51249228Y-151353695D02*
X51296847Y-151258457D01*
X51296847Y-151258457D02*
X51296847Y-151115600D01*
X51296847Y-151115600D02*
X51249228Y-151020362D01*
X50677800Y-150115600D02*
X50630180Y-150210838D01*
X50630180Y-150210838D02*
X50630180Y-150401314D01*
X50630180Y-150401314D02*
X50677800Y-150496552D01*
X50677800Y-150496552D02*
X50725419Y-150544171D01*
X50725419Y-150544171D02*
X50820657Y-150591790D01*
X50820657Y-150591790D02*
X51106371Y-150591790D01*
X51106371Y-150591790D02*
X51201609Y-150544171D01*
X51201609Y-150544171D02*
X51249228Y-150496552D01*
X51249228Y-150496552D02*
X51296847Y-150401314D01*
X51296847Y-150401314D02*
X51296847Y-150210838D01*
X51296847Y-150210838D02*
X51249228Y-150115600D01*
X50630180Y-149687028D02*
X51630180Y-149687028D01*
X50630180Y-149258457D02*
X51153990Y-149258457D01*
X51153990Y-149258457D02*
X51249228Y-149306076D01*
X51249228Y-149306076D02*
X51296847Y-149401314D01*
X51296847Y-149401314D02*
X51296847Y-149544171D01*
X51296847Y-149544171D02*
X51249228Y-149639409D01*
X51249228Y-149639409D02*
X51201609Y-149687028D01*
X50677800Y-148401314D02*
X50630180Y-148496552D01*
X50630180Y-148496552D02*
X50630180Y-148687028D01*
X50630180Y-148687028D02*
X50677800Y-148782266D01*
X50677800Y-148782266D02*
X50773038Y-148829885D01*
X50773038Y-148829885D02*
X51153990Y-148829885D01*
X51153990Y-148829885D02*
X51249228Y-148782266D01*
X51249228Y-148782266D02*
X51296847Y-148687028D01*
X51296847Y-148687028D02*
X51296847Y-148496552D01*
X51296847Y-148496552D02*
X51249228Y-148401314D01*
X51249228Y-148401314D02*
X51153990Y-148353695D01*
X51153990Y-148353695D02*
X51058752Y-148353695D01*
X51058752Y-148353695D02*
X50963514Y-148829885D01*
X50630180Y-147925123D02*
X51296847Y-147925123D01*
X51201609Y-147925123D02*
X51249228Y-147877504D01*
X51249228Y-147877504D02*
X51296847Y-147782266D01*
X51296847Y-147782266D02*
X51296847Y-147639409D01*
X51296847Y-147639409D02*
X51249228Y-147544171D01*
X51249228Y-147544171D02*
X51153990Y-147496552D01*
X51153990Y-147496552D02*
X50630180Y-147496552D01*
X51153990Y-147496552D02*
X51249228Y-147448933D01*
X51249228Y-147448933D02*
X51296847Y-147353695D01*
X51296847Y-147353695D02*
X51296847Y-147210838D01*
X51296847Y-147210838D02*
X51249228Y-147115599D01*
X51249228Y-147115599D02*
X51153990Y-147067980D01*
X51153990Y-147067980D02*
X50630180Y-147067980D01*
X50630180Y-146163219D02*
X51153990Y-146163219D01*
X51153990Y-146163219D02*
X51249228Y-146210838D01*
X51249228Y-146210838D02*
X51296847Y-146306076D01*
X51296847Y-146306076D02*
X51296847Y-146496552D01*
X51296847Y-146496552D02*
X51249228Y-146591790D01*
X50677800Y-146163219D02*
X50630180Y-146258457D01*
X50630180Y-146258457D02*
X50630180Y-146496552D01*
X50630180Y-146496552D02*
X50677800Y-146591790D01*
X50677800Y-146591790D02*
X50773038Y-146639409D01*
X50773038Y-146639409D02*
X50868276Y-146639409D01*
X50868276Y-146639409D02*
X50963514Y-146591790D01*
X50963514Y-146591790D02*
X51011133Y-146496552D01*
X51011133Y-146496552D02*
X51011133Y-146258457D01*
X51011133Y-146258457D02*
X51058752Y-146163219D01*
X51296847Y-145829885D02*
X51296847Y-145448933D01*
X51630180Y-145687028D02*
X50773038Y-145687028D01*
X50773038Y-145687028D02*
X50677800Y-145639409D01*
X50677800Y-145639409D02*
X50630180Y-145544171D01*
X50630180Y-145544171D02*
X50630180Y-145448933D01*
X50630180Y-145115599D02*
X51296847Y-145115599D01*
X51630180Y-145115599D02*
X51582561Y-145163218D01*
X51582561Y-145163218D02*
X51534942Y-145115599D01*
X51534942Y-145115599D02*
X51582561Y-145067980D01*
X51582561Y-145067980D02*
X51630180Y-145115599D01*
X51630180Y-145115599D02*
X51534942Y-145115599D01*
X50677800Y-144210838D02*
X50630180Y-144306076D01*
X50630180Y-144306076D02*
X50630180Y-144496552D01*
X50630180Y-144496552D02*
X50677800Y-144591790D01*
X50677800Y-144591790D02*
X50725419Y-144639409D01*
X50725419Y-144639409D02*
X50820657Y-144687028D01*
X50820657Y-144687028D02*
X51106371Y-144687028D01*
X51106371Y-144687028D02*
X51201609Y-144639409D01*
X51201609Y-144639409D02*
X51249228Y-144591790D01*
X51249228Y-144591790D02*
X51296847Y-144496552D01*
X51296847Y-144496552D02*
X51296847Y-144306076D01*
X51296847Y-144306076D02*
X51249228Y-144210838D01*
X50677800Y-143829885D02*
X50630180Y-143734647D01*
X50630180Y-143734647D02*
X50630180Y-143544171D01*
X50630180Y-143544171D02*
X50677800Y-143448933D01*
X50677800Y-143448933D02*
X50773038Y-143401314D01*
X50773038Y-143401314D02*
X50820657Y-143401314D01*
X50820657Y-143401314D02*
X50915895Y-143448933D01*
X50915895Y-143448933D02*
X50963514Y-143544171D01*
X50963514Y-143544171D02*
X50963514Y-143687028D01*
X50963514Y-143687028D02*
X51011133Y-143782266D01*
X51011133Y-143782266D02*
X51106371Y-143829885D01*
X51106371Y-143829885D02*
X51153990Y-143829885D01*
X51153990Y-143829885D02*
X51249228Y-143782266D01*
X51249228Y-143782266D02*
X51296847Y-143687028D01*
X51296847Y-143687028D02*
X51296847Y-143544171D01*
X51296847Y-143544171D02*
X51249228Y-143448933D01*
X50630180Y-142210837D02*
X51630180Y-142210837D01*
X51249228Y-142210837D02*
X51296847Y-142115599D01*
X51296847Y-142115599D02*
X51296847Y-141925123D01*
X51296847Y-141925123D02*
X51249228Y-141829885D01*
X51249228Y-141829885D02*
X51201609Y-141782266D01*
X51201609Y-141782266D02*
X51106371Y-141734647D01*
X51106371Y-141734647D02*
X50820657Y-141734647D01*
X50820657Y-141734647D02*
X50725419Y-141782266D01*
X50725419Y-141782266D02*
X50677800Y-141829885D01*
X50677800Y-141829885D02*
X50630180Y-141925123D01*
X50630180Y-141925123D02*
X50630180Y-142115599D01*
X50630180Y-142115599D02*
X50677800Y-142210837D01*
X51296847Y-141401313D02*
X50630180Y-141163218D01*
X51296847Y-140925123D02*
X50630180Y-141163218D01*
X50630180Y-141163218D02*
X50392085Y-141258456D01*
X50392085Y-141258456D02*
X50344466Y-141306075D01*
X50344466Y-141306075D02*
X50296847Y-141401313D01*
X50630180Y-139782265D02*
X51630180Y-139782265D01*
X51630180Y-139782265D02*
X50915895Y-139448932D01*
X50915895Y-139448932D02*
X51630180Y-139115599D01*
X51630180Y-139115599D02*
X50630180Y-139115599D01*
X50630180Y-138639408D02*
X51630180Y-138639408D01*
X50630180Y-138067980D02*
X51201609Y-138496551D01*
X51630180Y-138067980D02*
X51058752Y-138639408D01*
X50630180Y-137639408D02*
X51630180Y-137639408D01*
X72096554Y-70937152D02*
X72172744Y-70899057D01*
X72172744Y-70899057D02*
X72210839Y-70860961D01*
X72210839Y-70860961D02*
X72248935Y-70784771D01*
X72248935Y-70784771D02*
X72248935Y-70746676D01*
X72248935Y-70746676D02*
X72210839Y-70670485D01*
X72210839Y-70670485D02*
X72172744Y-70632390D01*
X72172744Y-70632390D02*
X72096554Y-70594295D01*
X72096554Y-70594295D02*
X71944173Y-70594295D01*
X71944173Y-70594295D02*
X71867982Y-70632390D01*
X71867982Y-70632390D02*
X71829887Y-70670485D01*
X71829887Y-70670485D02*
X71791792Y-70746676D01*
X71791792Y-70746676D02*
X71791792Y-70784771D01*
X71791792Y-70784771D02*
X71829887Y-70860961D01*
X71829887Y-70860961D02*
X71867982Y-70899057D01*
X71867982Y-70899057D02*
X71944173Y-70937152D01*
X71944173Y-70937152D02*
X72096554Y-70937152D01*
X72096554Y-70937152D02*
X72172744Y-70975247D01*
X72172744Y-70975247D02*
X72210839Y-71013342D01*
X72210839Y-71013342D02*
X72248935Y-71089533D01*
X72248935Y-71089533D02*
X72248935Y-71241914D01*
X72248935Y-71241914D02*
X72210839Y-71318104D01*
X72210839Y-71318104D02*
X72172744Y-71356200D01*
X72172744Y-71356200D02*
X72096554Y-71394295D01*
X72096554Y-71394295D02*
X71944173Y-71394295D01*
X71944173Y-71394295D02*
X71867982Y-71356200D01*
X71867982Y-71356200D02*
X71829887Y-71318104D01*
X71829887Y-71318104D02*
X71791792Y-71241914D01*
X71791792Y-71241914D02*
X71791792Y-71089533D01*
X71791792Y-71089533D02*
X71829887Y-71013342D01*
X71829887Y-71013342D02*
X71867982Y-70975247D01*
X71867982Y-70975247D02*
X71944173Y-70937152D01*
X71296553Y-70594295D02*
X71220363Y-70594295D01*
X71220363Y-70594295D02*
X71144172Y-70632390D01*
X71144172Y-70632390D02*
X71106077Y-70670485D01*
X71106077Y-70670485D02*
X71067982Y-70746676D01*
X71067982Y-70746676D02*
X71029887Y-70899057D01*
X71029887Y-70899057D02*
X71029887Y-71089533D01*
X71029887Y-71089533D02*
X71067982Y-71241914D01*
X71067982Y-71241914D02*
X71106077Y-71318104D01*
X71106077Y-71318104D02*
X71144172Y-71356200D01*
X71144172Y-71356200D02*
X71220363Y-71394295D01*
X71220363Y-71394295D02*
X71296553Y-71394295D01*
X71296553Y-71394295D02*
X71372744Y-71356200D01*
X71372744Y-71356200D02*
X71410839Y-71318104D01*
X71410839Y-71318104D02*
X71448934Y-71241914D01*
X71448934Y-71241914D02*
X71487030Y-71089533D01*
X71487030Y-71089533D02*
X71487030Y-70899057D01*
X71487030Y-70899057D02*
X71448934Y-70746676D01*
X71448934Y-70746676D02*
X71410839Y-70670485D01*
X71410839Y-70670485D02*
X71372744Y-70632390D01*
X71372744Y-70632390D02*
X71296553Y-70594295D01*
X70572744Y-70937152D02*
X70648934Y-70899057D01*
X70648934Y-70899057D02*
X70687029Y-70860961D01*
X70687029Y-70860961D02*
X70725125Y-70784771D01*
X70725125Y-70784771D02*
X70725125Y-70746676D01*
X70725125Y-70746676D02*
X70687029Y-70670485D01*
X70687029Y-70670485D02*
X70648934Y-70632390D01*
X70648934Y-70632390D02*
X70572744Y-70594295D01*
X70572744Y-70594295D02*
X70420363Y-70594295D01*
X70420363Y-70594295D02*
X70344172Y-70632390D01*
X70344172Y-70632390D02*
X70306077Y-70670485D01*
X70306077Y-70670485D02*
X70267982Y-70746676D01*
X70267982Y-70746676D02*
X70267982Y-70784771D01*
X70267982Y-70784771D02*
X70306077Y-70860961D01*
X70306077Y-70860961D02*
X70344172Y-70899057D01*
X70344172Y-70899057D02*
X70420363Y-70937152D01*
X70420363Y-70937152D02*
X70572744Y-70937152D01*
X70572744Y-70937152D02*
X70648934Y-70975247D01*
X70648934Y-70975247D02*
X70687029Y-71013342D01*
X70687029Y-71013342D02*
X70725125Y-71089533D01*
X70725125Y-71089533D02*
X70725125Y-71241914D01*
X70725125Y-71241914D02*
X70687029Y-71318104D01*
X70687029Y-71318104D02*
X70648934Y-71356200D01*
X70648934Y-71356200D02*
X70572744Y-71394295D01*
X70572744Y-71394295D02*
X70420363Y-71394295D01*
X70420363Y-71394295D02*
X70344172Y-71356200D01*
X70344172Y-71356200D02*
X70306077Y-71318104D01*
X70306077Y-71318104D02*
X70267982Y-71241914D01*
X70267982Y-71241914D02*
X70267982Y-71089533D01*
X70267982Y-71089533D02*
X70306077Y-71013342D01*
X70306077Y-71013342D02*
X70344172Y-70975247D01*
X70344172Y-70975247D02*
X70420363Y-70937152D01*
X69925124Y-71089533D02*
X69315601Y-71089533D01*
X68972744Y-71356200D02*
X68896553Y-71394295D01*
X68896553Y-71394295D02*
X68744172Y-71394295D01*
X68744172Y-71394295D02*
X68667982Y-71356200D01*
X68667982Y-71356200D02*
X68629886Y-71280009D01*
X68629886Y-71280009D02*
X68629886Y-71241914D01*
X68629886Y-71241914D02*
X68667982Y-71165723D01*
X68667982Y-71165723D02*
X68744172Y-71127628D01*
X68744172Y-71127628D02*
X68858458Y-71127628D01*
X68858458Y-71127628D02*
X68934648Y-71089533D01*
X68934648Y-71089533D02*
X68972744Y-71013342D01*
X68972744Y-71013342D02*
X68972744Y-70975247D01*
X68972744Y-70975247D02*
X68934648Y-70899057D01*
X68934648Y-70899057D02*
X68858458Y-70860961D01*
X68858458Y-70860961D02*
X68744172Y-70860961D01*
X68744172Y-70860961D02*
X68667982Y-70899057D01*
X68401315Y-70860961D02*
X68096553Y-70860961D01*
X68287029Y-70594295D02*
X68287029Y-71280009D01*
X68287029Y-71280009D02*
X68248934Y-71356200D01*
X68248934Y-71356200D02*
X68172744Y-71394295D01*
X68172744Y-71394295D02*
X68096553Y-71394295D01*
X67906077Y-70860961D02*
X67715601Y-71394295D01*
X67525124Y-70860961D02*
X67715601Y-71394295D01*
X67715601Y-71394295D02*
X67791791Y-71584771D01*
X67791791Y-71584771D02*
X67829886Y-71622866D01*
X67829886Y-71622866D02*
X67906077Y-71660961D01*
X67106077Y-71394295D02*
X67182267Y-71356200D01*
X67182267Y-71356200D02*
X67220362Y-71280009D01*
X67220362Y-71280009D02*
X67220362Y-70594295D01*
X66496552Y-71356200D02*
X66572743Y-71394295D01*
X66572743Y-71394295D02*
X66725124Y-71394295D01*
X66725124Y-71394295D02*
X66801314Y-71356200D01*
X66801314Y-71356200D02*
X66839410Y-71280009D01*
X66839410Y-71280009D02*
X66839410Y-70975247D01*
X66839410Y-70975247D02*
X66801314Y-70899057D01*
X66801314Y-70899057D02*
X66725124Y-70860961D01*
X66725124Y-70860961D02*
X66572743Y-70860961D01*
X66572743Y-70860961D02*
X66496552Y-70899057D01*
X66496552Y-70899057D02*
X66458457Y-70975247D01*
X66458457Y-70975247D02*
X66458457Y-71051438D01*
X66458457Y-71051438D02*
X66839410Y-71127628D01*
X88130180Y-99687030D02*
X88130180Y-100163220D01*
X88130180Y-100163220D02*
X89130180Y-100163220D01*
X88653990Y-99353696D02*
X88653990Y-99020363D01*
X88130180Y-98877506D02*
X88130180Y-99353696D01*
X88130180Y-99353696D02*
X89130180Y-99353696D01*
X89130180Y-99353696D02*
X89130180Y-98877506D01*
X88130180Y-98448934D02*
X89130180Y-98448934D01*
X89130180Y-98448934D02*
X88130180Y-97877506D01*
X88130180Y-97877506D02*
X89130180Y-97877506D01*
X88130180Y-97401315D02*
X89130180Y-97401315D01*
X88130180Y-96925125D02*
X89130180Y-96925125D01*
X89130180Y-96925125D02*
X88415895Y-96591792D01*
X88415895Y-96591792D02*
X89130180Y-96258459D01*
X89130180Y-96258459D02*
X88130180Y-96258459D01*
X88415895Y-95829887D02*
X88415895Y-95353697D01*
X88130180Y-95925125D02*
X89130180Y-95591792D01*
X89130180Y-95591792D02*
X88130180Y-95258459D01*
X88130180Y-94448935D02*
X88130180Y-94925125D01*
X88130180Y-94925125D02*
X89130180Y-94925125D01*
X88130180Y-93353696D02*
X89130180Y-93353696D01*
X89130180Y-93353696D02*
X89130180Y-92972744D01*
X89130180Y-92972744D02*
X89082561Y-92877506D01*
X89082561Y-92877506D02*
X89034942Y-92829887D01*
X89034942Y-92829887D02*
X88939704Y-92782268D01*
X88939704Y-92782268D02*
X88796847Y-92782268D01*
X88796847Y-92782268D02*
X88701609Y-92829887D01*
X88701609Y-92829887D02*
X88653990Y-92877506D01*
X88653990Y-92877506D02*
X88606371Y-92972744D01*
X88606371Y-92972744D02*
X88606371Y-93353696D01*
X88225419Y-91782268D02*
X88177800Y-91829887D01*
X88177800Y-91829887D02*
X88130180Y-91972744D01*
X88130180Y-91972744D02*
X88130180Y-92067982D01*
X88130180Y-92067982D02*
X88177800Y-92210839D01*
X88177800Y-92210839D02*
X88273038Y-92306077D01*
X88273038Y-92306077D02*
X88368276Y-92353696D01*
X88368276Y-92353696D02*
X88558752Y-92401315D01*
X88558752Y-92401315D02*
X88701609Y-92401315D01*
X88701609Y-92401315D02*
X88892085Y-92353696D01*
X88892085Y-92353696D02*
X88987323Y-92306077D01*
X88987323Y-92306077D02*
X89082561Y-92210839D01*
X89082561Y-92210839D02*
X89130180Y-92067982D01*
X89130180Y-92067982D02*
X89130180Y-91972744D01*
X89130180Y-91972744D02*
X89082561Y-91829887D01*
X89082561Y-91829887D02*
X89034942Y-91782268D01*
X88653990Y-91020363D02*
X88606371Y-90877506D01*
X88606371Y-90877506D02*
X88558752Y-90829887D01*
X88558752Y-90829887D02*
X88463514Y-90782268D01*
X88463514Y-90782268D02*
X88320657Y-90782268D01*
X88320657Y-90782268D02*
X88225419Y-90829887D01*
X88225419Y-90829887D02*
X88177800Y-90877506D01*
X88177800Y-90877506D02*
X88130180Y-90972744D01*
X88130180Y-90972744D02*
X88130180Y-91353696D01*
X88130180Y-91353696D02*
X89130180Y-91353696D01*
X89130180Y-91353696D02*
X89130180Y-91020363D01*
X89130180Y-91020363D02*
X89082561Y-90925125D01*
X89082561Y-90925125D02*
X89034942Y-90877506D01*
X89034942Y-90877506D02*
X88939704Y-90829887D01*
X88939704Y-90829887D02*
X88844466Y-90829887D01*
X88844466Y-90829887D02*
X88749228Y-90877506D01*
X88749228Y-90877506D02*
X88701609Y-90925125D01*
X88701609Y-90925125D02*
X88653990Y-91020363D01*
X88653990Y-91020363D02*
X88653990Y-91353696D01*
X88130180Y-89591791D02*
X89130180Y-89591791D01*
X89130180Y-89591791D02*
X89130180Y-89353696D01*
X89130180Y-89353696D02*
X89082561Y-89210839D01*
X89082561Y-89210839D02*
X88987323Y-89115601D01*
X88987323Y-89115601D02*
X88892085Y-89067982D01*
X88892085Y-89067982D02*
X88701609Y-89020363D01*
X88701609Y-89020363D02*
X88558752Y-89020363D01*
X88558752Y-89020363D02*
X88368276Y-89067982D01*
X88368276Y-89067982D02*
X88273038Y-89115601D01*
X88273038Y-89115601D02*
X88177800Y-89210839D01*
X88177800Y-89210839D02*
X88130180Y-89353696D01*
X88130180Y-89353696D02*
X88130180Y-89591791D01*
X88653990Y-88591791D02*
X88653990Y-88258458D01*
X88130180Y-88115601D02*
X88130180Y-88591791D01*
X88130180Y-88591791D02*
X89130180Y-88591791D01*
X89130180Y-88591791D02*
X89130180Y-88115601D01*
X88177800Y-87734648D02*
X88130180Y-87591791D01*
X88130180Y-87591791D02*
X88130180Y-87353696D01*
X88130180Y-87353696D02*
X88177800Y-87258458D01*
X88177800Y-87258458D02*
X88225419Y-87210839D01*
X88225419Y-87210839D02*
X88320657Y-87163220D01*
X88320657Y-87163220D02*
X88415895Y-87163220D01*
X88415895Y-87163220D02*
X88511133Y-87210839D01*
X88511133Y-87210839D02*
X88558752Y-87258458D01*
X88558752Y-87258458D02*
X88606371Y-87353696D01*
X88606371Y-87353696D02*
X88653990Y-87544172D01*
X88653990Y-87544172D02*
X88701609Y-87639410D01*
X88701609Y-87639410D02*
X88749228Y-87687029D01*
X88749228Y-87687029D02*
X88844466Y-87734648D01*
X88844466Y-87734648D02*
X88939704Y-87734648D01*
X88939704Y-87734648D02*
X89034942Y-87687029D01*
X89034942Y-87687029D02*
X89082561Y-87639410D01*
X89082561Y-87639410D02*
X89130180Y-87544172D01*
X89130180Y-87544172D02*
X89130180Y-87306077D01*
X89130180Y-87306077D02*
X89082561Y-87163220D01*
X88130180Y-86734648D02*
X89130180Y-86734648D01*
X89082561Y-85734649D02*
X89130180Y-85829887D01*
X89130180Y-85829887D02*
X89130180Y-85972744D01*
X89130180Y-85972744D02*
X89082561Y-86115601D01*
X89082561Y-86115601D02*
X88987323Y-86210839D01*
X88987323Y-86210839D02*
X88892085Y-86258458D01*
X88892085Y-86258458D02*
X88701609Y-86306077D01*
X88701609Y-86306077D02*
X88558752Y-86306077D01*
X88558752Y-86306077D02*
X88368276Y-86258458D01*
X88368276Y-86258458D02*
X88273038Y-86210839D01*
X88273038Y-86210839D02*
X88177800Y-86115601D01*
X88177800Y-86115601D02*
X88130180Y-85972744D01*
X88130180Y-85972744D02*
X88130180Y-85877506D01*
X88130180Y-85877506D02*
X88177800Y-85734649D01*
X88177800Y-85734649D02*
X88225419Y-85687030D01*
X88225419Y-85687030D02*
X88558752Y-85687030D01*
X88558752Y-85687030D02*
X88558752Y-85877506D01*
X88130180Y-85258458D02*
X89130180Y-85258458D01*
X89130180Y-85258458D02*
X88130180Y-84687030D01*
X88130180Y-84687030D02*
X89130180Y-84687030D01*
X88511133Y-83448934D02*
X88511133Y-82687030D01*
X89130180Y-81258458D02*
X89130180Y-81163220D01*
X89130180Y-81163220D02*
X89082561Y-81067982D01*
X89082561Y-81067982D02*
X89034942Y-81020363D01*
X89034942Y-81020363D02*
X88939704Y-80972744D01*
X88939704Y-80972744D02*
X88749228Y-80925125D01*
X88749228Y-80925125D02*
X88511133Y-80925125D01*
X88511133Y-80925125D02*
X88320657Y-80972744D01*
X88320657Y-80972744D02*
X88225419Y-81020363D01*
X88225419Y-81020363D02*
X88177800Y-81067982D01*
X88177800Y-81067982D02*
X88130180Y-81163220D01*
X88130180Y-81163220D02*
X88130180Y-81258458D01*
X88130180Y-81258458D02*
X88177800Y-81353696D01*
X88177800Y-81353696D02*
X88225419Y-81401315D01*
X88225419Y-81401315D02*
X88320657Y-81448934D01*
X88320657Y-81448934D02*
X88511133Y-81496553D01*
X88511133Y-81496553D02*
X88749228Y-81496553D01*
X88749228Y-81496553D02*
X88939704Y-81448934D01*
X88939704Y-81448934D02*
X89034942Y-81401315D01*
X89034942Y-81401315D02*
X89082561Y-81353696D01*
X89082561Y-81353696D02*
X89130180Y-81258458D01*
X88130180Y-80448934D02*
X88130180Y-80258458D01*
X88130180Y-80258458D02*
X88177800Y-80163220D01*
X88177800Y-80163220D02*
X88225419Y-80115601D01*
X88225419Y-80115601D02*
X88368276Y-80020363D01*
X88368276Y-80020363D02*
X88558752Y-79972744D01*
X88558752Y-79972744D02*
X88939704Y-79972744D01*
X88939704Y-79972744D02*
X89034942Y-80020363D01*
X89034942Y-80020363D02*
X89082561Y-80067982D01*
X89082561Y-80067982D02*
X89130180Y-80163220D01*
X89130180Y-80163220D02*
X89130180Y-80353696D01*
X89130180Y-80353696D02*
X89082561Y-80448934D01*
X89082561Y-80448934D02*
X89034942Y-80496553D01*
X89034942Y-80496553D02*
X88939704Y-80544172D01*
X88939704Y-80544172D02*
X88701609Y-80544172D01*
X88701609Y-80544172D02*
X88606371Y-80496553D01*
X88606371Y-80496553D02*
X88558752Y-80448934D01*
X88558752Y-80448934D02*
X88511133Y-80353696D01*
X88511133Y-80353696D02*
X88511133Y-80163220D01*
X88511133Y-80163220D02*
X88558752Y-80067982D01*
X88558752Y-80067982D02*
X88606371Y-80020363D01*
X88606371Y-80020363D02*
X88701609Y-79972744D01*
X88225419Y-79544172D02*
X88177800Y-79496553D01*
X88177800Y-79496553D02*
X88130180Y-79544172D01*
X88130180Y-79544172D02*
X88177800Y-79591791D01*
X88177800Y-79591791D02*
X88225419Y-79544172D01*
X88225419Y-79544172D02*
X88130180Y-79544172D01*
X89034942Y-79115601D02*
X89082561Y-79067982D01*
X89082561Y-79067982D02*
X89130180Y-78972744D01*
X89130180Y-78972744D02*
X89130180Y-78734649D01*
X89130180Y-78734649D02*
X89082561Y-78639411D01*
X89082561Y-78639411D02*
X89034942Y-78591792D01*
X89034942Y-78591792D02*
X88939704Y-78544173D01*
X88939704Y-78544173D02*
X88844466Y-78544173D01*
X88844466Y-78544173D02*
X88701609Y-78591792D01*
X88701609Y-78591792D02*
X88130180Y-79163220D01*
X88130180Y-79163220D02*
X88130180Y-78544173D01*
X89130180Y-77925125D02*
X89130180Y-77829887D01*
X89130180Y-77829887D02*
X89082561Y-77734649D01*
X89082561Y-77734649D02*
X89034942Y-77687030D01*
X89034942Y-77687030D02*
X88939704Y-77639411D01*
X88939704Y-77639411D02*
X88749228Y-77591792D01*
X88749228Y-77591792D02*
X88511133Y-77591792D01*
X88511133Y-77591792D02*
X88320657Y-77639411D01*
X88320657Y-77639411D02*
X88225419Y-77687030D01*
X88225419Y-77687030D02*
X88177800Y-77734649D01*
X88177800Y-77734649D02*
X88130180Y-77829887D01*
X88130180Y-77829887D02*
X88130180Y-77925125D01*
X88130180Y-77925125D02*
X88177800Y-78020363D01*
X88177800Y-78020363D02*
X88225419Y-78067982D01*
X88225419Y-78067982D02*
X88320657Y-78115601D01*
X88320657Y-78115601D02*
X88511133Y-78163220D01*
X88511133Y-78163220D02*
X88749228Y-78163220D01*
X88749228Y-78163220D02*
X88939704Y-78115601D01*
X88939704Y-78115601D02*
X89034942Y-78067982D01*
X89034942Y-78067982D02*
X89082561Y-78020363D01*
X89082561Y-78020363D02*
X89130180Y-77925125D01*
X89034942Y-77210839D02*
X89082561Y-77163220D01*
X89082561Y-77163220D02*
X89130180Y-77067982D01*
X89130180Y-77067982D02*
X89130180Y-76829887D01*
X89130180Y-76829887D02*
X89082561Y-76734649D01*
X89082561Y-76734649D02*
X89034942Y-76687030D01*
X89034942Y-76687030D02*
X88939704Y-76639411D01*
X88939704Y-76639411D02*
X88844466Y-76639411D01*
X88844466Y-76639411D02*
X88701609Y-76687030D01*
X88701609Y-76687030D02*
X88130180Y-77258458D01*
X88130180Y-77258458D02*
X88130180Y-76639411D01*
X88796847Y-75782268D02*
X88130180Y-75782268D01*
X89177800Y-76020363D02*
X88463514Y-76258458D01*
X88463514Y-76258458D02*
X88463514Y-75639411D01*
X54913220Y-68738866D02*
X54151316Y-68738866D01*
X53151316Y-69119819D02*
X53722744Y-69119819D01*
X53437030Y-69119819D02*
X53437030Y-68119819D01*
X53437030Y-68119819D02*
X53532268Y-68262676D01*
X53532268Y-68262676D02*
X53627506Y-68357914D01*
X53627506Y-68357914D02*
X53722744Y-68405533D01*
X52770363Y-68215057D02*
X52722744Y-68167438D01*
X52722744Y-68167438D02*
X52627506Y-68119819D01*
X52627506Y-68119819D02*
X52389411Y-68119819D01*
X52389411Y-68119819D02*
X52294173Y-68167438D01*
X52294173Y-68167438D02*
X52246554Y-68215057D01*
X52246554Y-68215057D02*
X52198935Y-68310295D01*
X52198935Y-68310295D02*
X52198935Y-68405533D01*
X52198935Y-68405533D02*
X52246554Y-68548390D01*
X52246554Y-68548390D02*
X52817982Y-69119819D01*
X52817982Y-69119819D02*
X52198935Y-69119819D01*
X51913220Y-68119819D02*
X51579887Y-69119819D01*
X51579887Y-69119819D02*
X51246554Y-68119819D01*
X64163220Y-68738866D02*
X63401316Y-68738866D01*
X63782268Y-69119819D02*
X63782268Y-68357914D01*
X62401316Y-69119819D02*
X62972744Y-69119819D01*
X62687030Y-69119819D02*
X62687030Y-68119819D01*
X62687030Y-68119819D02*
X62782268Y-68262676D01*
X62782268Y-68262676D02*
X62877506Y-68357914D01*
X62877506Y-68357914D02*
X62972744Y-68405533D01*
X62020363Y-68215057D02*
X61972744Y-68167438D01*
X61972744Y-68167438D02*
X61877506Y-68119819D01*
X61877506Y-68119819D02*
X61639411Y-68119819D01*
X61639411Y-68119819D02*
X61544173Y-68167438D01*
X61544173Y-68167438D02*
X61496554Y-68215057D01*
X61496554Y-68215057D02*
X61448935Y-68310295D01*
X61448935Y-68310295D02*
X61448935Y-68405533D01*
X61448935Y-68405533D02*
X61496554Y-68548390D01*
X61496554Y-68548390D02*
X62067982Y-69119819D01*
X62067982Y-69119819D02*
X61448935Y-69119819D01*
X61163220Y-68119819D02*
X60829887Y-69119819D01*
X60829887Y-69119819D02*
X60496554Y-68119819D01*
X65663220Y-71369819D02*
X65663220Y-70369819D01*
X65091792Y-71369819D02*
X65520363Y-70798390D01*
X65091792Y-70369819D02*
X65663220Y-70941247D01*
X64663220Y-71369819D02*
X64663220Y-70703152D01*
X64663220Y-70369819D02*
X64710839Y-70417438D01*
X64710839Y-70417438D02*
X64663220Y-70465057D01*
X64663220Y-70465057D02*
X64615601Y-70417438D01*
X64615601Y-70417438D02*
X64663220Y-70369819D01*
X64663220Y-70369819D02*
X64663220Y-70465057D01*
X63758459Y-71322200D02*
X63853697Y-71369819D01*
X63853697Y-71369819D02*
X64044173Y-71369819D01*
X64044173Y-71369819D02*
X64139411Y-71322200D01*
X64139411Y-71322200D02*
X64187030Y-71274580D01*
X64187030Y-71274580D02*
X64234649Y-71179342D01*
X64234649Y-71179342D02*
X64234649Y-70893628D01*
X64234649Y-70893628D02*
X64187030Y-70798390D01*
X64187030Y-70798390D02*
X64139411Y-70750771D01*
X64139411Y-70750771D02*
X64044173Y-70703152D01*
X64044173Y-70703152D02*
X63853697Y-70703152D01*
X63853697Y-70703152D02*
X63758459Y-70750771D01*
X63329887Y-71369819D02*
X63329887Y-70369819D01*
X63234649Y-70988866D02*
X62948935Y-71369819D01*
X62948935Y-70703152D02*
X63329887Y-71084104D01*
X62520363Y-71274580D02*
X62472744Y-71322200D01*
X62472744Y-71322200D02*
X62520363Y-71369819D01*
X62520363Y-71369819D02*
X62567982Y-71322200D01*
X62567982Y-71322200D02*
X62520363Y-71274580D01*
X62520363Y-71274580D02*
X62520363Y-71369819D01*
X62520363Y-70988866D02*
X62567982Y-70417438D01*
X62567982Y-70417438D02*
X62520363Y-70369819D01*
X62520363Y-70369819D02*
X62472744Y-70417438D01*
X62472744Y-70417438D02*
X62520363Y-70988866D01*
X62520363Y-70988866D02*
X62520363Y-70369819D01*
X72591792Y-90869819D02*
X72925125Y-90393628D01*
X73163220Y-90869819D02*
X73163220Y-89869819D01*
X73163220Y-89869819D02*
X72782268Y-89869819D01*
X72782268Y-89869819D02*
X72687030Y-89917438D01*
X72687030Y-89917438D02*
X72639411Y-89965057D01*
X72639411Y-89965057D02*
X72591792Y-90060295D01*
X72591792Y-90060295D02*
X72591792Y-90203152D01*
X72591792Y-90203152D02*
X72639411Y-90298390D01*
X72639411Y-90298390D02*
X72687030Y-90346009D01*
X72687030Y-90346009D02*
X72782268Y-90393628D01*
X72782268Y-90393628D02*
X73163220Y-90393628D01*
X71782268Y-90822200D02*
X71877506Y-90869819D01*
X71877506Y-90869819D02*
X72067982Y-90869819D01*
X72067982Y-90869819D02*
X72163220Y-90822200D01*
X72163220Y-90822200D02*
X72210839Y-90726961D01*
X72210839Y-90726961D02*
X72210839Y-90346009D01*
X72210839Y-90346009D02*
X72163220Y-90250771D01*
X72163220Y-90250771D02*
X72067982Y-90203152D01*
X72067982Y-90203152D02*
X71877506Y-90203152D01*
X71877506Y-90203152D02*
X71782268Y-90250771D01*
X71782268Y-90250771D02*
X71734649Y-90346009D01*
X71734649Y-90346009D02*
X71734649Y-90441247D01*
X71734649Y-90441247D02*
X72210839Y-90536485D01*
X71353696Y-90822200D02*
X71258458Y-90869819D01*
X71258458Y-90869819D02*
X71067982Y-90869819D01*
X71067982Y-90869819D02*
X70972744Y-90822200D01*
X70972744Y-90822200D02*
X70925125Y-90726961D01*
X70925125Y-90726961D02*
X70925125Y-90679342D01*
X70925125Y-90679342D02*
X70972744Y-90584104D01*
X70972744Y-90584104D02*
X71067982Y-90536485D01*
X71067982Y-90536485D02*
X71210839Y-90536485D01*
X71210839Y-90536485D02*
X71306077Y-90488866D01*
X71306077Y-90488866D02*
X71353696Y-90393628D01*
X71353696Y-90393628D02*
X71353696Y-90346009D01*
X71353696Y-90346009D02*
X71306077Y-90250771D01*
X71306077Y-90250771D02*
X71210839Y-90203152D01*
X71210839Y-90203152D02*
X71067982Y-90203152D01*
X71067982Y-90203152D02*
X70972744Y-90250771D01*
X70353696Y-90869819D02*
X70448934Y-90822200D01*
X70448934Y-90822200D02*
X70496553Y-90774580D01*
X70496553Y-90774580D02*
X70544172Y-90679342D01*
X70544172Y-90679342D02*
X70544172Y-90393628D01*
X70544172Y-90393628D02*
X70496553Y-90298390D01*
X70496553Y-90298390D02*
X70448934Y-90250771D01*
X70448934Y-90250771D02*
X70353696Y-90203152D01*
X70353696Y-90203152D02*
X70210839Y-90203152D01*
X70210839Y-90203152D02*
X70115601Y-90250771D01*
X70115601Y-90250771D02*
X70067982Y-90298390D01*
X70067982Y-90298390D02*
X70020363Y-90393628D01*
X70020363Y-90393628D02*
X70020363Y-90679342D01*
X70020363Y-90679342D02*
X70067982Y-90774580D01*
X70067982Y-90774580D02*
X70115601Y-90822200D01*
X70115601Y-90822200D02*
X70210839Y-90869819D01*
X70210839Y-90869819D02*
X70353696Y-90869819D01*
X69591791Y-90203152D02*
X69591791Y-90869819D01*
X69591791Y-90298390D02*
X69544172Y-90250771D01*
X69544172Y-90250771D02*
X69448934Y-90203152D01*
X69448934Y-90203152D02*
X69306077Y-90203152D01*
X69306077Y-90203152D02*
X69210839Y-90250771D01*
X69210839Y-90250771D02*
X69163220Y-90346009D01*
X69163220Y-90346009D02*
X69163220Y-90869819D01*
X68258458Y-90869819D02*
X68258458Y-90346009D01*
X68258458Y-90346009D02*
X68306077Y-90250771D01*
X68306077Y-90250771D02*
X68401315Y-90203152D01*
X68401315Y-90203152D02*
X68591791Y-90203152D01*
X68591791Y-90203152D02*
X68687029Y-90250771D01*
X68258458Y-90822200D02*
X68353696Y-90869819D01*
X68353696Y-90869819D02*
X68591791Y-90869819D01*
X68591791Y-90869819D02*
X68687029Y-90822200D01*
X68687029Y-90822200D02*
X68734648Y-90726961D01*
X68734648Y-90726961D02*
X68734648Y-90631723D01*
X68734648Y-90631723D02*
X68687029Y-90536485D01*
X68687029Y-90536485D02*
X68591791Y-90488866D01*
X68591791Y-90488866D02*
X68353696Y-90488866D01*
X68353696Y-90488866D02*
X68258458Y-90441247D01*
X67782267Y-90203152D02*
X67782267Y-90869819D01*
X67782267Y-90298390D02*
X67734648Y-90250771D01*
X67734648Y-90250771D02*
X67639410Y-90203152D01*
X67639410Y-90203152D02*
X67496553Y-90203152D01*
X67496553Y-90203152D02*
X67401315Y-90250771D01*
X67401315Y-90250771D02*
X67353696Y-90346009D01*
X67353696Y-90346009D02*
X67353696Y-90869819D01*
X66448934Y-90822200D02*
X66544172Y-90869819D01*
X66544172Y-90869819D02*
X66734648Y-90869819D01*
X66734648Y-90869819D02*
X66829886Y-90822200D01*
X66829886Y-90822200D02*
X66877505Y-90774580D01*
X66877505Y-90774580D02*
X66925124Y-90679342D01*
X66925124Y-90679342D02*
X66925124Y-90393628D01*
X66925124Y-90393628D02*
X66877505Y-90298390D01*
X66877505Y-90298390D02*
X66829886Y-90250771D01*
X66829886Y-90250771D02*
X66734648Y-90203152D01*
X66734648Y-90203152D02*
X66544172Y-90203152D01*
X66544172Y-90203152D02*
X66448934Y-90250771D01*
X65639410Y-90822200D02*
X65734648Y-90869819D01*
X65734648Y-90869819D02*
X65925124Y-90869819D01*
X65925124Y-90869819D02*
X66020362Y-90822200D01*
X66020362Y-90822200D02*
X66067981Y-90726961D01*
X66067981Y-90726961D02*
X66067981Y-90346009D01*
X66067981Y-90346009D02*
X66020362Y-90250771D01*
X66020362Y-90250771D02*
X65925124Y-90203152D01*
X65925124Y-90203152D02*
X65734648Y-90203152D01*
X65734648Y-90203152D02*
X65639410Y-90250771D01*
X65639410Y-90250771D02*
X65591791Y-90346009D01*
X65591791Y-90346009D02*
X65591791Y-90441247D01*
X65591791Y-90441247D02*
X66067981Y-90536485D01*
X59806077Y-140869819D02*
X59234649Y-140869819D01*
X59520363Y-141869819D02*
X59520363Y-140869819D01*
X58329887Y-141869819D02*
X58663220Y-141393628D01*
X58901315Y-141869819D02*
X58901315Y-140869819D01*
X58901315Y-140869819D02*
X58520363Y-140869819D01*
X58520363Y-140869819D02*
X58425125Y-140917438D01*
X58425125Y-140917438D02*
X58377506Y-140965057D01*
X58377506Y-140965057D02*
X58329887Y-141060295D01*
X58329887Y-141060295D02*
X58329887Y-141203152D01*
X58329887Y-141203152D02*
X58377506Y-141298390D01*
X58377506Y-141298390D02*
X58425125Y-141346009D01*
X58425125Y-141346009D02*
X58520363Y-141393628D01*
X58520363Y-141393628D02*
X58901315Y-141393628D01*
X57901315Y-141869819D02*
X57901315Y-140869819D01*
X56901316Y-140917438D02*
X56996554Y-140869819D01*
X56996554Y-140869819D02*
X57139411Y-140869819D01*
X57139411Y-140869819D02*
X57282268Y-140917438D01*
X57282268Y-140917438D02*
X57377506Y-141012676D01*
X57377506Y-141012676D02*
X57425125Y-141107914D01*
X57425125Y-141107914D02*
X57472744Y-141298390D01*
X57472744Y-141298390D02*
X57472744Y-141441247D01*
X57472744Y-141441247D02*
X57425125Y-141631723D01*
X57425125Y-141631723D02*
X57377506Y-141726961D01*
X57377506Y-141726961D02*
X57282268Y-141822200D01*
X57282268Y-141822200D02*
X57139411Y-141869819D01*
X57139411Y-141869819D02*
X57044173Y-141869819D01*
X57044173Y-141869819D02*
X56901316Y-141822200D01*
X56901316Y-141822200D02*
X56853697Y-141774580D01*
X56853697Y-141774580D02*
X56853697Y-141441247D01*
X56853697Y-141441247D02*
X57044173Y-141441247D01*
X56663221Y-141965057D02*
X55901316Y-141965057D01*
X55663220Y-141869819D02*
X55663220Y-140869819D01*
X55187030Y-141869819D02*
X55187030Y-140869819D01*
X55187030Y-140869819D02*
X54615602Y-141869819D01*
X54615602Y-141869819D02*
X54615602Y-140869819D01*
G36*
X58430278Y-76314705D02*
G01*
X58481729Y-76316725D01*
X58533356Y-76319323D01*
X58539464Y-76319638D01*
X58590708Y-76322243D01*
X58640090Y-76324452D01*
X58640090Y-77330000D01*
X58502581Y-77330000D01*
X58502581Y-76885478D01*
X58461555Y-76888142D01*
X58407476Y-76891007D01*
X58357013Y-76892316D01*
X58088590Y-77330000D01*
X57931053Y-77330000D01*
X58223168Y-76861297D01*
X58208294Y-76857365D01*
X58161506Y-76837062D01*
X58119012Y-76805692D01*
X58084438Y-76767997D01*
X58067621Y-76744041D01*
X58044534Y-76698667D01*
X58030681Y-76650395D01*
X58026064Y-76599225D01*
X58170167Y-76599225D01*
X58170222Y-76605621D01*
X58175677Y-76657643D01*
X58192206Y-76703753D01*
X58226587Y-76742840D01*
X58254390Y-76758447D01*
X58305299Y-76774094D01*
X58355506Y-76780979D01*
X58406350Y-76782896D01*
X58453855Y-76781186D01*
X58502581Y-76776057D01*
X58502581Y-76445840D01*
X58471777Y-76442535D01*
X58421493Y-76439002D01*
X58382446Y-76439920D01*
X58333531Y-76444291D01*
X58280498Y-76455200D01*
X58230739Y-76476615D01*
X58198797Y-76504646D01*
X58176082Y-76550624D01*
X58170167Y-76599225D01*
X58026064Y-76599225D01*
X58026418Y-76581674D01*
X58031731Y-76532363D01*
X58048732Y-76474417D01*
X58077068Y-76425385D01*
X58116739Y-76385268D01*
X58167744Y-76354066D01*
X58213435Y-76336515D01*
X58265503Y-76323978D01*
X58323946Y-76316457D01*
X58388764Y-76313949D01*
X58430278Y-76314705D01*
G37*
G36*
X57615366Y-76582095D02*
G01*
X57670335Y-76593562D01*
X57721822Y-76614472D01*
X57769825Y-76644826D01*
X57808199Y-76678360D01*
X57840073Y-76714554D01*
X57871192Y-76762662D01*
X57894530Y-76815870D01*
X57908036Y-76864107D01*
X57916140Y-76915886D01*
X57918841Y-76971207D01*
X57917892Y-77003548D01*
X57912094Y-77054646D01*
X57898178Y-77111335D01*
X57876671Y-77162976D01*
X57847574Y-77209567D01*
X57810886Y-77251109D01*
X57779635Y-77278340D01*
X57732438Y-77308708D01*
X57681220Y-77330031D01*
X57625982Y-77342308D01*
X57575436Y-77345631D01*
X57551660Y-77345196D01*
X57500230Y-77341036D01*
X57451660Y-77332471D01*
X57401046Y-77317787D01*
X57397170Y-77316452D01*
X57349512Y-77296149D01*
X57308234Y-77267473D01*
X57363189Y-77173684D01*
X57397758Y-77198047D01*
X57447391Y-77220579D01*
X57496408Y-77232302D01*
X57550034Y-77236210D01*
X57568131Y-77235665D01*
X57618659Y-77227486D01*
X57668185Y-77206888D01*
X57710746Y-77174173D01*
X57719323Y-77165048D01*
X57748098Y-77123740D01*
X57768019Y-77074739D01*
X57778187Y-77025552D01*
X57781577Y-76970474D01*
X57251081Y-76970474D01*
X57244830Y-76942436D01*
X57240823Y-76891584D01*
X57241414Y-76876685D01*
X57370760Y-76876685D01*
X57778157Y-76876685D01*
X57768655Y-76829907D01*
X57747182Y-76784291D01*
X57714166Y-76744794D01*
X57706696Y-76738050D01*
X57666000Y-76710859D01*
X57619723Y-76694544D01*
X57567864Y-76689106D01*
X57562071Y-76689162D01*
X57508338Y-76695860D01*
X57462237Y-76713720D01*
X57420341Y-76746259D01*
X57396374Y-76777708D01*
X57376619Y-76826011D01*
X57370760Y-76876685D01*
X57241414Y-76876685D01*
X57242174Y-76857523D01*
X57251040Y-76802086D01*
X57268180Y-76751956D01*
X57293595Y-76707131D01*
X57327285Y-76667613D01*
X57369643Y-76633352D01*
X57418500Y-76607506D01*
X57465549Y-76592050D01*
X57517373Y-76582777D01*
X57573970Y-76579685D01*
X57615366Y-76582095D01*
G37*
G36*
X56871039Y-77345631D02*
G01*
X56905233Y-77345631D01*
X57220551Y-76595317D01*
X57077669Y-76595317D01*
X56883251Y-77111158D01*
X56684682Y-76595317D01*
X56548150Y-76595317D01*
X56871039Y-77345631D01*
G37*
G36*
X56394521Y-77142421D02*
G01*
X56346169Y-77154061D01*
X56321737Y-77172219D01*
X56295710Y-77214026D01*
X56291451Y-77243782D01*
X56303282Y-77291409D01*
X56321737Y-77315589D01*
X56364365Y-77341406D01*
X56394521Y-77345631D01*
X56442874Y-77333896D01*
X56467306Y-77315589D01*
X56493333Y-77273457D01*
X56497592Y-77243782D01*
X56485761Y-77196135D01*
X56467306Y-77172219D01*
X56424678Y-77146611D01*
X56394521Y-77142421D01*
G37*
G36*
X55875505Y-77330000D02*
G01*
X55875505Y-76548178D01*
X56080181Y-76673475D01*
X56080181Y-76548422D01*
X56035719Y-76524436D01*
X55989712Y-76495889D01*
X55947519Y-76466687D01*
X55915073Y-76442421D01*
X55873811Y-76409021D01*
X55833267Y-76372467D01*
X55798944Y-76336996D01*
X55779518Y-76313949D01*
X55738241Y-76313949D01*
X55738241Y-77330000D01*
X55875505Y-77330000D01*
G37*
X58166666Y-64559580D02*
X58214285Y-64607200D01*
X58214285Y-64607200D02*
X58357142Y-64654819D01*
X58357142Y-64654819D02*
X58452380Y-64654819D01*
X58452380Y-64654819D02*
X58595237Y-64607200D01*
X58595237Y-64607200D02*
X58690475Y-64511961D01*
X58690475Y-64511961D02*
X58738094Y-64416723D01*
X58738094Y-64416723D02*
X58785713Y-64226247D01*
X58785713Y-64226247D02*
X58785713Y-64083390D01*
X58785713Y-64083390D02*
X58738094Y-63892914D01*
X58738094Y-63892914D02*
X58690475Y-63797676D01*
X58690475Y-63797676D02*
X58595237Y-63702438D01*
X58595237Y-63702438D02*
X58452380Y-63654819D01*
X58452380Y-63654819D02*
X58357142Y-63654819D01*
X58357142Y-63654819D02*
X58214285Y-63702438D01*
X58214285Y-63702438D02*
X58166666Y-63750057D01*
X57595237Y-64083390D02*
X57690475Y-64035771D01*
X57690475Y-64035771D02*
X57738094Y-63988152D01*
X57738094Y-63988152D02*
X57785713Y-63892914D01*
X57785713Y-63892914D02*
X57785713Y-63845295D01*
X57785713Y-63845295D02*
X57738094Y-63750057D01*
X57738094Y-63750057D02*
X57690475Y-63702438D01*
X57690475Y-63702438D02*
X57595237Y-63654819D01*
X57595237Y-63654819D02*
X57404761Y-63654819D01*
X57404761Y-63654819D02*
X57309523Y-63702438D01*
X57309523Y-63702438D02*
X57261904Y-63750057D01*
X57261904Y-63750057D02*
X57214285Y-63845295D01*
X57214285Y-63845295D02*
X57214285Y-63892914D01*
X57214285Y-63892914D02*
X57261904Y-63988152D01*
X57261904Y-63988152D02*
X57309523Y-64035771D01*
X57309523Y-64035771D02*
X57404761Y-64083390D01*
X57404761Y-64083390D02*
X57595237Y-64083390D01*
X57595237Y-64083390D02*
X57690475Y-64131009D01*
X57690475Y-64131009D02*
X57738094Y-64178628D01*
X57738094Y-64178628D02*
X57785713Y-64273866D01*
X57785713Y-64273866D02*
X57785713Y-64464342D01*
X57785713Y-64464342D02*
X57738094Y-64559580D01*
X57738094Y-64559580D02*
X57690475Y-64607200D01*
X57690475Y-64607200D02*
X57595237Y-64654819D01*
X57595237Y-64654819D02*
X57404761Y-64654819D01*
X57404761Y-64654819D02*
X57309523Y-64607200D01*
X57309523Y-64607200D02*
X57261904Y-64559580D01*
X57261904Y-64559580D02*
X57214285Y-64464342D01*
X57214285Y-64464342D02*
X57214285Y-64273866D01*
X57214285Y-64273866D02*
X57261904Y-64178628D01*
X57261904Y-64178628D02*
X57309523Y-64131009D01*
X57309523Y-64131009D02*
X57404761Y-64083390D01*
X77105357Y-111054819D02*
X77438690Y-110578628D01*
X77676785Y-111054819D02*
X77676785Y-110054819D01*
X77676785Y-110054819D02*
X77295833Y-110054819D01*
X77295833Y-110054819D02*
X77200595Y-110102438D01*
X77200595Y-110102438D02*
X77152976Y-110150057D01*
X77152976Y-110150057D02*
X77105357Y-110245295D01*
X77105357Y-110245295D02*
X77105357Y-110388152D01*
X77105357Y-110388152D02*
X77152976Y-110483390D01*
X77152976Y-110483390D02*
X77200595Y-110531009D01*
X77200595Y-110531009D02*
X77295833Y-110578628D01*
X77295833Y-110578628D02*
X77676785Y-110578628D01*
X76724404Y-110150057D02*
X76676785Y-110102438D01*
X76676785Y-110102438D02*
X76581547Y-110054819D01*
X76581547Y-110054819D02*
X76343452Y-110054819D01*
X76343452Y-110054819D02*
X76248214Y-110102438D01*
X76248214Y-110102438D02*
X76200595Y-110150057D01*
X76200595Y-110150057D02*
X76152976Y-110245295D01*
X76152976Y-110245295D02*
X76152976Y-110340533D01*
X76152976Y-110340533D02*
X76200595Y-110483390D01*
X76200595Y-110483390D02*
X76772023Y-111054819D01*
X76772023Y-111054819D02*
X76152976Y-111054819D01*
X75533928Y-110054819D02*
X75438690Y-110054819D01*
X75438690Y-110054819D02*
X75343452Y-110102438D01*
X75343452Y-110102438D02*
X75295833Y-110150057D01*
X75295833Y-110150057D02*
X75248214Y-110245295D01*
X75248214Y-110245295D02*
X75200595Y-110435771D01*
X75200595Y-110435771D02*
X75200595Y-110673866D01*
X75200595Y-110673866D02*
X75248214Y-110864342D01*
X75248214Y-110864342D02*
X75295833Y-110959580D01*
X75295833Y-110959580D02*
X75343452Y-111007200D01*
X75343452Y-111007200D02*
X75438690Y-111054819D01*
X75438690Y-111054819D02*
X75533928Y-111054819D01*
X75533928Y-111054819D02*
X75629166Y-111007200D01*
X75629166Y-111007200D02*
X75676785Y-110959580D01*
X75676785Y-110959580D02*
X75724404Y-110864342D01*
X75724404Y-110864342D02*
X75772023Y-110673866D01*
X75772023Y-110673866D02*
X75772023Y-110435771D01*
X75772023Y-110435771D02*
X75724404Y-110245295D01*
X75724404Y-110245295D02*
X75676785Y-110150057D01*
X75676785Y-110150057D02*
X75629166Y-110102438D01*
X75629166Y-110102438D02*
X75533928Y-110054819D01*
X62416666Y-51609580D02*
X62464285Y-51657200D01*
X62464285Y-51657200D02*
X62607142Y-51704819D01*
X62607142Y-51704819D02*
X62702380Y-51704819D01*
X62702380Y-51704819D02*
X62845237Y-51657200D01*
X62845237Y-51657200D02*
X62940475Y-51561961D01*
X62940475Y-51561961D02*
X62988094Y-51466723D01*
X62988094Y-51466723D02*
X63035713Y-51276247D01*
X63035713Y-51276247D02*
X63035713Y-51133390D01*
X63035713Y-51133390D02*
X62988094Y-50942914D01*
X62988094Y-50942914D02*
X62940475Y-50847676D01*
X62940475Y-50847676D02*
X62845237Y-50752438D01*
X62845237Y-50752438D02*
X62702380Y-50704819D01*
X62702380Y-50704819D02*
X62607142Y-50704819D01*
X62607142Y-50704819D02*
X62464285Y-50752438D01*
X62464285Y-50752438D02*
X62416666Y-50800057D01*
X61940475Y-51704819D02*
X61749999Y-51704819D01*
X61749999Y-51704819D02*
X61654761Y-51657200D01*
X61654761Y-51657200D02*
X61607142Y-51609580D01*
X61607142Y-51609580D02*
X61511904Y-51466723D01*
X61511904Y-51466723D02*
X61464285Y-51276247D01*
X61464285Y-51276247D02*
X61464285Y-50895295D01*
X61464285Y-50895295D02*
X61511904Y-50800057D01*
X61511904Y-50800057D02*
X61559523Y-50752438D01*
X61559523Y-50752438D02*
X61654761Y-50704819D01*
X61654761Y-50704819D02*
X61845237Y-50704819D01*
X61845237Y-50704819D02*
X61940475Y-50752438D01*
X61940475Y-50752438D02*
X61988094Y-50800057D01*
X61988094Y-50800057D02*
X62035713Y-50895295D01*
X62035713Y-50895295D02*
X62035713Y-51133390D01*
X62035713Y-51133390D02*
X61988094Y-51228628D01*
X61988094Y-51228628D02*
X61940475Y-51276247D01*
X61940475Y-51276247D02*
X61845237Y-51323866D01*
X61845237Y-51323866D02*
X61654761Y-51323866D01*
X61654761Y-51323866D02*
X61559523Y-51276247D01*
X61559523Y-51276247D02*
X61511904Y-51228628D01*
X61511904Y-51228628D02*
X61464285Y-51133390D01*
X79667319Y-115107142D02*
X79191128Y-114773809D01*
X79667319Y-114535714D02*
X78667319Y-114535714D01*
X78667319Y-114535714D02*
X78667319Y-114916666D01*
X78667319Y-114916666D02*
X78714938Y-115011904D01*
X78714938Y-115011904D02*
X78762557Y-115059523D01*
X78762557Y-115059523D02*
X78857795Y-115107142D01*
X78857795Y-115107142D02*
X79000652Y-115107142D01*
X79000652Y-115107142D02*
X79095890Y-115059523D01*
X79095890Y-115059523D02*
X79143509Y-115011904D01*
X79143509Y-115011904D02*
X79191128Y-114916666D01*
X79191128Y-114916666D02*
X79191128Y-114535714D01*
X79667319Y-116059523D02*
X79667319Y-115488095D01*
X79667319Y-115773809D02*
X78667319Y-115773809D01*
X78667319Y-115773809D02*
X78810176Y-115678571D01*
X78810176Y-115678571D02*
X78905414Y-115583333D01*
X78905414Y-115583333D02*
X78953033Y-115488095D01*
X78667319Y-116392857D02*
X78667319Y-117059523D01*
X78667319Y-117059523D02*
X79667319Y-116630952D01*
X80952857Y-159104819D02*
X81286190Y-158628628D01*
X81524285Y-159104819D02*
X81524285Y-158104819D01*
X81524285Y-158104819D02*
X81143333Y-158104819D01*
X81143333Y-158104819D02*
X81048095Y-158152438D01*
X81048095Y-158152438D02*
X81000476Y-158200057D01*
X81000476Y-158200057D02*
X80952857Y-158295295D01*
X80952857Y-158295295D02*
X80952857Y-158438152D01*
X80952857Y-158438152D02*
X81000476Y-158533390D01*
X81000476Y-158533390D02*
X81048095Y-158581009D01*
X81048095Y-158581009D02*
X81143333Y-158628628D01*
X81143333Y-158628628D02*
X81524285Y-158628628D01*
X80571904Y-158200057D02*
X80524285Y-158152438D01*
X80524285Y-158152438D02*
X80429047Y-158104819D01*
X80429047Y-158104819D02*
X80190952Y-158104819D01*
X80190952Y-158104819D02*
X80095714Y-158152438D01*
X80095714Y-158152438D02*
X80048095Y-158200057D01*
X80048095Y-158200057D02*
X80000476Y-158295295D01*
X80000476Y-158295295D02*
X80000476Y-158390533D01*
X80000476Y-158390533D02*
X80048095Y-158533390D01*
X80048095Y-158533390D02*
X80619523Y-159104819D01*
X80619523Y-159104819D02*
X80000476Y-159104819D01*
X79667142Y-158104819D02*
X79048095Y-158104819D01*
X79048095Y-158104819D02*
X79381428Y-158485771D01*
X79381428Y-158485771D02*
X79238571Y-158485771D01*
X79238571Y-158485771D02*
X79143333Y-158533390D01*
X79143333Y-158533390D02*
X79095714Y-158581009D01*
X79095714Y-158581009D02*
X79048095Y-158676247D01*
X79048095Y-158676247D02*
X79048095Y-158914342D01*
X79048095Y-158914342D02*
X79095714Y-159009580D01*
X79095714Y-159009580D02*
X79143333Y-159057200D01*
X79143333Y-159057200D02*
X79238571Y-159104819D01*
X79238571Y-159104819D02*
X79524285Y-159104819D01*
X79524285Y-159104819D02*
X79619523Y-159057200D01*
X79619523Y-159057200D02*
X79667142Y-159009580D01*
X79642857Y-119554819D02*
X79976190Y-119078628D01*
X80214285Y-119554819D02*
X80214285Y-118554819D01*
X80214285Y-118554819D02*
X79833333Y-118554819D01*
X79833333Y-118554819D02*
X79738095Y-118602438D01*
X79738095Y-118602438D02*
X79690476Y-118650057D01*
X79690476Y-118650057D02*
X79642857Y-118745295D01*
X79642857Y-118745295D02*
X79642857Y-118888152D01*
X79642857Y-118888152D02*
X79690476Y-118983390D01*
X79690476Y-118983390D02*
X79738095Y-119031009D01*
X79738095Y-119031009D02*
X79833333Y-119078628D01*
X79833333Y-119078628D02*
X80214285Y-119078628D01*
X78690476Y-119554819D02*
X79261904Y-119554819D01*
X78976190Y-119554819D02*
X78976190Y-118554819D01*
X78976190Y-118554819D02*
X79071428Y-118697676D01*
X79071428Y-118697676D02*
X79166666Y-118792914D01*
X79166666Y-118792914D02*
X79261904Y-118840533D01*
X78357142Y-118554819D02*
X77738095Y-118554819D01*
X77738095Y-118554819D02*
X78071428Y-118935771D01*
X78071428Y-118935771D02*
X77928571Y-118935771D01*
X77928571Y-118935771D02*
X77833333Y-118983390D01*
X77833333Y-118983390D02*
X77785714Y-119031009D01*
X77785714Y-119031009D02*
X77738095Y-119126247D01*
X77738095Y-119126247D02*
X77738095Y-119364342D01*
X77738095Y-119364342D02*
X77785714Y-119459580D01*
X77785714Y-119459580D02*
X77833333Y-119507200D01*
X77833333Y-119507200D02*
X77928571Y-119554819D01*
X77928571Y-119554819D02*
X78214285Y-119554819D01*
X78214285Y-119554819D02*
X78309523Y-119507200D01*
X78309523Y-119507200D02*
X78357142Y-119459580D01*
X55042319Y-118833333D02*
X54566128Y-118500000D01*
X55042319Y-118261905D02*
X54042319Y-118261905D01*
X54042319Y-118261905D02*
X54042319Y-118642857D01*
X54042319Y-118642857D02*
X54089938Y-118738095D01*
X54089938Y-118738095D02*
X54137557Y-118785714D01*
X54137557Y-118785714D02*
X54232795Y-118833333D01*
X54232795Y-118833333D02*
X54375652Y-118833333D01*
X54375652Y-118833333D02*
X54470890Y-118785714D01*
X54470890Y-118785714D02*
X54518509Y-118738095D01*
X54518509Y-118738095D02*
X54566128Y-118642857D01*
X54566128Y-118642857D02*
X54566128Y-118261905D01*
X54042319Y-119738095D02*
X54042319Y-119261905D01*
X54042319Y-119261905D02*
X54518509Y-119214286D01*
X54518509Y-119214286D02*
X54470890Y-119261905D01*
X54470890Y-119261905D02*
X54423271Y-119357143D01*
X54423271Y-119357143D02*
X54423271Y-119595238D01*
X54423271Y-119595238D02*
X54470890Y-119690476D01*
X54470890Y-119690476D02*
X54518509Y-119738095D01*
X54518509Y-119738095D02*
X54613747Y-119785714D01*
X54613747Y-119785714D02*
X54851842Y-119785714D01*
X54851842Y-119785714D02*
X54947080Y-119738095D01*
X54947080Y-119738095D02*
X54994700Y-119690476D01*
X54994700Y-119690476D02*
X55042319Y-119595238D01*
X55042319Y-119595238D02*
X55042319Y-119357143D01*
X55042319Y-119357143D02*
X54994700Y-119261905D01*
X54994700Y-119261905D02*
X54947080Y-119214286D01*
X88242857Y-121354819D02*
X88576190Y-120878628D01*
X88814285Y-121354819D02*
X88814285Y-120354819D01*
X88814285Y-120354819D02*
X88433333Y-120354819D01*
X88433333Y-120354819D02*
X88338095Y-120402438D01*
X88338095Y-120402438D02*
X88290476Y-120450057D01*
X88290476Y-120450057D02*
X88242857Y-120545295D01*
X88242857Y-120545295D02*
X88242857Y-120688152D01*
X88242857Y-120688152D02*
X88290476Y-120783390D01*
X88290476Y-120783390D02*
X88338095Y-120831009D01*
X88338095Y-120831009D02*
X88433333Y-120878628D01*
X88433333Y-120878628D02*
X88814285Y-120878628D01*
X87290476Y-121354819D02*
X87861904Y-121354819D01*
X87576190Y-121354819D02*
X87576190Y-120354819D01*
X87576190Y-120354819D02*
X87671428Y-120497676D01*
X87671428Y-120497676D02*
X87766666Y-120592914D01*
X87766666Y-120592914D02*
X87861904Y-120640533D01*
X86719047Y-120783390D02*
X86814285Y-120735771D01*
X86814285Y-120735771D02*
X86861904Y-120688152D01*
X86861904Y-120688152D02*
X86909523Y-120592914D01*
X86909523Y-120592914D02*
X86909523Y-120545295D01*
X86909523Y-120545295D02*
X86861904Y-120450057D01*
X86861904Y-120450057D02*
X86814285Y-120402438D01*
X86814285Y-120402438D02*
X86719047Y-120354819D01*
X86719047Y-120354819D02*
X86528571Y-120354819D01*
X86528571Y-120354819D02*
X86433333Y-120402438D01*
X86433333Y-120402438D02*
X86385714Y-120450057D01*
X86385714Y-120450057D02*
X86338095Y-120545295D01*
X86338095Y-120545295D02*
X86338095Y-120592914D01*
X86338095Y-120592914D02*
X86385714Y-120688152D01*
X86385714Y-120688152D02*
X86433333Y-120735771D01*
X86433333Y-120735771D02*
X86528571Y-120783390D01*
X86528571Y-120783390D02*
X86719047Y-120783390D01*
X86719047Y-120783390D02*
X86814285Y-120831009D01*
X86814285Y-120831009D02*
X86861904Y-120878628D01*
X86861904Y-120878628D02*
X86909523Y-120973866D01*
X86909523Y-120973866D02*
X86909523Y-121164342D01*
X86909523Y-121164342D02*
X86861904Y-121259580D01*
X86861904Y-121259580D02*
X86814285Y-121307200D01*
X86814285Y-121307200D02*
X86719047Y-121354819D01*
X86719047Y-121354819D02*
X86528571Y-121354819D01*
X86528571Y-121354819D02*
X86433333Y-121307200D01*
X86433333Y-121307200D02*
X86385714Y-121259580D01*
X86385714Y-121259580D02*
X86338095Y-121164342D01*
X86338095Y-121164342D02*
X86338095Y-120973866D01*
X86338095Y-120973866D02*
X86385714Y-120878628D01*
X86385714Y-120878628D02*
X86433333Y-120831009D01*
X86433333Y-120831009D02*
X86528571Y-120783390D01*
X61604819Y-144261905D02*
X60604819Y-144261905D01*
X60604819Y-144261905D02*
X60604819Y-144500000D01*
X60604819Y-144500000D02*
X60652438Y-144642857D01*
X60652438Y-144642857D02*
X60747676Y-144738095D01*
X60747676Y-144738095D02*
X60842914Y-144785714D01*
X60842914Y-144785714D02*
X61033390Y-144833333D01*
X61033390Y-144833333D02*
X61176247Y-144833333D01*
X61176247Y-144833333D02*
X61366723Y-144785714D01*
X61366723Y-144785714D02*
X61461961Y-144738095D01*
X61461961Y-144738095D02*
X61557200Y-144642857D01*
X61557200Y-144642857D02*
X61604819Y-144500000D01*
X61604819Y-144500000D02*
X61604819Y-144261905D01*
X61604819Y-145785714D02*
X61604819Y-145214286D01*
X61604819Y-145500000D02*
X60604819Y-145500000D01*
X60604819Y-145500000D02*
X60747676Y-145404762D01*
X60747676Y-145404762D02*
X60842914Y-145309524D01*
X60842914Y-145309524D02*
X60890533Y-145214286D01*
X73105357Y-111054819D02*
X73438690Y-110578628D01*
X73676785Y-111054819D02*
X73676785Y-110054819D01*
X73676785Y-110054819D02*
X73295833Y-110054819D01*
X73295833Y-110054819D02*
X73200595Y-110102438D01*
X73200595Y-110102438D02*
X73152976Y-110150057D01*
X73152976Y-110150057D02*
X73105357Y-110245295D01*
X73105357Y-110245295D02*
X73105357Y-110388152D01*
X73105357Y-110388152D02*
X73152976Y-110483390D01*
X73152976Y-110483390D02*
X73200595Y-110531009D01*
X73200595Y-110531009D02*
X73295833Y-110578628D01*
X73295833Y-110578628D02*
X73676785Y-110578628D01*
X72724404Y-110150057D02*
X72676785Y-110102438D01*
X72676785Y-110102438D02*
X72581547Y-110054819D01*
X72581547Y-110054819D02*
X72343452Y-110054819D01*
X72343452Y-110054819D02*
X72248214Y-110102438D01*
X72248214Y-110102438D02*
X72200595Y-110150057D01*
X72200595Y-110150057D02*
X72152976Y-110245295D01*
X72152976Y-110245295D02*
X72152976Y-110340533D01*
X72152976Y-110340533D02*
X72200595Y-110483390D01*
X72200595Y-110483390D02*
X72772023Y-111054819D01*
X72772023Y-111054819D02*
X72152976Y-111054819D01*
X71772023Y-110150057D02*
X71724404Y-110102438D01*
X71724404Y-110102438D02*
X71629166Y-110054819D01*
X71629166Y-110054819D02*
X71391071Y-110054819D01*
X71391071Y-110054819D02*
X71295833Y-110102438D01*
X71295833Y-110102438D02*
X71248214Y-110150057D01*
X71248214Y-110150057D02*
X71200595Y-110245295D01*
X71200595Y-110245295D02*
X71200595Y-110340533D01*
X71200595Y-110340533D02*
X71248214Y-110483390D01*
X71248214Y-110483390D02*
X71819642Y-111054819D01*
X71819642Y-111054819D02*
X71200595Y-111054819D01*
X52204819Y-118261905D02*
X51204819Y-118261905D01*
X51204819Y-118261905D02*
X51204819Y-118500000D01*
X51204819Y-118500000D02*
X51252438Y-118642857D01*
X51252438Y-118642857D02*
X51347676Y-118738095D01*
X51347676Y-118738095D02*
X51442914Y-118785714D01*
X51442914Y-118785714D02*
X51633390Y-118833333D01*
X51633390Y-118833333D02*
X51776247Y-118833333D01*
X51776247Y-118833333D02*
X51966723Y-118785714D01*
X51966723Y-118785714D02*
X52061961Y-118738095D01*
X52061961Y-118738095D02*
X52157200Y-118642857D01*
X52157200Y-118642857D02*
X52204819Y-118500000D01*
X52204819Y-118500000D02*
X52204819Y-118261905D01*
X51300057Y-119214286D02*
X51252438Y-119261905D01*
X51252438Y-119261905D02*
X51204819Y-119357143D01*
X51204819Y-119357143D02*
X51204819Y-119595238D01*
X51204819Y-119595238D02*
X51252438Y-119690476D01*
X51252438Y-119690476D02*
X51300057Y-119738095D01*
X51300057Y-119738095D02*
X51395295Y-119785714D01*
X51395295Y-119785714D02*
X51490533Y-119785714D01*
X51490533Y-119785714D02*
X51633390Y-119738095D01*
X51633390Y-119738095D02*
X52204819Y-119166667D01*
X52204819Y-119166667D02*
X52204819Y-119785714D01*
X51416666Y-65109580D02*
X51464285Y-65157200D01*
X51464285Y-65157200D02*
X51607142Y-65204819D01*
X51607142Y-65204819D02*
X51702380Y-65204819D01*
X51702380Y-65204819D02*
X51845237Y-65157200D01*
X51845237Y-65157200D02*
X51940475Y-65061961D01*
X51940475Y-65061961D02*
X51988094Y-64966723D01*
X51988094Y-64966723D02*
X52035713Y-64776247D01*
X52035713Y-64776247D02*
X52035713Y-64633390D01*
X52035713Y-64633390D02*
X51988094Y-64442914D01*
X51988094Y-64442914D02*
X51940475Y-64347676D01*
X51940475Y-64347676D02*
X51845237Y-64252438D01*
X51845237Y-64252438D02*
X51702380Y-64204819D01*
X51702380Y-64204819D02*
X51607142Y-64204819D01*
X51607142Y-64204819D02*
X51464285Y-64252438D01*
X51464285Y-64252438D02*
X51416666Y-64300057D01*
X50559523Y-64204819D02*
X50749999Y-64204819D01*
X50749999Y-64204819D02*
X50845237Y-64252438D01*
X50845237Y-64252438D02*
X50892856Y-64300057D01*
X50892856Y-64300057D02*
X50988094Y-64442914D01*
X50988094Y-64442914D02*
X51035713Y-64633390D01*
X51035713Y-64633390D02*
X51035713Y-65014342D01*
X51035713Y-65014342D02*
X50988094Y-65109580D01*
X50988094Y-65109580D02*
X50940475Y-65157200D01*
X50940475Y-65157200D02*
X50845237Y-65204819D01*
X50845237Y-65204819D02*
X50654761Y-65204819D01*
X50654761Y-65204819D02*
X50559523Y-65157200D01*
X50559523Y-65157200D02*
X50511904Y-65109580D01*
X50511904Y-65109580D02*
X50464285Y-65014342D01*
X50464285Y-65014342D02*
X50464285Y-64776247D01*
X50464285Y-64776247D02*
X50511904Y-64681009D01*
X50511904Y-64681009D02*
X50559523Y-64633390D01*
X50559523Y-64633390D02*
X50654761Y-64585771D01*
X50654761Y-64585771D02*
X50845237Y-64585771D01*
X50845237Y-64585771D02*
X50940475Y-64633390D01*
X50940475Y-64633390D02*
X50988094Y-64681009D01*
X50988094Y-64681009D02*
X51035713Y-64776247D01*
X78804819Y-141357142D02*
X78328628Y-141023809D01*
X78804819Y-140785714D02*
X77804819Y-140785714D01*
X77804819Y-140785714D02*
X77804819Y-141166666D01*
X77804819Y-141166666D02*
X77852438Y-141261904D01*
X77852438Y-141261904D02*
X77900057Y-141309523D01*
X77900057Y-141309523D02*
X77995295Y-141357142D01*
X77995295Y-141357142D02*
X78138152Y-141357142D01*
X78138152Y-141357142D02*
X78233390Y-141309523D01*
X78233390Y-141309523D02*
X78281009Y-141261904D01*
X78281009Y-141261904D02*
X78328628Y-141166666D01*
X78328628Y-141166666D02*
X78328628Y-140785714D01*
X77900057Y-141738095D02*
X77852438Y-141785714D01*
X77852438Y-141785714D02*
X77804819Y-141880952D01*
X77804819Y-141880952D02*
X77804819Y-142119047D01*
X77804819Y-142119047D02*
X77852438Y-142214285D01*
X77852438Y-142214285D02*
X77900057Y-142261904D01*
X77900057Y-142261904D02*
X77995295Y-142309523D01*
X77995295Y-142309523D02*
X78090533Y-142309523D01*
X78090533Y-142309523D02*
X78233390Y-142261904D01*
X78233390Y-142261904D02*
X78804819Y-141690476D01*
X78804819Y-141690476D02*
X78804819Y-142309523D01*
X78138152Y-143166666D02*
X78804819Y-143166666D01*
X77757200Y-142928571D02*
X78471485Y-142690476D01*
X78471485Y-142690476D02*
X78471485Y-143309523D01*
X79916666Y-102039580D02*
X79964285Y-102087200D01*
X79964285Y-102087200D02*
X80107142Y-102134819D01*
X80107142Y-102134819D02*
X80202380Y-102134819D01*
X80202380Y-102134819D02*
X80345237Y-102087200D01*
X80345237Y-102087200D02*
X80440475Y-101991961D01*
X80440475Y-101991961D02*
X80488094Y-101896723D01*
X80488094Y-101896723D02*
X80535713Y-101706247D01*
X80535713Y-101706247D02*
X80535713Y-101563390D01*
X80535713Y-101563390D02*
X80488094Y-101372914D01*
X80488094Y-101372914D02*
X80440475Y-101277676D01*
X80440475Y-101277676D02*
X80345237Y-101182438D01*
X80345237Y-101182438D02*
X80202380Y-101134819D01*
X80202380Y-101134819D02*
X80107142Y-101134819D01*
X80107142Y-101134819D02*
X79964285Y-101182438D01*
X79964285Y-101182438D02*
X79916666Y-101230057D01*
X79535713Y-101230057D02*
X79488094Y-101182438D01*
X79488094Y-101182438D02*
X79392856Y-101134819D01*
X79392856Y-101134819D02*
X79154761Y-101134819D01*
X79154761Y-101134819D02*
X79059523Y-101182438D01*
X79059523Y-101182438D02*
X79011904Y-101230057D01*
X79011904Y-101230057D02*
X78964285Y-101325295D01*
X78964285Y-101325295D02*
X78964285Y-101420533D01*
X78964285Y-101420533D02*
X79011904Y-101563390D01*
X79011904Y-101563390D02*
X79583332Y-102134819D01*
X79583332Y-102134819D02*
X78964285Y-102134819D01*
X81366666Y-131124580D02*
X81414285Y-131172200D01*
X81414285Y-131172200D02*
X81557142Y-131219819D01*
X81557142Y-131219819D02*
X81652380Y-131219819D01*
X81652380Y-131219819D02*
X81795237Y-131172200D01*
X81795237Y-131172200D02*
X81890475Y-131076961D01*
X81890475Y-131076961D02*
X81938094Y-130981723D01*
X81938094Y-130981723D02*
X81985713Y-130791247D01*
X81985713Y-130791247D02*
X81985713Y-130648390D01*
X81985713Y-130648390D02*
X81938094Y-130457914D01*
X81938094Y-130457914D02*
X81890475Y-130362676D01*
X81890475Y-130362676D02*
X81795237Y-130267438D01*
X81795237Y-130267438D02*
X81652380Y-130219819D01*
X81652380Y-130219819D02*
X81557142Y-130219819D01*
X81557142Y-130219819D02*
X81414285Y-130267438D01*
X81414285Y-130267438D02*
X81366666Y-130315057D01*
X80509523Y-130553152D02*
X80509523Y-131219819D01*
X80747618Y-130172200D02*
X80985713Y-130886485D01*
X80985713Y-130886485D02*
X80366666Y-130886485D01*
X58129166Y-96609580D02*
X58176785Y-96657200D01*
X58176785Y-96657200D02*
X58319642Y-96704819D01*
X58319642Y-96704819D02*
X58414880Y-96704819D01*
X58414880Y-96704819D02*
X58557737Y-96657200D01*
X58557737Y-96657200D02*
X58652975Y-96561961D01*
X58652975Y-96561961D02*
X58700594Y-96466723D01*
X58700594Y-96466723D02*
X58748213Y-96276247D01*
X58748213Y-96276247D02*
X58748213Y-96133390D01*
X58748213Y-96133390D02*
X58700594Y-95942914D01*
X58700594Y-95942914D02*
X58652975Y-95847676D01*
X58652975Y-95847676D02*
X58557737Y-95752438D01*
X58557737Y-95752438D02*
X58414880Y-95704819D01*
X58414880Y-95704819D02*
X58319642Y-95704819D01*
X58319642Y-95704819D02*
X58176785Y-95752438D01*
X58176785Y-95752438D02*
X58129166Y-95800057D01*
X57224404Y-95704819D02*
X57700594Y-95704819D01*
X57700594Y-95704819D02*
X57748213Y-96181009D01*
X57748213Y-96181009D02*
X57700594Y-96133390D01*
X57700594Y-96133390D02*
X57605356Y-96085771D01*
X57605356Y-96085771D02*
X57367261Y-96085771D01*
X57367261Y-96085771D02*
X57272023Y-96133390D01*
X57272023Y-96133390D02*
X57224404Y-96181009D01*
X57224404Y-96181009D02*
X57176785Y-96276247D01*
X57176785Y-96276247D02*
X57176785Y-96514342D01*
X57176785Y-96514342D02*
X57224404Y-96609580D01*
X57224404Y-96609580D02*
X57272023Y-96657200D01*
X57272023Y-96657200D02*
X57367261Y-96704819D01*
X57367261Y-96704819D02*
X57605356Y-96704819D01*
X57605356Y-96704819D02*
X57700594Y-96657200D01*
X57700594Y-96657200D02*
X57748213Y-96609580D01*
X70792857Y-86454819D02*
X71126190Y-85978628D01*
X71364285Y-86454819D02*
X71364285Y-85454819D01*
X71364285Y-85454819D02*
X70983333Y-85454819D01*
X70983333Y-85454819D02*
X70888095Y-85502438D01*
X70888095Y-85502438D02*
X70840476Y-85550057D01*
X70840476Y-85550057D02*
X70792857Y-85645295D01*
X70792857Y-85645295D02*
X70792857Y-85788152D01*
X70792857Y-85788152D02*
X70840476Y-85883390D01*
X70840476Y-85883390D02*
X70888095Y-85931009D01*
X70888095Y-85931009D02*
X70983333Y-85978628D01*
X70983333Y-85978628D02*
X71364285Y-85978628D01*
X69840476Y-86454819D02*
X70411904Y-86454819D01*
X70126190Y-86454819D02*
X70126190Y-85454819D01*
X70126190Y-85454819D02*
X70221428Y-85597676D01*
X70221428Y-85597676D02*
X70316666Y-85692914D01*
X70316666Y-85692914D02*
X70411904Y-85740533D01*
X68983333Y-85454819D02*
X69173809Y-85454819D01*
X69173809Y-85454819D02*
X69269047Y-85502438D01*
X69269047Y-85502438D02*
X69316666Y-85550057D01*
X69316666Y-85550057D02*
X69411904Y-85692914D01*
X69411904Y-85692914D02*
X69459523Y-85883390D01*
X69459523Y-85883390D02*
X69459523Y-86264342D01*
X69459523Y-86264342D02*
X69411904Y-86359580D01*
X69411904Y-86359580D02*
X69364285Y-86407200D01*
X69364285Y-86407200D02*
X69269047Y-86454819D01*
X69269047Y-86454819D02*
X69078571Y-86454819D01*
X69078571Y-86454819D02*
X68983333Y-86407200D01*
X68983333Y-86407200D02*
X68935714Y-86359580D01*
X68935714Y-86359580D02*
X68888095Y-86264342D01*
X68888095Y-86264342D02*
X68888095Y-86026247D01*
X68888095Y-86026247D02*
X68935714Y-85931009D01*
X68935714Y-85931009D02*
X68983333Y-85883390D01*
X68983333Y-85883390D02*
X69078571Y-85835771D01*
X69078571Y-85835771D02*
X69269047Y-85835771D01*
X69269047Y-85835771D02*
X69364285Y-85883390D01*
X69364285Y-85883390D02*
X69411904Y-85931009D01*
X69411904Y-85931009D02*
X69459523Y-86026247D01*
X71392857Y-117109580D02*
X71440476Y-117157200D01*
X71440476Y-117157200D02*
X71583333Y-117204819D01*
X71583333Y-117204819D02*
X71678571Y-117204819D01*
X71678571Y-117204819D02*
X71821428Y-117157200D01*
X71821428Y-117157200D02*
X71916666Y-117061961D01*
X71916666Y-117061961D02*
X71964285Y-116966723D01*
X71964285Y-116966723D02*
X72011904Y-116776247D01*
X72011904Y-116776247D02*
X72011904Y-116633390D01*
X72011904Y-116633390D02*
X71964285Y-116442914D01*
X71964285Y-116442914D02*
X71916666Y-116347676D01*
X71916666Y-116347676D02*
X71821428Y-116252438D01*
X71821428Y-116252438D02*
X71678571Y-116204819D01*
X71678571Y-116204819D02*
X71583333Y-116204819D01*
X71583333Y-116204819D02*
X71440476Y-116252438D01*
X71440476Y-116252438D02*
X71392857Y-116300057D01*
X70440476Y-117204819D02*
X71011904Y-117204819D01*
X70726190Y-117204819D02*
X70726190Y-116204819D01*
X70726190Y-116204819D02*
X70821428Y-116347676D01*
X70821428Y-116347676D02*
X70916666Y-116442914D01*
X70916666Y-116442914D02*
X71011904Y-116490533D01*
X69488095Y-117204819D02*
X70059523Y-117204819D01*
X69773809Y-117204819D02*
X69773809Y-116204819D01*
X69773809Y-116204819D02*
X69869047Y-116347676D01*
X69869047Y-116347676D02*
X69964285Y-116442914D01*
X69964285Y-116442914D02*
X70059523Y-116490533D01*
X59359580Y-145133333D02*
X59407200Y-145085714D01*
X59407200Y-145085714D02*
X59454819Y-144942857D01*
X59454819Y-144942857D02*
X59454819Y-144847619D01*
X59454819Y-144847619D02*
X59407200Y-144704762D01*
X59407200Y-144704762D02*
X59311961Y-144609524D01*
X59311961Y-144609524D02*
X59216723Y-144561905D01*
X59216723Y-144561905D02*
X59026247Y-144514286D01*
X59026247Y-144514286D02*
X58883390Y-144514286D01*
X58883390Y-144514286D02*
X58692914Y-144561905D01*
X58692914Y-144561905D02*
X58597676Y-144609524D01*
X58597676Y-144609524D02*
X58502438Y-144704762D01*
X58502438Y-144704762D02*
X58454819Y-144847619D01*
X58454819Y-144847619D02*
X58454819Y-144942857D01*
X58454819Y-144942857D02*
X58502438Y-145085714D01*
X58502438Y-145085714D02*
X58550057Y-145133333D01*
X59454819Y-146085714D02*
X59454819Y-145514286D01*
X59454819Y-145800000D02*
X58454819Y-145800000D01*
X58454819Y-145800000D02*
X58597676Y-145704762D01*
X58597676Y-145704762D02*
X58692914Y-145609524D01*
X58692914Y-145609524D02*
X58740533Y-145514286D01*
X78405357Y-137454819D02*
X78738690Y-136978628D01*
X78976785Y-137454819D02*
X78976785Y-136454819D01*
X78976785Y-136454819D02*
X78595833Y-136454819D01*
X78595833Y-136454819D02*
X78500595Y-136502438D01*
X78500595Y-136502438D02*
X78452976Y-136550057D01*
X78452976Y-136550057D02*
X78405357Y-136645295D01*
X78405357Y-136645295D02*
X78405357Y-136788152D01*
X78405357Y-136788152D02*
X78452976Y-136883390D01*
X78452976Y-136883390D02*
X78500595Y-136931009D01*
X78500595Y-136931009D02*
X78595833Y-136978628D01*
X78595833Y-136978628D02*
X78976785Y-136978628D01*
X77452976Y-137454819D02*
X78024404Y-137454819D01*
X77738690Y-137454819D02*
X77738690Y-136454819D01*
X77738690Y-136454819D02*
X77833928Y-136597676D01*
X77833928Y-136597676D02*
X77929166Y-136692914D01*
X77929166Y-136692914D02*
X78024404Y-136740533D01*
X76833928Y-136454819D02*
X76738690Y-136454819D01*
X76738690Y-136454819D02*
X76643452Y-136502438D01*
X76643452Y-136502438D02*
X76595833Y-136550057D01*
X76595833Y-136550057D02*
X76548214Y-136645295D01*
X76548214Y-136645295D02*
X76500595Y-136835771D01*
X76500595Y-136835771D02*
X76500595Y-137073866D01*
X76500595Y-137073866D02*
X76548214Y-137264342D01*
X76548214Y-137264342D02*
X76595833Y-137359580D01*
X76595833Y-137359580D02*
X76643452Y-137407200D01*
X76643452Y-137407200D02*
X76738690Y-137454819D01*
X76738690Y-137454819D02*
X76833928Y-137454819D01*
X76833928Y-137454819D02*
X76929166Y-137407200D01*
X76929166Y-137407200D02*
X76976785Y-137359580D01*
X76976785Y-137359580D02*
X77024404Y-137264342D01*
X77024404Y-137264342D02*
X77072023Y-137073866D01*
X77072023Y-137073866D02*
X77072023Y-136835771D01*
X77072023Y-136835771D02*
X77024404Y-136645295D01*
X77024404Y-136645295D02*
X76976785Y-136550057D01*
X76976785Y-136550057D02*
X76929166Y-136502438D01*
X76929166Y-136502438D02*
X76833928Y-136454819D01*
X69550057Y-118942261D02*
X69502438Y-118847023D01*
X69502438Y-118847023D02*
X69407200Y-118751785D01*
X69407200Y-118751785D02*
X69264342Y-118608928D01*
X69264342Y-118608928D02*
X69216723Y-118513690D01*
X69216723Y-118513690D02*
X69216723Y-118418452D01*
X69454819Y-118466071D02*
X69407200Y-118370833D01*
X69407200Y-118370833D02*
X69311961Y-118275595D01*
X69311961Y-118275595D02*
X69121485Y-118227976D01*
X69121485Y-118227976D02*
X68788152Y-118227976D01*
X68788152Y-118227976D02*
X68597676Y-118275595D01*
X68597676Y-118275595D02*
X68502438Y-118370833D01*
X68502438Y-118370833D02*
X68454819Y-118466071D01*
X68454819Y-118466071D02*
X68454819Y-118656547D01*
X68454819Y-118656547D02*
X68502438Y-118751785D01*
X68502438Y-118751785D02*
X68597676Y-118847023D01*
X68597676Y-118847023D02*
X68788152Y-118894642D01*
X68788152Y-118894642D02*
X69121485Y-118894642D01*
X69121485Y-118894642D02*
X69311961Y-118847023D01*
X69311961Y-118847023D02*
X69407200Y-118751785D01*
X69407200Y-118751785D02*
X69454819Y-118656547D01*
X69454819Y-118656547D02*
X69454819Y-118466071D01*
X68550057Y-119275595D02*
X68502438Y-119323214D01*
X68502438Y-119323214D02*
X68454819Y-119418452D01*
X68454819Y-119418452D02*
X68454819Y-119656547D01*
X68454819Y-119656547D02*
X68502438Y-119751785D01*
X68502438Y-119751785D02*
X68550057Y-119799404D01*
X68550057Y-119799404D02*
X68645295Y-119847023D01*
X68645295Y-119847023D02*
X68740533Y-119847023D01*
X68740533Y-119847023D02*
X68883390Y-119799404D01*
X68883390Y-119799404D02*
X69454819Y-119227976D01*
X69454819Y-119227976D02*
X69454819Y-119847023D01*
X82716666Y-97404819D02*
X83049999Y-96928628D01*
X83288094Y-97404819D02*
X83288094Y-96404819D01*
X83288094Y-96404819D02*
X82907142Y-96404819D01*
X82907142Y-96404819D02*
X82811904Y-96452438D01*
X82811904Y-96452438D02*
X82764285Y-96500057D01*
X82764285Y-96500057D02*
X82716666Y-96595295D01*
X82716666Y-96595295D02*
X82716666Y-96738152D01*
X82716666Y-96738152D02*
X82764285Y-96833390D01*
X82764285Y-96833390D02*
X82811904Y-96881009D01*
X82811904Y-96881009D02*
X82907142Y-96928628D01*
X82907142Y-96928628D02*
X83288094Y-96928628D01*
X82383332Y-96404819D02*
X81764285Y-96404819D01*
X81764285Y-96404819D02*
X82097618Y-96785771D01*
X82097618Y-96785771D02*
X81954761Y-96785771D01*
X81954761Y-96785771D02*
X81859523Y-96833390D01*
X81859523Y-96833390D02*
X81811904Y-96881009D01*
X81811904Y-96881009D02*
X81764285Y-96976247D01*
X81764285Y-96976247D02*
X81764285Y-97214342D01*
X81764285Y-97214342D02*
X81811904Y-97309580D01*
X81811904Y-97309580D02*
X81859523Y-97357200D01*
X81859523Y-97357200D02*
X81954761Y-97404819D01*
X81954761Y-97404819D02*
X82240475Y-97404819D01*
X82240475Y-97404819D02*
X82335713Y-97357200D01*
X82335713Y-97357200D02*
X82383332Y-97309580D01*
X70511904Y-94454819D02*
X69940476Y-94454819D01*
X70226190Y-95454819D02*
X70226190Y-94454819D01*
X69607142Y-95454819D02*
X69607142Y-94454819D01*
X69607142Y-94454819D02*
X69226190Y-94454819D01*
X69226190Y-94454819D02*
X69130952Y-94502438D01*
X69130952Y-94502438D02*
X69083333Y-94550057D01*
X69083333Y-94550057D02*
X69035714Y-94645295D01*
X69035714Y-94645295D02*
X69035714Y-94788152D01*
X69035714Y-94788152D02*
X69083333Y-94883390D01*
X69083333Y-94883390D02*
X69130952Y-94931009D01*
X69130952Y-94931009D02*
X69226190Y-94978628D01*
X69226190Y-94978628D02*
X69607142Y-94978628D01*
X68130952Y-94454819D02*
X68607142Y-94454819D01*
X68607142Y-94454819D02*
X68654761Y-94931009D01*
X68654761Y-94931009D02*
X68607142Y-94883390D01*
X68607142Y-94883390D02*
X68511904Y-94835771D01*
X68511904Y-94835771D02*
X68273809Y-94835771D01*
X68273809Y-94835771D02*
X68178571Y-94883390D01*
X68178571Y-94883390D02*
X68130952Y-94931009D01*
X68130952Y-94931009D02*
X68083333Y-95026247D01*
X68083333Y-95026247D02*
X68083333Y-95264342D01*
X68083333Y-95264342D02*
X68130952Y-95359580D01*
X68130952Y-95359580D02*
X68178571Y-95407200D01*
X68178571Y-95407200D02*
X68273809Y-95454819D01*
X68273809Y-95454819D02*
X68511904Y-95454819D01*
X68511904Y-95454819D02*
X68607142Y-95407200D01*
X68607142Y-95407200D02*
X68654761Y-95359580D01*
X59053094Y-98954819D02*
X59053094Y-97954819D01*
X59053094Y-97954819D02*
X58814999Y-97954819D01*
X58814999Y-97954819D02*
X58672142Y-98002438D01*
X58672142Y-98002438D02*
X58576904Y-98097676D01*
X58576904Y-98097676D02*
X58529285Y-98192914D01*
X58529285Y-98192914D02*
X58481666Y-98383390D01*
X58481666Y-98383390D02*
X58481666Y-98526247D01*
X58481666Y-98526247D02*
X58529285Y-98716723D01*
X58529285Y-98716723D02*
X58576904Y-98811961D01*
X58576904Y-98811961D02*
X58672142Y-98907200D01*
X58672142Y-98907200D02*
X58814999Y-98954819D01*
X58814999Y-98954819D02*
X59053094Y-98954819D01*
X57910237Y-98383390D02*
X58005475Y-98335771D01*
X58005475Y-98335771D02*
X58053094Y-98288152D01*
X58053094Y-98288152D02*
X58100713Y-98192914D01*
X58100713Y-98192914D02*
X58100713Y-98145295D01*
X58100713Y-98145295D02*
X58053094Y-98050057D01*
X58053094Y-98050057D02*
X58005475Y-98002438D01*
X58005475Y-98002438D02*
X57910237Y-97954819D01*
X57910237Y-97954819D02*
X57719761Y-97954819D01*
X57719761Y-97954819D02*
X57624523Y-98002438D01*
X57624523Y-98002438D02*
X57576904Y-98050057D01*
X57576904Y-98050057D02*
X57529285Y-98145295D01*
X57529285Y-98145295D02*
X57529285Y-98192914D01*
X57529285Y-98192914D02*
X57576904Y-98288152D01*
X57576904Y-98288152D02*
X57624523Y-98335771D01*
X57624523Y-98335771D02*
X57719761Y-98383390D01*
X57719761Y-98383390D02*
X57910237Y-98383390D01*
X57910237Y-98383390D02*
X58005475Y-98431009D01*
X58005475Y-98431009D02*
X58053094Y-98478628D01*
X58053094Y-98478628D02*
X58100713Y-98573866D01*
X58100713Y-98573866D02*
X58100713Y-98764342D01*
X58100713Y-98764342D02*
X58053094Y-98859580D01*
X58053094Y-98859580D02*
X58005475Y-98907200D01*
X58005475Y-98907200D02*
X57910237Y-98954819D01*
X57910237Y-98954819D02*
X57719761Y-98954819D01*
X57719761Y-98954819D02*
X57624523Y-98907200D01*
X57624523Y-98907200D02*
X57576904Y-98859580D01*
X57576904Y-98859580D02*
X57529285Y-98764342D01*
X57529285Y-98764342D02*
X57529285Y-98573866D01*
X57529285Y-98573866D02*
X57576904Y-98478628D01*
X57576904Y-98478628D02*
X57624523Y-98431009D01*
X57624523Y-98431009D02*
X57719761Y-98383390D01*
X79504819Y-91033333D02*
X79028628Y-90700000D01*
X79504819Y-90461905D02*
X78504819Y-90461905D01*
X78504819Y-90461905D02*
X78504819Y-90842857D01*
X78504819Y-90842857D02*
X78552438Y-90938095D01*
X78552438Y-90938095D02*
X78600057Y-90985714D01*
X78600057Y-90985714D02*
X78695295Y-91033333D01*
X78695295Y-91033333D02*
X78838152Y-91033333D01*
X78838152Y-91033333D02*
X78933390Y-90985714D01*
X78933390Y-90985714D02*
X78981009Y-90938095D01*
X78981009Y-90938095D02*
X79028628Y-90842857D01*
X79028628Y-90842857D02*
X79028628Y-90461905D01*
X78838152Y-91890476D02*
X79504819Y-91890476D01*
X78457200Y-91652381D02*
X79171485Y-91414286D01*
X79171485Y-91414286D02*
X79171485Y-92033333D01*
X67416666Y-102039580D02*
X67464285Y-102087200D01*
X67464285Y-102087200D02*
X67607142Y-102134819D01*
X67607142Y-102134819D02*
X67702380Y-102134819D01*
X67702380Y-102134819D02*
X67845237Y-102087200D01*
X67845237Y-102087200D02*
X67940475Y-101991961D01*
X67940475Y-101991961D02*
X67988094Y-101896723D01*
X67988094Y-101896723D02*
X68035713Y-101706247D01*
X68035713Y-101706247D02*
X68035713Y-101563390D01*
X68035713Y-101563390D02*
X67988094Y-101372914D01*
X67988094Y-101372914D02*
X67940475Y-101277676D01*
X67940475Y-101277676D02*
X67845237Y-101182438D01*
X67845237Y-101182438D02*
X67702380Y-101134819D01*
X67702380Y-101134819D02*
X67607142Y-101134819D01*
X67607142Y-101134819D02*
X67464285Y-101182438D01*
X67464285Y-101182438D02*
X67416666Y-101230057D01*
X67083332Y-101134819D02*
X66464285Y-101134819D01*
X66464285Y-101134819D02*
X66797618Y-101515771D01*
X66797618Y-101515771D02*
X66654761Y-101515771D01*
X66654761Y-101515771D02*
X66559523Y-101563390D01*
X66559523Y-101563390D02*
X66511904Y-101611009D01*
X66511904Y-101611009D02*
X66464285Y-101706247D01*
X66464285Y-101706247D02*
X66464285Y-101944342D01*
X66464285Y-101944342D02*
X66511904Y-102039580D01*
X66511904Y-102039580D02*
X66559523Y-102087200D01*
X66559523Y-102087200D02*
X66654761Y-102134819D01*
X66654761Y-102134819D02*
X66940475Y-102134819D01*
X66940475Y-102134819D02*
X67035713Y-102087200D01*
X67035713Y-102087200D02*
X67083332Y-102039580D01*
X58457857Y-94454819D02*
X58791190Y-93978628D01*
X59029285Y-94454819D02*
X59029285Y-93454819D01*
X59029285Y-93454819D02*
X58648333Y-93454819D01*
X58648333Y-93454819D02*
X58553095Y-93502438D01*
X58553095Y-93502438D02*
X58505476Y-93550057D01*
X58505476Y-93550057D02*
X58457857Y-93645295D01*
X58457857Y-93645295D02*
X58457857Y-93788152D01*
X58457857Y-93788152D02*
X58505476Y-93883390D01*
X58505476Y-93883390D02*
X58553095Y-93931009D01*
X58553095Y-93931009D02*
X58648333Y-93978628D01*
X58648333Y-93978628D02*
X59029285Y-93978628D01*
X57505476Y-94454819D02*
X58076904Y-94454819D01*
X57791190Y-94454819D02*
X57791190Y-93454819D01*
X57791190Y-93454819D02*
X57886428Y-93597676D01*
X57886428Y-93597676D02*
X57981666Y-93692914D01*
X57981666Y-93692914D02*
X58076904Y-93740533D01*
X56648333Y-93788152D02*
X56648333Y-94454819D01*
X56886428Y-93407200D02*
X57124523Y-94121485D01*
X57124523Y-94121485D02*
X56505476Y-94121485D01*
X88942857Y-125254819D02*
X89276190Y-124778628D01*
X89514285Y-125254819D02*
X89514285Y-124254819D01*
X89514285Y-124254819D02*
X89133333Y-124254819D01*
X89133333Y-124254819D02*
X89038095Y-124302438D01*
X89038095Y-124302438D02*
X88990476Y-124350057D01*
X88990476Y-124350057D02*
X88942857Y-124445295D01*
X88942857Y-124445295D02*
X88942857Y-124588152D01*
X88942857Y-124588152D02*
X88990476Y-124683390D01*
X88990476Y-124683390D02*
X89038095Y-124731009D01*
X89038095Y-124731009D02*
X89133333Y-124778628D01*
X89133333Y-124778628D02*
X89514285Y-124778628D01*
X87990476Y-125254819D02*
X88561904Y-125254819D01*
X88276190Y-125254819D02*
X88276190Y-124254819D01*
X88276190Y-124254819D02*
X88371428Y-124397676D01*
X88371428Y-124397676D02*
X88466666Y-124492914D01*
X88466666Y-124492914D02*
X88561904Y-124540533D01*
X87085714Y-124254819D02*
X87561904Y-124254819D01*
X87561904Y-124254819D02*
X87609523Y-124731009D01*
X87609523Y-124731009D02*
X87561904Y-124683390D01*
X87561904Y-124683390D02*
X87466666Y-124635771D01*
X87466666Y-124635771D02*
X87228571Y-124635771D01*
X87228571Y-124635771D02*
X87133333Y-124683390D01*
X87133333Y-124683390D02*
X87085714Y-124731009D01*
X87085714Y-124731009D02*
X87038095Y-124826247D01*
X87038095Y-124826247D02*
X87038095Y-125064342D01*
X87038095Y-125064342D02*
X87085714Y-125159580D01*
X87085714Y-125159580D02*
X87133333Y-125207200D01*
X87133333Y-125207200D02*
X87228571Y-125254819D01*
X87228571Y-125254819D02*
X87466666Y-125254819D01*
X87466666Y-125254819D02*
X87561904Y-125207200D01*
X87561904Y-125207200D02*
X87609523Y-125159580D01*
X58275057Y-119042261D02*
X58227438Y-118947023D01*
X58227438Y-118947023D02*
X58132200Y-118851785D01*
X58132200Y-118851785D02*
X57989342Y-118708928D01*
X57989342Y-118708928D02*
X57941723Y-118613690D01*
X57941723Y-118613690D02*
X57941723Y-118518452D01*
X58179819Y-118566071D02*
X58132200Y-118470833D01*
X58132200Y-118470833D02*
X58036961Y-118375595D01*
X58036961Y-118375595D02*
X57846485Y-118327976D01*
X57846485Y-118327976D02*
X57513152Y-118327976D01*
X57513152Y-118327976D02*
X57322676Y-118375595D01*
X57322676Y-118375595D02*
X57227438Y-118470833D01*
X57227438Y-118470833D02*
X57179819Y-118566071D01*
X57179819Y-118566071D02*
X57179819Y-118756547D01*
X57179819Y-118756547D02*
X57227438Y-118851785D01*
X57227438Y-118851785D02*
X57322676Y-118947023D01*
X57322676Y-118947023D02*
X57513152Y-118994642D01*
X57513152Y-118994642D02*
X57846485Y-118994642D01*
X57846485Y-118994642D02*
X58036961Y-118947023D01*
X58036961Y-118947023D02*
X58132200Y-118851785D01*
X58132200Y-118851785D02*
X58179819Y-118756547D01*
X58179819Y-118756547D02*
X58179819Y-118566071D01*
X58179819Y-119947023D02*
X58179819Y-119375595D01*
X58179819Y-119661309D02*
X57179819Y-119661309D01*
X57179819Y-119661309D02*
X57322676Y-119566071D01*
X57322676Y-119566071D02*
X57417914Y-119470833D01*
X57417914Y-119470833D02*
X57465533Y-119375595D01*
X63454819Y-118830833D02*
X62978628Y-118497500D01*
X63454819Y-118259405D02*
X62454819Y-118259405D01*
X62454819Y-118259405D02*
X62454819Y-118640357D01*
X62454819Y-118640357D02*
X62502438Y-118735595D01*
X62502438Y-118735595D02*
X62550057Y-118783214D01*
X62550057Y-118783214D02*
X62645295Y-118830833D01*
X62645295Y-118830833D02*
X62788152Y-118830833D01*
X62788152Y-118830833D02*
X62883390Y-118783214D01*
X62883390Y-118783214D02*
X62931009Y-118735595D01*
X62931009Y-118735595D02*
X62978628Y-118640357D01*
X62978628Y-118640357D02*
X62978628Y-118259405D01*
X62883390Y-119402262D02*
X62835771Y-119307024D01*
X62835771Y-119307024D02*
X62788152Y-119259405D01*
X62788152Y-119259405D02*
X62692914Y-119211786D01*
X62692914Y-119211786D02*
X62645295Y-119211786D01*
X62645295Y-119211786D02*
X62550057Y-119259405D01*
X62550057Y-119259405D02*
X62502438Y-119307024D01*
X62502438Y-119307024D02*
X62454819Y-119402262D01*
X62454819Y-119402262D02*
X62454819Y-119592738D01*
X62454819Y-119592738D02*
X62502438Y-119687976D01*
X62502438Y-119687976D02*
X62550057Y-119735595D01*
X62550057Y-119735595D02*
X62645295Y-119783214D01*
X62645295Y-119783214D02*
X62692914Y-119783214D01*
X62692914Y-119783214D02*
X62788152Y-119735595D01*
X62788152Y-119735595D02*
X62835771Y-119687976D01*
X62835771Y-119687976D02*
X62883390Y-119592738D01*
X62883390Y-119592738D02*
X62883390Y-119402262D01*
X62883390Y-119402262D02*
X62931009Y-119307024D01*
X62931009Y-119307024D02*
X62978628Y-119259405D01*
X62978628Y-119259405D02*
X63073866Y-119211786D01*
X63073866Y-119211786D02*
X63264342Y-119211786D01*
X63264342Y-119211786D02*
X63359580Y-119259405D01*
X63359580Y-119259405D02*
X63407200Y-119307024D01*
X63407200Y-119307024D02*
X63454819Y-119402262D01*
X63454819Y-119402262D02*
X63454819Y-119592738D01*
X63454819Y-119592738D02*
X63407200Y-119687976D01*
X63407200Y-119687976D02*
X63359580Y-119735595D01*
X63359580Y-119735595D02*
X63264342Y-119783214D01*
X63264342Y-119783214D02*
X63073866Y-119783214D01*
X63073866Y-119783214D02*
X62978628Y-119735595D01*
X62978628Y-119735595D02*
X62931009Y-119687976D01*
X62931009Y-119687976D02*
X62883390Y-119592738D01*
X57166666Y-51359580D02*
X57214285Y-51407200D01*
X57214285Y-51407200D02*
X57357142Y-51454819D01*
X57357142Y-51454819D02*
X57452380Y-51454819D01*
X57452380Y-51454819D02*
X57595237Y-51407200D01*
X57595237Y-51407200D02*
X57690475Y-51311961D01*
X57690475Y-51311961D02*
X57738094Y-51216723D01*
X57738094Y-51216723D02*
X57785713Y-51026247D01*
X57785713Y-51026247D02*
X57785713Y-50883390D01*
X57785713Y-50883390D02*
X57738094Y-50692914D01*
X57738094Y-50692914D02*
X57690475Y-50597676D01*
X57690475Y-50597676D02*
X57595237Y-50502438D01*
X57595237Y-50502438D02*
X57452380Y-50454819D01*
X57452380Y-50454819D02*
X57357142Y-50454819D01*
X57357142Y-50454819D02*
X57214285Y-50502438D01*
X57214285Y-50502438D02*
X57166666Y-50550057D01*
X56833332Y-50454819D02*
X56166666Y-50454819D01*
X56166666Y-50454819D02*
X56595237Y-51454819D01*
X61604819Y-154933333D02*
X61128628Y-154600000D01*
X61604819Y-154361905D02*
X60604819Y-154361905D01*
X60604819Y-154361905D02*
X60604819Y-154742857D01*
X60604819Y-154742857D02*
X60652438Y-154838095D01*
X60652438Y-154838095D02*
X60700057Y-154885714D01*
X60700057Y-154885714D02*
X60795295Y-154933333D01*
X60795295Y-154933333D02*
X60938152Y-154933333D01*
X60938152Y-154933333D02*
X61033390Y-154885714D01*
X61033390Y-154885714D02*
X61081009Y-154838095D01*
X61081009Y-154838095D02*
X61128628Y-154742857D01*
X61128628Y-154742857D02*
X61128628Y-154361905D01*
X60700057Y-155314286D02*
X60652438Y-155361905D01*
X60652438Y-155361905D02*
X60604819Y-155457143D01*
X60604819Y-155457143D02*
X60604819Y-155695238D01*
X60604819Y-155695238D02*
X60652438Y-155790476D01*
X60652438Y-155790476D02*
X60700057Y-155838095D01*
X60700057Y-155838095D02*
X60795295Y-155885714D01*
X60795295Y-155885714D02*
X60890533Y-155885714D01*
X60890533Y-155885714D02*
X61033390Y-155838095D01*
X61033390Y-155838095D02*
X61604819Y-155266667D01*
X61604819Y-155266667D02*
X61604819Y-155885714D01*
X88095238Y-134650057D02*
X88190476Y-134602438D01*
X88190476Y-134602438D02*
X88285714Y-134507200D01*
X88285714Y-134507200D02*
X88428571Y-134364342D01*
X88428571Y-134364342D02*
X88523809Y-134316723D01*
X88523809Y-134316723D02*
X88619047Y-134316723D01*
X88571428Y-134554819D02*
X88666666Y-134507200D01*
X88666666Y-134507200D02*
X88761904Y-134411961D01*
X88761904Y-134411961D02*
X88809523Y-134221485D01*
X88809523Y-134221485D02*
X88809523Y-133888152D01*
X88809523Y-133888152D02*
X88761904Y-133697676D01*
X88761904Y-133697676D02*
X88666666Y-133602438D01*
X88666666Y-133602438D02*
X88571428Y-133554819D01*
X88571428Y-133554819D02*
X88380952Y-133554819D01*
X88380952Y-133554819D02*
X88285714Y-133602438D01*
X88285714Y-133602438D02*
X88190476Y-133697676D01*
X88190476Y-133697676D02*
X88142857Y-133888152D01*
X88142857Y-133888152D02*
X88142857Y-134221485D01*
X88142857Y-134221485D02*
X88190476Y-134411961D01*
X88190476Y-134411961D02*
X88285714Y-134507200D01*
X88285714Y-134507200D02*
X88380952Y-134554819D01*
X88380952Y-134554819D02*
X88571428Y-134554819D01*
X87809523Y-133554819D02*
X87190476Y-133554819D01*
X87190476Y-133554819D02*
X87523809Y-133935771D01*
X87523809Y-133935771D02*
X87380952Y-133935771D01*
X87380952Y-133935771D02*
X87285714Y-133983390D01*
X87285714Y-133983390D02*
X87238095Y-134031009D01*
X87238095Y-134031009D02*
X87190476Y-134126247D01*
X87190476Y-134126247D02*
X87190476Y-134364342D01*
X87190476Y-134364342D02*
X87238095Y-134459580D01*
X87238095Y-134459580D02*
X87285714Y-134507200D01*
X87285714Y-134507200D02*
X87380952Y-134554819D01*
X87380952Y-134554819D02*
X87666666Y-134554819D01*
X87666666Y-134554819D02*
X87761904Y-134507200D01*
X87761904Y-134507200D02*
X87809523Y-134459580D01*
X78020238Y-124100057D02*
X78115476Y-124052438D01*
X78115476Y-124052438D02*
X78210714Y-123957200D01*
X78210714Y-123957200D02*
X78353571Y-123814342D01*
X78353571Y-123814342D02*
X78448809Y-123766723D01*
X78448809Y-123766723D02*
X78544047Y-123766723D01*
X78496428Y-124004819D02*
X78591666Y-123957200D01*
X78591666Y-123957200D02*
X78686904Y-123861961D01*
X78686904Y-123861961D02*
X78734523Y-123671485D01*
X78734523Y-123671485D02*
X78734523Y-123338152D01*
X78734523Y-123338152D02*
X78686904Y-123147676D01*
X78686904Y-123147676D02*
X78591666Y-123052438D01*
X78591666Y-123052438D02*
X78496428Y-123004819D01*
X78496428Y-123004819D02*
X78305952Y-123004819D01*
X78305952Y-123004819D02*
X78210714Y-123052438D01*
X78210714Y-123052438D02*
X78115476Y-123147676D01*
X78115476Y-123147676D02*
X78067857Y-123338152D01*
X78067857Y-123338152D02*
X78067857Y-123671485D01*
X78067857Y-123671485D02*
X78115476Y-123861961D01*
X78115476Y-123861961D02*
X78210714Y-123957200D01*
X78210714Y-123957200D02*
X78305952Y-124004819D01*
X78305952Y-124004819D02*
X78496428Y-124004819D01*
X77210714Y-123338152D02*
X77210714Y-124004819D01*
X77448809Y-122957200D02*
X77686904Y-123671485D01*
X77686904Y-123671485D02*
X77067857Y-123671485D01*
X70642857Y-58454819D02*
X70976190Y-57978628D01*
X71214285Y-58454819D02*
X71214285Y-57454819D01*
X71214285Y-57454819D02*
X70833333Y-57454819D01*
X70833333Y-57454819D02*
X70738095Y-57502438D01*
X70738095Y-57502438D02*
X70690476Y-57550057D01*
X70690476Y-57550057D02*
X70642857Y-57645295D01*
X70642857Y-57645295D02*
X70642857Y-57788152D01*
X70642857Y-57788152D02*
X70690476Y-57883390D01*
X70690476Y-57883390D02*
X70738095Y-57931009D01*
X70738095Y-57931009D02*
X70833333Y-57978628D01*
X70833333Y-57978628D02*
X71214285Y-57978628D01*
X69690476Y-58454819D02*
X70261904Y-58454819D01*
X69976190Y-58454819D02*
X69976190Y-57454819D01*
X69976190Y-57454819D02*
X70071428Y-57597676D01*
X70071428Y-57597676D02*
X70166666Y-57692914D01*
X70166666Y-57692914D02*
X70261904Y-57740533D01*
X69214285Y-58454819D02*
X69023809Y-58454819D01*
X69023809Y-58454819D02*
X68928571Y-58407200D01*
X68928571Y-58407200D02*
X68880952Y-58359580D01*
X68880952Y-58359580D02*
X68785714Y-58216723D01*
X68785714Y-58216723D02*
X68738095Y-58026247D01*
X68738095Y-58026247D02*
X68738095Y-57645295D01*
X68738095Y-57645295D02*
X68785714Y-57550057D01*
X68785714Y-57550057D02*
X68833333Y-57502438D01*
X68833333Y-57502438D02*
X68928571Y-57454819D01*
X68928571Y-57454819D02*
X69119047Y-57454819D01*
X69119047Y-57454819D02*
X69214285Y-57502438D01*
X69214285Y-57502438D02*
X69261904Y-57550057D01*
X69261904Y-57550057D02*
X69309523Y-57645295D01*
X69309523Y-57645295D02*
X69309523Y-57883390D01*
X69309523Y-57883390D02*
X69261904Y-57978628D01*
X69261904Y-57978628D02*
X69214285Y-58026247D01*
X69214285Y-58026247D02*
X69119047Y-58073866D01*
X69119047Y-58073866D02*
X68928571Y-58073866D01*
X68928571Y-58073866D02*
X68833333Y-58026247D01*
X68833333Y-58026247D02*
X68785714Y-57978628D01*
X68785714Y-57978628D02*
X68738095Y-57883390D01*
X71392857Y-114859580D02*
X71440476Y-114907200D01*
X71440476Y-114907200D02*
X71583333Y-114954819D01*
X71583333Y-114954819D02*
X71678571Y-114954819D01*
X71678571Y-114954819D02*
X71821428Y-114907200D01*
X71821428Y-114907200D02*
X71916666Y-114811961D01*
X71916666Y-114811961D02*
X71964285Y-114716723D01*
X71964285Y-114716723D02*
X72011904Y-114526247D01*
X72011904Y-114526247D02*
X72011904Y-114383390D01*
X72011904Y-114383390D02*
X71964285Y-114192914D01*
X71964285Y-114192914D02*
X71916666Y-114097676D01*
X71916666Y-114097676D02*
X71821428Y-114002438D01*
X71821428Y-114002438D02*
X71678571Y-113954819D01*
X71678571Y-113954819D02*
X71583333Y-113954819D01*
X71583333Y-113954819D02*
X71440476Y-114002438D01*
X71440476Y-114002438D02*
X71392857Y-114050057D01*
X70440476Y-114954819D02*
X71011904Y-114954819D01*
X70726190Y-114954819D02*
X70726190Y-113954819D01*
X70726190Y-113954819D02*
X70821428Y-114097676D01*
X70821428Y-114097676D02*
X70916666Y-114192914D01*
X70916666Y-114192914D02*
X71011904Y-114240533D01*
X69821428Y-113954819D02*
X69726190Y-113954819D01*
X69726190Y-113954819D02*
X69630952Y-114002438D01*
X69630952Y-114002438D02*
X69583333Y-114050057D01*
X69583333Y-114050057D02*
X69535714Y-114145295D01*
X69535714Y-114145295D02*
X69488095Y-114335771D01*
X69488095Y-114335771D02*
X69488095Y-114573866D01*
X69488095Y-114573866D02*
X69535714Y-114764342D01*
X69535714Y-114764342D02*
X69583333Y-114859580D01*
X69583333Y-114859580D02*
X69630952Y-114907200D01*
X69630952Y-114907200D02*
X69726190Y-114954819D01*
X69726190Y-114954819D02*
X69821428Y-114954819D01*
X69821428Y-114954819D02*
X69916666Y-114907200D01*
X69916666Y-114907200D02*
X69964285Y-114859580D01*
X69964285Y-114859580D02*
X70011904Y-114764342D01*
X70011904Y-114764342D02*
X70059523Y-114573866D01*
X70059523Y-114573866D02*
X70059523Y-114335771D01*
X70059523Y-114335771D02*
X70011904Y-114145295D01*
X70011904Y-114145295D02*
X69964285Y-114050057D01*
X69964285Y-114050057D02*
X69916666Y-114002438D01*
X69916666Y-114002438D02*
X69821428Y-113954819D01*
X58325357Y-92204819D02*
X58658690Y-91728628D01*
X58896785Y-92204819D02*
X58896785Y-91204819D01*
X58896785Y-91204819D02*
X58515833Y-91204819D01*
X58515833Y-91204819D02*
X58420595Y-91252438D01*
X58420595Y-91252438D02*
X58372976Y-91300057D01*
X58372976Y-91300057D02*
X58325357Y-91395295D01*
X58325357Y-91395295D02*
X58325357Y-91538152D01*
X58325357Y-91538152D02*
X58372976Y-91633390D01*
X58372976Y-91633390D02*
X58420595Y-91681009D01*
X58420595Y-91681009D02*
X58515833Y-91728628D01*
X58515833Y-91728628D02*
X58896785Y-91728628D01*
X57944404Y-91300057D02*
X57896785Y-91252438D01*
X57896785Y-91252438D02*
X57801547Y-91204819D01*
X57801547Y-91204819D02*
X57563452Y-91204819D01*
X57563452Y-91204819D02*
X57468214Y-91252438D01*
X57468214Y-91252438D02*
X57420595Y-91300057D01*
X57420595Y-91300057D02*
X57372976Y-91395295D01*
X57372976Y-91395295D02*
X57372976Y-91490533D01*
X57372976Y-91490533D02*
X57420595Y-91633390D01*
X57420595Y-91633390D02*
X57992023Y-92204819D01*
X57992023Y-92204819D02*
X57372976Y-92204819D01*
X56420595Y-92204819D02*
X56992023Y-92204819D01*
X56706309Y-92204819D02*
X56706309Y-91204819D01*
X56706309Y-91204819D02*
X56801547Y-91347676D01*
X56801547Y-91347676D02*
X56896785Y-91442914D01*
X56896785Y-91442914D02*
X56992023Y-91490533D01*
X88938094Y-137954819D02*
X88938094Y-136954819D01*
X88938094Y-136954819D02*
X88699999Y-136954819D01*
X88699999Y-136954819D02*
X88557142Y-137002438D01*
X88557142Y-137002438D02*
X88461904Y-137097676D01*
X88461904Y-137097676D02*
X88414285Y-137192914D01*
X88414285Y-137192914D02*
X88366666Y-137383390D01*
X88366666Y-137383390D02*
X88366666Y-137526247D01*
X88366666Y-137526247D02*
X88414285Y-137716723D01*
X88414285Y-137716723D02*
X88461904Y-137811961D01*
X88461904Y-137811961D02*
X88557142Y-137907200D01*
X88557142Y-137907200D02*
X88699999Y-137954819D01*
X88699999Y-137954819D02*
X88938094Y-137954819D01*
X87461904Y-136954819D02*
X87938094Y-136954819D01*
X87938094Y-136954819D02*
X87985713Y-137431009D01*
X87985713Y-137431009D02*
X87938094Y-137383390D01*
X87938094Y-137383390D02*
X87842856Y-137335771D01*
X87842856Y-137335771D02*
X87604761Y-137335771D01*
X87604761Y-137335771D02*
X87509523Y-137383390D01*
X87509523Y-137383390D02*
X87461904Y-137431009D01*
X87461904Y-137431009D02*
X87414285Y-137526247D01*
X87414285Y-137526247D02*
X87414285Y-137764342D01*
X87414285Y-137764342D02*
X87461904Y-137859580D01*
X87461904Y-137859580D02*
X87509523Y-137907200D01*
X87509523Y-137907200D02*
X87604761Y-137954819D01*
X87604761Y-137954819D02*
X87842856Y-137954819D01*
X87842856Y-137954819D02*
X87938094Y-137907200D01*
X87938094Y-137907200D02*
X87985713Y-137859580D01*
X88838094Y-129554819D02*
X88838094Y-128554819D01*
X88838094Y-128554819D02*
X88599999Y-128554819D01*
X88599999Y-128554819D02*
X88457142Y-128602438D01*
X88457142Y-128602438D02*
X88361904Y-128697676D01*
X88361904Y-128697676D02*
X88314285Y-128792914D01*
X88314285Y-128792914D02*
X88266666Y-128983390D01*
X88266666Y-128983390D02*
X88266666Y-129126247D01*
X88266666Y-129126247D02*
X88314285Y-129316723D01*
X88314285Y-129316723D02*
X88361904Y-129411961D01*
X88361904Y-129411961D02*
X88457142Y-129507200D01*
X88457142Y-129507200D02*
X88599999Y-129554819D01*
X88599999Y-129554819D02*
X88838094Y-129554819D01*
X87933332Y-128554819D02*
X87314285Y-128554819D01*
X87314285Y-128554819D02*
X87647618Y-128935771D01*
X87647618Y-128935771D02*
X87504761Y-128935771D01*
X87504761Y-128935771D02*
X87409523Y-128983390D01*
X87409523Y-128983390D02*
X87361904Y-129031009D01*
X87361904Y-129031009D02*
X87314285Y-129126247D01*
X87314285Y-129126247D02*
X87314285Y-129364342D01*
X87314285Y-129364342D02*
X87361904Y-129459580D01*
X87361904Y-129459580D02*
X87409523Y-129507200D01*
X87409523Y-129507200D02*
X87504761Y-129554819D01*
X87504761Y-129554819D02*
X87790475Y-129554819D01*
X87790475Y-129554819D02*
X87885713Y-129507200D01*
X87885713Y-129507200D02*
X87933332Y-129459580D01*
X59504819Y-154933333D02*
X59028628Y-154600000D01*
X59504819Y-154361905D02*
X58504819Y-154361905D01*
X58504819Y-154361905D02*
X58504819Y-154742857D01*
X58504819Y-154742857D02*
X58552438Y-154838095D01*
X58552438Y-154838095D02*
X58600057Y-154885714D01*
X58600057Y-154885714D02*
X58695295Y-154933333D01*
X58695295Y-154933333D02*
X58838152Y-154933333D01*
X58838152Y-154933333D02*
X58933390Y-154885714D01*
X58933390Y-154885714D02*
X58981009Y-154838095D01*
X58981009Y-154838095D02*
X59028628Y-154742857D01*
X59028628Y-154742857D02*
X59028628Y-154361905D01*
X59504819Y-155885714D02*
X59504819Y-155314286D01*
X59504819Y-155600000D02*
X58504819Y-155600000D01*
X58504819Y-155600000D02*
X58647676Y-155504762D01*
X58647676Y-155504762D02*
X58742914Y-155409524D01*
X58742914Y-155409524D02*
X58790533Y-155314286D01*
X74761904Y-94174819D02*
X74761904Y-94984342D01*
X74761904Y-94984342D02*
X74714285Y-95079580D01*
X74714285Y-95079580D02*
X74666666Y-95127200D01*
X74666666Y-95127200D02*
X74571428Y-95174819D01*
X74571428Y-95174819D02*
X74380952Y-95174819D01*
X74380952Y-95174819D02*
X74285714Y-95127200D01*
X74285714Y-95127200D02*
X74238095Y-95079580D01*
X74238095Y-95079580D02*
X74190476Y-94984342D01*
X74190476Y-94984342D02*
X74190476Y-94174819D01*
X73190476Y-95174819D02*
X73761904Y-95174819D01*
X73476190Y-95174819D02*
X73476190Y-94174819D01*
X73476190Y-94174819D02*
X73571428Y-94317676D01*
X73571428Y-94317676D02*
X73666666Y-94412914D01*
X73666666Y-94412914D02*
X73761904Y-94460533D01*
X66454819Y-118763333D02*
X65978628Y-118430000D01*
X66454819Y-118191905D02*
X65454819Y-118191905D01*
X65454819Y-118191905D02*
X65454819Y-118572857D01*
X65454819Y-118572857D02*
X65502438Y-118668095D01*
X65502438Y-118668095D02*
X65550057Y-118715714D01*
X65550057Y-118715714D02*
X65645295Y-118763333D01*
X65645295Y-118763333D02*
X65788152Y-118763333D01*
X65788152Y-118763333D02*
X65883390Y-118715714D01*
X65883390Y-118715714D02*
X65931009Y-118668095D01*
X65931009Y-118668095D02*
X65978628Y-118572857D01*
X65978628Y-118572857D02*
X65978628Y-118191905D01*
X65454819Y-119620476D02*
X65454819Y-119430000D01*
X65454819Y-119430000D02*
X65502438Y-119334762D01*
X65502438Y-119334762D02*
X65550057Y-119287143D01*
X65550057Y-119287143D02*
X65692914Y-119191905D01*
X65692914Y-119191905D02*
X65883390Y-119144286D01*
X65883390Y-119144286D02*
X66264342Y-119144286D01*
X66264342Y-119144286D02*
X66359580Y-119191905D01*
X66359580Y-119191905D02*
X66407200Y-119239524D01*
X66407200Y-119239524D02*
X66454819Y-119334762D01*
X66454819Y-119334762D02*
X66454819Y-119525238D01*
X66454819Y-119525238D02*
X66407200Y-119620476D01*
X66407200Y-119620476D02*
X66359580Y-119668095D01*
X66359580Y-119668095D02*
X66264342Y-119715714D01*
X66264342Y-119715714D02*
X66026247Y-119715714D01*
X66026247Y-119715714D02*
X65931009Y-119668095D01*
X65931009Y-119668095D02*
X65883390Y-119620476D01*
X65883390Y-119620476D02*
X65835771Y-119525238D01*
X65835771Y-119525238D02*
X65835771Y-119334762D01*
X65835771Y-119334762D02*
X65883390Y-119239524D01*
X65883390Y-119239524D02*
X65931009Y-119191905D01*
X65931009Y-119191905D02*
X66026247Y-119144286D01*
X85491904Y-69114819D02*
X85491904Y-68114819D01*
X85491904Y-68591009D02*
X84920476Y-68591009D01*
X84920476Y-69114819D02*
X84920476Y-68114819D01*
X83920476Y-69114819D02*
X84491904Y-69114819D01*
X84206190Y-69114819D02*
X84206190Y-68114819D01*
X84206190Y-68114819D02*
X84301428Y-68257676D01*
X84301428Y-68257676D02*
X84396666Y-68352914D01*
X84396666Y-68352914D02*
X84491904Y-68400533D01*
D11*
X80716265Y-73817866D02*
X81325789Y-73817866D01*
X82125788Y-73513104D02*
X81668645Y-73513104D01*
X81897217Y-73513104D02*
X81897217Y-74313104D01*
X81897217Y-74313104D02*
X81821026Y-74198819D01*
X81821026Y-74198819D02*
X81744836Y-74122628D01*
X81744836Y-74122628D02*
X81668645Y-74084533D01*
X82430550Y-74236914D02*
X82468646Y-74275009D01*
X82468646Y-74275009D02*
X82544836Y-74313104D01*
X82544836Y-74313104D02*
X82735312Y-74313104D01*
X82735312Y-74313104D02*
X82811503Y-74275009D01*
X82811503Y-74275009D02*
X82849598Y-74236914D01*
X82849598Y-74236914D02*
X82887693Y-74160723D01*
X82887693Y-74160723D02*
X82887693Y-74084533D01*
X82887693Y-74084533D02*
X82849598Y-73970247D01*
X82849598Y-73970247D02*
X82392455Y-73513104D01*
X82392455Y-73513104D02*
X82887693Y-73513104D01*
X83116265Y-74313104D02*
X83382932Y-73513104D01*
X83382932Y-73513104D02*
X83649598Y-74313104D01*
X84487693Y-73551200D02*
X84601979Y-73513104D01*
X84601979Y-73513104D02*
X84792455Y-73513104D01*
X84792455Y-73513104D02*
X84868646Y-73551200D01*
X84868646Y-73551200D02*
X84906741Y-73589295D01*
X84906741Y-73589295D02*
X84944836Y-73665485D01*
X84944836Y-73665485D02*
X84944836Y-73741676D01*
X84944836Y-73741676D02*
X84906741Y-73817866D01*
X84906741Y-73817866D02*
X84868646Y-73855961D01*
X84868646Y-73855961D02*
X84792455Y-73894057D01*
X84792455Y-73894057D02*
X84640074Y-73932152D01*
X84640074Y-73932152D02*
X84563884Y-73970247D01*
X84563884Y-73970247D02*
X84525789Y-74008342D01*
X84525789Y-74008342D02*
X84487693Y-74084533D01*
X84487693Y-74084533D02*
X84487693Y-74160723D01*
X84487693Y-74160723D02*
X84525789Y-74236914D01*
X84525789Y-74236914D02*
X84563884Y-74275009D01*
X84563884Y-74275009D02*
X84640074Y-74313104D01*
X84640074Y-74313104D02*
X84830551Y-74313104D01*
X84830551Y-74313104D02*
X84944836Y-74275009D01*
X85173408Y-74313104D02*
X85630551Y-74313104D01*
X85401979Y-73513104D02*
X85401979Y-74313104D01*
X86354361Y-73513104D02*
X86087694Y-73894057D01*
X85897218Y-73513104D02*
X85897218Y-74313104D01*
X85897218Y-74313104D02*
X86201980Y-74313104D01*
X86201980Y-74313104D02*
X86278170Y-74275009D01*
X86278170Y-74275009D02*
X86316265Y-74236914D01*
X86316265Y-74236914D02*
X86354361Y-74160723D01*
X86354361Y-74160723D02*
X86354361Y-74046438D01*
X86354361Y-74046438D02*
X86316265Y-73970247D01*
X86316265Y-73970247D02*
X86278170Y-73932152D01*
X86278170Y-73932152D02*
X86201980Y-73894057D01*
X86201980Y-73894057D02*
X85897218Y-73894057D01*
X86697218Y-73513104D02*
X86697218Y-74313104D01*
X87078170Y-73513104D02*
X87078170Y-74313104D01*
X87078170Y-74313104D02*
X87382932Y-74313104D01*
X87382932Y-74313104D02*
X87459122Y-74275009D01*
X87459122Y-74275009D02*
X87497217Y-74236914D01*
X87497217Y-74236914D02*
X87535313Y-74160723D01*
X87535313Y-74160723D02*
X87535313Y-74046438D01*
X87535313Y-74046438D02*
X87497217Y-73970247D01*
X87497217Y-73970247D02*
X87459122Y-73932152D01*
X87459122Y-73932152D02*
X87382932Y-73894057D01*
X87382932Y-73894057D02*
X87078170Y-73894057D01*
X87878170Y-73932152D02*
X88144836Y-73932152D01*
X88259122Y-73513104D02*
X87878170Y-73513104D01*
X87878170Y-73513104D02*
X87878170Y-74313104D01*
X87878170Y-74313104D02*
X88259122Y-74313104D01*
D10*
X61354819Y-118763333D02*
X60878628Y-118430000D01*
X61354819Y-118191905D02*
X60354819Y-118191905D01*
X60354819Y-118191905D02*
X60354819Y-118572857D01*
X60354819Y-118572857D02*
X60402438Y-118668095D01*
X60402438Y-118668095D02*
X60450057Y-118715714D01*
X60450057Y-118715714D02*
X60545295Y-118763333D01*
X60545295Y-118763333D02*
X60688152Y-118763333D01*
X60688152Y-118763333D02*
X60783390Y-118715714D01*
X60783390Y-118715714D02*
X60831009Y-118668095D01*
X60831009Y-118668095D02*
X60878628Y-118572857D01*
X60878628Y-118572857D02*
X60878628Y-118191905D01*
X60354819Y-119096667D02*
X60354819Y-119763333D01*
X60354819Y-119763333D02*
X61354819Y-119334762D01*
X78429166Y-135404819D02*
X78762499Y-134928628D01*
X79000594Y-135404819D02*
X79000594Y-134404819D01*
X79000594Y-134404819D02*
X78619642Y-134404819D01*
X78619642Y-134404819D02*
X78524404Y-134452438D01*
X78524404Y-134452438D02*
X78476785Y-134500057D01*
X78476785Y-134500057D02*
X78429166Y-134595295D01*
X78429166Y-134595295D02*
X78429166Y-134738152D01*
X78429166Y-134738152D02*
X78476785Y-134833390D01*
X78476785Y-134833390D02*
X78524404Y-134881009D01*
X78524404Y-134881009D02*
X78619642Y-134928628D01*
X78619642Y-134928628D02*
X79000594Y-134928628D01*
X77952975Y-135404819D02*
X77762499Y-135404819D01*
X77762499Y-135404819D02*
X77667261Y-135357200D01*
X77667261Y-135357200D02*
X77619642Y-135309580D01*
X77619642Y-135309580D02*
X77524404Y-135166723D01*
X77524404Y-135166723D02*
X77476785Y-134976247D01*
X77476785Y-134976247D02*
X77476785Y-134595295D01*
X77476785Y-134595295D02*
X77524404Y-134500057D01*
X77524404Y-134500057D02*
X77572023Y-134452438D01*
X77572023Y-134452438D02*
X77667261Y-134404819D01*
X77667261Y-134404819D02*
X77857737Y-134404819D01*
X77857737Y-134404819D02*
X77952975Y-134452438D01*
X77952975Y-134452438D02*
X78000594Y-134500057D01*
X78000594Y-134500057D02*
X78048213Y-134595295D01*
X78048213Y-134595295D02*
X78048213Y-134833390D01*
X78048213Y-134833390D02*
X78000594Y-134928628D01*
X78000594Y-134928628D02*
X77952975Y-134976247D01*
X77952975Y-134976247D02*
X77857737Y-135023866D01*
X77857737Y-135023866D02*
X77667261Y-135023866D01*
X77667261Y-135023866D02*
X77572023Y-134976247D01*
X77572023Y-134976247D02*
X77524404Y-134928628D01*
X77524404Y-134928628D02*
X77476785Y-134833390D01*
X74845238Y-122800057D02*
X74940476Y-122752438D01*
X74940476Y-122752438D02*
X75035714Y-122657200D01*
X75035714Y-122657200D02*
X75178571Y-122514342D01*
X75178571Y-122514342D02*
X75273809Y-122466723D01*
X75273809Y-122466723D02*
X75369047Y-122466723D01*
X75321428Y-122704819D02*
X75416666Y-122657200D01*
X75416666Y-122657200D02*
X75511904Y-122561961D01*
X75511904Y-122561961D02*
X75559523Y-122371485D01*
X75559523Y-122371485D02*
X75559523Y-122038152D01*
X75559523Y-122038152D02*
X75511904Y-121847676D01*
X75511904Y-121847676D02*
X75416666Y-121752438D01*
X75416666Y-121752438D02*
X75321428Y-121704819D01*
X75321428Y-121704819D02*
X75130952Y-121704819D01*
X75130952Y-121704819D02*
X75035714Y-121752438D01*
X75035714Y-121752438D02*
X74940476Y-121847676D01*
X74940476Y-121847676D02*
X74892857Y-122038152D01*
X74892857Y-122038152D02*
X74892857Y-122371485D01*
X74892857Y-122371485D02*
X74940476Y-122561961D01*
X74940476Y-122561961D02*
X75035714Y-122657200D01*
X75035714Y-122657200D02*
X75130952Y-122704819D01*
X75130952Y-122704819D02*
X75321428Y-122704819D01*
X73988095Y-121704819D02*
X74464285Y-121704819D01*
X74464285Y-121704819D02*
X74511904Y-122181009D01*
X74511904Y-122181009D02*
X74464285Y-122133390D01*
X74464285Y-122133390D02*
X74369047Y-122085771D01*
X74369047Y-122085771D02*
X74130952Y-122085771D01*
X74130952Y-122085771D02*
X74035714Y-122133390D01*
X74035714Y-122133390D02*
X73988095Y-122181009D01*
X73988095Y-122181009D02*
X73940476Y-122276247D01*
X73940476Y-122276247D02*
X73940476Y-122514342D01*
X73940476Y-122514342D02*
X73988095Y-122609580D01*
X73988095Y-122609580D02*
X74035714Y-122657200D01*
X74035714Y-122657200D02*
X74130952Y-122704819D01*
X74130952Y-122704819D02*
X74369047Y-122704819D01*
X74369047Y-122704819D02*
X74464285Y-122657200D01*
X74464285Y-122657200D02*
X74511904Y-122609580D01*
D12*
X57930199Y-62245000D02*
X57930199Y-62645000D01*
X58130199Y-62445000D02*
X57730199Y-62445000D01*
X60000000Y-59170000D02*
X60000000Y-63330000D01*
X60040000Y-59170000D02*
X60040000Y-63330000D01*
X60080000Y-59171000D02*
X60080000Y-63329000D01*
X60120000Y-59173000D02*
X60120000Y-63327000D01*
X60160000Y-59176000D02*
X60160000Y-63324000D01*
X60200000Y-59179000D02*
X60200000Y-60410000D01*
X60200000Y-62090000D02*
X60200000Y-63321000D01*
X60240000Y-59183000D02*
X60240000Y-60410000D01*
X60240000Y-62090000D02*
X60240000Y-63317000D01*
X60280000Y-59188000D02*
X60280000Y-60410000D01*
X60280000Y-62090000D02*
X60280000Y-63312000D01*
X60320000Y-59194000D02*
X60320000Y-60410000D01*
X60320000Y-62090000D02*
X60320000Y-63306000D01*
X60360000Y-59200000D02*
X60360000Y-60410000D01*
X60360000Y-62090000D02*
X60360000Y-63300000D01*
X60400000Y-59208000D02*
X60400000Y-60410000D01*
X60400000Y-62090000D02*
X60400000Y-63292000D01*
X60440000Y-59216000D02*
X60440000Y-60410000D01*
X60440000Y-62090000D02*
X60440000Y-63284000D01*
X60480000Y-59225000D02*
X60480000Y-60410000D01*
X60480000Y-62090000D02*
X60480000Y-63275000D01*
X60520000Y-59234000D02*
X60520000Y-60410000D01*
X60520000Y-62090000D02*
X60520000Y-63266000D01*
X60560000Y-59245000D02*
X60560000Y-60410000D01*
X60560000Y-62090000D02*
X60560000Y-63255000D01*
X60600000Y-59256000D02*
X60600000Y-60410000D01*
X60600000Y-62090000D02*
X60600000Y-63244000D01*
X60640000Y-59268000D02*
X60640000Y-60410000D01*
X60640000Y-62090000D02*
X60640000Y-63232000D01*
X60680000Y-59282000D02*
X60680000Y-60410000D01*
X60680000Y-62090000D02*
X60680000Y-63218000D01*
X60721000Y-59296000D02*
X60721000Y-60410000D01*
X60721000Y-62090000D02*
X60721000Y-63204000D01*
X60761000Y-59310000D02*
X60761000Y-60410000D01*
X60761000Y-62090000D02*
X60761000Y-63190000D01*
X60801000Y-59326000D02*
X60801000Y-60410000D01*
X60801000Y-62090000D02*
X60801000Y-63174000D01*
X60841000Y-59343000D02*
X60841000Y-60410000D01*
X60841000Y-62090000D02*
X60841000Y-63157000D01*
X60881000Y-59361000D02*
X60881000Y-60410000D01*
X60881000Y-62090000D02*
X60881000Y-63139000D01*
X60921000Y-59380000D02*
X60921000Y-60410000D01*
X60921000Y-62090000D02*
X60921000Y-63120000D01*
X60961000Y-59399000D02*
X60961000Y-60410000D01*
X60961000Y-62090000D02*
X60961000Y-63101000D01*
X61001000Y-59420000D02*
X61001000Y-60410000D01*
X61001000Y-62090000D02*
X61001000Y-63080000D01*
X61041000Y-59442000D02*
X61041000Y-60410000D01*
X61041000Y-62090000D02*
X61041000Y-63058000D01*
X61081000Y-59465000D02*
X61081000Y-60410000D01*
X61081000Y-62090000D02*
X61081000Y-63035000D01*
X61121000Y-59490000D02*
X61121000Y-60410000D01*
X61121000Y-62090000D02*
X61121000Y-63010000D01*
X61161000Y-59515000D02*
X61161000Y-60410000D01*
X61161000Y-62090000D02*
X61161000Y-62985000D01*
X61201000Y-59542000D02*
X61201000Y-60410000D01*
X61201000Y-62090000D02*
X61201000Y-62958000D01*
X61241000Y-59570000D02*
X61241000Y-60410000D01*
X61241000Y-62090000D02*
X61241000Y-62930000D01*
X61281000Y-59600000D02*
X61281000Y-60410000D01*
X61281000Y-62090000D02*
X61281000Y-62900000D01*
X61321000Y-59631000D02*
X61321000Y-60410000D01*
X61321000Y-62090000D02*
X61321000Y-62869000D01*
X61361000Y-59663000D02*
X61361000Y-60410000D01*
X61361000Y-62090000D02*
X61361000Y-62837000D01*
X61401000Y-59698000D02*
X61401000Y-60410000D01*
X61401000Y-62090000D02*
X61401000Y-62802000D01*
X61441000Y-59734000D02*
X61441000Y-60410000D01*
X61441000Y-62090000D02*
X61441000Y-62766000D01*
X61481000Y-59772000D02*
X61481000Y-60410000D01*
X61481000Y-62090000D02*
X61481000Y-62728000D01*
X61521000Y-59812000D02*
X61521000Y-60410000D01*
X61521000Y-62090000D02*
X61521000Y-62688000D01*
X61561000Y-59854000D02*
X61561000Y-60410000D01*
X61561000Y-62090000D02*
X61561000Y-62646000D01*
X61601000Y-59899000D02*
X61601000Y-60410000D01*
X61601000Y-62090000D02*
X61601000Y-62601000D01*
X61641000Y-59946000D02*
X61641000Y-60410000D01*
X61641000Y-62090000D02*
X61641000Y-62554000D01*
X61681000Y-59996000D02*
X61681000Y-60410000D01*
X61681000Y-62090000D02*
X61681000Y-62504000D01*
X61721000Y-60050000D02*
X61721000Y-60410000D01*
X61721000Y-62090000D02*
X61721000Y-62450000D01*
X61761000Y-60108000D02*
X61761000Y-60410000D01*
X61761000Y-62090000D02*
X61761000Y-62392000D01*
X61801000Y-60170000D02*
X61801000Y-60410000D01*
X61801000Y-62090000D02*
X61801000Y-62330000D01*
X61841000Y-60237000D02*
X61841000Y-62263000D01*
X61881000Y-60310000D02*
X61881000Y-62190000D01*
X61921000Y-60391000D02*
X61921000Y-62109000D01*
X61961000Y-60482000D02*
X61961000Y-62018000D01*
X62001000Y-60586000D02*
X62001000Y-61914000D01*
X62041000Y-60713000D02*
X62041000Y-61787000D01*
X62081000Y-60880000D02*
X62081000Y-61620000D01*
X62120000Y-61250000D02*
G75*
G02*
X57880000Y-61250000I-2120000J0D01*
G01*
X57880000Y-61250000D02*
G75*
G02*
X62120000Y-61250000I2120000J0D01*
G01*
X76235436Y-111515000D02*
X76689564Y-111515000D01*
X76235436Y-112985000D02*
X76689564Y-112985000D01*
X62251000Y-66500000D02*
G75*
G02*
X59749000Y-66500000I-1251000J0D01*
G01*
X59749000Y-66500000D02*
G75*
G02*
X62251000Y-66500000I1251000J0D01*
G01*
X57891600Y-54370000D02*
X57891600Y-53630000D01*
X57931600Y-54537000D02*
X57931600Y-53463000D01*
X57971600Y-54664000D02*
X57971600Y-53336000D01*
X58011600Y-54768000D02*
X58011600Y-53232000D01*
X58051600Y-54859000D02*
X58051600Y-53141000D01*
X58091600Y-54940000D02*
X58091600Y-53060000D01*
X58131600Y-55013000D02*
X58131600Y-52987000D01*
X58171600Y-53160000D02*
X58171600Y-52920000D01*
X58171600Y-55080000D02*
X58171600Y-54840000D01*
X58211600Y-53160000D02*
X58211600Y-52858000D01*
X58211600Y-55142000D02*
X58211600Y-54840000D01*
X58251600Y-53160000D02*
X58251600Y-52800000D01*
X58251600Y-55200000D02*
X58251600Y-54840000D01*
X58291600Y-53160000D02*
X58291600Y-52746000D01*
X58291600Y-55254000D02*
X58291600Y-54840000D01*
X58331600Y-53160000D02*
X58331600Y-52696000D01*
X58331600Y-55304000D02*
X58331600Y-54840000D01*
X58371600Y-53160000D02*
X58371600Y-52649000D01*
X58371600Y-55351000D02*
X58371600Y-54840000D01*
X58411600Y-53160000D02*
X58411600Y-52604000D01*
X58411600Y-55396000D02*
X58411600Y-54840000D01*
X58451600Y-53160000D02*
X58451600Y-52562000D01*
X58451600Y-55438000D02*
X58451600Y-54840000D01*
X58491600Y-53160000D02*
X58491600Y-52522000D01*
X58491600Y-55478000D02*
X58491600Y-54840000D01*
X58531600Y-53160000D02*
X58531600Y-52484000D01*
X58531600Y-55516000D02*
X58531600Y-54840000D01*
X58571600Y-53160000D02*
X58571600Y-52448000D01*
X58571600Y-55552000D02*
X58571600Y-54840000D01*
X58611600Y-53160000D02*
X58611600Y-52413000D01*
X58611600Y-55587000D02*
X58611600Y-54840000D01*
X58651600Y-53160000D02*
X58651600Y-52381000D01*
X58651600Y-55619000D02*
X58651600Y-54840000D01*
X58691600Y-53160000D02*
X58691600Y-52350000D01*
X58691600Y-55650000D02*
X58691600Y-54840000D01*
X58731600Y-53160000D02*
X58731600Y-52320000D01*
X58731600Y-55680000D02*
X58731600Y-54840000D01*
X58771600Y-53160000D02*
X58771600Y-52292000D01*
X58771600Y-55708000D02*
X58771600Y-54840000D01*
X58811600Y-53160000D02*
X58811600Y-52265000D01*
X58811600Y-55735000D02*
X58811600Y-54840000D01*
X58851600Y-53160000D02*
X58851600Y-52240000D01*
X58851600Y-55760000D02*
X58851600Y-54840000D01*
X58891600Y-53160000D02*
X58891600Y-52215000D01*
X58891600Y-55785000D02*
X58891600Y-54840000D01*
X58931600Y-53160000D02*
X58931600Y-52192000D01*
X58931600Y-55808000D02*
X58931600Y-54840000D01*
X58971600Y-53160000D02*
X58971600Y-52170000D01*
X58971600Y-55830000D02*
X58971600Y-54840000D01*
X59011600Y-53160000D02*
X59011600Y-52149000D01*
X59011600Y-55851000D02*
X59011600Y-54840000D01*
X59051600Y-53160000D02*
X59051600Y-52130000D01*
X59051600Y-55870000D02*
X59051600Y-54840000D01*
X59091600Y-53160000D02*
X59091600Y-52111000D01*
X59091600Y-55889000D02*
X59091600Y-54840000D01*
X59131600Y-53160000D02*
X59131600Y-52093000D01*
X59131600Y-55907000D02*
X59131600Y-54840000D01*
X59171600Y-53160000D02*
X59171600Y-52076000D01*
X59171600Y-55924000D02*
X59171600Y-54840000D01*
X59211600Y-53160000D02*
X59211600Y-52060000D01*
X59211600Y-55940000D02*
X59211600Y-54840000D01*
X59251600Y-53160000D02*
X59251600Y-52046000D01*
X59251600Y-55954000D02*
X59251600Y-54840000D01*
X59292600Y-53160000D02*
X59292600Y-52032000D01*
X59292600Y-55968000D02*
X59292600Y-54840000D01*
X59332600Y-53160000D02*
X59332600Y-52018000D01*
X59332600Y-55982000D02*
X59332600Y-54840000D01*
X59372600Y-53160000D02*
X59372600Y-52006000D01*
X59372600Y-55994000D02*
X59372600Y-54840000D01*
X59412600Y-53160000D02*
X59412600Y-51995000D01*
X59412600Y-56005000D02*
X59412600Y-54840000D01*
X59452600Y-53160000D02*
X59452600Y-51984000D01*
X59452600Y-56016000D02*
X59452600Y-54840000D01*
X59492600Y-53160000D02*
X59492600Y-51975000D01*
X59492600Y-56025000D02*
X59492600Y-54840000D01*
X59532600Y-53160000D02*
X59532600Y-51966000D01*
X59532600Y-56034000D02*
X59532600Y-54840000D01*
X59572600Y-53160000D02*
X59572600Y-51958000D01*
X59572600Y-56042000D02*
X59572600Y-54840000D01*
X59612600Y-53160000D02*
X59612600Y-51950000D01*
X59612600Y-56050000D02*
X59612600Y-54840000D01*
X59652600Y-53160000D02*
X59652600Y-51944000D01*
X59652600Y-56056000D02*
X59652600Y-54840000D01*
X59692600Y-53160000D02*
X59692600Y-51938000D01*
X59692600Y-56062000D02*
X59692600Y-54840000D01*
X59732600Y-53160000D02*
X59732600Y-51933000D01*
X59732600Y-56067000D02*
X59732600Y-54840000D01*
X59772600Y-53160000D02*
X59772600Y-51929000D01*
X59772600Y-56071000D02*
X59772600Y-54840000D01*
X59812600Y-56074000D02*
X59812600Y-51926000D01*
X59852600Y-56077000D02*
X59852600Y-51923000D01*
X59892600Y-56079000D02*
X59892600Y-51921000D01*
X59932600Y-56080000D02*
X59932600Y-51920000D01*
X59972600Y-56080000D02*
X59972600Y-51920000D01*
X61842401Y-52805000D02*
X62242401Y-52805000D01*
X62042401Y-53005000D02*
X62042401Y-52605000D01*
X62092600Y-54000000D02*
G75*
G02*
X57852600Y-54000000I-2120000J0D01*
G01*
X57852600Y-54000000D02*
G75*
G02*
X62092600Y-54000000I2120000J0D01*
G01*
X76727500Y-115977064D02*
X76727500Y-115522936D01*
X78197500Y-115977064D02*
X78197500Y-115522936D01*
X80537064Y-156265000D02*
X80082936Y-156265000D01*
X80537064Y-157735000D02*
X80082936Y-157735000D01*
X78772936Y-120015000D02*
X79227064Y-120015000D01*
X78772936Y-121485000D02*
X79227064Y-121485000D01*
X53852500Y-122157064D02*
X53852500Y-121702936D01*
X55322500Y-122157064D02*
X55322500Y-121702936D01*
X87227064Y-121865000D02*
X86772936Y-121865000D01*
X87227064Y-123335000D02*
X86772936Y-123335000D01*
X60250000Y-146750000D02*
X60250000Y-150010000D01*
X60250000Y-150010000D02*
X61950000Y-150010000D01*
X61950000Y-146750000D02*
X61950000Y-150010000D01*
X72235436Y-111515000D02*
X72689564Y-111515000D01*
X72235436Y-112985000D02*
X72689564Y-112985000D01*
X50837500Y-123375000D02*
X50837500Y-120115000D01*
X52537500Y-120115000D02*
X50837500Y-120115000D01*
X52537500Y-123375000D02*
X52537500Y-120115000D01*
X50759000Y-61652000D02*
X50759000Y-60848000D01*
X50799000Y-61883000D02*
X50799000Y-60617000D01*
X50839000Y-62052000D02*
X50839000Y-60448000D01*
X50879000Y-62190000D02*
X50879000Y-60310000D01*
X50919000Y-62309000D02*
X50919000Y-60191000D01*
X50959000Y-62415000D02*
X50959000Y-60085000D01*
X50999000Y-62512000D02*
X50999000Y-59988000D01*
X51039000Y-62600000D02*
X51039000Y-59900000D01*
X51079000Y-62682000D02*
X51079000Y-59818000D01*
X51119000Y-62759000D02*
X51119000Y-59741000D01*
X51159000Y-62831000D02*
X51159000Y-59669000D01*
X51199000Y-62900000D02*
X51199000Y-59600000D01*
X51239000Y-62964000D02*
X51239000Y-59536000D01*
X51279000Y-63026000D02*
X51279000Y-59474000D01*
X51319000Y-63084000D02*
X51319000Y-59416000D01*
X51359000Y-63140000D02*
X51359000Y-59360000D01*
X51399000Y-63194000D02*
X51399000Y-59306000D01*
X51439000Y-63245000D02*
X51439000Y-59255000D01*
X51479000Y-63294000D02*
X51479000Y-59206000D01*
X51519000Y-63342000D02*
X51519000Y-59158000D01*
X51559000Y-63387000D02*
X51559000Y-59113000D01*
X51599000Y-63432000D02*
X51599000Y-59068000D01*
X51639000Y-63474000D02*
X51639000Y-59026000D01*
X51679000Y-63515000D02*
X51679000Y-58985000D01*
X51719000Y-60210000D02*
X51719000Y-58945000D01*
X51719000Y-63555000D02*
X51719000Y-62290000D01*
X51759000Y-60210000D02*
X51759000Y-58907000D01*
X51759000Y-63593000D02*
X51759000Y-62290000D01*
X51799000Y-60210000D02*
X51799000Y-58870000D01*
X51799000Y-63630000D02*
X51799000Y-62290000D01*
X51839000Y-60210000D02*
X51839000Y-58834000D01*
X51839000Y-63666000D02*
X51839000Y-62290000D01*
X51879000Y-60210000D02*
X51879000Y-58800000D01*
X51879000Y-63700000D02*
X51879000Y-62290000D01*
X51919000Y-60210000D02*
X51919000Y-58766000D01*
X51919000Y-63734000D02*
X51919000Y-62290000D01*
X51959000Y-60210000D02*
X51959000Y-58734000D01*
X51959000Y-63766000D02*
X51959000Y-62290000D01*
X51999000Y-60210000D02*
X51999000Y-58702000D01*
X51999000Y-63798000D02*
X51999000Y-62290000D01*
X52039000Y-60210000D02*
X52039000Y-58672000D01*
X52039000Y-63828000D02*
X52039000Y-62290000D01*
X52079000Y-60210000D02*
X52079000Y-58643000D01*
X52079000Y-63857000D02*
X52079000Y-62290000D01*
X52119000Y-60210000D02*
X52119000Y-58614000D01*
X52119000Y-63886000D02*
X52119000Y-62290000D01*
X52159000Y-60210000D02*
X52159000Y-58586000D01*
X52159000Y-63914000D02*
X52159000Y-62290000D01*
X52199000Y-60210000D02*
X52199000Y-58560000D01*
X52199000Y-63940000D02*
X52199000Y-62290000D01*
X52239000Y-60210000D02*
X52239000Y-58534000D01*
X52239000Y-63966000D02*
X52239000Y-62290000D01*
X52279000Y-60210000D02*
X52279000Y-58508000D01*
X52279000Y-63992000D02*
X52279000Y-62290000D01*
X52319000Y-60210000D02*
X52319000Y-58484000D01*
X52319000Y-64016000D02*
X52319000Y-62290000D01*
X52359000Y-60210000D02*
X52359000Y-58460000D01*
X52359000Y-64040000D02*
X52359000Y-62290000D01*
X52399000Y-60210000D02*
X52399000Y-58438000D01*
X52399000Y-64062000D02*
X52399000Y-62290000D01*
X52439000Y-60210000D02*
X52439000Y-58416000D01*
X52439000Y-64084000D02*
X52439000Y-62290000D01*
X52479000Y-60210000D02*
X52479000Y-58394000D01*
X52479000Y-64106000D02*
X52479000Y-62290000D01*
X52519000Y-60210000D02*
X52519000Y-58374000D01*
X52519000Y-64126000D02*
X52519000Y-62290000D01*
X52559000Y-60210000D02*
X52559000Y-58354000D01*
X52559000Y-64146000D02*
X52559000Y-62290000D01*
X52599000Y-60210000D02*
X52599000Y-58334000D01*
X52599000Y-64166000D02*
X52599000Y-62290000D01*
X52639000Y-60210000D02*
X52639000Y-58316000D01*
X52639000Y-64184000D02*
X52639000Y-62290000D01*
X52679000Y-60210000D02*
X52679000Y-58298000D01*
X52679000Y-64202000D02*
X52679000Y-62290000D01*
X52719000Y-60210000D02*
X52719000Y-58280000D01*
X52719000Y-64220000D02*
X52719000Y-62290000D01*
X52759000Y-60210000D02*
X52759000Y-58264000D01*
X52759000Y-64236000D02*
X52759000Y-62290000D01*
X52799000Y-60210000D02*
X52799000Y-58248000D01*
X52799000Y-64252000D02*
X52799000Y-62290000D01*
X52839000Y-60210000D02*
X52839000Y-58232000D01*
X52839000Y-64268000D02*
X52839000Y-62290000D01*
X52879000Y-60210000D02*
X52879000Y-58217000D01*
X52879000Y-64283000D02*
X52879000Y-62290000D01*
X52919000Y-60210000D02*
X52919000Y-58203000D01*
X52919000Y-64297000D02*
X52919000Y-62290000D01*
X52959000Y-60210000D02*
X52959000Y-58189000D01*
X52959000Y-64311000D02*
X52959000Y-62290000D01*
X52999000Y-60210000D02*
X52999000Y-58176000D01*
X52999000Y-64324000D02*
X52999000Y-62290000D01*
X53039000Y-60210000D02*
X53039000Y-58164000D01*
X53039000Y-64336000D02*
X53039000Y-62290000D01*
X53079000Y-60210000D02*
X53079000Y-58152000D01*
X53079000Y-64348000D02*
X53079000Y-62290000D01*
X53119000Y-60210000D02*
X53119000Y-58140000D01*
X53119000Y-64360000D02*
X53119000Y-62290000D01*
X53159000Y-60210000D02*
X53159000Y-58129000D01*
X53159000Y-64371000D02*
X53159000Y-62290000D01*
X53199000Y-60210000D02*
X53199000Y-58119000D01*
X53199000Y-64381000D02*
X53199000Y-62290000D01*
X53239000Y-60210000D02*
X53239000Y-58109000D01*
X53239000Y-64391000D02*
X53239000Y-62290000D01*
X53279000Y-60210000D02*
X53279000Y-58100000D01*
X53279000Y-64400000D02*
X53279000Y-62290000D01*
X53320000Y-60210000D02*
X53320000Y-58091000D01*
X53320000Y-64409000D02*
X53320000Y-62290000D01*
X53360000Y-60210000D02*
X53360000Y-58083000D01*
X53360000Y-64417000D02*
X53360000Y-62290000D01*
X53400000Y-60210000D02*
X53400000Y-58075000D01*
X53400000Y-64425000D02*
X53400000Y-62290000D01*
X53440000Y-60210000D02*
X53440000Y-58068000D01*
X53440000Y-64432000D02*
X53440000Y-62290000D01*
X53480000Y-60210000D02*
X53480000Y-58061000D01*
X53480000Y-64439000D02*
X53480000Y-62290000D01*
X53520000Y-60210000D02*
X53520000Y-58055000D01*
X53520000Y-64445000D02*
X53520000Y-62290000D01*
X53560000Y-60210000D02*
X53560000Y-58049000D01*
X53560000Y-64451000D02*
X53560000Y-62290000D01*
X53600000Y-60210000D02*
X53600000Y-58044000D01*
X53600000Y-64456000D02*
X53600000Y-62290000D01*
X53640000Y-60210000D02*
X53640000Y-58039000D01*
X53640000Y-64461000D02*
X53640000Y-62290000D01*
X53680000Y-60210000D02*
X53680000Y-58035000D01*
X53680000Y-64465000D02*
X53680000Y-62290000D01*
X53720000Y-60210000D02*
X53720000Y-58032000D01*
X53720000Y-64468000D02*
X53720000Y-62290000D01*
X53760000Y-60210000D02*
X53760000Y-58028000D01*
X53760000Y-64472000D02*
X53760000Y-62290000D01*
X53800000Y-64474000D02*
X53800000Y-58026000D01*
X53840000Y-64477000D02*
X53840000Y-58023000D01*
X53880000Y-64478000D02*
X53880000Y-58022000D01*
X53920000Y-64480000D02*
X53920000Y-58020000D01*
X53960000Y-64480000D02*
X53960000Y-58020000D01*
X54000000Y-64480000D02*
X54000000Y-58020000D01*
X56870241Y-59411000D02*
X57500241Y-59411000D01*
X57185241Y-59726000D02*
X57185241Y-59096000D01*
X57270000Y-61250000D02*
G75*
G02*
X50730000Y-61250000I-3270000J0D01*
G01*
X50730000Y-61250000D02*
G75*
G02*
X57270000Y-61250000I3270000J0D01*
G01*
X79265000Y-142227064D02*
X79265000Y-141772936D01*
X80735000Y-142227064D02*
X80735000Y-141772936D01*
X80011252Y-99265000D02*
X79488748Y-99265000D01*
X80011252Y-100735000D02*
X79488748Y-100735000D01*
X62751000Y-141250000D02*
G75*
G02*
X60249000Y-141250000I-1251000J0D01*
G01*
X60249000Y-141250000D02*
G75*
G02*
X62751000Y-141250000I1251000J0D01*
G01*
X81461252Y-128350000D02*
X80938748Y-128350000D01*
X81461252Y-129820000D02*
X80938748Y-129820000D01*
X60951248Y-95515000D02*
X61473752Y-95515000D01*
X60951248Y-96985000D02*
X61473752Y-96985000D01*
X73522936Y-85265000D02*
X73977064Y-85265000D01*
X73522936Y-86735000D02*
X73977064Y-86735000D01*
X74473752Y-116015000D02*
X73951248Y-116015000D01*
X74473752Y-117485000D02*
X73951248Y-117485000D01*
X58265000Y-148561252D02*
X58265000Y-148038748D01*
X59735000Y-148561252D02*
X59735000Y-148038748D01*
X80835436Y-136265000D02*
X81289564Y-136265000D01*
X80835436Y-137735000D02*
X81289564Y-137735000D01*
D13*
G36*
X84145333Y-94321667D02*
G01*
X84103000Y-94364000D01*
X84060666Y-94321667D01*
X84103000Y-94279334D01*
X84145333Y-94321667D01*
G37*
G36*
X84399333Y-94194667D02*
G01*
X84393223Y-94239489D01*
X84342888Y-94251111D01*
X84332755Y-94238702D01*
X84342888Y-94138222D01*
X84368355Y-94124977D01*
X84399333Y-94194667D01*
G37*
G36*
X87024000Y-104652954D02*
G01*
X87024000Y-105035907D01*
X85521166Y-105012787D01*
X84018333Y-104989667D01*
X83992298Y-104629834D01*
X83966263Y-104270000D01*
X85495131Y-104270000D01*
X87024000Y-104270000D01*
X87024000Y-104652954D01*
G37*
G36*
X84184282Y-92430995D02*
G01*
X84230000Y-92543667D01*
X84220447Y-92602090D01*
X84145333Y-92670667D01*
X84106384Y-92656339D01*
X84060666Y-92543667D01*
X84070218Y-92485243D01*
X84145333Y-92416667D01*
X84184282Y-92430995D01*
G37*
G36*
X84258222Y-92981111D02*
G01*
X84278898Y-93002232D01*
X84302722Y-93055948D01*
X84187666Y-93065778D01*
X84129444Y-93057876D01*
X84060666Y-92995222D01*
X84064408Y-92971113D01*
X84142604Y-92926651D01*
X84258222Y-92981111D01*
G37*
G36*
X84499721Y-92438847D02*
G01*
X84568666Y-92557778D01*
X84557975Y-92622999D01*
X84505166Y-92622263D01*
X84489089Y-92603822D01*
X84357000Y-92482448D01*
X84333889Y-92445118D01*
X84420500Y-92417963D01*
X84499721Y-92438847D01*
G37*
G36*
X84317647Y-94787338D02*
G01*
X84495035Y-94808169D01*
X84568666Y-94857337D01*
X84568571Y-94859241D01*
X84491738Y-94896116D01*
X84314666Y-94890060D01*
X84310638Y-94889465D01*
X84133954Y-94853753D01*
X84060666Y-94820057D01*
X84060680Y-94819712D01*
X84136164Y-94796833D01*
X84314666Y-94787334D01*
X84317647Y-94787338D01*
G37*
G36*
X84554433Y-94258167D02*
G01*
X84558253Y-94379625D01*
X84543659Y-94543519D01*
X84471194Y-94607246D01*
X84308619Y-94618000D01*
X84149100Y-94612098D01*
X84107018Y-94574561D01*
X84189302Y-94477269D01*
X84217257Y-94450101D01*
X84324443Y-94385316D01*
X84400933Y-94451255D01*
X84419844Y-94474531D01*
X84469747Y-94437214D01*
X84506016Y-94232153D01*
X84540201Y-93898334D01*
X84554433Y-94258167D01*
G37*
G36*
X85629774Y-93518091D02*
G01*
X85774303Y-93542801D01*
X85829695Y-93639164D01*
X85838666Y-93856000D01*
X85838004Y-93955933D01*
X85816382Y-94121109D01*
X85732065Y-94184414D01*
X85542333Y-94194667D01*
X85454892Y-94193910D01*
X85310362Y-94169200D01*
X85254971Y-94072836D01*
X85246000Y-93856000D01*
X85246662Y-93756068D01*
X85268283Y-93590891D01*
X85352601Y-93527586D01*
X85542333Y-93517334D01*
X85629774Y-93518091D01*
G37*
G36*
X87024000Y-97713698D02*
G01*
X87024000Y-98862062D01*
X86748833Y-98835531D01*
X86473666Y-98809000D01*
X86448794Y-98144807D01*
X86446649Y-98075314D01*
X86448876Y-97756595D01*
X86469597Y-97509544D01*
X86505211Y-97382807D01*
X86502727Y-97349081D01*
X86401416Y-97319127D01*
X86178081Y-97299315D01*
X85816992Y-97288366D01*
X85302417Y-97285000D01*
X84018333Y-97285000D01*
X83992298Y-96925167D01*
X83966263Y-96565334D01*
X85495131Y-96565334D01*
X87024000Y-96565334D01*
X87024000Y-97713698D01*
G37*
G36*
X84496606Y-93263351D02*
G01*
X84547529Y-93338943D01*
X84568666Y-93517334D01*
X84568660Y-93520494D01*
X84543447Y-93697761D01*
X84484000Y-93771334D01*
X84448370Y-93782276D01*
X84399333Y-93888459D01*
X84367755Y-93964685D01*
X84230341Y-94049776D01*
X84173163Y-94061620D01*
X84101426Y-94039556D01*
X84075309Y-93924517D01*
X84079420Y-93678651D01*
X84084613Y-93591318D01*
X84120231Y-93390334D01*
X84145333Y-93390334D01*
X84187666Y-93432667D01*
X84230000Y-93390334D01*
X84187666Y-93348000D01*
X84145333Y-93390334D01*
X84120231Y-93390334D01*
X84128135Y-93345736D01*
X84187666Y-93284075D01*
X84207691Y-93263334D01*
X84276965Y-93311890D01*
X84273439Y-93496167D01*
X84271578Y-93506067D01*
X84257776Y-93628324D01*
X84282075Y-93613587D01*
X84339108Y-93540537D01*
X84416210Y-93613587D01*
X84430771Y-93633008D01*
X84471230Y-93641515D01*
X84460036Y-93496167D01*
X84454703Y-93334893D01*
X84495740Y-93263334D01*
X84496606Y-93263351D01*
G37*
G36*
X87018486Y-100246387D02*
G01*
X87024193Y-101391334D01*
X86727763Y-101391334D01*
X86431333Y-101391334D01*
X86431333Y-100718997D01*
X86431987Y-100635790D01*
X86446745Y-100326672D01*
X86476971Y-100097719D01*
X86517381Y-99993480D01*
X86573582Y-99941559D01*
X86547992Y-99862156D01*
X86391982Y-99804757D01*
X86130003Y-99782667D01*
X85754000Y-99782667D01*
X85754000Y-100502334D01*
X85754000Y-101222000D01*
X85457666Y-101222000D01*
X85161333Y-101222000D01*
X85161333Y-100496969D01*
X85161333Y-99825000D01*
X85415333Y-99825000D01*
X85457666Y-99867334D01*
X85500000Y-99825000D01*
X85457666Y-99782667D01*
X85415333Y-99825000D01*
X85161333Y-99825000D01*
X85161333Y-99771938D01*
X84886166Y-99798469D01*
X84611000Y-99825000D01*
X84598979Y-100544667D01*
X84586958Y-101264334D01*
X84282058Y-101290577D01*
X83977158Y-101316820D01*
X83984527Y-100217068D01*
X83991897Y-99117316D01*
X85457666Y-99109613D01*
X85502338Y-99109378D01*
X87012779Y-99101440D01*
X87018486Y-100246387D01*
G37*
G36*
X87024000Y-101947760D02*
G01*
X87024000Y-102343995D01*
X86176347Y-102297487D01*
X85924518Y-102286622D01*
X85626382Y-102283418D01*
X85430308Y-102293937D01*
X85369716Y-102317354D01*
X85432769Y-102369327D01*
X85616506Y-102493240D01*
X85888532Y-102665274D01*
X86217368Y-102865087D01*
X86487291Y-103026946D01*
X86747824Y-103191251D01*
X86906517Y-103313290D01*
X86988614Y-103418604D01*
X87019361Y-103532735D01*
X87024000Y-103681224D01*
X87024000Y-104016000D01*
X85505306Y-104016000D01*
X83986613Y-104016000D01*
X83991287Y-103677334D01*
X83995961Y-103338667D01*
X84837644Y-103338667D01*
X85083309Y-103335428D01*
X85380572Y-103320533D01*
X85575374Y-103296306D01*
X85634294Y-103265803D01*
X85568731Y-103210816D01*
X85382472Y-103084058D01*
X85108335Y-102909858D01*
X84777919Y-102708768D01*
X84497373Y-102540539D01*
X84239935Y-102378149D01*
X84085073Y-102258923D01*
X84008439Y-102158219D01*
X83985682Y-102051392D01*
X83992455Y-101913799D01*
X84018333Y-101603000D01*
X85521166Y-101577263D01*
X87024000Y-101551526D01*
X87024000Y-101947760D01*
G37*
G36*
X84466161Y-111221175D02*
G01*
X84524908Y-111246238D01*
X84598225Y-111307923D01*
X84636619Y-111423297D01*
X84649328Y-111630855D01*
X84645586Y-111969095D01*
X84635554Y-112255958D01*
X84610652Y-112497897D01*
X84565806Y-112628551D01*
X84494091Y-112680437D01*
X84497975Y-112689025D01*
X84628691Y-112701524D01*
X84887532Y-112712634D01*
X85249725Y-112721395D01*
X85690500Y-112726845D01*
X87024000Y-112736667D01*
X87024000Y-113075334D01*
X87023444Y-113145701D01*
X87000079Y-113337452D01*
X86914225Y-113418472D01*
X86727666Y-113435167D01*
X86680804Y-113434980D01*
X86479429Y-113433686D01*
X86158477Y-113431362D01*
X85750571Y-113428248D01*
X85288333Y-113424584D01*
X83976000Y-113414000D01*
X83977296Y-113181167D01*
X83982214Y-113075488D01*
X84055118Y-112842494D01*
X84230000Y-112713713D01*
X84278594Y-112676498D01*
X84166500Y-112658684D01*
X84101071Y-112652991D01*
X84031729Y-112616138D01*
X83994269Y-112514531D01*
X83978942Y-112313318D01*
X83976000Y-111977646D01*
X83981272Y-111725121D01*
X84020217Y-111407074D01*
X84106565Y-111228564D01*
X84251488Y-111172346D01*
X84466161Y-111221175D01*
G37*
G36*
X87024000Y-92755334D02*
G01*
X87024000Y-93094000D01*
X85711666Y-93094000D01*
X85446871Y-93093208D01*
X85031759Y-93088395D01*
X84699605Y-93079946D01*
X84479199Y-93068704D01*
X84399333Y-93055515D01*
X84402255Y-93046385D01*
X84477433Y-92948227D01*
X84499574Y-92924667D01*
X84653333Y-92924667D01*
X84667661Y-92963616D01*
X84780333Y-93009334D01*
X84838756Y-92999781D01*
X84907333Y-92924667D01*
X84893005Y-92885718D01*
X84780333Y-92840000D01*
X84721909Y-92849552D01*
X84653333Y-92924667D01*
X84499574Y-92924667D01*
X84622463Y-92793900D01*
X84658460Y-92758877D01*
X84780333Y-92670994D01*
X84817628Y-92644100D01*
X84907014Y-92670151D01*
X84957021Y-92717446D01*
X85017794Y-92640903D01*
X85028857Y-92571301D01*
X84966077Y-92471154D01*
X84964889Y-92470655D01*
X84992050Y-92450071D01*
X85153590Y-92435225D01*
X85415333Y-92429302D01*
X85422734Y-92429297D01*
X85680682Y-92437288D01*
X85817560Y-92458796D01*
X85809291Y-92490105D01*
X85772533Y-92505203D01*
X85700846Y-92566298D01*
X85781004Y-92657945D01*
X85805353Y-92677366D01*
X85901684Y-92708429D01*
X85964251Y-92590458D01*
X85989614Y-92529747D01*
X86070612Y-92457874D01*
X86233461Y-92424706D01*
X86521705Y-92416667D01*
X87024000Y-92416667D01*
X87024000Y-92755334D01*
G37*
G36*
X86952962Y-108946094D02*
G01*
X87009827Y-109045028D01*
X87024000Y-109267991D01*
X87022649Y-109326583D01*
X86988009Y-109542781D01*
X86918166Y-109646479D01*
X86684957Y-109728491D01*
X86501793Y-109809451D01*
X86419176Y-109901944D01*
X86405246Y-110047717D01*
X86428141Y-110288513D01*
X86452146Y-110491506D01*
X86498356Y-110664439D01*
X86587051Y-110753373D01*
X86748833Y-110807864D01*
X86878607Y-110846227D01*
X86978021Y-110915984D01*
X87017165Y-111053212D01*
X87024000Y-111308813D01*
X87023004Y-111431548D01*
X87007803Y-111622745D01*
X86963361Y-111693928D01*
X86875833Y-111679761D01*
X86816262Y-111657416D01*
X86607223Y-111582035D01*
X86287797Y-111468488D01*
X85888924Y-111327757D01*
X85441548Y-111170820D01*
X85162022Y-111072467D01*
X84750308Y-110925369D01*
X84410841Y-110801335D01*
X84172888Y-110711113D01*
X84065715Y-110665454D01*
X84042426Y-110638341D01*
X83994907Y-110478267D01*
X83977324Y-110256771D01*
X85051814Y-110256771D01*
X85095323Y-110327663D01*
X85307738Y-110391469D01*
X85494436Y-110435666D01*
X85690500Y-110496129D01*
X85755251Y-110513795D01*
X85822031Y-110468273D01*
X85838666Y-110290392D01*
X85838839Y-110226627D01*
X85829667Y-110094773D01*
X85774934Y-110042900D01*
X85634746Y-110056681D01*
X85369210Y-110121787D01*
X85176977Y-110179818D01*
X85051814Y-110256771D01*
X83977324Y-110256771D01*
X83976000Y-110240087D01*
X83976005Y-110217426D01*
X83984528Y-110013923D01*
X84035594Y-109891859D01*
X84167989Y-109804582D01*
X84420500Y-109705439D01*
X84672111Y-109613520D01*
X85150958Y-109444781D01*
X85625105Y-109284584D01*
X85774934Y-109236146D01*
X86063666Y-109142803D01*
X86435755Y-109029309D01*
X86710489Y-108953973D01*
X86856982Y-108926667D01*
X86952962Y-108946094D01*
G37*
G36*
X87007701Y-105554809D02*
G01*
X86981666Y-105908285D01*
X86198500Y-105893108D01*
X86030588Y-105891530D01*
X85710353Y-105900117D01*
X85494481Y-105923279D01*
X85415333Y-105958322D01*
X85435019Y-105989337D01*
X85567598Y-106100211D01*
X85797611Y-106259725D01*
X86092666Y-106444624D01*
X86176563Y-106495690D01*
X86492474Y-106706694D01*
X86697174Y-106877543D01*
X86770000Y-106991554D01*
X86765918Y-107012145D01*
X86659230Y-107140557D01*
X86421614Y-107322285D01*
X86071500Y-107542787D01*
X85373000Y-107953000D01*
X86198500Y-107977233D01*
X87024000Y-108001465D01*
X87024000Y-108379399D01*
X87024000Y-108757334D01*
X85764583Y-108757334D01*
X85587483Y-108756815D01*
X85129938Y-108750752D01*
X84726626Y-108738950D01*
X84415910Y-108722760D01*
X84236156Y-108703531D01*
X84057904Y-108651485D01*
X83990240Y-108553683D01*
X83992739Y-108349668D01*
X84000176Y-108281198D01*
X84039792Y-108138987D01*
X84134058Y-108014671D01*
X84314088Y-107874858D01*
X84611000Y-107686153D01*
X84660985Y-107655581D01*
X84981058Y-107463118D01*
X85272925Y-107292534D01*
X85478833Y-107177669D01*
X85521562Y-107154541D01*
X85685628Y-107051311D01*
X85750025Y-106984819D01*
X85681378Y-106926599D01*
X85494716Y-106801412D01*
X85218752Y-106627987D01*
X84882191Y-106424845D01*
X84644796Y-106283263D01*
X84352667Y-106101462D01*
X84166804Y-105966540D01*
X84061797Y-105855230D01*
X84012237Y-105744267D01*
X84000969Y-105667000D01*
X84822666Y-105667000D01*
X84865000Y-105709334D01*
X84907333Y-105667000D01*
X84865000Y-105624667D01*
X84822666Y-105667000D01*
X84000969Y-105667000D01*
X83992713Y-105610384D01*
X83987137Y-105523316D01*
X83997510Y-105408359D01*
X84050599Y-105324869D01*
X84167507Y-105267791D01*
X84369336Y-105232069D01*
X84677187Y-105212648D01*
X84865000Y-105209119D01*
X85112164Y-105204474D01*
X85695368Y-105202490D01*
X87033736Y-105201334D01*
X87007701Y-105554809D01*
G37*
G36*
X86713555Y-93178667D02*
G01*
X86727666Y-93178667D01*
X86882888Y-93178667D01*
X87024000Y-93178667D01*
X87024000Y-94321667D01*
X87024000Y-95464667D01*
X85542333Y-95464667D01*
X84060666Y-95464667D01*
X84060666Y-95245945D01*
X84061136Y-95225768D01*
X84113226Y-95082410D01*
X84210569Y-95076641D01*
X84294654Y-95215959D01*
X84296924Y-95224458D01*
X84302849Y-95289037D01*
X84237742Y-95210667D01*
X84222841Y-95189909D01*
X84161034Y-95133231D01*
X84146629Y-95231834D01*
X84191337Y-95342381D01*
X84342283Y-95374048D01*
X84568629Y-95295353D01*
X84669340Y-95201948D01*
X84688407Y-94999020D01*
X84676051Y-94900595D01*
X84719033Y-94809288D01*
X84884510Y-94793284D01*
X84900428Y-94793767D01*
X85028998Y-94813490D01*
X84992000Y-94856784D01*
X84970629Y-94870541D01*
X84895041Y-94990443D01*
X84848429Y-95161092D01*
X84843690Y-95313830D01*
X84893721Y-95380000D01*
X84989434Y-95342009D01*
X85153352Y-95240594D01*
X85269975Y-95164737D01*
X85361175Y-95150402D01*
X85430398Y-95240594D01*
X85492547Y-95313057D01*
X85652373Y-95377307D01*
X85710912Y-95373558D01*
X85735858Y-95338925D01*
X85734456Y-95337667D01*
X85923333Y-95337667D01*
X85965666Y-95380000D01*
X86008000Y-95337667D01*
X85965666Y-95295334D01*
X85923333Y-95337667D01*
X85734456Y-95337667D01*
X85627000Y-95241217D01*
X85622748Y-95237866D01*
X85522635Y-95150451D01*
X85551416Y-95125303D01*
X85728361Y-95143923D01*
X85750869Y-95146707D01*
X85914211Y-95146034D01*
X85949616Y-95100030D01*
X85891941Y-95072114D01*
X85702777Y-95054708D01*
X85437174Y-95067819D01*
X85245310Y-95082597D01*
X85074987Y-95081190D01*
X85032475Y-95057303D01*
X85034221Y-95055561D01*
X85084129Y-95016444D01*
X85142280Y-94999000D01*
X86008000Y-94999000D01*
X86050333Y-95041334D01*
X86092666Y-94999000D01*
X86050333Y-94956667D01*
X86008000Y-94999000D01*
X85142280Y-94999000D01*
X85165449Y-94992050D01*
X85324058Y-94974154D01*
X85605833Y-94954534D01*
X85965666Y-94931234D01*
X85584666Y-94872000D01*
X85500195Y-94858480D01*
X85378939Y-94833653D01*
X85389231Y-94817875D01*
X85543665Y-94807792D01*
X85854836Y-94800050D01*
X85873299Y-94799664D01*
X86050333Y-94788896D01*
X86252657Y-94776589D01*
X86493084Y-94729471D01*
X86584639Y-94661663D01*
X86582245Y-94658632D01*
X86703422Y-94658632D01*
X86713555Y-94759111D01*
X86739021Y-94772357D01*
X86770000Y-94702667D01*
X86763996Y-94658632D01*
X86872755Y-94658632D01*
X86882888Y-94759111D01*
X86908355Y-94772357D01*
X86939333Y-94702667D01*
X86933223Y-94657845D01*
X86882888Y-94646222D01*
X86872755Y-94658632D01*
X86763996Y-94658632D01*
X86763889Y-94657845D01*
X86713555Y-94646222D01*
X86703422Y-94658632D01*
X86582245Y-94658632D01*
X86517381Y-94576520D01*
X86506783Y-94564861D01*
X86468389Y-94425816D01*
X86441477Y-94173013D01*
X86431333Y-93851003D01*
X86431333Y-93178667D01*
X86713555Y-93178667D01*
G37*
D12*
X67440000Y-121350000D02*
X67440000Y-122000000D01*
X67440000Y-122650000D02*
X67440000Y-122000000D01*
X70560000Y-121350000D02*
X70560000Y-122000000D01*
X70560000Y-122650000D02*
X70560000Y-122000000D01*
X67490000Y-120837500D02*
X67160000Y-121077500D01*
X67160000Y-120597500D01*
X67490000Y-120837500D01*
G36*
X67490000Y-120837500D02*
G01*
X67160000Y-121077500D01*
X67160000Y-120597500D01*
X67490000Y-120837500D01*
G37*
X79977064Y-96265000D02*
X79522936Y-96265000D01*
X79977064Y-97735000D02*
X79522936Y-97735000D01*
X70501000Y-92750000D02*
G75*
G02*
X67999000Y-92750000I-1251000J0D01*
G01*
X67999000Y-92750000D02*
G75*
G02*
X70501000Y-92750000I1251000J0D01*
G01*
X60065000Y-97650000D02*
X63325000Y-97650000D01*
X60065000Y-99350000D02*
X63325000Y-99350000D01*
X63325000Y-99350000D02*
X63325000Y-97650000D01*
X78265000Y-94227064D02*
X78265000Y-93772936D01*
X79735000Y-94227064D02*
X79735000Y-93772936D01*
X67511252Y-99265000D02*
X66988748Y-99265000D01*
X67511252Y-100735000D02*
X66988748Y-100735000D01*
X61409564Y-93265000D02*
X60955436Y-93265000D01*
X61409564Y-94735000D02*
X60955436Y-94735000D01*
X58751000Y-66450000D02*
G75*
G02*
X56249000Y-66450000I-1251000J0D01*
G01*
X56249000Y-66450000D02*
G75*
G02*
X58751000Y-66450000I1251000J0D01*
G01*
X84772936Y-123965000D02*
X85227064Y-123965000D01*
X84772936Y-125435000D02*
X85227064Y-125435000D01*
X56140000Y-121350000D02*
X56140000Y-122000000D01*
X56140000Y-122650000D02*
X56140000Y-122000000D01*
X59260000Y-121350000D02*
X59260000Y-122000000D01*
X59260000Y-122650000D02*
X59260000Y-122000000D01*
X56190000Y-120837500D02*
X55860000Y-121077500D01*
X55860000Y-120597500D01*
X56190000Y-120837500D01*
G36*
X56190000Y-120837500D02*
G01*
X55860000Y-121077500D01*
X55860000Y-120597500D01*
X56190000Y-120837500D01*
G37*
X62265000Y-121702936D02*
X62265000Y-122157064D01*
X63735000Y-121702936D02*
X63735000Y-122157064D01*
X55251000Y-66500000D02*
G75*
G02*
X52749000Y-66500000I-1251000J0D01*
G01*
X52749000Y-66500000D02*
G75*
G02*
X55251000Y-66500000I1251000J0D01*
G01*
X50882380Y-55524000D02*
X50882380Y-56154000D01*
X51197380Y-55839000D02*
X50567380Y-55839000D01*
X54067621Y-50770000D02*
X54067621Y-57230000D01*
X54107621Y-50770000D02*
X54107621Y-57230000D01*
X54147621Y-50770000D02*
X54147621Y-57230000D01*
X54187621Y-50772000D02*
X54187621Y-57228000D01*
X54227621Y-50773000D02*
X54227621Y-57227000D01*
X54267621Y-50776000D02*
X54267621Y-57224000D01*
X54307621Y-50778000D02*
X54307621Y-52960000D01*
X54307621Y-55040000D02*
X54307621Y-57222000D01*
X54347621Y-50782000D02*
X54347621Y-52960000D01*
X54347621Y-55040000D02*
X54347621Y-57218000D01*
X54387621Y-50785000D02*
X54387621Y-52960000D01*
X54387621Y-55040000D02*
X54387621Y-57215000D01*
X54427621Y-50789000D02*
X54427621Y-52960000D01*
X54427621Y-55040000D02*
X54427621Y-57211000D01*
X54467621Y-50794000D02*
X54467621Y-52960000D01*
X54467621Y-55040000D02*
X54467621Y-57206000D01*
X54507621Y-50799000D02*
X54507621Y-52960000D01*
X54507621Y-55040000D02*
X54507621Y-57201000D01*
X54547621Y-50805000D02*
X54547621Y-52960000D01*
X54547621Y-55040000D02*
X54547621Y-57195000D01*
X54587621Y-50811000D02*
X54587621Y-52960000D01*
X54587621Y-55040000D02*
X54587621Y-57189000D01*
X54627621Y-50818000D02*
X54627621Y-52960000D01*
X54627621Y-55040000D02*
X54627621Y-57182000D01*
X54667621Y-50825000D02*
X54667621Y-52960000D01*
X54667621Y-55040000D02*
X54667621Y-57175000D01*
X54707621Y-50833000D02*
X54707621Y-52960000D01*
X54707621Y-55040000D02*
X54707621Y-57167000D01*
X54747621Y-50841000D02*
X54747621Y-52960000D01*
X54747621Y-55040000D02*
X54747621Y-57159000D01*
X54788621Y-50850000D02*
X54788621Y-52960000D01*
X54788621Y-55040000D02*
X54788621Y-57150000D01*
X54828621Y-50859000D02*
X54828621Y-52960000D01*
X54828621Y-55040000D02*
X54828621Y-57141000D01*
X54868621Y-50869000D02*
X54868621Y-52960000D01*
X54868621Y-55040000D02*
X54868621Y-57131000D01*
X54908621Y-50879000D02*
X54908621Y-52960000D01*
X54908621Y-55040000D02*
X54908621Y-57121000D01*
X54948621Y-50890000D02*
X54948621Y-52960000D01*
X54948621Y-55040000D02*
X54948621Y-57110000D01*
X54988621Y-50902000D02*
X54988621Y-52960000D01*
X54988621Y-55040000D02*
X54988621Y-57098000D01*
X55028621Y-50914000D02*
X55028621Y-52960000D01*
X55028621Y-55040000D02*
X55028621Y-57086000D01*
X55068621Y-50926000D02*
X55068621Y-52960000D01*
X55068621Y-55040000D02*
X55068621Y-57074000D01*
X55108621Y-50939000D02*
X55108621Y-52960000D01*
X55108621Y-55040000D02*
X55108621Y-57061000D01*
X55148621Y-50953000D02*
X55148621Y-52960000D01*
X55148621Y-55040000D02*
X55148621Y-57047000D01*
X55188621Y-50967000D02*
X55188621Y-52960000D01*
X55188621Y-55040000D02*
X55188621Y-57033000D01*
X55228621Y-50982000D02*
X55228621Y-52960000D01*
X55228621Y-55040000D02*
X55228621Y-57018000D01*
X55268621Y-50998000D02*
X55268621Y-52960000D01*
X55268621Y-55040000D02*
X55268621Y-57002000D01*
X55308621Y-51014000D02*
X55308621Y-52960000D01*
X55308621Y-55040000D02*
X55308621Y-56986000D01*
X55348621Y-51030000D02*
X55348621Y-52960000D01*
X55348621Y-55040000D02*
X55348621Y-56970000D01*
X55388621Y-51048000D02*
X55388621Y-52960000D01*
X55388621Y-55040000D02*
X55388621Y-56952000D01*
X55428621Y-51066000D02*
X55428621Y-52960000D01*
X55428621Y-55040000D02*
X55428621Y-56934000D01*
X55468621Y-51084000D02*
X55468621Y-52960000D01*
X55468621Y-55040000D02*
X55468621Y-56916000D01*
X55508621Y-51104000D02*
X55508621Y-52960000D01*
X55508621Y-55040000D02*
X55508621Y-56896000D01*
X55548621Y-51124000D02*
X55548621Y-52960000D01*
X55548621Y-55040000D02*
X55548621Y-56876000D01*
X55588621Y-51144000D02*
X55588621Y-52960000D01*
X55588621Y-55040000D02*
X55588621Y-56856000D01*
X55628621Y-51166000D02*
X55628621Y-52960000D01*
X55628621Y-55040000D02*
X55628621Y-56834000D01*
X55668621Y-51188000D02*
X55668621Y-52960000D01*
X55668621Y-55040000D02*
X55668621Y-56812000D01*
X55708621Y-51210000D02*
X55708621Y-52960000D01*
X55708621Y-55040000D02*
X55708621Y-56790000D01*
X55748621Y-51234000D02*
X55748621Y-52960000D01*
X55748621Y-55040000D02*
X55748621Y-56766000D01*
X55788621Y-51258000D02*
X55788621Y-52960000D01*
X55788621Y-55040000D02*
X55788621Y-56742000D01*
X55828621Y-51284000D02*
X55828621Y-52960000D01*
X55828621Y-55040000D02*
X55828621Y-56716000D01*
X55868621Y-51310000D02*
X55868621Y-52960000D01*
X55868621Y-55040000D02*
X55868621Y-56690000D01*
X55908621Y-51336000D02*
X55908621Y-52960000D01*
X55908621Y-55040000D02*
X55908621Y-56664000D01*
X55948621Y-51364000D02*
X55948621Y-52960000D01*
X55948621Y-55040000D02*
X55948621Y-56636000D01*
X55988621Y-51393000D02*
X55988621Y-52960000D01*
X55988621Y-55040000D02*
X55988621Y-56607000D01*
X56028621Y-51422000D02*
X56028621Y-52960000D01*
X56028621Y-55040000D02*
X56028621Y-56578000D01*
X56068621Y-51452000D02*
X56068621Y-52960000D01*
X56068621Y-55040000D02*
X56068621Y-56548000D01*
X56108621Y-51484000D02*
X56108621Y-52960000D01*
X56108621Y-55040000D02*
X56108621Y-56516000D01*
X56148621Y-51516000D02*
X56148621Y-52960000D01*
X56148621Y-55040000D02*
X56148621Y-56484000D01*
X56188621Y-51550000D02*
X56188621Y-52960000D01*
X56188621Y-55040000D02*
X56188621Y-56450000D01*
X56228621Y-51584000D02*
X56228621Y-52960000D01*
X56228621Y-55040000D02*
X56228621Y-56416000D01*
X56268621Y-51620000D02*
X56268621Y-52960000D01*
X56268621Y-55040000D02*
X56268621Y-56380000D01*
X56308621Y-51657000D02*
X56308621Y-52960000D01*
X56308621Y-55040000D02*
X56308621Y-56343000D01*
X56348621Y-51695000D02*
X56348621Y-52960000D01*
X56348621Y-55040000D02*
X56348621Y-56305000D01*
X56388621Y-51735000D02*
X56388621Y-56265000D01*
X56428621Y-51776000D02*
X56428621Y-56224000D01*
X56468621Y-51818000D02*
X56468621Y-56182000D01*
X56508621Y-51863000D02*
X56508621Y-56137000D01*
X56548621Y-51908000D02*
X56548621Y-56092000D01*
X56588621Y-51956000D02*
X56588621Y-56044000D01*
X56628621Y-52005000D02*
X56628621Y-55995000D01*
X56668621Y-52056000D02*
X56668621Y-55944000D01*
X56708621Y-52110000D02*
X56708621Y-55890000D01*
X56748621Y-52166000D02*
X56748621Y-55834000D01*
X56788621Y-52224000D02*
X56788621Y-55776000D01*
X56828621Y-52286000D02*
X56828621Y-55714000D01*
X56868621Y-52350000D02*
X56868621Y-55650000D01*
X56908621Y-52419000D02*
X56908621Y-55581000D01*
X56948621Y-52491000D02*
X56948621Y-55509000D01*
X56988621Y-52568000D02*
X56988621Y-55432000D01*
X57028621Y-52650000D02*
X57028621Y-55350000D01*
X57068621Y-52738000D02*
X57068621Y-55262000D01*
X57108621Y-52835000D02*
X57108621Y-55165000D01*
X57148621Y-52941000D02*
X57148621Y-55059000D01*
X57188621Y-53060000D02*
X57188621Y-54940000D01*
X57228621Y-53198000D02*
X57228621Y-54802000D01*
X57268621Y-53367000D02*
X57268621Y-54633000D01*
X57308621Y-53598000D02*
X57308621Y-54402000D01*
X57337621Y-54000000D02*
G75*
G02*
X50797621Y-54000000I-3270000J0D01*
G01*
X50797621Y-54000000D02*
G75*
G02*
X57337621Y-54000000I3270000J0D01*
G01*
X60365000Y-152527064D02*
X60365000Y-152072936D01*
X61835000Y-152527064D02*
X61835000Y-152072936D01*
X84350000Y-132540000D02*
X85000000Y-132540000D01*
X84350000Y-135660000D02*
X85000000Y-135660000D01*
X85650000Y-132540000D02*
X85000000Y-132540000D01*
X85650000Y-135660000D02*
X85000000Y-135660000D01*
X84077500Y-135940000D02*
X83597500Y-135940000D01*
X83837500Y-135610000D01*
X84077500Y-135940000D01*
G36*
X84077500Y-135940000D02*
G01*
X83597500Y-135940000D01*
X83837500Y-135610000D01*
X84077500Y-135940000D01*
G37*
X80375000Y-121990000D02*
X81025000Y-121990000D01*
X80375000Y-125110000D02*
X81025000Y-125110000D01*
X81675000Y-121990000D02*
X81025000Y-121990000D01*
X81675000Y-125110000D02*
X81025000Y-125110000D01*
X80102500Y-125390000D02*
X79622500Y-125390000D01*
X79862500Y-125060000D01*
X80102500Y-125390000D01*
G36*
X80102500Y-125390000D02*
G01*
X79622500Y-125390000D01*
X79862500Y-125060000D01*
X80102500Y-125390000D01*
G37*
X69265000Y-60927064D02*
X69265000Y-60472936D01*
X70735000Y-60927064D02*
X70735000Y-60472936D01*
X73951248Y-113765000D02*
X74473752Y-113765000D01*
X73951248Y-115235000D02*
X74473752Y-115235000D01*
X60955436Y-91015000D02*
X61409564Y-91015000D01*
X60955436Y-92485000D02*
X61409564Y-92485000D01*
X83090000Y-136650000D02*
X83090000Y-138350000D01*
X86350000Y-136650000D02*
X83090000Y-136650000D01*
X86350000Y-138350000D02*
X83090000Y-138350000D01*
X83090000Y-128250000D02*
X83090000Y-129950000D01*
X86350000Y-128250000D02*
X83090000Y-128250000D01*
X86350000Y-129950000D02*
X83090000Y-129950000D01*
X58265000Y-152527064D02*
X58265000Y-152072936D01*
X59735000Y-152527064D02*
X59735000Y-152072936D01*
X72050000Y-95565000D02*
X74000000Y-95565000D01*
X72050000Y-104435000D02*
X74000000Y-104435000D01*
X75950000Y-95565000D02*
X74000000Y-95565000D01*
X75950000Y-104435000D02*
X74000000Y-104435000D01*
X76700000Y-95630000D02*
X76460000Y-95300000D01*
X76940000Y-95300000D01*
X76700000Y-95630000D01*
G36*
X76700000Y-95630000D02*
G01*
X76460000Y-95300000D01*
X76940000Y-95300000D01*
X76700000Y-95630000D01*
G37*
X65215000Y-122157064D02*
X65215000Y-121702936D01*
X66685000Y-122157064D02*
X66685000Y-121702936D01*
X80170000Y-50790000D02*
X89290000Y-50790000D01*
X80170000Y-59030000D02*
X81480000Y-59030000D01*
X80170000Y-71370000D02*
X80170000Y-50790000D01*
X80360000Y-65660000D02*
X80360000Y-66660000D01*
X80360000Y-66660000D02*
X81360000Y-66160000D01*
X81360000Y-66160000D02*
X80360000Y-65660000D01*
X81480000Y-52090000D02*
X87980000Y-52090000D01*
X81480000Y-59030000D02*
X81480000Y-52090000D01*
X81480000Y-59030000D02*
X81480000Y-59030000D01*
X81480000Y-63130000D02*
X80170000Y-63130000D01*
X81480000Y-70070000D02*
X81480000Y-63130000D01*
X87980000Y-52090000D02*
X87980000Y-70070000D01*
X87980000Y-70070000D02*
X81480000Y-70070000D01*
D14*
X88710000Y-72660000D02*
X80710000Y-72660000D01*
D12*
X89290000Y-50790000D02*
X89290000Y-71370000D01*
X89290000Y-71370000D02*
X80170000Y-71370000D01*
X60065000Y-122157064D02*
X60065000Y-121702936D01*
X61535000Y-122157064D02*
X61535000Y-121702936D01*
X80835436Y-134165000D02*
X81289564Y-134165000D01*
X80835436Y-135635000D02*
X81289564Y-135635000D01*
X74000000Y-118190000D02*
X74650000Y-118190000D01*
X74000000Y-121310000D02*
X74650000Y-121310000D01*
X75300000Y-118190000D02*
X74650000Y-118190000D01*
X75300000Y-121310000D02*
X74650000Y-121310000D01*
X75812500Y-118240000D02*
X75572500Y-117910000D01*
X76052500Y-117910000D01*
X75812500Y-118240000D01*
G36*
X75812500Y-118240000D02*
G01*
X75572500Y-117910000D01*
X76052500Y-117910000D01*
X75812500Y-118240000D01*
G37*
%LPC*%
D15*
X84000000Y-145520000D03*
D16*
X84000000Y-156920000D03*
X84000000Y-148620000D03*
D17*
X65250000Y-60000000D03*
X74750000Y-60000000D03*
D18*
X67500000Y-67500000D03*
D19*
X70000000Y-67500000D03*
X72500000Y-67500000D03*
D17*
X55250000Y-105000000D03*
X64750000Y-105000000D03*
D18*
X57500000Y-112500000D03*
D19*
X60000000Y-112500000D03*
X62500000Y-112500000D03*
D15*
X56000000Y-145520000D03*
D16*
X56000000Y-156920000D03*
X56000000Y-148620000D03*
D15*
X56000000Y-137480000D03*
D16*
X56000000Y-126080000D03*
X56000000Y-134380000D03*
D17*
X65250000Y-131000000D03*
X74750000Y-131000000D03*
D18*
X67500000Y-138500000D03*
D19*
X70000000Y-138500000D03*
X72500000Y-138500000D03*
D17*
X75250000Y-81000000D03*
X84750000Y-81000000D03*
D18*
X77500000Y-88500000D03*
D19*
X80000000Y-88500000D03*
X82500000Y-88500000D03*
D15*
X67000000Y-145520000D03*
D16*
X67000000Y-156920000D03*
X67000000Y-148620000D03*
D18*
X82690000Y-141000000D03*
D19*
X85230000Y-141000000D03*
D17*
X55250000Y-81000000D03*
X64750000Y-81000000D03*
D18*
X57500000Y-88500000D03*
D19*
X60000000Y-88500000D03*
X62500000Y-88500000D03*
D20*
X59000000Y-61250000D03*
D21*
X61000000Y-61250000D03*
D22*
X77462500Y-112250000D03*
X75462500Y-112250000D03*
D23*
X61000000Y-66500000D03*
D20*
X60972600Y-54000000D03*
D21*
X58972600Y-54000000D03*
D24*
X77462500Y-114750000D03*
X77462500Y-116750000D03*
D25*
X79310000Y-157000000D03*
X81310000Y-157000000D03*
D22*
X80000000Y-120750000D03*
X78000000Y-120750000D03*
D24*
X54587500Y-120930000D03*
X54587500Y-122930000D03*
D25*
X86000000Y-122600000D03*
X88000000Y-122600000D03*
D26*
X61100000Y-149250000D03*
X61100000Y-146750000D03*
D22*
X73462500Y-112250000D03*
X71462500Y-112250000D03*
D27*
X51687500Y-120875000D03*
X51687500Y-123375000D03*
D28*
X55250000Y-61250000D03*
D29*
X52750000Y-61250000D03*
D24*
X80000000Y-141000000D03*
X80000000Y-143000000D03*
D30*
X78712500Y-100000000D03*
X80787500Y-100000000D03*
D23*
X61500000Y-141250000D03*
D30*
X80162500Y-129085000D03*
X82237500Y-129085000D03*
D31*
X62250000Y-96250000D03*
X60175000Y-96250000D03*
D22*
X74750000Y-86000000D03*
X72750000Y-86000000D03*
D30*
X73175000Y-116750000D03*
X75250000Y-116750000D03*
D32*
X59000000Y-147262500D03*
X59000000Y-149337500D03*
D22*
X82062500Y-137000000D03*
X80062500Y-137000000D03*
D33*
X68050000Y-121062500D03*
X69950000Y-121062500D03*
X69000000Y-122937500D03*
D25*
X78750000Y-97000000D03*
X80750000Y-97000000D03*
D23*
X69250000Y-92750000D03*
D34*
X62565000Y-98500000D03*
X60065000Y-98500000D03*
D24*
X79000000Y-93000000D03*
X79000000Y-95000000D03*
D30*
X66212500Y-100000000D03*
X68287500Y-100000000D03*
D25*
X60182500Y-94000000D03*
X62182500Y-94000000D03*
D23*
X57500000Y-66450000D03*
D22*
X86000000Y-124700000D03*
X84000000Y-124700000D03*
D33*
X56750000Y-121062500D03*
X58650000Y-121062500D03*
X57700000Y-122937500D03*
D35*
X63000000Y-122930000D03*
X63000000Y-120930000D03*
D23*
X54000000Y-66500000D03*
D28*
X52817621Y-54000000D03*
D29*
X55317621Y-54000000D03*
D24*
X61100000Y-151300000D03*
X61100000Y-153300000D03*
D36*
X84062500Y-135050000D03*
X84062500Y-133150000D03*
X85937500Y-134100000D03*
X80087500Y-124500000D03*
X80087500Y-122600000D03*
X81962500Y-123550000D03*
D24*
X70000000Y-59700000D03*
X70000000Y-61700000D03*
D31*
X75250000Y-114500000D03*
X73175000Y-114500000D03*
D22*
X62182500Y-91750000D03*
X60182500Y-91750000D03*
D37*
X83850000Y-137500000D03*
X86350000Y-137500000D03*
X83850000Y-129100000D03*
X86350000Y-129100000D03*
D24*
X59000000Y-151300000D03*
X59000000Y-153300000D03*
D38*
X76475000Y-96190000D03*
X76475000Y-97460000D03*
X76475000Y-98730000D03*
X76475000Y-100000000D03*
X76475000Y-101270000D03*
X76475000Y-102540000D03*
X76475000Y-103810000D03*
X71525000Y-103810000D03*
X71525000Y-102540000D03*
X71525000Y-101270000D03*
X71525000Y-100000000D03*
X71525000Y-98730000D03*
X71525000Y-97460000D03*
X71525000Y-96190000D03*
D24*
X65950000Y-120930000D03*
X65950000Y-122930000D03*
D39*
X83460000Y-66160000D03*
D40*
X86000000Y-66160000D03*
X83460000Y-63620000D03*
X86000000Y-63620000D03*
X83460000Y-61080000D03*
X86000000Y-61080000D03*
X83460000Y-58540000D03*
X86000000Y-58540000D03*
X83460000Y-56000000D03*
X86000000Y-56000000D03*
D24*
X60800000Y-120930000D03*
X60800000Y-122930000D03*
D22*
X82062500Y-134900000D03*
X80062500Y-134900000D03*
D41*
X75587500Y-118800000D03*
X75587500Y-120700000D03*
X73712500Y-119750000D03*
%LPD*%
M02*
