G04 #@! TF.GenerationSoftware,KiCad,Pcbnew,8.0.5*
G04 #@! TF.CreationDate,2024-11-24T11:21:00+01:00*
G04 #@! TF.ProjectId,kicks,6b69636b-732e-46b6-9963-61645f706362,rev?*
G04 #@! TF.SameCoordinates,Original*
G04 #@! TF.FileFunction,Legend,Top*
G04 #@! TF.FilePolarity,Positive*
%FSLAX46Y46*%
G04 Gerber Fmt 4.6, Leading zero omitted, Abs format (unit mm)*
G04 Created by KiCad (PCBNEW 8.0.5) date 2024-11-24 11:21:00*
%MOMM*%
%LPD*%
G01*
G04 APERTURE LIST*
G04 Aperture macros list*
%AMRoundRect*
0 Rectangle with rounded corners*
0 $1 Rounding radius*
0 $2 $3 $4 $5 $6 $7 $8 $9 X,Y pos of 4 corners*
0 Add a 4 corners polygon primitive as box body*
4,1,4,$2,$3,$4,$5,$6,$7,$8,$9,$2,$3,0*
0 Add four circle primitives for the rounded corners*
1,1,$1+$1,$2,$3*
1,1,$1+$1,$4,$5*
1,1,$1+$1,$6,$7*
1,1,$1+$1,$8,$9*
0 Add four rect primitives between the rounded corners*
20,1,$1+$1,$2,$3,$4,$5,0*
20,1,$1+$1,$4,$5,$6,$7,0*
20,1,$1+$1,$6,$7,$8,$9,0*
20,1,$1+$1,$8,$9,$2,$3,0*%
G04 Aperture macros list end*
%ADD10C,0.150000*%
%ADD11C,0.120000*%
%ADD12C,0.000000*%
%ADD13R,1.930000X1.830000*%
%ADD14C,2.130000*%
%ADD15RoundRect,0.225000X0.225000X0.375000X-0.225000X0.375000X-0.225000X-0.375000X0.225000X-0.375000X0*%
%ADD16O,4.000000X4.000000*%
%ADD17R,1.800000X1.800000*%
%ADD18C,1.800000*%
%ADD19RoundRect,0.225000X-0.225000X-0.375000X0.225000X-0.375000X0.225000X0.375000X-0.225000X0.375000X0*%
%ADD20RoundRect,0.250000X0.350000X0.450000X-0.350000X0.450000X-0.350000X-0.450000X0.350000X-0.450000X0*%
%ADD21R,1.200000X1.200000*%
%ADD22C,1.200000*%
%ADD23C,2.000000*%
%ADD24R,1.600000X1.600000*%
%ADD25C,1.600000*%
%ADD26RoundRect,0.250000X-0.600000X-0.600000X0.600000X-0.600000X0.600000X0.600000X-0.600000X0.600000X0*%
%ADD27C,1.700000*%
G04 APERTURE END LIST*
D10*
X68336779Y-53869819D02*
X68336779Y-52869819D01*
X68336779Y-52869819D02*
X68717731Y-52869819D01*
X68717731Y-52869819D02*
X68812969Y-52917438D01*
X68812969Y-52917438D02*
X68860588Y-52965057D01*
X68860588Y-52965057D02*
X68908207Y-53060295D01*
X68908207Y-53060295D02*
X68908207Y-53203152D01*
X68908207Y-53203152D02*
X68860588Y-53298390D01*
X68860588Y-53298390D02*
X68812969Y-53346009D01*
X68812969Y-53346009D02*
X68717731Y-53393628D01*
X68717731Y-53393628D02*
X68336779Y-53393628D01*
X69336779Y-53869819D02*
X69336779Y-53203152D01*
X69336779Y-52869819D02*
X69289160Y-52917438D01*
X69289160Y-52917438D02*
X69336779Y-52965057D01*
X69336779Y-52965057D02*
X69384398Y-52917438D01*
X69384398Y-52917438D02*
X69336779Y-52869819D01*
X69336779Y-52869819D02*
X69336779Y-52965057D01*
X69670112Y-53203152D02*
X70051064Y-53203152D01*
X69812969Y-52869819D02*
X69812969Y-53726961D01*
X69812969Y-53726961D02*
X69860588Y-53822200D01*
X69860588Y-53822200D02*
X69955826Y-53869819D01*
X69955826Y-53869819D02*
X70051064Y-53869819D01*
X70812969Y-53822200D02*
X70717731Y-53869819D01*
X70717731Y-53869819D02*
X70527255Y-53869819D01*
X70527255Y-53869819D02*
X70432017Y-53822200D01*
X70432017Y-53822200D02*
X70384398Y-53774580D01*
X70384398Y-53774580D02*
X70336779Y-53679342D01*
X70336779Y-53679342D02*
X70336779Y-53393628D01*
X70336779Y-53393628D02*
X70384398Y-53298390D01*
X70384398Y-53298390D02*
X70432017Y-53250771D01*
X70432017Y-53250771D02*
X70527255Y-53203152D01*
X70527255Y-53203152D02*
X70717731Y-53203152D01*
X70717731Y-53203152D02*
X70812969Y-53250771D01*
X71241541Y-53869819D02*
X71241541Y-52869819D01*
X71670112Y-53869819D02*
X71670112Y-53346009D01*
X71670112Y-53346009D02*
X71622493Y-53250771D01*
X71622493Y-53250771D02*
X71527255Y-53203152D01*
X71527255Y-53203152D02*
X71384398Y-53203152D01*
X71384398Y-53203152D02*
X71289160Y-53250771D01*
X71289160Y-53250771D02*
X71241541Y-53298390D01*
X58336779Y-74869819D02*
X58336779Y-73869819D01*
X58336779Y-73869819D02*
X58574874Y-73869819D01*
X58574874Y-73869819D02*
X58717731Y-73917438D01*
X58717731Y-73917438D02*
X58812969Y-74012676D01*
X58812969Y-74012676D02*
X58860588Y-74107914D01*
X58860588Y-74107914D02*
X58908207Y-74298390D01*
X58908207Y-74298390D02*
X58908207Y-74441247D01*
X58908207Y-74441247D02*
X58860588Y-74631723D01*
X58860588Y-74631723D02*
X58812969Y-74726961D01*
X58812969Y-74726961D02*
X58717731Y-74822200D01*
X58717731Y-74822200D02*
X58574874Y-74869819D01*
X58574874Y-74869819D02*
X58336779Y-74869819D01*
X59717731Y-74822200D02*
X59622493Y-74869819D01*
X59622493Y-74869819D02*
X59432017Y-74869819D01*
X59432017Y-74869819D02*
X59336779Y-74822200D01*
X59336779Y-74822200D02*
X59289160Y-74726961D01*
X59289160Y-74726961D02*
X59289160Y-74346009D01*
X59289160Y-74346009D02*
X59336779Y-74250771D01*
X59336779Y-74250771D02*
X59432017Y-74203152D01*
X59432017Y-74203152D02*
X59622493Y-74203152D01*
X59622493Y-74203152D02*
X59717731Y-74250771D01*
X59717731Y-74250771D02*
X59765350Y-74346009D01*
X59765350Y-74346009D02*
X59765350Y-74441247D01*
X59765350Y-74441247D02*
X59289160Y-74536485D01*
X60622493Y-74822200D02*
X60527255Y-74869819D01*
X60527255Y-74869819D02*
X60336779Y-74869819D01*
X60336779Y-74869819D02*
X60241541Y-74822200D01*
X60241541Y-74822200D02*
X60193922Y-74774580D01*
X60193922Y-74774580D02*
X60146303Y-74679342D01*
X60146303Y-74679342D02*
X60146303Y-74393628D01*
X60146303Y-74393628D02*
X60193922Y-74298390D01*
X60193922Y-74298390D02*
X60241541Y-74250771D01*
X60241541Y-74250771D02*
X60336779Y-74203152D01*
X60336779Y-74203152D02*
X60527255Y-74203152D01*
X60527255Y-74203152D02*
X60622493Y-74250771D01*
X61479636Y-74869819D02*
X61479636Y-74346009D01*
X61479636Y-74346009D02*
X61432017Y-74250771D01*
X61432017Y-74250771D02*
X61336779Y-74203152D01*
X61336779Y-74203152D02*
X61146303Y-74203152D01*
X61146303Y-74203152D02*
X61051065Y-74250771D01*
X61479636Y-74822200D02*
X61384398Y-74869819D01*
X61384398Y-74869819D02*
X61146303Y-74869819D01*
X61146303Y-74869819D02*
X61051065Y-74822200D01*
X61051065Y-74822200D02*
X61003446Y-74726961D01*
X61003446Y-74726961D02*
X61003446Y-74631723D01*
X61003446Y-74631723D02*
X61051065Y-74536485D01*
X61051065Y-74536485D02*
X61146303Y-74488866D01*
X61146303Y-74488866D02*
X61384398Y-74488866D01*
X61384398Y-74488866D02*
X61479636Y-74441247D01*
X61860589Y-74203152D02*
X62098684Y-74869819D01*
X62336779Y-74203152D02*
X62098684Y-74869819D01*
X62098684Y-74869819D02*
X62003446Y-75107914D01*
X62003446Y-75107914D02*
X61955827Y-75155533D01*
X61955827Y-75155533D02*
X61860589Y-75203152D01*
X89369819Y-74687030D02*
X89369819Y-75163220D01*
X89369819Y-75163220D02*
X88369819Y-75163220D01*
X88846009Y-74353696D02*
X88846009Y-74020363D01*
X89369819Y-73877506D02*
X89369819Y-74353696D01*
X89369819Y-74353696D02*
X88369819Y-74353696D01*
X88369819Y-74353696D02*
X88369819Y-73877506D01*
X89369819Y-73448934D02*
X88369819Y-73448934D01*
X88369819Y-73448934D02*
X89369819Y-72877506D01*
X89369819Y-72877506D02*
X88369819Y-72877506D01*
X89369819Y-72401315D02*
X88369819Y-72401315D01*
X89369819Y-71925125D02*
X88369819Y-71925125D01*
X88369819Y-71925125D02*
X89084104Y-71591792D01*
X89084104Y-71591792D02*
X88369819Y-71258459D01*
X88369819Y-71258459D02*
X89369819Y-71258459D01*
X89084104Y-70829887D02*
X89084104Y-70353697D01*
X89369819Y-70925125D02*
X88369819Y-70591792D01*
X88369819Y-70591792D02*
X89369819Y-70258459D01*
X89369819Y-69448935D02*
X89369819Y-69925125D01*
X89369819Y-69925125D02*
X88369819Y-69925125D01*
X89369819Y-68353696D02*
X88369819Y-68353696D01*
X88369819Y-68353696D02*
X88369819Y-67972744D01*
X88369819Y-67972744D02*
X88417438Y-67877506D01*
X88417438Y-67877506D02*
X88465057Y-67829887D01*
X88465057Y-67829887D02*
X88560295Y-67782268D01*
X88560295Y-67782268D02*
X88703152Y-67782268D01*
X88703152Y-67782268D02*
X88798390Y-67829887D01*
X88798390Y-67829887D02*
X88846009Y-67877506D01*
X88846009Y-67877506D02*
X88893628Y-67972744D01*
X88893628Y-67972744D02*
X88893628Y-68353696D01*
X89274580Y-66782268D02*
X89322200Y-66829887D01*
X89322200Y-66829887D02*
X89369819Y-66972744D01*
X89369819Y-66972744D02*
X89369819Y-67067982D01*
X89369819Y-67067982D02*
X89322200Y-67210839D01*
X89322200Y-67210839D02*
X89226961Y-67306077D01*
X89226961Y-67306077D02*
X89131723Y-67353696D01*
X89131723Y-67353696D02*
X88941247Y-67401315D01*
X88941247Y-67401315D02*
X88798390Y-67401315D01*
X88798390Y-67401315D02*
X88607914Y-67353696D01*
X88607914Y-67353696D02*
X88512676Y-67306077D01*
X88512676Y-67306077D02*
X88417438Y-67210839D01*
X88417438Y-67210839D02*
X88369819Y-67067982D01*
X88369819Y-67067982D02*
X88369819Y-66972744D01*
X88369819Y-66972744D02*
X88417438Y-66829887D01*
X88417438Y-66829887D02*
X88465057Y-66782268D01*
X88846009Y-66020363D02*
X88893628Y-65877506D01*
X88893628Y-65877506D02*
X88941247Y-65829887D01*
X88941247Y-65829887D02*
X89036485Y-65782268D01*
X89036485Y-65782268D02*
X89179342Y-65782268D01*
X89179342Y-65782268D02*
X89274580Y-65829887D01*
X89274580Y-65829887D02*
X89322200Y-65877506D01*
X89322200Y-65877506D02*
X89369819Y-65972744D01*
X89369819Y-65972744D02*
X89369819Y-66353696D01*
X89369819Y-66353696D02*
X88369819Y-66353696D01*
X88369819Y-66353696D02*
X88369819Y-66020363D01*
X88369819Y-66020363D02*
X88417438Y-65925125D01*
X88417438Y-65925125D02*
X88465057Y-65877506D01*
X88465057Y-65877506D02*
X88560295Y-65829887D01*
X88560295Y-65829887D02*
X88655533Y-65829887D01*
X88655533Y-65829887D02*
X88750771Y-65877506D01*
X88750771Y-65877506D02*
X88798390Y-65925125D01*
X88798390Y-65925125D02*
X88846009Y-66020363D01*
X88846009Y-66020363D02*
X88846009Y-66353696D01*
X89369819Y-64591791D02*
X88369819Y-64591791D01*
X88369819Y-64591791D02*
X88369819Y-64353696D01*
X88369819Y-64353696D02*
X88417438Y-64210839D01*
X88417438Y-64210839D02*
X88512676Y-64115601D01*
X88512676Y-64115601D02*
X88607914Y-64067982D01*
X88607914Y-64067982D02*
X88798390Y-64020363D01*
X88798390Y-64020363D02*
X88941247Y-64020363D01*
X88941247Y-64020363D02*
X89131723Y-64067982D01*
X89131723Y-64067982D02*
X89226961Y-64115601D01*
X89226961Y-64115601D02*
X89322200Y-64210839D01*
X89322200Y-64210839D02*
X89369819Y-64353696D01*
X89369819Y-64353696D02*
X89369819Y-64591791D01*
X88846009Y-63591791D02*
X88846009Y-63258458D01*
X89369819Y-63115601D02*
X89369819Y-63591791D01*
X89369819Y-63591791D02*
X88369819Y-63591791D01*
X88369819Y-63591791D02*
X88369819Y-63115601D01*
X89322200Y-62734648D02*
X89369819Y-62591791D01*
X89369819Y-62591791D02*
X89369819Y-62353696D01*
X89369819Y-62353696D02*
X89322200Y-62258458D01*
X89322200Y-62258458D02*
X89274580Y-62210839D01*
X89274580Y-62210839D02*
X89179342Y-62163220D01*
X89179342Y-62163220D02*
X89084104Y-62163220D01*
X89084104Y-62163220D02*
X88988866Y-62210839D01*
X88988866Y-62210839D02*
X88941247Y-62258458D01*
X88941247Y-62258458D02*
X88893628Y-62353696D01*
X88893628Y-62353696D02*
X88846009Y-62544172D01*
X88846009Y-62544172D02*
X88798390Y-62639410D01*
X88798390Y-62639410D02*
X88750771Y-62687029D01*
X88750771Y-62687029D02*
X88655533Y-62734648D01*
X88655533Y-62734648D02*
X88560295Y-62734648D01*
X88560295Y-62734648D02*
X88465057Y-62687029D01*
X88465057Y-62687029D02*
X88417438Y-62639410D01*
X88417438Y-62639410D02*
X88369819Y-62544172D01*
X88369819Y-62544172D02*
X88369819Y-62306077D01*
X88369819Y-62306077D02*
X88417438Y-62163220D01*
X89369819Y-61734648D02*
X88369819Y-61734648D01*
X88417438Y-60734649D02*
X88369819Y-60829887D01*
X88369819Y-60829887D02*
X88369819Y-60972744D01*
X88369819Y-60972744D02*
X88417438Y-61115601D01*
X88417438Y-61115601D02*
X88512676Y-61210839D01*
X88512676Y-61210839D02*
X88607914Y-61258458D01*
X88607914Y-61258458D02*
X88798390Y-61306077D01*
X88798390Y-61306077D02*
X88941247Y-61306077D01*
X88941247Y-61306077D02*
X89131723Y-61258458D01*
X89131723Y-61258458D02*
X89226961Y-61210839D01*
X89226961Y-61210839D02*
X89322200Y-61115601D01*
X89322200Y-61115601D02*
X89369819Y-60972744D01*
X89369819Y-60972744D02*
X89369819Y-60877506D01*
X89369819Y-60877506D02*
X89322200Y-60734649D01*
X89322200Y-60734649D02*
X89274580Y-60687030D01*
X89274580Y-60687030D02*
X88941247Y-60687030D01*
X88941247Y-60687030D02*
X88941247Y-60877506D01*
X89369819Y-60258458D02*
X88369819Y-60258458D01*
X88369819Y-60258458D02*
X89369819Y-59687030D01*
X89369819Y-59687030D02*
X88369819Y-59687030D01*
X88988866Y-58448934D02*
X88988866Y-57687030D01*
X88369819Y-56258458D02*
X88369819Y-56163220D01*
X88369819Y-56163220D02*
X88417438Y-56067982D01*
X88417438Y-56067982D02*
X88465057Y-56020363D01*
X88465057Y-56020363D02*
X88560295Y-55972744D01*
X88560295Y-55972744D02*
X88750771Y-55925125D01*
X88750771Y-55925125D02*
X88988866Y-55925125D01*
X88988866Y-55925125D02*
X89179342Y-55972744D01*
X89179342Y-55972744D02*
X89274580Y-56020363D01*
X89274580Y-56020363D02*
X89322200Y-56067982D01*
X89322200Y-56067982D02*
X89369819Y-56163220D01*
X89369819Y-56163220D02*
X89369819Y-56258458D01*
X89369819Y-56258458D02*
X89322200Y-56353696D01*
X89322200Y-56353696D02*
X89274580Y-56401315D01*
X89274580Y-56401315D02*
X89179342Y-56448934D01*
X89179342Y-56448934D02*
X88988866Y-56496553D01*
X88988866Y-56496553D02*
X88750771Y-56496553D01*
X88750771Y-56496553D02*
X88560295Y-56448934D01*
X88560295Y-56448934D02*
X88465057Y-56401315D01*
X88465057Y-56401315D02*
X88417438Y-56353696D01*
X88417438Y-56353696D02*
X88369819Y-56258458D01*
X89369819Y-55448934D02*
X89369819Y-55258458D01*
X89369819Y-55258458D02*
X89322200Y-55163220D01*
X89322200Y-55163220D02*
X89274580Y-55115601D01*
X89274580Y-55115601D02*
X89131723Y-55020363D01*
X89131723Y-55020363D02*
X88941247Y-54972744D01*
X88941247Y-54972744D02*
X88560295Y-54972744D01*
X88560295Y-54972744D02*
X88465057Y-55020363D01*
X88465057Y-55020363D02*
X88417438Y-55067982D01*
X88417438Y-55067982D02*
X88369819Y-55163220D01*
X88369819Y-55163220D02*
X88369819Y-55353696D01*
X88369819Y-55353696D02*
X88417438Y-55448934D01*
X88417438Y-55448934D02*
X88465057Y-55496553D01*
X88465057Y-55496553D02*
X88560295Y-55544172D01*
X88560295Y-55544172D02*
X88798390Y-55544172D01*
X88798390Y-55544172D02*
X88893628Y-55496553D01*
X88893628Y-55496553D02*
X88941247Y-55448934D01*
X88941247Y-55448934D02*
X88988866Y-55353696D01*
X88988866Y-55353696D02*
X88988866Y-55163220D01*
X88988866Y-55163220D02*
X88941247Y-55067982D01*
X88941247Y-55067982D02*
X88893628Y-55020363D01*
X88893628Y-55020363D02*
X88798390Y-54972744D01*
X89274580Y-54544172D02*
X89322200Y-54496553D01*
X89322200Y-54496553D02*
X89369819Y-54544172D01*
X89369819Y-54544172D02*
X89322200Y-54591791D01*
X89322200Y-54591791D02*
X89274580Y-54544172D01*
X89274580Y-54544172D02*
X89369819Y-54544172D01*
X88465057Y-54115601D02*
X88417438Y-54067982D01*
X88417438Y-54067982D02*
X88369819Y-53972744D01*
X88369819Y-53972744D02*
X88369819Y-53734649D01*
X88369819Y-53734649D02*
X88417438Y-53639411D01*
X88417438Y-53639411D02*
X88465057Y-53591792D01*
X88465057Y-53591792D02*
X88560295Y-53544173D01*
X88560295Y-53544173D02*
X88655533Y-53544173D01*
X88655533Y-53544173D02*
X88798390Y-53591792D01*
X88798390Y-53591792D02*
X89369819Y-54163220D01*
X89369819Y-54163220D02*
X89369819Y-53544173D01*
X88369819Y-52925125D02*
X88369819Y-52829887D01*
X88369819Y-52829887D02*
X88417438Y-52734649D01*
X88417438Y-52734649D02*
X88465057Y-52687030D01*
X88465057Y-52687030D02*
X88560295Y-52639411D01*
X88560295Y-52639411D02*
X88750771Y-52591792D01*
X88750771Y-52591792D02*
X88988866Y-52591792D01*
X88988866Y-52591792D02*
X89179342Y-52639411D01*
X89179342Y-52639411D02*
X89274580Y-52687030D01*
X89274580Y-52687030D02*
X89322200Y-52734649D01*
X89322200Y-52734649D02*
X89369819Y-52829887D01*
X89369819Y-52829887D02*
X89369819Y-52925125D01*
X89369819Y-52925125D02*
X89322200Y-53020363D01*
X89322200Y-53020363D02*
X89274580Y-53067982D01*
X89274580Y-53067982D02*
X89179342Y-53115601D01*
X89179342Y-53115601D02*
X88988866Y-53163220D01*
X88988866Y-53163220D02*
X88750771Y-53163220D01*
X88750771Y-53163220D02*
X88560295Y-53115601D01*
X88560295Y-53115601D02*
X88465057Y-53067982D01*
X88465057Y-53067982D02*
X88417438Y-53020363D01*
X88417438Y-53020363D02*
X88369819Y-52925125D01*
X88465057Y-52210839D02*
X88417438Y-52163220D01*
X88417438Y-52163220D02*
X88369819Y-52067982D01*
X88369819Y-52067982D02*
X88369819Y-51829887D01*
X88369819Y-51829887D02*
X88417438Y-51734649D01*
X88417438Y-51734649D02*
X88465057Y-51687030D01*
X88465057Y-51687030D02*
X88560295Y-51639411D01*
X88560295Y-51639411D02*
X88655533Y-51639411D01*
X88655533Y-51639411D02*
X88798390Y-51687030D01*
X88798390Y-51687030D02*
X89369819Y-52258458D01*
X89369819Y-52258458D02*
X89369819Y-51639411D01*
X88703152Y-50782268D02*
X89369819Y-50782268D01*
X88322200Y-51020363D02*
X89036485Y-51258458D01*
X89036485Y-51258458D02*
X89036485Y-50639411D01*
X64789160Y-159084104D02*
X65265350Y-159084104D01*
X64693922Y-159369819D02*
X65027255Y-158369819D01*
X65027255Y-158369819D02*
X65360588Y-159369819D01*
X66122493Y-159322200D02*
X66027255Y-159369819D01*
X66027255Y-159369819D02*
X65836779Y-159369819D01*
X65836779Y-159369819D02*
X65741541Y-159322200D01*
X65741541Y-159322200D02*
X65693922Y-159274580D01*
X65693922Y-159274580D02*
X65646303Y-159179342D01*
X65646303Y-159179342D02*
X65646303Y-158893628D01*
X65646303Y-158893628D02*
X65693922Y-158798390D01*
X65693922Y-158798390D02*
X65741541Y-158750771D01*
X65741541Y-158750771D02*
X65836779Y-158703152D01*
X65836779Y-158703152D02*
X66027255Y-158703152D01*
X66027255Y-158703152D02*
X66122493Y-158750771D01*
X66979636Y-159322200D02*
X66884398Y-159369819D01*
X66884398Y-159369819D02*
X66693922Y-159369819D01*
X66693922Y-159369819D02*
X66598684Y-159322200D01*
X66598684Y-159322200D02*
X66551065Y-159274580D01*
X66551065Y-159274580D02*
X66503446Y-159179342D01*
X66503446Y-159179342D02*
X66503446Y-158893628D01*
X66503446Y-158893628D02*
X66551065Y-158798390D01*
X66551065Y-158798390D02*
X66598684Y-158750771D01*
X66598684Y-158750771D02*
X66693922Y-158703152D01*
X66693922Y-158703152D02*
X66884398Y-158703152D01*
X66884398Y-158703152D02*
X66979636Y-158750771D01*
X67789160Y-159322200D02*
X67693922Y-159369819D01*
X67693922Y-159369819D02*
X67503446Y-159369819D01*
X67503446Y-159369819D02*
X67408208Y-159322200D01*
X67408208Y-159322200D02*
X67360589Y-159226961D01*
X67360589Y-159226961D02*
X67360589Y-158846009D01*
X67360589Y-158846009D02*
X67408208Y-158750771D01*
X67408208Y-158750771D02*
X67503446Y-158703152D01*
X67503446Y-158703152D02*
X67693922Y-158703152D01*
X67693922Y-158703152D02*
X67789160Y-158750771D01*
X67789160Y-158750771D02*
X67836779Y-158846009D01*
X67836779Y-158846009D02*
X67836779Y-158941247D01*
X67836779Y-158941247D02*
X67360589Y-159036485D01*
X68265351Y-158703152D02*
X68265351Y-159369819D01*
X68265351Y-158798390D02*
X68312970Y-158750771D01*
X68312970Y-158750771D02*
X68408208Y-158703152D01*
X68408208Y-158703152D02*
X68551065Y-158703152D01*
X68551065Y-158703152D02*
X68646303Y-158750771D01*
X68646303Y-158750771D02*
X68693922Y-158846009D01*
X68693922Y-158846009D02*
X68693922Y-159369819D01*
X69027256Y-158703152D02*
X69408208Y-158703152D01*
X69170113Y-158369819D02*
X69170113Y-159226961D01*
X69170113Y-159226961D02*
X69217732Y-159322200D01*
X69217732Y-159322200D02*
X69312970Y-159369819D01*
X69312970Y-159369819D02*
X69408208Y-159369819D01*
X78086779Y-74869819D02*
X78086779Y-73869819D01*
X78086779Y-73869819D02*
X78324874Y-73869819D01*
X78324874Y-73869819D02*
X78467731Y-73917438D01*
X78467731Y-73917438D02*
X78562969Y-74012676D01*
X78562969Y-74012676D02*
X78610588Y-74107914D01*
X78610588Y-74107914D02*
X78658207Y-74298390D01*
X78658207Y-74298390D02*
X78658207Y-74441247D01*
X78658207Y-74441247D02*
X78610588Y-74631723D01*
X78610588Y-74631723D02*
X78562969Y-74726961D01*
X78562969Y-74726961D02*
X78467731Y-74822200D01*
X78467731Y-74822200D02*
X78324874Y-74869819D01*
X78324874Y-74869819D02*
X78086779Y-74869819D01*
X79467731Y-74822200D02*
X79372493Y-74869819D01*
X79372493Y-74869819D02*
X79182017Y-74869819D01*
X79182017Y-74869819D02*
X79086779Y-74822200D01*
X79086779Y-74822200D02*
X79039160Y-74726961D01*
X79039160Y-74726961D02*
X79039160Y-74346009D01*
X79039160Y-74346009D02*
X79086779Y-74250771D01*
X79086779Y-74250771D02*
X79182017Y-74203152D01*
X79182017Y-74203152D02*
X79372493Y-74203152D01*
X79372493Y-74203152D02*
X79467731Y-74250771D01*
X79467731Y-74250771D02*
X79515350Y-74346009D01*
X79515350Y-74346009D02*
X79515350Y-74441247D01*
X79515350Y-74441247D02*
X79039160Y-74536485D01*
X79943922Y-74203152D02*
X79943922Y-75203152D01*
X79943922Y-74250771D02*
X80039160Y-74203152D01*
X80039160Y-74203152D02*
X80229636Y-74203152D01*
X80229636Y-74203152D02*
X80324874Y-74250771D01*
X80324874Y-74250771D02*
X80372493Y-74298390D01*
X80372493Y-74298390D02*
X80420112Y-74393628D01*
X80420112Y-74393628D02*
X80420112Y-74679342D01*
X80420112Y-74679342D02*
X80372493Y-74774580D01*
X80372493Y-74774580D02*
X80324874Y-74822200D01*
X80324874Y-74822200D02*
X80229636Y-74869819D01*
X80229636Y-74869819D02*
X80039160Y-74869819D01*
X80039160Y-74869819D02*
X79943922Y-74822200D01*
X80705827Y-74203152D02*
X81086779Y-74203152D01*
X80848684Y-73869819D02*
X80848684Y-74726961D01*
X80848684Y-74726961D02*
X80896303Y-74822200D01*
X80896303Y-74822200D02*
X80991541Y-74869819D01*
X80991541Y-74869819D02*
X81086779Y-74869819D01*
X81420113Y-74869819D02*
X81420113Y-73869819D01*
X81848684Y-74869819D02*
X81848684Y-74346009D01*
X81848684Y-74346009D02*
X81801065Y-74250771D01*
X81801065Y-74250771D02*
X81705827Y-74203152D01*
X81705827Y-74203152D02*
X81562970Y-74203152D01*
X81562970Y-74203152D02*
X81467732Y-74250771D01*
X81467732Y-74250771D02*
X81420113Y-74298390D01*
X54336779Y-124369819D02*
X54336779Y-123369819D01*
X54336779Y-123369819D02*
X54717731Y-123369819D01*
X54717731Y-123369819D02*
X54812969Y-123417438D01*
X54812969Y-123417438D02*
X54860588Y-123465057D01*
X54860588Y-123465057D02*
X54908207Y-123560295D01*
X54908207Y-123560295D02*
X54908207Y-123703152D01*
X54908207Y-123703152D02*
X54860588Y-123798390D01*
X54860588Y-123798390D02*
X54812969Y-123846009D01*
X54812969Y-123846009D02*
X54717731Y-123893628D01*
X54717731Y-123893628D02*
X54336779Y-123893628D01*
X55336779Y-124369819D02*
X55336779Y-123703152D01*
X55336779Y-123369819D02*
X55289160Y-123417438D01*
X55289160Y-123417438D02*
X55336779Y-123465057D01*
X55336779Y-123465057D02*
X55384398Y-123417438D01*
X55384398Y-123417438D02*
X55336779Y-123369819D01*
X55336779Y-123369819D02*
X55336779Y-123465057D01*
X55670112Y-123703152D02*
X56051064Y-123703152D01*
X55812969Y-123369819D02*
X55812969Y-124226961D01*
X55812969Y-124226961D02*
X55860588Y-124322200D01*
X55860588Y-124322200D02*
X55955826Y-124369819D01*
X55955826Y-124369819D02*
X56051064Y-124369819D01*
X56812969Y-124322200D02*
X56717731Y-124369819D01*
X56717731Y-124369819D02*
X56527255Y-124369819D01*
X56527255Y-124369819D02*
X56432017Y-124322200D01*
X56432017Y-124322200D02*
X56384398Y-124274580D01*
X56384398Y-124274580D02*
X56336779Y-124179342D01*
X56336779Y-124179342D02*
X56336779Y-123893628D01*
X56336779Y-123893628D02*
X56384398Y-123798390D01*
X56384398Y-123798390D02*
X56432017Y-123750771D01*
X56432017Y-123750771D02*
X56527255Y-123703152D01*
X56527255Y-123703152D02*
X56717731Y-123703152D01*
X56717731Y-123703152D02*
X56812969Y-123750771D01*
X57241541Y-124369819D02*
X57241541Y-123369819D01*
X57670112Y-124369819D02*
X57670112Y-123846009D01*
X57670112Y-123846009D02*
X57622493Y-123750771D01*
X57622493Y-123750771D02*
X57527255Y-123703152D01*
X57527255Y-123703152D02*
X57384398Y-123703152D01*
X57384398Y-123703152D02*
X57289160Y-123750771D01*
X57289160Y-123750771D02*
X57241541Y-123798390D01*
X53693922Y-158369819D02*
X54265350Y-158369819D01*
X53979636Y-159369819D02*
X53979636Y-158369819D01*
X54598684Y-159369819D02*
X54598684Y-158703152D01*
X54598684Y-158893628D02*
X54646303Y-158798390D01*
X54646303Y-158798390D02*
X54693922Y-158750771D01*
X54693922Y-158750771D02*
X54789160Y-158703152D01*
X54789160Y-158703152D02*
X54884398Y-158703152D01*
X55217732Y-159369819D02*
X55217732Y-158703152D01*
X55217732Y-158369819D02*
X55170113Y-158417438D01*
X55170113Y-158417438D02*
X55217732Y-158465057D01*
X55217732Y-158465057D02*
X55265351Y-158417438D01*
X55265351Y-158417438D02*
X55217732Y-158369819D01*
X55217732Y-158369819D02*
X55217732Y-158465057D01*
X56122493Y-158703152D02*
X56122493Y-159512676D01*
X56122493Y-159512676D02*
X56074874Y-159607914D01*
X56074874Y-159607914D02*
X56027255Y-159655533D01*
X56027255Y-159655533D02*
X55932017Y-159703152D01*
X55932017Y-159703152D02*
X55789160Y-159703152D01*
X55789160Y-159703152D02*
X55693922Y-159655533D01*
X56122493Y-159322200D02*
X56027255Y-159369819D01*
X56027255Y-159369819D02*
X55836779Y-159369819D01*
X55836779Y-159369819D02*
X55741541Y-159322200D01*
X55741541Y-159322200D02*
X55693922Y-159274580D01*
X55693922Y-159274580D02*
X55646303Y-159179342D01*
X55646303Y-159179342D02*
X55646303Y-158893628D01*
X55646303Y-158893628D02*
X55693922Y-158798390D01*
X55693922Y-158798390D02*
X55741541Y-158750771D01*
X55741541Y-158750771D02*
X55836779Y-158703152D01*
X55836779Y-158703152D02*
X56027255Y-158703152D01*
X56027255Y-158703152D02*
X56122493Y-158750771D01*
X57027255Y-158703152D02*
X57027255Y-159512676D01*
X57027255Y-159512676D02*
X56979636Y-159607914D01*
X56979636Y-159607914D02*
X56932017Y-159655533D01*
X56932017Y-159655533D02*
X56836779Y-159703152D01*
X56836779Y-159703152D02*
X56693922Y-159703152D01*
X56693922Y-159703152D02*
X56598684Y-159655533D01*
X57027255Y-159322200D02*
X56932017Y-159369819D01*
X56932017Y-159369819D02*
X56741541Y-159369819D01*
X56741541Y-159369819D02*
X56646303Y-159322200D01*
X56646303Y-159322200D02*
X56598684Y-159274580D01*
X56598684Y-159274580D02*
X56551065Y-159179342D01*
X56551065Y-159179342D02*
X56551065Y-158893628D01*
X56551065Y-158893628D02*
X56598684Y-158798390D01*
X56598684Y-158798390D02*
X56646303Y-158750771D01*
X56646303Y-158750771D02*
X56741541Y-158703152D01*
X56741541Y-158703152D02*
X56932017Y-158703152D01*
X56932017Y-158703152D02*
X57027255Y-158750771D01*
X57884398Y-159322200D02*
X57789160Y-159369819D01*
X57789160Y-159369819D02*
X57598684Y-159369819D01*
X57598684Y-159369819D02*
X57503446Y-159322200D01*
X57503446Y-159322200D02*
X57455827Y-159226961D01*
X57455827Y-159226961D02*
X57455827Y-158846009D01*
X57455827Y-158846009D02*
X57503446Y-158750771D01*
X57503446Y-158750771D02*
X57598684Y-158703152D01*
X57598684Y-158703152D02*
X57789160Y-158703152D01*
X57789160Y-158703152D02*
X57884398Y-158750771D01*
X57884398Y-158750771D02*
X57932017Y-158846009D01*
X57932017Y-158846009D02*
X57932017Y-158941247D01*
X57932017Y-158941247D02*
X57455827Y-159036485D01*
X58360589Y-159369819D02*
X58360589Y-158703152D01*
X58360589Y-158893628D02*
X58408208Y-158798390D01*
X58408208Y-158798390D02*
X58455827Y-158750771D01*
X58455827Y-158750771D02*
X58551065Y-158703152D01*
X58551065Y-158703152D02*
X58646303Y-158703152D01*
X56860588Y-63667438D02*
X56765350Y-63619819D01*
X56765350Y-63619819D02*
X56622493Y-63619819D01*
X56622493Y-63619819D02*
X56479636Y-63667438D01*
X56479636Y-63667438D02*
X56384398Y-63762676D01*
X56384398Y-63762676D02*
X56336779Y-63857914D01*
X56336779Y-63857914D02*
X56289160Y-64048390D01*
X56289160Y-64048390D02*
X56289160Y-64191247D01*
X56289160Y-64191247D02*
X56336779Y-64381723D01*
X56336779Y-64381723D02*
X56384398Y-64476961D01*
X56384398Y-64476961D02*
X56479636Y-64572200D01*
X56479636Y-64572200D02*
X56622493Y-64619819D01*
X56622493Y-64619819D02*
X56717731Y-64619819D01*
X56717731Y-64619819D02*
X56860588Y-64572200D01*
X56860588Y-64572200D02*
X56908207Y-64524580D01*
X56908207Y-64524580D02*
X56908207Y-64191247D01*
X56908207Y-64191247D02*
X56717731Y-64191247D01*
X57336779Y-64619819D02*
X57336779Y-63619819D01*
X57336779Y-63619819D02*
X57908207Y-64619819D01*
X57908207Y-64619819D02*
X57908207Y-63619819D01*
X58384398Y-64619819D02*
X58384398Y-63619819D01*
X58384398Y-63619819D02*
X58622493Y-63619819D01*
X58622493Y-63619819D02*
X58765350Y-63667438D01*
X58765350Y-63667438D02*
X58860588Y-63762676D01*
X58860588Y-63762676D02*
X58908207Y-63857914D01*
X58908207Y-63857914D02*
X58955826Y-64048390D01*
X58955826Y-64048390D02*
X58955826Y-64191247D01*
X58955826Y-64191247D02*
X58908207Y-64381723D01*
X58908207Y-64381723D02*
X58860588Y-64476961D01*
X58860588Y-64476961D02*
X58765350Y-64572200D01*
X58765350Y-64572200D02*
X58622493Y-64619819D01*
X58622493Y-64619819D02*
X58384398Y-64619819D01*
X51336779Y-64238866D02*
X52098684Y-64238866D01*
X53098683Y-64619819D02*
X52527255Y-64619819D01*
X52812969Y-64619819D02*
X52812969Y-63619819D01*
X52812969Y-63619819D02*
X52717731Y-63762676D01*
X52717731Y-63762676D02*
X52622493Y-63857914D01*
X52622493Y-63857914D02*
X52527255Y-63905533D01*
X53479636Y-63715057D02*
X53527255Y-63667438D01*
X53527255Y-63667438D02*
X53622493Y-63619819D01*
X53622493Y-63619819D02*
X53860588Y-63619819D01*
X53860588Y-63619819D02*
X53955826Y-63667438D01*
X53955826Y-63667438D02*
X54003445Y-63715057D01*
X54003445Y-63715057D02*
X54051064Y-63810295D01*
X54051064Y-63810295D02*
X54051064Y-63905533D01*
X54051064Y-63905533D02*
X54003445Y-64048390D01*
X54003445Y-64048390D02*
X53432017Y-64619819D01*
X53432017Y-64619819D02*
X54051064Y-64619819D01*
X54336779Y-63619819D02*
X54670112Y-64619819D01*
X54670112Y-64619819D02*
X55003445Y-63619819D01*
X54693922Y-98369819D02*
X55265350Y-98369819D01*
X54979636Y-99369819D02*
X54979636Y-98369819D01*
X56027255Y-98703152D02*
X56027255Y-99369819D01*
X55598684Y-98703152D02*
X55598684Y-99226961D01*
X55598684Y-99226961D02*
X55646303Y-99322200D01*
X55646303Y-99322200D02*
X55741541Y-99369819D01*
X55741541Y-99369819D02*
X55884398Y-99369819D01*
X55884398Y-99369819D02*
X55979636Y-99322200D01*
X55979636Y-99322200D02*
X56027255Y-99274580D01*
X56503446Y-98703152D02*
X56503446Y-99369819D01*
X56503446Y-98798390D02*
X56551065Y-98750771D01*
X56551065Y-98750771D02*
X56646303Y-98703152D01*
X56646303Y-98703152D02*
X56789160Y-98703152D01*
X56789160Y-98703152D02*
X56884398Y-98750771D01*
X56884398Y-98750771D02*
X56932017Y-98846009D01*
X56932017Y-98846009D02*
X56932017Y-99369819D01*
X57789160Y-99322200D02*
X57693922Y-99369819D01*
X57693922Y-99369819D02*
X57503446Y-99369819D01*
X57503446Y-99369819D02*
X57408208Y-99322200D01*
X57408208Y-99322200D02*
X57360589Y-99226961D01*
X57360589Y-99226961D02*
X57360589Y-98846009D01*
X57360589Y-98846009D02*
X57408208Y-98750771D01*
X57408208Y-98750771D02*
X57503446Y-98703152D01*
X57503446Y-98703152D02*
X57693922Y-98703152D01*
X57693922Y-98703152D02*
X57789160Y-98750771D01*
X57789160Y-98750771D02*
X57836779Y-98846009D01*
X57836779Y-98846009D02*
X57836779Y-98941247D01*
X57836779Y-98941247D02*
X57360589Y-99036485D01*
X59027256Y-99369819D02*
X59027256Y-98369819D01*
X59027256Y-98369819D02*
X59265351Y-98369819D01*
X59265351Y-98369819D02*
X59408208Y-98417438D01*
X59408208Y-98417438D02*
X59503446Y-98512676D01*
X59503446Y-98512676D02*
X59551065Y-98607914D01*
X59551065Y-98607914D02*
X59598684Y-98798390D01*
X59598684Y-98798390D02*
X59598684Y-98941247D01*
X59598684Y-98941247D02*
X59551065Y-99131723D01*
X59551065Y-99131723D02*
X59503446Y-99226961D01*
X59503446Y-99226961D02*
X59408208Y-99322200D01*
X59408208Y-99322200D02*
X59265351Y-99369819D01*
X59265351Y-99369819D02*
X59027256Y-99369819D01*
X60408208Y-99322200D02*
X60312970Y-99369819D01*
X60312970Y-99369819D02*
X60122494Y-99369819D01*
X60122494Y-99369819D02*
X60027256Y-99322200D01*
X60027256Y-99322200D02*
X59979637Y-99226961D01*
X59979637Y-99226961D02*
X59979637Y-98846009D01*
X59979637Y-98846009D02*
X60027256Y-98750771D01*
X60027256Y-98750771D02*
X60122494Y-98703152D01*
X60122494Y-98703152D02*
X60312970Y-98703152D01*
X60312970Y-98703152D02*
X60408208Y-98750771D01*
X60408208Y-98750771D02*
X60455827Y-98846009D01*
X60455827Y-98846009D02*
X60455827Y-98941247D01*
X60455827Y-98941247D02*
X59979637Y-99036485D01*
X61312970Y-99322200D02*
X61217732Y-99369819D01*
X61217732Y-99369819D02*
X61027256Y-99369819D01*
X61027256Y-99369819D02*
X60932018Y-99322200D01*
X60932018Y-99322200D02*
X60884399Y-99274580D01*
X60884399Y-99274580D02*
X60836780Y-99179342D01*
X60836780Y-99179342D02*
X60836780Y-98893628D01*
X60836780Y-98893628D02*
X60884399Y-98798390D01*
X60884399Y-98798390D02*
X60932018Y-98750771D01*
X60932018Y-98750771D02*
X61027256Y-98703152D01*
X61027256Y-98703152D02*
X61217732Y-98703152D01*
X61217732Y-98703152D02*
X61312970Y-98750771D01*
X62170113Y-99369819D02*
X62170113Y-98846009D01*
X62170113Y-98846009D02*
X62122494Y-98750771D01*
X62122494Y-98750771D02*
X62027256Y-98703152D01*
X62027256Y-98703152D02*
X61836780Y-98703152D01*
X61836780Y-98703152D02*
X61741542Y-98750771D01*
X62170113Y-99322200D02*
X62074875Y-99369819D01*
X62074875Y-99369819D02*
X61836780Y-99369819D01*
X61836780Y-99369819D02*
X61741542Y-99322200D01*
X61741542Y-99322200D02*
X61693923Y-99226961D01*
X61693923Y-99226961D02*
X61693923Y-99131723D01*
X61693923Y-99131723D02*
X61741542Y-99036485D01*
X61741542Y-99036485D02*
X61836780Y-98988866D01*
X61836780Y-98988866D02*
X62074875Y-98988866D01*
X62074875Y-98988866D02*
X62170113Y-98941247D01*
X62551066Y-98703152D02*
X62789161Y-99369819D01*
X63027256Y-98703152D02*
X62789161Y-99369819D01*
X62789161Y-99369819D02*
X62693923Y-99607914D01*
X62693923Y-99607914D02*
X62646304Y-99655533D01*
X62646304Y-99655533D02*
X62551066Y-99703152D01*
X54903445Y-114937152D02*
X54827255Y-114899057D01*
X54827255Y-114899057D02*
X54789160Y-114860961D01*
X54789160Y-114860961D02*
X54751064Y-114784771D01*
X54751064Y-114784771D02*
X54751064Y-114746676D01*
X54751064Y-114746676D02*
X54789160Y-114670485D01*
X54789160Y-114670485D02*
X54827255Y-114632390D01*
X54827255Y-114632390D02*
X54903445Y-114594295D01*
X54903445Y-114594295D02*
X55055826Y-114594295D01*
X55055826Y-114594295D02*
X55132017Y-114632390D01*
X55132017Y-114632390D02*
X55170112Y-114670485D01*
X55170112Y-114670485D02*
X55208207Y-114746676D01*
X55208207Y-114746676D02*
X55208207Y-114784771D01*
X55208207Y-114784771D02*
X55170112Y-114860961D01*
X55170112Y-114860961D02*
X55132017Y-114899057D01*
X55132017Y-114899057D02*
X55055826Y-114937152D01*
X55055826Y-114937152D02*
X54903445Y-114937152D01*
X54903445Y-114937152D02*
X54827255Y-114975247D01*
X54827255Y-114975247D02*
X54789160Y-115013342D01*
X54789160Y-115013342D02*
X54751064Y-115089533D01*
X54751064Y-115089533D02*
X54751064Y-115241914D01*
X54751064Y-115241914D02*
X54789160Y-115318104D01*
X54789160Y-115318104D02*
X54827255Y-115356200D01*
X54827255Y-115356200D02*
X54903445Y-115394295D01*
X54903445Y-115394295D02*
X55055826Y-115394295D01*
X55055826Y-115394295D02*
X55132017Y-115356200D01*
X55132017Y-115356200D02*
X55170112Y-115318104D01*
X55170112Y-115318104D02*
X55208207Y-115241914D01*
X55208207Y-115241914D02*
X55208207Y-115089533D01*
X55208207Y-115089533D02*
X55170112Y-115013342D01*
X55170112Y-115013342D02*
X55132017Y-114975247D01*
X55132017Y-114975247D02*
X55055826Y-114937152D01*
X55703446Y-114594295D02*
X55779636Y-114594295D01*
X55779636Y-114594295D02*
X55855827Y-114632390D01*
X55855827Y-114632390D02*
X55893922Y-114670485D01*
X55893922Y-114670485D02*
X55932017Y-114746676D01*
X55932017Y-114746676D02*
X55970112Y-114899057D01*
X55970112Y-114899057D02*
X55970112Y-115089533D01*
X55970112Y-115089533D02*
X55932017Y-115241914D01*
X55932017Y-115241914D02*
X55893922Y-115318104D01*
X55893922Y-115318104D02*
X55855827Y-115356200D01*
X55855827Y-115356200D02*
X55779636Y-115394295D01*
X55779636Y-115394295D02*
X55703446Y-115394295D01*
X55703446Y-115394295D02*
X55627255Y-115356200D01*
X55627255Y-115356200D02*
X55589160Y-115318104D01*
X55589160Y-115318104D02*
X55551065Y-115241914D01*
X55551065Y-115241914D02*
X55512969Y-115089533D01*
X55512969Y-115089533D02*
X55512969Y-114899057D01*
X55512969Y-114899057D02*
X55551065Y-114746676D01*
X55551065Y-114746676D02*
X55589160Y-114670485D01*
X55589160Y-114670485D02*
X55627255Y-114632390D01*
X55627255Y-114632390D02*
X55703446Y-114594295D01*
X56427255Y-114937152D02*
X56351065Y-114899057D01*
X56351065Y-114899057D02*
X56312970Y-114860961D01*
X56312970Y-114860961D02*
X56274874Y-114784771D01*
X56274874Y-114784771D02*
X56274874Y-114746676D01*
X56274874Y-114746676D02*
X56312970Y-114670485D01*
X56312970Y-114670485D02*
X56351065Y-114632390D01*
X56351065Y-114632390D02*
X56427255Y-114594295D01*
X56427255Y-114594295D02*
X56579636Y-114594295D01*
X56579636Y-114594295D02*
X56655827Y-114632390D01*
X56655827Y-114632390D02*
X56693922Y-114670485D01*
X56693922Y-114670485D02*
X56732017Y-114746676D01*
X56732017Y-114746676D02*
X56732017Y-114784771D01*
X56732017Y-114784771D02*
X56693922Y-114860961D01*
X56693922Y-114860961D02*
X56655827Y-114899057D01*
X56655827Y-114899057D02*
X56579636Y-114937152D01*
X56579636Y-114937152D02*
X56427255Y-114937152D01*
X56427255Y-114937152D02*
X56351065Y-114975247D01*
X56351065Y-114975247D02*
X56312970Y-115013342D01*
X56312970Y-115013342D02*
X56274874Y-115089533D01*
X56274874Y-115089533D02*
X56274874Y-115241914D01*
X56274874Y-115241914D02*
X56312970Y-115318104D01*
X56312970Y-115318104D02*
X56351065Y-115356200D01*
X56351065Y-115356200D02*
X56427255Y-115394295D01*
X56427255Y-115394295D02*
X56579636Y-115394295D01*
X56579636Y-115394295D02*
X56655827Y-115356200D01*
X56655827Y-115356200D02*
X56693922Y-115318104D01*
X56693922Y-115318104D02*
X56732017Y-115241914D01*
X56732017Y-115241914D02*
X56732017Y-115089533D01*
X56732017Y-115089533D02*
X56693922Y-115013342D01*
X56693922Y-115013342D02*
X56655827Y-114975247D01*
X56655827Y-114975247D02*
X56579636Y-114937152D01*
X57074875Y-115089533D02*
X57684399Y-115089533D01*
X58027255Y-115356200D02*
X58103446Y-115394295D01*
X58103446Y-115394295D02*
X58255827Y-115394295D01*
X58255827Y-115394295D02*
X58332017Y-115356200D01*
X58332017Y-115356200D02*
X58370113Y-115280009D01*
X58370113Y-115280009D02*
X58370113Y-115241914D01*
X58370113Y-115241914D02*
X58332017Y-115165723D01*
X58332017Y-115165723D02*
X58255827Y-115127628D01*
X58255827Y-115127628D02*
X58141541Y-115127628D01*
X58141541Y-115127628D02*
X58065351Y-115089533D01*
X58065351Y-115089533D02*
X58027255Y-115013342D01*
X58027255Y-115013342D02*
X58027255Y-114975247D01*
X58027255Y-114975247D02*
X58065351Y-114899057D01*
X58065351Y-114899057D02*
X58141541Y-114860961D01*
X58141541Y-114860961D02*
X58255827Y-114860961D01*
X58255827Y-114860961D02*
X58332017Y-114899057D01*
X58598684Y-114860961D02*
X58903446Y-114860961D01*
X58712970Y-114594295D02*
X58712970Y-115280009D01*
X58712970Y-115280009D02*
X58751065Y-115356200D01*
X58751065Y-115356200D02*
X58827255Y-115394295D01*
X58827255Y-115394295D02*
X58903446Y-115394295D01*
X59093922Y-114860961D02*
X59284398Y-115394295D01*
X59474875Y-114860961D02*
X59284398Y-115394295D01*
X59284398Y-115394295D02*
X59208208Y-115584771D01*
X59208208Y-115584771D02*
X59170113Y-115622866D01*
X59170113Y-115622866D02*
X59093922Y-115660961D01*
X59893922Y-115394295D02*
X59817732Y-115356200D01*
X59817732Y-115356200D02*
X59779637Y-115280009D01*
X59779637Y-115280009D02*
X59779637Y-114594295D01*
X60503447Y-115356200D02*
X60427256Y-115394295D01*
X60427256Y-115394295D02*
X60274875Y-115394295D01*
X60274875Y-115394295D02*
X60198685Y-115356200D01*
X60198685Y-115356200D02*
X60160589Y-115280009D01*
X60160589Y-115280009D02*
X60160589Y-114975247D01*
X60160589Y-114975247D02*
X60198685Y-114899057D01*
X60198685Y-114899057D02*
X60274875Y-114860961D01*
X60274875Y-114860961D02*
X60427256Y-114860961D01*
X60427256Y-114860961D02*
X60503447Y-114899057D01*
X60503447Y-114899057D02*
X60541542Y-114975247D01*
X60541542Y-114975247D02*
X60541542Y-115051438D01*
X60541542Y-115051438D02*
X60160589Y-115127628D01*
X60336779Y-64238866D02*
X61098684Y-64238866D01*
X60717731Y-64619819D02*
X60717731Y-63857914D01*
X62098683Y-64619819D02*
X61527255Y-64619819D01*
X61812969Y-64619819D02*
X61812969Y-63619819D01*
X61812969Y-63619819D02*
X61717731Y-63762676D01*
X61717731Y-63762676D02*
X61622493Y-63857914D01*
X61622493Y-63857914D02*
X61527255Y-63905533D01*
X62479636Y-63715057D02*
X62527255Y-63667438D01*
X62527255Y-63667438D02*
X62622493Y-63619819D01*
X62622493Y-63619819D02*
X62860588Y-63619819D01*
X62860588Y-63619819D02*
X62955826Y-63667438D01*
X62955826Y-63667438D02*
X63003445Y-63715057D01*
X63003445Y-63715057D02*
X63051064Y-63810295D01*
X63051064Y-63810295D02*
X63051064Y-63905533D01*
X63051064Y-63905533D02*
X63003445Y-64048390D01*
X63003445Y-64048390D02*
X62432017Y-64619819D01*
X62432017Y-64619819D02*
X63051064Y-64619819D01*
X63336779Y-63619819D02*
X63670112Y-64619819D01*
X63670112Y-64619819D02*
X64003445Y-63619819D01*
X61336779Y-115369819D02*
X61336779Y-114369819D01*
X61908207Y-115369819D02*
X61479636Y-114798390D01*
X61908207Y-114369819D02*
X61336779Y-114941247D01*
X62336779Y-115369819D02*
X62336779Y-114703152D01*
X62336779Y-114369819D02*
X62289160Y-114417438D01*
X62289160Y-114417438D02*
X62336779Y-114465057D01*
X62336779Y-114465057D02*
X62384398Y-114417438D01*
X62384398Y-114417438D02*
X62336779Y-114369819D01*
X62336779Y-114369819D02*
X62336779Y-114465057D01*
X63241540Y-115322200D02*
X63146302Y-115369819D01*
X63146302Y-115369819D02*
X62955826Y-115369819D01*
X62955826Y-115369819D02*
X62860588Y-115322200D01*
X62860588Y-115322200D02*
X62812969Y-115274580D01*
X62812969Y-115274580D02*
X62765350Y-115179342D01*
X62765350Y-115179342D02*
X62765350Y-114893628D01*
X62765350Y-114893628D02*
X62812969Y-114798390D01*
X62812969Y-114798390D02*
X62860588Y-114750771D01*
X62860588Y-114750771D02*
X62955826Y-114703152D01*
X62955826Y-114703152D02*
X63146302Y-114703152D01*
X63146302Y-114703152D02*
X63241540Y-114750771D01*
X63670112Y-115369819D02*
X63670112Y-114369819D01*
X63765350Y-114988866D02*
X64051064Y-115369819D01*
X64051064Y-114703152D02*
X63670112Y-115084104D01*
X64479636Y-115274580D02*
X64527255Y-115322200D01*
X64527255Y-115322200D02*
X64479636Y-115369819D01*
X64479636Y-115369819D02*
X64432017Y-115322200D01*
X64432017Y-115322200D02*
X64479636Y-115274580D01*
X64479636Y-115274580D02*
X64479636Y-115369819D01*
X64479636Y-114988866D02*
X64432017Y-114417438D01*
X64432017Y-114417438D02*
X64479636Y-114369819D01*
X64479636Y-114369819D02*
X64527255Y-114417438D01*
X64527255Y-114417438D02*
X64479636Y-114988866D01*
X64479636Y-114988866D02*
X64479636Y-114369819D01*
G36*
X50875296Y-116504584D02*
G01*
X51001325Y-116504584D01*
X51001325Y-119410586D01*
X51100049Y-119295210D01*
X51227613Y-119184148D01*
X51372591Y-119095899D01*
X51513964Y-119036390D01*
X51673970Y-118990000D01*
X51557535Y-118892112D01*
X51547941Y-118822205D01*
X51547941Y-116602037D01*
X52421353Y-118990000D01*
X53055896Y-118990000D01*
X53929309Y-116602037D01*
X53929309Y-118822205D01*
X53874390Y-118962926D01*
X53803279Y-118990000D01*
X53963281Y-119036390D01*
X54104620Y-119095899D01*
X54249484Y-119184148D01*
X54376808Y-119295210D01*
X54475191Y-119410586D01*
X54475191Y-116504584D01*
X54601221Y-116504584D01*
X54601221Y-116042965D01*
X54475191Y-116042965D01*
X54475191Y-115623112D01*
X54377498Y-115744573D01*
X54270773Y-115853844D01*
X54151393Y-115944142D01*
X54015736Y-116008687D01*
X53860180Y-116040697D01*
X53803279Y-116042965D01*
X53643545Y-116042965D01*
X52736427Y-118452909D01*
X51832972Y-116042965D01*
X51673970Y-116042965D01*
X51510699Y-116023307D01*
X51368727Y-115968854D01*
X51244318Y-115886386D01*
X51133732Y-115782686D01*
X51033231Y-115664535D01*
X51001325Y-115623112D01*
X51001325Y-116042965D01*
X50875296Y-116042965D01*
X50875296Y-116504584D01*
G37*
G36*
X56701221Y-116879741D02*
G01*
X56155338Y-116879741D01*
X56155338Y-118528381D01*
X55692986Y-118528381D01*
X55540597Y-118490273D01*
X55451945Y-118365731D01*
X55440928Y-118274856D01*
X55440928Y-116879741D01*
X54895045Y-116879741D01*
X54895045Y-118274856D01*
X54908310Y-118444642D01*
X54946897Y-118590926D01*
X55027980Y-118741137D01*
X55142259Y-118855562D01*
X55286195Y-118934722D01*
X55456251Y-118979136D01*
X55608722Y-118990000D01*
X56155338Y-118990000D01*
X56155338Y-119410586D01*
X56253722Y-119295210D01*
X56381046Y-119184148D01*
X56525910Y-119095899D01*
X56667248Y-119036390D01*
X56827250Y-118990000D01*
X56710815Y-118892421D01*
X56701221Y-118822205D01*
X56701221Y-116879741D01*
G37*
G36*
X58924319Y-119410586D02*
G01*
X58892535Y-119369154D01*
X58792233Y-119250897D01*
X58681692Y-119147013D01*
X58557289Y-119064343D01*
X58415402Y-119009725D01*
X58252407Y-118990000D01*
X57580495Y-118990000D01*
X57580495Y-119410586D01*
X57482111Y-119295210D01*
X57354787Y-119184148D01*
X57209923Y-119095899D01*
X57068585Y-119036390D01*
X56908583Y-118990000D01*
X56979693Y-118963119D01*
X57034612Y-118822205D01*
X57034612Y-118314424D01*
X57580495Y-118314424D01*
X57580495Y-118528381D01*
X58378436Y-118528381D01*
X58378436Y-118052107D01*
X57832554Y-118052107D01*
X57721674Y-118070690D01*
X57610177Y-118170465D01*
X57580495Y-118314424D01*
X57034612Y-118314424D01*
X57047877Y-118141736D01*
X57086464Y-117993271D01*
X57167547Y-117841191D01*
X57281826Y-117725662D01*
X57425762Y-117645961D01*
X57595818Y-117601369D01*
X57748290Y-117590488D01*
X58378436Y-117590488D01*
X58378436Y-117426357D01*
X57580495Y-117426357D01*
X57510588Y-117435550D01*
X57412700Y-117546524D01*
X57366310Y-117389235D01*
X57306801Y-117249576D01*
X57218551Y-117105635D01*
X57107490Y-116978426D01*
X56992114Y-116879741D01*
X58924319Y-116879741D01*
X58924319Y-119410586D01*
G37*
G36*
X61065352Y-116879741D02*
G01*
X60519469Y-116879741D01*
X60519469Y-118427264D01*
X60057117Y-118427264D01*
X59904728Y-118389568D01*
X59816076Y-118266459D01*
X59805059Y-118176671D01*
X59805059Y-116879741D01*
X59259176Y-116879741D01*
X59259176Y-118176671D01*
X59272441Y-118345731D01*
X59311028Y-118491469D01*
X59392111Y-118641213D01*
X59506390Y-118755363D01*
X59650326Y-118834387D01*
X59820382Y-118878756D01*
X59972854Y-118889616D01*
X60519469Y-118889616D01*
X60519469Y-119475799D01*
X59805059Y-119475799D01*
X59664338Y-119421381D01*
X59637264Y-119350502D01*
X59590873Y-119510164D01*
X59531365Y-119651288D01*
X59443115Y-119796023D01*
X59332054Y-119923302D01*
X59216678Y-120021681D01*
X61065352Y-120021681D01*
X61065352Y-116879741D01*
G37*
G36*
X62295603Y-116052491D02*
G01*
X62295603Y-116598374D01*
X63265736Y-116598374D01*
X63265736Y-119412784D01*
X63364120Y-119297413D01*
X63491444Y-119186396D01*
X63636307Y-119098276D01*
X63777646Y-119038981D01*
X63937648Y-118992930D01*
X63821316Y-118894939D01*
X63811618Y-118825136D01*
X63811618Y-116598374D01*
X64454221Y-116598374D01*
X64595315Y-116653292D01*
X64622749Y-116724403D01*
X64668800Y-116564736D01*
X64728094Y-116423578D01*
X64816214Y-116278729D01*
X64927231Y-116151209D01*
X65042602Y-116052491D01*
X63937648Y-116052491D01*
X63774653Y-116032833D01*
X63632765Y-115978379D01*
X63508362Y-115895912D01*
X63397821Y-115792212D01*
X63297520Y-115674060D01*
X63265736Y-115632637D01*
X63265736Y-116052491D01*
X62295603Y-116052491D01*
G37*
G36*
X65249965Y-119400327D02*
G01*
X65348348Y-119284957D01*
X65475672Y-119173939D01*
X65620536Y-119085819D01*
X65761875Y-119026525D01*
X65921877Y-118980474D01*
X65805545Y-118882174D01*
X65795847Y-118811946D01*
X65795847Y-117342093D01*
X66258199Y-117342093D01*
X66410273Y-117380102D01*
X66499178Y-117503956D01*
X66510258Y-117594152D01*
X66510258Y-119400327D01*
X66608642Y-119284957D01*
X66735966Y-119173939D01*
X66880829Y-119085819D01*
X67022168Y-119026525D01*
X67182170Y-118980474D01*
X67065735Y-118882174D01*
X67056140Y-118811946D01*
X67056140Y-117594152D01*
X67042844Y-117424818D01*
X67004174Y-117278815D01*
X66922941Y-117128765D01*
X66808492Y-117014354D01*
X66664399Y-116935127D01*
X66494234Y-116890633D01*
X66341730Y-116879741D01*
X65795847Y-116879741D01*
X65795847Y-115829741D01*
X65249965Y-115829741D01*
X65249965Y-119400327D01*
G37*
G36*
X69279239Y-119410586D02*
G01*
X69247454Y-119369154D01*
X69147153Y-119250897D01*
X69036612Y-119147013D01*
X68912209Y-119064343D01*
X68770321Y-119009725D01*
X68607327Y-118990000D01*
X67935415Y-118990000D01*
X67935415Y-119410586D01*
X67837031Y-119295210D01*
X67709707Y-119184148D01*
X67564843Y-119095899D01*
X67423504Y-119036390D01*
X67263503Y-118990000D01*
X67334613Y-118963119D01*
X67389532Y-118822205D01*
X67389532Y-118314424D01*
X67935415Y-118314424D01*
X67935415Y-118528381D01*
X68733356Y-118528381D01*
X68733356Y-118052107D01*
X68187473Y-118052107D01*
X68076594Y-118070690D01*
X67965097Y-118170465D01*
X67935415Y-118314424D01*
X67389532Y-118314424D01*
X67402797Y-118141736D01*
X67441384Y-117993271D01*
X67522467Y-117841191D01*
X67636746Y-117725662D01*
X67780682Y-117645961D01*
X67950738Y-117601369D01*
X68103210Y-117590488D01*
X68733356Y-117590488D01*
X68733356Y-117426357D01*
X67935415Y-117426357D01*
X67865508Y-117435550D01*
X67767620Y-117546524D01*
X67721229Y-117389235D01*
X67661721Y-117249576D01*
X67573471Y-117105635D01*
X67462409Y-116978426D01*
X67347034Y-116879741D01*
X69279239Y-116879741D01*
X69279239Y-119410586D01*
G37*
G36*
X70159979Y-116676043D02*
G01*
X70159979Y-116129427D01*
X69614096Y-116129427D01*
X69614096Y-116676043D01*
X70159979Y-116676043D01*
G37*
G36*
X70168039Y-116879741D02*
G01*
X69622156Y-116879741D01*
X69622156Y-119400327D01*
X69720875Y-119284957D01*
X69848394Y-119173939D01*
X69993243Y-119085819D01*
X70134401Y-119026525D01*
X70294068Y-118980474D01*
X70177736Y-118882174D01*
X70168039Y-118811946D01*
X70168039Y-116879741D01*
G37*
X82027255Y-158369819D02*
X82217731Y-158369819D01*
X82217731Y-158369819D02*
X82312969Y-158417438D01*
X82312969Y-158417438D02*
X82408207Y-158512676D01*
X82408207Y-158512676D02*
X82455826Y-158703152D01*
X82455826Y-158703152D02*
X82455826Y-159036485D01*
X82455826Y-159036485D02*
X82408207Y-159226961D01*
X82408207Y-159226961D02*
X82312969Y-159322200D01*
X82312969Y-159322200D02*
X82217731Y-159369819D01*
X82217731Y-159369819D02*
X82027255Y-159369819D01*
X82027255Y-159369819D02*
X81932017Y-159322200D01*
X81932017Y-159322200D02*
X81836779Y-159226961D01*
X81836779Y-159226961D02*
X81789160Y-159036485D01*
X81789160Y-159036485D02*
X81789160Y-158703152D01*
X81789160Y-158703152D02*
X81836779Y-158512676D01*
X81836779Y-158512676D02*
X81932017Y-158417438D01*
X81932017Y-158417438D02*
X82027255Y-158369819D01*
X83312969Y-158703152D02*
X83312969Y-159369819D01*
X82884398Y-158703152D02*
X82884398Y-159226961D01*
X82884398Y-159226961D02*
X82932017Y-159322200D01*
X82932017Y-159322200D02*
X83027255Y-159369819D01*
X83027255Y-159369819D02*
X83170112Y-159369819D01*
X83170112Y-159369819D02*
X83265350Y-159322200D01*
X83265350Y-159322200D02*
X83312969Y-159274580D01*
X83646303Y-158703152D02*
X84027255Y-158703152D01*
X83789160Y-158369819D02*
X83789160Y-159226961D01*
X83789160Y-159226961D02*
X83836779Y-159322200D01*
X83836779Y-159322200D02*
X83932017Y-159369819D01*
X83932017Y-159369819D02*
X84027255Y-159369819D01*
X84360589Y-158703152D02*
X84360589Y-159703152D01*
X84360589Y-158750771D02*
X84455827Y-158703152D01*
X84455827Y-158703152D02*
X84646303Y-158703152D01*
X84646303Y-158703152D02*
X84741541Y-158750771D01*
X84741541Y-158750771D02*
X84789160Y-158798390D01*
X84789160Y-158798390D02*
X84836779Y-158893628D01*
X84836779Y-158893628D02*
X84836779Y-159179342D01*
X84836779Y-159179342D02*
X84789160Y-159274580D01*
X84789160Y-159274580D02*
X84741541Y-159322200D01*
X84741541Y-159322200D02*
X84646303Y-159369819D01*
X84646303Y-159369819D02*
X84455827Y-159369819D01*
X84455827Y-159369819D02*
X84360589Y-159322200D01*
X85693922Y-158703152D02*
X85693922Y-159369819D01*
X85265351Y-158703152D02*
X85265351Y-159226961D01*
X85265351Y-159226961D02*
X85312970Y-159322200D01*
X85312970Y-159322200D02*
X85408208Y-159369819D01*
X85408208Y-159369819D02*
X85551065Y-159369819D01*
X85551065Y-159369819D02*
X85646303Y-159322200D01*
X85646303Y-159322200D02*
X85693922Y-159274580D01*
X86027256Y-158703152D02*
X86408208Y-158703152D01*
X86170113Y-158369819D02*
X86170113Y-159226961D01*
X86170113Y-159226961D02*
X86217732Y-159322200D01*
X86217732Y-159322200D02*
X86312970Y-159369819D01*
X86312970Y-159369819D02*
X86408208Y-159369819D01*
X66836779Y-125619819D02*
X66836779Y-124619819D01*
X66836779Y-124619819D02*
X67217731Y-124619819D01*
X67217731Y-124619819D02*
X67312969Y-124667438D01*
X67312969Y-124667438D02*
X67360588Y-124715057D01*
X67360588Y-124715057D02*
X67408207Y-124810295D01*
X67408207Y-124810295D02*
X67408207Y-124953152D01*
X67408207Y-124953152D02*
X67360588Y-125048390D01*
X67360588Y-125048390D02*
X67312969Y-125096009D01*
X67312969Y-125096009D02*
X67217731Y-125143628D01*
X67217731Y-125143628D02*
X66836779Y-125143628D01*
X67836779Y-125619819D02*
X67836779Y-124953152D01*
X67836779Y-124619819D02*
X67789160Y-124667438D01*
X67789160Y-124667438D02*
X67836779Y-124715057D01*
X67836779Y-124715057D02*
X67884398Y-124667438D01*
X67884398Y-124667438D02*
X67836779Y-124619819D01*
X67836779Y-124619819D02*
X67836779Y-124715057D01*
X68170112Y-124953152D02*
X68551064Y-124953152D01*
X68312969Y-124619819D02*
X68312969Y-125476961D01*
X68312969Y-125476961D02*
X68360588Y-125572200D01*
X68360588Y-125572200D02*
X68455826Y-125619819D01*
X68455826Y-125619819D02*
X68551064Y-125619819D01*
X69312969Y-125572200D02*
X69217731Y-125619819D01*
X69217731Y-125619819D02*
X69027255Y-125619819D01*
X69027255Y-125619819D02*
X68932017Y-125572200D01*
X68932017Y-125572200D02*
X68884398Y-125524580D01*
X68884398Y-125524580D02*
X68836779Y-125429342D01*
X68836779Y-125429342D02*
X68836779Y-125143628D01*
X68836779Y-125143628D02*
X68884398Y-125048390D01*
X68884398Y-125048390D02*
X68932017Y-125000771D01*
X68932017Y-125000771D02*
X69027255Y-124953152D01*
X69027255Y-124953152D02*
X69217731Y-124953152D01*
X69217731Y-124953152D02*
X69312969Y-125000771D01*
X69741541Y-125619819D02*
X69741541Y-124619819D01*
X70170112Y-125619819D02*
X70170112Y-125096009D01*
X70170112Y-125096009D02*
X70122493Y-125000771D01*
X70122493Y-125000771D02*
X70027255Y-124953152D01*
X70027255Y-124953152D02*
X69884398Y-124953152D01*
X69884398Y-124953152D02*
X69789160Y-125000771D01*
X69789160Y-125000771D02*
X69741541Y-125048390D01*
X71979636Y-125524580D02*
X71932017Y-125572200D01*
X71932017Y-125572200D02*
X71789160Y-125619819D01*
X71789160Y-125619819D02*
X71693922Y-125619819D01*
X71693922Y-125619819D02*
X71551065Y-125572200D01*
X71551065Y-125572200D02*
X71455827Y-125476961D01*
X71455827Y-125476961D02*
X71408208Y-125381723D01*
X71408208Y-125381723D02*
X71360589Y-125191247D01*
X71360589Y-125191247D02*
X71360589Y-125048390D01*
X71360589Y-125048390D02*
X71408208Y-124857914D01*
X71408208Y-124857914D02*
X71455827Y-124762676D01*
X71455827Y-124762676D02*
X71551065Y-124667438D01*
X71551065Y-124667438D02*
X71693922Y-124619819D01*
X71693922Y-124619819D02*
X71789160Y-124619819D01*
X71789160Y-124619819D02*
X71932017Y-124667438D01*
X71932017Y-124667438D02*
X71979636Y-124715057D01*
X72265351Y-124619819D02*
X72598684Y-125619819D01*
X72598684Y-125619819D02*
X72932017Y-124619819D01*
G36*
X68676053Y-120316457D02*
G01*
X68734496Y-120323978D01*
X68786564Y-120336515D01*
X68832255Y-120354066D01*
X68883260Y-120385268D01*
X68922931Y-120425385D01*
X68951267Y-120474417D01*
X68968268Y-120532363D01*
X68973581Y-120581674D01*
X68973935Y-120599225D01*
X68969318Y-120650395D01*
X68955465Y-120698667D01*
X68932378Y-120744041D01*
X68915561Y-120767997D01*
X68880987Y-120805692D01*
X68838493Y-120837062D01*
X68791705Y-120857365D01*
X68776831Y-120861297D01*
X69068946Y-121330000D01*
X68911409Y-121330000D01*
X68642986Y-120892316D01*
X68592523Y-120891007D01*
X68538444Y-120888142D01*
X68497418Y-120885478D01*
X68497418Y-121330000D01*
X68359909Y-121330000D01*
X68359909Y-120445840D01*
X68497418Y-120445840D01*
X68497418Y-120776057D01*
X68546144Y-120781186D01*
X68593649Y-120782896D01*
X68644493Y-120780979D01*
X68694700Y-120774094D01*
X68745609Y-120758447D01*
X68773412Y-120742840D01*
X68807793Y-120703753D01*
X68824322Y-120657643D01*
X68829777Y-120605621D01*
X68829832Y-120599225D01*
X68823917Y-120550624D01*
X68801202Y-120504646D01*
X68769260Y-120476615D01*
X68719501Y-120455200D01*
X68666468Y-120444291D01*
X68617553Y-120439920D01*
X68578506Y-120439002D01*
X68528222Y-120442535D01*
X68497418Y-120445840D01*
X68359909Y-120445840D01*
X68359909Y-120324452D01*
X68409291Y-120322243D01*
X68460535Y-120319638D01*
X68466643Y-120319323D01*
X68518270Y-120316725D01*
X68569721Y-120314705D01*
X68611235Y-120313949D01*
X68676053Y-120316457D01*
G37*
G36*
X69482626Y-120582777D02*
G01*
X69534450Y-120592050D01*
X69581499Y-120607506D01*
X69630356Y-120633352D01*
X69672714Y-120667613D01*
X69706404Y-120707131D01*
X69731819Y-120751956D01*
X69748959Y-120802086D01*
X69757825Y-120857523D01*
X69759176Y-120891584D01*
X69755169Y-120942436D01*
X69748918Y-120970474D01*
X69218422Y-120970474D01*
X69221812Y-121025552D01*
X69231980Y-121074739D01*
X69251901Y-121123740D01*
X69280676Y-121165048D01*
X69289253Y-121174173D01*
X69331814Y-121206888D01*
X69381340Y-121227486D01*
X69431868Y-121235665D01*
X69449965Y-121236210D01*
X69503591Y-121232302D01*
X69552608Y-121220579D01*
X69602241Y-121198047D01*
X69636810Y-121173684D01*
X69691765Y-121267473D01*
X69650487Y-121296149D01*
X69602829Y-121316452D01*
X69598953Y-121317787D01*
X69548339Y-121332471D01*
X69499769Y-121341036D01*
X69448339Y-121345196D01*
X69424563Y-121345631D01*
X69374017Y-121342308D01*
X69318779Y-121330031D01*
X69267561Y-121308708D01*
X69220364Y-121278340D01*
X69189113Y-121251109D01*
X69152425Y-121209567D01*
X69123328Y-121162976D01*
X69101821Y-121111335D01*
X69087905Y-121054646D01*
X69082107Y-121003548D01*
X69081158Y-120971207D01*
X69083859Y-120915886D01*
X69089994Y-120876685D01*
X69221842Y-120876685D01*
X69629239Y-120876685D01*
X69623380Y-120826011D01*
X69603625Y-120777708D01*
X69579658Y-120746259D01*
X69537762Y-120713720D01*
X69491661Y-120695860D01*
X69437928Y-120689162D01*
X69432135Y-120689106D01*
X69380276Y-120694544D01*
X69333999Y-120710859D01*
X69293303Y-120738050D01*
X69285833Y-120744794D01*
X69252817Y-120784291D01*
X69231344Y-120829907D01*
X69221842Y-120876685D01*
X69089994Y-120876685D01*
X69091963Y-120864107D01*
X69105469Y-120815870D01*
X69128807Y-120762662D01*
X69159926Y-120714554D01*
X69191800Y-120678360D01*
X69230174Y-120644826D01*
X69278177Y-120614472D01*
X69329664Y-120593562D01*
X69384633Y-120582095D01*
X69426029Y-120579685D01*
X69482626Y-120582777D01*
G37*
G36*
X70128960Y-121345631D02*
G01*
X70094766Y-121345631D01*
X69779448Y-120595317D01*
X69922330Y-120595317D01*
X70116748Y-121111158D01*
X70315317Y-120595317D01*
X70451849Y-120595317D01*
X70128960Y-121345631D01*
G37*
G36*
X70605478Y-121142421D02*
G01*
X70653830Y-121154061D01*
X70678262Y-121172219D01*
X70704289Y-121214026D01*
X70708548Y-121243782D01*
X70696717Y-121291409D01*
X70678262Y-121315589D01*
X70635634Y-121341406D01*
X70605478Y-121345631D01*
X70557125Y-121333896D01*
X70532693Y-121315589D01*
X70506666Y-121273457D01*
X70502407Y-121243782D01*
X70514238Y-121196135D01*
X70532693Y-121172219D01*
X70575321Y-121146611D01*
X70605478Y-121142421D01*
G37*
G36*
X71124494Y-121330000D02*
G01*
X71124494Y-120548178D01*
X70919818Y-120673475D01*
X70919818Y-120548422D01*
X70964280Y-120524436D01*
X71010287Y-120495889D01*
X71052480Y-120466687D01*
X71084926Y-120442421D01*
X71126188Y-120409021D01*
X71166732Y-120372467D01*
X71201055Y-120336996D01*
X71220481Y-120313949D01*
X71261758Y-120313949D01*
X71261758Y-121330000D01*
X71124494Y-121330000D01*
G37*
X80866666Y-144354819D02*
X80866666Y-145069104D01*
X80866666Y-145069104D02*
X80819047Y-145211961D01*
X80819047Y-145211961D02*
X80723809Y-145307200D01*
X80723809Y-145307200D02*
X80580952Y-145354819D01*
X80580952Y-145354819D02*
X80485714Y-145354819D01*
X81771428Y-144688152D02*
X81771428Y-145354819D01*
X81533333Y-144307200D02*
X81295238Y-145021485D01*
X81295238Y-145021485D02*
X81914285Y-145021485D01*
X61461905Y-69954819D02*
X61461905Y-68954819D01*
X61461905Y-68954819D02*
X61700000Y-68954819D01*
X61700000Y-68954819D02*
X61842857Y-69002438D01*
X61842857Y-69002438D02*
X61938095Y-69097676D01*
X61938095Y-69097676D02*
X61985714Y-69192914D01*
X61985714Y-69192914D02*
X62033333Y-69383390D01*
X62033333Y-69383390D02*
X62033333Y-69526247D01*
X62033333Y-69526247D02*
X61985714Y-69716723D01*
X61985714Y-69716723D02*
X61938095Y-69811961D01*
X61938095Y-69811961D02*
X61842857Y-69907200D01*
X61842857Y-69907200D02*
X61700000Y-69954819D01*
X61700000Y-69954819D02*
X61461905Y-69954819D01*
X62366667Y-68954819D02*
X63033333Y-68954819D01*
X63033333Y-68954819D02*
X62604762Y-69954819D01*
X69404761Y-56454819D02*
X69071428Y-55978628D01*
X68833333Y-56454819D02*
X68833333Y-55454819D01*
X68833333Y-55454819D02*
X69214285Y-55454819D01*
X69214285Y-55454819D02*
X69309523Y-55502438D01*
X69309523Y-55502438D02*
X69357142Y-55550057D01*
X69357142Y-55550057D02*
X69404761Y-55645295D01*
X69404761Y-55645295D02*
X69404761Y-55788152D01*
X69404761Y-55788152D02*
X69357142Y-55883390D01*
X69357142Y-55883390D02*
X69309523Y-55931009D01*
X69309523Y-55931009D02*
X69214285Y-55978628D01*
X69214285Y-55978628D02*
X68833333Y-55978628D01*
X69690476Y-55454819D02*
X70023809Y-56454819D01*
X70023809Y-56454819D02*
X70357142Y-55454819D01*
X71119047Y-55788152D02*
X71119047Y-56454819D01*
X70880952Y-55407200D02*
X70642857Y-56121485D01*
X70642857Y-56121485D02*
X71261904Y-56121485D01*
X75761905Y-51454819D02*
X75761905Y-50454819D01*
X75761905Y-50454819D02*
X76000000Y-50454819D01*
X76000000Y-50454819D02*
X76142857Y-50502438D01*
X76142857Y-50502438D02*
X76238095Y-50597676D01*
X76238095Y-50597676D02*
X76285714Y-50692914D01*
X76285714Y-50692914D02*
X76333333Y-50883390D01*
X76333333Y-50883390D02*
X76333333Y-51026247D01*
X76333333Y-51026247D02*
X76285714Y-51216723D01*
X76285714Y-51216723D02*
X76238095Y-51311961D01*
X76238095Y-51311961D02*
X76142857Y-51407200D01*
X76142857Y-51407200D02*
X76000000Y-51454819D01*
X76000000Y-51454819D02*
X75761905Y-51454819D01*
X77190476Y-50454819D02*
X77000000Y-50454819D01*
X77000000Y-50454819D02*
X76904762Y-50502438D01*
X76904762Y-50502438D02*
X76857143Y-50550057D01*
X76857143Y-50550057D02*
X76761905Y-50692914D01*
X76761905Y-50692914D02*
X76714286Y-50883390D01*
X76714286Y-50883390D02*
X76714286Y-51264342D01*
X76714286Y-51264342D02*
X76761905Y-51359580D01*
X76761905Y-51359580D02*
X76809524Y-51407200D01*
X76809524Y-51407200D02*
X76904762Y-51454819D01*
X76904762Y-51454819D02*
X77095238Y-51454819D01*
X77095238Y-51454819D02*
X77190476Y-51407200D01*
X77190476Y-51407200D02*
X77238095Y-51359580D01*
X77238095Y-51359580D02*
X77285714Y-51264342D01*
X77285714Y-51264342D02*
X77285714Y-51026247D01*
X77285714Y-51026247D02*
X77238095Y-50931009D01*
X77238095Y-50931009D02*
X77190476Y-50883390D01*
X77190476Y-50883390D02*
X77095238Y-50835771D01*
X77095238Y-50835771D02*
X76904762Y-50835771D01*
X76904762Y-50835771D02*
X76809524Y-50883390D01*
X76809524Y-50883390D02*
X76761905Y-50931009D01*
X76761905Y-50931009D02*
X76714286Y-51026247D01*
X59404761Y-101454819D02*
X59071428Y-100978628D01*
X58833333Y-101454819D02*
X58833333Y-100454819D01*
X58833333Y-100454819D02*
X59214285Y-100454819D01*
X59214285Y-100454819D02*
X59309523Y-100502438D01*
X59309523Y-100502438D02*
X59357142Y-100550057D01*
X59357142Y-100550057D02*
X59404761Y-100645295D01*
X59404761Y-100645295D02*
X59404761Y-100788152D01*
X59404761Y-100788152D02*
X59357142Y-100883390D01*
X59357142Y-100883390D02*
X59309523Y-100931009D01*
X59309523Y-100931009D02*
X59214285Y-100978628D01*
X59214285Y-100978628D02*
X58833333Y-100978628D01*
X59690476Y-100454819D02*
X60023809Y-101454819D01*
X60023809Y-101454819D02*
X60357142Y-100454819D01*
X61214285Y-101454819D02*
X60642857Y-101454819D01*
X60928571Y-101454819D02*
X60928571Y-100454819D01*
X60928571Y-100454819D02*
X60833333Y-100597676D01*
X60833333Y-100597676D02*
X60738095Y-100692914D01*
X60738095Y-100692914D02*
X60642857Y-100740533D01*
X52866666Y-144354819D02*
X52866666Y-145069104D01*
X52866666Y-145069104D02*
X52819047Y-145211961D01*
X52819047Y-145211961D02*
X52723809Y-145307200D01*
X52723809Y-145307200D02*
X52580952Y-145354819D01*
X52580952Y-145354819D02*
X52485714Y-145354819D01*
X53866666Y-145354819D02*
X53295238Y-145354819D01*
X53580952Y-145354819D02*
X53580952Y-144354819D01*
X53580952Y-144354819D02*
X53485714Y-144497676D01*
X53485714Y-144497676D02*
X53390476Y-144592914D01*
X53390476Y-144592914D02*
X53295238Y-144640533D01*
X58466666Y-137554819D02*
X58466666Y-138269104D01*
X58466666Y-138269104D02*
X58419047Y-138411961D01*
X58419047Y-138411961D02*
X58323809Y-138507200D01*
X58323809Y-138507200D02*
X58180952Y-138554819D01*
X58180952Y-138554819D02*
X58085714Y-138554819D01*
X58847619Y-137554819D02*
X59466666Y-137554819D01*
X59466666Y-137554819D02*
X59133333Y-137935771D01*
X59133333Y-137935771D02*
X59276190Y-137935771D01*
X59276190Y-137935771D02*
X59371428Y-137983390D01*
X59371428Y-137983390D02*
X59419047Y-138031009D01*
X59419047Y-138031009D02*
X59466666Y-138126247D01*
X59466666Y-138126247D02*
X59466666Y-138364342D01*
X59466666Y-138364342D02*
X59419047Y-138459580D01*
X59419047Y-138459580D02*
X59371428Y-138507200D01*
X59371428Y-138507200D02*
X59276190Y-138554819D01*
X59276190Y-138554819D02*
X58990476Y-138554819D01*
X58990476Y-138554819D02*
X58895238Y-138507200D01*
X58895238Y-138507200D02*
X58847619Y-138459580D01*
X69404761Y-127454819D02*
X69071428Y-126978628D01*
X68833333Y-127454819D02*
X68833333Y-126454819D01*
X68833333Y-126454819D02*
X69214285Y-126454819D01*
X69214285Y-126454819D02*
X69309523Y-126502438D01*
X69309523Y-126502438D02*
X69357142Y-126550057D01*
X69357142Y-126550057D02*
X69404761Y-126645295D01*
X69404761Y-126645295D02*
X69404761Y-126788152D01*
X69404761Y-126788152D02*
X69357142Y-126883390D01*
X69357142Y-126883390D02*
X69309523Y-126931009D01*
X69309523Y-126931009D02*
X69214285Y-126978628D01*
X69214285Y-126978628D02*
X68833333Y-126978628D01*
X69690476Y-126454819D02*
X70023809Y-127454819D01*
X70023809Y-127454819D02*
X70357142Y-126454819D01*
X70642857Y-126550057D02*
X70690476Y-126502438D01*
X70690476Y-126502438D02*
X70785714Y-126454819D01*
X70785714Y-126454819D02*
X71023809Y-126454819D01*
X71023809Y-126454819D02*
X71119047Y-126502438D01*
X71119047Y-126502438D02*
X71166666Y-126550057D01*
X71166666Y-126550057D02*
X71214285Y-126645295D01*
X71214285Y-126645295D02*
X71214285Y-126740533D01*
X71214285Y-126740533D02*
X71166666Y-126883390D01*
X71166666Y-126883390D02*
X70595238Y-127454819D01*
X70595238Y-127454819D02*
X71214285Y-127454819D01*
X79404761Y-77454819D02*
X79071428Y-76978628D01*
X78833333Y-77454819D02*
X78833333Y-76454819D01*
X78833333Y-76454819D02*
X79214285Y-76454819D01*
X79214285Y-76454819D02*
X79309523Y-76502438D01*
X79309523Y-76502438D02*
X79357142Y-76550057D01*
X79357142Y-76550057D02*
X79404761Y-76645295D01*
X79404761Y-76645295D02*
X79404761Y-76788152D01*
X79404761Y-76788152D02*
X79357142Y-76883390D01*
X79357142Y-76883390D02*
X79309523Y-76931009D01*
X79309523Y-76931009D02*
X79214285Y-76978628D01*
X79214285Y-76978628D02*
X78833333Y-76978628D01*
X79690476Y-76454819D02*
X80023809Y-77454819D01*
X80023809Y-77454819D02*
X80357142Y-76454819D01*
X80595238Y-76454819D02*
X81214285Y-76454819D01*
X81214285Y-76454819D02*
X80880952Y-76835771D01*
X80880952Y-76835771D02*
X81023809Y-76835771D01*
X81023809Y-76835771D02*
X81119047Y-76883390D01*
X81119047Y-76883390D02*
X81166666Y-76931009D01*
X81166666Y-76931009D02*
X81214285Y-77026247D01*
X81214285Y-77026247D02*
X81214285Y-77264342D01*
X81214285Y-77264342D02*
X81166666Y-77359580D01*
X81166666Y-77359580D02*
X81119047Y-77407200D01*
X81119047Y-77407200D02*
X81023809Y-77454819D01*
X81023809Y-77454819D02*
X80738095Y-77454819D01*
X80738095Y-77454819D02*
X80642857Y-77407200D01*
X80642857Y-77407200D02*
X80595238Y-77359580D01*
X63866666Y-144354819D02*
X63866666Y-145069104D01*
X63866666Y-145069104D02*
X63819047Y-145211961D01*
X63819047Y-145211961D02*
X63723809Y-145307200D01*
X63723809Y-145307200D02*
X63580952Y-145354819D01*
X63580952Y-145354819D02*
X63485714Y-145354819D01*
X64295238Y-144450057D02*
X64342857Y-144402438D01*
X64342857Y-144402438D02*
X64438095Y-144354819D01*
X64438095Y-144354819D02*
X64676190Y-144354819D01*
X64676190Y-144354819D02*
X64771428Y-144402438D01*
X64771428Y-144402438D02*
X64819047Y-144450057D01*
X64819047Y-144450057D02*
X64866666Y-144545295D01*
X64866666Y-144545295D02*
X64866666Y-144640533D01*
X64866666Y-144640533D02*
X64819047Y-144783390D01*
X64819047Y-144783390D02*
X64247619Y-145354819D01*
X64247619Y-145354819D02*
X64866666Y-145354819D01*
X77957142Y-55954819D02*
X77623809Y-55478628D01*
X77385714Y-55954819D02*
X77385714Y-54954819D01*
X77385714Y-54954819D02*
X77766666Y-54954819D01*
X77766666Y-54954819D02*
X77861904Y-55002438D01*
X77861904Y-55002438D02*
X77909523Y-55050057D01*
X77909523Y-55050057D02*
X77957142Y-55145295D01*
X77957142Y-55145295D02*
X77957142Y-55288152D01*
X77957142Y-55288152D02*
X77909523Y-55383390D01*
X77909523Y-55383390D02*
X77861904Y-55431009D01*
X77861904Y-55431009D02*
X77766666Y-55478628D01*
X77766666Y-55478628D02*
X77385714Y-55478628D01*
X78909523Y-55954819D02*
X78338095Y-55954819D01*
X78623809Y-55954819D02*
X78623809Y-54954819D01*
X78623809Y-54954819D02*
X78528571Y-55097676D01*
X78528571Y-55097676D02*
X78433333Y-55192914D01*
X78433333Y-55192914D02*
X78338095Y-55240533D01*
X79861904Y-55954819D02*
X79290476Y-55954819D01*
X79576190Y-55954819D02*
X79576190Y-54954819D01*
X79576190Y-54954819D02*
X79480952Y-55097676D01*
X79480952Y-55097676D02*
X79385714Y-55192914D01*
X79385714Y-55192914D02*
X79290476Y-55240533D01*
X86651905Y-139854819D02*
X86651905Y-138854819D01*
X86651905Y-138854819D02*
X86890000Y-138854819D01*
X86890000Y-138854819D02*
X87032857Y-138902438D01*
X87032857Y-138902438D02*
X87128095Y-138997676D01*
X87128095Y-138997676D02*
X87175714Y-139092914D01*
X87175714Y-139092914D02*
X87223333Y-139283390D01*
X87223333Y-139283390D02*
X87223333Y-139426247D01*
X87223333Y-139426247D02*
X87175714Y-139616723D01*
X87175714Y-139616723D02*
X87128095Y-139711961D01*
X87128095Y-139711961D02*
X87032857Y-139807200D01*
X87032857Y-139807200D02*
X86890000Y-139854819D01*
X86890000Y-139854819D02*
X86651905Y-139854819D01*
X87699524Y-139854819D02*
X87890000Y-139854819D01*
X87890000Y-139854819D02*
X87985238Y-139807200D01*
X87985238Y-139807200D02*
X88032857Y-139759580D01*
X88032857Y-139759580D02*
X88128095Y-139616723D01*
X88128095Y-139616723D02*
X88175714Y-139426247D01*
X88175714Y-139426247D02*
X88175714Y-139045295D01*
X88175714Y-139045295D02*
X88128095Y-138950057D01*
X88128095Y-138950057D02*
X88080476Y-138902438D01*
X88080476Y-138902438D02*
X87985238Y-138854819D01*
X87985238Y-138854819D02*
X87794762Y-138854819D01*
X87794762Y-138854819D02*
X87699524Y-138902438D01*
X87699524Y-138902438D02*
X87651905Y-138950057D01*
X87651905Y-138950057D02*
X87604286Y-139045295D01*
X87604286Y-139045295D02*
X87604286Y-139283390D01*
X87604286Y-139283390D02*
X87651905Y-139378628D01*
X87651905Y-139378628D02*
X87699524Y-139426247D01*
X87699524Y-139426247D02*
X87794762Y-139473866D01*
X87794762Y-139473866D02*
X87985238Y-139473866D01*
X87985238Y-139473866D02*
X88080476Y-139426247D01*
X88080476Y-139426247D02*
X88128095Y-139378628D01*
X88128095Y-139378628D02*
X88175714Y-139283390D01*
X59404761Y-77454819D02*
X59071428Y-76978628D01*
X58833333Y-77454819D02*
X58833333Y-76454819D01*
X58833333Y-76454819D02*
X59214285Y-76454819D01*
X59214285Y-76454819D02*
X59309523Y-76502438D01*
X59309523Y-76502438D02*
X59357142Y-76550057D01*
X59357142Y-76550057D02*
X59404761Y-76645295D01*
X59404761Y-76645295D02*
X59404761Y-76788152D01*
X59404761Y-76788152D02*
X59357142Y-76883390D01*
X59357142Y-76883390D02*
X59309523Y-76931009D01*
X59309523Y-76931009D02*
X59214285Y-76978628D01*
X59214285Y-76978628D02*
X58833333Y-76978628D01*
X59690476Y-76454819D02*
X60023809Y-77454819D01*
X60023809Y-77454819D02*
X60357142Y-76454819D01*
X61166666Y-76454819D02*
X60690476Y-76454819D01*
X60690476Y-76454819D02*
X60642857Y-76931009D01*
X60642857Y-76931009D02*
X60690476Y-76883390D01*
X60690476Y-76883390D02*
X60785714Y-76835771D01*
X60785714Y-76835771D02*
X61023809Y-76835771D01*
X61023809Y-76835771D02*
X61119047Y-76883390D01*
X61119047Y-76883390D02*
X61166666Y-76931009D01*
X61166666Y-76931009D02*
X61214285Y-77026247D01*
X61214285Y-77026247D02*
X61214285Y-77264342D01*
X61214285Y-77264342D02*
X61166666Y-77359580D01*
X61166666Y-77359580D02*
X61119047Y-77407200D01*
X61119047Y-77407200D02*
X61023809Y-77454819D01*
X61023809Y-77454819D02*
X60785714Y-77454819D01*
X60785714Y-77454819D02*
X60690476Y-77407200D01*
X60690476Y-77407200D02*
X60642857Y-77359580D01*
X54157142Y-71454819D02*
X53823809Y-70978628D01*
X53585714Y-71454819D02*
X53585714Y-70454819D01*
X53585714Y-70454819D02*
X53966666Y-70454819D01*
X53966666Y-70454819D02*
X54061904Y-70502438D01*
X54061904Y-70502438D02*
X54109523Y-70550057D01*
X54109523Y-70550057D02*
X54157142Y-70645295D01*
X54157142Y-70645295D02*
X54157142Y-70788152D01*
X54157142Y-70788152D02*
X54109523Y-70883390D01*
X54109523Y-70883390D02*
X54061904Y-70931009D01*
X54061904Y-70931009D02*
X53966666Y-70978628D01*
X53966666Y-70978628D02*
X53585714Y-70978628D01*
X55109523Y-71454819D02*
X54538095Y-71454819D01*
X54823809Y-71454819D02*
X54823809Y-70454819D01*
X54823809Y-70454819D02*
X54728571Y-70597676D01*
X54728571Y-70597676D02*
X54633333Y-70692914D01*
X54633333Y-70692914D02*
X54538095Y-70740533D01*
X55490476Y-70550057D02*
X55538095Y-70502438D01*
X55538095Y-70502438D02*
X55633333Y-70454819D01*
X55633333Y-70454819D02*
X55871428Y-70454819D01*
X55871428Y-70454819D02*
X55966666Y-70502438D01*
X55966666Y-70502438D02*
X56014285Y-70550057D01*
X56014285Y-70550057D02*
X56061904Y-70645295D01*
X56061904Y-70645295D02*
X56061904Y-70740533D01*
X56061904Y-70740533D02*
X56014285Y-70883390D01*
X56014285Y-70883390D02*
X55442857Y-71454819D01*
X55442857Y-71454819D02*
X56061904Y-71454819D01*
D11*
X79500000Y-147500000D02*
X79500000Y-158000000D01*
X82770000Y-144350000D02*
X82770000Y-145150000D01*
X82770000Y-144350000D02*
X83630000Y-144350000D01*
X83200000Y-158000000D02*
X79500000Y-158000000D01*
X83280000Y-147500000D02*
X79500000Y-147500000D01*
X88500000Y-147500000D02*
X84720000Y-147500000D01*
X88500000Y-147500000D02*
X88500000Y-158000000D01*
X88500000Y-158000000D02*
X84800000Y-158000000D01*
X85800000Y-152000000D02*
G75*
G02*
X82200000Y-152000000I-1800000J0D01*
G01*
X82200000Y-152000000D02*
G75*
G02*
X85800000Y-152000000I1800000J0D01*
G01*
X62960000Y-70300000D02*
X58950000Y-70300000D01*
X62960000Y-72300000D02*
X58950000Y-72300000D01*
X62960000Y-72300000D02*
X62960000Y-70300000D01*
X64530000Y-55030000D02*
X64530000Y-57750000D01*
X64530000Y-62250000D02*
X64530000Y-66620000D01*
X66350000Y-66620000D02*
X64530000Y-66620000D01*
X75470000Y-55030000D02*
X64530000Y-55030000D01*
X75470000Y-55030000D02*
X75470000Y-57750000D01*
X75470000Y-62250000D02*
X75470000Y-66620000D01*
X75470000Y-66620000D02*
X73650000Y-66620000D01*
X77640000Y-50600000D02*
X77640000Y-52600000D01*
X77640000Y-50600000D02*
X81650000Y-50600000D01*
X77640000Y-52600000D02*
X81650000Y-52600000D01*
X54530000Y-100030000D02*
X54530000Y-102750000D01*
X54530000Y-107250000D02*
X54530000Y-111620000D01*
X56350000Y-111620000D02*
X54530000Y-111620000D01*
X65470000Y-100030000D02*
X54530000Y-100030000D01*
X65470000Y-100030000D02*
X65470000Y-102750000D01*
X65470000Y-107250000D02*
X65470000Y-111620000D01*
X65470000Y-111620000D02*
X63650000Y-111620000D01*
X51500000Y-147500000D02*
X51500000Y-158000000D01*
X54770000Y-144350000D02*
X54770000Y-145150000D01*
X54770000Y-144350000D02*
X55630000Y-144350000D01*
X55200000Y-158000000D02*
X51500000Y-158000000D01*
X55280000Y-147500000D02*
X51500000Y-147500000D01*
X60500000Y-147500000D02*
X56720000Y-147500000D01*
X60500000Y-147500000D02*
X60500000Y-158000000D01*
X60500000Y-158000000D02*
X56800000Y-158000000D01*
X57800000Y-152000000D02*
G75*
G02*
X54200000Y-152000000I-1800000J0D01*
G01*
X54200000Y-152000000D02*
G75*
G02*
X57800000Y-152000000I1800000J0D01*
G01*
X51500000Y-125000000D02*
X55200000Y-125000000D01*
X51500000Y-135500000D02*
X51500000Y-125000000D01*
X51500000Y-135500000D02*
X55280000Y-135500000D01*
X56720000Y-135500000D02*
X60500000Y-135500000D01*
X56800000Y-125000000D02*
X60500000Y-125000000D01*
X57230000Y-138650000D02*
X56370000Y-138650000D01*
X57230000Y-138650000D02*
X57230000Y-137850000D01*
X60500000Y-135500000D02*
X60500000Y-125000000D01*
X57800000Y-131000000D02*
G75*
G02*
X54200000Y-131000000I-1800000J0D01*
G01*
X54200000Y-131000000D02*
G75*
G02*
X57800000Y-131000000I1800000J0D01*
G01*
X64530000Y-126030000D02*
X64530000Y-128750000D01*
X64530000Y-133250000D02*
X64530000Y-137620000D01*
X66350000Y-137620000D02*
X64530000Y-137620000D01*
X75470000Y-126030000D02*
X64530000Y-126030000D01*
X75470000Y-126030000D02*
X75470000Y-128750000D01*
X75470000Y-133250000D02*
X75470000Y-137620000D01*
X75470000Y-137620000D02*
X73650000Y-137620000D01*
X74530000Y-76030000D02*
X74530000Y-78750000D01*
X74530000Y-83250000D02*
X74530000Y-87620000D01*
X76350000Y-87620000D02*
X74530000Y-87620000D01*
X85470000Y-76030000D02*
X74530000Y-76030000D01*
X85470000Y-76030000D02*
X85470000Y-78750000D01*
X85470000Y-83250000D02*
X85470000Y-87620000D01*
X85470000Y-87620000D02*
X83650000Y-87620000D01*
X62500000Y-147500000D02*
X62500000Y-158000000D01*
X65770000Y-144350000D02*
X65770000Y-145150000D01*
X65770000Y-144350000D02*
X66630000Y-144350000D01*
X66200000Y-158000000D02*
X62500000Y-158000000D01*
X66280000Y-147500000D02*
X62500000Y-147500000D01*
X71500000Y-147500000D02*
X67720000Y-147500000D01*
X71500000Y-147500000D02*
X71500000Y-158000000D01*
X71500000Y-158000000D02*
X67800000Y-158000000D01*
X68800000Y-152000000D02*
G75*
G02*
X65200000Y-152000000I-1800000J0D01*
G01*
X65200000Y-152000000D02*
G75*
G02*
X68800000Y-152000000I1800000J0D01*
G01*
X79727064Y-53065000D02*
X79272936Y-53065000D01*
X79727064Y-54535000D02*
X79272936Y-54535000D01*
X82400000Y-139764000D02*
X82400000Y-139920000D01*
X82400000Y-142080000D02*
X82400000Y-142236000D01*
X82400000Y-139764484D02*
G75*
G02*
X85632335Y-139921392I1560000J-1235517D01*
G01*
X82919039Y-139920000D02*
G75*
G02*
X85001130Y-139920163I1040961J-1080000D01*
G01*
X85001130Y-142079837D02*
G75*
G02*
X82919039Y-142080000I-1041130J1079837D01*
G01*
X85632335Y-142078608D02*
G75*
G02*
X82400000Y-142235516I-1672335J1078609D01*
G01*
X54530000Y-76030000D02*
X54530000Y-78750000D01*
X54530000Y-83250000D02*
X54530000Y-87620000D01*
X56350000Y-87620000D02*
X54530000Y-87620000D01*
X65470000Y-76030000D02*
X54530000Y-76030000D01*
X65470000Y-76030000D02*
X65470000Y-78750000D01*
X65470000Y-83250000D02*
X65470000Y-87620000D01*
X65470000Y-87620000D02*
X63650000Y-87620000D01*
X55127064Y-68565000D02*
X54672936Y-68565000D01*
X55127064Y-70035000D02*
X54672936Y-70035000D01*
D12*
G36*
X86939334Y-94321667D02*
G01*
X86897000Y-94364000D01*
X86854667Y-94321667D01*
X86897000Y-94279334D01*
X86939334Y-94321667D01*
G37*
G36*
X86657112Y-94138222D02*
G01*
X86667245Y-94238702D01*
X86657112Y-94251111D01*
X86606777Y-94239489D01*
X86600667Y-94194667D01*
X86631645Y-94124977D01*
X86657112Y-94138222D01*
G37*
G36*
X86666111Y-92445118D02*
G01*
X86643000Y-92482448D01*
X86510911Y-92603822D01*
X86494834Y-92622263D01*
X86442025Y-92622999D01*
X86431334Y-92557778D01*
X86500279Y-92438847D01*
X86579500Y-92417963D01*
X86666111Y-92445118D01*
G37*
G36*
X86935592Y-92971113D02*
G01*
X86939334Y-92995222D01*
X86870556Y-93057876D01*
X86812334Y-93065778D01*
X86697278Y-93055948D01*
X86721102Y-93002232D01*
X86741778Y-92981111D01*
X86857396Y-92926651D01*
X86935592Y-92971113D01*
G37*
G36*
X86929782Y-92485243D02*
G01*
X86939334Y-92543667D01*
X86893616Y-92656339D01*
X86854667Y-92670667D01*
X86779553Y-92602090D01*
X86770000Y-92543667D01*
X86815718Y-92430995D01*
X86854667Y-92416667D01*
X86929782Y-92485243D01*
G37*
G36*
X87007702Y-104629834D02*
G01*
X86981667Y-104989667D01*
X85478834Y-105012787D01*
X83976000Y-105035907D01*
X83976000Y-104652954D01*
X83976000Y-104270000D01*
X85504869Y-104270000D01*
X87033737Y-104270000D01*
X87007702Y-104629834D01*
G37*
G36*
X86863836Y-94796833D02*
G01*
X86939320Y-94819712D01*
X86939334Y-94820057D01*
X86866046Y-94853753D01*
X86689362Y-94889465D01*
X86685334Y-94890060D01*
X86508262Y-94896116D01*
X86431429Y-94859241D01*
X86431334Y-94857337D01*
X86504965Y-94808169D01*
X86682353Y-94787338D01*
X86685334Y-94787334D01*
X86863836Y-94796833D01*
G37*
G36*
X86493984Y-94232153D02*
G01*
X86530253Y-94437214D01*
X86580156Y-94474531D01*
X86599067Y-94451255D01*
X86675557Y-94385316D01*
X86782743Y-94450101D01*
X86810698Y-94477269D01*
X86892982Y-94574561D01*
X86850900Y-94612098D01*
X86691381Y-94618000D01*
X86528806Y-94607246D01*
X86456341Y-94543519D01*
X86441747Y-94379625D01*
X86445567Y-94258167D01*
X86459799Y-93898334D01*
X86493984Y-94232153D01*
G37*
G36*
X85647399Y-93527586D02*
G01*
X85731717Y-93590891D01*
X85753338Y-93756068D01*
X85754000Y-93856000D01*
X85745029Y-94072836D01*
X85689638Y-94169200D01*
X85545108Y-94193910D01*
X85457667Y-94194667D01*
X85267935Y-94184414D01*
X85183618Y-94121109D01*
X85161996Y-93955933D01*
X85161334Y-93856000D01*
X85170305Y-93639164D01*
X85225697Y-93542801D01*
X85370226Y-93518091D01*
X85457667Y-93517334D01*
X85647399Y-93527586D01*
G37*
G36*
X87007702Y-96925167D02*
G01*
X86981667Y-97285000D01*
X85697583Y-97285000D01*
X85183008Y-97288366D01*
X84821919Y-97299315D01*
X84598584Y-97319127D01*
X84497273Y-97349081D01*
X84494789Y-97382807D01*
X84530403Y-97509544D01*
X84551124Y-97756595D01*
X84553351Y-98075314D01*
X84551206Y-98144807D01*
X84526334Y-98809000D01*
X84251167Y-98835531D01*
X83976000Y-98862062D01*
X83976000Y-97713698D01*
X83976000Y-96565334D01*
X85504869Y-96565334D01*
X87033737Y-96565334D01*
X87007702Y-96925167D01*
G37*
G36*
X86812334Y-93284075D02*
G01*
X86871865Y-93345736D01*
X86915387Y-93591318D01*
X86920580Y-93678651D01*
X86924691Y-93924517D01*
X86898574Y-94039556D01*
X86826837Y-94061620D01*
X86769659Y-94049776D01*
X86632245Y-93964685D01*
X86600667Y-93888459D01*
X86551630Y-93782276D01*
X86516000Y-93771334D01*
X86456553Y-93697761D01*
X86431340Y-93520494D01*
X86431334Y-93517334D01*
X86452471Y-93338943D01*
X86503394Y-93263351D01*
X86504260Y-93263334D01*
X86545297Y-93334893D01*
X86539964Y-93496167D01*
X86528770Y-93641515D01*
X86569229Y-93633008D01*
X86583790Y-93613587D01*
X86660892Y-93540537D01*
X86717925Y-93613587D01*
X86742224Y-93628324D01*
X86728422Y-93506067D01*
X86726561Y-93496167D01*
X86724536Y-93390334D01*
X86770000Y-93390334D01*
X86812334Y-93432667D01*
X86854667Y-93390334D01*
X86812334Y-93348000D01*
X86770000Y-93390334D01*
X86724536Y-93390334D01*
X86723035Y-93311890D01*
X86792309Y-93263334D01*
X86812334Y-93284075D01*
G37*
G36*
X85497662Y-99109378D02*
G01*
X85542334Y-99109613D01*
X87008103Y-99117316D01*
X87015473Y-100217068D01*
X87022842Y-101316820D01*
X86717942Y-101290577D01*
X86413042Y-101264334D01*
X86401021Y-100544667D01*
X86389000Y-99825000D01*
X86113834Y-99798469D01*
X85838667Y-99771938D01*
X85838667Y-100496969D01*
X85838667Y-101222000D01*
X85542334Y-101222000D01*
X85246000Y-101222000D01*
X85246000Y-100502334D01*
X85246000Y-99825000D01*
X85500000Y-99825000D01*
X85542334Y-99867334D01*
X85584667Y-99825000D01*
X85542334Y-99782667D01*
X85500000Y-99825000D01*
X85246000Y-99825000D01*
X85246000Y-99782667D01*
X84869997Y-99782667D01*
X84608018Y-99804757D01*
X84452008Y-99862156D01*
X84426418Y-99941559D01*
X84482619Y-99993480D01*
X84523029Y-100097719D01*
X84553255Y-100326672D01*
X84568013Y-100635790D01*
X84568667Y-100718997D01*
X84568667Y-101391334D01*
X84272237Y-101391334D01*
X83975807Y-101391334D01*
X83981514Y-100246387D01*
X83987221Y-99101440D01*
X85497662Y-99109378D01*
G37*
G36*
X85478834Y-101577263D02*
G01*
X86981667Y-101603000D01*
X87007545Y-101913799D01*
X87014318Y-102051392D01*
X86991561Y-102158219D01*
X86914927Y-102258923D01*
X86760065Y-102378149D01*
X86502627Y-102540539D01*
X86222081Y-102708768D01*
X85891665Y-102909858D01*
X85617528Y-103084058D01*
X85431269Y-103210816D01*
X85365706Y-103265803D01*
X85424626Y-103296306D01*
X85619428Y-103320533D01*
X85916691Y-103335428D01*
X86162356Y-103338667D01*
X87004039Y-103338667D01*
X87008713Y-103677334D01*
X87013387Y-104016000D01*
X85494694Y-104016000D01*
X83976000Y-104016000D01*
X83976000Y-103681224D01*
X83980639Y-103532735D01*
X84011386Y-103418604D01*
X84093483Y-103313290D01*
X84252176Y-103191251D01*
X84512709Y-103026946D01*
X84782632Y-102865087D01*
X85111468Y-102665274D01*
X85383494Y-102493240D01*
X85567231Y-102369327D01*
X85630284Y-102317354D01*
X85569692Y-102293937D01*
X85373618Y-102283418D01*
X85075482Y-102286622D01*
X84823653Y-102297487D01*
X83976000Y-102343995D01*
X83976000Y-101947760D01*
X83976000Y-101551526D01*
X85478834Y-101577263D01*
G37*
G36*
X86893435Y-111228564D02*
G01*
X86979783Y-111407074D01*
X87018728Y-111725121D01*
X87024000Y-111977646D01*
X87021058Y-112313318D01*
X87005731Y-112514531D01*
X86968271Y-112616138D01*
X86898929Y-112652991D01*
X86833500Y-112658684D01*
X86721406Y-112676498D01*
X86770000Y-112713713D01*
X86944882Y-112842494D01*
X87017786Y-113075488D01*
X87022704Y-113181167D01*
X87024000Y-113414000D01*
X85711667Y-113424584D01*
X85249429Y-113428248D01*
X84841523Y-113431362D01*
X84520571Y-113433686D01*
X84319196Y-113434980D01*
X84272334Y-113435167D01*
X84085775Y-113418472D01*
X83999921Y-113337452D01*
X83976556Y-113145701D01*
X83976000Y-113075334D01*
X83976000Y-112736667D01*
X85309500Y-112726845D01*
X85750275Y-112721395D01*
X86112468Y-112712634D01*
X86371309Y-112701524D01*
X86502025Y-112689025D01*
X86505909Y-112680437D01*
X86434194Y-112628551D01*
X86389348Y-112497897D01*
X86364446Y-112255958D01*
X86354414Y-111969095D01*
X86350672Y-111630855D01*
X86363381Y-111423297D01*
X86401775Y-111307923D01*
X86475092Y-111246238D01*
X86533839Y-111221175D01*
X86748512Y-111172346D01*
X86893435Y-111228564D01*
G37*
G36*
X84766539Y-92424706D02*
G01*
X84929388Y-92457874D01*
X85010386Y-92529747D01*
X85035749Y-92590458D01*
X85098316Y-92708429D01*
X85194647Y-92677366D01*
X85218996Y-92657945D01*
X85299154Y-92566298D01*
X85227467Y-92505203D01*
X85190709Y-92490105D01*
X85182440Y-92458796D01*
X85319318Y-92437288D01*
X85577266Y-92429297D01*
X85584667Y-92429302D01*
X85846410Y-92435225D01*
X86007950Y-92450071D01*
X86035111Y-92470655D01*
X86033923Y-92471154D01*
X85971143Y-92571301D01*
X85982206Y-92640903D01*
X86042979Y-92717446D01*
X86092986Y-92670151D01*
X86182372Y-92644100D01*
X86219667Y-92670994D01*
X86341540Y-92758877D01*
X86377537Y-92793900D01*
X86522567Y-92948227D01*
X86597745Y-93046385D01*
X86600667Y-93055515D01*
X86520801Y-93068704D01*
X86300395Y-93079946D01*
X85968241Y-93088395D01*
X85553129Y-93093208D01*
X85288334Y-93094000D01*
X83976000Y-93094000D01*
X83976000Y-92924667D01*
X86092667Y-92924667D01*
X86161244Y-92999781D01*
X86219667Y-93009334D01*
X86332339Y-92963616D01*
X86346667Y-92924667D01*
X86278091Y-92849552D01*
X86219667Y-92840000D01*
X86106995Y-92885718D01*
X86092667Y-92924667D01*
X83976000Y-92924667D01*
X83976000Y-92755334D01*
X83976000Y-92416667D01*
X84478295Y-92416667D01*
X84766539Y-92424706D01*
G37*
G36*
X84289511Y-108953973D02*
G01*
X84564245Y-109029309D01*
X84936334Y-109142803D01*
X85225066Y-109236146D01*
X85374895Y-109284584D01*
X85849042Y-109444781D01*
X86327889Y-109613520D01*
X86579500Y-109705439D01*
X86832011Y-109804582D01*
X86964406Y-109891859D01*
X87015472Y-110013923D01*
X87023995Y-110217426D01*
X87024000Y-110240087D01*
X87005093Y-110478267D01*
X86957574Y-110638341D01*
X86934285Y-110665454D01*
X86827112Y-110711113D01*
X86589159Y-110801335D01*
X86249692Y-110925369D01*
X85837978Y-111072467D01*
X85558452Y-111170820D01*
X85111076Y-111327757D01*
X84712203Y-111468488D01*
X84392777Y-111582035D01*
X84183738Y-111657416D01*
X84124167Y-111679761D01*
X84036639Y-111693928D01*
X83992197Y-111622745D01*
X83976996Y-111431548D01*
X83976000Y-111308813D01*
X83982835Y-111053212D01*
X84021979Y-110915984D01*
X84121393Y-110846227D01*
X84251167Y-110807864D01*
X84412949Y-110753373D01*
X84501644Y-110664439D01*
X84547854Y-110491506D01*
X84571859Y-110288513D01*
X84577743Y-110226627D01*
X85161161Y-110226627D01*
X85161334Y-110290392D01*
X85177969Y-110468273D01*
X85244749Y-110513795D01*
X85309500Y-110496129D01*
X85505564Y-110435666D01*
X85692262Y-110391469D01*
X85904677Y-110327663D01*
X85948186Y-110256771D01*
X85823023Y-110179818D01*
X85630790Y-110121787D01*
X85365254Y-110056681D01*
X85225066Y-110042900D01*
X85170333Y-110094773D01*
X85161161Y-110226627D01*
X84577743Y-110226627D01*
X84594754Y-110047717D01*
X84580824Y-109901944D01*
X84498207Y-109809451D01*
X84315043Y-109728491D01*
X84081834Y-109646479D01*
X84011991Y-109542781D01*
X83977351Y-109326583D01*
X83976000Y-109267991D01*
X83990173Y-109045028D01*
X84047038Y-108946094D01*
X84143018Y-108926667D01*
X84289511Y-108953973D01*
G37*
G36*
X85304632Y-105202490D02*
G01*
X85887836Y-105204474D01*
X86135000Y-105209119D01*
X86322813Y-105212648D01*
X86630664Y-105232069D01*
X86832493Y-105267791D01*
X86949401Y-105324869D01*
X87002490Y-105408359D01*
X87012863Y-105523316D01*
X87007287Y-105610384D01*
X86987763Y-105744267D01*
X86938203Y-105855230D01*
X86833196Y-105966540D01*
X86647333Y-106101462D01*
X86355204Y-106283263D01*
X86117809Y-106424845D01*
X85781248Y-106627987D01*
X85505284Y-106801412D01*
X85318622Y-106926599D01*
X85249975Y-106984819D01*
X85314372Y-107051311D01*
X85478438Y-107154541D01*
X85521167Y-107177669D01*
X85727075Y-107292534D01*
X86018942Y-107463118D01*
X86339015Y-107655581D01*
X86389000Y-107686153D01*
X86685912Y-107874858D01*
X86865942Y-108014671D01*
X86960208Y-108138987D01*
X86999824Y-108281198D01*
X87007261Y-108349668D01*
X87009760Y-108553683D01*
X86942096Y-108651485D01*
X86763844Y-108703531D01*
X86584090Y-108722760D01*
X86273374Y-108738950D01*
X85870062Y-108750752D01*
X85412517Y-108756815D01*
X85235417Y-108757334D01*
X83976000Y-108757334D01*
X83976000Y-108379399D01*
X83976000Y-108001465D01*
X84801500Y-107977233D01*
X85627000Y-107953000D01*
X84928500Y-107542787D01*
X84578386Y-107322285D01*
X84340770Y-107140557D01*
X84234082Y-107012145D01*
X84230000Y-106991554D01*
X84302826Y-106877543D01*
X84507526Y-106706694D01*
X84823437Y-106495690D01*
X84907334Y-106444624D01*
X85202389Y-106259725D01*
X85432402Y-106100211D01*
X85564981Y-105989337D01*
X85584667Y-105958322D01*
X85505519Y-105923279D01*
X85289647Y-105900117D01*
X84969412Y-105891530D01*
X84801500Y-105893108D01*
X84018334Y-105908285D01*
X84000562Y-105667000D01*
X86092667Y-105667000D01*
X86135000Y-105709334D01*
X86177334Y-105667000D01*
X86135000Y-105624667D01*
X86092667Y-105667000D01*
X84000562Y-105667000D01*
X83992299Y-105554809D01*
X83966264Y-105201334D01*
X85304632Y-105202490D01*
G37*
G36*
X84117112Y-93178667D02*
G01*
X84272334Y-93178667D01*
X84286445Y-93178667D01*
X84568667Y-93178667D01*
X84568667Y-93851003D01*
X84558523Y-94173013D01*
X84531611Y-94425816D01*
X84493217Y-94564861D01*
X84482619Y-94576520D01*
X84415361Y-94661663D01*
X84506916Y-94729471D01*
X84747343Y-94776589D01*
X84949667Y-94788896D01*
X85126701Y-94799664D01*
X85145164Y-94800050D01*
X85456335Y-94807792D01*
X85610769Y-94817875D01*
X85621061Y-94833653D01*
X85499805Y-94858480D01*
X85415334Y-94872000D01*
X85034334Y-94931234D01*
X85394167Y-94954534D01*
X85675942Y-94974154D01*
X85834551Y-94992050D01*
X85915871Y-95016444D01*
X85965779Y-95055561D01*
X85967525Y-95057303D01*
X85925013Y-95081190D01*
X85754690Y-95082597D01*
X85562826Y-95067819D01*
X85297223Y-95054708D01*
X85108059Y-95072114D01*
X85050384Y-95100030D01*
X85085789Y-95146034D01*
X85249131Y-95146707D01*
X85271639Y-95143923D01*
X85448584Y-95125303D01*
X85477365Y-95150451D01*
X85377252Y-95237866D01*
X85373000Y-95241217D01*
X85264142Y-95338925D01*
X85289088Y-95373558D01*
X85347627Y-95377307D01*
X85507453Y-95313057D01*
X85569602Y-95240594D01*
X85638825Y-95150402D01*
X85730025Y-95164737D01*
X85846648Y-95240594D01*
X86010566Y-95342009D01*
X86106279Y-95380000D01*
X86156310Y-95313830D01*
X86151571Y-95161092D01*
X86104959Y-94990443D01*
X86029371Y-94870541D01*
X86008000Y-94856784D01*
X85971002Y-94813490D01*
X86099572Y-94793767D01*
X86115490Y-94793284D01*
X86280967Y-94809288D01*
X86323949Y-94900595D01*
X86311593Y-94999020D01*
X86330660Y-95201948D01*
X86431371Y-95295353D01*
X86657717Y-95374048D01*
X86808663Y-95342381D01*
X86853371Y-95231834D01*
X86838966Y-95133231D01*
X86777159Y-95189909D01*
X86762258Y-95210667D01*
X86697151Y-95289037D01*
X86703076Y-95224458D01*
X86705346Y-95215959D01*
X86789431Y-95076641D01*
X86886774Y-95082410D01*
X86938864Y-95225768D01*
X86939334Y-95245945D01*
X86939334Y-95464667D01*
X85457667Y-95464667D01*
X83976000Y-95464667D01*
X83976000Y-95337667D01*
X84992000Y-95337667D01*
X85034334Y-95380000D01*
X85076667Y-95337667D01*
X85034334Y-95295334D01*
X84992000Y-95337667D01*
X83976000Y-95337667D01*
X83976000Y-94999000D01*
X84907334Y-94999000D01*
X84949667Y-95041334D01*
X84992000Y-94999000D01*
X84949667Y-94956667D01*
X84907334Y-94999000D01*
X83976000Y-94999000D01*
X83976000Y-94702667D01*
X84060667Y-94702667D01*
X84091645Y-94772357D01*
X84117112Y-94759111D01*
X84122804Y-94702667D01*
X84230000Y-94702667D01*
X84260979Y-94772357D01*
X84286445Y-94759111D01*
X84296578Y-94658632D01*
X84286445Y-94646222D01*
X84236111Y-94657845D01*
X84230000Y-94702667D01*
X84122804Y-94702667D01*
X84127245Y-94658632D01*
X84117112Y-94646222D01*
X84066777Y-94657845D01*
X84060667Y-94702667D01*
X83976000Y-94702667D01*
X83976000Y-94321667D01*
X83976000Y-93178667D01*
X84117112Y-93178667D01*
G37*
%LPC*%
D13*
X84000000Y-145520000D03*
D14*
X84000000Y-156920000D03*
X84000000Y-148620000D03*
D15*
X62250000Y-71300000D03*
X58950000Y-71300000D03*
D16*
X65250000Y-60000000D03*
X74750000Y-60000000D03*
D17*
X67500000Y-67500000D03*
D18*
X70000000Y-67500000D03*
X72500000Y-67500000D03*
D19*
X78350000Y-51600000D03*
X81650000Y-51600000D03*
D16*
X55250000Y-105000000D03*
X64750000Y-105000000D03*
D17*
X57500000Y-112500000D03*
D18*
X60000000Y-112500000D03*
X62500000Y-112500000D03*
D13*
X56000000Y-145520000D03*
D14*
X56000000Y-156920000D03*
X56000000Y-148620000D03*
D13*
X56000000Y-137480000D03*
D14*
X56000000Y-126080000D03*
X56000000Y-134380000D03*
D16*
X65250000Y-131000000D03*
X74750000Y-131000000D03*
D17*
X67500000Y-138500000D03*
D18*
X70000000Y-138500000D03*
X72500000Y-138500000D03*
D16*
X75250000Y-81000000D03*
X84750000Y-81000000D03*
D17*
X77500000Y-88500000D03*
D18*
X80000000Y-88500000D03*
X82500000Y-88500000D03*
D13*
X67000000Y-145520000D03*
D14*
X67000000Y-156920000D03*
X67000000Y-148620000D03*
D20*
X80500000Y-53800000D03*
X78500000Y-53800000D03*
D17*
X82690000Y-141000000D03*
D18*
X85230000Y-141000000D03*
D16*
X55250000Y-81000000D03*
X64750000Y-81000000D03*
D17*
X57500000Y-88500000D03*
D18*
X60000000Y-88500000D03*
X62500000Y-88500000D03*
D20*
X55900000Y-69300000D03*
X53900000Y-69300000D03*
D21*
X59000000Y-61250000D03*
D22*
X61000000Y-61250000D03*
D23*
X61000000Y-66500000D03*
D21*
X60972600Y-54000000D03*
D22*
X58972600Y-54000000D03*
D24*
X55250000Y-61250000D03*
D25*
X52750000Y-61250000D03*
D23*
X61500000Y-141250000D03*
X69250000Y-92750000D03*
X57500000Y-66450000D03*
X54000000Y-66500000D03*
D24*
X52817621Y-54000000D03*
D25*
X55317621Y-54000000D03*
D26*
X83460000Y-66160000D03*
D27*
X86000000Y-66160000D03*
X83460000Y-63620000D03*
X86000000Y-63620000D03*
X83460000Y-61080000D03*
X86000000Y-61080000D03*
X83460000Y-58540000D03*
X86000000Y-58540000D03*
X83460000Y-56000000D03*
X86000000Y-56000000D03*
%LPD*%
M02*
