G04 #@! TF.GenerationSoftware,KiCad,Pcbnew,8.0.5*
G04 #@! TF.CreationDate,2024-11-24T11:27:35+01:00*
G04 #@! TF.ProjectId,ricochet,7269636f-6368-4657-942e-6b696361645f,rev?*
G04 #@! TF.SameCoordinates,Original*
G04 #@! TF.FileFunction,Soldermask,Bot*
G04 #@! TF.FilePolarity,Negative*
%FSLAX46Y46*%
G04 Gerber Fmt 4.6, Leading zero omitted, Abs format (unit mm)*
G04 Created by KiCad (PCBNEW 8.0.5) date 2024-11-24 11:27:35*
%MOMM*%
%LPD*%
G01*
G04 APERTURE LIST*
G04 Aperture macros list*
%AMRoundRect*
0 Rectangle with rounded corners*
0 $1 Rounding radius*
0 $2 $3 $4 $5 $6 $7 $8 $9 X,Y pos of 4 corners*
0 Add a 4 corners polygon primitive as box body*
4,1,4,$2,$3,$4,$5,$6,$7,$8,$9,$2,$3,0*
0 Add four circle primitives for the rounded corners*
1,1,$1+$1,$2,$3*
1,1,$1+$1,$4,$5*
1,1,$1+$1,$6,$7*
1,1,$1+$1,$8,$9*
0 Add four rect primitives between the rounded corners*
20,1,$1+$1,$2,$3,$4,$5,0*
20,1,$1+$1,$4,$5,$6,$7,0*
20,1,$1+$1,$6,$7,$8,$9,0*
20,1,$1+$1,$8,$9,$2,$3,0*%
%AMFreePoly0*
4,1,9,5.362500,-0.866500,1.237500,-0.866500,1.237500,-0.450000,-1.237500,-0.450000,-1.237500,0.450000,1.237500,0.450000,1.237500,0.866500,5.362500,0.866500,5.362500,-0.866500,5.362500,-0.866500,$1*%
G04 Aperture macros list end*
%ADD10O,4.000000X4.000000*%
%ADD11R,1.800000X1.800000*%
%ADD12C,1.800000*%
%ADD13R,1.930000X1.830000*%
%ADD14C,2.130000*%
%ADD15RoundRect,0.250000X-0.350000X-0.450000X0.350000X-0.450000X0.350000X0.450000X-0.350000X0.450000X0*%
%ADD16RoundRect,0.250000X-0.337500X-0.475000X0.337500X-0.475000X0.337500X0.475000X-0.337500X0.475000X0*%
%ADD17RoundRect,0.250000X0.450000X-0.350000X0.450000X0.350000X-0.450000X0.350000X-0.450000X-0.350000X0*%
%ADD18RoundRect,0.250000X0.350000X0.450000X-0.350000X0.450000X-0.350000X-0.450000X0.350000X-0.450000X0*%
%ADD19R,1.200000X1.200000*%
%ADD20C,1.200000*%
%ADD21RoundRect,0.250000X0.475000X-0.337500X0.475000X0.337500X-0.475000X0.337500X-0.475000X-0.337500X0*%
%ADD22RoundRect,0.250000X-0.450000X0.350000X-0.450000X-0.350000X0.450000X-0.350000X0.450000X0.350000X0*%
%ADD23RoundRect,0.225000X0.225000X-0.925000X0.225000X0.925000X-0.225000X0.925000X-0.225000X-0.925000X0*%
%ADD24FreePoly0,90.000000*%
%ADD25R,1.600000X1.600000*%
%ADD26C,1.600000*%
%ADD27C,2.000000*%
%ADD28RoundRect,0.225000X-0.375000X0.225000X-0.375000X-0.225000X0.375000X-0.225000X0.375000X0.225000X0*%
%ADD29RoundRect,0.250000X-0.475000X0.337500X-0.475000X-0.337500X0.475000X-0.337500X0.475000X0.337500X0*%
%ADD30RoundRect,0.250000X0.337500X0.475000X-0.337500X0.475000X-0.337500X-0.475000X0.337500X-0.475000X0*%
%ADD31RoundRect,0.150000X-0.587500X-0.150000X0.587500X-0.150000X0.587500X0.150000X-0.587500X0.150000X0*%
%ADD32R,1.600000X2.400000*%
%ADD33O,1.600000X2.400000*%
%ADD34RoundRect,0.150000X0.150000X-0.825000X0.150000X0.825000X-0.150000X0.825000X-0.150000X-0.825000X0*%
%ADD35RoundRect,0.225000X0.375000X-0.225000X0.375000X0.225000X-0.375000X0.225000X-0.375000X-0.225000X0*%
%ADD36RoundRect,0.250000X-0.600000X-0.600000X0.600000X-0.600000X0.600000X0.600000X-0.600000X0.600000X0*%
%ADD37C,1.700000*%
%ADD38RoundRect,0.150000X0.825000X0.150000X-0.825000X0.150000X-0.825000X-0.150000X0.825000X-0.150000X0*%
G04 APERTURE END LIST*
D10*
X60250000Y-57000000D03*
X69750000Y-57000000D03*
D11*
X62500000Y-64500000D03*
D12*
X65000000Y-64500000D03*
X67500000Y-64500000D03*
D10*
X90250000Y-107000000D03*
X99750000Y-107000000D03*
D11*
X92500000Y-114500000D03*
D12*
X95000000Y-114500000D03*
X97500000Y-114500000D03*
D11*
X86690000Y-67000000D03*
D12*
X89230000Y-67000000D03*
D13*
X71000000Y-144520000D03*
D14*
X71000000Y-155920000D03*
X71000000Y-147620000D03*
D10*
X90250000Y-57000000D03*
X99750000Y-57000000D03*
D11*
X92500000Y-64500000D03*
D12*
X95000000Y-64500000D03*
X97500000Y-64500000D03*
D11*
X70690000Y-67000000D03*
D12*
X73230000Y-67000000D03*
D13*
X89000000Y-144520000D03*
D14*
X89000000Y-155920000D03*
X89000000Y-147620000D03*
D10*
X60250000Y-107000000D03*
X69750000Y-107000000D03*
D11*
X62500000Y-114500000D03*
D12*
X65000000Y-114500000D03*
X67500000Y-114500000D03*
D13*
X101000000Y-144520000D03*
D14*
X101000000Y-155920000D03*
X101000000Y-147620000D03*
D10*
X90250000Y-82000000D03*
X99750000Y-82000000D03*
D11*
X92500000Y-89500000D03*
D12*
X95000000Y-89500000D03*
X97500000Y-89500000D03*
D10*
X60250000Y-82000000D03*
X69750000Y-82000000D03*
D11*
X62500000Y-89500000D03*
D12*
X65000000Y-89500000D03*
X67500000Y-89500000D03*
D13*
X59000000Y-144520000D03*
D14*
X59000000Y-155920000D03*
X59000000Y-147620000D03*
D10*
X60250000Y-127000000D03*
X69750000Y-127000000D03*
D11*
X62500000Y-134500000D03*
D12*
X65000000Y-134500000D03*
X67500000Y-134500000D03*
D10*
X90250000Y-127000000D03*
X99750000Y-127000000D03*
D11*
X92500000Y-134500000D03*
D12*
X95000000Y-134500000D03*
X97500000Y-134500000D03*
D15*
X57700000Y-151100000D03*
X59700000Y-151100000D03*
D16*
X91662500Y-103000000D03*
X93737500Y-103000000D03*
D17*
X73500000Y-146250000D03*
X73500000Y-144250000D03*
D18*
X58470000Y-118000000D03*
X56470000Y-118000000D03*
D19*
X95000000Y-118500000D03*
D20*
X97000000Y-118500000D03*
D17*
X108500000Y-87000000D03*
X108500000Y-85000000D03*
D15*
X52470000Y-115500000D03*
X54470000Y-115500000D03*
D21*
X51750000Y-158037500D03*
X51750000Y-155962500D03*
D17*
X85000000Y-115310000D03*
X85000000Y-113310000D03*
D16*
X86462500Y-103000000D03*
X88537500Y-103000000D03*
D22*
X93600000Y-105500000D03*
X93600000Y-107500000D03*
D16*
X72962500Y-118310000D03*
X75037500Y-118310000D03*
D19*
X64000000Y-118500000D03*
D20*
X66000000Y-118500000D03*
D21*
X83000000Y-93037500D03*
X83000000Y-90962500D03*
D16*
X61462500Y-103000000D03*
X63537500Y-103000000D03*
D15*
X66000000Y-156000000D03*
X68000000Y-156000000D03*
D23*
X81250000Y-55950000D03*
D24*
X79750000Y-55862500D03*
D23*
X78250000Y-55950000D03*
D15*
X102300000Y-120400000D03*
X104300000Y-120400000D03*
X67500000Y-112000000D03*
X69500000Y-112000000D03*
X103500000Y-156000000D03*
X105500000Y-156000000D03*
D16*
X84962500Y-118310000D03*
X87037500Y-118310000D03*
D19*
X105500000Y-83500000D03*
D20*
X103500000Y-83500000D03*
D18*
X108900000Y-115500000D03*
X106900000Y-115500000D03*
D25*
X87500000Y-140000000D03*
D26*
X90000000Y-140000000D03*
D22*
X63600000Y-105500000D03*
X63600000Y-107500000D03*
D27*
X58500000Y-65500000D03*
X94500000Y-73000000D03*
X52000000Y-141000000D03*
D21*
X104500000Y-89537500D03*
X104500000Y-87462500D03*
D17*
X86000000Y-146000000D03*
X86000000Y-144000000D03*
D27*
X105500000Y-77500000D03*
D21*
X74000000Y-90037500D03*
X74000000Y-87962500D03*
D25*
X70000000Y-140000000D03*
D26*
X72500000Y-140000000D03*
D28*
X86000000Y-147850000D03*
X86000000Y-151150000D03*
D29*
X87500000Y-120810000D03*
X87500000Y-122885000D03*
D21*
X108500000Y-83037500D03*
X108500000Y-80962500D03*
D22*
X96000000Y-130000000D03*
X96000000Y-132000000D03*
D19*
X54000000Y-136027401D03*
D20*
X54000000Y-138027401D03*
D27*
X108000000Y-122500000D03*
D19*
X75500000Y-84000000D03*
D20*
X73500000Y-84000000D03*
D21*
X72500000Y-115347500D03*
X72500000Y-113272500D03*
X102000000Y-89537500D03*
X102000000Y-87462500D03*
D18*
X71000000Y-75000000D03*
X69000000Y-75000000D03*
D22*
X57000000Y-105500000D03*
X57000000Y-107500000D03*
D30*
X98537500Y-103000000D03*
X96462500Y-103000000D03*
D22*
X75000000Y-121310000D03*
X75000000Y-123310000D03*
D16*
X56462500Y-115500000D03*
X58537500Y-115500000D03*
D21*
X71500000Y-90000000D03*
X71500000Y-87925000D03*
D27*
X57500000Y-131500000D03*
D19*
X75500000Y-56000000D03*
D20*
X73500000Y-56000000D03*
D18*
X88500000Y-132500000D03*
X86500000Y-132500000D03*
D31*
X98625000Y-72950000D03*
X98625000Y-71050000D03*
X100500000Y-72000000D03*
D29*
X86500000Y-108962500D03*
X86500000Y-111037500D03*
D15*
X102300000Y-118000000D03*
X104300000Y-118000000D03*
D27*
X74500000Y-78000000D03*
X79500000Y-59500000D03*
D15*
X102500000Y-72000000D03*
X104500000Y-72000000D03*
D30*
X69537500Y-103000000D03*
X67462500Y-103000000D03*
D19*
X60000000Y-139000000D03*
D20*
X60000000Y-141000000D03*
D32*
X85960000Y-92500000D03*
D33*
X88500000Y-92500000D03*
X91040000Y-92500000D03*
X93580000Y-92500000D03*
X96120000Y-92500000D03*
X98660000Y-92500000D03*
X101200000Y-92500000D03*
X103740000Y-92500000D03*
X103740000Y-100120000D03*
X101200000Y-100120000D03*
X98660000Y-100120000D03*
X96120000Y-100120000D03*
X93580000Y-100120000D03*
X91040000Y-100120000D03*
X88500000Y-100120000D03*
X85960000Y-100120000D03*
D15*
X92000000Y-156000000D03*
X94000000Y-156000000D03*
D18*
X101000000Y-75000000D03*
X99000000Y-75000000D03*
D21*
X87500000Y-115347500D03*
X87500000Y-113272500D03*
D15*
X72500000Y-72000000D03*
X74500000Y-72000000D03*
D34*
X56040000Y-153500000D03*
X54770000Y-153500000D03*
X53500000Y-153500000D03*
X52230000Y-153500000D03*
X52230000Y-148550000D03*
X53500000Y-148550000D03*
X54770000Y-148550000D03*
X56040000Y-148550000D03*
D22*
X86500000Y-105000000D03*
X86500000Y-107000000D03*
D19*
X86500000Y-87972600D03*
D20*
X86500000Y-85972600D03*
D15*
X71500000Y-132500000D03*
X73500000Y-132500000D03*
D35*
X73500000Y-151400000D03*
X73500000Y-148100000D03*
D22*
X65600000Y-105500000D03*
X65600000Y-107500000D03*
D27*
X56000000Y-141000000D03*
D19*
X84027401Y-56000000D03*
D20*
X86027401Y-56000000D03*
D18*
X69500000Y-61500000D03*
X67500000Y-61500000D03*
D19*
X54500000Y-127000000D03*
D20*
X56500000Y-127000000D03*
D19*
X64000000Y-140000000D03*
D20*
X66000000Y-140000000D03*
D18*
X64000000Y-156000000D03*
X62000000Y-156000000D03*
D22*
X95600000Y-105500000D03*
X95600000Y-107500000D03*
D27*
X103000000Y-131500000D03*
D16*
X56425000Y-103000000D03*
X58500000Y-103000000D03*
D36*
X78460000Y-150540000D03*
D37*
X81000000Y-150540000D03*
X78460000Y-148000000D03*
X81000000Y-148000000D03*
X78460000Y-145460000D03*
X81000000Y-145460000D03*
X78460000Y-142920000D03*
X81000000Y-142920000D03*
X78460000Y-140380000D03*
X81000000Y-140380000D03*
D17*
X78000000Y-88000000D03*
X78000000Y-86000000D03*
D38*
X82450000Y-114500000D03*
X82450000Y-115770000D03*
X82450000Y-117040000D03*
X82450000Y-118310000D03*
X82450000Y-119580000D03*
X82450000Y-120850000D03*
X82450000Y-122120000D03*
X77500000Y-122120000D03*
X77500000Y-120850000D03*
X77500000Y-119580000D03*
X77500000Y-118310000D03*
X77500000Y-117040000D03*
X77500000Y-115770000D03*
X77500000Y-114500000D03*
D18*
X88500000Y-130500000D03*
X86500000Y-130500000D03*
D15*
X53750000Y-156000000D03*
X55750000Y-156000000D03*
D18*
X58470000Y-120500000D03*
X56470000Y-120500000D03*
D21*
X78000000Y-84037500D03*
X78000000Y-81962500D03*
D22*
X90500000Y-117310000D03*
X90500000Y-119310000D03*
D19*
X56500000Y-87500000D03*
D20*
X56500000Y-85500000D03*
D29*
X57000000Y-109462500D03*
X57000000Y-111537500D03*
D27*
X83500000Y-127500000D03*
D19*
X94127401Y-140000000D03*
D20*
X96127401Y-140000000D03*
D29*
X72500000Y-121272500D03*
X72500000Y-123347500D03*
D27*
X76500000Y-127500000D03*
D22*
X94000000Y-130000000D03*
X94000000Y-132000000D03*
D27*
X52970000Y-121000000D03*
D22*
X64000000Y-130000000D03*
X64000000Y-132000000D03*
D21*
X55700000Y-146237500D03*
X55700000Y-144162500D03*
D17*
X75000000Y-115310000D03*
X75000000Y-113310000D03*
D19*
X105972600Y-127000000D03*
D20*
X103972600Y-127000000D03*
D30*
X104307500Y-115500000D03*
X102232500Y-115500000D03*
D16*
X102462500Y-103000000D03*
X104537500Y-103000000D03*
D32*
X56100000Y-92700000D03*
D33*
X58640000Y-92700000D03*
X61180000Y-92700000D03*
X63720000Y-92700000D03*
X66260000Y-92700000D03*
X68800000Y-92700000D03*
X71340000Y-92700000D03*
X73880000Y-92700000D03*
X73880000Y-100320000D03*
X71340000Y-100320000D03*
X68800000Y-100320000D03*
X66260000Y-100320000D03*
X63720000Y-100320000D03*
X61180000Y-100320000D03*
X58640000Y-100320000D03*
X56100000Y-100320000D03*
D29*
X53000000Y-90462500D03*
X53000000Y-92537500D03*
D18*
X108800000Y-118000000D03*
X106800000Y-118000000D03*
X102000000Y-65000000D03*
X100000000Y-65000000D03*
D17*
X69500000Y-119310000D03*
X69500000Y-117310000D03*
D31*
X68562500Y-72950000D03*
X68562500Y-71050000D03*
X70437500Y-72000000D03*
D22*
X85000000Y-120810000D03*
X85000000Y-122810000D03*
X66000000Y-130000000D03*
X66000000Y-132000000D03*
D15*
X97500000Y-111000000D03*
X99500000Y-111000000D03*
D27*
X80000000Y-127500000D03*
D15*
X52470000Y-118000000D03*
X54470000Y-118000000D03*
X71500000Y-130500000D03*
X73500000Y-130500000D03*
D16*
X72662500Y-103000000D03*
X74737500Y-103000000D03*
M02*
