G04 #@! TF.GenerationSoftware,KiCad,Pcbnew,8.0.2-1*
G04 #@! TF.CreationDate,2024-06-17T09:55:16+02:00*
G04 #@! TF.ProjectId,low-orbit,6c6f772d-6f72-4626-9974-2e6b69636164,rev?*
G04 #@! TF.SameCoordinates,Original*
G04 #@! TF.FileFunction,Legend,Bot*
G04 #@! TF.FilePolarity,Positive*
%FSLAX46Y46*%
G04 Gerber Fmt 4.6, Leading zero omitted, Abs format (unit mm)*
G04 Created by KiCad (PCBNEW 8.0.2-1) date 2024-06-17 09:55:16*
%MOMM*%
%LPD*%
G01*
G04 APERTURE LIST*
G04 Aperture macros list*
%AMRoundRect*
0 Rectangle with rounded corners*
0 $1 Rounding radius*
0 $2 $3 $4 $5 $6 $7 $8 $9 X,Y pos of 4 corners*
0 Add a 4 corners polygon primitive as box body*
4,1,4,$2,$3,$4,$5,$6,$7,$8,$9,$2,$3,0*
0 Add four circle primitives for the rounded corners*
1,1,$1+$1,$2,$3*
1,1,$1+$1,$4,$5*
1,1,$1+$1,$6,$7*
1,1,$1+$1,$8,$9*
0 Add four rect primitives between the rounded corners*
20,1,$1+$1,$2,$3,$4,$5,0*
20,1,$1+$1,$4,$5,$6,$7,0*
20,1,$1+$1,$6,$7,$8,$9,0*
20,1,$1+$1,$8,$9,$2,$3,0*%
G04 Aperture macros list end*
%ADD10C,0.150000*%
%ADD11C,0.100000*%
%ADD12C,0.000000*%
%ADD13C,0.120000*%
%ADD14C,1.000000*%
%ADD15R,1.600000X1.600000*%
%ADD16O,1.600000X1.600000*%
%ADD17C,1.600000*%
%ADD18C,2.850000*%
%ADD19R,1.930000X1.830000*%
%ADD20C,2.130000*%
%ADD21R,1.700000X1.700000*%
%ADD22O,1.700000X1.700000*%
%ADD23O,4.000000X4.000000*%
%ADD24R,1.800000X1.800000*%
%ADD25C,1.800000*%
%ADD26R,2.200000X2.200000*%
%ADD27O,2.200000X2.200000*%
%ADD28C,3.200000*%
%ADD29C,3.240000*%
%ADD30R,1.600000X2.400000*%
%ADD31O,1.600000X2.400000*%
%ADD32R,1.100000X1.800000*%
%ADD33RoundRect,0.275000X0.275000X0.625000X-0.275000X0.625000X-0.275000X-0.625000X0.275000X-0.625000X0*%
%ADD34R,1.200000X1.200000*%
%ADD35C,1.200000*%
%ADD36RoundRect,0.250000X0.600000X-0.600000X0.600000X0.600000X-0.600000X0.600000X-0.600000X-0.600000X0*%
%ADD37C,1.700000*%
G04 APERTURE END LIST*
D10*
X65889410Y-109774580D02*
X65841791Y-109822200D01*
X65841791Y-109822200D02*
X65889410Y-109869819D01*
X65889410Y-109869819D02*
X65937029Y-109822200D01*
X65937029Y-109822200D02*
X65889410Y-109774580D01*
X65889410Y-109774580D02*
X65889410Y-109869819D01*
X65413220Y-109774580D02*
X65365601Y-109822200D01*
X65365601Y-109822200D02*
X65413220Y-109869819D01*
X65413220Y-109869819D02*
X65460839Y-109822200D01*
X65460839Y-109822200D02*
X65413220Y-109774580D01*
X65413220Y-109774580D02*
X65413220Y-109869819D01*
X64937030Y-109774580D02*
X64889411Y-109822200D01*
X64889411Y-109822200D02*
X64937030Y-109869819D01*
X64937030Y-109869819D02*
X64984649Y-109822200D01*
X64984649Y-109822200D02*
X64937030Y-109774580D01*
X64937030Y-109774580D02*
X64937030Y-109869819D01*
X64460840Y-109869819D02*
X64460840Y-108869819D01*
X64127507Y-109203152D02*
X63746555Y-109203152D01*
X63984650Y-108869819D02*
X63984650Y-109726961D01*
X63984650Y-109726961D02*
X63937031Y-109822200D01*
X63937031Y-109822200D02*
X63841793Y-109869819D01*
X63841793Y-109869819D02*
X63746555Y-109869819D01*
X62651316Y-109869819D02*
X62651316Y-108869819D01*
X62222745Y-109869819D02*
X62222745Y-109346009D01*
X62222745Y-109346009D02*
X62270364Y-109250771D01*
X62270364Y-109250771D02*
X62365602Y-109203152D01*
X62365602Y-109203152D02*
X62508459Y-109203152D01*
X62508459Y-109203152D02*
X62603697Y-109250771D01*
X62603697Y-109250771D02*
X62651316Y-109298390D01*
X61365602Y-109822200D02*
X61460840Y-109869819D01*
X61460840Y-109869819D02*
X61651316Y-109869819D01*
X61651316Y-109869819D02*
X61746554Y-109822200D01*
X61746554Y-109822200D02*
X61794173Y-109726961D01*
X61794173Y-109726961D02*
X61794173Y-109346009D01*
X61794173Y-109346009D02*
X61746554Y-109250771D01*
X61746554Y-109250771D02*
X61651316Y-109203152D01*
X61651316Y-109203152D02*
X61460840Y-109203152D01*
X61460840Y-109203152D02*
X61365602Y-109250771D01*
X61365602Y-109250771D02*
X61317983Y-109346009D01*
X61317983Y-109346009D02*
X61317983Y-109441247D01*
X61317983Y-109441247D02*
X61794173Y-109536485D01*
X60889411Y-109869819D02*
X60889411Y-109203152D01*
X60889411Y-109393628D02*
X60841792Y-109298390D01*
X60841792Y-109298390D02*
X60794173Y-109250771D01*
X60794173Y-109250771D02*
X60698935Y-109203152D01*
X60698935Y-109203152D02*
X60603697Y-109203152D01*
X60413220Y-109203152D02*
X60032268Y-109203152D01*
X60270363Y-108869819D02*
X60270363Y-109726961D01*
X60270363Y-109726961D02*
X60222744Y-109822200D01*
X60222744Y-109822200D02*
X60127506Y-109869819D01*
X60127506Y-109869819D02*
X60032268Y-109869819D01*
X59794172Y-109203152D02*
X59270363Y-109203152D01*
X59270363Y-109203152D02*
X59794172Y-109869819D01*
X59794172Y-109869819D02*
X59270363Y-109869819D01*
X58889410Y-109774580D02*
X58841791Y-109822200D01*
X58841791Y-109822200D02*
X58889410Y-109869819D01*
X58889410Y-109869819D02*
X58937029Y-109822200D01*
X58937029Y-109822200D02*
X58889410Y-109774580D01*
X58889410Y-109774580D02*
X58889410Y-109869819D01*
X72484648Y-102039987D02*
X72246553Y-103039987D01*
X72246553Y-103039987D02*
X72056077Y-102325701D01*
X72056077Y-102325701D02*
X71865601Y-103039987D01*
X71865601Y-103039987D02*
X71627506Y-102039987D01*
X71246553Y-103039987D02*
X71246553Y-102039987D01*
X70817982Y-103039987D02*
X70817982Y-102516177D01*
X70817982Y-102516177D02*
X70865601Y-102420939D01*
X70865601Y-102420939D02*
X70960839Y-102373320D01*
X70960839Y-102373320D02*
X71103696Y-102373320D01*
X71103696Y-102373320D02*
X71198934Y-102420939D01*
X71198934Y-102420939D02*
X71246553Y-102468558D01*
X69913220Y-103039987D02*
X69913220Y-102516177D01*
X69913220Y-102516177D02*
X69960839Y-102420939D01*
X69960839Y-102420939D02*
X70056077Y-102373320D01*
X70056077Y-102373320D02*
X70246553Y-102373320D01*
X70246553Y-102373320D02*
X70341791Y-102420939D01*
X69913220Y-102992368D02*
X70008458Y-103039987D01*
X70008458Y-103039987D02*
X70246553Y-103039987D01*
X70246553Y-103039987D02*
X70341791Y-102992368D01*
X70341791Y-102992368D02*
X70389410Y-102897129D01*
X70389410Y-102897129D02*
X70389410Y-102801891D01*
X70389410Y-102801891D02*
X70341791Y-102706653D01*
X70341791Y-102706653D02*
X70246553Y-102659034D01*
X70246553Y-102659034D02*
X70008458Y-102659034D01*
X70008458Y-102659034D02*
X69913220Y-102611415D01*
X69579886Y-102373320D02*
X69198934Y-102373320D01*
X69437029Y-102039987D02*
X69437029Y-102897129D01*
X69437029Y-102897129D02*
X69389410Y-102992368D01*
X69389410Y-102992368D02*
X69294172Y-103039987D01*
X69294172Y-103039987D02*
X69198934Y-103039987D01*
X68103695Y-103039987D02*
X68103695Y-102039987D01*
X67675124Y-103039987D02*
X67675124Y-102516177D01*
X67675124Y-102516177D02*
X67722743Y-102420939D01*
X67722743Y-102420939D02*
X67817981Y-102373320D01*
X67817981Y-102373320D02*
X67960838Y-102373320D01*
X67960838Y-102373320D02*
X68056076Y-102420939D01*
X68056076Y-102420939D02*
X68103695Y-102468558D01*
X66770362Y-103039987D02*
X66770362Y-102516177D01*
X66770362Y-102516177D02*
X66817981Y-102420939D01*
X66817981Y-102420939D02*
X66913219Y-102373320D01*
X66913219Y-102373320D02*
X67103695Y-102373320D01*
X67103695Y-102373320D02*
X67198933Y-102420939D01*
X66770362Y-102992368D02*
X66865600Y-103039987D01*
X66865600Y-103039987D02*
X67103695Y-103039987D01*
X67103695Y-103039987D02*
X67198933Y-102992368D01*
X67198933Y-102992368D02*
X67246552Y-102897129D01*
X67246552Y-102897129D02*
X67246552Y-102801891D01*
X67246552Y-102801891D02*
X67198933Y-102706653D01*
X67198933Y-102706653D02*
X67103695Y-102659034D01*
X67103695Y-102659034D02*
X66865600Y-102659034D01*
X66865600Y-102659034D02*
X66770362Y-102611415D01*
X66294171Y-102373320D02*
X66294171Y-103373320D01*
X66294171Y-102420939D02*
X66198933Y-102373320D01*
X66198933Y-102373320D02*
X66008457Y-102373320D01*
X66008457Y-102373320D02*
X65913219Y-102420939D01*
X65913219Y-102420939D02*
X65865600Y-102468558D01*
X65865600Y-102468558D02*
X65817981Y-102563796D01*
X65817981Y-102563796D02*
X65817981Y-102849510D01*
X65817981Y-102849510D02*
X65865600Y-102944748D01*
X65865600Y-102944748D02*
X65913219Y-102992368D01*
X65913219Y-102992368D02*
X66008457Y-103039987D01*
X66008457Y-103039987D02*
X66198933Y-103039987D01*
X66198933Y-103039987D02*
X66294171Y-102992368D01*
X65389409Y-102373320D02*
X65389409Y-103373320D01*
X65389409Y-102420939D02*
X65294171Y-102373320D01*
X65294171Y-102373320D02*
X65103695Y-102373320D01*
X65103695Y-102373320D02*
X65008457Y-102420939D01*
X65008457Y-102420939D02*
X64960838Y-102468558D01*
X64960838Y-102468558D02*
X64913219Y-102563796D01*
X64913219Y-102563796D02*
X64913219Y-102849510D01*
X64913219Y-102849510D02*
X64960838Y-102944748D01*
X64960838Y-102944748D02*
X65008457Y-102992368D01*
X65008457Y-102992368D02*
X65103695Y-103039987D01*
X65103695Y-103039987D02*
X65294171Y-103039987D01*
X65294171Y-103039987D02*
X65389409Y-102992368D01*
X64103695Y-102992368D02*
X64198933Y-103039987D01*
X64198933Y-103039987D02*
X64389409Y-103039987D01*
X64389409Y-103039987D02*
X64484647Y-102992368D01*
X64484647Y-102992368D02*
X64532266Y-102897129D01*
X64532266Y-102897129D02*
X64532266Y-102516177D01*
X64532266Y-102516177D02*
X64484647Y-102420939D01*
X64484647Y-102420939D02*
X64389409Y-102373320D01*
X64389409Y-102373320D02*
X64198933Y-102373320D01*
X64198933Y-102373320D02*
X64103695Y-102420939D01*
X64103695Y-102420939D02*
X64056076Y-102516177D01*
X64056076Y-102516177D02*
X64056076Y-102611415D01*
X64056076Y-102611415D02*
X64532266Y-102706653D01*
X63627504Y-102373320D02*
X63627504Y-103039987D01*
X63627504Y-102468558D02*
X63579885Y-102420939D01*
X63579885Y-102420939D02*
X63484647Y-102373320D01*
X63484647Y-102373320D02*
X63341790Y-102373320D01*
X63341790Y-102373320D02*
X63246552Y-102420939D01*
X63246552Y-102420939D02*
X63198933Y-102516177D01*
X63198933Y-102516177D02*
X63198933Y-103039987D01*
X62770361Y-102992368D02*
X62675123Y-103039987D01*
X62675123Y-103039987D02*
X62484647Y-103039987D01*
X62484647Y-103039987D02*
X62389409Y-102992368D01*
X62389409Y-102992368D02*
X62341790Y-102897129D01*
X62341790Y-102897129D02*
X62341790Y-102849510D01*
X62341790Y-102849510D02*
X62389409Y-102754272D01*
X62389409Y-102754272D02*
X62484647Y-102706653D01*
X62484647Y-102706653D02*
X62627504Y-102706653D01*
X62627504Y-102706653D02*
X62722742Y-102659034D01*
X62722742Y-102659034D02*
X62770361Y-102563796D01*
X62770361Y-102563796D02*
X62770361Y-102516177D01*
X62770361Y-102516177D02*
X62722742Y-102420939D01*
X62722742Y-102420939D02*
X62627504Y-102373320D01*
X62627504Y-102373320D02*
X62484647Y-102373320D01*
X62484647Y-102373320D02*
X62389409Y-102420939D01*
X72484648Y-103983264D02*
X72294172Y-104649931D01*
X72294172Y-104649931D02*
X72103696Y-104173740D01*
X72103696Y-104173740D02*
X71913220Y-104649931D01*
X71913220Y-104649931D02*
X71722744Y-103983264D01*
X71341791Y-104649931D02*
X71341791Y-103649931D01*
X70913220Y-104649931D02*
X70913220Y-104126121D01*
X70913220Y-104126121D02*
X70960839Y-104030883D01*
X70960839Y-104030883D02*
X71056077Y-103983264D01*
X71056077Y-103983264D02*
X71198934Y-103983264D01*
X71198934Y-103983264D02*
X71294172Y-104030883D01*
X71294172Y-104030883D02*
X71341791Y-104078502D01*
X70056077Y-104602312D02*
X70151315Y-104649931D01*
X70151315Y-104649931D02*
X70341791Y-104649931D01*
X70341791Y-104649931D02*
X70437029Y-104602312D01*
X70437029Y-104602312D02*
X70484648Y-104507073D01*
X70484648Y-104507073D02*
X70484648Y-104126121D01*
X70484648Y-104126121D02*
X70437029Y-104030883D01*
X70437029Y-104030883D02*
X70341791Y-103983264D01*
X70341791Y-103983264D02*
X70151315Y-103983264D01*
X70151315Y-103983264D02*
X70056077Y-104030883D01*
X70056077Y-104030883D02*
X70008458Y-104126121D01*
X70008458Y-104126121D02*
X70008458Y-104221359D01*
X70008458Y-104221359D02*
X70484648Y-104316597D01*
X69579886Y-103983264D02*
X69579886Y-104649931D01*
X69579886Y-104078502D02*
X69532267Y-104030883D01*
X69532267Y-104030883D02*
X69437029Y-103983264D01*
X69437029Y-103983264D02*
X69294172Y-103983264D01*
X69294172Y-103983264D02*
X69198934Y-104030883D01*
X69198934Y-104030883D02*
X69151315Y-104126121D01*
X69151315Y-104126121D02*
X69151315Y-104649931D01*
X67484648Y-104649931D02*
X67484648Y-104126121D01*
X67484648Y-104126121D02*
X67532267Y-104030883D01*
X67532267Y-104030883D02*
X67627505Y-103983264D01*
X67627505Y-103983264D02*
X67817981Y-103983264D01*
X67817981Y-103983264D02*
X67913219Y-104030883D01*
X67484648Y-104602312D02*
X67579886Y-104649931D01*
X67579886Y-104649931D02*
X67817981Y-104649931D01*
X67817981Y-104649931D02*
X67913219Y-104602312D01*
X67913219Y-104602312D02*
X67960838Y-104507073D01*
X67960838Y-104507073D02*
X67960838Y-104411835D01*
X67960838Y-104411835D02*
X67913219Y-104316597D01*
X67913219Y-104316597D02*
X67817981Y-104268978D01*
X67817981Y-104268978D02*
X67579886Y-104268978D01*
X67579886Y-104268978D02*
X67484648Y-104221359D01*
X66246552Y-104649931D02*
X66246552Y-103649931D01*
X65817981Y-104649931D02*
X65817981Y-104126121D01*
X65817981Y-104126121D02*
X65865600Y-104030883D01*
X65865600Y-104030883D02*
X65960838Y-103983264D01*
X65960838Y-103983264D02*
X66103695Y-103983264D01*
X66103695Y-103983264D02*
X66198933Y-104030883D01*
X66198933Y-104030883D02*
X66246552Y-104078502D01*
X65341790Y-104649931D02*
X65341790Y-103983264D01*
X65341790Y-103649931D02*
X65389409Y-103697550D01*
X65389409Y-103697550D02*
X65341790Y-103745169D01*
X65341790Y-103745169D02*
X65294171Y-103697550D01*
X65294171Y-103697550D02*
X65341790Y-103649931D01*
X65341790Y-103649931D02*
X65341790Y-103745169D01*
X64437029Y-103983264D02*
X64437029Y-104792788D01*
X64437029Y-104792788D02*
X64484648Y-104888026D01*
X64484648Y-104888026D02*
X64532267Y-104935645D01*
X64532267Y-104935645D02*
X64627505Y-104983264D01*
X64627505Y-104983264D02*
X64770362Y-104983264D01*
X64770362Y-104983264D02*
X64865600Y-104935645D01*
X64437029Y-104602312D02*
X64532267Y-104649931D01*
X64532267Y-104649931D02*
X64722743Y-104649931D01*
X64722743Y-104649931D02*
X64817981Y-104602312D01*
X64817981Y-104602312D02*
X64865600Y-104554692D01*
X64865600Y-104554692D02*
X64913219Y-104459454D01*
X64913219Y-104459454D02*
X64913219Y-104173740D01*
X64913219Y-104173740D02*
X64865600Y-104078502D01*
X64865600Y-104078502D02*
X64817981Y-104030883D01*
X64817981Y-104030883D02*
X64722743Y-103983264D01*
X64722743Y-103983264D02*
X64532267Y-103983264D01*
X64532267Y-103983264D02*
X64437029Y-104030883D01*
X63960838Y-104649931D02*
X63960838Y-103649931D01*
X63532267Y-104649931D02*
X63532267Y-104126121D01*
X63532267Y-104126121D02*
X63579886Y-104030883D01*
X63579886Y-104030883D02*
X63675124Y-103983264D01*
X63675124Y-103983264D02*
X63817981Y-103983264D01*
X63817981Y-103983264D02*
X63913219Y-104030883D01*
X63913219Y-104030883D02*
X63960838Y-104078502D01*
X72532267Y-105593208D02*
X72151315Y-105593208D01*
X72389410Y-106259875D02*
X72389410Y-105402732D01*
X72389410Y-105402732D02*
X72341791Y-105307494D01*
X72341791Y-105307494D02*
X72246553Y-105259875D01*
X72246553Y-105259875D02*
X72151315Y-105259875D01*
X71817981Y-106259875D02*
X71817981Y-105593208D01*
X71817981Y-105783684D02*
X71770362Y-105688446D01*
X71770362Y-105688446D02*
X71722743Y-105640827D01*
X71722743Y-105640827D02*
X71627505Y-105593208D01*
X71627505Y-105593208D02*
X71532267Y-105593208D01*
X70817981Y-106212256D02*
X70913219Y-106259875D01*
X70913219Y-106259875D02*
X71103695Y-106259875D01*
X71103695Y-106259875D02*
X71198933Y-106212256D01*
X71198933Y-106212256D02*
X71246552Y-106117017D01*
X71246552Y-106117017D02*
X71246552Y-105736065D01*
X71246552Y-105736065D02*
X71198933Y-105640827D01*
X71198933Y-105640827D02*
X71103695Y-105593208D01*
X71103695Y-105593208D02*
X70913219Y-105593208D01*
X70913219Y-105593208D02*
X70817981Y-105640827D01*
X70817981Y-105640827D02*
X70770362Y-105736065D01*
X70770362Y-105736065D02*
X70770362Y-105831303D01*
X70770362Y-105831303D02*
X71246552Y-105926541D01*
X69913219Y-105593208D02*
X69913219Y-106593208D01*
X69913219Y-106212256D02*
X70008457Y-106259875D01*
X70008457Y-106259875D02*
X70198933Y-106259875D01*
X70198933Y-106259875D02*
X70294171Y-106212256D01*
X70294171Y-106212256D02*
X70341790Y-106164636D01*
X70341790Y-106164636D02*
X70389409Y-106069398D01*
X70389409Y-106069398D02*
X70389409Y-105783684D01*
X70389409Y-105783684D02*
X70341790Y-105688446D01*
X70341790Y-105688446D02*
X70294171Y-105640827D01*
X70294171Y-105640827D02*
X70198933Y-105593208D01*
X70198933Y-105593208D02*
X70008457Y-105593208D01*
X70008457Y-105593208D02*
X69913219Y-105640827D01*
X69008457Y-105593208D02*
X69008457Y-106259875D01*
X69437028Y-105593208D02*
X69437028Y-106117017D01*
X69437028Y-106117017D02*
X69389409Y-106212256D01*
X69389409Y-106212256D02*
X69294171Y-106259875D01*
X69294171Y-106259875D02*
X69151314Y-106259875D01*
X69151314Y-106259875D02*
X69056076Y-106212256D01*
X69056076Y-106212256D02*
X69008457Y-106164636D01*
X68151314Y-106212256D02*
X68246552Y-106259875D01*
X68246552Y-106259875D02*
X68437028Y-106259875D01*
X68437028Y-106259875D02*
X68532266Y-106212256D01*
X68532266Y-106212256D02*
X68579885Y-106117017D01*
X68579885Y-106117017D02*
X68579885Y-105736065D01*
X68579885Y-105736065D02*
X68532266Y-105640827D01*
X68532266Y-105640827D02*
X68437028Y-105593208D01*
X68437028Y-105593208D02*
X68246552Y-105593208D01*
X68246552Y-105593208D02*
X68151314Y-105640827D01*
X68151314Y-105640827D02*
X68103695Y-105736065D01*
X68103695Y-105736065D02*
X68103695Y-105831303D01*
X68103695Y-105831303D02*
X68579885Y-105926541D01*
X67675123Y-105593208D02*
X67675123Y-106259875D01*
X67675123Y-105688446D02*
X67627504Y-105640827D01*
X67627504Y-105640827D02*
X67532266Y-105593208D01*
X67532266Y-105593208D02*
X67389409Y-105593208D01*
X67389409Y-105593208D02*
X67294171Y-105640827D01*
X67294171Y-105640827D02*
X67246552Y-105736065D01*
X67246552Y-105736065D02*
X67246552Y-106259875D01*
X66341790Y-106212256D02*
X66437028Y-106259875D01*
X66437028Y-106259875D02*
X66627504Y-106259875D01*
X66627504Y-106259875D02*
X66722742Y-106212256D01*
X66722742Y-106212256D02*
X66770361Y-106164636D01*
X66770361Y-106164636D02*
X66817980Y-106069398D01*
X66817980Y-106069398D02*
X66817980Y-105783684D01*
X66817980Y-105783684D02*
X66770361Y-105688446D01*
X66770361Y-105688446D02*
X66722742Y-105640827D01*
X66722742Y-105640827D02*
X66627504Y-105593208D01*
X66627504Y-105593208D02*
X66437028Y-105593208D01*
X66437028Y-105593208D02*
X66341790Y-105640827D01*
X66008456Y-105593208D02*
X65770361Y-106259875D01*
X65532266Y-105593208D02*
X65770361Y-106259875D01*
X65770361Y-106259875D02*
X65865599Y-106497970D01*
X65865599Y-106497970D02*
X65913218Y-106545589D01*
X65913218Y-106545589D02*
X66008456Y-106593208D01*
X64484646Y-105593208D02*
X64294170Y-106259875D01*
X64294170Y-106259875D02*
X64103694Y-105783684D01*
X64103694Y-105783684D02*
X63913218Y-106259875D01*
X63913218Y-106259875D02*
X63722742Y-105593208D01*
X62913218Y-106259875D02*
X62913218Y-105736065D01*
X62913218Y-105736065D02*
X62960837Y-105640827D01*
X62960837Y-105640827D02*
X63056075Y-105593208D01*
X63056075Y-105593208D02*
X63246551Y-105593208D01*
X63246551Y-105593208D02*
X63341789Y-105640827D01*
X62913218Y-106212256D02*
X63008456Y-106259875D01*
X63008456Y-106259875D02*
X63246551Y-106259875D01*
X63246551Y-106259875D02*
X63341789Y-106212256D01*
X63341789Y-106212256D02*
X63389408Y-106117017D01*
X63389408Y-106117017D02*
X63389408Y-106021779D01*
X63389408Y-106021779D02*
X63341789Y-105926541D01*
X63341789Y-105926541D02*
X63246551Y-105878922D01*
X63246551Y-105878922D02*
X63008456Y-105878922D01*
X63008456Y-105878922D02*
X62913218Y-105831303D01*
X62532265Y-105593208D02*
X62294170Y-106259875D01*
X62294170Y-106259875D02*
X62056075Y-105593208D01*
X61294170Y-106212256D02*
X61389408Y-106259875D01*
X61389408Y-106259875D02*
X61579884Y-106259875D01*
X61579884Y-106259875D02*
X61675122Y-106212256D01*
X61675122Y-106212256D02*
X61722741Y-106117017D01*
X61722741Y-106117017D02*
X61722741Y-105736065D01*
X61722741Y-105736065D02*
X61675122Y-105640827D01*
X61675122Y-105640827D02*
X61579884Y-105593208D01*
X61579884Y-105593208D02*
X61389408Y-105593208D01*
X61389408Y-105593208D02*
X61294170Y-105640827D01*
X61294170Y-105640827D02*
X61246551Y-105736065D01*
X61246551Y-105736065D02*
X61246551Y-105831303D01*
X61246551Y-105831303D02*
X61722741Y-105926541D01*
X72389410Y-107869819D02*
X72389410Y-106869819D01*
X71960839Y-107869819D02*
X71960839Y-107346009D01*
X71960839Y-107346009D02*
X72008458Y-107250771D01*
X72008458Y-107250771D02*
X72103696Y-107203152D01*
X72103696Y-107203152D02*
X72246553Y-107203152D01*
X72246553Y-107203152D02*
X72341791Y-107250771D01*
X72341791Y-107250771D02*
X72389410Y-107298390D01*
X71484648Y-107869819D02*
X71484648Y-107203152D01*
X71484648Y-106869819D02*
X71532267Y-106917438D01*
X71532267Y-106917438D02*
X71484648Y-106965057D01*
X71484648Y-106965057D02*
X71437029Y-106917438D01*
X71437029Y-106917438D02*
X71484648Y-106869819D01*
X71484648Y-106869819D02*
X71484648Y-106965057D01*
X71151315Y-107203152D02*
X70770363Y-107203152D01*
X71008458Y-106869819D02*
X71008458Y-107726961D01*
X71008458Y-107726961D02*
X70960839Y-107822200D01*
X70960839Y-107822200D02*
X70865601Y-107869819D01*
X70865601Y-107869819D02*
X70770363Y-107869819D01*
X70484648Y-107822200D02*
X70389410Y-107869819D01*
X70389410Y-107869819D02*
X70198934Y-107869819D01*
X70198934Y-107869819D02*
X70103696Y-107822200D01*
X70103696Y-107822200D02*
X70056077Y-107726961D01*
X70056077Y-107726961D02*
X70056077Y-107679342D01*
X70056077Y-107679342D02*
X70103696Y-107584104D01*
X70103696Y-107584104D02*
X70198934Y-107536485D01*
X70198934Y-107536485D02*
X70341791Y-107536485D01*
X70341791Y-107536485D02*
X70437029Y-107488866D01*
X70437029Y-107488866D02*
X70484648Y-107393628D01*
X70484648Y-107393628D02*
X70484648Y-107346009D01*
X70484648Y-107346009D02*
X70437029Y-107250771D01*
X70437029Y-107250771D02*
X70341791Y-107203152D01*
X70341791Y-107203152D02*
X70198934Y-107203152D01*
X70198934Y-107203152D02*
X70103696Y-107250771D01*
X68960838Y-107203152D02*
X68722743Y-107869819D01*
X68484648Y-107203152D02*
X68722743Y-107869819D01*
X68722743Y-107869819D02*
X68817981Y-108107914D01*
X68817981Y-108107914D02*
X68865600Y-108155533D01*
X68865600Y-108155533D02*
X68960838Y-108203152D01*
X67960838Y-107869819D02*
X68056076Y-107822200D01*
X68056076Y-107822200D02*
X68103695Y-107774580D01*
X68103695Y-107774580D02*
X68151314Y-107679342D01*
X68151314Y-107679342D02*
X68151314Y-107393628D01*
X68151314Y-107393628D02*
X68103695Y-107298390D01*
X68103695Y-107298390D02*
X68056076Y-107250771D01*
X68056076Y-107250771D02*
X67960838Y-107203152D01*
X67960838Y-107203152D02*
X67817981Y-107203152D01*
X67817981Y-107203152D02*
X67722743Y-107250771D01*
X67722743Y-107250771D02*
X67675124Y-107298390D01*
X67675124Y-107298390D02*
X67627505Y-107393628D01*
X67627505Y-107393628D02*
X67627505Y-107679342D01*
X67627505Y-107679342D02*
X67675124Y-107774580D01*
X67675124Y-107774580D02*
X67722743Y-107822200D01*
X67722743Y-107822200D02*
X67817981Y-107869819D01*
X67817981Y-107869819D02*
X67960838Y-107869819D01*
X66770362Y-107203152D02*
X66770362Y-107869819D01*
X67198933Y-107203152D02*
X67198933Y-107726961D01*
X67198933Y-107726961D02*
X67151314Y-107822200D01*
X67151314Y-107822200D02*
X67056076Y-107869819D01*
X67056076Y-107869819D02*
X66913219Y-107869819D01*
X66913219Y-107869819D02*
X66817981Y-107822200D01*
X66817981Y-107822200D02*
X66770362Y-107774580D01*
X66151314Y-107774580D02*
X66103695Y-107822200D01*
X66103695Y-107822200D02*
X66151314Y-107869819D01*
X66151314Y-107869819D02*
X66198933Y-107822200D01*
X66198933Y-107822200D02*
X66151314Y-107774580D01*
X66151314Y-107774580D02*
X66151314Y-107869819D01*
X66341790Y-106917438D02*
X66246552Y-106869819D01*
X66246552Y-106869819D02*
X66008457Y-106869819D01*
X66008457Y-106869819D02*
X65913219Y-106917438D01*
X65913219Y-106917438D02*
X65865600Y-107012676D01*
X65865600Y-107012676D02*
X65865600Y-107107914D01*
X65865600Y-107107914D02*
X65913219Y-107203152D01*
X65913219Y-107203152D02*
X65960838Y-107250771D01*
X65960838Y-107250771D02*
X66056076Y-107298390D01*
X66056076Y-107298390D02*
X66103695Y-107346009D01*
X66103695Y-107346009D02*
X66151314Y-107441247D01*
X66151314Y-107441247D02*
X66151314Y-107488866D01*
X73500000Y-94500000D02*
X73500000Y-97500000D01*
X70500000Y-94500000D02*
X70500000Y-97500000D01*
X81187030Y-93869819D02*
X81663220Y-93869819D01*
X81663220Y-93869819D02*
X81663220Y-92869819D01*
X80710839Y-93869819D02*
X80806077Y-93822200D01*
X80806077Y-93822200D02*
X80853696Y-93774580D01*
X80853696Y-93774580D02*
X80901315Y-93679342D01*
X80901315Y-93679342D02*
X80901315Y-93393628D01*
X80901315Y-93393628D02*
X80853696Y-93298390D01*
X80853696Y-93298390D02*
X80806077Y-93250771D01*
X80806077Y-93250771D02*
X80710839Y-93203152D01*
X80710839Y-93203152D02*
X80567982Y-93203152D01*
X80567982Y-93203152D02*
X80472744Y-93250771D01*
X80472744Y-93250771D02*
X80425125Y-93298390D01*
X80425125Y-93298390D02*
X80377506Y-93393628D01*
X80377506Y-93393628D02*
X80377506Y-93679342D01*
X80377506Y-93679342D02*
X80425125Y-93774580D01*
X80425125Y-93774580D02*
X80472744Y-93822200D01*
X80472744Y-93822200D02*
X80567982Y-93869819D01*
X80567982Y-93869819D02*
X80710839Y-93869819D01*
X80044172Y-93203152D02*
X79853696Y-93869819D01*
X79853696Y-93869819D02*
X79663220Y-93393628D01*
X79663220Y-93393628D02*
X79472744Y-93869819D01*
X79472744Y-93869819D02*
X79282268Y-93203152D01*
X78139410Y-93869819D02*
X78139410Y-92869819D01*
X78139410Y-92869819D02*
X77758458Y-92869819D01*
X77758458Y-92869819D02*
X77663220Y-92917438D01*
X77663220Y-92917438D02*
X77615601Y-92965057D01*
X77615601Y-92965057D02*
X77567982Y-93060295D01*
X77567982Y-93060295D02*
X77567982Y-93203152D01*
X77567982Y-93203152D02*
X77615601Y-93298390D01*
X77615601Y-93298390D02*
X77663220Y-93346009D01*
X77663220Y-93346009D02*
X77758458Y-93393628D01*
X77758458Y-93393628D02*
X78139410Y-93393628D01*
X76710839Y-93869819D02*
X76710839Y-93346009D01*
X76710839Y-93346009D02*
X76758458Y-93250771D01*
X76758458Y-93250771D02*
X76853696Y-93203152D01*
X76853696Y-93203152D02*
X77044172Y-93203152D01*
X77044172Y-93203152D02*
X77139410Y-93250771D01*
X76710839Y-93822200D02*
X76806077Y-93869819D01*
X76806077Y-93869819D02*
X77044172Y-93869819D01*
X77044172Y-93869819D02*
X77139410Y-93822200D01*
X77139410Y-93822200D02*
X77187029Y-93726961D01*
X77187029Y-93726961D02*
X77187029Y-93631723D01*
X77187029Y-93631723D02*
X77139410Y-93536485D01*
X77139410Y-93536485D02*
X77044172Y-93488866D01*
X77044172Y-93488866D02*
X76806077Y-93488866D01*
X76806077Y-93488866D02*
X76710839Y-93441247D01*
X76282267Y-93822200D02*
X76187029Y-93869819D01*
X76187029Y-93869819D02*
X75996553Y-93869819D01*
X75996553Y-93869819D02*
X75901315Y-93822200D01*
X75901315Y-93822200D02*
X75853696Y-93726961D01*
X75853696Y-93726961D02*
X75853696Y-93679342D01*
X75853696Y-93679342D02*
X75901315Y-93584104D01*
X75901315Y-93584104D02*
X75996553Y-93536485D01*
X75996553Y-93536485D02*
X76139410Y-93536485D01*
X76139410Y-93536485D02*
X76234648Y-93488866D01*
X76234648Y-93488866D02*
X76282267Y-93393628D01*
X76282267Y-93393628D02*
X76282267Y-93346009D01*
X76282267Y-93346009D02*
X76234648Y-93250771D01*
X76234648Y-93250771D02*
X76139410Y-93203152D01*
X76139410Y-93203152D02*
X75996553Y-93203152D01*
X75996553Y-93203152D02*
X75901315Y-93250771D01*
X75472743Y-93822200D02*
X75377505Y-93869819D01*
X75377505Y-93869819D02*
X75187029Y-93869819D01*
X75187029Y-93869819D02*
X75091791Y-93822200D01*
X75091791Y-93822200D02*
X75044172Y-93726961D01*
X75044172Y-93726961D02*
X75044172Y-93679342D01*
X75044172Y-93679342D02*
X75091791Y-93584104D01*
X75091791Y-93584104D02*
X75187029Y-93536485D01*
X75187029Y-93536485D02*
X75329886Y-93536485D01*
X75329886Y-93536485D02*
X75425124Y-93488866D01*
X75425124Y-93488866D02*
X75472743Y-93393628D01*
X75472743Y-93393628D02*
X75472743Y-93346009D01*
X75472743Y-93346009D02*
X75425124Y-93250771D01*
X75425124Y-93250771D02*
X75329886Y-93203152D01*
X75329886Y-93203152D02*
X75187029Y-93203152D01*
X75187029Y-93203152D02*
X75091791Y-93250771D01*
X73377505Y-93869819D02*
X73853695Y-93869819D01*
X73853695Y-93869819D02*
X73853695Y-92869819D01*
X72615600Y-93869819D02*
X72615600Y-93346009D01*
X72615600Y-93346009D02*
X72663219Y-93250771D01*
X72663219Y-93250771D02*
X72758457Y-93203152D01*
X72758457Y-93203152D02*
X72948933Y-93203152D01*
X72948933Y-93203152D02*
X73044171Y-93250771D01*
X72615600Y-93822200D02*
X72710838Y-93869819D01*
X72710838Y-93869819D02*
X72948933Y-93869819D01*
X72948933Y-93869819D02*
X73044171Y-93822200D01*
X73044171Y-93822200D02*
X73091790Y-93726961D01*
X73091790Y-93726961D02*
X73091790Y-93631723D01*
X73091790Y-93631723D02*
X73044171Y-93536485D01*
X73044171Y-93536485D02*
X72948933Y-93488866D01*
X72948933Y-93488866D02*
X72710838Y-93488866D01*
X72710838Y-93488866D02*
X72615600Y-93441247D01*
X71710838Y-93869819D02*
X71710838Y-92869819D01*
X71710838Y-93822200D02*
X71806076Y-93869819D01*
X71806076Y-93869819D02*
X71996552Y-93869819D01*
X71996552Y-93869819D02*
X72091790Y-93822200D01*
X72091790Y-93822200D02*
X72139409Y-93774580D01*
X72139409Y-93774580D02*
X72187028Y-93679342D01*
X72187028Y-93679342D02*
X72187028Y-93393628D01*
X72187028Y-93393628D02*
X72139409Y-93298390D01*
X72139409Y-93298390D02*
X72091790Y-93250771D01*
X72091790Y-93250771D02*
X71996552Y-93203152D01*
X71996552Y-93203152D02*
X71806076Y-93203152D01*
X71806076Y-93203152D02*
X71710838Y-93250771D01*
X70806076Y-93869819D02*
X70806076Y-92869819D01*
X70806076Y-93822200D02*
X70901314Y-93869819D01*
X70901314Y-93869819D02*
X71091790Y-93869819D01*
X71091790Y-93869819D02*
X71187028Y-93822200D01*
X71187028Y-93822200D02*
X71234647Y-93774580D01*
X71234647Y-93774580D02*
X71282266Y-93679342D01*
X71282266Y-93679342D02*
X71282266Y-93393628D01*
X71282266Y-93393628D02*
X71234647Y-93298390D01*
X71234647Y-93298390D02*
X71187028Y-93250771D01*
X71187028Y-93250771D02*
X71091790Y-93203152D01*
X71091790Y-93203152D02*
X70901314Y-93203152D01*
X70901314Y-93203152D02*
X70806076Y-93250771D01*
X69948933Y-93822200D02*
X70044171Y-93869819D01*
X70044171Y-93869819D02*
X70234647Y-93869819D01*
X70234647Y-93869819D02*
X70329885Y-93822200D01*
X70329885Y-93822200D02*
X70377504Y-93726961D01*
X70377504Y-93726961D02*
X70377504Y-93346009D01*
X70377504Y-93346009D02*
X70329885Y-93250771D01*
X70329885Y-93250771D02*
X70234647Y-93203152D01*
X70234647Y-93203152D02*
X70044171Y-93203152D01*
X70044171Y-93203152D02*
X69948933Y-93250771D01*
X69948933Y-93250771D02*
X69901314Y-93346009D01*
X69901314Y-93346009D02*
X69901314Y-93441247D01*
X69901314Y-93441247D02*
X70377504Y-93536485D01*
X69472742Y-93869819D02*
X69472742Y-93203152D01*
X69472742Y-93393628D02*
X69425123Y-93298390D01*
X69425123Y-93298390D02*
X69377504Y-93250771D01*
X69377504Y-93250771D02*
X69282266Y-93203152D01*
X69282266Y-93203152D02*
X69187028Y-93203152D01*
X67758456Y-93346009D02*
X68091789Y-93346009D01*
X68091789Y-93869819D02*
X68091789Y-92869819D01*
X68091789Y-92869819D02*
X67615599Y-92869819D01*
X67234646Y-93869819D02*
X67234646Y-93203152D01*
X67234646Y-92869819D02*
X67282265Y-92917438D01*
X67282265Y-92917438D02*
X67234646Y-92965057D01*
X67234646Y-92965057D02*
X67187027Y-92917438D01*
X67187027Y-92917438D02*
X67234646Y-92869819D01*
X67234646Y-92869819D02*
X67234646Y-92965057D01*
X66615599Y-93869819D02*
X66710837Y-93822200D01*
X66710837Y-93822200D02*
X66758456Y-93726961D01*
X66758456Y-93726961D02*
X66758456Y-92869819D01*
X66377503Y-93203152D02*
X65996551Y-93203152D01*
X66234646Y-92869819D02*
X66234646Y-93726961D01*
X66234646Y-93726961D02*
X66187027Y-93822200D01*
X66187027Y-93822200D02*
X66091789Y-93869819D01*
X66091789Y-93869819D02*
X65996551Y-93869819D01*
X65282265Y-93822200D02*
X65377503Y-93869819D01*
X65377503Y-93869819D02*
X65567979Y-93869819D01*
X65567979Y-93869819D02*
X65663217Y-93822200D01*
X65663217Y-93822200D02*
X65710836Y-93726961D01*
X65710836Y-93726961D02*
X65710836Y-93346009D01*
X65710836Y-93346009D02*
X65663217Y-93250771D01*
X65663217Y-93250771D02*
X65567979Y-93203152D01*
X65567979Y-93203152D02*
X65377503Y-93203152D01*
X65377503Y-93203152D02*
X65282265Y-93250771D01*
X65282265Y-93250771D02*
X65234646Y-93346009D01*
X65234646Y-93346009D02*
X65234646Y-93441247D01*
X65234646Y-93441247D02*
X65710836Y-93536485D01*
X64806074Y-93869819D02*
X64806074Y-93203152D01*
X64806074Y-93393628D02*
X64758455Y-93298390D01*
X64758455Y-93298390D02*
X64710836Y-93250771D01*
X64710836Y-93250771D02*
X64615598Y-93203152D01*
X64615598Y-93203152D02*
X64520360Y-93203152D01*
X69500000Y-94500000D02*
X69500000Y-97500000D01*
X65663220Y-92369819D02*
X65663220Y-91703152D01*
X65663220Y-91893628D02*
X65615601Y-91798390D01*
X65615601Y-91798390D02*
X65567982Y-91750771D01*
X65567982Y-91750771D02*
X65472744Y-91703152D01*
X65472744Y-91703152D02*
X65377506Y-91703152D01*
X64663220Y-92322200D02*
X64758458Y-92369819D01*
X64758458Y-92369819D02*
X64948934Y-92369819D01*
X64948934Y-92369819D02*
X65044172Y-92322200D01*
X65044172Y-92322200D02*
X65091791Y-92226961D01*
X65091791Y-92226961D02*
X65091791Y-91846009D01*
X65091791Y-91846009D02*
X65044172Y-91750771D01*
X65044172Y-91750771D02*
X64948934Y-91703152D01*
X64948934Y-91703152D02*
X64758458Y-91703152D01*
X64758458Y-91703152D02*
X64663220Y-91750771D01*
X64663220Y-91750771D02*
X64615601Y-91846009D01*
X64615601Y-91846009D02*
X64615601Y-91941247D01*
X64615601Y-91941247D02*
X65091791Y-92036485D01*
X64282267Y-91703152D02*
X64044172Y-92369819D01*
X64044172Y-92369819D02*
X63806077Y-91703152D01*
X63425124Y-92274580D02*
X63377505Y-92322200D01*
X63377505Y-92322200D02*
X63425124Y-92369819D01*
X63425124Y-92369819D02*
X63472743Y-92322200D01*
X63472743Y-92322200D02*
X63425124Y-92274580D01*
X63425124Y-92274580D02*
X63425124Y-92369819D01*
X62425125Y-92369819D02*
X62996553Y-92369819D01*
X62710839Y-92369819D02*
X62710839Y-91369819D01*
X62710839Y-91369819D02*
X62806077Y-91512676D01*
X62806077Y-91512676D02*
X62901315Y-91607914D01*
X62901315Y-91607914D02*
X62996553Y-91655533D01*
X74000000Y-94500000D02*
X74000000Y-97500000D01*
X73000000Y-94500000D02*
X73000000Y-97500000D01*
X70000000Y-94500000D02*
X70000000Y-97500000D01*
X69000000Y-97500000D02*
X74500000Y-97500000D01*
X74500000Y-94500000D01*
X69000000Y-94500000D01*
X69000000Y-97500000D01*
X71000000Y-94500000D02*
X71000000Y-97500000D01*
X72000000Y-94500000D02*
X72000000Y-97500000D01*
G36*
X84687264Y-90277892D02*
G01*
X84693275Y-90130659D01*
X84702651Y-90056608D01*
X84752080Y-89916953D01*
X84759804Y-89905666D01*
X84881437Y-89816273D01*
X85029540Y-89786735D01*
X85092463Y-89784766D01*
X85130565Y-89759120D01*
X85143754Y-89704898D01*
X85131297Y-89652875D01*
X85093196Y-89629427D01*
X84940179Y-89629427D01*
X84787648Y-89629427D01*
X84631049Y-89629427D01*
X84484109Y-89629427D01*
X84465247Y-89629427D01*
X84315030Y-89629427D01*
X84300383Y-89629427D01*
X84149441Y-89629427D01*
X84000697Y-89629427D01*
X83853676Y-89629427D01*
X83837299Y-89629427D01*
X83802128Y-89652875D01*
X83793335Y-89704898D01*
X83807990Y-89759120D01*
X83841695Y-89784766D01*
X83993359Y-89796441D01*
X84054919Y-89811877D01*
X84178750Y-89896140D01*
X84232031Y-90034128D01*
X84233705Y-90045617D01*
X84244945Y-90196459D01*
X84246161Y-90280823D01*
X84246161Y-91747013D01*
X84241296Y-91898081D01*
X84233705Y-91971960D01*
X84191029Y-92115830D01*
X84186810Y-92123635D01*
X84093021Y-92218157D01*
X83954690Y-92273627D01*
X83943545Y-92276775D01*
X83810188Y-92296559D01*
X83659881Y-92302415D01*
X83654849Y-92302421D01*
X83502615Y-92297502D01*
X83462875Y-92294361D01*
X83326587Y-92268715D01*
X83187827Y-92209897D01*
X83180041Y-92205701D01*
X83075261Y-92117041D01*
X83006674Y-91985811D01*
X83004919Y-91980753D01*
X82969336Y-91833200D01*
X82960223Y-91772658D01*
X82930914Y-91739685D01*
X82875226Y-91730893D01*
X82823203Y-91743349D01*
X82803419Y-91777055D01*
X82821170Y-91925939D01*
X82838322Y-92075808D01*
X82841521Y-92104584D01*
X82854160Y-92258824D01*
X82858357Y-92406750D01*
X82858374Y-92416727D01*
X82875226Y-92461423D01*
X82955094Y-92490000D01*
X84482833Y-92490000D01*
X84633969Y-92490000D01*
X84789147Y-92490000D01*
X84798639Y-92490000D01*
X84949031Y-92490000D01*
X85096859Y-92490000D01*
X85141556Y-92469483D01*
X85156210Y-92423321D01*
X85141556Y-92375694D01*
X85096127Y-92347850D01*
X84945109Y-92325100D01*
X84883635Y-92312679D01*
X84759804Y-92254061D01*
X84702651Y-92136824D01*
X84688226Y-91986798D01*
X84687264Y-91921402D01*
X84687264Y-90282288D01*
X84687264Y-90277892D01*
G37*
G36*
X81684680Y-90524959D02*
G01*
X81834328Y-90548761D01*
X81974703Y-90592965D01*
X82029761Y-90616729D01*
X82161025Y-90690905D01*
X82283182Y-90790802D01*
X82329034Y-90839943D01*
X82414950Y-90959319D01*
X82482484Y-91096350D01*
X82513579Y-91188307D01*
X82543564Y-91334487D01*
X82553558Y-91490558D01*
X82546618Y-91649998D01*
X82522949Y-91809679D01*
X82482484Y-91952909D01*
X82453804Y-92024179D01*
X82379647Y-92162335D01*
X82289043Y-92278241D01*
X82257914Y-92309313D01*
X82137600Y-92402559D01*
X81999616Y-92471681D01*
X81935413Y-92493843D01*
X81789415Y-92526131D01*
X81633984Y-92536894D01*
X81523388Y-92532589D01*
X81367282Y-92509989D01*
X81222923Y-92468018D01*
X81155535Y-92439622D01*
X81022253Y-92362367D01*
X80906385Y-92263586D01*
X80851307Y-92201301D01*
X80764648Y-92069814D01*
X80702686Y-91930195D01*
X80661804Y-91786665D01*
X80637891Y-91629109D01*
X80632962Y-91519867D01*
X81071981Y-91519867D01*
X81076744Y-91675938D01*
X81091032Y-91830544D01*
X81116739Y-91967877D01*
X81166503Y-92106782D01*
X81219721Y-92198586D01*
X81324040Y-92305352D01*
X81440361Y-92362505D01*
X81588555Y-92381556D01*
X81717023Y-92366269D01*
X81850872Y-92301688D01*
X81932216Y-92223169D01*
X82012072Y-92098722D01*
X82061348Y-91969030D01*
X82091939Y-91824682D01*
X82106666Y-91683732D01*
X82112456Y-91528660D01*
X82112434Y-91518369D01*
X82106777Y-91367093D01*
X82089741Y-91212121D01*
X82059548Y-91076323D01*
X82005478Y-90939546D01*
X81948808Y-90849891D01*
X81839881Y-90747571D01*
X81718981Y-90693715D01*
X81567306Y-90675764D01*
X81453614Y-90687615D01*
X81319644Y-90747571D01*
X81248072Y-90813654D01*
X81168702Y-90938080D01*
X81124749Y-91056083D01*
X81093230Y-91207725D01*
X81091923Y-91217213D01*
X81076650Y-91371361D01*
X81071981Y-91519867D01*
X80632962Y-91519867D01*
X80630879Y-91473705D01*
X80635367Y-91361323D01*
X80658929Y-91205458D01*
X80702686Y-91064842D01*
X80726239Y-91010825D01*
X80800033Y-90883441D01*
X80899790Y-90767355D01*
X80940355Y-90731198D01*
X81066499Y-90644804D01*
X81200209Y-90584173D01*
X81277726Y-90559333D01*
X81429873Y-90529390D01*
X81579762Y-90520425D01*
X81684680Y-90524959D01*
G37*
G36*
X78757292Y-90616413D02*
G01*
X78698518Y-90754187D01*
X78640164Y-90891821D01*
X78582231Y-91029315D01*
X78524719Y-91166669D01*
X78492044Y-91245094D01*
X78434808Y-91382402D01*
X78377220Y-91519921D01*
X78319283Y-91657651D01*
X78260994Y-91795590D01*
X78227529Y-91874508D01*
X78200418Y-91899420D01*
X78171842Y-91874508D01*
X78129209Y-91733801D01*
X78086445Y-91582990D01*
X78048011Y-91436336D01*
X78012520Y-91291240D01*
X77978587Y-91145105D01*
X77949092Y-91011353D01*
X77932240Y-90889720D01*
X77983531Y-90765889D01*
X78125240Y-90724449D01*
X78145464Y-90721193D01*
X78188695Y-90696280D01*
X78201151Y-90653782D01*
X78185764Y-90609818D01*
X78145464Y-90590767D01*
X77995913Y-90597923D01*
X77957885Y-90602491D01*
X77808981Y-90614031D01*
X77787892Y-90614214D01*
X77635921Y-90605868D01*
X77606175Y-90602491D01*
X77458399Y-90590813D01*
X77450837Y-90590767D01*
X77414200Y-90609818D01*
X77403942Y-90653049D01*
X77414200Y-90698478D01*
X77441311Y-90718995D01*
X77583461Y-90758562D01*
X77680914Y-90843558D01*
X77749057Y-90967390D01*
X77798602Y-91110229D01*
X77801814Y-91120530D01*
X77855040Y-91299877D01*
X77909204Y-91478880D01*
X77964308Y-91657540D01*
X78020350Y-91835856D01*
X78077331Y-92013829D01*
X78135251Y-92191458D01*
X78194110Y-92368744D01*
X78253907Y-92545687D01*
X78307397Y-92572798D01*
X78359420Y-92550083D01*
X78413451Y-92404755D01*
X78467833Y-92259848D01*
X78522565Y-92115362D01*
X78577647Y-91971296D01*
X78609281Y-91889162D01*
X78666177Y-91744530D01*
X78725948Y-91597865D01*
X78788594Y-91449166D01*
X78854115Y-91298434D01*
X78892847Y-91211388D01*
X78918492Y-91190872D01*
X78943405Y-91211388D01*
X78998875Y-91356262D01*
X79052078Y-91494130D01*
X79086287Y-91582149D01*
X79139970Y-91720119D01*
X79195348Y-91864375D01*
X79214515Y-91914808D01*
X79267308Y-92053874D01*
X79319260Y-92191539D01*
X79333949Y-92230614D01*
X79384880Y-92368218D01*
X79436371Y-92509188D01*
X79451186Y-92550083D01*
X79505408Y-92577194D01*
X79560362Y-92550083D01*
X79608817Y-92411306D01*
X79664891Y-92250050D01*
X79720475Y-92089495D01*
X79775568Y-91929641D01*
X79814619Y-91815889D01*
X79868269Y-91656742D01*
X79920868Y-91497945D01*
X79972414Y-91339499D01*
X80022909Y-91181404D01*
X80051290Y-91091221D01*
X80101916Y-90952600D01*
X80115771Y-90921960D01*
X80185380Y-90814982D01*
X80273307Y-90752700D01*
X80391277Y-90718995D01*
X80420586Y-90694082D01*
X80428646Y-90653049D01*
X80420586Y-90609818D01*
X80391277Y-90590767D01*
X80243772Y-90596308D01*
X80175122Y-90602491D01*
X80024855Y-90612829D01*
X79942114Y-90614214D01*
X79792649Y-90609635D01*
X79705443Y-90602491D01*
X79553193Y-90592152D01*
X79472435Y-90590767D01*
X79439462Y-90609085D01*
X79424808Y-90650118D01*
X79435066Y-90692616D01*
X79472435Y-90716796D01*
X79614905Y-90752517D01*
X79644626Y-90769553D01*
X79694452Y-90870669D01*
X79686392Y-90944675D01*
X79665143Y-91031137D01*
X79624063Y-91177366D01*
X79581425Y-91321864D01*
X79541311Y-91451723D01*
X79495785Y-91593364D01*
X79448873Y-91735177D01*
X79405024Y-91864249D01*
X79375715Y-91889162D01*
X79342009Y-91867913D01*
X79280849Y-91704160D01*
X79219735Y-91542627D01*
X79158667Y-91383316D01*
X79097644Y-91226226D01*
X79036668Y-91071357D01*
X78975737Y-90918709D01*
X78914851Y-90768282D01*
X78854012Y-90620076D01*
X78807850Y-90590767D01*
X78757292Y-90616413D01*
G37*
G36*
X74881384Y-89539373D02*
G01*
X75030197Y-89555974D01*
X75189619Y-89590525D01*
X75340579Y-89641884D01*
X75420077Y-89677161D01*
X75554158Y-89751117D01*
X75676646Y-89838521D01*
X75787543Y-89939371D01*
X75843947Y-90000977D01*
X75935466Y-90121154D01*
X76014117Y-90253270D01*
X76079902Y-90397327D01*
X76120729Y-90516148D01*
X76158487Y-90676130D01*
X76178133Y-90825149D01*
X76184682Y-90980579D01*
X76184317Y-91026246D01*
X76175559Y-91201775D01*
X76155122Y-91365877D01*
X76123008Y-91518554D01*
X76079216Y-91659804D01*
X76008054Y-91820300D01*
X75918646Y-91962942D01*
X75810990Y-92087732D01*
X75712942Y-92174457D01*
X75577888Y-92266602D01*
X75428953Y-92340680D01*
X75266135Y-92396690D01*
X75089436Y-92434633D01*
X74938082Y-92451978D01*
X74777843Y-92457759D01*
X74688220Y-92455380D01*
X74531045Y-92439106D01*
X74379203Y-92407415D01*
X74232693Y-92360307D01*
X74154143Y-92327599D01*
X74020777Y-92257364D01*
X73897728Y-92172523D01*
X73784996Y-92073077D01*
X73727183Y-92011661D01*
X73632946Y-91890473D01*
X73551345Y-91755607D01*
X73482379Y-91607062D01*
X73468892Y-91572108D01*
X73423646Y-91425654D01*
X73392322Y-91268575D01*
X73376334Y-91122416D01*
X73372143Y-91001095D01*
X73886845Y-91001095D01*
X73887074Y-91032711D01*
X73895088Y-91188559D01*
X73914552Y-91340686D01*
X73945464Y-91489092D01*
X73986937Y-91630343D01*
X74044790Y-91773487D01*
X74115457Y-91903817D01*
X74174304Y-91989225D01*
X74274424Y-92101024D01*
X74388764Y-92193244D01*
X74461674Y-92235785D01*
X74609728Y-92287068D01*
X74760990Y-92302421D01*
X74903714Y-92293785D01*
X75058318Y-92259774D01*
X75202093Y-92193244D01*
X75284525Y-92133939D01*
X75391687Y-92028667D01*
X75479064Y-91903817D01*
X75537769Y-91785650D01*
X75588789Y-91642939D01*
X75625610Y-91486894D01*
X75630845Y-91457247D01*
X75651954Y-91307124D01*
X75664619Y-91153852D01*
X75668841Y-90997431D01*
X75668641Y-90967235D01*
X75661628Y-90817112D01*
X75644598Y-90668419D01*
X75617550Y-90521158D01*
X75579597Y-90379550D01*
X75525286Y-90235186D01*
X75457815Y-90102770D01*
X75400067Y-90015209D01*
X75298848Y-89900354D01*
X75180111Y-89805282D01*
X75079621Y-89750027D01*
X74930488Y-89704483D01*
X74778576Y-89690976D01*
X74643819Y-89699844D01*
X74495960Y-89734768D01*
X74355792Y-89803084D01*
X74274001Y-89863626D01*
X74167457Y-89971268D01*
X74080286Y-90099106D01*
X74016183Y-90231364D01*
X73965934Y-90376264D01*
X73932274Y-90518960D01*
X73926773Y-90548578D01*
X73904591Y-90697700D01*
X73891282Y-90848539D01*
X73886845Y-91001095D01*
X73372143Y-91001095D01*
X73371004Y-90968122D01*
X73375948Y-90828985D01*
X73393705Y-90677013D01*
X73424377Y-90532551D01*
X73474319Y-90379009D01*
X73508397Y-90298033D01*
X73579926Y-90161923D01*
X73664554Y-90038218D01*
X73762281Y-89926915D01*
X73821737Y-89870390D01*
X73937592Y-89779193D01*
X74064808Y-89701559D01*
X74203384Y-89637487D01*
X74301057Y-89602874D01*
X74454233Y-89564383D01*
X74615406Y-89542004D01*
X74765387Y-89535638D01*
X74881384Y-89539373D01*
G37*
G36*
X72427250Y-91984417D02*
G01*
X72422897Y-92132917D01*
X72420655Y-92161004D01*
X72375226Y-92278241D01*
X72252128Y-92349316D01*
X72101947Y-92377683D01*
X72010327Y-92386685D01*
X71971493Y-92410132D01*
X71958304Y-92454096D01*
X71970760Y-92494396D01*
X72008862Y-92513447D01*
X72160371Y-92510642D01*
X72313603Y-92500567D01*
X72331263Y-92498792D01*
X72484174Y-92486943D01*
X72597976Y-92484138D01*
X72749779Y-92488774D01*
X72866887Y-92498792D01*
X73017609Y-92510642D01*
X73135799Y-92513447D01*
X73166573Y-92494396D01*
X73177564Y-92454096D01*
X73166573Y-92410132D01*
X73132868Y-92385952D01*
X72985406Y-92354616D01*
X72970202Y-92348583D01*
X72886671Y-92278974D01*
X72855163Y-92169064D01*
X72849325Y-92018454D01*
X72849302Y-92006399D01*
X72849302Y-91388709D01*
X72849302Y-91235092D01*
X72849302Y-91085203D01*
X72849302Y-91061912D01*
X72865788Y-90911885D01*
X72878611Y-90875799D01*
X72968736Y-90789337D01*
X73112912Y-90762248D01*
X73139462Y-90760027D01*
X73168039Y-90738778D01*
X73177564Y-90695547D01*
X73167306Y-90653782D01*
X73132135Y-90632533D01*
X72979802Y-90625110D01*
X72902058Y-90624473D01*
X72753314Y-90614031D01*
X72601639Y-90582707D01*
X72507117Y-90578311D01*
X72474145Y-90637662D01*
X72474145Y-90910237D01*
X72470481Y-90920495D01*
X72458025Y-90914633D01*
X72382081Y-90780746D01*
X72286231Y-90663338D01*
X72248464Y-90628136D01*
X72113493Y-90550824D01*
X71967085Y-90522108D01*
X71916538Y-90520425D01*
X71768161Y-90543323D01*
X71664480Y-90612016D01*
X71594584Y-90742247D01*
X71583147Y-90835498D01*
X71636636Y-90968122D01*
X71770896Y-91026952D01*
X71789043Y-91027473D01*
X71921667Y-90981311D01*
X71958304Y-90880928D01*
X71981018Y-90788604D01*
X72079204Y-90754898D01*
X72218042Y-90804409D01*
X72222086Y-90807655D01*
X72323185Y-90917594D01*
X72331995Y-90930753D01*
X72397486Y-91063788D01*
X72402337Y-91078032D01*
X72427250Y-91195268D01*
X72427250Y-91984417D01*
G37*
G36*
X70879702Y-89578663D02*
G01*
X71031739Y-89613782D01*
X71180879Y-89636022D01*
X71311490Y-89647542D01*
X71460048Y-89652875D01*
X71495952Y-89674124D01*
X71504012Y-89716622D01*
X71491556Y-89759120D01*
X71460048Y-89780369D01*
X71440022Y-89782782D01*
X71292254Y-89814075D01*
X71205792Y-89893210D01*
X71197981Y-89912376D01*
X71178681Y-90061004D01*
X71178681Y-90198621D01*
X71178681Y-90353363D01*
X71178681Y-92438709D01*
X71116517Y-92457696D01*
X70962425Y-92496179D01*
X70808653Y-92520041D01*
X70798140Y-92521078D01*
X70645437Y-92532681D01*
X70492847Y-92536894D01*
X70386830Y-92532818D01*
X70232785Y-92511420D01*
X70084717Y-92471681D01*
X69990882Y-92434862D01*
X69860948Y-92363833D01*
X69743998Y-92273845D01*
X69666023Y-92193564D01*
X69577202Y-92068851D01*
X69510990Y-91936789D01*
X69500520Y-91910858D01*
X69455010Y-91758001D01*
X69431368Y-91604013D01*
X69427386Y-91516203D01*
X69865631Y-91516203D01*
X69865831Y-91548354D01*
X69872042Y-91694814D01*
X69888346Y-91845198D01*
X69916682Y-91983626D01*
X69967480Y-92121437D01*
X70016115Y-92204556D01*
X70122819Y-92311946D01*
X70218128Y-92359531D01*
X70368283Y-92381556D01*
X70378945Y-92381415D01*
X70525819Y-92345652D01*
X70648918Y-92263586D01*
X70728053Y-92166133D01*
X70756629Y-92089930D01*
X70756629Y-91203328D01*
X70719993Y-91076566D01*
X70712872Y-91063212D01*
X70618143Y-90945408D01*
X70588421Y-90920283D01*
X70462805Y-90844291D01*
X70410776Y-90823748D01*
X70265701Y-90801793D01*
X70205709Y-90805365D01*
X70062002Y-90858946D01*
X70025366Y-90890041D01*
X69941835Y-91013551D01*
X69913224Y-91090625D01*
X69882484Y-91239232D01*
X69870387Y-91364318D01*
X69865631Y-91516203D01*
X69427386Y-91516203D01*
X69424528Y-91453189D01*
X69425273Y-91408126D01*
X69439598Y-91253291D01*
X69472156Y-91102944D01*
X69481485Y-91071569D01*
X69535581Y-90934686D01*
X69612840Y-90805457D01*
X69716154Y-90689685D01*
X69841451Y-90598827D01*
X69867235Y-90584816D01*
X70007165Y-90535432D01*
X70154326Y-90520425D01*
X70219946Y-90522930D01*
X70374651Y-90552883D01*
X70515561Y-90623007D01*
X70524609Y-90629398D01*
X70644521Y-90731268D01*
X70739776Y-90852351D01*
X70752965Y-90861144D01*
X70756629Y-90852351D01*
X70756629Y-89627962D01*
X70777145Y-89579602D01*
X70859211Y-89573007D01*
X70879702Y-89578663D01*
G37*
G36*
X68467585Y-91960237D02*
G01*
X68467585Y-92108961D01*
X68467585Y-92136824D01*
X68444870Y-92254061D01*
X68372330Y-92325868D01*
X68233112Y-92363237D01*
X68197941Y-92386685D01*
X68186217Y-92430648D01*
X68198674Y-92470949D01*
X68235310Y-92490000D01*
X68385559Y-92480325D01*
X68428750Y-92475345D01*
X68578845Y-92462751D01*
X68670551Y-92460690D01*
X68824847Y-92465857D01*
X68927739Y-92475345D01*
X69080352Y-92487939D01*
X69168073Y-92490000D01*
X69203977Y-92470949D01*
X69217899Y-92430648D01*
X69205443Y-92386685D01*
X69168806Y-92363237D01*
X69022187Y-92333349D01*
X69002477Y-92325868D01*
X68916748Y-92256259D01*
X68889637Y-92147083D01*
X68889637Y-91996472D01*
X68889637Y-91984417D01*
X68889637Y-91306643D01*
X68891408Y-91152587D01*
X68897697Y-91015750D01*
X68925382Y-90868357D01*
X68933600Y-90849420D01*
X69017864Y-90771751D01*
X69163579Y-90738833D01*
X69169539Y-90738046D01*
X69206175Y-90716796D01*
X69217899Y-90675031D01*
X69204710Y-90632533D01*
X69166608Y-90611284D01*
X69062561Y-90611284D01*
X68932135Y-90604689D01*
X68793649Y-90585638D01*
X68667620Y-90559993D01*
X68593614Y-90538743D01*
X68548918Y-90527020D01*
X68482972Y-90556329D01*
X68467585Y-90611284D01*
X68467585Y-91960237D01*
G37*
G36*
X68685938Y-90098374D02*
G01*
X68828781Y-90057676D01*
X68862526Y-90031695D01*
X68933929Y-89902060D01*
X68936531Y-89866099D01*
X68890578Y-89725189D01*
X68866922Y-89698304D01*
X68731333Y-89631849D01*
X68693998Y-89629427D01*
X68552112Y-89680026D01*
X68531332Y-89700502D01*
X68469826Y-89834379D01*
X68467585Y-89870495D01*
X68511924Y-90010178D01*
X68529867Y-90031695D01*
X68662823Y-90097332D01*
X68685938Y-90098374D01*
G37*
G36*
X67362630Y-91837138D02*
G01*
X67356223Y-91985391D01*
X67329536Y-92132251D01*
X67308408Y-92188115D01*
X67198428Y-92288914D01*
X67109839Y-92302421D01*
X66959698Y-92284532D01*
X66920062Y-92273112D01*
X66786060Y-92211467D01*
X66783042Y-92209364D01*
X66753733Y-92207166D01*
X66724424Y-92229148D01*
X66705373Y-92261388D01*
X66706838Y-92291430D01*
X66798979Y-92405553D01*
X66915666Y-92481207D01*
X67064315Y-92524658D01*
X67216085Y-92536894D01*
X67363908Y-92526635D01*
X67508375Y-92486233D01*
X67620551Y-92407201D01*
X67696457Y-92277519D01*
X67730460Y-92129818D01*
X67737787Y-92000537D01*
X67737787Y-90905840D01*
X67742184Y-90825240D01*
X67767096Y-90782742D01*
X67836706Y-90769553D01*
X67972993Y-90769553D01*
X67994242Y-90745373D01*
X68004501Y-90692616D01*
X67998639Y-90639127D01*
X67972993Y-90614214D01*
X67826353Y-90598736D01*
X67797871Y-90590767D01*
X67674040Y-90516029D01*
X67596545Y-90388302D01*
X67592707Y-90377543D01*
X67555241Y-90232054D01*
X67541416Y-90149665D01*
X67509176Y-90110830D01*
X67447627Y-90098374D01*
X67389741Y-90109364D01*
X67362630Y-90136475D01*
X67362630Y-90494047D01*
X67356036Y-90571716D01*
X67301814Y-90581974D01*
X66847522Y-90581974D01*
X66808688Y-90615680D01*
X66799895Y-90673565D01*
X66810886Y-90734382D01*
X66856315Y-90769553D01*
X67323063Y-90769553D01*
X67358967Y-90784940D01*
X67362630Y-90892651D01*
X67362630Y-91837138D01*
G37*
X71500000Y-94500000D02*
X71500000Y-97500000D01*
X72500000Y-94500000D02*
X72500000Y-97500000D01*
X137887030Y-159469819D02*
X138363220Y-159469819D01*
X138363220Y-159469819D02*
X138363220Y-158469819D01*
X137553696Y-158946009D02*
X137220363Y-158946009D01*
X137077506Y-159469819D02*
X137553696Y-159469819D01*
X137553696Y-159469819D02*
X137553696Y-158469819D01*
X137553696Y-158469819D02*
X137077506Y-158469819D01*
X136648934Y-159469819D02*
X136648934Y-158469819D01*
X136648934Y-158469819D02*
X136077506Y-159469819D01*
X136077506Y-159469819D02*
X136077506Y-158469819D01*
X135601315Y-159469819D02*
X135601315Y-158469819D01*
X135125125Y-159469819D02*
X135125125Y-158469819D01*
X135125125Y-158469819D02*
X134791792Y-159184104D01*
X134791792Y-159184104D02*
X134458459Y-158469819D01*
X134458459Y-158469819D02*
X134458459Y-159469819D01*
X134029887Y-159184104D02*
X133553697Y-159184104D01*
X134125125Y-159469819D02*
X133791792Y-158469819D01*
X133791792Y-158469819D02*
X133458459Y-159469819D01*
X132648935Y-159469819D02*
X133125125Y-159469819D01*
X133125125Y-159469819D02*
X133125125Y-158469819D01*
X131553696Y-159469819D02*
X131553696Y-158469819D01*
X131553696Y-158469819D02*
X131172744Y-158469819D01*
X131172744Y-158469819D02*
X131077506Y-158517438D01*
X131077506Y-158517438D02*
X131029887Y-158565057D01*
X131029887Y-158565057D02*
X130982268Y-158660295D01*
X130982268Y-158660295D02*
X130982268Y-158803152D01*
X130982268Y-158803152D02*
X131029887Y-158898390D01*
X131029887Y-158898390D02*
X131077506Y-158946009D01*
X131077506Y-158946009D02*
X131172744Y-158993628D01*
X131172744Y-158993628D02*
X131553696Y-158993628D01*
X129982268Y-159374580D02*
X130029887Y-159422200D01*
X130029887Y-159422200D02*
X130172744Y-159469819D01*
X130172744Y-159469819D02*
X130267982Y-159469819D01*
X130267982Y-159469819D02*
X130410839Y-159422200D01*
X130410839Y-159422200D02*
X130506077Y-159326961D01*
X130506077Y-159326961D02*
X130553696Y-159231723D01*
X130553696Y-159231723D02*
X130601315Y-159041247D01*
X130601315Y-159041247D02*
X130601315Y-158898390D01*
X130601315Y-158898390D02*
X130553696Y-158707914D01*
X130553696Y-158707914D02*
X130506077Y-158612676D01*
X130506077Y-158612676D02*
X130410839Y-158517438D01*
X130410839Y-158517438D02*
X130267982Y-158469819D01*
X130267982Y-158469819D02*
X130172744Y-158469819D01*
X130172744Y-158469819D02*
X130029887Y-158517438D01*
X130029887Y-158517438D02*
X129982268Y-158565057D01*
X129220363Y-158946009D02*
X129077506Y-158993628D01*
X129077506Y-158993628D02*
X129029887Y-159041247D01*
X129029887Y-159041247D02*
X128982268Y-159136485D01*
X128982268Y-159136485D02*
X128982268Y-159279342D01*
X128982268Y-159279342D02*
X129029887Y-159374580D01*
X129029887Y-159374580D02*
X129077506Y-159422200D01*
X129077506Y-159422200D02*
X129172744Y-159469819D01*
X129172744Y-159469819D02*
X129553696Y-159469819D01*
X129553696Y-159469819D02*
X129553696Y-158469819D01*
X129553696Y-158469819D02*
X129220363Y-158469819D01*
X129220363Y-158469819D02*
X129125125Y-158517438D01*
X129125125Y-158517438D02*
X129077506Y-158565057D01*
X129077506Y-158565057D02*
X129029887Y-158660295D01*
X129029887Y-158660295D02*
X129029887Y-158755533D01*
X129029887Y-158755533D02*
X129077506Y-158850771D01*
X129077506Y-158850771D02*
X129125125Y-158898390D01*
X129125125Y-158898390D02*
X129220363Y-158946009D01*
X129220363Y-158946009D02*
X129553696Y-158946009D01*
X127791791Y-159469819D02*
X127791791Y-158469819D01*
X127791791Y-158469819D02*
X127553696Y-158469819D01*
X127553696Y-158469819D02*
X127410839Y-158517438D01*
X127410839Y-158517438D02*
X127315601Y-158612676D01*
X127315601Y-158612676D02*
X127267982Y-158707914D01*
X127267982Y-158707914D02*
X127220363Y-158898390D01*
X127220363Y-158898390D02*
X127220363Y-159041247D01*
X127220363Y-159041247D02*
X127267982Y-159231723D01*
X127267982Y-159231723D02*
X127315601Y-159326961D01*
X127315601Y-159326961D02*
X127410839Y-159422200D01*
X127410839Y-159422200D02*
X127553696Y-159469819D01*
X127553696Y-159469819D02*
X127791791Y-159469819D01*
X126791791Y-158946009D02*
X126458458Y-158946009D01*
X126315601Y-159469819D02*
X126791791Y-159469819D01*
X126791791Y-159469819D02*
X126791791Y-158469819D01*
X126791791Y-158469819D02*
X126315601Y-158469819D01*
X125934648Y-159422200D02*
X125791791Y-159469819D01*
X125791791Y-159469819D02*
X125553696Y-159469819D01*
X125553696Y-159469819D02*
X125458458Y-159422200D01*
X125458458Y-159422200D02*
X125410839Y-159374580D01*
X125410839Y-159374580D02*
X125363220Y-159279342D01*
X125363220Y-159279342D02*
X125363220Y-159184104D01*
X125363220Y-159184104D02*
X125410839Y-159088866D01*
X125410839Y-159088866D02*
X125458458Y-159041247D01*
X125458458Y-159041247D02*
X125553696Y-158993628D01*
X125553696Y-158993628D02*
X125744172Y-158946009D01*
X125744172Y-158946009D02*
X125839410Y-158898390D01*
X125839410Y-158898390D02*
X125887029Y-158850771D01*
X125887029Y-158850771D02*
X125934648Y-158755533D01*
X125934648Y-158755533D02*
X125934648Y-158660295D01*
X125934648Y-158660295D02*
X125887029Y-158565057D01*
X125887029Y-158565057D02*
X125839410Y-158517438D01*
X125839410Y-158517438D02*
X125744172Y-158469819D01*
X125744172Y-158469819D02*
X125506077Y-158469819D01*
X125506077Y-158469819D02*
X125363220Y-158517438D01*
X124934648Y-159469819D02*
X124934648Y-158469819D01*
X123934649Y-158517438D02*
X124029887Y-158469819D01*
X124029887Y-158469819D02*
X124172744Y-158469819D01*
X124172744Y-158469819D02*
X124315601Y-158517438D01*
X124315601Y-158517438D02*
X124410839Y-158612676D01*
X124410839Y-158612676D02*
X124458458Y-158707914D01*
X124458458Y-158707914D02*
X124506077Y-158898390D01*
X124506077Y-158898390D02*
X124506077Y-159041247D01*
X124506077Y-159041247D02*
X124458458Y-159231723D01*
X124458458Y-159231723D02*
X124410839Y-159326961D01*
X124410839Y-159326961D02*
X124315601Y-159422200D01*
X124315601Y-159422200D02*
X124172744Y-159469819D01*
X124172744Y-159469819D02*
X124077506Y-159469819D01*
X124077506Y-159469819D02*
X123934649Y-159422200D01*
X123934649Y-159422200D02*
X123887030Y-159374580D01*
X123887030Y-159374580D02*
X123887030Y-159041247D01*
X123887030Y-159041247D02*
X124077506Y-159041247D01*
X123458458Y-159469819D02*
X123458458Y-158469819D01*
X123458458Y-158469819D02*
X122887030Y-159469819D01*
X122887030Y-159469819D02*
X122887030Y-158469819D01*
X121458458Y-158469819D02*
X121363220Y-158469819D01*
X121363220Y-158469819D02*
X121267982Y-158517438D01*
X121267982Y-158517438D02*
X121220363Y-158565057D01*
X121220363Y-158565057D02*
X121172744Y-158660295D01*
X121172744Y-158660295D02*
X121125125Y-158850771D01*
X121125125Y-158850771D02*
X121125125Y-159088866D01*
X121125125Y-159088866D02*
X121172744Y-159279342D01*
X121172744Y-159279342D02*
X121220363Y-159374580D01*
X121220363Y-159374580D02*
X121267982Y-159422200D01*
X121267982Y-159422200D02*
X121363220Y-159469819D01*
X121363220Y-159469819D02*
X121458458Y-159469819D01*
X121458458Y-159469819D02*
X121553696Y-159422200D01*
X121553696Y-159422200D02*
X121601315Y-159374580D01*
X121601315Y-159374580D02*
X121648934Y-159279342D01*
X121648934Y-159279342D02*
X121696553Y-159088866D01*
X121696553Y-159088866D02*
X121696553Y-158850771D01*
X121696553Y-158850771D02*
X121648934Y-158660295D01*
X121648934Y-158660295D02*
X121601315Y-158565057D01*
X121601315Y-158565057D02*
X121553696Y-158517438D01*
X121553696Y-158517438D02*
X121458458Y-158469819D01*
X120220363Y-158469819D02*
X120696553Y-158469819D01*
X120696553Y-158469819D02*
X120744172Y-158946009D01*
X120744172Y-158946009D02*
X120696553Y-158898390D01*
X120696553Y-158898390D02*
X120601315Y-158850771D01*
X120601315Y-158850771D02*
X120363220Y-158850771D01*
X120363220Y-158850771D02*
X120267982Y-158898390D01*
X120267982Y-158898390D02*
X120220363Y-158946009D01*
X120220363Y-158946009D02*
X120172744Y-159041247D01*
X120172744Y-159041247D02*
X120172744Y-159279342D01*
X120172744Y-159279342D02*
X120220363Y-159374580D01*
X120220363Y-159374580D02*
X120267982Y-159422200D01*
X120267982Y-159422200D02*
X120363220Y-159469819D01*
X120363220Y-159469819D02*
X120601315Y-159469819D01*
X120601315Y-159469819D02*
X120696553Y-159422200D01*
X120696553Y-159422200D02*
X120744172Y-159374580D01*
X119744172Y-159374580D02*
X119696553Y-159422200D01*
X119696553Y-159422200D02*
X119744172Y-159469819D01*
X119744172Y-159469819D02*
X119791791Y-159422200D01*
X119791791Y-159422200D02*
X119744172Y-159374580D01*
X119744172Y-159374580D02*
X119744172Y-159469819D01*
X119315601Y-158565057D02*
X119267982Y-158517438D01*
X119267982Y-158517438D02*
X119172744Y-158469819D01*
X119172744Y-158469819D02*
X118934649Y-158469819D01*
X118934649Y-158469819D02*
X118839411Y-158517438D01*
X118839411Y-158517438D02*
X118791792Y-158565057D01*
X118791792Y-158565057D02*
X118744173Y-158660295D01*
X118744173Y-158660295D02*
X118744173Y-158755533D01*
X118744173Y-158755533D02*
X118791792Y-158898390D01*
X118791792Y-158898390D02*
X119363220Y-159469819D01*
X119363220Y-159469819D02*
X118744173Y-159469819D01*
X118125125Y-158469819D02*
X118029887Y-158469819D01*
X118029887Y-158469819D02*
X117934649Y-158517438D01*
X117934649Y-158517438D02*
X117887030Y-158565057D01*
X117887030Y-158565057D02*
X117839411Y-158660295D01*
X117839411Y-158660295D02*
X117791792Y-158850771D01*
X117791792Y-158850771D02*
X117791792Y-159088866D01*
X117791792Y-159088866D02*
X117839411Y-159279342D01*
X117839411Y-159279342D02*
X117887030Y-159374580D01*
X117887030Y-159374580D02*
X117934649Y-159422200D01*
X117934649Y-159422200D02*
X118029887Y-159469819D01*
X118029887Y-159469819D02*
X118125125Y-159469819D01*
X118125125Y-159469819D02*
X118220363Y-159422200D01*
X118220363Y-159422200D02*
X118267982Y-159374580D01*
X118267982Y-159374580D02*
X118315601Y-159279342D01*
X118315601Y-159279342D02*
X118363220Y-159088866D01*
X118363220Y-159088866D02*
X118363220Y-158850771D01*
X118363220Y-158850771D02*
X118315601Y-158660295D01*
X118315601Y-158660295D02*
X118267982Y-158565057D01*
X118267982Y-158565057D02*
X118220363Y-158517438D01*
X118220363Y-158517438D02*
X118125125Y-158469819D01*
X117410839Y-158565057D02*
X117363220Y-158517438D01*
X117363220Y-158517438D02*
X117267982Y-158469819D01*
X117267982Y-158469819D02*
X117029887Y-158469819D01*
X117029887Y-158469819D02*
X116934649Y-158517438D01*
X116934649Y-158517438D02*
X116887030Y-158565057D01*
X116887030Y-158565057D02*
X116839411Y-158660295D01*
X116839411Y-158660295D02*
X116839411Y-158755533D01*
X116839411Y-158755533D02*
X116887030Y-158898390D01*
X116887030Y-158898390D02*
X117458458Y-159469819D01*
X117458458Y-159469819D02*
X116839411Y-159469819D01*
X115982268Y-158803152D02*
X115982268Y-159469819D01*
X116220363Y-158422200D02*
X116458458Y-159136485D01*
X116458458Y-159136485D02*
X115839411Y-159136485D01*
X50530180Y-151887030D02*
X50530180Y-152363220D01*
X50530180Y-152363220D02*
X51530180Y-152363220D01*
X51053990Y-151553696D02*
X51053990Y-151220363D01*
X50530180Y-151077506D02*
X50530180Y-151553696D01*
X50530180Y-151553696D02*
X51530180Y-151553696D01*
X51530180Y-151553696D02*
X51530180Y-151077506D01*
X50530180Y-150648934D02*
X51530180Y-150648934D01*
X51530180Y-150648934D02*
X50530180Y-150077506D01*
X50530180Y-150077506D02*
X51530180Y-150077506D01*
X50530180Y-149601315D02*
X51530180Y-149601315D01*
X50530180Y-149125125D02*
X51530180Y-149125125D01*
X51530180Y-149125125D02*
X50815895Y-148791792D01*
X50815895Y-148791792D02*
X51530180Y-148458459D01*
X51530180Y-148458459D02*
X50530180Y-148458459D01*
X50815895Y-148029887D02*
X50815895Y-147553697D01*
X50530180Y-148125125D02*
X51530180Y-147791792D01*
X51530180Y-147791792D02*
X50530180Y-147458459D01*
X50530180Y-146648935D02*
X50530180Y-147125125D01*
X50530180Y-147125125D02*
X51530180Y-147125125D01*
X50530180Y-145553696D02*
X51530180Y-145553696D01*
X51530180Y-145553696D02*
X51530180Y-145172744D01*
X51530180Y-145172744D02*
X51482561Y-145077506D01*
X51482561Y-145077506D02*
X51434942Y-145029887D01*
X51434942Y-145029887D02*
X51339704Y-144982268D01*
X51339704Y-144982268D02*
X51196847Y-144982268D01*
X51196847Y-144982268D02*
X51101609Y-145029887D01*
X51101609Y-145029887D02*
X51053990Y-145077506D01*
X51053990Y-145077506D02*
X51006371Y-145172744D01*
X51006371Y-145172744D02*
X51006371Y-145553696D01*
X50625419Y-143982268D02*
X50577800Y-144029887D01*
X50577800Y-144029887D02*
X50530180Y-144172744D01*
X50530180Y-144172744D02*
X50530180Y-144267982D01*
X50530180Y-144267982D02*
X50577800Y-144410839D01*
X50577800Y-144410839D02*
X50673038Y-144506077D01*
X50673038Y-144506077D02*
X50768276Y-144553696D01*
X50768276Y-144553696D02*
X50958752Y-144601315D01*
X50958752Y-144601315D02*
X51101609Y-144601315D01*
X51101609Y-144601315D02*
X51292085Y-144553696D01*
X51292085Y-144553696D02*
X51387323Y-144506077D01*
X51387323Y-144506077D02*
X51482561Y-144410839D01*
X51482561Y-144410839D02*
X51530180Y-144267982D01*
X51530180Y-144267982D02*
X51530180Y-144172744D01*
X51530180Y-144172744D02*
X51482561Y-144029887D01*
X51482561Y-144029887D02*
X51434942Y-143982268D01*
X51053990Y-143220363D02*
X51006371Y-143077506D01*
X51006371Y-143077506D02*
X50958752Y-143029887D01*
X50958752Y-143029887D02*
X50863514Y-142982268D01*
X50863514Y-142982268D02*
X50720657Y-142982268D01*
X50720657Y-142982268D02*
X50625419Y-143029887D01*
X50625419Y-143029887D02*
X50577800Y-143077506D01*
X50577800Y-143077506D02*
X50530180Y-143172744D01*
X50530180Y-143172744D02*
X50530180Y-143553696D01*
X50530180Y-143553696D02*
X51530180Y-143553696D01*
X51530180Y-143553696D02*
X51530180Y-143220363D01*
X51530180Y-143220363D02*
X51482561Y-143125125D01*
X51482561Y-143125125D02*
X51434942Y-143077506D01*
X51434942Y-143077506D02*
X51339704Y-143029887D01*
X51339704Y-143029887D02*
X51244466Y-143029887D01*
X51244466Y-143029887D02*
X51149228Y-143077506D01*
X51149228Y-143077506D02*
X51101609Y-143125125D01*
X51101609Y-143125125D02*
X51053990Y-143220363D01*
X51053990Y-143220363D02*
X51053990Y-143553696D01*
X50530180Y-141791791D02*
X51530180Y-141791791D01*
X51530180Y-141791791D02*
X51530180Y-141553696D01*
X51530180Y-141553696D02*
X51482561Y-141410839D01*
X51482561Y-141410839D02*
X51387323Y-141315601D01*
X51387323Y-141315601D02*
X51292085Y-141267982D01*
X51292085Y-141267982D02*
X51101609Y-141220363D01*
X51101609Y-141220363D02*
X50958752Y-141220363D01*
X50958752Y-141220363D02*
X50768276Y-141267982D01*
X50768276Y-141267982D02*
X50673038Y-141315601D01*
X50673038Y-141315601D02*
X50577800Y-141410839D01*
X50577800Y-141410839D02*
X50530180Y-141553696D01*
X50530180Y-141553696D02*
X50530180Y-141791791D01*
X51053990Y-140791791D02*
X51053990Y-140458458D01*
X50530180Y-140315601D02*
X50530180Y-140791791D01*
X50530180Y-140791791D02*
X51530180Y-140791791D01*
X51530180Y-140791791D02*
X51530180Y-140315601D01*
X50577800Y-139934648D02*
X50530180Y-139791791D01*
X50530180Y-139791791D02*
X50530180Y-139553696D01*
X50530180Y-139553696D02*
X50577800Y-139458458D01*
X50577800Y-139458458D02*
X50625419Y-139410839D01*
X50625419Y-139410839D02*
X50720657Y-139363220D01*
X50720657Y-139363220D02*
X50815895Y-139363220D01*
X50815895Y-139363220D02*
X50911133Y-139410839D01*
X50911133Y-139410839D02*
X50958752Y-139458458D01*
X50958752Y-139458458D02*
X51006371Y-139553696D01*
X51006371Y-139553696D02*
X51053990Y-139744172D01*
X51053990Y-139744172D02*
X51101609Y-139839410D01*
X51101609Y-139839410D02*
X51149228Y-139887029D01*
X51149228Y-139887029D02*
X51244466Y-139934648D01*
X51244466Y-139934648D02*
X51339704Y-139934648D01*
X51339704Y-139934648D02*
X51434942Y-139887029D01*
X51434942Y-139887029D02*
X51482561Y-139839410D01*
X51482561Y-139839410D02*
X51530180Y-139744172D01*
X51530180Y-139744172D02*
X51530180Y-139506077D01*
X51530180Y-139506077D02*
X51482561Y-139363220D01*
X50530180Y-138934648D02*
X51530180Y-138934648D01*
X51482561Y-137934649D02*
X51530180Y-138029887D01*
X51530180Y-138029887D02*
X51530180Y-138172744D01*
X51530180Y-138172744D02*
X51482561Y-138315601D01*
X51482561Y-138315601D02*
X51387323Y-138410839D01*
X51387323Y-138410839D02*
X51292085Y-138458458D01*
X51292085Y-138458458D02*
X51101609Y-138506077D01*
X51101609Y-138506077D02*
X50958752Y-138506077D01*
X50958752Y-138506077D02*
X50768276Y-138458458D01*
X50768276Y-138458458D02*
X50673038Y-138410839D01*
X50673038Y-138410839D02*
X50577800Y-138315601D01*
X50577800Y-138315601D02*
X50530180Y-138172744D01*
X50530180Y-138172744D02*
X50530180Y-138077506D01*
X50530180Y-138077506D02*
X50577800Y-137934649D01*
X50577800Y-137934649D02*
X50625419Y-137887030D01*
X50625419Y-137887030D02*
X50958752Y-137887030D01*
X50958752Y-137887030D02*
X50958752Y-138077506D01*
X50530180Y-137458458D02*
X51530180Y-137458458D01*
X51530180Y-137458458D02*
X50530180Y-136887030D01*
X50530180Y-136887030D02*
X51530180Y-136887030D01*
X51530180Y-135458458D02*
X51530180Y-135363220D01*
X51530180Y-135363220D02*
X51482561Y-135267982D01*
X51482561Y-135267982D02*
X51434942Y-135220363D01*
X51434942Y-135220363D02*
X51339704Y-135172744D01*
X51339704Y-135172744D02*
X51149228Y-135125125D01*
X51149228Y-135125125D02*
X50911133Y-135125125D01*
X50911133Y-135125125D02*
X50720657Y-135172744D01*
X50720657Y-135172744D02*
X50625419Y-135220363D01*
X50625419Y-135220363D02*
X50577800Y-135267982D01*
X50577800Y-135267982D02*
X50530180Y-135363220D01*
X50530180Y-135363220D02*
X50530180Y-135458458D01*
X50530180Y-135458458D02*
X50577800Y-135553696D01*
X50577800Y-135553696D02*
X50625419Y-135601315D01*
X50625419Y-135601315D02*
X50720657Y-135648934D01*
X50720657Y-135648934D02*
X50911133Y-135696553D01*
X50911133Y-135696553D02*
X51149228Y-135696553D01*
X51149228Y-135696553D02*
X51339704Y-135648934D01*
X51339704Y-135648934D02*
X51434942Y-135601315D01*
X51434942Y-135601315D02*
X51482561Y-135553696D01*
X51482561Y-135553696D02*
X51530180Y-135458458D01*
X51530180Y-134220363D02*
X51530180Y-134696553D01*
X51530180Y-134696553D02*
X51053990Y-134744172D01*
X51053990Y-134744172D02*
X51101609Y-134696553D01*
X51101609Y-134696553D02*
X51149228Y-134601315D01*
X51149228Y-134601315D02*
X51149228Y-134363220D01*
X51149228Y-134363220D02*
X51101609Y-134267982D01*
X51101609Y-134267982D02*
X51053990Y-134220363D01*
X51053990Y-134220363D02*
X50958752Y-134172744D01*
X50958752Y-134172744D02*
X50720657Y-134172744D01*
X50720657Y-134172744D02*
X50625419Y-134220363D01*
X50625419Y-134220363D02*
X50577800Y-134267982D01*
X50577800Y-134267982D02*
X50530180Y-134363220D01*
X50530180Y-134363220D02*
X50530180Y-134601315D01*
X50530180Y-134601315D02*
X50577800Y-134696553D01*
X50577800Y-134696553D02*
X50625419Y-134744172D01*
X50625419Y-133744172D02*
X50577800Y-133696553D01*
X50577800Y-133696553D02*
X50530180Y-133744172D01*
X50530180Y-133744172D02*
X50577800Y-133791791D01*
X50577800Y-133791791D02*
X50625419Y-133744172D01*
X50625419Y-133744172D02*
X50530180Y-133744172D01*
X51434942Y-133315601D02*
X51482561Y-133267982D01*
X51482561Y-133267982D02*
X51530180Y-133172744D01*
X51530180Y-133172744D02*
X51530180Y-132934649D01*
X51530180Y-132934649D02*
X51482561Y-132839411D01*
X51482561Y-132839411D02*
X51434942Y-132791792D01*
X51434942Y-132791792D02*
X51339704Y-132744173D01*
X51339704Y-132744173D02*
X51244466Y-132744173D01*
X51244466Y-132744173D02*
X51101609Y-132791792D01*
X51101609Y-132791792D02*
X50530180Y-133363220D01*
X50530180Y-133363220D02*
X50530180Y-132744173D01*
X51530180Y-132125125D02*
X51530180Y-132029887D01*
X51530180Y-132029887D02*
X51482561Y-131934649D01*
X51482561Y-131934649D02*
X51434942Y-131887030D01*
X51434942Y-131887030D02*
X51339704Y-131839411D01*
X51339704Y-131839411D02*
X51149228Y-131791792D01*
X51149228Y-131791792D02*
X50911133Y-131791792D01*
X50911133Y-131791792D02*
X50720657Y-131839411D01*
X50720657Y-131839411D02*
X50625419Y-131887030D01*
X50625419Y-131887030D02*
X50577800Y-131934649D01*
X50577800Y-131934649D02*
X50530180Y-132029887D01*
X50530180Y-132029887D02*
X50530180Y-132125125D01*
X50530180Y-132125125D02*
X50577800Y-132220363D01*
X50577800Y-132220363D02*
X50625419Y-132267982D01*
X50625419Y-132267982D02*
X50720657Y-132315601D01*
X50720657Y-132315601D02*
X50911133Y-132363220D01*
X50911133Y-132363220D02*
X51149228Y-132363220D01*
X51149228Y-132363220D02*
X51339704Y-132315601D01*
X51339704Y-132315601D02*
X51434942Y-132267982D01*
X51434942Y-132267982D02*
X51482561Y-132220363D01*
X51482561Y-132220363D02*
X51530180Y-132125125D01*
X51434942Y-131410839D02*
X51482561Y-131363220D01*
X51482561Y-131363220D02*
X51530180Y-131267982D01*
X51530180Y-131267982D02*
X51530180Y-131029887D01*
X51530180Y-131029887D02*
X51482561Y-130934649D01*
X51482561Y-130934649D02*
X51434942Y-130887030D01*
X51434942Y-130887030D02*
X51339704Y-130839411D01*
X51339704Y-130839411D02*
X51244466Y-130839411D01*
X51244466Y-130839411D02*
X51101609Y-130887030D01*
X51101609Y-130887030D02*
X50530180Y-131458458D01*
X50530180Y-131458458D02*
X50530180Y-130839411D01*
X51196847Y-129982268D02*
X50530180Y-129982268D01*
X51577800Y-130220363D02*
X50863514Y-130458458D01*
X50863514Y-130458458D02*
X50863514Y-129839411D01*
X85942857Y-69859580D02*
X85990476Y-69907200D01*
X85990476Y-69907200D02*
X86133333Y-69954819D01*
X86133333Y-69954819D02*
X86228571Y-69954819D01*
X86228571Y-69954819D02*
X86371428Y-69907200D01*
X86371428Y-69907200D02*
X86466666Y-69811961D01*
X86466666Y-69811961D02*
X86514285Y-69716723D01*
X86514285Y-69716723D02*
X86561904Y-69526247D01*
X86561904Y-69526247D02*
X86561904Y-69383390D01*
X86561904Y-69383390D02*
X86514285Y-69192914D01*
X86514285Y-69192914D02*
X86466666Y-69097676D01*
X86466666Y-69097676D02*
X86371428Y-69002438D01*
X86371428Y-69002438D02*
X86228571Y-68954819D01*
X86228571Y-68954819D02*
X86133333Y-68954819D01*
X86133333Y-68954819D02*
X85990476Y-69002438D01*
X85990476Y-69002438D02*
X85942857Y-69050057D01*
X84990476Y-69954819D02*
X85561904Y-69954819D01*
X85276190Y-69954819D02*
X85276190Y-68954819D01*
X85276190Y-68954819D02*
X85371428Y-69097676D01*
X85371428Y-69097676D02*
X85466666Y-69192914D01*
X85466666Y-69192914D02*
X85561904Y-69240533D01*
X84085714Y-68954819D02*
X84561904Y-68954819D01*
X84561904Y-68954819D02*
X84609523Y-69431009D01*
X84609523Y-69431009D02*
X84561904Y-69383390D01*
X84561904Y-69383390D02*
X84466666Y-69335771D01*
X84466666Y-69335771D02*
X84228571Y-69335771D01*
X84228571Y-69335771D02*
X84133333Y-69383390D01*
X84133333Y-69383390D02*
X84085714Y-69431009D01*
X84085714Y-69431009D02*
X84038095Y-69526247D01*
X84038095Y-69526247D02*
X84038095Y-69764342D01*
X84038095Y-69764342D02*
X84085714Y-69859580D01*
X84085714Y-69859580D02*
X84133333Y-69907200D01*
X84133333Y-69907200D02*
X84228571Y-69954819D01*
X84228571Y-69954819D02*
X84466666Y-69954819D01*
X84466666Y-69954819D02*
X84561904Y-69907200D01*
X84561904Y-69907200D02*
X84609523Y-69859580D01*
X148761904Y-142954819D02*
X148761904Y-141954819D01*
X148761904Y-142431009D02*
X148190476Y-142431009D01*
X148190476Y-142954819D02*
X148190476Y-141954819D01*
X147761904Y-142050057D02*
X147714285Y-142002438D01*
X147714285Y-142002438D02*
X147619047Y-141954819D01*
X147619047Y-141954819D02*
X147380952Y-141954819D01*
X147380952Y-141954819D02*
X147285714Y-142002438D01*
X147285714Y-142002438D02*
X147238095Y-142050057D01*
X147238095Y-142050057D02*
X147190476Y-142145295D01*
X147190476Y-142145295D02*
X147190476Y-142240533D01*
X147190476Y-142240533D02*
X147238095Y-142383390D01*
X147238095Y-142383390D02*
X147809523Y-142954819D01*
X147809523Y-142954819D02*
X147190476Y-142954819D01*
X98066666Y-65359580D02*
X98114285Y-65407200D01*
X98114285Y-65407200D02*
X98257142Y-65454819D01*
X98257142Y-65454819D02*
X98352380Y-65454819D01*
X98352380Y-65454819D02*
X98495237Y-65407200D01*
X98495237Y-65407200D02*
X98590475Y-65311961D01*
X98590475Y-65311961D02*
X98638094Y-65216723D01*
X98638094Y-65216723D02*
X98685713Y-65026247D01*
X98685713Y-65026247D02*
X98685713Y-64883390D01*
X98685713Y-64883390D02*
X98638094Y-64692914D01*
X98638094Y-64692914D02*
X98590475Y-64597676D01*
X98590475Y-64597676D02*
X98495237Y-64502438D01*
X98495237Y-64502438D02*
X98352380Y-64454819D01*
X98352380Y-64454819D02*
X98257142Y-64454819D01*
X98257142Y-64454819D02*
X98114285Y-64502438D01*
X98114285Y-64502438D02*
X98066666Y-64550057D01*
X97495237Y-64883390D02*
X97590475Y-64835771D01*
X97590475Y-64835771D02*
X97638094Y-64788152D01*
X97638094Y-64788152D02*
X97685713Y-64692914D01*
X97685713Y-64692914D02*
X97685713Y-64645295D01*
X97685713Y-64645295D02*
X97638094Y-64550057D01*
X97638094Y-64550057D02*
X97590475Y-64502438D01*
X97590475Y-64502438D02*
X97495237Y-64454819D01*
X97495237Y-64454819D02*
X97304761Y-64454819D01*
X97304761Y-64454819D02*
X97209523Y-64502438D01*
X97209523Y-64502438D02*
X97161904Y-64550057D01*
X97161904Y-64550057D02*
X97114285Y-64645295D01*
X97114285Y-64645295D02*
X97114285Y-64692914D01*
X97114285Y-64692914D02*
X97161904Y-64788152D01*
X97161904Y-64788152D02*
X97209523Y-64835771D01*
X97209523Y-64835771D02*
X97304761Y-64883390D01*
X97304761Y-64883390D02*
X97495237Y-64883390D01*
X97495237Y-64883390D02*
X97590475Y-64931009D01*
X97590475Y-64931009D02*
X97638094Y-64978628D01*
X97638094Y-64978628D02*
X97685713Y-65073866D01*
X97685713Y-65073866D02*
X97685713Y-65264342D01*
X97685713Y-65264342D02*
X97638094Y-65359580D01*
X97638094Y-65359580D02*
X97590475Y-65407200D01*
X97590475Y-65407200D02*
X97495237Y-65454819D01*
X97495237Y-65454819D02*
X97304761Y-65454819D01*
X97304761Y-65454819D02*
X97209523Y-65407200D01*
X97209523Y-65407200D02*
X97161904Y-65359580D01*
X97161904Y-65359580D02*
X97114285Y-65264342D01*
X97114285Y-65264342D02*
X97114285Y-65073866D01*
X97114285Y-65073866D02*
X97161904Y-64978628D01*
X97161904Y-64978628D02*
X97209523Y-64931009D01*
X97209523Y-64931009D02*
X97304761Y-64883390D01*
X104761904Y-73124819D02*
X104761904Y-72124819D01*
X104761904Y-72601009D02*
X104190476Y-72601009D01*
X104190476Y-73124819D02*
X104190476Y-72124819D01*
X103809523Y-72124819D02*
X103190476Y-72124819D01*
X103190476Y-72124819D02*
X103523809Y-72505771D01*
X103523809Y-72505771D02*
X103380952Y-72505771D01*
X103380952Y-72505771D02*
X103285714Y-72553390D01*
X103285714Y-72553390D02*
X103238095Y-72601009D01*
X103238095Y-72601009D02*
X103190476Y-72696247D01*
X103190476Y-72696247D02*
X103190476Y-72934342D01*
X103190476Y-72934342D02*
X103238095Y-73029580D01*
X103238095Y-73029580D02*
X103285714Y-73077200D01*
X103285714Y-73077200D02*
X103380952Y-73124819D01*
X103380952Y-73124819D02*
X103666666Y-73124819D01*
X103666666Y-73124819D02*
X103761904Y-73077200D01*
X103761904Y-73077200D02*
X103809523Y-73029580D01*
X58066666Y-57759580D02*
X58114285Y-57807200D01*
X58114285Y-57807200D02*
X58257142Y-57854819D01*
X58257142Y-57854819D02*
X58352380Y-57854819D01*
X58352380Y-57854819D02*
X58495237Y-57807200D01*
X58495237Y-57807200D02*
X58590475Y-57711961D01*
X58590475Y-57711961D02*
X58638094Y-57616723D01*
X58638094Y-57616723D02*
X58685713Y-57426247D01*
X58685713Y-57426247D02*
X58685713Y-57283390D01*
X58685713Y-57283390D02*
X58638094Y-57092914D01*
X58638094Y-57092914D02*
X58590475Y-56997676D01*
X58590475Y-56997676D02*
X58495237Y-56902438D01*
X58495237Y-56902438D02*
X58352380Y-56854819D01*
X58352380Y-56854819D02*
X58257142Y-56854819D01*
X58257142Y-56854819D02*
X58114285Y-56902438D01*
X58114285Y-56902438D02*
X58066666Y-56950057D01*
X57161904Y-56854819D02*
X57638094Y-56854819D01*
X57638094Y-56854819D02*
X57685713Y-57331009D01*
X57685713Y-57331009D02*
X57638094Y-57283390D01*
X57638094Y-57283390D02*
X57542856Y-57235771D01*
X57542856Y-57235771D02*
X57304761Y-57235771D01*
X57304761Y-57235771D02*
X57209523Y-57283390D01*
X57209523Y-57283390D02*
X57161904Y-57331009D01*
X57161904Y-57331009D02*
X57114285Y-57426247D01*
X57114285Y-57426247D02*
X57114285Y-57664342D01*
X57114285Y-57664342D02*
X57161904Y-57759580D01*
X57161904Y-57759580D02*
X57209523Y-57807200D01*
X57209523Y-57807200D02*
X57304761Y-57854819D01*
X57304761Y-57854819D02*
X57542856Y-57854819D01*
X57542856Y-57854819D02*
X57638094Y-57807200D01*
X57638094Y-57807200D02*
X57685713Y-57759580D01*
X58466666Y-65259580D02*
X58514285Y-65307200D01*
X58514285Y-65307200D02*
X58657142Y-65354819D01*
X58657142Y-65354819D02*
X58752380Y-65354819D01*
X58752380Y-65354819D02*
X58895237Y-65307200D01*
X58895237Y-65307200D02*
X58990475Y-65211961D01*
X58990475Y-65211961D02*
X59038094Y-65116723D01*
X59038094Y-65116723D02*
X59085713Y-64926247D01*
X59085713Y-64926247D02*
X59085713Y-64783390D01*
X59085713Y-64783390D02*
X59038094Y-64592914D01*
X59038094Y-64592914D02*
X58990475Y-64497676D01*
X58990475Y-64497676D02*
X58895237Y-64402438D01*
X58895237Y-64402438D02*
X58752380Y-64354819D01*
X58752380Y-64354819D02*
X58657142Y-64354819D01*
X58657142Y-64354819D02*
X58514285Y-64402438D01*
X58514285Y-64402438D02*
X58466666Y-64450057D01*
X58133332Y-64354819D02*
X57466666Y-64354819D01*
X57466666Y-64354819D02*
X57895237Y-65354819D01*
X82034819Y-55396666D02*
X82749104Y-55396666D01*
X82749104Y-55396666D02*
X82891961Y-55349047D01*
X82891961Y-55349047D02*
X82987200Y-55253809D01*
X82987200Y-55253809D02*
X83034819Y-55110952D01*
X83034819Y-55110952D02*
X83034819Y-55015714D01*
X83034819Y-56396666D02*
X83034819Y-55825238D01*
X83034819Y-56110952D02*
X82034819Y-56110952D01*
X82034819Y-56110952D02*
X82177676Y-56015714D01*
X82177676Y-56015714D02*
X82272914Y-55920476D01*
X82272914Y-55920476D02*
X82320533Y-55825238D01*
D11*
X87737866Y-59743734D02*
X87737866Y-59134211D01*
X87433104Y-58334211D02*
X87433104Y-58791354D01*
X87433104Y-58562782D02*
X88233104Y-58562782D01*
X88233104Y-58562782D02*
X88118819Y-58638973D01*
X88118819Y-58638973D02*
X88042628Y-58715163D01*
X88042628Y-58715163D02*
X88004533Y-58791354D01*
X88156914Y-58029449D02*
X88195009Y-57991353D01*
X88195009Y-57991353D02*
X88233104Y-57915163D01*
X88233104Y-57915163D02*
X88233104Y-57724687D01*
X88233104Y-57724687D02*
X88195009Y-57648496D01*
X88195009Y-57648496D02*
X88156914Y-57610401D01*
X88156914Y-57610401D02*
X88080723Y-57572306D01*
X88080723Y-57572306D02*
X88004533Y-57572306D01*
X88004533Y-57572306D02*
X87890247Y-57610401D01*
X87890247Y-57610401D02*
X87433104Y-58067544D01*
X87433104Y-58067544D02*
X87433104Y-57572306D01*
X88233104Y-57343734D02*
X87433104Y-57077067D01*
X87433104Y-57077067D02*
X88233104Y-56810401D01*
X87471200Y-55972306D02*
X87433104Y-55858020D01*
X87433104Y-55858020D02*
X87433104Y-55667544D01*
X87433104Y-55667544D02*
X87471200Y-55591353D01*
X87471200Y-55591353D02*
X87509295Y-55553258D01*
X87509295Y-55553258D02*
X87585485Y-55515163D01*
X87585485Y-55515163D02*
X87661676Y-55515163D01*
X87661676Y-55515163D02*
X87737866Y-55553258D01*
X87737866Y-55553258D02*
X87775961Y-55591353D01*
X87775961Y-55591353D02*
X87814057Y-55667544D01*
X87814057Y-55667544D02*
X87852152Y-55819925D01*
X87852152Y-55819925D02*
X87890247Y-55896115D01*
X87890247Y-55896115D02*
X87928342Y-55934210D01*
X87928342Y-55934210D02*
X88004533Y-55972306D01*
X88004533Y-55972306D02*
X88080723Y-55972306D01*
X88080723Y-55972306D02*
X88156914Y-55934210D01*
X88156914Y-55934210D02*
X88195009Y-55896115D01*
X88195009Y-55896115D02*
X88233104Y-55819925D01*
X88233104Y-55819925D02*
X88233104Y-55629448D01*
X88233104Y-55629448D02*
X88195009Y-55515163D01*
X88233104Y-55286591D02*
X88233104Y-54829448D01*
X87433104Y-55058020D02*
X88233104Y-55058020D01*
X87433104Y-54105638D02*
X87814057Y-54372305D01*
X87433104Y-54562781D02*
X88233104Y-54562781D01*
X88233104Y-54562781D02*
X88233104Y-54258019D01*
X88233104Y-54258019D02*
X88195009Y-54181829D01*
X88195009Y-54181829D02*
X88156914Y-54143734D01*
X88156914Y-54143734D02*
X88080723Y-54105638D01*
X88080723Y-54105638D02*
X87966438Y-54105638D01*
X87966438Y-54105638D02*
X87890247Y-54143734D01*
X87890247Y-54143734D02*
X87852152Y-54181829D01*
X87852152Y-54181829D02*
X87814057Y-54258019D01*
X87814057Y-54258019D02*
X87814057Y-54562781D01*
X87433104Y-53762781D02*
X88233104Y-53762781D01*
X87433104Y-53381829D02*
X88233104Y-53381829D01*
X88233104Y-53381829D02*
X88233104Y-53077067D01*
X88233104Y-53077067D02*
X88195009Y-53000877D01*
X88195009Y-53000877D02*
X88156914Y-52962782D01*
X88156914Y-52962782D02*
X88080723Y-52924686D01*
X88080723Y-52924686D02*
X87966438Y-52924686D01*
X87966438Y-52924686D02*
X87890247Y-52962782D01*
X87890247Y-52962782D02*
X87852152Y-53000877D01*
X87852152Y-53000877D02*
X87814057Y-53077067D01*
X87814057Y-53077067D02*
X87814057Y-53381829D01*
X87852152Y-52581829D02*
X87852152Y-52315163D01*
X87433104Y-52200877D02*
X87433104Y-52581829D01*
X87433104Y-52581829D02*
X88233104Y-52581829D01*
X88233104Y-52581829D02*
X88233104Y-52200877D01*
D10*
X98866666Y-58659580D02*
X98914285Y-58707200D01*
X98914285Y-58707200D02*
X99057142Y-58754819D01*
X99057142Y-58754819D02*
X99152380Y-58754819D01*
X99152380Y-58754819D02*
X99295237Y-58707200D01*
X99295237Y-58707200D02*
X99390475Y-58611961D01*
X99390475Y-58611961D02*
X99438094Y-58516723D01*
X99438094Y-58516723D02*
X99485713Y-58326247D01*
X99485713Y-58326247D02*
X99485713Y-58183390D01*
X99485713Y-58183390D02*
X99438094Y-57992914D01*
X99438094Y-57992914D02*
X99390475Y-57897676D01*
X99390475Y-57897676D02*
X99295237Y-57802438D01*
X99295237Y-57802438D02*
X99152380Y-57754819D01*
X99152380Y-57754819D02*
X99057142Y-57754819D01*
X99057142Y-57754819D02*
X98914285Y-57802438D01*
X98914285Y-57802438D02*
X98866666Y-57850057D01*
X98009523Y-57754819D02*
X98199999Y-57754819D01*
X98199999Y-57754819D02*
X98295237Y-57802438D01*
X98295237Y-57802438D02*
X98342856Y-57850057D01*
X98342856Y-57850057D02*
X98438094Y-57992914D01*
X98438094Y-57992914D02*
X98485713Y-58183390D01*
X98485713Y-58183390D02*
X98485713Y-58564342D01*
X98485713Y-58564342D02*
X98438094Y-58659580D01*
X98438094Y-58659580D02*
X98390475Y-58707200D01*
X98390475Y-58707200D02*
X98295237Y-58754819D01*
X98295237Y-58754819D02*
X98104761Y-58754819D01*
X98104761Y-58754819D02*
X98009523Y-58707200D01*
X98009523Y-58707200D02*
X97961904Y-58659580D01*
X97961904Y-58659580D02*
X97914285Y-58564342D01*
X97914285Y-58564342D02*
X97914285Y-58326247D01*
X97914285Y-58326247D02*
X97961904Y-58231009D01*
X97961904Y-58231009D02*
X98009523Y-58183390D01*
X98009523Y-58183390D02*
X98104761Y-58135771D01*
X98104761Y-58135771D02*
X98295237Y-58135771D01*
X98295237Y-58135771D02*
X98390475Y-58183390D01*
X98390475Y-58183390D02*
X98438094Y-58231009D01*
X98438094Y-58231009D02*
X98485713Y-58326247D01*
X148761904Y-82954819D02*
X148761904Y-81954819D01*
X148761904Y-82431009D02*
X148190476Y-82431009D01*
X148190476Y-82954819D02*
X148190476Y-81954819D01*
X147238095Y-81954819D02*
X147714285Y-81954819D01*
X147714285Y-81954819D02*
X147761904Y-82431009D01*
X147761904Y-82431009D02*
X147714285Y-82383390D01*
X147714285Y-82383390D02*
X147619047Y-82335771D01*
X147619047Y-82335771D02*
X147380952Y-82335771D01*
X147380952Y-82335771D02*
X147285714Y-82383390D01*
X147285714Y-82383390D02*
X147238095Y-82431009D01*
X147238095Y-82431009D02*
X147190476Y-82526247D01*
X147190476Y-82526247D02*
X147190476Y-82764342D01*
X147190476Y-82764342D02*
X147238095Y-82859580D01*
X147238095Y-82859580D02*
X147285714Y-82907200D01*
X147285714Y-82907200D02*
X147380952Y-82954819D01*
X147380952Y-82954819D02*
X147619047Y-82954819D01*
X147619047Y-82954819D02*
X147714285Y-82907200D01*
X147714285Y-82907200D02*
X147761904Y-82859580D01*
X91642857Y-86259580D02*
X91690476Y-86307200D01*
X91690476Y-86307200D02*
X91833333Y-86354819D01*
X91833333Y-86354819D02*
X91928571Y-86354819D01*
X91928571Y-86354819D02*
X92071428Y-86307200D01*
X92071428Y-86307200D02*
X92166666Y-86211961D01*
X92166666Y-86211961D02*
X92214285Y-86116723D01*
X92214285Y-86116723D02*
X92261904Y-85926247D01*
X92261904Y-85926247D02*
X92261904Y-85783390D01*
X92261904Y-85783390D02*
X92214285Y-85592914D01*
X92214285Y-85592914D02*
X92166666Y-85497676D01*
X92166666Y-85497676D02*
X92071428Y-85402438D01*
X92071428Y-85402438D02*
X91928571Y-85354819D01*
X91928571Y-85354819D02*
X91833333Y-85354819D01*
X91833333Y-85354819D02*
X91690476Y-85402438D01*
X91690476Y-85402438D02*
X91642857Y-85450057D01*
X90690476Y-86354819D02*
X91261904Y-86354819D01*
X90976190Y-86354819D02*
X90976190Y-85354819D01*
X90976190Y-85354819D02*
X91071428Y-85497676D01*
X91071428Y-85497676D02*
X91166666Y-85592914D01*
X91166666Y-85592914D02*
X91261904Y-85640533D01*
X89833333Y-85688152D02*
X89833333Y-86354819D01*
X90071428Y-85307200D02*
X90309523Y-86021485D01*
X90309523Y-86021485D02*
X89690476Y-86021485D01*
D12*
G36*
X81126691Y-157122100D02*
G01*
X81097058Y-157151733D01*
X81067424Y-157122100D01*
X81097058Y-157092466D01*
X81126691Y-157122100D01*
G37*
G36*
X81225469Y-157290022D02*
G01*
X81234741Y-157307849D01*
X81185958Y-157329533D01*
X81154582Y-157325256D01*
X81146447Y-157290022D01*
X81155133Y-157282929D01*
X81225469Y-157290022D01*
G37*
G36*
X74133225Y-158096592D02*
G01*
X74133225Y-159166799D01*
X73865158Y-159166799D01*
X73597090Y-159166799D01*
X73613274Y-158114815D01*
X73629458Y-157062833D01*
X73881342Y-157044609D01*
X74133225Y-157026384D01*
X74133225Y-158096592D01*
G37*
G36*
X82042445Y-157095086D02*
G01*
X82073569Y-157149823D01*
X82035447Y-157230756D01*
X82020662Y-157245229D01*
X81983061Y-157261906D01*
X81976180Y-157181366D01*
X81981711Y-157140611D01*
X82025569Y-157092466D01*
X82042445Y-157095086D01*
G37*
G36*
X82382554Y-157099153D02*
G01*
X82430558Y-157151733D01*
X82420528Y-157178998D01*
X82341658Y-157211000D01*
X82300761Y-157204313D01*
X82252758Y-157151733D01*
X82262787Y-157124469D01*
X82341658Y-157092466D01*
X82382554Y-157099153D01*
G37*
G36*
X82429650Y-157344350D02*
G01*
X82415032Y-157399805D01*
X82331780Y-157448066D01*
X82286125Y-157440583D01*
X82286640Y-157403616D01*
X82299549Y-157392362D01*
X82384511Y-157299900D01*
X82410642Y-157283722D01*
X82429650Y-157344350D01*
G37*
G36*
X80748426Y-157092476D02*
G01*
X80764441Y-157145315D01*
X80771091Y-157270266D01*
X80771088Y-157272353D01*
X80756506Y-157396525D01*
X80722089Y-157448066D01*
X80720756Y-157448000D01*
X80694943Y-157394217D01*
X80699182Y-157270266D01*
X80699599Y-157267447D01*
X80724597Y-157143768D01*
X80748185Y-157092466D01*
X80748426Y-157092476D01*
G37*
G36*
X80988136Y-157182512D02*
G01*
X81007154Y-157202080D01*
X81052503Y-157277110D01*
X81006346Y-157330653D01*
X80990053Y-157343891D01*
X81016175Y-157378823D01*
X81159717Y-157404211D01*
X81393391Y-157428141D01*
X81141508Y-157438103D01*
X81056487Y-157440777D01*
X80941761Y-157430561D01*
X80897152Y-157379836D01*
X80889624Y-157266033D01*
X80893756Y-157154370D01*
X80920032Y-157124913D01*
X80988136Y-157182512D01*
G37*
G36*
X81492977Y-157922664D02*
G01*
X81608601Y-157937798D01*
X81652914Y-157996821D01*
X81660091Y-158129632D01*
X81659561Y-158190841D01*
X81642264Y-158292011D01*
X81574810Y-158330786D01*
X81423024Y-158337065D01*
X81353071Y-158336602D01*
X81237448Y-158321467D01*
X81193135Y-158262445D01*
X81185958Y-158129632D01*
X81186487Y-158068425D01*
X81203784Y-157967254D01*
X81271239Y-157928480D01*
X81423024Y-157922200D01*
X81492977Y-157922664D01*
G37*
G36*
X79526491Y-158096592D02*
G01*
X79526491Y-159166799D01*
X78722636Y-159166799D01*
X77918781Y-159166799D01*
X77937353Y-158974182D01*
X77955924Y-158781565D01*
X78420860Y-158764155D01*
X78469505Y-158762654D01*
X78692608Y-158764212D01*
X78865544Y-158778717D01*
X78954260Y-158803647D01*
X78977868Y-158801908D01*
X78998836Y-158730990D01*
X79012704Y-158574656D01*
X79020368Y-158321894D01*
X79022724Y-157961692D01*
X79022724Y-157062833D01*
X79274608Y-157044609D01*
X79526491Y-157026384D01*
X79526491Y-158096592D01*
G37*
G36*
X81837891Y-157195384D02*
G01*
X81803901Y-157243876D01*
X81674908Y-157241407D01*
X81667978Y-157240105D01*
X81582398Y-157230443D01*
X81592714Y-157247453D01*
X81643849Y-157287376D01*
X81592714Y-157341347D01*
X81579119Y-157351540D01*
X81573164Y-157379861D01*
X81674908Y-157372025D01*
X81787799Y-157368292D01*
X81837891Y-157397018D01*
X81837879Y-157397624D01*
X81784964Y-157433270D01*
X81660091Y-157448066D01*
X81657879Y-157448062D01*
X81533792Y-157430413D01*
X81482291Y-157388800D01*
X81474631Y-157363859D01*
X81400303Y-157329533D01*
X81346945Y-157307429D01*
X81287381Y-157211239D01*
X81281193Y-157181366D01*
X81719358Y-157181366D01*
X81748991Y-157211000D01*
X81778624Y-157181366D01*
X81748991Y-157151733D01*
X81719358Y-157181366D01*
X81281193Y-157181366D01*
X81279090Y-157171214D01*
X81294535Y-157120998D01*
X81375063Y-157102716D01*
X81547169Y-157105594D01*
X81608302Y-157109229D01*
X81780209Y-157139695D01*
X81823372Y-157181366D01*
X81837891Y-157195384D01*
G37*
G36*
X77745660Y-158101636D02*
G01*
X77751216Y-159158945D01*
X76949754Y-159162939D01*
X76148291Y-159166934D01*
X76148291Y-158959433D01*
X76148291Y-158751932D01*
X76618927Y-158751932D01*
X76677171Y-158752390D01*
X76893554Y-158762721D01*
X77053821Y-158783879D01*
X77126788Y-158812166D01*
X77163133Y-158851507D01*
X77218715Y-158833594D01*
X77258895Y-158724387D01*
X77274358Y-158541001D01*
X77274358Y-158277799D01*
X76770591Y-158277799D01*
X76266824Y-158277799D01*
X76266824Y-158070366D01*
X77215091Y-158070366D01*
X77244724Y-158099999D01*
X77274358Y-158070366D01*
X77244724Y-158040733D01*
X77215091Y-158070366D01*
X76266824Y-158070366D01*
X76266824Y-157862933D01*
X76774346Y-157862933D01*
X77281868Y-157862933D01*
X77263296Y-157670316D01*
X77244724Y-157477700D01*
X76740958Y-157469285D01*
X76237191Y-157460871D01*
X76218821Y-157247441D01*
X76200450Y-157034011D01*
X76970277Y-157039169D01*
X77740103Y-157044328D01*
X77745495Y-158070366D01*
X77745660Y-158101636D01*
G37*
G36*
X75782565Y-157044719D02*
G01*
X76000124Y-157062833D01*
X76018140Y-158114815D01*
X76036156Y-159166799D01*
X75758792Y-159166799D01*
X75481428Y-159166799D01*
X75513984Y-158573442D01*
X75521589Y-158397162D01*
X75523832Y-158188467D01*
X75516469Y-158051216D01*
X75500077Y-158008801D01*
X75463696Y-158052938D01*
X75376956Y-158181553D01*
X75256533Y-158371972D01*
X75116664Y-158602157D01*
X75003363Y-158791103D01*
X74888350Y-158973476D01*
X74802922Y-159084561D01*
X74729203Y-159142029D01*
X74649311Y-159163552D01*
X74545369Y-159166799D01*
X74311025Y-159166799D01*
X74311025Y-158103713D01*
X74311025Y-157040629D01*
X74548092Y-157043901D01*
X74785158Y-157047173D01*
X74785158Y-157636351D01*
X74787426Y-157808316D01*
X74797852Y-158016401D01*
X74814811Y-158152761D01*
X74836163Y-158194005D01*
X74874654Y-158148111D01*
X74963385Y-158017731D01*
X75085324Y-157825835D01*
X75226087Y-157594543D01*
X75343847Y-157398161D01*
X75457520Y-157217955D01*
X75540978Y-157109551D01*
X75611471Y-157055907D01*
X75686250Y-157039978D01*
X75782565Y-157044719D01*
G37*
G36*
X68914641Y-157036891D02*
G01*
X69137274Y-157064152D01*
X69262231Y-157124596D01*
X69301583Y-157226042D01*
X69267403Y-157376313D01*
X69249859Y-157417436D01*
X69206679Y-157468758D01*
X69125917Y-157495633D01*
X68980627Y-157504530D01*
X68743859Y-157501910D01*
X68543055Y-157494888D01*
X68373697Y-157477457D01*
X68282240Y-157446064D01*
X68245919Y-157395864D01*
X68239908Y-157398583D01*
X68231159Y-157490084D01*
X68223382Y-157671273D01*
X68217249Y-157924808D01*
X68213434Y-158233349D01*
X68206558Y-159166799D01*
X67969492Y-159166799D01*
X67920235Y-159166410D01*
X67786009Y-159150055D01*
X67729295Y-159089957D01*
X67717608Y-158959365D01*
X67717739Y-158926562D01*
X67718645Y-158785600D01*
X67720272Y-158560933D01*
X67722452Y-158275399D01*
X67725017Y-157951833D01*
X67732425Y-157033200D01*
X67895408Y-157034107D01*
X67969384Y-157037550D01*
X68132480Y-157088583D01*
X68222626Y-157211000D01*
X68248677Y-157245016D01*
X68261147Y-157166550D01*
X68265132Y-157120750D01*
X68290929Y-157072210D01*
X68362054Y-157045988D01*
X68502903Y-157035260D01*
X68737873Y-157033200D01*
X68914641Y-157036891D01*
G37*
G36*
X82271354Y-157622340D02*
G01*
X82253119Y-157684910D01*
X82220012Y-157719915D01*
X82273592Y-157762456D01*
X82322314Y-157770200D01*
X82392417Y-157726254D01*
X82392766Y-157725422D01*
X82407175Y-157744435D01*
X82417567Y-157857513D01*
X82421713Y-158040733D01*
X82421717Y-158045914D01*
X82416123Y-158226477D01*
X82401067Y-158322291D01*
X82379151Y-158316503D01*
X82368582Y-158290772D01*
X82325816Y-158240591D01*
X82261663Y-158296702D01*
X82248068Y-158313746D01*
X82226324Y-158381178D01*
X82308904Y-158424975D01*
X82351402Y-158442729D01*
X82401713Y-158499428D01*
X82424930Y-158613422D01*
X82430558Y-158815193D01*
X82430558Y-159166799D01*
X82193491Y-159166799D01*
X81956424Y-159166799D01*
X81956424Y-158248165D01*
X81956979Y-158062810D01*
X81960348Y-157772231D01*
X81964825Y-157596233D01*
X82015691Y-157596233D01*
X82022378Y-157637129D01*
X82074958Y-157685133D01*
X82102222Y-157675104D01*
X82134224Y-157596233D01*
X82127538Y-157555336D01*
X82074958Y-157507333D01*
X82047693Y-157517363D01*
X82015691Y-157596233D01*
X81964825Y-157596233D01*
X81966262Y-157539724D01*
X81974132Y-157385439D01*
X81983364Y-157329533D01*
X81989755Y-157331579D01*
X82058466Y-157384203D01*
X82166494Y-157485724D01*
X82191011Y-157510922D01*
X82252529Y-157596233D01*
X82271354Y-157622340D01*
G37*
G36*
X70722263Y-158494565D02*
G01*
X70801709Y-158755028D01*
X70854444Y-158947342D01*
X70873558Y-159049887D01*
X70859960Y-159117073D01*
X70790706Y-159156878D01*
X70634632Y-159166799D01*
X70593617Y-159165854D01*
X70442279Y-159141606D01*
X70369690Y-159092715D01*
X70312282Y-158929469D01*
X70255610Y-158801254D01*
X70190865Y-158743422D01*
X70088823Y-158733671D01*
X69920266Y-158749698D01*
X69778171Y-158766501D01*
X69657118Y-158798848D01*
X69594864Y-158860935D01*
X69556721Y-158974182D01*
X69529866Y-159065024D01*
X69481037Y-159134614D01*
X69384977Y-159162015D01*
X69206056Y-159166799D01*
X69120142Y-159166102D01*
X68986304Y-159155461D01*
X68936476Y-159124352D01*
X68946393Y-159063082D01*
X68962034Y-159021383D01*
X69014801Y-158875055D01*
X69094284Y-158651457D01*
X69192795Y-158372246D01*
X69225619Y-158278675D01*
X69762569Y-158278675D01*
X69794434Y-158325421D01*
X69918951Y-158337065D01*
X69963586Y-158337187D01*
X70055884Y-158330766D01*
X70092195Y-158292453D01*
X70082549Y-158194321D01*
X70036974Y-158008447D01*
X69996353Y-157873884D01*
X69942486Y-157786270D01*
X69892861Y-157816726D01*
X69848197Y-157965417D01*
X69817259Y-158096105D01*
X69774935Y-158233349D01*
X69762569Y-158278675D01*
X69225619Y-158278675D01*
X69302651Y-158059084D01*
X69371498Y-157863416D01*
X69474467Y-157575216D01*
X69561291Y-157337589D01*
X69624446Y-157171022D01*
X69656408Y-157096001D01*
X69675387Y-157079698D01*
X69787438Y-157046435D01*
X69954164Y-157033200D01*
X69970027Y-157033204D01*
X70112479Y-157039170D01*
X70197924Y-157074916D01*
X70259018Y-157167592D01*
X70328418Y-157344350D01*
X70392761Y-157520478D01*
X70510879Y-157855671D01*
X70623017Y-158187573D01*
X70656923Y-158292453D01*
X70722263Y-158494565D01*
G37*
G36*
X73479094Y-157828515D02*
G01*
X73480482Y-158236757D01*
X73481292Y-159173614D01*
X73233859Y-159155390D01*
X72986426Y-159137165D01*
X72997050Y-158588949D01*
X72998154Y-158471411D01*
X72992143Y-158247246D01*
X72975930Y-158096137D01*
X72951400Y-158040733D01*
X72929689Y-158054513D01*
X72852078Y-158147318D01*
X72740418Y-158308327D01*
X72610989Y-158514865D01*
X72575242Y-158573593D01*
X72427540Y-158794731D01*
X72307945Y-158938021D01*
X72228138Y-158988999D01*
X72213724Y-158986142D01*
X72123835Y-158911460D01*
X71996626Y-158745129D01*
X71842274Y-158500049D01*
X71555125Y-158011100D01*
X71538162Y-158588949D01*
X71521200Y-159166799D01*
X71256646Y-159166799D01*
X70992092Y-159166799D01*
X70992092Y-158285207D01*
X70992455Y-158161237D01*
X70996699Y-157840957D01*
X71004960Y-157558638D01*
X71016293Y-157341137D01*
X71029754Y-157215309D01*
X71066186Y-157090533D01*
X71134647Y-157043168D01*
X71277458Y-157044917D01*
X71325387Y-157050123D01*
X71424934Y-157077855D01*
X71511956Y-157143841D01*
X71609825Y-157269862D01*
X71741918Y-157477700D01*
X71763319Y-157512690D01*
X71898043Y-157736741D01*
X72017452Y-157941048D01*
X72097857Y-158085183D01*
X72114047Y-158115093D01*
X72186308Y-158229939D01*
X72232852Y-158275017D01*
X72273606Y-158226964D01*
X72361237Y-158096301D01*
X72482634Y-157903127D01*
X72624834Y-157667534D01*
X72632011Y-157655500D01*
X73125692Y-157655500D01*
X73155325Y-157685133D01*
X73184958Y-157655500D01*
X73155325Y-157625866D01*
X73125692Y-157655500D01*
X72632011Y-157655500D01*
X72723941Y-157501357D01*
X72851202Y-157296867D01*
X72945647Y-157166763D01*
X73023564Y-157093258D01*
X73101238Y-157058566D01*
X73194957Y-157044899D01*
X73255904Y-157040996D01*
X73336374Y-157048257D01*
X73394817Y-157085419D01*
X73434772Y-157167255D01*
X73459777Y-157308535D01*
X73473372Y-157524031D01*
X73475842Y-157655500D01*
X73479094Y-157828515D01*
G37*
G36*
X80711824Y-158159265D02*
G01*
X80721288Y-158100136D01*
X80738667Y-158015257D01*
X80749712Y-158022462D01*
X80756770Y-158130565D01*
X80762189Y-158348384D01*
X80762460Y-158361309D01*
X80769997Y-158485232D01*
X80778612Y-158626859D01*
X80811595Y-158795158D01*
X80859060Y-158859247D01*
X80918660Y-158812166D01*
X80926822Y-158804747D01*
X81024153Y-158777872D01*
X81201115Y-158759033D01*
X81426522Y-158751932D01*
X81897158Y-158751932D01*
X81897158Y-158949488D01*
X81897158Y-158959365D01*
X81897158Y-159068021D01*
X81897158Y-159166799D01*
X81097058Y-159166799D01*
X80296958Y-159166799D01*
X80296958Y-159085848D01*
X80781575Y-159085848D01*
X80830358Y-159107532D01*
X80861733Y-159103255D01*
X80869869Y-159068021D01*
X80861182Y-159060928D01*
X80790847Y-159068021D01*
X80781575Y-159085848D01*
X80296958Y-159085848D01*
X80296958Y-158967314D01*
X80781575Y-158967314D01*
X80830358Y-158988999D01*
X80861733Y-158984722D01*
X80869869Y-158949488D01*
X80861182Y-158942395D01*
X80790847Y-158949488D01*
X80781575Y-158967314D01*
X80296958Y-158967314D01*
X80296958Y-158485232D01*
X80593291Y-158485232D01*
X80622924Y-158514865D01*
X80652558Y-158485232D01*
X80622924Y-158455599D01*
X80593291Y-158485232D01*
X80296958Y-158485232D01*
X80296958Y-158425965D01*
X80356224Y-158425965D01*
X80385858Y-158455599D01*
X80415491Y-158425965D01*
X80385858Y-158396332D01*
X80356224Y-158425965D01*
X80296958Y-158425965D01*
X80296958Y-158129632D01*
X80296958Y-157092466D01*
X80450063Y-157092466D01*
X80464187Y-157092795D01*
X80564537Y-157129258D01*
X80568576Y-157197398D01*
X80471053Y-157256258D01*
X80465104Y-157257847D01*
X80419899Y-157261994D01*
X80474758Y-157216420D01*
X80489288Y-157205989D01*
X80528963Y-157162724D01*
X80459941Y-157152640D01*
X80382558Y-157183936D01*
X80360391Y-157289598D01*
X80415477Y-157448040D01*
X80480861Y-157518538D01*
X80622910Y-157531885D01*
X80691808Y-157523236D01*
X80755723Y-157553323D01*
X80766926Y-157669157D01*
X80766588Y-157680300D01*
X80752781Y-157770299D01*
X80722476Y-157744400D01*
X80712846Y-157729440D01*
X80628914Y-157676529D01*
X80509460Y-157643900D01*
X80402543Y-157640583D01*
X80356224Y-157675605D01*
X80382818Y-157742604D01*
X80453809Y-157857347D01*
X80506909Y-157938983D01*
X80516943Y-158002823D01*
X80453809Y-158051279D01*
X80403085Y-158094783D01*
X80358110Y-158206660D01*
X80360734Y-158247638D01*
X80384977Y-158265100D01*
X80453373Y-158188899D01*
X80455718Y-158185923D01*
X80516909Y-158115844D01*
X80534512Y-158135990D01*
X80521478Y-158259852D01*
X80519530Y-158275608D01*
X80520001Y-158389947D01*
X80552203Y-158414730D01*
X80571745Y-158374358D01*
X80583929Y-158241943D01*
X80574751Y-158056022D01*
X80564407Y-157921717D01*
X80565391Y-157802491D01*
X80582112Y-157772733D01*
X80583332Y-157773955D01*
X80610714Y-157808890D01*
X80627789Y-157865814D01*
X80640317Y-157976841D01*
X80654051Y-158174082D01*
X80670361Y-158425965D01*
X80711824Y-158159265D01*
G37*
D13*
X81580000Y-64930000D02*
X89020000Y-64930000D01*
X81580000Y-70670000D02*
X81580000Y-64930000D01*
X81580000Y-70670000D02*
X89020000Y-70670000D01*
X89020000Y-70670000D02*
X89020000Y-64930000D01*
X146670000Y-131050000D02*
X146670000Y-138730000D01*
X146670000Y-141330000D02*
X146670000Y-140000000D01*
X148000000Y-141330000D02*
X146670000Y-141330000D01*
X149330000Y-131050000D02*
X146670000Y-131050000D01*
X149330000Y-131050000D02*
X149330000Y-138730000D01*
X149330000Y-138730000D02*
X146670000Y-138730000D01*
X92691600Y-67370000D02*
X92691600Y-66630000D01*
X92731600Y-67537000D02*
X92731600Y-66463000D01*
X92771600Y-67664000D02*
X92771600Y-66336000D01*
X92811600Y-67768000D02*
X92811600Y-66232000D01*
X92851600Y-67859000D02*
X92851600Y-66141000D01*
X92891600Y-67940000D02*
X92891600Y-66060000D01*
X92931600Y-68013000D02*
X92931600Y-65987000D01*
X92971600Y-66160000D02*
X92971600Y-65920000D01*
X92971600Y-68080000D02*
X92971600Y-67840000D01*
X93011600Y-66160000D02*
X93011600Y-65858000D01*
X93011600Y-68142000D02*
X93011600Y-67840000D01*
X93051600Y-66160000D02*
X93051600Y-65800000D01*
X93051600Y-68200000D02*
X93051600Y-67840000D01*
X93091600Y-66160000D02*
X93091600Y-65746000D01*
X93091600Y-68254000D02*
X93091600Y-67840000D01*
X93131600Y-66160000D02*
X93131600Y-65696000D01*
X93131600Y-68304000D02*
X93131600Y-67840000D01*
X93171600Y-66160000D02*
X93171600Y-65649000D01*
X93171600Y-68351000D02*
X93171600Y-67840000D01*
X93211600Y-66160000D02*
X93211600Y-65604000D01*
X93211600Y-68396000D02*
X93211600Y-67840000D01*
X93251600Y-66160000D02*
X93251600Y-65562000D01*
X93251600Y-68438000D02*
X93251600Y-67840000D01*
X93291600Y-66160000D02*
X93291600Y-65522000D01*
X93291600Y-68478000D02*
X93291600Y-67840000D01*
X93331600Y-66160000D02*
X93331600Y-65484000D01*
X93331600Y-68516000D02*
X93331600Y-67840000D01*
X93371600Y-66160000D02*
X93371600Y-65448000D01*
X93371600Y-68552000D02*
X93371600Y-67840000D01*
X93411600Y-66160000D02*
X93411600Y-65413000D01*
X93411600Y-68587000D02*
X93411600Y-67840000D01*
X93451600Y-66160000D02*
X93451600Y-65381000D01*
X93451600Y-68619000D02*
X93451600Y-67840000D01*
X93491600Y-66160000D02*
X93491600Y-65350000D01*
X93491600Y-68650000D02*
X93491600Y-67840000D01*
X93531600Y-66160000D02*
X93531600Y-65320000D01*
X93531600Y-68680000D02*
X93531600Y-67840000D01*
X93571600Y-66160000D02*
X93571600Y-65292000D01*
X93571600Y-68708000D02*
X93571600Y-67840000D01*
X93611600Y-66160000D02*
X93611600Y-65265000D01*
X93611600Y-68735000D02*
X93611600Y-67840000D01*
X93651600Y-66160000D02*
X93651600Y-65240000D01*
X93651600Y-68760000D02*
X93651600Y-67840000D01*
X93691600Y-66160000D02*
X93691600Y-65215000D01*
X93691600Y-68785000D02*
X93691600Y-67840000D01*
X93731600Y-66160000D02*
X93731600Y-65192000D01*
X93731600Y-68808000D02*
X93731600Y-67840000D01*
X93771600Y-66160000D02*
X93771600Y-65170000D01*
X93771600Y-68830000D02*
X93771600Y-67840000D01*
X93811600Y-66160000D02*
X93811600Y-65149000D01*
X93811600Y-68851000D02*
X93811600Y-67840000D01*
X93851600Y-66160000D02*
X93851600Y-65130000D01*
X93851600Y-68870000D02*
X93851600Y-67840000D01*
X93891600Y-66160000D02*
X93891600Y-65111000D01*
X93891600Y-68889000D02*
X93891600Y-67840000D01*
X93931600Y-66160000D02*
X93931600Y-65093000D01*
X93931600Y-68907000D02*
X93931600Y-67840000D01*
X93971600Y-66160000D02*
X93971600Y-65076000D01*
X93971600Y-68924000D02*
X93971600Y-67840000D01*
X94011600Y-66160000D02*
X94011600Y-65060000D01*
X94011600Y-68940000D02*
X94011600Y-67840000D01*
X94051600Y-66160000D02*
X94051600Y-65046000D01*
X94051600Y-68954000D02*
X94051600Y-67840000D01*
X94092600Y-66160000D02*
X94092600Y-65032000D01*
X94092600Y-68968000D02*
X94092600Y-67840000D01*
X94132600Y-66160000D02*
X94132600Y-65018000D01*
X94132600Y-68982000D02*
X94132600Y-67840000D01*
X94172600Y-66160000D02*
X94172600Y-65006000D01*
X94172600Y-68994000D02*
X94172600Y-67840000D01*
X94212600Y-66160000D02*
X94212600Y-64995000D01*
X94212600Y-69005000D02*
X94212600Y-67840000D01*
X94252600Y-66160000D02*
X94252600Y-64984000D01*
X94252600Y-69016000D02*
X94252600Y-67840000D01*
X94292600Y-66160000D02*
X94292600Y-64975000D01*
X94292600Y-69025000D02*
X94292600Y-67840000D01*
X94332600Y-66160000D02*
X94332600Y-64966000D01*
X94332600Y-69034000D02*
X94332600Y-67840000D01*
X94372600Y-66160000D02*
X94372600Y-64958000D01*
X94372600Y-69042000D02*
X94372600Y-67840000D01*
X94412600Y-66160000D02*
X94412600Y-64950000D01*
X94412600Y-69050000D02*
X94412600Y-67840000D01*
X94452600Y-66160000D02*
X94452600Y-64944000D01*
X94452600Y-69056000D02*
X94452600Y-67840000D01*
X94492600Y-66160000D02*
X94492600Y-64938000D01*
X94492600Y-69062000D02*
X94492600Y-67840000D01*
X94532600Y-66160000D02*
X94532600Y-64933000D01*
X94532600Y-69067000D02*
X94532600Y-67840000D01*
X94572600Y-66160000D02*
X94572600Y-64929000D01*
X94572600Y-69071000D02*
X94572600Y-67840000D01*
X94612600Y-69074000D02*
X94612600Y-64926000D01*
X94652600Y-69077000D02*
X94652600Y-64923000D01*
X94692600Y-69079000D02*
X94692600Y-64921000D01*
X94732600Y-69080000D02*
X94732600Y-64920000D01*
X94772600Y-69080000D02*
X94772600Y-64920000D01*
X96642401Y-65805000D02*
X97042401Y-65805000D01*
X96842401Y-66005000D02*
X96842401Y-65605000D01*
X96892600Y-67000000D02*
G75*
G02*
X92652600Y-67000000I-2120000J0D01*
G01*
X92652600Y-67000000D02*
G75*
G02*
X96892600Y-67000000I2120000J0D01*
G01*
X102670000Y-76270000D02*
X105330000Y-76270000D01*
X102670000Y-94110000D02*
X102670000Y-76270000D01*
X102670000Y-94110000D02*
X105330000Y-94110000D01*
X104000000Y-73670000D02*
X105330000Y-73670000D01*
X105330000Y-73670000D02*
X105330000Y-75000000D01*
X105330000Y-94110000D02*
X105330000Y-76270000D01*
X52009000Y-61402000D02*
X52009000Y-60598000D01*
X52049000Y-61633000D02*
X52049000Y-60367000D01*
X52089000Y-61802000D02*
X52089000Y-60198000D01*
X52129000Y-61940000D02*
X52129000Y-60060000D01*
X52169000Y-62059000D02*
X52169000Y-59941000D01*
X52209000Y-62165000D02*
X52209000Y-59835000D01*
X52249000Y-62262000D02*
X52249000Y-59738000D01*
X52289000Y-62350000D02*
X52289000Y-59650000D01*
X52329000Y-62432000D02*
X52329000Y-59568000D01*
X52369000Y-62509000D02*
X52369000Y-59491000D01*
X52409000Y-62581000D02*
X52409000Y-59419000D01*
X52449000Y-62650000D02*
X52449000Y-59350000D01*
X52489000Y-62714000D02*
X52489000Y-59286000D01*
X52529000Y-62776000D02*
X52529000Y-59224000D01*
X52569000Y-62834000D02*
X52569000Y-59166000D01*
X52609000Y-62890000D02*
X52609000Y-59110000D01*
X52649000Y-62944000D02*
X52649000Y-59056000D01*
X52689000Y-62995000D02*
X52689000Y-59005000D01*
X52729000Y-63044000D02*
X52729000Y-58956000D01*
X52769000Y-63092000D02*
X52769000Y-58908000D01*
X52809000Y-63137000D02*
X52809000Y-58863000D01*
X52849000Y-63182000D02*
X52849000Y-58818000D01*
X52889000Y-63224000D02*
X52889000Y-58776000D01*
X52929000Y-63265000D02*
X52929000Y-58735000D01*
X52969000Y-59960000D02*
X52969000Y-58695000D01*
X52969000Y-63305000D02*
X52969000Y-62040000D01*
X53009000Y-59960000D02*
X53009000Y-58657000D01*
X53009000Y-63343000D02*
X53009000Y-62040000D01*
X53049000Y-59960000D02*
X53049000Y-58620000D01*
X53049000Y-63380000D02*
X53049000Y-62040000D01*
X53089000Y-59960000D02*
X53089000Y-58584000D01*
X53089000Y-63416000D02*
X53089000Y-62040000D01*
X53129000Y-59960000D02*
X53129000Y-58550000D01*
X53129000Y-63450000D02*
X53129000Y-62040000D01*
X53169000Y-59960000D02*
X53169000Y-58516000D01*
X53169000Y-63484000D02*
X53169000Y-62040000D01*
X53209000Y-59960000D02*
X53209000Y-58484000D01*
X53209000Y-63516000D02*
X53209000Y-62040000D01*
X53249000Y-59960000D02*
X53249000Y-58452000D01*
X53249000Y-63548000D02*
X53249000Y-62040000D01*
X53289000Y-59960000D02*
X53289000Y-58422000D01*
X53289000Y-63578000D02*
X53289000Y-62040000D01*
X53329000Y-59960000D02*
X53329000Y-58393000D01*
X53329000Y-63607000D02*
X53329000Y-62040000D01*
X53369000Y-59960000D02*
X53369000Y-58364000D01*
X53369000Y-63636000D02*
X53369000Y-62040000D01*
X53409000Y-59960000D02*
X53409000Y-58336000D01*
X53409000Y-63664000D02*
X53409000Y-62040000D01*
X53449000Y-59960000D02*
X53449000Y-58310000D01*
X53449000Y-63690000D02*
X53449000Y-62040000D01*
X53489000Y-59960000D02*
X53489000Y-58284000D01*
X53489000Y-63716000D02*
X53489000Y-62040000D01*
X53529000Y-59960000D02*
X53529000Y-58258000D01*
X53529000Y-63742000D02*
X53529000Y-62040000D01*
X53569000Y-59960000D02*
X53569000Y-58234000D01*
X53569000Y-63766000D02*
X53569000Y-62040000D01*
X53609000Y-59960000D02*
X53609000Y-58210000D01*
X53609000Y-63790000D02*
X53609000Y-62040000D01*
X53649000Y-59960000D02*
X53649000Y-58188000D01*
X53649000Y-63812000D02*
X53649000Y-62040000D01*
X53689000Y-59960000D02*
X53689000Y-58166000D01*
X53689000Y-63834000D02*
X53689000Y-62040000D01*
X53729000Y-59960000D02*
X53729000Y-58144000D01*
X53729000Y-63856000D02*
X53729000Y-62040000D01*
X53769000Y-59960000D02*
X53769000Y-58124000D01*
X53769000Y-63876000D02*
X53769000Y-62040000D01*
X53809000Y-59960000D02*
X53809000Y-58104000D01*
X53809000Y-63896000D02*
X53809000Y-62040000D01*
X53849000Y-59960000D02*
X53849000Y-58084000D01*
X53849000Y-63916000D02*
X53849000Y-62040000D01*
X53889000Y-59960000D02*
X53889000Y-58066000D01*
X53889000Y-63934000D02*
X53889000Y-62040000D01*
X53929000Y-59960000D02*
X53929000Y-58048000D01*
X53929000Y-63952000D02*
X53929000Y-62040000D01*
X53969000Y-59960000D02*
X53969000Y-58030000D01*
X53969000Y-63970000D02*
X53969000Y-62040000D01*
X54009000Y-59960000D02*
X54009000Y-58014000D01*
X54009000Y-63986000D02*
X54009000Y-62040000D01*
X54049000Y-59960000D02*
X54049000Y-57998000D01*
X54049000Y-64002000D02*
X54049000Y-62040000D01*
X54089000Y-59960000D02*
X54089000Y-57982000D01*
X54089000Y-64018000D02*
X54089000Y-62040000D01*
X54129000Y-59960000D02*
X54129000Y-57967000D01*
X54129000Y-64033000D02*
X54129000Y-62040000D01*
X54169000Y-59960000D02*
X54169000Y-57953000D01*
X54169000Y-64047000D02*
X54169000Y-62040000D01*
X54209000Y-59960000D02*
X54209000Y-57939000D01*
X54209000Y-64061000D02*
X54209000Y-62040000D01*
X54249000Y-59960000D02*
X54249000Y-57926000D01*
X54249000Y-64074000D02*
X54249000Y-62040000D01*
X54289000Y-59960000D02*
X54289000Y-57914000D01*
X54289000Y-64086000D02*
X54289000Y-62040000D01*
X54329000Y-59960000D02*
X54329000Y-57902000D01*
X54329000Y-64098000D02*
X54329000Y-62040000D01*
X54369000Y-59960000D02*
X54369000Y-57890000D01*
X54369000Y-64110000D02*
X54369000Y-62040000D01*
X54409000Y-59960000D02*
X54409000Y-57879000D01*
X54409000Y-64121000D02*
X54409000Y-62040000D01*
X54449000Y-59960000D02*
X54449000Y-57869000D01*
X54449000Y-64131000D02*
X54449000Y-62040000D01*
X54489000Y-59960000D02*
X54489000Y-57859000D01*
X54489000Y-64141000D02*
X54489000Y-62040000D01*
X54529000Y-59960000D02*
X54529000Y-57850000D01*
X54529000Y-64150000D02*
X54529000Y-62040000D01*
X54570000Y-59960000D02*
X54570000Y-57841000D01*
X54570000Y-64159000D02*
X54570000Y-62040000D01*
X54610000Y-59960000D02*
X54610000Y-57833000D01*
X54610000Y-64167000D02*
X54610000Y-62040000D01*
X54650000Y-59960000D02*
X54650000Y-57825000D01*
X54650000Y-64175000D02*
X54650000Y-62040000D01*
X54690000Y-59960000D02*
X54690000Y-57818000D01*
X54690000Y-64182000D02*
X54690000Y-62040000D01*
X54730000Y-59960000D02*
X54730000Y-57811000D01*
X54730000Y-64189000D02*
X54730000Y-62040000D01*
X54770000Y-59960000D02*
X54770000Y-57805000D01*
X54770000Y-64195000D02*
X54770000Y-62040000D01*
X54810000Y-59960000D02*
X54810000Y-57799000D01*
X54810000Y-64201000D02*
X54810000Y-62040000D01*
X54850000Y-59960000D02*
X54850000Y-57794000D01*
X54850000Y-64206000D02*
X54850000Y-62040000D01*
X54890000Y-59960000D02*
X54890000Y-57789000D01*
X54890000Y-64211000D02*
X54890000Y-62040000D01*
X54930000Y-59960000D02*
X54930000Y-57785000D01*
X54930000Y-64215000D02*
X54930000Y-62040000D01*
X54970000Y-59960000D02*
X54970000Y-57782000D01*
X54970000Y-64218000D02*
X54970000Y-62040000D01*
X55010000Y-59960000D02*
X55010000Y-57778000D01*
X55010000Y-64222000D02*
X55010000Y-62040000D01*
X55050000Y-64224000D02*
X55050000Y-57776000D01*
X55090000Y-64227000D02*
X55090000Y-57773000D01*
X55130000Y-64228000D02*
X55130000Y-57772000D01*
X55170000Y-64230000D02*
X55170000Y-57770000D01*
X55210000Y-64230000D02*
X55210000Y-57770000D01*
X55250000Y-64230000D02*
X55250000Y-57770000D01*
X58120241Y-59161000D02*
X58750241Y-59161000D01*
X58435241Y-59476000D02*
X58435241Y-58846000D01*
X58520000Y-61000000D02*
G75*
G02*
X51980000Y-61000000I-3270000J0D01*
G01*
X51980000Y-61000000D02*
G75*
G02*
X58520000Y-61000000I3270000J0D01*
G01*
X53219000Y-67170000D02*
X53219000Y-66430000D01*
X53259000Y-67337000D02*
X53259000Y-66263000D01*
X53299000Y-67464000D02*
X53299000Y-66136000D01*
X53339000Y-67568000D02*
X53339000Y-66032000D01*
X53379000Y-67659000D02*
X53379000Y-65941000D01*
X53419000Y-67740000D02*
X53419000Y-65860000D01*
X53459000Y-67813000D02*
X53459000Y-65787000D01*
X53499000Y-65960000D02*
X53499000Y-65720000D01*
X53499000Y-67880000D02*
X53499000Y-67640000D01*
X53539000Y-65960000D02*
X53539000Y-65658000D01*
X53539000Y-67942000D02*
X53539000Y-67640000D01*
X53579000Y-65960000D02*
X53579000Y-65600000D01*
X53579000Y-68000000D02*
X53579000Y-67640000D01*
X53619000Y-65960000D02*
X53619000Y-65546000D01*
X53619000Y-68054000D02*
X53619000Y-67640000D01*
X53659000Y-65960000D02*
X53659000Y-65496000D01*
X53659000Y-68104000D02*
X53659000Y-67640000D01*
X53699000Y-65960000D02*
X53699000Y-65449000D01*
X53699000Y-68151000D02*
X53699000Y-67640000D01*
X53739000Y-65960000D02*
X53739000Y-65404000D01*
X53739000Y-68196000D02*
X53739000Y-67640000D01*
X53779000Y-65960000D02*
X53779000Y-65362000D01*
X53779000Y-68238000D02*
X53779000Y-67640000D01*
X53819000Y-65960000D02*
X53819000Y-65322000D01*
X53819000Y-68278000D02*
X53819000Y-67640000D01*
X53859000Y-65960000D02*
X53859000Y-65284000D01*
X53859000Y-68316000D02*
X53859000Y-67640000D01*
X53899000Y-65960000D02*
X53899000Y-65248000D01*
X53899000Y-68352000D02*
X53899000Y-67640000D01*
X53939000Y-65960000D02*
X53939000Y-65213000D01*
X53939000Y-68387000D02*
X53939000Y-67640000D01*
X53979000Y-65960000D02*
X53979000Y-65181000D01*
X53979000Y-68419000D02*
X53979000Y-67640000D01*
X54019000Y-65960000D02*
X54019000Y-65150000D01*
X54019000Y-68450000D02*
X54019000Y-67640000D01*
X54059000Y-65960000D02*
X54059000Y-65120000D01*
X54059000Y-68480000D02*
X54059000Y-67640000D01*
X54099000Y-65960000D02*
X54099000Y-65092000D01*
X54099000Y-68508000D02*
X54099000Y-67640000D01*
X54139000Y-65960000D02*
X54139000Y-65065000D01*
X54139000Y-68535000D02*
X54139000Y-67640000D01*
X54179000Y-65960000D02*
X54179000Y-65040000D01*
X54179000Y-68560000D02*
X54179000Y-67640000D01*
X54219000Y-65960000D02*
X54219000Y-65015000D01*
X54219000Y-68585000D02*
X54219000Y-67640000D01*
X54259000Y-65960000D02*
X54259000Y-64992000D01*
X54259000Y-68608000D02*
X54259000Y-67640000D01*
X54299000Y-65960000D02*
X54299000Y-64970000D01*
X54299000Y-68630000D02*
X54299000Y-67640000D01*
X54339000Y-65960000D02*
X54339000Y-64949000D01*
X54339000Y-68651000D02*
X54339000Y-67640000D01*
X54379000Y-65960000D02*
X54379000Y-64930000D01*
X54379000Y-68670000D02*
X54379000Y-67640000D01*
X54419000Y-65960000D02*
X54419000Y-64911000D01*
X54419000Y-68689000D02*
X54419000Y-67640000D01*
X54459000Y-65960000D02*
X54459000Y-64893000D01*
X54459000Y-68707000D02*
X54459000Y-67640000D01*
X54499000Y-65960000D02*
X54499000Y-64876000D01*
X54499000Y-68724000D02*
X54499000Y-67640000D01*
X54539000Y-65960000D02*
X54539000Y-64860000D01*
X54539000Y-68740000D02*
X54539000Y-67640000D01*
X54579000Y-65960000D02*
X54579000Y-64846000D01*
X54579000Y-68754000D02*
X54579000Y-67640000D01*
X54620000Y-65960000D02*
X54620000Y-64832000D01*
X54620000Y-68768000D02*
X54620000Y-67640000D01*
X54660000Y-65960000D02*
X54660000Y-64818000D01*
X54660000Y-68782000D02*
X54660000Y-67640000D01*
X54700000Y-65960000D02*
X54700000Y-64806000D01*
X54700000Y-68794000D02*
X54700000Y-67640000D01*
X54740000Y-65960000D02*
X54740000Y-64795000D01*
X54740000Y-68805000D02*
X54740000Y-67640000D01*
X54780000Y-65960000D02*
X54780000Y-64784000D01*
X54780000Y-68816000D02*
X54780000Y-67640000D01*
X54820000Y-65960000D02*
X54820000Y-64775000D01*
X54820000Y-68825000D02*
X54820000Y-67640000D01*
X54860000Y-65960000D02*
X54860000Y-64766000D01*
X54860000Y-68834000D02*
X54860000Y-67640000D01*
X54900000Y-65960000D02*
X54900000Y-64758000D01*
X54900000Y-68842000D02*
X54900000Y-67640000D01*
X54940000Y-65960000D02*
X54940000Y-64750000D01*
X54940000Y-68850000D02*
X54940000Y-67640000D01*
X54980000Y-65960000D02*
X54980000Y-64744000D01*
X54980000Y-68856000D02*
X54980000Y-67640000D01*
X55020000Y-65960000D02*
X55020000Y-64738000D01*
X55020000Y-68862000D02*
X55020000Y-67640000D01*
X55060000Y-65960000D02*
X55060000Y-64733000D01*
X55060000Y-68867000D02*
X55060000Y-67640000D01*
X55100000Y-65960000D02*
X55100000Y-64729000D01*
X55100000Y-68871000D02*
X55100000Y-67640000D01*
X55140000Y-68874000D02*
X55140000Y-64726000D01*
X55180000Y-68877000D02*
X55180000Y-64723000D01*
X55220000Y-68879000D02*
X55220000Y-64721000D01*
X55260000Y-68880000D02*
X55260000Y-64720000D01*
X55300000Y-68880000D02*
X55300000Y-64720000D01*
X57169801Y-65605000D02*
X57569801Y-65605000D01*
X57369801Y-65805000D02*
X57369801Y-65405000D01*
X57420000Y-66800000D02*
G75*
G02*
X53180000Y-66800000I-2120000J0D01*
G01*
X53180000Y-66800000D02*
G75*
G02*
X57420000Y-66800000I2120000J0D01*
G01*
X64710000Y-51170000D02*
X85290000Y-51170000D01*
X64710000Y-60290000D02*
X64710000Y-51170000D01*
X66010000Y-52480000D02*
X83990000Y-52480000D01*
X66010000Y-58980000D02*
X66010000Y-52480000D01*
X72950000Y-58980000D02*
X66010000Y-58980000D01*
X72950000Y-58980000D02*
X72950000Y-58980000D01*
X72950000Y-60290000D02*
X72950000Y-58980000D01*
X77050000Y-58980000D02*
X77050000Y-60290000D01*
X79580000Y-60100000D02*
X80580000Y-60100000D01*
X80080000Y-59100000D02*
X79580000Y-60100000D01*
X80580000Y-60100000D02*
X80080000Y-59100000D01*
X83990000Y-52480000D02*
X83990000Y-58980000D01*
X83990000Y-58980000D02*
X77050000Y-58980000D01*
X85290000Y-51170000D02*
X85290000Y-60290000D01*
X85290000Y-60290000D02*
X64710000Y-60290000D01*
D14*
X86580000Y-51750000D02*
X86580000Y-59750000D01*
D13*
X91591380Y-61602000D02*
X91591380Y-60798000D01*
X91631380Y-61833000D02*
X91631380Y-60567000D01*
X91671380Y-62002000D02*
X91671380Y-60398000D01*
X91711380Y-62140000D02*
X91711380Y-60260000D01*
X91751380Y-62259000D02*
X91751380Y-60141000D01*
X91791380Y-62365000D02*
X91791380Y-60035000D01*
X91831380Y-62462000D02*
X91831380Y-59938000D01*
X91871380Y-62550000D02*
X91871380Y-59850000D01*
X91911380Y-62632000D02*
X91911380Y-59768000D01*
X91951380Y-62709000D02*
X91951380Y-59691000D01*
X91991380Y-62781000D02*
X91991380Y-59619000D01*
X92031380Y-62850000D02*
X92031380Y-59550000D01*
X92071380Y-62914000D02*
X92071380Y-59486000D01*
X92111380Y-62976000D02*
X92111380Y-59424000D01*
X92151380Y-63034000D02*
X92151380Y-59366000D01*
X92191380Y-63090000D02*
X92191380Y-59310000D01*
X92231380Y-63144000D02*
X92231380Y-59256000D01*
X92271380Y-63195000D02*
X92271380Y-59205000D01*
X92311380Y-63244000D02*
X92311380Y-59156000D01*
X92351380Y-63292000D02*
X92351380Y-59108000D01*
X92391380Y-63337000D02*
X92391380Y-59063000D01*
X92431380Y-63382000D02*
X92431380Y-59018000D01*
X92471380Y-63424000D02*
X92471380Y-58976000D01*
X92511380Y-63465000D02*
X92511380Y-58935000D01*
X92551380Y-60160000D02*
X92551380Y-58895000D01*
X92551380Y-63505000D02*
X92551380Y-62240000D01*
X92591380Y-60160000D02*
X92591380Y-58857000D01*
X92591380Y-63543000D02*
X92591380Y-62240000D01*
X92631380Y-60160000D02*
X92631380Y-58820000D01*
X92631380Y-63580000D02*
X92631380Y-62240000D01*
X92671380Y-60160000D02*
X92671380Y-58784000D01*
X92671380Y-63616000D02*
X92671380Y-62240000D01*
X92711380Y-60160000D02*
X92711380Y-58750000D01*
X92711380Y-63650000D02*
X92711380Y-62240000D01*
X92751380Y-60160000D02*
X92751380Y-58716000D01*
X92751380Y-63684000D02*
X92751380Y-62240000D01*
X92791380Y-60160000D02*
X92791380Y-58684000D01*
X92791380Y-63716000D02*
X92791380Y-62240000D01*
X92831380Y-60160000D02*
X92831380Y-58652000D01*
X92831380Y-63748000D02*
X92831380Y-62240000D01*
X92871380Y-60160000D02*
X92871380Y-58622000D01*
X92871380Y-63778000D02*
X92871380Y-62240000D01*
X92911380Y-60160000D02*
X92911380Y-58593000D01*
X92911380Y-63807000D02*
X92911380Y-62240000D01*
X92951380Y-60160000D02*
X92951380Y-58564000D01*
X92951380Y-63836000D02*
X92951380Y-62240000D01*
X92991380Y-60160000D02*
X92991380Y-58536000D01*
X92991380Y-63864000D02*
X92991380Y-62240000D01*
X93031380Y-60160000D02*
X93031380Y-58510000D01*
X93031380Y-63890000D02*
X93031380Y-62240000D01*
X93071380Y-60160000D02*
X93071380Y-58484000D01*
X93071380Y-63916000D02*
X93071380Y-62240000D01*
X93111380Y-60160000D02*
X93111380Y-58458000D01*
X93111380Y-63942000D02*
X93111380Y-62240000D01*
X93151380Y-60160000D02*
X93151380Y-58434000D01*
X93151380Y-63966000D02*
X93151380Y-62240000D01*
X93191380Y-60160000D02*
X93191380Y-58410000D01*
X93191380Y-63990000D02*
X93191380Y-62240000D01*
X93231380Y-60160000D02*
X93231380Y-58388000D01*
X93231380Y-64012000D02*
X93231380Y-62240000D01*
X93271380Y-60160000D02*
X93271380Y-58366000D01*
X93271380Y-64034000D02*
X93271380Y-62240000D01*
X93311380Y-60160000D02*
X93311380Y-58344000D01*
X93311380Y-64056000D02*
X93311380Y-62240000D01*
X93351380Y-60160000D02*
X93351380Y-58324000D01*
X93351380Y-64076000D02*
X93351380Y-62240000D01*
X93391380Y-60160000D02*
X93391380Y-58304000D01*
X93391380Y-64096000D02*
X93391380Y-62240000D01*
X93431380Y-60160000D02*
X93431380Y-58284000D01*
X93431380Y-64116000D02*
X93431380Y-62240000D01*
X93471380Y-60160000D02*
X93471380Y-58266000D01*
X93471380Y-64134000D02*
X93471380Y-62240000D01*
X93511380Y-60160000D02*
X93511380Y-58248000D01*
X93511380Y-64152000D02*
X93511380Y-62240000D01*
X93551380Y-60160000D02*
X93551380Y-58230000D01*
X93551380Y-64170000D02*
X93551380Y-62240000D01*
X93591380Y-60160000D02*
X93591380Y-58214000D01*
X93591380Y-64186000D02*
X93591380Y-62240000D01*
X93631380Y-60160000D02*
X93631380Y-58198000D01*
X93631380Y-64202000D02*
X93631380Y-62240000D01*
X93671380Y-60160000D02*
X93671380Y-58182000D01*
X93671380Y-64218000D02*
X93671380Y-62240000D01*
X93711380Y-60160000D02*
X93711380Y-58167000D01*
X93711380Y-64233000D02*
X93711380Y-62240000D01*
X93751380Y-60160000D02*
X93751380Y-58153000D01*
X93751380Y-64247000D02*
X93751380Y-62240000D01*
X93791380Y-60160000D02*
X93791380Y-58139000D01*
X93791380Y-64261000D02*
X93791380Y-62240000D01*
X93831380Y-60160000D02*
X93831380Y-58126000D01*
X93831380Y-64274000D02*
X93831380Y-62240000D01*
X93871380Y-60160000D02*
X93871380Y-58114000D01*
X93871380Y-64286000D02*
X93871380Y-62240000D01*
X93911380Y-60160000D02*
X93911380Y-58102000D01*
X93911380Y-64298000D02*
X93911380Y-62240000D01*
X93951380Y-60160000D02*
X93951380Y-58090000D01*
X93951380Y-64310000D02*
X93951380Y-62240000D01*
X93991380Y-60160000D02*
X93991380Y-58079000D01*
X93991380Y-64321000D02*
X93991380Y-62240000D01*
X94031380Y-60160000D02*
X94031380Y-58069000D01*
X94031380Y-64331000D02*
X94031380Y-62240000D01*
X94071380Y-60160000D02*
X94071380Y-58059000D01*
X94071380Y-64341000D02*
X94071380Y-62240000D01*
X94111380Y-60160000D02*
X94111380Y-58050000D01*
X94111380Y-64350000D02*
X94111380Y-62240000D01*
X94152380Y-60160000D02*
X94152380Y-58041000D01*
X94152380Y-64359000D02*
X94152380Y-62240000D01*
X94192380Y-60160000D02*
X94192380Y-58033000D01*
X94192380Y-64367000D02*
X94192380Y-62240000D01*
X94232380Y-60160000D02*
X94232380Y-58025000D01*
X94232380Y-64375000D02*
X94232380Y-62240000D01*
X94272380Y-60160000D02*
X94272380Y-58018000D01*
X94272380Y-64382000D02*
X94272380Y-62240000D01*
X94312380Y-60160000D02*
X94312380Y-58011000D01*
X94312380Y-64389000D02*
X94312380Y-62240000D01*
X94352380Y-60160000D02*
X94352380Y-58005000D01*
X94352380Y-64395000D02*
X94352380Y-62240000D01*
X94392380Y-60160000D02*
X94392380Y-57999000D01*
X94392380Y-64401000D02*
X94392380Y-62240000D01*
X94432380Y-60160000D02*
X94432380Y-57994000D01*
X94432380Y-64406000D02*
X94432380Y-62240000D01*
X94472380Y-60160000D02*
X94472380Y-57989000D01*
X94472380Y-64411000D02*
X94472380Y-62240000D01*
X94512380Y-60160000D02*
X94512380Y-57985000D01*
X94512380Y-64415000D02*
X94512380Y-62240000D01*
X94552380Y-60160000D02*
X94552380Y-57982000D01*
X94552380Y-64418000D02*
X94552380Y-62240000D01*
X94592380Y-60160000D02*
X94592380Y-57978000D01*
X94592380Y-64422000D02*
X94592380Y-62240000D01*
X94632380Y-64424000D02*
X94632380Y-57976000D01*
X94672380Y-64427000D02*
X94672380Y-57973000D01*
X94712380Y-64428000D02*
X94712380Y-57972000D01*
X94752380Y-64430000D02*
X94752380Y-57970000D01*
X94792380Y-64430000D02*
X94792380Y-57970000D01*
X94832380Y-64430000D02*
X94832380Y-57970000D01*
X97702621Y-59361000D02*
X98332621Y-59361000D01*
X98017621Y-59676000D02*
X98017621Y-59046000D01*
X98102380Y-61200000D02*
G75*
G02*
X91562380Y-61200000I-3270000J0D01*
G01*
X91562380Y-61200000D02*
G75*
G02*
X98102380Y-61200000I3270000J0D01*
G01*
X146670000Y-86270000D02*
X149330000Y-86270000D01*
X146670000Y-93950000D02*
X146670000Y-86270000D01*
X146670000Y-93950000D02*
X149330000Y-93950000D01*
X148000000Y-83670000D02*
X149330000Y-83670000D01*
X149330000Y-83670000D02*
X149330000Y-85000000D01*
X149330000Y-93950000D02*
X149330000Y-86270000D01*
X87280000Y-84730000D02*
X87280000Y-90470000D01*
X94720000Y-84730000D02*
X87280000Y-84730000D01*
X94720000Y-84730000D02*
X94720000Y-90470000D01*
X94720000Y-90470000D02*
X87280000Y-90470000D01*
%LPC*%
D15*
X79000000Y-153710000D03*
D16*
X79000000Y-146090000D03*
D17*
X86020000Y-114400000D03*
D16*
X96180000Y-114400000D03*
D18*
X143700000Y-119000000D03*
X139000000Y-119000000D03*
X134300000Y-119000000D03*
D19*
X110000000Y-133520000D03*
D20*
X110000000Y-144920000D03*
X110000000Y-136620000D03*
D15*
X138700000Y-70790000D03*
D16*
X138700000Y-78410000D03*
D17*
X111000000Y-51920000D03*
D16*
X111000000Y-62080000D03*
D21*
X53000000Y-75000000D03*
D22*
X53000000Y-77540000D03*
X53000000Y-80080000D03*
X53000000Y-82620000D03*
X53000000Y-85160000D03*
X53000000Y-87700000D03*
X53000000Y-90240000D03*
X53000000Y-92780000D03*
D17*
X63500000Y-116100000D03*
D16*
X53340000Y-116100000D03*
D21*
X97000000Y-85000000D03*
D22*
X97000000Y-87540000D03*
X97000000Y-90080000D03*
X97000000Y-92620000D03*
D17*
X81200000Y-137710000D03*
X81200000Y-142710000D03*
D23*
X129250000Y-86500000D03*
X138750000Y-86500000D03*
D24*
X131500000Y-94000000D03*
D25*
X134000000Y-94000000D03*
X136500000Y-94000000D03*
D19*
X110000000Y-118520000D03*
D20*
X110000000Y-129920000D03*
X110000000Y-121620000D03*
D17*
X97980000Y-72600000D03*
D16*
X87820000Y-72600000D03*
D15*
X64790000Y-68700000D03*
D16*
X72410000Y-68700000D03*
D23*
X114250000Y-86500000D03*
X123750000Y-86500000D03*
D24*
X116500000Y-94000000D03*
D25*
X119000000Y-94000000D03*
X121500000Y-94000000D03*
D24*
X124730000Y-53500000D03*
D25*
X127270000Y-53500000D03*
D17*
X146900000Y-70790000D03*
D16*
X146900000Y-80950000D03*
D17*
X63500000Y-119200000D03*
D16*
X53340000Y-119200000D03*
D26*
X63340000Y-62400000D03*
D27*
X73500000Y-62400000D03*
D15*
X144000000Y-70790000D03*
D16*
X144000000Y-78410000D03*
D28*
X54000000Y-54000000D03*
D17*
X124780000Y-150500000D03*
D16*
X114620000Y-150500000D03*
D17*
X96180000Y-120700000D03*
D16*
X86020000Y-120700000D03*
D15*
X81700000Y-153710000D03*
D16*
X81700000Y-146090000D03*
D15*
X72410000Y-71400000D03*
D16*
X64790000Y-71400000D03*
D17*
X136080000Y-78000000D03*
D16*
X125920000Y-78000000D03*
D17*
X63500000Y-134300000D03*
D16*
X53340000Y-134300000D03*
D17*
X53340000Y-128100000D03*
D16*
X63500000Y-128100000D03*
D17*
X53340000Y-113000000D03*
D16*
X63500000Y-113000000D03*
D17*
X97980000Y-79000000D03*
D16*
X87820000Y-79000000D03*
D17*
X96180000Y-105094230D03*
D16*
X86020000Y-105094230D03*
D17*
X96180000Y-117500000D03*
D16*
X86020000Y-117500000D03*
D15*
X141400000Y-78410000D03*
D16*
X141400000Y-70790000D03*
D28*
X147000000Y-156000000D03*
D17*
X53340000Y-131200000D03*
D16*
X63500000Y-131200000D03*
D17*
X124780000Y-153600000D03*
D16*
X114620000Y-153600000D03*
D17*
X74915000Y-109800000D03*
X79915000Y-109800000D03*
X53340000Y-122300000D03*
D16*
X63500000Y-122300000D03*
D17*
X96180000Y-108200000D03*
D16*
X86020000Y-108200000D03*
D19*
X139000000Y-135520000D03*
D20*
X139000000Y-146920000D03*
X139000000Y-138620000D03*
D28*
X96000000Y-156000000D03*
D15*
X68200000Y-153720000D03*
D16*
X68200000Y-146100000D03*
D29*
X119200000Y-140000000D03*
X128800000Y-140000000D03*
D24*
X121500000Y-147500000D03*
D25*
X124000000Y-147500000D03*
X126500000Y-147500000D03*
D15*
X73600000Y-153710000D03*
D16*
X73600000Y-146090000D03*
D15*
X70900000Y-153720000D03*
D16*
X70900000Y-146100000D03*
D17*
X89700000Y-62930000D03*
D16*
X89700000Y-52770000D03*
D18*
X134300000Y-128000000D03*
X139000000Y-128000000D03*
X143700000Y-128000000D03*
D17*
X140660000Y-52300000D03*
D16*
X130500000Y-52300000D03*
D18*
X134300000Y-110000000D03*
X139000000Y-110000000D03*
X143700000Y-110000000D03*
D24*
X103460000Y-62000000D03*
D25*
X106000000Y-62000000D03*
D23*
X121250000Y-66225000D03*
X130750000Y-66225000D03*
D24*
X123500000Y-73725000D03*
D25*
X126000000Y-73725000D03*
X128500000Y-73725000D03*
D17*
X78100000Y-137710000D03*
X78100000Y-142710000D03*
D30*
X82540000Y-113000000D03*
D31*
X80000000Y-113000000D03*
X77460000Y-113000000D03*
X74920000Y-113000000D03*
X72380000Y-113000000D03*
X69840000Y-113000000D03*
X67300000Y-113000000D03*
X67300000Y-120620000D03*
X69840000Y-120620000D03*
X72380000Y-120620000D03*
X74920000Y-120620000D03*
X77460000Y-120620000D03*
X80000000Y-120620000D03*
X82540000Y-120620000D03*
D19*
X110000000Y-102520000D03*
D20*
X110000000Y-113920000D03*
X110000000Y-105620000D03*
D17*
X79900000Y-123800000D03*
X74900000Y-123800000D03*
X127200000Y-153600000D03*
D16*
X137360000Y-153600000D03*
D15*
X53340000Y-125200000D03*
D16*
X60960000Y-125200000D03*
D17*
X71900000Y-137710000D03*
X71900000Y-142710000D03*
X129020000Y-96800000D03*
D16*
X139180000Y-96800000D03*
D28*
X54000000Y-156000000D03*
D17*
X96180000Y-111300000D03*
D16*
X86020000Y-111300000D03*
D26*
X76500000Y-62400000D03*
D27*
X86660000Y-62400000D03*
D29*
X119200000Y-125000000D03*
X128800000Y-125000000D03*
D24*
X121500000Y-132500000D03*
D25*
X124000000Y-132500000D03*
X126500000Y-132500000D03*
D28*
X147000000Y-54000000D03*
X105000000Y-54000000D03*
X105000000Y-156000000D03*
D17*
X80000000Y-71200000D03*
X75000000Y-71200000D03*
D15*
X76300000Y-153710000D03*
D16*
X76300000Y-146090000D03*
D28*
X96000000Y-54000000D03*
D17*
X64790000Y-65800000D03*
D16*
X74950000Y-65800000D03*
D21*
X97000000Y-140000000D03*
D22*
X97000000Y-137460000D03*
X97000000Y-134920000D03*
X97000000Y-132380000D03*
D17*
X75000000Y-137710000D03*
X75000000Y-142710000D03*
X60400000Y-62900000D03*
D16*
X60400000Y-52740000D03*
D17*
X75000000Y-85200000D03*
X80000000Y-85200000D03*
D25*
X126500000Y-116500000D03*
X124000000Y-116500000D03*
D24*
X121500000Y-116500000D03*
D29*
X128800000Y-109000000D03*
X119200000Y-109000000D03*
D17*
X63500000Y-137400000D03*
D16*
X53340000Y-137400000D03*
D30*
X67375000Y-82000000D03*
D31*
X69915000Y-82000000D03*
X72455000Y-82000000D03*
X74995000Y-82000000D03*
X77535000Y-82000000D03*
X80075000Y-82000000D03*
X82615000Y-82000000D03*
X82615000Y-74380000D03*
X80075000Y-74380000D03*
X77535000Y-74380000D03*
X74995000Y-74380000D03*
X72455000Y-74380000D03*
X69915000Y-74380000D03*
X67375000Y-74380000D03*
D32*
X140540000Y-56600000D03*
D33*
X139270000Y-58670000D03*
X138000000Y-56600000D03*
D17*
X87820000Y-75800000D03*
D16*
X97980000Y-75800000D03*
D17*
X127200000Y-150500000D03*
D16*
X137360000Y-150500000D03*
D17*
X68800000Y-137710000D03*
X68800000Y-142710000D03*
X82800000Y-67800000D03*
X87800000Y-67800000D03*
D21*
X148000000Y-140000000D03*
D22*
X148000000Y-137460000D03*
X148000000Y-134920000D03*
X148000000Y-132380000D03*
D34*
X95772600Y-67000000D03*
D35*
X93772600Y-67000000D03*
D21*
X104000000Y-75000000D03*
D22*
X104000000Y-77540000D03*
X104000000Y-80080000D03*
X104000000Y-82620000D03*
X104000000Y-85160000D03*
X104000000Y-87700000D03*
X104000000Y-90240000D03*
X104000000Y-92780000D03*
D15*
X56500000Y-61000000D03*
D17*
X54000000Y-61000000D03*
D34*
X56300000Y-66800000D03*
D35*
X54300000Y-66800000D03*
D36*
X80080000Y-57000000D03*
D37*
X80080000Y-54460000D03*
X77540000Y-57000000D03*
X77540000Y-54460000D03*
X75000000Y-57000000D03*
X75000000Y-54460000D03*
X72460000Y-57000000D03*
X72460000Y-54460000D03*
X69920000Y-57000000D03*
X69920000Y-54460000D03*
D15*
X96082380Y-61200000D03*
D17*
X93582380Y-61200000D03*
D21*
X148000000Y-85000000D03*
D22*
X148000000Y-87540000D03*
X148000000Y-90080000D03*
X148000000Y-92620000D03*
D17*
X93500000Y-87600000D03*
X88500000Y-87600000D03*
%LPD*%
M02*
