G04 #@! TF.GenerationSoftware,KiCad,Pcbnew,8.0.2-1*
G04 #@! TF.CreationDate,2024-06-17T09:55:16+02:00*
G04 #@! TF.ProjectId,low-orbit,6c6f772d-6f72-4626-9974-2e6b69636164,rev?*
G04 #@! TF.SameCoordinates,Original*
G04 #@! TF.FileFunction,Soldermask,Top*
G04 #@! TF.FilePolarity,Negative*
%FSLAX46Y46*%
G04 Gerber Fmt 4.6, Leading zero omitted, Abs format (unit mm)*
G04 Created by KiCad (PCBNEW 8.0.2-1) date 2024-06-17 09:55:16*
%MOMM*%
%LPD*%
G01*
G04 APERTURE LIST*
G04 Aperture macros list*
%AMRoundRect*
0 Rectangle with rounded corners*
0 $1 Rounding radius*
0 $2 $3 $4 $5 $6 $7 $8 $9 X,Y pos of 4 corners*
0 Add a 4 corners polygon primitive as box body*
4,1,4,$2,$3,$4,$5,$6,$7,$8,$9,$2,$3,0*
0 Add four circle primitives for the rounded corners*
1,1,$1+$1,$2,$3*
1,1,$1+$1,$4,$5*
1,1,$1+$1,$6,$7*
1,1,$1+$1,$8,$9*
0 Add four rect primitives between the rounded corners*
20,1,$1+$1,$2,$3,$4,$5,0*
20,1,$1+$1,$4,$5,$6,$7,0*
20,1,$1+$1,$6,$7,$8,$9,0*
20,1,$1+$1,$8,$9,$2,$3,0*%
G04 Aperture macros list end*
%ADD10R,1.600000X1.600000*%
%ADD11O,1.600000X1.600000*%
%ADD12C,1.600000*%
%ADD13C,2.850000*%
%ADD14R,1.930000X1.830000*%
%ADD15C,2.130000*%
%ADD16R,1.700000X1.700000*%
%ADD17O,1.700000X1.700000*%
%ADD18O,4.000000X4.000000*%
%ADD19R,1.800000X1.800000*%
%ADD20C,1.800000*%
%ADD21R,2.200000X2.200000*%
%ADD22O,2.200000X2.200000*%
%ADD23C,3.200000*%
%ADD24C,3.240000*%
%ADD25R,1.600000X2.400000*%
%ADD26O,1.600000X2.400000*%
%ADD27R,1.100000X1.800000*%
%ADD28RoundRect,0.275000X0.275000X0.625000X-0.275000X0.625000X-0.275000X-0.625000X0.275000X-0.625000X0*%
%ADD29R,1.200000X1.200000*%
%ADD30C,1.200000*%
%ADD31RoundRect,0.250000X0.600000X-0.600000X0.600000X0.600000X-0.600000X0.600000X-0.600000X-0.600000X0*%
%ADD32C,1.700000*%
G04 APERTURE END LIST*
D10*
X79000000Y-153710000D03*
D11*
X79000000Y-146090000D03*
D12*
X86020000Y-114400000D03*
D11*
X96180000Y-114400000D03*
D13*
X143700000Y-119000000D03*
X139000000Y-119000000D03*
X134300000Y-119000000D03*
D14*
X110000000Y-133520000D03*
D15*
X110000000Y-144920000D03*
X110000000Y-136620000D03*
D10*
X138700000Y-70790000D03*
D11*
X138700000Y-78410000D03*
D12*
X111000000Y-51920000D03*
D11*
X111000000Y-62080000D03*
D16*
X53000000Y-75000000D03*
D17*
X53000000Y-77540000D03*
X53000000Y-80080000D03*
X53000000Y-82620000D03*
X53000000Y-85160000D03*
X53000000Y-87700000D03*
X53000000Y-90240000D03*
X53000000Y-92780000D03*
D12*
X63500000Y-116100000D03*
D11*
X53340000Y-116100000D03*
D16*
X97000000Y-85000000D03*
D17*
X97000000Y-87540000D03*
X97000000Y-90080000D03*
X97000000Y-92620000D03*
D12*
X81200000Y-137710000D03*
X81200000Y-142710000D03*
D18*
X129250000Y-86500000D03*
X138750000Y-86500000D03*
D19*
X131500000Y-94000000D03*
D20*
X134000000Y-94000000D03*
X136500000Y-94000000D03*
D14*
X110000000Y-118520000D03*
D15*
X110000000Y-129920000D03*
X110000000Y-121620000D03*
D12*
X97980000Y-72600000D03*
D11*
X87820000Y-72600000D03*
D10*
X64790000Y-68700000D03*
D11*
X72410000Y-68700000D03*
D18*
X114250000Y-86500000D03*
X123750000Y-86500000D03*
D19*
X116500000Y-94000000D03*
D20*
X119000000Y-94000000D03*
X121500000Y-94000000D03*
D19*
X124730000Y-53500000D03*
D20*
X127270000Y-53500000D03*
D12*
X146900000Y-70790000D03*
D11*
X146900000Y-80950000D03*
D12*
X63500000Y-119200000D03*
D11*
X53340000Y-119200000D03*
D21*
X63340000Y-62400000D03*
D22*
X73500000Y-62400000D03*
D10*
X144000000Y-70790000D03*
D11*
X144000000Y-78410000D03*
D23*
X54000000Y-54000000D03*
D12*
X124780000Y-150500000D03*
D11*
X114620000Y-150500000D03*
D12*
X96180000Y-120700000D03*
D11*
X86020000Y-120700000D03*
D10*
X81700000Y-153710000D03*
D11*
X81700000Y-146090000D03*
D10*
X72410000Y-71400000D03*
D11*
X64790000Y-71400000D03*
D12*
X136080000Y-78000000D03*
D11*
X125920000Y-78000000D03*
D12*
X63500000Y-134300000D03*
D11*
X53340000Y-134300000D03*
D12*
X53340000Y-128100000D03*
D11*
X63500000Y-128100000D03*
D12*
X53340000Y-113000000D03*
D11*
X63500000Y-113000000D03*
D12*
X97980000Y-79000000D03*
D11*
X87820000Y-79000000D03*
D12*
X96180000Y-105094230D03*
D11*
X86020000Y-105094230D03*
D12*
X96180000Y-117500000D03*
D11*
X86020000Y-117500000D03*
D10*
X141400000Y-78410000D03*
D11*
X141400000Y-70790000D03*
D23*
X147000000Y-156000000D03*
D12*
X53340000Y-131200000D03*
D11*
X63500000Y-131200000D03*
D12*
X124780000Y-153600000D03*
D11*
X114620000Y-153600000D03*
D12*
X74915000Y-109800000D03*
X79915000Y-109800000D03*
X53340000Y-122300000D03*
D11*
X63500000Y-122300000D03*
D12*
X96180000Y-108200000D03*
D11*
X86020000Y-108200000D03*
D14*
X139000000Y-135520000D03*
D15*
X139000000Y-146920000D03*
X139000000Y-138620000D03*
D23*
X96000000Y-156000000D03*
D10*
X68200000Y-153720000D03*
D11*
X68200000Y-146100000D03*
D24*
X119200000Y-140000000D03*
X128800000Y-140000000D03*
D19*
X121500000Y-147500000D03*
D20*
X124000000Y-147500000D03*
X126500000Y-147500000D03*
D10*
X73600000Y-153710000D03*
D11*
X73600000Y-146090000D03*
D10*
X70900000Y-153720000D03*
D11*
X70900000Y-146100000D03*
D12*
X89700000Y-62930000D03*
D11*
X89700000Y-52770000D03*
D13*
X134300000Y-128000000D03*
X139000000Y-128000000D03*
X143700000Y-128000000D03*
D12*
X140660000Y-52300000D03*
D11*
X130500000Y-52300000D03*
D13*
X134300000Y-110000000D03*
X139000000Y-110000000D03*
X143700000Y-110000000D03*
D19*
X103460000Y-62000000D03*
D20*
X106000000Y-62000000D03*
D18*
X121250000Y-66225000D03*
X130750000Y-66225000D03*
D19*
X123500000Y-73725000D03*
D20*
X126000000Y-73725000D03*
X128500000Y-73725000D03*
D12*
X78100000Y-137710000D03*
X78100000Y-142710000D03*
D25*
X82540000Y-113000000D03*
D26*
X80000000Y-113000000D03*
X77460000Y-113000000D03*
X74920000Y-113000000D03*
X72380000Y-113000000D03*
X69840000Y-113000000D03*
X67300000Y-113000000D03*
X67300000Y-120620000D03*
X69840000Y-120620000D03*
X72380000Y-120620000D03*
X74920000Y-120620000D03*
X77460000Y-120620000D03*
X80000000Y-120620000D03*
X82540000Y-120620000D03*
D14*
X110000000Y-102520000D03*
D15*
X110000000Y-113920000D03*
X110000000Y-105620000D03*
D12*
X79900000Y-123800000D03*
X74900000Y-123800000D03*
X127200000Y-153600000D03*
D11*
X137360000Y-153600000D03*
D10*
X53340000Y-125200000D03*
D11*
X60960000Y-125200000D03*
D12*
X71900000Y-137710000D03*
X71900000Y-142710000D03*
X129020000Y-96800000D03*
D11*
X139180000Y-96800000D03*
D23*
X54000000Y-156000000D03*
D12*
X96180000Y-111300000D03*
D11*
X86020000Y-111300000D03*
D21*
X76500000Y-62400000D03*
D22*
X86660000Y-62400000D03*
D24*
X119200000Y-125000000D03*
X128800000Y-125000000D03*
D19*
X121500000Y-132500000D03*
D20*
X124000000Y-132500000D03*
X126500000Y-132500000D03*
D23*
X147000000Y-54000000D03*
X105000000Y-54000000D03*
X105000000Y-156000000D03*
D12*
X80000000Y-71200000D03*
X75000000Y-71200000D03*
D10*
X76300000Y-153710000D03*
D11*
X76300000Y-146090000D03*
D23*
X96000000Y-54000000D03*
D12*
X64790000Y-65800000D03*
D11*
X74950000Y-65800000D03*
D16*
X97000000Y-140000000D03*
D17*
X97000000Y-137460000D03*
X97000000Y-134920000D03*
X97000000Y-132380000D03*
D12*
X75000000Y-137710000D03*
X75000000Y-142710000D03*
X60400000Y-62900000D03*
D11*
X60400000Y-52740000D03*
D12*
X75000000Y-85200000D03*
X80000000Y-85200000D03*
D20*
X126500000Y-116500000D03*
X124000000Y-116500000D03*
D19*
X121500000Y-116500000D03*
D24*
X128800000Y-109000000D03*
X119200000Y-109000000D03*
D12*
X63500000Y-137400000D03*
D11*
X53340000Y-137400000D03*
D25*
X67375000Y-82000000D03*
D26*
X69915000Y-82000000D03*
X72455000Y-82000000D03*
X74995000Y-82000000D03*
X77535000Y-82000000D03*
X80075000Y-82000000D03*
X82615000Y-82000000D03*
X82615000Y-74380000D03*
X80075000Y-74380000D03*
X77535000Y-74380000D03*
X74995000Y-74380000D03*
X72455000Y-74380000D03*
X69915000Y-74380000D03*
X67375000Y-74380000D03*
D27*
X140540000Y-56600000D03*
D28*
X139270000Y-58670000D03*
X138000000Y-56600000D03*
D12*
X87820000Y-75800000D03*
D11*
X97980000Y-75800000D03*
D12*
X127200000Y-150500000D03*
D11*
X137360000Y-150500000D03*
D12*
X68800000Y-137710000D03*
X68800000Y-142710000D03*
X82800000Y-67800000D03*
X87800000Y-67800000D03*
D16*
X148000000Y-140000000D03*
D17*
X148000000Y-137460000D03*
X148000000Y-134920000D03*
X148000000Y-132380000D03*
D29*
X95772600Y-67000000D03*
D30*
X93772600Y-67000000D03*
D16*
X104000000Y-75000000D03*
D17*
X104000000Y-77540000D03*
X104000000Y-80080000D03*
X104000000Y-82620000D03*
X104000000Y-85160000D03*
X104000000Y-87700000D03*
X104000000Y-90240000D03*
X104000000Y-92780000D03*
D10*
X56500000Y-61000000D03*
D12*
X54000000Y-61000000D03*
D29*
X56300000Y-66800000D03*
D30*
X54300000Y-66800000D03*
D31*
X80080000Y-57000000D03*
D32*
X80080000Y-54460000D03*
X77540000Y-57000000D03*
X77540000Y-54460000D03*
X75000000Y-57000000D03*
X75000000Y-54460000D03*
X72460000Y-57000000D03*
X72460000Y-54460000D03*
X69920000Y-57000000D03*
X69920000Y-54460000D03*
D10*
X96082380Y-61200000D03*
D12*
X93582380Y-61200000D03*
D16*
X148000000Y-85000000D03*
D17*
X148000000Y-87540000D03*
X148000000Y-90080000D03*
X148000000Y-92620000D03*
D12*
X93500000Y-87600000D03*
X88500000Y-87600000D03*
M02*
