%TF.GenerationSoftware,KiCad,Pcbnew,8.0.2-1*%
%TF.CreationDate,2024-05-20T21:15:53+02:00*%
%TF.ProjectId,low-orbit,6c6f772d-6f72-4626-9974-2e6b69636164,rev?*%
%TF.SameCoordinates,Original*%
%TF.FileFunction,Soldermask,Bot*%
%TF.FilePolarity,Negative*%
%FSLAX46Y46*%
G04 Gerber Fmt 4.6, Leading zero omitted, Abs format (unit mm)*
G04 Created by KiCad (PCBNEW 8.0.2-1) date 2024-05-20 21:15:53*
%MOMM*%
%LPD*%
G01*
G04 APERTURE LIST*
G04 Aperture macros list*
%AMRoundRect*
0 Rectangle with rounded corners*
0 $1 Rounding radius*
0 $2 $3 $4 $5 $6 $7 $8 $9 X,Y pos of 4 corners*
0 Add a 4 corners polygon primitive as box body*
4,1,4,$2,$3,$4,$5,$6,$7,$8,$9,$2,$3,0*
0 Add four circle primitives for the rounded corners*
1,1,$1+$1,$2,$3*
1,1,$1+$1,$4,$5*
1,1,$1+$1,$6,$7*
1,1,$1+$1,$8,$9*
0 Add four rect primitives between the rounded corners*
20,1,$1+$1,$2,$3,$4,$5,0*
20,1,$1+$1,$4,$5,$6,$7,0*
20,1,$1+$1,$6,$7,$8,$9,0*
20,1,$1+$1,$8,$9,$2,$3,0*%
G04 Aperture macros list end*
%ADD10C,1.600000*%
%ADD11O,1.600000X1.600000*%
%ADD12O,4.000000X4.000000*%
%ADD13R,1.800000X1.800000*%
%ADD14C,1.800000*%
%ADD15C,3.200000*%
%ADD16R,2.200000X2.200000*%
%ADD17O,2.200000X2.200000*%
%ADD18C,3.240000*%
%ADD19R,1.930000X1.830000*%
%ADD20C,2.130000*%
%ADD21R,1.600000X1.600000*%
%ADD22R,1.830000X1.930000*%
%ADD23R,1.700000X1.700000*%
%ADD24O,1.700000X1.700000*%
%ADD25C,2.000000*%
%ADD26R,1.100000X1.800000*%
%ADD27RoundRect,0.275000X-0.275000X-0.625000X0.275000X-0.625000X0.275000X0.625000X-0.275000X0.625000X0*%
%ADD28R,2.400000X1.600000*%
%ADD29O,2.400000X1.600000*%
%ADD30R,1.200000X1.200000*%
%ADD31C,1.200000*%
%ADD32RoundRect,0.250000X0.600000X-0.600000X0.600000X0.600000X-0.600000X0.600000X-0.600000X-0.600000X0*%
%ADD33C,1.700000*%
G04 APERTURE END LIST*
D10*
%TO.C,C11*%
X71000000Y-159500000D03*
X71000000Y-154500000D03*
%TD*%
%TO.C,R14*%
X74420000Y-137000000D03*
D11*
X84580000Y-137000000D03*
%TD*%
D10*
%TO.C,R6*%
X53920000Y-127000000D03*
D11*
X64080000Y-127000000D03*
%TD*%
D10*
%TO.C,C4*%
X56000000Y-87005000D03*
X56000000Y-82005000D03*
%TD*%
D12*
%TO.C,RES_INT1*%
X96250000Y-86000000D03*
X105750000Y-86000000D03*
D13*
X98500000Y-93500000D03*
D14*
X101000000Y-93500000D03*
X103500000Y-93500000D03*
%TD*%
D15*
%TO.C,H9*%
X95000000Y-77000000D03*
%TD*%
%TO.C,H8*%
X86000000Y-157000000D03*
%TD*%
D16*
%TO.C,D3*%
X52000000Y-71960000D03*
D17*
X52000000Y-61800000D03*
%TD*%
D10*
%TO.C,R5*%
X105970000Y-141500000D03*
D11*
X116130000Y-141500000D03*
%TD*%
D10*
%TO.C,R9*%
X64080000Y-120500000D03*
D11*
X53920000Y-120500000D03*
%TD*%
D10*
%TO.C,R12*%
X84580000Y-114300000D03*
D11*
X74420000Y-114300000D03*
%TD*%
D18*
%TO.C,CV_CTL_IN_1*%
X94200000Y-126000000D03*
X103800000Y-126000000D03*
D13*
X96500000Y-133500000D03*
D14*
X99000000Y-133500000D03*
X101500000Y-133500000D03*
%TD*%
D10*
%TO.C,C12*%
X74250000Y-159500000D03*
X74250000Y-154500000D03*
%TD*%
%TO.C,R19*%
X74420000Y-130500000D03*
D11*
X84580000Y-130500000D03*
%TD*%
D10*
%TO.C,C1*%
X69900000Y-108000000D03*
X69900000Y-113000000D03*
%TD*%
D19*
%TO.C,J2*%
X99000000Y-137520000D03*
D20*
X99000000Y-148920000D03*
X99000000Y-140620000D03*
%TD*%
D21*
%TO.C,D10*%
X83750000Y-151810000D03*
D11*
X83750000Y-144190000D03*
%TD*%
D12*
%TO.C,CUTOFF1*%
X106250000Y-60000000D03*
X115750000Y-60000000D03*
D13*
X108500000Y-67500000D03*
D14*
X111000000Y-67500000D03*
X113500000Y-67500000D03*
%TD*%
D10*
%TO.C,C2*%
X52750000Y-140920000D03*
X52750000Y-135920000D03*
%TD*%
%TO.C,R7*%
X116130000Y-144750000D03*
D11*
X105970000Y-144750000D03*
%TD*%
D21*
%TO.C,D8*%
X77500000Y-151810000D03*
D11*
X77500000Y-144190000D03*
%TD*%
D10*
%TO.C,C3*%
X70300000Y-81755000D03*
X70300000Y-86755000D03*
%TD*%
%TO.C,R8*%
X53970000Y-123750000D03*
D11*
X64130000Y-123750000D03*
%TD*%
D16*
%TO.C,D4*%
X76000000Y-61830000D03*
D17*
X76000000Y-51670000D03*
%TD*%
D15*
%TO.C,H5*%
X127000000Y-54000000D03*
%TD*%
D22*
%TO.C,J1*%
X117480000Y-114000000D03*
D20*
X106080000Y-114000000D03*
X114380000Y-114000000D03*
%TD*%
D12*
%TO.C,RES_AMOUNT1*%
X116250000Y-86000000D03*
X125750000Y-86000000D03*
D13*
X118500000Y-93500000D03*
D14*
X121000000Y-93500000D03*
X123500000Y-93500000D03*
%TD*%
D10*
%TO.C,R3*%
X98000000Y-63080000D03*
D11*
X98000000Y-52920000D03*
%TD*%
D23*
%TO.C,H4*%
X86000000Y-78000000D03*
D24*
X86000000Y-75460000D03*
X86000000Y-72920000D03*
X86000000Y-70380000D03*
X86000000Y-67840000D03*
X86000000Y-65300000D03*
X86000000Y-62760000D03*
X86000000Y-60220000D03*
%TD*%
D10*
%TO.C,R2*%
X64030000Y-130250000D03*
D11*
X53870000Y-130250000D03*
%TD*%
D15*
%TO.C,H11*%
X54000000Y-77000000D03*
%TD*%
D18*
%TO.C,CV_CTL_IN_2*%
X118200000Y-126000000D03*
X127800000Y-126000000D03*
D13*
X120500000Y-133500000D03*
D14*
X123000000Y-133500000D03*
X125500000Y-133500000D03*
%TD*%
D23*
%TO.C,H2*%
X86000000Y-104000000D03*
D24*
X86000000Y-101460000D03*
X86000000Y-98920000D03*
X86000000Y-96380000D03*
%TD*%
D25*
%TO.C,TP10*%
X123400000Y-78000000D03*
%TD*%
D15*
%TO.C,H6*%
X54000000Y-157000000D03*
%TD*%
D10*
%TO.C,R21*%
X65000000Y-108080000D03*
D11*
X65000000Y-97920000D03*
%TD*%
D10*
%TO.C,R20*%
X84580000Y-127250000D03*
D11*
X74420000Y-127250000D03*
%TD*%
D10*
%TO.C,R18*%
X79250000Y-61780000D03*
D11*
X79250000Y-51620000D03*
%TD*%
D10*
%TO.C,R4*%
X116030000Y-138250000D03*
D11*
X105870000Y-138250000D03*
%TD*%
D10*
%TO.C,R10*%
X54965000Y-97910000D03*
D11*
X54965000Y-108070000D03*
%TD*%
D21*
%TO.C,D6*%
X71000000Y-151810000D03*
D11*
X71000000Y-144190000D03*
%TD*%
D10*
%TO.C,R17*%
X55300000Y-61470000D03*
D11*
X55300000Y-71630000D03*
%TD*%
D10*
%TO.C,R11*%
X84580000Y-117500000D03*
D11*
X74420000Y-117500000D03*
%TD*%
D21*
%TO.C,D11*%
X68215000Y-97930000D03*
D11*
X68215000Y-105550000D03*
%TD*%
D19*
%TO.C,J3*%
X123000000Y-137520000D03*
D20*
X123000000Y-148920000D03*
X123000000Y-140620000D03*
%TD*%
D10*
%TO.C,C10*%
X67750000Y-159500000D03*
X67750000Y-154500000D03*
%TD*%
%TO.C,C5*%
X67000000Y-136420000D03*
X67000000Y-141420000D03*
%TD*%
D21*
%TO.C,D5*%
X67750000Y-151810000D03*
D11*
X67750000Y-144190000D03*
%TD*%
D21*
%TO.C,D12*%
X71065000Y-97930000D03*
D11*
X71065000Y-105550000D03*
%TD*%
D10*
%TO.C,R15*%
X74420000Y-133750000D03*
D11*
X84580000Y-133750000D03*
%TD*%
D13*
%TO.C,D1*%
X109725000Y-127000000D03*
D14*
X112265000Y-127000000D03*
%TD*%
D10*
%TO.C,C14*%
X80750000Y-159500000D03*
X80750000Y-154500000D03*
%TD*%
%TO.C,C13*%
X77500000Y-159500000D03*
X77500000Y-154500000D03*
%TD*%
D21*
%TO.C,D7*%
X74250000Y-151810000D03*
D11*
X74250000Y-144190000D03*
%TD*%
D22*
%TO.C,J5*%
X104520000Y-156000000D03*
D20*
X115920000Y-156000000D03*
X107620000Y-156000000D03*
%TD*%
D18*
%TO.C,INPUT_LVL1*%
X106200000Y-100000000D03*
X115800000Y-100000000D03*
D13*
X108500000Y-107500000D03*
D14*
X111000000Y-107500000D03*
X113500000Y-107500000D03*
%TD*%
D15*
%TO.C,H7*%
X86000000Y-54000000D03*
%TD*%
D21*
%TO.C,D9*%
X80750000Y-151810000D03*
D11*
X80750000Y-144190000D03*
%TD*%
D21*
%TO.C,D2*%
X61810000Y-117500000D03*
D11*
X54190000Y-117500000D03*
%TD*%
D10*
%TO.C,R22*%
X61650000Y-97890000D03*
D11*
X61650000Y-108050000D03*
%TD*%
D10*
%TO.C,R26*%
X105970000Y-148000000D03*
D11*
X116130000Y-148000000D03*
%TD*%
D10*
%TO.C,R25*%
X84580000Y-111100000D03*
D11*
X74420000Y-111100000D03*
%TD*%
D25*
%TO.C,TP2*%
X123200000Y-104000000D03*
%TD*%
D10*
%TO.C,R13*%
X74420000Y-120750000D03*
D11*
X84580000Y-120750000D03*
%TD*%
D15*
%TO.C,H12*%
X95000000Y-157000000D03*
%TD*%
D10*
%TO.C,C15*%
X54000000Y-95000000D03*
X54000000Y-90000000D03*
%TD*%
D26*
%TO.C,Q1*%
X79730000Y-101170000D03*
D27*
X81000000Y-99100000D03*
X82270000Y-101170000D03*
%TD*%
D28*
%TO.C,U2*%
X56000000Y-133920000D03*
D29*
X56000000Y-136460000D03*
X56000000Y-139000000D03*
X56000000Y-141540000D03*
X56000000Y-144080000D03*
X56000000Y-146620000D03*
X56000000Y-149160000D03*
X63620000Y-149160000D03*
X63620000Y-146620000D03*
X63620000Y-144080000D03*
X63620000Y-141540000D03*
X63620000Y-139000000D03*
X63620000Y-136460000D03*
X63620000Y-133920000D03*
%TD*%
D28*
%TO.C,U1*%
X59200000Y-79380000D03*
D29*
X59200000Y-81920000D03*
X59200000Y-84460000D03*
X59200000Y-87000000D03*
X59200000Y-89540000D03*
X59200000Y-92080000D03*
X59200000Y-94620000D03*
X66820000Y-94620000D03*
X66820000Y-92080000D03*
X66820000Y-89540000D03*
X66820000Y-87000000D03*
X66820000Y-84460000D03*
X66820000Y-81920000D03*
X66820000Y-79380000D03*
%TD*%
D10*
%TO.C,R23*%
X58250000Y-108080000D03*
D11*
X58250000Y-97920000D03*
%TD*%
D10*
%TO.C,R1*%
X102000000Y-52840000D03*
D11*
X102000000Y-63000000D03*
%TD*%
D10*
%TO.C,R24*%
X94000000Y-63080000D03*
D11*
X94000000Y-52920000D03*
%TD*%
D10*
%TO.C,R16*%
X84580000Y-124000000D03*
D11*
X74420000Y-124000000D03*
%TD*%
D15*
%TO.C,H10*%
X127000000Y-157000000D03*
%TD*%
D30*
%TO.C,C8*%
X61000000Y-70000000D03*
D31*
X63000000Y-70000000D03*
%TD*%
D23*
%TO.C,H3*%
X127000000Y-78000000D03*
D24*
X127000000Y-75460000D03*
X127000000Y-72920000D03*
X127000000Y-70380000D03*
X127000000Y-67840000D03*
X127000000Y-65300000D03*
X127000000Y-62760000D03*
X127000000Y-60220000D03*
%TD*%
D25*
%TO.C,TP5*%
X66900000Y-75200000D03*
%TD*%
D21*
%TO.C,C7*%
X67000000Y-64000000D03*
D10*
X69500000Y-64000000D03*
%TD*%
D25*
%TO.C,TP1*%
X67100000Y-127000000D03*
%TD*%
D32*
%TO.C,J4*%
X66000000Y-56540000D03*
D33*
X66000000Y-54000000D03*
X63460000Y-56540000D03*
X63460000Y-54000000D03*
X60920000Y-56540000D03*
X60920000Y-54000000D03*
X58380000Y-56540000D03*
X58380000Y-54000000D03*
X55840000Y-56540000D03*
X55840000Y-54000000D03*
%TD*%
D25*
%TO.C,TP6*%
X69400000Y-124600000D03*
%TD*%
%TO.C,TP13*%
X81300000Y-68700000D03*
%TD*%
D30*
%TO.C,C9*%
X67000000Y-70000000D03*
D31*
X69000000Y-70000000D03*
%TD*%
D25*
%TO.C,TP12*%
X85200000Y-92900000D03*
%TD*%
%TO.C,TP11*%
X74100000Y-96700000D03*
%TD*%
%TO.C,TP14*%
X81200000Y-64900000D03*
%TD*%
%TO.C,TP15*%
X73500000Y-66900000D03*
%TD*%
%TO.C,TP7*%
X71500000Y-127100000D03*
%TD*%
%TO.C,TP9*%
X59100000Y-76000000D03*
%TD*%
D21*
%TO.C,C6*%
X60000000Y-64000000D03*
D10*
X62500000Y-64000000D03*
%TD*%
D25*
%TO.C,TP8*%
X86000000Y-81600000D03*
%TD*%
%TO.C,TP4*%
X71700000Y-118100000D03*
%TD*%
D23*
%TO.C,H1*%
X127000000Y-104000000D03*
D24*
X127000000Y-101460000D03*
X127000000Y-98920000D03*
X127000000Y-96380000D03*
%TD*%
D25*
%TO.C,TP3*%
X81700000Y-95600000D03*
%TD*%
M02*
