G04 #@! TF.GenerationSoftware,KiCad,Pcbnew,8.0.5*
G04 #@! TF.CreationDate,2024-10-20T20:29:36+02:00*
G04 #@! TF.ProjectId,midi-2-cv,6d696469-2d32-42d6-9376-2e6b69636164,rev?*
G04 #@! TF.SameCoordinates,Original*
G04 #@! TF.FileFunction,Paste,Top*
G04 #@! TF.FilePolarity,Positive*
%FSLAX46Y46*%
G04 Gerber Fmt 4.6, Leading zero omitted, Abs format (unit mm)*
G04 Created by KiCad (PCBNEW 8.0.5) date 2024-10-20 20:29:36*
%MOMM*%
%LPD*%
G01*
G04 APERTURE LIST*
G04 Aperture macros list*
%AMRoundRect*
0 Rectangle with rounded corners*
0 $1 Rounding radius*
0 $2 $3 $4 $5 $6 $7 $8 $9 X,Y pos of 4 corners*
0 Add a 4 corners polygon primitive as box body*
4,1,4,$2,$3,$4,$5,$6,$7,$8,$9,$2,$3,0*
0 Add four circle primitives for the rounded corners*
1,1,$1+$1,$2,$3*
1,1,$1+$1,$4,$5*
1,1,$1+$1,$6,$7*
1,1,$1+$1,$8,$9*
0 Add four rect primitives between the rounded corners*
20,1,$1+$1,$2,$3,$4,$5,0*
20,1,$1+$1,$4,$5,$6,$7,0*
20,1,$1+$1,$6,$7,$8,$9,0*
20,1,$1+$1,$8,$9,$2,$3,0*%
G04 Aperture macros list end*
%ADD10RoundRect,0.250000X0.350000X0.450000X-0.350000X0.450000X-0.350000X-0.450000X0.350000X-0.450000X0*%
%ADD11RoundRect,0.250000X-0.350000X-0.450000X0.350000X-0.450000X0.350000X0.450000X-0.350000X0.450000X0*%
%ADD12RoundRect,0.250000X0.450000X-0.350000X0.450000X0.350000X-0.450000X0.350000X-0.450000X-0.350000X0*%
%ADD13RoundRect,0.150000X0.587500X0.150000X-0.587500X0.150000X-0.587500X-0.150000X0.587500X-0.150000X0*%
%ADD14RoundRect,0.250000X0.337500X0.475000X-0.337500X0.475000X-0.337500X-0.475000X0.337500X-0.475000X0*%
%ADD15RoundRect,0.250000X-0.337500X-0.475000X0.337500X-0.475000X0.337500X0.475000X-0.337500X0.475000X0*%
%ADD16RoundRect,0.250000X-0.475000X0.337500X-0.475000X-0.337500X0.475000X-0.337500X0.475000X0.337500X0*%
%ADD17RoundRect,0.250000X0.265000X-0.265000X0.265000X0.265000X-0.265000X0.265000X-0.265000X-0.265000X0*%
%ADD18RoundRect,0.062500X0.062500X-0.337500X0.062500X0.337500X-0.062500X0.337500X-0.062500X-0.337500X0*%
%ADD19RoundRect,0.062500X0.337500X-0.062500X0.337500X0.062500X-0.337500X0.062500X-0.337500X-0.062500X0*%
%ADD20RoundRect,0.087500X0.087500X-0.725000X0.087500X0.725000X-0.087500X0.725000X-0.087500X-0.725000X0*%
%ADD21RoundRect,0.250000X-0.450000X0.350000X-0.450000X-0.350000X0.450000X-0.350000X0.450000X0.350000X0*%
%ADD22RoundRect,0.250000X0.475000X-0.337500X0.475000X0.337500X-0.475000X0.337500X-0.475000X-0.337500X0*%
%ADD23RoundRect,0.150000X-0.825000X-0.150000X0.825000X-0.150000X0.825000X0.150000X-0.825000X0.150000X0*%
%ADD24RoundRect,0.150000X-0.150000X0.825000X-0.150000X-0.825000X0.150000X-0.825000X0.150000X0.825000X0*%
%ADD25RoundRect,0.225000X-0.225000X-0.375000X0.225000X-0.375000X0.225000X0.375000X-0.225000X0.375000X0*%
G04 APERTURE END LIST*
D10*
X113900000Y-99800000D03*
X111900000Y-99800000D03*
D11*
X73030000Y-101700000D03*
X75030000Y-101700000D03*
D10*
X76970000Y-121400000D03*
X74970000Y-121400000D03*
D12*
X102380000Y-98500000D03*
X102380000Y-96500000D03*
D13*
X111400000Y-77900000D03*
X111400000Y-76000000D03*
X109525000Y-76950000D03*
D14*
X97037500Y-83700000D03*
X94962500Y-83700000D03*
X77037500Y-123500000D03*
X74962500Y-123500000D03*
X90037500Y-103800000D03*
X87962500Y-103800000D03*
D10*
X89970000Y-105900000D03*
X87970000Y-105900000D03*
D15*
X93962500Y-144250000D03*
X96037500Y-144250000D03*
D10*
X113900000Y-101800000D03*
X111900000Y-101800000D03*
X76970000Y-125600000D03*
X74970000Y-125600000D03*
D11*
X82000000Y-87700000D03*
X84000000Y-87700000D03*
D16*
X85825000Y-91062500D03*
X85825000Y-93137500D03*
D17*
X85645000Y-145905000D03*
X86915000Y-145905000D03*
X88185000Y-145905000D03*
X89455000Y-145905000D03*
X85645000Y-144635000D03*
X86915000Y-144635000D03*
X88185000Y-144635000D03*
X89455000Y-144635000D03*
X85645000Y-143365000D03*
X86915000Y-143365000D03*
X88185000Y-143365000D03*
X89455000Y-143365000D03*
X85645000Y-142095000D03*
X86915000Y-142095000D03*
X88185000Y-142095000D03*
X89455000Y-142095000D03*
D18*
X84800000Y-147450000D03*
X85300000Y-147450000D03*
X85800000Y-147450000D03*
X86300000Y-147450000D03*
X86800000Y-147450000D03*
X87300000Y-147450000D03*
X87800000Y-147450000D03*
X88300000Y-147450000D03*
X88800000Y-147450000D03*
X89300000Y-147450000D03*
X89800000Y-147450000D03*
X90300000Y-147450000D03*
D19*
X91000000Y-146750000D03*
X91000000Y-146250000D03*
X91000000Y-145750000D03*
X91000000Y-145250000D03*
X91000000Y-144750000D03*
X91000000Y-144250000D03*
X91000000Y-143750000D03*
X91000000Y-143250000D03*
X91000000Y-142750000D03*
X91000000Y-142250000D03*
X91000000Y-141750000D03*
X91000000Y-141250000D03*
D18*
X90300000Y-140550000D03*
X89800000Y-140550000D03*
X89300000Y-140550000D03*
X88800000Y-140550000D03*
X88300000Y-140550000D03*
X87800000Y-140550000D03*
X87300000Y-140550000D03*
X86800000Y-140550000D03*
X86300000Y-140550000D03*
X85800000Y-140550000D03*
X85300000Y-140550000D03*
X84800000Y-140550000D03*
D19*
X84100000Y-141250000D03*
X84100000Y-141750000D03*
X84100000Y-142250000D03*
X84100000Y-142750000D03*
X84100000Y-143250000D03*
X84100000Y-143750000D03*
X84100000Y-144250000D03*
X84100000Y-144750000D03*
X84100000Y-145250000D03*
X84100000Y-145750000D03*
X84100000Y-146250000D03*
X84100000Y-146750000D03*
D20*
X67400000Y-133512500D03*
X67900000Y-133512500D03*
X68400000Y-133512500D03*
X68900000Y-133512500D03*
X69400000Y-133512500D03*
X69400000Y-129287500D03*
X68900000Y-129287500D03*
X68400000Y-129287500D03*
X67900000Y-129287500D03*
X67400000Y-129287500D03*
D12*
X102380000Y-78500000D03*
X102380000Y-76500000D03*
D11*
X80030000Y-81600000D03*
X82030000Y-81600000D03*
D21*
X52000000Y-80300000D03*
X52000000Y-82300000D03*
D10*
X69200000Y-144400000D03*
X67200000Y-144400000D03*
X88700000Y-99600000D03*
X86700000Y-99600000D03*
D12*
X102380000Y-118500000D03*
X102380000Y-116500000D03*
D22*
X56000000Y-81037500D03*
X56000000Y-78962500D03*
D10*
X114000000Y-80000000D03*
X112000000Y-80000000D03*
D11*
X62300000Y-127600000D03*
X64300000Y-127600000D03*
D12*
X77000000Y-151750000D03*
X77000000Y-149750000D03*
D22*
X79700000Y-153237500D03*
X79700000Y-151162500D03*
D10*
X75700000Y-127700000D03*
X73700000Y-127700000D03*
D15*
X77162500Y-113900000D03*
X79237500Y-113900000D03*
D10*
X89970000Y-101700000D03*
X87970000Y-101700000D03*
D21*
X122300000Y-155900000D03*
X122300000Y-157900000D03*
D16*
X88000000Y-151195000D03*
X88000000Y-153270000D03*
D10*
X69200000Y-138300000D03*
X67200000Y-138300000D03*
D11*
X75200000Y-107900000D03*
X77200000Y-107900000D03*
D12*
X60000000Y-93700000D03*
X60000000Y-91700000D03*
D11*
X61030000Y-121400000D03*
X63030000Y-121400000D03*
X62300000Y-119400000D03*
X64300000Y-119400000D03*
D10*
X88700000Y-107900000D03*
X86700000Y-107900000D03*
D20*
X81000000Y-113812500D03*
X81500000Y-113812500D03*
X82000000Y-113812500D03*
X82500000Y-113812500D03*
X83000000Y-113812500D03*
X83000000Y-109587500D03*
X82500000Y-109587500D03*
X82000000Y-109587500D03*
X81500000Y-109587500D03*
X81000000Y-109587500D03*
D11*
X61030000Y-125600000D03*
X63030000Y-125600000D03*
D23*
X86325000Y-79890000D03*
X86325000Y-81160000D03*
X86325000Y-82430000D03*
X86325000Y-83700000D03*
X86325000Y-84970000D03*
X86325000Y-86240000D03*
X86325000Y-87510000D03*
X91275000Y-87510000D03*
X91275000Y-86240000D03*
X91275000Y-84970000D03*
X91275000Y-83700000D03*
X91275000Y-82430000D03*
X91275000Y-81160000D03*
X91275000Y-79890000D03*
D16*
X81750000Y-137712500D03*
X81750000Y-139787500D03*
D11*
X75200000Y-99700000D03*
X77200000Y-99700000D03*
D24*
X59810000Y-84525000D03*
X58540000Y-84525000D03*
X57270000Y-84525000D03*
X56000000Y-84525000D03*
X54730000Y-84525000D03*
X53460000Y-84525000D03*
X52190000Y-84525000D03*
X52190000Y-89475000D03*
X53460000Y-89475000D03*
X54730000Y-89475000D03*
X56000000Y-89475000D03*
X57270000Y-89475000D03*
X58540000Y-89475000D03*
X59810000Y-89475000D03*
D12*
X52000000Y-93700000D03*
X52000000Y-91700000D03*
X102380000Y-58500000D03*
X102380000Y-56500000D03*
D14*
X75037500Y-103800000D03*
X72962500Y-103800000D03*
D22*
X81950000Y-153237500D03*
X81950000Y-151162500D03*
D14*
X82037500Y-83640000D03*
X79962500Y-83640000D03*
D13*
X111400000Y-97900000D03*
X111400000Y-96000000D03*
X109525000Y-96950000D03*
D21*
X54000000Y-79030000D03*
X54000000Y-81030000D03*
D11*
X73030000Y-105900000D03*
X75030000Y-105900000D03*
D10*
X96970000Y-85700000D03*
X94970000Y-85700000D03*
D21*
X60000000Y-80300000D03*
X60000000Y-82300000D03*
D10*
X114000000Y-122500000D03*
X112000000Y-122500000D03*
D12*
X113800000Y-78000000D03*
X113800000Y-76000000D03*
D16*
X98000000Y-146962500D03*
X98000000Y-149037500D03*
D15*
X63062500Y-131200000D03*
X65137500Y-131200000D03*
D10*
X69200000Y-142300000D03*
X67200000Y-142300000D03*
X95500000Y-87700000D03*
X93500000Y-87700000D03*
X95500000Y-79700000D03*
X93500000Y-79700000D03*
D25*
X128950000Y-147400000D03*
X132250000Y-147400000D03*
D11*
X130000000Y-145000000D03*
X132000000Y-145000000D03*
D22*
X56000000Y-95037500D03*
X56000000Y-92962500D03*
D10*
X75700000Y-119400000D03*
X73700000Y-119400000D03*
D11*
X80030000Y-85700000D03*
X82030000Y-85700000D03*
D23*
X66525000Y-119650000D03*
X66525000Y-120920000D03*
X66525000Y-122190000D03*
X66525000Y-123460000D03*
X66525000Y-124730000D03*
X66525000Y-126000000D03*
X66525000Y-127270000D03*
X71475000Y-127270000D03*
X71475000Y-126000000D03*
X71475000Y-124730000D03*
X71475000Y-123460000D03*
X71475000Y-122190000D03*
X71475000Y-120920000D03*
X71475000Y-119650000D03*
D12*
X58000000Y-94970000D03*
X58000000Y-92970000D03*
D14*
X96037500Y-141250000D03*
X93962500Y-141250000D03*
D23*
X79450000Y-99960000D03*
X79450000Y-101230000D03*
X79450000Y-102500000D03*
X79450000Y-103770000D03*
X79450000Y-105040000D03*
X79450000Y-106310000D03*
X79450000Y-107580000D03*
X84400000Y-107580000D03*
X84400000Y-106310000D03*
X84400000Y-105040000D03*
X84400000Y-103770000D03*
X84400000Y-102500000D03*
X84400000Y-101230000D03*
X84400000Y-99960000D03*
D13*
X111437500Y-117950000D03*
X111437500Y-116050000D03*
X109562500Y-117000000D03*
D10*
X96970000Y-81700000D03*
X94970000Y-81700000D03*
D12*
X54000000Y-94970000D03*
X54000000Y-92970000D03*
D11*
X82000000Y-79600000D03*
X84000000Y-79600000D03*
D13*
X111400000Y-57900000D03*
X111400000Y-56000000D03*
X109525000Y-56950000D03*
D10*
X114000000Y-62600000D03*
X112000000Y-62600000D03*
X114000000Y-120500000D03*
X112000000Y-120500000D03*
X69200000Y-140300000D03*
X67200000Y-140300000D03*
D21*
X58000000Y-79030000D03*
X58000000Y-81030000D03*
D10*
X114000000Y-60500000D03*
X112000000Y-60500000D03*
D14*
X63037500Y-123500000D03*
X60962500Y-123500000D03*
D20*
X87725000Y-93700000D03*
X88225000Y-93700000D03*
X88725000Y-93700000D03*
X89225000Y-93700000D03*
X89725000Y-93700000D03*
X89725000Y-89475000D03*
X89225000Y-89475000D03*
X88725000Y-89475000D03*
X88225000Y-89475000D03*
X87725000Y-89475000D03*
M02*
