G04 #@! TF.GenerationSoftware,KiCad,Pcbnew,8.0.2-1*
G04 #@! TF.CreationDate,2024-09-25T20:20:04+02:00*
G04 #@! TF.ProjectId,midi-2-cv,6d696469-2d32-42d6-9376-2e6b69636164,rev?*
G04 #@! TF.SameCoordinates,Original*
G04 #@! TF.FileFunction,Soldermask,Top*
G04 #@! TF.FilePolarity,Negative*
%FSLAX46Y46*%
G04 Gerber Fmt 4.6, Leading zero omitted, Abs format (unit mm)*
G04 Created by KiCad (PCBNEW 8.0.2-1) date 2024-09-25 20:20:04*
%MOMM*%
%LPD*%
G01*
G04 APERTURE LIST*
G04 Aperture macros list*
%AMRoundRect*
0 Rectangle with rounded corners*
0 $1 Rounding radius*
0 $2 $3 $4 $5 $6 $7 $8 $9 X,Y pos of 4 corners*
0 Add a 4 corners polygon primitive as box body*
4,1,4,$2,$3,$4,$5,$6,$7,$8,$9,$2,$3,0*
0 Add four circle primitives for the rounded corners*
1,1,$1+$1,$2,$3*
1,1,$1+$1,$4,$5*
1,1,$1+$1,$6,$7*
1,1,$1+$1,$8,$9*
0 Add four rect primitives between the rounded corners*
20,1,$1+$1,$2,$3,$4,$5,0*
20,1,$1+$1,$4,$5,$6,$7,0*
20,1,$1+$1,$6,$7,$8,$9,0*
20,1,$1+$1,$8,$9,$2,$3,0*%
%AMFreePoly0*
4,1,9,5.362500,-0.866500,1.237500,-0.866500,1.237500,-0.450000,-1.237500,-0.450000,-1.237500,0.450000,1.237500,0.450000,1.237500,0.866500,5.362500,0.866500,5.362500,-0.866500,5.362500,-0.866500,$1*%
G04 Aperture macros list end*
%ADD10C,2.000000*%
%ADD11RoundRect,0.250000X-0.350000X-0.450000X0.350000X-0.450000X0.350000X0.450000X-0.350000X0.450000X0*%
%ADD12R,1.930000X1.830000*%
%ADD13C,2.130000*%
%ADD14RoundRect,0.150000X0.825000X0.150000X-0.825000X0.150000X-0.825000X-0.150000X0.825000X-0.150000X0*%
%ADD15RoundRect,0.150000X-0.825000X-0.150000X0.825000X-0.150000X0.825000X0.150000X-0.825000X0.150000X0*%
%ADD16RoundRect,0.087500X-0.087500X0.725000X-0.087500X-0.725000X0.087500X-0.725000X0.087500X0.725000X0*%
%ADD17RoundRect,0.250000X0.350000X0.450000X-0.350000X0.450000X-0.350000X-0.450000X0.350000X-0.450000X0*%
%ADD18RoundRect,0.250000X0.450000X-0.350000X0.450000X0.350000X-0.450000X0.350000X-0.450000X-0.350000X0*%
%ADD19RoundRect,0.225000X-0.225000X-0.375000X0.225000X-0.375000X0.225000X0.375000X-0.225000X0.375000X0*%
%ADD20R,1.700000X1.700000*%
%ADD21O,1.700000X1.700000*%
%ADD22R,1.800000X1.800000*%
%ADD23C,1.800000*%
%ADD24RoundRect,0.250000X0.475000X-0.337500X0.475000X0.337500X-0.475000X0.337500X-0.475000X-0.337500X0*%
%ADD25RoundRect,0.250000X0.337500X0.475000X-0.337500X0.475000X-0.337500X-0.475000X0.337500X-0.475000X0*%
%ADD26RoundRect,0.087500X0.087500X-0.725000X0.087500X0.725000X-0.087500X0.725000X-0.087500X-0.725000X0*%
%ADD27RoundRect,0.250000X-0.450000X0.350000X-0.450000X-0.350000X0.450000X-0.350000X0.450000X0.350000X0*%
%ADD28O,2.000000X2.000000*%
%ADD29R,2.000000X2.000000*%
%ADD30RoundRect,0.250000X-0.337500X-0.475000X0.337500X-0.475000X0.337500X0.475000X-0.337500X0.475000X0*%
%ADD31RoundRect,0.225000X0.925000X0.225000X-0.925000X0.225000X-0.925000X-0.225000X0.925000X-0.225000X0*%
%ADD32FreePoly0,180.000000*%
%ADD33C,2.850000*%
%ADD34R,1.600000X1.600000*%
%ADD35O,1.600000X1.600000*%
%ADD36RoundRect,0.150000X-0.150000X0.825000X-0.150000X-0.825000X0.150000X-0.825000X0.150000X0.825000X0*%
%ADD37R,1.200000X1.200000*%
%ADD38C,1.200000*%
%ADD39C,1.600000*%
%ADD40C,1.620000*%
%ADD41RoundRect,0.250000X-0.600000X-0.600000X0.600000X-0.600000X0.600000X0.600000X-0.600000X0.600000X0*%
%ADD42C,1.700000*%
G04 APERTURE END LIST*
D10*
X53000000Y-122800000D03*
X74700000Y-119800000D03*
X62800000Y-76200000D03*
X53100000Y-75700000D03*
X60600000Y-99500000D03*
X53100000Y-99600000D03*
X73000000Y-156200000D03*
X67000000Y-148500000D03*
X76300000Y-102600000D03*
X75300000Y-63300000D03*
X75300000Y-56800000D03*
X75300000Y-60000000D03*
D11*
X83700000Y-83100000D03*
X85700000Y-83100000D03*
D12*
X134000000Y-92480000D03*
D13*
X134000000Y-81080000D03*
X134000000Y-89380000D03*
D14*
X67200000Y-128750000D03*
X67200000Y-127480000D03*
X67200000Y-126210000D03*
X67200000Y-124940000D03*
X67200000Y-123670000D03*
X67200000Y-122400000D03*
X67200000Y-121130000D03*
X62250000Y-121130000D03*
X62250000Y-122400000D03*
X62250000Y-123670000D03*
X62250000Y-124940000D03*
X62250000Y-126210000D03*
X62250000Y-127480000D03*
X62250000Y-128750000D03*
D12*
X145000000Y-112480000D03*
D13*
X145000000Y-101080000D03*
X145000000Y-109380000D03*
D15*
X76487500Y-84092500D03*
X76487500Y-85362500D03*
X76487500Y-86632500D03*
X76487500Y-87902500D03*
X76487500Y-89172500D03*
X76487500Y-90442500D03*
X76487500Y-91712500D03*
X81437500Y-91712500D03*
X81437500Y-90442500D03*
X81437500Y-89172500D03*
X81437500Y-87902500D03*
X81437500Y-86632500D03*
X81437500Y-85362500D03*
X81437500Y-84092500D03*
D12*
X107000000Y-72480000D03*
D13*
X107000000Y-61080000D03*
X107000000Y-69380000D03*
D16*
X89750000Y-56615000D03*
X89250000Y-56615000D03*
X88750000Y-56615000D03*
X88250000Y-56615000D03*
X87750000Y-56615000D03*
X87750000Y-60840000D03*
X88250000Y-60840000D03*
X88750000Y-60840000D03*
X89250000Y-60840000D03*
X89750000Y-60840000D03*
D17*
X61500000Y-138400000D03*
X59500000Y-138400000D03*
D18*
X103000000Y-98500000D03*
X103000000Y-96500000D03*
D12*
X145000000Y-92480000D03*
D13*
X145000000Y-81080000D03*
X145000000Y-89380000D03*
D12*
X134000000Y-112480000D03*
D13*
X134000000Y-101080000D03*
X134000000Y-109380000D03*
D19*
X130450000Y-147600000D03*
X133750000Y-147600000D03*
D12*
X123000000Y-72480000D03*
D13*
X123000000Y-61080000D03*
X123000000Y-69380000D03*
D20*
X66000000Y-116000000D03*
D21*
X68540000Y-116000000D03*
X71080000Y-116000000D03*
X73620000Y-116000000D03*
D17*
X71500000Y-122800000D03*
X69500000Y-122800000D03*
D12*
X123000000Y-132480000D03*
D13*
X123000000Y-121080000D03*
X123000000Y-129380000D03*
D17*
X59900000Y-120800000D03*
X57900000Y-120800000D03*
X74200000Y-92100000D03*
X72200000Y-92100000D03*
D22*
X105690000Y-57000000D03*
D23*
X108230000Y-57000000D03*
D12*
X107000000Y-92480000D03*
D13*
X107000000Y-81080000D03*
X107000000Y-89380000D03*
D20*
X66000000Y-157000000D03*
D21*
X68540000Y-157000000D03*
D12*
X123000000Y-112480000D03*
D13*
X123000000Y-101080000D03*
X123000000Y-109380000D03*
D24*
X56420000Y-94187500D03*
X56420000Y-92112500D03*
D11*
X57900000Y-122800000D03*
X59900000Y-122800000D03*
D15*
X86200000Y-63090000D03*
X86200000Y-64360000D03*
X86200000Y-65630000D03*
X86200000Y-66900000D03*
X86200000Y-68170000D03*
X86200000Y-69440000D03*
X86200000Y-70710000D03*
X91150000Y-70710000D03*
X91150000Y-69440000D03*
X91150000Y-68170000D03*
X91150000Y-66900000D03*
X91150000Y-65630000D03*
X91150000Y-64360000D03*
X91150000Y-63090000D03*
D18*
X103000000Y-78500000D03*
X103000000Y-76500000D03*
D12*
X134000000Y-132480000D03*
D13*
X134000000Y-121080000D03*
X134000000Y-129380000D03*
D11*
X69500000Y-120700000D03*
X71500000Y-120700000D03*
D22*
X105690000Y-77000000D03*
D23*
X108230000Y-77000000D03*
D17*
X83900000Y-62100000D03*
X81900000Y-62100000D03*
D25*
X83737500Y-77787500D03*
X81662500Y-77787500D03*
D26*
X63612500Y-134832500D03*
X64112500Y-134832500D03*
X64612500Y-134832500D03*
X65112500Y-134832500D03*
X65612500Y-134832500D03*
X65612500Y-130607500D03*
X65112500Y-130607500D03*
X64612500Y-130607500D03*
X64112500Y-130607500D03*
X63612500Y-130607500D03*
D18*
X60520000Y-82650000D03*
X60520000Y-80650000D03*
X52220000Y-82650000D03*
X52220000Y-80650000D03*
X103000000Y-118500000D03*
X103000000Y-116500000D03*
D17*
X69700000Y-142800000D03*
X67700000Y-142800000D03*
D12*
X107000000Y-112480000D03*
D13*
X107000000Y-101080000D03*
X107000000Y-109380000D03*
D25*
X85767500Y-87302500D03*
X83692500Y-87302500D03*
D20*
X117000000Y-153000000D03*
D21*
X119540000Y-153000000D03*
D12*
X145000000Y-72480000D03*
D13*
X145000000Y-61080000D03*
X145000000Y-69380000D03*
D16*
X79900000Y-77875000D03*
X79400000Y-77875000D03*
X78900000Y-77875000D03*
X78400000Y-77875000D03*
X77900000Y-77875000D03*
X77900000Y-82100000D03*
X78400000Y-82100000D03*
X78900000Y-82100000D03*
X79400000Y-82100000D03*
X79900000Y-82100000D03*
D12*
X107000000Y-132480000D03*
D13*
X107000000Y-121080000D03*
X107000000Y-129380000D03*
D22*
X105690000Y-97000000D03*
D23*
X108230000Y-97000000D03*
D18*
X54320000Y-94150000D03*
X54320000Y-92150000D03*
X59900000Y-115000000D03*
X59900000Y-113000000D03*
D11*
X72200000Y-90000000D03*
X74200000Y-90000000D03*
D17*
X95400000Y-68400000D03*
X93400000Y-68400000D03*
X95400000Y-64200000D03*
X93400000Y-64200000D03*
D11*
X81900000Y-64200000D03*
X83900000Y-64200000D03*
D17*
X69700000Y-138800000D03*
X67700000Y-138800000D03*
D11*
X131500000Y-145250000D03*
X133500000Y-145250000D03*
D12*
X123000000Y-92480000D03*
D13*
X123000000Y-81080000D03*
X123000000Y-89380000D03*
D27*
X59600000Y-142600000D03*
X59600000Y-144600000D03*
D12*
X134000000Y-72480000D03*
D13*
X134000000Y-61080000D03*
X134000000Y-69380000D03*
D25*
X83907500Y-66300000D03*
X81832500Y-66300000D03*
D28*
X147500000Y-151000000D03*
X145889087Y-154889087D03*
X142000000Y-156500000D03*
X138110913Y-154889087D03*
X136500000Y-151000000D03*
D29*
X142000000Y-146500000D03*
D20*
X73000000Y-136000000D03*
D21*
X73000000Y-138540000D03*
X73000000Y-141080000D03*
X73000000Y-143620000D03*
D11*
X69500000Y-129100000D03*
X71500000Y-129100000D03*
D30*
X57832500Y-124920000D03*
X59907500Y-124920000D03*
D17*
X69700000Y-136800000D03*
X67700000Y-136800000D03*
D20*
X89880000Y-52500000D03*
D21*
X92420000Y-52500000D03*
X94960000Y-52500000D03*
X97500000Y-52500000D03*
D18*
X103000000Y-58500000D03*
X103000000Y-56500000D03*
D11*
X57900000Y-127000000D03*
X59900000Y-127000000D03*
D20*
X64000000Y-84000000D03*
D21*
X64000000Y-86540000D03*
X64000000Y-89080000D03*
X64000000Y-91620000D03*
D20*
X79000000Y-96000000D03*
D21*
X81540000Y-96000000D03*
X84080000Y-96000000D03*
X86620000Y-96000000D03*
D25*
X95467500Y-66300000D03*
X93392500Y-66300000D03*
D27*
X54220000Y-80650000D03*
X54220000Y-82650000D03*
D17*
X85700000Y-85200000D03*
X83700000Y-85200000D03*
D30*
X59825000Y-134920000D03*
X61900000Y-134920000D03*
D17*
X74200000Y-83800000D03*
X72200000Y-83800000D03*
X83900000Y-70500000D03*
X81900000Y-70500000D03*
D12*
X145000000Y-132480000D03*
D13*
X145000000Y-121080000D03*
X145000000Y-129380000D03*
D11*
X93400000Y-70500000D03*
X95400000Y-70500000D03*
D17*
X85700000Y-89400000D03*
X83700000Y-89400000D03*
D27*
X123250000Y-154500000D03*
X123250000Y-156500000D03*
D18*
X58520000Y-94150000D03*
X58520000Y-92150000D03*
D25*
X93787500Y-56727500D03*
X91712500Y-56727500D03*
D30*
X69492500Y-124920000D03*
X71567500Y-124920000D03*
D22*
X105690000Y-117000000D03*
D23*
X108230000Y-117000000D03*
D24*
X56320000Y-82687500D03*
X56320000Y-80612500D03*
D27*
X58420000Y-80650000D03*
X58420000Y-82650000D03*
D11*
X93400000Y-62100000D03*
X95400000Y-62100000D03*
D20*
X66000000Y-153000000D03*
D21*
X68540000Y-153000000D03*
D27*
X60620000Y-92150000D03*
X60620000Y-94150000D03*
X52320000Y-92150000D03*
X52320000Y-94150000D03*
D17*
X71500000Y-127000000D03*
X69500000Y-127000000D03*
D11*
X83700000Y-91500000D03*
X85700000Y-91500000D03*
D31*
X74550000Y-112200000D03*
D32*
X74462500Y-110700000D03*
D31*
X74550000Y-109200000D03*
D33*
X107000000Y-154450000D03*
X107000000Y-149750000D03*
X107000000Y-145050000D03*
D11*
X72200000Y-85900000D03*
X74200000Y-85900000D03*
X81900000Y-68400000D03*
X83900000Y-68400000D03*
D17*
X59900000Y-129800000D03*
X57900000Y-129800000D03*
D34*
X133000000Y-157900000D03*
D35*
X133000000Y-155360000D03*
X133000000Y-152820000D03*
X133000000Y-150280000D03*
X125380000Y-150280000D03*
X125380000Y-152820000D03*
X125380000Y-155360000D03*
X125380000Y-157900000D03*
D20*
X90000000Y-76000000D03*
D21*
X92540000Y-76000000D03*
X95080000Y-76000000D03*
X97620000Y-76000000D03*
D36*
X60240000Y-84950000D03*
X58970000Y-84950000D03*
X57700000Y-84950000D03*
X56430000Y-84950000D03*
X55160000Y-84950000D03*
X53890000Y-84950000D03*
X52620000Y-84950000D03*
X52620000Y-89900000D03*
X53890000Y-89900000D03*
X55160000Y-89900000D03*
X56430000Y-89900000D03*
X57700000Y-89900000D03*
X58970000Y-89900000D03*
X60240000Y-89900000D03*
D25*
X74207500Y-87902500D03*
X72132500Y-87902500D03*
D27*
X59600000Y-150000000D03*
X59600000Y-152000000D03*
D17*
X69700000Y-140800000D03*
X67700000Y-140800000D03*
D20*
X117000000Y-116000000D03*
D21*
X119540000Y-116000000D03*
X122080000Y-116000000D03*
X124620000Y-116000000D03*
D37*
X72700000Y-106572600D03*
D38*
X72700000Y-104572600D03*
D34*
X63990241Y-63317621D03*
D39*
X63990241Y-65817621D03*
D40*
X57400000Y-144400000D03*
X52400000Y-141900000D03*
X57400000Y-139400000D03*
D20*
X117000000Y-157000000D03*
D21*
X119540000Y-157000000D03*
D37*
X67272600Y-111200000D03*
D38*
X65272600Y-111200000D03*
D41*
X53960000Y-66000000D03*
D42*
X56500000Y-66000000D03*
X53960000Y-63460000D03*
X56500000Y-63460000D03*
X53960000Y-60920000D03*
X56500000Y-60920000D03*
X53960000Y-58380000D03*
X56500000Y-58380000D03*
X53960000Y-55840000D03*
X56500000Y-55840000D03*
D20*
X115000000Y-84000000D03*
D21*
X115000000Y-86540000D03*
X115000000Y-89080000D03*
X115000000Y-91620000D03*
D34*
X64000000Y-56317621D03*
D39*
X64000000Y-58817621D03*
D20*
X124000000Y-136000000D03*
D21*
X124000000Y-138540000D03*
X124000000Y-141080000D03*
X124000000Y-143620000D03*
D40*
X57400000Y-151800000D03*
X52400000Y-149300000D03*
X57400000Y-146800000D03*
D37*
X70000000Y-57500000D03*
D38*
X70000000Y-59500000D03*
D40*
X57400000Y-137000000D03*
X52400000Y-134500000D03*
X57400000Y-132000000D03*
D37*
X70027401Y-62500000D03*
D38*
X70027401Y-64500000D03*
D20*
X141000000Y-76000000D03*
D21*
X143540000Y-76000000D03*
X146080000Y-76000000D03*
X148620000Y-76000000D03*
D20*
X130000000Y-96000000D03*
D21*
X132540000Y-96000000D03*
X135080000Y-96000000D03*
X137620000Y-96000000D03*
D20*
X95500000Y-107870000D03*
D42*
X95500000Y-110410000D03*
X95500000Y-112950000D03*
X95500000Y-115490000D03*
X95500000Y-118030000D03*
X95500000Y-120570000D03*
X95500000Y-123110000D03*
X95500000Y-125650000D03*
X95500000Y-128190000D03*
X95500000Y-130730000D03*
X95500000Y-133270000D03*
X95500000Y-135810000D03*
X95500000Y-138350000D03*
X95500000Y-140890000D03*
X95500000Y-143430000D03*
X95500000Y-145970000D03*
X95500000Y-148510000D03*
X95500000Y-151050000D03*
X95500000Y-153590000D03*
X95500000Y-156130000D03*
X80260000Y-156130000D03*
X80260000Y-153590000D03*
X80260000Y-151050000D03*
X80260000Y-148510000D03*
X80260000Y-145970000D03*
X80260000Y-143430000D03*
X80260000Y-140890000D03*
X80260000Y-138350000D03*
X80260000Y-135810000D03*
X80260000Y-133270000D03*
X80260000Y-130730000D03*
X80260000Y-128190000D03*
X80260000Y-125650000D03*
X80260000Y-123110000D03*
X80260000Y-120570000D03*
X80260000Y-118030000D03*
X80260000Y-115490000D03*
X80260000Y-112950000D03*
X80260000Y-110410000D03*
X80260000Y-107870000D03*
D40*
X52700000Y-118200000D03*
X55200000Y-113200000D03*
X57700000Y-118200000D03*
D20*
X140880000Y-52500000D03*
D21*
X143420000Y-52500000D03*
X145960000Y-52500000D03*
X148500000Y-52500000D03*
D10*
X53000000Y-128900000D03*
X62500000Y-118600000D03*
M02*
