G04 #@! TF.GenerationSoftware,KiCad,Pcbnew,8.0.2-1*
G04 #@! TF.CreationDate,2024-05-07T18:42:43+02:00*
G04 #@! TF.ProjectId,sensei,73656e73-6569-42e6-9b69-6361645f7063,rev?*
G04 #@! TF.SameCoordinates,Original*
G04 #@! TF.FileFunction,Copper,L1,Top*
G04 #@! TF.FilePolarity,Positive*
%FSLAX46Y46*%
G04 Gerber Fmt 4.6, Leading zero omitted, Abs format (unit mm)*
G04 Created by KiCad (PCBNEW 8.0.2-1) date 2024-05-07 18:42:43*
%MOMM*%
%LPD*%
G01*
G04 APERTURE LIST*
G04 Aperture macros list*
%AMRoundRect*
0 Rectangle with rounded corners*
0 $1 Rounding radius*
0 $2 $3 $4 $5 $6 $7 $8 $9 X,Y pos of 4 corners*
0 Add a 4 corners polygon primitive as box body*
4,1,4,$2,$3,$4,$5,$6,$7,$8,$9,$2,$3,0*
0 Add four circle primitives for the rounded corners*
1,1,$1+$1,$2,$3*
1,1,$1+$1,$4,$5*
1,1,$1+$1,$6,$7*
1,1,$1+$1,$8,$9*
0 Add four rect primitives between the rounded corners*
20,1,$1+$1,$2,$3,$4,$5,0*
20,1,$1+$1,$4,$5,$6,$7,0*
20,1,$1+$1,$6,$7,$8,$9,0*
20,1,$1+$1,$8,$9,$2,$3,0*%
G04 Aperture macros list end*
G04 #@! TA.AperFunction,ComponentPad*
%ADD10R,1.100000X1.800000*%
G04 #@! TD*
G04 #@! TA.AperFunction,ComponentPad*
%ADD11RoundRect,0.275000X-0.275000X-0.625000X0.275000X-0.625000X0.275000X0.625000X-0.275000X0.625000X0*%
G04 #@! TD*
G04 #@! TA.AperFunction,ComponentPad*
%ADD12R,1.700000X1.700000*%
G04 #@! TD*
G04 #@! TA.AperFunction,ComponentPad*
%ADD13O,1.700000X1.700000*%
G04 #@! TD*
G04 #@! TA.AperFunction,ComponentPad*
%ADD14R,1.800000X1.800000*%
G04 #@! TD*
G04 #@! TA.AperFunction,ComponentPad*
%ADD15C,1.800000*%
G04 #@! TD*
G04 #@! TA.AperFunction,ComponentPad*
%ADD16C,1.600000*%
G04 #@! TD*
G04 #@! TA.AperFunction,ComponentPad*
%ADD17O,1.600000X1.600000*%
G04 #@! TD*
G04 #@! TA.AperFunction,ComponentPad*
%ADD18R,1.930000X1.830000*%
G04 #@! TD*
G04 #@! TA.AperFunction,ComponentPad*
%ADD19C,2.130000*%
G04 #@! TD*
G04 #@! TA.AperFunction,ComponentPad*
%ADD20C,2.850000*%
G04 #@! TD*
G04 #@! TA.AperFunction,ComponentPad*
%ADD21O,4.000000X4.000000*%
G04 #@! TD*
G04 #@! TA.AperFunction,ComponentPad*
%ADD22R,2.200000X2.200000*%
G04 #@! TD*
G04 #@! TA.AperFunction,ComponentPad*
%ADD23O,2.200000X2.200000*%
G04 #@! TD*
G04 #@! TA.AperFunction,ComponentPad*
%ADD24R,1.600000X1.600000*%
G04 #@! TD*
G04 #@! TA.AperFunction,ComponentPad*
%ADD25C,2.000000*%
G04 #@! TD*
G04 #@! TA.AperFunction,ComponentPad*
%ADD26R,1.600000X2.400000*%
G04 #@! TD*
G04 #@! TA.AperFunction,ComponentPad*
%ADD27O,1.600000X2.400000*%
G04 #@! TD*
G04 #@! TA.AperFunction,ComponentPad*
%ADD28R,2.400000X1.600000*%
G04 #@! TD*
G04 #@! TA.AperFunction,ComponentPad*
%ADD29O,2.400000X1.600000*%
G04 #@! TD*
G04 #@! TA.AperFunction,ComponentPad*
%ADD30R,1.200000X1.200000*%
G04 #@! TD*
G04 #@! TA.AperFunction,ComponentPad*
%ADD31C,1.200000*%
G04 #@! TD*
G04 #@! TA.AperFunction,ComponentPad*
%ADD32C,1.440000*%
G04 #@! TD*
G04 #@! TA.AperFunction,ComponentPad*
%ADD33RoundRect,0.250000X-0.600000X-0.600000X0.600000X-0.600000X0.600000X0.600000X-0.600000X0.600000X0*%
G04 #@! TD*
G04 #@! TA.AperFunction,ComponentPad*
%ADD34C,1.700000*%
G04 #@! TD*
G04 #@! TA.AperFunction,ViaPad*
%ADD35C,0.800000*%
G04 #@! TD*
G04 #@! TA.AperFunction,Conductor*
%ADD36C,0.500000*%
G04 #@! TD*
G04 #@! TA.AperFunction,Conductor*
%ADD37C,0.300000*%
G04 #@! TD*
G04 #@! TA.AperFunction,Conductor*
%ADD38C,0.250000*%
G04 #@! TD*
G04 APERTURE END LIST*
D10*
X97000000Y-88400000D03*
D11*
X98270000Y-86330000D03*
X99540000Y-88400000D03*
D10*
X91000000Y-88400000D03*
D11*
X92270000Y-86330000D03*
X93540000Y-88400000D03*
D10*
X85000000Y-88400000D03*
D11*
X86270000Y-86330000D03*
X87540000Y-88400000D03*
D10*
X78730000Y-88400000D03*
D11*
X80000000Y-86330000D03*
X81270000Y-88400000D03*
D10*
X82730000Y-118670000D03*
D11*
X84000000Y-116600000D03*
X85270000Y-118670000D03*
D10*
X76000000Y-118670000D03*
D11*
X77270000Y-116600000D03*
X78540000Y-118670000D03*
D10*
X69730000Y-118670000D03*
D11*
X71000000Y-116600000D03*
X72270000Y-118670000D03*
D10*
X63730000Y-118670000D03*
D11*
X65000000Y-116600000D03*
X66270000Y-118670000D03*
D10*
X105860000Y-148200000D03*
D11*
X107130000Y-146130000D03*
X108400000Y-148200000D03*
D12*
X52500000Y-150000000D03*
D13*
X52500000Y-152540000D03*
X52500000Y-155080000D03*
X52500000Y-157620000D03*
D12*
X123500000Y-150000000D03*
D13*
X123500000Y-152540000D03*
X123500000Y-155080000D03*
X123500000Y-157620000D03*
D12*
X96000000Y-58000000D03*
D13*
X93460000Y-58000000D03*
X90920000Y-58000000D03*
X88380000Y-58000000D03*
D14*
X162210000Y-86000000D03*
D15*
X164750000Y-86000000D03*
D16*
X77250000Y-114030000D03*
D17*
X77250000Y-103870000D03*
D14*
X132210000Y-86000000D03*
D15*
X134750000Y-86000000D03*
D18*
X154000000Y-142000000D03*
D19*
X154000000Y-130600000D03*
X154000000Y-138900000D03*
D16*
X103030000Y-152500000D03*
D17*
X92870000Y-152500000D03*
D20*
X173800000Y-112500000D03*
X178500000Y-112500000D03*
X183200000Y-112500000D03*
D21*
X173750000Y-65025000D03*
X183250000Y-65025000D03*
D14*
X176000000Y-72525000D03*
D15*
X178500000Y-72525000D03*
X181000000Y-72525000D03*
D22*
X80610000Y-53940000D03*
D23*
X70450000Y-53940000D03*
D16*
X103030000Y-158900000D03*
D17*
X92870000Y-158900000D03*
D24*
X152500000Y-125000000D03*
D17*
X152500000Y-117380000D03*
D25*
X76800000Y-69340000D03*
D21*
X173750000Y-99925000D03*
X183250000Y-99925000D03*
D14*
X176000000Y-107425000D03*
D15*
X178500000Y-107425000D03*
X181000000Y-107425000D03*
D20*
X128800000Y-77500000D03*
X133500000Y-77500000D03*
X138200000Y-77500000D03*
D21*
X158750000Y-65025000D03*
X168250000Y-65025000D03*
D14*
X161000000Y-72525000D03*
D15*
X163500000Y-72525000D03*
X166000000Y-72525000D03*
D24*
X60000000Y-143310000D03*
D17*
X60000000Y-135690000D03*
D18*
X135000000Y-142000000D03*
D19*
X135000000Y-130600000D03*
X135000000Y-138900000D03*
D25*
X76800000Y-64940000D03*
D14*
X162210000Y-121000000D03*
D15*
X164750000Y-121000000D03*
D16*
X92770000Y-127000000D03*
D17*
X102930000Y-127000000D03*
D25*
X107000000Y-135800000D03*
D20*
X151500000Y-156700000D03*
X151500000Y-152000000D03*
X151500000Y-147300000D03*
D16*
X71000000Y-114030000D03*
D17*
X71000000Y-103870000D03*
D18*
X176000000Y-142000000D03*
D19*
X176000000Y-130600000D03*
X176000000Y-138900000D03*
D24*
X129500000Y-125000000D03*
D17*
X129500000Y-117380000D03*
D21*
X130250000Y-152000000D03*
X139750000Y-152000000D03*
D14*
X132500000Y-159500000D03*
D15*
X135000000Y-159500000D03*
X137500000Y-159500000D03*
D14*
X177210000Y-121000000D03*
D15*
X179750000Y-121000000D03*
D24*
X174500000Y-90000000D03*
D17*
X174500000Y-82380000D03*
D12*
X73000000Y-139000000D03*
D13*
X73000000Y-136460000D03*
X73000000Y-133920000D03*
X73000000Y-131380000D03*
D20*
X158800000Y-112500000D03*
X163500000Y-112500000D03*
X168200000Y-112500000D03*
D24*
X137500000Y-90000000D03*
D17*
X137500000Y-82380000D03*
D16*
X103030000Y-155700000D03*
D17*
X92870000Y-155700000D03*
D14*
X147210000Y-121000000D03*
D15*
X149750000Y-121000000D03*
D24*
X182500000Y-125000000D03*
D17*
X182500000Y-117380000D03*
D16*
X98250000Y-83830000D03*
D17*
X98250000Y-73670000D03*
D14*
X132210000Y-121000000D03*
D15*
X134750000Y-121000000D03*
D24*
X159540000Y-90000000D03*
D17*
X159540000Y-82380000D03*
D20*
X143800000Y-112500000D03*
X148500000Y-112500000D03*
X153200000Y-112500000D03*
D16*
X185500000Y-135230000D03*
D17*
X185500000Y-125070000D03*
D22*
X61850000Y-74740000D03*
D23*
X72010000Y-74740000D03*
D24*
X90310000Y-139750000D03*
D17*
X82690000Y-139750000D03*
D21*
X158750000Y-99925000D03*
X168250000Y-99925000D03*
D14*
X161000000Y-107425000D03*
D15*
X163500000Y-107425000D03*
X166000000Y-107425000D03*
D24*
X137500000Y-125000000D03*
D17*
X137500000Y-117380000D03*
D25*
X107000000Y-140500000D03*
D12*
X95000000Y-93000000D03*
D13*
X92460000Y-93000000D03*
X89920000Y-93000000D03*
X87380000Y-93000000D03*
D24*
X174500000Y-125000000D03*
D17*
X174500000Y-117380000D03*
D16*
X189000000Y-125210000D03*
D17*
X189000000Y-115050000D03*
D25*
X53000000Y-119000000D03*
D24*
X159500000Y-125000000D03*
D17*
X159500000Y-117380000D03*
D16*
X103030000Y-130200000D03*
D17*
X92870000Y-130200000D03*
D14*
X147210000Y-86000000D03*
D15*
X149750000Y-86000000D03*
D24*
X152500000Y-90000000D03*
D17*
X152500000Y-82380000D03*
D16*
X80000000Y-83830000D03*
D17*
X80000000Y-73670000D03*
D24*
X144500000Y-125000000D03*
D17*
X144500000Y-117380000D03*
D25*
X76800000Y-60540000D03*
D24*
X167525000Y-125000000D03*
D17*
X167525000Y-117380000D03*
D16*
X166500000Y-146890000D03*
D17*
X166500000Y-157050000D03*
D12*
X70000000Y-93000000D03*
D13*
X72540000Y-93000000D03*
X75080000Y-93000000D03*
X77620000Y-93000000D03*
D16*
X92770000Y-139700000D03*
D17*
X102930000Y-139700000D03*
D25*
X107000000Y-131200000D03*
D20*
X143800000Y-77500000D03*
X148500000Y-77500000D03*
X153200000Y-77500000D03*
D24*
X107280000Y-121000000D03*
D17*
X114900000Y-121000000D03*
D16*
X84000000Y-114030000D03*
D17*
X84000000Y-103870000D03*
D16*
X92770000Y-149300000D03*
D17*
X102930000Y-149300000D03*
D16*
X71790000Y-71540000D03*
D17*
X61630000Y-71540000D03*
D25*
X109700000Y-158900000D03*
D16*
X63050000Y-146030000D03*
D17*
X63050000Y-135870000D03*
D24*
X129500000Y-90000000D03*
D17*
X129500000Y-82380000D03*
D24*
X167540000Y-90000000D03*
D17*
X167540000Y-82380000D03*
D25*
X103300000Y-96800000D03*
D24*
X182500000Y-90000000D03*
D17*
X182500000Y-82380000D03*
D16*
X80290000Y-57200000D03*
D17*
X70130000Y-57200000D03*
D16*
X92770000Y-142900000D03*
D17*
X102930000Y-142900000D03*
D21*
X143750000Y-65000000D03*
X153250000Y-65000000D03*
D14*
X146000000Y-72500000D03*
D15*
X148500000Y-72500000D03*
X151000000Y-72500000D03*
D26*
X90220000Y-112620000D03*
D27*
X92760000Y-112620000D03*
X95300000Y-112620000D03*
X97840000Y-112620000D03*
X100380000Y-112620000D03*
X102920000Y-112620000D03*
X105460000Y-112620000D03*
X108000000Y-112620000D03*
X108000000Y-105000000D03*
X105460000Y-105000000D03*
X102920000Y-105000000D03*
X100380000Y-105000000D03*
X97840000Y-105000000D03*
X95300000Y-105000000D03*
X92760000Y-105000000D03*
X90220000Y-105000000D03*
D16*
X103030000Y-133300000D03*
D17*
X92870000Y-133300000D03*
D21*
X143750000Y-99925000D03*
X153250000Y-99925000D03*
D14*
X146000000Y-107425000D03*
D15*
X148500000Y-107425000D03*
X151000000Y-107425000D03*
D12*
X118000000Y-147500000D03*
D13*
X118000000Y-144960000D03*
X118000000Y-142420000D03*
X118000000Y-139880000D03*
X118000000Y-137340000D03*
X118000000Y-134800000D03*
X118000000Y-132260000D03*
X118000000Y-129720000D03*
D20*
X160500000Y-156700000D03*
X160500000Y-152000000D03*
X160500000Y-147300000D03*
D14*
X177210000Y-86000000D03*
D15*
X179750000Y-86000000D03*
D20*
X173800000Y-77500000D03*
X178500000Y-77500000D03*
X183200000Y-77500000D03*
D16*
X92770000Y-136500000D03*
D17*
X102930000Y-136500000D03*
D25*
X89800000Y-142900000D03*
D21*
X128750000Y-99925000D03*
X138250000Y-99925000D03*
D14*
X131000000Y-107425000D03*
D15*
X133500000Y-107425000D03*
X136000000Y-107425000D03*
D16*
X170000000Y-146890000D03*
D17*
X170000000Y-157050000D03*
D16*
X86200000Y-83830000D03*
D17*
X86200000Y-73670000D03*
D16*
X65000000Y-114030000D03*
D17*
X65000000Y-103870000D03*
D20*
X158800000Y-77500000D03*
X163500000Y-77500000D03*
X168200000Y-77500000D03*
D12*
X118000000Y-64800000D03*
D13*
X118000000Y-67340000D03*
X118000000Y-69880000D03*
X118000000Y-72420000D03*
X118000000Y-74960000D03*
X118000000Y-77500000D03*
X118000000Y-80040000D03*
X118000000Y-82580000D03*
D24*
X144500000Y-90000000D03*
D17*
X144500000Y-82380000D03*
D16*
X172890000Y-58100000D03*
D17*
X183050000Y-58100000D03*
D16*
X92250000Y-83830000D03*
D17*
X92250000Y-73670000D03*
D21*
X128750000Y-65025000D03*
X138250000Y-65025000D03*
D14*
X131000000Y-72525000D03*
D15*
X133500000Y-72525000D03*
X136000000Y-72525000D03*
D20*
X128800000Y-112500000D03*
X133500000Y-112500000D03*
X138200000Y-112500000D03*
D12*
X53000000Y-132540000D03*
D13*
X53000000Y-130000000D03*
X53000000Y-127460000D03*
X53000000Y-124920000D03*
D16*
X92770000Y-146100000D03*
D17*
X102930000Y-146100000D03*
D18*
X165000000Y-142000000D03*
D19*
X165000000Y-130600000D03*
X165000000Y-138900000D03*
D25*
X108000000Y-96900000D03*
D28*
X76200000Y-143375000D03*
D29*
X76200000Y-145915000D03*
X76200000Y-148455000D03*
X76200000Y-150995000D03*
X76200000Y-153535000D03*
X76200000Y-156075000D03*
X76200000Y-158615000D03*
X83820000Y-158615000D03*
X83820000Y-156075000D03*
X83820000Y-153535000D03*
X83820000Y-150995000D03*
X83820000Y-148455000D03*
X83820000Y-145915000D03*
X83820000Y-143375000D03*
D16*
X68000000Y-140955000D03*
X68000000Y-145955000D03*
D12*
X166000000Y-93000000D03*
D13*
X163460000Y-93000000D03*
X160920000Y-93000000D03*
X158380000Y-93000000D03*
D12*
X124000000Y-132620000D03*
D13*
X124000000Y-130080000D03*
X124000000Y-127540000D03*
X124000000Y-125000000D03*
D12*
X144000000Y-139000000D03*
D13*
X144000000Y-136460000D03*
X144000000Y-133920000D03*
X144000000Y-131380000D03*
D30*
X90220000Y-101620000D03*
D31*
X90220000Y-99620000D03*
D30*
X88972600Y-151000000D03*
D31*
X86972600Y-151000000D03*
D12*
X167000000Y-58000000D03*
D13*
X164460000Y-58000000D03*
X161920000Y-58000000D03*
X159380000Y-58000000D03*
D12*
X141000000Y-93000000D03*
D13*
X143540000Y-93000000D03*
X146080000Y-93000000D03*
X148620000Y-93000000D03*
D32*
X67000000Y-151160000D03*
X67000000Y-153700000D03*
X67000000Y-156240000D03*
D12*
X189000000Y-64920000D03*
D13*
X189000000Y-67460000D03*
X189000000Y-70000000D03*
X189000000Y-72540000D03*
X189000000Y-75080000D03*
X189000000Y-77620000D03*
X189000000Y-80160000D03*
X189000000Y-82700000D03*
D12*
X105200000Y-68480000D03*
D13*
X105200000Y-65940000D03*
X105200000Y-63400000D03*
D12*
X189000000Y-147540000D03*
D13*
X189000000Y-145000000D03*
X189000000Y-142460000D03*
X189000000Y-139920000D03*
X189000000Y-137380000D03*
X189000000Y-134840000D03*
X189000000Y-132300000D03*
X189000000Y-129760000D03*
D33*
X53800000Y-73680000D03*
D34*
X56340000Y-73680000D03*
X53800000Y-71140000D03*
X56340000Y-71140000D03*
X53800000Y-68600000D03*
X56340000Y-68600000D03*
X53800000Y-66060000D03*
X56340000Y-66060000D03*
X53800000Y-63520000D03*
X56340000Y-63520000D03*
X53800000Y-60980000D03*
X56340000Y-60980000D03*
X53800000Y-58440000D03*
X56340000Y-58440000D03*
X53800000Y-55900000D03*
X56340000Y-55900000D03*
D32*
X61000000Y-151160000D03*
X61000000Y-153700000D03*
X61000000Y-156240000D03*
D30*
X73250000Y-151000000D03*
D31*
X71250000Y-151000000D03*
D12*
X101400000Y-68460000D03*
D13*
X101400000Y-65920000D03*
X101400000Y-63380000D03*
D24*
X63200000Y-60140000D03*
D16*
X63200000Y-62140000D03*
D24*
X63200000Y-66140000D03*
D16*
X63200000Y-68140000D03*
D30*
X69200000Y-66140000D03*
D31*
X69200000Y-68140000D03*
D30*
X69200000Y-60140000D03*
D31*
X69200000Y-62140000D03*
D35*
X88750000Y-154250000D03*
D36*
X91320000Y-151000000D02*
X92820000Y-152500000D01*
X88972600Y-151000000D02*
X91320000Y-151000000D01*
D37*
X68000000Y-145955000D02*
X76160000Y-145955000D01*
X67045000Y-145955000D02*
X66970000Y-146030000D01*
X66970000Y-146030000D02*
X63050000Y-146030000D01*
X68000000Y-145955000D02*
X67045000Y-145955000D01*
X76160000Y-145955000D02*
X76200000Y-145915000D01*
D36*
X66360000Y-57140000D02*
X63360000Y-60140000D01*
X69600000Y-60540000D02*
X69200000Y-60140000D01*
X70100000Y-57140000D02*
X66360000Y-57140000D01*
X69200000Y-60140000D02*
X63200000Y-60140000D01*
X189000000Y-64000000D02*
X183000000Y-58000000D01*
X63360000Y-60140000D02*
X63200000Y-60140000D01*
X189000000Y-64920000D02*
X189000000Y-64000000D01*
X76800000Y-60540000D02*
X69600000Y-60540000D01*
X90220000Y-105000000D02*
X90220000Y-101620000D01*
X69200000Y-71200000D02*
X69200000Y-68140000D01*
X61600000Y-69740000D02*
X63200000Y-68140000D01*
X61600000Y-71540000D02*
X61600000Y-69740000D01*
X76800000Y-69340000D02*
X70400000Y-69340000D01*
X63200000Y-68140000D02*
X69200000Y-68140000D01*
X70400000Y-69340000D02*
X69200000Y-68140000D01*
X86972600Y-151000000D02*
X86972600Y-158717400D01*
X52500000Y-160500000D02*
X50500000Y-158500000D01*
X50500000Y-158500000D02*
X50500000Y-89900000D01*
X86972600Y-158717400D02*
X85190000Y-160500000D01*
X50500000Y-89900000D02*
X69200000Y-71200000D01*
X83825000Y-151000000D02*
X83820000Y-150995000D01*
X85190000Y-160500000D02*
X52500000Y-160500000D01*
X86972600Y-151000000D02*
X83825000Y-151000000D01*
D37*
X160500000Y-156390000D02*
X160500000Y-156700000D01*
X170000000Y-146890000D02*
X160500000Y-156390000D01*
X160500000Y-152000000D02*
X158000000Y-149500000D01*
X158000000Y-146500000D02*
X159500000Y-145000000D01*
X158000000Y-149500000D02*
X158000000Y-146500000D01*
X186460000Y-145000000D02*
X189000000Y-147540000D01*
X159500000Y-145000000D02*
X186460000Y-145000000D01*
X160500000Y-147300000D02*
X166090000Y-147300000D01*
X166090000Y-147300000D02*
X166500000Y-146890000D01*
X102960000Y-133300000D02*
X104900000Y-133300000D01*
X64893654Y-149500000D02*
X68000000Y-149500000D01*
X85250000Y-134500000D02*
X101760000Y-134500000D01*
X72035000Y-153535000D02*
X76200000Y-153535000D01*
X76200000Y-153535000D02*
X78250000Y-151485000D01*
X78250000Y-151485000D02*
X78250000Y-141500000D01*
X60000000Y-144606346D02*
X64893654Y-149500000D01*
X68000000Y-149500000D02*
X72035000Y-153535000D01*
X60000000Y-143310000D02*
X60000000Y-144606346D01*
X104900000Y-133300000D02*
X107000000Y-131200000D01*
X78250000Y-141500000D02*
X85250000Y-134500000D01*
X101760000Y-134500000D02*
X102960000Y-133300000D01*
X56000000Y-130460000D02*
X53000000Y-127460000D01*
X57564212Y-135690000D02*
X56000000Y-134125788D01*
X60000000Y-135690000D02*
X57564212Y-135690000D01*
X56000000Y-134125788D02*
X56000000Y-130460000D01*
X78750000Y-153525000D02*
X76200000Y-156075000D01*
X83957106Y-136500000D02*
X78750000Y-141707106D01*
X92800000Y-136500000D02*
X83957106Y-136500000D01*
X101300000Y-96800000D02*
X103300000Y-96800000D01*
X95300000Y-105000000D02*
X95300000Y-102800000D01*
X95300000Y-102800000D02*
X101300000Y-96800000D01*
X78750000Y-141707106D02*
X78750000Y-153525000D01*
X76200000Y-158615000D02*
X76200000Y-156075000D01*
X92800000Y-142900000D02*
X89800000Y-142900000D01*
X118000000Y-124100000D02*
X114900000Y-121000000D01*
X118000000Y-129720000D02*
X118000000Y-124100000D01*
D36*
X80560000Y-56840000D02*
X80260000Y-57140000D01*
X80560000Y-53940000D02*
X80560000Y-56840000D01*
X64240000Y-58200000D02*
X68500000Y-53940000D01*
X56640000Y-63560000D02*
X62000000Y-58200000D01*
X68500000Y-53940000D02*
X70400000Y-53940000D01*
X62000000Y-58200000D02*
X64240000Y-58200000D01*
D37*
X56640000Y-63560000D02*
X54100000Y-63560000D01*
D36*
X56640000Y-73720000D02*
X54100000Y-73720000D01*
X57660000Y-74740000D02*
X56640000Y-73720000D01*
X61900000Y-74740000D02*
X57660000Y-74740000D01*
X72060000Y-74740000D02*
X72060000Y-71840000D01*
X72060000Y-71840000D02*
X71760000Y-71540000D01*
D37*
X102980000Y-152500000D02*
X104111370Y-152500000D01*
X107130000Y-149481370D02*
X107130000Y-146530000D01*
X104111370Y-152500000D02*
X107130000Y-149481370D01*
X107000000Y-146400000D02*
X107130000Y-146530000D01*
X91810000Y-141250000D02*
X106250000Y-141250000D01*
X90310000Y-139750000D02*
X91810000Y-141250000D01*
X106250000Y-141250000D02*
X107000000Y-140500000D01*
X83820000Y-140880000D02*
X82690000Y-139750000D01*
X83820000Y-143375000D02*
X83820000Y-140880000D01*
X185500000Y-125020000D02*
X182520000Y-125020000D01*
X153650000Y-126150000D02*
X152500000Y-125000000D01*
X181350000Y-126150000D02*
X168675000Y-126150000D01*
X168675000Y-126150000D02*
X167525000Y-125000000D01*
X182500000Y-125000000D02*
X181350000Y-126150000D01*
X167525000Y-125000000D02*
X166375000Y-126150000D01*
X166375000Y-126150000D02*
X153650000Y-126150000D01*
X182520000Y-125020000D02*
X182500000Y-125000000D01*
X135900000Y-74900000D02*
X133500000Y-72500000D01*
X135900000Y-80780000D02*
X135900000Y-74900000D01*
X137500000Y-82380000D02*
X135900000Y-80780000D01*
X150900000Y-74875000D02*
X148500000Y-72475000D01*
X152500000Y-82380000D02*
X150900000Y-80780000D01*
X150900000Y-80780000D02*
X150900000Y-74875000D01*
X165900000Y-80740000D02*
X165900000Y-74900000D01*
X165900000Y-74900000D02*
X163500000Y-72500000D01*
X167540000Y-82380000D02*
X165900000Y-80740000D01*
X180900000Y-74900000D02*
X178500000Y-72500000D01*
X180900000Y-80780000D02*
X180900000Y-74900000D01*
X182500000Y-82380000D02*
X180900000Y-80780000D01*
X133500000Y-107500000D02*
X136425000Y-110425000D01*
X136425000Y-110425000D02*
X136425000Y-116305000D01*
X136425000Y-116305000D02*
X137500000Y-117380000D01*
X148500000Y-107500000D02*
X150275000Y-109275000D01*
X150275000Y-115155000D02*
X152500000Y-117380000D01*
X150275000Y-109275000D02*
X150275000Y-115155000D01*
X166425000Y-116280000D02*
X167525000Y-117380000D01*
X166425000Y-110425000D02*
X166425000Y-116280000D01*
X163500000Y-107500000D02*
X166425000Y-110425000D01*
X178500000Y-107500000D02*
X181425000Y-110425000D01*
X181425000Y-116305000D02*
X182500000Y-117380000D01*
X181425000Y-110425000D02*
X181425000Y-116305000D01*
X132210000Y-87010000D02*
X132210000Y-86000000D01*
X138200000Y-93000000D02*
X132210000Y-87010000D01*
X141000000Y-93000000D02*
X138200000Y-93000000D01*
X136250000Y-84500000D02*
X134750000Y-86000000D01*
X166350000Y-119400000D02*
X178150000Y-119400000D01*
X151350000Y-84400000D02*
X163150000Y-84400000D01*
X163150000Y-84400000D02*
X164750000Y-86000000D01*
X125900000Y-117000000D02*
X125900000Y-87100000D01*
X134750000Y-121000000D02*
X132650000Y-118900000D01*
X149750000Y-121000000D02*
X151350000Y-119400000D01*
X164750000Y-86000000D02*
X166350000Y-84400000D01*
X149750000Y-86000000D02*
X148250000Y-84500000D01*
X185600000Y-84800000D02*
X185600000Y-72100000D01*
X132650000Y-118900000D02*
X127800000Y-118900000D01*
X128500000Y-84500000D02*
X133250000Y-84500000D01*
X178150000Y-84400000D02*
X179750000Y-86000000D01*
X163150000Y-119400000D02*
X164750000Y-121000000D01*
X178150000Y-119400000D02*
X179750000Y-121000000D01*
X185600000Y-72100000D02*
X172840000Y-59340000D01*
X133250000Y-84500000D02*
X134750000Y-86000000D01*
X179750000Y-86000000D02*
X184400000Y-86000000D01*
X125900000Y-87100000D02*
X128500000Y-84500000D01*
X148250000Y-119500000D02*
X149750000Y-121000000D01*
X166350000Y-84400000D02*
X178150000Y-84400000D01*
X172840000Y-59340000D02*
X172840000Y-58000000D01*
X134750000Y-121000000D02*
X136250000Y-119500000D01*
X164750000Y-121000000D02*
X166350000Y-119400000D01*
X136250000Y-119500000D02*
X148250000Y-119500000D01*
X149750000Y-86000000D02*
X151350000Y-84400000D01*
X148250000Y-84500000D02*
X136250000Y-84500000D01*
X184400000Y-86000000D02*
X185600000Y-84800000D01*
X151350000Y-119400000D02*
X163150000Y-119400000D01*
X127800000Y-118900000D02*
X125900000Y-117000000D01*
X143540000Y-93000000D02*
X144300000Y-93000000D01*
X147210000Y-90090000D02*
X147210000Y-86000000D01*
X144300000Y-93000000D02*
X147210000Y-90090000D01*
X146080000Y-93000000D02*
X153080000Y-86000000D01*
X153080000Y-86000000D02*
X162210000Y-86000000D01*
X148620000Y-93000000D02*
X154240000Y-93000000D01*
X175910000Y-87300000D02*
X177210000Y-86000000D01*
X159940000Y-87300000D02*
X175910000Y-87300000D01*
X154240000Y-93000000D02*
X159940000Y-87300000D01*
X141600000Y-133600000D02*
X132210000Y-124210000D01*
X141600000Y-136600000D02*
X141600000Y-133600000D01*
X132210000Y-124210000D02*
X132210000Y-121000000D01*
X144000000Y-139000000D02*
X141600000Y-136600000D01*
X142100000Y-134560000D02*
X142100000Y-130875837D01*
X147210000Y-125765837D02*
X147210000Y-121000000D01*
X142100000Y-130875837D02*
X147210000Y-125765837D01*
X144000000Y-136460000D02*
X142100000Y-134560000D01*
X142600000Y-131082943D02*
X151932943Y-121750000D01*
X151932943Y-121750000D02*
X161460000Y-121750000D01*
X144000000Y-133920000D02*
X142600000Y-132520000D01*
X161460000Y-121750000D02*
X162210000Y-121000000D01*
X142600000Y-132520000D02*
X142600000Y-131082943D01*
X144000000Y-131380000D02*
X144000000Y-130390049D01*
X144000000Y-130390049D02*
X152140049Y-122250000D01*
X175960000Y-122250000D02*
X177210000Y-121000000D01*
X152140049Y-122250000D02*
X175960000Y-122250000D01*
X189000000Y-115900000D02*
X189000000Y-115000000D01*
X174500000Y-90000000D02*
X172900000Y-88400000D01*
X173100000Y-123600000D02*
X174500000Y-125000000D01*
X174500000Y-125000000D02*
X179900000Y-125000000D01*
X161140000Y-88400000D02*
X159540000Y-90000000D01*
X189000000Y-109073402D02*
X174500000Y-94573402D01*
X174500000Y-94573402D02*
X174500000Y-90000000D01*
X159500000Y-125000000D02*
X160900000Y-123600000D01*
X160900000Y-123600000D02*
X173100000Y-123600000D01*
X172900000Y-88400000D02*
X161140000Y-88400000D01*
X189000000Y-115000000D02*
X189000000Y-109073402D01*
X179900000Y-125000000D02*
X189000000Y-115900000D01*
X133500000Y-77500000D02*
X129500000Y-81500000D01*
X129500000Y-81500000D02*
X129500000Y-82380000D01*
X148500000Y-78380000D02*
X148500000Y-77500000D01*
X144500000Y-82380000D02*
X148500000Y-78380000D01*
X159540000Y-81460000D02*
X159540000Y-82380000D01*
X163500000Y-77500000D02*
X159540000Y-81460000D01*
X174500000Y-81500000D02*
X174500000Y-82380000D01*
X178500000Y-77500000D02*
X174500000Y-81500000D01*
X129500000Y-116500000D02*
X129500000Y-117380000D01*
X133500000Y-112500000D02*
X129500000Y-116500000D01*
X144500000Y-116500000D02*
X144500000Y-117380000D01*
X148500000Y-112500000D02*
X144500000Y-116500000D01*
X159500000Y-116500000D02*
X159500000Y-117380000D01*
X163500000Y-112500000D02*
X159500000Y-116500000D01*
X178500000Y-112500000D02*
X174500000Y-116500000D01*
X174500000Y-116500000D02*
X174500000Y-117380000D01*
D38*
X189000000Y-125160000D02*
X189000000Y-129760000D01*
X94870000Y-93000000D02*
X84000000Y-103870000D01*
X95000000Y-93000000D02*
X94870000Y-93000000D01*
X92460000Y-94773604D02*
X85183604Y-102050000D01*
X85183604Y-102050000D02*
X79070000Y-102050000D01*
X92460000Y-93000000D02*
X92460000Y-94773604D01*
X79070000Y-102050000D02*
X77250000Y-103870000D01*
X73270000Y-101600000D02*
X71000000Y-103870000D01*
X78586396Y-105650000D02*
X72780000Y-105650000D01*
X72780000Y-105650000D02*
X71000000Y-103870000D01*
X89920000Y-96677208D02*
X84997208Y-101600000D01*
X92760000Y-112620000D02*
X90930000Y-114450000D01*
X90930000Y-114450000D02*
X87386396Y-114450000D01*
X89920000Y-93000000D02*
X89920000Y-96677208D01*
X84997208Y-101600000D02*
X73270000Y-101600000D01*
X87386396Y-114450000D02*
X78586396Y-105650000D01*
X84810812Y-101150000D02*
X67720000Y-101150000D01*
X95300000Y-112620000D02*
X93020000Y-114900000D01*
X67720000Y-101150000D02*
X65000000Y-103870000D01*
X67230000Y-106100000D02*
X65000000Y-103870000D01*
X78400000Y-106100000D02*
X67230000Y-106100000D01*
X87200000Y-114900000D02*
X78400000Y-106100000D01*
X93020000Y-114900000D02*
X87200000Y-114900000D01*
X87380000Y-93000000D02*
X87380000Y-98580812D01*
X87380000Y-98580812D02*
X84810812Y-101150000D01*
X105790000Y-109750000D02*
X102920000Y-112620000D01*
X109500000Y-109750000D02*
X105790000Y-109750000D01*
X98250000Y-73670000D02*
X98250000Y-76113604D01*
X111000000Y-88863604D02*
X111000000Y-108250000D01*
X96000000Y-71420000D02*
X98250000Y-73670000D01*
X96000000Y-58000000D02*
X96000000Y-71420000D01*
X111000000Y-108250000D02*
X109500000Y-109750000D01*
X98250000Y-76113604D02*
X111000000Y-88863604D01*
X110550000Y-108063604D02*
X109313604Y-109300000D01*
X95090000Y-73590000D02*
X110550000Y-89050000D01*
X103700000Y-109300000D02*
X100380000Y-112620000D01*
X93460000Y-72380000D02*
X92250000Y-73590000D01*
X92250000Y-73590000D02*
X95090000Y-73590000D01*
X93460000Y-58000000D02*
X93460000Y-72380000D01*
X109313604Y-109300000D02*
X103700000Y-109300000D01*
X110550000Y-89050000D02*
X110550000Y-108063604D01*
X90920000Y-58000000D02*
X90920000Y-68920000D01*
X90920000Y-68920000D02*
X86250000Y-73590000D01*
X97113604Y-76250000D02*
X88910000Y-76250000D01*
X97113604Y-76250000D02*
X110100000Y-89236396D01*
X110100000Y-89236396D02*
X110100000Y-107877208D01*
X109227208Y-108750000D02*
X94090000Y-108750000D01*
X86250000Y-73590000D02*
X88910000Y-76250000D01*
X110100000Y-107877208D02*
X109227208Y-108750000D01*
X94090000Y-108750000D02*
X90220000Y-112620000D01*
X96927208Y-76700000D02*
X105460000Y-85232792D01*
X88380000Y-58000000D02*
X88380000Y-64960000D01*
X80000000Y-73340000D02*
X80000000Y-73640000D01*
X105460000Y-85232792D02*
X105460000Y-105000000D01*
X80000000Y-73640000D02*
X83060000Y-76700000D01*
X83060000Y-76700000D02*
X96927208Y-76700000D01*
X88380000Y-64960000D02*
X80000000Y-73340000D01*
X173800000Y-77500000D02*
X173800000Y-74700000D01*
X176400000Y-63600000D02*
X176400000Y-72100000D01*
X176400000Y-72100000D02*
X176000000Y-72500000D01*
X173800000Y-74700000D02*
X176000000Y-72500000D01*
X167000000Y-58000000D02*
X170800000Y-58000000D01*
X170800000Y-58000000D02*
X176400000Y-63600000D01*
X164460000Y-58000000D02*
X161400000Y-61060000D01*
X161000000Y-73267588D02*
X161000000Y-72500000D01*
X161400000Y-61060000D02*
X161400000Y-72100000D01*
X158800000Y-77500000D02*
X158800000Y-75467588D01*
X161400000Y-72100000D02*
X161000000Y-72500000D01*
X158800000Y-75467588D02*
X161000000Y-73267588D01*
X148625000Y-59175000D02*
X146400000Y-61400000D01*
X143800000Y-77500000D02*
X143800000Y-74675000D01*
X146400000Y-72075000D02*
X146000000Y-72475000D01*
X146400000Y-61400000D02*
X146400000Y-72075000D01*
X161920000Y-58000000D02*
X160745000Y-59175000D01*
X143800000Y-74675000D02*
X146000000Y-72475000D01*
X160745000Y-59175000D02*
X148625000Y-59175000D01*
X131400000Y-72100000D02*
X131000000Y-72500000D01*
X128800000Y-77500000D02*
X131000000Y-75300000D01*
X133400000Y-58000000D02*
X131400000Y-60000000D01*
X159380000Y-58000000D02*
X133400000Y-58000000D01*
X131400000Y-60000000D02*
X131400000Y-72100000D01*
X131000000Y-75300000D02*
X131000000Y-72500000D01*
X176400000Y-107025000D02*
X176000000Y-107425000D01*
X170113047Y-93000000D02*
X176400000Y-99286953D01*
X176000000Y-107425000D02*
X176000000Y-110300000D01*
X176400000Y-99286953D02*
X176400000Y-107025000D01*
X176000000Y-110300000D02*
X173800000Y-112500000D01*
X166000000Y-93000000D02*
X170113047Y-93000000D01*
X161000000Y-110300000D02*
X158800000Y-112500000D01*
X161000000Y-107425000D02*
X161000000Y-110300000D01*
X163460000Y-93000000D02*
X163460000Y-104965000D01*
X163460000Y-104965000D02*
X161000000Y-107425000D01*
X154861396Y-94175000D02*
X146000000Y-103036396D01*
X146000000Y-110300000D02*
X143800000Y-112500000D01*
X146000000Y-107425000D02*
X146000000Y-110300000D01*
X160920000Y-93000000D02*
X159745000Y-94175000D01*
X146000000Y-103036396D02*
X146000000Y-107425000D01*
X159745000Y-94175000D02*
X154861396Y-94175000D01*
X144300000Y-104100000D02*
X134325000Y-104100000D01*
X155400000Y-93000000D02*
X144300000Y-104100000D01*
X158380000Y-93000000D02*
X155400000Y-93000000D01*
X131000000Y-110300000D02*
X128800000Y-112500000D01*
X134325000Y-104100000D02*
X131000000Y-107425000D01*
X131000000Y-107425000D02*
X131000000Y-110300000D01*
D37*
X152500000Y-145000000D02*
X154000000Y-146500000D01*
X154000000Y-146500000D02*
X154000000Y-154200000D01*
X147600000Y-145000000D02*
X152500000Y-145000000D01*
X135000000Y-132400000D02*
X147600000Y-145000000D01*
X135000000Y-130600000D02*
X135000000Y-132400000D01*
X154000000Y-154200000D02*
X151500000Y-156700000D01*
X102980000Y-155700000D02*
X102980000Y-158880000D01*
X108400000Y-147800000D02*
X108400000Y-150280000D01*
X108400000Y-150280000D02*
X102980000Y-155700000D01*
X102980000Y-158880000D02*
X103000000Y-158900000D01*
X65000000Y-114000000D02*
X65000000Y-117000000D01*
X71000000Y-114000000D02*
X71000000Y-117000000D01*
X77250000Y-114000000D02*
X77250000Y-116980000D01*
X77250000Y-116980000D02*
X77270000Y-117000000D01*
X84000000Y-114000000D02*
X84000000Y-117000000D01*
X80000000Y-83800000D02*
X80000000Y-86730000D01*
X86250000Y-83750000D02*
X86250000Y-86710000D01*
X86250000Y-86710000D02*
X86270000Y-86730000D01*
X92250000Y-83750000D02*
X92250000Y-86710000D01*
X92250000Y-86710000D02*
X92270000Y-86730000D01*
X98250000Y-86710000D02*
X98270000Y-86730000D01*
X98250000Y-83830000D02*
X98250000Y-86710000D01*
X86892893Y-132150000D02*
X77750000Y-141292893D01*
X100910000Y-132150000D02*
X86892893Y-132150000D01*
X102960000Y-130100000D02*
X100910000Y-132150000D01*
X77750000Y-146905000D02*
X76200000Y-148455000D01*
X77750000Y-141292893D02*
X77750000Y-146905000D01*
X102960000Y-130100000D02*
X102960000Y-126900000D01*
X92800000Y-149300000D02*
X92800000Y-146100000D01*
X92800000Y-146100000D02*
X84005000Y-146100000D01*
X84005000Y-146100000D02*
X83820000Y-145915000D01*
X108000000Y-105000000D02*
X108000000Y-96900000D01*
X94310000Y-106550000D02*
X92760000Y-105000000D01*
X108000000Y-105000000D02*
X106450000Y-106550000D01*
X106450000Y-106550000D02*
X94310000Y-106550000D01*
X101400000Y-60307106D02*
X101400000Y-63380000D01*
X63620000Y-51500000D02*
X92592894Y-51500000D01*
X56640000Y-58480000D02*
X54100000Y-58480000D01*
X92592894Y-51500000D02*
X101400000Y-60307106D01*
X56640000Y-58480000D02*
X63480000Y-51640000D01*
X63480000Y-51640000D02*
X63620000Y-51500000D01*
X61580000Y-51000000D02*
X92800000Y-51000000D01*
X56640000Y-55940000D02*
X54100000Y-55940000D01*
X56640000Y-55940000D02*
X61580000Y-51000000D01*
X92800000Y-51000000D02*
X105200000Y-63400000D01*
X137500000Y-159500000D02*
X133133592Y-155133592D01*
X124000000Y-134312894D02*
X124000000Y-132620000D01*
X135000000Y-159500000D02*
X137500000Y-159500000D01*
X133133592Y-143446486D02*
X124000000Y-134312894D01*
X133133592Y-155133592D02*
X133133592Y-143446486D01*
X132500000Y-159500000D02*
X132600000Y-159400000D01*
X122500000Y-131580000D02*
X124000000Y-130080000D01*
X122500000Y-133520000D02*
X122500000Y-131580000D01*
X132600000Y-159400000D02*
X132600000Y-143620000D01*
X132600000Y-143620000D02*
X122500000Y-133520000D01*
X55500000Y-134332894D02*
X55500000Y-130667106D01*
X63050000Y-135870000D02*
X61420000Y-137500000D01*
X58667106Y-137500000D02*
X55500000Y-134332894D01*
X55500000Y-130667106D02*
X54832894Y-130000000D01*
X54832894Y-130000000D02*
X53000000Y-130000000D01*
X61420000Y-137500000D02*
X58667106Y-137500000D01*
X92800000Y-130100000D02*
X88235787Y-130100000D01*
X51200000Y-125800000D02*
X52080000Y-124920000D01*
X53000000Y-132540000D02*
X52140000Y-132540000D01*
X52140000Y-132540000D02*
X51200000Y-131600000D01*
X52080000Y-124920000D02*
X53000000Y-124920000D01*
X51200000Y-131600000D02*
X51200000Y-125800000D01*
X63835000Y-143375000D02*
X53000000Y-132540000D01*
X76200000Y-143375000D02*
X63835000Y-143375000D01*
X76200000Y-142135787D02*
X76200000Y-143375000D01*
X88235787Y-130100000D02*
X76200000Y-142135787D01*
X53000000Y-124920000D02*
X53000000Y-119000000D01*
X126892894Y-125000000D02*
X124000000Y-125000000D01*
X151500000Y-147300000D02*
X149192894Y-147300000D01*
X149192894Y-147300000D02*
X126892894Y-125000000D01*
X133631475Y-137171475D02*
X124000000Y-127540000D01*
X151500000Y-152000000D02*
X136671475Y-137171475D01*
X136671475Y-137171475D02*
X133631475Y-137171475D01*
X71250000Y-119290000D02*
X71250000Y-134710000D01*
X72270000Y-118270000D02*
X71250000Y-119290000D01*
X71250000Y-134710000D02*
X73000000Y-136460000D01*
X71750000Y-132670000D02*
X73000000Y-133920000D01*
X71750000Y-130050000D02*
X71750000Y-132670000D01*
X78540000Y-123260000D02*
X71750000Y-130050000D01*
X78540000Y-118270000D02*
X78540000Y-123260000D01*
X85270000Y-118270000D02*
X85270000Y-119110000D01*
X85270000Y-119110000D02*
X73000000Y-131380000D01*
X66270000Y-118270000D02*
X70750000Y-122750000D01*
X70750000Y-136750000D02*
X73000000Y-139000000D01*
X70750000Y-122750000D02*
X70750000Y-136750000D01*
X96040000Y-91500000D02*
X99540000Y-88000000D01*
X77620000Y-93000000D02*
X79120000Y-91500000D01*
X79120000Y-91500000D02*
X96040000Y-91500000D01*
X72540000Y-93000000D02*
X75040000Y-90500000D01*
X85040000Y-90500000D02*
X87540000Y-88000000D01*
X75040000Y-90500000D02*
X85040000Y-90500000D01*
X79270000Y-90000000D02*
X73000000Y-90000000D01*
X73000000Y-90000000D02*
X70000000Y-93000000D01*
X81270000Y-88000000D02*
X79270000Y-90000000D01*
X90540000Y-91000000D02*
X93540000Y-88000000D01*
X77080000Y-91000000D02*
X90540000Y-91000000D01*
X75080000Y-93000000D02*
X77080000Y-91000000D01*
X109700000Y-158900000D02*
X119200000Y-149400000D01*
X94570000Y-160600000D02*
X92870000Y-158900000D01*
X109700000Y-158900000D02*
X108000000Y-160600000D01*
X119200000Y-149400000D02*
X119200000Y-143620000D01*
X119200000Y-143620000D02*
X118000000Y-142420000D01*
X108000000Y-160600000D02*
X94570000Y-160600000D01*
X112570000Y-134450000D02*
X104980000Y-134450000D01*
X118000000Y-139880000D02*
X112570000Y-134450000D01*
X104980000Y-134450000D02*
X102930000Y-136500000D01*
X111975000Y-126235000D02*
X118000000Y-132260000D01*
X103400000Y-67740000D02*
X103400000Y-72152894D01*
X105200000Y-65940000D02*
X103400000Y-67740000D01*
X111975000Y-80727893D02*
X111975000Y-126235000D01*
X103400000Y-72152894D02*
X111975000Y-80727893D01*
X100200000Y-67120000D02*
X101400000Y-65920000D01*
X111475000Y-80935000D02*
X100200000Y-69660000D01*
X118000000Y-134800000D02*
X111475000Y-128275000D01*
X111475000Y-128275000D02*
X111475000Y-80935000D01*
X100200000Y-69660000D02*
X100200000Y-67120000D01*
X102960000Y-139700000D02*
X106860000Y-135800000D01*
X116160000Y-144960000D02*
X107000000Y-135800000D01*
X106860000Y-135800000D02*
X107000000Y-135800000D01*
X118000000Y-144960000D02*
X116160000Y-144960000D01*
X176000000Y-130600000D02*
X176000000Y-132472286D01*
X185987713Y-142460000D02*
X189000000Y-142460000D01*
X176000000Y-132472286D02*
X185987713Y-142460000D01*
X186280000Y-137380000D02*
X189000000Y-137380000D01*
X185500000Y-135180000D02*
X185500000Y-136600000D01*
X185500000Y-136600000D02*
X186280000Y-137380000D01*
X165000000Y-130600000D02*
X167100000Y-132700000D01*
X167100000Y-132700000D02*
X175520607Y-132700000D01*
X187820607Y-145000000D02*
X189000000Y-145000000D01*
X175520607Y-132700000D02*
X187820607Y-145000000D01*
X176500000Y-128500000D02*
X178200000Y-130200000D01*
X184154819Y-139920000D02*
X189000000Y-139920000D01*
X156100000Y-128500000D02*
X176500000Y-128500000D01*
X178200000Y-130200000D02*
X178200000Y-133965181D01*
X154000000Y-130600000D02*
X156100000Y-128500000D01*
X178200000Y-133965181D02*
X184154819Y-139920000D01*
X99000000Y-160100000D02*
X105400000Y-160100000D01*
X88750000Y-154250000D02*
X93150000Y-154250000D01*
X105400000Y-160100000D02*
X118000000Y-147500000D01*
X93150000Y-154250000D02*
X99000000Y-160100000D01*
X61000000Y-151160000D02*
X53880000Y-151160000D01*
X53880000Y-151160000D02*
X52500000Y-152540000D01*
X65840000Y-150000000D02*
X67000000Y-151160000D01*
X52500000Y-150000000D02*
X65840000Y-150000000D01*
M02*
