G04 #@! TF.GenerationSoftware,KiCad,Pcbnew,8.0.2-1*
G04 #@! TF.CreationDate,2024-05-07T18:42:43+02:00*
G04 #@! TF.ProjectId,sensei,73656e73-6569-42e6-9b69-6361645f7063,rev?*
G04 #@! TF.SameCoordinates,Original*
G04 #@! TF.FileFunction,Legend,Bot*
G04 #@! TF.FilePolarity,Positive*
%FSLAX46Y46*%
G04 Gerber Fmt 4.6, Leading zero omitted, Abs format (unit mm)*
G04 Created by KiCad (PCBNEW 8.0.2-1) date 2024-05-07 18:42:43*
%MOMM*%
%LPD*%
G01*
G04 APERTURE LIST*
G04 Aperture macros list*
%AMRoundRect*
0 Rectangle with rounded corners*
0 $1 Rounding radius*
0 $2 $3 $4 $5 $6 $7 $8 $9 X,Y pos of 4 corners*
0 Add a 4 corners polygon primitive as box body*
4,1,4,$2,$3,$4,$5,$6,$7,$8,$9,$2,$3,0*
0 Add four circle primitives for the rounded corners*
1,1,$1+$1,$2,$3*
1,1,$1+$1,$4,$5*
1,1,$1+$1,$6,$7*
1,1,$1+$1,$8,$9*
0 Add four rect primitives between the rounded corners*
20,1,$1+$1,$2,$3,$4,$5,0*
20,1,$1+$1,$4,$5,$6,$7,0*
20,1,$1+$1,$6,$7,$8,$9,0*
20,1,$1+$1,$8,$9,$2,$3,0*%
G04 Aperture macros list end*
%ADD10C,0.150000*%
%ADD11C,0.125000*%
%ADD12C,0.100000*%
%ADD13C,0.120000*%
%ADD14C,1.000000*%
%ADD15R,1.100000X1.800000*%
%ADD16RoundRect,0.275000X-0.275000X-0.625000X0.275000X-0.625000X0.275000X0.625000X-0.275000X0.625000X0*%
%ADD17R,1.700000X1.700000*%
%ADD18O,1.700000X1.700000*%
%ADD19R,1.800000X1.800000*%
%ADD20C,1.800000*%
%ADD21C,1.600000*%
%ADD22O,1.600000X1.600000*%
%ADD23R,1.930000X1.830000*%
%ADD24C,2.130000*%
%ADD25C,2.850000*%
%ADD26O,4.000000X4.000000*%
%ADD27R,2.200000X2.200000*%
%ADD28O,2.200000X2.200000*%
%ADD29R,1.600000X1.600000*%
%ADD30C,2.000000*%
%ADD31C,3.200000*%
%ADD32R,1.600000X2.400000*%
%ADD33O,1.600000X2.400000*%
%ADD34R,2.400000X1.600000*%
%ADD35O,2.400000X1.600000*%
%ADD36R,1.200000X1.200000*%
%ADD37C,1.200000*%
%ADD38C,1.440000*%
%ADD39RoundRect,0.250000X-0.600000X-0.600000X0.600000X-0.600000X0.600000X0.600000X-0.600000X0.600000X0*%
%ADD40C,1.700000*%
G04 APERTURE END LIST*
D10*
X73973332Y-99300000D02*
G75*
G02*
X69373332Y-99300000I-2300000J0D01*
G01*
X69373332Y-99300000D02*
G75*
G02*
X73973332Y-99300000I2300000J0D01*
G01*
X76273332Y-99300000D02*
G75*
G02*
X71673332Y-99300000I-2300000J0D01*
G01*
X71673332Y-99300000D02*
G75*
G02*
X76273332Y-99300000I2300000J0D01*
G01*
X78573332Y-99300000D02*
G75*
G02*
X73973332Y-99300000I-2300000J0D01*
G01*
X73973332Y-99300000D02*
G75*
G02*
X78573332Y-99300000I2300000J0D01*
G01*
X82563220Y-61388866D02*
X81801316Y-61388866D01*
X82182268Y-61769819D02*
X82182268Y-61007914D01*
X80801316Y-61769819D02*
X81372744Y-61769819D01*
X81087030Y-61769819D02*
X81087030Y-60769819D01*
X81087030Y-60769819D02*
X81182268Y-60912676D01*
X81182268Y-60912676D02*
X81277506Y-61007914D01*
X81277506Y-61007914D02*
X81372744Y-61055533D01*
X80420363Y-60865057D02*
X80372744Y-60817438D01*
X80372744Y-60817438D02*
X80277506Y-60769819D01*
X80277506Y-60769819D02*
X80039411Y-60769819D01*
X80039411Y-60769819D02*
X79944173Y-60817438D01*
X79944173Y-60817438D02*
X79896554Y-60865057D01*
X79896554Y-60865057D02*
X79848935Y-60960295D01*
X79848935Y-60960295D02*
X79848935Y-61055533D01*
X79848935Y-61055533D02*
X79896554Y-61198390D01*
X79896554Y-61198390D02*
X80467982Y-61769819D01*
X80467982Y-61769819D02*
X79848935Y-61769819D01*
X79563220Y-60769819D02*
X79229887Y-61769819D01*
X79229887Y-61769819D02*
X78896554Y-60769819D01*
X106391792Y-94874580D02*
X106439411Y-94922200D01*
X106439411Y-94922200D02*
X106582268Y-94969819D01*
X106582268Y-94969819D02*
X106677506Y-94969819D01*
X106677506Y-94969819D02*
X106820363Y-94922200D01*
X106820363Y-94922200D02*
X106915601Y-94826961D01*
X106915601Y-94826961D02*
X106963220Y-94731723D01*
X106963220Y-94731723D02*
X107010839Y-94541247D01*
X107010839Y-94541247D02*
X107010839Y-94398390D01*
X107010839Y-94398390D02*
X106963220Y-94207914D01*
X106963220Y-94207914D02*
X106915601Y-94112676D01*
X106915601Y-94112676D02*
X106820363Y-94017438D01*
X106820363Y-94017438D02*
X106677506Y-93969819D01*
X106677506Y-93969819D02*
X106582268Y-93969819D01*
X106582268Y-93969819D02*
X106439411Y-94017438D01*
X106439411Y-94017438D02*
X106391792Y-94065057D01*
X105487030Y-94969819D02*
X105963220Y-94969819D01*
X105963220Y-94969819D02*
X105963220Y-93969819D01*
X105153696Y-94969819D02*
X105153696Y-93969819D01*
X104582268Y-94969819D02*
X105010839Y-94398390D01*
X104582268Y-93969819D02*
X105153696Y-94541247D01*
X104391792Y-95065057D02*
X103629887Y-95065057D01*
X103201315Y-93969819D02*
X103010839Y-93969819D01*
X103010839Y-93969819D02*
X102915601Y-94017438D01*
X102915601Y-94017438D02*
X102820363Y-94112676D01*
X102820363Y-94112676D02*
X102772744Y-94303152D01*
X102772744Y-94303152D02*
X102772744Y-94636485D01*
X102772744Y-94636485D02*
X102820363Y-94826961D01*
X102820363Y-94826961D02*
X102915601Y-94922200D01*
X102915601Y-94922200D02*
X103010839Y-94969819D01*
X103010839Y-94969819D02*
X103201315Y-94969819D01*
X103201315Y-94969819D02*
X103296553Y-94922200D01*
X103296553Y-94922200D02*
X103391791Y-94826961D01*
X103391791Y-94826961D02*
X103439410Y-94636485D01*
X103439410Y-94636485D02*
X103439410Y-94303152D01*
X103439410Y-94303152D02*
X103391791Y-94112676D01*
X103391791Y-94112676D02*
X103296553Y-94017438D01*
X103296553Y-94017438D02*
X103201315Y-93969819D01*
X102344172Y-93969819D02*
X102344172Y-94779342D01*
X102344172Y-94779342D02*
X102296553Y-94874580D01*
X102296553Y-94874580D02*
X102248934Y-94922200D01*
X102248934Y-94922200D02*
X102153696Y-94969819D01*
X102153696Y-94969819D02*
X101963220Y-94969819D01*
X101963220Y-94969819D02*
X101867982Y-94922200D01*
X101867982Y-94922200D02*
X101820363Y-94874580D01*
X101820363Y-94874580D02*
X101772744Y-94779342D01*
X101772744Y-94779342D02*
X101772744Y-93969819D01*
X101439410Y-93969819D02*
X100867982Y-93969819D01*
X101153696Y-94969819D02*
X101153696Y-93969819D01*
X109472744Y-66869819D02*
X109282268Y-66869819D01*
X109282268Y-66869819D02*
X109187030Y-66917438D01*
X109187030Y-66917438D02*
X109091792Y-67012676D01*
X109091792Y-67012676D02*
X109044173Y-67203152D01*
X109044173Y-67203152D02*
X109044173Y-67536485D01*
X109044173Y-67536485D02*
X109091792Y-67726961D01*
X109091792Y-67726961D02*
X109187030Y-67822200D01*
X109187030Y-67822200D02*
X109282268Y-67869819D01*
X109282268Y-67869819D02*
X109472744Y-67869819D01*
X109472744Y-67869819D02*
X109567982Y-67822200D01*
X109567982Y-67822200D02*
X109663220Y-67726961D01*
X109663220Y-67726961D02*
X109710839Y-67536485D01*
X109710839Y-67536485D02*
X109710839Y-67203152D01*
X109710839Y-67203152D02*
X109663220Y-67012676D01*
X109663220Y-67012676D02*
X109567982Y-66917438D01*
X109567982Y-66917438D02*
X109472744Y-66869819D01*
X108282268Y-67346009D02*
X108615601Y-67346009D01*
X108615601Y-67869819D02*
X108615601Y-66869819D01*
X108615601Y-66869819D02*
X108139411Y-66869819D01*
X107425125Y-67346009D02*
X107758458Y-67346009D01*
X107758458Y-67869819D02*
X107758458Y-66869819D01*
X107758458Y-66869819D02*
X107282268Y-66869819D01*
X110439411Y-156017438D02*
X110534649Y-155969819D01*
X110534649Y-155969819D02*
X110677506Y-155969819D01*
X110677506Y-155969819D02*
X110820363Y-156017438D01*
X110820363Y-156017438D02*
X110915601Y-156112676D01*
X110915601Y-156112676D02*
X110963220Y-156207914D01*
X110963220Y-156207914D02*
X111010839Y-156398390D01*
X111010839Y-156398390D02*
X111010839Y-156541247D01*
X111010839Y-156541247D02*
X110963220Y-156731723D01*
X110963220Y-156731723D02*
X110915601Y-156826961D01*
X110915601Y-156826961D02*
X110820363Y-156922200D01*
X110820363Y-156922200D02*
X110677506Y-156969819D01*
X110677506Y-156969819D02*
X110582268Y-156969819D01*
X110582268Y-156969819D02*
X110439411Y-156922200D01*
X110439411Y-156922200D02*
X110391792Y-156874580D01*
X110391792Y-156874580D02*
X110391792Y-156541247D01*
X110391792Y-156541247D02*
X110582268Y-156541247D01*
X110010839Y-156684104D02*
X109534649Y-156684104D01*
X110106077Y-156969819D02*
X109772744Y-155969819D01*
X109772744Y-155969819D02*
X109439411Y-156969819D01*
X109248934Y-155969819D02*
X108677506Y-155969819D01*
X108963220Y-156969819D02*
X108963220Y-155969819D01*
X108344172Y-156446009D02*
X108010839Y-156446009D01*
X107867982Y-156969819D02*
X108344172Y-156969819D01*
X108344172Y-156969819D02*
X108344172Y-155969819D01*
X108344172Y-155969819D02*
X107867982Y-155969819D01*
X107677506Y-157065057D02*
X106915601Y-157065057D01*
X106487029Y-155969819D02*
X106296553Y-155969819D01*
X106296553Y-155969819D02*
X106201315Y-156017438D01*
X106201315Y-156017438D02*
X106106077Y-156112676D01*
X106106077Y-156112676D02*
X106058458Y-156303152D01*
X106058458Y-156303152D02*
X106058458Y-156636485D01*
X106058458Y-156636485D02*
X106106077Y-156826961D01*
X106106077Y-156826961D02*
X106201315Y-156922200D01*
X106201315Y-156922200D02*
X106296553Y-156969819D01*
X106296553Y-156969819D02*
X106487029Y-156969819D01*
X106487029Y-156969819D02*
X106582267Y-156922200D01*
X106582267Y-156922200D02*
X106677505Y-156826961D01*
X106677505Y-156826961D02*
X106725124Y-156636485D01*
X106725124Y-156636485D02*
X106725124Y-156303152D01*
X106725124Y-156303152D02*
X106677505Y-156112676D01*
X106677505Y-156112676D02*
X106582267Y-156017438D01*
X106582267Y-156017438D02*
X106487029Y-155969819D01*
X105629886Y-155969819D02*
X105629886Y-156779342D01*
X105629886Y-156779342D02*
X105582267Y-156874580D01*
X105582267Y-156874580D02*
X105534648Y-156922200D01*
X105534648Y-156922200D02*
X105439410Y-156969819D01*
X105439410Y-156969819D02*
X105248934Y-156969819D01*
X105248934Y-156969819D02*
X105153696Y-156922200D01*
X105153696Y-156922200D02*
X105106077Y-156874580D01*
X105106077Y-156874580D02*
X105058458Y-156779342D01*
X105058458Y-156779342D02*
X105058458Y-155969819D01*
X104725124Y-155969819D02*
X104153696Y-155969819D01*
X104439410Y-156969819D02*
X104439410Y-155969819D01*
X111429887Y-60846009D02*
X111287030Y-60893628D01*
X111287030Y-60893628D02*
X111239411Y-60941247D01*
X111239411Y-60941247D02*
X111191792Y-61036485D01*
X111191792Y-61036485D02*
X111191792Y-61179342D01*
X111191792Y-61179342D02*
X111239411Y-61274580D01*
X111239411Y-61274580D02*
X111287030Y-61322200D01*
X111287030Y-61322200D02*
X111382268Y-61369819D01*
X111382268Y-61369819D02*
X111763220Y-61369819D01*
X111763220Y-61369819D02*
X111763220Y-60369819D01*
X111763220Y-60369819D02*
X111429887Y-60369819D01*
X111429887Y-60369819D02*
X111334649Y-60417438D01*
X111334649Y-60417438D02*
X111287030Y-60465057D01*
X111287030Y-60465057D02*
X111239411Y-60560295D01*
X111239411Y-60560295D02*
X111239411Y-60655533D01*
X111239411Y-60655533D02*
X111287030Y-60750771D01*
X111287030Y-60750771D02*
X111334649Y-60798390D01*
X111334649Y-60798390D02*
X111429887Y-60846009D01*
X111429887Y-60846009D02*
X111763220Y-60846009D01*
X110763220Y-60369819D02*
X110763220Y-61179342D01*
X110763220Y-61179342D02*
X110715601Y-61274580D01*
X110715601Y-61274580D02*
X110667982Y-61322200D01*
X110667982Y-61322200D02*
X110572744Y-61369819D01*
X110572744Y-61369819D02*
X110382268Y-61369819D01*
X110382268Y-61369819D02*
X110287030Y-61322200D01*
X110287030Y-61322200D02*
X110239411Y-61274580D01*
X110239411Y-61274580D02*
X110191792Y-61179342D01*
X110191792Y-61179342D02*
X110191792Y-60369819D01*
X109763220Y-61322200D02*
X109620363Y-61369819D01*
X109620363Y-61369819D02*
X109382268Y-61369819D01*
X109382268Y-61369819D02*
X109287030Y-61322200D01*
X109287030Y-61322200D02*
X109239411Y-61274580D01*
X109239411Y-61274580D02*
X109191792Y-61179342D01*
X109191792Y-61179342D02*
X109191792Y-61084104D01*
X109191792Y-61084104D02*
X109239411Y-60988866D01*
X109239411Y-60988866D02*
X109287030Y-60941247D01*
X109287030Y-60941247D02*
X109382268Y-60893628D01*
X109382268Y-60893628D02*
X109572744Y-60846009D01*
X109572744Y-60846009D02*
X109667982Y-60798390D01*
X109667982Y-60798390D02*
X109715601Y-60750771D01*
X109715601Y-60750771D02*
X109763220Y-60655533D01*
X109763220Y-60655533D02*
X109763220Y-60560295D01*
X109763220Y-60560295D02*
X109715601Y-60465057D01*
X109715601Y-60465057D02*
X109667982Y-60417438D01*
X109667982Y-60417438D02*
X109572744Y-60369819D01*
X109572744Y-60369819D02*
X109334649Y-60369819D01*
X109334649Y-60369819D02*
X109191792Y-60417438D01*
X107477506Y-60417438D02*
X107572744Y-60369819D01*
X107572744Y-60369819D02*
X107715601Y-60369819D01*
X107715601Y-60369819D02*
X107858458Y-60417438D01*
X107858458Y-60417438D02*
X107953696Y-60512676D01*
X107953696Y-60512676D02*
X108001315Y-60607914D01*
X108001315Y-60607914D02*
X108048934Y-60798390D01*
X108048934Y-60798390D02*
X108048934Y-60941247D01*
X108048934Y-60941247D02*
X108001315Y-61131723D01*
X108001315Y-61131723D02*
X107953696Y-61226961D01*
X107953696Y-61226961D02*
X107858458Y-61322200D01*
X107858458Y-61322200D02*
X107715601Y-61369819D01*
X107715601Y-61369819D02*
X107620363Y-61369819D01*
X107620363Y-61369819D02*
X107477506Y-61322200D01*
X107477506Y-61322200D02*
X107429887Y-61274580D01*
X107429887Y-61274580D02*
X107429887Y-60941247D01*
X107429887Y-60941247D02*
X107620363Y-60941247D01*
X107048934Y-61084104D02*
X106572744Y-61084104D01*
X107144172Y-61369819D02*
X106810839Y-60369819D01*
X106810839Y-60369819D02*
X106477506Y-61369819D01*
X106287029Y-60369819D02*
X105715601Y-60369819D01*
X106001315Y-61369819D02*
X106001315Y-60369819D01*
X105382267Y-60846009D02*
X105048934Y-60846009D01*
X104906077Y-61369819D02*
X105382267Y-61369819D01*
X105382267Y-61369819D02*
X105382267Y-60369819D01*
X105382267Y-60369819D02*
X104906077Y-60369819D01*
X81139411Y-65017438D02*
X81234649Y-64969819D01*
X81234649Y-64969819D02*
X81377506Y-64969819D01*
X81377506Y-64969819D02*
X81520363Y-65017438D01*
X81520363Y-65017438D02*
X81615601Y-65112676D01*
X81615601Y-65112676D02*
X81663220Y-65207914D01*
X81663220Y-65207914D02*
X81710839Y-65398390D01*
X81710839Y-65398390D02*
X81710839Y-65541247D01*
X81710839Y-65541247D02*
X81663220Y-65731723D01*
X81663220Y-65731723D02*
X81615601Y-65826961D01*
X81615601Y-65826961D02*
X81520363Y-65922200D01*
X81520363Y-65922200D02*
X81377506Y-65969819D01*
X81377506Y-65969819D02*
X81282268Y-65969819D01*
X81282268Y-65969819D02*
X81139411Y-65922200D01*
X81139411Y-65922200D02*
X81091792Y-65874580D01*
X81091792Y-65874580D02*
X81091792Y-65541247D01*
X81091792Y-65541247D02*
X81282268Y-65541247D01*
X80663220Y-65969819D02*
X80663220Y-64969819D01*
X80663220Y-64969819D02*
X80091792Y-65969819D01*
X80091792Y-65969819D02*
X80091792Y-64969819D01*
X79615601Y-65969819D02*
X79615601Y-64969819D01*
X79615601Y-64969819D02*
X79377506Y-64969819D01*
X79377506Y-64969819D02*
X79234649Y-65017438D01*
X79234649Y-65017438D02*
X79139411Y-65112676D01*
X79139411Y-65112676D02*
X79091792Y-65207914D01*
X79091792Y-65207914D02*
X79044173Y-65398390D01*
X79044173Y-65398390D02*
X79044173Y-65541247D01*
X79044173Y-65541247D02*
X79091792Y-65731723D01*
X79091792Y-65731723D02*
X79139411Y-65826961D01*
X79139411Y-65826961D02*
X79234649Y-65922200D01*
X79234649Y-65922200D02*
X79377506Y-65969819D01*
X79377506Y-65969819D02*
X79615601Y-65969819D01*
X82263220Y-70088866D02*
X81501316Y-70088866D01*
X80501316Y-70469819D02*
X81072744Y-70469819D01*
X80787030Y-70469819D02*
X80787030Y-69469819D01*
X80787030Y-69469819D02*
X80882268Y-69612676D01*
X80882268Y-69612676D02*
X80977506Y-69707914D01*
X80977506Y-69707914D02*
X81072744Y-69755533D01*
X80120363Y-69565057D02*
X80072744Y-69517438D01*
X80072744Y-69517438D02*
X79977506Y-69469819D01*
X79977506Y-69469819D02*
X79739411Y-69469819D01*
X79739411Y-69469819D02*
X79644173Y-69517438D01*
X79644173Y-69517438D02*
X79596554Y-69565057D01*
X79596554Y-69565057D02*
X79548935Y-69660295D01*
X79548935Y-69660295D02*
X79548935Y-69755533D01*
X79548935Y-69755533D02*
X79596554Y-69898390D01*
X79596554Y-69898390D02*
X80167982Y-70469819D01*
X80167982Y-70469819D02*
X79548935Y-70469819D01*
X79263220Y-69469819D02*
X78929887Y-70469819D01*
X78929887Y-70469819D02*
X78596554Y-69469819D01*
X111391792Y-97369819D02*
X111725125Y-96893628D01*
X111963220Y-97369819D02*
X111963220Y-96369819D01*
X111963220Y-96369819D02*
X111582268Y-96369819D01*
X111582268Y-96369819D02*
X111487030Y-96417438D01*
X111487030Y-96417438D02*
X111439411Y-96465057D01*
X111439411Y-96465057D02*
X111391792Y-96560295D01*
X111391792Y-96560295D02*
X111391792Y-96703152D01*
X111391792Y-96703152D02*
X111439411Y-96798390D01*
X111439411Y-96798390D02*
X111487030Y-96846009D01*
X111487030Y-96846009D02*
X111582268Y-96893628D01*
X111582268Y-96893628D02*
X111963220Y-96893628D01*
X111010839Y-97322200D02*
X110867982Y-97369819D01*
X110867982Y-97369819D02*
X110629887Y-97369819D01*
X110629887Y-97369819D02*
X110534649Y-97322200D01*
X110534649Y-97322200D02*
X110487030Y-97274580D01*
X110487030Y-97274580D02*
X110439411Y-97179342D01*
X110439411Y-97179342D02*
X110439411Y-97084104D01*
X110439411Y-97084104D02*
X110487030Y-96988866D01*
X110487030Y-96988866D02*
X110534649Y-96941247D01*
X110534649Y-96941247D02*
X110629887Y-96893628D01*
X110629887Y-96893628D02*
X110820363Y-96846009D01*
X110820363Y-96846009D02*
X110915601Y-96798390D01*
X110915601Y-96798390D02*
X110963220Y-96750771D01*
X110963220Y-96750771D02*
X111010839Y-96655533D01*
X111010839Y-96655533D02*
X111010839Y-96560295D01*
X111010839Y-96560295D02*
X110963220Y-96465057D01*
X110963220Y-96465057D02*
X110915601Y-96417438D01*
X110915601Y-96417438D02*
X110820363Y-96369819D01*
X110820363Y-96369819D02*
X110582268Y-96369819D01*
X110582268Y-96369819D02*
X110439411Y-96417438D01*
X110153696Y-96369819D02*
X109582268Y-96369819D01*
X109867982Y-97369819D02*
X109867982Y-96369819D01*
X108772744Y-64369819D02*
X108582268Y-64369819D01*
X108582268Y-64369819D02*
X108487030Y-64417438D01*
X108487030Y-64417438D02*
X108391792Y-64512676D01*
X108391792Y-64512676D02*
X108344173Y-64703152D01*
X108344173Y-64703152D02*
X108344173Y-65036485D01*
X108344173Y-65036485D02*
X108391792Y-65226961D01*
X108391792Y-65226961D02*
X108487030Y-65322200D01*
X108487030Y-65322200D02*
X108582268Y-65369819D01*
X108582268Y-65369819D02*
X108772744Y-65369819D01*
X108772744Y-65369819D02*
X108867982Y-65322200D01*
X108867982Y-65322200D02*
X108963220Y-65226961D01*
X108963220Y-65226961D02*
X109010839Y-65036485D01*
X109010839Y-65036485D02*
X109010839Y-64703152D01*
X109010839Y-64703152D02*
X108963220Y-64512676D01*
X108963220Y-64512676D02*
X108867982Y-64417438D01*
X108867982Y-64417438D02*
X108772744Y-64369819D01*
X107915601Y-65369819D02*
X107915601Y-64369819D01*
X107915601Y-64369819D02*
X107344173Y-65369819D01*
X107344173Y-65369819D02*
X107344173Y-64369819D01*
X86869819Y-140293922D02*
X86869819Y-140865350D01*
X87869819Y-140579636D02*
X86869819Y-140579636D01*
X87869819Y-141770112D02*
X87393628Y-141436779D01*
X87869819Y-141198684D02*
X86869819Y-141198684D01*
X86869819Y-141198684D02*
X86869819Y-141579636D01*
X86869819Y-141579636D02*
X86917438Y-141674874D01*
X86917438Y-141674874D02*
X86965057Y-141722493D01*
X86965057Y-141722493D02*
X87060295Y-141770112D01*
X87060295Y-141770112D02*
X87203152Y-141770112D01*
X87203152Y-141770112D02*
X87298390Y-141722493D01*
X87298390Y-141722493D02*
X87346009Y-141674874D01*
X87346009Y-141674874D02*
X87393628Y-141579636D01*
X87393628Y-141579636D02*
X87393628Y-141198684D01*
X86917438Y-142722493D02*
X86869819Y-142627255D01*
X86869819Y-142627255D02*
X86869819Y-142484398D01*
X86869819Y-142484398D02*
X86917438Y-142341541D01*
X86917438Y-142341541D02*
X87012676Y-142246303D01*
X87012676Y-142246303D02*
X87107914Y-142198684D01*
X87107914Y-142198684D02*
X87298390Y-142151065D01*
X87298390Y-142151065D02*
X87441247Y-142151065D01*
X87441247Y-142151065D02*
X87631723Y-142198684D01*
X87631723Y-142198684D02*
X87726961Y-142246303D01*
X87726961Y-142246303D02*
X87822200Y-142341541D01*
X87822200Y-142341541D02*
X87869819Y-142484398D01*
X87869819Y-142484398D02*
X87869819Y-142579636D01*
X87869819Y-142579636D02*
X87822200Y-142722493D01*
X87822200Y-142722493D02*
X87774580Y-142770112D01*
X87774580Y-142770112D02*
X87441247Y-142770112D01*
X87441247Y-142770112D02*
X87441247Y-142579636D01*
X87965057Y-142960589D02*
X87965057Y-143722493D01*
X86869819Y-144151065D02*
X86869819Y-144341541D01*
X86869819Y-144341541D02*
X86917438Y-144436779D01*
X86917438Y-144436779D02*
X87012676Y-144532017D01*
X87012676Y-144532017D02*
X87203152Y-144579636D01*
X87203152Y-144579636D02*
X87536485Y-144579636D01*
X87536485Y-144579636D02*
X87726961Y-144532017D01*
X87726961Y-144532017D02*
X87822200Y-144436779D01*
X87822200Y-144436779D02*
X87869819Y-144341541D01*
X87869819Y-144341541D02*
X87869819Y-144151065D01*
X87869819Y-144151065D02*
X87822200Y-144055827D01*
X87822200Y-144055827D02*
X87726961Y-143960589D01*
X87726961Y-143960589D02*
X87536485Y-143912970D01*
X87536485Y-143912970D02*
X87203152Y-143912970D01*
X87203152Y-143912970D02*
X87012676Y-143960589D01*
X87012676Y-143960589D02*
X86917438Y-144055827D01*
X86917438Y-144055827D02*
X86869819Y-144151065D01*
X86869819Y-145008208D02*
X87679342Y-145008208D01*
X87679342Y-145008208D02*
X87774580Y-145055827D01*
X87774580Y-145055827D02*
X87822200Y-145103446D01*
X87822200Y-145103446D02*
X87869819Y-145198684D01*
X87869819Y-145198684D02*
X87869819Y-145389160D01*
X87869819Y-145389160D02*
X87822200Y-145484398D01*
X87822200Y-145484398D02*
X87774580Y-145532017D01*
X87774580Y-145532017D02*
X87679342Y-145579636D01*
X87679342Y-145579636D02*
X86869819Y-145579636D01*
X86869819Y-145912970D02*
X86869819Y-146484398D01*
X87869819Y-146198684D02*
X86869819Y-146198684D01*
X56691792Y-116974580D02*
X56739411Y-117022200D01*
X56739411Y-117022200D02*
X56882268Y-117069819D01*
X56882268Y-117069819D02*
X56977506Y-117069819D01*
X56977506Y-117069819D02*
X57120363Y-117022200D01*
X57120363Y-117022200D02*
X57215601Y-116926961D01*
X57215601Y-116926961D02*
X57263220Y-116831723D01*
X57263220Y-116831723D02*
X57310839Y-116641247D01*
X57310839Y-116641247D02*
X57310839Y-116498390D01*
X57310839Y-116498390D02*
X57263220Y-116307914D01*
X57263220Y-116307914D02*
X57215601Y-116212676D01*
X57215601Y-116212676D02*
X57120363Y-116117438D01*
X57120363Y-116117438D02*
X56977506Y-116069819D01*
X56977506Y-116069819D02*
X56882268Y-116069819D01*
X56882268Y-116069819D02*
X56739411Y-116117438D01*
X56739411Y-116117438D02*
X56691792Y-116165057D01*
X55787030Y-117069819D02*
X56263220Y-117069819D01*
X56263220Y-117069819D02*
X56263220Y-116069819D01*
X55453696Y-117069819D02*
X55453696Y-116069819D01*
X54882268Y-117069819D02*
X55310839Y-116498390D01*
X54882268Y-116069819D02*
X55453696Y-116641247D01*
X54691792Y-117165057D02*
X53929887Y-117165057D01*
X53739410Y-117022200D02*
X53596553Y-117069819D01*
X53596553Y-117069819D02*
X53358458Y-117069819D01*
X53358458Y-117069819D02*
X53263220Y-117022200D01*
X53263220Y-117022200D02*
X53215601Y-116974580D01*
X53215601Y-116974580D02*
X53167982Y-116879342D01*
X53167982Y-116879342D02*
X53167982Y-116784104D01*
X53167982Y-116784104D02*
X53215601Y-116688866D01*
X53215601Y-116688866D02*
X53263220Y-116641247D01*
X53263220Y-116641247D02*
X53358458Y-116593628D01*
X53358458Y-116593628D02*
X53548934Y-116546009D01*
X53548934Y-116546009D02*
X53644172Y-116498390D01*
X53644172Y-116498390D02*
X53691791Y-116450771D01*
X53691791Y-116450771D02*
X53739410Y-116355533D01*
X53739410Y-116355533D02*
X53739410Y-116260295D01*
X53739410Y-116260295D02*
X53691791Y-116165057D01*
X53691791Y-116165057D02*
X53644172Y-116117438D01*
X53644172Y-116117438D02*
X53548934Y-116069819D01*
X53548934Y-116069819D02*
X53310839Y-116069819D01*
X53310839Y-116069819D02*
X53167982Y-116117438D01*
X52739410Y-117069819D02*
X52739410Y-116069819D01*
X52739410Y-116069819D02*
X52358458Y-116069819D01*
X52358458Y-116069819D02*
X52263220Y-116117438D01*
X52263220Y-116117438D02*
X52215601Y-116165057D01*
X52215601Y-116165057D02*
X52167982Y-116260295D01*
X52167982Y-116260295D02*
X52167982Y-116403152D01*
X52167982Y-116403152D02*
X52215601Y-116498390D01*
X52215601Y-116498390D02*
X52263220Y-116546009D01*
X52263220Y-116546009D02*
X52358458Y-116593628D01*
X52358458Y-116593628D02*
X52739410Y-116593628D01*
X51739410Y-117069819D02*
X51739410Y-116069819D01*
X51739410Y-116069819D02*
X51501315Y-116069819D01*
X51501315Y-116069819D02*
X51358458Y-116117438D01*
X51358458Y-116117438D02*
X51263220Y-116212676D01*
X51263220Y-116212676D02*
X51215601Y-116307914D01*
X51215601Y-116307914D02*
X51167982Y-116498390D01*
X51167982Y-116498390D02*
X51167982Y-116641247D01*
X51167982Y-116641247D02*
X51215601Y-116831723D01*
X51215601Y-116831723D02*
X51263220Y-116926961D01*
X51263220Y-116926961D02*
X51358458Y-117022200D01*
X51358458Y-117022200D02*
X51501315Y-117069819D01*
X51501315Y-117069819D02*
X51739410Y-117069819D01*
X99072744Y-64269819D02*
X98882268Y-64269819D01*
X98882268Y-64269819D02*
X98787030Y-64317438D01*
X98787030Y-64317438D02*
X98691792Y-64412676D01*
X98691792Y-64412676D02*
X98644173Y-64603152D01*
X98644173Y-64603152D02*
X98644173Y-64936485D01*
X98644173Y-64936485D02*
X98691792Y-65126961D01*
X98691792Y-65126961D02*
X98787030Y-65222200D01*
X98787030Y-65222200D02*
X98882268Y-65269819D01*
X98882268Y-65269819D02*
X99072744Y-65269819D01*
X99072744Y-65269819D02*
X99167982Y-65222200D01*
X99167982Y-65222200D02*
X99263220Y-65126961D01*
X99263220Y-65126961D02*
X99310839Y-64936485D01*
X99310839Y-64936485D02*
X99310839Y-64603152D01*
X99310839Y-64603152D02*
X99263220Y-64412676D01*
X99263220Y-64412676D02*
X99167982Y-64317438D01*
X99167982Y-64317438D02*
X99072744Y-64269819D01*
X98215601Y-65269819D02*
X98215601Y-64269819D01*
X98215601Y-64269819D02*
X97644173Y-65269819D01*
X97644173Y-65269819D02*
X97644173Y-64269819D01*
X99072744Y-66769819D02*
X98882268Y-66769819D01*
X98882268Y-66769819D02*
X98787030Y-66817438D01*
X98787030Y-66817438D02*
X98691792Y-66912676D01*
X98691792Y-66912676D02*
X98644173Y-67103152D01*
X98644173Y-67103152D02*
X98644173Y-67436485D01*
X98644173Y-67436485D02*
X98691792Y-67626961D01*
X98691792Y-67626961D02*
X98787030Y-67722200D01*
X98787030Y-67722200D02*
X98882268Y-67769819D01*
X98882268Y-67769819D02*
X99072744Y-67769819D01*
X99072744Y-67769819D02*
X99167982Y-67722200D01*
X99167982Y-67722200D02*
X99263220Y-67626961D01*
X99263220Y-67626961D02*
X99310839Y-67436485D01*
X99310839Y-67436485D02*
X99310839Y-67103152D01*
X99310839Y-67103152D02*
X99263220Y-66912676D01*
X99263220Y-66912676D02*
X99167982Y-66817438D01*
X99167982Y-66817438D02*
X99072744Y-66769819D01*
X97882268Y-67246009D02*
X98215601Y-67246009D01*
X98215601Y-67769819D02*
X98215601Y-66769819D01*
X98215601Y-66769819D02*
X97739411Y-66769819D01*
X97025125Y-67246009D02*
X97358458Y-67246009D01*
X97358458Y-67769819D02*
X97358458Y-66769819D01*
X97358458Y-66769819D02*
X96882268Y-66769819D01*
X89663220Y-123539987D02*
X89663220Y-122539987D01*
X89187030Y-122873320D02*
X89187030Y-123539987D01*
X89187030Y-122968558D02*
X89139411Y-122920939D01*
X89139411Y-122920939D02*
X89044173Y-122873320D01*
X89044173Y-122873320D02*
X88901316Y-122873320D01*
X88901316Y-122873320D02*
X88806078Y-122920939D01*
X88806078Y-122920939D02*
X88758459Y-123016177D01*
X88758459Y-123016177D02*
X88758459Y-123539987D01*
X87091792Y-123539987D02*
X87091792Y-123016177D01*
X87091792Y-123016177D02*
X87139411Y-122920939D01*
X87139411Y-122920939D02*
X87234649Y-122873320D01*
X87234649Y-122873320D02*
X87425125Y-122873320D01*
X87425125Y-122873320D02*
X87520363Y-122920939D01*
X87091792Y-123492368D02*
X87187030Y-123539987D01*
X87187030Y-123539987D02*
X87425125Y-123539987D01*
X87425125Y-123539987D02*
X87520363Y-123492368D01*
X87520363Y-123492368D02*
X87567982Y-123397129D01*
X87567982Y-123397129D02*
X87567982Y-123301891D01*
X87567982Y-123301891D02*
X87520363Y-123206653D01*
X87520363Y-123206653D02*
X87425125Y-123159034D01*
X87425125Y-123159034D02*
X87187030Y-123159034D01*
X87187030Y-123159034D02*
X87091792Y-123111415D01*
X85472744Y-123492368D02*
X85567982Y-123539987D01*
X85567982Y-123539987D02*
X85758458Y-123539987D01*
X85758458Y-123539987D02*
X85853696Y-123492368D01*
X85853696Y-123492368D02*
X85901315Y-123397129D01*
X85901315Y-123397129D02*
X85901315Y-123016177D01*
X85901315Y-123016177D02*
X85853696Y-122920939D01*
X85853696Y-122920939D02*
X85758458Y-122873320D01*
X85758458Y-122873320D02*
X85567982Y-122873320D01*
X85567982Y-122873320D02*
X85472744Y-122920939D01*
X85472744Y-122920939D02*
X85425125Y-123016177D01*
X85425125Y-123016177D02*
X85425125Y-123111415D01*
X85425125Y-123111415D02*
X85901315Y-123206653D01*
X84567982Y-122873320D02*
X84567982Y-123539987D01*
X84996553Y-122873320D02*
X84996553Y-123397129D01*
X84996553Y-123397129D02*
X84948934Y-123492368D01*
X84948934Y-123492368D02*
X84853696Y-123539987D01*
X84853696Y-123539987D02*
X84710839Y-123539987D01*
X84710839Y-123539987D02*
X84615601Y-123492368D01*
X84615601Y-123492368D02*
X84567982Y-123444748D01*
X84091791Y-123539987D02*
X84091791Y-122873320D01*
X84091791Y-123063796D02*
X84044172Y-122968558D01*
X84044172Y-122968558D02*
X83996553Y-122920939D01*
X83996553Y-122920939D02*
X83901315Y-122873320D01*
X83901315Y-122873320D02*
X83806077Y-122873320D01*
X83329886Y-123539987D02*
X83425124Y-123492368D01*
X83425124Y-123492368D02*
X83472743Y-123444748D01*
X83472743Y-123444748D02*
X83520362Y-123349510D01*
X83520362Y-123349510D02*
X83520362Y-123063796D01*
X83520362Y-123063796D02*
X83472743Y-122968558D01*
X83472743Y-122968558D02*
X83425124Y-122920939D01*
X83425124Y-122920939D02*
X83329886Y-122873320D01*
X83329886Y-122873320D02*
X83187029Y-122873320D01*
X83187029Y-122873320D02*
X83091791Y-122920939D01*
X83091791Y-122920939D02*
X83044172Y-122968558D01*
X83044172Y-122968558D02*
X82996553Y-123063796D01*
X82996553Y-123063796D02*
X82996553Y-123349510D01*
X82996553Y-123349510D02*
X83044172Y-123444748D01*
X83044172Y-123444748D02*
X83091791Y-123492368D01*
X83091791Y-123492368D02*
X83187029Y-123539987D01*
X83187029Y-123539987D02*
X83329886Y-123539987D01*
X82567981Y-123539987D02*
X82567981Y-122873320D01*
X82567981Y-123063796D02*
X82520362Y-122968558D01*
X82520362Y-122968558D02*
X82472743Y-122920939D01*
X82472743Y-122920939D02*
X82377505Y-122873320D01*
X82377505Y-122873320D02*
X82282267Y-122873320D01*
X81520362Y-123539987D02*
X81520362Y-123016177D01*
X81520362Y-123016177D02*
X81567981Y-122920939D01*
X81567981Y-122920939D02*
X81663219Y-122873320D01*
X81663219Y-122873320D02*
X81853695Y-122873320D01*
X81853695Y-122873320D02*
X81948933Y-122920939D01*
X81520362Y-123492368D02*
X81615600Y-123539987D01*
X81615600Y-123539987D02*
X81853695Y-123539987D01*
X81853695Y-123539987D02*
X81948933Y-123492368D01*
X81948933Y-123492368D02*
X81996552Y-123397129D01*
X81996552Y-123397129D02*
X81996552Y-123301891D01*
X81996552Y-123301891D02*
X81948933Y-123206653D01*
X81948933Y-123206653D02*
X81853695Y-123159034D01*
X81853695Y-123159034D02*
X81615600Y-123159034D01*
X81615600Y-123159034D02*
X81520362Y-123111415D01*
X80615600Y-123492368D02*
X80710838Y-123539987D01*
X80710838Y-123539987D02*
X80901314Y-123539987D01*
X80901314Y-123539987D02*
X80996552Y-123492368D01*
X80996552Y-123492368D02*
X81044171Y-123444748D01*
X81044171Y-123444748D02*
X81091790Y-123349510D01*
X81091790Y-123349510D02*
X81091790Y-123063796D01*
X81091790Y-123063796D02*
X81044171Y-122968558D01*
X81044171Y-122968558D02*
X80996552Y-122920939D01*
X80996552Y-122920939D02*
X80901314Y-122873320D01*
X80901314Y-122873320D02*
X80710838Y-122873320D01*
X80710838Y-122873320D02*
X80615600Y-122920939D01*
X80187028Y-123539987D02*
X80187028Y-122539987D01*
X80091790Y-123159034D02*
X79806076Y-123539987D01*
X79806076Y-122873320D02*
X80187028Y-123254272D01*
X79329885Y-122539987D02*
X79425123Y-122730463D01*
X78948933Y-123492368D02*
X78853695Y-123539987D01*
X78853695Y-123539987D02*
X78663219Y-123539987D01*
X78663219Y-123539987D02*
X78567981Y-123492368D01*
X78567981Y-123492368D02*
X78520362Y-123397129D01*
X78520362Y-123397129D02*
X78520362Y-123349510D01*
X78520362Y-123349510D02*
X78567981Y-123254272D01*
X78567981Y-123254272D02*
X78663219Y-123206653D01*
X78663219Y-123206653D02*
X78806076Y-123206653D01*
X78806076Y-123206653D02*
X78901314Y-123159034D01*
X78901314Y-123159034D02*
X78948933Y-123063796D01*
X78948933Y-123063796D02*
X78948933Y-123016177D01*
X78948933Y-123016177D02*
X78901314Y-122920939D01*
X78901314Y-122920939D02*
X78806076Y-122873320D01*
X78806076Y-122873320D02*
X78663219Y-122873320D01*
X78663219Y-122873320D02*
X78567981Y-122920939D01*
X76901314Y-123539987D02*
X76901314Y-122539987D01*
X76901314Y-123492368D02*
X76996552Y-123539987D01*
X76996552Y-123539987D02*
X77187028Y-123539987D01*
X77187028Y-123539987D02*
X77282266Y-123492368D01*
X77282266Y-123492368D02*
X77329885Y-123444748D01*
X77329885Y-123444748D02*
X77377504Y-123349510D01*
X77377504Y-123349510D02*
X77377504Y-123063796D01*
X77377504Y-123063796D02*
X77329885Y-122968558D01*
X77329885Y-122968558D02*
X77282266Y-122920939D01*
X77282266Y-122920939D02*
X77187028Y-122873320D01*
X77187028Y-122873320D02*
X76996552Y-122873320D01*
X76996552Y-122873320D02*
X76901314Y-122920939D01*
X76044171Y-123492368D02*
X76139409Y-123539987D01*
X76139409Y-123539987D02*
X76329885Y-123539987D01*
X76329885Y-123539987D02*
X76425123Y-123492368D01*
X76425123Y-123492368D02*
X76472742Y-123397129D01*
X76472742Y-123397129D02*
X76472742Y-123016177D01*
X76472742Y-123016177D02*
X76425123Y-122920939D01*
X76425123Y-122920939D02*
X76329885Y-122873320D01*
X76329885Y-122873320D02*
X76139409Y-122873320D01*
X76139409Y-122873320D02*
X76044171Y-122920939D01*
X76044171Y-122920939D02*
X75996552Y-123016177D01*
X75996552Y-123016177D02*
X75996552Y-123111415D01*
X75996552Y-123111415D02*
X76472742Y-123206653D01*
X75567980Y-122873320D02*
X75567980Y-123873320D01*
X75567980Y-122920939D02*
X75472742Y-122873320D01*
X75472742Y-122873320D02*
X75282266Y-122873320D01*
X75282266Y-122873320D02*
X75187028Y-122920939D01*
X75187028Y-122920939D02*
X75139409Y-122968558D01*
X75139409Y-122968558D02*
X75091790Y-123063796D01*
X75091790Y-123063796D02*
X75091790Y-123349510D01*
X75091790Y-123349510D02*
X75139409Y-123444748D01*
X75139409Y-123444748D02*
X75187028Y-123492368D01*
X75187028Y-123492368D02*
X75282266Y-123539987D01*
X75282266Y-123539987D02*
X75472742Y-123539987D01*
X75472742Y-123539987D02*
X75567980Y-123492368D01*
X74806075Y-122873320D02*
X74425123Y-122873320D01*
X74663218Y-122539987D02*
X74663218Y-123397129D01*
X74663218Y-123397129D02*
X74615599Y-123492368D01*
X74615599Y-123492368D02*
X74520361Y-123539987D01*
X74520361Y-123539987D02*
X74425123Y-123539987D01*
X74091789Y-123539987D02*
X74091789Y-122539987D01*
X73663218Y-123539987D02*
X73663218Y-123016177D01*
X73663218Y-123016177D02*
X73710837Y-122920939D01*
X73710837Y-122920939D02*
X73806075Y-122873320D01*
X73806075Y-122873320D02*
X73948932Y-122873320D01*
X73948932Y-122873320D02*
X74044170Y-122920939D01*
X74044170Y-122920939D02*
X74091789Y-122968558D01*
X73234646Y-123492368D02*
X73139408Y-123539987D01*
X73139408Y-123539987D02*
X72948932Y-123539987D01*
X72948932Y-123539987D02*
X72853694Y-123492368D01*
X72853694Y-123492368D02*
X72806075Y-123397129D01*
X72806075Y-123397129D02*
X72806075Y-123349510D01*
X72806075Y-123349510D02*
X72853694Y-123254272D01*
X72853694Y-123254272D02*
X72948932Y-123206653D01*
X72948932Y-123206653D02*
X73091789Y-123206653D01*
X73091789Y-123206653D02*
X73187027Y-123159034D01*
X73187027Y-123159034D02*
X73234646Y-123063796D01*
X73234646Y-123063796D02*
X73234646Y-123016177D01*
X73234646Y-123016177D02*
X73187027Y-122920939D01*
X73187027Y-122920939D02*
X73091789Y-122873320D01*
X73091789Y-122873320D02*
X72948932Y-122873320D01*
X72948932Y-122873320D02*
X72853694Y-122920939D01*
X72329884Y-123492368D02*
X72329884Y-123539987D01*
X72329884Y-123539987D02*
X72377503Y-123635225D01*
X72377503Y-123635225D02*
X72425122Y-123682844D01*
X70710837Y-123492368D02*
X70806075Y-123539987D01*
X70806075Y-123539987D02*
X70996551Y-123539987D01*
X70996551Y-123539987D02*
X71091789Y-123492368D01*
X71091789Y-123492368D02*
X71139408Y-123444748D01*
X71139408Y-123444748D02*
X71187027Y-123349510D01*
X71187027Y-123349510D02*
X71187027Y-123063796D01*
X71187027Y-123063796D02*
X71139408Y-122968558D01*
X71139408Y-122968558D02*
X71091789Y-122920939D01*
X71091789Y-122920939D02*
X70996551Y-122873320D01*
X70996551Y-122873320D02*
X70806075Y-122873320D01*
X70806075Y-122873320D02*
X70710837Y-122920939D01*
X70282265Y-123539987D02*
X70282265Y-122873320D01*
X70282265Y-122539987D02*
X70329884Y-122587606D01*
X70329884Y-122587606D02*
X70282265Y-122635225D01*
X70282265Y-122635225D02*
X70234646Y-122587606D01*
X70234646Y-122587606D02*
X70282265Y-122539987D01*
X70282265Y-122539987D02*
X70282265Y-122635225D01*
X69806075Y-123539987D02*
X69806075Y-122873320D01*
X69806075Y-123063796D02*
X69758456Y-122968558D01*
X69758456Y-122968558D02*
X69710837Y-122920939D01*
X69710837Y-122920939D02*
X69615599Y-122873320D01*
X69615599Y-122873320D02*
X69520361Y-122873320D01*
X68758456Y-123492368D02*
X68853694Y-123539987D01*
X68853694Y-123539987D02*
X69044170Y-123539987D01*
X69044170Y-123539987D02*
X69139408Y-123492368D01*
X69139408Y-123492368D02*
X69187027Y-123444748D01*
X69187027Y-123444748D02*
X69234646Y-123349510D01*
X69234646Y-123349510D02*
X69234646Y-123063796D01*
X69234646Y-123063796D02*
X69187027Y-122968558D01*
X69187027Y-122968558D02*
X69139408Y-122920939D01*
X69139408Y-122920939D02*
X69044170Y-122873320D01*
X69044170Y-122873320D02*
X68853694Y-122873320D01*
X68853694Y-122873320D02*
X68758456Y-122920939D01*
X67901313Y-122873320D02*
X67901313Y-123539987D01*
X68329884Y-122873320D02*
X68329884Y-123397129D01*
X68329884Y-123397129D02*
X68282265Y-123492368D01*
X68282265Y-123492368D02*
X68187027Y-123539987D01*
X68187027Y-123539987D02*
X68044170Y-123539987D01*
X68044170Y-123539987D02*
X67948932Y-123492368D01*
X67948932Y-123492368D02*
X67901313Y-123444748D01*
X67425122Y-123539987D02*
X67425122Y-122873320D01*
X67425122Y-122539987D02*
X67472741Y-122587606D01*
X67472741Y-122587606D02*
X67425122Y-122635225D01*
X67425122Y-122635225D02*
X67377503Y-122587606D01*
X67377503Y-122587606D02*
X67425122Y-122539987D01*
X67425122Y-122539987D02*
X67425122Y-122635225D01*
X67091789Y-122873320D02*
X66710837Y-122873320D01*
X66948932Y-122539987D02*
X66948932Y-123397129D01*
X66948932Y-123397129D02*
X66901313Y-123492368D01*
X66901313Y-123492368D02*
X66806075Y-123539987D01*
X66806075Y-123539987D02*
X66710837Y-123539987D01*
X66425122Y-123492368D02*
X66329884Y-123539987D01*
X66329884Y-123539987D02*
X66139408Y-123539987D01*
X66139408Y-123539987D02*
X66044170Y-123492368D01*
X66044170Y-123492368D02*
X65996551Y-123397129D01*
X65996551Y-123397129D02*
X65996551Y-123349510D01*
X65996551Y-123349510D02*
X66044170Y-123254272D01*
X66044170Y-123254272D02*
X66139408Y-123206653D01*
X66139408Y-123206653D02*
X66282265Y-123206653D01*
X66282265Y-123206653D02*
X66377503Y-123159034D01*
X66377503Y-123159034D02*
X66425122Y-123063796D01*
X66425122Y-123063796D02*
X66425122Y-123016177D01*
X66425122Y-123016177D02*
X66377503Y-122920939D01*
X66377503Y-122920939D02*
X66282265Y-122873320D01*
X66282265Y-122873320D02*
X66139408Y-122873320D01*
X66139408Y-122873320D02*
X66044170Y-122920939D01*
X64377503Y-123539987D02*
X64377503Y-123016177D01*
X64377503Y-123016177D02*
X64425122Y-122920939D01*
X64425122Y-122920939D02*
X64520360Y-122873320D01*
X64520360Y-122873320D02*
X64710836Y-122873320D01*
X64710836Y-122873320D02*
X64806074Y-122920939D01*
X64377503Y-123492368D02*
X64472741Y-123539987D01*
X64472741Y-123539987D02*
X64710836Y-123539987D01*
X64710836Y-123539987D02*
X64806074Y-123492368D01*
X64806074Y-123492368D02*
X64853693Y-123397129D01*
X64853693Y-123397129D02*
X64853693Y-123301891D01*
X64853693Y-123301891D02*
X64806074Y-123206653D01*
X64806074Y-123206653D02*
X64710836Y-123159034D01*
X64710836Y-123159034D02*
X64472741Y-123159034D01*
X64472741Y-123159034D02*
X64377503Y-123111415D01*
X63758455Y-123539987D02*
X63853693Y-123492368D01*
X63853693Y-123492368D02*
X63901312Y-123397129D01*
X63901312Y-123397129D02*
X63901312Y-122539987D01*
X63377502Y-123539987D02*
X63377502Y-122873320D01*
X63377502Y-122539987D02*
X63425121Y-122587606D01*
X63425121Y-122587606D02*
X63377502Y-122635225D01*
X63377502Y-122635225D02*
X63329883Y-122587606D01*
X63329883Y-122587606D02*
X63377502Y-122539987D01*
X63377502Y-122539987D02*
X63377502Y-122635225D01*
X62472741Y-122873320D02*
X62472741Y-123682844D01*
X62472741Y-123682844D02*
X62520360Y-123778082D01*
X62520360Y-123778082D02*
X62567979Y-123825701D01*
X62567979Y-123825701D02*
X62663217Y-123873320D01*
X62663217Y-123873320D02*
X62806074Y-123873320D01*
X62806074Y-123873320D02*
X62901312Y-123825701D01*
X62472741Y-123492368D02*
X62567979Y-123539987D01*
X62567979Y-123539987D02*
X62758455Y-123539987D01*
X62758455Y-123539987D02*
X62853693Y-123492368D01*
X62853693Y-123492368D02*
X62901312Y-123444748D01*
X62901312Y-123444748D02*
X62948931Y-123349510D01*
X62948931Y-123349510D02*
X62948931Y-123063796D01*
X62948931Y-123063796D02*
X62901312Y-122968558D01*
X62901312Y-122968558D02*
X62853693Y-122920939D01*
X62853693Y-122920939D02*
X62758455Y-122873320D01*
X62758455Y-122873320D02*
X62567979Y-122873320D01*
X62567979Y-122873320D02*
X62472741Y-122920939D01*
X61996550Y-122873320D02*
X61996550Y-123539987D01*
X61996550Y-122968558D02*
X61948931Y-122920939D01*
X61948931Y-122920939D02*
X61853693Y-122873320D01*
X61853693Y-122873320D02*
X61710836Y-122873320D01*
X61710836Y-122873320D02*
X61615598Y-122920939D01*
X61615598Y-122920939D02*
X61567979Y-123016177D01*
X61567979Y-123016177D02*
X61567979Y-123539987D01*
X61044169Y-123492368D02*
X61044169Y-123539987D01*
X61044169Y-123539987D02*
X61091788Y-123635225D01*
X61091788Y-123635225D02*
X61139407Y-123682844D01*
X89710839Y-124864216D02*
X89234649Y-124864216D01*
X89806077Y-125149931D02*
X89472744Y-124149931D01*
X89472744Y-124149931D02*
X89139411Y-125149931D01*
X88806077Y-124483264D02*
X88806077Y-125149931D01*
X88806077Y-124578502D02*
X88758458Y-124530883D01*
X88758458Y-124530883D02*
X88663220Y-124483264D01*
X88663220Y-124483264D02*
X88520363Y-124483264D01*
X88520363Y-124483264D02*
X88425125Y-124530883D01*
X88425125Y-124530883D02*
X88377506Y-124626121D01*
X88377506Y-124626121D02*
X88377506Y-125149931D01*
X86758458Y-125102312D02*
X86853696Y-125149931D01*
X86853696Y-125149931D02*
X87044172Y-125149931D01*
X87044172Y-125149931D02*
X87139410Y-125102312D01*
X87139410Y-125102312D02*
X87187029Y-125007073D01*
X87187029Y-125007073D02*
X87187029Y-124626121D01*
X87187029Y-124626121D02*
X87139410Y-124530883D01*
X87139410Y-124530883D02*
X87044172Y-124483264D01*
X87044172Y-124483264D02*
X86853696Y-124483264D01*
X86853696Y-124483264D02*
X86758458Y-124530883D01*
X86758458Y-124530883D02*
X86710839Y-124626121D01*
X86710839Y-124626121D02*
X86710839Y-124721359D01*
X86710839Y-124721359D02*
X87187029Y-124816597D01*
X86282267Y-125149931D02*
X86282267Y-124483264D01*
X86282267Y-124149931D02*
X86329886Y-124197550D01*
X86329886Y-124197550D02*
X86282267Y-124245169D01*
X86282267Y-124245169D02*
X86234648Y-124197550D01*
X86234648Y-124197550D02*
X86282267Y-124149931D01*
X86282267Y-124149931D02*
X86282267Y-124245169D01*
X85377506Y-124483264D02*
X85377506Y-125292788D01*
X85377506Y-125292788D02*
X85425125Y-125388026D01*
X85425125Y-125388026D02*
X85472744Y-125435645D01*
X85472744Y-125435645D02*
X85567982Y-125483264D01*
X85567982Y-125483264D02*
X85710839Y-125483264D01*
X85710839Y-125483264D02*
X85806077Y-125435645D01*
X85377506Y-125102312D02*
X85472744Y-125149931D01*
X85472744Y-125149931D02*
X85663220Y-125149931D01*
X85663220Y-125149931D02*
X85758458Y-125102312D01*
X85758458Y-125102312D02*
X85806077Y-125054692D01*
X85806077Y-125054692D02*
X85853696Y-124959454D01*
X85853696Y-124959454D02*
X85853696Y-124673740D01*
X85853696Y-124673740D02*
X85806077Y-124578502D01*
X85806077Y-124578502D02*
X85758458Y-124530883D01*
X85758458Y-124530883D02*
X85663220Y-124483264D01*
X85663220Y-124483264D02*
X85472744Y-124483264D01*
X85472744Y-124483264D02*
X85377506Y-124530883D01*
X84901315Y-125149931D02*
X84901315Y-124149931D01*
X84472744Y-125149931D02*
X84472744Y-124626121D01*
X84472744Y-124626121D02*
X84520363Y-124530883D01*
X84520363Y-124530883D02*
X84615601Y-124483264D01*
X84615601Y-124483264D02*
X84758458Y-124483264D01*
X84758458Y-124483264D02*
X84853696Y-124530883D01*
X84853696Y-124530883D02*
X84901315Y-124578502D01*
X84139410Y-124483264D02*
X83758458Y-124483264D01*
X83996553Y-124149931D02*
X83996553Y-125007073D01*
X83996553Y-125007073D02*
X83948934Y-125102312D01*
X83948934Y-125102312D02*
X83853696Y-125149931D01*
X83853696Y-125149931D02*
X83758458Y-125149931D01*
X83425124Y-124768978D02*
X82663220Y-124768978D01*
X82234648Y-125102312D02*
X82139410Y-125149931D01*
X82139410Y-125149931D02*
X81948934Y-125149931D01*
X81948934Y-125149931D02*
X81853696Y-125102312D01*
X81853696Y-125102312D02*
X81806077Y-125007073D01*
X81806077Y-125007073D02*
X81806077Y-124959454D01*
X81806077Y-124959454D02*
X81853696Y-124864216D01*
X81853696Y-124864216D02*
X81948934Y-124816597D01*
X81948934Y-124816597D02*
X82091791Y-124816597D01*
X82091791Y-124816597D02*
X82187029Y-124768978D01*
X82187029Y-124768978D02*
X82234648Y-124673740D01*
X82234648Y-124673740D02*
X82234648Y-124626121D01*
X82234648Y-124626121D02*
X82187029Y-124530883D01*
X82187029Y-124530883D02*
X82091791Y-124483264D01*
X82091791Y-124483264D02*
X81948934Y-124483264D01*
X81948934Y-124483264D02*
X81853696Y-124530883D01*
X81520362Y-124483264D02*
X81139410Y-124483264D01*
X81377505Y-124149931D02*
X81377505Y-125007073D01*
X81377505Y-125007073D02*
X81329886Y-125102312D01*
X81329886Y-125102312D02*
X81234648Y-125149931D01*
X81234648Y-125149931D02*
X81139410Y-125149931D01*
X80425124Y-125102312D02*
X80520362Y-125149931D01*
X80520362Y-125149931D02*
X80710838Y-125149931D01*
X80710838Y-125149931D02*
X80806076Y-125102312D01*
X80806076Y-125102312D02*
X80853695Y-125007073D01*
X80853695Y-125007073D02*
X80853695Y-124626121D01*
X80853695Y-124626121D02*
X80806076Y-124530883D01*
X80806076Y-124530883D02*
X80710838Y-124483264D01*
X80710838Y-124483264D02*
X80520362Y-124483264D01*
X80520362Y-124483264D02*
X80425124Y-124530883D01*
X80425124Y-124530883D02*
X80377505Y-124626121D01*
X80377505Y-124626121D02*
X80377505Y-124721359D01*
X80377505Y-124721359D02*
X80853695Y-124816597D01*
X79948933Y-124483264D02*
X79948933Y-125483264D01*
X79948933Y-124530883D02*
X79853695Y-124483264D01*
X79853695Y-124483264D02*
X79663219Y-124483264D01*
X79663219Y-124483264D02*
X79567981Y-124530883D01*
X79567981Y-124530883D02*
X79520362Y-124578502D01*
X79520362Y-124578502D02*
X79472743Y-124673740D01*
X79472743Y-124673740D02*
X79472743Y-124959454D01*
X79472743Y-124959454D02*
X79520362Y-125054692D01*
X79520362Y-125054692D02*
X79567981Y-125102312D01*
X79567981Y-125102312D02*
X79663219Y-125149931D01*
X79663219Y-125149931D02*
X79853695Y-125149931D01*
X79853695Y-125149931D02*
X79948933Y-125102312D01*
X78329885Y-125102312D02*
X78234647Y-125149931D01*
X78234647Y-125149931D02*
X78044171Y-125149931D01*
X78044171Y-125149931D02*
X77948933Y-125102312D01*
X77948933Y-125102312D02*
X77901314Y-125007073D01*
X77901314Y-125007073D02*
X77901314Y-124959454D01*
X77901314Y-124959454D02*
X77948933Y-124864216D01*
X77948933Y-124864216D02*
X78044171Y-124816597D01*
X78044171Y-124816597D02*
X78187028Y-124816597D01*
X78187028Y-124816597D02*
X78282266Y-124768978D01*
X78282266Y-124768978D02*
X78329885Y-124673740D01*
X78329885Y-124673740D02*
X78329885Y-124626121D01*
X78329885Y-124626121D02*
X78282266Y-124530883D01*
X78282266Y-124530883D02*
X78187028Y-124483264D01*
X78187028Y-124483264D02*
X78044171Y-124483264D01*
X78044171Y-124483264D02*
X77948933Y-124530883D01*
X77091790Y-125102312D02*
X77187028Y-125149931D01*
X77187028Y-125149931D02*
X77377504Y-125149931D01*
X77377504Y-125149931D02*
X77472742Y-125102312D01*
X77472742Y-125102312D02*
X77520361Y-125007073D01*
X77520361Y-125007073D02*
X77520361Y-124626121D01*
X77520361Y-124626121D02*
X77472742Y-124530883D01*
X77472742Y-124530883D02*
X77377504Y-124483264D01*
X77377504Y-124483264D02*
X77187028Y-124483264D01*
X77187028Y-124483264D02*
X77091790Y-124530883D01*
X77091790Y-124530883D02*
X77044171Y-124626121D01*
X77044171Y-124626121D02*
X77044171Y-124721359D01*
X77044171Y-124721359D02*
X77520361Y-124816597D01*
X76187028Y-124483264D02*
X76187028Y-125483264D01*
X76187028Y-125102312D02*
X76282266Y-125149931D01*
X76282266Y-125149931D02*
X76472742Y-125149931D01*
X76472742Y-125149931D02*
X76567980Y-125102312D01*
X76567980Y-125102312D02*
X76615599Y-125054692D01*
X76615599Y-125054692D02*
X76663218Y-124959454D01*
X76663218Y-124959454D02*
X76663218Y-124673740D01*
X76663218Y-124673740D02*
X76615599Y-124578502D01*
X76615599Y-124578502D02*
X76567980Y-124530883D01*
X76567980Y-124530883D02*
X76472742Y-124483264D01*
X76472742Y-124483264D02*
X76282266Y-124483264D01*
X76282266Y-124483264D02*
X76187028Y-124530883D01*
X75282266Y-124483264D02*
X75282266Y-125149931D01*
X75710837Y-124483264D02*
X75710837Y-125007073D01*
X75710837Y-125007073D02*
X75663218Y-125102312D01*
X75663218Y-125102312D02*
X75567980Y-125149931D01*
X75567980Y-125149931D02*
X75425123Y-125149931D01*
X75425123Y-125149931D02*
X75329885Y-125102312D01*
X75329885Y-125102312D02*
X75282266Y-125054692D01*
X74425123Y-125102312D02*
X74520361Y-125149931D01*
X74520361Y-125149931D02*
X74710837Y-125149931D01*
X74710837Y-125149931D02*
X74806075Y-125102312D01*
X74806075Y-125102312D02*
X74853694Y-125007073D01*
X74853694Y-125007073D02*
X74853694Y-124626121D01*
X74853694Y-124626121D02*
X74806075Y-124530883D01*
X74806075Y-124530883D02*
X74710837Y-124483264D01*
X74710837Y-124483264D02*
X74520361Y-124483264D01*
X74520361Y-124483264D02*
X74425123Y-124530883D01*
X74425123Y-124530883D02*
X74377504Y-124626121D01*
X74377504Y-124626121D02*
X74377504Y-124721359D01*
X74377504Y-124721359D02*
X74853694Y-124816597D01*
X73948932Y-124483264D02*
X73948932Y-125149931D01*
X73948932Y-124578502D02*
X73901313Y-124530883D01*
X73901313Y-124530883D02*
X73806075Y-124483264D01*
X73806075Y-124483264D02*
X73663218Y-124483264D01*
X73663218Y-124483264D02*
X73567980Y-124530883D01*
X73567980Y-124530883D02*
X73520361Y-124626121D01*
X73520361Y-124626121D02*
X73520361Y-125149931D01*
X72615599Y-125102312D02*
X72710837Y-125149931D01*
X72710837Y-125149931D02*
X72901313Y-125149931D01*
X72901313Y-125149931D02*
X72996551Y-125102312D01*
X72996551Y-125102312D02*
X73044170Y-125054692D01*
X73044170Y-125054692D02*
X73091789Y-124959454D01*
X73091789Y-124959454D02*
X73091789Y-124673740D01*
X73091789Y-124673740D02*
X73044170Y-124578502D01*
X73044170Y-124578502D02*
X72996551Y-124530883D01*
X72996551Y-124530883D02*
X72901313Y-124483264D01*
X72901313Y-124483264D02*
X72710837Y-124483264D01*
X72710837Y-124483264D02*
X72615599Y-124530883D01*
X71806075Y-125102312D02*
X71901313Y-125149931D01*
X71901313Y-125149931D02*
X72091789Y-125149931D01*
X72091789Y-125149931D02*
X72187027Y-125102312D01*
X72187027Y-125102312D02*
X72234646Y-125007073D01*
X72234646Y-125007073D02*
X72234646Y-124626121D01*
X72234646Y-124626121D02*
X72187027Y-124530883D01*
X72187027Y-124530883D02*
X72091789Y-124483264D01*
X72091789Y-124483264D02*
X71901313Y-124483264D01*
X71901313Y-124483264D02*
X71806075Y-124530883D01*
X71806075Y-124530883D02*
X71758456Y-124626121D01*
X71758456Y-124626121D02*
X71758456Y-124721359D01*
X71758456Y-124721359D02*
X72234646Y-124816597D01*
X71329884Y-125149931D02*
X71329884Y-124483264D01*
X71329884Y-124673740D02*
X71282265Y-124578502D01*
X71282265Y-124578502D02*
X71234646Y-124530883D01*
X71234646Y-124530883D02*
X71139408Y-124483264D01*
X71139408Y-124483264D02*
X71044170Y-124483264D01*
X70663217Y-125102312D02*
X70663217Y-125149931D01*
X70663217Y-125149931D02*
X70710836Y-125245169D01*
X70710836Y-125245169D02*
X70758455Y-125292788D01*
X69044170Y-125149931D02*
X69044170Y-124626121D01*
X69044170Y-124626121D02*
X69091789Y-124530883D01*
X69091789Y-124530883D02*
X69187027Y-124483264D01*
X69187027Y-124483264D02*
X69377503Y-124483264D01*
X69377503Y-124483264D02*
X69472741Y-124530883D01*
X69044170Y-125102312D02*
X69139408Y-125149931D01*
X69139408Y-125149931D02*
X69377503Y-125149931D01*
X69377503Y-125149931D02*
X69472741Y-125102312D01*
X69472741Y-125102312D02*
X69520360Y-125007073D01*
X69520360Y-125007073D02*
X69520360Y-124911835D01*
X69520360Y-124911835D02*
X69472741Y-124816597D01*
X69472741Y-124816597D02*
X69377503Y-124768978D01*
X69377503Y-124768978D02*
X69139408Y-124768978D01*
X69139408Y-124768978D02*
X69044170Y-124721359D01*
X67806074Y-125149931D02*
X67806074Y-124483264D01*
X67806074Y-124673740D02*
X67758455Y-124578502D01*
X67758455Y-124578502D02*
X67710836Y-124530883D01*
X67710836Y-124530883D02*
X67615598Y-124483264D01*
X67615598Y-124483264D02*
X67520360Y-124483264D01*
X67187026Y-125149931D02*
X67187026Y-124149931D01*
X66758455Y-125149931D02*
X66758455Y-124626121D01*
X66758455Y-124626121D02*
X66806074Y-124530883D01*
X66806074Y-124530883D02*
X66901312Y-124483264D01*
X66901312Y-124483264D02*
X67044169Y-124483264D01*
X67044169Y-124483264D02*
X67139407Y-124530883D01*
X67139407Y-124530883D02*
X67187026Y-124578502D01*
X66377502Y-124483264D02*
X66139407Y-125149931D01*
X65901312Y-124483264D02*
X66139407Y-125149931D01*
X66139407Y-125149931D02*
X66234645Y-125388026D01*
X66234645Y-125388026D02*
X66282264Y-125435645D01*
X66282264Y-125435645D02*
X66377502Y-125483264D01*
X65663216Y-124483264D02*
X65282264Y-124483264D01*
X65520359Y-124149931D02*
X65520359Y-125007073D01*
X65520359Y-125007073D02*
X65472740Y-125102312D01*
X65472740Y-125102312D02*
X65377502Y-125149931D01*
X65377502Y-125149931D02*
X65282264Y-125149931D01*
X64948930Y-125149931D02*
X64948930Y-124149931D01*
X64520359Y-125149931D02*
X64520359Y-124626121D01*
X64520359Y-124626121D02*
X64567978Y-124530883D01*
X64567978Y-124530883D02*
X64663216Y-124483264D01*
X64663216Y-124483264D02*
X64806073Y-124483264D01*
X64806073Y-124483264D02*
X64901311Y-124530883D01*
X64901311Y-124530883D02*
X64948930Y-124578502D01*
X64044168Y-125149931D02*
X64044168Y-124483264D01*
X64044168Y-124578502D02*
X63996549Y-124530883D01*
X63996549Y-124530883D02*
X63901311Y-124483264D01*
X63901311Y-124483264D02*
X63758454Y-124483264D01*
X63758454Y-124483264D02*
X63663216Y-124530883D01*
X63663216Y-124530883D02*
X63615597Y-124626121D01*
X63615597Y-124626121D02*
X63615597Y-125149931D01*
X63615597Y-124626121D02*
X63567978Y-124530883D01*
X63567978Y-124530883D02*
X63472740Y-124483264D01*
X63472740Y-124483264D02*
X63329883Y-124483264D01*
X63329883Y-124483264D02*
X63234644Y-124530883D01*
X63234644Y-124530883D02*
X63187025Y-124626121D01*
X63187025Y-124626121D02*
X63187025Y-125149931D01*
X61520359Y-125149931D02*
X61520359Y-124149931D01*
X61520359Y-125102312D02*
X61615597Y-125149931D01*
X61615597Y-125149931D02*
X61806073Y-125149931D01*
X61806073Y-125149931D02*
X61901311Y-125102312D01*
X61901311Y-125102312D02*
X61948930Y-125054692D01*
X61948930Y-125054692D02*
X61996549Y-124959454D01*
X61996549Y-124959454D02*
X61996549Y-124673740D01*
X61996549Y-124673740D02*
X61948930Y-124578502D01*
X61948930Y-124578502D02*
X61901311Y-124530883D01*
X61901311Y-124530883D02*
X61806073Y-124483264D01*
X61806073Y-124483264D02*
X61615597Y-124483264D01*
X61615597Y-124483264D02*
X61520359Y-124530883D01*
X61044168Y-125149931D02*
X61044168Y-124483264D01*
X61044168Y-124149931D02*
X61091787Y-124197550D01*
X61091787Y-124197550D02*
X61044168Y-124245169D01*
X61044168Y-124245169D02*
X60996549Y-124197550D01*
X60996549Y-124197550D02*
X61044168Y-124149931D01*
X61044168Y-124149931D02*
X61044168Y-124245169D01*
X60663216Y-124483264D02*
X60425121Y-125149931D01*
X60425121Y-125149931D02*
X60187026Y-124483264D01*
X59806073Y-125149931D02*
X59806073Y-124483264D01*
X59806073Y-124149931D02*
X59853692Y-124197550D01*
X59853692Y-124197550D02*
X59806073Y-124245169D01*
X59806073Y-124245169D02*
X59758454Y-124197550D01*
X59758454Y-124197550D02*
X59806073Y-124149931D01*
X59806073Y-124149931D02*
X59806073Y-124245169D01*
X59329883Y-124483264D02*
X59329883Y-125149931D01*
X59329883Y-124578502D02*
X59282264Y-124530883D01*
X59282264Y-124530883D02*
X59187026Y-124483264D01*
X59187026Y-124483264D02*
X59044169Y-124483264D01*
X59044169Y-124483264D02*
X58948931Y-124530883D01*
X58948931Y-124530883D02*
X58901312Y-124626121D01*
X58901312Y-124626121D02*
X58901312Y-125149931D01*
X58044169Y-125102312D02*
X58139407Y-125149931D01*
X58139407Y-125149931D02*
X58329883Y-125149931D01*
X58329883Y-125149931D02*
X58425121Y-125102312D01*
X58425121Y-125102312D02*
X58472740Y-125007073D01*
X58472740Y-125007073D02*
X58472740Y-124626121D01*
X58472740Y-124626121D02*
X58425121Y-124530883D01*
X58425121Y-124530883D02*
X58329883Y-124483264D01*
X58329883Y-124483264D02*
X58139407Y-124483264D01*
X58139407Y-124483264D02*
X58044169Y-124530883D01*
X58044169Y-124530883D02*
X57996550Y-124626121D01*
X57996550Y-124626121D02*
X57996550Y-124721359D01*
X57996550Y-124721359D02*
X58472740Y-124816597D01*
X57567978Y-125054692D02*
X57520359Y-125102312D01*
X57520359Y-125102312D02*
X57567978Y-125149931D01*
X57567978Y-125149931D02*
X57615597Y-125102312D01*
X57615597Y-125102312D02*
X57567978Y-125054692D01*
X57567978Y-125054692D02*
X57567978Y-125149931D01*
X89187030Y-126759875D02*
X89663220Y-126759875D01*
X89663220Y-126759875D02*
X89663220Y-125759875D01*
X88853696Y-126236065D02*
X88520363Y-126236065D01*
X88377506Y-126759875D02*
X88853696Y-126759875D01*
X88853696Y-126759875D02*
X88853696Y-125759875D01*
X88853696Y-125759875D02*
X88377506Y-125759875D01*
X87948934Y-126759875D02*
X87948934Y-125759875D01*
X87948934Y-125759875D02*
X87710839Y-125759875D01*
X87710839Y-125759875D02*
X87567982Y-125807494D01*
X87567982Y-125807494D02*
X87472744Y-125902732D01*
X87472744Y-125902732D02*
X87425125Y-125997970D01*
X87425125Y-125997970D02*
X87377506Y-126188446D01*
X87377506Y-126188446D02*
X87377506Y-126331303D01*
X87377506Y-126331303D02*
X87425125Y-126521779D01*
X87425125Y-126521779D02*
X87472744Y-126617017D01*
X87472744Y-126617017D02*
X87567982Y-126712256D01*
X87567982Y-126712256D02*
X87710839Y-126759875D01*
X87710839Y-126759875D02*
X87948934Y-126759875D01*
X86996553Y-126712256D02*
X86901315Y-126759875D01*
X86901315Y-126759875D02*
X86710839Y-126759875D01*
X86710839Y-126759875D02*
X86615601Y-126712256D01*
X86615601Y-126712256D02*
X86567982Y-126617017D01*
X86567982Y-126617017D02*
X86567982Y-126569398D01*
X86567982Y-126569398D02*
X86615601Y-126474160D01*
X86615601Y-126474160D02*
X86710839Y-126426541D01*
X86710839Y-126426541D02*
X86853696Y-126426541D01*
X86853696Y-126426541D02*
X86948934Y-126378922D01*
X86948934Y-126378922D02*
X86996553Y-126283684D01*
X86996553Y-126283684D02*
X86996553Y-126236065D01*
X86996553Y-126236065D02*
X86948934Y-126140827D01*
X86948934Y-126140827D02*
X86853696Y-126093208D01*
X86853696Y-126093208D02*
X86710839Y-126093208D01*
X86710839Y-126093208D02*
X86615601Y-126140827D01*
X85520362Y-126093208D02*
X85139410Y-126093208D01*
X85377505Y-126759875D02*
X85377505Y-125902732D01*
X85377505Y-125902732D02*
X85329886Y-125807494D01*
X85329886Y-125807494D02*
X85234648Y-125759875D01*
X85234648Y-125759875D02*
X85139410Y-125759875D01*
X84663219Y-126759875D02*
X84758457Y-126712256D01*
X84758457Y-126712256D02*
X84806076Y-126617017D01*
X84806076Y-126617017D02*
X84806076Y-125759875D01*
X84282266Y-126759875D02*
X84282266Y-126093208D01*
X84282266Y-125759875D02*
X84329885Y-125807494D01*
X84329885Y-125807494D02*
X84282266Y-125855113D01*
X84282266Y-125855113D02*
X84234647Y-125807494D01*
X84234647Y-125807494D02*
X84282266Y-125759875D01*
X84282266Y-125759875D02*
X84282266Y-125855113D01*
X83377505Y-126712256D02*
X83472743Y-126759875D01*
X83472743Y-126759875D02*
X83663219Y-126759875D01*
X83663219Y-126759875D02*
X83758457Y-126712256D01*
X83758457Y-126712256D02*
X83806076Y-126664636D01*
X83806076Y-126664636D02*
X83853695Y-126569398D01*
X83853695Y-126569398D02*
X83853695Y-126283684D01*
X83853695Y-126283684D02*
X83806076Y-126188446D01*
X83806076Y-126188446D02*
X83758457Y-126140827D01*
X83758457Y-126140827D02*
X83663219Y-126093208D01*
X83663219Y-126093208D02*
X83472743Y-126093208D01*
X83472743Y-126093208D02*
X83377505Y-126140827D01*
X82948933Y-126759875D02*
X82948933Y-125759875D01*
X82853695Y-126378922D02*
X82567981Y-126759875D01*
X82567981Y-126093208D02*
X82948933Y-126474160D01*
X81758457Y-126712256D02*
X81853695Y-126759875D01*
X81853695Y-126759875D02*
X82044171Y-126759875D01*
X82044171Y-126759875D02*
X82139409Y-126712256D01*
X82139409Y-126712256D02*
X82187028Y-126617017D01*
X82187028Y-126617017D02*
X82187028Y-126236065D01*
X82187028Y-126236065D02*
X82139409Y-126140827D01*
X82139409Y-126140827D02*
X82044171Y-126093208D01*
X82044171Y-126093208D02*
X81853695Y-126093208D01*
X81853695Y-126093208D02*
X81758457Y-126140827D01*
X81758457Y-126140827D02*
X81710838Y-126236065D01*
X81710838Y-126236065D02*
X81710838Y-126331303D01*
X81710838Y-126331303D02*
X82187028Y-126426541D01*
X81282266Y-126759875D02*
X81282266Y-126093208D01*
X81282266Y-126283684D02*
X81234647Y-126188446D01*
X81234647Y-126188446D02*
X81187028Y-126140827D01*
X81187028Y-126140827D02*
X81091790Y-126093208D01*
X81091790Y-126093208D02*
X80996552Y-126093208D01*
X80615599Y-126712256D02*
X80615599Y-126759875D01*
X80615599Y-126759875D02*
X80663218Y-126855113D01*
X80663218Y-126855113D02*
X80710837Y-126902732D01*
X79425123Y-126759875D02*
X79425123Y-126093208D01*
X79425123Y-126188446D02*
X79377504Y-126140827D01*
X79377504Y-126140827D02*
X79282266Y-126093208D01*
X79282266Y-126093208D02*
X79139409Y-126093208D01*
X79139409Y-126093208D02*
X79044171Y-126140827D01*
X79044171Y-126140827D02*
X78996552Y-126236065D01*
X78996552Y-126236065D02*
X78996552Y-126759875D01*
X78996552Y-126236065D02*
X78948933Y-126140827D01*
X78948933Y-126140827D02*
X78853695Y-126093208D01*
X78853695Y-126093208D02*
X78710838Y-126093208D01*
X78710838Y-126093208D02*
X78615599Y-126140827D01*
X78615599Y-126140827D02*
X78567980Y-126236065D01*
X78567980Y-126236065D02*
X78567980Y-126759875D01*
X77710838Y-126712256D02*
X77806076Y-126759875D01*
X77806076Y-126759875D02*
X77996552Y-126759875D01*
X77996552Y-126759875D02*
X78091790Y-126712256D01*
X78091790Y-126712256D02*
X78139409Y-126617017D01*
X78139409Y-126617017D02*
X78139409Y-126236065D01*
X78139409Y-126236065D02*
X78091790Y-126140827D01*
X78091790Y-126140827D02*
X77996552Y-126093208D01*
X77996552Y-126093208D02*
X77806076Y-126093208D01*
X77806076Y-126093208D02*
X77710838Y-126140827D01*
X77710838Y-126140827D02*
X77663219Y-126236065D01*
X77663219Y-126236065D02*
X77663219Y-126331303D01*
X77663219Y-126331303D02*
X78139409Y-126426541D01*
X77091790Y-126759875D02*
X77187028Y-126712256D01*
X77187028Y-126712256D02*
X77234647Y-126617017D01*
X77234647Y-126617017D02*
X77234647Y-125759875D01*
X76567980Y-126759875D02*
X76663218Y-126712256D01*
X76663218Y-126712256D02*
X76710837Y-126664636D01*
X76710837Y-126664636D02*
X76758456Y-126569398D01*
X76758456Y-126569398D02*
X76758456Y-126283684D01*
X76758456Y-126283684D02*
X76710837Y-126188446D01*
X76710837Y-126188446D02*
X76663218Y-126140827D01*
X76663218Y-126140827D02*
X76567980Y-126093208D01*
X76567980Y-126093208D02*
X76425123Y-126093208D01*
X76425123Y-126093208D02*
X76329885Y-126140827D01*
X76329885Y-126140827D02*
X76282266Y-126188446D01*
X76282266Y-126188446D02*
X76234647Y-126283684D01*
X76234647Y-126283684D02*
X76234647Y-126569398D01*
X76234647Y-126569398D02*
X76282266Y-126664636D01*
X76282266Y-126664636D02*
X76329885Y-126712256D01*
X76329885Y-126712256D02*
X76425123Y-126759875D01*
X76425123Y-126759875D02*
X76567980Y-126759875D01*
X75377504Y-126759875D02*
X75377504Y-125759875D01*
X75377504Y-126712256D02*
X75472742Y-126759875D01*
X75472742Y-126759875D02*
X75663218Y-126759875D01*
X75663218Y-126759875D02*
X75758456Y-126712256D01*
X75758456Y-126712256D02*
X75806075Y-126664636D01*
X75806075Y-126664636D02*
X75853694Y-126569398D01*
X75853694Y-126569398D02*
X75853694Y-126283684D01*
X75853694Y-126283684D02*
X75806075Y-126188446D01*
X75806075Y-126188446D02*
X75758456Y-126140827D01*
X75758456Y-126140827D02*
X75663218Y-126093208D01*
X75663218Y-126093208D02*
X75472742Y-126093208D01*
X75472742Y-126093208D02*
X75377504Y-126140827D01*
X74901313Y-126759875D02*
X74901313Y-126093208D01*
X74901313Y-125759875D02*
X74948932Y-125807494D01*
X74948932Y-125807494D02*
X74901313Y-125855113D01*
X74901313Y-125855113D02*
X74853694Y-125807494D01*
X74853694Y-125807494D02*
X74901313Y-125759875D01*
X74901313Y-125759875D02*
X74901313Y-125855113D01*
X74044171Y-126712256D02*
X74139409Y-126759875D01*
X74139409Y-126759875D02*
X74329885Y-126759875D01*
X74329885Y-126759875D02*
X74425123Y-126712256D01*
X74425123Y-126712256D02*
X74472742Y-126617017D01*
X74472742Y-126617017D02*
X74472742Y-126236065D01*
X74472742Y-126236065D02*
X74425123Y-126140827D01*
X74425123Y-126140827D02*
X74329885Y-126093208D01*
X74329885Y-126093208D02*
X74139409Y-126093208D01*
X74139409Y-126093208D02*
X74044171Y-126140827D01*
X74044171Y-126140827D02*
X73996552Y-126236065D01*
X73996552Y-126236065D02*
X73996552Y-126331303D01*
X73996552Y-126331303D02*
X74472742Y-126426541D01*
X73615599Y-126712256D02*
X73520361Y-126759875D01*
X73520361Y-126759875D02*
X73329885Y-126759875D01*
X73329885Y-126759875D02*
X73234647Y-126712256D01*
X73234647Y-126712256D02*
X73187028Y-126617017D01*
X73187028Y-126617017D02*
X73187028Y-126569398D01*
X73187028Y-126569398D02*
X73234647Y-126474160D01*
X73234647Y-126474160D02*
X73329885Y-126426541D01*
X73329885Y-126426541D02*
X73472742Y-126426541D01*
X73472742Y-126426541D02*
X73567980Y-126378922D01*
X73567980Y-126378922D02*
X73615599Y-126283684D01*
X73615599Y-126283684D02*
X73615599Y-126236065D01*
X73615599Y-126236065D02*
X73567980Y-126140827D01*
X73567980Y-126140827D02*
X73472742Y-126093208D01*
X73472742Y-126093208D02*
X73329885Y-126093208D01*
X73329885Y-126093208D02*
X73234647Y-126140827D01*
X72139408Y-126093208D02*
X71758456Y-126093208D01*
X71996551Y-125759875D02*
X71996551Y-126617017D01*
X71996551Y-126617017D02*
X71948932Y-126712256D01*
X71948932Y-126712256D02*
X71853694Y-126759875D01*
X71853694Y-126759875D02*
X71758456Y-126759875D01*
X70996551Y-126759875D02*
X70996551Y-126236065D01*
X70996551Y-126236065D02*
X71044170Y-126140827D01*
X71044170Y-126140827D02*
X71139408Y-126093208D01*
X71139408Y-126093208D02*
X71329884Y-126093208D01*
X71329884Y-126093208D02*
X71425122Y-126140827D01*
X70996551Y-126712256D02*
X71091789Y-126759875D01*
X71091789Y-126759875D02*
X71329884Y-126759875D01*
X71329884Y-126759875D02*
X71425122Y-126712256D01*
X71425122Y-126712256D02*
X71472741Y-126617017D01*
X71472741Y-126617017D02*
X71472741Y-126521779D01*
X71472741Y-126521779D02*
X71425122Y-126426541D01*
X71425122Y-126426541D02*
X71329884Y-126378922D01*
X71329884Y-126378922D02*
X71091789Y-126378922D01*
X71091789Y-126378922D02*
X70996551Y-126331303D01*
X70520360Y-126759875D02*
X70520360Y-125759875D01*
X70425122Y-126378922D02*
X70139408Y-126759875D01*
X70139408Y-126093208D02*
X70520360Y-126474160D01*
X69329884Y-126712256D02*
X69425122Y-126759875D01*
X69425122Y-126759875D02*
X69615598Y-126759875D01*
X69615598Y-126759875D02*
X69710836Y-126712256D01*
X69710836Y-126712256D02*
X69758455Y-126617017D01*
X69758455Y-126617017D02*
X69758455Y-126236065D01*
X69758455Y-126236065D02*
X69710836Y-126140827D01*
X69710836Y-126140827D02*
X69615598Y-126093208D01*
X69615598Y-126093208D02*
X69425122Y-126093208D01*
X69425122Y-126093208D02*
X69329884Y-126140827D01*
X69329884Y-126140827D02*
X69282265Y-126236065D01*
X69282265Y-126236065D02*
X69282265Y-126331303D01*
X69282265Y-126331303D02*
X69758455Y-126426541D01*
X68234645Y-126093208D02*
X67853693Y-126093208D01*
X68091788Y-126759875D02*
X68091788Y-125902732D01*
X68091788Y-125902732D02*
X68044169Y-125807494D01*
X68044169Y-125807494D02*
X67948931Y-125759875D01*
X67948931Y-125759875D02*
X67853693Y-125759875D01*
X67377502Y-126759875D02*
X67472740Y-126712256D01*
X67472740Y-126712256D02*
X67520359Y-126617017D01*
X67520359Y-126617017D02*
X67520359Y-125759875D01*
X66996549Y-126759875D02*
X66996549Y-126093208D01*
X66996549Y-125759875D02*
X67044168Y-125807494D01*
X67044168Y-125807494D02*
X66996549Y-125855113D01*
X66996549Y-125855113D02*
X66948930Y-125807494D01*
X66948930Y-125807494D02*
X66996549Y-125759875D01*
X66996549Y-125759875D02*
X66996549Y-125855113D01*
X66091788Y-126093208D02*
X66091788Y-126902732D01*
X66091788Y-126902732D02*
X66139407Y-126997970D01*
X66139407Y-126997970D02*
X66187026Y-127045589D01*
X66187026Y-127045589D02*
X66282264Y-127093208D01*
X66282264Y-127093208D02*
X66425121Y-127093208D01*
X66425121Y-127093208D02*
X66520359Y-127045589D01*
X66091788Y-126712256D02*
X66187026Y-126759875D01*
X66187026Y-126759875D02*
X66377502Y-126759875D01*
X66377502Y-126759875D02*
X66472740Y-126712256D01*
X66472740Y-126712256D02*
X66520359Y-126664636D01*
X66520359Y-126664636D02*
X66567978Y-126569398D01*
X66567978Y-126569398D02*
X66567978Y-126283684D01*
X66567978Y-126283684D02*
X66520359Y-126188446D01*
X66520359Y-126188446D02*
X66472740Y-126140827D01*
X66472740Y-126140827D02*
X66377502Y-126093208D01*
X66377502Y-126093208D02*
X66187026Y-126093208D01*
X66187026Y-126093208D02*
X66091788Y-126140827D01*
X65615597Y-126759875D02*
X65615597Y-125759875D01*
X65187026Y-126759875D02*
X65187026Y-126236065D01*
X65187026Y-126236065D02*
X65234645Y-126140827D01*
X65234645Y-126140827D02*
X65329883Y-126093208D01*
X65329883Y-126093208D02*
X65472740Y-126093208D01*
X65472740Y-126093208D02*
X65567978Y-126140827D01*
X65567978Y-126140827D02*
X65615597Y-126188446D01*
X64853692Y-126093208D02*
X64472740Y-126093208D01*
X64710835Y-125759875D02*
X64710835Y-126617017D01*
X64710835Y-126617017D02*
X64663216Y-126712256D01*
X64663216Y-126712256D02*
X64567978Y-126759875D01*
X64567978Y-126759875D02*
X64472740Y-126759875D01*
X64091787Y-126712256D02*
X64091787Y-126759875D01*
X64091787Y-126759875D02*
X64139406Y-126855113D01*
X64139406Y-126855113D02*
X64187025Y-126902732D01*
X89663220Y-128369819D02*
X89663220Y-127369819D01*
X89187030Y-127703152D02*
X89187030Y-128369819D01*
X89187030Y-127798390D02*
X89139411Y-127750771D01*
X89139411Y-127750771D02*
X89044173Y-127703152D01*
X89044173Y-127703152D02*
X88901316Y-127703152D01*
X88901316Y-127703152D02*
X88806078Y-127750771D01*
X88806078Y-127750771D02*
X88758459Y-127846009D01*
X88758459Y-127846009D02*
X88758459Y-128369819D01*
X88425125Y-127703152D02*
X88044173Y-127703152D01*
X88282268Y-128369819D02*
X88282268Y-127512676D01*
X88282268Y-127512676D02*
X88234649Y-127417438D01*
X88234649Y-127417438D02*
X88139411Y-127369819D01*
X88139411Y-127369819D02*
X88044173Y-127369819D01*
X87710839Y-128369819D02*
X87710839Y-127703152D01*
X87710839Y-127369819D02*
X87758458Y-127417438D01*
X87758458Y-127417438D02*
X87710839Y-127465057D01*
X87710839Y-127465057D02*
X87663220Y-127417438D01*
X87663220Y-127417438D02*
X87710839Y-127369819D01*
X87710839Y-127369819D02*
X87710839Y-127465057D01*
X87234649Y-127703152D02*
X87234649Y-128369819D01*
X87234649Y-127798390D02*
X87187030Y-127750771D01*
X87187030Y-127750771D02*
X87091792Y-127703152D01*
X87091792Y-127703152D02*
X86948935Y-127703152D01*
X86948935Y-127703152D02*
X86853697Y-127750771D01*
X86853697Y-127750771D02*
X86806078Y-127846009D01*
X86806078Y-127846009D02*
X86806078Y-128369819D01*
X86329887Y-128369819D02*
X86329887Y-127703152D01*
X86329887Y-127369819D02*
X86377506Y-127417438D01*
X86377506Y-127417438D02*
X86329887Y-127465057D01*
X86329887Y-127465057D02*
X86282268Y-127417438D01*
X86282268Y-127417438D02*
X86329887Y-127369819D01*
X86329887Y-127369819D02*
X86329887Y-127465057D01*
X85996554Y-127703152D02*
X85615602Y-127703152D01*
X85853697Y-127369819D02*
X85853697Y-128226961D01*
X85853697Y-128226961D02*
X85806078Y-128322200D01*
X85806078Y-128322200D02*
X85710840Y-128369819D01*
X85710840Y-128369819D02*
X85615602Y-128369819D01*
X84901316Y-128322200D02*
X84996554Y-128369819D01*
X84996554Y-128369819D02*
X85187030Y-128369819D01*
X85187030Y-128369819D02*
X85282268Y-128322200D01*
X85282268Y-128322200D02*
X85329887Y-128226961D01*
X85329887Y-128226961D02*
X85329887Y-127846009D01*
X85329887Y-127846009D02*
X85282268Y-127750771D01*
X85282268Y-127750771D02*
X85187030Y-127703152D01*
X85187030Y-127703152D02*
X84996554Y-127703152D01*
X84996554Y-127703152D02*
X84901316Y-127750771D01*
X84901316Y-127750771D02*
X84853697Y-127846009D01*
X84853697Y-127846009D02*
X84853697Y-127941247D01*
X84853697Y-127941247D02*
X85329887Y-128036485D01*
X83663220Y-127703152D02*
X83663220Y-128703152D01*
X83663220Y-127750771D02*
X83567982Y-127703152D01*
X83567982Y-127703152D02*
X83377506Y-127703152D01*
X83377506Y-127703152D02*
X83282268Y-127750771D01*
X83282268Y-127750771D02*
X83234649Y-127798390D01*
X83234649Y-127798390D02*
X83187030Y-127893628D01*
X83187030Y-127893628D02*
X83187030Y-128179342D01*
X83187030Y-128179342D02*
X83234649Y-128274580D01*
X83234649Y-128274580D02*
X83282268Y-128322200D01*
X83282268Y-128322200D02*
X83377506Y-128369819D01*
X83377506Y-128369819D02*
X83567982Y-128369819D01*
X83567982Y-128369819D02*
X83663220Y-128322200D01*
X82615601Y-128369819D02*
X82710839Y-128322200D01*
X82710839Y-128322200D02*
X82758458Y-128274580D01*
X82758458Y-128274580D02*
X82806077Y-128179342D01*
X82806077Y-128179342D02*
X82806077Y-127893628D01*
X82806077Y-127893628D02*
X82758458Y-127798390D01*
X82758458Y-127798390D02*
X82710839Y-127750771D01*
X82710839Y-127750771D02*
X82615601Y-127703152D01*
X82615601Y-127703152D02*
X82472744Y-127703152D01*
X82472744Y-127703152D02*
X82377506Y-127750771D01*
X82377506Y-127750771D02*
X82329887Y-127798390D01*
X82329887Y-127798390D02*
X82282268Y-127893628D01*
X82282268Y-127893628D02*
X82282268Y-128179342D01*
X82282268Y-128179342D02*
X82329887Y-128274580D01*
X82329887Y-128274580D02*
X82377506Y-128322200D01*
X82377506Y-128322200D02*
X82472744Y-128369819D01*
X82472744Y-128369819D02*
X82615601Y-128369819D01*
X81901315Y-128322200D02*
X81806077Y-128369819D01*
X81806077Y-128369819D02*
X81615601Y-128369819D01*
X81615601Y-128369819D02*
X81520363Y-128322200D01*
X81520363Y-128322200D02*
X81472744Y-128226961D01*
X81472744Y-128226961D02*
X81472744Y-128179342D01*
X81472744Y-128179342D02*
X81520363Y-128084104D01*
X81520363Y-128084104D02*
X81615601Y-128036485D01*
X81615601Y-128036485D02*
X81758458Y-128036485D01*
X81758458Y-128036485D02*
X81853696Y-127988866D01*
X81853696Y-127988866D02*
X81901315Y-127893628D01*
X81901315Y-127893628D02*
X81901315Y-127846009D01*
X81901315Y-127846009D02*
X81853696Y-127750771D01*
X81853696Y-127750771D02*
X81758458Y-127703152D01*
X81758458Y-127703152D02*
X81615601Y-127703152D01*
X81615601Y-127703152D02*
X81520363Y-127750771D01*
X81091791Y-128322200D02*
X80996553Y-128369819D01*
X80996553Y-128369819D02*
X80806077Y-128369819D01*
X80806077Y-128369819D02*
X80710839Y-128322200D01*
X80710839Y-128322200D02*
X80663220Y-128226961D01*
X80663220Y-128226961D02*
X80663220Y-128179342D01*
X80663220Y-128179342D02*
X80710839Y-128084104D01*
X80710839Y-128084104D02*
X80806077Y-128036485D01*
X80806077Y-128036485D02*
X80948934Y-128036485D01*
X80948934Y-128036485D02*
X81044172Y-127988866D01*
X81044172Y-127988866D02*
X81091791Y-127893628D01*
X81091791Y-127893628D02*
X81091791Y-127846009D01*
X81091791Y-127846009D02*
X81044172Y-127750771D01*
X81044172Y-127750771D02*
X80948934Y-127703152D01*
X80948934Y-127703152D02*
X80806077Y-127703152D01*
X80806077Y-127703152D02*
X80710839Y-127750771D01*
X80234648Y-128369819D02*
X80234648Y-127703152D01*
X80234648Y-127369819D02*
X80282267Y-127417438D01*
X80282267Y-127417438D02*
X80234648Y-127465057D01*
X80234648Y-127465057D02*
X80187029Y-127417438D01*
X80187029Y-127417438D02*
X80234648Y-127369819D01*
X80234648Y-127369819D02*
X80234648Y-127465057D01*
X79758458Y-128369819D02*
X79758458Y-127369819D01*
X79758458Y-127750771D02*
X79663220Y-127703152D01*
X79663220Y-127703152D02*
X79472744Y-127703152D01*
X79472744Y-127703152D02*
X79377506Y-127750771D01*
X79377506Y-127750771D02*
X79329887Y-127798390D01*
X79329887Y-127798390D02*
X79282268Y-127893628D01*
X79282268Y-127893628D02*
X79282268Y-128179342D01*
X79282268Y-128179342D02*
X79329887Y-128274580D01*
X79329887Y-128274580D02*
X79377506Y-128322200D01*
X79377506Y-128322200D02*
X79472744Y-128369819D01*
X79472744Y-128369819D02*
X79663220Y-128369819D01*
X79663220Y-128369819D02*
X79758458Y-128322200D01*
X78853696Y-128369819D02*
X78853696Y-127703152D01*
X78853696Y-127369819D02*
X78901315Y-127417438D01*
X78901315Y-127417438D02*
X78853696Y-127465057D01*
X78853696Y-127465057D02*
X78806077Y-127417438D01*
X78806077Y-127417438D02*
X78853696Y-127369819D01*
X78853696Y-127369819D02*
X78853696Y-127465057D01*
X78234649Y-128369819D02*
X78329887Y-128322200D01*
X78329887Y-128322200D02*
X78377506Y-128226961D01*
X78377506Y-128226961D02*
X78377506Y-127369819D01*
X77853696Y-128369819D02*
X77853696Y-127703152D01*
X77853696Y-127369819D02*
X77901315Y-127417438D01*
X77901315Y-127417438D02*
X77853696Y-127465057D01*
X77853696Y-127465057D02*
X77806077Y-127417438D01*
X77806077Y-127417438D02*
X77853696Y-127369819D01*
X77853696Y-127369819D02*
X77853696Y-127465057D01*
X77520363Y-127703152D02*
X77139411Y-127703152D01*
X77377506Y-127369819D02*
X77377506Y-128226961D01*
X77377506Y-128226961D02*
X77329887Y-128322200D01*
X77329887Y-128322200D02*
X77234649Y-128369819D01*
X77234649Y-128369819D02*
X77139411Y-128369819D01*
X76806077Y-128369819D02*
X76806077Y-127703152D01*
X76806077Y-127369819D02*
X76853696Y-127417438D01*
X76853696Y-127417438D02*
X76806077Y-127465057D01*
X76806077Y-127465057D02*
X76758458Y-127417438D01*
X76758458Y-127417438D02*
X76806077Y-127369819D01*
X76806077Y-127369819D02*
X76806077Y-127465057D01*
X75948935Y-128322200D02*
X76044173Y-128369819D01*
X76044173Y-128369819D02*
X76234649Y-128369819D01*
X76234649Y-128369819D02*
X76329887Y-128322200D01*
X76329887Y-128322200D02*
X76377506Y-128226961D01*
X76377506Y-128226961D02*
X76377506Y-127846009D01*
X76377506Y-127846009D02*
X76329887Y-127750771D01*
X76329887Y-127750771D02*
X76234649Y-127703152D01*
X76234649Y-127703152D02*
X76044173Y-127703152D01*
X76044173Y-127703152D02*
X75948935Y-127750771D01*
X75948935Y-127750771D02*
X75901316Y-127846009D01*
X75901316Y-127846009D02*
X75901316Y-127941247D01*
X75901316Y-127941247D02*
X76377506Y-128036485D01*
X75520363Y-128322200D02*
X75425125Y-128369819D01*
X75425125Y-128369819D02*
X75234649Y-128369819D01*
X75234649Y-128369819D02*
X75139411Y-128322200D01*
X75139411Y-128322200D02*
X75091792Y-128226961D01*
X75091792Y-128226961D02*
X75091792Y-128179342D01*
X75091792Y-128179342D02*
X75139411Y-128084104D01*
X75139411Y-128084104D02*
X75234649Y-128036485D01*
X75234649Y-128036485D02*
X75377506Y-128036485D01*
X75377506Y-128036485D02*
X75472744Y-127988866D01*
X75472744Y-127988866D02*
X75520363Y-127893628D01*
X75520363Y-127893628D02*
X75520363Y-127846009D01*
X75520363Y-127846009D02*
X75472744Y-127750771D01*
X75472744Y-127750771D02*
X75377506Y-127703152D01*
X75377506Y-127703152D02*
X75234649Y-127703152D01*
X75234649Y-127703152D02*
X75139411Y-127750771D01*
X74615601Y-128322200D02*
X74615601Y-128369819D01*
X74615601Y-128369819D02*
X74663220Y-128465057D01*
X74663220Y-128465057D02*
X74710839Y-128512676D01*
X73425125Y-128369819D02*
X73425125Y-127703152D01*
X73425125Y-127369819D02*
X73472744Y-127417438D01*
X73472744Y-127417438D02*
X73425125Y-127465057D01*
X73425125Y-127465057D02*
X73377506Y-127417438D01*
X73377506Y-127417438D02*
X73425125Y-127369819D01*
X73425125Y-127369819D02*
X73425125Y-127465057D01*
X72948935Y-127703152D02*
X72948935Y-128369819D01*
X72948935Y-127798390D02*
X72901316Y-127750771D01*
X72901316Y-127750771D02*
X72806078Y-127703152D01*
X72806078Y-127703152D02*
X72663221Y-127703152D01*
X72663221Y-127703152D02*
X72567983Y-127750771D01*
X72567983Y-127750771D02*
X72520364Y-127846009D01*
X72520364Y-127846009D02*
X72520364Y-128369819D01*
X71425125Y-127703152D02*
X71044173Y-127703152D01*
X71282268Y-127369819D02*
X71282268Y-128226961D01*
X71282268Y-128226961D02*
X71234649Y-128322200D01*
X71234649Y-128322200D02*
X71139411Y-128369819D01*
X71139411Y-128369819D02*
X71044173Y-128369819D01*
X70710839Y-128369819D02*
X70710839Y-127369819D01*
X70282268Y-128369819D02*
X70282268Y-127846009D01*
X70282268Y-127846009D02*
X70329887Y-127750771D01*
X70329887Y-127750771D02*
X70425125Y-127703152D01*
X70425125Y-127703152D02*
X70567982Y-127703152D01*
X70567982Y-127703152D02*
X70663220Y-127750771D01*
X70663220Y-127750771D02*
X70710839Y-127798390D01*
X69425125Y-128322200D02*
X69520363Y-128369819D01*
X69520363Y-128369819D02*
X69710839Y-128369819D01*
X69710839Y-128369819D02*
X69806077Y-128322200D01*
X69806077Y-128322200D02*
X69853696Y-128226961D01*
X69853696Y-128226961D02*
X69853696Y-127846009D01*
X69853696Y-127846009D02*
X69806077Y-127750771D01*
X69806077Y-127750771D02*
X69710839Y-127703152D01*
X69710839Y-127703152D02*
X69520363Y-127703152D01*
X69520363Y-127703152D02*
X69425125Y-127750771D01*
X69425125Y-127750771D02*
X69377506Y-127846009D01*
X69377506Y-127846009D02*
X69377506Y-127941247D01*
X69377506Y-127941247D02*
X69853696Y-128036485D01*
X68234648Y-128322200D02*
X68139410Y-128369819D01*
X68139410Y-128369819D02*
X67948934Y-128369819D01*
X67948934Y-128369819D02*
X67853696Y-128322200D01*
X67853696Y-128322200D02*
X67806077Y-128226961D01*
X67806077Y-128226961D02*
X67806077Y-128179342D01*
X67806077Y-128179342D02*
X67853696Y-128084104D01*
X67853696Y-128084104D02*
X67948934Y-128036485D01*
X67948934Y-128036485D02*
X68091791Y-128036485D01*
X68091791Y-128036485D02*
X68187029Y-127988866D01*
X68187029Y-127988866D02*
X68234648Y-127893628D01*
X68234648Y-127893628D02*
X68234648Y-127846009D01*
X68234648Y-127846009D02*
X68187029Y-127750771D01*
X68187029Y-127750771D02*
X68091791Y-127703152D01*
X68091791Y-127703152D02*
X67948934Y-127703152D01*
X67948934Y-127703152D02*
X67853696Y-127750771D01*
X66996553Y-128322200D02*
X67091791Y-128369819D01*
X67091791Y-128369819D02*
X67282267Y-128369819D01*
X67282267Y-128369819D02*
X67377505Y-128322200D01*
X67377505Y-128322200D02*
X67425124Y-128226961D01*
X67425124Y-128226961D02*
X67425124Y-127846009D01*
X67425124Y-127846009D02*
X67377505Y-127750771D01*
X67377505Y-127750771D02*
X67282267Y-127703152D01*
X67282267Y-127703152D02*
X67091791Y-127703152D01*
X67091791Y-127703152D02*
X66996553Y-127750771D01*
X66996553Y-127750771D02*
X66948934Y-127846009D01*
X66948934Y-127846009D02*
X66948934Y-127941247D01*
X66948934Y-127941247D02*
X67425124Y-128036485D01*
X66091791Y-127703152D02*
X66091791Y-128703152D01*
X66091791Y-128322200D02*
X66187029Y-128369819D01*
X66187029Y-128369819D02*
X66377505Y-128369819D01*
X66377505Y-128369819D02*
X66472743Y-128322200D01*
X66472743Y-128322200D02*
X66520362Y-128274580D01*
X66520362Y-128274580D02*
X66567981Y-128179342D01*
X66567981Y-128179342D02*
X66567981Y-127893628D01*
X66567981Y-127893628D02*
X66520362Y-127798390D01*
X66520362Y-127798390D02*
X66472743Y-127750771D01*
X66472743Y-127750771D02*
X66377505Y-127703152D01*
X66377505Y-127703152D02*
X66187029Y-127703152D01*
X66187029Y-127703152D02*
X66091791Y-127750771D01*
X65187029Y-127703152D02*
X65187029Y-128369819D01*
X65615600Y-127703152D02*
X65615600Y-128226961D01*
X65615600Y-128226961D02*
X65567981Y-128322200D01*
X65567981Y-128322200D02*
X65472743Y-128369819D01*
X65472743Y-128369819D02*
X65329886Y-128369819D01*
X65329886Y-128369819D02*
X65234648Y-128322200D01*
X65234648Y-128322200D02*
X65187029Y-128274580D01*
X64329886Y-128322200D02*
X64425124Y-128369819D01*
X64425124Y-128369819D02*
X64615600Y-128369819D01*
X64615600Y-128369819D02*
X64710838Y-128322200D01*
X64710838Y-128322200D02*
X64758457Y-128226961D01*
X64758457Y-128226961D02*
X64758457Y-127846009D01*
X64758457Y-127846009D02*
X64710838Y-127750771D01*
X64710838Y-127750771D02*
X64615600Y-127703152D01*
X64615600Y-127703152D02*
X64425124Y-127703152D01*
X64425124Y-127703152D02*
X64329886Y-127750771D01*
X64329886Y-127750771D02*
X64282267Y-127846009D01*
X64282267Y-127846009D02*
X64282267Y-127941247D01*
X64282267Y-127941247D02*
X64758457Y-128036485D01*
X63853695Y-127703152D02*
X63853695Y-128369819D01*
X63853695Y-127798390D02*
X63806076Y-127750771D01*
X63806076Y-127750771D02*
X63710838Y-127703152D01*
X63710838Y-127703152D02*
X63567981Y-127703152D01*
X63567981Y-127703152D02*
X63472743Y-127750771D01*
X63472743Y-127750771D02*
X63425124Y-127846009D01*
X63425124Y-127846009D02*
X63425124Y-128369819D01*
X62520362Y-128322200D02*
X62615600Y-128369819D01*
X62615600Y-128369819D02*
X62806076Y-128369819D01*
X62806076Y-128369819D02*
X62901314Y-128322200D01*
X62901314Y-128322200D02*
X62948933Y-128274580D01*
X62948933Y-128274580D02*
X62996552Y-128179342D01*
X62996552Y-128179342D02*
X62996552Y-127893628D01*
X62996552Y-127893628D02*
X62948933Y-127798390D01*
X62948933Y-127798390D02*
X62901314Y-127750771D01*
X62901314Y-127750771D02*
X62806076Y-127703152D01*
X62806076Y-127703152D02*
X62615600Y-127703152D01*
X62615600Y-127703152D02*
X62520362Y-127750771D01*
X61710838Y-128322200D02*
X61806076Y-128369819D01*
X61806076Y-128369819D02*
X61996552Y-128369819D01*
X61996552Y-128369819D02*
X62091790Y-128322200D01*
X62091790Y-128322200D02*
X62139409Y-128226961D01*
X62139409Y-128226961D02*
X62139409Y-127846009D01*
X62139409Y-127846009D02*
X62091790Y-127750771D01*
X62091790Y-127750771D02*
X61996552Y-127703152D01*
X61996552Y-127703152D02*
X61806076Y-127703152D01*
X61806076Y-127703152D02*
X61710838Y-127750771D01*
X61710838Y-127750771D02*
X61663219Y-127846009D01*
X61663219Y-127846009D02*
X61663219Y-127941247D01*
X61663219Y-127941247D02*
X62139409Y-128036485D01*
X61234647Y-128369819D02*
X61234647Y-127703152D01*
X61234647Y-127893628D02*
X61187028Y-127798390D01*
X61187028Y-127798390D02*
X61139409Y-127750771D01*
X61139409Y-127750771D02*
X61044171Y-127703152D01*
X61044171Y-127703152D02*
X60948933Y-127703152D01*
X60567980Y-127369819D02*
X60663218Y-127560295D01*
X60187028Y-128322200D02*
X60091790Y-128369819D01*
X60091790Y-128369819D02*
X59901314Y-128369819D01*
X59901314Y-128369819D02*
X59806076Y-128322200D01*
X59806076Y-128322200D02*
X59758457Y-128226961D01*
X59758457Y-128226961D02*
X59758457Y-128179342D01*
X59758457Y-128179342D02*
X59806076Y-128084104D01*
X59806076Y-128084104D02*
X59901314Y-128036485D01*
X59901314Y-128036485D02*
X60044171Y-128036485D01*
X60044171Y-128036485D02*
X60139409Y-127988866D01*
X60139409Y-127988866D02*
X60187028Y-127893628D01*
X60187028Y-127893628D02*
X60187028Y-127846009D01*
X60187028Y-127846009D02*
X60139409Y-127750771D01*
X60139409Y-127750771D02*
X60044171Y-127703152D01*
X60044171Y-127703152D02*
X59901314Y-127703152D01*
X59901314Y-127703152D02*
X59806076Y-127750771D01*
X58425123Y-128369819D02*
X58520361Y-128322200D01*
X58520361Y-128322200D02*
X58567980Y-128226961D01*
X58567980Y-128226961D02*
X58567980Y-127369819D01*
X58044170Y-128369819D02*
X58044170Y-127703152D01*
X58044170Y-127369819D02*
X58091789Y-127417438D01*
X58091789Y-127417438D02*
X58044170Y-127465057D01*
X58044170Y-127465057D02*
X57996551Y-127417438D01*
X57996551Y-127417438D02*
X58044170Y-127369819D01*
X58044170Y-127369819D02*
X58044170Y-127465057D01*
X57139409Y-127703152D02*
X57139409Y-128512676D01*
X57139409Y-128512676D02*
X57187028Y-128607914D01*
X57187028Y-128607914D02*
X57234647Y-128655533D01*
X57234647Y-128655533D02*
X57329885Y-128703152D01*
X57329885Y-128703152D02*
X57472742Y-128703152D01*
X57472742Y-128703152D02*
X57567980Y-128655533D01*
X57139409Y-128322200D02*
X57234647Y-128369819D01*
X57234647Y-128369819D02*
X57425123Y-128369819D01*
X57425123Y-128369819D02*
X57520361Y-128322200D01*
X57520361Y-128322200D02*
X57567980Y-128274580D01*
X57567980Y-128274580D02*
X57615599Y-128179342D01*
X57615599Y-128179342D02*
X57615599Y-127893628D01*
X57615599Y-127893628D02*
X57567980Y-127798390D01*
X57567980Y-127798390D02*
X57520361Y-127750771D01*
X57520361Y-127750771D02*
X57425123Y-127703152D01*
X57425123Y-127703152D02*
X57234647Y-127703152D01*
X57234647Y-127703152D02*
X57139409Y-127750771D01*
X56663218Y-128369819D02*
X56663218Y-127369819D01*
X56234647Y-128369819D02*
X56234647Y-127846009D01*
X56234647Y-127846009D02*
X56282266Y-127750771D01*
X56282266Y-127750771D02*
X56377504Y-127703152D01*
X56377504Y-127703152D02*
X56520361Y-127703152D01*
X56520361Y-127703152D02*
X56615599Y-127750771D01*
X56615599Y-127750771D02*
X56663218Y-127798390D01*
X55901313Y-127703152D02*
X55520361Y-127703152D01*
X55758456Y-127369819D02*
X55758456Y-128226961D01*
X55758456Y-128226961D02*
X55710837Y-128322200D01*
X55710837Y-128322200D02*
X55615599Y-128369819D01*
X55615599Y-128369819D02*
X55520361Y-128369819D01*
X55187027Y-128274580D02*
X55139408Y-128322200D01*
X55139408Y-128322200D02*
X55187027Y-128369819D01*
X55187027Y-128369819D02*
X55234646Y-128322200D01*
X55234646Y-128322200D02*
X55187027Y-128274580D01*
X55187027Y-128274580D02*
X55187027Y-128369819D01*
X100829887Y-60846009D02*
X100687030Y-60893628D01*
X100687030Y-60893628D02*
X100639411Y-60941247D01*
X100639411Y-60941247D02*
X100591792Y-61036485D01*
X100591792Y-61036485D02*
X100591792Y-61179342D01*
X100591792Y-61179342D02*
X100639411Y-61274580D01*
X100639411Y-61274580D02*
X100687030Y-61322200D01*
X100687030Y-61322200D02*
X100782268Y-61369819D01*
X100782268Y-61369819D02*
X101163220Y-61369819D01*
X101163220Y-61369819D02*
X101163220Y-60369819D01*
X101163220Y-60369819D02*
X100829887Y-60369819D01*
X100829887Y-60369819D02*
X100734649Y-60417438D01*
X100734649Y-60417438D02*
X100687030Y-60465057D01*
X100687030Y-60465057D02*
X100639411Y-60560295D01*
X100639411Y-60560295D02*
X100639411Y-60655533D01*
X100639411Y-60655533D02*
X100687030Y-60750771D01*
X100687030Y-60750771D02*
X100734649Y-60798390D01*
X100734649Y-60798390D02*
X100829887Y-60846009D01*
X100829887Y-60846009D02*
X101163220Y-60846009D01*
X100163220Y-60369819D02*
X100163220Y-61179342D01*
X100163220Y-61179342D02*
X100115601Y-61274580D01*
X100115601Y-61274580D02*
X100067982Y-61322200D01*
X100067982Y-61322200D02*
X99972744Y-61369819D01*
X99972744Y-61369819D02*
X99782268Y-61369819D01*
X99782268Y-61369819D02*
X99687030Y-61322200D01*
X99687030Y-61322200D02*
X99639411Y-61274580D01*
X99639411Y-61274580D02*
X99591792Y-61179342D01*
X99591792Y-61179342D02*
X99591792Y-60369819D01*
X99163220Y-61322200D02*
X99020363Y-61369819D01*
X99020363Y-61369819D02*
X98782268Y-61369819D01*
X98782268Y-61369819D02*
X98687030Y-61322200D01*
X98687030Y-61322200D02*
X98639411Y-61274580D01*
X98639411Y-61274580D02*
X98591792Y-61179342D01*
X98591792Y-61179342D02*
X98591792Y-61084104D01*
X98591792Y-61084104D02*
X98639411Y-60988866D01*
X98639411Y-60988866D02*
X98687030Y-60941247D01*
X98687030Y-60941247D02*
X98782268Y-60893628D01*
X98782268Y-60893628D02*
X98972744Y-60846009D01*
X98972744Y-60846009D02*
X99067982Y-60798390D01*
X99067982Y-60798390D02*
X99115601Y-60750771D01*
X99115601Y-60750771D02*
X99163220Y-60655533D01*
X99163220Y-60655533D02*
X99163220Y-60560295D01*
X99163220Y-60560295D02*
X99115601Y-60465057D01*
X99115601Y-60465057D02*
X99067982Y-60417438D01*
X99067982Y-60417438D02*
X98972744Y-60369819D01*
X98972744Y-60369819D02*
X98734649Y-60369819D01*
X98734649Y-60369819D02*
X98591792Y-60417438D01*
X96829887Y-61274580D02*
X96877506Y-61322200D01*
X96877506Y-61322200D02*
X97020363Y-61369819D01*
X97020363Y-61369819D02*
X97115601Y-61369819D01*
X97115601Y-61369819D02*
X97258458Y-61322200D01*
X97258458Y-61322200D02*
X97353696Y-61226961D01*
X97353696Y-61226961D02*
X97401315Y-61131723D01*
X97401315Y-61131723D02*
X97448934Y-60941247D01*
X97448934Y-60941247D02*
X97448934Y-60798390D01*
X97448934Y-60798390D02*
X97401315Y-60607914D01*
X97401315Y-60607914D02*
X97353696Y-60512676D01*
X97353696Y-60512676D02*
X97258458Y-60417438D01*
X97258458Y-60417438D02*
X97115601Y-60369819D01*
X97115601Y-60369819D02*
X97020363Y-60369819D01*
X97020363Y-60369819D02*
X96877506Y-60417438D01*
X96877506Y-60417438D02*
X96829887Y-60465057D01*
X96544172Y-60369819D02*
X96210839Y-61369819D01*
X96210839Y-61369819D02*
X95877506Y-60369819D01*
D11*
X58100619Y-98895595D02*
X58100619Y-98362261D01*
X58100619Y-98514642D02*
X58062524Y-98438452D01*
X58062524Y-98438452D02*
X58024429Y-98400357D01*
X58024429Y-98400357D02*
X57948238Y-98362261D01*
X57948238Y-98362261D02*
X57872048Y-98362261D01*
X57300619Y-98857500D02*
X57376810Y-98895595D01*
X57376810Y-98895595D02*
X57529191Y-98895595D01*
X57529191Y-98895595D02*
X57605381Y-98857500D01*
X57605381Y-98857500D02*
X57643477Y-98781309D01*
X57643477Y-98781309D02*
X57643477Y-98476547D01*
X57643477Y-98476547D02*
X57605381Y-98400357D01*
X57605381Y-98400357D02*
X57529191Y-98362261D01*
X57529191Y-98362261D02*
X57376810Y-98362261D01*
X57376810Y-98362261D02*
X57300619Y-98400357D01*
X57300619Y-98400357D02*
X57262524Y-98476547D01*
X57262524Y-98476547D02*
X57262524Y-98552738D01*
X57262524Y-98552738D02*
X57643477Y-98628928D01*
X56995858Y-98362261D02*
X56805382Y-98895595D01*
X56805382Y-98895595D02*
X56614905Y-98362261D01*
X56310143Y-98819404D02*
X56272048Y-98857500D01*
X56272048Y-98857500D02*
X56310143Y-98895595D01*
X56310143Y-98895595D02*
X56348239Y-98857500D01*
X56348239Y-98857500D02*
X56310143Y-98819404D01*
X56310143Y-98819404D02*
X56310143Y-98895595D01*
X55967287Y-98171785D02*
X55929191Y-98133690D01*
X55929191Y-98133690D02*
X55853001Y-98095595D01*
X55853001Y-98095595D02*
X55662525Y-98095595D01*
X55662525Y-98095595D02*
X55586334Y-98133690D01*
X55586334Y-98133690D02*
X55548239Y-98171785D01*
X55548239Y-98171785D02*
X55510144Y-98247976D01*
X55510144Y-98247976D02*
X55510144Y-98324166D01*
X55510144Y-98324166D02*
X55548239Y-98438452D01*
X55548239Y-98438452D02*
X56005382Y-98895595D01*
X56005382Y-98895595D02*
X55510144Y-98895595D01*
D10*
X113391792Y-136174580D02*
X113439411Y-136222200D01*
X113439411Y-136222200D02*
X113582268Y-136269819D01*
X113582268Y-136269819D02*
X113677506Y-136269819D01*
X113677506Y-136269819D02*
X113820363Y-136222200D01*
X113820363Y-136222200D02*
X113915601Y-136126961D01*
X113915601Y-136126961D02*
X113963220Y-136031723D01*
X113963220Y-136031723D02*
X114010839Y-135841247D01*
X114010839Y-135841247D02*
X114010839Y-135698390D01*
X114010839Y-135698390D02*
X113963220Y-135507914D01*
X113963220Y-135507914D02*
X113915601Y-135412676D01*
X113915601Y-135412676D02*
X113820363Y-135317438D01*
X113820363Y-135317438D02*
X113677506Y-135269819D01*
X113677506Y-135269819D02*
X113582268Y-135269819D01*
X113582268Y-135269819D02*
X113439411Y-135317438D01*
X113439411Y-135317438D02*
X113391792Y-135365057D01*
X113106077Y-135269819D02*
X112772744Y-136269819D01*
X112772744Y-136269819D02*
X112439411Y-135269819D01*
X112344173Y-136365057D02*
X111582268Y-136365057D01*
X111153696Y-135269819D02*
X110963220Y-135269819D01*
X110963220Y-135269819D02*
X110867982Y-135317438D01*
X110867982Y-135317438D02*
X110772744Y-135412676D01*
X110772744Y-135412676D02*
X110725125Y-135603152D01*
X110725125Y-135603152D02*
X110725125Y-135936485D01*
X110725125Y-135936485D02*
X110772744Y-136126961D01*
X110772744Y-136126961D02*
X110867982Y-136222200D01*
X110867982Y-136222200D02*
X110963220Y-136269819D01*
X110963220Y-136269819D02*
X111153696Y-136269819D01*
X111153696Y-136269819D02*
X111248934Y-136222200D01*
X111248934Y-136222200D02*
X111344172Y-136126961D01*
X111344172Y-136126961D02*
X111391791Y-135936485D01*
X111391791Y-135936485D02*
X111391791Y-135603152D01*
X111391791Y-135603152D02*
X111344172Y-135412676D01*
X111344172Y-135412676D02*
X111248934Y-135317438D01*
X111248934Y-135317438D02*
X111153696Y-135269819D01*
X110296553Y-135269819D02*
X110296553Y-136079342D01*
X110296553Y-136079342D02*
X110248934Y-136174580D01*
X110248934Y-136174580D02*
X110201315Y-136222200D01*
X110201315Y-136222200D02*
X110106077Y-136269819D01*
X110106077Y-136269819D02*
X109915601Y-136269819D01*
X109915601Y-136269819D02*
X109820363Y-136222200D01*
X109820363Y-136222200D02*
X109772744Y-136174580D01*
X109772744Y-136174580D02*
X109725125Y-136079342D01*
X109725125Y-136079342D02*
X109725125Y-135269819D01*
X109391791Y-135269819D02*
X108820363Y-135269819D01*
X109106077Y-136269819D02*
X109106077Y-135269819D01*
X114391792Y-131474580D02*
X114439411Y-131522200D01*
X114439411Y-131522200D02*
X114582268Y-131569819D01*
X114582268Y-131569819D02*
X114677506Y-131569819D01*
X114677506Y-131569819D02*
X114820363Y-131522200D01*
X114820363Y-131522200D02*
X114915601Y-131426961D01*
X114915601Y-131426961D02*
X114963220Y-131331723D01*
X114963220Y-131331723D02*
X115010839Y-131141247D01*
X115010839Y-131141247D02*
X115010839Y-130998390D01*
X115010839Y-130998390D02*
X114963220Y-130807914D01*
X114963220Y-130807914D02*
X114915601Y-130712676D01*
X114915601Y-130712676D02*
X114820363Y-130617438D01*
X114820363Y-130617438D02*
X114677506Y-130569819D01*
X114677506Y-130569819D02*
X114582268Y-130569819D01*
X114582268Y-130569819D02*
X114439411Y-130617438D01*
X114439411Y-130617438D02*
X114391792Y-130665057D01*
X113487030Y-131569819D02*
X113963220Y-131569819D01*
X113963220Y-131569819D02*
X113963220Y-130569819D01*
X113153696Y-131569819D02*
X113153696Y-130569819D01*
X112582268Y-131569819D02*
X113010839Y-130998390D01*
X112582268Y-130569819D02*
X113153696Y-131141247D01*
X112391792Y-131665057D02*
X111629887Y-131665057D01*
X110820363Y-131569819D02*
X111153696Y-131093628D01*
X111391791Y-131569819D02*
X111391791Y-130569819D01*
X111391791Y-130569819D02*
X111010839Y-130569819D01*
X111010839Y-130569819D02*
X110915601Y-130617438D01*
X110915601Y-130617438D02*
X110867982Y-130665057D01*
X110867982Y-130665057D02*
X110820363Y-130760295D01*
X110820363Y-130760295D02*
X110820363Y-130903152D01*
X110820363Y-130903152D02*
X110867982Y-130998390D01*
X110867982Y-130998390D02*
X110915601Y-131046009D01*
X110915601Y-131046009D02*
X111010839Y-131093628D01*
X111010839Y-131093628D02*
X111391791Y-131093628D01*
X110439410Y-131284104D02*
X109963220Y-131284104D01*
X110534648Y-131569819D02*
X110201315Y-130569819D01*
X110201315Y-130569819D02*
X109867982Y-131569819D01*
X109629886Y-130569819D02*
X109391791Y-131569819D01*
X109391791Y-131569819D02*
X109201315Y-130855533D01*
X109201315Y-130855533D02*
X109010839Y-131569819D01*
X109010839Y-131569819D02*
X108772744Y-130569819D01*
X68593695Y-99798390D02*
X68688933Y-99750771D01*
X68688933Y-99750771D02*
X68736552Y-99703152D01*
X68736552Y-99703152D02*
X68784171Y-99607914D01*
X68784171Y-99607914D02*
X68784171Y-99560295D01*
X68784171Y-99560295D02*
X68736552Y-99465057D01*
X68736552Y-99465057D02*
X68688933Y-99417438D01*
X68688933Y-99417438D02*
X68593695Y-99369819D01*
X68593695Y-99369819D02*
X68403219Y-99369819D01*
X68403219Y-99369819D02*
X68307981Y-99417438D01*
X68307981Y-99417438D02*
X68260362Y-99465057D01*
X68260362Y-99465057D02*
X68212743Y-99560295D01*
X68212743Y-99560295D02*
X68212743Y-99607914D01*
X68212743Y-99607914D02*
X68260362Y-99703152D01*
X68260362Y-99703152D02*
X68307981Y-99750771D01*
X68307981Y-99750771D02*
X68403219Y-99798390D01*
X68403219Y-99798390D02*
X68593695Y-99798390D01*
X68593695Y-99798390D02*
X68688933Y-99846009D01*
X68688933Y-99846009D02*
X68736552Y-99893628D01*
X68736552Y-99893628D02*
X68784171Y-99988866D01*
X68784171Y-99988866D02*
X68784171Y-100179342D01*
X68784171Y-100179342D02*
X68736552Y-100274580D01*
X68736552Y-100274580D02*
X68688933Y-100322200D01*
X68688933Y-100322200D02*
X68593695Y-100369819D01*
X68593695Y-100369819D02*
X68403219Y-100369819D01*
X68403219Y-100369819D02*
X68307981Y-100322200D01*
X68307981Y-100322200D02*
X68260362Y-100274580D01*
X68260362Y-100274580D02*
X68212743Y-100179342D01*
X68212743Y-100179342D02*
X68212743Y-99988866D01*
X68212743Y-99988866D02*
X68260362Y-99893628D01*
X68260362Y-99893628D02*
X68307981Y-99846009D01*
X68307981Y-99846009D02*
X68403219Y-99798390D01*
X67784171Y-99988866D02*
X67022267Y-99988866D01*
X66546076Y-100369819D02*
X66546076Y-99369819D01*
X66546076Y-99750771D02*
X66450838Y-99703152D01*
X66450838Y-99703152D02*
X66260362Y-99703152D01*
X66260362Y-99703152D02*
X66165124Y-99750771D01*
X66165124Y-99750771D02*
X66117505Y-99798390D01*
X66117505Y-99798390D02*
X66069886Y-99893628D01*
X66069886Y-99893628D02*
X66069886Y-100179342D01*
X66069886Y-100179342D02*
X66117505Y-100274580D01*
X66117505Y-100274580D02*
X66165124Y-100322200D01*
X66165124Y-100322200D02*
X66260362Y-100369819D01*
X66260362Y-100369819D02*
X66450838Y-100369819D01*
X66450838Y-100369819D02*
X66546076Y-100322200D01*
X65641314Y-100369819D02*
X65641314Y-99703152D01*
X65641314Y-99369819D02*
X65688933Y-99417438D01*
X65688933Y-99417438D02*
X65641314Y-99465057D01*
X65641314Y-99465057D02*
X65593695Y-99417438D01*
X65593695Y-99417438D02*
X65641314Y-99369819D01*
X65641314Y-99369819D02*
X65641314Y-99465057D01*
X65307981Y-99703152D02*
X64927029Y-99703152D01*
X65165124Y-99369819D02*
X65165124Y-100226961D01*
X65165124Y-100226961D02*
X65117505Y-100322200D01*
X65117505Y-100322200D02*
X65022267Y-100369819D01*
X65022267Y-100369819D02*
X64927029Y-100369819D01*
X63879409Y-100322200D02*
X63784171Y-100369819D01*
X63784171Y-100369819D02*
X63593695Y-100369819D01*
X63593695Y-100369819D02*
X63498457Y-100322200D01*
X63498457Y-100322200D02*
X63450838Y-100226961D01*
X63450838Y-100226961D02*
X63450838Y-100179342D01*
X63450838Y-100179342D02*
X63498457Y-100084104D01*
X63498457Y-100084104D02*
X63593695Y-100036485D01*
X63593695Y-100036485D02*
X63736552Y-100036485D01*
X63736552Y-100036485D02*
X63831790Y-99988866D01*
X63831790Y-99988866D02*
X63879409Y-99893628D01*
X63879409Y-99893628D02*
X63879409Y-99846009D01*
X63879409Y-99846009D02*
X63831790Y-99750771D01*
X63831790Y-99750771D02*
X63736552Y-99703152D01*
X63736552Y-99703152D02*
X63593695Y-99703152D01*
X63593695Y-99703152D02*
X63498457Y-99750771D01*
X62641314Y-100322200D02*
X62736552Y-100369819D01*
X62736552Y-100369819D02*
X62927028Y-100369819D01*
X62927028Y-100369819D02*
X63022266Y-100322200D01*
X63022266Y-100322200D02*
X63069885Y-100226961D01*
X63069885Y-100226961D02*
X63069885Y-99846009D01*
X63069885Y-99846009D02*
X63022266Y-99750771D01*
X63022266Y-99750771D02*
X62927028Y-99703152D01*
X62927028Y-99703152D02*
X62736552Y-99703152D01*
X62736552Y-99703152D02*
X62641314Y-99750771D01*
X62641314Y-99750771D02*
X62593695Y-99846009D01*
X62593695Y-99846009D02*
X62593695Y-99941247D01*
X62593695Y-99941247D02*
X63069885Y-100036485D01*
X61736552Y-99703152D02*
X61736552Y-100703152D01*
X61736552Y-100322200D02*
X61831790Y-100369819D01*
X61831790Y-100369819D02*
X62022266Y-100369819D01*
X62022266Y-100369819D02*
X62117504Y-100322200D01*
X62117504Y-100322200D02*
X62165123Y-100274580D01*
X62165123Y-100274580D02*
X62212742Y-100179342D01*
X62212742Y-100179342D02*
X62212742Y-99893628D01*
X62212742Y-99893628D02*
X62165123Y-99798390D01*
X62165123Y-99798390D02*
X62117504Y-99750771D01*
X62117504Y-99750771D02*
X62022266Y-99703152D01*
X62022266Y-99703152D02*
X61831790Y-99703152D01*
X61831790Y-99703152D02*
X61736552Y-99750771D01*
X60831790Y-99703152D02*
X60831790Y-100369819D01*
X61260361Y-99703152D02*
X61260361Y-100226961D01*
X61260361Y-100226961D02*
X61212742Y-100322200D01*
X61212742Y-100322200D02*
X61117504Y-100369819D01*
X61117504Y-100369819D02*
X60974647Y-100369819D01*
X60974647Y-100369819D02*
X60879409Y-100322200D01*
X60879409Y-100322200D02*
X60831790Y-100274580D01*
X59974647Y-100322200D02*
X60069885Y-100369819D01*
X60069885Y-100369819D02*
X60260361Y-100369819D01*
X60260361Y-100369819D02*
X60355599Y-100322200D01*
X60355599Y-100322200D02*
X60403218Y-100226961D01*
X60403218Y-100226961D02*
X60403218Y-99846009D01*
X60403218Y-99846009D02*
X60355599Y-99750771D01*
X60355599Y-99750771D02*
X60260361Y-99703152D01*
X60260361Y-99703152D02*
X60069885Y-99703152D01*
X60069885Y-99703152D02*
X59974647Y-99750771D01*
X59974647Y-99750771D02*
X59927028Y-99846009D01*
X59927028Y-99846009D02*
X59927028Y-99941247D01*
X59927028Y-99941247D02*
X60403218Y-100036485D01*
X59498456Y-99703152D02*
X59498456Y-100369819D01*
X59498456Y-99798390D02*
X59450837Y-99750771D01*
X59450837Y-99750771D02*
X59355599Y-99703152D01*
X59355599Y-99703152D02*
X59212742Y-99703152D01*
X59212742Y-99703152D02*
X59117504Y-99750771D01*
X59117504Y-99750771D02*
X59069885Y-99846009D01*
X59069885Y-99846009D02*
X59069885Y-100369819D01*
X58165123Y-100322200D02*
X58260361Y-100369819D01*
X58260361Y-100369819D02*
X58450837Y-100369819D01*
X58450837Y-100369819D02*
X58546075Y-100322200D01*
X58546075Y-100322200D02*
X58593694Y-100274580D01*
X58593694Y-100274580D02*
X58641313Y-100179342D01*
X58641313Y-100179342D02*
X58641313Y-99893628D01*
X58641313Y-99893628D02*
X58593694Y-99798390D01*
X58593694Y-99798390D02*
X58546075Y-99750771D01*
X58546075Y-99750771D02*
X58450837Y-99703152D01*
X58450837Y-99703152D02*
X58260361Y-99703152D01*
X58260361Y-99703152D02*
X58165123Y-99750771D01*
X57355599Y-100322200D02*
X57450837Y-100369819D01*
X57450837Y-100369819D02*
X57641313Y-100369819D01*
X57641313Y-100369819D02*
X57736551Y-100322200D01*
X57736551Y-100322200D02*
X57784170Y-100226961D01*
X57784170Y-100226961D02*
X57784170Y-99846009D01*
X57784170Y-99846009D02*
X57736551Y-99750771D01*
X57736551Y-99750771D02*
X57641313Y-99703152D01*
X57641313Y-99703152D02*
X57450837Y-99703152D01*
X57450837Y-99703152D02*
X57355599Y-99750771D01*
X57355599Y-99750771D02*
X57307980Y-99846009D01*
X57307980Y-99846009D02*
X57307980Y-99941247D01*
X57307980Y-99941247D02*
X57784170Y-100036485D01*
X56879408Y-100369819D02*
X56879408Y-99703152D01*
X56879408Y-99893628D02*
X56831789Y-99798390D01*
X56831789Y-99798390D02*
X56784170Y-99750771D01*
X56784170Y-99750771D02*
X56688932Y-99703152D01*
X56688932Y-99703152D02*
X56593694Y-99703152D01*
X73303219Y-98782200D02*
X72874648Y-98925057D01*
X72874648Y-98925057D02*
X72160362Y-98925057D01*
X72160362Y-98925057D02*
X71874648Y-98782200D01*
X71874648Y-98782200D02*
X71731790Y-98639342D01*
X71731790Y-98639342D02*
X71588933Y-98353628D01*
X71588933Y-98353628D02*
X71588933Y-98067914D01*
X71588933Y-98067914D02*
X71731790Y-97782200D01*
X71731790Y-97782200D02*
X71874648Y-97639342D01*
X71874648Y-97639342D02*
X72160362Y-97496485D01*
X72160362Y-97496485D02*
X72731790Y-97353628D01*
X72731790Y-97353628D02*
X73017505Y-97210771D01*
X73017505Y-97210771D02*
X73160362Y-97067914D01*
X73160362Y-97067914D02*
X73303219Y-96782200D01*
X73303219Y-96782200D02*
X73303219Y-96496485D01*
X73303219Y-96496485D02*
X73160362Y-96210771D01*
X73160362Y-96210771D02*
X73017505Y-96067914D01*
X73017505Y-96067914D02*
X72731790Y-95925057D01*
X72731790Y-95925057D02*
X72017505Y-95925057D01*
X72017505Y-95925057D02*
X71588933Y-96067914D01*
X70303219Y-97353628D02*
X69303219Y-97353628D01*
X68874647Y-98925057D02*
X70303219Y-98925057D01*
X70303219Y-98925057D02*
X70303219Y-95925057D01*
X70303219Y-95925057D02*
X68874647Y-95925057D01*
X67588933Y-98925057D02*
X67588933Y-95925057D01*
X67588933Y-95925057D02*
X65874647Y-98925057D01*
X65874647Y-98925057D02*
X65874647Y-95925057D01*
X64588933Y-98782200D02*
X64160362Y-98925057D01*
X64160362Y-98925057D02*
X63446076Y-98925057D01*
X63446076Y-98925057D02*
X63160362Y-98782200D01*
X63160362Y-98782200D02*
X63017504Y-98639342D01*
X63017504Y-98639342D02*
X62874647Y-98353628D01*
X62874647Y-98353628D02*
X62874647Y-98067914D01*
X62874647Y-98067914D02*
X63017504Y-97782200D01*
X63017504Y-97782200D02*
X63160362Y-97639342D01*
X63160362Y-97639342D02*
X63446076Y-97496485D01*
X63446076Y-97496485D02*
X64017504Y-97353628D01*
X64017504Y-97353628D02*
X64303219Y-97210771D01*
X64303219Y-97210771D02*
X64446076Y-97067914D01*
X64446076Y-97067914D02*
X64588933Y-96782200D01*
X64588933Y-96782200D02*
X64588933Y-96496485D01*
X64588933Y-96496485D02*
X64446076Y-96210771D01*
X64446076Y-96210771D02*
X64303219Y-96067914D01*
X64303219Y-96067914D02*
X64017504Y-95925057D01*
X64017504Y-95925057D02*
X63303219Y-95925057D01*
X63303219Y-95925057D02*
X62874647Y-96067914D01*
X61588933Y-97353628D02*
X60588933Y-97353628D01*
X60160361Y-98925057D02*
X61588933Y-98925057D01*
X61588933Y-98925057D02*
X61588933Y-95925057D01*
X61588933Y-95925057D02*
X60160361Y-95925057D01*
X58874647Y-98925057D02*
X58874647Y-95925057D01*
X114739411Y-140117438D02*
X114834649Y-140069819D01*
X114834649Y-140069819D02*
X114977506Y-140069819D01*
X114977506Y-140069819D02*
X115120363Y-140117438D01*
X115120363Y-140117438D02*
X115215601Y-140212676D01*
X115215601Y-140212676D02*
X115263220Y-140307914D01*
X115263220Y-140307914D02*
X115310839Y-140498390D01*
X115310839Y-140498390D02*
X115310839Y-140641247D01*
X115310839Y-140641247D02*
X115263220Y-140831723D01*
X115263220Y-140831723D02*
X115215601Y-140926961D01*
X115215601Y-140926961D02*
X115120363Y-141022200D01*
X115120363Y-141022200D02*
X114977506Y-141069819D01*
X114977506Y-141069819D02*
X114882268Y-141069819D01*
X114882268Y-141069819D02*
X114739411Y-141022200D01*
X114739411Y-141022200D02*
X114691792Y-140974580D01*
X114691792Y-140974580D02*
X114691792Y-140641247D01*
X114691792Y-140641247D02*
X114882268Y-140641247D01*
X114310839Y-140784104D02*
X113834649Y-140784104D01*
X114406077Y-141069819D02*
X114072744Y-140069819D01*
X114072744Y-140069819D02*
X113739411Y-141069819D01*
X113548934Y-140069819D02*
X112977506Y-140069819D01*
X113263220Y-141069819D02*
X113263220Y-140069819D01*
X112644172Y-140546009D02*
X112310839Y-140546009D01*
X112167982Y-141069819D02*
X112644172Y-141069819D01*
X112644172Y-141069819D02*
X112644172Y-140069819D01*
X112644172Y-140069819D02*
X112167982Y-140069819D01*
X111977506Y-141165057D02*
X111215601Y-141165057D01*
X111120362Y-140069819D02*
X110548934Y-140069819D01*
X110834648Y-141069819D02*
X110834648Y-140069819D01*
X109644172Y-141069819D02*
X109977505Y-140593628D01*
X110215600Y-141069819D02*
X110215600Y-140069819D01*
X110215600Y-140069819D02*
X109834648Y-140069819D01*
X109834648Y-140069819D02*
X109739410Y-140117438D01*
X109739410Y-140117438D02*
X109691791Y-140165057D01*
X109691791Y-140165057D02*
X109644172Y-140260295D01*
X109644172Y-140260295D02*
X109644172Y-140403152D01*
X109644172Y-140403152D02*
X109691791Y-140498390D01*
X109691791Y-140498390D02*
X109739410Y-140546009D01*
X109739410Y-140546009D02*
X109834648Y-140593628D01*
X109834648Y-140593628D02*
X110215600Y-140593628D01*
X108691791Y-140117438D02*
X108787029Y-140069819D01*
X108787029Y-140069819D02*
X108929886Y-140069819D01*
X108929886Y-140069819D02*
X109072743Y-140117438D01*
X109072743Y-140117438D02*
X109167981Y-140212676D01*
X109167981Y-140212676D02*
X109215600Y-140307914D01*
X109215600Y-140307914D02*
X109263219Y-140498390D01*
X109263219Y-140498390D02*
X109263219Y-140641247D01*
X109263219Y-140641247D02*
X109215600Y-140831723D01*
X109215600Y-140831723D02*
X109167981Y-140926961D01*
X109167981Y-140926961D02*
X109072743Y-141022200D01*
X109072743Y-141022200D02*
X108929886Y-141069819D01*
X108929886Y-141069819D02*
X108834648Y-141069819D01*
X108834648Y-141069819D02*
X108691791Y-141022200D01*
X108691791Y-141022200D02*
X108644172Y-140974580D01*
X108644172Y-140974580D02*
X108644172Y-140641247D01*
X108644172Y-140641247D02*
X108834648Y-140641247D01*
X124261904Y-147954819D02*
X124261904Y-146954819D01*
X124261904Y-147431009D02*
X123690476Y-147431009D01*
X123690476Y-147954819D02*
X123690476Y-146954819D01*
X123166666Y-147954819D02*
X122976190Y-147954819D01*
X122976190Y-147954819D02*
X122880952Y-147907200D01*
X122880952Y-147907200D02*
X122833333Y-147859580D01*
X122833333Y-147859580D02*
X122738095Y-147716723D01*
X122738095Y-147716723D02*
X122690476Y-147526247D01*
X122690476Y-147526247D02*
X122690476Y-147145295D01*
X122690476Y-147145295D02*
X122738095Y-147050057D01*
X122738095Y-147050057D02*
X122785714Y-147002438D01*
X122785714Y-147002438D02*
X122880952Y-146954819D01*
X122880952Y-146954819D02*
X123071428Y-146954819D01*
X123071428Y-146954819D02*
X123166666Y-147002438D01*
X123166666Y-147002438D02*
X123214285Y-147050057D01*
X123214285Y-147050057D02*
X123261904Y-147145295D01*
X123261904Y-147145295D02*
X123261904Y-147383390D01*
X123261904Y-147383390D02*
X123214285Y-147478628D01*
X123214285Y-147478628D02*
X123166666Y-147526247D01*
X123166666Y-147526247D02*
X123071428Y-147573866D01*
X123071428Y-147573866D02*
X122880952Y-147573866D01*
X122880952Y-147573866D02*
X122785714Y-147526247D01*
X122785714Y-147526247D02*
X122738095Y-147478628D01*
X122738095Y-147478628D02*
X122690476Y-147383390D01*
X66659580Y-143288333D02*
X66707200Y-143240714D01*
X66707200Y-143240714D02*
X66754819Y-143097857D01*
X66754819Y-143097857D02*
X66754819Y-143002619D01*
X66754819Y-143002619D02*
X66707200Y-142859762D01*
X66707200Y-142859762D02*
X66611961Y-142764524D01*
X66611961Y-142764524D02*
X66516723Y-142716905D01*
X66516723Y-142716905D02*
X66326247Y-142669286D01*
X66326247Y-142669286D02*
X66183390Y-142669286D01*
X66183390Y-142669286D02*
X65992914Y-142716905D01*
X65992914Y-142716905D02*
X65897676Y-142764524D01*
X65897676Y-142764524D02*
X65802438Y-142859762D01*
X65802438Y-142859762D02*
X65754819Y-143002619D01*
X65754819Y-143002619D02*
X65754819Y-143097857D01*
X65754819Y-143097857D02*
X65802438Y-143240714D01*
X65802438Y-143240714D02*
X65850057Y-143288333D01*
X66754819Y-144240714D02*
X66754819Y-143669286D01*
X66754819Y-143955000D02*
X65754819Y-143955000D01*
X65754819Y-143955000D02*
X65897676Y-143859762D01*
X65897676Y-143859762D02*
X65992914Y-143764524D01*
X65992914Y-143764524D02*
X66040533Y-143669286D01*
X168784819Y-92238095D02*
X167784819Y-92238095D01*
X168261009Y-92238095D02*
X168261009Y-92809523D01*
X168784819Y-92809523D02*
X167784819Y-92809523D01*
X168213390Y-93428571D02*
X168165771Y-93333333D01*
X168165771Y-93333333D02*
X168118152Y-93285714D01*
X168118152Y-93285714D02*
X168022914Y-93238095D01*
X168022914Y-93238095D02*
X167975295Y-93238095D01*
X167975295Y-93238095D02*
X167880057Y-93285714D01*
X167880057Y-93285714D02*
X167832438Y-93333333D01*
X167832438Y-93333333D02*
X167784819Y-93428571D01*
X167784819Y-93428571D02*
X167784819Y-93619047D01*
X167784819Y-93619047D02*
X167832438Y-93714285D01*
X167832438Y-93714285D02*
X167880057Y-93761904D01*
X167880057Y-93761904D02*
X167975295Y-93809523D01*
X167975295Y-93809523D02*
X168022914Y-93809523D01*
X168022914Y-93809523D02*
X168118152Y-93761904D01*
X168118152Y-93761904D02*
X168165771Y-93714285D01*
X168165771Y-93714285D02*
X168213390Y-93619047D01*
X168213390Y-93619047D02*
X168213390Y-93428571D01*
X168213390Y-93428571D02*
X168261009Y-93333333D01*
X168261009Y-93333333D02*
X168308628Y-93285714D01*
X168308628Y-93285714D02*
X168403866Y-93238095D01*
X168403866Y-93238095D02*
X168594342Y-93238095D01*
X168594342Y-93238095D02*
X168689580Y-93285714D01*
X168689580Y-93285714D02*
X168737200Y-93333333D01*
X168737200Y-93333333D02*
X168784819Y-93428571D01*
X168784819Y-93428571D02*
X168784819Y-93619047D01*
X168784819Y-93619047D02*
X168737200Y-93714285D01*
X168737200Y-93714285D02*
X168689580Y-93761904D01*
X168689580Y-93761904D02*
X168594342Y-93809523D01*
X168594342Y-93809523D02*
X168403866Y-93809523D01*
X168403866Y-93809523D02*
X168308628Y-93761904D01*
X168308628Y-93761904D02*
X168261009Y-93714285D01*
X168261009Y-93714285D02*
X168213390Y-93619047D01*
X124761904Y-135404819D02*
X124761904Y-134404819D01*
X124761904Y-134881009D02*
X124190476Y-134881009D01*
X124190476Y-135404819D02*
X124190476Y-134404819D01*
X123761904Y-134500057D02*
X123714285Y-134452438D01*
X123714285Y-134452438D02*
X123619047Y-134404819D01*
X123619047Y-134404819D02*
X123380952Y-134404819D01*
X123380952Y-134404819D02*
X123285714Y-134452438D01*
X123285714Y-134452438D02*
X123238095Y-134500057D01*
X123238095Y-134500057D02*
X123190476Y-134595295D01*
X123190476Y-134595295D02*
X123190476Y-134690533D01*
X123190476Y-134690533D02*
X123238095Y-134833390D01*
X123238095Y-134833390D02*
X123809523Y-135404819D01*
X123809523Y-135404819D02*
X123190476Y-135404819D01*
X145238094Y-141784819D02*
X145238094Y-140784819D01*
X145238094Y-141261009D02*
X144666666Y-141261009D01*
X144666666Y-141784819D02*
X144666666Y-140784819D01*
X144238094Y-140880057D02*
X144190475Y-140832438D01*
X144190475Y-140832438D02*
X144095237Y-140784819D01*
X144095237Y-140784819D02*
X143857142Y-140784819D01*
X143857142Y-140784819D02*
X143761904Y-140832438D01*
X143761904Y-140832438D02*
X143714285Y-140880057D01*
X143714285Y-140880057D02*
X143666666Y-140975295D01*
X143666666Y-140975295D02*
X143666666Y-141070533D01*
X143666666Y-141070533D02*
X143714285Y-141213390D01*
X143714285Y-141213390D02*
X144285713Y-141784819D01*
X144285713Y-141784819D02*
X143666666Y-141784819D01*
X143047618Y-140784819D02*
X142952380Y-140784819D01*
X142952380Y-140784819D02*
X142857142Y-140832438D01*
X142857142Y-140832438D02*
X142809523Y-140880057D01*
X142809523Y-140880057D02*
X142761904Y-140975295D01*
X142761904Y-140975295D02*
X142714285Y-141165771D01*
X142714285Y-141165771D02*
X142714285Y-141403866D01*
X142714285Y-141403866D02*
X142761904Y-141594342D01*
X142761904Y-141594342D02*
X142809523Y-141689580D01*
X142809523Y-141689580D02*
X142857142Y-141737200D01*
X142857142Y-141737200D02*
X142952380Y-141784819D01*
X142952380Y-141784819D02*
X143047618Y-141784819D01*
X143047618Y-141784819D02*
X143142856Y-141737200D01*
X143142856Y-141737200D02*
X143190475Y-141689580D01*
X143190475Y-141689580D02*
X143238094Y-141594342D01*
X143238094Y-141594342D02*
X143285713Y-141403866D01*
X143285713Y-141403866D02*
X143285713Y-141165771D01*
X143285713Y-141165771D02*
X143238094Y-140975295D01*
X143238094Y-140975295D02*
X143190475Y-140880057D01*
X143190475Y-140880057D02*
X143142856Y-140832438D01*
X143142856Y-140832438D02*
X143047618Y-140784819D01*
X93829580Y-100453333D02*
X93877200Y-100405714D01*
X93877200Y-100405714D02*
X93924819Y-100262857D01*
X93924819Y-100262857D02*
X93924819Y-100167619D01*
X93924819Y-100167619D02*
X93877200Y-100024762D01*
X93877200Y-100024762D02*
X93781961Y-99929524D01*
X93781961Y-99929524D02*
X93686723Y-99881905D01*
X93686723Y-99881905D02*
X93496247Y-99834286D01*
X93496247Y-99834286D02*
X93353390Y-99834286D01*
X93353390Y-99834286D02*
X93162914Y-99881905D01*
X93162914Y-99881905D02*
X93067676Y-99929524D01*
X93067676Y-99929524D02*
X92972438Y-100024762D01*
X92972438Y-100024762D02*
X92924819Y-100167619D01*
X92924819Y-100167619D02*
X92924819Y-100262857D01*
X92924819Y-100262857D02*
X92972438Y-100405714D01*
X92972438Y-100405714D02*
X93020057Y-100453333D01*
X92924819Y-100786667D02*
X92924819Y-101453333D01*
X92924819Y-101453333D02*
X93924819Y-101024762D01*
X88139266Y-154359580D02*
X88186885Y-154407200D01*
X88186885Y-154407200D02*
X88329742Y-154454819D01*
X88329742Y-154454819D02*
X88424980Y-154454819D01*
X88424980Y-154454819D02*
X88567837Y-154407200D01*
X88567837Y-154407200D02*
X88663075Y-154311961D01*
X88663075Y-154311961D02*
X88710694Y-154216723D01*
X88710694Y-154216723D02*
X88758313Y-154026247D01*
X88758313Y-154026247D02*
X88758313Y-153883390D01*
X88758313Y-153883390D02*
X88710694Y-153692914D01*
X88710694Y-153692914D02*
X88663075Y-153597676D01*
X88663075Y-153597676D02*
X88567837Y-153502438D01*
X88567837Y-153502438D02*
X88424980Y-153454819D01*
X88424980Y-153454819D02*
X88329742Y-153454819D01*
X88329742Y-153454819D02*
X88186885Y-153502438D01*
X88186885Y-153502438D02*
X88139266Y-153550057D01*
X87567837Y-153883390D02*
X87663075Y-153835771D01*
X87663075Y-153835771D02*
X87710694Y-153788152D01*
X87710694Y-153788152D02*
X87758313Y-153692914D01*
X87758313Y-153692914D02*
X87758313Y-153645295D01*
X87758313Y-153645295D02*
X87710694Y-153550057D01*
X87710694Y-153550057D02*
X87663075Y-153502438D01*
X87663075Y-153502438D02*
X87567837Y-153454819D01*
X87567837Y-153454819D02*
X87377361Y-153454819D01*
X87377361Y-153454819D02*
X87282123Y-153502438D01*
X87282123Y-153502438D02*
X87234504Y-153550057D01*
X87234504Y-153550057D02*
X87186885Y-153645295D01*
X87186885Y-153645295D02*
X87186885Y-153692914D01*
X87186885Y-153692914D02*
X87234504Y-153788152D01*
X87234504Y-153788152D02*
X87282123Y-153835771D01*
X87282123Y-153835771D02*
X87377361Y-153883390D01*
X87377361Y-153883390D02*
X87567837Y-153883390D01*
X87567837Y-153883390D02*
X87663075Y-153931009D01*
X87663075Y-153931009D02*
X87710694Y-153978628D01*
X87710694Y-153978628D02*
X87758313Y-154073866D01*
X87758313Y-154073866D02*
X87758313Y-154264342D01*
X87758313Y-154264342D02*
X87710694Y-154359580D01*
X87710694Y-154359580D02*
X87663075Y-154407200D01*
X87663075Y-154407200D02*
X87567837Y-154454819D01*
X87567837Y-154454819D02*
X87377361Y-154454819D01*
X87377361Y-154454819D02*
X87282123Y-154407200D01*
X87282123Y-154407200D02*
X87234504Y-154359580D01*
X87234504Y-154359580D02*
X87186885Y-154264342D01*
X87186885Y-154264342D02*
X87186885Y-154073866D01*
X87186885Y-154073866D02*
X87234504Y-153978628D01*
X87234504Y-153978628D02*
X87282123Y-153931009D01*
X87282123Y-153931009D02*
X87377361Y-153883390D01*
X169784819Y-57238095D02*
X168784819Y-57238095D01*
X169261009Y-57238095D02*
X169261009Y-57809523D01*
X169784819Y-57809523D02*
X168784819Y-57809523D01*
X168784819Y-58190476D02*
X168784819Y-58857142D01*
X168784819Y-58857142D02*
X169784819Y-58428571D01*
X139124819Y-91761905D02*
X138124819Y-91761905D01*
X138601009Y-91761905D02*
X138601009Y-92333333D01*
X139124819Y-92333333D02*
X138124819Y-92333333D01*
X139124819Y-93333333D02*
X139124819Y-92761905D01*
X139124819Y-93047619D02*
X138124819Y-93047619D01*
X138124819Y-93047619D02*
X138267676Y-92952381D01*
X138267676Y-92952381D02*
X138362914Y-92857143D01*
X138362914Y-92857143D02*
X138410533Y-92761905D01*
X139124819Y-93809524D02*
X139124819Y-94000000D01*
X139124819Y-94000000D02*
X139077200Y-94095238D01*
X139077200Y-94095238D02*
X139029580Y-94142857D01*
X139029580Y-94142857D02*
X138886723Y-94238095D01*
X138886723Y-94238095D02*
X138696247Y-94285714D01*
X138696247Y-94285714D02*
X138315295Y-94285714D01*
X138315295Y-94285714D02*
X138220057Y-94238095D01*
X138220057Y-94238095D02*
X138172438Y-94190476D01*
X138172438Y-94190476D02*
X138124819Y-94095238D01*
X138124819Y-94095238D02*
X138124819Y-93904762D01*
X138124819Y-93904762D02*
X138172438Y-93809524D01*
X138172438Y-93809524D02*
X138220057Y-93761905D01*
X138220057Y-93761905D02*
X138315295Y-93714286D01*
X138315295Y-93714286D02*
X138553390Y-93714286D01*
X138553390Y-93714286D02*
X138648628Y-93761905D01*
X138648628Y-93761905D02*
X138696247Y-93809524D01*
X138696247Y-93809524D02*
X138743866Y-93904762D01*
X138743866Y-93904762D02*
X138743866Y-94095238D01*
X138743866Y-94095238D02*
X138696247Y-94190476D01*
X138696247Y-94190476D02*
X138648628Y-94238095D01*
X138648628Y-94238095D02*
X138553390Y-94285714D01*
X68071428Y-159954819D02*
X68404761Y-159478628D01*
X68642856Y-159954819D02*
X68642856Y-158954819D01*
X68642856Y-158954819D02*
X68261904Y-158954819D01*
X68261904Y-158954819D02*
X68166666Y-159002438D01*
X68166666Y-159002438D02*
X68119047Y-159050057D01*
X68119047Y-159050057D02*
X68071428Y-159145295D01*
X68071428Y-159145295D02*
X68071428Y-159288152D01*
X68071428Y-159288152D02*
X68119047Y-159383390D01*
X68119047Y-159383390D02*
X68166666Y-159431009D01*
X68166666Y-159431009D02*
X68261904Y-159478628D01*
X68261904Y-159478628D02*
X68642856Y-159478628D01*
X67785713Y-158954819D02*
X67452380Y-159954819D01*
X67452380Y-159954819D02*
X67119047Y-158954819D01*
X66261904Y-159954819D02*
X66833332Y-159954819D01*
X66547618Y-159954819D02*
X66547618Y-158954819D01*
X66547618Y-158954819D02*
X66642856Y-159097676D01*
X66642856Y-159097676D02*
X66738094Y-159192914D01*
X66738094Y-159192914D02*
X66833332Y-159240533D01*
X65642856Y-158954819D02*
X65547618Y-158954819D01*
X65547618Y-158954819D02*
X65452380Y-159002438D01*
X65452380Y-159002438D02*
X65404761Y-159050057D01*
X65404761Y-159050057D02*
X65357142Y-159145295D01*
X65357142Y-159145295D02*
X65309523Y-159335771D01*
X65309523Y-159335771D02*
X65309523Y-159573866D01*
X65309523Y-159573866D02*
X65357142Y-159764342D01*
X65357142Y-159764342D02*
X65404761Y-159859580D01*
X65404761Y-159859580D02*
X65452380Y-159907200D01*
X65452380Y-159907200D02*
X65547618Y-159954819D01*
X65547618Y-159954819D02*
X65642856Y-159954819D01*
X65642856Y-159954819D02*
X65738094Y-159907200D01*
X65738094Y-159907200D02*
X65785713Y-159859580D01*
X65785713Y-159859580D02*
X65833332Y-159764342D01*
X65833332Y-159764342D02*
X65880951Y-159573866D01*
X65880951Y-159573866D02*
X65880951Y-159335771D01*
X65880951Y-159335771D02*
X65833332Y-159145295D01*
X65833332Y-159145295D02*
X65785713Y-159050057D01*
X65785713Y-159050057D02*
X65738094Y-159002438D01*
X65738094Y-159002438D02*
X65642856Y-158954819D01*
X190238094Y-63044819D02*
X190238094Y-62044819D01*
X190238094Y-62521009D02*
X189666666Y-62521009D01*
X189666666Y-63044819D02*
X189666666Y-62044819D01*
X188666666Y-63044819D02*
X189238094Y-63044819D01*
X188952380Y-63044819D02*
X188952380Y-62044819D01*
X188952380Y-62044819D02*
X189047618Y-62187676D01*
X189047618Y-62187676D02*
X189142856Y-62282914D01*
X189142856Y-62282914D02*
X189238094Y-62330533D01*
X188333332Y-62044819D02*
X187666666Y-62044819D01*
X187666666Y-62044819D02*
X188095237Y-63044819D01*
X105533333Y-70264819D02*
X105533333Y-70979104D01*
X105533333Y-70979104D02*
X105580952Y-71121961D01*
X105580952Y-71121961D02*
X105676190Y-71217200D01*
X105676190Y-71217200D02*
X105819047Y-71264819D01*
X105819047Y-71264819D02*
X105914285Y-71264819D01*
X104628571Y-70264819D02*
X104819047Y-70264819D01*
X104819047Y-70264819D02*
X104914285Y-70312438D01*
X104914285Y-70312438D02*
X104961904Y-70360057D01*
X104961904Y-70360057D02*
X105057142Y-70502914D01*
X105057142Y-70502914D02*
X105104761Y-70693390D01*
X105104761Y-70693390D02*
X105104761Y-71074342D01*
X105104761Y-71074342D02*
X105057142Y-71169580D01*
X105057142Y-71169580D02*
X105009523Y-71217200D01*
X105009523Y-71217200D02*
X104914285Y-71264819D01*
X104914285Y-71264819D02*
X104723809Y-71264819D01*
X104723809Y-71264819D02*
X104628571Y-71217200D01*
X104628571Y-71217200D02*
X104580952Y-71169580D01*
X104580952Y-71169580D02*
X104533333Y-71074342D01*
X104533333Y-71074342D02*
X104533333Y-70836247D01*
X104533333Y-70836247D02*
X104580952Y-70741009D01*
X104580952Y-70741009D02*
X104628571Y-70693390D01*
X104628571Y-70693390D02*
X104723809Y-70645771D01*
X104723809Y-70645771D02*
X104914285Y-70645771D01*
X104914285Y-70645771D02*
X105009523Y-70693390D01*
X105009523Y-70693390D02*
X105057142Y-70741009D01*
X105057142Y-70741009D02*
X105104761Y-70836247D01*
X189761904Y-150324819D02*
X189761904Y-149324819D01*
X189761904Y-149801009D02*
X189190476Y-149801009D01*
X189190476Y-150324819D02*
X189190476Y-149324819D01*
X188285714Y-149658152D02*
X188285714Y-150324819D01*
X188523809Y-149277200D02*
X188761904Y-149991485D01*
X188761904Y-149991485D02*
X188142857Y-149991485D01*
X55533333Y-75834819D02*
X55533333Y-76549104D01*
X55533333Y-76549104D02*
X55580952Y-76691961D01*
X55580952Y-76691961D02*
X55676190Y-76787200D01*
X55676190Y-76787200D02*
X55819047Y-76834819D01*
X55819047Y-76834819D02*
X55914285Y-76834819D01*
X55152380Y-75834819D02*
X54533333Y-75834819D01*
X54533333Y-75834819D02*
X54866666Y-76215771D01*
X54866666Y-76215771D02*
X54723809Y-76215771D01*
X54723809Y-76215771D02*
X54628571Y-76263390D01*
X54628571Y-76263390D02*
X54580952Y-76311009D01*
X54580952Y-76311009D02*
X54533333Y-76406247D01*
X54533333Y-76406247D02*
X54533333Y-76644342D01*
X54533333Y-76644342D02*
X54580952Y-76739580D01*
X54580952Y-76739580D02*
X54628571Y-76787200D01*
X54628571Y-76787200D02*
X54723809Y-76834819D01*
X54723809Y-76834819D02*
X55009523Y-76834819D01*
X55009523Y-76834819D02*
X55104761Y-76787200D01*
X55104761Y-76787200D02*
X55152380Y-76739580D01*
D12*
X51056265Y-81337866D02*
X51665789Y-81337866D01*
X52465788Y-81033104D02*
X52008645Y-81033104D01*
X52237217Y-81033104D02*
X52237217Y-81833104D01*
X52237217Y-81833104D02*
X52161026Y-81718819D01*
X52161026Y-81718819D02*
X52084836Y-81642628D01*
X52084836Y-81642628D02*
X52008645Y-81604533D01*
X52770550Y-81756914D02*
X52808646Y-81795009D01*
X52808646Y-81795009D02*
X52884836Y-81833104D01*
X52884836Y-81833104D02*
X53075312Y-81833104D01*
X53075312Y-81833104D02*
X53151503Y-81795009D01*
X53151503Y-81795009D02*
X53189598Y-81756914D01*
X53189598Y-81756914D02*
X53227693Y-81680723D01*
X53227693Y-81680723D02*
X53227693Y-81604533D01*
X53227693Y-81604533D02*
X53189598Y-81490247D01*
X53189598Y-81490247D02*
X52732455Y-81033104D01*
X52732455Y-81033104D02*
X53227693Y-81033104D01*
X53456265Y-81833104D02*
X53722932Y-81033104D01*
X53722932Y-81033104D02*
X53989598Y-81833104D01*
X54827693Y-81071200D02*
X54941979Y-81033104D01*
X54941979Y-81033104D02*
X55132455Y-81033104D01*
X55132455Y-81033104D02*
X55208646Y-81071200D01*
X55208646Y-81071200D02*
X55246741Y-81109295D01*
X55246741Y-81109295D02*
X55284836Y-81185485D01*
X55284836Y-81185485D02*
X55284836Y-81261676D01*
X55284836Y-81261676D02*
X55246741Y-81337866D01*
X55246741Y-81337866D02*
X55208646Y-81375961D01*
X55208646Y-81375961D02*
X55132455Y-81414057D01*
X55132455Y-81414057D02*
X54980074Y-81452152D01*
X54980074Y-81452152D02*
X54903884Y-81490247D01*
X54903884Y-81490247D02*
X54865789Y-81528342D01*
X54865789Y-81528342D02*
X54827693Y-81604533D01*
X54827693Y-81604533D02*
X54827693Y-81680723D01*
X54827693Y-81680723D02*
X54865789Y-81756914D01*
X54865789Y-81756914D02*
X54903884Y-81795009D01*
X54903884Y-81795009D02*
X54980074Y-81833104D01*
X54980074Y-81833104D02*
X55170551Y-81833104D01*
X55170551Y-81833104D02*
X55284836Y-81795009D01*
X55513408Y-81833104D02*
X55970551Y-81833104D01*
X55741979Y-81033104D02*
X55741979Y-81833104D01*
X56694361Y-81033104D02*
X56427694Y-81414057D01*
X56237218Y-81033104D02*
X56237218Y-81833104D01*
X56237218Y-81833104D02*
X56541980Y-81833104D01*
X56541980Y-81833104D02*
X56618170Y-81795009D01*
X56618170Y-81795009D02*
X56656265Y-81756914D01*
X56656265Y-81756914D02*
X56694361Y-81680723D01*
X56694361Y-81680723D02*
X56694361Y-81566438D01*
X56694361Y-81566438D02*
X56656265Y-81490247D01*
X56656265Y-81490247D02*
X56618170Y-81452152D01*
X56618170Y-81452152D02*
X56541980Y-81414057D01*
X56541980Y-81414057D02*
X56237218Y-81414057D01*
X57037218Y-81033104D02*
X57037218Y-81833104D01*
X57418170Y-81033104D02*
X57418170Y-81833104D01*
X57418170Y-81833104D02*
X57722932Y-81833104D01*
X57722932Y-81833104D02*
X57799122Y-81795009D01*
X57799122Y-81795009D02*
X57837217Y-81756914D01*
X57837217Y-81756914D02*
X57875313Y-81680723D01*
X57875313Y-81680723D02*
X57875313Y-81566438D01*
X57875313Y-81566438D02*
X57837217Y-81490247D01*
X57837217Y-81490247D02*
X57799122Y-81452152D01*
X57799122Y-81452152D02*
X57722932Y-81414057D01*
X57722932Y-81414057D02*
X57418170Y-81414057D01*
X58218170Y-81452152D02*
X58484836Y-81452152D01*
X58599122Y-81033104D02*
X58218170Y-81033104D01*
X58218170Y-81033104D02*
X58218170Y-81833104D01*
X58218170Y-81833104D02*
X58599122Y-81833104D01*
D10*
X61695238Y-159954819D02*
X62028571Y-159478628D01*
X62266666Y-159954819D02*
X62266666Y-158954819D01*
X62266666Y-158954819D02*
X61885714Y-158954819D01*
X61885714Y-158954819D02*
X61790476Y-159002438D01*
X61790476Y-159002438D02*
X61742857Y-159050057D01*
X61742857Y-159050057D02*
X61695238Y-159145295D01*
X61695238Y-159145295D02*
X61695238Y-159288152D01*
X61695238Y-159288152D02*
X61742857Y-159383390D01*
X61742857Y-159383390D02*
X61790476Y-159431009D01*
X61790476Y-159431009D02*
X61885714Y-159478628D01*
X61885714Y-159478628D02*
X62266666Y-159478628D01*
X61409523Y-158954819D02*
X61076190Y-159954819D01*
X61076190Y-159954819D02*
X60742857Y-158954819D01*
X60361904Y-159954819D02*
X60171428Y-159954819D01*
X60171428Y-159954819D02*
X60076190Y-159907200D01*
X60076190Y-159907200D02*
X60028571Y-159859580D01*
X60028571Y-159859580D02*
X59933333Y-159716723D01*
X59933333Y-159716723D02*
X59885714Y-159526247D01*
X59885714Y-159526247D02*
X59885714Y-159145295D01*
X59885714Y-159145295D02*
X59933333Y-159050057D01*
X59933333Y-159050057D02*
X59980952Y-159002438D01*
X59980952Y-159002438D02*
X60076190Y-158954819D01*
X60076190Y-158954819D02*
X60266666Y-158954819D01*
X60266666Y-158954819D02*
X60361904Y-159002438D01*
X60361904Y-159002438D02*
X60409523Y-159050057D01*
X60409523Y-159050057D02*
X60457142Y-159145295D01*
X60457142Y-159145295D02*
X60457142Y-159383390D01*
X60457142Y-159383390D02*
X60409523Y-159478628D01*
X60409523Y-159478628D02*
X60361904Y-159526247D01*
X60361904Y-159526247D02*
X60266666Y-159573866D01*
X60266666Y-159573866D02*
X60076190Y-159573866D01*
X60076190Y-159573866D02*
X59980952Y-159526247D01*
X59980952Y-159526247D02*
X59933333Y-159478628D01*
X59933333Y-159478628D02*
X59885714Y-159383390D01*
X73166666Y-148109580D02*
X73214285Y-148157200D01*
X73214285Y-148157200D02*
X73357142Y-148204819D01*
X73357142Y-148204819D02*
X73452380Y-148204819D01*
X73452380Y-148204819D02*
X73595237Y-148157200D01*
X73595237Y-148157200D02*
X73690475Y-148061961D01*
X73690475Y-148061961D02*
X73738094Y-147966723D01*
X73738094Y-147966723D02*
X73785713Y-147776247D01*
X73785713Y-147776247D02*
X73785713Y-147633390D01*
X73785713Y-147633390D02*
X73738094Y-147442914D01*
X73738094Y-147442914D02*
X73690475Y-147347676D01*
X73690475Y-147347676D02*
X73595237Y-147252438D01*
X73595237Y-147252438D02*
X73452380Y-147204819D01*
X73452380Y-147204819D02*
X73357142Y-147204819D01*
X73357142Y-147204819D02*
X73214285Y-147252438D01*
X73214285Y-147252438D02*
X73166666Y-147300057D01*
X72261904Y-147204819D02*
X72738094Y-147204819D01*
X72738094Y-147204819D02*
X72785713Y-147681009D01*
X72785713Y-147681009D02*
X72738094Y-147633390D01*
X72738094Y-147633390D02*
X72642856Y-147585771D01*
X72642856Y-147585771D02*
X72404761Y-147585771D01*
X72404761Y-147585771D02*
X72309523Y-147633390D01*
X72309523Y-147633390D02*
X72261904Y-147681009D01*
X72261904Y-147681009D02*
X72214285Y-147776247D01*
X72214285Y-147776247D02*
X72214285Y-148014342D01*
X72214285Y-148014342D02*
X72261904Y-148109580D01*
X72261904Y-148109580D02*
X72309523Y-148157200D01*
X72309523Y-148157200D02*
X72404761Y-148204819D01*
X72404761Y-148204819D02*
X72642856Y-148204819D01*
X72642856Y-148204819D02*
X72738094Y-148157200D01*
X72738094Y-148157200D02*
X72785713Y-148109580D01*
X101733333Y-70244819D02*
X101733333Y-70959104D01*
X101733333Y-70959104D02*
X101780952Y-71101961D01*
X101780952Y-71101961D02*
X101876190Y-71197200D01*
X101876190Y-71197200D02*
X102019047Y-71244819D01*
X102019047Y-71244819D02*
X102114285Y-71244819D01*
X101352380Y-70244819D02*
X100685714Y-70244819D01*
X100685714Y-70244819D02*
X101114285Y-71244819D01*
X66366666Y-58499580D02*
X66414285Y-58547200D01*
X66414285Y-58547200D02*
X66557142Y-58594819D01*
X66557142Y-58594819D02*
X66652380Y-58594819D01*
X66652380Y-58594819D02*
X66795237Y-58547200D01*
X66795237Y-58547200D02*
X66890475Y-58451961D01*
X66890475Y-58451961D02*
X66938094Y-58356723D01*
X66938094Y-58356723D02*
X66985713Y-58166247D01*
X66985713Y-58166247D02*
X66985713Y-58023390D01*
X66985713Y-58023390D02*
X66938094Y-57832914D01*
X66938094Y-57832914D02*
X66890475Y-57737676D01*
X66890475Y-57737676D02*
X66795237Y-57642438D01*
X66795237Y-57642438D02*
X66652380Y-57594819D01*
X66652380Y-57594819D02*
X66557142Y-57594819D01*
X66557142Y-57594819D02*
X66414285Y-57642438D01*
X66414285Y-57642438D02*
X66366666Y-57690057D01*
X66033332Y-57594819D02*
X65414285Y-57594819D01*
X65414285Y-57594819D02*
X65747618Y-57975771D01*
X65747618Y-57975771D02*
X65604761Y-57975771D01*
X65604761Y-57975771D02*
X65509523Y-58023390D01*
X65509523Y-58023390D02*
X65461904Y-58071009D01*
X65461904Y-58071009D02*
X65414285Y-58166247D01*
X65414285Y-58166247D02*
X65414285Y-58404342D01*
X65414285Y-58404342D02*
X65461904Y-58499580D01*
X65461904Y-58499580D02*
X65509523Y-58547200D01*
X65509523Y-58547200D02*
X65604761Y-58594819D01*
X65604761Y-58594819D02*
X65890475Y-58594819D01*
X65890475Y-58594819D02*
X65985713Y-58547200D01*
X65985713Y-58547200D02*
X66033332Y-58499580D01*
X66366666Y-64899580D02*
X66414285Y-64947200D01*
X66414285Y-64947200D02*
X66557142Y-64994819D01*
X66557142Y-64994819D02*
X66652380Y-64994819D01*
X66652380Y-64994819D02*
X66795237Y-64947200D01*
X66795237Y-64947200D02*
X66890475Y-64851961D01*
X66890475Y-64851961D02*
X66938094Y-64756723D01*
X66938094Y-64756723D02*
X66985713Y-64566247D01*
X66985713Y-64566247D02*
X66985713Y-64423390D01*
X66985713Y-64423390D02*
X66938094Y-64232914D01*
X66938094Y-64232914D02*
X66890475Y-64137676D01*
X66890475Y-64137676D02*
X66795237Y-64042438D01*
X66795237Y-64042438D02*
X66652380Y-63994819D01*
X66652380Y-63994819D02*
X66557142Y-63994819D01*
X66557142Y-63994819D02*
X66414285Y-64042438D01*
X66414285Y-64042438D02*
X66366666Y-64090057D01*
X65509523Y-64328152D02*
X65509523Y-64994819D01*
X65747618Y-63947200D02*
X65985713Y-64661485D01*
X65985713Y-64661485D02*
X65366666Y-64661485D01*
X72366666Y-65499580D02*
X72414285Y-65547200D01*
X72414285Y-65547200D02*
X72557142Y-65594819D01*
X72557142Y-65594819D02*
X72652380Y-65594819D01*
X72652380Y-65594819D02*
X72795237Y-65547200D01*
X72795237Y-65547200D02*
X72890475Y-65451961D01*
X72890475Y-65451961D02*
X72938094Y-65356723D01*
X72938094Y-65356723D02*
X72985713Y-65166247D01*
X72985713Y-65166247D02*
X72985713Y-65023390D01*
X72985713Y-65023390D02*
X72938094Y-64832914D01*
X72938094Y-64832914D02*
X72890475Y-64737676D01*
X72890475Y-64737676D02*
X72795237Y-64642438D01*
X72795237Y-64642438D02*
X72652380Y-64594819D01*
X72652380Y-64594819D02*
X72557142Y-64594819D01*
X72557142Y-64594819D02*
X72414285Y-64642438D01*
X72414285Y-64642438D02*
X72366666Y-64690057D01*
X71509523Y-64594819D02*
X71699999Y-64594819D01*
X71699999Y-64594819D02*
X71795237Y-64642438D01*
X71795237Y-64642438D02*
X71842856Y-64690057D01*
X71842856Y-64690057D02*
X71938094Y-64832914D01*
X71938094Y-64832914D02*
X71985713Y-65023390D01*
X71985713Y-65023390D02*
X71985713Y-65404342D01*
X71985713Y-65404342D02*
X71938094Y-65499580D01*
X71938094Y-65499580D02*
X71890475Y-65547200D01*
X71890475Y-65547200D02*
X71795237Y-65594819D01*
X71795237Y-65594819D02*
X71604761Y-65594819D01*
X71604761Y-65594819D02*
X71509523Y-65547200D01*
X71509523Y-65547200D02*
X71461904Y-65499580D01*
X71461904Y-65499580D02*
X71414285Y-65404342D01*
X71414285Y-65404342D02*
X71414285Y-65166247D01*
X71414285Y-65166247D02*
X71461904Y-65071009D01*
X71461904Y-65071009D02*
X71509523Y-65023390D01*
X71509523Y-65023390D02*
X71604761Y-64975771D01*
X71604761Y-64975771D02*
X71795237Y-64975771D01*
X71795237Y-64975771D02*
X71890475Y-65023390D01*
X71890475Y-65023390D02*
X71938094Y-65071009D01*
X71938094Y-65071009D02*
X71985713Y-65166247D01*
X72366666Y-59499580D02*
X72414285Y-59547200D01*
X72414285Y-59547200D02*
X72557142Y-59594819D01*
X72557142Y-59594819D02*
X72652380Y-59594819D01*
X72652380Y-59594819D02*
X72795237Y-59547200D01*
X72795237Y-59547200D02*
X72890475Y-59451961D01*
X72890475Y-59451961D02*
X72938094Y-59356723D01*
X72938094Y-59356723D02*
X72985713Y-59166247D01*
X72985713Y-59166247D02*
X72985713Y-59023390D01*
X72985713Y-59023390D02*
X72938094Y-58832914D01*
X72938094Y-58832914D02*
X72890475Y-58737676D01*
X72890475Y-58737676D02*
X72795237Y-58642438D01*
X72795237Y-58642438D02*
X72652380Y-58594819D01*
X72652380Y-58594819D02*
X72557142Y-58594819D01*
X72557142Y-58594819D02*
X72414285Y-58642438D01*
X72414285Y-58642438D02*
X72366666Y-58690057D01*
X71985713Y-58690057D02*
X71938094Y-58642438D01*
X71938094Y-58642438D02*
X71842856Y-58594819D01*
X71842856Y-58594819D02*
X71604761Y-58594819D01*
X71604761Y-58594819D02*
X71509523Y-58642438D01*
X71509523Y-58642438D02*
X71461904Y-58690057D01*
X71461904Y-58690057D02*
X71414285Y-58785295D01*
X71414285Y-58785295D02*
X71414285Y-58880533D01*
X71414285Y-58880533D02*
X71461904Y-59023390D01*
X71461904Y-59023390D02*
X72033332Y-59594819D01*
X72033332Y-59594819D02*
X71414285Y-59594819D01*
D13*
X123500000Y-148670000D02*
X124830000Y-148670000D01*
X124830000Y-148670000D02*
X124830000Y-150000000D01*
X124830000Y-158950000D02*
X124830000Y-151270000D01*
X122170000Y-151270000D02*
X124830000Y-151270000D01*
X122170000Y-158950000D02*
X124830000Y-158950000D01*
X122170000Y-158950000D02*
X122170000Y-151270000D01*
X65130000Y-139735000D02*
X65130000Y-147175000D01*
X65130000Y-139735000D02*
X70870000Y-139735000D01*
X65130000Y-147175000D02*
X70870000Y-147175000D01*
X70870000Y-139735000D02*
X70870000Y-147175000D01*
X157050000Y-91670000D02*
X157050000Y-94330000D01*
X157050000Y-91670000D02*
X164730000Y-91670000D01*
X157050000Y-94330000D02*
X164730000Y-94330000D01*
X164730000Y-91670000D02*
X164730000Y-94330000D01*
X167330000Y-93000000D02*
X167330000Y-94330000D01*
X167330000Y-94330000D02*
X166000000Y-94330000D01*
X122670000Y-123670000D02*
X122670000Y-131350000D01*
X122670000Y-133950000D02*
X122670000Y-132620000D01*
X124000000Y-133950000D02*
X122670000Y-133950000D01*
X125330000Y-123670000D02*
X122670000Y-123670000D01*
X125330000Y-123670000D02*
X125330000Y-131350000D01*
X125330000Y-131350000D02*
X122670000Y-131350000D01*
X142670000Y-130050000D02*
X142670000Y-137730000D01*
X142670000Y-140330000D02*
X142670000Y-139000000D01*
X144000000Y-140330000D02*
X142670000Y-140330000D01*
X145330000Y-130050000D02*
X142670000Y-130050000D01*
X145330000Y-130050000D02*
X145330000Y-137730000D01*
X145330000Y-137730000D02*
X142670000Y-137730000D01*
X88140000Y-100580000D02*
X92300000Y-100580000D01*
X88140000Y-100620000D02*
X92300000Y-100620000D01*
X88141000Y-100540000D02*
X92299000Y-100540000D01*
X88143000Y-100500000D02*
X92297000Y-100500000D01*
X88146000Y-100460000D02*
X92294000Y-100460000D01*
X88149000Y-100420000D02*
X89380000Y-100420000D01*
X88153000Y-100380000D02*
X89380000Y-100380000D01*
X88158000Y-100340000D02*
X89380000Y-100340000D01*
X88164000Y-100300000D02*
X89380000Y-100300000D01*
X88170000Y-100260000D02*
X89380000Y-100260000D01*
X88178000Y-100220000D02*
X89380000Y-100220000D01*
X88186000Y-100180000D02*
X89380000Y-100180000D01*
X88195000Y-100140000D02*
X89380000Y-100140000D01*
X88204000Y-100100000D02*
X89380000Y-100100000D01*
X88215000Y-100060000D02*
X89380000Y-100060000D01*
X88226000Y-100020000D02*
X89380000Y-100020000D01*
X88238000Y-99980000D02*
X89380000Y-99980000D01*
X88252000Y-99940000D02*
X89380000Y-99940000D01*
X88266000Y-99899000D02*
X89380000Y-99899000D01*
X88280000Y-99859000D02*
X89380000Y-99859000D01*
X88296000Y-99819000D02*
X89380000Y-99819000D01*
X88313000Y-99779000D02*
X89380000Y-99779000D01*
X88331000Y-99739000D02*
X89380000Y-99739000D01*
X88350000Y-99699000D02*
X89380000Y-99699000D01*
X88369000Y-99659000D02*
X89380000Y-99659000D01*
X88390000Y-99619000D02*
X89380000Y-99619000D01*
X88412000Y-99579000D02*
X89380000Y-99579000D01*
X88435000Y-99539000D02*
X89380000Y-99539000D01*
X88460000Y-99499000D02*
X89380000Y-99499000D01*
X88485000Y-99459000D02*
X89380000Y-99459000D01*
X88512000Y-99419000D02*
X89380000Y-99419000D01*
X88540000Y-99379000D02*
X89380000Y-99379000D01*
X88570000Y-99339000D02*
X89380000Y-99339000D01*
X88601000Y-99299000D02*
X89380000Y-99299000D01*
X88633000Y-99259000D02*
X89380000Y-99259000D01*
X88668000Y-99219000D02*
X89380000Y-99219000D01*
X88704000Y-99179000D02*
X89380000Y-99179000D01*
X88742000Y-99139000D02*
X89380000Y-99139000D01*
X88782000Y-99099000D02*
X89380000Y-99099000D01*
X88824000Y-99059000D02*
X89380000Y-99059000D01*
X88869000Y-99019000D02*
X89380000Y-99019000D01*
X88916000Y-98979000D02*
X89380000Y-98979000D01*
X88966000Y-98939000D02*
X89380000Y-98939000D01*
X89020000Y-98899000D02*
X89380000Y-98899000D01*
X89078000Y-98859000D02*
X89380000Y-98859000D01*
X89140000Y-98819000D02*
X89380000Y-98819000D01*
X89207000Y-98779000D02*
X91233000Y-98779000D01*
X89280000Y-98739000D02*
X91160000Y-98739000D01*
X89361000Y-98699000D02*
X91079000Y-98699000D01*
X89452000Y-98659000D02*
X90988000Y-98659000D01*
X89556000Y-98619000D02*
X90884000Y-98619000D01*
X89683000Y-98579000D02*
X90757000Y-98579000D01*
X89850000Y-98539000D02*
X90590000Y-98539000D01*
X91060000Y-98819000D02*
X91300000Y-98819000D01*
X91060000Y-98859000D02*
X91362000Y-98859000D01*
X91060000Y-98899000D02*
X91420000Y-98899000D01*
X91060000Y-98939000D02*
X91474000Y-98939000D01*
X91060000Y-98979000D02*
X91524000Y-98979000D01*
X91060000Y-99019000D02*
X91571000Y-99019000D01*
X91060000Y-99059000D02*
X91616000Y-99059000D01*
X91060000Y-99099000D02*
X91658000Y-99099000D01*
X91060000Y-99139000D02*
X91698000Y-99139000D01*
X91060000Y-99179000D02*
X91736000Y-99179000D01*
X91060000Y-99219000D02*
X91772000Y-99219000D01*
X91060000Y-99259000D02*
X91807000Y-99259000D01*
X91060000Y-99299000D02*
X91839000Y-99299000D01*
X91060000Y-99339000D02*
X91870000Y-99339000D01*
X91060000Y-99379000D02*
X91900000Y-99379000D01*
X91060000Y-99419000D02*
X91928000Y-99419000D01*
X91060000Y-99459000D02*
X91955000Y-99459000D01*
X91060000Y-99499000D02*
X91980000Y-99499000D01*
X91060000Y-99539000D02*
X92005000Y-99539000D01*
X91060000Y-99579000D02*
X92028000Y-99579000D01*
X91060000Y-99619000D02*
X92050000Y-99619000D01*
X91060000Y-99659000D02*
X92071000Y-99659000D01*
X91060000Y-99699000D02*
X92090000Y-99699000D01*
X91060000Y-99739000D02*
X92109000Y-99739000D01*
X91060000Y-99779000D02*
X92127000Y-99779000D01*
X91060000Y-99819000D02*
X92144000Y-99819000D01*
X91060000Y-99859000D02*
X92160000Y-99859000D01*
X91060000Y-99899000D02*
X92174000Y-99899000D01*
X91060000Y-99940000D02*
X92188000Y-99940000D01*
X91060000Y-99980000D02*
X92202000Y-99980000D01*
X91060000Y-100020000D02*
X92214000Y-100020000D01*
X91060000Y-100060000D02*
X92225000Y-100060000D01*
X91060000Y-100100000D02*
X92236000Y-100100000D01*
X91060000Y-100140000D02*
X92245000Y-100140000D01*
X91060000Y-100180000D02*
X92254000Y-100180000D01*
X91060000Y-100220000D02*
X92262000Y-100220000D01*
X91060000Y-100260000D02*
X92270000Y-100260000D01*
X91060000Y-100300000D02*
X92276000Y-100300000D01*
X91060000Y-100340000D02*
X92282000Y-100340000D01*
X91060000Y-100380000D02*
X92287000Y-100380000D01*
X91060000Y-100420000D02*
X92291000Y-100420000D01*
X91215000Y-102689801D02*
X91615000Y-102689801D01*
X91415000Y-102489801D02*
X91415000Y-102889801D01*
X92340000Y-100620000D02*
G75*
G02*
X88100000Y-100620000I-2120000J0D01*
G01*
X88100000Y-100620000D02*
G75*
G02*
X92340000Y-100620000I2120000J0D01*
G01*
X85891600Y-151370000D02*
X85891600Y-150630000D01*
X85931600Y-151537000D02*
X85931600Y-150463000D01*
X85971600Y-151664000D02*
X85971600Y-150336000D01*
X86011600Y-151768000D02*
X86011600Y-150232000D01*
X86051600Y-151859000D02*
X86051600Y-150141000D01*
X86091600Y-151940000D02*
X86091600Y-150060000D01*
X86131600Y-152013000D02*
X86131600Y-149987000D01*
X86171600Y-150160000D02*
X86171600Y-149920000D01*
X86171600Y-152080000D02*
X86171600Y-151840000D01*
X86211600Y-150160000D02*
X86211600Y-149858000D01*
X86211600Y-152142000D02*
X86211600Y-151840000D01*
X86251600Y-150160000D02*
X86251600Y-149800000D01*
X86251600Y-152200000D02*
X86251600Y-151840000D01*
X86291600Y-150160000D02*
X86291600Y-149746000D01*
X86291600Y-152254000D02*
X86291600Y-151840000D01*
X86331600Y-150160000D02*
X86331600Y-149696000D01*
X86331600Y-152304000D02*
X86331600Y-151840000D01*
X86371600Y-150160000D02*
X86371600Y-149649000D01*
X86371600Y-152351000D02*
X86371600Y-151840000D01*
X86411600Y-150160000D02*
X86411600Y-149604000D01*
X86411600Y-152396000D02*
X86411600Y-151840000D01*
X86451600Y-150160000D02*
X86451600Y-149562000D01*
X86451600Y-152438000D02*
X86451600Y-151840000D01*
X86491600Y-150160000D02*
X86491600Y-149522000D01*
X86491600Y-152478000D02*
X86491600Y-151840000D01*
X86531600Y-150160000D02*
X86531600Y-149484000D01*
X86531600Y-152516000D02*
X86531600Y-151840000D01*
X86571600Y-150160000D02*
X86571600Y-149448000D01*
X86571600Y-152552000D02*
X86571600Y-151840000D01*
X86611600Y-150160000D02*
X86611600Y-149413000D01*
X86611600Y-152587000D02*
X86611600Y-151840000D01*
X86651600Y-150160000D02*
X86651600Y-149381000D01*
X86651600Y-152619000D02*
X86651600Y-151840000D01*
X86691600Y-150160000D02*
X86691600Y-149350000D01*
X86691600Y-152650000D02*
X86691600Y-151840000D01*
X86731600Y-150160000D02*
X86731600Y-149320000D01*
X86731600Y-152680000D02*
X86731600Y-151840000D01*
X86771600Y-150160000D02*
X86771600Y-149292000D01*
X86771600Y-152708000D02*
X86771600Y-151840000D01*
X86811600Y-150160000D02*
X86811600Y-149265000D01*
X86811600Y-152735000D02*
X86811600Y-151840000D01*
X86851600Y-150160000D02*
X86851600Y-149240000D01*
X86851600Y-152760000D02*
X86851600Y-151840000D01*
X86891600Y-150160000D02*
X86891600Y-149215000D01*
X86891600Y-152785000D02*
X86891600Y-151840000D01*
X86931600Y-150160000D02*
X86931600Y-149192000D01*
X86931600Y-152808000D02*
X86931600Y-151840000D01*
X86971600Y-150160000D02*
X86971600Y-149170000D01*
X86971600Y-152830000D02*
X86971600Y-151840000D01*
X87011600Y-150160000D02*
X87011600Y-149149000D01*
X87011600Y-152851000D02*
X87011600Y-151840000D01*
X87051600Y-150160000D02*
X87051600Y-149130000D01*
X87051600Y-152870000D02*
X87051600Y-151840000D01*
X87091600Y-150160000D02*
X87091600Y-149111000D01*
X87091600Y-152889000D02*
X87091600Y-151840000D01*
X87131600Y-150160000D02*
X87131600Y-149093000D01*
X87131600Y-152907000D02*
X87131600Y-151840000D01*
X87171600Y-150160000D02*
X87171600Y-149076000D01*
X87171600Y-152924000D02*
X87171600Y-151840000D01*
X87211600Y-150160000D02*
X87211600Y-149060000D01*
X87211600Y-152940000D02*
X87211600Y-151840000D01*
X87251600Y-150160000D02*
X87251600Y-149046000D01*
X87251600Y-152954000D02*
X87251600Y-151840000D01*
X87292600Y-150160000D02*
X87292600Y-149032000D01*
X87292600Y-152968000D02*
X87292600Y-151840000D01*
X87332600Y-150160000D02*
X87332600Y-149018000D01*
X87332600Y-152982000D02*
X87332600Y-151840000D01*
X87372600Y-150160000D02*
X87372600Y-149006000D01*
X87372600Y-152994000D02*
X87372600Y-151840000D01*
X87412600Y-150160000D02*
X87412600Y-148995000D01*
X87412600Y-153005000D02*
X87412600Y-151840000D01*
X87452600Y-150160000D02*
X87452600Y-148984000D01*
X87452600Y-153016000D02*
X87452600Y-151840000D01*
X87492600Y-150160000D02*
X87492600Y-148975000D01*
X87492600Y-153025000D02*
X87492600Y-151840000D01*
X87532600Y-150160000D02*
X87532600Y-148966000D01*
X87532600Y-153034000D02*
X87532600Y-151840000D01*
X87572600Y-150160000D02*
X87572600Y-148958000D01*
X87572600Y-153042000D02*
X87572600Y-151840000D01*
X87612600Y-150160000D02*
X87612600Y-148950000D01*
X87612600Y-153050000D02*
X87612600Y-151840000D01*
X87652600Y-150160000D02*
X87652600Y-148944000D01*
X87652600Y-153056000D02*
X87652600Y-151840000D01*
X87692600Y-150160000D02*
X87692600Y-148938000D01*
X87692600Y-153062000D02*
X87692600Y-151840000D01*
X87732600Y-150160000D02*
X87732600Y-148933000D01*
X87732600Y-153067000D02*
X87732600Y-151840000D01*
X87772600Y-150160000D02*
X87772600Y-148929000D01*
X87772600Y-153071000D02*
X87772600Y-151840000D01*
X87812600Y-153074000D02*
X87812600Y-148926000D01*
X87852600Y-153077000D02*
X87852600Y-148923000D01*
X87892600Y-153079000D02*
X87892600Y-148921000D01*
X87932600Y-153080000D02*
X87932600Y-148920000D01*
X87972600Y-153080000D02*
X87972600Y-148920000D01*
X89842401Y-149805000D02*
X90242401Y-149805000D01*
X90042401Y-150005000D02*
X90042401Y-149605000D01*
X90092600Y-151000000D02*
G75*
G02*
X85852600Y-151000000I-2120000J0D01*
G01*
X85852600Y-151000000D02*
G75*
G02*
X90092600Y-151000000I2120000J0D01*
G01*
X158050000Y-56670000D02*
X158050000Y-59330000D01*
X158050000Y-56670000D02*
X165730000Y-56670000D01*
X158050000Y-59330000D02*
X165730000Y-59330000D01*
X165730000Y-56670000D02*
X165730000Y-59330000D01*
X168330000Y-58000000D02*
X168330000Y-59330000D01*
X168330000Y-59330000D02*
X167000000Y-59330000D01*
X139670000Y-91670000D02*
X141000000Y-91670000D01*
X139670000Y-93000000D02*
X139670000Y-91670000D01*
X142270000Y-94330000D02*
X142270000Y-91670000D01*
X149950000Y-91670000D02*
X142270000Y-91670000D01*
X149950000Y-94330000D02*
X142270000Y-94330000D01*
X149950000Y-94330000D02*
X149950000Y-91670000D01*
X64460000Y-148815000D02*
X64460000Y-158585000D01*
X64460000Y-148815000D02*
X69530000Y-148815000D01*
X64460000Y-158585000D02*
X69530000Y-158585000D01*
X69530000Y-148815000D02*
X69530000Y-158585000D01*
X187670000Y-66190000D02*
X190330000Y-66190000D01*
X187670000Y-84030000D02*
X187670000Y-66190000D01*
X187670000Y-84030000D02*
X190330000Y-84030000D01*
X189000000Y-63590000D02*
X190330000Y-63590000D01*
X190330000Y-63590000D02*
X190330000Y-64920000D01*
X190330000Y-84030000D02*
X190330000Y-66190000D01*
X103870000Y-62070000D02*
X103870000Y-67210000D01*
X103870000Y-69810000D02*
X103870000Y-68480000D01*
X105200000Y-69810000D02*
X103870000Y-69810000D01*
X106530000Y-62070000D02*
X103870000Y-62070000D01*
X106530000Y-62070000D02*
X106530000Y-67210000D01*
X106530000Y-67210000D02*
X103870000Y-67210000D01*
X187670000Y-128430000D02*
X187670000Y-146270000D01*
X187670000Y-148870000D02*
X187670000Y-147540000D01*
X189000000Y-148870000D02*
X187670000Y-148870000D01*
X190330000Y-128430000D02*
X187670000Y-128430000D01*
X190330000Y-128430000D02*
X190330000Y-146270000D01*
X190330000Y-146270000D02*
X187670000Y-146270000D01*
X50510000Y-50690000D02*
X59630000Y-50690000D01*
X50510000Y-62740000D02*
X51820000Y-62740000D01*
X50510000Y-78890000D02*
X50510000Y-50690000D01*
X50700000Y-73180000D02*
X50700000Y-74180000D01*
X50700000Y-74180000D02*
X51700000Y-73680000D01*
X51700000Y-73680000D02*
X50700000Y-73180000D01*
X51820000Y-51990000D02*
X58320000Y-51990000D01*
X51820000Y-62740000D02*
X51820000Y-51990000D01*
X51820000Y-62740000D02*
X51820000Y-62740000D01*
X51820000Y-66840000D02*
X50510000Y-66840000D01*
X51820000Y-77590000D02*
X51820000Y-66840000D01*
X58320000Y-51990000D02*
X58320000Y-77590000D01*
X58320000Y-77590000D02*
X51820000Y-77590000D01*
D14*
X59050000Y-80180000D02*
X51050000Y-80180000D01*
D13*
X59630000Y-50690000D02*
X59630000Y-78890000D01*
X59630000Y-78890000D02*
X50510000Y-78890000D01*
X58460000Y-148815000D02*
X58460000Y-158585000D01*
X58460000Y-148815000D02*
X63530000Y-148815000D01*
X58460000Y-158585000D02*
X63530000Y-158585000D01*
X63530000Y-148815000D02*
X63530000Y-158585000D01*
X70169000Y-151370000D02*
X70169000Y-150630000D01*
X70209000Y-151537000D02*
X70209000Y-150463000D01*
X70249000Y-151664000D02*
X70249000Y-150336000D01*
X70289000Y-151768000D02*
X70289000Y-150232000D01*
X70329000Y-151859000D02*
X70329000Y-150141000D01*
X70369000Y-151940000D02*
X70369000Y-150060000D01*
X70409000Y-152013000D02*
X70409000Y-149987000D01*
X70449000Y-150160000D02*
X70449000Y-149920000D01*
X70449000Y-152080000D02*
X70449000Y-151840000D01*
X70489000Y-150160000D02*
X70489000Y-149858000D01*
X70489000Y-152142000D02*
X70489000Y-151840000D01*
X70529000Y-150160000D02*
X70529000Y-149800000D01*
X70529000Y-152200000D02*
X70529000Y-151840000D01*
X70569000Y-150160000D02*
X70569000Y-149746000D01*
X70569000Y-152254000D02*
X70569000Y-151840000D01*
X70609000Y-150160000D02*
X70609000Y-149696000D01*
X70609000Y-152304000D02*
X70609000Y-151840000D01*
X70649000Y-150160000D02*
X70649000Y-149649000D01*
X70649000Y-152351000D02*
X70649000Y-151840000D01*
X70689000Y-150160000D02*
X70689000Y-149604000D01*
X70689000Y-152396000D02*
X70689000Y-151840000D01*
X70729000Y-150160000D02*
X70729000Y-149562000D01*
X70729000Y-152438000D02*
X70729000Y-151840000D01*
X70769000Y-150160000D02*
X70769000Y-149522000D01*
X70769000Y-152478000D02*
X70769000Y-151840000D01*
X70809000Y-150160000D02*
X70809000Y-149484000D01*
X70809000Y-152516000D02*
X70809000Y-151840000D01*
X70849000Y-150160000D02*
X70849000Y-149448000D01*
X70849000Y-152552000D02*
X70849000Y-151840000D01*
X70889000Y-150160000D02*
X70889000Y-149413000D01*
X70889000Y-152587000D02*
X70889000Y-151840000D01*
X70929000Y-150160000D02*
X70929000Y-149381000D01*
X70929000Y-152619000D02*
X70929000Y-151840000D01*
X70969000Y-150160000D02*
X70969000Y-149350000D01*
X70969000Y-152650000D02*
X70969000Y-151840000D01*
X71009000Y-150160000D02*
X71009000Y-149320000D01*
X71009000Y-152680000D02*
X71009000Y-151840000D01*
X71049000Y-150160000D02*
X71049000Y-149292000D01*
X71049000Y-152708000D02*
X71049000Y-151840000D01*
X71089000Y-150160000D02*
X71089000Y-149265000D01*
X71089000Y-152735000D02*
X71089000Y-151840000D01*
X71129000Y-150160000D02*
X71129000Y-149240000D01*
X71129000Y-152760000D02*
X71129000Y-151840000D01*
X71169000Y-150160000D02*
X71169000Y-149215000D01*
X71169000Y-152785000D02*
X71169000Y-151840000D01*
X71209000Y-150160000D02*
X71209000Y-149192000D01*
X71209000Y-152808000D02*
X71209000Y-151840000D01*
X71249000Y-150160000D02*
X71249000Y-149170000D01*
X71249000Y-152830000D02*
X71249000Y-151840000D01*
X71289000Y-150160000D02*
X71289000Y-149149000D01*
X71289000Y-152851000D02*
X71289000Y-151840000D01*
X71329000Y-150160000D02*
X71329000Y-149130000D01*
X71329000Y-152870000D02*
X71329000Y-151840000D01*
X71369000Y-150160000D02*
X71369000Y-149111000D01*
X71369000Y-152889000D02*
X71369000Y-151840000D01*
X71409000Y-150160000D02*
X71409000Y-149093000D01*
X71409000Y-152907000D02*
X71409000Y-151840000D01*
X71449000Y-150160000D02*
X71449000Y-149076000D01*
X71449000Y-152924000D02*
X71449000Y-151840000D01*
X71489000Y-150160000D02*
X71489000Y-149060000D01*
X71489000Y-152940000D02*
X71489000Y-151840000D01*
X71529000Y-150160000D02*
X71529000Y-149046000D01*
X71529000Y-152954000D02*
X71529000Y-151840000D01*
X71570000Y-150160000D02*
X71570000Y-149032000D01*
X71570000Y-152968000D02*
X71570000Y-151840000D01*
X71610000Y-150160000D02*
X71610000Y-149018000D01*
X71610000Y-152982000D02*
X71610000Y-151840000D01*
X71650000Y-150160000D02*
X71650000Y-149006000D01*
X71650000Y-152994000D02*
X71650000Y-151840000D01*
X71690000Y-150160000D02*
X71690000Y-148995000D01*
X71690000Y-153005000D02*
X71690000Y-151840000D01*
X71730000Y-150160000D02*
X71730000Y-148984000D01*
X71730000Y-153016000D02*
X71730000Y-151840000D01*
X71770000Y-150160000D02*
X71770000Y-148975000D01*
X71770000Y-153025000D02*
X71770000Y-151840000D01*
X71810000Y-150160000D02*
X71810000Y-148966000D01*
X71810000Y-153034000D02*
X71810000Y-151840000D01*
X71850000Y-150160000D02*
X71850000Y-148958000D01*
X71850000Y-153042000D02*
X71850000Y-151840000D01*
X71890000Y-150160000D02*
X71890000Y-148950000D01*
X71890000Y-153050000D02*
X71890000Y-151840000D01*
X71930000Y-150160000D02*
X71930000Y-148944000D01*
X71930000Y-153056000D02*
X71930000Y-151840000D01*
X71970000Y-150160000D02*
X71970000Y-148938000D01*
X71970000Y-153062000D02*
X71970000Y-151840000D01*
X72010000Y-150160000D02*
X72010000Y-148933000D01*
X72010000Y-153067000D02*
X72010000Y-151840000D01*
X72050000Y-150160000D02*
X72050000Y-148929000D01*
X72050000Y-153071000D02*
X72050000Y-151840000D01*
X72090000Y-153074000D02*
X72090000Y-148926000D01*
X72130000Y-153077000D02*
X72130000Y-148923000D01*
X72170000Y-153079000D02*
X72170000Y-148921000D01*
X72210000Y-153080000D02*
X72210000Y-148920000D01*
X72250000Y-153080000D02*
X72250000Y-148920000D01*
X74119801Y-149805000D02*
X74519801Y-149805000D01*
X74319801Y-150005000D02*
X74319801Y-149605000D01*
X74370000Y-151000000D02*
G75*
G02*
X70130000Y-151000000I-2120000J0D01*
G01*
X70130000Y-151000000D02*
G75*
G02*
X74370000Y-151000000I2120000J0D01*
G01*
X100070000Y-62050000D02*
X100070000Y-67190000D01*
X100070000Y-69790000D02*
X100070000Y-68460000D01*
X101400000Y-69790000D02*
X100070000Y-69790000D01*
X102730000Y-62050000D02*
X100070000Y-62050000D01*
X102730000Y-62050000D02*
X102730000Y-67190000D01*
X102730000Y-67190000D02*
X100070000Y-67190000D01*
X61725000Y-58835225D02*
X61725000Y-58335225D01*
X61975000Y-58585225D02*
X61475000Y-58585225D01*
X62160000Y-61140000D02*
X60620000Y-61140000D01*
X62160000Y-61180000D02*
X60620000Y-61180000D01*
X62160000Y-61220000D02*
X60621000Y-61220000D01*
X62160000Y-61260000D02*
X60622000Y-61260000D01*
X62160000Y-61300000D02*
X60624000Y-61300000D01*
X62160000Y-61340000D02*
X60627000Y-61340000D01*
X62160000Y-61380000D02*
X60631000Y-61380000D01*
X62160000Y-61420000D02*
X60635000Y-61420000D01*
X62160000Y-61460000D02*
X60639000Y-61460000D01*
X62160000Y-61500000D02*
X60644000Y-61500000D01*
X62160000Y-61540000D02*
X60650000Y-61540000D01*
X62160000Y-61580000D02*
X60657000Y-61580000D01*
X62160000Y-61620000D02*
X60664000Y-61620000D01*
X62160000Y-61660000D02*
X60672000Y-61660000D01*
X62160000Y-61700000D02*
X60680000Y-61700000D01*
X62160000Y-61740000D02*
X60689000Y-61740000D01*
X62160000Y-61780000D02*
X60699000Y-61780000D01*
X62160000Y-61820000D02*
X60709000Y-61820000D01*
X62160000Y-61861000D02*
X60720000Y-61861000D01*
X62160000Y-61901000D02*
X60732000Y-61901000D01*
X62160000Y-61941000D02*
X60745000Y-61941000D01*
X62160000Y-61981000D02*
X60758000Y-61981000D01*
X62160000Y-62021000D02*
X60772000Y-62021000D01*
X62160000Y-62061000D02*
X60786000Y-62061000D01*
X62160000Y-62101000D02*
X60802000Y-62101000D01*
X62160000Y-62141000D02*
X60818000Y-62141000D01*
X62160000Y-62181000D02*
X60835000Y-62181000D01*
X62160000Y-62221000D02*
X60852000Y-62221000D01*
X62160000Y-62261000D02*
X60871000Y-62261000D01*
X62160000Y-62301000D02*
X60890000Y-62301000D01*
X62160000Y-62341000D02*
X60910000Y-62341000D01*
X62160000Y-62381000D02*
X60932000Y-62381000D01*
X62160000Y-62421000D02*
X60953000Y-62421000D01*
X62160000Y-62461000D02*
X60976000Y-62461000D01*
X62160000Y-62501000D02*
X61000000Y-62501000D01*
X62160000Y-62541000D02*
X61025000Y-62541000D01*
X62160000Y-62581000D02*
X61051000Y-62581000D01*
X62160000Y-62621000D02*
X61078000Y-62621000D01*
X62160000Y-62661000D02*
X61105000Y-62661000D01*
X62160000Y-62701000D02*
X61135000Y-62701000D01*
X62160000Y-62741000D02*
X61165000Y-62741000D01*
X62160000Y-62781000D02*
X61196000Y-62781000D01*
X62160000Y-62821000D02*
X61229000Y-62821000D01*
X62160000Y-62861000D02*
X61263000Y-62861000D01*
X62160000Y-62901000D02*
X61299000Y-62901000D01*
X62160000Y-62941000D02*
X61336000Y-62941000D01*
X62160000Y-62981000D02*
X61374000Y-62981000D01*
X62160000Y-63021000D02*
X61415000Y-63021000D01*
X62160000Y-63061000D02*
X61457000Y-63061000D01*
X62160000Y-63101000D02*
X61501000Y-63101000D01*
X62160000Y-63141000D02*
X61547000Y-63141000D01*
X63484000Y-63741000D02*
X62916000Y-63741000D01*
X63718000Y-63701000D02*
X62682000Y-63701000D01*
X63877000Y-63661000D02*
X62523000Y-63661000D01*
X64005000Y-63621000D02*
X62395000Y-63621000D01*
X64115000Y-63581000D02*
X62285000Y-63581000D01*
X64211000Y-63541000D02*
X62189000Y-63541000D01*
X64298000Y-63501000D02*
X62102000Y-63501000D01*
X64378000Y-63461000D02*
X62022000Y-63461000D01*
X64451000Y-63421000D02*
X61949000Y-63421000D01*
X64519000Y-63381000D02*
X61881000Y-63381000D01*
X64583000Y-63341000D02*
X61817000Y-63341000D01*
X64643000Y-63301000D02*
X61757000Y-63301000D01*
X64700000Y-63261000D02*
X61700000Y-63261000D01*
X64754000Y-63221000D02*
X61646000Y-63221000D01*
X64805000Y-63181000D02*
X61595000Y-63181000D01*
X64853000Y-63141000D02*
X64240000Y-63141000D01*
X64899000Y-63101000D02*
X64240000Y-63101000D01*
X64943000Y-63061000D02*
X64240000Y-63061000D01*
X64985000Y-63021000D02*
X64240000Y-63021000D01*
X65026000Y-62981000D02*
X64240000Y-62981000D01*
X65064000Y-62941000D02*
X64240000Y-62941000D01*
X65101000Y-62901000D02*
X64240000Y-62901000D01*
X65137000Y-62861000D02*
X64240000Y-62861000D01*
X65171000Y-62821000D02*
X64240000Y-62821000D01*
X65204000Y-62781000D02*
X64240000Y-62781000D01*
X65235000Y-62741000D02*
X64240000Y-62741000D01*
X65265000Y-62701000D02*
X64240000Y-62701000D01*
X65295000Y-62661000D02*
X64240000Y-62661000D01*
X65322000Y-62621000D02*
X64240000Y-62621000D01*
X65349000Y-62581000D02*
X64240000Y-62581000D01*
X65375000Y-62541000D02*
X64240000Y-62541000D01*
X65400000Y-62501000D02*
X64240000Y-62501000D01*
X65424000Y-62461000D02*
X64240000Y-62461000D01*
X65447000Y-62421000D02*
X64240000Y-62421000D01*
X65468000Y-62381000D02*
X64240000Y-62381000D01*
X65490000Y-62341000D02*
X64240000Y-62341000D01*
X65510000Y-62301000D02*
X64240000Y-62301000D01*
X65529000Y-62261000D02*
X64240000Y-62261000D01*
X65548000Y-62221000D02*
X64240000Y-62221000D01*
X65565000Y-62181000D02*
X64240000Y-62181000D01*
X65582000Y-62141000D02*
X64240000Y-62141000D01*
X65598000Y-62101000D02*
X64240000Y-62101000D01*
X65614000Y-62061000D02*
X64240000Y-62061000D01*
X65628000Y-62021000D02*
X64240000Y-62021000D01*
X65642000Y-61981000D02*
X64240000Y-61981000D01*
X65655000Y-61941000D02*
X64240000Y-61941000D01*
X65668000Y-61901000D02*
X64240000Y-61901000D01*
X65680000Y-61861000D02*
X64240000Y-61861000D01*
X65691000Y-61820000D02*
X64240000Y-61820000D01*
X65701000Y-61780000D02*
X64240000Y-61780000D01*
X65711000Y-61740000D02*
X64240000Y-61740000D01*
X65720000Y-61700000D02*
X64240000Y-61700000D01*
X65728000Y-61660000D02*
X64240000Y-61660000D01*
X65736000Y-61620000D02*
X64240000Y-61620000D01*
X65743000Y-61580000D02*
X64240000Y-61580000D01*
X65750000Y-61540000D02*
X64240000Y-61540000D01*
X65756000Y-61500000D02*
X64240000Y-61500000D01*
X65761000Y-61460000D02*
X64240000Y-61460000D01*
X65765000Y-61420000D02*
X64240000Y-61420000D01*
X65769000Y-61380000D02*
X64240000Y-61380000D01*
X65773000Y-61340000D02*
X64240000Y-61340000D01*
X65776000Y-61300000D02*
X64240000Y-61300000D01*
X65778000Y-61260000D02*
X64240000Y-61260000D01*
X65779000Y-61220000D02*
X64240000Y-61220000D01*
X65780000Y-61140000D02*
X64240000Y-61140000D01*
X65780000Y-61180000D02*
X64240000Y-61180000D01*
X65820000Y-61140000D02*
G75*
G02*
X60580000Y-61140000I-2620000J0D01*
G01*
X60580000Y-61140000D02*
G75*
G02*
X65820000Y-61140000I2620000J0D01*
G01*
X61725000Y-64835225D02*
X61725000Y-64335225D01*
X61975000Y-64585225D02*
X61475000Y-64585225D01*
X62160000Y-67140000D02*
X60620000Y-67140000D01*
X62160000Y-67180000D02*
X60620000Y-67180000D01*
X62160000Y-67220000D02*
X60621000Y-67220000D01*
X62160000Y-67260000D02*
X60622000Y-67260000D01*
X62160000Y-67300000D02*
X60624000Y-67300000D01*
X62160000Y-67340000D02*
X60627000Y-67340000D01*
X62160000Y-67380000D02*
X60631000Y-67380000D01*
X62160000Y-67420000D02*
X60635000Y-67420000D01*
X62160000Y-67460000D02*
X60639000Y-67460000D01*
X62160000Y-67500000D02*
X60644000Y-67500000D01*
X62160000Y-67540000D02*
X60650000Y-67540000D01*
X62160000Y-67580000D02*
X60657000Y-67580000D01*
X62160000Y-67620000D02*
X60664000Y-67620000D01*
X62160000Y-67660000D02*
X60672000Y-67660000D01*
X62160000Y-67700000D02*
X60680000Y-67700000D01*
X62160000Y-67740000D02*
X60689000Y-67740000D01*
X62160000Y-67780000D02*
X60699000Y-67780000D01*
X62160000Y-67820000D02*
X60709000Y-67820000D01*
X62160000Y-67861000D02*
X60720000Y-67861000D01*
X62160000Y-67901000D02*
X60732000Y-67901000D01*
X62160000Y-67941000D02*
X60745000Y-67941000D01*
X62160000Y-67981000D02*
X60758000Y-67981000D01*
X62160000Y-68021000D02*
X60772000Y-68021000D01*
X62160000Y-68061000D02*
X60786000Y-68061000D01*
X62160000Y-68101000D02*
X60802000Y-68101000D01*
X62160000Y-68141000D02*
X60818000Y-68141000D01*
X62160000Y-68181000D02*
X60835000Y-68181000D01*
X62160000Y-68221000D02*
X60852000Y-68221000D01*
X62160000Y-68261000D02*
X60871000Y-68261000D01*
X62160000Y-68301000D02*
X60890000Y-68301000D01*
X62160000Y-68341000D02*
X60910000Y-68341000D01*
X62160000Y-68381000D02*
X60932000Y-68381000D01*
X62160000Y-68421000D02*
X60953000Y-68421000D01*
X62160000Y-68461000D02*
X60976000Y-68461000D01*
X62160000Y-68501000D02*
X61000000Y-68501000D01*
X62160000Y-68541000D02*
X61025000Y-68541000D01*
X62160000Y-68581000D02*
X61051000Y-68581000D01*
X62160000Y-68621000D02*
X61078000Y-68621000D01*
X62160000Y-68661000D02*
X61105000Y-68661000D01*
X62160000Y-68701000D02*
X61135000Y-68701000D01*
X62160000Y-68741000D02*
X61165000Y-68741000D01*
X62160000Y-68781000D02*
X61196000Y-68781000D01*
X62160000Y-68821000D02*
X61229000Y-68821000D01*
X62160000Y-68861000D02*
X61263000Y-68861000D01*
X62160000Y-68901000D02*
X61299000Y-68901000D01*
X62160000Y-68941000D02*
X61336000Y-68941000D01*
X62160000Y-68981000D02*
X61374000Y-68981000D01*
X62160000Y-69021000D02*
X61415000Y-69021000D01*
X62160000Y-69061000D02*
X61457000Y-69061000D01*
X62160000Y-69101000D02*
X61501000Y-69101000D01*
X62160000Y-69141000D02*
X61547000Y-69141000D01*
X63484000Y-69741000D02*
X62916000Y-69741000D01*
X63718000Y-69701000D02*
X62682000Y-69701000D01*
X63877000Y-69661000D02*
X62523000Y-69661000D01*
X64005000Y-69621000D02*
X62395000Y-69621000D01*
X64115000Y-69581000D02*
X62285000Y-69581000D01*
X64211000Y-69541000D02*
X62189000Y-69541000D01*
X64298000Y-69501000D02*
X62102000Y-69501000D01*
X64378000Y-69461000D02*
X62022000Y-69461000D01*
X64451000Y-69421000D02*
X61949000Y-69421000D01*
X64519000Y-69381000D02*
X61881000Y-69381000D01*
X64583000Y-69341000D02*
X61817000Y-69341000D01*
X64643000Y-69301000D02*
X61757000Y-69301000D01*
X64700000Y-69261000D02*
X61700000Y-69261000D01*
X64754000Y-69221000D02*
X61646000Y-69221000D01*
X64805000Y-69181000D02*
X61595000Y-69181000D01*
X64853000Y-69141000D02*
X64240000Y-69141000D01*
X64899000Y-69101000D02*
X64240000Y-69101000D01*
X64943000Y-69061000D02*
X64240000Y-69061000D01*
X64985000Y-69021000D02*
X64240000Y-69021000D01*
X65026000Y-68981000D02*
X64240000Y-68981000D01*
X65064000Y-68941000D02*
X64240000Y-68941000D01*
X65101000Y-68901000D02*
X64240000Y-68901000D01*
X65137000Y-68861000D02*
X64240000Y-68861000D01*
X65171000Y-68821000D02*
X64240000Y-68821000D01*
X65204000Y-68781000D02*
X64240000Y-68781000D01*
X65235000Y-68741000D02*
X64240000Y-68741000D01*
X65265000Y-68701000D02*
X64240000Y-68701000D01*
X65295000Y-68661000D02*
X64240000Y-68661000D01*
X65322000Y-68621000D02*
X64240000Y-68621000D01*
X65349000Y-68581000D02*
X64240000Y-68581000D01*
X65375000Y-68541000D02*
X64240000Y-68541000D01*
X65400000Y-68501000D02*
X64240000Y-68501000D01*
X65424000Y-68461000D02*
X64240000Y-68461000D01*
X65447000Y-68421000D02*
X64240000Y-68421000D01*
X65468000Y-68381000D02*
X64240000Y-68381000D01*
X65490000Y-68341000D02*
X64240000Y-68341000D01*
X65510000Y-68301000D02*
X64240000Y-68301000D01*
X65529000Y-68261000D02*
X64240000Y-68261000D01*
X65548000Y-68221000D02*
X64240000Y-68221000D01*
X65565000Y-68181000D02*
X64240000Y-68181000D01*
X65582000Y-68141000D02*
X64240000Y-68141000D01*
X65598000Y-68101000D02*
X64240000Y-68101000D01*
X65614000Y-68061000D02*
X64240000Y-68061000D01*
X65628000Y-68021000D02*
X64240000Y-68021000D01*
X65642000Y-67981000D02*
X64240000Y-67981000D01*
X65655000Y-67941000D02*
X64240000Y-67941000D01*
X65668000Y-67901000D02*
X64240000Y-67901000D01*
X65680000Y-67861000D02*
X64240000Y-67861000D01*
X65691000Y-67820000D02*
X64240000Y-67820000D01*
X65701000Y-67780000D02*
X64240000Y-67780000D01*
X65711000Y-67740000D02*
X64240000Y-67740000D01*
X65720000Y-67700000D02*
X64240000Y-67700000D01*
X65728000Y-67660000D02*
X64240000Y-67660000D01*
X65736000Y-67620000D02*
X64240000Y-67620000D01*
X65743000Y-67580000D02*
X64240000Y-67580000D01*
X65750000Y-67540000D02*
X64240000Y-67540000D01*
X65756000Y-67500000D02*
X64240000Y-67500000D01*
X65761000Y-67460000D02*
X64240000Y-67460000D01*
X65765000Y-67420000D02*
X64240000Y-67420000D01*
X65769000Y-67380000D02*
X64240000Y-67380000D01*
X65773000Y-67340000D02*
X64240000Y-67340000D01*
X65776000Y-67300000D02*
X64240000Y-67300000D01*
X65778000Y-67260000D02*
X64240000Y-67260000D01*
X65779000Y-67220000D02*
X64240000Y-67220000D01*
X65780000Y-67140000D02*
X64240000Y-67140000D01*
X65780000Y-67180000D02*
X64240000Y-67180000D01*
X65820000Y-67140000D02*
G75*
G02*
X60580000Y-67140000I-2620000J0D01*
G01*
X60580000Y-67140000D02*
G75*
G02*
X65820000Y-67140000I2620000J0D01*
G01*
X68005000Y-65270199D02*
X68005000Y-64870199D01*
X68205000Y-65070199D02*
X67805000Y-65070199D01*
X68360000Y-67340000D02*
X67129000Y-67340000D01*
X68360000Y-67380000D02*
X67133000Y-67380000D01*
X68360000Y-67420000D02*
X67138000Y-67420000D01*
X68360000Y-67460000D02*
X67144000Y-67460000D01*
X68360000Y-67500000D02*
X67150000Y-67500000D01*
X68360000Y-67540000D02*
X67158000Y-67540000D01*
X68360000Y-67580000D02*
X67166000Y-67580000D01*
X68360000Y-67620000D02*
X67175000Y-67620000D01*
X68360000Y-67660000D02*
X67184000Y-67660000D01*
X68360000Y-67700000D02*
X67195000Y-67700000D01*
X68360000Y-67740000D02*
X67206000Y-67740000D01*
X68360000Y-67780000D02*
X67218000Y-67780000D01*
X68360000Y-67820000D02*
X67232000Y-67820000D01*
X68360000Y-67861000D02*
X67246000Y-67861000D01*
X68360000Y-67901000D02*
X67260000Y-67901000D01*
X68360000Y-67941000D02*
X67276000Y-67941000D01*
X68360000Y-67981000D02*
X67293000Y-67981000D01*
X68360000Y-68021000D02*
X67311000Y-68021000D01*
X68360000Y-68061000D02*
X67330000Y-68061000D01*
X68360000Y-68101000D02*
X67349000Y-68101000D01*
X68360000Y-68141000D02*
X67370000Y-68141000D01*
X68360000Y-68181000D02*
X67392000Y-68181000D01*
X68360000Y-68221000D02*
X67415000Y-68221000D01*
X68360000Y-68261000D02*
X67440000Y-68261000D01*
X68360000Y-68301000D02*
X67465000Y-68301000D01*
X68360000Y-68341000D02*
X67492000Y-68341000D01*
X68360000Y-68381000D02*
X67520000Y-68381000D01*
X68360000Y-68421000D02*
X67550000Y-68421000D01*
X68360000Y-68461000D02*
X67581000Y-68461000D01*
X68360000Y-68501000D02*
X67613000Y-68501000D01*
X68360000Y-68541000D02*
X67648000Y-68541000D01*
X68360000Y-68581000D02*
X67684000Y-68581000D01*
X68360000Y-68621000D02*
X67722000Y-68621000D01*
X68360000Y-68661000D02*
X67762000Y-68661000D01*
X68360000Y-68701000D02*
X67804000Y-68701000D01*
X68360000Y-68741000D02*
X67849000Y-68741000D01*
X68360000Y-68781000D02*
X67896000Y-68781000D01*
X68360000Y-68821000D02*
X67946000Y-68821000D01*
X68360000Y-68861000D02*
X68000000Y-68861000D01*
X68360000Y-68901000D02*
X68058000Y-68901000D01*
X68360000Y-68941000D02*
X68120000Y-68941000D01*
X69570000Y-69221000D02*
X68830000Y-69221000D01*
X69737000Y-69181000D02*
X68663000Y-69181000D01*
X69864000Y-69141000D02*
X68536000Y-69141000D01*
X69968000Y-69101000D02*
X68432000Y-69101000D01*
X70059000Y-69061000D02*
X68341000Y-69061000D01*
X70140000Y-69021000D02*
X68260000Y-69021000D01*
X70213000Y-68981000D02*
X68187000Y-68981000D01*
X70280000Y-68941000D02*
X70040000Y-68941000D01*
X70342000Y-68901000D02*
X70040000Y-68901000D01*
X70400000Y-68861000D02*
X70040000Y-68861000D01*
X70454000Y-68821000D02*
X70040000Y-68821000D01*
X70504000Y-68781000D02*
X70040000Y-68781000D01*
X70551000Y-68741000D02*
X70040000Y-68741000D01*
X70596000Y-68701000D02*
X70040000Y-68701000D01*
X70638000Y-68661000D02*
X70040000Y-68661000D01*
X70678000Y-68621000D02*
X70040000Y-68621000D01*
X70716000Y-68581000D02*
X70040000Y-68581000D01*
X70752000Y-68541000D02*
X70040000Y-68541000D01*
X70787000Y-68501000D02*
X70040000Y-68501000D01*
X70819000Y-68461000D02*
X70040000Y-68461000D01*
X70850000Y-68421000D02*
X70040000Y-68421000D01*
X70880000Y-68381000D02*
X70040000Y-68381000D01*
X70908000Y-68341000D02*
X70040000Y-68341000D01*
X70935000Y-68301000D02*
X70040000Y-68301000D01*
X70960000Y-68261000D02*
X70040000Y-68261000D01*
X70985000Y-68221000D02*
X70040000Y-68221000D01*
X71008000Y-68181000D02*
X70040000Y-68181000D01*
X71030000Y-68141000D02*
X70040000Y-68141000D01*
X71051000Y-68101000D02*
X70040000Y-68101000D01*
X71070000Y-68061000D02*
X70040000Y-68061000D01*
X71089000Y-68021000D02*
X70040000Y-68021000D01*
X71107000Y-67981000D02*
X70040000Y-67981000D01*
X71124000Y-67941000D02*
X70040000Y-67941000D01*
X71140000Y-67901000D02*
X70040000Y-67901000D01*
X71154000Y-67861000D02*
X70040000Y-67861000D01*
X71168000Y-67820000D02*
X70040000Y-67820000D01*
X71182000Y-67780000D02*
X70040000Y-67780000D01*
X71194000Y-67740000D02*
X70040000Y-67740000D01*
X71205000Y-67700000D02*
X70040000Y-67700000D01*
X71216000Y-67660000D02*
X70040000Y-67660000D01*
X71225000Y-67620000D02*
X70040000Y-67620000D01*
X71234000Y-67580000D02*
X70040000Y-67580000D01*
X71242000Y-67540000D02*
X70040000Y-67540000D01*
X71250000Y-67500000D02*
X70040000Y-67500000D01*
X71256000Y-67460000D02*
X70040000Y-67460000D01*
X71262000Y-67420000D02*
X70040000Y-67420000D01*
X71267000Y-67380000D02*
X70040000Y-67380000D01*
X71271000Y-67340000D02*
X70040000Y-67340000D01*
X71274000Y-67300000D02*
X67126000Y-67300000D01*
X71277000Y-67260000D02*
X67123000Y-67260000D01*
X71279000Y-67220000D02*
X67121000Y-67220000D01*
X71280000Y-67140000D02*
X67120000Y-67140000D01*
X71280000Y-67180000D02*
X67120000Y-67180000D01*
X71320000Y-67140000D02*
G75*
G02*
X67080000Y-67140000I-2120000J0D01*
G01*
X67080000Y-67140000D02*
G75*
G02*
X71320000Y-67140000I2120000J0D01*
G01*
X68005000Y-59270199D02*
X68005000Y-58870199D01*
X68205000Y-59070199D02*
X67805000Y-59070199D01*
X68360000Y-61340000D02*
X67129000Y-61340000D01*
X68360000Y-61380000D02*
X67133000Y-61380000D01*
X68360000Y-61420000D02*
X67138000Y-61420000D01*
X68360000Y-61460000D02*
X67144000Y-61460000D01*
X68360000Y-61500000D02*
X67150000Y-61500000D01*
X68360000Y-61540000D02*
X67158000Y-61540000D01*
X68360000Y-61580000D02*
X67166000Y-61580000D01*
X68360000Y-61620000D02*
X67175000Y-61620000D01*
X68360000Y-61660000D02*
X67184000Y-61660000D01*
X68360000Y-61700000D02*
X67195000Y-61700000D01*
X68360000Y-61740000D02*
X67206000Y-61740000D01*
X68360000Y-61780000D02*
X67218000Y-61780000D01*
X68360000Y-61820000D02*
X67232000Y-61820000D01*
X68360000Y-61861000D02*
X67246000Y-61861000D01*
X68360000Y-61901000D02*
X67260000Y-61901000D01*
X68360000Y-61941000D02*
X67276000Y-61941000D01*
X68360000Y-61981000D02*
X67293000Y-61981000D01*
X68360000Y-62021000D02*
X67311000Y-62021000D01*
X68360000Y-62061000D02*
X67330000Y-62061000D01*
X68360000Y-62101000D02*
X67349000Y-62101000D01*
X68360000Y-62141000D02*
X67370000Y-62141000D01*
X68360000Y-62181000D02*
X67392000Y-62181000D01*
X68360000Y-62221000D02*
X67415000Y-62221000D01*
X68360000Y-62261000D02*
X67440000Y-62261000D01*
X68360000Y-62301000D02*
X67465000Y-62301000D01*
X68360000Y-62341000D02*
X67492000Y-62341000D01*
X68360000Y-62381000D02*
X67520000Y-62381000D01*
X68360000Y-62421000D02*
X67550000Y-62421000D01*
X68360000Y-62461000D02*
X67581000Y-62461000D01*
X68360000Y-62501000D02*
X67613000Y-62501000D01*
X68360000Y-62541000D02*
X67648000Y-62541000D01*
X68360000Y-62581000D02*
X67684000Y-62581000D01*
X68360000Y-62621000D02*
X67722000Y-62621000D01*
X68360000Y-62661000D02*
X67762000Y-62661000D01*
X68360000Y-62701000D02*
X67804000Y-62701000D01*
X68360000Y-62741000D02*
X67849000Y-62741000D01*
X68360000Y-62781000D02*
X67896000Y-62781000D01*
X68360000Y-62821000D02*
X67946000Y-62821000D01*
X68360000Y-62861000D02*
X68000000Y-62861000D01*
X68360000Y-62901000D02*
X68058000Y-62901000D01*
X68360000Y-62941000D02*
X68120000Y-62941000D01*
X69570000Y-63221000D02*
X68830000Y-63221000D01*
X69737000Y-63181000D02*
X68663000Y-63181000D01*
X69864000Y-63141000D02*
X68536000Y-63141000D01*
X69968000Y-63101000D02*
X68432000Y-63101000D01*
X70059000Y-63061000D02*
X68341000Y-63061000D01*
X70140000Y-63021000D02*
X68260000Y-63021000D01*
X70213000Y-62981000D02*
X68187000Y-62981000D01*
X70280000Y-62941000D02*
X70040000Y-62941000D01*
X70342000Y-62901000D02*
X70040000Y-62901000D01*
X70400000Y-62861000D02*
X70040000Y-62861000D01*
X70454000Y-62821000D02*
X70040000Y-62821000D01*
X70504000Y-62781000D02*
X70040000Y-62781000D01*
X70551000Y-62741000D02*
X70040000Y-62741000D01*
X70596000Y-62701000D02*
X70040000Y-62701000D01*
X70638000Y-62661000D02*
X70040000Y-62661000D01*
X70678000Y-62621000D02*
X70040000Y-62621000D01*
X70716000Y-62581000D02*
X70040000Y-62581000D01*
X70752000Y-62541000D02*
X70040000Y-62541000D01*
X70787000Y-62501000D02*
X70040000Y-62501000D01*
X70819000Y-62461000D02*
X70040000Y-62461000D01*
X70850000Y-62421000D02*
X70040000Y-62421000D01*
X70880000Y-62381000D02*
X70040000Y-62381000D01*
X70908000Y-62341000D02*
X70040000Y-62341000D01*
X70935000Y-62301000D02*
X70040000Y-62301000D01*
X70960000Y-62261000D02*
X70040000Y-62261000D01*
X70985000Y-62221000D02*
X70040000Y-62221000D01*
X71008000Y-62181000D02*
X70040000Y-62181000D01*
X71030000Y-62141000D02*
X70040000Y-62141000D01*
X71051000Y-62101000D02*
X70040000Y-62101000D01*
X71070000Y-62061000D02*
X70040000Y-62061000D01*
X71089000Y-62021000D02*
X70040000Y-62021000D01*
X71107000Y-61981000D02*
X70040000Y-61981000D01*
X71124000Y-61941000D02*
X70040000Y-61941000D01*
X71140000Y-61901000D02*
X70040000Y-61901000D01*
X71154000Y-61861000D02*
X70040000Y-61861000D01*
X71168000Y-61820000D02*
X70040000Y-61820000D01*
X71182000Y-61780000D02*
X70040000Y-61780000D01*
X71194000Y-61740000D02*
X70040000Y-61740000D01*
X71205000Y-61700000D02*
X70040000Y-61700000D01*
X71216000Y-61660000D02*
X70040000Y-61660000D01*
X71225000Y-61620000D02*
X70040000Y-61620000D01*
X71234000Y-61580000D02*
X70040000Y-61580000D01*
X71242000Y-61540000D02*
X70040000Y-61540000D01*
X71250000Y-61500000D02*
X70040000Y-61500000D01*
X71256000Y-61460000D02*
X70040000Y-61460000D01*
X71262000Y-61420000D02*
X70040000Y-61420000D01*
X71267000Y-61380000D02*
X70040000Y-61380000D01*
X71271000Y-61340000D02*
X70040000Y-61340000D01*
X71274000Y-61300000D02*
X67126000Y-61300000D01*
X71277000Y-61260000D02*
X67123000Y-61260000D01*
X71279000Y-61220000D02*
X67121000Y-61220000D01*
X71280000Y-61140000D02*
X67120000Y-61140000D01*
X71280000Y-61180000D02*
X67120000Y-61180000D01*
X71320000Y-61140000D02*
G75*
G02*
X67080000Y-61140000I-2120000J0D01*
G01*
X67080000Y-61140000D02*
G75*
G02*
X71320000Y-61140000I2120000J0D01*
G01*
%LPC*%
D15*
X97000000Y-88400000D03*
D16*
X98270000Y-86330000D03*
X99540000Y-88400000D03*
D15*
X91000000Y-88400000D03*
D16*
X92270000Y-86330000D03*
X93540000Y-88400000D03*
D15*
X85000000Y-88400000D03*
D16*
X86270000Y-86330000D03*
X87540000Y-88400000D03*
D15*
X78730000Y-88400000D03*
D16*
X80000000Y-86330000D03*
X81270000Y-88400000D03*
D15*
X82730000Y-118670000D03*
D16*
X84000000Y-116600000D03*
X85270000Y-118670000D03*
D15*
X76000000Y-118670000D03*
D16*
X77270000Y-116600000D03*
X78540000Y-118670000D03*
D15*
X69730000Y-118670000D03*
D16*
X71000000Y-116600000D03*
X72270000Y-118670000D03*
D15*
X63730000Y-118670000D03*
D16*
X65000000Y-116600000D03*
X66270000Y-118670000D03*
D15*
X105860000Y-148200000D03*
D16*
X107130000Y-146130000D03*
X108400000Y-148200000D03*
D17*
X52500000Y-150000000D03*
D18*
X52500000Y-152540000D03*
X52500000Y-155080000D03*
X52500000Y-157620000D03*
D17*
X123500000Y-150000000D03*
D18*
X123500000Y-152540000D03*
X123500000Y-155080000D03*
X123500000Y-157620000D03*
D17*
X96000000Y-58000000D03*
D18*
X93460000Y-58000000D03*
X90920000Y-58000000D03*
X88380000Y-58000000D03*
D19*
X162210000Y-86000000D03*
D20*
X164750000Y-86000000D03*
D21*
X77250000Y-114030000D03*
D22*
X77250000Y-103870000D03*
D19*
X132210000Y-86000000D03*
D20*
X134750000Y-86000000D03*
D23*
X154000000Y-142000000D03*
D24*
X154000000Y-130600000D03*
X154000000Y-138900000D03*
D21*
X103030000Y-152500000D03*
D22*
X92870000Y-152500000D03*
D25*
X173800000Y-112500000D03*
X178500000Y-112500000D03*
X183200000Y-112500000D03*
D26*
X173750000Y-65025000D03*
X183250000Y-65025000D03*
D19*
X176000000Y-72525000D03*
D20*
X178500000Y-72525000D03*
X181000000Y-72525000D03*
D27*
X80610000Y-53940000D03*
D28*
X70450000Y-53940000D03*
D21*
X103030000Y-158900000D03*
D22*
X92870000Y-158900000D03*
D29*
X152500000Y-125000000D03*
D22*
X152500000Y-117380000D03*
D30*
X76800000Y-69340000D03*
D26*
X173750000Y-99925000D03*
X183250000Y-99925000D03*
D19*
X176000000Y-107425000D03*
D20*
X178500000Y-107425000D03*
X181000000Y-107425000D03*
D25*
X128800000Y-77500000D03*
X133500000Y-77500000D03*
X138200000Y-77500000D03*
D26*
X158750000Y-65025000D03*
X168250000Y-65025000D03*
D19*
X161000000Y-72525000D03*
D20*
X163500000Y-72525000D03*
X166000000Y-72525000D03*
D29*
X60000000Y-143310000D03*
D22*
X60000000Y-135690000D03*
D23*
X135000000Y-142000000D03*
D24*
X135000000Y-130600000D03*
X135000000Y-138900000D03*
D30*
X76800000Y-64940000D03*
D19*
X162210000Y-121000000D03*
D20*
X164750000Y-121000000D03*
D21*
X92770000Y-127000000D03*
D22*
X102930000Y-127000000D03*
D30*
X107000000Y-135800000D03*
D25*
X151500000Y-156700000D03*
X151500000Y-152000000D03*
X151500000Y-147300000D03*
D21*
X71000000Y-114030000D03*
D22*
X71000000Y-103870000D03*
D23*
X176000000Y-142000000D03*
D24*
X176000000Y-130600000D03*
X176000000Y-138900000D03*
D29*
X129500000Y-125000000D03*
D22*
X129500000Y-117380000D03*
D26*
X130250000Y-152000000D03*
X139750000Y-152000000D03*
D19*
X132500000Y-159500000D03*
D20*
X135000000Y-159500000D03*
X137500000Y-159500000D03*
D19*
X177210000Y-121000000D03*
D20*
X179750000Y-121000000D03*
D29*
X174500000Y-90000000D03*
D22*
X174500000Y-82380000D03*
D17*
X73000000Y-139000000D03*
D18*
X73000000Y-136460000D03*
X73000000Y-133920000D03*
X73000000Y-131380000D03*
D25*
X158800000Y-112500000D03*
X163500000Y-112500000D03*
X168200000Y-112500000D03*
D29*
X137500000Y-90000000D03*
D22*
X137500000Y-82380000D03*
D21*
X103030000Y-155700000D03*
D22*
X92870000Y-155700000D03*
D19*
X147210000Y-121000000D03*
D20*
X149750000Y-121000000D03*
D29*
X182500000Y-125000000D03*
D22*
X182500000Y-117380000D03*
D31*
X115000000Y-157500000D03*
D21*
X98250000Y-83830000D03*
D22*
X98250000Y-73670000D03*
D19*
X132210000Y-121000000D03*
D20*
X134750000Y-121000000D03*
D29*
X159540000Y-90000000D03*
D22*
X159540000Y-82380000D03*
D25*
X143800000Y-112500000D03*
X148500000Y-112500000D03*
X153200000Y-112500000D03*
D21*
X185500000Y-135230000D03*
D22*
X185500000Y-125070000D03*
D31*
X126000000Y-140000000D03*
D27*
X61850000Y-74740000D03*
D28*
X72010000Y-74740000D03*
D31*
X187000000Y-54000000D03*
D29*
X90310000Y-139750000D03*
D22*
X82690000Y-139750000D03*
D26*
X158750000Y-99925000D03*
X168250000Y-99925000D03*
D19*
X161000000Y-107425000D03*
D20*
X163500000Y-107425000D03*
X166000000Y-107425000D03*
D29*
X137500000Y-125000000D03*
D22*
X137500000Y-117380000D03*
D30*
X107000000Y-140500000D03*
D17*
X95000000Y-93000000D03*
D18*
X92460000Y-93000000D03*
X89920000Y-93000000D03*
X87380000Y-93000000D03*
D29*
X174500000Y-125000000D03*
D22*
X174500000Y-117380000D03*
D21*
X189000000Y-125210000D03*
D22*
X189000000Y-115050000D03*
D30*
X53000000Y-119000000D03*
D29*
X159500000Y-125000000D03*
D22*
X159500000Y-117380000D03*
D21*
X103030000Y-130200000D03*
D22*
X92870000Y-130200000D03*
D19*
X147210000Y-86000000D03*
D20*
X149750000Y-86000000D03*
D31*
X55000000Y-142500000D03*
D29*
X152500000Y-90000000D03*
D22*
X152500000Y-82380000D03*
D21*
X80000000Y-83830000D03*
D22*
X80000000Y-73670000D03*
D29*
X144500000Y-125000000D03*
D22*
X144500000Y-117380000D03*
D31*
X116000000Y-54000000D03*
D30*
X76800000Y-60540000D03*
D29*
X167525000Y-125000000D03*
D22*
X167525000Y-117380000D03*
D21*
X166500000Y-146890000D03*
D22*
X166500000Y-157050000D03*
D17*
X70000000Y-93000000D03*
D18*
X72540000Y-93000000D03*
X75080000Y-93000000D03*
X77620000Y-93000000D03*
D21*
X92770000Y-139700000D03*
D22*
X102930000Y-139700000D03*
D30*
X107000000Y-131200000D03*
D25*
X143800000Y-77500000D03*
X148500000Y-77500000D03*
X153200000Y-77500000D03*
D29*
X107280000Y-121000000D03*
D22*
X114900000Y-121000000D03*
D21*
X84000000Y-114030000D03*
D22*
X84000000Y-103870000D03*
D21*
X92770000Y-149300000D03*
D22*
X102930000Y-149300000D03*
D21*
X71790000Y-71540000D03*
D22*
X61630000Y-71540000D03*
D30*
X109700000Y-158900000D03*
D31*
X136000000Y-54000000D03*
D21*
X63050000Y-146030000D03*
D22*
X63050000Y-135870000D03*
D29*
X129500000Y-90000000D03*
D22*
X129500000Y-82380000D03*
D29*
X167540000Y-90000000D03*
D22*
X167540000Y-82380000D03*
D30*
X103300000Y-96800000D03*
D29*
X182500000Y-90000000D03*
D22*
X182500000Y-82380000D03*
D21*
X80290000Y-57200000D03*
D22*
X70130000Y-57200000D03*
D31*
X65200000Y-54140000D03*
X186000000Y-157500000D03*
D21*
X92770000Y-142900000D03*
D22*
X102930000Y-142900000D03*
D26*
X143750000Y-65000000D03*
X153250000Y-65000000D03*
D19*
X146000000Y-72500000D03*
D20*
X148500000Y-72500000D03*
X151000000Y-72500000D03*
D32*
X90220000Y-112620000D03*
D33*
X92760000Y-112620000D03*
X95300000Y-112620000D03*
X97840000Y-112620000D03*
X100380000Y-112620000D03*
X102920000Y-112620000D03*
X105460000Y-112620000D03*
X108000000Y-112620000D03*
X108000000Y-105000000D03*
X105460000Y-105000000D03*
X102920000Y-105000000D03*
X100380000Y-105000000D03*
X97840000Y-105000000D03*
X95300000Y-105000000D03*
X92760000Y-105000000D03*
X90220000Y-105000000D03*
D21*
X103030000Y-133300000D03*
D22*
X92870000Y-133300000D03*
D26*
X143750000Y-99925000D03*
X153250000Y-99925000D03*
D19*
X146000000Y-107425000D03*
D20*
X148500000Y-107425000D03*
X151000000Y-107425000D03*
D17*
X118000000Y-147500000D03*
D18*
X118000000Y-144960000D03*
X118000000Y-142420000D03*
X118000000Y-139880000D03*
X118000000Y-137340000D03*
X118000000Y-134800000D03*
X118000000Y-132260000D03*
X118000000Y-129720000D03*
D25*
X160500000Y-156700000D03*
X160500000Y-152000000D03*
X160500000Y-147300000D03*
D19*
X177210000Y-86000000D03*
D20*
X179750000Y-86000000D03*
D25*
X173800000Y-77500000D03*
X178500000Y-77500000D03*
X183200000Y-77500000D03*
D21*
X92770000Y-136500000D03*
D22*
X102930000Y-136500000D03*
D30*
X89800000Y-142900000D03*
D26*
X128750000Y-99925000D03*
X138250000Y-99925000D03*
D19*
X131000000Y-107425000D03*
D20*
X133500000Y-107425000D03*
X136000000Y-107425000D03*
D21*
X170000000Y-146890000D03*
D22*
X170000000Y-157050000D03*
D21*
X86200000Y-83830000D03*
D22*
X86200000Y-73670000D03*
D21*
X65000000Y-114030000D03*
D22*
X65000000Y-103870000D03*
D25*
X158800000Y-77500000D03*
X163500000Y-77500000D03*
X168200000Y-77500000D03*
D17*
X118000000Y-64800000D03*
D18*
X118000000Y-67340000D03*
X118000000Y-69880000D03*
X118000000Y-72420000D03*
X118000000Y-74960000D03*
X118000000Y-77500000D03*
X118000000Y-80040000D03*
X118000000Y-82580000D03*
D29*
X144500000Y-90000000D03*
D22*
X144500000Y-82380000D03*
D21*
X172890000Y-58100000D03*
D22*
X183050000Y-58100000D03*
D21*
X92250000Y-83830000D03*
D22*
X92250000Y-73670000D03*
D26*
X128750000Y-65025000D03*
X138250000Y-65025000D03*
D19*
X131000000Y-72525000D03*
D20*
X133500000Y-72525000D03*
X136000000Y-72525000D03*
D25*
X128800000Y-112500000D03*
X133500000Y-112500000D03*
X138200000Y-112500000D03*
D17*
X53000000Y-132540000D03*
D18*
X53000000Y-130000000D03*
X53000000Y-127460000D03*
X53000000Y-124920000D03*
D21*
X92770000Y-146100000D03*
D22*
X102930000Y-146100000D03*
D23*
X165000000Y-142000000D03*
D24*
X165000000Y-130600000D03*
X165000000Y-138900000D03*
D30*
X108000000Y-96900000D03*
D34*
X76200000Y-143375000D03*
D35*
X76200000Y-145915000D03*
X76200000Y-148455000D03*
X76200000Y-150995000D03*
X76200000Y-153535000D03*
X76200000Y-156075000D03*
X76200000Y-158615000D03*
X83820000Y-158615000D03*
X83820000Y-156075000D03*
X83820000Y-153535000D03*
X83820000Y-150995000D03*
X83820000Y-148455000D03*
X83820000Y-145915000D03*
X83820000Y-143375000D03*
D21*
X68000000Y-140955000D03*
X68000000Y-145955000D03*
D17*
X166000000Y-93000000D03*
D18*
X163460000Y-93000000D03*
X160920000Y-93000000D03*
X158380000Y-93000000D03*
D17*
X124000000Y-132620000D03*
D18*
X124000000Y-130080000D03*
X124000000Y-127540000D03*
X124000000Y-125000000D03*
D17*
X144000000Y-139000000D03*
D18*
X144000000Y-136460000D03*
X144000000Y-133920000D03*
X144000000Y-131380000D03*
D36*
X90220000Y-101620000D03*
D37*
X90220000Y-99620000D03*
D36*
X88972600Y-151000000D03*
D37*
X86972600Y-151000000D03*
D17*
X167000000Y-58000000D03*
D18*
X164460000Y-58000000D03*
X161920000Y-58000000D03*
X159380000Y-58000000D03*
D17*
X141000000Y-93000000D03*
D18*
X143540000Y-93000000D03*
X146080000Y-93000000D03*
X148620000Y-93000000D03*
D38*
X67000000Y-151160000D03*
X67000000Y-153700000D03*
X67000000Y-156240000D03*
D17*
X189000000Y-64920000D03*
D18*
X189000000Y-67460000D03*
X189000000Y-70000000D03*
X189000000Y-72540000D03*
X189000000Y-75080000D03*
X189000000Y-77620000D03*
X189000000Y-80160000D03*
X189000000Y-82700000D03*
D17*
X105200000Y-68480000D03*
D18*
X105200000Y-65940000D03*
X105200000Y-63400000D03*
D17*
X189000000Y-147540000D03*
D18*
X189000000Y-145000000D03*
X189000000Y-142460000D03*
X189000000Y-139920000D03*
X189000000Y-137380000D03*
X189000000Y-134840000D03*
X189000000Y-132300000D03*
X189000000Y-129760000D03*
D39*
X53800000Y-73680000D03*
D40*
X56340000Y-73680000D03*
X53800000Y-71140000D03*
X56340000Y-71140000D03*
X53800000Y-68600000D03*
X56340000Y-68600000D03*
X53800000Y-66060000D03*
X56340000Y-66060000D03*
X53800000Y-63520000D03*
X56340000Y-63520000D03*
X53800000Y-60980000D03*
X56340000Y-60980000D03*
X53800000Y-58440000D03*
X56340000Y-58440000D03*
X53800000Y-55900000D03*
X56340000Y-55900000D03*
D38*
X61000000Y-151160000D03*
X61000000Y-153700000D03*
X61000000Y-156240000D03*
D36*
X73250000Y-151000000D03*
D37*
X71250000Y-151000000D03*
D17*
X101400000Y-68460000D03*
D18*
X101400000Y-65920000D03*
X101400000Y-63380000D03*
D29*
X63200000Y-60140000D03*
D21*
X63200000Y-62140000D03*
D29*
X63200000Y-66140000D03*
D21*
X63200000Y-68140000D03*
D36*
X69200000Y-66140000D03*
D37*
X69200000Y-68140000D03*
D36*
X69200000Y-60140000D03*
D37*
X69200000Y-62140000D03*
%LPD*%
M02*
