G04 #@! TF.GenerationSoftware,KiCad,Pcbnew,8.0.2-1*
G04 #@! TF.CreationDate,2024-06-17T10:06:52+02:00*
G04 #@! TF.ProjectId,passive-mult,70617373-6976-4652-9d6d-756c742e6b69,rev?*
G04 #@! TF.SameCoordinates,Original*
G04 #@! TF.FileFunction,Legend,Top*
G04 #@! TF.FilePolarity,Positive*
%FSLAX46Y46*%
G04 Gerber Fmt 4.6, Leading zero omitted, Abs format (unit mm)*
G04 Created by KiCad (PCBNEW 8.0.2-1) date 2024-06-17 10:06:52*
%MOMM*%
%LPD*%
G01*
G04 APERTURE LIST*
%ADD10C,0.150000*%
%ADD11C,0.120000*%
%ADD12C,2.130000*%
%ADD13R,1.930000X1.830000*%
G04 APERTURE END LIST*
D10*
X58154819Y-96133333D02*
X58869104Y-96133333D01*
X58869104Y-96133333D02*
X59011961Y-96180952D01*
X59011961Y-96180952D02*
X59107200Y-96276190D01*
X59107200Y-96276190D02*
X59154819Y-96419047D01*
X59154819Y-96419047D02*
X59154819Y-96514285D01*
X58154819Y-95180952D02*
X58154819Y-95657142D01*
X58154819Y-95657142D02*
X58631009Y-95704761D01*
X58631009Y-95704761D02*
X58583390Y-95657142D01*
X58583390Y-95657142D02*
X58535771Y-95561904D01*
X58535771Y-95561904D02*
X58535771Y-95323809D01*
X58535771Y-95323809D02*
X58583390Y-95228571D01*
X58583390Y-95228571D02*
X58631009Y-95180952D01*
X58631009Y-95180952D02*
X58726247Y-95133333D01*
X58726247Y-95133333D02*
X58964342Y-95133333D01*
X58964342Y-95133333D02*
X59059580Y-95180952D01*
X59059580Y-95180952D02*
X59107200Y-95228571D01*
X59107200Y-95228571D02*
X59154819Y-95323809D01*
X59154819Y-95323809D02*
X59154819Y-95561904D01*
X59154819Y-95561904D02*
X59107200Y-95657142D01*
X59107200Y-95657142D02*
X59059580Y-95704761D01*
X50754819Y-115033333D02*
X51469104Y-115033333D01*
X51469104Y-115033333D02*
X51611961Y-115080952D01*
X51611961Y-115080952D02*
X51707200Y-115176190D01*
X51707200Y-115176190D02*
X51754819Y-115319047D01*
X51754819Y-115319047D02*
X51754819Y-115414285D01*
X50850057Y-114604761D02*
X50802438Y-114557142D01*
X50802438Y-114557142D02*
X50754819Y-114461904D01*
X50754819Y-114461904D02*
X50754819Y-114223809D01*
X50754819Y-114223809D02*
X50802438Y-114128571D01*
X50802438Y-114128571D02*
X50850057Y-114080952D01*
X50850057Y-114080952D02*
X50945295Y-114033333D01*
X50945295Y-114033333D02*
X51040533Y-114033333D01*
X51040533Y-114033333D02*
X51183390Y-114080952D01*
X51183390Y-114080952D02*
X51754819Y-114652380D01*
X51754819Y-114652380D02*
X51754819Y-114033333D01*
X58154819Y-69133333D02*
X58869104Y-69133333D01*
X58869104Y-69133333D02*
X59011961Y-69180952D01*
X59011961Y-69180952D02*
X59107200Y-69276190D01*
X59107200Y-69276190D02*
X59154819Y-69419047D01*
X59154819Y-69419047D02*
X59154819Y-69514285D01*
X58154819Y-68752380D02*
X58154819Y-68133333D01*
X58154819Y-68133333D02*
X58535771Y-68466666D01*
X58535771Y-68466666D02*
X58535771Y-68323809D01*
X58535771Y-68323809D02*
X58583390Y-68228571D01*
X58583390Y-68228571D02*
X58631009Y-68180952D01*
X58631009Y-68180952D02*
X58726247Y-68133333D01*
X58726247Y-68133333D02*
X58964342Y-68133333D01*
X58964342Y-68133333D02*
X59059580Y-68180952D01*
X59059580Y-68180952D02*
X59107200Y-68228571D01*
X59107200Y-68228571D02*
X59154819Y-68323809D01*
X59154819Y-68323809D02*
X59154819Y-68609523D01*
X59154819Y-68609523D02*
X59107200Y-68704761D01*
X59107200Y-68704761D02*
X59059580Y-68752380D01*
X50754819Y-59033333D02*
X51469104Y-59033333D01*
X51469104Y-59033333D02*
X51611961Y-59080952D01*
X51611961Y-59080952D02*
X51707200Y-59176190D01*
X51707200Y-59176190D02*
X51754819Y-59319047D01*
X51754819Y-59319047D02*
X51754819Y-59414285D01*
X51754819Y-58033333D02*
X51754819Y-58604761D01*
X51754819Y-58319047D02*
X50754819Y-58319047D01*
X50754819Y-58319047D02*
X50897676Y-58414285D01*
X50897676Y-58414285D02*
X50992914Y-58509523D01*
X50992914Y-58509523D02*
X51040533Y-58604761D01*
X58154819Y-138633333D02*
X58869104Y-138633333D01*
X58869104Y-138633333D02*
X59011961Y-138680952D01*
X59011961Y-138680952D02*
X59107200Y-138776190D01*
X59107200Y-138776190D02*
X59154819Y-138919047D01*
X59154819Y-138919047D02*
X59154819Y-139014285D01*
X58154819Y-138252380D02*
X58154819Y-137585714D01*
X58154819Y-137585714D02*
X59154819Y-138014285D01*
X58154819Y-152133333D02*
X58869104Y-152133333D01*
X58869104Y-152133333D02*
X59011961Y-152180952D01*
X59011961Y-152180952D02*
X59107200Y-152276190D01*
X59107200Y-152276190D02*
X59154819Y-152419047D01*
X59154819Y-152419047D02*
X59154819Y-152514285D01*
X58583390Y-151514285D02*
X58535771Y-151609523D01*
X58535771Y-151609523D02*
X58488152Y-151657142D01*
X58488152Y-151657142D02*
X58392914Y-151704761D01*
X58392914Y-151704761D02*
X58345295Y-151704761D01*
X58345295Y-151704761D02*
X58250057Y-151657142D01*
X58250057Y-151657142D02*
X58202438Y-151609523D01*
X58202438Y-151609523D02*
X58154819Y-151514285D01*
X58154819Y-151514285D02*
X58154819Y-151323809D01*
X58154819Y-151323809D02*
X58202438Y-151228571D01*
X58202438Y-151228571D02*
X58250057Y-151180952D01*
X58250057Y-151180952D02*
X58345295Y-151133333D01*
X58345295Y-151133333D02*
X58392914Y-151133333D01*
X58392914Y-151133333D02*
X58488152Y-151180952D01*
X58488152Y-151180952D02*
X58535771Y-151228571D01*
X58535771Y-151228571D02*
X58583390Y-151323809D01*
X58583390Y-151323809D02*
X58583390Y-151514285D01*
X58583390Y-151514285D02*
X58631009Y-151609523D01*
X58631009Y-151609523D02*
X58678628Y-151657142D01*
X58678628Y-151657142D02*
X58773866Y-151704761D01*
X58773866Y-151704761D02*
X58964342Y-151704761D01*
X58964342Y-151704761D02*
X59059580Y-151657142D01*
X59059580Y-151657142D02*
X59107200Y-151609523D01*
X59107200Y-151609523D02*
X59154819Y-151514285D01*
X59154819Y-151514285D02*
X59154819Y-151323809D01*
X59154819Y-151323809D02*
X59107200Y-151228571D01*
X59107200Y-151228571D02*
X59059580Y-151180952D01*
X59059580Y-151180952D02*
X58964342Y-151133333D01*
X58964342Y-151133333D02*
X58773866Y-151133333D01*
X58773866Y-151133333D02*
X58678628Y-151180952D01*
X58678628Y-151180952D02*
X58631009Y-151228571D01*
X58631009Y-151228571D02*
X58583390Y-151323809D01*
X58154819Y-82633333D02*
X58869104Y-82633333D01*
X58869104Y-82633333D02*
X59011961Y-82680952D01*
X59011961Y-82680952D02*
X59107200Y-82776190D01*
X59107200Y-82776190D02*
X59154819Y-82919047D01*
X59154819Y-82919047D02*
X59154819Y-83014285D01*
X58488152Y-81728571D02*
X59154819Y-81728571D01*
X58107200Y-81966666D02*
X58821485Y-82204761D01*
X58821485Y-82204761D02*
X58821485Y-81585714D01*
X58154819Y-125133333D02*
X58869104Y-125133333D01*
X58869104Y-125133333D02*
X59011961Y-125180952D01*
X59011961Y-125180952D02*
X59107200Y-125276190D01*
X59107200Y-125276190D02*
X59154819Y-125419047D01*
X59154819Y-125419047D02*
X59154819Y-125514285D01*
X58154819Y-124228571D02*
X58154819Y-124419047D01*
X58154819Y-124419047D02*
X58202438Y-124514285D01*
X58202438Y-124514285D02*
X58250057Y-124561904D01*
X58250057Y-124561904D02*
X58392914Y-124657142D01*
X58392914Y-124657142D02*
X58583390Y-124704761D01*
X58583390Y-124704761D02*
X58964342Y-124704761D01*
X58964342Y-124704761D02*
X59059580Y-124657142D01*
X59059580Y-124657142D02*
X59107200Y-124609523D01*
X59107200Y-124609523D02*
X59154819Y-124514285D01*
X59154819Y-124514285D02*
X59154819Y-124323809D01*
X59154819Y-124323809D02*
X59107200Y-124228571D01*
X59107200Y-124228571D02*
X59059580Y-124180952D01*
X59059580Y-124180952D02*
X58964342Y-124133333D01*
X58964342Y-124133333D02*
X58726247Y-124133333D01*
X58726247Y-124133333D02*
X58631009Y-124180952D01*
X58631009Y-124180952D02*
X58583390Y-124228571D01*
X58583390Y-124228571D02*
X58535771Y-124323809D01*
X58535771Y-124323809D02*
X58535771Y-124514285D01*
X58535771Y-124514285D02*
X58583390Y-124609523D01*
X58583390Y-124609523D02*
X58631009Y-124657142D01*
X58631009Y-124657142D02*
X58726247Y-124704761D01*
D11*
X56800000Y-98000000D02*
G75*
G02*
X53200000Y-98000000I-1800000J0D01*
G01*
X53200000Y-98000000D02*
G75*
G02*
X56800000Y-98000000I1800000J0D01*
G01*
X59500000Y-104000000D02*
X55800000Y-104000000D01*
X59500000Y-93500000D02*
X59500000Y-104000000D01*
X59500000Y-93500000D02*
X55720000Y-93500000D01*
X54280000Y-93500000D02*
X50500000Y-93500000D01*
X54200000Y-104000000D02*
X50500000Y-104000000D01*
X53900000Y-91200000D02*
X54760000Y-91200000D01*
X53900000Y-91200000D02*
X53900000Y-92000000D01*
X50500000Y-93500000D02*
X50500000Y-104000000D01*
X56800000Y-112500000D02*
G75*
G02*
X53200000Y-112500000I-1800000J0D01*
G01*
X53200000Y-112500000D02*
G75*
G02*
X56800000Y-112500000I1800000J0D01*
G01*
X59500000Y-117000000D02*
X59500000Y-106500000D01*
X56100000Y-119300000D02*
X56100000Y-118500000D01*
X56100000Y-119300000D02*
X55240000Y-119300000D01*
X55800000Y-106500000D02*
X59500000Y-106500000D01*
X55720000Y-117000000D02*
X59500000Y-117000000D01*
X50500000Y-117000000D02*
X54280000Y-117000000D01*
X50500000Y-117000000D02*
X50500000Y-106500000D01*
X50500000Y-106500000D02*
X54200000Y-106500000D01*
X56800000Y-71000000D02*
G75*
G02*
X53200000Y-71000000I-1800000J0D01*
G01*
X53200000Y-71000000D02*
G75*
G02*
X56800000Y-71000000I1800000J0D01*
G01*
X59500000Y-77000000D02*
X55800000Y-77000000D01*
X59500000Y-66500000D02*
X59500000Y-77000000D01*
X59500000Y-66500000D02*
X55720000Y-66500000D01*
X54280000Y-66500000D02*
X50500000Y-66500000D01*
X54200000Y-77000000D02*
X50500000Y-77000000D01*
X53900000Y-64200000D02*
X54760000Y-64200000D01*
X53900000Y-64200000D02*
X53900000Y-65000000D01*
X50500000Y-66500000D02*
X50500000Y-77000000D01*
X56800000Y-56500000D02*
G75*
G02*
X53200000Y-56500000I-1800000J0D01*
G01*
X53200000Y-56500000D02*
G75*
G02*
X56800000Y-56500000I1800000J0D01*
G01*
X59500000Y-61000000D02*
X59500000Y-50500000D01*
X56100000Y-63300000D02*
X56100000Y-62500000D01*
X56100000Y-63300000D02*
X55240000Y-63300000D01*
X55800000Y-50500000D02*
X59500000Y-50500000D01*
X55720000Y-61000000D02*
X59500000Y-61000000D01*
X50500000Y-61000000D02*
X54280000Y-61000000D01*
X50500000Y-61000000D02*
X50500000Y-50500000D01*
X50500000Y-50500000D02*
X54200000Y-50500000D01*
X56800000Y-140500000D02*
G75*
G02*
X53200000Y-140500000I-1800000J0D01*
G01*
X53200000Y-140500000D02*
G75*
G02*
X56800000Y-140500000I1800000J0D01*
G01*
X59500000Y-146500000D02*
X55800000Y-146500000D01*
X59500000Y-136000000D02*
X59500000Y-146500000D01*
X59500000Y-136000000D02*
X55720000Y-136000000D01*
X54280000Y-136000000D02*
X50500000Y-136000000D01*
X54200000Y-146500000D02*
X50500000Y-146500000D01*
X53900000Y-133700000D02*
X54760000Y-133700000D01*
X53900000Y-133700000D02*
X53900000Y-134500000D01*
X50500000Y-136000000D02*
X50500000Y-146500000D01*
X56800000Y-154000000D02*
G75*
G02*
X53200000Y-154000000I-1800000J0D01*
G01*
X53200000Y-154000000D02*
G75*
G02*
X56800000Y-154000000I1800000J0D01*
G01*
X59500000Y-160000000D02*
X55800000Y-160000000D01*
X59500000Y-149500000D02*
X59500000Y-160000000D01*
X59500000Y-149500000D02*
X55720000Y-149500000D01*
X54280000Y-149500000D02*
X50500000Y-149500000D01*
X54200000Y-160000000D02*
X50500000Y-160000000D01*
X53900000Y-147200000D02*
X54760000Y-147200000D01*
X53900000Y-147200000D02*
X53900000Y-148000000D01*
X50500000Y-149500000D02*
X50500000Y-160000000D01*
X56800000Y-84500000D02*
G75*
G02*
X53200000Y-84500000I-1800000J0D01*
G01*
X53200000Y-84500000D02*
G75*
G02*
X56800000Y-84500000I1800000J0D01*
G01*
X59500000Y-90500000D02*
X55800000Y-90500000D01*
X59500000Y-80000000D02*
X59500000Y-90500000D01*
X59500000Y-80000000D02*
X55720000Y-80000000D01*
X54280000Y-80000000D02*
X50500000Y-80000000D01*
X54200000Y-90500000D02*
X50500000Y-90500000D01*
X53900000Y-77700000D02*
X54760000Y-77700000D01*
X53900000Y-77700000D02*
X53900000Y-78500000D01*
X50500000Y-80000000D02*
X50500000Y-90500000D01*
X56800000Y-127000000D02*
G75*
G02*
X53200000Y-127000000I-1800000J0D01*
G01*
X53200000Y-127000000D02*
G75*
G02*
X56800000Y-127000000I1800000J0D01*
G01*
X59500000Y-133000000D02*
X55800000Y-133000000D01*
X59500000Y-122500000D02*
X59500000Y-133000000D01*
X59500000Y-122500000D02*
X55720000Y-122500000D01*
X54280000Y-122500000D02*
X50500000Y-122500000D01*
X54200000Y-133000000D02*
X50500000Y-133000000D01*
X53900000Y-120200000D02*
X54760000Y-120200000D01*
X53900000Y-120200000D02*
X53900000Y-121000000D01*
X50500000Y-122500000D02*
X50500000Y-133000000D01*
%LPC*%
D12*
X55000000Y-94620000D03*
X55000000Y-102920000D03*
D13*
X55000000Y-92250000D03*
D12*
X55000000Y-115880000D03*
X55000000Y-107580000D03*
D13*
X55000000Y-118250000D03*
D12*
X55000000Y-67620000D03*
X55000000Y-75920000D03*
D13*
X55000000Y-65250000D03*
D12*
X55000000Y-59880000D03*
X55000000Y-51580000D03*
D13*
X55000000Y-62250000D03*
D12*
X55000000Y-137120000D03*
X55000000Y-145420000D03*
D13*
X55000000Y-134750000D03*
D12*
X55000000Y-150620000D03*
X55000000Y-158920000D03*
D13*
X55000000Y-148250000D03*
D12*
X55000000Y-81120000D03*
X55000000Y-89420000D03*
D13*
X55000000Y-78750000D03*
D12*
X55000000Y-123620000D03*
X55000000Y-131920000D03*
D13*
X55000000Y-121250000D03*
%LPD*%
M02*
