%TF.GenerationSoftware,KiCad,Pcbnew,8.0.2-1*%
%TF.CreationDate,2024-05-21T21:33:07+02:00*%
%TF.ProjectId,passive-mult,70617373-6976-4652-9d6d-756c742e6b69,rev?*%
%TF.SameCoordinates,Original*%
%TF.FileFunction,Drillmap*%
%TF.FilePolarity,Positive*%
%FSLAX45Y45*%
G04 Gerber Fmt 4.5, Leading zero omitted, Abs format (unit mm)*
G04 Created by KiCad (PCBNEW 8.0.2-1) date 2024-05-21 21:33:07*
%MOMM*%
%LPD*%
G01*
G04 APERTURE LIST*
%ADD10C,0.100000*%
%ADD11C,0.200000*%
%ADD12C,0.122000*%
%ADD13C,0.142000*%
%ADD14C,0.143000*%
G04 APERTURE END LIST*
D10*
X5000000Y-5000000D02*
X6000000Y-5000000D01*
X6000000Y-16100000D01*
X5000000Y-16100000D01*
X5000000Y-5000000D01*
D11*
D12*
X5439000Y-6164000D02*
X5561000Y-6286000D01*
X5561000Y-6164000D02*
X5439000Y-6286000D01*
X5439000Y-6464000D02*
X5561000Y-6586000D01*
X5561000Y-6464000D02*
X5439000Y-6586000D01*
X5439000Y-7814000D02*
X5561000Y-7936000D01*
X5561000Y-7814000D02*
X5439000Y-7936000D01*
X5439000Y-9164000D02*
X5561000Y-9286000D01*
X5561000Y-9164000D02*
X5439000Y-9286000D01*
X5439000Y-11764000D02*
X5561000Y-11886000D01*
X5561000Y-11764000D02*
X5439000Y-11886000D01*
X5439000Y-12064000D02*
X5561000Y-12186000D01*
X5561000Y-12064000D02*
X5439000Y-12186000D01*
X5439000Y-13414000D02*
X5561000Y-13536000D01*
X5561000Y-13414000D02*
X5439000Y-13536000D01*
X5439000Y-14764000D02*
X5561000Y-14886000D01*
X5561000Y-14764000D02*
X5439000Y-14886000D01*
D13*
X5571000Y-5988000D02*
G75*
G02*
X5429000Y-5988000I-71000J0D01*
G01*
X5429000Y-5988000D02*
G75*
G02*
X5571000Y-5988000I71000J0D01*
G01*
X5571000Y-6762000D02*
G75*
G02*
X5429000Y-6762000I-71000J0D01*
G01*
X5429000Y-6762000D02*
G75*
G02*
X5571000Y-6762000I71000J0D01*
G01*
X5571000Y-8112000D02*
G75*
G02*
X5429000Y-8112000I-71000J0D01*
G01*
X5429000Y-8112000D02*
G75*
G02*
X5571000Y-8112000I71000J0D01*
G01*
X5571000Y-9462000D02*
G75*
G02*
X5429000Y-9462000I-71000J0D01*
G01*
X5429000Y-9462000D02*
G75*
G02*
X5571000Y-9462000I71000J0D01*
G01*
X5571000Y-11588000D02*
G75*
G02*
X5429000Y-11588000I-71000J0D01*
G01*
X5429000Y-11588000D02*
G75*
G02*
X5571000Y-11588000I71000J0D01*
G01*
X5571000Y-12362000D02*
G75*
G02*
X5429000Y-12362000I-71000J0D01*
G01*
X5429000Y-12362000D02*
G75*
G02*
X5571000Y-12362000I71000J0D01*
G01*
X5571000Y-13712000D02*
G75*
G02*
X5429000Y-13712000I-71000J0D01*
G01*
X5429000Y-13712000D02*
G75*
G02*
X5571000Y-13712000I71000J0D01*
G01*
X5571000Y-15062000D02*
G75*
G02*
X5429000Y-15062000I-71000J0D01*
G01*
X5429000Y-15062000D02*
G75*
G02*
X5571000Y-15062000I71000J0D01*
G01*
D14*
X5500000Y-5086500D02*
X5500000Y-5229500D01*
X5428500Y-5158000D02*
X5571500Y-5158000D01*
X5500000Y-7520500D02*
X5500000Y-7663500D01*
X5428500Y-7592000D02*
X5571500Y-7592000D01*
X5500000Y-8870500D02*
X5500000Y-9013500D01*
X5428500Y-8942000D02*
X5571500Y-8942000D01*
X5500000Y-10220500D02*
X5500000Y-10363500D01*
X5428500Y-10292000D02*
X5571500Y-10292000D01*
X5500000Y-10686500D02*
X5500000Y-10829500D01*
X5428500Y-10758000D02*
X5571500Y-10758000D01*
X5500000Y-13120500D02*
X5500000Y-13263500D01*
X5428500Y-13192000D02*
X5571500Y-13192000D01*
X5500000Y-14470500D02*
X5500000Y-14613500D01*
X5428500Y-14542000D02*
X5571500Y-14542000D01*
X5500000Y-15820500D02*
X5500000Y-15963500D01*
X5428500Y-15892000D02*
X5571500Y-15892000D01*
D11*
X5255777Y-16416484D02*
X5255777Y-16216484D01*
X5255777Y-16216484D02*
X5303396Y-16216484D01*
X5303396Y-16216484D02*
X5331967Y-16226008D01*
X5331967Y-16226008D02*
X5351015Y-16245055D01*
X5351015Y-16245055D02*
X5360539Y-16264103D01*
X5360539Y-16264103D02*
X5370063Y-16302198D01*
X5370063Y-16302198D02*
X5370063Y-16330769D01*
X5370063Y-16330769D02*
X5360539Y-16368865D01*
X5360539Y-16368865D02*
X5351015Y-16387912D01*
X5351015Y-16387912D02*
X5331967Y-16406960D01*
X5331967Y-16406960D02*
X5303396Y-16416484D01*
X5303396Y-16416484D02*
X5255777Y-16416484D01*
X5455777Y-16416484D02*
X5455777Y-16283150D01*
X5455777Y-16321246D02*
X5465301Y-16302198D01*
X5465301Y-16302198D02*
X5474824Y-16292674D01*
X5474824Y-16292674D02*
X5493872Y-16283150D01*
X5493872Y-16283150D02*
X5512920Y-16283150D01*
X5579586Y-16416484D02*
X5579586Y-16283150D01*
X5579586Y-16216484D02*
X5570063Y-16226008D01*
X5570063Y-16226008D02*
X5579586Y-16235531D01*
X5579586Y-16235531D02*
X5589110Y-16226008D01*
X5589110Y-16226008D02*
X5579586Y-16216484D01*
X5579586Y-16216484D02*
X5579586Y-16235531D01*
X5703396Y-16416484D02*
X5684348Y-16406960D01*
X5684348Y-16406960D02*
X5674824Y-16387912D01*
X5674824Y-16387912D02*
X5674824Y-16216484D01*
X5808158Y-16416484D02*
X5789110Y-16406960D01*
X5789110Y-16406960D02*
X5779586Y-16387912D01*
X5779586Y-16387912D02*
X5779586Y-16216484D01*
X6036729Y-16416484D02*
X6036729Y-16216484D01*
X6036729Y-16216484D02*
X6103396Y-16359341D01*
X6103396Y-16359341D02*
X6170062Y-16216484D01*
X6170062Y-16216484D02*
X6170062Y-16416484D01*
X6351015Y-16416484D02*
X6351015Y-16311722D01*
X6351015Y-16311722D02*
X6341491Y-16292674D01*
X6341491Y-16292674D02*
X6322443Y-16283150D01*
X6322443Y-16283150D02*
X6284348Y-16283150D01*
X6284348Y-16283150D02*
X6265301Y-16292674D01*
X6351015Y-16406960D02*
X6331967Y-16416484D01*
X6331967Y-16416484D02*
X6284348Y-16416484D01*
X6284348Y-16416484D02*
X6265301Y-16406960D01*
X6265301Y-16406960D02*
X6255777Y-16387912D01*
X6255777Y-16387912D02*
X6255777Y-16368865D01*
X6255777Y-16368865D02*
X6265301Y-16349817D01*
X6265301Y-16349817D02*
X6284348Y-16340293D01*
X6284348Y-16340293D02*
X6331967Y-16340293D01*
X6331967Y-16340293D02*
X6351015Y-16330769D01*
X6446253Y-16283150D02*
X6446253Y-16483150D01*
X6446253Y-16292674D02*
X6465301Y-16283150D01*
X6465301Y-16283150D02*
X6503396Y-16283150D01*
X6503396Y-16283150D02*
X6522443Y-16292674D01*
X6522443Y-16292674D02*
X6531967Y-16302198D01*
X6531967Y-16302198D02*
X6541491Y-16321246D01*
X6541491Y-16321246D02*
X6541491Y-16378388D01*
X6541491Y-16378388D02*
X6531967Y-16397436D01*
X6531967Y-16397436D02*
X6522443Y-16406960D01*
X6522443Y-16406960D02*
X6503396Y-16416484D01*
X6503396Y-16416484D02*
X6465301Y-16416484D01*
X6465301Y-16416484D02*
X6446253Y-16406960D01*
X6627205Y-16397436D02*
X6636729Y-16406960D01*
X6636729Y-16406960D02*
X6627205Y-16416484D01*
X6627205Y-16416484D02*
X6617682Y-16406960D01*
X6617682Y-16406960D02*
X6627205Y-16397436D01*
X6627205Y-16397436D02*
X6627205Y-16416484D01*
X6627205Y-16292674D02*
X6636729Y-16302198D01*
X6636729Y-16302198D02*
X6627205Y-16311722D01*
X6627205Y-16311722D02*
X6617682Y-16302198D01*
X6617682Y-16302198D02*
X6627205Y-16292674D01*
X6627205Y-16292674D02*
X6627205Y-16311722D01*
D12*
X4873000Y-16684000D02*
X4995000Y-16806000D01*
X4995000Y-16684000D02*
X4873000Y-16806000D01*
D11*
X5360539Y-16836484D02*
X5246253Y-16836484D01*
X5303396Y-16836484D02*
X5303396Y-16636484D01*
X5303396Y-16636484D02*
X5284348Y-16665055D01*
X5284348Y-16665055D02*
X5265301Y-16684103D01*
X5265301Y-16684103D02*
X5246253Y-16693627D01*
X5446253Y-16817436D02*
X5455777Y-16826960D01*
X5455777Y-16826960D02*
X5446253Y-16836484D01*
X5446253Y-16836484D02*
X5436729Y-16826960D01*
X5436729Y-16826960D02*
X5446253Y-16817436D01*
X5446253Y-16817436D02*
X5446253Y-16836484D01*
X5531967Y-16655531D02*
X5541491Y-16646008D01*
X5541491Y-16646008D02*
X5560539Y-16636484D01*
X5560539Y-16636484D02*
X5608158Y-16636484D01*
X5608158Y-16636484D02*
X5627205Y-16646008D01*
X5627205Y-16646008D02*
X5636729Y-16655531D01*
X5636729Y-16655531D02*
X5646253Y-16674579D01*
X5646253Y-16674579D02*
X5646253Y-16693627D01*
X5646253Y-16693627D02*
X5636729Y-16722198D01*
X5636729Y-16722198D02*
X5522444Y-16836484D01*
X5522444Y-16836484D02*
X5646253Y-16836484D01*
X5722443Y-16655531D02*
X5731967Y-16646008D01*
X5731967Y-16646008D02*
X5751015Y-16636484D01*
X5751015Y-16636484D02*
X5798634Y-16636484D01*
X5798634Y-16636484D02*
X5817682Y-16646008D01*
X5817682Y-16646008D02*
X5827205Y-16655531D01*
X5827205Y-16655531D02*
X5836729Y-16674579D01*
X5836729Y-16674579D02*
X5836729Y-16693627D01*
X5836729Y-16693627D02*
X5827205Y-16722198D01*
X5827205Y-16722198D02*
X5712920Y-16836484D01*
X5712920Y-16836484D02*
X5836729Y-16836484D01*
X5960539Y-16636484D02*
X5979586Y-16636484D01*
X5979586Y-16636484D02*
X5998634Y-16646008D01*
X5998634Y-16646008D02*
X6008158Y-16655531D01*
X6008158Y-16655531D02*
X6017682Y-16674579D01*
X6017682Y-16674579D02*
X6027205Y-16712674D01*
X6027205Y-16712674D02*
X6027205Y-16760293D01*
X6027205Y-16760293D02*
X6017682Y-16798389D01*
X6017682Y-16798389D02*
X6008158Y-16817436D01*
X6008158Y-16817436D02*
X5998634Y-16826960D01*
X5998634Y-16826960D02*
X5979586Y-16836484D01*
X5979586Y-16836484D02*
X5960539Y-16836484D01*
X5960539Y-16836484D02*
X5941491Y-16826960D01*
X5941491Y-16826960D02*
X5931967Y-16817436D01*
X5931967Y-16817436D02*
X5922443Y-16798389D01*
X5922443Y-16798389D02*
X5912920Y-16760293D01*
X5912920Y-16760293D02*
X5912920Y-16712674D01*
X5912920Y-16712674D02*
X5922443Y-16674579D01*
X5922443Y-16674579D02*
X5931967Y-16655531D01*
X5931967Y-16655531D02*
X5941491Y-16646008D01*
X5941491Y-16646008D02*
X5960539Y-16636484D01*
X6112920Y-16836484D02*
X6112920Y-16703150D01*
X6112920Y-16722198D02*
X6122443Y-16712674D01*
X6122443Y-16712674D02*
X6141491Y-16703150D01*
X6141491Y-16703150D02*
X6170063Y-16703150D01*
X6170063Y-16703150D02*
X6189110Y-16712674D01*
X6189110Y-16712674D02*
X6198634Y-16731722D01*
X6198634Y-16731722D02*
X6198634Y-16836484D01*
X6198634Y-16731722D02*
X6208158Y-16712674D01*
X6208158Y-16712674D02*
X6227205Y-16703150D01*
X6227205Y-16703150D02*
X6255777Y-16703150D01*
X6255777Y-16703150D02*
X6274824Y-16712674D01*
X6274824Y-16712674D02*
X6284348Y-16731722D01*
X6284348Y-16731722D02*
X6284348Y-16836484D01*
X6379586Y-16836484D02*
X6379586Y-16703150D01*
X6379586Y-16722198D02*
X6389110Y-16712674D01*
X6389110Y-16712674D02*
X6408158Y-16703150D01*
X6408158Y-16703150D02*
X6436729Y-16703150D01*
X6436729Y-16703150D02*
X6455777Y-16712674D01*
X6455777Y-16712674D02*
X6465301Y-16731722D01*
X6465301Y-16731722D02*
X6465301Y-16836484D01*
X6465301Y-16731722D02*
X6474824Y-16712674D01*
X6474824Y-16712674D02*
X6493872Y-16703150D01*
X6493872Y-16703150D02*
X6522443Y-16703150D01*
X6522443Y-16703150D02*
X6541491Y-16712674D01*
X6541491Y-16712674D02*
X6551015Y-16731722D01*
X6551015Y-16731722D02*
X6551015Y-16836484D01*
X6941491Y-16626960D02*
X6770063Y-16884103D01*
X7198634Y-16636484D02*
X7217682Y-16636484D01*
X7217682Y-16636484D02*
X7236729Y-16646008D01*
X7236729Y-16646008D02*
X7246253Y-16655531D01*
X7246253Y-16655531D02*
X7255777Y-16674579D01*
X7255777Y-16674579D02*
X7265301Y-16712674D01*
X7265301Y-16712674D02*
X7265301Y-16760293D01*
X7265301Y-16760293D02*
X7255777Y-16798389D01*
X7255777Y-16798389D02*
X7246253Y-16817436D01*
X7246253Y-16817436D02*
X7236729Y-16826960D01*
X7236729Y-16826960D02*
X7217682Y-16836484D01*
X7217682Y-16836484D02*
X7198634Y-16836484D01*
X7198634Y-16836484D02*
X7179586Y-16826960D01*
X7179586Y-16826960D02*
X7170063Y-16817436D01*
X7170063Y-16817436D02*
X7160539Y-16798389D01*
X7160539Y-16798389D02*
X7151015Y-16760293D01*
X7151015Y-16760293D02*
X7151015Y-16712674D01*
X7151015Y-16712674D02*
X7160539Y-16674579D01*
X7160539Y-16674579D02*
X7170063Y-16655531D01*
X7170063Y-16655531D02*
X7179586Y-16646008D01*
X7179586Y-16646008D02*
X7198634Y-16636484D01*
X7351015Y-16817436D02*
X7360539Y-16826960D01*
X7360539Y-16826960D02*
X7351015Y-16836484D01*
X7351015Y-16836484D02*
X7341491Y-16826960D01*
X7341491Y-16826960D02*
X7351015Y-16817436D01*
X7351015Y-16817436D02*
X7351015Y-16836484D01*
X7484348Y-16636484D02*
X7503396Y-16636484D01*
X7503396Y-16636484D02*
X7522444Y-16646008D01*
X7522444Y-16646008D02*
X7531967Y-16655531D01*
X7531967Y-16655531D02*
X7541491Y-16674579D01*
X7541491Y-16674579D02*
X7551015Y-16712674D01*
X7551015Y-16712674D02*
X7551015Y-16760293D01*
X7551015Y-16760293D02*
X7541491Y-16798389D01*
X7541491Y-16798389D02*
X7531967Y-16817436D01*
X7531967Y-16817436D02*
X7522444Y-16826960D01*
X7522444Y-16826960D02*
X7503396Y-16836484D01*
X7503396Y-16836484D02*
X7484348Y-16836484D01*
X7484348Y-16836484D02*
X7465301Y-16826960D01*
X7465301Y-16826960D02*
X7455777Y-16817436D01*
X7455777Y-16817436D02*
X7446253Y-16798389D01*
X7446253Y-16798389D02*
X7436729Y-16760293D01*
X7436729Y-16760293D02*
X7436729Y-16712674D01*
X7436729Y-16712674D02*
X7446253Y-16674579D01*
X7446253Y-16674579D02*
X7455777Y-16655531D01*
X7455777Y-16655531D02*
X7465301Y-16646008D01*
X7465301Y-16646008D02*
X7484348Y-16636484D01*
X7722444Y-16703150D02*
X7722444Y-16836484D01*
X7674825Y-16626960D02*
X7627206Y-16769817D01*
X7627206Y-16769817D02*
X7751015Y-16769817D01*
X7855777Y-16722198D02*
X7836729Y-16712674D01*
X7836729Y-16712674D02*
X7827206Y-16703150D01*
X7827206Y-16703150D02*
X7817682Y-16684103D01*
X7817682Y-16684103D02*
X7817682Y-16674579D01*
X7817682Y-16674579D02*
X7827206Y-16655531D01*
X7827206Y-16655531D02*
X7836729Y-16646008D01*
X7836729Y-16646008D02*
X7855777Y-16636484D01*
X7855777Y-16636484D02*
X7893872Y-16636484D01*
X7893872Y-16636484D02*
X7912920Y-16646008D01*
X7912920Y-16646008D02*
X7922444Y-16655531D01*
X7922444Y-16655531D02*
X7931967Y-16674579D01*
X7931967Y-16674579D02*
X7931967Y-16684103D01*
X7931967Y-16684103D02*
X7922444Y-16703150D01*
X7922444Y-16703150D02*
X7912920Y-16712674D01*
X7912920Y-16712674D02*
X7893872Y-16722198D01*
X7893872Y-16722198D02*
X7855777Y-16722198D01*
X7855777Y-16722198D02*
X7836729Y-16731722D01*
X7836729Y-16731722D02*
X7827206Y-16741246D01*
X7827206Y-16741246D02*
X7817682Y-16760293D01*
X7817682Y-16760293D02*
X7817682Y-16798389D01*
X7817682Y-16798389D02*
X7827206Y-16817436D01*
X7827206Y-16817436D02*
X7836729Y-16826960D01*
X7836729Y-16826960D02*
X7855777Y-16836484D01*
X7855777Y-16836484D02*
X7893872Y-16836484D01*
X7893872Y-16836484D02*
X7912920Y-16826960D01*
X7912920Y-16826960D02*
X7922444Y-16817436D01*
X7922444Y-16817436D02*
X7931967Y-16798389D01*
X7931967Y-16798389D02*
X7931967Y-16760293D01*
X7931967Y-16760293D02*
X7922444Y-16741246D01*
X7922444Y-16741246D02*
X7912920Y-16731722D01*
X7912920Y-16731722D02*
X7893872Y-16722198D01*
X8055777Y-16636484D02*
X8074825Y-16636484D01*
X8074825Y-16636484D02*
X8093872Y-16646008D01*
X8093872Y-16646008D02*
X8103396Y-16655531D01*
X8103396Y-16655531D02*
X8112920Y-16674579D01*
X8112920Y-16674579D02*
X8122444Y-16712674D01*
X8122444Y-16712674D02*
X8122444Y-16760293D01*
X8122444Y-16760293D02*
X8112920Y-16798389D01*
X8112920Y-16798389D02*
X8103396Y-16817436D01*
X8103396Y-16817436D02*
X8093872Y-16826960D01*
X8093872Y-16826960D02*
X8074825Y-16836484D01*
X8074825Y-16836484D02*
X8055777Y-16836484D01*
X8055777Y-16836484D02*
X8036729Y-16826960D01*
X8036729Y-16826960D02*
X8027206Y-16817436D01*
X8027206Y-16817436D02*
X8017682Y-16798389D01*
X8017682Y-16798389D02*
X8008158Y-16760293D01*
X8008158Y-16760293D02*
X8008158Y-16712674D01*
X8008158Y-16712674D02*
X8017682Y-16674579D01*
X8017682Y-16674579D02*
X8027206Y-16655531D01*
X8027206Y-16655531D02*
X8036729Y-16646008D01*
X8036729Y-16646008D02*
X8055777Y-16636484D01*
X8198634Y-16636484D02*
X8198634Y-16674579D01*
X8274825Y-16636484D02*
X8274825Y-16674579D01*
X8570063Y-16912674D02*
X8560539Y-16903150D01*
X8560539Y-16903150D02*
X8541491Y-16874579D01*
X8541491Y-16874579D02*
X8531968Y-16855531D01*
X8531968Y-16855531D02*
X8522444Y-16826960D01*
X8522444Y-16826960D02*
X8512920Y-16779341D01*
X8512920Y-16779341D02*
X8512920Y-16741246D01*
X8512920Y-16741246D02*
X8522444Y-16693627D01*
X8522444Y-16693627D02*
X8531968Y-16665055D01*
X8531968Y-16665055D02*
X8541491Y-16646008D01*
X8541491Y-16646008D02*
X8560539Y-16617436D01*
X8560539Y-16617436D02*
X8570063Y-16607912D01*
X8674825Y-16722198D02*
X8655777Y-16712674D01*
X8655777Y-16712674D02*
X8646253Y-16703150D01*
X8646253Y-16703150D02*
X8636730Y-16684103D01*
X8636730Y-16684103D02*
X8636730Y-16674579D01*
X8636730Y-16674579D02*
X8646253Y-16655531D01*
X8646253Y-16655531D02*
X8655777Y-16646008D01*
X8655777Y-16646008D02*
X8674825Y-16636484D01*
X8674825Y-16636484D02*
X8712920Y-16636484D01*
X8712920Y-16636484D02*
X8731968Y-16646008D01*
X8731968Y-16646008D02*
X8741491Y-16655531D01*
X8741491Y-16655531D02*
X8751015Y-16674579D01*
X8751015Y-16674579D02*
X8751015Y-16684103D01*
X8751015Y-16684103D02*
X8741491Y-16703150D01*
X8741491Y-16703150D02*
X8731968Y-16712674D01*
X8731968Y-16712674D02*
X8712920Y-16722198D01*
X8712920Y-16722198D02*
X8674825Y-16722198D01*
X8674825Y-16722198D02*
X8655777Y-16731722D01*
X8655777Y-16731722D02*
X8646253Y-16741246D01*
X8646253Y-16741246D02*
X8636730Y-16760293D01*
X8636730Y-16760293D02*
X8636730Y-16798389D01*
X8636730Y-16798389D02*
X8646253Y-16817436D01*
X8646253Y-16817436D02*
X8655777Y-16826960D01*
X8655777Y-16826960D02*
X8674825Y-16836484D01*
X8674825Y-16836484D02*
X8712920Y-16836484D01*
X8712920Y-16836484D02*
X8731968Y-16826960D01*
X8731968Y-16826960D02*
X8741491Y-16817436D01*
X8741491Y-16817436D02*
X8751015Y-16798389D01*
X8751015Y-16798389D02*
X8751015Y-16760293D01*
X8751015Y-16760293D02*
X8741491Y-16741246D01*
X8741491Y-16741246D02*
X8731968Y-16731722D01*
X8731968Y-16731722D02*
X8712920Y-16722198D01*
X8989111Y-16836484D02*
X8989111Y-16636484D01*
X9074825Y-16836484D02*
X9074825Y-16731722D01*
X9074825Y-16731722D02*
X9065301Y-16712674D01*
X9065301Y-16712674D02*
X9046253Y-16703150D01*
X9046253Y-16703150D02*
X9017682Y-16703150D01*
X9017682Y-16703150D02*
X8998634Y-16712674D01*
X8998634Y-16712674D02*
X8989111Y-16722198D01*
X9198634Y-16836484D02*
X9179587Y-16826960D01*
X9179587Y-16826960D02*
X9170063Y-16817436D01*
X9170063Y-16817436D02*
X9160539Y-16798389D01*
X9160539Y-16798389D02*
X9160539Y-16741246D01*
X9160539Y-16741246D02*
X9170063Y-16722198D01*
X9170063Y-16722198D02*
X9179587Y-16712674D01*
X9179587Y-16712674D02*
X9198634Y-16703150D01*
X9198634Y-16703150D02*
X9227206Y-16703150D01*
X9227206Y-16703150D02*
X9246253Y-16712674D01*
X9246253Y-16712674D02*
X9255777Y-16722198D01*
X9255777Y-16722198D02*
X9265301Y-16741246D01*
X9265301Y-16741246D02*
X9265301Y-16798389D01*
X9265301Y-16798389D02*
X9255777Y-16817436D01*
X9255777Y-16817436D02*
X9246253Y-16826960D01*
X9246253Y-16826960D02*
X9227206Y-16836484D01*
X9227206Y-16836484D02*
X9198634Y-16836484D01*
X9379587Y-16836484D02*
X9360539Y-16826960D01*
X9360539Y-16826960D02*
X9351015Y-16807912D01*
X9351015Y-16807912D02*
X9351015Y-16636484D01*
X9531968Y-16826960D02*
X9512920Y-16836484D01*
X9512920Y-16836484D02*
X9474825Y-16836484D01*
X9474825Y-16836484D02*
X9455777Y-16826960D01*
X9455777Y-16826960D02*
X9446253Y-16807912D01*
X9446253Y-16807912D02*
X9446253Y-16731722D01*
X9446253Y-16731722D02*
X9455777Y-16712674D01*
X9455777Y-16712674D02*
X9474825Y-16703150D01*
X9474825Y-16703150D02*
X9512920Y-16703150D01*
X9512920Y-16703150D02*
X9531968Y-16712674D01*
X9531968Y-16712674D02*
X9541492Y-16731722D01*
X9541492Y-16731722D02*
X9541492Y-16750769D01*
X9541492Y-16750769D02*
X9446253Y-16769817D01*
X9617682Y-16826960D02*
X9636730Y-16836484D01*
X9636730Y-16836484D02*
X9674825Y-16836484D01*
X9674825Y-16836484D02*
X9693873Y-16826960D01*
X9693873Y-16826960D02*
X9703396Y-16807912D01*
X9703396Y-16807912D02*
X9703396Y-16798389D01*
X9703396Y-16798389D02*
X9693873Y-16779341D01*
X9693873Y-16779341D02*
X9674825Y-16769817D01*
X9674825Y-16769817D02*
X9646253Y-16769817D01*
X9646253Y-16769817D02*
X9627206Y-16760293D01*
X9627206Y-16760293D02*
X9617682Y-16741246D01*
X9617682Y-16741246D02*
X9617682Y-16731722D01*
X9617682Y-16731722D02*
X9627206Y-16712674D01*
X9627206Y-16712674D02*
X9646253Y-16703150D01*
X9646253Y-16703150D02*
X9674825Y-16703150D01*
X9674825Y-16703150D02*
X9693873Y-16712674D01*
X9770063Y-16912674D02*
X9779587Y-16903150D01*
X9779587Y-16903150D02*
X9798634Y-16874579D01*
X9798634Y-16874579D02*
X9808158Y-16855531D01*
X9808158Y-16855531D02*
X9817682Y-16826960D01*
X9817682Y-16826960D02*
X9827206Y-16779341D01*
X9827206Y-16779341D02*
X9827206Y-16741246D01*
X9827206Y-16741246D02*
X9817682Y-16693627D01*
X9817682Y-16693627D02*
X9808158Y-16665055D01*
X9808158Y-16665055D02*
X9798634Y-16646008D01*
X9798634Y-16646008D02*
X9779587Y-16617436D01*
X9779587Y-16617436D02*
X9770063Y-16607912D01*
D13*
X4995000Y-17009000D02*
G75*
G02*
X4853000Y-17009000I-71000J0D01*
G01*
X4853000Y-17009000D02*
G75*
G02*
X4995000Y-17009000I71000J0D01*
G01*
D11*
X5360539Y-17100484D02*
X5246253Y-17100484D01*
X5303396Y-17100484D02*
X5303396Y-16900484D01*
X5303396Y-16900484D02*
X5284348Y-16929055D01*
X5284348Y-16929055D02*
X5265301Y-16948103D01*
X5265301Y-16948103D02*
X5246253Y-16957627D01*
X5446253Y-17081436D02*
X5455777Y-17090960D01*
X5455777Y-17090960D02*
X5446253Y-17100484D01*
X5446253Y-17100484D02*
X5436729Y-17090960D01*
X5436729Y-17090960D02*
X5446253Y-17081436D01*
X5446253Y-17081436D02*
X5446253Y-17100484D01*
X5627205Y-16967150D02*
X5627205Y-17100484D01*
X5579586Y-16890960D02*
X5531967Y-17033817D01*
X5531967Y-17033817D02*
X5655777Y-17033817D01*
X5722443Y-16919531D02*
X5731967Y-16910008D01*
X5731967Y-16910008D02*
X5751015Y-16900484D01*
X5751015Y-16900484D02*
X5798634Y-16900484D01*
X5798634Y-16900484D02*
X5817682Y-16910008D01*
X5817682Y-16910008D02*
X5827205Y-16919531D01*
X5827205Y-16919531D02*
X5836729Y-16938579D01*
X5836729Y-16938579D02*
X5836729Y-16957627D01*
X5836729Y-16957627D02*
X5827205Y-16986198D01*
X5827205Y-16986198D02*
X5712920Y-17100484D01*
X5712920Y-17100484D02*
X5836729Y-17100484D01*
X5960539Y-16900484D02*
X5979586Y-16900484D01*
X5979586Y-16900484D02*
X5998634Y-16910008D01*
X5998634Y-16910008D02*
X6008158Y-16919531D01*
X6008158Y-16919531D02*
X6017682Y-16938579D01*
X6017682Y-16938579D02*
X6027205Y-16976674D01*
X6027205Y-16976674D02*
X6027205Y-17024293D01*
X6027205Y-17024293D02*
X6017682Y-17062389D01*
X6017682Y-17062389D02*
X6008158Y-17081436D01*
X6008158Y-17081436D02*
X5998634Y-17090960D01*
X5998634Y-17090960D02*
X5979586Y-17100484D01*
X5979586Y-17100484D02*
X5960539Y-17100484D01*
X5960539Y-17100484D02*
X5941491Y-17090960D01*
X5941491Y-17090960D02*
X5931967Y-17081436D01*
X5931967Y-17081436D02*
X5922443Y-17062389D01*
X5922443Y-17062389D02*
X5912920Y-17024293D01*
X5912920Y-17024293D02*
X5912920Y-16976674D01*
X5912920Y-16976674D02*
X5922443Y-16938579D01*
X5922443Y-16938579D02*
X5931967Y-16919531D01*
X5931967Y-16919531D02*
X5941491Y-16910008D01*
X5941491Y-16910008D02*
X5960539Y-16900484D01*
X6112920Y-17100484D02*
X6112920Y-16967150D01*
X6112920Y-16986198D02*
X6122443Y-16976674D01*
X6122443Y-16976674D02*
X6141491Y-16967150D01*
X6141491Y-16967150D02*
X6170063Y-16967150D01*
X6170063Y-16967150D02*
X6189110Y-16976674D01*
X6189110Y-16976674D02*
X6198634Y-16995722D01*
X6198634Y-16995722D02*
X6198634Y-17100484D01*
X6198634Y-16995722D02*
X6208158Y-16976674D01*
X6208158Y-16976674D02*
X6227205Y-16967150D01*
X6227205Y-16967150D02*
X6255777Y-16967150D01*
X6255777Y-16967150D02*
X6274824Y-16976674D01*
X6274824Y-16976674D02*
X6284348Y-16995722D01*
X6284348Y-16995722D02*
X6284348Y-17100484D01*
X6379586Y-17100484D02*
X6379586Y-16967150D01*
X6379586Y-16986198D02*
X6389110Y-16976674D01*
X6389110Y-16976674D02*
X6408158Y-16967150D01*
X6408158Y-16967150D02*
X6436729Y-16967150D01*
X6436729Y-16967150D02*
X6455777Y-16976674D01*
X6455777Y-16976674D02*
X6465301Y-16995722D01*
X6465301Y-16995722D02*
X6465301Y-17100484D01*
X6465301Y-16995722D02*
X6474824Y-16976674D01*
X6474824Y-16976674D02*
X6493872Y-16967150D01*
X6493872Y-16967150D02*
X6522443Y-16967150D01*
X6522443Y-16967150D02*
X6541491Y-16976674D01*
X6541491Y-16976674D02*
X6551015Y-16995722D01*
X6551015Y-16995722D02*
X6551015Y-17100484D01*
X6941491Y-16890960D02*
X6770063Y-17148103D01*
X7198634Y-16900484D02*
X7217682Y-16900484D01*
X7217682Y-16900484D02*
X7236729Y-16910008D01*
X7236729Y-16910008D02*
X7246253Y-16919531D01*
X7246253Y-16919531D02*
X7255777Y-16938579D01*
X7255777Y-16938579D02*
X7265301Y-16976674D01*
X7265301Y-16976674D02*
X7265301Y-17024293D01*
X7265301Y-17024293D02*
X7255777Y-17062389D01*
X7255777Y-17062389D02*
X7246253Y-17081436D01*
X7246253Y-17081436D02*
X7236729Y-17090960D01*
X7236729Y-17090960D02*
X7217682Y-17100484D01*
X7217682Y-17100484D02*
X7198634Y-17100484D01*
X7198634Y-17100484D02*
X7179586Y-17090960D01*
X7179586Y-17090960D02*
X7170063Y-17081436D01*
X7170063Y-17081436D02*
X7160539Y-17062389D01*
X7160539Y-17062389D02*
X7151015Y-17024293D01*
X7151015Y-17024293D02*
X7151015Y-16976674D01*
X7151015Y-16976674D02*
X7160539Y-16938579D01*
X7160539Y-16938579D02*
X7170063Y-16919531D01*
X7170063Y-16919531D02*
X7179586Y-16910008D01*
X7179586Y-16910008D02*
X7198634Y-16900484D01*
X7351015Y-17081436D02*
X7360539Y-17090960D01*
X7360539Y-17090960D02*
X7351015Y-17100484D01*
X7351015Y-17100484D02*
X7341491Y-17090960D01*
X7341491Y-17090960D02*
X7351015Y-17081436D01*
X7351015Y-17081436D02*
X7351015Y-17100484D01*
X7484348Y-16900484D02*
X7503396Y-16900484D01*
X7503396Y-16900484D02*
X7522444Y-16910008D01*
X7522444Y-16910008D02*
X7531967Y-16919531D01*
X7531967Y-16919531D02*
X7541491Y-16938579D01*
X7541491Y-16938579D02*
X7551015Y-16976674D01*
X7551015Y-16976674D02*
X7551015Y-17024293D01*
X7551015Y-17024293D02*
X7541491Y-17062389D01*
X7541491Y-17062389D02*
X7531967Y-17081436D01*
X7531967Y-17081436D02*
X7522444Y-17090960D01*
X7522444Y-17090960D02*
X7503396Y-17100484D01*
X7503396Y-17100484D02*
X7484348Y-17100484D01*
X7484348Y-17100484D02*
X7465301Y-17090960D01*
X7465301Y-17090960D02*
X7455777Y-17081436D01*
X7455777Y-17081436D02*
X7446253Y-17062389D01*
X7446253Y-17062389D02*
X7436729Y-17024293D01*
X7436729Y-17024293D02*
X7436729Y-16976674D01*
X7436729Y-16976674D02*
X7446253Y-16938579D01*
X7446253Y-16938579D02*
X7455777Y-16919531D01*
X7455777Y-16919531D02*
X7465301Y-16910008D01*
X7465301Y-16910008D02*
X7484348Y-16900484D01*
X7731967Y-16900484D02*
X7636729Y-16900484D01*
X7636729Y-16900484D02*
X7627206Y-16995722D01*
X7627206Y-16995722D02*
X7636729Y-16986198D01*
X7636729Y-16986198D02*
X7655777Y-16976674D01*
X7655777Y-16976674D02*
X7703396Y-16976674D01*
X7703396Y-16976674D02*
X7722444Y-16986198D01*
X7722444Y-16986198D02*
X7731967Y-16995722D01*
X7731967Y-16995722D02*
X7741491Y-17014770D01*
X7741491Y-17014770D02*
X7741491Y-17062389D01*
X7741491Y-17062389D02*
X7731967Y-17081436D01*
X7731967Y-17081436D02*
X7722444Y-17090960D01*
X7722444Y-17090960D02*
X7703396Y-17100484D01*
X7703396Y-17100484D02*
X7655777Y-17100484D01*
X7655777Y-17100484D02*
X7636729Y-17090960D01*
X7636729Y-17090960D02*
X7627206Y-17081436D01*
X7922444Y-16900484D02*
X7827206Y-16900484D01*
X7827206Y-16900484D02*
X7817682Y-16995722D01*
X7817682Y-16995722D02*
X7827206Y-16986198D01*
X7827206Y-16986198D02*
X7846253Y-16976674D01*
X7846253Y-16976674D02*
X7893872Y-16976674D01*
X7893872Y-16976674D02*
X7912920Y-16986198D01*
X7912920Y-16986198D02*
X7922444Y-16995722D01*
X7922444Y-16995722D02*
X7931967Y-17014770D01*
X7931967Y-17014770D02*
X7931967Y-17062389D01*
X7931967Y-17062389D02*
X7922444Y-17081436D01*
X7922444Y-17081436D02*
X7912920Y-17090960D01*
X7912920Y-17090960D02*
X7893872Y-17100484D01*
X7893872Y-17100484D02*
X7846253Y-17100484D01*
X7846253Y-17100484D02*
X7827206Y-17090960D01*
X7827206Y-17090960D02*
X7817682Y-17081436D01*
X8027206Y-17100484D02*
X8065301Y-17100484D01*
X8065301Y-17100484D02*
X8084348Y-17090960D01*
X8084348Y-17090960D02*
X8093872Y-17081436D01*
X8093872Y-17081436D02*
X8112920Y-17052865D01*
X8112920Y-17052865D02*
X8122444Y-17014770D01*
X8122444Y-17014770D02*
X8122444Y-16938579D01*
X8122444Y-16938579D02*
X8112920Y-16919531D01*
X8112920Y-16919531D02*
X8103396Y-16910008D01*
X8103396Y-16910008D02*
X8084348Y-16900484D01*
X8084348Y-16900484D02*
X8046253Y-16900484D01*
X8046253Y-16900484D02*
X8027206Y-16910008D01*
X8027206Y-16910008D02*
X8017682Y-16919531D01*
X8017682Y-16919531D02*
X8008158Y-16938579D01*
X8008158Y-16938579D02*
X8008158Y-16986198D01*
X8008158Y-16986198D02*
X8017682Y-17005246D01*
X8017682Y-17005246D02*
X8027206Y-17014770D01*
X8027206Y-17014770D02*
X8046253Y-17024293D01*
X8046253Y-17024293D02*
X8084348Y-17024293D01*
X8084348Y-17024293D02*
X8103396Y-17014770D01*
X8103396Y-17014770D02*
X8112920Y-17005246D01*
X8112920Y-17005246D02*
X8122444Y-16986198D01*
X8198634Y-16900484D02*
X8198634Y-16938579D01*
X8274825Y-16900484D02*
X8274825Y-16938579D01*
X8570063Y-17176674D02*
X8560539Y-17167150D01*
X8560539Y-17167150D02*
X8541491Y-17138579D01*
X8541491Y-17138579D02*
X8531968Y-17119531D01*
X8531968Y-17119531D02*
X8522444Y-17090960D01*
X8522444Y-17090960D02*
X8512920Y-17043341D01*
X8512920Y-17043341D02*
X8512920Y-17005246D01*
X8512920Y-17005246D02*
X8522444Y-16957627D01*
X8522444Y-16957627D02*
X8531968Y-16929055D01*
X8531968Y-16929055D02*
X8541491Y-16910008D01*
X8541491Y-16910008D02*
X8560539Y-16881436D01*
X8560539Y-16881436D02*
X8570063Y-16871912D01*
X8674825Y-16986198D02*
X8655777Y-16976674D01*
X8655777Y-16976674D02*
X8646253Y-16967150D01*
X8646253Y-16967150D02*
X8636730Y-16948103D01*
X8636730Y-16948103D02*
X8636730Y-16938579D01*
X8636730Y-16938579D02*
X8646253Y-16919531D01*
X8646253Y-16919531D02*
X8655777Y-16910008D01*
X8655777Y-16910008D02*
X8674825Y-16900484D01*
X8674825Y-16900484D02*
X8712920Y-16900484D01*
X8712920Y-16900484D02*
X8731968Y-16910008D01*
X8731968Y-16910008D02*
X8741491Y-16919531D01*
X8741491Y-16919531D02*
X8751015Y-16938579D01*
X8751015Y-16938579D02*
X8751015Y-16948103D01*
X8751015Y-16948103D02*
X8741491Y-16967150D01*
X8741491Y-16967150D02*
X8731968Y-16976674D01*
X8731968Y-16976674D02*
X8712920Y-16986198D01*
X8712920Y-16986198D02*
X8674825Y-16986198D01*
X8674825Y-16986198D02*
X8655777Y-16995722D01*
X8655777Y-16995722D02*
X8646253Y-17005246D01*
X8646253Y-17005246D02*
X8636730Y-17024293D01*
X8636730Y-17024293D02*
X8636730Y-17062389D01*
X8636730Y-17062389D02*
X8646253Y-17081436D01*
X8646253Y-17081436D02*
X8655777Y-17090960D01*
X8655777Y-17090960D02*
X8674825Y-17100484D01*
X8674825Y-17100484D02*
X8712920Y-17100484D01*
X8712920Y-17100484D02*
X8731968Y-17090960D01*
X8731968Y-17090960D02*
X8741491Y-17081436D01*
X8741491Y-17081436D02*
X8751015Y-17062389D01*
X8751015Y-17062389D02*
X8751015Y-17024293D01*
X8751015Y-17024293D02*
X8741491Y-17005246D01*
X8741491Y-17005246D02*
X8731968Y-16995722D01*
X8731968Y-16995722D02*
X8712920Y-16986198D01*
X8989111Y-17100484D02*
X8989111Y-16900484D01*
X9074825Y-17100484D02*
X9074825Y-16995722D01*
X9074825Y-16995722D02*
X9065301Y-16976674D01*
X9065301Y-16976674D02*
X9046253Y-16967150D01*
X9046253Y-16967150D02*
X9017682Y-16967150D01*
X9017682Y-16967150D02*
X8998634Y-16976674D01*
X8998634Y-16976674D02*
X8989111Y-16986198D01*
X9198634Y-17100484D02*
X9179587Y-17090960D01*
X9179587Y-17090960D02*
X9170063Y-17081436D01*
X9170063Y-17081436D02*
X9160539Y-17062389D01*
X9160539Y-17062389D02*
X9160539Y-17005246D01*
X9160539Y-17005246D02*
X9170063Y-16986198D01*
X9170063Y-16986198D02*
X9179587Y-16976674D01*
X9179587Y-16976674D02*
X9198634Y-16967150D01*
X9198634Y-16967150D02*
X9227206Y-16967150D01*
X9227206Y-16967150D02*
X9246253Y-16976674D01*
X9246253Y-16976674D02*
X9255777Y-16986198D01*
X9255777Y-16986198D02*
X9265301Y-17005246D01*
X9265301Y-17005246D02*
X9265301Y-17062389D01*
X9265301Y-17062389D02*
X9255777Y-17081436D01*
X9255777Y-17081436D02*
X9246253Y-17090960D01*
X9246253Y-17090960D02*
X9227206Y-17100484D01*
X9227206Y-17100484D02*
X9198634Y-17100484D01*
X9379587Y-17100484D02*
X9360539Y-17090960D01*
X9360539Y-17090960D02*
X9351015Y-17071912D01*
X9351015Y-17071912D02*
X9351015Y-16900484D01*
X9531968Y-17090960D02*
X9512920Y-17100484D01*
X9512920Y-17100484D02*
X9474825Y-17100484D01*
X9474825Y-17100484D02*
X9455777Y-17090960D01*
X9455777Y-17090960D02*
X9446253Y-17071912D01*
X9446253Y-17071912D02*
X9446253Y-16995722D01*
X9446253Y-16995722D02*
X9455777Y-16976674D01*
X9455777Y-16976674D02*
X9474825Y-16967150D01*
X9474825Y-16967150D02*
X9512920Y-16967150D01*
X9512920Y-16967150D02*
X9531968Y-16976674D01*
X9531968Y-16976674D02*
X9541492Y-16995722D01*
X9541492Y-16995722D02*
X9541492Y-17014770D01*
X9541492Y-17014770D02*
X9446253Y-17033817D01*
X9617682Y-17090960D02*
X9636730Y-17100484D01*
X9636730Y-17100484D02*
X9674825Y-17100484D01*
X9674825Y-17100484D02*
X9693873Y-17090960D01*
X9693873Y-17090960D02*
X9703396Y-17071912D01*
X9703396Y-17071912D02*
X9703396Y-17062389D01*
X9703396Y-17062389D02*
X9693873Y-17043341D01*
X9693873Y-17043341D02*
X9674825Y-17033817D01*
X9674825Y-17033817D02*
X9646253Y-17033817D01*
X9646253Y-17033817D02*
X9627206Y-17024293D01*
X9627206Y-17024293D02*
X9617682Y-17005246D01*
X9617682Y-17005246D02*
X9617682Y-16995722D01*
X9617682Y-16995722D02*
X9627206Y-16976674D01*
X9627206Y-16976674D02*
X9646253Y-16967150D01*
X9646253Y-16967150D02*
X9674825Y-16967150D01*
X9674825Y-16967150D02*
X9693873Y-16976674D01*
X9770063Y-17176674D02*
X9779587Y-17167150D01*
X9779587Y-17167150D02*
X9798634Y-17138579D01*
X9798634Y-17138579D02*
X9808158Y-17119531D01*
X9808158Y-17119531D02*
X9817682Y-17090960D01*
X9817682Y-17090960D02*
X9827206Y-17043341D01*
X9827206Y-17043341D02*
X9827206Y-17005246D01*
X9827206Y-17005246D02*
X9817682Y-16957627D01*
X9817682Y-16957627D02*
X9808158Y-16929055D01*
X9808158Y-16929055D02*
X9798634Y-16910008D01*
X9798634Y-16910008D02*
X9779587Y-16881436D01*
X9779587Y-16881436D02*
X9770063Y-16871912D01*
D14*
X4923500Y-17201500D02*
X4923500Y-17344500D01*
X4852000Y-17273000D02*
X4995000Y-17273000D01*
D11*
X5360539Y-17364484D02*
X5246253Y-17364484D01*
X5303396Y-17364484D02*
X5303396Y-17164484D01*
X5303396Y-17164484D02*
X5284348Y-17193055D01*
X5284348Y-17193055D02*
X5265301Y-17212103D01*
X5265301Y-17212103D02*
X5246253Y-17221627D01*
X5446253Y-17345436D02*
X5455777Y-17354960D01*
X5455777Y-17354960D02*
X5446253Y-17364484D01*
X5446253Y-17364484D02*
X5436729Y-17354960D01*
X5436729Y-17354960D02*
X5446253Y-17345436D01*
X5446253Y-17345436D02*
X5446253Y-17364484D01*
X5627205Y-17231150D02*
X5627205Y-17364484D01*
X5579586Y-17154960D02*
X5531967Y-17297817D01*
X5531967Y-17297817D02*
X5655777Y-17297817D01*
X5712920Y-17164484D02*
X5836729Y-17164484D01*
X5836729Y-17164484D02*
X5770062Y-17240674D01*
X5770062Y-17240674D02*
X5798634Y-17240674D01*
X5798634Y-17240674D02*
X5817682Y-17250198D01*
X5817682Y-17250198D02*
X5827205Y-17259722D01*
X5827205Y-17259722D02*
X5836729Y-17278770D01*
X5836729Y-17278770D02*
X5836729Y-17326389D01*
X5836729Y-17326389D02*
X5827205Y-17345436D01*
X5827205Y-17345436D02*
X5817682Y-17354960D01*
X5817682Y-17354960D02*
X5798634Y-17364484D01*
X5798634Y-17364484D02*
X5741491Y-17364484D01*
X5741491Y-17364484D02*
X5722443Y-17354960D01*
X5722443Y-17354960D02*
X5712920Y-17345436D01*
X5960539Y-17164484D02*
X5979586Y-17164484D01*
X5979586Y-17164484D02*
X5998634Y-17174008D01*
X5998634Y-17174008D02*
X6008158Y-17183531D01*
X6008158Y-17183531D02*
X6017682Y-17202579D01*
X6017682Y-17202579D02*
X6027205Y-17240674D01*
X6027205Y-17240674D02*
X6027205Y-17288293D01*
X6027205Y-17288293D02*
X6017682Y-17326389D01*
X6017682Y-17326389D02*
X6008158Y-17345436D01*
X6008158Y-17345436D02*
X5998634Y-17354960D01*
X5998634Y-17354960D02*
X5979586Y-17364484D01*
X5979586Y-17364484D02*
X5960539Y-17364484D01*
X5960539Y-17364484D02*
X5941491Y-17354960D01*
X5941491Y-17354960D02*
X5931967Y-17345436D01*
X5931967Y-17345436D02*
X5922443Y-17326389D01*
X5922443Y-17326389D02*
X5912920Y-17288293D01*
X5912920Y-17288293D02*
X5912920Y-17240674D01*
X5912920Y-17240674D02*
X5922443Y-17202579D01*
X5922443Y-17202579D02*
X5931967Y-17183531D01*
X5931967Y-17183531D02*
X5941491Y-17174008D01*
X5941491Y-17174008D02*
X5960539Y-17164484D01*
X6112920Y-17364484D02*
X6112920Y-17231150D01*
X6112920Y-17250198D02*
X6122443Y-17240674D01*
X6122443Y-17240674D02*
X6141491Y-17231150D01*
X6141491Y-17231150D02*
X6170063Y-17231150D01*
X6170063Y-17231150D02*
X6189110Y-17240674D01*
X6189110Y-17240674D02*
X6198634Y-17259722D01*
X6198634Y-17259722D02*
X6198634Y-17364484D01*
X6198634Y-17259722D02*
X6208158Y-17240674D01*
X6208158Y-17240674D02*
X6227205Y-17231150D01*
X6227205Y-17231150D02*
X6255777Y-17231150D01*
X6255777Y-17231150D02*
X6274824Y-17240674D01*
X6274824Y-17240674D02*
X6284348Y-17259722D01*
X6284348Y-17259722D02*
X6284348Y-17364484D01*
X6379586Y-17364484D02*
X6379586Y-17231150D01*
X6379586Y-17250198D02*
X6389110Y-17240674D01*
X6389110Y-17240674D02*
X6408158Y-17231150D01*
X6408158Y-17231150D02*
X6436729Y-17231150D01*
X6436729Y-17231150D02*
X6455777Y-17240674D01*
X6455777Y-17240674D02*
X6465301Y-17259722D01*
X6465301Y-17259722D02*
X6465301Y-17364484D01*
X6465301Y-17259722D02*
X6474824Y-17240674D01*
X6474824Y-17240674D02*
X6493872Y-17231150D01*
X6493872Y-17231150D02*
X6522443Y-17231150D01*
X6522443Y-17231150D02*
X6541491Y-17240674D01*
X6541491Y-17240674D02*
X6551015Y-17259722D01*
X6551015Y-17259722D02*
X6551015Y-17364484D01*
X6941491Y-17154960D02*
X6770063Y-17412103D01*
X7198634Y-17164484D02*
X7217682Y-17164484D01*
X7217682Y-17164484D02*
X7236729Y-17174008D01*
X7236729Y-17174008D02*
X7246253Y-17183531D01*
X7246253Y-17183531D02*
X7255777Y-17202579D01*
X7255777Y-17202579D02*
X7265301Y-17240674D01*
X7265301Y-17240674D02*
X7265301Y-17288293D01*
X7265301Y-17288293D02*
X7255777Y-17326389D01*
X7255777Y-17326389D02*
X7246253Y-17345436D01*
X7246253Y-17345436D02*
X7236729Y-17354960D01*
X7236729Y-17354960D02*
X7217682Y-17364484D01*
X7217682Y-17364484D02*
X7198634Y-17364484D01*
X7198634Y-17364484D02*
X7179586Y-17354960D01*
X7179586Y-17354960D02*
X7170063Y-17345436D01*
X7170063Y-17345436D02*
X7160539Y-17326389D01*
X7160539Y-17326389D02*
X7151015Y-17288293D01*
X7151015Y-17288293D02*
X7151015Y-17240674D01*
X7151015Y-17240674D02*
X7160539Y-17202579D01*
X7160539Y-17202579D02*
X7170063Y-17183531D01*
X7170063Y-17183531D02*
X7179586Y-17174008D01*
X7179586Y-17174008D02*
X7198634Y-17164484D01*
X7351015Y-17345436D02*
X7360539Y-17354960D01*
X7360539Y-17354960D02*
X7351015Y-17364484D01*
X7351015Y-17364484D02*
X7341491Y-17354960D01*
X7341491Y-17354960D02*
X7351015Y-17345436D01*
X7351015Y-17345436D02*
X7351015Y-17364484D01*
X7484348Y-17164484D02*
X7503396Y-17164484D01*
X7503396Y-17164484D02*
X7522444Y-17174008D01*
X7522444Y-17174008D02*
X7531967Y-17183531D01*
X7531967Y-17183531D02*
X7541491Y-17202579D01*
X7541491Y-17202579D02*
X7551015Y-17240674D01*
X7551015Y-17240674D02*
X7551015Y-17288293D01*
X7551015Y-17288293D02*
X7541491Y-17326389D01*
X7541491Y-17326389D02*
X7531967Y-17345436D01*
X7531967Y-17345436D02*
X7522444Y-17354960D01*
X7522444Y-17354960D02*
X7503396Y-17364484D01*
X7503396Y-17364484D02*
X7484348Y-17364484D01*
X7484348Y-17364484D02*
X7465301Y-17354960D01*
X7465301Y-17354960D02*
X7455777Y-17345436D01*
X7455777Y-17345436D02*
X7446253Y-17326389D01*
X7446253Y-17326389D02*
X7436729Y-17288293D01*
X7436729Y-17288293D02*
X7436729Y-17240674D01*
X7436729Y-17240674D02*
X7446253Y-17202579D01*
X7446253Y-17202579D02*
X7455777Y-17183531D01*
X7455777Y-17183531D02*
X7465301Y-17174008D01*
X7465301Y-17174008D02*
X7484348Y-17164484D01*
X7731967Y-17164484D02*
X7636729Y-17164484D01*
X7636729Y-17164484D02*
X7627206Y-17259722D01*
X7627206Y-17259722D02*
X7636729Y-17250198D01*
X7636729Y-17250198D02*
X7655777Y-17240674D01*
X7655777Y-17240674D02*
X7703396Y-17240674D01*
X7703396Y-17240674D02*
X7722444Y-17250198D01*
X7722444Y-17250198D02*
X7731967Y-17259722D01*
X7731967Y-17259722D02*
X7741491Y-17278770D01*
X7741491Y-17278770D02*
X7741491Y-17326389D01*
X7741491Y-17326389D02*
X7731967Y-17345436D01*
X7731967Y-17345436D02*
X7722444Y-17354960D01*
X7722444Y-17354960D02*
X7703396Y-17364484D01*
X7703396Y-17364484D02*
X7655777Y-17364484D01*
X7655777Y-17364484D02*
X7636729Y-17354960D01*
X7636729Y-17354960D02*
X7627206Y-17345436D01*
X7912920Y-17164484D02*
X7874825Y-17164484D01*
X7874825Y-17164484D02*
X7855777Y-17174008D01*
X7855777Y-17174008D02*
X7846253Y-17183531D01*
X7846253Y-17183531D02*
X7827206Y-17212103D01*
X7827206Y-17212103D02*
X7817682Y-17250198D01*
X7817682Y-17250198D02*
X7817682Y-17326389D01*
X7817682Y-17326389D02*
X7827206Y-17345436D01*
X7827206Y-17345436D02*
X7836729Y-17354960D01*
X7836729Y-17354960D02*
X7855777Y-17364484D01*
X7855777Y-17364484D02*
X7893872Y-17364484D01*
X7893872Y-17364484D02*
X7912920Y-17354960D01*
X7912920Y-17354960D02*
X7922444Y-17345436D01*
X7922444Y-17345436D02*
X7931967Y-17326389D01*
X7931967Y-17326389D02*
X7931967Y-17278770D01*
X7931967Y-17278770D02*
X7922444Y-17259722D01*
X7922444Y-17259722D02*
X7912920Y-17250198D01*
X7912920Y-17250198D02*
X7893872Y-17240674D01*
X7893872Y-17240674D02*
X7855777Y-17240674D01*
X7855777Y-17240674D02*
X7836729Y-17250198D01*
X7836729Y-17250198D02*
X7827206Y-17259722D01*
X7827206Y-17259722D02*
X7817682Y-17278770D01*
X7998634Y-17164484D02*
X8122444Y-17164484D01*
X8122444Y-17164484D02*
X8055777Y-17240674D01*
X8055777Y-17240674D02*
X8084348Y-17240674D01*
X8084348Y-17240674D02*
X8103396Y-17250198D01*
X8103396Y-17250198D02*
X8112920Y-17259722D01*
X8112920Y-17259722D02*
X8122444Y-17278770D01*
X8122444Y-17278770D02*
X8122444Y-17326389D01*
X8122444Y-17326389D02*
X8112920Y-17345436D01*
X8112920Y-17345436D02*
X8103396Y-17354960D01*
X8103396Y-17354960D02*
X8084348Y-17364484D01*
X8084348Y-17364484D02*
X8027206Y-17364484D01*
X8027206Y-17364484D02*
X8008158Y-17354960D01*
X8008158Y-17354960D02*
X7998634Y-17345436D01*
X8198634Y-17164484D02*
X8198634Y-17202579D01*
X8274825Y-17164484D02*
X8274825Y-17202579D01*
X8570063Y-17440674D02*
X8560539Y-17431150D01*
X8560539Y-17431150D02*
X8541491Y-17402579D01*
X8541491Y-17402579D02*
X8531968Y-17383531D01*
X8531968Y-17383531D02*
X8522444Y-17354960D01*
X8522444Y-17354960D02*
X8512920Y-17307341D01*
X8512920Y-17307341D02*
X8512920Y-17269246D01*
X8512920Y-17269246D02*
X8522444Y-17221627D01*
X8522444Y-17221627D02*
X8531968Y-17193055D01*
X8531968Y-17193055D02*
X8541491Y-17174008D01*
X8541491Y-17174008D02*
X8560539Y-17145436D01*
X8560539Y-17145436D02*
X8570063Y-17135912D01*
X8674825Y-17250198D02*
X8655777Y-17240674D01*
X8655777Y-17240674D02*
X8646253Y-17231150D01*
X8646253Y-17231150D02*
X8636730Y-17212103D01*
X8636730Y-17212103D02*
X8636730Y-17202579D01*
X8636730Y-17202579D02*
X8646253Y-17183531D01*
X8646253Y-17183531D02*
X8655777Y-17174008D01*
X8655777Y-17174008D02*
X8674825Y-17164484D01*
X8674825Y-17164484D02*
X8712920Y-17164484D01*
X8712920Y-17164484D02*
X8731968Y-17174008D01*
X8731968Y-17174008D02*
X8741491Y-17183531D01*
X8741491Y-17183531D02*
X8751015Y-17202579D01*
X8751015Y-17202579D02*
X8751015Y-17212103D01*
X8751015Y-17212103D02*
X8741491Y-17231150D01*
X8741491Y-17231150D02*
X8731968Y-17240674D01*
X8731968Y-17240674D02*
X8712920Y-17250198D01*
X8712920Y-17250198D02*
X8674825Y-17250198D01*
X8674825Y-17250198D02*
X8655777Y-17259722D01*
X8655777Y-17259722D02*
X8646253Y-17269246D01*
X8646253Y-17269246D02*
X8636730Y-17288293D01*
X8636730Y-17288293D02*
X8636730Y-17326389D01*
X8636730Y-17326389D02*
X8646253Y-17345436D01*
X8646253Y-17345436D02*
X8655777Y-17354960D01*
X8655777Y-17354960D02*
X8674825Y-17364484D01*
X8674825Y-17364484D02*
X8712920Y-17364484D01*
X8712920Y-17364484D02*
X8731968Y-17354960D01*
X8731968Y-17354960D02*
X8741491Y-17345436D01*
X8741491Y-17345436D02*
X8751015Y-17326389D01*
X8751015Y-17326389D02*
X8751015Y-17288293D01*
X8751015Y-17288293D02*
X8741491Y-17269246D01*
X8741491Y-17269246D02*
X8731968Y-17259722D01*
X8731968Y-17259722D02*
X8712920Y-17250198D01*
X8989111Y-17364484D02*
X8989111Y-17164484D01*
X9074825Y-17364484D02*
X9074825Y-17259722D01*
X9074825Y-17259722D02*
X9065301Y-17240674D01*
X9065301Y-17240674D02*
X9046253Y-17231150D01*
X9046253Y-17231150D02*
X9017682Y-17231150D01*
X9017682Y-17231150D02*
X8998634Y-17240674D01*
X8998634Y-17240674D02*
X8989111Y-17250198D01*
X9198634Y-17364484D02*
X9179587Y-17354960D01*
X9179587Y-17354960D02*
X9170063Y-17345436D01*
X9170063Y-17345436D02*
X9160539Y-17326389D01*
X9160539Y-17326389D02*
X9160539Y-17269246D01*
X9160539Y-17269246D02*
X9170063Y-17250198D01*
X9170063Y-17250198D02*
X9179587Y-17240674D01*
X9179587Y-17240674D02*
X9198634Y-17231150D01*
X9198634Y-17231150D02*
X9227206Y-17231150D01*
X9227206Y-17231150D02*
X9246253Y-17240674D01*
X9246253Y-17240674D02*
X9255777Y-17250198D01*
X9255777Y-17250198D02*
X9265301Y-17269246D01*
X9265301Y-17269246D02*
X9265301Y-17326389D01*
X9265301Y-17326389D02*
X9255777Y-17345436D01*
X9255777Y-17345436D02*
X9246253Y-17354960D01*
X9246253Y-17354960D02*
X9227206Y-17364484D01*
X9227206Y-17364484D02*
X9198634Y-17364484D01*
X9379587Y-17364484D02*
X9360539Y-17354960D01*
X9360539Y-17354960D02*
X9351015Y-17335912D01*
X9351015Y-17335912D02*
X9351015Y-17164484D01*
X9531968Y-17354960D02*
X9512920Y-17364484D01*
X9512920Y-17364484D02*
X9474825Y-17364484D01*
X9474825Y-17364484D02*
X9455777Y-17354960D01*
X9455777Y-17354960D02*
X9446253Y-17335912D01*
X9446253Y-17335912D02*
X9446253Y-17259722D01*
X9446253Y-17259722D02*
X9455777Y-17240674D01*
X9455777Y-17240674D02*
X9474825Y-17231150D01*
X9474825Y-17231150D02*
X9512920Y-17231150D01*
X9512920Y-17231150D02*
X9531968Y-17240674D01*
X9531968Y-17240674D02*
X9541492Y-17259722D01*
X9541492Y-17259722D02*
X9541492Y-17278770D01*
X9541492Y-17278770D02*
X9446253Y-17297817D01*
X9617682Y-17354960D02*
X9636730Y-17364484D01*
X9636730Y-17364484D02*
X9674825Y-17364484D01*
X9674825Y-17364484D02*
X9693873Y-17354960D01*
X9693873Y-17354960D02*
X9703396Y-17335912D01*
X9703396Y-17335912D02*
X9703396Y-17326389D01*
X9703396Y-17326389D02*
X9693873Y-17307341D01*
X9693873Y-17307341D02*
X9674825Y-17297817D01*
X9674825Y-17297817D02*
X9646253Y-17297817D01*
X9646253Y-17297817D02*
X9627206Y-17288293D01*
X9627206Y-17288293D02*
X9617682Y-17269246D01*
X9617682Y-17269246D02*
X9617682Y-17259722D01*
X9617682Y-17259722D02*
X9627206Y-17240674D01*
X9627206Y-17240674D02*
X9646253Y-17231150D01*
X9646253Y-17231150D02*
X9674825Y-17231150D01*
X9674825Y-17231150D02*
X9693873Y-17240674D01*
X9770063Y-17440674D02*
X9779587Y-17431150D01*
X9779587Y-17431150D02*
X9798634Y-17402579D01*
X9798634Y-17402579D02*
X9808158Y-17383531D01*
X9808158Y-17383531D02*
X9817682Y-17354960D01*
X9817682Y-17354960D02*
X9827206Y-17307341D01*
X9827206Y-17307341D02*
X9827206Y-17269246D01*
X9827206Y-17269246D02*
X9817682Y-17221627D01*
X9817682Y-17221627D02*
X9808158Y-17193055D01*
X9808158Y-17193055D02*
X9798634Y-17174008D01*
X9798634Y-17174008D02*
X9779587Y-17145436D01*
X9779587Y-17145436D02*
X9770063Y-17135912D01*
M02*
