%TF.GenerationSoftware,KiCad,Pcbnew,8.0.5*%
%TF.CreationDate,2024-11-24T11:29:43+01:00*%
%TF.ProjectId,wavefolder,77617665-666f-46c6-9465-722e6b696361,rev?*%
%TF.SameCoordinates,Original*%
%TF.FileFunction,Drillmap*%
%TF.FilePolarity,Positive*%
%FSLAX45Y45*%
G04 Gerber Fmt 4.5, Leading zero omitted, Abs format (unit mm)*
G04 Created by KiCad (PCBNEW 8.0.5) date 2024-11-24 11:29:43*
%MOMM*%
%LPD*%
G01*
G04 APERTURE LIST*
%ADD10C,0.100000*%
%ADD11C,0.200000*%
G04 APERTURE END LIST*
D10*
X5000000Y-5000000D02*
X8000000Y-5000000D01*
X8000000Y-16000000D01*
X5000000Y-16000000D01*
X5000000Y-5000000D01*
D11*
X5255777Y-16316484D02*
X5255777Y-16116484D01*
X5255777Y-16116484D02*
X5303396Y-16116484D01*
X5303396Y-16116484D02*
X5331967Y-16126008D01*
X5331967Y-16126008D02*
X5351015Y-16145055D01*
X5351015Y-16145055D02*
X5360539Y-16164103D01*
X5360539Y-16164103D02*
X5370063Y-16202198D01*
X5370063Y-16202198D02*
X5370063Y-16230769D01*
X5370063Y-16230769D02*
X5360539Y-16268865D01*
X5360539Y-16268865D02*
X5351015Y-16287912D01*
X5351015Y-16287912D02*
X5331967Y-16306960D01*
X5331967Y-16306960D02*
X5303396Y-16316484D01*
X5303396Y-16316484D02*
X5255777Y-16316484D01*
X5455777Y-16316484D02*
X5455777Y-16183150D01*
X5455777Y-16221246D02*
X5465301Y-16202198D01*
X5465301Y-16202198D02*
X5474824Y-16192674D01*
X5474824Y-16192674D02*
X5493872Y-16183150D01*
X5493872Y-16183150D02*
X5512920Y-16183150D01*
X5579586Y-16316484D02*
X5579586Y-16183150D01*
X5579586Y-16116484D02*
X5570063Y-16126008D01*
X5570063Y-16126008D02*
X5579586Y-16135531D01*
X5579586Y-16135531D02*
X5589110Y-16126008D01*
X5589110Y-16126008D02*
X5579586Y-16116484D01*
X5579586Y-16116484D02*
X5579586Y-16135531D01*
X5703396Y-16316484D02*
X5684348Y-16306960D01*
X5684348Y-16306960D02*
X5674824Y-16287912D01*
X5674824Y-16287912D02*
X5674824Y-16116484D01*
X5808158Y-16316484D02*
X5789110Y-16306960D01*
X5789110Y-16306960D02*
X5779586Y-16287912D01*
X5779586Y-16287912D02*
X5779586Y-16116484D01*
X6036729Y-16316484D02*
X6036729Y-16116484D01*
X6036729Y-16116484D02*
X6103396Y-16259341D01*
X6103396Y-16259341D02*
X6170062Y-16116484D01*
X6170062Y-16116484D02*
X6170062Y-16316484D01*
X6351015Y-16316484D02*
X6351015Y-16211722D01*
X6351015Y-16211722D02*
X6341491Y-16192674D01*
X6341491Y-16192674D02*
X6322443Y-16183150D01*
X6322443Y-16183150D02*
X6284348Y-16183150D01*
X6284348Y-16183150D02*
X6265301Y-16192674D01*
X6351015Y-16306960D02*
X6331967Y-16316484D01*
X6331967Y-16316484D02*
X6284348Y-16316484D01*
X6284348Y-16316484D02*
X6265301Y-16306960D01*
X6265301Y-16306960D02*
X6255777Y-16287912D01*
X6255777Y-16287912D02*
X6255777Y-16268865D01*
X6255777Y-16268865D02*
X6265301Y-16249817D01*
X6265301Y-16249817D02*
X6284348Y-16240293D01*
X6284348Y-16240293D02*
X6331967Y-16240293D01*
X6331967Y-16240293D02*
X6351015Y-16230769D01*
X6446253Y-16183150D02*
X6446253Y-16383150D01*
X6446253Y-16192674D02*
X6465301Y-16183150D01*
X6465301Y-16183150D02*
X6503396Y-16183150D01*
X6503396Y-16183150D02*
X6522443Y-16192674D01*
X6522443Y-16192674D02*
X6531967Y-16202198D01*
X6531967Y-16202198D02*
X6541491Y-16221246D01*
X6541491Y-16221246D02*
X6541491Y-16278388D01*
X6541491Y-16278388D02*
X6531967Y-16297436D01*
X6531967Y-16297436D02*
X6522443Y-16306960D01*
X6522443Y-16306960D02*
X6503396Y-16316484D01*
X6503396Y-16316484D02*
X6465301Y-16316484D01*
X6465301Y-16316484D02*
X6446253Y-16306960D01*
X6627205Y-16297436D02*
X6636729Y-16306960D01*
X6636729Y-16306960D02*
X6627205Y-16316484D01*
X6627205Y-16316484D02*
X6617682Y-16306960D01*
X6617682Y-16306960D02*
X6627205Y-16297436D01*
X6627205Y-16297436D02*
X6627205Y-16316484D01*
X6627205Y-16192674D02*
X6636729Y-16202198D01*
X6636729Y-16202198D02*
X6627205Y-16211722D01*
X6627205Y-16211722D02*
X6617682Y-16202198D01*
X6617682Y-16202198D02*
X6627205Y-16192674D01*
X6627205Y-16192674D02*
X6627205Y-16211722D01*
M02*
