M48
; DRILL file {KiCad 8.0.2-1} date 2024-09-25T20:59:36+0200
; FORMAT={-:-/ absolute / metric / decimal}
; #@! TF.CreationDate,2024-09-25T20:59:36+02:00
; #@! TF.GenerationSoftware,Kicad,Pcbnew,8.0.2-1
; #@! TF.FileFunction,Plated,1,2,PTH
FMAT,2
METRIC
; #@! TA.AperFunction,Plated,PTH,ViaDrill
T1C0.400
; #@! TA.AperFunction,Plated,PTH,ComponentDrill
T2C0.800
; #@! TA.AperFunction,Plated,PTH,ComponentDrill
T3C1.000
; #@! TA.AperFunction,Plated,PTH,ComponentDrill
T4C1.220
; #@! TA.AperFunction,Plated,PTH,ComponentDrill
T5C1.420
; #@! TA.AperFunction,Plated,PTH,ComponentDrill
T6C1.430
; #@! TA.AperFunction,Plated,PTH,ComponentDrill
T7C2.000
%
G90
G05
T1
X101.55Y-105.6
X101.576Y-141.1
X102.1Y-125.6
X102.4Y-136.5
X102.9Y-82.4
X103.6Y-119.7
X103.7Y-105.3
X104.6Y-119.7
X104.9Y-116.5
X106.0Y-84.4
X106.3Y-110.7
X106.4Y-109.4
X106.5Y-128.4
X106.9Y-118.5
X107.15Y-101.9
X108.15Y-126.0
X108.89Y-99.93
X109.4Y-101.5
X110.015Y-109.938
X110.7Y-145.1
X112.2Y-78.5
X112.6Y-155.4
X113.3Y-137.5
X113.75Y-128.6
X114.1Y-112.9
X115.0Y-117.4
X115.6Y-81.65
X115.9Y-146.4
X116.0Y-158.8
X116.25Y-93.3
X117.5Y-86.0
X118.0Y-106.9
X118.1Y-81.15
X118.2Y-125.4
X118.8Y-155.5
X120.6Y-137.5
X120.9Y-109.8
X122.5Y-83.2
X127.5Y-86.2
X128.65Y-81.5
T2
X103.7Y-52.5
X103.7Y-55.0
X106.5Y-92.96
X106.5Y-95.5
X106.5Y-98.04
X106.5Y-119.95
X106.5Y-122.49
X106.5Y-125.03
X126.25Y-52.432
X126.25Y-54.932
T3
X102.6Y-130.9
X103.7Y-58.9
X104.9Y-67.7
X109.9Y-82.4
X112.5Y-67.5
X112.5Y-95.5
X112.5Y-122.5
X113.84Y-72.75
X113.84Y-75.29
X115.0Y-51.8
X115.0Y-67.5
X115.0Y-95.5
X115.0Y-122.5
X116.38Y-72.75
X116.38Y-75.29
X117.5Y-67.5
X117.5Y-95.5
X117.5Y-122.5
X118.92Y-72.75
X118.92Y-75.29
X121.46Y-72.75
X121.46Y-75.29
X123.6Y-87.3
X124.0Y-72.75
X124.0Y-75.29
X124.4Y-114.4
X126.1Y-89.6
X126.2Y-58.8
T4
X106.0Y-146.9
X121.48Y-140.0
X124.0Y-146.9
T5
X106.0Y-150.0
X118.38Y-140.0
X124.0Y-150.0
T6
X106.0Y-158.3
X110.08Y-140.0
X124.0Y-158.3
T7
X110.25Y-60.0
X110.25Y-88.0
X110.25Y-115.0
X119.75Y-60.0
X119.75Y-88.0
X119.75Y-115.0
M30
