G04 #@! TF.GenerationSoftware,KiCad,Pcbnew,8.0.5*
G04 #@! TF.CreationDate,2024-11-24T11:29:42+01:00*
G04 #@! TF.ProjectId,wavefolder,77617665-666f-46c6-9465-722e6b696361,rev?*
G04 #@! TF.SameCoordinates,Original*
G04 #@! TF.FileFunction,Soldermask,Top*
G04 #@! TF.FilePolarity,Negative*
%FSLAX46Y46*%
G04 Gerber Fmt 4.6, Leading zero omitted, Abs format (unit mm)*
G04 Created by KiCad (PCBNEW 8.0.5) date 2024-11-24 11:29:42*
%MOMM*%
%LPD*%
G01*
G04 APERTURE LIST*
G04 Aperture macros list*
%AMRoundRect*
0 Rectangle with rounded corners*
0 $1 Rounding radius*
0 $2 $3 $4 $5 $6 $7 $8 $9 X,Y pos of 4 corners*
0 Add a 4 corners polygon primitive as box body*
4,1,4,$2,$3,$4,$5,$6,$7,$8,$9,$2,$3,0*
0 Add four circle primitives for the rounded corners*
1,1,$1+$1,$2,$3*
1,1,$1+$1,$4,$5*
1,1,$1+$1,$6,$7*
1,1,$1+$1,$8,$9*
0 Add four rect primitives between the rounded corners*
20,1,$1+$1,$2,$3,$4,$5,0*
20,1,$1+$1,$4,$5,$6,$7,0*
20,1,$1+$1,$6,$7,$8,$9,0*
20,1,$1+$1,$8,$9,$2,$3,0*%
G04 Aperture macros list end*
%ADD10R,1.930000X1.830000*%
%ADD11C,2.130000*%
%ADD12R,1.830000X1.930000*%
%ADD13O,4.000000X4.000000*%
%ADD14R,1.800000X1.800000*%
%ADD15C,1.800000*%
%ADD16C,1.440000*%
%ADD17RoundRect,0.250000X0.600000X-0.600000X0.600000X0.600000X-0.600000X0.600000X-0.600000X-0.600000X0*%
%ADD18C,1.700000*%
%ADD19C,2.000000*%
%ADD20R,1.600000X1.600000*%
%ADD21C,1.600000*%
G04 APERTURE END LIST*
D10*
X56000000Y-146900000D03*
D11*
X56000000Y-158300000D03*
X56000000Y-150000000D03*
D12*
X71480000Y-140000000D03*
D11*
X60080000Y-140000000D03*
X68380000Y-140000000D03*
D10*
X74000000Y-146900000D03*
D11*
X74000000Y-158300000D03*
X74000000Y-150000000D03*
D13*
X60250000Y-115000000D03*
X69750000Y-115000000D03*
D14*
X62500000Y-122500000D03*
D15*
X65000000Y-122500000D03*
X67500000Y-122500000D03*
D16*
X56500000Y-119950000D03*
X56500000Y-122490000D03*
X56500000Y-125030000D03*
D13*
X60250000Y-88000000D03*
X69750000Y-88000000D03*
D14*
X62500000Y-95500000D03*
D15*
X65000000Y-95500000D03*
X67500000Y-95500000D03*
D16*
X56500000Y-92960000D03*
X56500000Y-95500000D03*
X56500000Y-98040000D03*
D13*
X60250000Y-60000000D03*
X69750000Y-60000000D03*
D14*
X62500000Y-67500000D03*
D15*
X65000000Y-67500000D03*
X67500000Y-67500000D03*
D17*
X74000000Y-75000000D03*
D18*
X74000000Y-72460000D03*
X71460000Y-75000000D03*
X71460000Y-72460000D03*
X68920000Y-75000000D03*
X68920000Y-72460000D03*
X66380000Y-75000000D03*
X66380000Y-72460000D03*
X63840000Y-75000000D03*
X63840000Y-72460000D03*
D19*
X77250000Y-80400000D03*
X51900000Y-139500000D03*
D20*
X77382380Y-53800000D03*
D21*
X74882380Y-53800000D03*
D19*
X51900000Y-58400000D03*
X72500000Y-110000000D03*
D20*
X55100000Y-53800000D03*
D21*
X52600000Y-53800000D03*
D19*
X78100000Y-58400000D03*
X53500000Y-105000000D03*
X65000000Y-53100000D03*
X52800000Y-111000000D03*
X65750000Y-128750000D03*
M02*
