G04 #@! TF.GenerationSoftware,KiCad,Pcbnew,8.0.2-1*
G04 #@! TF.CreationDate,2024-09-25T20:59:28+02:00*
G04 #@! TF.ProjectId,wavefolder,77617665-666f-46c6-9465-722e6b696361,rev?*
G04 #@! TF.SameCoordinates,Original*
G04 #@! TF.FileFunction,Legend,Bot*
G04 #@! TF.FilePolarity,Positive*
%FSLAX46Y46*%
G04 Gerber Fmt 4.6, Leading zero omitted, Abs format (unit mm)*
G04 Created by KiCad (PCBNEW 8.0.2-1) date 2024-09-25 20:59:28*
%MOMM*%
%LPD*%
G01*
G04 APERTURE LIST*
G04 Aperture macros list*
%AMRoundRect*
0 Rectangle with rounded corners*
0 $1 Rounding radius*
0 $2 $3 $4 $5 $6 $7 $8 $9 X,Y pos of 4 corners*
0 Add a 4 corners polygon primitive as box body*
4,1,4,$2,$3,$4,$5,$6,$7,$8,$9,$2,$3,0*
0 Add four circle primitives for the rounded corners*
1,1,$1+$1,$2,$3*
1,1,$1+$1,$4,$5*
1,1,$1+$1,$6,$7*
1,1,$1+$1,$8,$9*
0 Add four rect primitives between the rounded corners*
20,1,$1+$1,$2,$3,$4,$5,0*
20,1,$1+$1,$4,$5,$6,$7,0*
20,1,$1+$1,$6,$7,$8,$9,0*
20,1,$1+$1,$8,$9,$2,$3,0*%
G04 Aperture macros list end*
%ADD10C,0.150000*%
%ADD11C,0.100000*%
%ADD12C,0.120000*%
%ADD13C,0.000000*%
%ADD14C,1.000000*%
%ADD15R,1.930000X1.830000*%
%ADD16C,2.130000*%
%ADD17C,2.000000*%
%ADD18R,1.830000X1.930000*%
%ADD19O,4.000000X4.000000*%
%ADD20R,1.800000X1.800000*%
%ADD21C,1.800000*%
%ADD22C,1.440000*%
%ADD23RoundRect,0.250000X0.350000X0.450000X-0.350000X0.450000X-0.350000X-0.450000X0.350000X-0.450000X0*%
%ADD24RoundRect,0.250000X-0.350000X-0.450000X0.350000X-0.450000X0.350000X0.450000X-0.350000X0.450000X0*%
%ADD25RoundRect,0.250000X-0.450000X0.350000X-0.450000X-0.350000X0.450000X-0.350000X0.450000X0.350000X0*%
%ADD26RoundRect,0.225000X0.375000X-0.225000X0.375000X0.225000X-0.375000X0.225000X-0.375000X-0.225000X0*%
%ADD27RoundRect,0.150000X-0.587500X-0.150000X0.587500X-0.150000X0.587500X0.150000X-0.587500X0.150000X0*%
%ADD28RoundRect,0.250000X0.450000X-0.350000X0.450000X0.350000X-0.450000X0.350000X-0.450000X-0.350000X0*%
%ADD29RoundRect,0.250000X-0.475000X0.337500X-0.475000X-0.337500X0.475000X-0.337500X0.475000X0.337500X0*%
%ADD30RoundRect,0.225000X-0.375000X0.225000X-0.375000X-0.225000X0.375000X-0.225000X0.375000X0.225000X0*%
%ADD31R,1.600000X1.600000*%
%ADD32C,1.600000*%
%ADD33RoundRect,0.225000X0.225000X0.375000X-0.225000X0.375000X-0.225000X-0.375000X0.225000X-0.375000X0*%
%ADD34RoundRect,0.250000X-0.600000X0.600000X-0.600000X-0.600000X0.600000X-0.600000X0.600000X0.600000X0*%
%ADD35C,1.700000*%
%ADD36RoundRect,0.150000X0.587500X0.150000X-0.587500X0.150000X-0.587500X-0.150000X0.587500X-0.150000X0*%
%ADD37RoundRect,0.150000X0.150000X-0.725000X0.150000X0.725000X-0.150000X0.725000X-0.150000X-0.725000X0*%
%ADD38RoundRect,0.250000X-0.337500X-0.475000X0.337500X-0.475000X0.337500X0.475000X-0.337500X0.475000X0*%
%ADD39RoundRect,0.225000X-0.225000X-0.375000X0.225000X-0.375000X0.225000X0.375000X-0.225000X0.375000X0*%
%ADD40RoundRect,0.250000X0.475000X-0.337500X0.475000X0.337500X-0.475000X0.337500X-0.475000X-0.337500X0*%
%ADD41RoundRect,0.150000X0.825000X0.150000X-0.825000X0.150000X-0.825000X-0.150000X0.825000X-0.150000X0*%
G04 APERTURE END LIST*
D10*
X105863220Y-133669819D02*
X105863220Y-132669819D01*
X105387030Y-133669819D02*
X105387030Y-132669819D01*
X105387030Y-132669819D02*
X104815602Y-133669819D01*
X104815602Y-133669819D02*
X104815602Y-132669819D01*
X104339411Y-133669819D02*
X104339411Y-132669819D01*
X104339411Y-132669819D02*
X103958459Y-132669819D01*
X103958459Y-132669819D02*
X103863221Y-132717438D01*
X103863221Y-132717438D02*
X103815602Y-132765057D01*
X103815602Y-132765057D02*
X103767983Y-132860295D01*
X103767983Y-132860295D02*
X103767983Y-133003152D01*
X103767983Y-133003152D02*
X103815602Y-133098390D01*
X103815602Y-133098390D02*
X103863221Y-133146009D01*
X103863221Y-133146009D02*
X103958459Y-133193628D01*
X103958459Y-133193628D02*
X104339411Y-133193628D01*
X103339411Y-132669819D02*
X103339411Y-133479342D01*
X103339411Y-133479342D02*
X103291792Y-133574580D01*
X103291792Y-133574580D02*
X103244173Y-133622200D01*
X103244173Y-133622200D02*
X103148935Y-133669819D01*
X103148935Y-133669819D02*
X102958459Y-133669819D01*
X102958459Y-133669819D02*
X102863221Y-133622200D01*
X102863221Y-133622200D02*
X102815602Y-133574580D01*
X102815602Y-133574580D02*
X102767983Y-133479342D01*
X102767983Y-133479342D02*
X102767983Y-132669819D01*
X102434649Y-132669819D02*
X101863221Y-132669819D01*
X102148935Y-133669819D02*
X102148935Y-132669819D01*
X126856200Y-112851064D02*
X126894295Y-112965350D01*
X126894295Y-112965350D02*
X126894295Y-113155826D01*
X126894295Y-113155826D02*
X126856200Y-113232017D01*
X126856200Y-113232017D02*
X126818104Y-113270112D01*
X126818104Y-113270112D02*
X126741914Y-113308207D01*
X126741914Y-113308207D02*
X126665723Y-113308207D01*
X126665723Y-113308207D02*
X126589533Y-113270112D01*
X126589533Y-113270112D02*
X126551438Y-113232017D01*
X126551438Y-113232017D02*
X126513342Y-113155826D01*
X126513342Y-113155826D02*
X126475247Y-113003445D01*
X126475247Y-113003445D02*
X126437152Y-112927255D01*
X126437152Y-112927255D02*
X126399057Y-112889160D01*
X126399057Y-112889160D02*
X126322866Y-112851064D01*
X126322866Y-112851064D02*
X126246676Y-112851064D01*
X126246676Y-112851064D02*
X126170485Y-112889160D01*
X126170485Y-112889160D02*
X126132390Y-112927255D01*
X126132390Y-112927255D02*
X126094295Y-113003445D01*
X126094295Y-113003445D02*
X126094295Y-113193922D01*
X126094295Y-113193922D02*
X126132390Y-113308207D01*
X126894295Y-113651065D02*
X126094295Y-113651065D01*
X126475247Y-113651065D02*
X126475247Y-114108208D01*
X126894295Y-114108208D02*
X126094295Y-114108208D01*
X126894295Y-114489160D02*
X126094295Y-114489160D01*
X126094295Y-114489160D02*
X126094295Y-114793922D01*
X126094295Y-114793922D02*
X126132390Y-114870112D01*
X126132390Y-114870112D02*
X126170485Y-114908207D01*
X126170485Y-114908207D02*
X126246676Y-114946303D01*
X126246676Y-114946303D02*
X126360961Y-114946303D01*
X126360961Y-114946303D02*
X126437152Y-114908207D01*
X126437152Y-114908207D02*
X126475247Y-114870112D01*
X126475247Y-114870112D02*
X126513342Y-114793922D01*
X126513342Y-114793922D02*
X126513342Y-114489160D01*
X126970485Y-115098684D02*
X126970485Y-115708207D01*
X126894295Y-115898684D02*
X126094295Y-115898684D01*
X126894295Y-116279636D02*
X126094295Y-116279636D01*
X126094295Y-116279636D02*
X126894295Y-116736779D01*
X126894295Y-116736779D02*
X126094295Y-116736779D01*
X124244173Y-90775247D02*
X124510839Y-90775247D01*
X124510839Y-91194295D02*
X124510839Y-90394295D01*
X124510839Y-90394295D02*
X124129887Y-90394295D01*
X123672744Y-90394295D02*
X123520363Y-90394295D01*
X123520363Y-90394295D02*
X123444173Y-90432390D01*
X123444173Y-90432390D02*
X123367982Y-90508580D01*
X123367982Y-90508580D02*
X123329887Y-90660961D01*
X123329887Y-90660961D02*
X123329887Y-90927628D01*
X123329887Y-90927628D02*
X123367982Y-91080009D01*
X123367982Y-91080009D02*
X123444173Y-91156200D01*
X123444173Y-91156200D02*
X123520363Y-91194295D01*
X123520363Y-91194295D02*
X123672744Y-91194295D01*
X123672744Y-91194295D02*
X123748935Y-91156200D01*
X123748935Y-91156200D02*
X123825125Y-91080009D01*
X123825125Y-91080009D02*
X123863221Y-90927628D01*
X123863221Y-90927628D02*
X123863221Y-90660961D01*
X123863221Y-90660961D02*
X123825125Y-90508580D01*
X123825125Y-90508580D02*
X123748935Y-90432390D01*
X123748935Y-90432390D02*
X123672744Y-90394295D01*
X122606078Y-91194295D02*
X122987030Y-91194295D01*
X122987030Y-91194295D02*
X122987030Y-90394295D01*
X122339411Y-91194295D02*
X122339411Y-90394295D01*
X122339411Y-90394295D02*
X122148935Y-90394295D01*
X122148935Y-90394295D02*
X122034649Y-90432390D01*
X122034649Y-90432390D02*
X121958459Y-90508580D01*
X121958459Y-90508580D02*
X121920364Y-90584771D01*
X121920364Y-90584771D02*
X121882268Y-90737152D01*
X121882268Y-90737152D02*
X121882268Y-90851438D01*
X121882268Y-90851438D02*
X121920364Y-91003819D01*
X121920364Y-91003819D02*
X121958459Y-91080009D01*
X121958459Y-91080009D02*
X122034649Y-91156200D01*
X122034649Y-91156200D02*
X122148935Y-91194295D01*
X122148935Y-91194295D02*
X122339411Y-91194295D01*
X121729888Y-91270485D02*
X121120364Y-91270485D01*
X120777506Y-90394295D02*
X120625125Y-90394295D01*
X120625125Y-90394295D02*
X120548935Y-90432390D01*
X120548935Y-90432390D02*
X120472744Y-90508580D01*
X120472744Y-90508580D02*
X120434649Y-90660961D01*
X120434649Y-90660961D02*
X120434649Y-90927628D01*
X120434649Y-90927628D02*
X120472744Y-91080009D01*
X120472744Y-91080009D02*
X120548935Y-91156200D01*
X120548935Y-91156200D02*
X120625125Y-91194295D01*
X120625125Y-91194295D02*
X120777506Y-91194295D01*
X120777506Y-91194295D02*
X120853697Y-91156200D01*
X120853697Y-91156200D02*
X120929887Y-91080009D01*
X120929887Y-91080009D02*
X120967983Y-90927628D01*
X120967983Y-90927628D02*
X120967983Y-90660961D01*
X120967983Y-90660961D02*
X120929887Y-90508580D01*
X120929887Y-90508580D02*
X120853697Y-90432390D01*
X120853697Y-90432390D02*
X120777506Y-90394295D01*
X120091792Y-90394295D02*
X120091792Y-91041914D01*
X120091792Y-91041914D02*
X120053697Y-91118104D01*
X120053697Y-91118104D02*
X120015602Y-91156200D01*
X120015602Y-91156200D02*
X119939411Y-91194295D01*
X119939411Y-91194295D02*
X119787030Y-91194295D01*
X119787030Y-91194295D02*
X119710840Y-91156200D01*
X119710840Y-91156200D02*
X119672745Y-91118104D01*
X119672745Y-91118104D02*
X119634649Y-91041914D01*
X119634649Y-91041914D02*
X119634649Y-90394295D01*
X119367983Y-90394295D02*
X118910840Y-90394295D01*
X119139412Y-91194295D02*
X119139412Y-90394295D01*
X128729887Y-86446009D02*
X129063220Y-86446009D01*
X129063220Y-86969819D02*
X129063220Y-85969819D01*
X129063220Y-85969819D02*
X128587030Y-85969819D01*
X128444173Y-87065057D02*
X127682268Y-87065057D01*
X127491791Y-86922200D02*
X127348934Y-86969819D01*
X127348934Y-86969819D02*
X127110839Y-86969819D01*
X127110839Y-86969819D02*
X127015601Y-86922200D01*
X127015601Y-86922200D02*
X126967982Y-86874580D01*
X126967982Y-86874580D02*
X126920363Y-86779342D01*
X126920363Y-86779342D02*
X126920363Y-86684104D01*
X126920363Y-86684104D02*
X126967982Y-86588866D01*
X126967982Y-86588866D02*
X127015601Y-86541247D01*
X127015601Y-86541247D02*
X127110839Y-86493628D01*
X127110839Y-86493628D02*
X127301315Y-86446009D01*
X127301315Y-86446009D02*
X127396553Y-86398390D01*
X127396553Y-86398390D02*
X127444172Y-86350771D01*
X127444172Y-86350771D02*
X127491791Y-86255533D01*
X127491791Y-86255533D02*
X127491791Y-86160295D01*
X127491791Y-86160295D02*
X127444172Y-86065057D01*
X127444172Y-86065057D02*
X127396553Y-86017438D01*
X127396553Y-86017438D02*
X127301315Y-85969819D01*
X127301315Y-85969819D02*
X127063220Y-85969819D01*
X127063220Y-85969819D02*
X126920363Y-86017438D01*
X126634648Y-85969819D02*
X126063220Y-85969819D01*
X126348934Y-86969819D02*
X126348934Y-85969819D01*
X125206077Y-86017438D02*
X125301315Y-85969819D01*
X125301315Y-85969819D02*
X125444172Y-85969819D01*
X125444172Y-85969819D02*
X125587029Y-86017438D01*
X125587029Y-86017438D02*
X125682267Y-86112676D01*
X125682267Y-86112676D02*
X125729886Y-86207914D01*
X125729886Y-86207914D02*
X125777505Y-86398390D01*
X125777505Y-86398390D02*
X125777505Y-86541247D01*
X125777505Y-86541247D02*
X125729886Y-86731723D01*
X125729886Y-86731723D02*
X125682267Y-86826961D01*
X125682267Y-86826961D02*
X125587029Y-86922200D01*
X125587029Y-86922200D02*
X125444172Y-86969819D01*
X125444172Y-86969819D02*
X125348934Y-86969819D01*
X125348934Y-86969819D02*
X125206077Y-86922200D01*
X125206077Y-86922200D02*
X125158458Y-86874580D01*
X125158458Y-86874580D02*
X125158458Y-86541247D01*
X125158458Y-86541247D02*
X125348934Y-86541247D01*
X111563220Y-80769819D02*
X111563220Y-79769819D01*
X111563220Y-80246009D02*
X110991792Y-80246009D01*
X110991792Y-80769819D02*
X110991792Y-79769819D01*
X110563220Y-80484104D02*
X110087030Y-80484104D01*
X110658458Y-80769819D02*
X110325125Y-79769819D01*
X110325125Y-79769819D02*
X109991792Y-80769819D01*
X109182268Y-80769819D02*
X109658458Y-80769819D01*
X109658458Y-80769819D02*
X109658458Y-79769819D01*
X108515601Y-80246009D02*
X108848934Y-80246009D01*
X108848934Y-80769819D02*
X108848934Y-79769819D01*
X108848934Y-79769819D02*
X108372744Y-79769819D01*
X108272744Y-64969819D02*
X108082268Y-64969819D01*
X108082268Y-64969819D02*
X107987030Y-65017438D01*
X107987030Y-65017438D02*
X107891792Y-65112676D01*
X107891792Y-65112676D02*
X107844173Y-65303152D01*
X107844173Y-65303152D02*
X107844173Y-65636485D01*
X107844173Y-65636485D02*
X107891792Y-65826961D01*
X107891792Y-65826961D02*
X107987030Y-65922200D01*
X107987030Y-65922200D02*
X108082268Y-65969819D01*
X108082268Y-65969819D02*
X108272744Y-65969819D01*
X108272744Y-65969819D02*
X108367982Y-65922200D01*
X108367982Y-65922200D02*
X108463220Y-65826961D01*
X108463220Y-65826961D02*
X108510839Y-65636485D01*
X108510839Y-65636485D02*
X108510839Y-65303152D01*
X108510839Y-65303152D02*
X108463220Y-65112676D01*
X108463220Y-65112676D02*
X108367982Y-65017438D01*
X108367982Y-65017438D02*
X108272744Y-64969819D01*
X107415601Y-64969819D02*
X107415601Y-65779342D01*
X107415601Y-65779342D02*
X107367982Y-65874580D01*
X107367982Y-65874580D02*
X107320363Y-65922200D01*
X107320363Y-65922200D02*
X107225125Y-65969819D01*
X107225125Y-65969819D02*
X107034649Y-65969819D01*
X107034649Y-65969819D02*
X106939411Y-65922200D01*
X106939411Y-65922200D02*
X106891792Y-65874580D01*
X106891792Y-65874580D02*
X106844173Y-65779342D01*
X106844173Y-65779342D02*
X106844173Y-64969819D01*
X106510839Y-64969819D02*
X105939411Y-64969819D01*
X106225125Y-65969819D02*
X106225125Y-64969819D01*
X105606077Y-65969819D02*
X105606077Y-64969819D01*
X105606077Y-64969819D02*
X105225125Y-64969819D01*
X105225125Y-64969819D02*
X105129887Y-65017438D01*
X105129887Y-65017438D02*
X105082268Y-65065057D01*
X105082268Y-65065057D02*
X105034649Y-65160295D01*
X105034649Y-65160295D02*
X105034649Y-65303152D01*
X105034649Y-65303152D02*
X105082268Y-65398390D01*
X105082268Y-65398390D02*
X105129887Y-65446009D01*
X105129887Y-65446009D02*
X105225125Y-65493628D01*
X105225125Y-65493628D02*
X105606077Y-65493628D01*
X104606077Y-64969819D02*
X104606077Y-65779342D01*
X104606077Y-65779342D02*
X104558458Y-65874580D01*
X104558458Y-65874580D02*
X104510839Y-65922200D01*
X104510839Y-65922200D02*
X104415601Y-65969819D01*
X104415601Y-65969819D02*
X104225125Y-65969819D01*
X104225125Y-65969819D02*
X104129887Y-65922200D01*
X104129887Y-65922200D02*
X104082268Y-65874580D01*
X104082268Y-65874580D02*
X104034649Y-65779342D01*
X104034649Y-65779342D02*
X104034649Y-64969819D01*
X103701315Y-64969819D02*
X103129887Y-64969819D01*
X103415601Y-65969819D02*
X103415601Y-64969819D01*
X100430180Y-128887030D02*
X100430180Y-129363220D01*
X100430180Y-129363220D02*
X101430180Y-129363220D01*
X100953990Y-128553696D02*
X100953990Y-128220363D01*
X100430180Y-128077506D02*
X100430180Y-128553696D01*
X100430180Y-128553696D02*
X101430180Y-128553696D01*
X101430180Y-128553696D02*
X101430180Y-128077506D01*
X100430180Y-127648934D02*
X101430180Y-127648934D01*
X101430180Y-127648934D02*
X100430180Y-127077506D01*
X100430180Y-127077506D02*
X101430180Y-127077506D01*
X100430180Y-126601315D02*
X101430180Y-126601315D01*
X100430180Y-126125125D02*
X101430180Y-126125125D01*
X101430180Y-126125125D02*
X100715895Y-125791792D01*
X100715895Y-125791792D02*
X101430180Y-125458459D01*
X101430180Y-125458459D02*
X100430180Y-125458459D01*
X100715895Y-125029887D02*
X100715895Y-124553697D01*
X100430180Y-125125125D02*
X101430180Y-124791792D01*
X101430180Y-124791792D02*
X100430180Y-124458459D01*
X100430180Y-123648935D02*
X100430180Y-124125125D01*
X100430180Y-124125125D02*
X101430180Y-124125125D01*
X100430180Y-122553696D02*
X101430180Y-122553696D01*
X101430180Y-122553696D02*
X101430180Y-122172744D01*
X101430180Y-122172744D02*
X101382561Y-122077506D01*
X101382561Y-122077506D02*
X101334942Y-122029887D01*
X101334942Y-122029887D02*
X101239704Y-121982268D01*
X101239704Y-121982268D02*
X101096847Y-121982268D01*
X101096847Y-121982268D02*
X101001609Y-122029887D01*
X101001609Y-122029887D02*
X100953990Y-122077506D01*
X100953990Y-122077506D02*
X100906371Y-122172744D01*
X100906371Y-122172744D02*
X100906371Y-122553696D01*
X100525419Y-120982268D02*
X100477800Y-121029887D01*
X100477800Y-121029887D02*
X100430180Y-121172744D01*
X100430180Y-121172744D02*
X100430180Y-121267982D01*
X100430180Y-121267982D02*
X100477800Y-121410839D01*
X100477800Y-121410839D02*
X100573038Y-121506077D01*
X100573038Y-121506077D02*
X100668276Y-121553696D01*
X100668276Y-121553696D02*
X100858752Y-121601315D01*
X100858752Y-121601315D02*
X101001609Y-121601315D01*
X101001609Y-121601315D02*
X101192085Y-121553696D01*
X101192085Y-121553696D02*
X101287323Y-121506077D01*
X101287323Y-121506077D02*
X101382561Y-121410839D01*
X101382561Y-121410839D02*
X101430180Y-121267982D01*
X101430180Y-121267982D02*
X101430180Y-121172744D01*
X101430180Y-121172744D02*
X101382561Y-121029887D01*
X101382561Y-121029887D02*
X101334942Y-120982268D01*
X100953990Y-120220363D02*
X100906371Y-120077506D01*
X100906371Y-120077506D02*
X100858752Y-120029887D01*
X100858752Y-120029887D02*
X100763514Y-119982268D01*
X100763514Y-119982268D02*
X100620657Y-119982268D01*
X100620657Y-119982268D02*
X100525419Y-120029887D01*
X100525419Y-120029887D02*
X100477800Y-120077506D01*
X100477800Y-120077506D02*
X100430180Y-120172744D01*
X100430180Y-120172744D02*
X100430180Y-120553696D01*
X100430180Y-120553696D02*
X101430180Y-120553696D01*
X101430180Y-120553696D02*
X101430180Y-120220363D01*
X101430180Y-120220363D02*
X101382561Y-120125125D01*
X101382561Y-120125125D02*
X101334942Y-120077506D01*
X101334942Y-120077506D02*
X101239704Y-120029887D01*
X101239704Y-120029887D02*
X101144466Y-120029887D01*
X101144466Y-120029887D02*
X101049228Y-120077506D01*
X101049228Y-120077506D02*
X101001609Y-120125125D01*
X101001609Y-120125125D02*
X100953990Y-120220363D01*
X100953990Y-120220363D02*
X100953990Y-120553696D01*
X100430180Y-118791791D02*
X101430180Y-118791791D01*
X101430180Y-118791791D02*
X101430180Y-118553696D01*
X101430180Y-118553696D02*
X101382561Y-118410839D01*
X101382561Y-118410839D02*
X101287323Y-118315601D01*
X101287323Y-118315601D02*
X101192085Y-118267982D01*
X101192085Y-118267982D02*
X101001609Y-118220363D01*
X101001609Y-118220363D02*
X100858752Y-118220363D01*
X100858752Y-118220363D02*
X100668276Y-118267982D01*
X100668276Y-118267982D02*
X100573038Y-118315601D01*
X100573038Y-118315601D02*
X100477800Y-118410839D01*
X100477800Y-118410839D02*
X100430180Y-118553696D01*
X100430180Y-118553696D02*
X100430180Y-118791791D01*
X100953990Y-117791791D02*
X100953990Y-117458458D01*
X100430180Y-117315601D02*
X100430180Y-117791791D01*
X100430180Y-117791791D02*
X101430180Y-117791791D01*
X101430180Y-117791791D02*
X101430180Y-117315601D01*
X100477800Y-116934648D02*
X100430180Y-116791791D01*
X100430180Y-116791791D02*
X100430180Y-116553696D01*
X100430180Y-116553696D02*
X100477800Y-116458458D01*
X100477800Y-116458458D02*
X100525419Y-116410839D01*
X100525419Y-116410839D02*
X100620657Y-116363220D01*
X100620657Y-116363220D02*
X100715895Y-116363220D01*
X100715895Y-116363220D02*
X100811133Y-116410839D01*
X100811133Y-116410839D02*
X100858752Y-116458458D01*
X100858752Y-116458458D02*
X100906371Y-116553696D01*
X100906371Y-116553696D02*
X100953990Y-116744172D01*
X100953990Y-116744172D02*
X101001609Y-116839410D01*
X101001609Y-116839410D02*
X101049228Y-116887029D01*
X101049228Y-116887029D02*
X101144466Y-116934648D01*
X101144466Y-116934648D02*
X101239704Y-116934648D01*
X101239704Y-116934648D02*
X101334942Y-116887029D01*
X101334942Y-116887029D02*
X101382561Y-116839410D01*
X101382561Y-116839410D02*
X101430180Y-116744172D01*
X101430180Y-116744172D02*
X101430180Y-116506077D01*
X101430180Y-116506077D02*
X101382561Y-116363220D01*
X100430180Y-115934648D02*
X101430180Y-115934648D01*
X101382561Y-114934649D02*
X101430180Y-115029887D01*
X101430180Y-115029887D02*
X101430180Y-115172744D01*
X101430180Y-115172744D02*
X101382561Y-115315601D01*
X101382561Y-115315601D02*
X101287323Y-115410839D01*
X101287323Y-115410839D02*
X101192085Y-115458458D01*
X101192085Y-115458458D02*
X101001609Y-115506077D01*
X101001609Y-115506077D02*
X100858752Y-115506077D01*
X100858752Y-115506077D02*
X100668276Y-115458458D01*
X100668276Y-115458458D02*
X100573038Y-115410839D01*
X100573038Y-115410839D02*
X100477800Y-115315601D01*
X100477800Y-115315601D02*
X100430180Y-115172744D01*
X100430180Y-115172744D02*
X100430180Y-115077506D01*
X100430180Y-115077506D02*
X100477800Y-114934649D01*
X100477800Y-114934649D02*
X100525419Y-114887030D01*
X100525419Y-114887030D02*
X100858752Y-114887030D01*
X100858752Y-114887030D02*
X100858752Y-115077506D01*
X100430180Y-114458458D02*
X101430180Y-114458458D01*
X101430180Y-114458458D02*
X100430180Y-113887030D01*
X100430180Y-113887030D02*
X101430180Y-113887030D01*
X100811133Y-112648934D02*
X100811133Y-111887030D01*
X101430180Y-110458458D02*
X101430180Y-110363220D01*
X101430180Y-110363220D02*
X101382561Y-110267982D01*
X101382561Y-110267982D02*
X101334942Y-110220363D01*
X101334942Y-110220363D02*
X101239704Y-110172744D01*
X101239704Y-110172744D02*
X101049228Y-110125125D01*
X101049228Y-110125125D02*
X100811133Y-110125125D01*
X100811133Y-110125125D02*
X100620657Y-110172744D01*
X100620657Y-110172744D02*
X100525419Y-110220363D01*
X100525419Y-110220363D02*
X100477800Y-110267982D01*
X100477800Y-110267982D02*
X100430180Y-110363220D01*
X100430180Y-110363220D02*
X100430180Y-110458458D01*
X100430180Y-110458458D02*
X100477800Y-110553696D01*
X100477800Y-110553696D02*
X100525419Y-110601315D01*
X100525419Y-110601315D02*
X100620657Y-110648934D01*
X100620657Y-110648934D02*
X100811133Y-110696553D01*
X100811133Y-110696553D02*
X101049228Y-110696553D01*
X101049228Y-110696553D02*
X101239704Y-110648934D01*
X101239704Y-110648934D02*
X101334942Y-110601315D01*
X101334942Y-110601315D02*
X101382561Y-110553696D01*
X101382561Y-110553696D02*
X101430180Y-110458458D01*
X100430180Y-109648934D02*
X100430180Y-109458458D01*
X100430180Y-109458458D02*
X100477800Y-109363220D01*
X100477800Y-109363220D02*
X100525419Y-109315601D01*
X100525419Y-109315601D02*
X100668276Y-109220363D01*
X100668276Y-109220363D02*
X100858752Y-109172744D01*
X100858752Y-109172744D02*
X101239704Y-109172744D01*
X101239704Y-109172744D02*
X101334942Y-109220363D01*
X101334942Y-109220363D02*
X101382561Y-109267982D01*
X101382561Y-109267982D02*
X101430180Y-109363220D01*
X101430180Y-109363220D02*
X101430180Y-109553696D01*
X101430180Y-109553696D02*
X101382561Y-109648934D01*
X101382561Y-109648934D02*
X101334942Y-109696553D01*
X101334942Y-109696553D02*
X101239704Y-109744172D01*
X101239704Y-109744172D02*
X101001609Y-109744172D01*
X101001609Y-109744172D02*
X100906371Y-109696553D01*
X100906371Y-109696553D02*
X100858752Y-109648934D01*
X100858752Y-109648934D02*
X100811133Y-109553696D01*
X100811133Y-109553696D02*
X100811133Y-109363220D01*
X100811133Y-109363220D02*
X100858752Y-109267982D01*
X100858752Y-109267982D02*
X100906371Y-109220363D01*
X100906371Y-109220363D02*
X101001609Y-109172744D01*
X100525419Y-108744172D02*
X100477800Y-108696553D01*
X100477800Y-108696553D02*
X100430180Y-108744172D01*
X100430180Y-108744172D02*
X100477800Y-108791791D01*
X100477800Y-108791791D02*
X100525419Y-108744172D01*
X100525419Y-108744172D02*
X100430180Y-108744172D01*
X101334942Y-108315601D02*
X101382561Y-108267982D01*
X101382561Y-108267982D02*
X101430180Y-108172744D01*
X101430180Y-108172744D02*
X101430180Y-107934649D01*
X101430180Y-107934649D02*
X101382561Y-107839411D01*
X101382561Y-107839411D02*
X101334942Y-107791792D01*
X101334942Y-107791792D02*
X101239704Y-107744173D01*
X101239704Y-107744173D02*
X101144466Y-107744173D01*
X101144466Y-107744173D02*
X101001609Y-107791792D01*
X101001609Y-107791792D02*
X100430180Y-108363220D01*
X100430180Y-108363220D02*
X100430180Y-107744173D01*
X101430180Y-107125125D02*
X101430180Y-107029887D01*
X101430180Y-107029887D02*
X101382561Y-106934649D01*
X101382561Y-106934649D02*
X101334942Y-106887030D01*
X101334942Y-106887030D02*
X101239704Y-106839411D01*
X101239704Y-106839411D02*
X101049228Y-106791792D01*
X101049228Y-106791792D02*
X100811133Y-106791792D01*
X100811133Y-106791792D02*
X100620657Y-106839411D01*
X100620657Y-106839411D02*
X100525419Y-106887030D01*
X100525419Y-106887030D02*
X100477800Y-106934649D01*
X100477800Y-106934649D02*
X100430180Y-107029887D01*
X100430180Y-107029887D02*
X100430180Y-107125125D01*
X100430180Y-107125125D02*
X100477800Y-107220363D01*
X100477800Y-107220363D02*
X100525419Y-107267982D01*
X100525419Y-107267982D02*
X100620657Y-107315601D01*
X100620657Y-107315601D02*
X100811133Y-107363220D01*
X100811133Y-107363220D02*
X101049228Y-107363220D01*
X101049228Y-107363220D02*
X101239704Y-107315601D01*
X101239704Y-107315601D02*
X101334942Y-107267982D01*
X101334942Y-107267982D02*
X101382561Y-107220363D01*
X101382561Y-107220363D02*
X101430180Y-107125125D01*
X101334942Y-106410839D02*
X101382561Y-106363220D01*
X101382561Y-106363220D02*
X101430180Y-106267982D01*
X101430180Y-106267982D02*
X101430180Y-106029887D01*
X101430180Y-106029887D02*
X101382561Y-105934649D01*
X101382561Y-105934649D02*
X101334942Y-105887030D01*
X101334942Y-105887030D02*
X101239704Y-105839411D01*
X101239704Y-105839411D02*
X101144466Y-105839411D01*
X101144466Y-105839411D02*
X101001609Y-105887030D01*
X101001609Y-105887030D02*
X100430180Y-106458458D01*
X100430180Y-106458458D02*
X100430180Y-105839411D01*
X101096847Y-104982268D02*
X100430180Y-104982268D01*
X101477800Y-105220363D02*
X100763514Y-105458458D01*
X100763514Y-105458458D02*
X100763514Y-104839411D01*
X105354819Y-95157142D02*
X104878628Y-94823809D01*
X105354819Y-94585714D02*
X104354819Y-94585714D01*
X104354819Y-94585714D02*
X104354819Y-94966666D01*
X104354819Y-94966666D02*
X104402438Y-95061904D01*
X104402438Y-95061904D02*
X104450057Y-95109523D01*
X104450057Y-95109523D02*
X104545295Y-95157142D01*
X104545295Y-95157142D02*
X104688152Y-95157142D01*
X104688152Y-95157142D02*
X104783390Y-95109523D01*
X104783390Y-95109523D02*
X104831009Y-95061904D01*
X104831009Y-95061904D02*
X104878628Y-94966666D01*
X104878628Y-94966666D02*
X104878628Y-94585714D01*
X105354819Y-96109523D02*
X105354819Y-95538095D01*
X105354819Y-95823809D02*
X104354819Y-95823809D01*
X104354819Y-95823809D02*
X104497676Y-95728571D01*
X104497676Y-95728571D02*
X104592914Y-95633333D01*
X104592914Y-95633333D02*
X104640533Y-95538095D01*
X104450057Y-96490476D02*
X104402438Y-96538095D01*
X104402438Y-96538095D02*
X104354819Y-96633333D01*
X104354819Y-96633333D02*
X104354819Y-96871428D01*
X104354819Y-96871428D02*
X104402438Y-96966666D01*
X104402438Y-96966666D02*
X104450057Y-97014285D01*
X104450057Y-97014285D02*
X104545295Y-97061904D01*
X104545295Y-97061904D02*
X104640533Y-97061904D01*
X104640533Y-97061904D02*
X104783390Y-97014285D01*
X104783390Y-97014285D02*
X105354819Y-96442857D01*
X105354819Y-96442857D02*
X105354819Y-97061904D01*
X102966666Y-92254819D02*
X103299999Y-91778628D01*
X103538094Y-92254819D02*
X103538094Y-91254819D01*
X103538094Y-91254819D02*
X103157142Y-91254819D01*
X103157142Y-91254819D02*
X103061904Y-91302438D01*
X103061904Y-91302438D02*
X103014285Y-91350057D01*
X103014285Y-91350057D02*
X102966666Y-91445295D01*
X102966666Y-91445295D02*
X102966666Y-91588152D01*
X102966666Y-91588152D02*
X103014285Y-91683390D01*
X103014285Y-91683390D02*
X103061904Y-91731009D01*
X103061904Y-91731009D02*
X103157142Y-91778628D01*
X103157142Y-91778628D02*
X103538094Y-91778628D01*
X102395237Y-91683390D02*
X102490475Y-91635771D01*
X102490475Y-91635771D02*
X102538094Y-91588152D01*
X102538094Y-91588152D02*
X102585713Y-91492914D01*
X102585713Y-91492914D02*
X102585713Y-91445295D01*
X102585713Y-91445295D02*
X102538094Y-91350057D01*
X102538094Y-91350057D02*
X102490475Y-91302438D01*
X102490475Y-91302438D02*
X102395237Y-91254819D01*
X102395237Y-91254819D02*
X102204761Y-91254819D01*
X102204761Y-91254819D02*
X102109523Y-91302438D01*
X102109523Y-91302438D02*
X102061904Y-91350057D01*
X102061904Y-91350057D02*
X102014285Y-91445295D01*
X102014285Y-91445295D02*
X102014285Y-91492914D01*
X102014285Y-91492914D02*
X102061904Y-91588152D01*
X102061904Y-91588152D02*
X102109523Y-91635771D01*
X102109523Y-91635771D02*
X102204761Y-91683390D01*
X102204761Y-91683390D02*
X102395237Y-91683390D01*
X102395237Y-91683390D02*
X102490475Y-91731009D01*
X102490475Y-91731009D02*
X102538094Y-91778628D01*
X102538094Y-91778628D02*
X102585713Y-91873866D01*
X102585713Y-91873866D02*
X102585713Y-92064342D01*
X102585713Y-92064342D02*
X102538094Y-92159580D01*
X102538094Y-92159580D02*
X102490475Y-92207200D01*
X102490475Y-92207200D02*
X102395237Y-92254819D01*
X102395237Y-92254819D02*
X102204761Y-92254819D01*
X102204761Y-92254819D02*
X102109523Y-92207200D01*
X102109523Y-92207200D02*
X102061904Y-92159580D01*
X102061904Y-92159580D02*
X102014285Y-92064342D01*
X102014285Y-92064342D02*
X102014285Y-91873866D01*
X102014285Y-91873866D02*
X102061904Y-91778628D01*
X102061904Y-91778628D02*
X102109523Y-91731009D01*
X102109523Y-91731009D02*
X102204761Y-91683390D01*
X110466666Y-144554819D02*
X110799999Y-144078628D01*
X111038094Y-144554819D02*
X111038094Y-143554819D01*
X111038094Y-143554819D02*
X110657142Y-143554819D01*
X110657142Y-143554819D02*
X110561904Y-143602438D01*
X110561904Y-143602438D02*
X110514285Y-143650057D01*
X110514285Y-143650057D02*
X110466666Y-143745295D01*
X110466666Y-143745295D02*
X110466666Y-143888152D01*
X110466666Y-143888152D02*
X110514285Y-143983390D01*
X110514285Y-143983390D02*
X110561904Y-144031009D01*
X110561904Y-144031009D02*
X110657142Y-144078628D01*
X110657142Y-144078628D02*
X111038094Y-144078628D01*
X110133332Y-143554819D02*
X109466666Y-143554819D01*
X109466666Y-143554819D02*
X109895237Y-144554819D01*
X125242857Y-107154819D02*
X125576190Y-106678628D01*
X125814285Y-107154819D02*
X125814285Y-106154819D01*
X125814285Y-106154819D02*
X125433333Y-106154819D01*
X125433333Y-106154819D02*
X125338095Y-106202438D01*
X125338095Y-106202438D02*
X125290476Y-106250057D01*
X125290476Y-106250057D02*
X125242857Y-106345295D01*
X125242857Y-106345295D02*
X125242857Y-106488152D01*
X125242857Y-106488152D02*
X125290476Y-106583390D01*
X125290476Y-106583390D02*
X125338095Y-106631009D01*
X125338095Y-106631009D02*
X125433333Y-106678628D01*
X125433333Y-106678628D02*
X125814285Y-106678628D01*
X124861904Y-106250057D02*
X124814285Y-106202438D01*
X124814285Y-106202438D02*
X124719047Y-106154819D01*
X124719047Y-106154819D02*
X124480952Y-106154819D01*
X124480952Y-106154819D02*
X124385714Y-106202438D01*
X124385714Y-106202438D02*
X124338095Y-106250057D01*
X124338095Y-106250057D02*
X124290476Y-106345295D01*
X124290476Y-106345295D02*
X124290476Y-106440533D01*
X124290476Y-106440533D02*
X124338095Y-106583390D01*
X124338095Y-106583390D02*
X124909523Y-107154819D01*
X124909523Y-107154819D02*
X124290476Y-107154819D01*
X123719047Y-106583390D02*
X123814285Y-106535771D01*
X123814285Y-106535771D02*
X123861904Y-106488152D01*
X123861904Y-106488152D02*
X123909523Y-106392914D01*
X123909523Y-106392914D02*
X123909523Y-106345295D01*
X123909523Y-106345295D02*
X123861904Y-106250057D01*
X123861904Y-106250057D02*
X123814285Y-106202438D01*
X123814285Y-106202438D02*
X123719047Y-106154819D01*
X123719047Y-106154819D02*
X123528571Y-106154819D01*
X123528571Y-106154819D02*
X123433333Y-106202438D01*
X123433333Y-106202438D02*
X123385714Y-106250057D01*
X123385714Y-106250057D02*
X123338095Y-106345295D01*
X123338095Y-106345295D02*
X123338095Y-106392914D01*
X123338095Y-106392914D02*
X123385714Y-106488152D01*
X123385714Y-106488152D02*
X123433333Y-106535771D01*
X123433333Y-106535771D02*
X123528571Y-106583390D01*
X123528571Y-106583390D02*
X123719047Y-106583390D01*
X123719047Y-106583390D02*
X123814285Y-106631009D01*
X123814285Y-106631009D02*
X123861904Y-106678628D01*
X123861904Y-106678628D02*
X123909523Y-106773866D01*
X123909523Y-106773866D02*
X123909523Y-106964342D01*
X123909523Y-106964342D02*
X123861904Y-107059580D01*
X123861904Y-107059580D02*
X123814285Y-107107200D01*
X123814285Y-107107200D02*
X123719047Y-107154819D01*
X123719047Y-107154819D02*
X123528571Y-107154819D01*
X123528571Y-107154819D02*
X123433333Y-107107200D01*
X123433333Y-107107200D02*
X123385714Y-107059580D01*
X123385714Y-107059580D02*
X123338095Y-106964342D01*
X123338095Y-106964342D02*
X123338095Y-106773866D01*
X123338095Y-106773866D02*
X123385714Y-106678628D01*
X123385714Y-106678628D02*
X123433333Y-106631009D01*
X123433333Y-106631009D02*
X123528571Y-106583390D01*
X120454819Y-109785714D02*
X119454819Y-109785714D01*
X119454819Y-109785714D02*
X119454819Y-110023809D01*
X119454819Y-110023809D02*
X119502438Y-110166666D01*
X119502438Y-110166666D02*
X119597676Y-110261904D01*
X119597676Y-110261904D02*
X119692914Y-110309523D01*
X119692914Y-110309523D02*
X119883390Y-110357142D01*
X119883390Y-110357142D02*
X120026247Y-110357142D01*
X120026247Y-110357142D02*
X120216723Y-110309523D01*
X120216723Y-110309523D02*
X120311961Y-110261904D01*
X120311961Y-110261904D02*
X120407200Y-110166666D01*
X120407200Y-110166666D02*
X120454819Y-110023809D01*
X120454819Y-110023809D02*
X120454819Y-109785714D01*
X120454819Y-111309523D02*
X120454819Y-110738095D01*
X120454819Y-111023809D02*
X119454819Y-111023809D01*
X119454819Y-111023809D02*
X119597676Y-110928571D01*
X119597676Y-110928571D02*
X119692914Y-110833333D01*
X119692914Y-110833333D02*
X119740533Y-110738095D01*
X119788152Y-112166666D02*
X120454819Y-112166666D01*
X119407200Y-111928571D02*
X120121485Y-111690476D01*
X120121485Y-111690476D02*
X120121485Y-112309523D01*
X122704819Y-62261905D02*
X121704819Y-62261905D01*
X121704819Y-62261905D02*
X121704819Y-62500000D01*
X121704819Y-62500000D02*
X121752438Y-62642857D01*
X121752438Y-62642857D02*
X121847676Y-62738095D01*
X121847676Y-62738095D02*
X121942914Y-62785714D01*
X121942914Y-62785714D02*
X122133390Y-62833333D01*
X122133390Y-62833333D02*
X122276247Y-62833333D01*
X122276247Y-62833333D02*
X122466723Y-62785714D01*
X122466723Y-62785714D02*
X122561961Y-62738095D01*
X122561961Y-62738095D02*
X122657200Y-62642857D01*
X122657200Y-62642857D02*
X122704819Y-62500000D01*
X122704819Y-62500000D02*
X122704819Y-62261905D01*
X121800057Y-63214286D02*
X121752438Y-63261905D01*
X121752438Y-63261905D02*
X121704819Y-63357143D01*
X121704819Y-63357143D02*
X121704819Y-63595238D01*
X121704819Y-63595238D02*
X121752438Y-63690476D01*
X121752438Y-63690476D02*
X121800057Y-63738095D01*
X121800057Y-63738095D02*
X121895295Y-63785714D01*
X121895295Y-63785714D02*
X121990533Y-63785714D01*
X121990533Y-63785714D02*
X122133390Y-63738095D01*
X122133390Y-63738095D02*
X122704819Y-63166667D01*
X122704819Y-63166667D02*
X122704819Y-63785714D01*
X120250057Y-152804761D02*
X120202438Y-152709523D01*
X120202438Y-152709523D02*
X120107200Y-152614285D01*
X120107200Y-152614285D02*
X119964342Y-152471428D01*
X119964342Y-152471428D02*
X119916723Y-152376190D01*
X119916723Y-152376190D02*
X119916723Y-152280952D01*
X120154819Y-152328571D02*
X120107200Y-152233333D01*
X120107200Y-152233333D02*
X120011961Y-152138095D01*
X120011961Y-152138095D02*
X119821485Y-152090476D01*
X119821485Y-152090476D02*
X119488152Y-152090476D01*
X119488152Y-152090476D02*
X119297676Y-152138095D01*
X119297676Y-152138095D02*
X119202438Y-152233333D01*
X119202438Y-152233333D02*
X119154819Y-152328571D01*
X119154819Y-152328571D02*
X119154819Y-152519047D01*
X119154819Y-152519047D02*
X119202438Y-152614285D01*
X119202438Y-152614285D02*
X119297676Y-152709523D01*
X119297676Y-152709523D02*
X119488152Y-152757142D01*
X119488152Y-152757142D02*
X119821485Y-152757142D01*
X119821485Y-152757142D02*
X120011961Y-152709523D01*
X120011961Y-152709523D02*
X120107200Y-152614285D01*
X120107200Y-152614285D02*
X120154819Y-152519047D01*
X120154819Y-152519047D02*
X120154819Y-152328571D01*
X119250057Y-153138095D02*
X119202438Y-153185714D01*
X119202438Y-153185714D02*
X119154819Y-153280952D01*
X119154819Y-153280952D02*
X119154819Y-153519047D01*
X119154819Y-153519047D02*
X119202438Y-153614285D01*
X119202438Y-153614285D02*
X119250057Y-153661904D01*
X119250057Y-153661904D02*
X119345295Y-153709523D01*
X119345295Y-153709523D02*
X119440533Y-153709523D01*
X119440533Y-153709523D02*
X119583390Y-153661904D01*
X119583390Y-153661904D02*
X120154819Y-153090476D01*
X120154819Y-153090476D02*
X120154819Y-153709523D01*
X120554819Y-136761905D02*
X119554819Y-136761905D01*
X119554819Y-136761905D02*
X119554819Y-137000000D01*
X119554819Y-137000000D02*
X119602438Y-137142857D01*
X119602438Y-137142857D02*
X119697676Y-137238095D01*
X119697676Y-137238095D02*
X119792914Y-137285714D01*
X119792914Y-137285714D02*
X119983390Y-137333333D01*
X119983390Y-137333333D02*
X120126247Y-137333333D01*
X120126247Y-137333333D02*
X120316723Y-137285714D01*
X120316723Y-137285714D02*
X120411961Y-137238095D01*
X120411961Y-137238095D02*
X120507200Y-137142857D01*
X120507200Y-137142857D02*
X120554819Y-137000000D01*
X120554819Y-137000000D02*
X120554819Y-136761905D01*
X119888152Y-138190476D02*
X120554819Y-138190476D01*
X119507200Y-137952381D02*
X120221485Y-137714286D01*
X120221485Y-137714286D02*
X120221485Y-138333333D01*
X117066666Y-159054819D02*
X117399999Y-158578628D01*
X117638094Y-159054819D02*
X117638094Y-158054819D01*
X117638094Y-158054819D02*
X117257142Y-158054819D01*
X117257142Y-158054819D02*
X117161904Y-158102438D01*
X117161904Y-158102438D02*
X117114285Y-158150057D01*
X117114285Y-158150057D02*
X117066666Y-158245295D01*
X117066666Y-158245295D02*
X117066666Y-158388152D01*
X117066666Y-158388152D02*
X117114285Y-158483390D01*
X117114285Y-158483390D02*
X117161904Y-158531009D01*
X117161904Y-158531009D02*
X117257142Y-158578628D01*
X117257142Y-158578628D02*
X117638094Y-158578628D01*
X116161904Y-158054819D02*
X116638094Y-158054819D01*
X116638094Y-158054819D02*
X116685713Y-158531009D01*
X116685713Y-158531009D02*
X116638094Y-158483390D01*
X116638094Y-158483390D02*
X116542856Y-158435771D01*
X116542856Y-158435771D02*
X116304761Y-158435771D01*
X116304761Y-158435771D02*
X116209523Y-158483390D01*
X116209523Y-158483390D02*
X116161904Y-158531009D01*
X116161904Y-158531009D02*
X116114285Y-158626247D01*
X116114285Y-158626247D02*
X116114285Y-158864342D01*
X116114285Y-158864342D02*
X116161904Y-158959580D01*
X116161904Y-158959580D02*
X116209523Y-159007200D01*
X116209523Y-159007200D02*
X116304761Y-159054819D01*
X116304761Y-159054819D02*
X116542856Y-159054819D01*
X116542856Y-159054819D02*
X116638094Y-159007200D01*
X116638094Y-159007200D02*
X116685713Y-158959580D01*
X125242857Y-122354819D02*
X125576190Y-121878628D01*
X125814285Y-122354819D02*
X125814285Y-121354819D01*
X125814285Y-121354819D02*
X125433333Y-121354819D01*
X125433333Y-121354819D02*
X125338095Y-121402438D01*
X125338095Y-121402438D02*
X125290476Y-121450057D01*
X125290476Y-121450057D02*
X125242857Y-121545295D01*
X125242857Y-121545295D02*
X125242857Y-121688152D01*
X125242857Y-121688152D02*
X125290476Y-121783390D01*
X125290476Y-121783390D02*
X125338095Y-121831009D01*
X125338095Y-121831009D02*
X125433333Y-121878628D01*
X125433333Y-121878628D02*
X125814285Y-121878628D01*
X124861904Y-121450057D02*
X124814285Y-121402438D01*
X124814285Y-121402438D02*
X124719047Y-121354819D01*
X124719047Y-121354819D02*
X124480952Y-121354819D01*
X124480952Y-121354819D02*
X124385714Y-121402438D01*
X124385714Y-121402438D02*
X124338095Y-121450057D01*
X124338095Y-121450057D02*
X124290476Y-121545295D01*
X124290476Y-121545295D02*
X124290476Y-121640533D01*
X124290476Y-121640533D02*
X124338095Y-121783390D01*
X124338095Y-121783390D02*
X124909523Y-122354819D01*
X124909523Y-122354819D02*
X124290476Y-122354819D01*
X123385714Y-121354819D02*
X123861904Y-121354819D01*
X123861904Y-121354819D02*
X123909523Y-121831009D01*
X123909523Y-121831009D02*
X123861904Y-121783390D01*
X123861904Y-121783390D02*
X123766666Y-121735771D01*
X123766666Y-121735771D02*
X123528571Y-121735771D01*
X123528571Y-121735771D02*
X123433333Y-121783390D01*
X123433333Y-121783390D02*
X123385714Y-121831009D01*
X123385714Y-121831009D02*
X123338095Y-121926247D01*
X123338095Y-121926247D02*
X123338095Y-122164342D01*
X123338095Y-122164342D02*
X123385714Y-122259580D01*
X123385714Y-122259580D02*
X123433333Y-122307200D01*
X123433333Y-122307200D02*
X123528571Y-122354819D01*
X123528571Y-122354819D02*
X123766666Y-122354819D01*
X123766666Y-122354819D02*
X123861904Y-122307200D01*
X123861904Y-122307200D02*
X123909523Y-122259580D01*
X125454819Y-79857142D02*
X124978628Y-79523809D01*
X125454819Y-79285714D02*
X124454819Y-79285714D01*
X124454819Y-79285714D02*
X124454819Y-79666666D01*
X124454819Y-79666666D02*
X124502438Y-79761904D01*
X124502438Y-79761904D02*
X124550057Y-79809523D01*
X124550057Y-79809523D02*
X124645295Y-79857142D01*
X124645295Y-79857142D02*
X124788152Y-79857142D01*
X124788152Y-79857142D02*
X124883390Y-79809523D01*
X124883390Y-79809523D02*
X124931009Y-79761904D01*
X124931009Y-79761904D02*
X124978628Y-79666666D01*
X124978628Y-79666666D02*
X124978628Y-79285714D01*
X124454819Y-80190476D02*
X124454819Y-80809523D01*
X124454819Y-80809523D02*
X124835771Y-80476190D01*
X124835771Y-80476190D02*
X124835771Y-80619047D01*
X124835771Y-80619047D02*
X124883390Y-80714285D01*
X124883390Y-80714285D02*
X124931009Y-80761904D01*
X124931009Y-80761904D02*
X125026247Y-80809523D01*
X125026247Y-80809523D02*
X125264342Y-80809523D01*
X125264342Y-80809523D02*
X125359580Y-80761904D01*
X125359580Y-80761904D02*
X125407200Y-80714285D01*
X125407200Y-80714285D02*
X125454819Y-80619047D01*
X125454819Y-80619047D02*
X125454819Y-80333333D01*
X125454819Y-80333333D02*
X125407200Y-80238095D01*
X125407200Y-80238095D02*
X125359580Y-80190476D01*
X124454819Y-81142857D02*
X124454819Y-81761904D01*
X124454819Y-81761904D02*
X124835771Y-81428571D01*
X124835771Y-81428571D02*
X124835771Y-81571428D01*
X124835771Y-81571428D02*
X124883390Y-81666666D01*
X124883390Y-81666666D02*
X124931009Y-81714285D01*
X124931009Y-81714285D02*
X125026247Y-81761904D01*
X125026247Y-81761904D02*
X125264342Y-81761904D01*
X125264342Y-81761904D02*
X125359580Y-81714285D01*
X125359580Y-81714285D02*
X125407200Y-81666666D01*
X125407200Y-81666666D02*
X125454819Y-81571428D01*
X125454819Y-81571428D02*
X125454819Y-81285714D01*
X125454819Y-81285714D02*
X125407200Y-81190476D01*
X125407200Y-81190476D02*
X125359580Y-81142857D01*
X125242857Y-101754819D02*
X125576190Y-101278628D01*
X125814285Y-101754819D02*
X125814285Y-100754819D01*
X125814285Y-100754819D02*
X125433333Y-100754819D01*
X125433333Y-100754819D02*
X125338095Y-100802438D01*
X125338095Y-100802438D02*
X125290476Y-100850057D01*
X125290476Y-100850057D02*
X125242857Y-100945295D01*
X125242857Y-100945295D02*
X125242857Y-101088152D01*
X125242857Y-101088152D02*
X125290476Y-101183390D01*
X125290476Y-101183390D02*
X125338095Y-101231009D01*
X125338095Y-101231009D02*
X125433333Y-101278628D01*
X125433333Y-101278628D02*
X125814285Y-101278628D01*
X124909523Y-100754819D02*
X124290476Y-100754819D01*
X124290476Y-100754819D02*
X124623809Y-101135771D01*
X124623809Y-101135771D02*
X124480952Y-101135771D01*
X124480952Y-101135771D02*
X124385714Y-101183390D01*
X124385714Y-101183390D02*
X124338095Y-101231009D01*
X124338095Y-101231009D02*
X124290476Y-101326247D01*
X124290476Y-101326247D02*
X124290476Y-101564342D01*
X124290476Y-101564342D02*
X124338095Y-101659580D01*
X124338095Y-101659580D02*
X124385714Y-101707200D01*
X124385714Y-101707200D02*
X124480952Y-101754819D01*
X124480952Y-101754819D02*
X124766666Y-101754819D01*
X124766666Y-101754819D02*
X124861904Y-101707200D01*
X124861904Y-101707200D02*
X124909523Y-101659580D01*
X123671428Y-100754819D02*
X123576190Y-100754819D01*
X123576190Y-100754819D02*
X123480952Y-100802438D01*
X123480952Y-100802438D02*
X123433333Y-100850057D01*
X123433333Y-100850057D02*
X123385714Y-100945295D01*
X123385714Y-100945295D02*
X123338095Y-101135771D01*
X123338095Y-101135771D02*
X123338095Y-101373866D01*
X123338095Y-101373866D02*
X123385714Y-101564342D01*
X123385714Y-101564342D02*
X123433333Y-101659580D01*
X123433333Y-101659580D02*
X123480952Y-101707200D01*
X123480952Y-101707200D02*
X123576190Y-101754819D01*
X123576190Y-101754819D02*
X123671428Y-101754819D01*
X123671428Y-101754819D02*
X123766666Y-101707200D01*
X123766666Y-101707200D02*
X123814285Y-101659580D01*
X123814285Y-101659580D02*
X123861904Y-101564342D01*
X123861904Y-101564342D02*
X123909523Y-101373866D01*
X123909523Y-101373866D02*
X123909523Y-101135771D01*
X123909523Y-101135771D02*
X123861904Y-100945295D01*
X123861904Y-100945295D02*
X123814285Y-100850057D01*
X123814285Y-100850057D02*
X123766666Y-100802438D01*
X123766666Y-100802438D02*
X123671428Y-100754819D01*
X118159580Y-130433333D02*
X118207200Y-130385714D01*
X118207200Y-130385714D02*
X118254819Y-130242857D01*
X118254819Y-130242857D02*
X118254819Y-130147619D01*
X118254819Y-130147619D02*
X118207200Y-130004762D01*
X118207200Y-130004762D02*
X118111961Y-129909524D01*
X118111961Y-129909524D02*
X118016723Y-129861905D01*
X118016723Y-129861905D02*
X117826247Y-129814286D01*
X117826247Y-129814286D02*
X117683390Y-129814286D01*
X117683390Y-129814286D02*
X117492914Y-129861905D01*
X117492914Y-129861905D02*
X117397676Y-129909524D01*
X117397676Y-129909524D02*
X117302438Y-130004762D01*
X117302438Y-130004762D02*
X117254819Y-130147619D01*
X117254819Y-130147619D02*
X117254819Y-130242857D01*
X117254819Y-130242857D02*
X117302438Y-130385714D01*
X117302438Y-130385714D02*
X117350057Y-130433333D01*
X117254819Y-130766667D02*
X117254819Y-131385714D01*
X117254819Y-131385714D02*
X117635771Y-131052381D01*
X117635771Y-131052381D02*
X117635771Y-131195238D01*
X117635771Y-131195238D02*
X117683390Y-131290476D01*
X117683390Y-131290476D02*
X117731009Y-131338095D01*
X117731009Y-131338095D02*
X117826247Y-131385714D01*
X117826247Y-131385714D02*
X118064342Y-131385714D01*
X118064342Y-131385714D02*
X118159580Y-131338095D01*
X118159580Y-131338095D02*
X118207200Y-131290476D01*
X118207200Y-131290476D02*
X118254819Y-131195238D01*
X118254819Y-131195238D02*
X118254819Y-130909524D01*
X118254819Y-130909524D02*
X118207200Y-130814286D01*
X118207200Y-130814286D02*
X118159580Y-130766667D01*
X129754819Y-117485714D02*
X128754819Y-117485714D01*
X128754819Y-117485714D02*
X128754819Y-117723809D01*
X128754819Y-117723809D02*
X128802438Y-117866666D01*
X128802438Y-117866666D02*
X128897676Y-117961904D01*
X128897676Y-117961904D02*
X128992914Y-118009523D01*
X128992914Y-118009523D02*
X129183390Y-118057142D01*
X129183390Y-118057142D02*
X129326247Y-118057142D01*
X129326247Y-118057142D02*
X129516723Y-118009523D01*
X129516723Y-118009523D02*
X129611961Y-117961904D01*
X129611961Y-117961904D02*
X129707200Y-117866666D01*
X129707200Y-117866666D02*
X129754819Y-117723809D01*
X129754819Y-117723809D02*
X129754819Y-117485714D01*
X129754819Y-119009523D02*
X129754819Y-118438095D01*
X129754819Y-118723809D02*
X128754819Y-118723809D01*
X128754819Y-118723809D02*
X128897676Y-118628571D01*
X128897676Y-118628571D02*
X128992914Y-118533333D01*
X128992914Y-118533333D02*
X129040533Y-118438095D01*
X129754819Y-119961904D02*
X129754819Y-119390476D01*
X129754819Y-119676190D02*
X128754819Y-119676190D01*
X128754819Y-119676190D02*
X128897676Y-119580952D01*
X128897676Y-119580952D02*
X128992914Y-119485714D01*
X128992914Y-119485714D02*
X129040533Y-119390476D01*
X129654819Y-122861905D02*
X128654819Y-122861905D01*
X128654819Y-122861905D02*
X128654819Y-123100000D01*
X128654819Y-123100000D02*
X128702438Y-123242857D01*
X128702438Y-123242857D02*
X128797676Y-123338095D01*
X128797676Y-123338095D02*
X128892914Y-123385714D01*
X128892914Y-123385714D02*
X129083390Y-123433333D01*
X129083390Y-123433333D02*
X129226247Y-123433333D01*
X129226247Y-123433333D02*
X129416723Y-123385714D01*
X129416723Y-123385714D02*
X129511961Y-123338095D01*
X129511961Y-123338095D02*
X129607200Y-123242857D01*
X129607200Y-123242857D02*
X129654819Y-123100000D01*
X129654819Y-123100000D02*
X129654819Y-122861905D01*
X129654819Y-123909524D02*
X129654819Y-124100000D01*
X129654819Y-124100000D02*
X129607200Y-124195238D01*
X129607200Y-124195238D02*
X129559580Y-124242857D01*
X129559580Y-124242857D02*
X129416723Y-124338095D01*
X129416723Y-124338095D02*
X129226247Y-124385714D01*
X129226247Y-124385714D02*
X128845295Y-124385714D01*
X128845295Y-124385714D02*
X128750057Y-124338095D01*
X128750057Y-124338095D02*
X128702438Y-124290476D01*
X128702438Y-124290476D02*
X128654819Y-124195238D01*
X128654819Y-124195238D02*
X128654819Y-124004762D01*
X128654819Y-124004762D02*
X128702438Y-123909524D01*
X128702438Y-123909524D02*
X128750057Y-123861905D01*
X128750057Y-123861905D02*
X128845295Y-123814286D01*
X128845295Y-123814286D02*
X129083390Y-123814286D01*
X129083390Y-123814286D02*
X129178628Y-123861905D01*
X129178628Y-123861905D02*
X129226247Y-123909524D01*
X129226247Y-123909524D02*
X129273866Y-124004762D01*
X129273866Y-124004762D02*
X129273866Y-124195238D01*
X129273866Y-124195238D02*
X129226247Y-124290476D01*
X129226247Y-124290476D02*
X129178628Y-124338095D01*
X129178628Y-124338095D02*
X129083390Y-124385714D01*
X120554819Y-131361905D02*
X119554819Y-131361905D01*
X119554819Y-131361905D02*
X119554819Y-131600000D01*
X119554819Y-131600000D02*
X119602438Y-131742857D01*
X119602438Y-131742857D02*
X119697676Y-131838095D01*
X119697676Y-131838095D02*
X119792914Y-131885714D01*
X119792914Y-131885714D02*
X119983390Y-131933333D01*
X119983390Y-131933333D02*
X120126247Y-131933333D01*
X120126247Y-131933333D02*
X120316723Y-131885714D01*
X120316723Y-131885714D02*
X120411961Y-131838095D01*
X120411961Y-131838095D02*
X120507200Y-131742857D01*
X120507200Y-131742857D02*
X120554819Y-131600000D01*
X120554819Y-131600000D02*
X120554819Y-131361905D01*
X119554819Y-132790476D02*
X119554819Y-132600000D01*
X119554819Y-132600000D02*
X119602438Y-132504762D01*
X119602438Y-132504762D02*
X119650057Y-132457143D01*
X119650057Y-132457143D02*
X119792914Y-132361905D01*
X119792914Y-132361905D02*
X119983390Y-132314286D01*
X119983390Y-132314286D02*
X120364342Y-132314286D01*
X120364342Y-132314286D02*
X120459580Y-132361905D01*
X120459580Y-132361905D02*
X120507200Y-132409524D01*
X120507200Y-132409524D02*
X120554819Y-132504762D01*
X120554819Y-132504762D02*
X120554819Y-132695238D01*
X120554819Y-132695238D02*
X120507200Y-132790476D01*
X120507200Y-132790476D02*
X120459580Y-132838095D01*
X120459580Y-132838095D02*
X120364342Y-132885714D01*
X120364342Y-132885714D02*
X120126247Y-132885714D01*
X120126247Y-132885714D02*
X120031009Y-132838095D01*
X120031009Y-132838095D02*
X119983390Y-132790476D01*
X119983390Y-132790476D02*
X119935771Y-132695238D01*
X119935771Y-132695238D02*
X119935771Y-132504762D01*
X119935771Y-132504762D02*
X119983390Y-132409524D01*
X119983390Y-132409524D02*
X120031009Y-132361905D01*
X120031009Y-132361905D02*
X120126247Y-132314286D01*
X102842857Y-76054819D02*
X103176190Y-75578628D01*
X103414285Y-76054819D02*
X103414285Y-75054819D01*
X103414285Y-75054819D02*
X103033333Y-75054819D01*
X103033333Y-75054819D02*
X102938095Y-75102438D01*
X102938095Y-75102438D02*
X102890476Y-75150057D01*
X102890476Y-75150057D02*
X102842857Y-75245295D01*
X102842857Y-75245295D02*
X102842857Y-75388152D01*
X102842857Y-75388152D02*
X102890476Y-75483390D01*
X102890476Y-75483390D02*
X102938095Y-75531009D01*
X102938095Y-75531009D02*
X103033333Y-75578628D01*
X103033333Y-75578628D02*
X103414285Y-75578628D01*
X102461904Y-75150057D02*
X102414285Y-75102438D01*
X102414285Y-75102438D02*
X102319047Y-75054819D01*
X102319047Y-75054819D02*
X102080952Y-75054819D01*
X102080952Y-75054819D02*
X101985714Y-75102438D01*
X101985714Y-75102438D02*
X101938095Y-75150057D01*
X101938095Y-75150057D02*
X101890476Y-75245295D01*
X101890476Y-75245295D02*
X101890476Y-75340533D01*
X101890476Y-75340533D02*
X101938095Y-75483390D01*
X101938095Y-75483390D02*
X102509523Y-76054819D01*
X102509523Y-76054819D02*
X101890476Y-76054819D01*
X101033333Y-75388152D02*
X101033333Y-76054819D01*
X101271428Y-75007200D02*
X101509523Y-75721485D01*
X101509523Y-75721485D02*
X100890476Y-75721485D01*
X101366666Y-57959580D02*
X101414285Y-58007200D01*
X101414285Y-58007200D02*
X101557142Y-58054819D01*
X101557142Y-58054819D02*
X101652380Y-58054819D01*
X101652380Y-58054819D02*
X101795237Y-58007200D01*
X101795237Y-58007200D02*
X101890475Y-57911961D01*
X101890475Y-57911961D02*
X101938094Y-57816723D01*
X101938094Y-57816723D02*
X101985713Y-57626247D01*
X101985713Y-57626247D02*
X101985713Y-57483390D01*
X101985713Y-57483390D02*
X101938094Y-57292914D01*
X101938094Y-57292914D02*
X101890475Y-57197676D01*
X101890475Y-57197676D02*
X101795237Y-57102438D01*
X101795237Y-57102438D02*
X101652380Y-57054819D01*
X101652380Y-57054819D02*
X101557142Y-57054819D01*
X101557142Y-57054819D02*
X101414285Y-57102438D01*
X101414285Y-57102438D02*
X101366666Y-57150057D01*
X100985713Y-57150057D02*
X100938094Y-57102438D01*
X100938094Y-57102438D02*
X100842856Y-57054819D01*
X100842856Y-57054819D02*
X100604761Y-57054819D01*
X100604761Y-57054819D02*
X100509523Y-57102438D01*
X100509523Y-57102438D02*
X100461904Y-57150057D01*
X100461904Y-57150057D02*
X100414285Y-57245295D01*
X100414285Y-57245295D02*
X100414285Y-57340533D01*
X100414285Y-57340533D02*
X100461904Y-57483390D01*
X100461904Y-57483390D02*
X101033332Y-58054819D01*
X101033332Y-58054819D02*
X100414285Y-58054819D01*
X125142857Y-96354819D02*
X125476190Y-95878628D01*
X125714285Y-96354819D02*
X125714285Y-95354819D01*
X125714285Y-95354819D02*
X125333333Y-95354819D01*
X125333333Y-95354819D02*
X125238095Y-95402438D01*
X125238095Y-95402438D02*
X125190476Y-95450057D01*
X125190476Y-95450057D02*
X125142857Y-95545295D01*
X125142857Y-95545295D02*
X125142857Y-95688152D01*
X125142857Y-95688152D02*
X125190476Y-95783390D01*
X125190476Y-95783390D02*
X125238095Y-95831009D01*
X125238095Y-95831009D02*
X125333333Y-95878628D01*
X125333333Y-95878628D02*
X125714285Y-95878628D01*
X124809523Y-95354819D02*
X124190476Y-95354819D01*
X124190476Y-95354819D02*
X124523809Y-95735771D01*
X124523809Y-95735771D02*
X124380952Y-95735771D01*
X124380952Y-95735771D02*
X124285714Y-95783390D01*
X124285714Y-95783390D02*
X124238095Y-95831009D01*
X124238095Y-95831009D02*
X124190476Y-95926247D01*
X124190476Y-95926247D02*
X124190476Y-96164342D01*
X124190476Y-96164342D02*
X124238095Y-96259580D01*
X124238095Y-96259580D02*
X124285714Y-96307200D01*
X124285714Y-96307200D02*
X124380952Y-96354819D01*
X124380952Y-96354819D02*
X124666666Y-96354819D01*
X124666666Y-96354819D02*
X124761904Y-96307200D01*
X124761904Y-96307200D02*
X124809523Y-96259580D01*
X123809523Y-95450057D02*
X123761904Y-95402438D01*
X123761904Y-95402438D02*
X123666666Y-95354819D01*
X123666666Y-95354819D02*
X123428571Y-95354819D01*
X123428571Y-95354819D02*
X123333333Y-95402438D01*
X123333333Y-95402438D02*
X123285714Y-95450057D01*
X123285714Y-95450057D02*
X123238095Y-95545295D01*
X123238095Y-95545295D02*
X123238095Y-95640533D01*
X123238095Y-95640533D02*
X123285714Y-95783390D01*
X123285714Y-95783390D02*
X123857142Y-96354819D01*
X123857142Y-96354819D02*
X123238095Y-96354819D01*
X120554819Y-98985714D02*
X119554819Y-98985714D01*
X119554819Y-98985714D02*
X119554819Y-99223809D01*
X119554819Y-99223809D02*
X119602438Y-99366666D01*
X119602438Y-99366666D02*
X119697676Y-99461904D01*
X119697676Y-99461904D02*
X119792914Y-99509523D01*
X119792914Y-99509523D02*
X119983390Y-99557142D01*
X119983390Y-99557142D02*
X120126247Y-99557142D01*
X120126247Y-99557142D02*
X120316723Y-99509523D01*
X120316723Y-99509523D02*
X120411961Y-99461904D01*
X120411961Y-99461904D02*
X120507200Y-99366666D01*
X120507200Y-99366666D02*
X120554819Y-99223809D01*
X120554819Y-99223809D02*
X120554819Y-98985714D01*
X120554819Y-100509523D02*
X120554819Y-99938095D01*
X120554819Y-100223809D02*
X119554819Y-100223809D01*
X119554819Y-100223809D02*
X119697676Y-100128571D01*
X119697676Y-100128571D02*
X119792914Y-100033333D01*
X119792914Y-100033333D02*
X119840533Y-99938095D01*
X119983390Y-101080952D02*
X119935771Y-100985714D01*
X119935771Y-100985714D02*
X119888152Y-100938095D01*
X119888152Y-100938095D02*
X119792914Y-100890476D01*
X119792914Y-100890476D02*
X119745295Y-100890476D01*
X119745295Y-100890476D02*
X119650057Y-100938095D01*
X119650057Y-100938095D02*
X119602438Y-100985714D01*
X119602438Y-100985714D02*
X119554819Y-101080952D01*
X119554819Y-101080952D02*
X119554819Y-101271428D01*
X119554819Y-101271428D02*
X119602438Y-101366666D01*
X119602438Y-101366666D02*
X119650057Y-101414285D01*
X119650057Y-101414285D02*
X119745295Y-101461904D01*
X119745295Y-101461904D02*
X119792914Y-101461904D01*
X119792914Y-101461904D02*
X119888152Y-101414285D01*
X119888152Y-101414285D02*
X119935771Y-101366666D01*
X119935771Y-101366666D02*
X119983390Y-101271428D01*
X119983390Y-101271428D02*
X119983390Y-101080952D01*
X119983390Y-101080952D02*
X120031009Y-100985714D01*
X120031009Y-100985714D02*
X120078628Y-100938095D01*
X120078628Y-100938095D02*
X120173866Y-100890476D01*
X120173866Y-100890476D02*
X120364342Y-100890476D01*
X120364342Y-100890476D02*
X120459580Y-100938095D01*
X120459580Y-100938095D02*
X120507200Y-100985714D01*
X120507200Y-100985714D02*
X120554819Y-101080952D01*
X120554819Y-101080952D02*
X120554819Y-101271428D01*
X120554819Y-101271428D02*
X120507200Y-101366666D01*
X120507200Y-101366666D02*
X120459580Y-101414285D01*
X120459580Y-101414285D02*
X120364342Y-101461904D01*
X120364342Y-101461904D02*
X120173866Y-101461904D01*
X120173866Y-101461904D02*
X120078628Y-101414285D01*
X120078628Y-101414285D02*
X120031009Y-101366666D01*
X120031009Y-101366666D02*
X119983390Y-101271428D01*
X120404819Y-62857142D02*
X119928628Y-62523809D01*
X120404819Y-62285714D02*
X119404819Y-62285714D01*
X119404819Y-62285714D02*
X119404819Y-62666666D01*
X119404819Y-62666666D02*
X119452438Y-62761904D01*
X119452438Y-62761904D02*
X119500057Y-62809523D01*
X119500057Y-62809523D02*
X119595295Y-62857142D01*
X119595295Y-62857142D02*
X119738152Y-62857142D01*
X119738152Y-62857142D02*
X119833390Y-62809523D01*
X119833390Y-62809523D02*
X119881009Y-62761904D01*
X119881009Y-62761904D02*
X119928628Y-62666666D01*
X119928628Y-62666666D02*
X119928628Y-62285714D01*
X120404819Y-63809523D02*
X120404819Y-63238095D01*
X120404819Y-63523809D02*
X119404819Y-63523809D01*
X119404819Y-63523809D02*
X119547676Y-63428571D01*
X119547676Y-63428571D02*
X119642914Y-63333333D01*
X119642914Y-63333333D02*
X119690533Y-63238095D01*
X119404819Y-64666666D02*
X119404819Y-64476190D01*
X119404819Y-64476190D02*
X119452438Y-64380952D01*
X119452438Y-64380952D02*
X119500057Y-64333333D01*
X119500057Y-64333333D02*
X119642914Y-64238095D01*
X119642914Y-64238095D02*
X119833390Y-64190476D01*
X119833390Y-64190476D02*
X120214342Y-64190476D01*
X120214342Y-64190476D02*
X120309580Y-64238095D01*
X120309580Y-64238095D02*
X120357200Y-64285714D01*
X120357200Y-64285714D02*
X120404819Y-64380952D01*
X120404819Y-64380952D02*
X120404819Y-64571428D01*
X120404819Y-64571428D02*
X120357200Y-64666666D01*
X120357200Y-64666666D02*
X120309580Y-64714285D01*
X120309580Y-64714285D02*
X120214342Y-64761904D01*
X120214342Y-64761904D02*
X119976247Y-64761904D01*
X119976247Y-64761904D02*
X119881009Y-64714285D01*
X119881009Y-64714285D02*
X119833390Y-64666666D01*
X119833390Y-64666666D02*
X119785771Y-64571428D01*
X119785771Y-64571428D02*
X119785771Y-64380952D01*
X119785771Y-64380952D02*
X119833390Y-64285714D01*
X119833390Y-64285714D02*
X119881009Y-64238095D01*
X119881009Y-64238095D02*
X119976247Y-64190476D01*
X103142857Y-100054819D02*
X103476190Y-99578628D01*
X103714285Y-100054819D02*
X103714285Y-99054819D01*
X103714285Y-99054819D02*
X103333333Y-99054819D01*
X103333333Y-99054819D02*
X103238095Y-99102438D01*
X103238095Y-99102438D02*
X103190476Y-99150057D01*
X103190476Y-99150057D02*
X103142857Y-99245295D01*
X103142857Y-99245295D02*
X103142857Y-99388152D01*
X103142857Y-99388152D02*
X103190476Y-99483390D01*
X103190476Y-99483390D02*
X103238095Y-99531009D01*
X103238095Y-99531009D02*
X103333333Y-99578628D01*
X103333333Y-99578628D02*
X103714285Y-99578628D01*
X102190476Y-100054819D02*
X102761904Y-100054819D01*
X102476190Y-100054819D02*
X102476190Y-99054819D01*
X102476190Y-99054819D02*
X102571428Y-99197676D01*
X102571428Y-99197676D02*
X102666666Y-99292914D01*
X102666666Y-99292914D02*
X102761904Y-99340533D01*
X101857142Y-99054819D02*
X101190476Y-99054819D01*
X101190476Y-99054819D02*
X101619047Y-100054819D01*
X127254819Y-62857142D02*
X126778628Y-62523809D01*
X127254819Y-62285714D02*
X126254819Y-62285714D01*
X126254819Y-62285714D02*
X126254819Y-62666666D01*
X126254819Y-62666666D02*
X126302438Y-62761904D01*
X126302438Y-62761904D02*
X126350057Y-62809523D01*
X126350057Y-62809523D02*
X126445295Y-62857142D01*
X126445295Y-62857142D02*
X126588152Y-62857142D01*
X126588152Y-62857142D02*
X126683390Y-62809523D01*
X126683390Y-62809523D02*
X126731009Y-62761904D01*
X126731009Y-62761904D02*
X126778628Y-62666666D01*
X126778628Y-62666666D02*
X126778628Y-62285714D01*
X127254819Y-63809523D02*
X127254819Y-63238095D01*
X127254819Y-63523809D02*
X126254819Y-63523809D01*
X126254819Y-63523809D02*
X126397676Y-63428571D01*
X126397676Y-63428571D02*
X126492914Y-63333333D01*
X126492914Y-63333333D02*
X126540533Y-63238095D01*
X126254819Y-64714285D02*
X126254819Y-64238095D01*
X126254819Y-64238095D02*
X126731009Y-64190476D01*
X126731009Y-64190476D02*
X126683390Y-64238095D01*
X126683390Y-64238095D02*
X126635771Y-64333333D01*
X126635771Y-64333333D02*
X126635771Y-64571428D01*
X126635771Y-64571428D02*
X126683390Y-64666666D01*
X126683390Y-64666666D02*
X126731009Y-64714285D01*
X126731009Y-64714285D02*
X126826247Y-64761904D01*
X126826247Y-64761904D02*
X127064342Y-64761904D01*
X127064342Y-64761904D02*
X127159580Y-64714285D01*
X127159580Y-64714285D02*
X127207200Y-64666666D01*
X127207200Y-64666666D02*
X127254819Y-64571428D01*
X127254819Y-64571428D02*
X127254819Y-64333333D01*
X127254819Y-64333333D02*
X127207200Y-64238095D01*
X127207200Y-64238095D02*
X127159580Y-64190476D01*
X107438094Y-82554819D02*
X107438094Y-81554819D01*
X107438094Y-81554819D02*
X107199999Y-81554819D01*
X107199999Y-81554819D02*
X107057142Y-81602438D01*
X107057142Y-81602438D02*
X106961904Y-81697676D01*
X106961904Y-81697676D02*
X106914285Y-81792914D01*
X106914285Y-81792914D02*
X106866666Y-81983390D01*
X106866666Y-81983390D02*
X106866666Y-82126247D01*
X106866666Y-82126247D02*
X106914285Y-82316723D01*
X106914285Y-82316723D02*
X106961904Y-82411961D01*
X106961904Y-82411961D02*
X107057142Y-82507200D01*
X107057142Y-82507200D02*
X107199999Y-82554819D01*
X107199999Y-82554819D02*
X107438094Y-82554819D01*
X106295237Y-81983390D02*
X106390475Y-81935771D01*
X106390475Y-81935771D02*
X106438094Y-81888152D01*
X106438094Y-81888152D02*
X106485713Y-81792914D01*
X106485713Y-81792914D02*
X106485713Y-81745295D01*
X106485713Y-81745295D02*
X106438094Y-81650057D01*
X106438094Y-81650057D02*
X106390475Y-81602438D01*
X106390475Y-81602438D02*
X106295237Y-81554819D01*
X106295237Y-81554819D02*
X106104761Y-81554819D01*
X106104761Y-81554819D02*
X106009523Y-81602438D01*
X106009523Y-81602438D02*
X105961904Y-81650057D01*
X105961904Y-81650057D02*
X105914285Y-81745295D01*
X105914285Y-81745295D02*
X105914285Y-81792914D01*
X105914285Y-81792914D02*
X105961904Y-81888152D01*
X105961904Y-81888152D02*
X106009523Y-81935771D01*
X106009523Y-81935771D02*
X106104761Y-81983390D01*
X106104761Y-81983390D02*
X106295237Y-81983390D01*
X106295237Y-81983390D02*
X106390475Y-82031009D01*
X106390475Y-82031009D02*
X106438094Y-82078628D01*
X106438094Y-82078628D02*
X106485713Y-82173866D01*
X106485713Y-82173866D02*
X106485713Y-82364342D01*
X106485713Y-82364342D02*
X106438094Y-82459580D01*
X106438094Y-82459580D02*
X106390475Y-82507200D01*
X106390475Y-82507200D02*
X106295237Y-82554819D01*
X106295237Y-82554819D02*
X106104761Y-82554819D01*
X106104761Y-82554819D02*
X106009523Y-82507200D01*
X106009523Y-82507200D02*
X105961904Y-82459580D01*
X105961904Y-82459580D02*
X105914285Y-82364342D01*
X105914285Y-82364342D02*
X105914285Y-82173866D01*
X105914285Y-82173866D02*
X105961904Y-82078628D01*
X105961904Y-82078628D02*
X106009523Y-82031009D01*
X106009523Y-82031009D02*
X106104761Y-81983390D01*
X110366666Y-136154819D02*
X110699999Y-135678628D01*
X110938094Y-136154819D02*
X110938094Y-135154819D01*
X110938094Y-135154819D02*
X110557142Y-135154819D01*
X110557142Y-135154819D02*
X110461904Y-135202438D01*
X110461904Y-135202438D02*
X110414285Y-135250057D01*
X110414285Y-135250057D02*
X110366666Y-135345295D01*
X110366666Y-135345295D02*
X110366666Y-135488152D01*
X110366666Y-135488152D02*
X110414285Y-135583390D01*
X110414285Y-135583390D02*
X110461904Y-135631009D01*
X110461904Y-135631009D02*
X110557142Y-135678628D01*
X110557142Y-135678628D02*
X110938094Y-135678628D01*
X110033332Y-135154819D02*
X109414285Y-135154819D01*
X109414285Y-135154819D02*
X109747618Y-135535771D01*
X109747618Y-135535771D02*
X109604761Y-135535771D01*
X109604761Y-135535771D02*
X109509523Y-135583390D01*
X109509523Y-135583390D02*
X109461904Y-135631009D01*
X109461904Y-135631009D02*
X109414285Y-135726247D01*
X109414285Y-135726247D02*
X109414285Y-135964342D01*
X109414285Y-135964342D02*
X109461904Y-136059580D01*
X109461904Y-136059580D02*
X109509523Y-136107200D01*
X109509523Y-136107200D02*
X109604761Y-136154819D01*
X109604761Y-136154819D02*
X109890475Y-136154819D01*
X109890475Y-136154819D02*
X109985713Y-136107200D01*
X109985713Y-136107200D02*
X110033332Y-136059580D01*
X129654819Y-102585714D02*
X128654819Y-102585714D01*
X128654819Y-102585714D02*
X128654819Y-102823809D01*
X128654819Y-102823809D02*
X128702438Y-102966666D01*
X128702438Y-102966666D02*
X128797676Y-103061904D01*
X128797676Y-103061904D02*
X128892914Y-103109523D01*
X128892914Y-103109523D02*
X129083390Y-103157142D01*
X129083390Y-103157142D02*
X129226247Y-103157142D01*
X129226247Y-103157142D02*
X129416723Y-103109523D01*
X129416723Y-103109523D02*
X129511961Y-103061904D01*
X129511961Y-103061904D02*
X129607200Y-102966666D01*
X129607200Y-102966666D02*
X129654819Y-102823809D01*
X129654819Y-102823809D02*
X129654819Y-102585714D01*
X129654819Y-104109523D02*
X129654819Y-103538095D01*
X129654819Y-103823809D02*
X128654819Y-103823809D01*
X128654819Y-103823809D02*
X128797676Y-103728571D01*
X128797676Y-103728571D02*
X128892914Y-103633333D01*
X128892914Y-103633333D02*
X128940533Y-103538095D01*
X128654819Y-105014285D02*
X128654819Y-104538095D01*
X128654819Y-104538095D02*
X129131009Y-104490476D01*
X129131009Y-104490476D02*
X129083390Y-104538095D01*
X129083390Y-104538095D02*
X129035771Y-104633333D01*
X129035771Y-104633333D02*
X129035771Y-104871428D01*
X129035771Y-104871428D02*
X129083390Y-104966666D01*
X129083390Y-104966666D02*
X129131009Y-105014285D01*
X129131009Y-105014285D02*
X129226247Y-105061904D01*
X129226247Y-105061904D02*
X129464342Y-105061904D01*
X129464342Y-105061904D02*
X129559580Y-105014285D01*
X129559580Y-105014285D02*
X129607200Y-104966666D01*
X129607200Y-104966666D02*
X129654819Y-104871428D01*
X129654819Y-104871428D02*
X129654819Y-104633333D01*
X129654819Y-104633333D02*
X129607200Y-104538095D01*
X129607200Y-104538095D02*
X129559580Y-104490476D01*
X125204819Y-61761905D02*
X124204819Y-61761905D01*
X124204819Y-61761905D02*
X124204819Y-62000000D01*
X124204819Y-62000000D02*
X124252438Y-62142857D01*
X124252438Y-62142857D02*
X124347676Y-62238095D01*
X124347676Y-62238095D02*
X124442914Y-62285714D01*
X124442914Y-62285714D02*
X124633390Y-62333333D01*
X124633390Y-62333333D02*
X124776247Y-62333333D01*
X124776247Y-62333333D02*
X124966723Y-62285714D01*
X124966723Y-62285714D02*
X125061961Y-62238095D01*
X125061961Y-62238095D02*
X125157200Y-62142857D01*
X125157200Y-62142857D02*
X125204819Y-62000000D01*
X125204819Y-62000000D02*
X125204819Y-61761905D01*
X125204819Y-63285714D02*
X125204819Y-62714286D01*
X125204819Y-63000000D02*
X124204819Y-63000000D01*
X124204819Y-63000000D02*
X124347676Y-62904762D01*
X124347676Y-62904762D02*
X124442914Y-62809524D01*
X124442914Y-62809524D02*
X124490533Y-62714286D01*
X129654819Y-107535714D02*
X128654819Y-107535714D01*
X128654819Y-107535714D02*
X128654819Y-107773809D01*
X128654819Y-107773809D02*
X128702438Y-107916666D01*
X128702438Y-107916666D02*
X128797676Y-108011904D01*
X128797676Y-108011904D02*
X128892914Y-108059523D01*
X128892914Y-108059523D02*
X129083390Y-108107142D01*
X129083390Y-108107142D02*
X129226247Y-108107142D01*
X129226247Y-108107142D02*
X129416723Y-108059523D01*
X129416723Y-108059523D02*
X129511961Y-108011904D01*
X129511961Y-108011904D02*
X129607200Y-107916666D01*
X129607200Y-107916666D02*
X129654819Y-107773809D01*
X129654819Y-107773809D02*
X129654819Y-107535714D01*
X129654819Y-109059523D02*
X129654819Y-108488095D01*
X129654819Y-108773809D02*
X128654819Y-108773809D01*
X128654819Y-108773809D02*
X128797676Y-108678571D01*
X128797676Y-108678571D02*
X128892914Y-108583333D01*
X128892914Y-108583333D02*
X128940533Y-108488095D01*
X128654819Y-109392857D02*
X128654819Y-110011904D01*
X128654819Y-110011904D02*
X129035771Y-109678571D01*
X129035771Y-109678571D02*
X129035771Y-109821428D01*
X129035771Y-109821428D02*
X129083390Y-109916666D01*
X129083390Y-109916666D02*
X129131009Y-109964285D01*
X129131009Y-109964285D02*
X129226247Y-110011904D01*
X129226247Y-110011904D02*
X129464342Y-110011904D01*
X129464342Y-110011904D02*
X129559580Y-109964285D01*
X129559580Y-109964285D02*
X129607200Y-109916666D01*
X129607200Y-109916666D02*
X129654819Y-109821428D01*
X129654819Y-109821428D02*
X129654819Y-109535714D01*
X129654819Y-109535714D02*
X129607200Y-109440476D01*
X129607200Y-109440476D02*
X129559580Y-109392857D01*
X113854819Y-79757142D02*
X113378628Y-79423809D01*
X113854819Y-79185714D02*
X112854819Y-79185714D01*
X112854819Y-79185714D02*
X112854819Y-79566666D01*
X112854819Y-79566666D02*
X112902438Y-79661904D01*
X112902438Y-79661904D02*
X112950057Y-79709523D01*
X112950057Y-79709523D02*
X113045295Y-79757142D01*
X113045295Y-79757142D02*
X113188152Y-79757142D01*
X113188152Y-79757142D02*
X113283390Y-79709523D01*
X113283390Y-79709523D02*
X113331009Y-79661904D01*
X113331009Y-79661904D02*
X113378628Y-79566666D01*
X113378628Y-79566666D02*
X113378628Y-79185714D01*
X112950057Y-80138095D02*
X112902438Y-80185714D01*
X112902438Y-80185714D02*
X112854819Y-80280952D01*
X112854819Y-80280952D02*
X112854819Y-80519047D01*
X112854819Y-80519047D02*
X112902438Y-80614285D01*
X112902438Y-80614285D02*
X112950057Y-80661904D01*
X112950057Y-80661904D02*
X113045295Y-80709523D01*
X113045295Y-80709523D02*
X113140533Y-80709523D01*
X113140533Y-80709523D02*
X113283390Y-80661904D01*
X113283390Y-80661904D02*
X113854819Y-80090476D01*
X113854819Y-80090476D02*
X113854819Y-80709523D01*
X112854819Y-81566666D02*
X112854819Y-81376190D01*
X112854819Y-81376190D02*
X112902438Y-81280952D01*
X112902438Y-81280952D02*
X112950057Y-81233333D01*
X112950057Y-81233333D02*
X113092914Y-81138095D01*
X113092914Y-81138095D02*
X113283390Y-81090476D01*
X113283390Y-81090476D02*
X113664342Y-81090476D01*
X113664342Y-81090476D02*
X113759580Y-81138095D01*
X113759580Y-81138095D02*
X113807200Y-81185714D01*
X113807200Y-81185714D02*
X113854819Y-81280952D01*
X113854819Y-81280952D02*
X113854819Y-81471428D01*
X113854819Y-81471428D02*
X113807200Y-81566666D01*
X113807200Y-81566666D02*
X113759580Y-81614285D01*
X113759580Y-81614285D02*
X113664342Y-81661904D01*
X113664342Y-81661904D02*
X113426247Y-81661904D01*
X113426247Y-81661904D02*
X113331009Y-81614285D01*
X113331009Y-81614285D02*
X113283390Y-81566666D01*
X113283390Y-81566666D02*
X113235771Y-81471428D01*
X113235771Y-81471428D02*
X113235771Y-81280952D01*
X113235771Y-81280952D02*
X113283390Y-81185714D01*
X113283390Y-81185714D02*
X113331009Y-81138095D01*
X113331009Y-81138095D02*
X113426247Y-81090476D01*
X115954819Y-79757142D02*
X115478628Y-79423809D01*
X115954819Y-79185714D02*
X114954819Y-79185714D01*
X114954819Y-79185714D02*
X114954819Y-79566666D01*
X114954819Y-79566666D02*
X115002438Y-79661904D01*
X115002438Y-79661904D02*
X115050057Y-79709523D01*
X115050057Y-79709523D02*
X115145295Y-79757142D01*
X115145295Y-79757142D02*
X115288152Y-79757142D01*
X115288152Y-79757142D02*
X115383390Y-79709523D01*
X115383390Y-79709523D02*
X115431009Y-79661904D01*
X115431009Y-79661904D02*
X115478628Y-79566666D01*
X115478628Y-79566666D02*
X115478628Y-79185714D01*
X115050057Y-80138095D02*
X115002438Y-80185714D01*
X115002438Y-80185714D02*
X114954819Y-80280952D01*
X114954819Y-80280952D02*
X114954819Y-80519047D01*
X114954819Y-80519047D02*
X115002438Y-80614285D01*
X115002438Y-80614285D02*
X115050057Y-80661904D01*
X115050057Y-80661904D02*
X115145295Y-80709523D01*
X115145295Y-80709523D02*
X115240533Y-80709523D01*
X115240533Y-80709523D02*
X115383390Y-80661904D01*
X115383390Y-80661904D02*
X115954819Y-80090476D01*
X115954819Y-80090476D02*
X115954819Y-80709523D01*
X115954819Y-81185714D02*
X115954819Y-81376190D01*
X115954819Y-81376190D02*
X115907200Y-81471428D01*
X115907200Y-81471428D02*
X115859580Y-81519047D01*
X115859580Y-81519047D02*
X115716723Y-81614285D01*
X115716723Y-81614285D02*
X115526247Y-81661904D01*
X115526247Y-81661904D02*
X115145295Y-81661904D01*
X115145295Y-81661904D02*
X115050057Y-81614285D01*
X115050057Y-81614285D02*
X115002438Y-81566666D01*
X115002438Y-81566666D02*
X114954819Y-81471428D01*
X114954819Y-81471428D02*
X114954819Y-81280952D01*
X114954819Y-81280952D02*
X115002438Y-81185714D01*
X115002438Y-81185714D02*
X115050057Y-81138095D01*
X115050057Y-81138095D02*
X115145295Y-81090476D01*
X115145295Y-81090476D02*
X115383390Y-81090476D01*
X115383390Y-81090476D02*
X115478628Y-81138095D01*
X115478628Y-81138095D02*
X115526247Y-81185714D01*
X115526247Y-81185714D02*
X115573866Y-81280952D01*
X115573866Y-81280952D02*
X115573866Y-81471428D01*
X115573866Y-81471428D02*
X115526247Y-81566666D01*
X115526247Y-81566666D02*
X115478628Y-81614285D01*
X115478628Y-81614285D02*
X115383390Y-81661904D01*
X125242857Y-127754819D02*
X125576190Y-127278628D01*
X125814285Y-127754819D02*
X125814285Y-126754819D01*
X125814285Y-126754819D02*
X125433333Y-126754819D01*
X125433333Y-126754819D02*
X125338095Y-126802438D01*
X125338095Y-126802438D02*
X125290476Y-126850057D01*
X125290476Y-126850057D02*
X125242857Y-126945295D01*
X125242857Y-126945295D02*
X125242857Y-127088152D01*
X125242857Y-127088152D02*
X125290476Y-127183390D01*
X125290476Y-127183390D02*
X125338095Y-127231009D01*
X125338095Y-127231009D02*
X125433333Y-127278628D01*
X125433333Y-127278628D02*
X125814285Y-127278628D01*
X124861904Y-126850057D02*
X124814285Y-126802438D01*
X124814285Y-126802438D02*
X124719047Y-126754819D01*
X124719047Y-126754819D02*
X124480952Y-126754819D01*
X124480952Y-126754819D02*
X124385714Y-126802438D01*
X124385714Y-126802438D02*
X124338095Y-126850057D01*
X124338095Y-126850057D02*
X124290476Y-126945295D01*
X124290476Y-126945295D02*
X124290476Y-127040533D01*
X124290476Y-127040533D02*
X124338095Y-127183390D01*
X124338095Y-127183390D02*
X124909523Y-127754819D01*
X124909523Y-127754819D02*
X124290476Y-127754819D01*
X123957142Y-126754819D02*
X123338095Y-126754819D01*
X123338095Y-126754819D02*
X123671428Y-127135771D01*
X123671428Y-127135771D02*
X123528571Y-127135771D01*
X123528571Y-127135771D02*
X123433333Y-127183390D01*
X123433333Y-127183390D02*
X123385714Y-127231009D01*
X123385714Y-127231009D02*
X123338095Y-127326247D01*
X123338095Y-127326247D02*
X123338095Y-127564342D01*
X123338095Y-127564342D02*
X123385714Y-127659580D01*
X123385714Y-127659580D02*
X123433333Y-127707200D01*
X123433333Y-127707200D02*
X123528571Y-127754819D01*
X123528571Y-127754819D02*
X123814285Y-127754819D01*
X123814285Y-127754819D02*
X123909523Y-127707200D01*
X123909523Y-127707200D02*
X123957142Y-127659580D01*
X129454819Y-79807142D02*
X128978628Y-79473809D01*
X129454819Y-79235714D02*
X128454819Y-79235714D01*
X128454819Y-79235714D02*
X128454819Y-79616666D01*
X128454819Y-79616666D02*
X128502438Y-79711904D01*
X128502438Y-79711904D02*
X128550057Y-79759523D01*
X128550057Y-79759523D02*
X128645295Y-79807142D01*
X128645295Y-79807142D02*
X128788152Y-79807142D01*
X128788152Y-79807142D02*
X128883390Y-79759523D01*
X128883390Y-79759523D02*
X128931009Y-79711904D01*
X128931009Y-79711904D02*
X128978628Y-79616666D01*
X128978628Y-79616666D02*
X128978628Y-79235714D01*
X128454819Y-80140476D02*
X128454819Y-80759523D01*
X128454819Y-80759523D02*
X128835771Y-80426190D01*
X128835771Y-80426190D02*
X128835771Y-80569047D01*
X128835771Y-80569047D02*
X128883390Y-80664285D01*
X128883390Y-80664285D02*
X128931009Y-80711904D01*
X128931009Y-80711904D02*
X129026247Y-80759523D01*
X129026247Y-80759523D02*
X129264342Y-80759523D01*
X129264342Y-80759523D02*
X129359580Y-80711904D01*
X129359580Y-80711904D02*
X129407200Y-80664285D01*
X129407200Y-80664285D02*
X129454819Y-80569047D01*
X129454819Y-80569047D02*
X129454819Y-80283333D01*
X129454819Y-80283333D02*
X129407200Y-80188095D01*
X129407200Y-80188095D02*
X129359580Y-80140476D01*
X128454819Y-81664285D02*
X128454819Y-81188095D01*
X128454819Y-81188095D02*
X128931009Y-81140476D01*
X128931009Y-81140476D02*
X128883390Y-81188095D01*
X128883390Y-81188095D02*
X128835771Y-81283333D01*
X128835771Y-81283333D02*
X128835771Y-81521428D01*
X128835771Y-81521428D02*
X128883390Y-81616666D01*
X128883390Y-81616666D02*
X128931009Y-81664285D01*
X128931009Y-81664285D02*
X129026247Y-81711904D01*
X129026247Y-81711904D02*
X129264342Y-81711904D01*
X129264342Y-81711904D02*
X129359580Y-81664285D01*
X129359580Y-81664285D02*
X129407200Y-81616666D01*
X129407200Y-81616666D02*
X129454819Y-81521428D01*
X129454819Y-81521428D02*
X129454819Y-81283333D01*
X129454819Y-81283333D02*
X129407200Y-81188095D01*
X129407200Y-81188095D02*
X129359580Y-81140476D01*
X129654819Y-128261905D02*
X128654819Y-128261905D01*
X128654819Y-128261905D02*
X128654819Y-128500000D01*
X128654819Y-128500000D02*
X128702438Y-128642857D01*
X128702438Y-128642857D02*
X128797676Y-128738095D01*
X128797676Y-128738095D02*
X128892914Y-128785714D01*
X128892914Y-128785714D02*
X129083390Y-128833333D01*
X129083390Y-128833333D02*
X129226247Y-128833333D01*
X129226247Y-128833333D02*
X129416723Y-128785714D01*
X129416723Y-128785714D02*
X129511961Y-128738095D01*
X129511961Y-128738095D02*
X129607200Y-128642857D01*
X129607200Y-128642857D02*
X129654819Y-128500000D01*
X129654819Y-128500000D02*
X129654819Y-128261905D01*
X128654819Y-129738095D02*
X128654819Y-129261905D01*
X128654819Y-129261905D02*
X129131009Y-129214286D01*
X129131009Y-129214286D02*
X129083390Y-129261905D01*
X129083390Y-129261905D02*
X129035771Y-129357143D01*
X129035771Y-129357143D02*
X129035771Y-129595238D01*
X129035771Y-129595238D02*
X129083390Y-129690476D01*
X129083390Y-129690476D02*
X129131009Y-129738095D01*
X129131009Y-129738095D02*
X129226247Y-129785714D01*
X129226247Y-129785714D02*
X129464342Y-129785714D01*
X129464342Y-129785714D02*
X129559580Y-129738095D01*
X129559580Y-129738095D02*
X129607200Y-129690476D01*
X129607200Y-129690476D02*
X129654819Y-129595238D01*
X129654819Y-129595238D02*
X129654819Y-129357143D01*
X129654819Y-129357143D02*
X129607200Y-129261905D01*
X129607200Y-129261905D02*
X129559580Y-129214286D01*
X111794819Y-73258095D02*
X110794819Y-73258095D01*
X111271009Y-73258095D02*
X111271009Y-73829523D01*
X111794819Y-73829523D02*
X110794819Y-73829523D01*
X111794819Y-74829523D02*
X111794819Y-74258095D01*
X111794819Y-74543809D02*
X110794819Y-74543809D01*
X110794819Y-74543809D02*
X110937676Y-74448571D01*
X110937676Y-74448571D02*
X111032914Y-74353333D01*
X111032914Y-74353333D02*
X111080533Y-74258095D01*
D11*
X106182133Y-70006265D02*
X106182133Y-70615789D01*
X106486895Y-71415788D02*
X106486895Y-70958645D01*
X106486895Y-71187217D02*
X105686895Y-71187217D01*
X105686895Y-71187217D02*
X105801180Y-71111026D01*
X105801180Y-71111026D02*
X105877371Y-71034836D01*
X105877371Y-71034836D02*
X105915466Y-70958645D01*
X105763085Y-71720550D02*
X105724990Y-71758646D01*
X105724990Y-71758646D02*
X105686895Y-71834836D01*
X105686895Y-71834836D02*
X105686895Y-72025312D01*
X105686895Y-72025312D02*
X105724990Y-72101503D01*
X105724990Y-72101503D02*
X105763085Y-72139598D01*
X105763085Y-72139598D02*
X105839276Y-72177693D01*
X105839276Y-72177693D02*
X105915466Y-72177693D01*
X105915466Y-72177693D02*
X106029752Y-72139598D01*
X106029752Y-72139598D02*
X106486895Y-71682455D01*
X106486895Y-71682455D02*
X106486895Y-72177693D01*
X105686895Y-72406265D02*
X106486895Y-72672932D01*
X106486895Y-72672932D02*
X105686895Y-72939598D01*
X106448800Y-73777693D02*
X106486895Y-73891979D01*
X106486895Y-73891979D02*
X106486895Y-74082455D01*
X106486895Y-74082455D02*
X106448800Y-74158646D01*
X106448800Y-74158646D02*
X106410704Y-74196741D01*
X106410704Y-74196741D02*
X106334514Y-74234836D01*
X106334514Y-74234836D02*
X106258323Y-74234836D01*
X106258323Y-74234836D02*
X106182133Y-74196741D01*
X106182133Y-74196741D02*
X106144038Y-74158646D01*
X106144038Y-74158646D02*
X106105942Y-74082455D01*
X106105942Y-74082455D02*
X106067847Y-73930074D01*
X106067847Y-73930074D02*
X106029752Y-73853884D01*
X106029752Y-73853884D02*
X105991657Y-73815789D01*
X105991657Y-73815789D02*
X105915466Y-73777693D01*
X105915466Y-73777693D02*
X105839276Y-73777693D01*
X105839276Y-73777693D02*
X105763085Y-73815789D01*
X105763085Y-73815789D02*
X105724990Y-73853884D01*
X105724990Y-73853884D02*
X105686895Y-73930074D01*
X105686895Y-73930074D02*
X105686895Y-74120551D01*
X105686895Y-74120551D02*
X105724990Y-74234836D01*
X105686895Y-74463408D02*
X105686895Y-74920551D01*
X106486895Y-74691979D02*
X105686895Y-74691979D01*
X106486895Y-75644361D02*
X106105942Y-75377694D01*
X106486895Y-75187218D02*
X105686895Y-75187218D01*
X105686895Y-75187218D02*
X105686895Y-75491980D01*
X105686895Y-75491980D02*
X105724990Y-75568170D01*
X105724990Y-75568170D02*
X105763085Y-75606265D01*
X105763085Y-75606265D02*
X105839276Y-75644361D01*
X105839276Y-75644361D02*
X105953561Y-75644361D01*
X105953561Y-75644361D02*
X106029752Y-75606265D01*
X106029752Y-75606265D02*
X106067847Y-75568170D01*
X106067847Y-75568170D02*
X106105942Y-75491980D01*
X106105942Y-75491980D02*
X106105942Y-75187218D01*
X106486895Y-75987218D02*
X105686895Y-75987218D01*
X106486895Y-76368170D02*
X105686895Y-76368170D01*
X105686895Y-76368170D02*
X105686895Y-76672932D01*
X105686895Y-76672932D02*
X105724990Y-76749122D01*
X105724990Y-76749122D02*
X105763085Y-76787217D01*
X105763085Y-76787217D02*
X105839276Y-76825313D01*
X105839276Y-76825313D02*
X105953561Y-76825313D01*
X105953561Y-76825313D02*
X106029752Y-76787217D01*
X106029752Y-76787217D02*
X106067847Y-76749122D01*
X106067847Y-76749122D02*
X106105942Y-76672932D01*
X106105942Y-76672932D02*
X106105942Y-76368170D01*
X106067847Y-77168170D02*
X106067847Y-77434836D01*
X106486895Y-77549122D02*
X106486895Y-77168170D01*
X106486895Y-77168170D02*
X105686895Y-77168170D01*
X105686895Y-77168170D02*
X105686895Y-77549122D01*
D10*
X120554819Y-124985714D02*
X119554819Y-124985714D01*
X119554819Y-124985714D02*
X119554819Y-125223809D01*
X119554819Y-125223809D02*
X119602438Y-125366666D01*
X119602438Y-125366666D02*
X119697676Y-125461904D01*
X119697676Y-125461904D02*
X119792914Y-125509523D01*
X119792914Y-125509523D02*
X119983390Y-125557142D01*
X119983390Y-125557142D02*
X120126247Y-125557142D01*
X120126247Y-125557142D02*
X120316723Y-125509523D01*
X120316723Y-125509523D02*
X120411961Y-125461904D01*
X120411961Y-125461904D02*
X120507200Y-125366666D01*
X120507200Y-125366666D02*
X120554819Y-125223809D01*
X120554819Y-125223809D02*
X120554819Y-124985714D01*
X120554819Y-126509523D02*
X120554819Y-125938095D01*
X120554819Y-126223809D02*
X119554819Y-126223809D01*
X119554819Y-126223809D02*
X119697676Y-126128571D01*
X119697676Y-126128571D02*
X119792914Y-126033333D01*
X119792914Y-126033333D02*
X119840533Y-125938095D01*
X119554819Y-127128571D02*
X119554819Y-127223809D01*
X119554819Y-127223809D02*
X119602438Y-127319047D01*
X119602438Y-127319047D02*
X119650057Y-127366666D01*
X119650057Y-127366666D02*
X119745295Y-127414285D01*
X119745295Y-127414285D02*
X119935771Y-127461904D01*
X119935771Y-127461904D02*
X120173866Y-127461904D01*
X120173866Y-127461904D02*
X120364342Y-127414285D01*
X120364342Y-127414285D02*
X120459580Y-127366666D01*
X120459580Y-127366666D02*
X120507200Y-127319047D01*
X120507200Y-127319047D02*
X120554819Y-127223809D01*
X120554819Y-127223809D02*
X120554819Y-127128571D01*
X120554819Y-127128571D02*
X120507200Y-127033333D01*
X120507200Y-127033333D02*
X120459580Y-126985714D01*
X120459580Y-126985714D02*
X120364342Y-126938095D01*
X120364342Y-126938095D02*
X120173866Y-126890476D01*
X120173866Y-126890476D02*
X119935771Y-126890476D01*
X119935771Y-126890476D02*
X119745295Y-126938095D01*
X119745295Y-126938095D02*
X119650057Y-126985714D01*
X119650057Y-126985714D02*
X119602438Y-127033333D01*
X119602438Y-127033333D02*
X119554819Y-127128571D01*
X120872857Y-148154819D02*
X121206190Y-147678628D01*
X121444285Y-148154819D02*
X121444285Y-147154819D01*
X121444285Y-147154819D02*
X121063333Y-147154819D01*
X121063333Y-147154819D02*
X120968095Y-147202438D01*
X120968095Y-147202438D02*
X120920476Y-147250057D01*
X120920476Y-147250057D02*
X120872857Y-147345295D01*
X120872857Y-147345295D02*
X120872857Y-147488152D01*
X120872857Y-147488152D02*
X120920476Y-147583390D01*
X120920476Y-147583390D02*
X120968095Y-147631009D01*
X120968095Y-147631009D02*
X121063333Y-147678628D01*
X121063333Y-147678628D02*
X121444285Y-147678628D01*
X119920476Y-148154819D02*
X120491904Y-148154819D01*
X120206190Y-148154819D02*
X120206190Y-147154819D01*
X120206190Y-147154819D02*
X120301428Y-147297676D01*
X120301428Y-147297676D02*
X120396666Y-147392914D01*
X120396666Y-147392914D02*
X120491904Y-147440533D01*
X119063333Y-147488152D02*
X119063333Y-148154819D01*
X119301428Y-147107200D02*
X119539523Y-147821485D01*
X119539523Y-147821485D02*
X118920476Y-147821485D01*
X117754819Y-79857142D02*
X117278628Y-79523809D01*
X117754819Y-79285714D02*
X116754819Y-79285714D01*
X116754819Y-79285714D02*
X116754819Y-79666666D01*
X116754819Y-79666666D02*
X116802438Y-79761904D01*
X116802438Y-79761904D02*
X116850057Y-79809523D01*
X116850057Y-79809523D02*
X116945295Y-79857142D01*
X116945295Y-79857142D02*
X117088152Y-79857142D01*
X117088152Y-79857142D02*
X117183390Y-79809523D01*
X117183390Y-79809523D02*
X117231009Y-79761904D01*
X117231009Y-79761904D02*
X117278628Y-79666666D01*
X117278628Y-79666666D02*
X117278628Y-79285714D01*
X116754819Y-80190476D02*
X116754819Y-80809523D01*
X116754819Y-80809523D02*
X117135771Y-80476190D01*
X117135771Y-80476190D02*
X117135771Y-80619047D01*
X117135771Y-80619047D02*
X117183390Y-80714285D01*
X117183390Y-80714285D02*
X117231009Y-80761904D01*
X117231009Y-80761904D02*
X117326247Y-80809523D01*
X117326247Y-80809523D02*
X117564342Y-80809523D01*
X117564342Y-80809523D02*
X117659580Y-80761904D01*
X117659580Y-80761904D02*
X117707200Y-80714285D01*
X117707200Y-80714285D02*
X117754819Y-80619047D01*
X117754819Y-80619047D02*
X117754819Y-80333333D01*
X117754819Y-80333333D02*
X117707200Y-80238095D01*
X117707200Y-80238095D02*
X117659580Y-80190476D01*
X117754819Y-81761904D02*
X117754819Y-81190476D01*
X117754819Y-81476190D02*
X116754819Y-81476190D01*
X116754819Y-81476190D02*
X116897676Y-81380952D01*
X116897676Y-81380952D02*
X116992914Y-81285714D01*
X116992914Y-81285714D02*
X117040533Y-81190476D01*
X120312557Y-150504761D02*
X120264938Y-150409523D01*
X120264938Y-150409523D02*
X120169700Y-150314285D01*
X120169700Y-150314285D02*
X120026842Y-150171428D01*
X120026842Y-150171428D02*
X119979223Y-150076190D01*
X119979223Y-150076190D02*
X119979223Y-149980952D01*
X120217319Y-150028571D02*
X120169700Y-149933333D01*
X120169700Y-149933333D02*
X120074461Y-149838095D01*
X120074461Y-149838095D02*
X119883985Y-149790476D01*
X119883985Y-149790476D02*
X119550652Y-149790476D01*
X119550652Y-149790476D02*
X119360176Y-149838095D01*
X119360176Y-149838095D02*
X119264938Y-149933333D01*
X119264938Y-149933333D02*
X119217319Y-150028571D01*
X119217319Y-150028571D02*
X119217319Y-150219047D01*
X119217319Y-150219047D02*
X119264938Y-150314285D01*
X119264938Y-150314285D02*
X119360176Y-150409523D01*
X119360176Y-150409523D02*
X119550652Y-150457142D01*
X119550652Y-150457142D02*
X119883985Y-150457142D01*
X119883985Y-150457142D02*
X120074461Y-150409523D01*
X120074461Y-150409523D02*
X120169700Y-150314285D01*
X120169700Y-150314285D02*
X120217319Y-150219047D01*
X120217319Y-150219047D02*
X120217319Y-150028571D01*
X119217319Y-150790476D02*
X119217319Y-151409523D01*
X119217319Y-151409523D02*
X119598271Y-151076190D01*
X119598271Y-151076190D02*
X119598271Y-151219047D01*
X119598271Y-151219047D02*
X119645890Y-151314285D01*
X119645890Y-151314285D02*
X119693509Y-151361904D01*
X119693509Y-151361904D02*
X119788747Y-151409523D01*
X119788747Y-151409523D02*
X120026842Y-151409523D01*
X120026842Y-151409523D02*
X120122080Y-151361904D01*
X120122080Y-151361904D02*
X120169700Y-151314285D01*
X120169700Y-151314285D02*
X120217319Y-151219047D01*
X120217319Y-151219047D02*
X120217319Y-150933333D01*
X120217319Y-150933333D02*
X120169700Y-150838095D01*
X120169700Y-150838095D02*
X120122080Y-150790476D01*
X107742857Y-84954819D02*
X108076190Y-84478628D01*
X108314285Y-84954819D02*
X108314285Y-83954819D01*
X108314285Y-83954819D02*
X107933333Y-83954819D01*
X107933333Y-83954819D02*
X107838095Y-84002438D01*
X107838095Y-84002438D02*
X107790476Y-84050057D01*
X107790476Y-84050057D02*
X107742857Y-84145295D01*
X107742857Y-84145295D02*
X107742857Y-84288152D01*
X107742857Y-84288152D02*
X107790476Y-84383390D01*
X107790476Y-84383390D02*
X107838095Y-84431009D01*
X107838095Y-84431009D02*
X107933333Y-84478628D01*
X107933333Y-84478628D02*
X108314285Y-84478628D01*
X107361904Y-84050057D02*
X107314285Y-84002438D01*
X107314285Y-84002438D02*
X107219047Y-83954819D01*
X107219047Y-83954819D02*
X106980952Y-83954819D01*
X106980952Y-83954819D02*
X106885714Y-84002438D01*
X106885714Y-84002438D02*
X106838095Y-84050057D01*
X106838095Y-84050057D02*
X106790476Y-84145295D01*
X106790476Y-84145295D02*
X106790476Y-84240533D01*
X106790476Y-84240533D02*
X106838095Y-84383390D01*
X106838095Y-84383390D02*
X107409523Y-84954819D01*
X107409523Y-84954819D02*
X106790476Y-84954819D01*
X106171428Y-83954819D02*
X106076190Y-83954819D01*
X106076190Y-83954819D02*
X105980952Y-84002438D01*
X105980952Y-84002438D02*
X105933333Y-84050057D01*
X105933333Y-84050057D02*
X105885714Y-84145295D01*
X105885714Y-84145295D02*
X105838095Y-84335771D01*
X105838095Y-84335771D02*
X105838095Y-84573866D01*
X105838095Y-84573866D02*
X105885714Y-84764342D01*
X105885714Y-84764342D02*
X105933333Y-84859580D01*
X105933333Y-84859580D02*
X105980952Y-84907200D01*
X105980952Y-84907200D02*
X106076190Y-84954819D01*
X106076190Y-84954819D02*
X106171428Y-84954819D01*
X106171428Y-84954819D02*
X106266666Y-84907200D01*
X106266666Y-84907200D02*
X106314285Y-84859580D01*
X106314285Y-84859580D02*
X106361904Y-84764342D01*
X106361904Y-84764342D02*
X106409523Y-84573866D01*
X106409523Y-84573866D02*
X106409523Y-84335771D01*
X106409523Y-84335771D02*
X106361904Y-84145295D01*
X106361904Y-84145295D02*
X106314285Y-84050057D01*
X106314285Y-84050057D02*
X106266666Y-84002438D01*
X106266666Y-84002438D02*
X106171428Y-83954819D01*
X125242857Y-112554819D02*
X125576190Y-112078628D01*
X125814285Y-112554819D02*
X125814285Y-111554819D01*
X125814285Y-111554819D02*
X125433333Y-111554819D01*
X125433333Y-111554819D02*
X125338095Y-111602438D01*
X125338095Y-111602438D02*
X125290476Y-111650057D01*
X125290476Y-111650057D02*
X125242857Y-111745295D01*
X125242857Y-111745295D02*
X125242857Y-111888152D01*
X125242857Y-111888152D02*
X125290476Y-111983390D01*
X125290476Y-111983390D02*
X125338095Y-112031009D01*
X125338095Y-112031009D02*
X125433333Y-112078628D01*
X125433333Y-112078628D02*
X125814285Y-112078628D01*
X124861904Y-111650057D02*
X124814285Y-111602438D01*
X124814285Y-111602438D02*
X124719047Y-111554819D01*
X124719047Y-111554819D02*
X124480952Y-111554819D01*
X124480952Y-111554819D02*
X124385714Y-111602438D01*
X124385714Y-111602438D02*
X124338095Y-111650057D01*
X124338095Y-111650057D02*
X124290476Y-111745295D01*
X124290476Y-111745295D02*
X124290476Y-111840533D01*
X124290476Y-111840533D02*
X124338095Y-111983390D01*
X124338095Y-111983390D02*
X124909523Y-112554819D01*
X124909523Y-112554819D02*
X124290476Y-112554819D01*
X123957142Y-111554819D02*
X123290476Y-111554819D01*
X123290476Y-111554819D02*
X123719047Y-112554819D01*
X110366666Y-142454819D02*
X110699999Y-141978628D01*
X110938094Y-142454819D02*
X110938094Y-141454819D01*
X110938094Y-141454819D02*
X110557142Y-141454819D01*
X110557142Y-141454819D02*
X110461904Y-141502438D01*
X110461904Y-141502438D02*
X110414285Y-141550057D01*
X110414285Y-141550057D02*
X110366666Y-141645295D01*
X110366666Y-141645295D02*
X110366666Y-141788152D01*
X110366666Y-141788152D02*
X110414285Y-141883390D01*
X110414285Y-141883390D02*
X110461904Y-141931009D01*
X110461904Y-141931009D02*
X110557142Y-141978628D01*
X110557142Y-141978628D02*
X110938094Y-141978628D01*
X109509523Y-141454819D02*
X109699999Y-141454819D01*
X109699999Y-141454819D02*
X109795237Y-141502438D01*
X109795237Y-141502438D02*
X109842856Y-141550057D01*
X109842856Y-141550057D02*
X109938094Y-141692914D01*
X109938094Y-141692914D02*
X109985713Y-141883390D01*
X109985713Y-141883390D02*
X109985713Y-142264342D01*
X109985713Y-142264342D02*
X109938094Y-142359580D01*
X109938094Y-142359580D02*
X109890475Y-142407200D01*
X109890475Y-142407200D02*
X109795237Y-142454819D01*
X109795237Y-142454819D02*
X109604761Y-142454819D01*
X109604761Y-142454819D02*
X109509523Y-142407200D01*
X109509523Y-142407200D02*
X109461904Y-142359580D01*
X109461904Y-142359580D02*
X109414285Y-142264342D01*
X109414285Y-142264342D02*
X109414285Y-142026247D01*
X109414285Y-142026247D02*
X109461904Y-141931009D01*
X109461904Y-141931009D02*
X109509523Y-141883390D01*
X109509523Y-141883390D02*
X109604761Y-141835771D01*
X109604761Y-141835771D02*
X109795237Y-141835771D01*
X109795237Y-141835771D02*
X109890475Y-141883390D01*
X109890475Y-141883390D02*
X109938094Y-141931009D01*
X109938094Y-141931009D02*
X109985713Y-142026247D01*
X115454819Y-117657142D02*
X114978628Y-117323809D01*
X115454819Y-117085714D02*
X114454819Y-117085714D01*
X114454819Y-117085714D02*
X114454819Y-117466666D01*
X114454819Y-117466666D02*
X114502438Y-117561904D01*
X114502438Y-117561904D02*
X114550057Y-117609523D01*
X114550057Y-117609523D02*
X114645295Y-117657142D01*
X114645295Y-117657142D02*
X114788152Y-117657142D01*
X114788152Y-117657142D02*
X114883390Y-117609523D01*
X114883390Y-117609523D02*
X114931009Y-117561904D01*
X114931009Y-117561904D02*
X114978628Y-117466666D01*
X114978628Y-117466666D02*
X114978628Y-117085714D01*
X115454819Y-118609523D02*
X115454819Y-118038095D01*
X115454819Y-118323809D02*
X114454819Y-118323809D01*
X114454819Y-118323809D02*
X114597676Y-118228571D01*
X114597676Y-118228571D02*
X114692914Y-118133333D01*
X114692914Y-118133333D02*
X114740533Y-118038095D01*
X114883390Y-119180952D02*
X114835771Y-119085714D01*
X114835771Y-119085714D02*
X114788152Y-119038095D01*
X114788152Y-119038095D02*
X114692914Y-118990476D01*
X114692914Y-118990476D02*
X114645295Y-118990476D01*
X114645295Y-118990476D02*
X114550057Y-119038095D01*
X114550057Y-119038095D02*
X114502438Y-119085714D01*
X114502438Y-119085714D02*
X114454819Y-119180952D01*
X114454819Y-119180952D02*
X114454819Y-119371428D01*
X114454819Y-119371428D02*
X114502438Y-119466666D01*
X114502438Y-119466666D02*
X114550057Y-119514285D01*
X114550057Y-119514285D02*
X114645295Y-119561904D01*
X114645295Y-119561904D02*
X114692914Y-119561904D01*
X114692914Y-119561904D02*
X114788152Y-119514285D01*
X114788152Y-119514285D02*
X114835771Y-119466666D01*
X114835771Y-119466666D02*
X114883390Y-119371428D01*
X114883390Y-119371428D02*
X114883390Y-119180952D01*
X114883390Y-119180952D02*
X114931009Y-119085714D01*
X114931009Y-119085714D02*
X114978628Y-119038095D01*
X114978628Y-119038095D02*
X115073866Y-118990476D01*
X115073866Y-118990476D02*
X115264342Y-118990476D01*
X115264342Y-118990476D02*
X115359580Y-119038095D01*
X115359580Y-119038095D02*
X115407200Y-119085714D01*
X115407200Y-119085714D02*
X115454819Y-119180952D01*
X115454819Y-119180952D02*
X115454819Y-119371428D01*
X115454819Y-119371428D02*
X115407200Y-119466666D01*
X115407200Y-119466666D02*
X115359580Y-119514285D01*
X115359580Y-119514285D02*
X115264342Y-119561904D01*
X115264342Y-119561904D02*
X115073866Y-119561904D01*
X115073866Y-119561904D02*
X114978628Y-119514285D01*
X114978628Y-119514285D02*
X114931009Y-119466666D01*
X114931009Y-119466666D02*
X114883390Y-119371428D01*
X125242857Y-133154819D02*
X125576190Y-132678628D01*
X125814285Y-133154819D02*
X125814285Y-132154819D01*
X125814285Y-132154819D02*
X125433333Y-132154819D01*
X125433333Y-132154819D02*
X125338095Y-132202438D01*
X125338095Y-132202438D02*
X125290476Y-132250057D01*
X125290476Y-132250057D02*
X125242857Y-132345295D01*
X125242857Y-132345295D02*
X125242857Y-132488152D01*
X125242857Y-132488152D02*
X125290476Y-132583390D01*
X125290476Y-132583390D02*
X125338095Y-132631009D01*
X125338095Y-132631009D02*
X125433333Y-132678628D01*
X125433333Y-132678628D02*
X125814285Y-132678628D01*
X124861904Y-132250057D02*
X124814285Y-132202438D01*
X124814285Y-132202438D02*
X124719047Y-132154819D01*
X124719047Y-132154819D02*
X124480952Y-132154819D01*
X124480952Y-132154819D02*
X124385714Y-132202438D01*
X124385714Y-132202438D02*
X124338095Y-132250057D01*
X124338095Y-132250057D02*
X124290476Y-132345295D01*
X124290476Y-132345295D02*
X124290476Y-132440533D01*
X124290476Y-132440533D02*
X124338095Y-132583390D01*
X124338095Y-132583390D02*
X124909523Y-133154819D01*
X124909523Y-133154819D02*
X124290476Y-133154819D01*
X123338095Y-133154819D02*
X123909523Y-133154819D01*
X123623809Y-133154819D02*
X123623809Y-132154819D01*
X123623809Y-132154819D02*
X123719047Y-132297676D01*
X123719047Y-132297676D02*
X123814285Y-132392914D01*
X123814285Y-132392914D02*
X123909523Y-132440533D01*
X110454819Y-128738095D02*
X111264342Y-128738095D01*
X111264342Y-128738095D02*
X111359580Y-128785714D01*
X111359580Y-128785714D02*
X111407200Y-128833333D01*
X111407200Y-128833333D02*
X111454819Y-128928571D01*
X111454819Y-128928571D02*
X111454819Y-129119047D01*
X111454819Y-129119047D02*
X111407200Y-129214285D01*
X111407200Y-129214285D02*
X111359580Y-129261904D01*
X111359580Y-129261904D02*
X111264342Y-129309523D01*
X111264342Y-129309523D02*
X110454819Y-129309523D01*
X111454819Y-130309523D02*
X111454819Y-129738095D01*
X111454819Y-130023809D02*
X110454819Y-130023809D01*
X110454819Y-130023809D02*
X110597676Y-129928571D01*
X110597676Y-129928571D02*
X110692914Y-129833333D01*
X110692914Y-129833333D02*
X110740533Y-129738095D01*
X109566666Y-134339580D02*
X109614285Y-134387200D01*
X109614285Y-134387200D02*
X109757142Y-134434819D01*
X109757142Y-134434819D02*
X109852380Y-134434819D01*
X109852380Y-134434819D02*
X109995237Y-134387200D01*
X109995237Y-134387200D02*
X110090475Y-134291961D01*
X110090475Y-134291961D02*
X110138094Y-134196723D01*
X110138094Y-134196723D02*
X110185713Y-134006247D01*
X110185713Y-134006247D02*
X110185713Y-133863390D01*
X110185713Y-133863390D02*
X110138094Y-133672914D01*
X110138094Y-133672914D02*
X110090475Y-133577676D01*
X110090475Y-133577676D02*
X109995237Y-133482438D01*
X109995237Y-133482438D02*
X109852380Y-133434819D01*
X109852380Y-133434819D02*
X109757142Y-133434819D01*
X109757142Y-133434819D02*
X109614285Y-133482438D01*
X109614285Y-133482438D02*
X109566666Y-133530057D01*
X108709523Y-133768152D02*
X108709523Y-134434819D01*
X108947618Y-133387200D02*
X109185713Y-134101485D01*
X109185713Y-134101485D02*
X108566666Y-134101485D01*
X116666666Y-110859580D02*
X116714285Y-110907200D01*
X116714285Y-110907200D02*
X116857142Y-110954819D01*
X116857142Y-110954819D02*
X116952380Y-110954819D01*
X116952380Y-110954819D02*
X117095237Y-110907200D01*
X117095237Y-110907200D02*
X117190475Y-110811961D01*
X117190475Y-110811961D02*
X117238094Y-110716723D01*
X117238094Y-110716723D02*
X117285713Y-110526247D01*
X117285713Y-110526247D02*
X117285713Y-110383390D01*
X117285713Y-110383390D02*
X117238094Y-110192914D01*
X117238094Y-110192914D02*
X117190475Y-110097676D01*
X117190475Y-110097676D02*
X117095237Y-110002438D01*
X117095237Y-110002438D02*
X116952380Y-109954819D01*
X116952380Y-109954819D02*
X116857142Y-109954819D01*
X116857142Y-109954819D02*
X116714285Y-110002438D01*
X116714285Y-110002438D02*
X116666666Y-110050057D01*
X115761904Y-109954819D02*
X116238094Y-109954819D01*
X116238094Y-109954819D02*
X116285713Y-110431009D01*
X116285713Y-110431009D02*
X116238094Y-110383390D01*
X116238094Y-110383390D02*
X116142856Y-110335771D01*
X116142856Y-110335771D02*
X115904761Y-110335771D01*
X115904761Y-110335771D02*
X115809523Y-110383390D01*
X115809523Y-110383390D02*
X115761904Y-110431009D01*
X115761904Y-110431009D02*
X115714285Y-110526247D01*
X115714285Y-110526247D02*
X115714285Y-110764342D01*
X115714285Y-110764342D02*
X115761904Y-110859580D01*
X115761904Y-110859580D02*
X115809523Y-110907200D01*
X115809523Y-110907200D02*
X115904761Y-110954819D01*
X115904761Y-110954819D02*
X116142856Y-110954819D01*
X116142856Y-110954819D02*
X116238094Y-110907200D01*
X116238094Y-110907200D02*
X116285713Y-110859580D01*
X124166666Y-57859580D02*
X124214285Y-57907200D01*
X124214285Y-57907200D02*
X124357142Y-57954819D01*
X124357142Y-57954819D02*
X124452380Y-57954819D01*
X124452380Y-57954819D02*
X124595237Y-57907200D01*
X124595237Y-57907200D02*
X124690475Y-57811961D01*
X124690475Y-57811961D02*
X124738094Y-57716723D01*
X124738094Y-57716723D02*
X124785713Y-57526247D01*
X124785713Y-57526247D02*
X124785713Y-57383390D01*
X124785713Y-57383390D02*
X124738094Y-57192914D01*
X124738094Y-57192914D02*
X124690475Y-57097676D01*
X124690475Y-57097676D02*
X124595237Y-57002438D01*
X124595237Y-57002438D02*
X124452380Y-56954819D01*
X124452380Y-56954819D02*
X124357142Y-56954819D01*
X124357142Y-56954819D02*
X124214285Y-57002438D01*
X124214285Y-57002438D02*
X124166666Y-57050057D01*
X123214285Y-57954819D02*
X123785713Y-57954819D01*
X123499999Y-57954819D02*
X123499999Y-56954819D01*
X123499999Y-56954819D02*
X123595237Y-57097676D01*
X123595237Y-57097676D02*
X123690475Y-57192914D01*
X123690475Y-57192914D02*
X123785713Y-57240533D01*
X107642857Y-86954819D02*
X107976190Y-86478628D01*
X108214285Y-86954819D02*
X108214285Y-85954819D01*
X108214285Y-85954819D02*
X107833333Y-85954819D01*
X107833333Y-85954819D02*
X107738095Y-86002438D01*
X107738095Y-86002438D02*
X107690476Y-86050057D01*
X107690476Y-86050057D02*
X107642857Y-86145295D01*
X107642857Y-86145295D02*
X107642857Y-86288152D01*
X107642857Y-86288152D02*
X107690476Y-86383390D01*
X107690476Y-86383390D02*
X107738095Y-86431009D01*
X107738095Y-86431009D02*
X107833333Y-86478628D01*
X107833333Y-86478628D02*
X108214285Y-86478628D01*
X107261904Y-86050057D02*
X107214285Y-86002438D01*
X107214285Y-86002438D02*
X107119047Y-85954819D01*
X107119047Y-85954819D02*
X106880952Y-85954819D01*
X106880952Y-85954819D02*
X106785714Y-86002438D01*
X106785714Y-86002438D02*
X106738095Y-86050057D01*
X106738095Y-86050057D02*
X106690476Y-86145295D01*
X106690476Y-86145295D02*
X106690476Y-86240533D01*
X106690476Y-86240533D02*
X106738095Y-86383390D01*
X106738095Y-86383390D02*
X107309523Y-86954819D01*
X107309523Y-86954819D02*
X106690476Y-86954819D01*
X106309523Y-86050057D02*
X106261904Y-86002438D01*
X106261904Y-86002438D02*
X106166666Y-85954819D01*
X106166666Y-85954819D02*
X105928571Y-85954819D01*
X105928571Y-85954819D02*
X105833333Y-86002438D01*
X105833333Y-86002438D02*
X105785714Y-86050057D01*
X105785714Y-86050057D02*
X105738095Y-86145295D01*
X105738095Y-86145295D02*
X105738095Y-86240533D01*
X105738095Y-86240533D02*
X105785714Y-86383390D01*
X105785714Y-86383390D02*
X106357142Y-86954819D01*
X106357142Y-86954819D02*
X105738095Y-86954819D01*
X123814285Y-80654819D02*
X123814285Y-79654819D01*
X123814285Y-79654819D02*
X123576190Y-79654819D01*
X123576190Y-79654819D02*
X123433333Y-79702438D01*
X123433333Y-79702438D02*
X123338095Y-79797676D01*
X123338095Y-79797676D02*
X123290476Y-79892914D01*
X123290476Y-79892914D02*
X123242857Y-80083390D01*
X123242857Y-80083390D02*
X123242857Y-80226247D01*
X123242857Y-80226247D02*
X123290476Y-80416723D01*
X123290476Y-80416723D02*
X123338095Y-80511961D01*
X123338095Y-80511961D02*
X123433333Y-80607200D01*
X123433333Y-80607200D02*
X123576190Y-80654819D01*
X123576190Y-80654819D02*
X123814285Y-80654819D01*
X122861904Y-79750057D02*
X122814285Y-79702438D01*
X122814285Y-79702438D02*
X122719047Y-79654819D01*
X122719047Y-79654819D02*
X122480952Y-79654819D01*
X122480952Y-79654819D02*
X122385714Y-79702438D01*
X122385714Y-79702438D02*
X122338095Y-79750057D01*
X122338095Y-79750057D02*
X122290476Y-79845295D01*
X122290476Y-79845295D02*
X122290476Y-79940533D01*
X122290476Y-79940533D02*
X122338095Y-80083390D01*
X122338095Y-80083390D02*
X122909523Y-80654819D01*
X122909523Y-80654819D02*
X122290476Y-80654819D01*
X121338095Y-80654819D02*
X121909523Y-80654819D01*
X121623809Y-80654819D02*
X121623809Y-79654819D01*
X121623809Y-79654819D02*
X121719047Y-79797676D01*
X121719047Y-79797676D02*
X121814285Y-79892914D01*
X121814285Y-79892914D02*
X121909523Y-79940533D01*
X103295238Y-146450057D02*
X103390476Y-146402438D01*
X103390476Y-146402438D02*
X103485714Y-146307200D01*
X103485714Y-146307200D02*
X103628571Y-146164342D01*
X103628571Y-146164342D02*
X103723809Y-146116723D01*
X103723809Y-146116723D02*
X103819047Y-146116723D01*
X103771428Y-146354819D02*
X103866666Y-146307200D01*
X103866666Y-146307200D02*
X103961904Y-146211961D01*
X103961904Y-146211961D02*
X104009523Y-146021485D01*
X104009523Y-146021485D02*
X104009523Y-145688152D01*
X104009523Y-145688152D02*
X103961904Y-145497676D01*
X103961904Y-145497676D02*
X103866666Y-145402438D01*
X103866666Y-145402438D02*
X103771428Y-145354819D01*
X103771428Y-145354819D02*
X103580952Y-145354819D01*
X103580952Y-145354819D02*
X103485714Y-145402438D01*
X103485714Y-145402438D02*
X103390476Y-145497676D01*
X103390476Y-145497676D02*
X103342857Y-145688152D01*
X103342857Y-145688152D02*
X103342857Y-146021485D01*
X103342857Y-146021485D02*
X103390476Y-146211961D01*
X103390476Y-146211961D02*
X103485714Y-146307200D01*
X103485714Y-146307200D02*
X103580952Y-146354819D01*
X103580952Y-146354819D02*
X103771428Y-146354819D01*
X102390476Y-146354819D02*
X102961904Y-146354819D01*
X102676190Y-146354819D02*
X102676190Y-145354819D01*
X102676190Y-145354819D02*
X102771428Y-145497676D01*
X102771428Y-145497676D02*
X102866666Y-145592914D01*
X102866666Y-145592914D02*
X102961904Y-145640533D01*
X107438094Y-80154819D02*
X107438094Y-79154819D01*
X107438094Y-79154819D02*
X107199999Y-79154819D01*
X107199999Y-79154819D02*
X107057142Y-79202438D01*
X107057142Y-79202438D02*
X106961904Y-79297676D01*
X106961904Y-79297676D02*
X106914285Y-79392914D01*
X106914285Y-79392914D02*
X106866666Y-79583390D01*
X106866666Y-79583390D02*
X106866666Y-79726247D01*
X106866666Y-79726247D02*
X106914285Y-79916723D01*
X106914285Y-79916723D02*
X106961904Y-80011961D01*
X106961904Y-80011961D02*
X107057142Y-80107200D01*
X107057142Y-80107200D02*
X107199999Y-80154819D01*
X107199999Y-80154819D02*
X107438094Y-80154819D01*
X106533332Y-79154819D02*
X105866666Y-79154819D01*
X105866666Y-79154819D02*
X106295237Y-80154819D01*
X120454819Y-104285714D02*
X119454819Y-104285714D01*
X119454819Y-104285714D02*
X119454819Y-104523809D01*
X119454819Y-104523809D02*
X119502438Y-104666666D01*
X119502438Y-104666666D02*
X119597676Y-104761904D01*
X119597676Y-104761904D02*
X119692914Y-104809523D01*
X119692914Y-104809523D02*
X119883390Y-104857142D01*
X119883390Y-104857142D02*
X120026247Y-104857142D01*
X120026247Y-104857142D02*
X120216723Y-104809523D01*
X120216723Y-104809523D02*
X120311961Y-104761904D01*
X120311961Y-104761904D02*
X120407200Y-104666666D01*
X120407200Y-104666666D02*
X120454819Y-104523809D01*
X120454819Y-104523809D02*
X120454819Y-104285714D01*
X120454819Y-105809523D02*
X120454819Y-105238095D01*
X120454819Y-105523809D02*
X119454819Y-105523809D01*
X119454819Y-105523809D02*
X119597676Y-105428571D01*
X119597676Y-105428571D02*
X119692914Y-105333333D01*
X119692914Y-105333333D02*
X119740533Y-105238095D01*
X119454819Y-106666666D02*
X119454819Y-106476190D01*
X119454819Y-106476190D02*
X119502438Y-106380952D01*
X119502438Y-106380952D02*
X119550057Y-106333333D01*
X119550057Y-106333333D02*
X119692914Y-106238095D01*
X119692914Y-106238095D02*
X119883390Y-106190476D01*
X119883390Y-106190476D02*
X120264342Y-106190476D01*
X120264342Y-106190476D02*
X120359580Y-106238095D01*
X120359580Y-106238095D02*
X120407200Y-106285714D01*
X120407200Y-106285714D02*
X120454819Y-106380952D01*
X120454819Y-106380952D02*
X120454819Y-106571428D01*
X120454819Y-106571428D02*
X120407200Y-106666666D01*
X120407200Y-106666666D02*
X120359580Y-106714285D01*
X120359580Y-106714285D02*
X120264342Y-106761904D01*
X120264342Y-106761904D02*
X120026247Y-106761904D01*
X120026247Y-106761904D02*
X119931009Y-106714285D01*
X119931009Y-106714285D02*
X119883390Y-106666666D01*
X119883390Y-106666666D02*
X119835771Y-106571428D01*
X119835771Y-106571428D02*
X119835771Y-106380952D01*
X119835771Y-106380952D02*
X119883390Y-106285714D01*
X119883390Y-106285714D02*
X119931009Y-106238095D01*
X119931009Y-106238095D02*
X120026247Y-106190476D01*
X120554819Y-93585714D02*
X119554819Y-93585714D01*
X119554819Y-93585714D02*
X119554819Y-93823809D01*
X119554819Y-93823809D02*
X119602438Y-93966666D01*
X119602438Y-93966666D02*
X119697676Y-94061904D01*
X119697676Y-94061904D02*
X119792914Y-94109523D01*
X119792914Y-94109523D02*
X119983390Y-94157142D01*
X119983390Y-94157142D02*
X120126247Y-94157142D01*
X120126247Y-94157142D02*
X120316723Y-94109523D01*
X120316723Y-94109523D02*
X120411961Y-94061904D01*
X120411961Y-94061904D02*
X120507200Y-93966666D01*
X120507200Y-93966666D02*
X120554819Y-93823809D01*
X120554819Y-93823809D02*
X120554819Y-93585714D01*
X119650057Y-94538095D02*
X119602438Y-94585714D01*
X119602438Y-94585714D02*
X119554819Y-94680952D01*
X119554819Y-94680952D02*
X119554819Y-94919047D01*
X119554819Y-94919047D02*
X119602438Y-95014285D01*
X119602438Y-95014285D02*
X119650057Y-95061904D01*
X119650057Y-95061904D02*
X119745295Y-95109523D01*
X119745295Y-95109523D02*
X119840533Y-95109523D01*
X119840533Y-95109523D02*
X119983390Y-95061904D01*
X119983390Y-95061904D02*
X120554819Y-94490476D01*
X120554819Y-94490476D02*
X120554819Y-95109523D01*
X119554819Y-95728571D02*
X119554819Y-95823809D01*
X119554819Y-95823809D02*
X119602438Y-95919047D01*
X119602438Y-95919047D02*
X119650057Y-95966666D01*
X119650057Y-95966666D02*
X119745295Y-96014285D01*
X119745295Y-96014285D02*
X119935771Y-96061904D01*
X119935771Y-96061904D02*
X120173866Y-96061904D01*
X120173866Y-96061904D02*
X120364342Y-96014285D01*
X120364342Y-96014285D02*
X120459580Y-95966666D01*
X120459580Y-95966666D02*
X120507200Y-95919047D01*
X120507200Y-95919047D02*
X120554819Y-95823809D01*
X120554819Y-95823809D02*
X120554819Y-95728571D01*
X120554819Y-95728571D02*
X120507200Y-95633333D01*
X120507200Y-95633333D02*
X120459580Y-95585714D01*
X120459580Y-95585714D02*
X120364342Y-95538095D01*
X120364342Y-95538095D02*
X120173866Y-95490476D01*
X120173866Y-95490476D02*
X119935771Y-95490476D01*
X119935771Y-95490476D02*
X119745295Y-95538095D01*
X119745295Y-95538095D02*
X119650057Y-95585714D01*
X119650057Y-95585714D02*
X119602438Y-95633333D01*
X119602438Y-95633333D02*
X119554819Y-95728571D01*
X104066666Y-110959580D02*
X104114285Y-111007200D01*
X104114285Y-111007200D02*
X104257142Y-111054819D01*
X104257142Y-111054819D02*
X104352380Y-111054819D01*
X104352380Y-111054819D02*
X104495237Y-111007200D01*
X104495237Y-111007200D02*
X104590475Y-110911961D01*
X104590475Y-110911961D02*
X104638094Y-110816723D01*
X104638094Y-110816723D02*
X104685713Y-110626247D01*
X104685713Y-110626247D02*
X104685713Y-110483390D01*
X104685713Y-110483390D02*
X104638094Y-110292914D01*
X104638094Y-110292914D02*
X104590475Y-110197676D01*
X104590475Y-110197676D02*
X104495237Y-110102438D01*
X104495237Y-110102438D02*
X104352380Y-110054819D01*
X104352380Y-110054819D02*
X104257142Y-110054819D01*
X104257142Y-110054819D02*
X104114285Y-110102438D01*
X104114285Y-110102438D02*
X104066666Y-110150057D01*
X103209523Y-110054819D02*
X103399999Y-110054819D01*
X103399999Y-110054819D02*
X103495237Y-110102438D01*
X103495237Y-110102438D02*
X103542856Y-110150057D01*
X103542856Y-110150057D02*
X103638094Y-110292914D01*
X103638094Y-110292914D02*
X103685713Y-110483390D01*
X103685713Y-110483390D02*
X103685713Y-110864342D01*
X103685713Y-110864342D02*
X103638094Y-110959580D01*
X103638094Y-110959580D02*
X103590475Y-111007200D01*
X103590475Y-111007200D02*
X103495237Y-111054819D01*
X103495237Y-111054819D02*
X103304761Y-111054819D01*
X103304761Y-111054819D02*
X103209523Y-111007200D01*
X103209523Y-111007200D02*
X103161904Y-110959580D01*
X103161904Y-110959580D02*
X103114285Y-110864342D01*
X103114285Y-110864342D02*
X103114285Y-110626247D01*
X103114285Y-110626247D02*
X103161904Y-110531009D01*
X103161904Y-110531009D02*
X103209523Y-110483390D01*
X103209523Y-110483390D02*
X103304761Y-110435771D01*
X103304761Y-110435771D02*
X103495237Y-110435771D01*
X103495237Y-110435771D02*
X103590475Y-110483390D01*
X103590475Y-110483390D02*
X103638094Y-110531009D01*
X103638094Y-110531009D02*
X103685713Y-110626247D01*
X120454819Y-119585714D02*
X119454819Y-119585714D01*
X119454819Y-119585714D02*
X119454819Y-119823809D01*
X119454819Y-119823809D02*
X119502438Y-119966666D01*
X119502438Y-119966666D02*
X119597676Y-120061904D01*
X119597676Y-120061904D02*
X119692914Y-120109523D01*
X119692914Y-120109523D02*
X119883390Y-120157142D01*
X119883390Y-120157142D02*
X120026247Y-120157142D01*
X120026247Y-120157142D02*
X120216723Y-120109523D01*
X120216723Y-120109523D02*
X120311961Y-120061904D01*
X120311961Y-120061904D02*
X120407200Y-119966666D01*
X120407200Y-119966666D02*
X120454819Y-119823809D01*
X120454819Y-119823809D02*
X120454819Y-119585714D01*
X120454819Y-121109523D02*
X120454819Y-120538095D01*
X120454819Y-120823809D02*
X119454819Y-120823809D01*
X119454819Y-120823809D02*
X119597676Y-120728571D01*
X119597676Y-120728571D02*
X119692914Y-120633333D01*
X119692914Y-120633333D02*
X119740533Y-120538095D01*
X119550057Y-121490476D02*
X119502438Y-121538095D01*
X119502438Y-121538095D02*
X119454819Y-121633333D01*
X119454819Y-121633333D02*
X119454819Y-121871428D01*
X119454819Y-121871428D02*
X119502438Y-121966666D01*
X119502438Y-121966666D02*
X119550057Y-122014285D01*
X119550057Y-122014285D02*
X119645295Y-122061904D01*
X119645295Y-122061904D02*
X119740533Y-122061904D01*
X119740533Y-122061904D02*
X119883390Y-122014285D01*
X119883390Y-122014285D02*
X120454819Y-121442857D01*
X120454819Y-121442857D02*
X120454819Y-122061904D01*
X113036904Y-111714819D02*
X113036904Y-112524342D01*
X113036904Y-112524342D02*
X112989285Y-112619580D01*
X112989285Y-112619580D02*
X112941666Y-112667200D01*
X112941666Y-112667200D02*
X112846428Y-112714819D01*
X112846428Y-112714819D02*
X112655952Y-112714819D01*
X112655952Y-112714819D02*
X112560714Y-112667200D01*
X112560714Y-112667200D02*
X112513095Y-112619580D01*
X112513095Y-112619580D02*
X112465476Y-112524342D01*
X112465476Y-112524342D02*
X112465476Y-111714819D01*
X112036904Y-111810057D02*
X111989285Y-111762438D01*
X111989285Y-111762438D02*
X111894047Y-111714819D01*
X111894047Y-111714819D02*
X111655952Y-111714819D01*
X111655952Y-111714819D02*
X111560714Y-111762438D01*
X111560714Y-111762438D02*
X111513095Y-111810057D01*
X111513095Y-111810057D02*
X111465476Y-111905295D01*
X111465476Y-111905295D02*
X111465476Y-112000533D01*
X111465476Y-112000533D02*
X111513095Y-112143390D01*
X111513095Y-112143390D02*
X112084523Y-112714819D01*
X112084523Y-112714819D02*
X111465476Y-112714819D01*
X127454819Y-79807142D02*
X126978628Y-79473809D01*
X127454819Y-79235714D02*
X126454819Y-79235714D01*
X126454819Y-79235714D02*
X126454819Y-79616666D01*
X126454819Y-79616666D02*
X126502438Y-79711904D01*
X126502438Y-79711904D02*
X126550057Y-79759523D01*
X126550057Y-79759523D02*
X126645295Y-79807142D01*
X126645295Y-79807142D02*
X126788152Y-79807142D01*
X126788152Y-79807142D02*
X126883390Y-79759523D01*
X126883390Y-79759523D02*
X126931009Y-79711904D01*
X126931009Y-79711904D02*
X126978628Y-79616666D01*
X126978628Y-79616666D02*
X126978628Y-79235714D01*
X126454819Y-80140476D02*
X126454819Y-80759523D01*
X126454819Y-80759523D02*
X126835771Y-80426190D01*
X126835771Y-80426190D02*
X126835771Y-80569047D01*
X126835771Y-80569047D02*
X126883390Y-80664285D01*
X126883390Y-80664285D02*
X126931009Y-80711904D01*
X126931009Y-80711904D02*
X127026247Y-80759523D01*
X127026247Y-80759523D02*
X127264342Y-80759523D01*
X127264342Y-80759523D02*
X127359580Y-80711904D01*
X127359580Y-80711904D02*
X127407200Y-80664285D01*
X127407200Y-80664285D02*
X127454819Y-80569047D01*
X127454819Y-80569047D02*
X127454819Y-80283333D01*
X127454819Y-80283333D02*
X127407200Y-80188095D01*
X127407200Y-80188095D02*
X127359580Y-80140476D01*
X126788152Y-81616666D02*
X127454819Y-81616666D01*
X126407200Y-81378571D02*
X127121485Y-81140476D01*
X127121485Y-81140476D02*
X127121485Y-81759523D01*
X129654819Y-91385714D02*
X128654819Y-91385714D01*
X128654819Y-91385714D02*
X128654819Y-91623809D01*
X128654819Y-91623809D02*
X128702438Y-91766666D01*
X128702438Y-91766666D02*
X128797676Y-91861904D01*
X128797676Y-91861904D02*
X128892914Y-91909523D01*
X128892914Y-91909523D02*
X129083390Y-91957142D01*
X129083390Y-91957142D02*
X129226247Y-91957142D01*
X129226247Y-91957142D02*
X129416723Y-91909523D01*
X129416723Y-91909523D02*
X129511961Y-91861904D01*
X129511961Y-91861904D02*
X129607200Y-91766666D01*
X129607200Y-91766666D02*
X129654819Y-91623809D01*
X129654819Y-91623809D02*
X129654819Y-91385714D01*
X129654819Y-92909523D02*
X129654819Y-92338095D01*
X129654819Y-92623809D02*
X128654819Y-92623809D01*
X128654819Y-92623809D02*
X128797676Y-92528571D01*
X128797676Y-92528571D02*
X128892914Y-92433333D01*
X128892914Y-92433333D02*
X128940533Y-92338095D01*
X129654819Y-93385714D02*
X129654819Y-93576190D01*
X129654819Y-93576190D02*
X129607200Y-93671428D01*
X129607200Y-93671428D02*
X129559580Y-93719047D01*
X129559580Y-93719047D02*
X129416723Y-93814285D01*
X129416723Y-93814285D02*
X129226247Y-93861904D01*
X129226247Y-93861904D02*
X128845295Y-93861904D01*
X128845295Y-93861904D02*
X128750057Y-93814285D01*
X128750057Y-93814285D02*
X128702438Y-93766666D01*
X128702438Y-93766666D02*
X128654819Y-93671428D01*
X128654819Y-93671428D02*
X128654819Y-93480952D01*
X128654819Y-93480952D02*
X128702438Y-93385714D01*
X128702438Y-93385714D02*
X128750057Y-93338095D01*
X128750057Y-93338095D02*
X128845295Y-93290476D01*
X128845295Y-93290476D02*
X129083390Y-93290476D01*
X129083390Y-93290476D02*
X129178628Y-93338095D01*
X129178628Y-93338095D02*
X129226247Y-93385714D01*
X129226247Y-93385714D02*
X129273866Y-93480952D01*
X129273866Y-93480952D02*
X129273866Y-93671428D01*
X129273866Y-93671428D02*
X129226247Y-93766666D01*
X129226247Y-93766666D02*
X129178628Y-93814285D01*
X129178628Y-93814285D02*
X129083390Y-93861904D01*
X110366666Y-138254819D02*
X110699999Y-137778628D01*
X110938094Y-138254819D02*
X110938094Y-137254819D01*
X110938094Y-137254819D02*
X110557142Y-137254819D01*
X110557142Y-137254819D02*
X110461904Y-137302438D01*
X110461904Y-137302438D02*
X110414285Y-137350057D01*
X110414285Y-137350057D02*
X110366666Y-137445295D01*
X110366666Y-137445295D02*
X110366666Y-137588152D01*
X110366666Y-137588152D02*
X110414285Y-137683390D01*
X110414285Y-137683390D02*
X110461904Y-137731009D01*
X110461904Y-137731009D02*
X110557142Y-137778628D01*
X110557142Y-137778628D02*
X110938094Y-137778628D01*
X109985713Y-137350057D02*
X109938094Y-137302438D01*
X109938094Y-137302438D02*
X109842856Y-137254819D01*
X109842856Y-137254819D02*
X109604761Y-137254819D01*
X109604761Y-137254819D02*
X109509523Y-137302438D01*
X109509523Y-137302438D02*
X109461904Y-137350057D01*
X109461904Y-137350057D02*
X109414285Y-137445295D01*
X109414285Y-137445295D02*
X109414285Y-137540533D01*
X109414285Y-137540533D02*
X109461904Y-137683390D01*
X109461904Y-137683390D02*
X110033332Y-138254819D01*
X110033332Y-138254819D02*
X109414285Y-138254819D01*
X129654819Y-96785714D02*
X128654819Y-96785714D01*
X128654819Y-96785714D02*
X128654819Y-97023809D01*
X128654819Y-97023809D02*
X128702438Y-97166666D01*
X128702438Y-97166666D02*
X128797676Y-97261904D01*
X128797676Y-97261904D02*
X128892914Y-97309523D01*
X128892914Y-97309523D02*
X129083390Y-97357142D01*
X129083390Y-97357142D02*
X129226247Y-97357142D01*
X129226247Y-97357142D02*
X129416723Y-97309523D01*
X129416723Y-97309523D02*
X129511961Y-97261904D01*
X129511961Y-97261904D02*
X129607200Y-97166666D01*
X129607200Y-97166666D02*
X129654819Y-97023809D01*
X129654819Y-97023809D02*
X129654819Y-96785714D01*
X129654819Y-98309523D02*
X129654819Y-97738095D01*
X129654819Y-98023809D02*
X128654819Y-98023809D01*
X128654819Y-98023809D02*
X128797676Y-97928571D01*
X128797676Y-97928571D02*
X128892914Y-97833333D01*
X128892914Y-97833333D02*
X128940533Y-97738095D01*
X128654819Y-98642857D02*
X128654819Y-99309523D01*
X128654819Y-99309523D02*
X129654819Y-98880952D01*
X125242857Y-138454819D02*
X125576190Y-137978628D01*
X125814285Y-138454819D02*
X125814285Y-137454819D01*
X125814285Y-137454819D02*
X125433333Y-137454819D01*
X125433333Y-137454819D02*
X125338095Y-137502438D01*
X125338095Y-137502438D02*
X125290476Y-137550057D01*
X125290476Y-137550057D02*
X125242857Y-137645295D01*
X125242857Y-137645295D02*
X125242857Y-137788152D01*
X125242857Y-137788152D02*
X125290476Y-137883390D01*
X125290476Y-137883390D02*
X125338095Y-137931009D01*
X125338095Y-137931009D02*
X125433333Y-137978628D01*
X125433333Y-137978628D02*
X125814285Y-137978628D01*
X124290476Y-138454819D02*
X124861904Y-138454819D01*
X124576190Y-138454819D02*
X124576190Y-137454819D01*
X124576190Y-137454819D02*
X124671428Y-137597676D01*
X124671428Y-137597676D02*
X124766666Y-137692914D01*
X124766666Y-137692914D02*
X124861904Y-137740533D01*
X123814285Y-138454819D02*
X123623809Y-138454819D01*
X123623809Y-138454819D02*
X123528571Y-138407200D01*
X123528571Y-138407200D02*
X123480952Y-138359580D01*
X123480952Y-138359580D02*
X123385714Y-138216723D01*
X123385714Y-138216723D02*
X123338095Y-138026247D01*
X123338095Y-138026247D02*
X123338095Y-137645295D01*
X123338095Y-137645295D02*
X123385714Y-137550057D01*
X123385714Y-137550057D02*
X123433333Y-137502438D01*
X123433333Y-137502438D02*
X123528571Y-137454819D01*
X123528571Y-137454819D02*
X123719047Y-137454819D01*
X123719047Y-137454819D02*
X123814285Y-137502438D01*
X123814285Y-137502438D02*
X123861904Y-137550057D01*
X123861904Y-137550057D02*
X123909523Y-137645295D01*
X123909523Y-137645295D02*
X123909523Y-137883390D01*
X123909523Y-137883390D02*
X123861904Y-137978628D01*
X123861904Y-137978628D02*
X123814285Y-138026247D01*
X123814285Y-138026247D02*
X123719047Y-138073866D01*
X123719047Y-138073866D02*
X123528571Y-138073866D01*
X123528571Y-138073866D02*
X123433333Y-138026247D01*
X123433333Y-138026247D02*
X123385714Y-137978628D01*
X123385714Y-137978628D02*
X123338095Y-137883390D01*
X121014285Y-80654819D02*
X121014285Y-79654819D01*
X121014285Y-79654819D02*
X120776190Y-79654819D01*
X120776190Y-79654819D02*
X120633333Y-79702438D01*
X120633333Y-79702438D02*
X120538095Y-79797676D01*
X120538095Y-79797676D02*
X120490476Y-79892914D01*
X120490476Y-79892914D02*
X120442857Y-80083390D01*
X120442857Y-80083390D02*
X120442857Y-80226247D01*
X120442857Y-80226247D02*
X120490476Y-80416723D01*
X120490476Y-80416723D02*
X120538095Y-80511961D01*
X120538095Y-80511961D02*
X120633333Y-80607200D01*
X120633333Y-80607200D02*
X120776190Y-80654819D01*
X120776190Y-80654819D02*
X121014285Y-80654819D01*
X120061904Y-79750057D02*
X120014285Y-79702438D01*
X120014285Y-79702438D02*
X119919047Y-79654819D01*
X119919047Y-79654819D02*
X119680952Y-79654819D01*
X119680952Y-79654819D02*
X119585714Y-79702438D01*
X119585714Y-79702438D02*
X119538095Y-79750057D01*
X119538095Y-79750057D02*
X119490476Y-79845295D01*
X119490476Y-79845295D02*
X119490476Y-79940533D01*
X119490476Y-79940533D02*
X119538095Y-80083390D01*
X119538095Y-80083390D02*
X120109523Y-80654819D01*
X120109523Y-80654819D02*
X119490476Y-80654819D01*
X119109523Y-79750057D02*
X119061904Y-79702438D01*
X119061904Y-79702438D02*
X118966666Y-79654819D01*
X118966666Y-79654819D02*
X118728571Y-79654819D01*
X118728571Y-79654819D02*
X118633333Y-79702438D01*
X118633333Y-79702438D02*
X118585714Y-79750057D01*
X118585714Y-79750057D02*
X118538095Y-79845295D01*
X118538095Y-79845295D02*
X118538095Y-79940533D01*
X118538095Y-79940533D02*
X118585714Y-80083390D01*
X118585714Y-80083390D02*
X119157142Y-80654819D01*
X119157142Y-80654819D02*
X118538095Y-80654819D01*
X112804819Y-153757142D02*
X112328628Y-153423809D01*
X112804819Y-153185714D02*
X111804819Y-153185714D01*
X111804819Y-153185714D02*
X111804819Y-153566666D01*
X111804819Y-153566666D02*
X111852438Y-153661904D01*
X111852438Y-153661904D02*
X111900057Y-153709523D01*
X111900057Y-153709523D02*
X111995295Y-153757142D01*
X111995295Y-153757142D02*
X112138152Y-153757142D01*
X112138152Y-153757142D02*
X112233390Y-153709523D01*
X112233390Y-153709523D02*
X112281009Y-153661904D01*
X112281009Y-153661904D02*
X112328628Y-153566666D01*
X112328628Y-153566666D02*
X112328628Y-153185714D01*
X112804819Y-154709523D02*
X112804819Y-154138095D01*
X112804819Y-154423809D02*
X111804819Y-154423809D01*
X111804819Y-154423809D02*
X111947676Y-154328571D01*
X111947676Y-154328571D02*
X112042914Y-154233333D01*
X112042914Y-154233333D02*
X112090533Y-154138095D01*
X112804819Y-155661904D02*
X112804819Y-155090476D01*
X112804819Y-155376190D02*
X111804819Y-155376190D01*
X111804819Y-155376190D02*
X111947676Y-155280952D01*
X111947676Y-155280952D02*
X112042914Y-155185714D01*
X112042914Y-155185714D02*
X112090533Y-155090476D01*
X112892319Y-149807142D02*
X112416128Y-149473809D01*
X112892319Y-149235714D02*
X111892319Y-149235714D01*
X111892319Y-149235714D02*
X111892319Y-149616666D01*
X111892319Y-149616666D02*
X111939938Y-149711904D01*
X111939938Y-149711904D02*
X111987557Y-149759523D01*
X111987557Y-149759523D02*
X112082795Y-149807142D01*
X112082795Y-149807142D02*
X112225652Y-149807142D01*
X112225652Y-149807142D02*
X112320890Y-149759523D01*
X112320890Y-149759523D02*
X112368509Y-149711904D01*
X112368509Y-149711904D02*
X112416128Y-149616666D01*
X112416128Y-149616666D02*
X112416128Y-149235714D01*
X112892319Y-150759523D02*
X112892319Y-150188095D01*
X112892319Y-150473809D02*
X111892319Y-150473809D01*
X111892319Y-150473809D02*
X112035176Y-150378571D01*
X112035176Y-150378571D02*
X112130414Y-150283333D01*
X112130414Y-150283333D02*
X112178033Y-150188095D01*
X111892319Y-151092857D02*
X111892319Y-151711904D01*
X111892319Y-151711904D02*
X112273271Y-151378571D01*
X112273271Y-151378571D02*
X112273271Y-151521428D01*
X112273271Y-151521428D02*
X112320890Y-151616666D01*
X112320890Y-151616666D02*
X112368509Y-151664285D01*
X112368509Y-151664285D02*
X112463747Y-151711904D01*
X112463747Y-151711904D02*
X112701842Y-151711904D01*
X112701842Y-151711904D02*
X112797080Y-151664285D01*
X112797080Y-151664285D02*
X112844700Y-151616666D01*
X112844700Y-151616666D02*
X112892319Y-151521428D01*
X112892319Y-151521428D02*
X112892319Y-151235714D01*
X112892319Y-151235714D02*
X112844700Y-151140476D01*
X112844700Y-151140476D02*
X112797080Y-151092857D01*
X129654819Y-133561905D02*
X128654819Y-133561905D01*
X128654819Y-133561905D02*
X128654819Y-133800000D01*
X128654819Y-133800000D02*
X128702438Y-133942857D01*
X128702438Y-133942857D02*
X128797676Y-134038095D01*
X128797676Y-134038095D02*
X128892914Y-134085714D01*
X128892914Y-134085714D02*
X129083390Y-134133333D01*
X129083390Y-134133333D02*
X129226247Y-134133333D01*
X129226247Y-134133333D02*
X129416723Y-134085714D01*
X129416723Y-134085714D02*
X129511961Y-134038095D01*
X129511961Y-134038095D02*
X129607200Y-133942857D01*
X129607200Y-133942857D02*
X129654819Y-133800000D01*
X129654819Y-133800000D02*
X129654819Y-133561905D01*
X128654819Y-134466667D02*
X128654819Y-135085714D01*
X128654819Y-135085714D02*
X129035771Y-134752381D01*
X129035771Y-134752381D02*
X129035771Y-134895238D01*
X129035771Y-134895238D02*
X129083390Y-134990476D01*
X129083390Y-134990476D02*
X129131009Y-135038095D01*
X129131009Y-135038095D02*
X129226247Y-135085714D01*
X129226247Y-135085714D02*
X129464342Y-135085714D01*
X129464342Y-135085714D02*
X129559580Y-135038095D01*
X129559580Y-135038095D02*
X129607200Y-134990476D01*
X129607200Y-134990476D02*
X129654819Y-134895238D01*
X129654819Y-134895238D02*
X129654819Y-134609524D01*
X129654819Y-134609524D02*
X129607200Y-134514286D01*
X129607200Y-134514286D02*
X129559580Y-134466667D01*
X113166666Y-140354819D02*
X113499999Y-139878628D01*
X113738094Y-140354819D02*
X113738094Y-139354819D01*
X113738094Y-139354819D02*
X113357142Y-139354819D01*
X113357142Y-139354819D02*
X113261904Y-139402438D01*
X113261904Y-139402438D02*
X113214285Y-139450057D01*
X113214285Y-139450057D02*
X113166666Y-139545295D01*
X113166666Y-139545295D02*
X113166666Y-139688152D01*
X113166666Y-139688152D02*
X113214285Y-139783390D01*
X113214285Y-139783390D02*
X113261904Y-139831009D01*
X113261904Y-139831009D02*
X113357142Y-139878628D01*
X113357142Y-139878628D02*
X113738094Y-139878628D01*
X112309523Y-139688152D02*
X112309523Y-140354819D01*
X112547618Y-139307200D02*
X112785713Y-140021485D01*
X112785713Y-140021485D02*
X112166666Y-140021485D01*
X102154819Y-134957142D02*
X101678628Y-134623809D01*
X102154819Y-134385714D02*
X101154819Y-134385714D01*
X101154819Y-134385714D02*
X101154819Y-134766666D01*
X101154819Y-134766666D02*
X101202438Y-134861904D01*
X101202438Y-134861904D02*
X101250057Y-134909523D01*
X101250057Y-134909523D02*
X101345295Y-134957142D01*
X101345295Y-134957142D02*
X101488152Y-134957142D01*
X101488152Y-134957142D02*
X101583390Y-134909523D01*
X101583390Y-134909523D02*
X101631009Y-134861904D01*
X101631009Y-134861904D02*
X101678628Y-134766666D01*
X101678628Y-134766666D02*
X101678628Y-134385714D01*
X102154819Y-135909523D02*
X102154819Y-135338095D01*
X102154819Y-135623809D02*
X101154819Y-135623809D01*
X101154819Y-135623809D02*
X101297676Y-135528571D01*
X101297676Y-135528571D02*
X101392914Y-135433333D01*
X101392914Y-135433333D02*
X101440533Y-135338095D01*
X101154819Y-136528571D02*
X101154819Y-136623809D01*
X101154819Y-136623809D02*
X101202438Y-136719047D01*
X101202438Y-136719047D02*
X101250057Y-136766666D01*
X101250057Y-136766666D02*
X101345295Y-136814285D01*
X101345295Y-136814285D02*
X101535771Y-136861904D01*
X101535771Y-136861904D02*
X101773866Y-136861904D01*
X101773866Y-136861904D02*
X101964342Y-136814285D01*
X101964342Y-136814285D02*
X102059580Y-136766666D01*
X102059580Y-136766666D02*
X102107200Y-136719047D01*
X102107200Y-136719047D02*
X102154819Y-136623809D01*
X102154819Y-136623809D02*
X102154819Y-136528571D01*
X102154819Y-136528571D02*
X102107200Y-136433333D01*
X102107200Y-136433333D02*
X102059580Y-136385714D01*
X102059580Y-136385714D02*
X101964342Y-136338095D01*
X101964342Y-136338095D02*
X101773866Y-136290476D01*
X101773866Y-136290476D02*
X101535771Y-136290476D01*
X101535771Y-136290476D02*
X101345295Y-136338095D01*
X101345295Y-136338095D02*
X101250057Y-136385714D01*
X101250057Y-136385714D02*
X101202438Y-136433333D01*
X101202438Y-136433333D02*
X101154819Y-136528571D01*
X104254819Y-135933333D02*
X103778628Y-135600000D01*
X104254819Y-135361905D02*
X103254819Y-135361905D01*
X103254819Y-135361905D02*
X103254819Y-135742857D01*
X103254819Y-135742857D02*
X103302438Y-135838095D01*
X103302438Y-135838095D02*
X103350057Y-135885714D01*
X103350057Y-135885714D02*
X103445295Y-135933333D01*
X103445295Y-135933333D02*
X103588152Y-135933333D01*
X103588152Y-135933333D02*
X103683390Y-135885714D01*
X103683390Y-135885714D02*
X103731009Y-135838095D01*
X103731009Y-135838095D02*
X103778628Y-135742857D01*
X103778628Y-135742857D02*
X103778628Y-135361905D01*
X104254819Y-136409524D02*
X104254819Y-136600000D01*
X104254819Y-136600000D02*
X104207200Y-136695238D01*
X104207200Y-136695238D02*
X104159580Y-136742857D01*
X104159580Y-136742857D02*
X104016723Y-136838095D01*
X104016723Y-136838095D02*
X103826247Y-136885714D01*
X103826247Y-136885714D02*
X103445295Y-136885714D01*
X103445295Y-136885714D02*
X103350057Y-136838095D01*
X103350057Y-136838095D02*
X103302438Y-136790476D01*
X103302438Y-136790476D02*
X103254819Y-136695238D01*
X103254819Y-136695238D02*
X103254819Y-136504762D01*
X103254819Y-136504762D02*
X103302438Y-136409524D01*
X103302438Y-136409524D02*
X103350057Y-136361905D01*
X103350057Y-136361905D02*
X103445295Y-136314286D01*
X103445295Y-136314286D02*
X103683390Y-136314286D01*
X103683390Y-136314286D02*
X103778628Y-136361905D01*
X103778628Y-136361905D02*
X103826247Y-136409524D01*
X103826247Y-136409524D02*
X103873866Y-136504762D01*
X103873866Y-136504762D02*
X103873866Y-136695238D01*
X103873866Y-136695238D02*
X103826247Y-136790476D01*
X103826247Y-136790476D02*
X103778628Y-136838095D01*
X103778628Y-136838095D02*
X103683390Y-136885714D01*
D12*
X101872936Y-94965000D02*
X102327064Y-94965000D01*
X101872936Y-96435000D02*
X102327064Y-96435000D01*
X102327064Y-92765000D02*
X101872936Y-92765000D01*
X102327064Y-94235000D02*
X101872936Y-94235000D01*
X107172936Y-143365000D02*
X107627064Y-143365000D01*
X107172936Y-144835000D02*
X107627064Y-144835000D01*
X123865000Y-104227064D02*
X123865000Y-103772936D01*
X125335000Y-104227064D02*
X125335000Y-103772936D01*
X120900000Y-108250000D02*
X120900000Y-112260000D01*
X120900000Y-112260000D02*
X122900000Y-112260000D01*
X122900000Y-108250000D02*
X122900000Y-112260000D01*
X121250000Y-64850000D02*
X121250000Y-68860000D01*
X121250000Y-68860000D02*
X123250000Y-68860000D01*
X123250000Y-64850000D02*
X123250000Y-68860000D01*
X116350000Y-152665000D02*
X117000000Y-152665000D01*
X116350000Y-155785000D02*
X117000000Y-155785000D01*
X117650000Y-152665000D02*
X117000000Y-152665000D01*
X117650000Y-155785000D02*
X117000000Y-155785000D01*
X116077500Y-156065000D02*
X115597500Y-156065000D01*
X115837500Y-155735000D01*
X116077500Y-156065000D01*
G36*
X116077500Y-156065000D02*
G01*
X115597500Y-156065000D01*
X115837500Y-155735000D01*
X116077500Y-156065000D01*
G37*
X120900000Y-134250000D02*
X120900000Y-138260000D01*
X120900000Y-138260000D02*
X122900000Y-138260000D01*
X122900000Y-134250000D02*
X122900000Y-138260000D01*
X124851000Y-87300000D02*
G75*
G02*
X122349000Y-87300000I-1251000J0D01*
G01*
X122349000Y-87300000D02*
G75*
G02*
X124851000Y-87300000I1251000J0D01*
G01*
X116672936Y-156265000D02*
X117127064Y-156265000D01*
X116672936Y-157735000D02*
X117127064Y-157735000D01*
X123865000Y-119427064D02*
X123865000Y-118972936D01*
X125335000Y-119427064D02*
X125335000Y-118972936D01*
X123965000Y-84027064D02*
X123965000Y-83572936D01*
X125435000Y-84027064D02*
X125435000Y-83572936D01*
X123865000Y-98372936D02*
X123865000Y-98827064D01*
X125335000Y-98372936D02*
X125335000Y-98827064D01*
X117365000Y-128061252D02*
X117365000Y-127538748D01*
X118835000Y-128061252D02*
X118835000Y-127538748D01*
X126300000Y-121350000D02*
X126300000Y-117340000D01*
X128300000Y-117340000D02*
X126300000Y-117340000D01*
X128300000Y-121350000D02*
X128300000Y-117340000D01*
X126300000Y-126750000D02*
X126300000Y-122740000D01*
X128300000Y-122740000D02*
X126300000Y-122740000D01*
X128300000Y-126750000D02*
X128300000Y-122740000D01*
X120900000Y-128850000D02*
X120900000Y-132860000D01*
X120900000Y-132860000D02*
X122900000Y-132860000D01*
X122900000Y-128850000D02*
X122900000Y-132860000D01*
X102472936Y-76665000D02*
X102927064Y-76665000D01*
X102472936Y-78135000D02*
X102927064Y-78135000D01*
X101861000Y-50879759D02*
X101861000Y-50249759D01*
X102176000Y-50564759D02*
X101546000Y-50564759D01*
X102660000Y-53990000D02*
X100478000Y-53990000D01*
X102660000Y-54030000D02*
X100482000Y-54030000D01*
X102660000Y-54070000D02*
X100485000Y-54070000D01*
X102660000Y-54110000D02*
X100489000Y-54110000D01*
X102660000Y-54150000D02*
X100494000Y-54150000D01*
X102660000Y-54190000D02*
X100499000Y-54190000D01*
X102660000Y-54230000D02*
X100505000Y-54230000D01*
X102660000Y-54270000D02*
X100511000Y-54270000D01*
X102660000Y-54310000D02*
X100518000Y-54310000D01*
X102660000Y-54350000D02*
X100525000Y-54350000D01*
X102660000Y-54390000D02*
X100533000Y-54390000D01*
X102660000Y-54430000D02*
X100541000Y-54430000D01*
X102660000Y-54471000D02*
X100550000Y-54471000D01*
X102660000Y-54511000D02*
X100559000Y-54511000D01*
X102660000Y-54551000D02*
X100569000Y-54551000D01*
X102660000Y-54591000D02*
X100579000Y-54591000D01*
X102660000Y-54631000D02*
X100590000Y-54631000D01*
X102660000Y-54671000D02*
X100602000Y-54671000D01*
X102660000Y-54711000D02*
X100614000Y-54711000D01*
X102660000Y-54751000D02*
X100626000Y-54751000D01*
X102660000Y-54791000D02*
X100639000Y-54791000D01*
X102660000Y-54831000D02*
X100653000Y-54831000D01*
X102660000Y-54871000D02*
X100667000Y-54871000D01*
X102660000Y-54911000D02*
X100682000Y-54911000D01*
X102660000Y-54951000D02*
X100698000Y-54951000D01*
X102660000Y-54991000D02*
X100714000Y-54991000D01*
X102660000Y-55031000D02*
X100730000Y-55031000D01*
X102660000Y-55071000D02*
X100748000Y-55071000D01*
X102660000Y-55111000D02*
X100766000Y-55111000D01*
X102660000Y-55151000D02*
X100784000Y-55151000D01*
X102660000Y-55191000D02*
X100804000Y-55191000D01*
X102660000Y-55231000D02*
X100824000Y-55231000D01*
X102660000Y-55271000D02*
X100844000Y-55271000D01*
X102660000Y-55311000D02*
X100866000Y-55311000D01*
X102660000Y-55351000D02*
X100888000Y-55351000D01*
X102660000Y-55391000D02*
X100910000Y-55391000D01*
X102660000Y-55431000D02*
X100934000Y-55431000D01*
X102660000Y-55471000D02*
X100958000Y-55471000D01*
X102660000Y-55511000D02*
X100984000Y-55511000D01*
X102660000Y-55551000D02*
X101010000Y-55551000D01*
X102660000Y-55591000D02*
X101036000Y-55591000D01*
X102660000Y-55631000D02*
X101064000Y-55631000D01*
X102660000Y-55671000D02*
X101093000Y-55671000D01*
X102660000Y-55711000D02*
X101122000Y-55711000D01*
X102660000Y-55751000D02*
X101152000Y-55751000D01*
X102660000Y-55791000D02*
X101184000Y-55791000D01*
X102660000Y-55831000D02*
X101216000Y-55831000D01*
X102660000Y-55871000D02*
X101250000Y-55871000D01*
X102660000Y-55911000D02*
X101284000Y-55911000D01*
X102660000Y-55951000D02*
X101320000Y-55951000D01*
X102660000Y-55991000D02*
X101357000Y-55991000D01*
X102660000Y-56031000D02*
X101395000Y-56031000D01*
X104102000Y-56991000D02*
X103298000Y-56991000D01*
X104333000Y-56951000D02*
X103067000Y-56951000D01*
X104502000Y-56911000D02*
X102898000Y-56911000D01*
X104640000Y-56871000D02*
X102760000Y-56871000D01*
X104759000Y-56831000D02*
X102641000Y-56831000D01*
X104865000Y-56791000D02*
X102535000Y-56791000D01*
X104962000Y-56751000D02*
X102438000Y-56751000D01*
X105050000Y-56711000D02*
X102350000Y-56711000D01*
X105132000Y-56671000D02*
X102268000Y-56671000D01*
X105209000Y-56631000D02*
X102191000Y-56631000D01*
X105281000Y-56591000D02*
X102119000Y-56591000D01*
X105350000Y-56551000D02*
X102050000Y-56551000D01*
X105414000Y-56511000D02*
X101986000Y-56511000D01*
X105476000Y-56471000D02*
X101924000Y-56471000D01*
X105534000Y-56431000D02*
X101866000Y-56431000D01*
X105590000Y-56391000D02*
X101810000Y-56391000D01*
X105644000Y-56351000D02*
X101756000Y-56351000D01*
X105695000Y-56311000D02*
X101705000Y-56311000D01*
X105744000Y-56271000D02*
X101656000Y-56271000D01*
X105792000Y-56231000D02*
X101608000Y-56231000D01*
X105837000Y-56191000D02*
X101563000Y-56191000D01*
X105882000Y-56151000D02*
X101518000Y-56151000D01*
X105924000Y-56111000D02*
X101476000Y-56111000D01*
X105965000Y-56071000D02*
X101435000Y-56071000D01*
X106005000Y-56031000D02*
X104740000Y-56031000D01*
X106043000Y-55991000D02*
X104740000Y-55991000D01*
X106080000Y-55951000D02*
X104740000Y-55951000D01*
X106116000Y-55911000D02*
X104740000Y-55911000D01*
X106150000Y-55871000D02*
X104740000Y-55871000D01*
X106184000Y-55831000D02*
X104740000Y-55831000D01*
X106216000Y-55791000D02*
X104740000Y-55791000D01*
X106248000Y-55751000D02*
X104740000Y-55751000D01*
X106278000Y-55711000D02*
X104740000Y-55711000D01*
X106307000Y-55671000D02*
X104740000Y-55671000D01*
X106336000Y-55631000D02*
X104740000Y-55631000D01*
X106364000Y-55591000D02*
X104740000Y-55591000D01*
X106390000Y-55551000D02*
X104740000Y-55551000D01*
X106416000Y-55511000D02*
X104740000Y-55511000D01*
X106442000Y-55471000D02*
X104740000Y-55471000D01*
X106466000Y-55431000D02*
X104740000Y-55431000D01*
X106490000Y-55391000D02*
X104740000Y-55391000D01*
X106512000Y-55351000D02*
X104740000Y-55351000D01*
X106534000Y-55311000D02*
X104740000Y-55311000D01*
X106556000Y-55271000D02*
X104740000Y-55271000D01*
X106576000Y-55231000D02*
X104740000Y-55231000D01*
X106596000Y-55191000D02*
X104740000Y-55191000D01*
X106616000Y-55151000D02*
X104740000Y-55151000D01*
X106634000Y-55111000D02*
X104740000Y-55111000D01*
X106652000Y-55071000D02*
X104740000Y-55071000D01*
X106670000Y-55031000D02*
X104740000Y-55031000D01*
X106686000Y-54991000D02*
X104740000Y-54991000D01*
X106702000Y-54951000D02*
X104740000Y-54951000D01*
X106718000Y-54911000D02*
X104740000Y-54911000D01*
X106733000Y-54871000D02*
X104740000Y-54871000D01*
X106747000Y-54831000D02*
X104740000Y-54831000D01*
X106761000Y-54791000D02*
X104740000Y-54791000D01*
X106774000Y-54751000D02*
X104740000Y-54751000D01*
X106786000Y-54711000D02*
X104740000Y-54711000D01*
X106798000Y-54671000D02*
X104740000Y-54671000D01*
X106810000Y-54631000D02*
X104740000Y-54631000D01*
X106821000Y-54591000D02*
X104740000Y-54591000D01*
X106831000Y-54551000D02*
X104740000Y-54551000D01*
X106841000Y-54511000D02*
X104740000Y-54511000D01*
X106850000Y-54471000D02*
X104740000Y-54471000D01*
X106859000Y-54430000D02*
X104740000Y-54430000D01*
X106867000Y-54390000D02*
X104740000Y-54390000D01*
X106875000Y-54350000D02*
X104740000Y-54350000D01*
X106882000Y-54310000D02*
X104740000Y-54310000D01*
X106889000Y-54270000D02*
X104740000Y-54270000D01*
X106895000Y-54230000D02*
X104740000Y-54230000D01*
X106901000Y-54190000D02*
X104740000Y-54190000D01*
X106906000Y-54150000D02*
X104740000Y-54150000D01*
X106911000Y-54110000D02*
X104740000Y-54110000D01*
X106915000Y-54070000D02*
X104740000Y-54070000D01*
X106918000Y-54030000D02*
X104740000Y-54030000D01*
X106922000Y-53990000D02*
X104740000Y-53990000D01*
X106924000Y-53950000D02*
X100476000Y-53950000D01*
X106927000Y-53910000D02*
X100473000Y-53910000D01*
X106928000Y-53870000D02*
X100472000Y-53870000D01*
X106930000Y-53750000D02*
X100470000Y-53750000D01*
X106930000Y-53790000D02*
X100470000Y-53790000D01*
X106930000Y-53830000D02*
X100470000Y-53830000D01*
X106970000Y-53750000D02*
G75*
G02*
X100430000Y-53750000I-3270000J0D01*
G01*
X100430000Y-53750000D02*
G75*
G02*
X106970000Y-53750000I3270000J0D01*
G01*
X123865000Y-93427064D02*
X123865000Y-92972936D01*
X125335000Y-93427064D02*
X125335000Y-92972936D01*
X120900000Y-97450000D02*
X120900000Y-101460000D01*
X120900000Y-101460000D02*
X122900000Y-101460000D01*
X122900000Y-97450000D02*
X122900000Y-101460000D01*
X119265000Y-67227064D02*
X119265000Y-66772936D01*
X120735000Y-67227064D02*
X120735000Y-66772936D01*
X101872936Y-97165000D02*
X102327064Y-97165000D01*
X101872936Y-98635000D02*
X102327064Y-98635000D01*
X126265000Y-67227064D02*
X126265000Y-66772936D01*
X127735000Y-67227064D02*
X127735000Y-66772936D01*
X101550000Y-81150000D02*
X105560000Y-81150000D01*
X101550000Y-83150000D02*
X105560000Y-83150000D01*
X105560000Y-83150000D02*
X105560000Y-81150000D01*
X107172936Y-134965000D02*
X107627064Y-134965000D01*
X107172936Y-136435000D02*
X107627064Y-136435000D01*
X126300000Y-106150000D02*
X126300000Y-102140000D01*
X128300000Y-102140000D02*
X126300000Y-102140000D01*
X128300000Y-106150000D02*
X128300000Y-102140000D01*
D13*
G36*
X129419667Y-158376208D02*
G01*
X129398500Y-158397374D01*
X129377334Y-158376208D01*
X129398500Y-158355041D01*
X129419667Y-158376208D01*
G37*
G36*
X129283623Y-158417690D02*
G01*
X129278556Y-158467930D01*
X129265823Y-158474553D01*
X129250334Y-158439708D01*
X129253389Y-158417297D01*
X129278556Y-158411486D01*
X129283623Y-158417690D01*
G37*
G36*
X129197417Y-159225910D02*
G01*
X129205456Y-159235130D01*
X129271500Y-159295817D01*
X129283056Y-159314482D01*
X129239750Y-159328060D01*
X129200140Y-159317618D01*
X129165667Y-159258152D01*
X129171013Y-159225542D01*
X129197417Y-159225910D01*
G37*
G36*
X129385278Y-159008103D02*
G01*
X129419667Y-159039430D01*
X129417796Y-159051485D01*
X129378698Y-159073716D01*
X129320889Y-159046486D01*
X129310551Y-159035925D01*
X129298639Y-159009067D01*
X129356167Y-159004152D01*
X129385278Y-159008103D01*
G37*
G36*
X129396808Y-159208872D02*
G01*
X129419667Y-159265208D01*
X129414891Y-159294420D01*
X129377334Y-159328708D01*
X129357859Y-159321544D01*
X129335000Y-159265208D01*
X129339777Y-159235996D01*
X129377334Y-159201708D01*
X129396808Y-159208872D01*
G37*
G36*
X128689418Y-153030648D02*
G01*
X129440834Y-153042208D01*
X129453851Y-153222125D01*
X129466869Y-153402042D01*
X128702435Y-153402042D01*
X127938001Y-153402042D01*
X127938001Y-153210565D01*
X127938001Y-153019088D01*
X128689418Y-153030648D01*
G37*
G36*
X129292667Y-158092011D02*
G01*
X129294681Y-158092309D01*
X129383023Y-158110165D01*
X129419667Y-158127013D01*
X129419660Y-158127185D01*
X129381918Y-158138625D01*
X129292667Y-158143374D01*
X129291177Y-158143372D01*
X129202483Y-158132957D01*
X129165667Y-158108373D01*
X129165715Y-158107421D01*
X129204131Y-158088983D01*
X129292667Y-158092011D01*
G37*
G36*
X129375450Y-158230992D02*
G01*
X129396491Y-158249761D01*
X129355349Y-158298407D01*
X129341372Y-158311991D01*
X129287779Y-158344383D01*
X129249534Y-158311414D01*
X129240078Y-158299776D01*
X129215127Y-158318434D01*
X129196992Y-158420965D01*
X129179900Y-158587874D01*
X129172784Y-158407958D01*
X129170874Y-158347229D01*
X129178171Y-158265282D01*
X129214403Y-158233418D01*
X129295691Y-158228041D01*
X129375450Y-158230992D01*
G37*
G36*
X128722554Y-158440086D02*
G01*
X128794819Y-158452441D01*
X128822515Y-158500623D01*
X128827000Y-158609041D01*
X128826669Y-158659007D01*
X128815859Y-158741596D01*
X128773700Y-158773248D01*
X128678834Y-158778374D01*
X128635114Y-158777996D01*
X128562849Y-158765641D01*
X128535153Y-158717459D01*
X128530668Y-158609041D01*
X128530999Y-158559075D01*
X128541810Y-158476487D01*
X128583968Y-158444834D01*
X128678834Y-158439708D01*
X128722554Y-158440086D01*
G37*
G36*
X128075584Y-156119276D02*
G01*
X128213168Y-156132541D01*
X128225604Y-156464638D01*
X128226676Y-156499384D01*
X128225563Y-156658744D01*
X128215202Y-156782269D01*
X128197395Y-156845638D01*
X128198637Y-156862501D01*
X128249293Y-156877478D01*
X128360960Y-156887384D01*
X128541505Y-156892858D01*
X128798792Y-156894541D01*
X129440834Y-156894541D01*
X129453851Y-157074458D01*
X129466869Y-157254374D01*
X128702435Y-157254374D01*
X127938001Y-157254374D01*
X127938001Y-156680192D01*
X127938001Y-156106010D01*
X128075584Y-156119276D01*
G37*
G36*
X129399287Y-158517263D02*
G01*
X129412346Y-158574783D01*
X129410290Y-158697716D01*
X129407694Y-158741382D01*
X129385933Y-158864173D01*
X129356167Y-158895004D01*
X129346155Y-158905374D01*
X129311518Y-158881096D01*
X129312268Y-158841874D01*
X129335000Y-158841874D01*
X129356167Y-158863041D01*
X129377334Y-158841874D01*
X129356167Y-158820708D01*
X129335000Y-158841874D01*
X129312268Y-158841874D01*
X129313281Y-158788958D01*
X129314211Y-158784008D01*
X129321112Y-158722879D01*
X129308963Y-158730248D01*
X129280446Y-158766773D01*
X129241895Y-158730248D01*
X129234615Y-158720537D01*
X129214385Y-158716284D01*
X129219982Y-158788958D01*
X129222649Y-158869595D01*
X129202130Y-158905374D01*
X129201697Y-158905366D01*
X129176236Y-158867570D01*
X129165667Y-158778374D01*
X129165670Y-158776794D01*
X129178277Y-158688161D01*
X129208000Y-158651374D01*
X129225815Y-158645903D01*
X129250334Y-158592812D01*
X129266123Y-158554699D01*
X129334830Y-158512153D01*
X129363419Y-158506231D01*
X129399287Y-158517263D01*
G37*
G36*
X128234334Y-155177543D02*
G01*
X128234007Y-155219146D01*
X128226628Y-155373705D01*
X128211515Y-155488182D01*
X128191310Y-155540301D01*
X128163210Y-155566262D01*
X128176005Y-155605963D01*
X128254010Y-155634663D01*
X128384999Y-155645708D01*
X128573001Y-155645708D01*
X128573001Y-155624541D01*
X128700001Y-155624541D01*
X128721167Y-155645708D01*
X128742334Y-155624541D01*
X128721167Y-155603374D01*
X128700001Y-155624541D01*
X128573001Y-155624541D01*
X128573001Y-155285874D01*
X128573001Y-154926041D01*
X128721167Y-154926041D01*
X128869334Y-154926041D01*
X128869334Y-155288557D01*
X128869334Y-155651072D01*
X129006917Y-155637807D01*
X129144500Y-155624541D01*
X129150511Y-155264708D01*
X129156521Y-154904874D01*
X129308971Y-154891753D01*
X129461421Y-154878631D01*
X129457737Y-155428507D01*
X129454052Y-155978383D01*
X128721167Y-155982235D01*
X128698832Y-155982352D01*
X127943611Y-155986321D01*
X127940758Y-155413848D01*
X127937904Y-154841374D01*
X128086119Y-154841374D01*
X128234334Y-154841374D01*
X128234334Y-155177543D01*
G37*
G36*
X129454357Y-153698375D02*
G01*
X129452020Y-153867708D01*
X129031178Y-153867708D01*
X128908346Y-153869328D01*
X128759714Y-153876775D01*
X128662314Y-153888889D01*
X128632854Y-153904140D01*
X128665635Y-153931634D01*
X128758764Y-153995013D01*
X128895833Y-154082112D01*
X129061041Y-154182657D01*
X129201314Y-154266772D01*
X129330033Y-154347967D01*
X129407464Y-154407580D01*
X129445781Y-154457932D01*
X129457159Y-154511345D01*
X129453773Y-154580142D01*
X129440834Y-154735541D01*
X128689418Y-154748410D01*
X127938001Y-154761278D01*
X127938001Y-154563161D01*
X127938001Y-154365044D01*
X128361827Y-154388298D01*
X128487742Y-154393730D01*
X128636810Y-154395332D01*
X128734846Y-154390073D01*
X128765142Y-154378364D01*
X128733616Y-154352378D01*
X128641748Y-154290421D01*
X128505735Y-154204404D01*
X128341317Y-154104498D01*
X128206355Y-154023569D01*
X128076089Y-153941416D01*
X127996742Y-153880397D01*
X127955694Y-153827740D01*
X127940320Y-153770674D01*
X127938001Y-153696430D01*
X127938001Y-153529042D01*
X128697348Y-153529042D01*
X129456694Y-153529042D01*
X129454357Y-153698375D01*
G37*
G36*
X128109599Y-148819552D02*
G01*
X128210286Y-148820199D01*
X128370762Y-148821361D01*
X128574715Y-148822918D01*
X128805834Y-148824750D01*
X129462000Y-148830042D01*
X129461352Y-148946458D01*
X129458893Y-148999298D01*
X129422441Y-149115795D01*
X129335000Y-149180185D01*
X129310703Y-149198793D01*
X129366750Y-149207700D01*
X129399465Y-149210546D01*
X129434136Y-149228973D01*
X129452866Y-149279776D01*
X129460529Y-149380383D01*
X129462000Y-149548219D01*
X129459364Y-149674481D01*
X129439892Y-149833505D01*
X129396718Y-149922760D01*
X129324256Y-149950869D01*
X129216920Y-149926454D01*
X129187546Y-149913923D01*
X129150888Y-149883080D01*
X129131691Y-149825393D01*
X129125336Y-149721614D01*
X129127207Y-149552494D01*
X129132223Y-149409063D01*
X129144674Y-149288093D01*
X129167097Y-149222766D01*
X129202955Y-149196823D01*
X129201013Y-149192529D01*
X129135655Y-149186280D01*
X129006234Y-149180725D01*
X128825138Y-149176344D01*
X128604751Y-149173619D01*
X127938001Y-149168708D01*
X127938001Y-148999375D01*
X127938279Y-148964191D01*
X127949961Y-148868316D01*
X127992888Y-148827806D01*
X128086168Y-148819458D01*
X128109599Y-148819552D01*
G37*
G36*
X128726565Y-158990437D02*
G01*
X128934121Y-158992844D01*
X129100198Y-158997068D01*
X129210401Y-159002689D01*
X129250334Y-159009284D01*
X129248873Y-159013849D01*
X129211284Y-159062928D01*
X129138769Y-159140091D01*
X129120770Y-159157603D01*
X129059834Y-159201544D01*
X129041186Y-159214991D01*
X128996493Y-159201966D01*
X128971490Y-159178318D01*
X128941103Y-159216590D01*
X128935572Y-159251391D01*
X128966962Y-159301464D01*
X128967556Y-159301714D01*
X128953975Y-159312006D01*
X128873205Y-159319429D01*
X128742334Y-159322390D01*
X128738633Y-159322393D01*
X128609660Y-159318397D01*
X128541221Y-159307643D01*
X128545355Y-159291989D01*
X128563734Y-159284440D01*
X128599578Y-159253892D01*
X128559499Y-159208069D01*
X128547324Y-159198358D01*
X128499159Y-159182827D01*
X128467875Y-159241812D01*
X128455194Y-159272168D01*
X128414695Y-159308104D01*
X128333270Y-159324688D01*
X128189148Y-159328708D01*
X127938001Y-159328708D01*
X127938001Y-159159374D01*
X127938001Y-159074708D01*
X128996334Y-159074708D01*
X129003498Y-159094182D01*
X129059834Y-159117041D01*
X129089046Y-159112265D01*
X129123334Y-159074708D01*
X129116170Y-159055233D01*
X129059834Y-159032374D01*
X129030622Y-159037151D01*
X128996334Y-159074708D01*
X127938001Y-159074708D01*
X127938001Y-158990041D01*
X128594168Y-158990041D01*
X128726565Y-158990437D01*
G37*
G36*
X128012084Y-149697161D02*
G01*
X128041870Y-149708334D01*
X128146389Y-149746024D01*
X128306102Y-149802798D01*
X128505539Y-149873163D01*
X128729226Y-149951632D01*
X128868989Y-150000808D01*
X129074846Y-150074357D01*
X129244580Y-150136374D01*
X129363556Y-150181485D01*
X129417143Y-150204315D01*
X129428787Y-150217871D01*
X129452547Y-150297908D01*
X129462000Y-150416998D01*
X129461998Y-150428329D01*
X129457736Y-150530080D01*
X129432203Y-150591112D01*
X129366006Y-150634751D01*
X129239750Y-150684322D01*
X129113945Y-150730282D01*
X128874521Y-150814651D01*
X128637448Y-150894750D01*
X128562534Y-150918969D01*
X128418168Y-150965640D01*
X128232123Y-151022387D01*
X128094756Y-151060055D01*
X128021510Y-151073708D01*
X127973520Y-151063995D01*
X127945087Y-151014528D01*
X127938001Y-150903046D01*
X127938676Y-150873750D01*
X127955996Y-150765651D01*
X127990918Y-150713802D01*
X128107522Y-150672796D01*
X128199104Y-150632316D01*
X128240413Y-150586070D01*
X128247378Y-150513183D01*
X128238872Y-150423728D01*
X128530581Y-150423728D01*
X128535167Y-150489655D01*
X128562534Y-150515592D01*
X128632628Y-150508701D01*
X128765395Y-150476148D01*
X128861512Y-150447133D01*
X128924093Y-150408656D01*
X128902339Y-150373210D01*
X128796131Y-150341307D01*
X128702782Y-150319209D01*
X128604751Y-150288977D01*
X128572375Y-150280144D01*
X128538985Y-150302905D01*
X128530668Y-150391846D01*
X128530581Y-150423728D01*
X128238872Y-150423728D01*
X128235930Y-150392785D01*
X128223928Y-150291289D01*
X128200823Y-150204822D01*
X128156475Y-150160355D01*
X128075584Y-150133110D01*
X128010697Y-150113928D01*
X127960990Y-150079050D01*
X127941418Y-150010436D01*
X127938001Y-149882635D01*
X127938499Y-149821268D01*
X127946099Y-149725669D01*
X127968320Y-149690078D01*
X128012084Y-149697161D01*
G37*
G36*
X128656259Y-151158634D02*
G01*
X128885031Y-151161666D01*
X129086687Y-151167567D01*
X129242045Y-151175662D01*
X129331922Y-151185276D01*
X129421048Y-151211299D01*
X129454880Y-151260200D01*
X129453631Y-151362208D01*
X129449912Y-151396443D01*
X129430104Y-151467548D01*
X129382971Y-151529706D01*
X129292956Y-151599613D01*
X129144500Y-151693965D01*
X129119508Y-151709251D01*
X128959471Y-151805483D01*
X128813538Y-151890775D01*
X128710584Y-151948207D01*
X128689220Y-151959771D01*
X128607187Y-152011386D01*
X128574988Y-152044632D01*
X128609312Y-152073742D01*
X128702642Y-152136336D01*
X128840624Y-152223048D01*
X129008905Y-152324619D01*
X129127602Y-152395410D01*
X129273667Y-152486311D01*
X129366598Y-152553772D01*
X129419102Y-152609427D01*
X129443882Y-152664908D01*
X129453644Y-152731850D01*
X129456432Y-152775384D01*
X129451245Y-152832862D01*
X129424701Y-152874607D01*
X129366247Y-152903146D01*
X129265332Y-152921007D01*
X129111407Y-152930718D01*
X129017500Y-152932482D01*
X128893918Y-152934805D01*
X128602317Y-152935797D01*
X127933133Y-152936375D01*
X127946150Y-152759637D01*
X127950282Y-152703542D01*
X128996334Y-152703542D01*
X129017500Y-152724708D01*
X129038667Y-152703542D01*
X129017500Y-152682375D01*
X128996334Y-152703542D01*
X127950282Y-152703542D01*
X127959168Y-152582899D01*
X128350751Y-152590488D01*
X128434707Y-152591277D01*
X128594824Y-152586983D01*
X128702760Y-152575402D01*
X128742334Y-152557881D01*
X128732491Y-152542373D01*
X128666202Y-152486936D01*
X128551195Y-152407179D01*
X128403668Y-152314730D01*
X128361719Y-152289197D01*
X128203764Y-152183695D01*
X128101414Y-152098270D01*
X128065001Y-152041265D01*
X128067042Y-152030969D01*
X128120386Y-151966763D01*
X128239194Y-151875899D01*
X128414251Y-151765648D01*
X128763500Y-151560542D01*
X128350751Y-151548425D01*
X127938001Y-151536309D01*
X127938001Y-151347342D01*
X127938001Y-151158375D01*
X128567709Y-151158375D01*
X128656259Y-151158634D01*
G37*
G36*
X129419667Y-157914069D02*
G01*
X129419432Y-157924157D01*
X129393387Y-157995836D01*
X129344716Y-157998721D01*
X129302673Y-157929062D01*
X129301538Y-157924812D01*
X129298576Y-157892523D01*
X129331129Y-157931708D01*
X129338580Y-157942087D01*
X129369483Y-157970426D01*
X129376686Y-157921124D01*
X129354332Y-157865851D01*
X129278859Y-157850017D01*
X129165686Y-157889365D01*
X129115330Y-157936067D01*
X129105797Y-158037531D01*
X129111975Y-158086744D01*
X129090484Y-158132397D01*
X129007745Y-158140399D01*
X128999786Y-158140158D01*
X128935501Y-158130296D01*
X128954000Y-158108649D01*
X128964686Y-158101771D01*
X129002480Y-158041820D01*
X129025786Y-157956495D01*
X129028155Y-157880126D01*
X129003140Y-157847041D01*
X128955283Y-157866037D01*
X128873324Y-157916744D01*
X128815013Y-157954673D01*
X128769413Y-157961840D01*
X128734801Y-157916744D01*
X128703727Y-157880513D01*
X128623814Y-157848388D01*
X128594545Y-157850262D01*
X128582072Y-157867579D01*
X128636501Y-157916433D01*
X128638627Y-157918108D01*
X128688683Y-157961816D01*
X128674293Y-157974390D01*
X128585820Y-157965080D01*
X128574566Y-157963688D01*
X128492895Y-157964024D01*
X128475193Y-157987026D01*
X128504030Y-158000984D01*
X128598612Y-158009687D01*
X128731413Y-158003132D01*
X128827345Y-157995743D01*
X128912507Y-157996446D01*
X128933763Y-158008390D01*
X128932890Y-158009261D01*
X128907936Y-158028819D01*
X128867276Y-158041016D01*
X128787971Y-158049964D01*
X128647084Y-158059774D01*
X128467168Y-158071424D01*
X128657668Y-158101041D01*
X128699903Y-158107801D01*
X128760531Y-158120215D01*
X128755385Y-158128104D01*
X128678168Y-158133145D01*
X128522583Y-158137016D01*
X128513351Y-158137209D01*
X128424834Y-158142593D01*
X128323672Y-158148747D01*
X128203459Y-158172306D01*
X128157681Y-158206210D01*
X128191310Y-158248781D01*
X128196609Y-158254611D01*
X128215806Y-158324133D01*
X128229262Y-158450535D01*
X128234334Y-158611540D01*
X128234334Y-158947708D01*
X128093223Y-158947708D01*
X128086168Y-158947708D01*
X128008557Y-158947708D01*
X127938001Y-158947708D01*
X127938001Y-158376208D01*
X127938001Y-158185708D01*
X127980334Y-158185708D01*
X127983389Y-158208119D01*
X128008557Y-158213930D01*
X128013623Y-158207725D01*
X128011403Y-158185708D01*
X128065001Y-158185708D01*
X128068056Y-158208119D01*
X128093223Y-158213930D01*
X128098290Y-158207725D01*
X128093223Y-158157486D01*
X128080490Y-158150863D01*
X128065001Y-158185708D01*
X128011403Y-158185708D01*
X128008557Y-158157486D01*
X127995823Y-158150863D01*
X127980334Y-158185708D01*
X127938001Y-158185708D01*
X127938001Y-158037541D01*
X128403668Y-158037541D01*
X128424834Y-158058708D01*
X128446001Y-158037541D01*
X128424834Y-158016374D01*
X128403668Y-158037541D01*
X127938001Y-158037541D01*
X127938001Y-157868208D01*
X128446001Y-157868208D01*
X128467168Y-157889374D01*
X128488334Y-157868208D01*
X128467168Y-157847041D01*
X128446001Y-157868208D01*
X127938001Y-157868208D01*
X127938001Y-157804708D01*
X128678834Y-157804708D01*
X129419667Y-157804708D01*
X129419667Y-157914069D01*
G37*
D12*
X123750000Y-68150000D02*
X123750000Y-64140000D01*
X125750000Y-64140000D02*
X123750000Y-64140000D01*
X125750000Y-68150000D02*
X125750000Y-64140000D01*
X126300000Y-111550000D02*
X126300000Y-107540000D01*
X128300000Y-107540000D02*
X126300000Y-107540000D01*
X128300000Y-111550000D02*
X128300000Y-107540000D01*
X112665000Y-83572936D02*
X112665000Y-84027064D01*
X114135000Y-83572936D02*
X114135000Y-84027064D01*
X114765000Y-84027064D02*
X114765000Y-83572936D01*
X116235000Y-84027064D02*
X116235000Y-83572936D01*
X123865000Y-124372936D02*
X123865000Y-124827064D01*
X125335000Y-124372936D02*
X125335000Y-124827064D01*
X111151000Y-82400000D02*
G75*
G02*
X108649000Y-82400000I-1251000J0D01*
G01*
X108649000Y-82400000D02*
G75*
G02*
X111151000Y-82400000I1251000J0D01*
G01*
X103851000Y-130900000D02*
G75*
G02*
X101349000Y-130900000I-1251000J0D01*
G01*
X101349000Y-130900000D02*
G75*
G02*
X103851000Y-130900000I1251000J0D01*
G01*
X128165000Y-84077064D02*
X128165000Y-83622936D01*
X129635000Y-84077064D02*
X129635000Y-83622936D01*
X126300000Y-132150000D02*
X126300000Y-128140000D01*
X128300000Y-128140000D02*
X126300000Y-128140000D01*
X128300000Y-132150000D02*
X128300000Y-128140000D01*
D14*
X107340000Y-78000000D02*
X107340000Y-70000000D01*
D12*
X108630000Y-69460000D02*
X129210000Y-69460000D01*
X108630000Y-78580000D02*
X108630000Y-69460000D01*
X109930000Y-70770000D02*
X116870000Y-70770000D01*
X109930000Y-77270000D02*
X109930000Y-70770000D01*
X113340000Y-69650000D02*
X113840000Y-70650000D01*
X113840000Y-70650000D02*
X114340000Y-69650000D01*
X114340000Y-69650000D02*
X113340000Y-69650000D01*
X116870000Y-70770000D02*
X116870000Y-69460000D01*
X120970000Y-69460000D02*
X120970000Y-70770000D01*
X120970000Y-70770000D02*
X120970000Y-70770000D01*
X120970000Y-70770000D02*
X127910000Y-70770000D01*
X127910000Y-70770000D02*
X127910000Y-77270000D01*
X127910000Y-77270000D02*
X109930000Y-77270000D01*
X129210000Y-69460000D02*
X129210000Y-78580000D01*
X129210000Y-78580000D02*
X108630000Y-78580000D01*
X120900000Y-123450000D02*
X120900000Y-127460000D01*
X120900000Y-127460000D02*
X122900000Y-127460000D01*
X122900000Y-123450000D02*
X122900000Y-127460000D01*
X117157064Y-147065000D02*
X116702936Y-147065000D01*
X117157064Y-148535000D02*
X116702936Y-148535000D01*
X116865000Y-83572936D02*
X116865000Y-84027064D01*
X118335000Y-83572936D02*
X118335000Y-84027064D01*
X116350000Y-149040000D02*
X117000000Y-149040000D01*
X116350000Y-152160000D02*
X117000000Y-152160000D01*
X117650000Y-149040000D02*
X117000000Y-149040000D01*
X117650000Y-152160000D02*
X117000000Y-152160000D01*
X118162500Y-149090000D02*
X117922500Y-148760000D01*
X118402500Y-148760000D01*
X118162500Y-149090000D01*
G36*
X118162500Y-149090000D02*
G01*
X117922500Y-148760000D01*
X118402500Y-148760000D01*
X118162500Y-149090000D01*
G37*
X103472936Y-83665000D02*
X103927064Y-83665000D01*
X103472936Y-85135000D02*
X103927064Y-85135000D01*
X123865000Y-109172936D02*
X123865000Y-109627064D01*
X125335000Y-109172936D02*
X125335000Y-109627064D01*
X107172936Y-141265000D02*
X107627064Y-141265000D01*
X107172936Y-142735000D02*
X107627064Y-142735000D01*
X114265000Y-114772936D02*
X114265000Y-115227064D01*
X115735000Y-114772936D02*
X115735000Y-115227064D01*
X123865000Y-130227064D02*
X123865000Y-129772936D01*
X125335000Y-130227064D02*
X125335000Y-129772936D01*
X111740000Y-127650000D02*
X111740000Y-129600000D01*
X111740000Y-131550000D02*
X111740000Y-129600000D01*
X116860000Y-127650000D02*
X116860000Y-129600000D01*
X116860000Y-131550000D02*
X116860000Y-129600000D01*
X117095000Y-132540000D02*
X116765000Y-132300000D01*
X117095000Y-132060000D01*
X117095000Y-132540000D01*
G36*
X117095000Y-132540000D02*
G01*
X116765000Y-132300000D01*
X117095000Y-132060000D01*
X117095000Y-132540000D01*
G37*
X109661252Y-131565000D02*
X109138748Y-131565000D01*
X109661252Y-133035000D02*
X109138748Y-133035000D01*
X115765000Y-108161252D02*
X115765000Y-107638748D01*
X117235000Y-108161252D02*
X117235000Y-107638748D01*
X123020000Y-53602380D02*
X129480000Y-53602380D01*
X123020000Y-53642380D02*
X129480000Y-53642380D01*
X123020000Y-53682380D02*
X129480000Y-53682380D01*
X123022000Y-53562380D02*
X129478000Y-53562380D01*
X123023000Y-53522380D02*
X129477000Y-53522380D01*
X123026000Y-53482380D02*
X129474000Y-53482380D01*
X123028000Y-53442380D02*
X125210000Y-53442380D01*
X123032000Y-53402380D02*
X125210000Y-53402380D01*
X123035000Y-53362380D02*
X125210000Y-53362380D01*
X123039000Y-53322380D02*
X125210000Y-53322380D01*
X123044000Y-53282380D02*
X125210000Y-53282380D01*
X123049000Y-53242380D02*
X125210000Y-53242380D01*
X123055000Y-53202380D02*
X125210000Y-53202380D01*
X123061000Y-53162380D02*
X125210000Y-53162380D01*
X123068000Y-53122380D02*
X125210000Y-53122380D01*
X123075000Y-53082380D02*
X125210000Y-53082380D01*
X123083000Y-53042380D02*
X125210000Y-53042380D01*
X123091000Y-53002380D02*
X125210000Y-53002380D01*
X123100000Y-52961380D02*
X125210000Y-52961380D01*
X123109000Y-52921380D02*
X125210000Y-52921380D01*
X123119000Y-52881380D02*
X125210000Y-52881380D01*
X123129000Y-52841380D02*
X125210000Y-52841380D01*
X123140000Y-52801380D02*
X125210000Y-52801380D01*
X123152000Y-52761380D02*
X125210000Y-52761380D01*
X123164000Y-52721380D02*
X125210000Y-52721380D01*
X123176000Y-52681380D02*
X125210000Y-52681380D01*
X123189000Y-52641380D02*
X125210000Y-52641380D01*
X123203000Y-52601380D02*
X125210000Y-52601380D01*
X123217000Y-52561380D02*
X125210000Y-52561380D01*
X123232000Y-52521380D02*
X125210000Y-52521380D01*
X123248000Y-52481380D02*
X125210000Y-52481380D01*
X123264000Y-52441380D02*
X125210000Y-52441380D01*
X123280000Y-52401380D02*
X125210000Y-52401380D01*
X123298000Y-52361380D02*
X125210000Y-52361380D01*
X123316000Y-52321380D02*
X125210000Y-52321380D01*
X123334000Y-52281380D02*
X125210000Y-52281380D01*
X123354000Y-52241380D02*
X125210000Y-52241380D01*
X123374000Y-52201380D02*
X125210000Y-52201380D01*
X123394000Y-52161380D02*
X125210000Y-52161380D01*
X123416000Y-52121380D02*
X125210000Y-52121380D01*
X123438000Y-52081380D02*
X125210000Y-52081380D01*
X123460000Y-52041380D02*
X125210000Y-52041380D01*
X123484000Y-52001380D02*
X125210000Y-52001380D01*
X123508000Y-51961380D02*
X125210000Y-51961380D01*
X123534000Y-51921380D02*
X125210000Y-51921380D01*
X123560000Y-51881380D02*
X125210000Y-51881380D01*
X123586000Y-51841380D02*
X125210000Y-51841380D01*
X123614000Y-51801380D02*
X125210000Y-51801380D01*
X123643000Y-51761380D02*
X125210000Y-51761380D01*
X123672000Y-51721380D02*
X125210000Y-51721380D01*
X123702000Y-51681380D02*
X125210000Y-51681380D01*
X123734000Y-51641380D02*
X125210000Y-51641380D01*
X123766000Y-51601380D02*
X125210000Y-51601380D01*
X123800000Y-51561380D02*
X125210000Y-51561380D01*
X123834000Y-51521380D02*
X125210000Y-51521380D01*
X123870000Y-51481380D02*
X125210000Y-51481380D01*
X123907000Y-51441380D02*
X125210000Y-51441380D01*
X123945000Y-51401380D02*
X125210000Y-51401380D01*
X123985000Y-51361380D02*
X128515000Y-51361380D01*
X124026000Y-51321380D02*
X128474000Y-51321380D01*
X124068000Y-51281380D02*
X128432000Y-51281380D01*
X124113000Y-51241380D02*
X128387000Y-51241380D01*
X124158000Y-51201380D02*
X128342000Y-51201380D01*
X124206000Y-51161380D02*
X128294000Y-51161380D01*
X124255000Y-51121380D02*
X128245000Y-51121380D01*
X124306000Y-51081380D02*
X128194000Y-51081380D01*
X124360000Y-51041380D02*
X128140000Y-51041380D01*
X124416000Y-51001380D02*
X128084000Y-51001380D01*
X124474000Y-50961380D02*
X128026000Y-50961380D01*
X124536000Y-50921380D02*
X127964000Y-50921380D01*
X124600000Y-50881380D02*
X127900000Y-50881380D01*
X124669000Y-50841380D02*
X127831000Y-50841380D01*
X124741000Y-50801380D02*
X127759000Y-50801380D01*
X124818000Y-50761380D02*
X127682000Y-50761380D01*
X124900000Y-50721380D02*
X127600000Y-50721380D01*
X124988000Y-50681380D02*
X127512000Y-50681380D01*
X125085000Y-50641380D02*
X127415000Y-50641380D01*
X125191000Y-50601380D02*
X127309000Y-50601380D01*
X125310000Y-50561380D02*
X127190000Y-50561380D01*
X125448000Y-50521380D02*
X127052000Y-50521380D01*
X125617000Y-50481380D02*
X126883000Y-50481380D01*
X125848000Y-50441380D02*
X126652000Y-50441380D01*
X127290000Y-51401380D02*
X128555000Y-51401380D01*
X127290000Y-51441380D02*
X128593000Y-51441380D01*
X127290000Y-51481380D02*
X128630000Y-51481380D01*
X127290000Y-51521380D02*
X128666000Y-51521380D01*
X127290000Y-51561380D02*
X128700000Y-51561380D01*
X127290000Y-51601380D02*
X128734000Y-51601380D01*
X127290000Y-51641380D02*
X128766000Y-51641380D01*
X127290000Y-51681380D02*
X128798000Y-51681380D01*
X127290000Y-51721380D02*
X128828000Y-51721380D01*
X127290000Y-51761380D02*
X128857000Y-51761380D01*
X127290000Y-51801380D02*
X128886000Y-51801380D01*
X127290000Y-51841380D02*
X128914000Y-51841380D01*
X127290000Y-51881380D02*
X128940000Y-51881380D01*
X127290000Y-51921380D02*
X128966000Y-51921380D01*
X127290000Y-51961380D02*
X128992000Y-51961380D01*
X127290000Y-52001380D02*
X129016000Y-52001380D01*
X127290000Y-52041380D02*
X129040000Y-52041380D01*
X127290000Y-52081380D02*
X129062000Y-52081380D01*
X127290000Y-52121380D02*
X129084000Y-52121380D01*
X127290000Y-52161380D02*
X129106000Y-52161380D01*
X127290000Y-52201380D02*
X129126000Y-52201380D01*
X127290000Y-52241380D02*
X129146000Y-52241380D01*
X127290000Y-52281380D02*
X129166000Y-52281380D01*
X127290000Y-52321380D02*
X129184000Y-52321380D01*
X127290000Y-52361380D02*
X129202000Y-52361380D01*
X127290000Y-52401380D02*
X129220000Y-52401380D01*
X127290000Y-52441380D02*
X129236000Y-52441380D01*
X127290000Y-52481380D02*
X129252000Y-52481380D01*
X127290000Y-52521380D02*
X129268000Y-52521380D01*
X127290000Y-52561380D02*
X129283000Y-52561380D01*
X127290000Y-52601380D02*
X129297000Y-52601380D01*
X127290000Y-52641380D02*
X129311000Y-52641380D01*
X127290000Y-52681380D02*
X129324000Y-52681380D01*
X127290000Y-52721380D02*
X129336000Y-52721380D01*
X127290000Y-52761380D02*
X129348000Y-52761380D01*
X127290000Y-52801380D02*
X129360000Y-52801380D01*
X127290000Y-52841380D02*
X129371000Y-52841380D01*
X127290000Y-52881380D02*
X129381000Y-52881380D01*
X127290000Y-52921380D02*
X129391000Y-52921380D01*
X127290000Y-52961380D02*
X129400000Y-52961380D01*
X127290000Y-53002380D02*
X129409000Y-53002380D01*
X127290000Y-53042380D02*
X129417000Y-53042380D01*
X127290000Y-53082380D02*
X129425000Y-53082380D01*
X127290000Y-53122380D02*
X129432000Y-53122380D01*
X127290000Y-53162380D02*
X129439000Y-53162380D01*
X127290000Y-53202380D02*
X129445000Y-53202380D01*
X127290000Y-53242380D02*
X129451000Y-53242380D01*
X127290000Y-53282380D02*
X129456000Y-53282380D01*
X127290000Y-53322380D02*
X129461000Y-53322380D01*
X127290000Y-53362380D02*
X129465000Y-53362380D01*
X127290000Y-53402380D02*
X129468000Y-53402380D01*
X127290000Y-53442380D02*
X129472000Y-53442380D01*
X127774000Y-56867621D02*
X128404000Y-56867621D01*
X128089000Y-56552621D02*
X128089000Y-57182621D01*
X129520000Y-53682380D02*
G75*
G02*
X122980000Y-53682380I-3270000J0D01*
G01*
X122980000Y-53682380D02*
G75*
G02*
X129520000Y-53682380I3270000J0D01*
G01*
X103927064Y-85765000D02*
X103472936Y-85765000D01*
X103927064Y-87235000D02*
X103472936Y-87235000D01*
X121400000Y-84950000D02*
X121400000Y-80940000D01*
X123400000Y-80940000D02*
X121400000Y-80940000D01*
X123400000Y-84950000D02*
X123400000Y-80940000D01*
X102850000Y-141502500D02*
X103500000Y-141502500D01*
X102850000Y-144622500D02*
X103500000Y-144622500D01*
X104150000Y-141502500D02*
X103500000Y-141502500D01*
X104150000Y-144622500D02*
X103500000Y-144622500D01*
X102577500Y-144902500D02*
X102097500Y-144902500D01*
X102337500Y-144572500D01*
X102577500Y-144902500D01*
G36*
X102577500Y-144902500D02*
G01*
X102097500Y-144902500D01*
X102337500Y-144572500D01*
X102577500Y-144902500D01*
G37*
X100840000Y-78700000D02*
X100840000Y-80700000D01*
X104850000Y-78700000D02*
X100840000Y-78700000D01*
X104850000Y-80700000D02*
X100840000Y-80700000D01*
X120900000Y-102850000D02*
X120900000Y-106860000D01*
X120900000Y-106860000D02*
X122900000Y-106860000D01*
X122900000Y-102850000D02*
X122900000Y-106860000D01*
X120900000Y-92050000D02*
X120900000Y-96060000D01*
X120900000Y-96060000D02*
X122900000Y-96060000D01*
X122900000Y-92050000D02*
X122900000Y-96060000D01*
X103065000Y-107638748D02*
X103065000Y-108161252D01*
X104535000Y-107638748D02*
X104535000Y-108161252D01*
X120900000Y-118050000D02*
X120900000Y-122060000D01*
X120900000Y-122060000D02*
X122900000Y-122060000D01*
X122900000Y-118050000D02*
X122900000Y-122060000D01*
X125651000Y-114400000D02*
G75*
G02*
X123149000Y-114400000I-1251000J0D01*
G01*
X123149000Y-114400000D02*
G75*
G02*
X125651000Y-114400000I1251000J0D01*
G01*
X108525000Y-102425000D02*
X110475000Y-102425000D01*
X108525000Y-111295000D02*
X110475000Y-111295000D01*
X112425000Y-102425000D02*
X110475000Y-102425000D01*
X112425000Y-111295000D02*
X110475000Y-111295000D01*
X113175000Y-102490000D02*
X112935000Y-102160000D01*
X113415000Y-102160000D01*
X113175000Y-102490000D01*
G36*
X113175000Y-102490000D02*
G01*
X112935000Y-102160000D01*
X113415000Y-102160000D01*
X113175000Y-102490000D01*
G37*
X126065000Y-83622936D02*
X126065000Y-84077064D01*
X127535000Y-83622936D02*
X127535000Y-84077064D01*
X126300000Y-95350000D02*
X126300000Y-91340000D01*
X128300000Y-91340000D02*
X126300000Y-91340000D01*
X128300000Y-95350000D02*
X128300000Y-91340000D01*
X127351000Y-89600000D02*
G75*
G02*
X124849000Y-89600000I-1251000J0D01*
G01*
X124849000Y-89600000D02*
G75*
G02*
X127351000Y-89600000I1251000J0D01*
G01*
X107172936Y-137065000D02*
X107627064Y-137065000D01*
X107172936Y-138535000D02*
X107627064Y-138535000D01*
X126300000Y-100750000D02*
X126300000Y-96740000D01*
X128300000Y-96740000D02*
X126300000Y-96740000D01*
X128300000Y-100750000D02*
X128300000Y-96740000D01*
X123865000Y-135172936D02*
X123865000Y-135627064D01*
X125335000Y-135172936D02*
X125335000Y-135627064D01*
X106151000Y-67700000D02*
G75*
G02*
X103649000Y-67700000I-1251000J0D01*
G01*
X103649000Y-67700000D02*
G75*
G02*
X106151000Y-67700000I1251000J0D01*
G01*
X118900000Y-81650000D02*
X118900000Y-85660000D01*
X118900000Y-85660000D02*
X120900000Y-85660000D01*
X120900000Y-81650000D02*
X120900000Y-85660000D01*
X113265000Y-154627064D02*
X113265000Y-154172936D01*
X114735000Y-154627064D02*
X114735000Y-154172936D01*
X113265000Y-150677064D02*
X113265000Y-150222936D01*
X114735000Y-150677064D02*
X114735000Y-150222936D01*
X126300000Y-137550000D02*
X126300000Y-133540000D01*
X128300000Y-133540000D02*
X126300000Y-133540000D01*
X128300000Y-137550000D02*
X128300000Y-133540000D01*
X107027064Y-139165000D02*
X106572936Y-139165000D01*
X107027064Y-140635000D02*
X106572936Y-140635000D01*
X100965000Y-139227064D02*
X100965000Y-138772936D01*
X102435000Y-139227064D02*
X102435000Y-138772936D01*
X103065000Y-138772936D02*
X103065000Y-139227064D01*
X104535000Y-138772936D02*
X104535000Y-139227064D01*
%LPC*%
D15*
X106000000Y-146900000D03*
D16*
X106000000Y-158300000D03*
X106000000Y-150000000D03*
D17*
X103700000Y-58900000D03*
D18*
X121480000Y-140000000D03*
D16*
X110080000Y-140000000D03*
X118380000Y-140000000D03*
D15*
X124000000Y-146900000D03*
D16*
X124000000Y-158300000D03*
X124000000Y-150000000D03*
D19*
X110250000Y-115000000D03*
X119750000Y-115000000D03*
D20*
X112500000Y-122500000D03*
D21*
X115000000Y-122500000D03*
X117500000Y-122500000D03*
D22*
X106500000Y-119950000D03*
X106500000Y-122490000D03*
X106500000Y-125030000D03*
D19*
X110250000Y-88000000D03*
X119750000Y-88000000D03*
D20*
X112500000Y-95500000D03*
D21*
X115000000Y-95500000D03*
X117500000Y-95500000D03*
D22*
X106500000Y-92960000D03*
X106500000Y-95500000D03*
X106500000Y-98040000D03*
D19*
X110250000Y-60000000D03*
X119750000Y-60000000D03*
D20*
X112500000Y-67500000D03*
D21*
X115000000Y-67500000D03*
X117500000Y-67500000D03*
D17*
X115000000Y-51800000D03*
X126200000Y-58800000D03*
D23*
X103100000Y-95700000D03*
X101100000Y-95700000D03*
D24*
X101100000Y-93500000D03*
X103100000Y-93500000D03*
D23*
X108400000Y-144100000D03*
X106400000Y-144100000D03*
D25*
X124600000Y-103000000D03*
X124600000Y-105000000D03*
D26*
X121900000Y-111550000D03*
X121900000Y-108250000D03*
X122250000Y-68150000D03*
X122250000Y-64850000D03*
D27*
X116062500Y-155175000D03*
X116062500Y-153275000D03*
X117937500Y-154225000D03*
D26*
X121900000Y-137550000D03*
X121900000Y-134250000D03*
D17*
X123600000Y-87300000D03*
D23*
X117900000Y-157000000D03*
X115900000Y-157000000D03*
D25*
X124600000Y-118200000D03*
X124600000Y-120200000D03*
X124700000Y-82800000D03*
X124700000Y-84800000D03*
D28*
X124600000Y-99600000D03*
X124600000Y-97600000D03*
D29*
X118100000Y-126762500D03*
X118100000Y-128837500D03*
D30*
X127300000Y-118050000D03*
X127300000Y-121350000D03*
X127300000Y-123450000D03*
X127300000Y-126750000D03*
D26*
X121900000Y-132150000D03*
X121900000Y-128850000D03*
D23*
X103700000Y-77400000D03*
X101700000Y-77400000D03*
D31*
X103700000Y-52500000D03*
D32*
X103700000Y-55000000D03*
D25*
X124600000Y-92200000D03*
X124600000Y-94200000D03*
D26*
X121900000Y-100750000D03*
X121900000Y-97450000D03*
D25*
X120000000Y-66000000D03*
X120000000Y-68000000D03*
D23*
X103100000Y-97900000D03*
X101100000Y-97900000D03*
D25*
X127000000Y-66000000D03*
X127000000Y-68000000D03*
D33*
X104850000Y-82150000D03*
X101550000Y-82150000D03*
D23*
X108400000Y-135700000D03*
X106400000Y-135700000D03*
D30*
X127300000Y-102850000D03*
X127300000Y-106150000D03*
X124750000Y-64850000D03*
X124750000Y-68150000D03*
X127300000Y-108250000D03*
X127300000Y-111550000D03*
D28*
X113400000Y-84800000D03*
X113400000Y-82800000D03*
D25*
X115500000Y-82800000D03*
X115500000Y-84800000D03*
D28*
X124600000Y-125600000D03*
X124600000Y-123600000D03*
D17*
X109900000Y-82400000D03*
X102600000Y-130900000D03*
D25*
X128900000Y-82850000D03*
X128900000Y-84850000D03*
D30*
X127300000Y-128850000D03*
X127300000Y-132150000D03*
D34*
X113840000Y-72750000D03*
D35*
X113840000Y-75290000D03*
X116380000Y-72750000D03*
X116380000Y-75290000D03*
X118920000Y-72750000D03*
X118920000Y-75290000D03*
X121460000Y-72750000D03*
X121460000Y-75290000D03*
X124000000Y-72750000D03*
X124000000Y-75290000D03*
D26*
X121900000Y-126750000D03*
X121900000Y-123450000D03*
D24*
X115930000Y-147800000D03*
X117930000Y-147800000D03*
D28*
X117600000Y-84800000D03*
X117600000Y-82800000D03*
D36*
X117937500Y-149650000D03*
X117937500Y-151550000D03*
X116062500Y-150600000D03*
D23*
X104700000Y-84400000D03*
X102700000Y-84400000D03*
D28*
X124600000Y-110400000D03*
X124600000Y-108400000D03*
D23*
X108400000Y-142000000D03*
X106400000Y-142000000D03*
D28*
X115000000Y-116000000D03*
X115000000Y-114000000D03*
D25*
X124600000Y-129000000D03*
X124600000Y-131000000D03*
D37*
X116205000Y-132175000D03*
X114935000Y-132175000D03*
X113665000Y-132175000D03*
X112395000Y-132175000D03*
X112395000Y-127025000D03*
X113665000Y-127025000D03*
X114935000Y-127025000D03*
X116205000Y-127025000D03*
D38*
X108362500Y-132300000D03*
X110437500Y-132300000D03*
D29*
X116500000Y-106862500D03*
X116500000Y-108937500D03*
D31*
X126250000Y-54932380D03*
D32*
X126250000Y-52432380D03*
D24*
X102700000Y-86500000D03*
X104700000Y-86500000D03*
D30*
X122400000Y-81650000D03*
X122400000Y-84950000D03*
D27*
X102562500Y-144012500D03*
X102562500Y-142112500D03*
X104437500Y-143062500D03*
D39*
X101550000Y-79700000D03*
X104850000Y-79700000D03*
D26*
X121900000Y-106150000D03*
X121900000Y-102850000D03*
X121900000Y-95350000D03*
X121900000Y-92050000D03*
D40*
X103800000Y-108937500D03*
X103800000Y-106862500D03*
D26*
X121900000Y-121350000D03*
X121900000Y-118050000D03*
D17*
X124400000Y-114400000D03*
D41*
X112950000Y-103050000D03*
X112950000Y-104320000D03*
X112950000Y-105590000D03*
X112950000Y-106860000D03*
X112950000Y-108130000D03*
X112950000Y-109400000D03*
X112950000Y-110670000D03*
X108000000Y-110670000D03*
X108000000Y-109400000D03*
X108000000Y-108130000D03*
X108000000Y-106860000D03*
X108000000Y-105590000D03*
X108000000Y-104320000D03*
X108000000Y-103050000D03*
D28*
X126800000Y-84850000D03*
X126800000Y-82850000D03*
D30*
X127300000Y-92050000D03*
X127300000Y-95350000D03*
D17*
X126100000Y-89600000D03*
D23*
X108400000Y-137800000D03*
X106400000Y-137800000D03*
D30*
X127300000Y-97450000D03*
X127300000Y-100750000D03*
D28*
X124600000Y-136400000D03*
X124600000Y-134400000D03*
D17*
X104900000Y-67700000D03*
D26*
X119900000Y-84950000D03*
X119900000Y-81650000D03*
D25*
X114000000Y-153400000D03*
X114000000Y-155400000D03*
X114000000Y-149450000D03*
X114000000Y-151450000D03*
D30*
X127300000Y-134250000D03*
X127300000Y-137550000D03*
D24*
X105800000Y-139900000D03*
X107800000Y-139900000D03*
D25*
X101700000Y-138000000D03*
X101700000Y-140000000D03*
D28*
X103800000Y-140000000D03*
X103800000Y-138000000D03*
%LPD*%
M02*
