G04 #@! TF.GenerationSoftware,KiCad,Pcbnew,8.0.5*
G04 #@! TF.CreationDate,2024-11-24T11:29:42+01:00*
G04 #@! TF.ProjectId,wavefolder,77617665-666f-46c6-9465-722e6b696361,rev?*
G04 #@! TF.SameCoordinates,Original*
G04 #@! TF.FileFunction,Paste,Bot*
G04 #@! TF.FilePolarity,Positive*
%FSLAX46Y46*%
G04 Gerber Fmt 4.6, Leading zero omitted, Abs format (unit mm)*
G04 Created by KiCad (PCBNEW 8.0.5) date 2024-11-24 11:29:42*
%MOMM*%
%LPD*%
G01*
G04 APERTURE LIST*
G04 Aperture macros list*
%AMRoundRect*
0 Rectangle with rounded corners*
0 $1 Rounding radius*
0 $2 $3 $4 $5 $6 $7 $8 $9 X,Y pos of 4 corners*
0 Add a 4 corners polygon primitive as box body*
4,1,4,$2,$3,$4,$5,$6,$7,$8,$9,$2,$3,0*
0 Add four circle primitives for the rounded corners*
1,1,$1+$1,$2,$3*
1,1,$1+$1,$4,$5*
1,1,$1+$1,$6,$7*
1,1,$1+$1,$8,$9*
0 Add four rect primitives between the rounded corners*
20,1,$1+$1,$2,$3,$4,$5,0*
20,1,$1+$1,$4,$5,$6,$7,0*
20,1,$1+$1,$6,$7,$8,$9,0*
20,1,$1+$1,$8,$9,$2,$3,0*%
G04 Aperture macros list end*
%ADD10RoundRect,0.150000X-0.587500X-0.150000X0.587500X-0.150000X0.587500X0.150000X-0.587500X0.150000X0*%
%ADD11RoundRect,0.250000X0.350000X0.450000X-0.350000X0.450000X-0.350000X-0.450000X0.350000X-0.450000X0*%
%ADD12RoundRect,0.250000X-0.350000X-0.450000X0.350000X-0.450000X0.350000X0.450000X-0.350000X0.450000X0*%
%ADD13RoundRect,0.225000X0.225000X0.375000X-0.225000X0.375000X-0.225000X-0.375000X0.225000X-0.375000X0*%
%ADD14RoundRect,0.250000X0.450000X-0.350000X0.450000X0.350000X-0.450000X0.350000X-0.450000X-0.350000X0*%
%ADD15RoundRect,0.150000X-0.825000X-0.150000X0.825000X-0.150000X0.825000X0.150000X-0.825000X0.150000X0*%
%ADD16RoundRect,0.225000X-0.225000X-0.375000X0.225000X-0.375000X0.225000X0.375000X-0.225000X0.375000X0*%
%ADD17RoundRect,0.250000X-0.450000X0.350000X-0.450000X-0.350000X0.450000X-0.350000X0.450000X0.350000X0*%
%ADD18RoundRect,0.150000X0.587500X0.150000X-0.587500X0.150000X-0.587500X-0.150000X0.587500X-0.150000X0*%
%ADD19RoundRect,0.225000X0.375000X-0.225000X0.375000X0.225000X-0.375000X0.225000X-0.375000X-0.225000X0*%
%ADD20RoundRect,0.250000X0.475000X-0.337500X0.475000X0.337500X-0.475000X0.337500X-0.475000X-0.337500X0*%
%ADD21RoundRect,0.225000X-0.375000X0.225000X-0.375000X-0.225000X0.375000X-0.225000X0.375000X0.225000X0*%
%ADD22RoundRect,0.250000X0.337500X0.475000X-0.337500X0.475000X-0.337500X-0.475000X0.337500X-0.475000X0*%
%ADD23RoundRect,0.150000X-0.150000X0.725000X-0.150000X-0.725000X0.150000X-0.725000X0.150000X0.725000X0*%
G04 APERTURE END LIST*
D10*
X58437500Y-154450000D03*
X58437500Y-152550000D03*
X60312500Y-153500000D03*
D11*
X66000000Y-110750000D03*
X64000000Y-110750000D03*
D12*
X69750000Y-96200000D03*
X71750000Y-96200000D03*
D13*
X66650000Y-87200000D03*
X63350000Y-87200000D03*
D14*
X58250000Y-102000000D03*
X58250000Y-100000000D03*
D15*
X62500000Y-108870000D03*
X62500000Y-107600000D03*
X62500000Y-106330000D03*
X62500000Y-105060000D03*
X62500000Y-103790000D03*
X62500000Y-102520000D03*
X62500000Y-101250000D03*
X67450000Y-101250000D03*
X67450000Y-102520000D03*
X67450000Y-103790000D03*
X67450000Y-105060000D03*
X67450000Y-106330000D03*
X67450000Y-107600000D03*
X67450000Y-108870000D03*
D16*
X53750000Y-75200000D03*
X57050000Y-75200000D03*
X53750000Y-65600000D03*
X57050000Y-65600000D03*
D17*
X60250000Y-100000000D03*
X60250000Y-102000000D03*
D18*
X56187500Y-152550000D03*
X56187500Y-154450000D03*
X54312500Y-153500000D03*
D19*
X76300000Y-101250000D03*
X76300000Y-97950000D03*
D17*
X57250000Y-130500000D03*
X57250000Y-132500000D03*
D12*
X69750000Y-98200000D03*
X71750000Y-98200000D03*
D17*
X58750000Y-122500000D03*
X58750000Y-124500000D03*
X58900000Y-142100000D03*
X58900000Y-144100000D03*
D12*
X58250000Y-158500000D03*
X60250000Y-158500000D03*
D14*
X55250000Y-132500000D03*
X55250000Y-130500000D03*
D16*
X53750000Y-80000000D03*
X57050000Y-80000000D03*
D11*
X60250000Y-156500000D03*
X58250000Y-156500000D03*
D13*
X71650000Y-53700000D03*
X68350000Y-53700000D03*
D20*
X52250000Y-136437500D03*
X52250000Y-134362500D03*
D14*
X76300000Y-158300000D03*
X76300000Y-156300000D03*
X58900000Y-65300000D03*
X58900000Y-63300000D03*
D13*
X57050000Y-82400000D03*
X53750000Y-82400000D03*
D12*
X73300000Y-84900000D03*
X75300000Y-84900000D03*
D21*
X58000000Y-107600000D03*
X58000000Y-110900000D03*
D12*
X69500000Y-51500000D03*
X71500000Y-51500000D03*
D14*
X52000000Y-65300000D03*
X52000000Y-63300000D03*
D19*
X55600000Y-110900000D03*
X55600000Y-107600000D03*
D13*
X57050000Y-87200000D03*
X53750000Y-87200000D03*
X57050000Y-68000000D03*
X53750000Y-68000000D03*
D16*
X63350000Y-80000000D03*
X66650000Y-80000000D03*
X53750000Y-60800000D03*
X57050000Y-60800000D03*
D22*
X62537500Y-134500000D03*
X60462500Y-134500000D03*
D13*
X66650000Y-82400000D03*
X63350000Y-82400000D03*
D16*
X53750000Y-70400000D03*
X57050000Y-70400000D03*
D13*
X61650000Y-53700000D03*
X58350000Y-53700000D03*
D11*
X53300000Y-148000000D03*
X51300000Y-148000000D03*
D21*
X73900000Y-97950000D03*
X73900000Y-101250000D03*
D12*
X52600000Y-98100000D03*
X54600000Y-98100000D03*
D17*
X53000000Y-141900000D03*
X53000000Y-143900000D03*
D10*
X58800000Y-128100000D03*
X58800000Y-126200000D03*
X60675000Y-127150000D03*
D22*
X59337500Y-105100000D03*
X57262500Y-105100000D03*
D11*
X56950000Y-142000000D03*
X54950000Y-142000000D03*
D13*
X57050000Y-72800000D03*
X53750000Y-72800000D03*
D11*
X55900000Y-89400000D03*
X53900000Y-89400000D03*
D14*
X69750000Y-110000000D03*
X69750000Y-108000000D03*
D17*
X52000000Y-67100000D03*
X52000000Y-69100000D03*
D12*
X73300000Y-82500000D03*
X75300000Y-82500000D03*
D11*
X60500000Y-51500000D03*
X58500000Y-51500000D03*
X61250000Y-150750000D03*
X59250000Y-150750000D03*
D16*
X63350000Y-84800000D03*
X66650000Y-84800000D03*
D12*
X52600000Y-93000000D03*
X54600000Y-93000000D03*
D22*
X73037500Y-105100000D03*
X70962500Y-105100000D03*
D14*
X53250000Y-132500000D03*
X53250000Y-130500000D03*
D13*
X57050000Y-77600000D03*
X53750000Y-77600000D03*
D16*
X53750000Y-84800000D03*
X57050000Y-84800000D03*
D12*
X54800000Y-127000000D03*
X56800000Y-127000000D03*
X58800000Y-80000000D03*
X60800000Y-80000000D03*
D14*
X60200000Y-109740000D03*
X60200000Y-107740000D03*
D11*
X56950000Y-144200000D03*
X54950000Y-144200000D03*
D23*
X54230000Y-134675000D03*
X55500000Y-134675000D03*
X56770000Y-134675000D03*
X58040000Y-134675000D03*
X58040000Y-139825000D03*
X56770000Y-139825000D03*
X55500000Y-139825000D03*
X54230000Y-139825000D03*
D13*
X57050000Y-63200000D03*
X53750000Y-63200000D03*
D12*
X60500000Y-91300000D03*
X62500000Y-91300000D03*
D17*
X65000000Y-63300000D03*
X65000000Y-65300000D03*
X59250000Y-130500000D03*
X59250000Y-132500000D03*
D11*
X71750000Y-101050000D03*
X69750000Y-101050000D03*
M02*
