G04 #@! TF.GenerationSoftware,KiCad,Pcbnew,8.0.5*
G04 #@! TF.CreationDate,2024-11-24T11:29:42+01:00*
G04 #@! TF.ProjectId,wavefolder,77617665-666f-46c6-9465-722e6b696361,rev?*
G04 #@! TF.SameCoordinates,Original*
G04 #@! TF.FileFunction,Copper,L1,Top*
G04 #@! TF.FilePolarity,Positive*
%FSLAX46Y46*%
G04 Gerber Fmt 4.6, Leading zero omitted, Abs format (unit mm)*
G04 Created by KiCad (PCBNEW 8.0.5) date 2024-11-24 11:29:42*
%MOMM*%
%LPD*%
G01*
G04 APERTURE LIST*
G04 Aperture macros list*
%AMRoundRect*
0 Rectangle with rounded corners*
0 $1 Rounding radius*
0 $2 $3 $4 $5 $6 $7 $8 $9 X,Y pos of 4 corners*
0 Add a 4 corners polygon primitive as box body*
4,1,4,$2,$3,$4,$5,$6,$7,$8,$9,$2,$3,0*
0 Add four circle primitives for the rounded corners*
1,1,$1+$1,$2,$3*
1,1,$1+$1,$4,$5*
1,1,$1+$1,$6,$7*
1,1,$1+$1,$8,$9*
0 Add four rect primitives between the rounded corners*
20,1,$1+$1,$2,$3,$4,$5,0*
20,1,$1+$1,$4,$5,$6,$7,0*
20,1,$1+$1,$6,$7,$8,$9,0*
20,1,$1+$1,$8,$9,$2,$3,0*%
G04 Aperture macros list end*
G04 #@! TA.AperFunction,ComponentPad*
%ADD10R,1.930000X1.830000*%
G04 #@! TD*
G04 #@! TA.AperFunction,ComponentPad*
%ADD11C,2.130000*%
G04 #@! TD*
G04 #@! TA.AperFunction,ComponentPad*
%ADD12R,1.830000X1.930000*%
G04 #@! TD*
G04 #@! TA.AperFunction,ComponentPad*
%ADD13O,4.000000X4.000000*%
G04 #@! TD*
G04 #@! TA.AperFunction,ComponentPad*
%ADD14R,1.800000X1.800000*%
G04 #@! TD*
G04 #@! TA.AperFunction,ComponentPad*
%ADD15C,1.800000*%
G04 #@! TD*
G04 #@! TA.AperFunction,ComponentPad*
%ADD16C,1.440000*%
G04 #@! TD*
G04 #@! TA.AperFunction,ComponentPad*
%ADD17RoundRect,0.250000X0.600000X-0.600000X0.600000X0.600000X-0.600000X0.600000X-0.600000X-0.600000X0*%
G04 #@! TD*
G04 #@! TA.AperFunction,ComponentPad*
%ADD18C,1.700000*%
G04 #@! TD*
G04 #@! TA.AperFunction,ComponentPad*
%ADD19C,2.000000*%
G04 #@! TD*
G04 #@! TA.AperFunction,ComponentPad*
%ADD20R,1.600000X1.600000*%
G04 #@! TD*
G04 #@! TA.AperFunction,ComponentPad*
%ADD21C,1.600000*%
G04 #@! TD*
G04 #@! TA.AperFunction,ViaPad*
%ADD22C,1.000000*%
G04 #@! TD*
G04 #@! TA.AperFunction,ViaPad*
%ADD23C,0.800000*%
G04 #@! TD*
G04 #@! TA.AperFunction,Conductor*
%ADD24C,0.500000*%
G04 #@! TD*
G04 #@! TA.AperFunction,Conductor*
%ADD25C,0.300000*%
G04 #@! TD*
G04 APERTURE END LIST*
D10*
X56000000Y-146900000D03*
D11*
X56000000Y-158300000D03*
X56000000Y-150000000D03*
D12*
X71480000Y-140000000D03*
D11*
X60080000Y-140000000D03*
X68380000Y-140000000D03*
D10*
X74000000Y-146900000D03*
D11*
X74000000Y-158300000D03*
X74000000Y-150000000D03*
D13*
X60250000Y-115000000D03*
X69750000Y-115000000D03*
D14*
X62500000Y-122500000D03*
D15*
X65000000Y-122500000D03*
X67500000Y-122500000D03*
D16*
X56500000Y-119950000D03*
X56500000Y-122490000D03*
X56500000Y-125030000D03*
D13*
X60250000Y-88000000D03*
X69750000Y-88000000D03*
D14*
X62500000Y-95500000D03*
D15*
X65000000Y-95500000D03*
X67500000Y-95500000D03*
D16*
X56500000Y-92960000D03*
X56500000Y-95500000D03*
X56500000Y-98040000D03*
D13*
X60250000Y-60000000D03*
X69750000Y-60000000D03*
D14*
X62500000Y-67500000D03*
D15*
X65000000Y-67500000D03*
X67500000Y-67500000D03*
D17*
X74000000Y-75000000D03*
D18*
X74000000Y-72460000D03*
X71460000Y-75000000D03*
X71460000Y-72460000D03*
X68920000Y-75000000D03*
X68920000Y-72460000D03*
X66380000Y-75000000D03*
X66380000Y-72460000D03*
X63840000Y-75000000D03*
X63840000Y-72460000D03*
D19*
X77250000Y-80400000D03*
X51900000Y-139500000D03*
D20*
X77382380Y-53800000D03*
D21*
X74882380Y-53800000D03*
D19*
X51900000Y-58400000D03*
X72500000Y-110000000D03*
D20*
X55100000Y-53800000D03*
D21*
X52600000Y-53800000D03*
D19*
X78100000Y-58400000D03*
X53500000Y-105000000D03*
X65000000Y-53100000D03*
X52800000Y-111000000D03*
X65750000Y-128750000D03*
D22*
X60750000Y-105060000D03*
X53781250Y-137968750D03*
X71827592Y-106365030D03*
X58695300Y-106479141D03*
X65000000Y-106330000D03*
X57900000Y-150800000D03*
X62500000Y-132750000D03*
X63750000Y-127500000D03*
X56750000Y-136500000D03*
X64100000Y-156600000D03*
X65000000Y-103790000D03*
X63500000Y-143900000D03*
X78750000Y-125500000D03*
X69500000Y-105060000D03*
X62138641Y-131605698D03*
D23*
X58000000Y-56000000D03*
X66900000Y-77250000D03*
X70750000Y-99750000D03*
X61495000Y-144800000D03*
X50650000Y-144600000D03*
X51150000Y-137357965D03*
X60250000Y-128250000D03*
X78850000Y-127200000D03*
X78500000Y-104750000D03*
X62530331Y-129719669D03*
X57450000Y-145550000D03*
X56700000Y-138200000D03*
X58000000Y-138200000D03*
X53300000Y-149700000D03*
D24*
X50500000Y-59800000D02*
X51900000Y-58400000D01*
X58750000Y-103000000D02*
X52750000Y-103000000D01*
X53781250Y-137968750D02*
X50500000Y-134687500D01*
X60750000Y-105000000D02*
X58750000Y-103000000D01*
X56500000Y-95500000D02*
X51750000Y-95500000D01*
X60750000Y-105060000D02*
X60750000Y-105000000D01*
X50500000Y-94250000D02*
X50500000Y-59800000D01*
X52750000Y-103000000D02*
X50500000Y-100750000D01*
X50500000Y-134687500D02*
X50500000Y-118250000D01*
X51750000Y-95500000D02*
X50500000Y-94250000D01*
X50500000Y-100750000D02*
X50500000Y-94250000D01*
X62500000Y-95500000D02*
X56500000Y-95500000D01*
X56500000Y-119950000D02*
X52200000Y-119950000D01*
X52200000Y-119950000D02*
X50500000Y-118250000D01*
X50500000Y-118250000D02*
X50500000Y-100750000D01*
X79500000Y-59800000D02*
X78100000Y-58400000D01*
X61792967Y-131605698D02*
X56500000Y-126312731D01*
X69500000Y-105060000D02*
X70810000Y-103750000D01*
X62138641Y-131605698D02*
X61792967Y-131605698D01*
X70810000Y-103750000D02*
X77500000Y-103750000D01*
X78750000Y-125500000D02*
X79500000Y-124750000D01*
X56500000Y-126312731D02*
X56500000Y-125030000D01*
X77500000Y-103750000D02*
X79500000Y-101750000D01*
X79500000Y-124750000D02*
X79500000Y-59800000D01*
D25*
X60710000Y-72460000D02*
X57900000Y-69650000D01*
X57900000Y-69650000D02*
X57900000Y-56100000D01*
X63840000Y-72460000D02*
X60710000Y-72460000D01*
X57900000Y-56100000D02*
X58000000Y-56000000D01*
X66900000Y-77250000D02*
X66750000Y-77400000D01*
X70750000Y-94500000D02*
X70750000Y-99750000D01*
X66750000Y-77400000D02*
X66750000Y-90500000D01*
X66750000Y-90500000D02*
X70750000Y-94500000D01*
X61750000Y-123250000D02*
X61750000Y-130000000D01*
X61750000Y-130000000D02*
X64250000Y-132500000D01*
X62500000Y-122500000D02*
X61750000Y-123250000D01*
X64250000Y-135830000D02*
X60080000Y-140000000D01*
X64250000Y-132500000D02*
X64250000Y-135830000D01*
X64750000Y-129750000D02*
X65750000Y-128750000D01*
X61495000Y-144800000D02*
X61495000Y-139505000D01*
X61495000Y-139505000D02*
X64750000Y-136250000D01*
X64750000Y-136250000D02*
X64750000Y-129750000D01*
X50400000Y-138107965D02*
X51150000Y-137357965D01*
X50400000Y-144350000D02*
X50400000Y-138107965D01*
X50650000Y-144600000D02*
X50400000Y-144350000D01*
X60250000Y-118750000D02*
X60250000Y-128250000D01*
X65000000Y-95500000D02*
X63000000Y-97500000D01*
X63000000Y-97500000D02*
X63000000Y-116000000D01*
X63000000Y-116000000D02*
X60250000Y-118750000D01*
X78900000Y-124147918D02*
X78900000Y-105150000D01*
X77900000Y-125147918D02*
X78900000Y-124147918D01*
X78850000Y-127200000D02*
X77900000Y-126250000D01*
X77900000Y-126250000D02*
X77900000Y-125147918D01*
X78900000Y-105150000D02*
X78500000Y-104750000D01*
X62250000Y-125250000D02*
X65000000Y-122500000D01*
X62530331Y-129719669D02*
X62250000Y-129439338D01*
X62250000Y-129439338D02*
X62250000Y-125250000D01*
X57450000Y-145550000D02*
X57700000Y-145300000D01*
X57700000Y-139200000D02*
X56700000Y-138200000D01*
X57700000Y-145300000D02*
X57700000Y-139200000D01*
X58200000Y-147400000D02*
X58200000Y-138400000D01*
X53300000Y-149700000D02*
X54500000Y-148500000D01*
X58200000Y-138400000D02*
X58000000Y-138200000D01*
X54500000Y-148500000D02*
X57100000Y-148500000D01*
X57100000Y-148500000D02*
X58200000Y-147400000D01*
G04 #@! TA.AperFunction,Conductor*
G36*
X65914075Y-72652993D02*
G01*
X65979901Y-72767007D01*
X66072993Y-72860099D01*
X66187007Y-72925925D01*
X66250590Y-72942962D01*
X65618625Y-73574925D01*
X65695031Y-73628425D01*
X65738655Y-73683002D01*
X65745848Y-73752501D01*
X65714326Y-73814855D01*
X65695029Y-73831576D01*
X65618625Y-73885072D01*
X66250590Y-74517037D01*
X66187007Y-74534075D01*
X66072993Y-74599901D01*
X65979901Y-74692993D01*
X65914075Y-74807007D01*
X65897037Y-74870590D01*
X65265073Y-74238626D01*
X65211881Y-74314594D01*
X65157304Y-74358219D01*
X65087806Y-74365413D01*
X65025451Y-74333891D01*
X65008730Y-74314594D01*
X64878494Y-74128597D01*
X64711402Y-73961506D01*
X64711396Y-73961501D01*
X64525842Y-73831575D01*
X64482217Y-73776998D01*
X64475023Y-73707500D01*
X64506546Y-73645145D01*
X64525842Y-73628425D01*
X64653165Y-73539272D01*
X64711401Y-73498495D01*
X64878495Y-73331401D01*
X65008732Y-73145403D01*
X65063307Y-73101780D01*
X65132805Y-73094586D01*
X65195160Y-73126109D01*
X65211880Y-73145405D01*
X65265073Y-73221373D01*
X65897037Y-72589409D01*
X65914075Y-72652993D01*
G37*
G04 #@! TD.AperFunction*
G04 #@! TA.AperFunction,Conductor*
G36*
X68454075Y-72652993D02*
G01*
X68519901Y-72767007D01*
X68612993Y-72860099D01*
X68727007Y-72925925D01*
X68790590Y-72942962D01*
X68158625Y-73574925D01*
X68235031Y-73628425D01*
X68278655Y-73683002D01*
X68285848Y-73752501D01*
X68254326Y-73814855D01*
X68235029Y-73831576D01*
X68158625Y-73885072D01*
X68790590Y-74517037D01*
X68727007Y-74534075D01*
X68612993Y-74599901D01*
X68519901Y-74692993D01*
X68454075Y-74807007D01*
X68437037Y-74870590D01*
X67805072Y-74238625D01*
X67805072Y-74238626D01*
X67751574Y-74315030D01*
X67696998Y-74358655D01*
X67627499Y-74365849D01*
X67565144Y-74334326D01*
X67548424Y-74315030D01*
X67494925Y-74238626D01*
X67494925Y-74238625D01*
X66862962Y-74870589D01*
X66845925Y-74807007D01*
X66780099Y-74692993D01*
X66687007Y-74599901D01*
X66572993Y-74534075D01*
X66509410Y-74517037D01*
X67141373Y-73885073D01*
X67064969Y-73831576D01*
X67021344Y-73776999D01*
X67014150Y-73707501D01*
X67045672Y-73645146D01*
X67064968Y-73628425D01*
X67141373Y-73574925D01*
X66509409Y-72942962D01*
X66572993Y-72925925D01*
X66687007Y-72860099D01*
X66780099Y-72767007D01*
X66845925Y-72652993D01*
X66862962Y-72589409D01*
X67494925Y-73221373D01*
X67548425Y-73144968D01*
X67603002Y-73101344D01*
X67672501Y-73094151D01*
X67734855Y-73125673D01*
X67751576Y-73144969D01*
X67805073Y-73221372D01*
X68437037Y-72589409D01*
X68454075Y-72652993D01*
G37*
G04 #@! TD.AperFunction*
G04 #@! TA.AperFunction,Conductor*
G36*
X70994075Y-72652993D02*
G01*
X71059901Y-72767007D01*
X71152993Y-72860099D01*
X71267007Y-72925925D01*
X71330590Y-72942962D01*
X70698625Y-73574925D01*
X70775031Y-73628425D01*
X70818655Y-73683002D01*
X70825848Y-73752501D01*
X70794326Y-73814855D01*
X70775029Y-73831576D01*
X70698625Y-73885072D01*
X71330590Y-74517037D01*
X71267007Y-74534075D01*
X71152993Y-74599901D01*
X71059901Y-74692993D01*
X70994075Y-74807007D01*
X70977037Y-74870590D01*
X70345072Y-74238625D01*
X70345072Y-74238626D01*
X70291574Y-74315030D01*
X70236998Y-74358655D01*
X70167499Y-74365849D01*
X70105144Y-74334326D01*
X70088424Y-74315030D01*
X70034925Y-74238626D01*
X70034925Y-74238625D01*
X69402962Y-74870589D01*
X69385925Y-74807007D01*
X69320099Y-74692993D01*
X69227007Y-74599901D01*
X69112993Y-74534075D01*
X69049410Y-74517037D01*
X69681373Y-73885073D01*
X69604969Y-73831576D01*
X69561344Y-73776999D01*
X69554150Y-73707501D01*
X69585672Y-73645146D01*
X69604968Y-73628425D01*
X69681373Y-73574925D01*
X69049409Y-72942962D01*
X69112993Y-72925925D01*
X69227007Y-72860099D01*
X69320099Y-72767007D01*
X69385925Y-72652993D01*
X69402962Y-72589410D01*
X70034925Y-73221373D01*
X70088425Y-73144968D01*
X70143002Y-73101344D01*
X70212501Y-73094151D01*
X70274855Y-73125673D01*
X70291576Y-73144969D01*
X70345073Y-73221372D01*
X70977037Y-72589409D01*
X70994075Y-72652993D01*
G37*
G04 #@! TD.AperFunction*
G04 #@! TA.AperFunction,Conductor*
G36*
X72574925Y-73221373D02*
G01*
X72628119Y-73145405D01*
X72682696Y-73101781D01*
X72752195Y-73094588D01*
X72814549Y-73126110D01*
X72831269Y-73145405D01*
X72961505Y-73331401D01*
X73128599Y-73498495D01*
X73128604Y-73498499D01*
X73129968Y-73499643D01*
X73130407Y-73500303D01*
X73132427Y-73502323D01*
X73132021Y-73502728D01*
X73168669Y-73557815D01*
X73169776Y-73627676D01*
X73132937Y-73687046D01*
X73089267Y-73712336D01*
X73080669Y-73715184D01*
X73080663Y-73715187D01*
X72931342Y-73807289D01*
X72807289Y-73931342D01*
X72715187Y-74080663D01*
X72715182Y-74080674D01*
X72691205Y-74153032D01*
X72651432Y-74210477D01*
X72586916Y-74237299D01*
X72576138Y-74237412D01*
X71942962Y-74870589D01*
X71925925Y-74807007D01*
X71860099Y-74692993D01*
X71767007Y-74599901D01*
X71652993Y-74534075D01*
X71589410Y-74517037D01*
X72221373Y-73885073D01*
X72144969Y-73831576D01*
X72101344Y-73776999D01*
X72094150Y-73707501D01*
X72125672Y-73645146D01*
X72144968Y-73628425D01*
X72221373Y-73574925D01*
X71589409Y-72942962D01*
X71652993Y-72925925D01*
X71767007Y-72860099D01*
X71860099Y-72767007D01*
X71925925Y-72652993D01*
X71942962Y-72589410D01*
X72574925Y-73221373D01*
G37*
G04 #@! TD.AperFunction*
G04 #@! TA.AperFunction,Conductor*
G36*
X79692539Y-50270185D02*
G01*
X79738294Y-50322989D01*
X79749500Y-50374500D01*
X79749500Y-57833680D01*
X79729815Y-57900719D01*
X79677011Y-57946474D01*
X79607853Y-57956418D01*
X79544297Y-57927393D01*
X79511944Y-57883490D01*
X79424173Y-57683393D01*
X79288166Y-57475217D01*
X79266557Y-57451744D01*
X79119744Y-57292262D01*
X78923509Y-57139526D01*
X78923507Y-57139525D01*
X78923506Y-57139524D01*
X78704811Y-57021172D01*
X78704802Y-57021169D01*
X78469616Y-56940429D01*
X78224335Y-56899500D01*
X77975665Y-56899500D01*
X77730383Y-56940429D01*
X77495197Y-57021169D01*
X77495188Y-57021172D01*
X77276493Y-57139524D01*
X77080257Y-57292261D01*
X76911833Y-57475217D01*
X76775826Y-57683393D01*
X76675936Y-57911118D01*
X76614892Y-58152175D01*
X76614890Y-58152187D01*
X76594357Y-58399994D01*
X76594357Y-58400005D01*
X76614890Y-58647812D01*
X76614892Y-58647824D01*
X76675936Y-58888881D01*
X76775826Y-59116606D01*
X76911833Y-59324782D01*
X76911836Y-59324785D01*
X77080256Y-59507738D01*
X77276491Y-59660474D01*
X77495190Y-59778828D01*
X77730386Y-59859571D01*
X77975665Y-59900500D01*
X78224335Y-59900500D01*
X78431158Y-59865988D01*
X78500523Y-59874370D01*
X78539248Y-59900616D01*
X78713181Y-60074549D01*
X78746666Y-60135872D01*
X78749500Y-60162230D01*
X78749500Y-79535241D01*
X78729815Y-79602280D01*
X78677011Y-79648035D01*
X78607853Y-79657979D01*
X78544297Y-79628954D01*
X78521691Y-79603063D01*
X78519665Y-79599962D01*
X78438164Y-79475215D01*
X78269744Y-79292262D01*
X78073509Y-79139526D01*
X78073507Y-79139525D01*
X78073506Y-79139524D01*
X77854811Y-79021172D01*
X77854802Y-79021169D01*
X77619616Y-78940429D01*
X77374335Y-78899500D01*
X77125665Y-78899500D01*
X76880383Y-78940429D01*
X76645197Y-79021169D01*
X76645188Y-79021172D01*
X76426493Y-79139524D01*
X76230257Y-79292261D01*
X76061833Y-79475217D01*
X75925826Y-79683393D01*
X75825936Y-79911118D01*
X75764892Y-80152175D01*
X75764890Y-80152187D01*
X75744357Y-80399994D01*
X75744357Y-80400005D01*
X75764890Y-80647812D01*
X75764892Y-80647824D01*
X75825936Y-80888881D01*
X75925826Y-81116606D01*
X76061833Y-81324782D01*
X76061836Y-81324785D01*
X76230256Y-81507738D01*
X76426491Y-81660474D01*
X76645190Y-81778828D01*
X76880386Y-81859571D01*
X77125665Y-81900500D01*
X77374335Y-81900500D01*
X77619614Y-81859571D01*
X77854810Y-81778828D01*
X78073509Y-81660474D01*
X78269744Y-81507738D01*
X78438164Y-81324785D01*
X78521691Y-81196937D01*
X78574837Y-81151580D01*
X78644069Y-81142156D01*
X78707404Y-81171658D01*
X78744736Y-81230718D01*
X78749500Y-81264758D01*
X78749500Y-101387770D01*
X78729815Y-101454809D01*
X78713181Y-101475451D01*
X77225451Y-102963181D01*
X77164128Y-102996666D01*
X77137770Y-102999500D01*
X70736080Y-102999500D01*
X70591092Y-103028340D01*
X70591086Y-103028342D01*
X70454508Y-103084914D01*
X70454496Y-103084921D01*
X70405270Y-103117811D01*
X70405271Y-103117812D01*
X70331581Y-103167049D01*
X69469225Y-104029405D01*
X69407902Y-104062890D01*
X69393700Y-104065127D01*
X69303870Y-104073975D01*
X69115266Y-104131188D01*
X68941467Y-104224086D01*
X68941460Y-104224090D01*
X68789116Y-104349116D01*
X68664090Y-104501460D01*
X68664086Y-104501467D01*
X68571188Y-104675266D01*
X68513975Y-104863870D01*
X68494659Y-105060000D01*
X68513975Y-105256129D01*
X68571188Y-105444733D01*
X68664086Y-105618532D01*
X68664090Y-105618539D01*
X68789116Y-105770883D01*
X68941460Y-105895909D01*
X68941467Y-105895913D01*
X69115266Y-105988811D01*
X69115269Y-105988811D01*
X69115273Y-105988814D01*
X69303868Y-106046024D01*
X69500000Y-106065341D01*
X69696132Y-106046024D01*
X69884727Y-105988814D01*
X70058538Y-105895910D01*
X70210883Y-105770883D01*
X70335910Y-105618538D01*
X70428814Y-105444727D01*
X70486024Y-105256132D01*
X70494871Y-105166299D01*
X70521031Y-105101513D01*
X70530584Y-105090782D01*
X71084549Y-104536819D01*
X71145872Y-104503334D01*
X71172230Y-104500500D01*
X77483047Y-104500500D01*
X77550086Y-104520185D01*
X77595841Y-104572989D01*
X77606368Y-104637461D01*
X77594540Y-104750000D01*
X77614326Y-104938256D01*
X77614327Y-104938259D01*
X77672818Y-105118277D01*
X77672821Y-105118284D01*
X77767467Y-105282216D01*
X77894129Y-105422888D01*
X78047270Y-105534151D01*
X78175939Y-105591439D01*
X78229173Y-105636687D01*
X78249494Y-105703536D01*
X78249500Y-105704716D01*
X78249500Y-123827109D01*
X78229815Y-123894148D01*
X78213181Y-123914790D01*
X77394727Y-124733243D01*
X77394724Y-124733246D01*
X77342713Y-124811088D01*
X77323535Y-124839789D01*
X77274499Y-124958173D01*
X77274497Y-124958179D01*
X77249500Y-125083846D01*
X77249500Y-126314070D01*
X77256637Y-126349950D01*
X77269746Y-126415849D01*
X77270485Y-126419564D01*
X77274499Y-126439744D01*
X77310688Y-126527113D01*
X77323535Y-126558127D01*
X77386877Y-126652926D01*
X77394726Y-126664673D01*
X77394727Y-126664674D01*
X77915191Y-127185137D01*
X77948676Y-127246460D01*
X77950830Y-127259851D01*
X77964326Y-127388256D01*
X77964327Y-127388259D01*
X78022818Y-127568277D01*
X78022821Y-127568284D01*
X78117467Y-127732216D01*
X78166650Y-127786839D01*
X78244129Y-127872888D01*
X78397265Y-127984148D01*
X78397270Y-127984151D01*
X78570192Y-128061142D01*
X78570197Y-128061144D01*
X78755354Y-128100500D01*
X78755355Y-128100500D01*
X78944644Y-128100500D01*
X78944646Y-128100500D01*
X79129803Y-128061144D01*
X79302730Y-127984151D01*
X79455871Y-127872888D01*
X79533350Y-127786838D01*
X79592837Y-127750190D01*
X79662694Y-127751521D01*
X79720742Y-127790407D01*
X79748552Y-127854504D01*
X79749500Y-127869811D01*
X79749500Y-159625500D01*
X79729815Y-159692539D01*
X79677011Y-159738294D01*
X79625500Y-159749500D01*
X75049479Y-159749500D01*
X74982440Y-159729815D01*
X74936685Y-159677011D01*
X74926741Y-159607853D01*
X74955766Y-159544297D01*
X74968947Y-159531210D01*
X75110399Y-159410399D01*
X75270433Y-159223023D01*
X75399184Y-159012920D01*
X75493483Y-158785262D01*
X75551007Y-158545655D01*
X75570341Y-158300000D01*
X75551007Y-158054345D01*
X75493483Y-157814738D01*
X75399184Y-157587080D01*
X75399184Y-157587079D01*
X75270436Y-157376981D01*
X75270435Y-157376979D01*
X75234280Y-157334648D01*
X75110399Y-157189601D01*
X74986516Y-157083795D01*
X74923020Y-157029564D01*
X74923018Y-157029563D01*
X74712920Y-156900815D01*
X74485264Y-156806517D01*
X74245658Y-156748993D01*
X74000000Y-156729659D01*
X73754341Y-156748993D01*
X73514735Y-156806517D01*
X73287079Y-156900815D01*
X73076981Y-157029563D01*
X73076979Y-157029564D01*
X72889601Y-157189601D01*
X72729564Y-157376979D01*
X72729563Y-157376981D01*
X72600815Y-157587079D01*
X72506517Y-157814735D01*
X72448993Y-158054341D01*
X72429659Y-158300000D01*
X72448993Y-158545658D01*
X72506517Y-158785264D01*
X72600815Y-159012920D01*
X72729563Y-159223018D01*
X72729564Y-159223020D01*
X72729567Y-159223023D01*
X72889601Y-159410399D01*
X73031053Y-159531210D01*
X73069246Y-159589717D01*
X73069745Y-159659584D01*
X73032391Y-159718631D01*
X72969044Y-159748109D01*
X72950521Y-159749500D01*
X57049479Y-159749500D01*
X56982440Y-159729815D01*
X56936685Y-159677011D01*
X56926741Y-159607853D01*
X56955766Y-159544297D01*
X56968947Y-159531210D01*
X57110399Y-159410399D01*
X57270433Y-159223023D01*
X57399184Y-159012920D01*
X57493483Y-158785262D01*
X57551007Y-158545655D01*
X57570341Y-158300000D01*
X57551007Y-158054345D01*
X57493483Y-157814738D01*
X57399184Y-157587080D01*
X57399184Y-157587079D01*
X57270436Y-157376981D01*
X57270435Y-157376979D01*
X57234280Y-157334648D01*
X57110399Y-157189601D01*
X56986516Y-157083795D01*
X56923020Y-157029564D01*
X56923018Y-157029563D01*
X56712920Y-156900815D01*
X56485264Y-156806517D01*
X56245658Y-156748993D01*
X56000000Y-156729659D01*
X55754341Y-156748993D01*
X55514735Y-156806517D01*
X55287079Y-156900815D01*
X55076981Y-157029563D01*
X55076979Y-157029564D01*
X54889601Y-157189601D01*
X54729564Y-157376979D01*
X54729563Y-157376981D01*
X54600815Y-157587079D01*
X54506517Y-157814735D01*
X54448993Y-158054341D01*
X54429659Y-158300000D01*
X54448993Y-158545658D01*
X54506517Y-158785264D01*
X54600815Y-159012920D01*
X54729563Y-159223018D01*
X54729564Y-159223020D01*
X54729567Y-159223023D01*
X54889601Y-159410399D01*
X55031053Y-159531210D01*
X55069246Y-159589717D01*
X55069745Y-159659584D01*
X55032391Y-159718631D01*
X54969044Y-159748109D01*
X54950521Y-159749500D01*
X50374500Y-159749500D01*
X50307461Y-159729815D01*
X50261706Y-159677011D01*
X50250500Y-159625500D01*
X50250500Y-153343225D01*
X54495307Y-153343225D01*
X54509507Y-153589474D01*
X54509507Y-153589479D01*
X54563731Y-153830092D01*
X54656533Y-154058636D01*
X54785412Y-154268947D01*
X54860393Y-154355507D01*
X54946908Y-154455382D01*
X55136687Y-154612939D01*
X55136690Y-154612941D01*
X55136696Y-154612945D01*
X55349650Y-154737385D01*
X55580072Y-154825375D01*
X55580075Y-154825375D01*
X55580079Y-154825377D01*
X55821785Y-154874553D01*
X56068278Y-154883592D01*
X56312936Y-154852250D01*
X56549191Y-154781370D01*
X56770697Y-154672856D01*
X56971505Y-154529621D01*
X57146223Y-154355512D01*
X57290158Y-154155205D01*
X57399445Y-153934079D01*
X57471149Y-153698074D01*
X57503344Y-153453526D01*
X57505141Y-153380000D01*
X57502118Y-153343225D01*
X72495307Y-153343225D01*
X72509507Y-153589474D01*
X72509507Y-153589479D01*
X72563731Y-153830092D01*
X72656533Y-154058636D01*
X72785412Y-154268947D01*
X72860393Y-154355507D01*
X72946908Y-154455382D01*
X73136687Y-154612939D01*
X73136690Y-154612941D01*
X73136696Y-154612945D01*
X73349650Y-154737385D01*
X73580072Y-154825375D01*
X73580075Y-154825375D01*
X73580079Y-154825377D01*
X73821785Y-154874553D01*
X74068278Y-154883592D01*
X74312936Y-154852250D01*
X74549191Y-154781370D01*
X74770697Y-154672856D01*
X74971505Y-154529621D01*
X75146223Y-154355512D01*
X75290158Y-154155205D01*
X75399445Y-153934079D01*
X75471149Y-153698074D01*
X75503344Y-153453526D01*
X75505141Y-153380000D01*
X75484930Y-153134171D01*
X75424841Y-152894945D01*
X75326486Y-152668744D01*
X75192508Y-152461645D01*
X75026504Y-152279210D01*
X74832932Y-152126336D01*
X74616991Y-152007130D01*
X74616982Y-152007126D01*
X74384491Y-151924796D01*
X74384471Y-151924791D01*
X74141644Y-151881538D01*
X74141652Y-151881538D01*
X73900496Y-151878592D01*
X73895007Y-151878525D01*
X73895006Y-151878525D01*
X73895005Y-151878525D01*
X73895004Y-151878525D01*
X73651190Y-151915834D01*
X73651180Y-151915837D01*
X73416732Y-151992466D01*
X73197951Y-152106356D01*
X73197948Y-152106358D01*
X73000698Y-152254456D01*
X72830289Y-152432779D01*
X72830279Y-152432792D01*
X72691287Y-152636547D01*
X72691285Y-152636552D01*
X72587439Y-152860268D01*
X72587436Y-152860276D01*
X72521520Y-153097960D01*
X72521519Y-153097967D01*
X72495307Y-153343225D01*
X57502118Y-153343225D01*
X57484930Y-153134171D01*
X57424841Y-152894945D01*
X57326486Y-152668744D01*
X57192508Y-152461645D01*
X57026504Y-152279210D01*
X56832932Y-152126336D01*
X56616991Y-152007130D01*
X56616982Y-152007126D01*
X56384491Y-151924796D01*
X56384471Y-151924791D01*
X56141644Y-151881538D01*
X56141652Y-151881538D01*
X55900496Y-151878592D01*
X55895007Y-151878525D01*
X55895006Y-151878525D01*
X55895005Y-151878525D01*
X55895004Y-151878525D01*
X55651190Y-151915834D01*
X55651180Y-151915837D01*
X55416732Y-151992466D01*
X55197951Y-152106356D01*
X55197948Y-152106358D01*
X55000698Y-152254456D01*
X54830289Y-152432779D01*
X54830279Y-152432792D01*
X54691287Y-152636547D01*
X54691285Y-152636552D01*
X54587439Y-152860268D01*
X54587436Y-152860276D01*
X54521520Y-153097960D01*
X54521519Y-153097967D01*
X54495307Y-153343225D01*
X50250500Y-153343225D01*
X50250500Y-145588828D01*
X50270185Y-145521789D01*
X50322989Y-145476034D01*
X50392147Y-145466090D01*
X50400266Y-145467535D01*
X50555354Y-145500500D01*
X50555355Y-145500500D01*
X50744644Y-145500500D01*
X50744646Y-145500500D01*
X50929803Y-145461144D01*
X51102730Y-145384151D01*
X51255871Y-145272888D01*
X51382533Y-145132216D01*
X51477179Y-144968284D01*
X51535674Y-144788256D01*
X51555460Y-144600000D01*
X51535674Y-144411744D01*
X51477179Y-144231716D01*
X51382533Y-144067784D01*
X51255871Y-143927112D01*
X51255870Y-143927111D01*
X51101615Y-143815038D01*
X51058949Y-143759708D01*
X51050500Y-143714720D01*
X51050500Y-140954507D01*
X51070185Y-140887468D01*
X51122989Y-140841713D01*
X51192147Y-140831769D01*
X51233518Y-140845453D01*
X51295179Y-140878823D01*
X51295185Y-140878825D01*
X51295190Y-140878828D01*
X51530386Y-140959571D01*
X51775665Y-141000500D01*
X52024335Y-141000500D01*
X52269614Y-140959571D01*
X52504810Y-140878828D01*
X52723509Y-140760474D01*
X52919744Y-140607738D01*
X53088164Y-140424785D01*
X53224173Y-140216607D01*
X53324063Y-139988881D01*
X53385108Y-139747821D01*
X53385109Y-139747812D01*
X53405643Y-139500005D01*
X53405643Y-139499994D01*
X53385109Y-139252187D01*
X53385108Y-139252184D01*
X53385108Y-139252179D01*
X53340781Y-139077136D01*
X53343406Y-139007318D01*
X53383362Y-138950001D01*
X53447963Y-138923384D01*
X53496981Y-138928037D01*
X53585118Y-138954774D01*
X53781250Y-138974091D01*
X53977382Y-138954774D01*
X54165977Y-138897564D01*
X54339788Y-138804660D01*
X54492133Y-138679633D01*
X54617160Y-138527288D01*
X54710064Y-138353477D01*
X54767274Y-138164882D01*
X54786591Y-137968750D01*
X54767274Y-137772618D01*
X54710064Y-137584023D01*
X54710061Y-137584019D01*
X54710061Y-137584016D01*
X54617163Y-137410217D01*
X54617159Y-137410210D01*
X54492133Y-137257866D01*
X54339789Y-137132840D01*
X54339782Y-137132836D01*
X54165983Y-137039938D01*
X54165977Y-137039936D01*
X53977382Y-136982726D01*
X53977380Y-136982725D01*
X53977378Y-136982725D01*
X53887548Y-136973877D01*
X53822761Y-136947715D01*
X53812022Y-136938155D01*
X51286819Y-134412951D01*
X51253334Y-134351628D01*
X51250500Y-134325270D01*
X51250500Y-120361230D01*
X51270185Y-120294191D01*
X51322989Y-120248436D01*
X51392147Y-120238492D01*
X51455703Y-120267517D01*
X51462181Y-120273549D01*
X51721586Y-120532954D01*
X51751058Y-120552645D01*
X51795270Y-120582186D01*
X51844505Y-120615084D01*
X51844506Y-120615084D01*
X51844507Y-120615085D01*
X51844509Y-120615086D01*
X51981082Y-120671656D01*
X51981087Y-120671658D01*
X51981091Y-120671658D01*
X51981092Y-120671659D01*
X52126079Y-120700500D01*
X52126082Y-120700500D01*
X52126083Y-120700500D01*
X52273917Y-120700500D01*
X55473090Y-120700500D01*
X55540129Y-120720185D01*
X55560772Y-120736819D01*
X55561468Y-120737515D01*
X55561471Y-120737519D01*
X55712481Y-120888529D01*
X55887419Y-121011021D01*
X55887421Y-121011022D01*
X55887420Y-121011022D01*
X55951936Y-121041106D01*
X56080970Y-121101276D01*
X56080983Y-121101279D01*
X56086064Y-121103130D01*
X56085292Y-121105250D01*
X56136710Y-121136594D01*
X56167237Y-121199442D01*
X56158939Y-121268817D01*
X56114452Y-121322693D01*
X56085685Y-121335830D01*
X56086064Y-121336870D01*
X56080972Y-121338723D01*
X56080970Y-121338724D01*
X56080968Y-121338725D01*
X55887421Y-121428977D01*
X55712478Y-121551472D01*
X55561472Y-121702478D01*
X55438977Y-121877421D01*
X55348725Y-122070968D01*
X55348721Y-122070977D01*
X55293452Y-122277247D01*
X55293450Y-122277258D01*
X55274838Y-122489998D01*
X55274838Y-122490001D01*
X55293450Y-122702741D01*
X55293452Y-122702752D01*
X55348721Y-122909022D01*
X55348723Y-122909026D01*
X55348724Y-122909030D01*
X55370690Y-122956135D01*
X55438977Y-123102578D01*
X55561472Y-123277521D01*
X55712478Y-123428527D01*
X55712481Y-123428529D01*
X55887419Y-123551021D01*
X55887421Y-123551022D01*
X55887420Y-123551022D01*
X55951936Y-123581106D01*
X56080970Y-123641276D01*
X56080983Y-123641279D01*
X56086064Y-123643130D01*
X56085292Y-123645250D01*
X56136710Y-123676594D01*
X56167237Y-123739442D01*
X56158939Y-123808817D01*
X56114452Y-123862693D01*
X56085685Y-123875830D01*
X56086064Y-123876870D01*
X56080972Y-123878723D01*
X56080970Y-123878724D01*
X56080968Y-123878725D01*
X55887421Y-123968977D01*
X55712478Y-124091472D01*
X55561472Y-124242478D01*
X55438977Y-124417421D01*
X55348725Y-124610968D01*
X55348721Y-124610977D01*
X55293452Y-124817247D01*
X55293450Y-124817258D01*
X55274838Y-125029998D01*
X55274838Y-125030001D01*
X55293450Y-125242741D01*
X55293452Y-125242752D01*
X55348721Y-125449022D01*
X55348723Y-125449026D01*
X55348724Y-125449030D01*
X55374249Y-125503768D01*
X55438977Y-125642578D01*
X55561472Y-125817521D01*
X55713181Y-125969230D01*
X55746666Y-126030553D01*
X55749500Y-126056911D01*
X55749500Y-126386649D01*
X55749500Y-126386651D01*
X55749499Y-126386651D01*
X55778340Y-126531638D01*
X55778343Y-126531648D01*
X55834914Y-126668223D01*
X55867812Y-126717458D01*
X55867813Y-126717461D01*
X55917046Y-126791145D01*
X55917052Y-126791152D01*
X61314551Y-132188650D01*
X61314554Y-132188652D01*
X61317442Y-132190582D01*
X61344411Y-132215023D01*
X61427757Y-132316581D01*
X61580101Y-132441607D01*
X61580108Y-132441611D01*
X61753907Y-132534509D01*
X61753910Y-132534509D01*
X61753914Y-132534512D01*
X61942509Y-132591722D01*
X62138641Y-132611039D01*
X62334773Y-132591722D01*
X62523368Y-132534512D01*
X62697179Y-132441608D01*
X62849524Y-132316581D01*
X62896656Y-132259150D01*
X62954399Y-132219817D01*
X63024244Y-132217946D01*
X63080189Y-132250135D01*
X63563181Y-132733127D01*
X63596666Y-132794450D01*
X63599500Y-132820808D01*
X63599500Y-135509191D01*
X63579815Y-135576230D01*
X63563181Y-135596872D01*
X60685550Y-138474502D01*
X60624227Y-138507987D01*
X60568922Y-138507395D01*
X60325658Y-138448993D01*
X60080000Y-138429659D01*
X59834341Y-138448993D01*
X59594735Y-138506517D01*
X59367079Y-138600815D01*
X59156981Y-138729563D01*
X59156980Y-138729564D01*
X59055031Y-138816637D01*
X58991270Y-138845207D01*
X58922184Y-138834770D01*
X58869708Y-138788639D01*
X58850500Y-138722346D01*
X58850500Y-138516149D01*
X58856569Y-138477831D01*
X58872221Y-138429659D01*
X58885674Y-138388256D01*
X58905460Y-138200000D01*
X58885674Y-138011744D01*
X58827179Y-137831716D01*
X58732533Y-137667784D01*
X58605871Y-137527112D01*
X58587648Y-137513872D01*
X58452734Y-137415851D01*
X58452729Y-137415848D01*
X58279807Y-137338857D01*
X58279802Y-137338855D01*
X58134001Y-137307865D01*
X58094646Y-137299500D01*
X57905354Y-137299500D01*
X57872897Y-137306398D01*
X57720197Y-137338855D01*
X57720192Y-137338857D01*
X57547271Y-137415848D01*
X57422885Y-137506219D01*
X57357078Y-137529698D01*
X57289024Y-137513872D01*
X57277115Y-137506219D01*
X57204886Y-137453742D01*
X57152730Y-137415849D01*
X57152728Y-137415848D01*
X57152729Y-137415848D01*
X56979807Y-137338857D01*
X56979802Y-137338855D01*
X56834001Y-137307865D01*
X56794646Y-137299500D01*
X56605354Y-137299500D01*
X56572897Y-137306398D01*
X56420197Y-137338855D01*
X56420192Y-137338857D01*
X56247270Y-137415848D01*
X56247265Y-137415851D01*
X56094129Y-137527111D01*
X55967466Y-137667785D01*
X55872821Y-137831715D01*
X55872818Y-137831722D01*
X55818350Y-137999358D01*
X55814326Y-138011744D01*
X55794540Y-138200000D01*
X55814326Y-138388256D01*
X55814327Y-138388259D01*
X55872818Y-138568277D01*
X55872821Y-138568284D01*
X55967467Y-138732216D01*
X56069205Y-138845207D01*
X56094129Y-138872888D01*
X56247265Y-138984148D01*
X56247270Y-138984151D01*
X56420192Y-139061142D01*
X56420197Y-139061144D01*
X56605354Y-139100500D01*
X56629192Y-139100500D01*
X56696231Y-139120185D01*
X56716873Y-139136819D01*
X57013181Y-139433127D01*
X57046666Y-139494450D01*
X57049500Y-139520808D01*
X57049500Y-144664720D01*
X57029815Y-144731759D01*
X56998385Y-144765038D01*
X56844129Y-144877111D01*
X56717466Y-145017785D01*
X56622821Y-145181715D01*
X56622818Y-145181722D01*
X56564325Y-145361745D01*
X56563042Y-145373959D01*
X56536459Y-145438574D01*
X56479162Y-145478560D01*
X56439721Y-145485000D01*
X56250000Y-145485000D01*
X56250000Y-146343293D01*
X56177931Y-146313442D01*
X56060080Y-146290000D01*
X55939920Y-146290000D01*
X55822069Y-146313442D01*
X55750000Y-146343293D01*
X55750000Y-145485000D01*
X54987155Y-145485000D01*
X54927627Y-145491401D01*
X54927620Y-145491403D01*
X54792913Y-145541645D01*
X54792906Y-145541649D01*
X54677812Y-145627809D01*
X54677809Y-145627812D01*
X54591649Y-145742906D01*
X54591645Y-145742913D01*
X54541403Y-145877620D01*
X54541401Y-145877627D01*
X54535000Y-145937155D01*
X54535000Y-146650000D01*
X55443294Y-146650000D01*
X55413442Y-146722069D01*
X55390000Y-146839920D01*
X55390000Y-146960080D01*
X55413442Y-147077931D01*
X55443294Y-147150000D01*
X54535000Y-147150000D01*
X54535000Y-147728029D01*
X54515315Y-147795068D01*
X54462511Y-147840823D01*
X54435192Y-147849646D01*
X54310261Y-147874497D01*
X54310255Y-147874499D01*
X54191870Y-147923535D01*
X54085331Y-147994722D01*
X54085324Y-147994728D01*
X53316873Y-148763181D01*
X53255550Y-148796666D01*
X53229192Y-148799500D01*
X53205354Y-148799500D01*
X53172897Y-148806398D01*
X53020197Y-148838855D01*
X53020192Y-148838857D01*
X52847270Y-148915848D01*
X52847265Y-148915851D01*
X52694129Y-149027111D01*
X52567466Y-149167785D01*
X52472821Y-149331715D01*
X52472818Y-149331722D01*
X52414327Y-149511740D01*
X52414326Y-149511744D01*
X52394540Y-149700000D01*
X52414326Y-149888256D01*
X52414327Y-149888259D01*
X52472818Y-150068277D01*
X52472821Y-150068284D01*
X52567467Y-150232216D01*
X52694129Y-150372888D01*
X52847265Y-150484148D01*
X52847270Y-150484151D01*
X53020192Y-150561142D01*
X53020197Y-150561144D01*
X53205354Y-150600500D01*
X53205355Y-150600500D01*
X53394644Y-150600500D01*
X53394646Y-150600500D01*
X53579803Y-150561144D01*
X53752730Y-150484151D01*
X53905871Y-150372888D01*
X54032533Y-150232216D01*
X54127179Y-150068284D01*
X54185674Y-149888256D01*
X54199168Y-149759855D01*
X54225752Y-149695242D01*
X54234799Y-149685145D01*
X54235534Y-149684410D01*
X54296855Y-149650927D01*
X54366547Y-149655911D01*
X54422480Y-149697783D01*
X54446897Y-149763247D01*
X54446831Y-149781814D01*
X54431821Y-149972526D01*
X54429659Y-149999999D01*
X54448993Y-150245658D01*
X54506517Y-150485264D01*
X54600815Y-150712920D01*
X54729563Y-150923018D01*
X54729564Y-150923020D01*
X54729567Y-150923023D01*
X54889601Y-151110399D01*
X55034648Y-151234280D01*
X55076979Y-151270435D01*
X55076981Y-151270436D01*
X55287079Y-151399184D01*
X55514735Y-151493482D01*
X55514736Y-151493482D01*
X55514738Y-151493483D01*
X55754345Y-151551007D01*
X56000000Y-151570341D01*
X56245655Y-151551007D01*
X56485262Y-151493483D01*
X56712920Y-151399184D01*
X56923023Y-151270433D01*
X57110399Y-151110399D01*
X57270433Y-150923023D01*
X57399184Y-150712920D01*
X57493483Y-150485262D01*
X57551007Y-150245655D01*
X57570341Y-150000000D01*
X72429659Y-150000000D01*
X72448993Y-150245658D01*
X72506517Y-150485264D01*
X72600815Y-150712920D01*
X72729563Y-150923018D01*
X72729564Y-150923020D01*
X72729567Y-150923023D01*
X72889601Y-151110399D01*
X73034648Y-151234280D01*
X73076979Y-151270435D01*
X73076981Y-151270436D01*
X73287079Y-151399184D01*
X73514735Y-151493482D01*
X73514736Y-151493482D01*
X73514738Y-151493483D01*
X73754345Y-151551007D01*
X74000000Y-151570341D01*
X74245655Y-151551007D01*
X74485262Y-151493483D01*
X74712920Y-151399184D01*
X74923023Y-151270433D01*
X75110399Y-151110399D01*
X75270433Y-150923023D01*
X75399184Y-150712920D01*
X75493483Y-150485262D01*
X75551007Y-150245655D01*
X75570341Y-150000000D01*
X75551007Y-149754345D01*
X75493483Y-149514738D01*
X75492241Y-149511740D01*
X75399184Y-149287079D01*
X75270436Y-149076981D01*
X75270435Y-149076979D01*
X75209194Y-149005275D01*
X75110399Y-148889601D01*
X74962380Y-148763181D01*
X74923020Y-148729564D01*
X74923018Y-148729563D01*
X74712919Y-148600815D01*
X74712920Y-148600815D01*
X74598838Y-148553561D01*
X74544435Y-148509720D01*
X74522370Y-148443426D01*
X74539649Y-148375726D01*
X74590787Y-148328116D01*
X74646291Y-148315000D01*
X75012828Y-148315000D01*
X75012844Y-148314999D01*
X75072372Y-148308598D01*
X75072379Y-148308596D01*
X75207086Y-148258354D01*
X75207093Y-148258350D01*
X75322187Y-148172190D01*
X75322190Y-148172187D01*
X75408350Y-148057093D01*
X75408354Y-148057086D01*
X75458596Y-147922379D01*
X75458598Y-147922372D01*
X75464999Y-147862844D01*
X75465000Y-147862827D01*
X75465000Y-147150000D01*
X74556706Y-147150000D01*
X74586558Y-147077931D01*
X74610000Y-146960080D01*
X74610000Y-146839920D01*
X74586558Y-146722069D01*
X74556706Y-146650000D01*
X75465000Y-146650000D01*
X75465000Y-145937172D01*
X75464999Y-145937155D01*
X75458598Y-145877627D01*
X75458596Y-145877620D01*
X75408354Y-145742913D01*
X75408350Y-145742906D01*
X75322190Y-145627812D01*
X75322187Y-145627809D01*
X75207093Y-145541649D01*
X75207086Y-145541645D01*
X75072379Y-145491403D01*
X75072372Y-145491401D01*
X75012844Y-145485000D01*
X74250000Y-145485000D01*
X74250000Y-146343293D01*
X74177931Y-146313442D01*
X74060080Y-146290000D01*
X73939920Y-146290000D01*
X73822069Y-146313442D01*
X73750000Y-146343293D01*
X73750000Y-145485000D01*
X72987155Y-145485000D01*
X72927627Y-145491401D01*
X72927620Y-145491403D01*
X72792913Y-145541645D01*
X72792906Y-145541649D01*
X72677812Y-145627809D01*
X72677809Y-145627812D01*
X72591649Y-145742906D01*
X72591645Y-145742913D01*
X72541403Y-145877620D01*
X72541401Y-145877627D01*
X72535000Y-145937155D01*
X72535000Y-146650000D01*
X73443294Y-146650000D01*
X73413442Y-146722069D01*
X73390000Y-146839920D01*
X73390000Y-146960080D01*
X73413442Y-147077931D01*
X73443294Y-147150000D01*
X72535000Y-147150000D01*
X72535000Y-147862844D01*
X72541401Y-147922372D01*
X72541403Y-147922379D01*
X72591645Y-148057086D01*
X72591649Y-148057093D01*
X72677809Y-148172187D01*
X72677812Y-148172190D01*
X72792906Y-148258350D01*
X72792913Y-148258354D01*
X72927620Y-148308596D01*
X72927627Y-148308598D01*
X72987155Y-148314999D01*
X72987172Y-148315000D01*
X73353709Y-148315000D01*
X73420748Y-148334685D01*
X73466503Y-148387489D01*
X73476447Y-148456647D01*
X73447422Y-148520203D01*
X73401162Y-148553561D01*
X73287079Y-148600815D01*
X73076981Y-148729563D01*
X73076979Y-148729564D01*
X72889601Y-148889601D01*
X72729564Y-149076979D01*
X72729563Y-149076981D01*
X72600815Y-149287079D01*
X72506517Y-149514735D01*
X72448993Y-149754341D01*
X72429659Y-150000000D01*
X57570341Y-150000000D01*
X57551007Y-149754345D01*
X57493483Y-149514738D01*
X57492241Y-149511740D01*
X57399184Y-149287079D01*
X57372506Y-149243545D01*
X57354261Y-149176099D01*
X57375377Y-149109497D01*
X57409341Y-149075653D01*
X57462387Y-149040210D01*
X57514669Y-149005277D01*
X58705277Y-147814669D01*
X58776465Y-147708127D01*
X58825501Y-147589744D01*
X58850500Y-147464069D01*
X58850500Y-141277653D01*
X58870185Y-141210614D01*
X58922989Y-141164859D01*
X58992147Y-141154915D01*
X59055029Y-141183362D01*
X59156977Y-141270433D01*
X59156979Y-141270434D01*
X59156980Y-141270435D01*
X59156981Y-141270436D01*
X59367079Y-141399184D01*
X59594735Y-141493482D01*
X59594736Y-141493482D01*
X59594738Y-141493483D01*
X59834345Y-141551007D01*
X60080000Y-141570341D01*
X60325655Y-141551007D01*
X60565262Y-141493483D01*
X60673047Y-141448836D01*
X60742516Y-141441368D01*
X60804995Y-141472643D01*
X60840648Y-141532731D01*
X60844500Y-141563398D01*
X60844500Y-144129078D01*
X60824815Y-144196117D01*
X60812650Y-144212050D01*
X60762466Y-144267785D01*
X60667821Y-144431715D01*
X60667818Y-144431722D01*
X60613142Y-144600000D01*
X60609326Y-144611744D01*
X60589540Y-144800000D01*
X60609326Y-144988256D01*
X60609327Y-144988259D01*
X60667818Y-145168277D01*
X60667821Y-145168284D01*
X60762467Y-145332216D01*
X60878553Y-145461142D01*
X60889129Y-145472888D01*
X61042265Y-145584148D01*
X61042270Y-145584151D01*
X61215192Y-145661142D01*
X61215197Y-145661144D01*
X61400354Y-145700500D01*
X61400355Y-145700500D01*
X61589644Y-145700500D01*
X61589646Y-145700500D01*
X61774803Y-145661144D01*
X61947730Y-145584151D01*
X62100871Y-145472888D01*
X62227533Y-145332216D01*
X62322179Y-145168284D01*
X62380674Y-144988256D01*
X62400460Y-144800000D01*
X62380674Y-144611744D01*
X62322179Y-144431716D01*
X62227533Y-144267784D01*
X62177350Y-144212050D01*
X62147120Y-144149058D01*
X62145500Y-144129078D01*
X62145500Y-140068282D01*
X63496408Y-140068282D01*
X63527750Y-140312937D01*
X63598627Y-140549184D01*
X63598628Y-140549186D01*
X63598630Y-140549191D01*
X63631845Y-140616991D01*
X63707144Y-140770697D01*
X63850374Y-140971499D01*
X63850380Y-140971506D01*
X64024487Y-141146222D01*
X64024492Y-141146226D01*
X64224791Y-141290156D01*
X64224797Y-141290159D01*
X64445918Y-141399444D01*
X64445919Y-141399444D01*
X64445921Y-141399445D01*
X64681926Y-141471149D01*
X64926474Y-141503344D01*
X64992914Y-141504967D01*
X64999995Y-141505141D01*
X64999996Y-141505140D01*
X65000000Y-141505141D01*
X65245829Y-141484930D01*
X65485055Y-141424841D01*
X65711256Y-141326486D01*
X65918355Y-141192508D01*
X66100790Y-141026504D01*
X66253664Y-140832932D01*
X66372869Y-140616992D01*
X66379299Y-140598837D01*
X66455203Y-140384491D01*
X66455203Y-140384489D01*
X66455206Y-140384482D01*
X66479934Y-140245658D01*
X66498461Y-140141648D01*
X66498531Y-140135900D01*
X66500192Y-140000000D01*
X66809659Y-140000000D01*
X66828993Y-140245658D01*
X66886517Y-140485264D01*
X66980815Y-140712920D01*
X67109563Y-140923018D01*
X67109564Y-140923020D01*
X67109567Y-140923023D01*
X67269601Y-141110399D01*
X67386938Y-141210614D01*
X67456979Y-141270435D01*
X67456981Y-141270436D01*
X67667079Y-141399184D01*
X67894735Y-141493482D01*
X67894736Y-141493482D01*
X67894738Y-141493483D01*
X68134345Y-141551007D01*
X68380000Y-141570341D01*
X68625655Y-141551007D01*
X68865262Y-141493483D01*
X69092920Y-141399184D01*
X69303023Y-141270433D01*
X69490399Y-141110399D01*
X69650433Y-140923023D01*
X69779184Y-140712920D01*
X69826439Y-140598837D01*
X69870280Y-140544434D01*
X69936574Y-140522369D01*
X70004273Y-140539648D01*
X70051884Y-140590785D01*
X70065000Y-140646290D01*
X70065000Y-141012844D01*
X70071401Y-141072372D01*
X70071403Y-141072379D01*
X70121645Y-141207086D01*
X70121649Y-141207093D01*
X70207809Y-141322187D01*
X70207812Y-141322190D01*
X70322906Y-141408350D01*
X70322913Y-141408354D01*
X70457620Y-141458596D01*
X70457627Y-141458598D01*
X70517155Y-141464999D01*
X70517172Y-141465000D01*
X71230000Y-141465000D01*
X71230000Y-140556706D01*
X71302069Y-140586558D01*
X71419920Y-140610000D01*
X71540080Y-140610000D01*
X71657931Y-140586558D01*
X71730000Y-140556706D01*
X71730000Y-141465000D01*
X72442828Y-141465000D01*
X72442844Y-141464999D01*
X72502372Y-141458598D01*
X72502379Y-141458596D01*
X72637086Y-141408354D01*
X72637093Y-141408350D01*
X72752187Y-141322190D01*
X72752190Y-141322187D01*
X72838350Y-141207093D01*
X72838354Y-141207086D01*
X72888596Y-141072379D01*
X72888598Y-141072372D01*
X72894999Y-141012844D01*
X72895000Y-141012827D01*
X72895000Y-140250000D01*
X72036706Y-140250000D01*
X72066558Y-140177931D01*
X72090000Y-140060080D01*
X72090000Y-139939920D01*
X72066558Y-139822069D01*
X72036706Y-139750000D01*
X72895000Y-139750000D01*
X72895000Y-138987172D01*
X72894999Y-138987155D01*
X72888598Y-138927627D01*
X72888596Y-138927620D01*
X72838354Y-138792913D01*
X72838350Y-138792906D01*
X72752190Y-138677812D01*
X72752187Y-138677809D01*
X72637093Y-138591649D01*
X72637086Y-138591645D01*
X72502379Y-138541403D01*
X72502372Y-138541401D01*
X72442844Y-138535000D01*
X71730000Y-138535000D01*
X71730000Y-139443293D01*
X71657931Y-139413442D01*
X71540080Y-139390000D01*
X71419920Y-139390000D01*
X71302069Y-139413442D01*
X71230000Y-139443293D01*
X71230000Y-138535000D01*
X70517155Y-138535000D01*
X70457627Y-138541401D01*
X70457620Y-138541403D01*
X70322913Y-138591645D01*
X70322906Y-138591649D01*
X70207812Y-138677809D01*
X70207809Y-138677812D01*
X70121649Y-138792906D01*
X70121645Y-138792913D01*
X70071403Y-138927620D01*
X70071401Y-138927627D01*
X70065000Y-138987155D01*
X70065000Y-139353709D01*
X70045315Y-139420748D01*
X69992511Y-139466503D01*
X69923353Y-139476447D01*
X69859797Y-139447422D01*
X69826439Y-139401162D01*
X69779184Y-139287079D01*
X69650436Y-139076981D01*
X69650435Y-139076979D01*
X69614280Y-139034648D01*
X69490399Y-138889601D01*
X69306125Y-138732216D01*
X69303020Y-138729564D01*
X69303018Y-138729563D01*
X69092920Y-138600815D01*
X68865264Y-138506517D01*
X68625658Y-138448993D01*
X68380000Y-138429659D01*
X68134341Y-138448993D01*
X67894735Y-138506517D01*
X67667079Y-138600815D01*
X67456981Y-138729563D01*
X67456979Y-138729564D01*
X67269601Y-138889601D01*
X67109564Y-139076979D01*
X67109563Y-139076981D01*
X66980815Y-139287079D01*
X66886517Y-139514735D01*
X66828993Y-139754341D01*
X66809659Y-140000000D01*
X66500192Y-140000000D01*
X66501475Y-139895007D01*
X66464165Y-139651187D01*
X66387534Y-139416734D01*
X66352612Y-139349650D01*
X66273643Y-139197951D01*
X66273641Y-139197948D01*
X66273640Y-139197946D01*
X66125542Y-139000697D01*
X66111371Y-138987155D01*
X65947220Y-138830289D01*
X65947207Y-138830279D01*
X65743452Y-138691287D01*
X65743447Y-138691285D01*
X65519731Y-138587439D01*
X65519723Y-138587436D01*
X65282039Y-138521520D01*
X65282038Y-138521519D01*
X65282035Y-138521519D01*
X65222489Y-138515155D01*
X65036774Y-138495307D01*
X64790525Y-138509507D01*
X64790520Y-138509507D01*
X64549907Y-138563731D01*
X64321363Y-138656533D01*
X64111052Y-138785412D01*
X63946402Y-138928038D01*
X63924618Y-138946908D01*
X63918088Y-138954774D01*
X63767062Y-139136685D01*
X63767054Y-139136696D01*
X63642614Y-139349650D01*
X63554624Y-139580072D01*
X63505447Y-139821785D01*
X63496408Y-140068282D01*
X62145500Y-140068282D01*
X62145500Y-139825807D01*
X62165185Y-139758768D01*
X62181819Y-139738126D01*
X65255273Y-136664672D01*
X65255276Y-136664669D01*
X65326465Y-136558127D01*
X65375501Y-136439744D01*
X65375501Y-136439740D01*
X65375503Y-136439737D01*
X65382121Y-136406466D01*
X65382121Y-136406465D01*
X65400500Y-136314071D01*
X65400500Y-130359333D01*
X65420185Y-130292294D01*
X65472989Y-130246539D01*
X65542147Y-130236595D01*
X65544865Y-130237017D01*
X65625665Y-130250500D01*
X65625666Y-130250500D01*
X65874335Y-130250500D01*
X66119614Y-130209571D01*
X66354810Y-130128828D01*
X66573509Y-130010474D01*
X66769744Y-129857738D01*
X66938164Y-129674785D01*
X67074173Y-129466607D01*
X67174063Y-129238881D01*
X67235108Y-128997821D01*
X67238239Y-128960033D01*
X67255643Y-128750005D01*
X67255643Y-128749994D01*
X67235109Y-128502187D01*
X67235107Y-128502175D01*
X67174063Y-128261118D01*
X67074173Y-128033393D01*
X66938166Y-127825217D01*
X66870324Y-127751521D01*
X66769744Y-127642262D01*
X66573509Y-127489526D01*
X66573507Y-127489525D01*
X66573506Y-127489524D01*
X66354811Y-127371172D01*
X66354802Y-127371169D01*
X66119616Y-127290429D01*
X65874335Y-127249500D01*
X65625665Y-127249500D01*
X65380383Y-127290429D01*
X65145197Y-127371169D01*
X65145188Y-127371172D01*
X64926493Y-127489524D01*
X64730257Y-127642261D01*
X64561833Y-127825217D01*
X64425826Y-128033393D01*
X64325936Y-128261118D01*
X64264892Y-128502175D01*
X64264890Y-128502187D01*
X64244357Y-128749994D01*
X64244357Y-128750005D01*
X64264890Y-128997812D01*
X64264892Y-128997824D01*
X64311719Y-129182737D01*
X64309094Y-129252557D01*
X64279197Y-129300856D01*
X64244722Y-129335332D01*
X64244719Y-129335336D01*
X64185787Y-129423534D01*
X64185788Y-129423535D01*
X64173534Y-129441874D01*
X64124499Y-129560255D01*
X64124497Y-129560261D01*
X64099500Y-129685928D01*
X64099500Y-131130192D01*
X64079815Y-131197231D01*
X64027011Y-131242986D01*
X63957853Y-131252930D01*
X63894297Y-131223905D01*
X63887819Y-131217873D01*
X63184490Y-130514544D01*
X63151005Y-130453221D01*
X63155989Y-130383529D01*
X63180021Y-130343891D01*
X63262864Y-130251885D01*
X63357510Y-130087953D01*
X63416005Y-129907925D01*
X63435791Y-129719669D01*
X63416005Y-129531413D01*
X63357510Y-129351385D01*
X63262864Y-129187453D01*
X63136202Y-129046781D01*
X63136201Y-129046780D01*
X62983066Y-128935521D01*
X62983063Y-128935519D01*
X62983061Y-128935518D01*
X62974060Y-128931510D01*
X62920826Y-128886260D01*
X62900506Y-128819411D01*
X62900500Y-128818233D01*
X62900500Y-125570807D01*
X62920185Y-125503768D01*
X62936814Y-125483131D01*
X64527800Y-123892144D01*
X64589121Y-123858661D01*
X64649753Y-123862202D01*
X64650048Y-123861040D01*
X64655011Y-123862296D01*
X64655015Y-123862296D01*
X64655019Y-123862298D01*
X64883951Y-123900500D01*
X64883952Y-123900500D01*
X65116048Y-123900500D01*
X65116049Y-123900500D01*
X65344981Y-123862298D01*
X65564503Y-123786936D01*
X65768626Y-123676470D01*
X65769170Y-123676047D01*
X65929802Y-123551022D01*
X65951784Y-123533913D01*
X66108979Y-123363153D01*
X66146491Y-123305736D01*
X66199634Y-123260382D01*
X66268865Y-123250957D01*
X66332201Y-123280458D01*
X66346914Y-123297436D01*
X66348812Y-123297633D01*
X67017037Y-122629408D01*
X67034075Y-122692993D01*
X67099901Y-122807007D01*
X67192993Y-122900099D01*
X67307007Y-122965925D01*
X67370590Y-122982962D01*
X66701201Y-123652351D01*
X66731649Y-123676050D01*
X66935697Y-123786476D01*
X66935706Y-123786479D01*
X67155139Y-123861811D01*
X67383993Y-123900000D01*
X67616007Y-123900000D01*
X67844860Y-123861811D01*
X68064293Y-123786479D01*
X68064301Y-123786476D01*
X68268355Y-123676047D01*
X68298797Y-123652351D01*
X68298798Y-123652350D01*
X67629410Y-122982962D01*
X67692993Y-122965925D01*
X67807007Y-122900099D01*
X67900099Y-122807007D01*
X67965925Y-122692993D01*
X67982962Y-122629409D01*
X68651186Y-123297633D01*
X68735482Y-123168611D01*
X68828682Y-122956135D01*
X68885638Y-122731218D01*
X68904798Y-122500005D01*
X68904798Y-122499994D01*
X68885638Y-122268781D01*
X68828682Y-122043864D01*
X68735484Y-121831393D01*
X68651186Y-121702365D01*
X67982962Y-122370589D01*
X67965925Y-122307007D01*
X67900099Y-122192993D01*
X67807007Y-122099901D01*
X67692993Y-122034075D01*
X67629409Y-122017037D01*
X68298797Y-121347647D01*
X68298797Y-121347645D01*
X68268360Y-121323955D01*
X68268354Y-121323951D01*
X68064302Y-121213523D01*
X68064293Y-121213520D01*
X67844860Y-121138188D01*
X67616007Y-121100000D01*
X67383993Y-121100000D01*
X67155139Y-121138188D01*
X66935706Y-121213520D01*
X66935697Y-121213523D01*
X66731650Y-121323949D01*
X66701200Y-121347647D01*
X67370591Y-122017037D01*
X67307007Y-122034075D01*
X67192993Y-122099901D01*
X67099901Y-122192993D01*
X67034075Y-122307007D01*
X67017037Y-122370591D01*
X66348811Y-121702365D01*
X66344029Y-121702861D01*
X66300959Y-121739618D01*
X66231728Y-121749041D01*
X66168392Y-121719538D01*
X66146489Y-121694260D01*
X66108983Y-121636852D01*
X66108980Y-121636849D01*
X66108979Y-121636847D01*
X65951784Y-121466087D01*
X65951779Y-121466083D01*
X65951777Y-121466081D01*
X65768634Y-121323535D01*
X65768628Y-121323531D01*
X65564504Y-121213064D01*
X65564495Y-121213061D01*
X65344984Y-121137702D01*
X65154450Y-121105908D01*
X65116049Y-121099500D01*
X64883951Y-121099500D01*
X64849493Y-121105250D01*
X64655015Y-121137702D01*
X64435504Y-121213061D01*
X64435495Y-121213064D01*
X64231372Y-121323531D01*
X64054436Y-121461245D01*
X63989442Y-121486887D01*
X63920902Y-121473320D01*
X63870577Y-121424852D01*
X63862092Y-121406723D01*
X63843798Y-121357673D01*
X63843793Y-121357664D01*
X63757547Y-121242455D01*
X63757544Y-121242452D01*
X63642335Y-121156206D01*
X63642328Y-121156202D01*
X63507482Y-121105908D01*
X63507483Y-121105908D01*
X63447883Y-121099501D01*
X63447881Y-121099500D01*
X63447873Y-121099500D01*
X63447864Y-121099500D01*
X61552129Y-121099500D01*
X61552123Y-121099501D01*
X61492516Y-121105908D01*
X61357671Y-121156202D01*
X61357664Y-121156206D01*
X61242455Y-121242452D01*
X61242452Y-121242455D01*
X61156206Y-121357664D01*
X61156202Y-121357671D01*
X61140682Y-121399284D01*
X61098811Y-121455218D01*
X61033346Y-121479635D01*
X60965073Y-121464783D01*
X60915668Y-121415378D01*
X60900500Y-121355951D01*
X60900500Y-119070808D01*
X60920185Y-119003769D01*
X60936819Y-118983127D01*
X63505271Y-116414675D01*
X63505276Y-116414670D01*
X63576465Y-116308127D01*
X63625501Y-116189744D01*
X63634497Y-116144517D01*
X63650500Y-116064069D01*
X63650500Y-114999994D01*
X67244556Y-114999994D01*
X67244556Y-115000005D01*
X67264310Y-115314004D01*
X67264311Y-115314011D01*
X67323270Y-115623083D01*
X67420497Y-115922316D01*
X67420499Y-115922321D01*
X67554461Y-116207003D01*
X67554464Y-116207009D01*
X67723051Y-116472661D01*
X67723054Y-116472665D01*
X67923606Y-116715090D01*
X67923608Y-116715092D01*
X68152968Y-116930476D01*
X68152978Y-116930484D01*
X68407504Y-117115408D01*
X68407509Y-117115410D01*
X68407516Y-117115416D01*
X68683234Y-117266994D01*
X68683239Y-117266996D01*
X68683241Y-117266997D01*
X68683242Y-117266998D01*
X68975771Y-117382818D01*
X68975774Y-117382819D01*
X69280523Y-117461065D01*
X69280527Y-117461066D01*
X69346010Y-117469338D01*
X69592670Y-117500499D01*
X69592679Y-117500499D01*
X69592682Y-117500500D01*
X69592684Y-117500500D01*
X69907316Y-117500500D01*
X69907318Y-117500500D01*
X69907321Y-117500499D01*
X69907329Y-117500499D01*
X70104463Y-117475595D01*
X70219473Y-117461066D01*
X70524225Y-117382819D01*
X70524228Y-117382818D01*
X70816757Y-117266998D01*
X70816758Y-117266997D01*
X70816756Y-117266997D01*
X70816766Y-117266994D01*
X71092484Y-117115416D01*
X71347030Y-116930478D01*
X71576390Y-116715094D01*
X71776947Y-116472663D01*
X71945537Y-116207007D01*
X72079503Y-115922315D01*
X72176731Y-115623079D01*
X72235688Y-115314015D01*
X72255444Y-115000000D01*
X72235688Y-114685985D01*
X72176731Y-114376921D01*
X72079503Y-114077685D01*
X71945537Y-113792993D01*
X71776947Y-113527337D01*
X71776945Y-113527334D01*
X71576393Y-113284909D01*
X71576391Y-113284907D01*
X71347031Y-113069523D01*
X71347021Y-113069515D01*
X71092495Y-112884591D01*
X71092488Y-112884586D01*
X71092484Y-112884584D01*
X70816766Y-112733006D01*
X70816763Y-112733004D01*
X70816758Y-112733002D01*
X70816757Y-112733001D01*
X70524228Y-112617181D01*
X70524225Y-112617180D01*
X70219476Y-112538934D01*
X70219463Y-112538932D01*
X69907329Y-112499500D01*
X69907318Y-112499500D01*
X69592682Y-112499500D01*
X69592670Y-112499500D01*
X69280536Y-112538932D01*
X69280523Y-112538934D01*
X68975774Y-112617180D01*
X68975771Y-112617181D01*
X68683242Y-112733001D01*
X68683241Y-112733002D01*
X68407516Y-112884584D01*
X68407504Y-112884591D01*
X68152978Y-113069515D01*
X68152968Y-113069523D01*
X67923608Y-113284907D01*
X67923606Y-113284909D01*
X67723054Y-113527334D01*
X67723051Y-113527338D01*
X67554464Y-113792990D01*
X67554461Y-113792996D01*
X67420499Y-114077678D01*
X67420497Y-114077683D01*
X67323270Y-114376916D01*
X67264311Y-114685988D01*
X67264310Y-114685995D01*
X67244556Y-114999994D01*
X63650500Y-114999994D01*
X63650500Y-109999994D01*
X70994357Y-109999994D01*
X70994357Y-110000005D01*
X71014890Y-110247812D01*
X71014892Y-110247824D01*
X71075936Y-110488881D01*
X71175826Y-110716606D01*
X71311833Y-110924782D01*
X71311836Y-110924785D01*
X71480256Y-111107738D01*
X71676491Y-111260474D01*
X71895190Y-111378828D01*
X72130386Y-111459571D01*
X72375665Y-111500500D01*
X72624335Y-111500500D01*
X72869614Y-111459571D01*
X73104810Y-111378828D01*
X73323509Y-111260474D01*
X73519744Y-111107738D01*
X73688164Y-110924785D01*
X73824173Y-110716607D01*
X73924063Y-110488881D01*
X73985108Y-110247821D01*
X73985109Y-110247812D01*
X74005643Y-110000005D01*
X74005643Y-109999994D01*
X73985109Y-109752187D01*
X73985107Y-109752175D01*
X73924063Y-109511118D01*
X73824173Y-109283393D01*
X73688166Y-109075217D01*
X73666557Y-109051744D01*
X73519744Y-108892262D01*
X73323509Y-108739526D01*
X73323507Y-108739525D01*
X73323506Y-108739524D01*
X73104811Y-108621172D01*
X73104802Y-108621169D01*
X72869616Y-108540429D01*
X72624335Y-108499500D01*
X72375665Y-108499500D01*
X72130383Y-108540429D01*
X71895197Y-108621169D01*
X71895188Y-108621172D01*
X71676493Y-108739524D01*
X71480257Y-108892261D01*
X71311833Y-109075217D01*
X71175826Y-109283393D01*
X71075936Y-109511118D01*
X71014892Y-109752175D01*
X71014890Y-109752187D01*
X70994357Y-109999994D01*
X63650500Y-109999994D01*
X63650500Y-97820807D01*
X63670185Y-97753768D01*
X63686819Y-97733126D01*
X63992526Y-97427419D01*
X64527800Y-96892144D01*
X64589121Y-96858661D01*
X64649753Y-96862202D01*
X64650048Y-96861040D01*
X64655011Y-96862296D01*
X64655015Y-96862296D01*
X64655019Y-96862298D01*
X64883951Y-96900500D01*
X64883952Y-96900500D01*
X65116048Y-96900500D01*
X65116049Y-96900500D01*
X65344981Y-96862298D01*
X65564503Y-96786936D01*
X65768626Y-96676470D01*
X65769170Y-96676047D01*
X65916955Y-96561021D01*
X65951784Y-96533913D01*
X66108979Y-96363153D01*
X66146491Y-96305736D01*
X66199634Y-96260382D01*
X66268865Y-96250957D01*
X66332201Y-96280458D01*
X66346914Y-96297436D01*
X66348812Y-96297633D01*
X67017037Y-95629408D01*
X67034075Y-95692993D01*
X67099901Y-95807007D01*
X67192993Y-95900099D01*
X67307007Y-95965925D01*
X67370590Y-95982962D01*
X66701201Y-96652351D01*
X66731649Y-96676050D01*
X66935697Y-96786476D01*
X66935706Y-96786479D01*
X67155139Y-96861811D01*
X67383993Y-96900000D01*
X67616007Y-96900000D01*
X67844860Y-96861811D01*
X68064293Y-96786479D01*
X68064301Y-96786476D01*
X68268355Y-96676047D01*
X68298797Y-96652351D01*
X68298798Y-96652350D01*
X67629410Y-95982962D01*
X67692993Y-95965925D01*
X67807007Y-95900099D01*
X67900099Y-95807007D01*
X67965925Y-95692993D01*
X67982962Y-95629409D01*
X68651186Y-96297633D01*
X68735482Y-96168611D01*
X68828682Y-95956135D01*
X68885638Y-95731218D01*
X68904798Y-95500005D01*
X68904798Y-95499994D01*
X68885638Y-95268781D01*
X68828682Y-95043864D01*
X68735484Y-94831393D01*
X68651186Y-94702365D01*
X67982962Y-95370589D01*
X67965925Y-95307007D01*
X67900099Y-95192993D01*
X67807007Y-95099901D01*
X67692993Y-95034075D01*
X67629409Y-95017037D01*
X68298797Y-94347647D01*
X68298797Y-94347645D01*
X68268360Y-94323955D01*
X68268354Y-94323951D01*
X68064302Y-94213523D01*
X68064293Y-94213520D01*
X67844860Y-94138188D01*
X67616007Y-94100000D01*
X67383993Y-94100000D01*
X67155139Y-94138188D01*
X66935706Y-94213520D01*
X66935697Y-94213523D01*
X66731650Y-94323949D01*
X66701200Y-94347647D01*
X67370591Y-95017037D01*
X67307007Y-95034075D01*
X67192993Y-95099901D01*
X67099901Y-95192993D01*
X67034075Y-95307007D01*
X67017037Y-95370591D01*
X66348811Y-94702365D01*
X66344029Y-94702861D01*
X66300959Y-94739618D01*
X66231728Y-94749041D01*
X66168392Y-94719538D01*
X66146489Y-94694260D01*
X66108983Y-94636852D01*
X66108980Y-94636849D01*
X66108979Y-94636847D01*
X65951784Y-94466087D01*
X65951779Y-94466083D01*
X65951777Y-94466081D01*
X65768634Y-94323535D01*
X65768628Y-94323531D01*
X65564504Y-94213064D01*
X65564495Y-94213061D01*
X65344984Y-94137702D01*
X65154450Y-94105908D01*
X65116049Y-94099500D01*
X64883951Y-94099500D01*
X64845550Y-94105908D01*
X64655015Y-94137702D01*
X64435504Y-94213061D01*
X64435495Y-94213064D01*
X64231372Y-94323531D01*
X64054436Y-94461245D01*
X63989442Y-94486887D01*
X63920902Y-94473320D01*
X63870577Y-94424852D01*
X63862092Y-94406723D01*
X63843798Y-94357673D01*
X63843793Y-94357664D01*
X63757547Y-94242455D01*
X63757544Y-94242452D01*
X63642335Y-94156206D01*
X63642328Y-94156202D01*
X63507482Y-94105908D01*
X63507483Y-94105908D01*
X63447883Y-94099501D01*
X63447881Y-94099500D01*
X63447873Y-94099500D01*
X63447864Y-94099500D01*
X61552129Y-94099500D01*
X61552123Y-94099501D01*
X61492516Y-94105908D01*
X61357671Y-94156202D01*
X61357664Y-94156206D01*
X61242455Y-94242452D01*
X61242452Y-94242455D01*
X61156206Y-94357664D01*
X61156202Y-94357671D01*
X61105908Y-94492517D01*
X61099501Y-94552116D01*
X61099500Y-94552135D01*
X61099500Y-94625500D01*
X61079815Y-94692539D01*
X61027011Y-94738294D01*
X60975500Y-94749500D01*
X57526910Y-94749500D01*
X57459871Y-94729815D01*
X57439228Y-94713181D01*
X57438531Y-94712484D01*
X57438529Y-94712481D01*
X57287519Y-94561471D01*
X57287518Y-94561470D01*
X57287517Y-94561469D01*
X57112578Y-94438977D01*
X57112579Y-94438977D01*
X56983547Y-94378809D01*
X56919030Y-94348724D01*
X56919023Y-94348722D01*
X56913936Y-94346870D01*
X56914709Y-94344746D01*
X56863305Y-94313424D01*
X56832766Y-94250581D01*
X56841050Y-94181204D01*
X56885528Y-94127320D01*
X56914315Y-94114172D01*
X56913936Y-94113130D01*
X56919013Y-94111280D01*
X56919030Y-94111276D01*
X57112581Y-94021021D01*
X57287519Y-93898529D01*
X57438529Y-93747519D01*
X57561021Y-93572581D01*
X57651276Y-93379030D01*
X57706549Y-93172747D01*
X57725162Y-92960000D01*
X57706549Y-92747253D01*
X57651276Y-92540970D01*
X57561021Y-92347419D01*
X57438529Y-92172481D01*
X57438527Y-92172478D01*
X57287521Y-92021472D01*
X57112578Y-91898977D01*
X57112579Y-91898977D01*
X56983547Y-91838809D01*
X56919030Y-91808724D01*
X56919026Y-91808723D01*
X56919022Y-91808721D01*
X56712752Y-91753452D01*
X56712748Y-91753451D01*
X56712747Y-91753451D01*
X56712746Y-91753450D01*
X56712741Y-91753450D01*
X56500002Y-91734838D01*
X56499998Y-91734838D01*
X56287258Y-91753450D01*
X56287247Y-91753452D01*
X56080977Y-91808721D01*
X56080968Y-91808725D01*
X55887421Y-91898977D01*
X55712478Y-92021472D01*
X55561472Y-92172478D01*
X55438977Y-92347421D01*
X55348725Y-92540968D01*
X55348721Y-92540977D01*
X55293452Y-92747247D01*
X55293450Y-92747258D01*
X55274838Y-92959998D01*
X55274838Y-92960001D01*
X55293450Y-93172741D01*
X55293452Y-93172752D01*
X55348721Y-93379022D01*
X55348723Y-93379026D01*
X55348724Y-93379030D01*
X55391171Y-93470058D01*
X55438977Y-93572578D01*
X55561472Y-93747521D01*
X55712478Y-93898527D01*
X55712481Y-93898529D01*
X55887419Y-94021021D01*
X55887421Y-94021022D01*
X55887420Y-94021022D01*
X55951936Y-94051106D01*
X56080970Y-94111276D01*
X56080983Y-94111279D01*
X56086064Y-94113130D01*
X56085292Y-94115250D01*
X56136710Y-94146594D01*
X56167237Y-94209442D01*
X56158939Y-94278817D01*
X56114452Y-94332693D01*
X56085685Y-94345830D01*
X56086064Y-94346870D01*
X56080972Y-94348723D01*
X56080970Y-94348724D01*
X56080968Y-94348725D01*
X55887421Y-94438977D01*
X55712482Y-94561469D01*
X55648452Y-94625500D01*
X55561471Y-94712481D01*
X55561468Y-94712484D01*
X55560772Y-94713181D01*
X55499448Y-94746666D01*
X55473090Y-94749500D01*
X52112230Y-94749500D01*
X52045191Y-94729815D01*
X52024549Y-94713181D01*
X51286819Y-93975451D01*
X51253334Y-93914128D01*
X51250500Y-93887770D01*
X51250500Y-87999994D01*
X57744556Y-87999994D01*
X57744556Y-88000005D01*
X57764310Y-88314004D01*
X57764311Y-88314011D01*
X57823270Y-88623083D01*
X57920497Y-88922316D01*
X57920499Y-88922321D01*
X58054461Y-89207003D01*
X58054464Y-89207009D01*
X58223051Y-89472661D01*
X58223054Y-89472665D01*
X58423606Y-89715090D01*
X58423608Y-89715092D01*
X58652968Y-89930476D01*
X58652978Y-89930484D01*
X58907504Y-90115408D01*
X58907509Y-90115410D01*
X58907516Y-90115416D01*
X59183234Y-90266994D01*
X59183239Y-90266996D01*
X59183241Y-90266997D01*
X59183242Y-90266998D01*
X59475771Y-90382818D01*
X59475774Y-90382819D01*
X59780523Y-90461065D01*
X59780527Y-90461066D01*
X59846010Y-90469338D01*
X60092670Y-90500499D01*
X60092679Y-90500499D01*
X60092682Y-90500500D01*
X60092684Y-90500500D01*
X60407316Y-90500500D01*
X60407318Y-90500500D01*
X60407321Y-90500499D01*
X60407329Y-90500499D01*
X60593593Y-90476968D01*
X60719473Y-90461066D01*
X61024225Y-90382819D01*
X61024228Y-90382818D01*
X61316757Y-90266998D01*
X61316758Y-90266997D01*
X61316756Y-90266997D01*
X61316766Y-90266994D01*
X61592484Y-90115416D01*
X61847030Y-89930478D01*
X62076390Y-89715094D01*
X62276947Y-89472663D01*
X62445537Y-89207007D01*
X62579503Y-88922315D01*
X62676731Y-88623079D01*
X62735688Y-88314015D01*
X62755444Y-88000000D01*
X62735688Y-87685985D01*
X62676731Y-87376921D01*
X62579503Y-87077685D01*
X62445537Y-86792993D01*
X62276947Y-86527337D01*
X62276945Y-86527334D01*
X62076393Y-86284909D01*
X62076391Y-86284907D01*
X61847031Y-86069523D01*
X61847021Y-86069515D01*
X61592495Y-85884591D01*
X61592488Y-85884586D01*
X61592484Y-85884584D01*
X61316766Y-85733006D01*
X61316763Y-85733004D01*
X61316758Y-85733002D01*
X61316757Y-85733001D01*
X61024228Y-85617181D01*
X61024225Y-85617180D01*
X60719476Y-85538934D01*
X60719463Y-85538932D01*
X60407329Y-85499500D01*
X60407318Y-85499500D01*
X60092682Y-85499500D01*
X60092670Y-85499500D01*
X59780536Y-85538932D01*
X59780523Y-85538934D01*
X59475774Y-85617180D01*
X59475771Y-85617181D01*
X59183242Y-85733001D01*
X59183241Y-85733002D01*
X58907516Y-85884584D01*
X58907504Y-85884591D01*
X58652978Y-86069515D01*
X58652968Y-86069523D01*
X58423608Y-86284907D01*
X58423606Y-86284909D01*
X58223054Y-86527334D01*
X58223051Y-86527338D01*
X58054464Y-86792990D01*
X58054461Y-86792996D01*
X57920499Y-87077678D01*
X57920497Y-87077683D01*
X57823270Y-87376916D01*
X57764311Y-87685988D01*
X57764310Y-87685995D01*
X57744556Y-87999994D01*
X51250500Y-87999994D01*
X51250500Y-60162229D01*
X51270185Y-60095190D01*
X51286815Y-60074552D01*
X51460751Y-59900615D01*
X51522074Y-59867131D01*
X51568841Y-59865988D01*
X51775665Y-59900500D01*
X52024335Y-59900500D01*
X52269614Y-59859571D01*
X52504810Y-59778828D01*
X52723509Y-59660474D01*
X52919744Y-59507738D01*
X53088164Y-59324785D01*
X53224173Y-59116607D01*
X53324063Y-58888881D01*
X53385108Y-58647821D01*
X53385109Y-58647812D01*
X53405643Y-58400005D01*
X53405643Y-58399994D01*
X53385109Y-58152187D01*
X53385107Y-58152175D01*
X53324063Y-57911118D01*
X53224173Y-57683393D01*
X53088166Y-57475217D01*
X53066557Y-57451744D01*
X52919744Y-57292262D01*
X52723509Y-57139526D01*
X52723507Y-57139525D01*
X52723506Y-57139524D01*
X52504811Y-57021172D01*
X52504802Y-57021169D01*
X52269616Y-56940429D01*
X52024335Y-56899500D01*
X51775665Y-56899500D01*
X51530383Y-56940429D01*
X51295197Y-57021169D01*
X51295188Y-57021172D01*
X51076493Y-57139524D01*
X50880257Y-57292261D01*
X50711833Y-57475217D01*
X50575826Y-57683393D01*
X50488056Y-57883490D01*
X50443100Y-57936976D01*
X50376364Y-57957666D01*
X50309036Y-57938991D01*
X50262493Y-57886881D01*
X50250500Y-57833680D01*
X50250500Y-56000000D01*
X57094540Y-56000000D01*
X57114326Y-56188256D01*
X57114327Y-56188259D01*
X57172818Y-56368277D01*
X57172821Y-56368284D01*
X57232887Y-56472321D01*
X57249500Y-56534321D01*
X57249500Y-69714069D01*
X57249500Y-69714071D01*
X57249499Y-69714071D01*
X57274497Y-69839738D01*
X57274499Y-69839744D01*
X57323534Y-69958125D01*
X57394726Y-70064673D01*
X60295326Y-72965273D01*
X60295329Y-72965275D01*
X60295331Y-72965277D01*
X60401873Y-73036465D01*
X60520256Y-73085501D01*
X60520260Y-73085501D01*
X60520261Y-73085502D01*
X60645928Y-73110500D01*
X60645931Y-73110500D01*
X62582278Y-73110500D01*
X62649317Y-73130185D01*
X62683853Y-73163377D01*
X62801501Y-73331396D01*
X62801506Y-73331402D01*
X62968597Y-73498493D01*
X62968603Y-73498498D01*
X63154158Y-73628425D01*
X63197783Y-73683002D01*
X63204977Y-73752500D01*
X63173454Y-73814855D01*
X63154158Y-73831575D01*
X62968597Y-73961505D01*
X62801505Y-74128597D01*
X62665965Y-74322169D01*
X62665964Y-74322171D01*
X62566098Y-74536335D01*
X62566094Y-74536344D01*
X62504938Y-74764586D01*
X62504936Y-74764596D01*
X62484341Y-74999999D01*
X62484341Y-75000000D01*
X62504936Y-75235403D01*
X62504938Y-75235413D01*
X62566094Y-75463655D01*
X62566096Y-75463659D01*
X62566097Y-75463663D01*
X62645597Y-75634151D01*
X62665965Y-75677830D01*
X62665967Y-75677834D01*
X62768891Y-75824823D01*
X62801505Y-75871401D01*
X62968599Y-76038495D01*
X63011675Y-76068657D01*
X63162165Y-76174032D01*
X63162167Y-76174033D01*
X63162170Y-76174035D01*
X63376337Y-76273903D01*
X63604592Y-76335063D01*
X63781034Y-76350500D01*
X63839999Y-76355659D01*
X63840000Y-76355659D01*
X63840001Y-76355659D01*
X63898966Y-76350500D01*
X64075408Y-76335063D01*
X64303663Y-76273903D01*
X64517830Y-76174035D01*
X64711401Y-76038495D01*
X64878495Y-75871401D01*
X65008732Y-75685403D01*
X65063307Y-75641780D01*
X65132805Y-75634586D01*
X65195160Y-75666109D01*
X65211880Y-75685405D01*
X65265073Y-75761373D01*
X65897037Y-75129409D01*
X65914075Y-75192993D01*
X65979901Y-75307007D01*
X66072993Y-75400099D01*
X66187007Y-75465925D01*
X66250590Y-75482962D01*
X65618625Y-76114925D01*
X65702421Y-76173599D01*
X65916507Y-76273429D01*
X65916516Y-76273433D01*
X66144673Y-76334567D01*
X66144683Y-76334569D01*
X66245629Y-76343401D01*
X66310697Y-76368854D01*
X66351676Y-76425444D01*
X66355554Y-76495206D01*
X66321100Y-76555991D01*
X66307708Y-76567246D01*
X66294128Y-76577112D01*
X66167466Y-76717785D01*
X66072821Y-76881715D01*
X66072818Y-76881722D01*
X66014327Y-77061740D01*
X66014326Y-77061744D01*
X65994540Y-77250000D01*
X66014326Y-77438256D01*
X66014327Y-77438259D01*
X66072818Y-77618277D01*
X66072819Y-77618279D01*
X66072821Y-77618284D01*
X66082887Y-77635720D01*
X66099500Y-77697718D01*
X66099500Y-90564069D01*
X66099500Y-90564071D01*
X66099499Y-90564071D01*
X66124497Y-90689738D01*
X66124499Y-90689744D01*
X66173534Y-90808125D01*
X66244726Y-90914673D01*
X66244727Y-90914674D01*
X70063181Y-94733127D01*
X70096666Y-94794450D01*
X70099500Y-94820808D01*
X70099500Y-99079078D01*
X70079815Y-99146117D01*
X70067650Y-99162050D01*
X70017466Y-99217785D01*
X69922821Y-99381715D01*
X69922818Y-99381722D01*
X69864327Y-99561740D01*
X69864326Y-99561744D01*
X69844540Y-99750000D01*
X69864326Y-99938256D01*
X69864327Y-99938259D01*
X69922818Y-100118277D01*
X69922821Y-100118284D01*
X70017467Y-100282216D01*
X70112509Y-100387770D01*
X70144129Y-100422888D01*
X70297265Y-100534148D01*
X70297270Y-100534151D01*
X70470192Y-100611142D01*
X70470197Y-100611144D01*
X70655354Y-100650500D01*
X70655355Y-100650500D01*
X70844644Y-100650500D01*
X70844646Y-100650500D01*
X71029803Y-100611144D01*
X71202730Y-100534151D01*
X71355871Y-100422888D01*
X71482533Y-100282216D01*
X71577179Y-100118284D01*
X71635674Y-99938256D01*
X71655460Y-99750000D01*
X71635674Y-99561744D01*
X71577179Y-99381716D01*
X71482533Y-99217784D01*
X71432350Y-99162050D01*
X71402120Y-99099058D01*
X71400500Y-99079078D01*
X71400500Y-94435928D01*
X71375502Y-94310261D01*
X71375501Y-94310260D01*
X71375501Y-94310256D01*
X71326465Y-94191873D01*
X71321981Y-94185162D01*
X71321977Y-94185156D01*
X71321977Y-94185155D01*
X71255274Y-94085327D01*
X67436819Y-90266872D01*
X67403334Y-90205549D01*
X67400500Y-90179191D01*
X67400500Y-89391211D01*
X67420185Y-89324172D01*
X67472989Y-89278417D01*
X67542147Y-89268473D01*
X67605703Y-89297498D01*
X67629197Y-89324769D01*
X67723051Y-89472661D01*
X67723054Y-89472665D01*
X67923606Y-89715090D01*
X67923608Y-89715092D01*
X68152968Y-89930476D01*
X68152978Y-89930484D01*
X68407504Y-90115408D01*
X68407509Y-90115410D01*
X68407516Y-90115416D01*
X68683234Y-90266994D01*
X68683239Y-90266996D01*
X68683241Y-90266997D01*
X68683242Y-90266998D01*
X68975771Y-90382818D01*
X68975774Y-90382819D01*
X69280523Y-90461065D01*
X69280527Y-90461066D01*
X69346010Y-90469338D01*
X69592670Y-90500499D01*
X69592679Y-90500499D01*
X69592682Y-90500500D01*
X69592684Y-90500500D01*
X69907316Y-90500500D01*
X69907318Y-90500500D01*
X69907321Y-90500499D01*
X69907329Y-90500499D01*
X70093593Y-90476968D01*
X70219473Y-90461066D01*
X70524225Y-90382819D01*
X70524228Y-90382818D01*
X70816757Y-90266998D01*
X70816758Y-90266997D01*
X70816756Y-90266997D01*
X70816766Y-90266994D01*
X71092484Y-90115416D01*
X71347030Y-89930478D01*
X71576390Y-89715094D01*
X71776947Y-89472663D01*
X71945537Y-89207007D01*
X72079503Y-88922315D01*
X72176731Y-88623079D01*
X72235688Y-88314015D01*
X72255444Y-88000000D01*
X72235688Y-87685985D01*
X72176731Y-87376921D01*
X72079503Y-87077685D01*
X71945537Y-86792993D01*
X71776947Y-86527337D01*
X71776945Y-86527334D01*
X71576393Y-86284909D01*
X71576391Y-86284907D01*
X71347031Y-86069523D01*
X71347021Y-86069515D01*
X71092495Y-85884591D01*
X71092488Y-85884586D01*
X71092484Y-85884584D01*
X70816766Y-85733006D01*
X70816763Y-85733004D01*
X70816758Y-85733002D01*
X70816757Y-85733001D01*
X70524228Y-85617181D01*
X70524225Y-85617180D01*
X70219476Y-85538934D01*
X70219463Y-85538932D01*
X69907329Y-85499500D01*
X69907318Y-85499500D01*
X69592682Y-85499500D01*
X69592670Y-85499500D01*
X69280536Y-85538932D01*
X69280523Y-85538934D01*
X68975774Y-85617180D01*
X68975771Y-85617181D01*
X68683242Y-85733001D01*
X68683241Y-85733002D01*
X68407516Y-85884584D01*
X68407504Y-85884591D01*
X68152978Y-86069515D01*
X68152968Y-86069523D01*
X67923608Y-86284907D01*
X67923606Y-86284909D01*
X67723054Y-86527334D01*
X67723051Y-86527338D01*
X67629197Y-86675230D01*
X67576655Y-86721286D01*
X67507554Y-86731625D01*
X67443834Y-86702963D01*
X67405724Y-86644402D01*
X67400500Y-86608788D01*
X67400500Y-78062625D01*
X67420185Y-77995586D01*
X67451616Y-77962306D01*
X67505871Y-77922888D01*
X67632533Y-77782216D01*
X67727179Y-77618284D01*
X67785674Y-77438256D01*
X67805460Y-77250000D01*
X67785674Y-77061744D01*
X67727179Y-76881716D01*
X67632533Y-76717784D01*
X67505871Y-76577112D01*
X67492292Y-76567246D01*
X67352734Y-76465851D01*
X67352729Y-76465848D01*
X67179807Y-76388857D01*
X67179803Y-76388856D01*
X67129159Y-76378091D01*
X67067678Y-76344898D01*
X67033902Y-76283735D01*
X67038554Y-76214020D01*
X67080159Y-76157888D01*
X67083818Y-76155226D01*
X67141373Y-76114925D01*
X66509409Y-75482962D01*
X66572993Y-75465925D01*
X66687007Y-75400099D01*
X66780099Y-75307007D01*
X66845925Y-75192993D01*
X66862962Y-75129409D01*
X67494925Y-75761373D01*
X67548425Y-75684968D01*
X67603002Y-75641344D01*
X67672501Y-75634151D01*
X67734855Y-75665673D01*
X67751576Y-75684969D01*
X67805073Y-75761372D01*
X68437037Y-75129409D01*
X68454075Y-75192993D01*
X68519901Y-75307007D01*
X68612993Y-75400099D01*
X68727007Y-75465925D01*
X68790590Y-75482962D01*
X68158625Y-76114925D01*
X68242421Y-76173599D01*
X68456507Y-76273429D01*
X68456516Y-76273433D01*
X68684673Y-76334567D01*
X68684684Y-76334569D01*
X68919998Y-76355157D01*
X68920002Y-76355157D01*
X69155315Y-76334569D01*
X69155326Y-76334567D01*
X69383483Y-76273433D01*
X69383492Y-76273429D01*
X69597578Y-76173600D01*
X69597582Y-76173598D01*
X69681373Y-76114926D01*
X69681373Y-76114925D01*
X69049409Y-75482962D01*
X69112993Y-75465925D01*
X69227007Y-75400099D01*
X69320099Y-75307007D01*
X69385925Y-75192993D01*
X69402962Y-75129410D01*
X70034925Y-75761373D01*
X70088425Y-75684968D01*
X70143002Y-75641344D01*
X70212501Y-75634151D01*
X70274855Y-75665673D01*
X70291576Y-75684969D01*
X70345073Y-75761372D01*
X70977037Y-75129409D01*
X70994075Y-75192993D01*
X71059901Y-75307007D01*
X71152993Y-75400099D01*
X71267007Y-75465925D01*
X71330590Y-75482962D01*
X70698625Y-76114925D01*
X70782421Y-76173599D01*
X70996507Y-76273429D01*
X70996516Y-76273433D01*
X71224673Y-76334567D01*
X71224684Y-76334569D01*
X71459998Y-76355157D01*
X71460002Y-76355157D01*
X71695315Y-76334569D01*
X71695326Y-76334567D01*
X71923483Y-76273433D01*
X71923492Y-76273429D01*
X72137578Y-76173600D01*
X72137582Y-76173598D01*
X72221373Y-76114926D01*
X72221373Y-76114925D01*
X71589409Y-75482962D01*
X71652993Y-75465925D01*
X71767007Y-75400099D01*
X71860099Y-75307007D01*
X71925925Y-75192993D01*
X71942962Y-75129410D01*
X72579341Y-75765789D01*
X72631191Y-75776209D01*
X72681375Y-75824823D01*
X72691205Y-75846966D01*
X72715186Y-75919334D01*
X72807288Y-76068656D01*
X72931344Y-76192712D01*
X73080666Y-76284814D01*
X73247203Y-76339999D01*
X73349991Y-76350500D01*
X74650008Y-76350499D01*
X74752797Y-76339999D01*
X74919334Y-76284814D01*
X75068656Y-76192712D01*
X75192712Y-76068656D01*
X75284814Y-75919334D01*
X75339999Y-75752797D01*
X75350500Y-75650009D01*
X75350499Y-74349992D01*
X75339999Y-74247203D01*
X75284814Y-74080666D01*
X75192712Y-73931344D01*
X75068656Y-73807288D01*
X74975888Y-73750069D01*
X74919336Y-73715187D01*
X74919331Y-73715185D01*
X74919215Y-73715146D01*
X74910733Y-73712336D01*
X74853290Y-73672564D01*
X74826467Y-73608048D01*
X74838782Y-73539272D01*
X74867767Y-73502517D01*
X74867573Y-73502323D01*
X74869219Y-73500676D01*
X74870040Y-73499636D01*
X74871388Y-73498504D01*
X74871401Y-73498495D01*
X75038495Y-73331401D01*
X75174035Y-73137830D01*
X75273903Y-72923663D01*
X75335063Y-72695408D01*
X75355659Y-72460000D01*
X75335063Y-72224592D01*
X75273903Y-71996337D01*
X75174035Y-71782171D01*
X75168731Y-71774595D01*
X75038494Y-71588597D01*
X74871402Y-71421506D01*
X74871395Y-71421501D01*
X74677834Y-71285967D01*
X74677830Y-71285965D01*
X74677828Y-71285964D01*
X74463663Y-71186097D01*
X74463659Y-71186096D01*
X74463655Y-71186094D01*
X74235413Y-71124938D01*
X74235403Y-71124936D01*
X74000001Y-71104341D01*
X73999999Y-71104341D01*
X73764596Y-71124936D01*
X73764586Y-71124938D01*
X73536344Y-71186094D01*
X73536335Y-71186098D01*
X73322171Y-71285964D01*
X73322169Y-71285965D01*
X73128597Y-71421505D01*
X72961505Y-71588597D01*
X72831269Y-71774595D01*
X72776692Y-71818220D01*
X72707194Y-71825414D01*
X72644839Y-71793891D01*
X72628119Y-71774595D01*
X72574925Y-71698626D01*
X72574925Y-71698625D01*
X71942962Y-72330589D01*
X71925925Y-72267007D01*
X71860099Y-72152993D01*
X71767007Y-72059901D01*
X71652993Y-71994075D01*
X71589410Y-71977037D01*
X72221373Y-71345073D01*
X72221373Y-71345072D01*
X72137583Y-71286402D01*
X72137579Y-71286400D01*
X71923492Y-71186570D01*
X71923483Y-71186566D01*
X71695326Y-71125432D01*
X71695315Y-71125430D01*
X71460002Y-71104843D01*
X71459998Y-71104843D01*
X71224684Y-71125430D01*
X71224673Y-71125432D01*
X70996516Y-71186566D01*
X70996507Y-71186570D01*
X70782419Y-71286401D01*
X70698625Y-71345072D01*
X71330590Y-71977037D01*
X71267007Y-71994075D01*
X71152993Y-72059901D01*
X71059901Y-72152993D01*
X70994075Y-72267007D01*
X70977037Y-72330590D01*
X70345072Y-71698625D01*
X70345072Y-71698626D01*
X70291574Y-71775030D01*
X70236998Y-71818655D01*
X70167499Y-71825849D01*
X70105144Y-71794326D01*
X70088424Y-71775030D01*
X70034925Y-71698626D01*
X70034925Y-71698625D01*
X69402962Y-72330589D01*
X69385925Y-72267007D01*
X69320099Y-72152993D01*
X69227007Y-72059901D01*
X69112993Y-71994075D01*
X69049410Y-71977037D01*
X69681373Y-71345073D01*
X69681373Y-71345072D01*
X69597583Y-71286402D01*
X69597579Y-71286400D01*
X69383492Y-71186570D01*
X69383483Y-71186566D01*
X69155326Y-71125432D01*
X69155315Y-71125430D01*
X68920002Y-71104843D01*
X68919998Y-71104843D01*
X68684684Y-71125430D01*
X68684673Y-71125432D01*
X68456516Y-71186566D01*
X68456507Y-71186570D01*
X68242419Y-71286401D01*
X68158625Y-71345072D01*
X68790590Y-71977037D01*
X68727007Y-71994075D01*
X68612993Y-72059901D01*
X68519901Y-72152993D01*
X68454075Y-72267007D01*
X68437037Y-72330590D01*
X67805072Y-71698625D01*
X67805072Y-71698626D01*
X67751574Y-71775030D01*
X67696998Y-71818655D01*
X67627499Y-71825849D01*
X67565144Y-71794326D01*
X67548424Y-71775030D01*
X67494925Y-71698626D01*
X67494925Y-71698625D01*
X66862962Y-72330589D01*
X66845925Y-72267007D01*
X66780099Y-72152993D01*
X66687007Y-72059901D01*
X66572993Y-71994075D01*
X66509410Y-71977037D01*
X67141373Y-71345073D01*
X67141373Y-71345072D01*
X67057583Y-71286402D01*
X67057579Y-71286400D01*
X66843492Y-71186570D01*
X66843483Y-71186566D01*
X66615326Y-71125432D01*
X66615315Y-71125430D01*
X66380002Y-71104843D01*
X66379998Y-71104843D01*
X66144684Y-71125430D01*
X66144673Y-71125432D01*
X65916516Y-71186566D01*
X65916507Y-71186570D01*
X65702419Y-71286401D01*
X65618625Y-71345072D01*
X66250590Y-71977037D01*
X66187007Y-71994075D01*
X66072993Y-72059901D01*
X65979901Y-72152993D01*
X65914075Y-72267007D01*
X65897037Y-72330590D01*
X65265073Y-71698626D01*
X65211881Y-71774594D01*
X65157304Y-71818219D01*
X65087806Y-71825413D01*
X65025451Y-71793891D01*
X65008730Y-71774594D01*
X64878494Y-71588597D01*
X64711402Y-71421506D01*
X64711395Y-71421501D01*
X64517834Y-71285967D01*
X64517830Y-71285965D01*
X64517828Y-71285964D01*
X64303663Y-71186097D01*
X64303659Y-71186096D01*
X64303655Y-71186094D01*
X64075413Y-71124938D01*
X64075403Y-71124936D01*
X63840001Y-71104341D01*
X63839999Y-71104341D01*
X63604596Y-71124936D01*
X63604586Y-71124938D01*
X63376344Y-71186094D01*
X63376335Y-71186098D01*
X63162171Y-71285964D01*
X63162169Y-71285965D01*
X62968597Y-71421505D01*
X62801506Y-71588596D01*
X62683854Y-71756623D01*
X62629277Y-71800248D01*
X62582279Y-71809500D01*
X61030808Y-71809500D01*
X60963769Y-71789815D01*
X60943127Y-71773181D01*
X58586819Y-69416873D01*
X58553334Y-69355550D01*
X58550500Y-69329192D01*
X58550500Y-66552135D01*
X61099500Y-66552135D01*
X61099500Y-68447870D01*
X61099501Y-68447876D01*
X61105908Y-68507483D01*
X61156202Y-68642328D01*
X61156206Y-68642335D01*
X61242452Y-68757544D01*
X61242455Y-68757547D01*
X61357664Y-68843793D01*
X61357671Y-68843797D01*
X61492517Y-68894091D01*
X61492516Y-68894091D01*
X61499444Y-68894835D01*
X61552127Y-68900500D01*
X63447872Y-68900499D01*
X63507483Y-68894091D01*
X63642331Y-68843796D01*
X63757546Y-68757546D01*
X63843796Y-68642331D01*
X63862092Y-68593274D01*
X63903961Y-68537342D01*
X63969425Y-68512924D01*
X64037699Y-68527775D01*
X64054436Y-68538755D01*
X64231365Y-68676464D01*
X64231371Y-68676468D01*
X64231374Y-68676470D01*
X64435497Y-68786936D01*
X64549487Y-68826068D01*
X64655015Y-68862297D01*
X64655017Y-68862297D01*
X64655019Y-68862298D01*
X64883951Y-68900500D01*
X64883952Y-68900500D01*
X65116048Y-68900500D01*
X65116049Y-68900500D01*
X65344981Y-68862298D01*
X65564503Y-68786936D01*
X65768626Y-68676470D01*
X65951784Y-68533913D01*
X66108979Y-68363153D01*
X66146191Y-68306196D01*
X66199337Y-68260839D01*
X66268569Y-68251415D01*
X66331904Y-68280917D01*
X66353809Y-68306196D01*
X66391016Y-68363147D01*
X66391019Y-68363151D01*
X66391021Y-68363153D01*
X66548216Y-68533913D01*
X66548219Y-68533915D01*
X66548222Y-68533918D01*
X66731365Y-68676464D01*
X66731371Y-68676468D01*
X66731374Y-68676470D01*
X66935497Y-68786936D01*
X67049487Y-68826068D01*
X67155015Y-68862297D01*
X67155017Y-68862297D01*
X67155019Y-68862298D01*
X67383951Y-68900500D01*
X67383952Y-68900500D01*
X67616048Y-68900500D01*
X67616049Y-68900500D01*
X67844981Y-68862298D01*
X68064503Y-68786936D01*
X68268626Y-68676470D01*
X68451784Y-68533913D01*
X68608979Y-68363153D01*
X68735924Y-68168849D01*
X68829157Y-67956300D01*
X68886134Y-67731305D01*
X68905300Y-67500000D01*
X68905300Y-67499993D01*
X68886135Y-67268702D01*
X68886133Y-67268691D01*
X68829157Y-67043699D01*
X68735924Y-66831151D01*
X68608983Y-66636852D01*
X68608980Y-66636849D01*
X68608979Y-66636847D01*
X68451784Y-66466087D01*
X68451779Y-66466083D01*
X68451777Y-66466081D01*
X68268634Y-66323535D01*
X68268628Y-66323531D01*
X68064504Y-66213064D01*
X68064495Y-66213061D01*
X67844984Y-66137702D01*
X67654450Y-66105908D01*
X67616049Y-66099500D01*
X67383951Y-66099500D01*
X67345550Y-66105908D01*
X67155015Y-66137702D01*
X66935504Y-66213061D01*
X66935495Y-66213064D01*
X66731371Y-66323531D01*
X66731365Y-66323535D01*
X66548222Y-66466081D01*
X66548219Y-66466084D01*
X66548216Y-66466086D01*
X66548216Y-66466087D01*
X66400500Y-66626551D01*
X66391015Y-66636854D01*
X66353808Y-66693804D01*
X66300662Y-66739161D01*
X66231430Y-66748584D01*
X66168095Y-66719082D01*
X66146192Y-66693804D01*
X66108984Y-66636854D01*
X66108982Y-66636852D01*
X66108979Y-66636847D01*
X65951784Y-66466087D01*
X65951779Y-66466083D01*
X65951777Y-66466081D01*
X65768634Y-66323535D01*
X65768628Y-66323531D01*
X65564504Y-66213064D01*
X65564495Y-66213061D01*
X65344984Y-66137702D01*
X65154450Y-66105908D01*
X65116049Y-66099500D01*
X64883951Y-66099500D01*
X64845550Y-66105908D01*
X64655015Y-66137702D01*
X64435504Y-66213061D01*
X64435495Y-66213064D01*
X64231372Y-66323531D01*
X64054436Y-66461245D01*
X63989442Y-66486887D01*
X63920902Y-66473320D01*
X63870577Y-66424852D01*
X63862092Y-66406723D01*
X63843798Y-66357673D01*
X63843793Y-66357664D01*
X63757547Y-66242455D01*
X63757544Y-66242452D01*
X63642335Y-66156206D01*
X63642328Y-66156202D01*
X63507482Y-66105908D01*
X63507483Y-66105908D01*
X63447883Y-66099501D01*
X63447881Y-66099500D01*
X63447873Y-66099500D01*
X63447864Y-66099500D01*
X61552129Y-66099500D01*
X61552123Y-66099501D01*
X61492516Y-66105908D01*
X61357671Y-66156202D01*
X61357664Y-66156206D01*
X61242455Y-66242452D01*
X61242452Y-66242455D01*
X61156206Y-66357664D01*
X61156202Y-66357671D01*
X61105908Y-66492517D01*
X61099501Y-66552116D01*
X61099500Y-66552135D01*
X58550500Y-66552135D01*
X58550500Y-62099393D01*
X58570185Y-62032354D01*
X58622989Y-61986599D01*
X58692147Y-61976655D01*
X58747385Y-61999075D01*
X58907504Y-62115408D01*
X58907509Y-62115410D01*
X58907516Y-62115416D01*
X59183234Y-62266994D01*
X59183239Y-62266996D01*
X59183241Y-62266997D01*
X59183242Y-62266998D01*
X59475771Y-62382818D01*
X59475774Y-62382819D01*
X59780523Y-62461065D01*
X59780527Y-62461066D01*
X59846010Y-62469338D01*
X60092670Y-62500499D01*
X60092679Y-62500499D01*
X60092682Y-62500500D01*
X60092684Y-62500500D01*
X60407316Y-62500500D01*
X60407318Y-62500500D01*
X60407321Y-62500499D01*
X60407329Y-62500499D01*
X60593593Y-62476968D01*
X60719473Y-62461066D01*
X61024225Y-62382819D01*
X61024228Y-62382818D01*
X61316757Y-62266998D01*
X61316758Y-62266997D01*
X61316756Y-62266997D01*
X61316766Y-62266994D01*
X61592484Y-62115416D01*
X61847030Y-61930478D01*
X62076390Y-61715094D01*
X62276947Y-61472663D01*
X62445537Y-61207007D01*
X62579503Y-60922315D01*
X62676731Y-60623079D01*
X62735688Y-60314015D01*
X62735689Y-60314004D01*
X62755444Y-60000005D01*
X62755444Y-59999994D01*
X67244556Y-59999994D01*
X67244556Y-60000005D01*
X67264310Y-60314004D01*
X67264311Y-60314011D01*
X67323270Y-60623083D01*
X67420497Y-60922316D01*
X67420499Y-60922321D01*
X67554461Y-61207003D01*
X67554464Y-61207009D01*
X67723051Y-61472661D01*
X67723054Y-61472665D01*
X67923606Y-61715090D01*
X67923608Y-61715092D01*
X68152968Y-61930476D01*
X68152978Y-61930484D01*
X68407504Y-62115408D01*
X68407509Y-62115410D01*
X68407516Y-62115416D01*
X68683234Y-62266994D01*
X68683239Y-62266996D01*
X68683241Y-62266997D01*
X68683242Y-62266998D01*
X68975771Y-62382818D01*
X68975774Y-62382819D01*
X69280523Y-62461065D01*
X69280527Y-62461066D01*
X69346010Y-62469338D01*
X69592670Y-62500499D01*
X69592679Y-62500499D01*
X69592682Y-62500500D01*
X69592684Y-62500500D01*
X69907316Y-62500500D01*
X69907318Y-62500500D01*
X69907321Y-62500499D01*
X69907329Y-62500499D01*
X70093593Y-62476968D01*
X70219473Y-62461066D01*
X70524225Y-62382819D01*
X70524228Y-62382818D01*
X70816757Y-62266998D01*
X70816758Y-62266997D01*
X70816756Y-62266997D01*
X70816766Y-62266994D01*
X71092484Y-62115416D01*
X71347030Y-61930478D01*
X71576390Y-61715094D01*
X71776947Y-61472663D01*
X71945537Y-61207007D01*
X72079503Y-60922315D01*
X72176731Y-60623079D01*
X72235688Y-60314015D01*
X72235689Y-60314004D01*
X72255444Y-60000005D01*
X72255444Y-59999994D01*
X72235689Y-59685995D01*
X72235688Y-59685988D01*
X72235688Y-59685985D01*
X72176731Y-59376921D01*
X72079503Y-59077685D01*
X71945537Y-58792993D01*
X71776947Y-58527337D01*
X71776945Y-58527334D01*
X71576393Y-58284909D01*
X71576391Y-58284907D01*
X71435051Y-58152179D01*
X71347030Y-58069522D01*
X71347027Y-58069520D01*
X71347021Y-58069515D01*
X71092495Y-57884591D01*
X71092488Y-57884586D01*
X71092484Y-57884584D01*
X70816766Y-57733006D01*
X70816763Y-57733004D01*
X70816758Y-57733002D01*
X70816757Y-57733001D01*
X70524228Y-57617181D01*
X70524225Y-57617180D01*
X70219476Y-57538934D01*
X70219463Y-57538932D01*
X69907329Y-57499500D01*
X69907318Y-57499500D01*
X69592682Y-57499500D01*
X69592670Y-57499500D01*
X69280536Y-57538932D01*
X69280523Y-57538934D01*
X68975774Y-57617180D01*
X68975771Y-57617181D01*
X68683242Y-57733001D01*
X68683241Y-57733002D01*
X68407516Y-57884584D01*
X68407504Y-57884591D01*
X68152978Y-58069515D01*
X68152968Y-58069523D01*
X67923608Y-58284907D01*
X67923606Y-58284909D01*
X67723054Y-58527334D01*
X67723051Y-58527338D01*
X67554464Y-58792990D01*
X67554461Y-58792996D01*
X67420499Y-59077678D01*
X67420497Y-59077683D01*
X67323270Y-59376916D01*
X67264311Y-59685988D01*
X67264310Y-59685995D01*
X67244556Y-59999994D01*
X62755444Y-59999994D01*
X62735689Y-59685995D01*
X62735688Y-59685988D01*
X62735688Y-59685985D01*
X62676731Y-59376921D01*
X62579503Y-59077685D01*
X62445537Y-58792993D01*
X62276947Y-58527337D01*
X62276945Y-58527334D01*
X62076393Y-58284909D01*
X62076391Y-58284907D01*
X61935051Y-58152179D01*
X61847030Y-58069522D01*
X61847027Y-58069520D01*
X61847021Y-58069515D01*
X61592495Y-57884591D01*
X61592488Y-57884586D01*
X61592484Y-57884584D01*
X61316766Y-57733006D01*
X61316763Y-57733004D01*
X61316758Y-57733002D01*
X61316757Y-57733001D01*
X61024228Y-57617181D01*
X61024225Y-57617180D01*
X60719476Y-57538934D01*
X60719463Y-57538932D01*
X60407329Y-57499500D01*
X60407318Y-57499500D01*
X60092682Y-57499500D01*
X60092670Y-57499500D01*
X59780536Y-57538932D01*
X59780523Y-57538934D01*
X59475774Y-57617180D01*
X59475771Y-57617181D01*
X59183242Y-57733001D01*
X59183241Y-57733002D01*
X58907516Y-57884584D01*
X58907504Y-57884591D01*
X58747385Y-58000924D01*
X58681578Y-58024404D01*
X58613525Y-58008578D01*
X58564830Y-57958472D01*
X58550500Y-57900606D01*
X58550500Y-56776298D01*
X58570185Y-56709259D01*
X58601619Y-56675977D01*
X58605871Y-56672888D01*
X58732533Y-56532216D01*
X58827179Y-56368284D01*
X58885674Y-56188256D01*
X58905460Y-56000000D01*
X58885674Y-55811744D01*
X58827179Y-55631716D01*
X58732533Y-55467784D01*
X58605871Y-55327112D01*
X58605870Y-55327111D01*
X58452734Y-55215851D01*
X58452729Y-55215848D01*
X58279807Y-55138857D01*
X58279802Y-55138855D01*
X58122723Y-55105468D01*
X58094646Y-55099500D01*
X57905354Y-55099500D01*
X57879638Y-55104966D01*
X57720197Y-55138855D01*
X57720192Y-55138857D01*
X57547270Y-55215848D01*
X57547265Y-55215851D01*
X57394129Y-55327111D01*
X57267466Y-55467785D01*
X57172821Y-55631715D01*
X57172818Y-55631722D01*
X57114327Y-55811740D01*
X57114326Y-55811744D01*
X57094540Y-56000000D01*
X50250500Y-56000000D01*
X50250500Y-53799997D01*
X51295034Y-53799997D01*
X51295034Y-53800002D01*
X51314858Y-54026599D01*
X51314860Y-54026610D01*
X51373730Y-54246317D01*
X51373735Y-54246331D01*
X51469863Y-54452478D01*
X51520974Y-54525472D01*
X52200000Y-53846446D01*
X52200000Y-53852661D01*
X52227259Y-53954394D01*
X52279920Y-54045606D01*
X52354394Y-54120080D01*
X52445606Y-54172741D01*
X52547339Y-54200000D01*
X52553553Y-54200000D01*
X51874526Y-54879025D01*
X51947513Y-54930132D01*
X51947521Y-54930136D01*
X52153668Y-55026264D01*
X52153682Y-55026269D01*
X52373389Y-55085139D01*
X52373400Y-55085141D01*
X52599998Y-55104966D01*
X52600002Y-55104966D01*
X52826599Y-55085141D01*
X52826610Y-55085139D01*
X53046317Y-55026269D01*
X53046331Y-55026264D01*
X53252478Y-54930136D01*
X53325471Y-54879024D01*
X52646447Y-54200000D01*
X52652661Y-54200000D01*
X52754394Y-54172741D01*
X52845606Y-54120080D01*
X52920080Y-54045606D01*
X52972741Y-53954394D01*
X53000000Y-53852661D01*
X53000000Y-53846447D01*
X53684197Y-54530644D01*
X53733192Y-54540491D01*
X53783375Y-54589106D01*
X53798049Y-54644632D01*
X53799099Y-54644576D01*
X53799146Y-54644571D01*
X53799146Y-54644573D01*
X53799324Y-54644564D01*
X53799501Y-54647876D01*
X53805908Y-54707483D01*
X53856202Y-54842328D01*
X53856206Y-54842335D01*
X53942452Y-54957544D01*
X53942455Y-54957547D01*
X54057664Y-55043793D01*
X54057671Y-55043797D01*
X54192517Y-55094091D01*
X54192516Y-55094091D01*
X54199444Y-55094835D01*
X54252127Y-55100500D01*
X55947872Y-55100499D01*
X56007483Y-55094091D01*
X56142331Y-55043796D01*
X56257546Y-54957546D01*
X56343796Y-54842331D01*
X56394091Y-54707483D01*
X56400500Y-54647873D01*
X56400499Y-53099994D01*
X63494859Y-53099994D01*
X63494859Y-53100005D01*
X63515385Y-53347729D01*
X63515387Y-53347738D01*
X63576412Y-53588717D01*
X63676266Y-53816364D01*
X63776564Y-53969882D01*
X64517037Y-53229409D01*
X64534075Y-53292993D01*
X64599901Y-53407007D01*
X64692993Y-53500099D01*
X64807007Y-53565925D01*
X64870590Y-53582962D01*
X64129942Y-54323609D01*
X64176768Y-54360055D01*
X64176770Y-54360056D01*
X64395385Y-54478364D01*
X64395396Y-54478369D01*
X64630506Y-54559083D01*
X64875707Y-54600000D01*
X65124293Y-54600000D01*
X65369493Y-54559083D01*
X65604603Y-54478369D01*
X65604614Y-54478364D01*
X65823228Y-54360057D01*
X65823231Y-54360055D01*
X65870056Y-54323609D01*
X65129409Y-53582962D01*
X65192993Y-53565925D01*
X65307007Y-53500099D01*
X65400099Y-53407007D01*
X65465925Y-53292993D01*
X65482962Y-53229410D01*
X66223434Y-53969882D01*
X66323731Y-53816369D01*
X66330912Y-53799998D01*
X73576912Y-53799998D01*
X73576912Y-53800001D01*
X73596744Y-54026686D01*
X73596746Y-54026697D01*
X73655638Y-54246488D01*
X73655641Y-54246497D01*
X73751811Y-54452732D01*
X73751812Y-54452734D01*
X73882334Y-54639141D01*
X74043238Y-54800045D01*
X74043241Y-54800047D01*
X74229646Y-54930568D01*
X74435884Y-55026739D01*
X74655688Y-55085635D01*
X74814166Y-55099500D01*
X74882378Y-55105468D01*
X74882380Y-55105468D01*
X74882382Y-55105468D01*
X74950594Y-55099500D01*
X75109072Y-55085635D01*
X75328876Y-55026739D01*
X75535114Y-54930568D01*
X75721519Y-54800047D01*
X75879074Y-54642491D01*
X75940396Y-54609008D01*
X76010087Y-54613992D01*
X76066021Y-54655863D01*
X76087431Y-54701658D01*
X76088782Y-54707378D01*
X76139025Y-54842086D01*
X76139029Y-54842093D01*
X76225189Y-54957187D01*
X76225192Y-54957190D01*
X76340286Y-55043350D01*
X76340293Y-55043354D01*
X76475000Y-55093596D01*
X76475007Y-55093598D01*
X76534535Y-55099999D01*
X76534552Y-55100000D01*
X77132380Y-55100000D01*
X77132380Y-54115686D01*
X77136774Y-54120080D01*
X77227986Y-54172741D01*
X77329719Y-54200000D01*
X77435041Y-54200000D01*
X77536774Y-54172741D01*
X77627986Y-54120080D01*
X77632380Y-54115686D01*
X77632380Y-55100000D01*
X78230208Y-55100000D01*
X78230224Y-55099999D01*
X78289752Y-55093598D01*
X78289759Y-55093596D01*
X78424466Y-55043354D01*
X78424473Y-55043350D01*
X78539567Y-54957190D01*
X78539570Y-54957187D01*
X78625730Y-54842093D01*
X78625734Y-54842086D01*
X78675976Y-54707379D01*
X78675978Y-54707372D01*
X78682379Y-54647844D01*
X78682380Y-54647827D01*
X78682380Y-54050000D01*
X77698066Y-54050000D01*
X77702460Y-54045606D01*
X77755121Y-53954394D01*
X77782380Y-53852661D01*
X77782380Y-53747339D01*
X77755121Y-53645606D01*
X77702460Y-53554394D01*
X77698066Y-53550000D01*
X78682380Y-53550000D01*
X78682380Y-52952172D01*
X78682379Y-52952155D01*
X78675978Y-52892627D01*
X78675976Y-52892620D01*
X78625734Y-52757913D01*
X78625730Y-52757906D01*
X78539570Y-52642812D01*
X78539567Y-52642809D01*
X78424473Y-52556649D01*
X78424466Y-52556645D01*
X78289759Y-52506403D01*
X78289752Y-52506401D01*
X78230224Y-52500000D01*
X77632380Y-52500000D01*
X77632380Y-53484314D01*
X77627986Y-53479920D01*
X77536774Y-53427259D01*
X77435041Y-53400000D01*
X77329719Y-53400000D01*
X77227986Y-53427259D01*
X77136774Y-53479920D01*
X77132380Y-53484314D01*
X77132380Y-52500000D01*
X76534535Y-52500000D01*
X76475007Y-52506401D01*
X76475000Y-52506403D01*
X76340293Y-52556645D01*
X76340286Y-52556649D01*
X76225192Y-52642809D01*
X76225189Y-52642812D01*
X76139029Y-52757906D01*
X76139025Y-52757913D01*
X76088781Y-52892626D01*
X76087430Y-52898343D01*
X76052855Y-52959058D01*
X75990944Y-52991443D01*
X75921352Y-52985214D01*
X75879073Y-52957506D01*
X75721521Y-52799954D01*
X75535114Y-52669432D01*
X75535112Y-52669431D01*
X75328877Y-52573261D01*
X75328868Y-52573258D01*
X75109077Y-52514366D01*
X75109073Y-52514365D01*
X75109072Y-52514365D01*
X75109071Y-52514364D01*
X75109066Y-52514364D01*
X74882382Y-52494532D01*
X74882378Y-52494532D01*
X74655693Y-52514364D01*
X74655682Y-52514366D01*
X74435891Y-52573258D01*
X74435882Y-52573261D01*
X74229647Y-52669431D01*
X74229645Y-52669432D01*
X74043238Y-52799954D01*
X73882334Y-52960858D01*
X73751812Y-53147265D01*
X73751811Y-53147267D01*
X73655641Y-53353502D01*
X73655638Y-53353511D01*
X73596746Y-53573302D01*
X73596744Y-53573313D01*
X73576912Y-53799998D01*
X66330912Y-53799998D01*
X66423587Y-53588717D01*
X66484612Y-53347738D01*
X66484614Y-53347729D01*
X66505141Y-53100005D01*
X66505141Y-53099994D01*
X66484614Y-52852270D01*
X66484612Y-52852261D01*
X66423587Y-52611282D01*
X66323731Y-52383630D01*
X66223434Y-52230116D01*
X65482962Y-52970589D01*
X65465925Y-52907007D01*
X65400099Y-52792993D01*
X65307007Y-52699901D01*
X65192993Y-52634075D01*
X65129410Y-52617037D01*
X65870057Y-51876390D01*
X65870056Y-51876389D01*
X65823229Y-51839943D01*
X65604614Y-51721635D01*
X65604603Y-51721630D01*
X65369493Y-51640916D01*
X65124293Y-51600000D01*
X64875707Y-51600000D01*
X64630506Y-51640916D01*
X64395396Y-51721630D01*
X64395390Y-51721632D01*
X64176761Y-51839949D01*
X64129942Y-51876388D01*
X64129942Y-51876390D01*
X64870590Y-52617037D01*
X64807007Y-52634075D01*
X64692993Y-52699901D01*
X64599901Y-52792993D01*
X64534075Y-52907007D01*
X64517037Y-52970589D01*
X63776564Y-52230116D01*
X63676267Y-52383632D01*
X63576412Y-52611282D01*
X63515387Y-52852261D01*
X63515385Y-52852270D01*
X63494859Y-53099994D01*
X56400499Y-53099994D01*
X56400499Y-52952128D01*
X56394091Y-52892517D01*
X56379076Y-52852261D01*
X56343797Y-52757671D01*
X56343793Y-52757664D01*
X56257547Y-52642455D01*
X56257544Y-52642452D01*
X56142335Y-52556206D01*
X56142328Y-52556202D01*
X56007482Y-52505908D01*
X56007483Y-52505908D01*
X55947883Y-52499501D01*
X55947881Y-52499500D01*
X55947873Y-52499500D01*
X55947864Y-52499500D01*
X54252129Y-52499500D01*
X54252123Y-52499501D01*
X54192516Y-52505908D01*
X54057671Y-52556202D01*
X54057664Y-52556206D01*
X53942455Y-52642452D01*
X53942452Y-52642455D01*
X53856206Y-52757664D01*
X53856202Y-52757671D01*
X53805908Y-52892517D01*
X53799501Y-52952116D01*
X53799501Y-52952123D01*
X53799322Y-52955452D01*
X53797847Y-52955372D01*
X53779815Y-53016784D01*
X53727011Y-53062539D01*
X53683522Y-53070029D01*
X53000000Y-53753551D01*
X53000000Y-53747339D01*
X52972741Y-53645606D01*
X52920080Y-53554394D01*
X52845606Y-53479920D01*
X52754394Y-53427259D01*
X52652661Y-53400000D01*
X52646448Y-53400000D01*
X53325472Y-52720974D01*
X53252478Y-52669863D01*
X53046331Y-52573735D01*
X53046317Y-52573730D01*
X52826610Y-52514860D01*
X52826599Y-52514858D01*
X52600002Y-52495034D01*
X52599998Y-52495034D01*
X52373400Y-52514858D01*
X52373389Y-52514860D01*
X52153682Y-52573730D01*
X52153673Y-52573734D01*
X51947516Y-52669866D01*
X51947512Y-52669868D01*
X51874526Y-52720973D01*
X51874526Y-52720974D01*
X52553553Y-53400000D01*
X52547339Y-53400000D01*
X52445606Y-53427259D01*
X52354394Y-53479920D01*
X52279920Y-53554394D01*
X52227259Y-53645606D01*
X52200000Y-53747339D01*
X52200000Y-53753552D01*
X51520974Y-53074526D01*
X51520973Y-53074526D01*
X51469868Y-53147512D01*
X51469866Y-53147516D01*
X51373734Y-53353673D01*
X51373730Y-53353682D01*
X51314860Y-53573389D01*
X51314858Y-53573400D01*
X51295034Y-53799997D01*
X50250500Y-53799997D01*
X50250500Y-50374500D01*
X50270185Y-50307461D01*
X50322989Y-50261706D01*
X50374500Y-50250500D01*
X79625500Y-50250500D01*
X79692539Y-50270185D01*
G37*
G04 #@! TD.AperFunction*
G04 #@! TA.AperFunction,Conductor*
G36*
X51421950Y-96176452D02*
G01*
X51531087Y-96221658D01*
X51531091Y-96221658D01*
X51531092Y-96221659D01*
X51676079Y-96250500D01*
X51676082Y-96250500D01*
X51676083Y-96250500D01*
X51823917Y-96250500D01*
X55473090Y-96250500D01*
X55540129Y-96270185D01*
X55560772Y-96286819D01*
X55561468Y-96287515D01*
X55561471Y-96287519D01*
X55712481Y-96438529D01*
X55887419Y-96561021D01*
X55887421Y-96561022D01*
X55887420Y-96561022D01*
X55951936Y-96591106D01*
X56080970Y-96651276D01*
X56080983Y-96651279D01*
X56086064Y-96653130D01*
X56085292Y-96655250D01*
X56136710Y-96686594D01*
X56167237Y-96749442D01*
X56158939Y-96818817D01*
X56114452Y-96872693D01*
X56085685Y-96885830D01*
X56086064Y-96886870D01*
X56080972Y-96888723D01*
X56080970Y-96888724D01*
X56080968Y-96888725D01*
X55887421Y-96978977D01*
X55712478Y-97101472D01*
X55561472Y-97252478D01*
X55438977Y-97427421D01*
X55348725Y-97620968D01*
X55348721Y-97620977D01*
X55293452Y-97827247D01*
X55293450Y-97827258D01*
X55274838Y-98039998D01*
X55274838Y-98040001D01*
X55293450Y-98252741D01*
X55293452Y-98252752D01*
X55348721Y-98459022D01*
X55348723Y-98459026D01*
X55348724Y-98459030D01*
X55391171Y-98550058D01*
X55438977Y-98652578D01*
X55561472Y-98827521D01*
X55712478Y-98978527D01*
X55712481Y-98978529D01*
X55887419Y-99101021D01*
X55887421Y-99101022D01*
X55887420Y-99101022D01*
X55942438Y-99126677D01*
X56080970Y-99191276D01*
X56287253Y-99246549D01*
X56439215Y-99259844D01*
X56499998Y-99265162D01*
X56500000Y-99265162D01*
X56500002Y-99265162D01*
X56553186Y-99260508D01*
X56712747Y-99246549D01*
X56919030Y-99191276D01*
X57112581Y-99101021D01*
X57287519Y-98978529D01*
X57438529Y-98827519D01*
X57561021Y-98652581D01*
X57651276Y-98459030D01*
X57706549Y-98252747D01*
X57725162Y-98040000D01*
X57706549Y-97827253D01*
X57651276Y-97620970D01*
X57561021Y-97427419D01*
X57438529Y-97252481D01*
X57438527Y-97252478D01*
X57287521Y-97101472D01*
X57112578Y-96978977D01*
X57112579Y-96978977D01*
X56983547Y-96918809D01*
X56919030Y-96888724D01*
X56919023Y-96888722D01*
X56913936Y-96886870D01*
X56914709Y-96884746D01*
X56863305Y-96853424D01*
X56832766Y-96790581D01*
X56841050Y-96721204D01*
X56885528Y-96667320D01*
X56914315Y-96654172D01*
X56913936Y-96653130D01*
X56919013Y-96651280D01*
X56919030Y-96651276D01*
X57112581Y-96561021D01*
X57287519Y-96438529D01*
X57438529Y-96287519D01*
X57438531Y-96287515D01*
X57439228Y-96286819D01*
X57500552Y-96253334D01*
X57526910Y-96250500D01*
X60975501Y-96250500D01*
X61042540Y-96270185D01*
X61088295Y-96322989D01*
X61099501Y-96374500D01*
X61099501Y-96447876D01*
X61105908Y-96507483D01*
X61156202Y-96642328D01*
X61156206Y-96642335D01*
X61242452Y-96757544D01*
X61242455Y-96757547D01*
X61357664Y-96843793D01*
X61357671Y-96843797D01*
X61492517Y-96894091D01*
X61492516Y-96894091D01*
X61499444Y-96894835D01*
X61552127Y-96900500D01*
X62386236Y-96900499D01*
X62453275Y-96920183D01*
X62499030Y-96972987D01*
X62508974Y-97042146D01*
X62489339Y-97093389D01*
X62423534Y-97191874D01*
X62374499Y-97310255D01*
X62374497Y-97310261D01*
X62349500Y-97435928D01*
X62349500Y-113270615D01*
X62329815Y-113337654D01*
X62277011Y-113383409D01*
X62207853Y-113393353D01*
X62144297Y-113364328D01*
X62129957Y-113349656D01*
X62076393Y-113284909D01*
X62076391Y-113284907D01*
X61847031Y-113069523D01*
X61847021Y-113069515D01*
X61592495Y-112884591D01*
X61592488Y-112884586D01*
X61592484Y-112884584D01*
X61316766Y-112733006D01*
X61316763Y-112733004D01*
X61316758Y-112733002D01*
X61316757Y-112733001D01*
X61024228Y-112617181D01*
X61024225Y-112617180D01*
X60719476Y-112538934D01*
X60719463Y-112538932D01*
X60407329Y-112499500D01*
X60407318Y-112499500D01*
X60092682Y-112499500D01*
X60092670Y-112499500D01*
X59780536Y-112538932D01*
X59780523Y-112538934D01*
X59475774Y-112617180D01*
X59475771Y-112617181D01*
X59183242Y-112733001D01*
X59183241Y-112733002D01*
X58907516Y-112884584D01*
X58907504Y-112884591D01*
X58652978Y-113069515D01*
X58652968Y-113069523D01*
X58423608Y-113284907D01*
X58423606Y-113284909D01*
X58223054Y-113527334D01*
X58223051Y-113527338D01*
X58054464Y-113792990D01*
X58054461Y-113792996D01*
X57920499Y-114077678D01*
X57920497Y-114077683D01*
X57823270Y-114376916D01*
X57764311Y-114685988D01*
X57764310Y-114685995D01*
X57744556Y-114999994D01*
X57744556Y-115000005D01*
X57764310Y-115314004D01*
X57764311Y-115314011D01*
X57823270Y-115623083D01*
X57920497Y-115922316D01*
X57920499Y-115922321D01*
X58054461Y-116207003D01*
X58054464Y-116207009D01*
X58223051Y-116472661D01*
X58223054Y-116472665D01*
X58423606Y-116715090D01*
X58423608Y-116715092D01*
X58652968Y-116930476D01*
X58652978Y-116930484D01*
X58907504Y-117115408D01*
X58907509Y-117115410D01*
X58907516Y-117115416D01*
X59183234Y-117266994D01*
X59183239Y-117266996D01*
X59183241Y-117266997D01*
X59183242Y-117266998D01*
X59475771Y-117382818D01*
X59475774Y-117382819D01*
X59780523Y-117461065D01*
X59780527Y-117461066D01*
X59846010Y-117469338D01*
X60092670Y-117500499D01*
X60092679Y-117500499D01*
X60092682Y-117500500D01*
X60092684Y-117500500D01*
X60280191Y-117500500D01*
X60347230Y-117520185D01*
X60392985Y-117572989D01*
X60402929Y-117642147D01*
X60373904Y-117705703D01*
X60367872Y-117712181D01*
X59744727Y-118335325D01*
X59744726Y-118335326D01*
X59673534Y-118441874D01*
X59624499Y-118560255D01*
X59624497Y-118560261D01*
X59599500Y-118685928D01*
X59599500Y-127579078D01*
X59579815Y-127646117D01*
X59567650Y-127662050D01*
X59517466Y-127717785D01*
X59422821Y-127881715D01*
X59422818Y-127881722D01*
X59413626Y-127910014D01*
X59374188Y-127967690D01*
X59309830Y-127994888D01*
X59240983Y-127982973D01*
X59208014Y-127959377D01*
X57340024Y-126091387D01*
X57306539Y-126030064D01*
X57311523Y-125960372D01*
X57340024Y-125916025D01*
X57438527Y-125817521D01*
X57438529Y-125817519D01*
X57561021Y-125642581D01*
X57651276Y-125449030D01*
X57706549Y-125242747D01*
X57725162Y-125030000D01*
X57706549Y-124817253D01*
X57651276Y-124610970D01*
X57561021Y-124417419D01*
X57438529Y-124242481D01*
X57438527Y-124242478D01*
X57287521Y-124091472D01*
X57112578Y-123968977D01*
X57112579Y-123968977D01*
X56964656Y-123900000D01*
X56919030Y-123878724D01*
X56919023Y-123878722D01*
X56913936Y-123876870D01*
X56914709Y-123874746D01*
X56863305Y-123843424D01*
X56832766Y-123780581D01*
X56841050Y-123711204D01*
X56885528Y-123657320D01*
X56914315Y-123644172D01*
X56913936Y-123643130D01*
X56919013Y-123641280D01*
X56919030Y-123641276D01*
X57112581Y-123551021D01*
X57287519Y-123428529D01*
X57438529Y-123277519D01*
X57561021Y-123102581D01*
X57651276Y-122909030D01*
X57706549Y-122702747D01*
X57725162Y-122490000D01*
X57706549Y-122277253D01*
X57651276Y-122070970D01*
X57561021Y-121877419D01*
X57438529Y-121702481D01*
X57438527Y-121702478D01*
X57287521Y-121551472D01*
X57112578Y-121428977D01*
X57112579Y-121428977D01*
X56959666Y-121357673D01*
X56919030Y-121338724D01*
X56919023Y-121338722D01*
X56913936Y-121336870D01*
X56914709Y-121334746D01*
X56863305Y-121303424D01*
X56832766Y-121240581D01*
X56841050Y-121171204D01*
X56885528Y-121117320D01*
X56914315Y-121104172D01*
X56913936Y-121103130D01*
X56919013Y-121101280D01*
X56919030Y-121101276D01*
X57112581Y-121011021D01*
X57287519Y-120888529D01*
X57438529Y-120737519D01*
X57561021Y-120562581D01*
X57651276Y-120369030D01*
X57706549Y-120162747D01*
X57725162Y-119950000D01*
X57706549Y-119737253D01*
X57651276Y-119530970D01*
X57561021Y-119337419D01*
X57438529Y-119162481D01*
X57438527Y-119162478D01*
X57287521Y-119011472D01*
X57112578Y-118888977D01*
X57112579Y-118888977D01*
X56983547Y-118828809D01*
X56919030Y-118798724D01*
X56919026Y-118798723D01*
X56919022Y-118798721D01*
X56712752Y-118743452D01*
X56712748Y-118743451D01*
X56712747Y-118743451D01*
X56712746Y-118743450D01*
X56712741Y-118743450D01*
X56500002Y-118724838D01*
X56499998Y-118724838D01*
X56287258Y-118743450D01*
X56287247Y-118743452D01*
X56080977Y-118798721D01*
X56080968Y-118798725D01*
X55887421Y-118888977D01*
X55712482Y-119011469D01*
X55653144Y-119070808D01*
X55561471Y-119162481D01*
X55561468Y-119162484D01*
X55560772Y-119163181D01*
X55499448Y-119196666D01*
X55473090Y-119199500D01*
X52562230Y-119199500D01*
X52495191Y-119179815D01*
X52474549Y-119163181D01*
X51286819Y-117975451D01*
X51253334Y-117914128D01*
X51250500Y-117887770D01*
X51250500Y-111788227D01*
X51270185Y-111721188D01*
X51322989Y-111675433D01*
X51392147Y-111665489D01*
X51455703Y-111694514D01*
X51478309Y-111720406D01*
X51611833Y-111924782D01*
X51611836Y-111924785D01*
X51780256Y-112107738D01*
X51976491Y-112260474D01*
X52195190Y-112378828D01*
X52430386Y-112459571D01*
X52675665Y-112500500D01*
X52924335Y-112500500D01*
X53169614Y-112459571D01*
X53404810Y-112378828D01*
X53623509Y-112260474D01*
X53819744Y-112107738D01*
X53988164Y-111924785D01*
X54124173Y-111716607D01*
X54224063Y-111488881D01*
X54285108Y-111247821D01*
X54305643Y-111000000D01*
X54299410Y-110924782D01*
X54285109Y-110752187D01*
X54285107Y-110752175D01*
X54224063Y-110511118D01*
X54124173Y-110283393D01*
X53988166Y-110075217D01*
X53918928Y-110000005D01*
X53819744Y-109892262D01*
X53623509Y-109739526D01*
X53623507Y-109739525D01*
X53623506Y-109739524D01*
X53404811Y-109621172D01*
X53404802Y-109621169D01*
X53169616Y-109540429D01*
X52924335Y-109499500D01*
X52675665Y-109499500D01*
X52430383Y-109540429D01*
X52195197Y-109621169D01*
X52195188Y-109621172D01*
X51976493Y-109739524D01*
X51780257Y-109892261D01*
X51611833Y-110075217D01*
X51478309Y-110279593D01*
X51425162Y-110324950D01*
X51355931Y-110334374D01*
X51292595Y-110304872D01*
X51255264Y-110245812D01*
X51250500Y-110211772D01*
X51250500Y-102861229D01*
X51270185Y-102794190D01*
X51322989Y-102748435D01*
X51392147Y-102738491D01*
X51455703Y-102767516D01*
X51462181Y-102773548D01*
X52167049Y-103478416D01*
X52271584Y-103582951D01*
X52271587Y-103582953D01*
X52271588Y-103582954D01*
X52394503Y-103665083D01*
X52444474Y-103685782D01*
X52498877Y-103729623D01*
X52520942Y-103795917D01*
X52503663Y-103863616D01*
X52483601Y-103888370D01*
X52483730Y-103888489D01*
X52481854Y-103890526D01*
X52481016Y-103891561D01*
X52480267Y-103892249D01*
X52311833Y-104075217D01*
X52175826Y-104283393D01*
X52075936Y-104511118D01*
X52014892Y-104752175D01*
X52014890Y-104752187D01*
X51994357Y-104999994D01*
X51994357Y-105000005D01*
X52014890Y-105247812D01*
X52014892Y-105247824D01*
X52075936Y-105488881D01*
X52175826Y-105716606D01*
X52311833Y-105924782D01*
X52311836Y-105924785D01*
X52480256Y-106107738D01*
X52676491Y-106260474D01*
X52895190Y-106378828D01*
X53130386Y-106459571D01*
X53375665Y-106500500D01*
X53624335Y-106500500D01*
X53869614Y-106459571D01*
X54104810Y-106378828D01*
X54323509Y-106260474D01*
X54519744Y-106107738D01*
X54688164Y-105924785D01*
X54824173Y-105716607D01*
X54924063Y-105488881D01*
X54985108Y-105247821D01*
X54995842Y-105118284D01*
X55005643Y-105000005D01*
X55005643Y-104999994D01*
X54985109Y-104752187D01*
X54985107Y-104752175D01*
X54924063Y-104511118D01*
X54824173Y-104283393D01*
X54688166Y-104075217D01*
X54645993Y-104029405D01*
X54580703Y-103958481D01*
X54549782Y-103895829D01*
X54557642Y-103826402D01*
X54601789Y-103772247D01*
X54668207Y-103750556D01*
X54671934Y-103750500D01*
X58387770Y-103750500D01*
X58454809Y-103770185D01*
X58475451Y-103786819D01*
X59712851Y-105024218D01*
X59746336Y-105085541D01*
X59748573Y-105099745D01*
X59763975Y-105256129D01*
X59821188Y-105444733D01*
X59914086Y-105618532D01*
X59914090Y-105618539D01*
X60039116Y-105770883D01*
X60191460Y-105895909D01*
X60191467Y-105895913D01*
X60365266Y-105988811D01*
X60365269Y-105988811D01*
X60365273Y-105988814D01*
X60553868Y-106046024D01*
X60750000Y-106065341D01*
X60946132Y-106046024D01*
X61134727Y-105988814D01*
X61308538Y-105895910D01*
X61460883Y-105770883D01*
X61585910Y-105618538D01*
X61678814Y-105444727D01*
X61736024Y-105256132D01*
X61755341Y-105060000D01*
X61736024Y-104863868D01*
X61678814Y-104675273D01*
X61678811Y-104675269D01*
X61678811Y-104675266D01*
X61585913Y-104501467D01*
X61585909Y-104501460D01*
X61460883Y-104349116D01*
X61308539Y-104224090D01*
X61308532Y-104224086D01*
X61134733Y-104131188D01*
X61134727Y-104131186D01*
X60946132Y-104073976D01*
X60946129Y-104073975D01*
X60946128Y-104073975D01*
X60922855Y-104071683D01*
X60858068Y-104045521D01*
X60847329Y-104035961D01*
X59228421Y-102417052D01*
X59228414Y-102417046D01*
X59154729Y-102367812D01*
X59154729Y-102367813D01*
X59105491Y-102334913D01*
X58968917Y-102278343D01*
X58968907Y-102278340D01*
X58823920Y-102249500D01*
X58823918Y-102249500D01*
X53112229Y-102249500D01*
X53045190Y-102229815D01*
X53024548Y-102213181D01*
X51286819Y-100475451D01*
X51253334Y-100414128D01*
X51250500Y-100387770D01*
X51250500Y-96291014D01*
X51270185Y-96223975D01*
X51322989Y-96178220D01*
X51392147Y-96168276D01*
X51421950Y-96176452D01*
G37*
G04 #@! TD.AperFunction*
M02*
