G04 #@! TF.GenerationSoftware,KiCad,Pcbnew,8.0.5*
G04 #@! TF.CreationDate,2024-11-24T11:29:42+01:00*
G04 #@! TF.ProjectId,wavefolder,77617665-666f-46c6-9465-722e6b696361,rev?*
G04 #@! TF.SameCoordinates,Original*
G04 #@! TF.FileFunction,Legend,Top*
G04 #@! TF.FilePolarity,Positive*
%FSLAX46Y46*%
G04 Gerber Fmt 4.6, Leading zero omitted, Abs format (unit mm)*
G04 Created by KiCad (PCBNEW 8.0.5) date 2024-11-24 11:29:42*
%MOMM*%
%LPD*%
G01*
G04 APERTURE LIST*
G04 Aperture macros list*
%AMRoundRect*
0 Rectangle with rounded corners*
0 $1 Rounding radius*
0 $2 $3 $4 $5 $6 $7 $8 $9 X,Y pos of 4 corners*
0 Add a 4 corners polygon primitive as box body*
4,1,4,$2,$3,$4,$5,$6,$7,$8,$9,$2,$3,0*
0 Add four circle primitives for the rounded corners*
1,1,$1+$1,$2,$3*
1,1,$1+$1,$4,$5*
1,1,$1+$1,$6,$7*
1,1,$1+$1,$8,$9*
0 Add four rect primitives between the rounded corners*
20,1,$1+$1,$2,$3,$4,$5,0*
20,1,$1+$1,$4,$5,$6,$7,0*
20,1,$1+$1,$6,$7,$8,$9,0*
20,1,$1+$1,$8,$9,$2,$3,0*%
G04 Aperture macros list end*
%ADD10C,0.150000*%
%ADD11C,0.120000*%
%ADD12C,0.000000*%
%ADD13R,1.930000X1.830000*%
%ADD14C,2.130000*%
%ADD15R,1.830000X1.930000*%
%ADD16O,4.000000X4.000000*%
%ADD17R,1.800000X1.800000*%
%ADD18C,1.800000*%
%ADD19C,1.440000*%
%ADD20RoundRect,0.250000X0.600000X-0.600000X0.600000X0.600000X-0.600000X0.600000X-0.600000X-0.600000X0*%
%ADD21C,1.700000*%
%ADD22C,2.000000*%
%ADD23R,1.600000X1.600000*%
%ADD24C,1.600000*%
G04 APERTURE END LIST*
D10*
G36*
X77165240Y-120416015D02*
G01*
X77098318Y-120416015D01*
X77098318Y-120289741D01*
X77410949Y-120289741D01*
X77410949Y-120416015D01*
X77338164Y-120416015D01*
X77296413Y-120448226D01*
X77263300Y-120484594D01*
X77235586Y-120532275D01*
X77219629Y-120585613D01*
X77215310Y-120635833D01*
X77218625Y-120685221D01*
X77231357Y-120734222D01*
X77249260Y-120766503D01*
X77287460Y-120798936D01*
X77335024Y-120811291D01*
X77346713Y-120811688D01*
X77397800Y-120802243D01*
X77438214Y-120771346D01*
X77440258Y-120768702D01*
X77464682Y-120726277D01*
X77482893Y-120678668D01*
X77494724Y-120637299D01*
X77526720Y-120515666D01*
X77541130Y-120467492D01*
X77559918Y-120418762D01*
X77584010Y-120372005D01*
X77608053Y-120337613D01*
X77643394Y-120299931D01*
X77683660Y-120270542D01*
X77715031Y-120256524D01*
X77763049Y-120244190D01*
X77815420Y-120238143D01*
X77841060Y-120237473D01*
X77891598Y-120240565D01*
X77945416Y-120251985D01*
X77993693Y-120271820D01*
X78036430Y-120300070D01*
X78063565Y-120325401D01*
X78095542Y-120366732D01*
X78119665Y-120413791D01*
X78135934Y-120466576D01*
X78143627Y-120516379D01*
X78145631Y-120561095D01*
X78142042Y-120612967D01*
X78131274Y-120663070D01*
X78113328Y-120711405D01*
X78088203Y-120757970D01*
X78055900Y-120802767D01*
X78043538Y-120817306D01*
X78130000Y-120817306D01*
X78130000Y-120946510D01*
X77754842Y-120946510D01*
X77754842Y-120817306D01*
X77844968Y-120817306D01*
X77893378Y-120786931D01*
X77933582Y-120753812D01*
X77970997Y-120710450D01*
X77996597Y-120663137D01*
X78010382Y-120611875D01*
X78013007Y-120575505D01*
X78008666Y-120524825D01*
X77993863Y-120477892D01*
X77968555Y-120440195D01*
X77926431Y-120409042D01*
X77876886Y-120394381D01*
X77843258Y-120392079D01*
X77792166Y-120401864D01*
X77749530Y-120431219D01*
X77719161Y-120472958D01*
X77698284Y-120520660D01*
X77689630Y-120548639D01*
X77653482Y-120677843D01*
X77637656Y-120727583D01*
X77616698Y-120779144D01*
X77593051Y-120823740D01*
X77562734Y-120866177D01*
X77546259Y-120883984D01*
X77504803Y-120916098D01*
X77456546Y-120937702D01*
X77407941Y-120948083D01*
X77367962Y-120950418D01*
X77319184Y-120947585D01*
X77267703Y-120937116D01*
X77222065Y-120918934D01*
X77177063Y-120888709D01*
X77157424Y-120869818D01*
X77124726Y-120825564D01*
X77103779Y-120780556D01*
X77089985Y-120729681D01*
X77083343Y-120672939D01*
X77082686Y-120646824D01*
X77086637Y-120593538D01*
X77098488Y-120541818D01*
X77118239Y-120491664D01*
X77145892Y-120443076D01*
X77165240Y-120416015D01*
G37*
G36*
X77227522Y-119355268D02*
G01*
X77227522Y-119503035D01*
X77098318Y-119503035D01*
X77098318Y-119078297D01*
X77227522Y-119078297D01*
X77227522Y-119230216D01*
X78145631Y-119230216D01*
X78145631Y-119390928D01*
X77260006Y-119887718D01*
X78000795Y-119887718D01*
X78000795Y-119739218D01*
X78130000Y-119739218D01*
X78130000Y-120162979D01*
X78000795Y-120162979D01*
X78000795Y-120015457D01*
X77227522Y-120015457D01*
X77227522Y-120162979D01*
X77098318Y-120162979D01*
X77098318Y-119810048D01*
X77903586Y-119355268D01*
X77227522Y-119355268D01*
G37*
G36*
X78003482Y-118037334D02*
G01*
X78130000Y-118037334D01*
X78130000Y-118455722D01*
X78003482Y-118455722D01*
X78003482Y-118313572D01*
X77221905Y-118313572D01*
X77221905Y-118455722D01*
X77098318Y-118455722D01*
X77098318Y-118171179D01*
X78003482Y-118171179D01*
X78003482Y-118037334D01*
G37*
G36*
X77666461Y-117083412D02*
G01*
X77715413Y-117086614D01*
X77771024Y-117093274D01*
X77823216Y-117103009D01*
X77871991Y-117115817D01*
X77902609Y-117126064D01*
X77952104Y-117146837D01*
X77996082Y-117171117D01*
X78039588Y-117203159D01*
X78075888Y-117239780D01*
X78083838Y-117249651D01*
X78110872Y-117291569D01*
X78130183Y-117337212D01*
X78141769Y-117386579D01*
X78145631Y-117439672D01*
X78142131Y-117492177D01*
X78131630Y-117540698D01*
X78109788Y-117593667D01*
X78077866Y-117640899D01*
X78043564Y-117675878D01*
X78002260Y-117706873D01*
X77955006Y-117733611D01*
X77902851Y-117755817D01*
X77845794Y-117773491D01*
X77796619Y-117784368D01*
X77744307Y-117792344D01*
X77688858Y-117797420D01*
X77630272Y-117799595D01*
X77615136Y-117799685D01*
X77563663Y-117798624D01*
X77514576Y-117795440D01*
X77458820Y-117788817D01*
X77406499Y-117779137D01*
X77357612Y-117766400D01*
X77326929Y-117756210D01*
X77277233Y-117735283D01*
X77233076Y-117710756D01*
X77189395Y-117678318D01*
X77152949Y-117641178D01*
X77144968Y-117631158D01*
X77117720Y-117588599D01*
X77098257Y-117542498D01*
X77086579Y-117492855D01*
X77082775Y-117440893D01*
X77203586Y-117440893D01*
X77210044Y-117490917D01*
X77232745Y-117538618D01*
X77271790Y-117577238D01*
X77306901Y-117597941D01*
X77356880Y-117617355D01*
X77407495Y-117630201D01*
X77465289Y-117639543D01*
X77518934Y-117644652D01*
X77577565Y-117647329D01*
X77615136Y-117647766D01*
X77667136Y-117646950D01*
X77726921Y-117643632D01*
X77780910Y-117637762D01*
X77829102Y-117629340D01*
X77879283Y-117615865D01*
X77927278Y-117595498D01*
X77969593Y-117566159D01*
X78002746Y-117525488D01*
X78020598Y-117476703D01*
X78023998Y-117439672D01*
X78016463Y-117386284D01*
X77993859Y-117340702D01*
X77956185Y-117302925D01*
X77928743Y-117285310D01*
X77880838Y-117264849D01*
X77830028Y-117251310D01*
X77780812Y-117242849D01*
X77725347Y-117236952D01*
X77676476Y-117234080D01*
X77623605Y-117232849D01*
X77609762Y-117232798D01*
X77556399Y-117233645D01*
X77507073Y-117236187D01*
X77451094Y-117241747D01*
X77401424Y-117249954D01*
X77350147Y-117263298D01*
X77301807Y-117283684D01*
X77295910Y-117287020D01*
X77255519Y-117316970D01*
X77223872Y-117357452D01*
X77206832Y-117405121D01*
X77203586Y-117440893D01*
X77082775Y-117440893D01*
X77082686Y-117439672D01*
X77086169Y-117387940D01*
X77096616Y-117340061D01*
X77118346Y-117287691D01*
X77150105Y-117240868D01*
X77191893Y-117199592D01*
X77225324Y-117175157D01*
X77272450Y-117148419D01*
X77324681Y-117126213D01*
X77382016Y-117108538D01*
X77431559Y-117097662D01*
X77484369Y-117089686D01*
X77540446Y-117084610D01*
X77599789Y-117082435D01*
X77615136Y-117082344D01*
X77666461Y-117083412D01*
G37*
G36*
X77666461Y-116261779D02*
G01*
X77715413Y-116264981D01*
X77771024Y-116271641D01*
X77823216Y-116281376D01*
X77871991Y-116294184D01*
X77902609Y-116304431D01*
X77952104Y-116325204D01*
X77996082Y-116349484D01*
X78039588Y-116381526D01*
X78075888Y-116418147D01*
X78083838Y-116428018D01*
X78110872Y-116469936D01*
X78130183Y-116515579D01*
X78141769Y-116564946D01*
X78145631Y-116618039D01*
X78142131Y-116670544D01*
X78131630Y-116719065D01*
X78109788Y-116772034D01*
X78077866Y-116819266D01*
X78043564Y-116854245D01*
X78002260Y-116885240D01*
X77955006Y-116911978D01*
X77902851Y-116934184D01*
X77845794Y-116951858D01*
X77796619Y-116962735D01*
X77744307Y-116970711D01*
X77688858Y-116975787D01*
X77630272Y-116977962D01*
X77615136Y-116978053D01*
X77563663Y-116976991D01*
X77514576Y-116973807D01*
X77458820Y-116967184D01*
X77406499Y-116957504D01*
X77357612Y-116944767D01*
X77326929Y-116934577D01*
X77277233Y-116913650D01*
X77233076Y-116889123D01*
X77189395Y-116856685D01*
X77152949Y-116819545D01*
X77144968Y-116809525D01*
X77117720Y-116766966D01*
X77098257Y-116720865D01*
X77086579Y-116671222D01*
X77082775Y-116619260D01*
X77203586Y-116619260D01*
X77210044Y-116669284D01*
X77232745Y-116716985D01*
X77271790Y-116755606D01*
X77306901Y-116776308D01*
X77356880Y-116795722D01*
X77407495Y-116808568D01*
X77465289Y-116817910D01*
X77518934Y-116823019D01*
X77577565Y-116825696D01*
X77615136Y-116826133D01*
X77667136Y-116825317D01*
X77726921Y-116821999D01*
X77780910Y-116816129D01*
X77829102Y-116807707D01*
X77879283Y-116794232D01*
X77927278Y-116773866D01*
X77969593Y-116744526D01*
X78002746Y-116703855D01*
X78020598Y-116655070D01*
X78023998Y-116618039D01*
X78016463Y-116564651D01*
X77993859Y-116519069D01*
X77956185Y-116481292D01*
X77928743Y-116463677D01*
X77880838Y-116443216D01*
X77830028Y-116429677D01*
X77780812Y-116421216D01*
X77725347Y-116415319D01*
X77676476Y-116412447D01*
X77623605Y-116411216D01*
X77609762Y-116411165D01*
X77556399Y-116412012D01*
X77507073Y-116414554D01*
X77451094Y-116420114D01*
X77401424Y-116428321D01*
X77350147Y-116441665D01*
X77301807Y-116462051D01*
X77295910Y-116465387D01*
X77255519Y-116495337D01*
X77223872Y-116535819D01*
X77206832Y-116583488D01*
X77203586Y-116619260D01*
X77082775Y-116619260D01*
X77082686Y-116618039D01*
X77086169Y-116566308D01*
X77096616Y-116518429D01*
X77118346Y-116466058D01*
X77150105Y-116419235D01*
X77191893Y-116377959D01*
X77225324Y-116353524D01*
X77272450Y-116326786D01*
X77324681Y-116304580D01*
X77382016Y-116286905D01*
X77431559Y-116276029D01*
X77484369Y-116268053D01*
X77540446Y-116262977D01*
X77599789Y-116260802D01*
X77615136Y-116260711D01*
X77666461Y-116261779D01*
G37*
G36*
X77666461Y-115440146D02*
G01*
X77715413Y-115443348D01*
X77771024Y-115450008D01*
X77823216Y-115459743D01*
X77871991Y-115472551D01*
X77902609Y-115482798D01*
X77952104Y-115503571D01*
X77996082Y-115527851D01*
X78039588Y-115559893D01*
X78075888Y-115596514D01*
X78083838Y-115606385D01*
X78110872Y-115648303D01*
X78130183Y-115693946D01*
X78141769Y-115743313D01*
X78145631Y-115796406D01*
X78142131Y-115848911D01*
X78131630Y-115897432D01*
X78109788Y-115950401D01*
X78077866Y-115997633D01*
X78043564Y-116032612D01*
X78002260Y-116063607D01*
X77955006Y-116090345D01*
X77902851Y-116112551D01*
X77845794Y-116130226D01*
X77796619Y-116141102D01*
X77744307Y-116149078D01*
X77688858Y-116154154D01*
X77630272Y-116156329D01*
X77615136Y-116156420D01*
X77563663Y-116155358D01*
X77514576Y-116152174D01*
X77458820Y-116145551D01*
X77406499Y-116135871D01*
X77357612Y-116123134D01*
X77326929Y-116112944D01*
X77277233Y-116092017D01*
X77233076Y-116067490D01*
X77189395Y-116035052D01*
X77152949Y-115997912D01*
X77144968Y-115987892D01*
X77117720Y-115945333D01*
X77098257Y-115899232D01*
X77086579Y-115849590D01*
X77082775Y-115797627D01*
X77203586Y-115797627D01*
X77210044Y-115847651D01*
X77232745Y-115895352D01*
X77271790Y-115933973D01*
X77306901Y-115954675D01*
X77356880Y-115974089D01*
X77407495Y-115986935D01*
X77465289Y-115996277D01*
X77518934Y-116001386D01*
X77577565Y-116004063D01*
X77615136Y-116004501D01*
X77667136Y-116003684D01*
X77726921Y-116000366D01*
X77780910Y-115994496D01*
X77829102Y-115986074D01*
X77879283Y-115972599D01*
X77927278Y-115952233D01*
X77969593Y-115922893D01*
X78002746Y-115882222D01*
X78020598Y-115833437D01*
X78023998Y-115796406D01*
X78016463Y-115743018D01*
X77993859Y-115697436D01*
X77956185Y-115659659D01*
X77928743Y-115642044D01*
X77880838Y-115621583D01*
X77830028Y-115608045D01*
X77780812Y-115599583D01*
X77725347Y-115593686D01*
X77676476Y-115590814D01*
X77623605Y-115589583D01*
X77609762Y-115589532D01*
X77556399Y-115590379D01*
X77507073Y-115592921D01*
X77451094Y-115598481D01*
X77401424Y-115606688D01*
X77350147Y-115620032D01*
X77301807Y-115640418D01*
X77295910Y-115643754D01*
X77255519Y-115673704D01*
X77223872Y-115714186D01*
X77206832Y-115761855D01*
X77203586Y-115797627D01*
X77082775Y-115797627D01*
X77082686Y-115796406D01*
X77086169Y-115744675D01*
X77096616Y-115696796D01*
X77118346Y-115644426D01*
X77150105Y-115597602D01*
X77191893Y-115556326D01*
X77225324Y-115531891D01*
X77272450Y-115505153D01*
X77324681Y-115482947D01*
X77382016Y-115465272D01*
X77431559Y-115454396D01*
X77484369Y-115446420D01*
X77540446Y-115441344D01*
X77599789Y-115439169D01*
X77615136Y-115439078D01*
X77666461Y-115440146D01*
G37*
G36*
X77551632Y-114472609D02*
G01*
X77669846Y-114472609D01*
X77669846Y-114821632D01*
X78020579Y-114821632D01*
X78020579Y-114938381D01*
X77669846Y-114938381D01*
X77669846Y-115287404D01*
X77551632Y-115287404D01*
X77551632Y-114938381D01*
X77207739Y-114938381D01*
X77207739Y-114821632D01*
X77551632Y-114821632D01*
X77551632Y-114472609D01*
G37*
G36*
X77666461Y-113606370D02*
G01*
X77715413Y-113609573D01*
X77771024Y-113616233D01*
X77823216Y-113625967D01*
X77871991Y-113638776D01*
X77902609Y-113649023D01*
X77952104Y-113669796D01*
X77996082Y-113694076D01*
X78039588Y-113726117D01*
X78075888Y-113762739D01*
X78083838Y-113772609D01*
X78110872Y-113814528D01*
X78130183Y-113860170D01*
X78141769Y-113909538D01*
X78145631Y-113962630D01*
X78142131Y-114015135D01*
X78131630Y-114063657D01*
X78109788Y-114116625D01*
X78077866Y-114163858D01*
X78043564Y-114198837D01*
X78002260Y-114229832D01*
X77955006Y-114256570D01*
X77902851Y-114278776D01*
X77845794Y-114296450D01*
X77796619Y-114307327D01*
X77744307Y-114315303D01*
X77688858Y-114320378D01*
X77630272Y-114322554D01*
X77615136Y-114322644D01*
X77563663Y-114321583D01*
X77514576Y-114318399D01*
X77458820Y-114311775D01*
X77406499Y-114302095D01*
X77357612Y-114289359D01*
X77326929Y-114279169D01*
X77277233Y-114258242D01*
X77233076Y-114233715D01*
X77189395Y-114201277D01*
X77152949Y-114164136D01*
X77144968Y-114154117D01*
X77117720Y-114111557D01*
X77098257Y-114065457D01*
X77086579Y-114015814D01*
X77082775Y-113963852D01*
X77203586Y-113963852D01*
X77210044Y-114013876D01*
X77232745Y-114061577D01*
X77271790Y-114100197D01*
X77306901Y-114120900D01*
X77356880Y-114140314D01*
X77407495Y-114153160D01*
X77465289Y-114162502D01*
X77518934Y-114167611D01*
X77577565Y-114170287D01*
X77615136Y-114170725D01*
X77667136Y-114169909D01*
X77726921Y-114166591D01*
X77780910Y-114160721D01*
X77829102Y-114152299D01*
X77879283Y-114138823D01*
X77927278Y-114118457D01*
X77969593Y-114089118D01*
X78002746Y-114048447D01*
X78020598Y-113999662D01*
X78023998Y-113962630D01*
X78016463Y-113909243D01*
X77993859Y-113863660D01*
X77956185Y-113825883D01*
X77928743Y-113808269D01*
X77880838Y-113787808D01*
X77830028Y-113774269D01*
X77780812Y-113765808D01*
X77725347Y-113759910D01*
X77676476Y-113757039D01*
X77623605Y-113755808D01*
X77609762Y-113755757D01*
X77556399Y-113756604D01*
X77507073Y-113759146D01*
X77451094Y-113764705D01*
X77401424Y-113772913D01*
X77350147Y-113786256D01*
X77301807Y-113806643D01*
X77295910Y-113809979D01*
X77255519Y-113839929D01*
X77223872Y-113880411D01*
X77206832Y-113928080D01*
X77203586Y-113963852D01*
X77082775Y-113963852D01*
X77082686Y-113962630D01*
X77086169Y-113910899D01*
X77096616Y-113863020D01*
X77118346Y-113810650D01*
X77150105Y-113763827D01*
X77191893Y-113722551D01*
X77225324Y-113698115D01*
X77272450Y-113671377D01*
X77324681Y-113649171D01*
X77382016Y-113631497D01*
X77431559Y-113620621D01*
X77484369Y-113612645D01*
X77540446Y-113607569D01*
X77599789Y-113605394D01*
X77615136Y-113605303D01*
X77666461Y-113606370D01*
G37*
G36*
X77362833Y-112831053D02*
G01*
X77414901Y-112835394D01*
X77462724Y-112848417D01*
X77510426Y-112872771D01*
X77514508Y-112875505D01*
X77556830Y-112909814D01*
X77593161Y-112946878D01*
X77626754Y-112986321D01*
X77656888Y-113025339D01*
X77662030Y-113032309D01*
X77711367Y-113098499D01*
X77744035Y-113141450D01*
X77776073Y-113182284D01*
X77808599Y-113221714D01*
X77811018Y-113224528D01*
X77846114Y-113260826D01*
X77884295Y-113292355D01*
X77895771Y-113300488D01*
X77938480Y-113324270D01*
X77985396Y-113340479D01*
X77999574Y-113343719D01*
X77999574Y-112954152D01*
X77754842Y-112948046D01*
X77754842Y-112822993D01*
X78130000Y-112831053D01*
X78130000Y-113493928D01*
X78076558Y-113491347D01*
X78026296Y-113484886D01*
X77972745Y-113472750D01*
X77923347Y-113455546D01*
X77911646Y-113450453D01*
X77867393Y-113428319D01*
X77822461Y-113401009D01*
X77782668Y-113371149D01*
X77758995Y-113349825D01*
X77721299Y-113311051D01*
X77687129Y-113272240D01*
X77652726Y-113229719D01*
X77637362Y-113209630D01*
X77560181Y-113107292D01*
X77529088Y-113067326D01*
X77493917Y-113030323D01*
X77466392Y-113008618D01*
X77420657Y-112987369D01*
X77368939Y-112980286D01*
X77319889Y-112985596D01*
X77272264Y-113005565D01*
X77248527Y-113025226D01*
X77220379Y-113067384D01*
X77207132Y-113116316D01*
X77205052Y-113149302D01*
X77209843Y-113201567D01*
X77226406Y-113248173D01*
X77258289Y-113285500D01*
X77265624Y-113290718D01*
X77310017Y-113311713D01*
X77361146Y-113323959D01*
X77415483Y-113329558D01*
X77453691Y-113330530D01*
X77489106Y-113330530D01*
X77489106Y-113467306D01*
X77448806Y-113467306D01*
X77398394Y-113465529D01*
X77342638Y-113458705D01*
X77292051Y-113446764D01*
X77239566Y-113426365D01*
X77194117Y-113398999D01*
X77188199Y-113394521D01*
X77151551Y-113359247D01*
X77122940Y-113319371D01*
X77108332Y-113290230D01*
X77092704Y-113241435D01*
X77084715Y-113190792D01*
X77082686Y-113145150D01*
X77085144Y-113095034D01*
X77093784Y-113043799D01*
X77110681Y-112993262D01*
X77122009Y-112970516D01*
X77151901Y-112926509D01*
X77187507Y-112890871D01*
X77224836Y-112865736D01*
X77269793Y-112845990D01*
X77317347Y-112834440D01*
X77362833Y-112831053D01*
G37*
G36*
X78003482Y-112095394D02*
G01*
X78130000Y-112095394D01*
X78130000Y-112513782D01*
X78003482Y-112513782D01*
X78003482Y-112371632D01*
X77221905Y-112371632D01*
X77221905Y-112513782D01*
X77098318Y-112513782D01*
X77098318Y-112229239D01*
X78003482Y-112229239D01*
X78003482Y-112095394D01*
G37*
G36*
X77843394Y-111172836D02*
G01*
X77894725Y-111181472D01*
X77943274Y-111195866D01*
X77969043Y-111206350D01*
X78016351Y-111232434D01*
X78057219Y-111265197D01*
X78091647Y-111304638D01*
X78097759Y-111313328D01*
X78123004Y-111359868D01*
X78138899Y-111411560D01*
X78145210Y-111462487D01*
X78145631Y-111480390D01*
X78142135Y-111531132D01*
X78129846Y-111584567D01*
X78108707Y-111634137D01*
X78089699Y-111665038D01*
X78057978Y-111702834D01*
X78018747Y-111736357D01*
X77972005Y-111765605D01*
X77924945Y-111787691D01*
X77917752Y-111790579D01*
X77864154Y-111808375D01*
X77813859Y-111820150D01*
X77759546Y-111828714D01*
X77701214Y-111834067D01*
X77649534Y-111836074D01*
X77628080Y-111836252D01*
X77565829Y-111834794D01*
X77507058Y-111830421D01*
X77451768Y-111823132D01*
X77399958Y-111812927D01*
X77351628Y-111799807D01*
X77296111Y-111779306D01*
X77246031Y-111754249D01*
X77227522Y-111742951D01*
X77185797Y-111711679D01*
X77151144Y-111676328D01*
X77118895Y-111628524D01*
X77096830Y-111574845D01*
X77086222Y-111525627D01*
X77082686Y-111472330D01*
X77086870Y-111415914D01*
X77099423Y-111365060D01*
X77120343Y-111319770D01*
X77149632Y-111280042D01*
X77170125Y-111259839D01*
X77210704Y-111229472D01*
X77256144Y-111206117D01*
X77306447Y-111189775D01*
X77361612Y-111180445D01*
X77395317Y-111178262D01*
X77395317Y-111303314D01*
X77343074Y-111315042D01*
X77296834Y-111336121D01*
X77260006Y-111363398D01*
X77226518Y-111404477D01*
X77208487Y-111452974D01*
X77205052Y-111489427D01*
X77213031Y-111540705D01*
X77236968Y-111585452D01*
X77276864Y-111623669D01*
X77305924Y-111642079D01*
X77353819Y-111663906D01*
X77400863Y-111678578D01*
X77453436Y-111689523D01*
X77511539Y-111696742D01*
X77564182Y-111699910D01*
X77586315Y-111700453D01*
X77547967Y-111658759D01*
X77517553Y-111615193D01*
X77495073Y-111569756D01*
X77480527Y-111522446D01*
X77473955Y-111473551D01*
X77608053Y-111473551D01*
X77614551Y-111522138D01*
X77634045Y-111570443D01*
X77661099Y-111611625D01*
X77697701Y-111652601D01*
X77735497Y-111686589D01*
X77743852Y-111693370D01*
X77793437Y-111685702D01*
X77851963Y-111671712D01*
X77901819Y-111653416D01*
X77951946Y-111624494D01*
X77988526Y-111588845D01*
X78014538Y-111537187D01*
X78021311Y-111486741D01*
X78015253Y-111436513D01*
X77994594Y-111389363D01*
X77959274Y-111350697D01*
X77917423Y-111324293D01*
X77869419Y-111307669D01*
X77820954Y-111301068D01*
X77803691Y-111300628D01*
X77753349Y-111305088D01*
X77704751Y-111320297D01*
X77663251Y-111346301D01*
X77629615Y-111385605D01*
X77611502Y-111435007D01*
X77608053Y-111473551D01*
X77473955Y-111473551D01*
X77473916Y-111473264D01*
X77473475Y-111456454D01*
X77477833Y-111405723D01*
X77490907Y-111357300D01*
X77510355Y-111315282D01*
X77539809Y-111273172D01*
X77577459Y-111237180D01*
X77618799Y-111209769D01*
X77666093Y-111188775D01*
X77718824Y-111175556D01*
X77770932Y-111170308D01*
X77789281Y-111169958D01*
X77843394Y-111172836D01*
G37*
X50430180Y-60712969D02*
X50430180Y-60236779D01*
X50430180Y-60236779D02*
X51430180Y-60236779D01*
X50953990Y-61046303D02*
X50953990Y-61379636D01*
X50430180Y-61522493D02*
X50430180Y-61046303D01*
X50430180Y-61046303D02*
X51430180Y-61046303D01*
X51430180Y-61046303D02*
X51430180Y-61522493D01*
X50430180Y-61951065D02*
X51430180Y-61951065D01*
X51430180Y-61951065D02*
X50430180Y-62522493D01*
X50430180Y-62522493D02*
X51430180Y-62522493D01*
X50430180Y-62998684D02*
X51430180Y-62998684D01*
X50430180Y-63474874D02*
X51430180Y-63474874D01*
X51430180Y-63474874D02*
X50715895Y-63808207D01*
X50715895Y-63808207D02*
X51430180Y-64141540D01*
X51430180Y-64141540D02*
X50430180Y-64141540D01*
X50715895Y-64570112D02*
X50715895Y-65046302D01*
X50430180Y-64474874D02*
X51430180Y-64808207D01*
X51430180Y-64808207D02*
X50430180Y-65141540D01*
X50430180Y-65951064D02*
X50430180Y-65474874D01*
X50430180Y-65474874D02*
X51430180Y-65474874D01*
X50430180Y-67046303D02*
X51430180Y-67046303D01*
X51430180Y-67046303D02*
X51430180Y-67427255D01*
X51430180Y-67427255D02*
X51382561Y-67522493D01*
X51382561Y-67522493D02*
X51334942Y-67570112D01*
X51334942Y-67570112D02*
X51239704Y-67617731D01*
X51239704Y-67617731D02*
X51096847Y-67617731D01*
X51096847Y-67617731D02*
X51001609Y-67570112D01*
X51001609Y-67570112D02*
X50953990Y-67522493D01*
X50953990Y-67522493D02*
X50906371Y-67427255D01*
X50906371Y-67427255D02*
X50906371Y-67046303D01*
X50525419Y-68617731D02*
X50477800Y-68570112D01*
X50477800Y-68570112D02*
X50430180Y-68427255D01*
X50430180Y-68427255D02*
X50430180Y-68332017D01*
X50430180Y-68332017D02*
X50477800Y-68189160D01*
X50477800Y-68189160D02*
X50573038Y-68093922D01*
X50573038Y-68093922D02*
X50668276Y-68046303D01*
X50668276Y-68046303D02*
X50858752Y-67998684D01*
X50858752Y-67998684D02*
X51001609Y-67998684D01*
X51001609Y-67998684D02*
X51192085Y-68046303D01*
X51192085Y-68046303D02*
X51287323Y-68093922D01*
X51287323Y-68093922D02*
X51382561Y-68189160D01*
X51382561Y-68189160D02*
X51430180Y-68332017D01*
X51430180Y-68332017D02*
X51430180Y-68427255D01*
X51430180Y-68427255D02*
X51382561Y-68570112D01*
X51382561Y-68570112D02*
X51334942Y-68617731D01*
X50953990Y-69379636D02*
X50906371Y-69522493D01*
X50906371Y-69522493D02*
X50858752Y-69570112D01*
X50858752Y-69570112D02*
X50763514Y-69617731D01*
X50763514Y-69617731D02*
X50620657Y-69617731D01*
X50620657Y-69617731D02*
X50525419Y-69570112D01*
X50525419Y-69570112D02*
X50477800Y-69522493D01*
X50477800Y-69522493D02*
X50430180Y-69427255D01*
X50430180Y-69427255D02*
X50430180Y-69046303D01*
X50430180Y-69046303D02*
X51430180Y-69046303D01*
X51430180Y-69046303D02*
X51430180Y-69379636D01*
X51430180Y-69379636D02*
X51382561Y-69474874D01*
X51382561Y-69474874D02*
X51334942Y-69522493D01*
X51334942Y-69522493D02*
X51239704Y-69570112D01*
X51239704Y-69570112D02*
X51144466Y-69570112D01*
X51144466Y-69570112D02*
X51049228Y-69522493D01*
X51049228Y-69522493D02*
X51001609Y-69474874D01*
X51001609Y-69474874D02*
X50953990Y-69379636D01*
X50953990Y-69379636D02*
X50953990Y-69046303D01*
X50430180Y-70808208D02*
X51430180Y-70808208D01*
X51430180Y-70808208D02*
X51430180Y-71046303D01*
X51430180Y-71046303D02*
X51382561Y-71189160D01*
X51382561Y-71189160D02*
X51287323Y-71284398D01*
X51287323Y-71284398D02*
X51192085Y-71332017D01*
X51192085Y-71332017D02*
X51001609Y-71379636D01*
X51001609Y-71379636D02*
X50858752Y-71379636D01*
X50858752Y-71379636D02*
X50668276Y-71332017D01*
X50668276Y-71332017D02*
X50573038Y-71284398D01*
X50573038Y-71284398D02*
X50477800Y-71189160D01*
X50477800Y-71189160D02*
X50430180Y-71046303D01*
X50430180Y-71046303D02*
X50430180Y-70808208D01*
X50953990Y-71808208D02*
X50953990Y-72141541D01*
X50430180Y-72284398D02*
X50430180Y-71808208D01*
X50430180Y-71808208D02*
X51430180Y-71808208D01*
X51430180Y-71808208D02*
X51430180Y-72284398D01*
X50477800Y-72665351D02*
X50430180Y-72808208D01*
X50430180Y-72808208D02*
X50430180Y-73046303D01*
X50430180Y-73046303D02*
X50477800Y-73141541D01*
X50477800Y-73141541D02*
X50525419Y-73189160D01*
X50525419Y-73189160D02*
X50620657Y-73236779D01*
X50620657Y-73236779D02*
X50715895Y-73236779D01*
X50715895Y-73236779D02*
X50811133Y-73189160D01*
X50811133Y-73189160D02*
X50858752Y-73141541D01*
X50858752Y-73141541D02*
X50906371Y-73046303D01*
X50906371Y-73046303D02*
X50953990Y-72855827D01*
X50953990Y-72855827D02*
X51001609Y-72760589D01*
X51001609Y-72760589D02*
X51049228Y-72712970D01*
X51049228Y-72712970D02*
X51144466Y-72665351D01*
X51144466Y-72665351D02*
X51239704Y-72665351D01*
X51239704Y-72665351D02*
X51334942Y-72712970D01*
X51334942Y-72712970D02*
X51382561Y-72760589D01*
X51382561Y-72760589D02*
X51430180Y-72855827D01*
X51430180Y-72855827D02*
X51430180Y-73093922D01*
X51430180Y-73093922D02*
X51382561Y-73236779D01*
X50430180Y-73665351D02*
X51430180Y-73665351D01*
X51382561Y-74665350D02*
X51430180Y-74570112D01*
X51430180Y-74570112D02*
X51430180Y-74427255D01*
X51430180Y-74427255D02*
X51382561Y-74284398D01*
X51382561Y-74284398D02*
X51287323Y-74189160D01*
X51287323Y-74189160D02*
X51192085Y-74141541D01*
X51192085Y-74141541D02*
X51001609Y-74093922D01*
X51001609Y-74093922D02*
X50858752Y-74093922D01*
X50858752Y-74093922D02*
X50668276Y-74141541D01*
X50668276Y-74141541D02*
X50573038Y-74189160D01*
X50573038Y-74189160D02*
X50477800Y-74284398D01*
X50477800Y-74284398D02*
X50430180Y-74427255D01*
X50430180Y-74427255D02*
X50430180Y-74522493D01*
X50430180Y-74522493D02*
X50477800Y-74665350D01*
X50477800Y-74665350D02*
X50525419Y-74712969D01*
X50525419Y-74712969D02*
X50858752Y-74712969D01*
X50858752Y-74712969D02*
X50858752Y-74522493D01*
X50430180Y-75141541D02*
X51430180Y-75141541D01*
X51430180Y-75141541D02*
X50430180Y-75712969D01*
X50430180Y-75712969D02*
X51430180Y-75712969D01*
X50811133Y-76951065D02*
X50811133Y-77712970D01*
X51430180Y-79141541D02*
X51430180Y-79236779D01*
X51430180Y-79236779D02*
X51382561Y-79332017D01*
X51382561Y-79332017D02*
X51334942Y-79379636D01*
X51334942Y-79379636D02*
X51239704Y-79427255D01*
X51239704Y-79427255D02*
X51049228Y-79474874D01*
X51049228Y-79474874D02*
X50811133Y-79474874D01*
X50811133Y-79474874D02*
X50620657Y-79427255D01*
X50620657Y-79427255D02*
X50525419Y-79379636D01*
X50525419Y-79379636D02*
X50477800Y-79332017D01*
X50477800Y-79332017D02*
X50430180Y-79236779D01*
X50430180Y-79236779D02*
X50430180Y-79141541D01*
X50430180Y-79141541D02*
X50477800Y-79046303D01*
X50477800Y-79046303D02*
X50525419Y-78998684D01*
X50525419Y-78998684D02*
X50620657Y-78951065D01*
X50620657Y-78951065D02*
X50811133Y-78903446D01*
X50811133Y-78903446D02*
X51049228Y-78903446D01*
X51049228Y-78903446D02*
X51239704Y-78951065D01*
X51239704Y-78951065D02*
X51334942Y-78998684D01*
X51334942Y-78998684D02*
X51382561Y-79046303D01*
X51382561Y-79046303D02*
X51430180Y-79141541D01*
X50430180Y-79951065D02*
X50430180Y-80141541D01*
X50430180Y-80141541D02*
X50477800Y-80236779D01*
X50477800Y-80236779D02*
X50525419Y-80284398D01*
X50525419Y-80284398D02*
X50668276Y-80379636D01*
X50668276Y-80379636D02*
X50858752Y-80427255D01*
X50858752Y-80427255D02*
X51239704Y-80427255D01*
X51239704Y-80427255D02*
X51334942Y-80379636D01*
X51334942Y-80379636D02*
X51382561Y-80332017D01*
X51382561Y-80332017D02*
X51430180Y-80236779D01*
X51430180Y-80236779D02*
X51430180Y-80046303D01*
X51430180Y-80046303D02*
X51382561Y-79951065D01*
X51382561Y-79951065D02*
X51334942Y-79903446D01*
X51334942Y-79903446D02*
X51239704Y-79855827D01*
X51239704Y-79855827D02*
X51001609Y-79855827D01*
X51001609Y-79855827D02*
X50906371Y-79903446D01*
X50906371Y-79903446D02*
X50858752Y-79951065D01*
X50858752Y-79951065D02*
X50811133Y-80046303D01*
X50811133Y-80046303D02*
X50811133Y-80236779D01*
X50811133Y-80236779D02*
X50858752Y-80332017D01*
X50858752Y-80332017D02*
X50906371Y-80379636D01*
X50906371Y-80379636D02*
X51001609Y-80427255D01*
X50525419Y-80855827D02*
X50477800Y-80903446D01*
X50477800Y-80903446D02*
X50430180Y-80855827D01*
X50430180Y-80855827D02*
X50477800Y-80808208D01*
X50477800Y-80808208D02*
X50525419Y-80855827D01*
X50525419Y-80855827D02*
X50430180Y-80855827D01*
X51334942Y-81284398D02*
X51382561Y-81332017D01*
X51382561Y-81332017D02*
X51430180Y-81427255D01*
X51430180Y-81427255D02*
X51430180Y-81665350D01*
X51430180Y-81665350D02*
X51382561Y-81760588D01*
X51382561Y-81760588D02*
X51334942Y-81808207D01*
X51334942Y-81808207D02*
X51239704Y-81855826D01*
X51239704Y-81855826D02*
X51144466Y-81855826D01*
X51144466Y-81855826D02*
X51001609Y-81808207D01*
X51001609Y-81808207D02*
X50430180Y-81236779D01*
X50430180Y-81236779D02*
X50430180Y-81855826D01*
X51430180Y-82474874D02*
X51430180Y-82570112D01*
X51430180Y-82570112D02*
X51382561Y-82665350D01*
X51382561Y-82665350D02*
X51334942Y-82712969D01*
X51334942Y-82712969D02*
X51239704Y-82760588D01*
X51239704Y-82760588D02*
X51049228Y-82808207D01*
X51049228Y-82808207D02*
X50811133Y-82808207D01*
X50811133Y-82808207D02*
X50620657Y-82760588D01*
X50620657Y-82760588D02*
X50525419Y-82712969D01*
X50525419Y-82712969D02*
X50477800Y-82665350D01*
X50477800Y-82665350D02*
X50430180Y-82570112D01*
X50430180Y-82570112D02*
X50430180Y-82474874D01*
X50430180Y-82474874D02*
X50477800Y-82379636D01*
X50477800Y-82379636D02*
X50525419Y-82332017D01*
X50525419Y-82332017D02*
X50620657Y-82284398D01*
X50620657Y-82284398D02*
X50811133Y-82236779D01*
X50811133Y-82236779D02*
X51049228Y-82236779D01*
X51049228Y-82236779D02*
X51239704Y-82284398D01*
X51239704Y-82284398D02*
X51334942Y-82332017D01*
X51334942Y-82332017D02*
X51382561Y-82379636D01*
X51382561Y-82379636D02*
X51430180Y-82474874D01*
X51334942Y-83189160D02*
X51382561Y-83236779D01*
X51382561Y-83236779D02*
X51430180Y-83332017D01*
X51430180Y-83332017D02*
X51430180Y-83570112D01*
X51430180Y-83570112D02*
X51382561Y-83665350D01*
X51382561Y-83665350D02*
X51334942Y-83712969D01*
X51334942Y-83712969D02*
X51239704Y-83760588D01*
X51239704Y-83760588D02*
X51144466Y-83760588D01*
X51144466Y-83760588D02*
X51001609Y-83712969D01*
X51001609Y-83712969D02*
X50430180Y-83141541D01*
X50430180Y-83141541D02*
X50430180Y-83760588D01*
X51096847Y-84617731D02*
X50430180Y-84617731D01*
X51477800Y-84379636D02*
X50763514Y-84141541D01*
X50763514Y-84141541D02*
X50763514Y-84760588D01*
G36*
X73595722Y-137148046D02*
G01*
X73394954Y-137148046D01*
X73394954Y-136769225D01*
X74332847Y-136769225D01*
X74332847Y-137148046D01*
X74114494Y-137148046D01*
X73989240Y-137244680D01*
X73889901Y-137353782D01*
X73806758Y-137496826D01*
X73758888Y-137656840D01*
X73745931Y-137807501D01*
X73755877Y-137955664D01*
X73794071Y-138102668D01*
X73847780Y-138199511D01*
X73962380Y-138296809D01*
X74105073Y-138333874D01*
X74140139Y-138335066D01*
X74293400Y-138306730D01*
X74414644Y-138214040D01*
X74420774Y-138206106D01*
X74494048Y-138078833D01*
X74548681Y-137936004D01*
X74584173Y-137811898D01*
X74680160Y-137446999D01*
X74723392Y-137302477D01*
X74779755Y-137156287D01*
X74852031Y-137016017D01*
X74924159Y-136912840D01*
X75030182Y-136799795D01*
X75150980Y-136711627D01*
X75245094Y-136669574D01*
X75389148Y-136632570D01*
X75546262Y-136614430D01*
X75623182Y-136612421D01*
X75774796Y-136621695D01*
X75936248Y-136655955D01*
X76081080Y-136715461D01*
X76209292Y-136800211D01*
X76290697Y-136876203D01*
X76386628Y-137000198D01*
X76458996Y-137141374D01*
X76507803Y-137299730D01*
X76530883Y-137449138D01*
X76536894Y-137583286D01*
X76526126Y-137738902D01*
X76493823Y-137889212D01*
X76439985Y-138034215D01*
X76364611Y-138173911D01*
X76267702Y-138308301D01*
X76230614Y-138351919D01*
X76490000Y-138351919D01*
X76490000Y-138739532D01*
X75364528Y-138739532D01*
X75364528Y-138351919D01*
X75634905Y-138351919D01*
X75780134Y-138260793D01*
X75900748Y-138161438D01*
X76012993Y-138031350D01*
X76089792Y-137889412D01*
X76131146Y-137735625D01*
X76139023Y-137626517D01*
X76125999Y-137474476D01*
X76081591Y-137333678D01*
X76005666Y-137220586D01*
X75879295Y-137127126D01*
X75730660Y-137083145D01*
X75629776Y-137076238D01*
X75476499Y-137105593D01*
X75348592Y-137193658D01*
X75257485Y-137318875D01*
X75194854Y-137461980D01*
X75168890Y-137545917D01*
X75060446Y-137933531D01*
X75012970Y-138082750D01*
X74950094Y-138237434D01*
X74879153Y-138371221D01*
X74788203Y-138498533D01*
X74738778Y-138551953D01*
X74614409Y-138648296D01*
X74469638Y-138713108D01*
X74323825Y-138744249D01*
X74203886Y-138751256D01*
X74057553Y-138742755D01*
X73903109Y-138711349D01*
X73766196Y-138656802D01*
X73631190Y-138566127D01*
X73572274Y-138509455D01*
X73474180Y-138376694D01*
X73411339Y-138241669D01*
X73369956Y-138089044D01*
X73350030Y-137918817D01*
X73348060Y-137840474D01*
X73359911Y-137680615D01*
X73395464Y-137525455D01*
X73454719Y-137374993D01*
X73537676Y-137229230D01*
X73595722Y-137148046D01*
G37*
G36*
X73782568Y-135531646D02*
G01*
X75355003Y-135531646D01*
X75503217Y-135526031D01*
X75656274Y-135505284D01*
X75805006Y-135462854D01*
X75938939Y-135391254D01*
X75963900Y-135371912D01*
X76065137Y-135257480D01*
X76128879Y-135113854D01*
X76154188Y-134959629D01*
X76155875Y-134902965D01*
X76143968Y-134755870D01*
X76102108Y-134612722D01*
X76020249Y-134481403D01*
X75965366Y-134426692D01*
X75840411Y-134347351D01*
X75699463Y-134298625D01*
X75553069Y-134272819D01*
X75385146Y-134262721D01*
X75359399Y-134262561D01*
X73782568Y-134262561D01*
X73782568Y-134625261D01*
X73394954Y-134625261D01*
X73394954Y-133409665D01*
X73782568Y-133409665D01*
X73782568Y-133796545D01*
X75403363Y-133796545D01*
X75569819Y-133803415D01*
X75723431Y-133824023D01*
X75890811Y-133866887D01*
X76039695Y-133929535D01*
X76170083Y-134011967D01*
X76246734Y-134077913D01*
X76345343Y-134192674D01*
X76423550Y-134325930D01*
X76481356Y-134477682D01*
X76518759Y-134647930D01*
X76534344Y-134803932D01*
X76536894Y-134903698D01*
X76529864Y-135068319D01*
X76508773Y-135219630D01*
X76464904Y-135383635D01*
X76400787Y-135528475D01*
X76316423Y-135654149D01*
X76248932Y-135727285D01*
X76130539Y-135820665D01*
X75991332Y-135894725D01*
X75831311Y-135949465D01*
X75682060Y-135980323D01*
X75518356Y-135997765D01*
X75376985Y-136002058D01*
X73782568Y-136002058D01*
X73782568Y-136385275D01*
X73394954Y-136385275D01*
X73394954Y-135165282D01*
X73782568Y-135165282D01*
X73782568Y-135531646D01*
G37*
G36*
X74511278Y-130852846D02*
G01*
X74676911Y-130886821D01*
X74827118Y-130945830D01*
X74961897Y-131029875D01*
X75048722Y-131105233D01*
X75152001Y-131237032D01*
X75220711Y-131377630D01*
X75271132Y-131543731D01*
X75299178Y-131701629D01*
X75314523Y-131877236D01*
X75317634Y-131991102D01*
X75317634Y-132399232D01*
X76102386Y-132399232D01*
X76102386Y-131995498D01*
X76490000Y-131995498D01*
X76490000Y-133256524D01*
X76102386Y-133256524D01*
X76102386Y-132869644D01*
X73782568Y-132869644D01*
X73782568Y-133256524D01*
X73394954Y-133256524D01*
X73394954Y-132100279D01*
X73395468Y-132076099D01*
X73782568Y-132076099D01*
X73782568Y-132399232D01*
X74942477Y-132399232D01*
X74942477Y-132109071D01*
X74938304Y-131957075D01*
X74923878Y-131809670D01*
X74892966Y-131662632D01*
X74889720Y-131651849D01*
X74823356Y-131511231D01*
X74715302Y-131405604D01*
X74707271Y-131400523D01*
X74563466Y-131342670D01*
X74416428Y-131321891D01*
X74346769Y-131319923D01*
X74194720Y-131333485D01*
X74054872Y-131380369D01*
X73936412Y-131470619D01*
X73918855Y-131491381D01*
X73846985Y-131621841D01*
X73805060Y-131779879D01*
X73787359Y-131929404D01*
X73782568Y-132076099D01*
X73395468Y-132076099D01*
X73398535Y-131931748D01*
X73409277Y-131776768D01*
X73430860Y-131613082D01*
X73462191Y-131467839D01*
X73496803Y-131358025D01*
X73562144Y-131215398D01*
X73654593Y-131085883D01*
X73767937Y-130986850D01*
X73806015Y-130963084D01*
X73949240Y-130900101D01*
X74100658Y-130863361D01*
X74253157Y-130846565D01*
X74357027Y-130843649D01*
X74511278Y-130852846D01*
G37*
G36*
X74285952Y-128476203D02*
G01*
X73782568Y-128476203D01*
X73782568Y-129805373D01*
X74708004Y-129805373D01*
X74708004Y-128649127D01*
X75095617Y-128649127D01*
X75095617Y-129805373D01*
X76102386Y-129805373D01*
X76102386Y-128476203D01*
X75552107Y-128476203D01*
X75552107Y-128092986D01*
X76490000Y-128092986D01*
X76490000Y-130675122D01*
X76102386Y-130675122D01*
X76102386Y-130275785D01*
X73782568Y-130275785D01*
X73782568Y-130675122D01*
X73394954Y-130675122D01*
X73394954Y-128092986D01*
X74285952Y-128092986D01*
X74285952Y-128476203D01*
G37*
G36*
X76490000Y-125896999D02*
G01*
X75050921Y-126583565D01*
X75050921Y-127018073D01*
X76102386Y-127018073D01*
X76102386Y-126622400D01*
X76490000Y-126622400D01*
X76490000Y-127908339D01*
X76102386Y-127908339D01*
X76102386Y-127488485D01*
X73782568Y-127488485D01*
X73782568Y-127908339D01*
X73394954Y-127908339D01*
X73394954Y-126618736D01*
X73397100Y-126538136D01*
X73782568Y-126538136D01*
X73782568Y-127018073D01*
X74661109Y-127018073D01*
X74661109Y-126566713D01*
X74652821Y-126408894D01*
X74624170Y-126262635D01*
X74562775Y-126127549D01*
X74556329Y-126118283D01*
X74436456Y-126018105D01*
X74288834Y-125976889D01*
X74199490Y-125971737D01*
X74054101Y-125990903D01*
X73925372Y-126061708D01*
X73883684Y-126108025D01*
X73818215Y-126244404D01*
X73788887Y-126400795D01*
X73782568Y-126538136D01*
X73397100Y-126538136D01*
X73399730Y-126439379D01*
X73414059Y-126276372D01*
X73437941Y-126129715D01*
X73479209Y-125975310D01*
X73544740Y-125824928D01*
X73590593Y-125753384D01*
X73702196Y-125637018D01*
X73842102Y-125553899D01*
X73987735Y-125508443D01*
X74155037Y-125488443D01*
X74206817Y-125487404D01*
X74367032Y-125500792D01*
X74512176Y-125540959D01*
X74655774Y-125616993D01*
X74708004Y-125656664D01*
X74811791Y-125762067D01*
X74895639Y-125888684D01*
X74959550Y-126036514D01*
X74986441Y-126127808D01*
X76102386Y-125579727D01*
X76102386Y-125200907D01*
X76490000Y-125200907D01*
X76490000Y-125896999D01*
G37*
G36*
X73782568Y-122652477D02*
G01*
X73782568Y-123095778D01*
X73394954Y-123095778D01*
X73394954Y-121821563D01*
X73782568Y-121821563D01*
X73782568Y-122277320D01*
X76536894Y-122277320D01*
X76536894Y-122759455D01*
X73880020Y-124249825D01*
X76102386Y-124249825D01*
X76102386Y-123804326D01*
X76490000Y-123804326D01*
X76490000Y-125075610D01*
X76102386Y-125075610D01*
X76102386Y-124633042D01*
X73782568Y-124633042D01*
X73782568Y-125075610D01*
X73394954Y-125075610D01*
X73394954Y-124016817D01*
X75810760Y-122652477D01*
X73782568Y-122652477D01*
G37*
G36*
X75105973Y-118332349D02*
G01*
X75271678Y-118354451D01*
X75430068Y-118391288D01*
X75581141Y-118442860D01*
X75724899Y-118509166D01*
X75771193Y-118534542D01*
X75902732Y-118618494D01*
X76022576Y-118713729D01*
X76130725Y-118820246D01*
X76227179Y-118938047D01*
X76311938Y-119067130D01*
X76337592Y-119112665D01*
X76405324Y-119254431D01*
X76459042Y-119403307D01*
X76498746Y-119559292D01*
X76524438Y-119722387D01*
X76536116Y-119892592D01*
X76536894Y-119950907D01*
X76529604Y-120121232D01*
X76507734Y-120284344D01*
X76471283Y-120440243D01*
X76420253Y-120588930D01*
X76354642Y-120730404D01*
X76329532Y-120775959D01*
X76245881Y-120905532D01*
X76150998Y-121023873D01*
X76044884Y-121130983D01*
X75927539Y-121226862D01*
X75798962Y-121311509D01*
X75753607Y-121337229D01*
X75612400Y-121405459D01*
X75464649Y-121459572D01*
X75310355Y-121499569D01*
X75149518Y-121525449D01*
X74982139Y-121537212D01*
X74924891Y-121537997D01*
X74757159Y-121530784D01*
X74596331Y-121509146D01*
X74442407Y-121473082D01*
X74295386Y-121422592D01*
X74155269Y-121357677D01*
X74110097Y-121332833D01*
X73981246Y-121250435D01*
X73863420Y-121157115D01*
X73756619Y-121052873D01*
X73660843Y-120937709D01*
X73576093Y-120811622D01*
X73550293Y-120767166D01*
X73481565Y-120628500D01*
X73427057Y-120482879D01*
X73386768Y-120330303D01*
X73360699Y-120170771D01*
X73348849Y-120004284D01*
X73348232Y-119959699D01*
X73762051Y-119959699D01*
X73771577Y-120112748D01*
X73800153Y-120256821D01*
X73855073Y-120408174D01*
X73914459Y-120518039D01*
X74009346Y-120646182D01*
X74122548Y-120756937D01*
X74254065Y-120850304D01*
X74335045Y-120894661D01*
X74472477Y-120952684D01*
X74617329Y-120994129D01*
X74769599Y-121018996D01*
X74929288Y-121027285D01*
X75077626Y-121020939D01*
X75238311Y-120998144D01*
X75389562Y-120958771D01*
X75531379Y-120902821D01*
X75548443Y-120894661D01*
X75676854Y-120820747D01*
X75803361Y-120720296D01*
X75910858Y-120601530D01*
X75971960Y-120512177D01*
X76044926Y-120365313D01*
X76089737Y-120224159D01*
X76115680Y-120073023D01*
X76122903Y-119932588D01*
X76112553Y-119777113D01*
X76081503Y-119630155D01*
X76029754Y-119491715D01*
X75957306Y-119361793D01*
X75867730Y-119243274D01*
X75764598Y-119139043D01*
X75647911Y-119049101D01*
X75517669Y-118973447D01*
X75378359Y-118913500D01*
X75234469Y-118870682D01*
X75086000Y-118844990D01*
X74932951Y-118836427D01*
X74777567Y-118845540D01*
X74627953Y-118872880D01*
X74484109Y-118918446D01*
X74346036Y-118982240D01*
X74217671Y-119061695D01*
X74103686Y-119154980D01*
X73992641Y-119276458D01*
X73918855Y-119383042D01*
X73850253Y-119514704D01*
X73801252Y-119654701D01*
X73771851Y-119803033D01*
X73762051Y-119959699D01*
X73348232Y-119959699D01*
X73348060Y-119947243D01*
X73353140Y-119800404D01*
X73372649Y-119631281D01*
X73406789Y-119469886D01*
X73455562Y-119316219D01*
X73518966Y-119170280D01*
X73556154Y-119100209D01*
X73639299Y-118967571D01*
X73733211Y-118846628D01*
X73837891Y-118737379D01*
X73953339Y-118639826D01*
X74079554Y-118553968D01*
X74124019Y-118527948D01*
X74262299Y-118458971D01*
X74406761Y-118404266D01*
X74557405Y-118363831D01*
X74714232Y-118337667D01*
X74877241Y-118325775D01*
X74932951Y-118324982D01*
X75105973Y-118332349D01*
G37*
G36*
X73782568Y-117384159D02*
G01*
X75895024Y-116590614D01*
X73782568Y-115821981D01*
X73782568Y-116181018D01*
X73394954Y-116181018D01*
X73394954Y-114995464D01*
X73782568Y-114995464D01*
X73782568Y-115366224D01*
X76536894Y-116392777D01*
X76536894Y-116823621D01*
X73782568Y-117866294D01*
X73782568Y-118249511D01*
X73394954Y-118249511D01*
X73394954Y-117025854D01*
X73782568Y-117025854D01*
X73782568Y-117384159D01*
G37*
G36*
X76490000Y-113210537D02*
G01*
X76102386Y-113210537D01*
X76102386Y-112804605D01*
X75401165Y-113045673D01*
X75401165Y-114172609D01*
X76102386Y-114413677D01*
X76102386Y-114020202D01*
X76490000Y-114020202D01*
X76490000Y-115252651D01*
X76102386Y-115252651D01*
X76102386Y-114877494D01*
X73770111Y-114040718D01*
X73770111Y-114413677D01*
X73394954Y-114413677D01*
X73394954Y-113598150D01*
X73770111Y-113598150D01*
X73770111Y-113612072D01*
X75036266Y-114050976D01*
X75036266Y-113169504D01*
X73770111Y-113598150D01*
X73394954Y-113598150D01*
X73394954Y-112800209D01*
X73770111Y-112800209D01*
X73770111Y-113173168D01*
X76102386Y-112332728D01*
X76102386Y-111986147D01*
X76490000Y-111986147D01*
X76490000Y-113210537D01*
G37*
X52866666Y-145734819D02*
X52866666Y-146449104D01*
X52866666Y-146449104D02*
X52819047Y-146591961D01*
X52819047Y-146591961D02*
X52723809Y-146687200D01*
X52723809Y-146687200D02*
X52580952Y-146734819D01*
X52580952Y-146734819D02*
X52485714Y-146734819D01*
X53866666Y-146734819D02*
X53295238Y-146734819D01*
X53580952Y-146734819D02*
X53580952Y-145734819D01*
X53580952Y-145734819D02*
X53485714Y-145877676D01*
X53485714Y-145877676D02*
X53390476Y-145972914D01*
X53390476Y-145972914D02*
X53295238Y-146020533D01*
X71654819Y-137333333D02*
X72369104Y-137333333D01*
X72369104Y-137333333D02*
X72511961Y-137380952D01*
X72511961Y-137380952D02*
X72607200Y-137476190D01*
X72607200Y-137476190D02*
X72654819Y-137619047D01*
X72654819Y-137619047D02*
X72654819Y-137714285D01*
X71750057Y-136904761D02*
X71702438Y-136857142D01*
X71702438Y-136857142D02*
X71654819Y-136761904D01*
X71654819Y-136761904D02*
X71654819Y-136523809D01*
X71654819Y-136523809D02*
X71702438Y-136428571D01*
X71702438Y-136428571D02*
X71750057Y-136380952D01*
X71750057Y-136380952D02*
X71845295Y-136333333D01*
X71845295Y-136333333D02*
X71940533Y-136333333D01*
X71940533Y-136333333D02*
X72083390Y-136380952D01*
X72083390Y-136380952D02*
X72654819Y-136952380D01*
X72654819Y-136952380D02*
X72654819Y-136333333D01*
X70866666Y-145734819D02*
X70866666Y-146449104D01*
X70866666Y-146449104D02*
X70819047Y-146591961D01*
X70819047Y-146591961D02*
X70723809Y-146687200D01*
X70723809Y-146687200D02*
X70580952Y-146734819D01*
X70580952Y-146734819D02*
X70485714Y-146734819D01*
X71247619Y-145734819D02*
X71866666Y-145734819D01*
X71866666Y-145734819D02*
X71533333Y-146115771D01*
X71533333Y-146115771D02*
X71676190Y-146115771D01*
X71676190Y-146115771D02*
X71771428Y-146163390D01*
X71771428Y-146163390D02*
X71819047Y-146211009D01*
X71819047Y-146211009D02*
X71866666Y-146306247D01*
X71866666Y-146306247D02*
X71866666Y-146544342D01*
X71866666Y-146544342D02*
X71819047Y-146639580D01*
X71819047Y-146639580D02*
X71771428Y-146687200D01*
X71771428Y-146687200D02*
X71676190Y-146734819D01*
X71676190Y-146734819D02*
X71390476Y-146734819D01*
X71390476Y-146734819D02*
X71295238Y-146687200D01*
X71295238Y-146687200D02*
X71247619Y-146639580D01*
X64504761Y-112854819D02*
X64171428Y-112378628D01*
X63933333Y-112854819D02*
X63933333Y-111854819D01*
X63933333Y-111854819D02*
X64314285Y-111854819D01*
X64314285Y-111854819D02*
X64409523Y-111902438D01*
X64409523Y-111902438D02*
X64457142Y-111950057D01*
X64457142Y-111950057D02*
X64504761Y-112045295D01*
X64504761Y-112045295D02*
X64504761Y-112188152D01*
X64504761Y-112188152D02*
X64457142Y-112283390D01*
X64457142Y-112283390D02*
X64409523Y-112331009D01*
X64409523Y-112331009D02*
X64314285Y-112378628D01*
X64314285Y-112378628D02*
X63933333Y-112378628D01*
X64790476Y-111854819D02*
X65123809Y-112854819D01*
X65123809Y-112854819D02*
X65457142Y-111854819D01*
X66314285Y-112854819D02*
X65742857Y-112854819D01*
X66028571Y-112854819D02*
X66028571Y-111854819D01*
X66028571Y-111854819D02*
X65933333Y-111997676D01*
X65933333Y-111997676D02*
X65838095Y-112092914D01*
X65838095Y-112092914D02*
X65742857Y-112140533D01*
X53294819Y-123085238D02*
X52818628Y-123418571D01*
X53294819Y-123656666D02*
X52294819Y-123656666D01*
X52294819Y-123656666D02*
X52294819Y-123275714D01*
X52294819Y-123275714D02*
X52342438Y-123180476D01*
X52342438Y-123180476D02*
X52390057Y-123132857D01*
X52390057Y-123132857D02*
X52485295Y-123085238D01*
X52485295Y-123085238D02*
X52628152Y-123085238D01*
X52628152Y-123085238D02*
X52723390Y-123132857D01*
X52723390Y-123132857D02*
X52771009Y-123180476D01*
X52771009Y-123180476D02*
X52818628Y-123275714D01*
X52818628Y-123275714D02*
X52818628Y-123656666D01*
X52294819Y-122799523D02*
X53294819Y-122466190D01*
X53294819Y-122466190D02*
X52294819Y-122132857D01*
X52294819Y-121894761D02*
X52294819Y-121275714D01*
X52294819Y-121275714D02*
X52675771Y-121609047D01*
X52675771Y-121609047D02*
X52675771Y-121466190D01*
X52675771Y-121466190D02*
X52723390Y-121370952D01*
X52723390Y-121370952D02*
X52771009Y-121323333D01*
X52771009Y-121323333D02*
X52866247Y-121275714D01*
X52866247Y-121275714D02*
X53104342Y-121275714D01*
X53104342Y-121275714D02*
X53199580Y-121323333D01*
X53199580Y-121323333D02*
X53247200Y-121370952D01*
X53247200Y-121370952D02*
X53294819Y-121466190D01*
X53294819Y-121466190D02*
X53294819Y-121751904D01*
X53294819Y-121751904D02*
X53247200Y-121847142D01*
X53247200Y-121847142D02*
X53199580Y-121894761D01*
X64404761Y-84454819D02*
X64071428Y-83978628D01*
X63833333Y-84454819D02*
X63833333Y-83454819D01*
X63833333Y-83454819D02*
X64214285Y-83454819D01*
X64214285Y-83454819D02*
X64309523Y-83502438D01*
X64309523Y-83502438D02*
X64357142Y-83550057D01*
X64357142Y-83550057D02*
X64404761Y-83645295D01*
X64404761Y-83645295D02*
X64404761Y-83788152D01*
X64404761Y-83788152D02*
X64357142Y-83883390D01*
X64357142Y-83883390D02*
X64309523Y-83931009D01*
X64309523Y-83931009D02*
X64214285Y-83978628D01*
X64214285Y-83978628D02*
X63833333Y-83978628D01*
X64690476Y-83454819D02*
X65023809Y-84454819D01*
X65023809Y-84454819D02*
X65357142Y-83454819D01*
X65642857Y-83550057D02*
X65690476Y-83502438D01*
X65690476Y-83502438D02*
X65785714Y-83454819D01*
X65785714Y-83454819D02*
X66023809Y-83454819D01*
X66023809Y-83454819D02*
X66119047Y-83502438D01*
X66119047Y-83502438D02*
X66166666Y-83550057D01*
X66166666Y-83550057D02*
X66214285Y-83645295D01*
X66214285Y-83645295D02*
X66214285Y-83740533D01*
X66214285Y-83740533D02*
X66166666Y-83883390D01*
X66166666Y-83883390D02*
X65595238Y-84454819D01*
X65595238Y-84454819D02*
X66214285Y-84454819D01*
X53294819Y-96095238D02*
X52818628Y-96428571D01*
X53294819Y-96666666D02*
X52294819Y-96666666D01*
X52294819Y-96666666D02*
X52294819Y-96285714D01*
X52294819Y-96285714D02*
X52342438Y-96190476D01*
X52342438Y-96190476D02*
X52390057Y-96142857D01*
X52390057Y-96142857D02*
X52485295Y-96095238D01*
X52485295Y-96095238D02*
X52628152Y-96095238D01*
X52628152Y-96095238D02*
X52723390Y-96142857D01*
X52723390Y-96142857D02*
X52771009Y-96190476D01*
X52771009Y-96190476D02*
X52818628Y-96285714D01*
X52818628Y-96285714D02*
X52818628Y-96666666D01*
X52294819Y-95809523D02*
X53294819Y-95476190D01*
X53294819Y-95476190D02*
X52294819Y-95142857D01*
X52628152Y-94380952D02*
X53294819Y-94380952D01*
X52247200Y-94619047D02*
X52961485Y-94857142D01*
X52961485Y-94857142D02*
X52961485Y-94238095D01*
X64404761Y-56454819D02*
X64071428Y-55978628D01*
X63833333Y-56454819D02*
X63833333Y-55454819D01*
X63833333Y-55454819D02*
X64214285Y-55454819D01*
X64214285Y-55454819D02*
X64309523Y-55502438D01*
X64309523Y-55502438D02*
X64357142Y-55550057D01*
X64357142Y-55550057D02*
X64404761Y-55645295D01*
X64404761Y-55645295D02*
X64404761Y-55788152D01*
X64404761Y-55788152D02*
X64357142Y-55883390D01*
X64357142Y-55883390D02*
X64309523Y-55931009D01*
X64309523Y-55931009D02*
X64214285Y-55978628D01*
X64214285Y-55978628D02*
X63833333Y-55978628D01*
X64690476Y-55454819D02*
X65023809Y-56454819D01*
X65023809Y-56454819D02*
X65357142Y-55454819D01*
X66166666Y-55454819D02*
X65690476Y-55454819D01*
X65690476Y-55454819D02*
X65642857Y-55931009D01*
X65642857Y-55931009D02*
X65690476Y-55883390D01*
X65690476Y-55883390D02*
X65785714Y-55835771D01*
X65785714Y-55835771D02*
X66023809Y-55835771D01*
X66023809Y-55835771D02*
X66119047Y-55883390D01*
X66119047Y-55883390D02*
X66166666Y-55931009D01*
X66166666Y-55931009D02*
X66214285Y-56026247D01*
X66214285Y-56026247D02*
X66214285Y-56264342D01*
X66214285Y-56264342D02*
X66166666Y-56359580D01*
X66166666Y-56359580D02*
X66119047Y-56407200D01*
X66119047Y-56407200D02*
X66023809Y-56454819D01*
X66023809Y-56454819D02*
X65785714Y-56454819D01*
X65785714Y-56454819D02*
X65690476Y-56407200D01*
X65690476Y-56407200D02*
X65642857Y-56359580D01*
D11*
X51500000Y-148880000D02*
X51500000Y-159380000D01*
X54770000Y-145730000D02*
X54770000Y-146530000D01*
X54770000Y-145730000D02*
X55630000Y-145730000D01*
X55200000Y-159380000D02*
X51500000Y-159380000D01*
X55280000Y-148880000D02*
X51500000Y-148880000D01*
X60500000Y-148880000D02*
X56720000Y-148880000D01*
X60500000Y-148880000D02*
X60500000Y-159380000D01*
X60500000Y-159380000D02*
X56800000Y-159380000D01*
X57800000Y-153380000D02*
G75*
G02*
X54200000Y-153380000I-1800000J0D01*
G01*
X54200000Y-153380000D02*
G75*
G02*
X57800000Y-153380000I1800000J0D01*
G01*
X59000000Y-139200000D02*
X59000000Y-135500000D01*
X59000000Y-144500000D02*
X59000000Y-140800000D01*
X69500000Y-135500000D02*
X59000000Y-135500000D01*
X69500000Y-139280000D02*
X69500000Y-135500000D01*
X69500000Y-144500000D02*
X59000000Y-144500000D01*
X69500000Y-144500000D02*
X69500000Y-140720000D01*
X72650000Y-138770000D02*
X71850000Y-138770000D01*
X72650000Y-138770000D02*
X72650000Y-139630000D01*
X66800000Y-140000000D02*
G75*
G02*
X63200000Y-140000000I-1800000J0D01*
G01*
X63200000Y-140000000D02*
G75*
G02*
X66800000Y-140000000I1800000J0D01*
G01*
X69500000Y-148880000D02*
X69500000Y-159380000D01*
X72770000Y-145730000D02*
X72770000Y-146530000D01*
X72770000Y-145730000D02*
X73630000Y-145730000D01*
X73200000Y-159380000D02*
X69500000Y-159380000D01*
X73280000Y-148880000D02*
X69500000Y-148880000D01*
X78500000Y-148880000D02*
X74720000Y-148880000D01*
X78500000Y-148880000D02*
X78500000Y-159380000D01*
X78500000Y-159380000D02*
X74800000Y-159380000D01*
X75800000Y-153380000D02*
G75*
G02*
X72200000Y-153380000I-1800000J0D01*
G01*
X72200000Y-153380000D02*
G75*
G02*
X75800000Y-153380000I1800000J0D01*
G01*
X59530000Y-110030000D02*
X59530000Y-112750000D01*
X59530000Y-117250000D02*
X59530000Y-121620000D01*
X61350000Y-121620000D02*
X59530000Y-121620000D01*
X70470000Y-110030000D02*
X59530000Y-110030000D01*
X70470000Y-110030000D02*
X70470000Y-112750000D01*
X70470000Y-117250000D02*
X70470000Y-121620000D01*
X70470000Y-121620000D02*
X68650000Y-121620000D01*
X53970000Y-117605000D02*
X59040000Y-117605000D01*
X53970000Y-127375000D02*
X53970000Y-117605000D01*
X53970000Y-127375000D02*
X59040000Y-127375000D01*
X59040000Y-127375000D02*
X59040000Y-117605000D01*
D12*
G36*
X53645333Y-82678333D02*
G01*
X53603000Y-82720666D01*
X53560666Y-82678333D01*
X53603000Y-82636000D01*
X53645333Y-82678333D01*
G37*
G36*
X53893223Y-82760511D02*
G01*
X53899333Y-82805333D01*
X53868355Y-82875023D01*
X53842888Y-82861778D01*
X53832755Y-82761298D01*
X53842888Y-82748889D01*
X53893223Y-82760511D01*
G37*
G36*
X56524000Y-72347046D02*
G01*
X56524000Y-72730000D01*
X54995131Y-72730000D01*
X53466263Y-72730000D01*
X53492298Y-72370166D01*
X53518333Y-72010333D01*
X55021166Y-71987213D01*
X56524000Y-71964093D01*
X56524000Y-72347046D01*
G37*
G36*
X53720447Y-84397910D02*
G01*
X53730000Y-84456333D01*
X53684282Y-84569005D01*
X53645333Y-84583333D01*
X53570218Y-84514757D01*
X53560666Y-84456333D01*
X53606384Y-84343661D01*
X53645333Y-84329333D01*
X53720447Y-84397910D01*
G37*
G36*
X53802722Y-83944052D02*
G01*
X53778898Y-83997768D01*
X53758222Y-84018889D01*
X53642604Y-84073349D01*
X53564408Y-84028887D01*
X53560666Y-84004778D01*
X53629444Y-83942124D01*
X53687666Y-83934222D01*
X53802722Y-83944052D01*
G37*
G36*
X54068666Y-84442222D02*
G01*
X53999721Y-84561153D01*
X53920500Y-84582037D01*
X53833889Y-84554882D01*
X53857000Y-84517552D01*
X53989089Y-84396178D01*
X54005166Y-84377737D01*
X54057975Y-84377001D01*
X54068666Y-84442222D01*
G37*
G36*
X54068571Y-82140759D02*
G01*
X54068666Y-82142663D01*
X53995035Y-82191831D01*
X53817647Y-82212662D01*
X53814666Y-82212666D01*
X53636164Y-82203167D01*
X53560680Y-82180288D01*
X53560666Y-82179943D01*
X53633954Y-82146247D01*
X53810638Y-82110535D01*
X53814666Y-82109940D01*
X53991738Y-82103884D01*
X54068571Y-82140759D01*
G37*
G36*
X53971194Y-82392754D02*
G01*
X54043659Y-82456481D01*
X54058253Y-82620375D01*
X54054433Y-82741833D01*
X54040201Y-83101666D01*
X54006016Y-82767847D01*
X53969747Y-82562786D01*
X53919844Y-82525469D01*
X53900933Y-82548745D01*
X53824443Y-82614684D01*
X53717257Y-82549899D01*
X53689302Y-82522731D01*
X53607018Y-82425439D01*
X53649100Y-82387902D01*
X53808619Y-82382000D01*
X53971194Y-82392754D01*
G37*
G36*
X55232065Y-82815586D02*
G01*
X55316382Y-82878891D01*
X55338004Y-83044067D01*
X55338666Y-83144000D01*
X55329695Y-83360836D01*
X55274303Y-83457199D01*
X55129774Y-83481909D01*
X55042333Y-83482666D01*
X54852601Y-83472414D01*
X54768283Y-83409109D01*
X54746662Y-83243932D01*
X54746000Y-83144000D01*
X54754971Y-82927164D01*
X54810362Y-82830800D01*
X54954892Y-82806090D01*
X55042333Y-82805333D01*
X55232065Y-82815586D01*
G37*
G36*
X56524000Y-79286302D02*
G01*
X56524000Y-80434666D01*
X54995131Y-80434666D01*
X53466263Y-80434666D01*
X53492298Y-80074833D01*
X53518333Y-79715000D01*
X54802417Y-79715000D01*
X55316992Y-79711634D01*
X55678081Y-79700685D01*
X55901416Y-79680873D01*
X56002727Y-79650919D01*
X56005211Y-79617193D01*
X55969597Y-79490456D01*
X55948876Y-79243405D01*
X55946649Y-78924686D01*
X55948794Y-78855193D01*
X55973666Y-78191000D01*
X56248833Y-78164469D01*
X56524000Y-78137938D01*
X56524000Y-79286302D01*
G37*
G36*
X53730341Y-82950224D02*
G01*
X53867755Y-83035315D01*
X53899333Y-83111541D01*
X53948370Y-83217724D01*
X53984000Y-83228666D01*
X54043447Y-83302239D01*
X54068660Y-83479506D01*
X54068666Y-83482666D01*
X54047529Y-83661057D01*
X53996606Y-83736649D01*
X53995740Y-83736666D01*
X53954703Y-83665107D01*
X53960036Y-83503833D01*
X53971230Y-83358485D01*
X53930771Y-83366992D01*
X53916210Y-83386413D01*
X53839108Y-83459463D01*
X53782075Y-83386413D01*
X53757776Y-83371676D01*
X53771578Y-83493933D01*
X53773439Y-83503833D01*
X53776965Y-83688110D01*
X53707691Y-83736666D01*
X53687666Y-83715925D01*
X53628135Y-83654264D01*
X53620231Y-83609666D01*
X53645333Y-83609666D01*
X53687666Y-83652000D01*
X53730000Y-83609666D01*
X53687666Y-83567333D01*
X53645333Y-83609666D01*
X53620231Y-83609666D01*
X53584613Y-83408682D01*
X53579420Y-83321349D01*
X53575309Y-83075483D01*
X53601426Y-82960444D01*
X53673163Y-82938380D01*
X53730341Y-82950224D01*
G37*
G36*
X56518486Y-76753613D02*
G01*
X56512779Y-77898560D01*
X55002338Y-77890622D01*
X54957666Y-77890387D01*
X53491897Y-77882684D01*
X53484527Y-76782932D01*
X53477158Y-75683180D01*
X53782058Y-75709423D01*
X54086958Y-75735666D01*
X54098979Y-76455333D01*
X54111000Y-77175000D01*
X54386166Y-77201531D01*
X54661333Y-77228062D01*
X54661333Y-77175000D01*
X54915333Y-77175000D01*
X54957666Y-77217333D01*
X55000000Y-77175000D01*
X54957666Y-77132666D01*
X54915333Y-77175000D01*
X54661333Y-77175000D01*
X54661333Y-76503031D01*
X54661333Y-75778000D01*
X54957666Y-75778000D01*
X55254000Y-75778000D01*
X55254000Y-76497666D01*
X55254000Y-77217333D01*
X55630003Y-77217333D01*
X55891982Y-77195243D01*
X56047992Y-77137844D01*
X56073582Y-77058441D01*
X56017381Y-77006520D01*
X55976971Y-76902281D01*
X55946745Y-76673328D01*
X55931987Y-76364210D01*
X55931333Y-76281003D01*
X55931333Y-75608666D01*
X56227763Y-75608666D01*
X56524193Y-75608666D01*
X56518486Y-76753613D01*
G37*
G36*
X56524000Y-73318776D02*
G01*
X56519361Y-73467265D01*
X56488614Y-73581396D01*
X56406517Y-73686710D01*
X56247824Y-73808749D01*
X55987291Y-73973054D01*
X55717368Y-74134913D01*
X55388532Y-74334726D01*
X55116506Y-74506760D01*
X54932769Y-74630673D01*
X54869716Y-74682646D01*
X54930308Y-74706063D01*
X55126382Y-74716582D01*
X55424518Y-74713378D01*
X55676347Y-74702513D01*
X56524000Y-74656005D01*
X56524000Y-75052240D01*
X56524000Y-75448474D01*
X55021166Y-75422737D01*
X53518333Y-75397000D01*
X53492455Y-75086201D01*
X53485682Y-74948608D01*
X53508439Y-74841781D01*
X53585073Y-74741077D01*
X53739935Y-74621851D01*
X53997373Y-74459461D01*
X54277919Y-74291232D01*
X54608335Y-74090142D01*
X54882472Y-73915942D01*
X55068731Y-73789184D01*
X55134294Y-73734197D01*
X55075374Y-73703694D01*
X54880572Y-73679467D01*
X54583309Y-73664572D01*
X54337644Y-73661333D01*
X53495961Y-73661333D01*
X53491287Y-73322666D01*
X53486613Y-72984000D01*
X55005306Y-72984000D01*
X56524000Y-72984000D01*
X56524000Y-73318776D01*
G37*
G36*
X56414225Y-63581528D02*
G01*
X56500079Y-63662548D01*
X56523444Y-63854299D01*
X56524000Y-63924666D01*
X56524000Y-64263333D01*
X55190500Y-64273155D01*
X54749725Y-64278605D01*
X54387532Y-64287366D01*
X54128691Y-64298476D01*
X53997975Y-64310975D01*
X53994091Y-64319563D01*
X54065806Y-64371449D01*
X54110652Y-64502103D01*
X54135554Y-64744042D01*
X54145586Y-65030905D01*
X54149328Y-65369145D01*
X54136619Y-65576703D01*
X54098225Y-65692077D01*
X54024908Y-65753762D01*
X53966161Y-65778825D01*
X53751488Y-65827654D01*
X53606565Y-65771436D01*
X53520217Y-65592926D01*
X53481272Y-65274879D01*
X53476000Y-65022354D01*
X53478942Y-64686682D01*
X53494269Y-64485469D01*
X53531729Y-64383862D01*
X53601071Y-64347009D01*
X53666500Y-64341316D01*
X53778594Y-64323502D01*
X53730000Y-64286287D01*
X53555118Y-64157506D01*
X53482214Y-63924512D01*
X53477296Y-63818833D01*
X53476000Y-63586000D01*
X54788333Y-63575416D01*
X55250571Y-63571752D01*
X55658477Y-63568638D01*
X55979429Y-63566314D01*
X56180804Y-63565020D01*
X56227666Y-63564833D01*
X56414225Y-63581528D01*
G37*
G36*
X56524000Y-84244666D02*
G01*
X56524000Y-84583333D01*
X56021705Y-84583333D01*
X55733461Y-84575294D01*
X55570612Y-84542126D01*
X55489614Y-84470253D01*
X55464251Y-84409542D01*
X55401684Y-84291571D01*
X55305353Y-84322634D01*
X55281004Y-84342055D01*
X55200846Y-84433702D01*
X55272533Y-84494797D01*
X55309291Y-84509895D01*
X55317560Y-84541204D01*
X55180682Y-84562712D01*
X54922734Y-84570703D01*
X54915333Y-84570698D01*
X54653590Y-84564775D01*
X54492050Y-84549929D01*
X54464889Y-84529345D01*
X54466077Y-84528846D01*
X54528857Y-84428699D01*
X54517794Y-84359097D01*
X54457021Y-84282554D01*
X54407014Y-84329849D01*
X54317628Y-84355900D01*
X54280333Y-84329006D01*
X54158460Y-84241123D01*
X54122463Y-84206100D01*
X53999574Y-84075333D01*
X54153333Y-84075333D01*
X54221909Y-84150448D01*
X54280333Y-84160000D01*
X54393005Y-84114282D01*
X54407333Y-84075333D01*
X54338756Y-84000219D01*
X54280333Y-83990666D01*
X54167661Y-84036384D01*
X54153333Y-84075333D01*
X53999574Y-84075333D01*
X53977433Y-84051773D01*
X53902255Y-83953615D01*
X53899333Y-83944485D01*
X53979199Y-83931296D01*
X54199605Y-83920054D01*
X54531759Y-83911605D01*
X54946871Y-83906792D01*
X55211666Y-83906000D01*
X56524000Y-83906000D01*
X56524000Y-84244666D01*
G37*
G36*
X56507803Y-65377255D02*
G01*
X56523004Y-65568452D01*
X56524000Y-65691187D01*
X56517165Y-65946788D01*
X56478021Y-66084016D01*
X56378607Y-66153773D01*
X56248833Y-66192136D01*
X56087051Y-66246627D01*
X55998356Y-66335561D01*
X55952146Y-66508494D01*
X55928141Y-66711487D01*
X55905246Y-66952283D01*
X55919176Y-67098056D01*
X56001793Y-67190549D01*
X56184957Y-67271509D01*
X56418166Y-67353521D01*
X56488009Y-67457219D01*
X56522649Y-67673417D01*
X56524000Y-67732009D01*
X56509827Y-67954972D01*
X56452962Y-68053906D01*
X56356982Y-68073333D01*
X56210489Y-68046027D01*
X55935755Y-67970691D01*
X55563666Y-67857197D01*
X55274934Y-67763854D01*
X55125105Y-67715416D01*
X54650958Y-67555219D01*
X54172111Y-67386480D01*
X53920500Y-67294561D01*
X53667989Y-67195418D01*
X53535594Y-67108141D01*
X53484528Y-66986077D01*
X53476005Y-66782574D01*
X53476000Y-66759913D01*
X53477324Y-66743229D01*
X54551814Y-66743229D01*
X54676977Y-66820182D01*
X54869210Y-66878213D01*
X55134746Y-66943319D01*
X55274934Y-66957100D01*
X55329667Y-66905227D01*
X55338839Y-66773373D01*
X55338666Y-66709608D01*
X55322031Y-66531727D01*
X55255251Y-66486205D01*
X55190500Y-66503871D01*
X54994436Y-66564334D01*
X54807738Y-66608531D01*
X54595323Y-66672337D01*
X54551814Y-66743229D01*
X53477324Y-66743229D01*
X53494907Y-66521733D01*
X53542426Y-66361659D01*
X53565715Y-66334546D01*
X53672888Y-66288887D01*
X53910841Y-66198665D01*
X54250308Y-66074631D01*
X54662022Y-65927533D01*
X54941548Y-65829180D01*
X55388924Y-65672243D01*
X55787797Y-65531512D01*
X56107223Y-65417965D01*
X56316262Y-65342584D01*
X56375833Y-65320239D01*
X56463361Y-65306072D01*
X56507803Y-65377255D01*
G37*
G36*
X56524000Y-68620601D02*
G01*
X56524000Y-68998535D01*
X55698500Y-69022767D01*
X54873000Y-69047000D01*
X55571500Y-69457213D01*
X55921614Y-69677715D01*
X56159230Y-69859443D01*
X56265918Y-69987855D01*
X56270000Y-70008446D01*
X56197174Y-70122457D01*
X55992474Y-70293306D01*
X55676563Y-70504310D01*
X55592666Y-70555376D01*
X55297611Y-70740275D01*
X55067598Y-70899789D01*
X54935019Y-71010663D01*
X54915333Y-71041678D01*
X54994481Y-71076721D01*
X55210353Y-71099883D01*
X55530588Y-71108470D01*
X55698500Y-71106892D01*
X56481666Y-71091715D01*
X56507701Y-71445191D01*
X56533736Y-71798666D01*
X55195368Y-71797510D01*
X54612164Y-71795526D01*
X54365000Y-71790881D01*
X54177187Y-71787352D01*
X53869336Y-71767931D01*
X53667507Y-71732209D01*
X53550599Y-71675131D01*
X53497510Y-71591641D01*
X53487137Y-71476684D01*
X53492713Y-71389616D01*
X53500969Y-71333000D01*
X54322666Y-71333000D01*
X54365000Y-71375333D01*
X54407333Y-71333000D01*
X54365000Y-71290666D01*
X54322666Y-71333000D01*
X53500969Y-71333000D01*
X53512237Y-71255733D01*
X53561797Y-71144770D01*
X53666804Y-71033460D01*
X53852667Y-70898538D01*
X54144796Y-70716737D01*
X54382191Y-70575155D01*
X54718752Y-70372013D01*
X54994716Y-70198588D01*
X55181378Y-70073401D01*
X55250025Y-70015181D01*
X55185628Y-69948689D01*
X55021562Y-69845459D01*
X54978833Y-69822331D01*
X54772925Y-69707466D01*
X54481058Y-69536882D01*
X54160985Y-69344419D01*
X54111000Y-69313847D01*
X53814088Y-69125142D01*
X53634058Y-68985329D01*
X53539792Y-68861013D01*
X53500176Y-68718802D01*
X53492739Y-68650332D01*
X53490240Y-68446317D01*
X53557904Y-68348515D01*
X53736156Y-68296469D01*
X53915910Y-68277240D01*
X54226626Y-68261050D01*
X54629938Y-68249248D01*
X55087483Y-68243185D01*
X55264583Y-68242666D01*
X56524000Y-68242666D01*
X56524000Y-68620601D01*
G37*
G36*
X56524000Y-82678333D02*
G01*
X56524000Y-83821333D01*
X56382888Y-83821333D01*
X56227666Y-83821333D01*
X56213555Y-83821333D01*
X55931333Y-83821333D01*
X55931333Y-83148997D01*
X55941477Y-82826987D01*
X55968389Y-82574184D01*
X56006783Y-82435139D01*
X56017381Y-82423480D01*
X56082245Y-82341368D01*
X56203422Y-82341368D01*
X56213555Y-82353778D01*
X56263889Y-82342155D01*
X56263996Y-82341368D01*
X56372755Y-82341368D01*
X56382888Y-82353778D01*
X56433223Y-82342155D01*
X56439333Y-82297333D01*
X56408355Y-82227643D01*
X56382888Y-82240889D01*
X56372755Y-82341368D01*
X56263996Y-82341368D01*
X56270000Y-82297333D01*
X56239021Y-82227643D01*
X56213555Y-82240889D01*
X56203422Y-82341368D01*
X56082245Y-82341368D01*
X56084639Y-82338337D01*
X55993084Y-82270529D01*
X55752657Y-82223411D01*
X55550333Y-82211104D01*
X55373299Y-82200336D01*
X55354836Y-82199950D01*
X55043665Y-82192208D01*
X54889231Y-82182125D01*
X54878939Y-82166347D01*
X55000195Y-82141520D01*
X55084666Y-82128000D01*
X55465666Y-82068766D01*
X55105833Y-82045466D01*
X54824058Y-82025846D01*
X54665449Y-82007950D01*
X54642280Y-82001000D01*
X55508000Y-82001000D01*
X55550333Y-82043333D01*
X55592666Y-82001000D01*
X55550333Y-81958666D01*
X55508000Y-82001000D01*
X54642280Y-82001000D01*
X54584129Y-81983556D01*
X54534221Y-81944439D01*
X54532475Y-81942697D01*
X54574987Y-81918810D01*
X54745310Y-81917403D01*
X54937174Y-81932181D01*
X55202777Y-81945292D01*
X55391941Y-81927886D01*
X55449616Y-81899970D01*
X55414211Y-81853966D01*
X55250869Y-81853293D01*
X55228361Y-81856077D01*
X55051416Y-81874697D01*
X55022635Y-81849549D01*
X55122748Y-81762134D01*
X55127000Y-81758783D01*
X55234456Y-81662333D01*
X55423333Y-81662333D01*
X55465666Y-81704666D01*
X55508000Y-81662333D01*
X55465666Y-81620000D01*
X55423333Y-81662333D01*
X55234456Y-81662333D01*
X55235858Y-81661075D01*
X55210912Y-81626442D01*
X55152373Y-81622693D01*
X54992547Y-81686943D01*
X54930398Y-81759406D01*
X54861175Y-81849598D01*
X54769975Y-81835263D01*
X54653352Y-81759406D01*
X54489434Y-81657991D01*
X54393721Y-81620000D01*
X54343690Y-81686170D01*
X54348429Y-81838908D01*
X54395041Y-82009557D01*
X54470629Y-82129459D01*
X54492000Y-82143216D01*
X54528998Y-82186510D01*
X54400428Y-82206233D01*
X54384510Y-82206716D01*
X54219033Y-82190712D01*
X54176051Y-82099405D01*
X54188407Y-82000980D01*
X54169340Y-81798052D01*
X54068629Y-81704647D01*
X53842283Y-81625952D01*
X53691337Y-81657619D01*
X53646629Y-81768166D01*
X53661034Y-81866769D01*
X53722841Y-81810091D01*
X53737742Y-81789333D01*
X53802849Y-81710963D01*
X53796924Y-81775542D01*
X53794654Y-81784041D01*
X53710569Y-81923359D01*
X53613226Y-81917590D01*
X53561136Y-81774232D01*
X53560666Y-81754055D01*
X53560666Y-81535333D01*
X55042333Y-81535333D01*
X56524000Y-81535333D01*
X56524000Y-82678333D01*
G37*
D11*
X59530000Y-83030000D02*
X59530000Y-85750000D01*
X59530000Y-90250000D02*
X59530000Y-94620000D01*
X61350000Y-94620000D02*
X59530000Y-94620000D01*
X70470000Y-83030000D02*
X59530000Y-83030000D01*
X70470000Y-83030000D02*
X70470000Y-85750000D01*
X70470000Y-90250000D02*
X70470000Y-94620000D01*
X70470000Y-94620000D02*
X68650000Y-94620000D01*
X53970000Y-90615000D02*
X59040000Y-90615000D01*
X53970000Y-100385000D02*
X53970000Y-90615000D01*
X53970000Y-100385000D02*
X59040000Y-100385000D01*
X59040000Y-100385000D02*
X59040000Y-90615000D01*
X59530000Y-55030000D02*
X59530000Y-57750000D01*
X59530000Y-62250000D02*
X59530000Y-66620000D01*
X61350000Y-66620000D02*
X59530000Y-66620000D01*
X70470000Y-55030000D02*
X59530000Y-55030000D01*
X70470000Y-55030000D02*
X70470000Y-57750000D01*
X70470000Y-62250000D02*
X70470000Y-66620000D01*
X70470000Y-66620000D02*
X68650000Y-66620000D01*
%LPC*%
D13*
X56000000Y-146900000D03*
D14*
X56000000Y-158300000D03*
X56000000Y-150000000D03*
D15*
X71480000Y-140000000D03*
D14*
X60080000Y-140000000D03*
X68380000Y-140000000D03*
D13*
X74000000Y-146900000D03*
D14*
X74000000Y-158300000D03*
X74000000Y-150000000D03*
D16*
X60250000Y-115000000D03*
X69750000Y-115000000D03*
D17*
X62500000Y-122500000D03*
D18*
X65000000Y-122500000D03*
X67500000Y-122500000D03*
D19*
X56500000Y-119950000D03*
X56500000Y-122490000D03*
X56500000Y-125030000D03*
D16*
X60250000Y-88000000D03*
X69750000Y-88000000D03*
D17*
X62500000Y-95500000D03*
D18*
X65000000Y-95500000D03*
X67500000Y-95500000D03*
D19*
X56500000Y-92960000D03*
X56500000Y-95500000D03*
X56500000Y-98040000D03*
D16*
X60250000Y-60000000D03*
X69750000Y-60000000D03*
D17*
X62500000Y-67500000D03*
D18*
X65000000Y-67500000D03*
X67500000Y-67500000D03*
D20*
X74000000Y-75000000D03*
D21*
X74000000Y-72460000D03*
X71460000Y-75000000D03*
X71460000Y-72460000D03*
X68920000Y-75000000D03*
X68920000Y-72460000D03*
X66380000Y-75000000D03*
X66380000Y-72460000D03*
X63840000Y-75000000D03*
X63840000Y-72460000D03*
D22*
X77250000Y-80400000D03*
X51900000Y-139500000D03*
D23*
X77382380Y-53800000D03*
D24*
X74882380Y-53800000D03*
D22*
X51900000Y-58400000D03*
X72500000Y-110000000D03*
D23*
X55100000Y-53800000D03*
D24*
X52600000Y-53800000D03*
D22*
X78100000Y-58400000D03*
X53500000Y-105000000D03*
X65000000Y-53100000D03*
X52800000Y-111000000D03*
X65750000Y-128750000D03*
%LPD*%
M02*
