G04 #@! TF.GenerationSoftware,KiCad,Pcbnew,8.0.5*
G04 #@! TF.CreationDate,2024-11-24T11:29:42+01:00*
G04 #@! TF.ProjectId,wavefolder,77617665-666f-46c6-9465-722e6b696361,rev?*
G04 #@! TF.SameCoordinates,Original*
G04 #@! TF.FileFunction,Soldermask,Bot*
G04 #@! TF.FilePolarity,Negative*
%FSLAX46Y46*%
G04 Gerber Fmt 4.6, Leading zero omitted, Abs format (unit mm)*
G04 Created by KiCad (PCBNEW 8.0.5) date 2024-11-24 11:29:42*
%MOMM*%
%LPD*%
G01*
G04 APERTURE LIST*
G04 Aperture macros list*
%AMRoundRect*
0 Rectangle with rounded corners*
0 $1 Rounding radius*
0 $2 $3 $4 $5 $6 $7 $8 $9 X,Y pos of 4 corners*
0 Add a 4 corners polygon primitive as box body*
4,1,4,$2,$3,$4,$5,$6,$7,$8,$9,$2,$3,0*
0 Add four circle primitives for the rounded corners*
1,1,$1+$1,$2,$3*
1,1,$1+$1,$4,$5*
1,1,$1+$1,$6,$7*
1,1,$1+$1,$8,$9*
0 Add four rect primitives between the rounded corners*
20,1,$1+$1,$2,$3,$4,$5,0*
20,1,$1+$1,$4,$5,$6,$7,0*
20,1,$1+$1,$6,$7,$8,$9,0*
20,1,$1+$1,$8,$9,$2,$3,0*%
G04 Aperture macros list end*
%ADD10R,1.930000X1.830000*%
%ADD11C,2.130000*%
%ADD12R,1.830000X1.930000*%
%ADD13O,4.000000X4.000000*%
%ADD14R,1.800000X1.800000*%
%ADD15C,1.800000*%
%ADD16C,1.440000*%
%ADD17RoundRect,0.150000X-0.587500X-0.150000X0.587500X-0.150000X0.587500X0.150000X-0.587500X0.150000X0*%
%ADD18RoundRect,0.250000X0.350000X0.450000X-0.350000X0.450000X-0.350000X-0.450000X0.350000X-0.450000X0*%
%ADD19RoundRect,0.250000X0.600000X-0.600000X0.600000X0.600000X-0.600000X0.600000X-0.600000X-0.600000X0*%
%ADD20C,1.700000*%
%ADD21RoundRect,0.250000X-0.350000X-0.450000X0.350000X-0.450000X0.350000X0.450000X-0.350000X0.450000X0*%
%ADD22RoundRect,0.225000X0.225000X0.375000X-0.225000X0.375000X-0.225000X-0.375000X0.225000X-0.375000X0*%
%ADD23RoundRect,0.250000X0.450000X-0.350000X0.450000X0.350000X-0.450000X0.350000X-0.450000X-0.350000X0*%
%ADD24RoundRect,0.150000X-0.825000X-0.150000X0.825000X-0.150000X0.825000X0.150000X-0.825000X0.150000X0*%
%ADD25C,2.000000*%
%ADD26RoundRect,0.225000X-0.225000X-0.375000X0.225000X-0.375000X0.225000X0.375000X-0.225000X0.375000X0*%
%ADD27RoundRect,0.250000X-0.450000X0.350000X-0.450000X-0.350000X0.450000X-0.350000X0.450000X0.350000X0*%
%ADD28RoundRect,0.150000X0.587500X0.150000X-0.587500X0.150000X-0.587500X-0.150000X0.587500X-0.150000X0*%
%ADD29RoundRect,0.225000X0.375000X-0.225000X0.375000X0.225000X-0.375000X0.225000X-0.375000X-0.225000X0*%
%ADD30R,1.600000X1.600000*%
%ADD31C,1.600000*%
%ADD32RoundRect,0.250000X0.475000X-0.337500X0.475000X0.337500X-0.475000X0.337500X-0.475000X-0.337500X0*%
%ADD33RoundRect,0.225000X-0.375000X0.225000X-0.375000X-0.225000X0.375000X-0.225000X0.375000X0.225000X0*%
%ADD34RoundRect,0.250000X0.337500X0.475000X-0.337500X0.475000X-0.337500X-0.475000X0.337500X-0.475000X0*%
%ADD35RoundRect,0.150000X-0.150000X0.725000X-0.150000X-0.725000X0.150000X-0.725000X0.150000X0.725000X0*%
G04 APERTURE END LIST*
D10*
X56000000Y-146900000D03*
D11*
X56000000Y-158300000D03*
X56000000Y-150000000D03*
D12*
X71480000Y-140000000D03*
D11*
X60080000Y-140000000D03*
X68380000Y-140000000D03*
D10*
X74000000Y-146900000D03*
D11*
X74000000Y-158300000D03*
X74000000Y-150000000D03*
D13*
X60250000Y-115000000D03*
X69750000Y-115000000D03*
D14*
X62500000Y-122500000D03*
D15*
X65000000Y-122500000D03*
X67500000Y-122500000D03*
D16*
X56500000Y-119950000D03*
X56500000Y-122490000D03*
X56500000Y-125030000D03*
D13*
X60250000Y-88000000D03*
X69750000Y-88000000D03*
D14*
X62500000Y-95500000D03*
D15*
X65000000Y-95500000D03*
X67500000Y-95500000D03*
D16*
X56500000Y-92960000D03*
X56500000Y-95500000D03*
X56500000Y-98040000D03*
D13*
X60250000Y-60000000D03*
X69750000Y-60000000D03*
D14*
X62500000Y-67500000D03*
D15*
X65000000Y-67500000D03*
X67500000Y-67500000D03*
D17*
X58437500Y-154450000D03*
X58437500Y-152550000D03*
X60312500Y-153500000D03*
D18*
X66000000Y-110750000D03*
X64000000Y-110750000D03*
D19*
X74000000Y-75000000D03*
D20*
X74000000Y-72460000D03*
X71460000Y-75000000D03*
X71460000Y-72460000D03*
X68920000Y-75000000D03*
X68920000Y-72460000D03*
X66380000Y-75000000D03*
X66380000Y-72460000D03*
X63840000Y-75000000D03*
X63840000Y-72460000D03*
D21*
X69750000Y-96200000D03*
X71750000Y-96200000D03*
D22*
X66650000Y-87200000D03*
X63350000Y-87200000D03*
D23*
X58250000Y-102000000D03*
X58250000Y-100000000D03*
D24*
X62500000Y-108870000D03*
X62500000Y-107600000D03*
X62500000Y-106330000D03*
X62500000Y-105060000D03*
X62500000Y-103790000D03*
X62500000Y-102520000D03*
X62500000Y-101250000D03*
X67450000Y-101250000D03*
X67450000Y-102520000D03*
X67450000Y-103790000D03*
X67450000Y-105060000D03*
X67450000Y-106330000D03*
X67450000Y-107600000D03*
X67450000Y-108870000D03*
D25*
X77250000Y-80400000D03*
X51900000Y-139500000D03*
D26*
X53750000Y-75200000D03*
X57050000Y-75200000D03*
X53750000Y-65600000D03*
X57050000Y-65600000D03*
D27*
X60250000Y-100000000D03*
X60250000Y-102000000D03*
D28*
X56187500Y-152550000D03*
X56187500Y-154450000D03*
X54312500Y-153500000D03*
D29*
X76300000Y-101250000D03*
X76300000Y-97950000D03*
D27*
X57250000Y-130500000D03*
X57250000Y-132500000D03*
D21*
X69750000Y-98200000D03*
X71750000Y-98200000D03*
D27*
X58750000Y-122500000D03*
X58750000Y-124500000D03*
X58900000Y-142100000D03*
X58900000Y-144100000D03*
D21*
X58250000Y-158500000D03*
X60250000Y-158500000D03*
D23*
X55250000Y-132500000D03*
X55250000Y-130500000D03*
D26*
X53750000Y-80000000D03*
X57050000Y-80000000D03*
D18*
X60250000Y-156500000D03*
X58250000Y-156500000D03*
D30*
X77382380Y-53800000D03*
D31*
X74882380Y-53800000D03*
D22*
X71650000Y-53700000D03*
X68350000Y-53700000D03*
D32*
X52250000Y-136437500D03*
X52250000Y-134362500D03*
D23*
X76300000Y-158300000D03*
X76300000Y-156300000D03*
X58900000Y-65300000D03*
X58900000Y-63300000D03*
D22*
X57050000Y-82400000D03*
X53750000Y-82400000D03*
D21*
X73300000Y-84900000D03*
X75300000Y-84900000D03*
D33*
X58000000Y-107600000D03*
X58000000Y-110900000D03*
D21*
X69500000Y-51500000D03*
X71500000Y-51500000D03*
D23*
X52000000Y-65300000D03*
X52000000Y-63300000D03*
D29*
X55600000Y-110900000D03*
X55600000Y-107600000D03*
D22*
X57050000Y-87200000D03*
X53750000Y-87200000D03*
D25*
X51900000Y-58400000D03*
D22*
X57050000Y-68000000D03*
X53750000Y-68000000D03*
D26*
X63350000Y-80000000D03*
X66650000Y-80000000D03*
D25*
X72500000Y-110000000D03*
D26*
X53750000Y-60800000D03*
X57050000Y-60800000D03*
D34*
X62537500Y-134500000D03*
X60462500Y-134500000D03*
D22*
X66650000Y-82400000D03*
X63350000Y-82400000D03*
D26*
X53750000Y-70400000D03*
X57050000Y-70400000D03*
D22*
X61650000Y-53700000D03*
X58350000Y-53700000D03*
D18*
X53300000Y-148000000D03*
X51300000Y-148000000D03*
D33*
X73900000Y-97950000D03*
X73900000Y-101250000D03*
D21*
X52600000Y-98100000D03*
X54600000Y-98100000D03*
D27*
X53000000Y-141900000D03*
X53000000Y-143900000D03*
D17*
X58800000Y-128100000D03*
X58800000Y-126200000D03*
X60675000Y-127150000D03*
D34*
X59337500Y-105100000D03*
X57262500Y-105100000D03*
D18*
X56950000Y-142000000D03*
X54950000Y-142000000D03*
D22*
X57050000Y-72800000D03*
X53750000Y-72800000D03*
D18*
X55900000Y-89400000D03*
X53900000Y-89400000D03*
D23*
X69750000Y-110000000D03*
X69750000Y-108000000D03*
D27*
X52000000Y-67100000D03*
X52000000Y-69100000D03*
D30*
X55100000Y-53800000D03*
D31*
X52600000Y-53800000D03*
D25*
X78100000Y-58400000D03*
D21*
X73300000Y-82500000D03*
X75300000Y-82500000D03*
D18*
X60500000Y-51500000D03*
X58500000Y-51500000D03*
X61250000Y-150750000D03*
X59250000Y-150750000D03*
D26*
X63350000Y-84800000D03*
X66650000Y-84800000D03*
D21*
X52600000Y-93000000D03*
X54600000Y-93000000D03*
D34*
X73037500Y-105100000D03*
X70962500Y-105100000D03*
D23*
X53250000Y-132500000D03*
X53250000Y-130500000D03*
D22*
X57050000Y-77600000D03*
X53750000Y-77600000D03*
D25*
X53500000Y-105000000D03*
D26*
X53750000Y-84800000D03*
X57050000Y-84800000D03*
D21*
X54800000Y-127000000D03*
X56800000Y-127000000D03*
X58800000Y-80000000D03*
X60800000Y-80000000D03*
D23*
X60200000Y-109740000D03*
X60200000Y-107740000D03*
D18*
X56950000Y-144200000D03*
X54950000Y-144200000D03*
D35*
X54230000Y-134675000D03*
X55500000Y-134675000D03*
X56770000Y-134675000D03*
X58040000Y-134675000D03*
X58040000Y-139825000D03*
X56770000Y-139825000D03*
X55500000Y-139825000D03*
X54230000Y-139825000D03*
D22*
X57050000Y-63200000D03*
X53750000Y-63200000D03*
D21*
X60500000Y-91300000D03*
X62500000Y-91300000D03*
D27*
X65000000Y-63300000D03*
X65000000Y-65300000D03*
X59250000Y-130500000D03*
X59250000Y-132500000D03*
D25*
X65000000Y-53100000D03*
D18*
X71750000Y-101050000D03*
X69750000Y-101050000D03*
D25*
X52800000Y-111000000D03*
X65750000Y-128750000D03*
M02*
