G04 #@! TF.GenerationSoftware,KiCad,Pcbnew,8.0.2-1*
G04 #@! TF.CreationDate,2024-09-25T20:59:28+02:00*
G04 #@! TF.ProjectId,wavefolder,77617665-666f-46c6-9465-722e6b696361,rev?*
G04 #@! TF.SameCoordinates,Original*
G04 #@! TF.FileFunction,Copper,L1,Top*
G04 #@! TF.FilePolarity,Positive*
%FSLAX46Y46*%
G04 Gerber Fmt 4.6, Leading zero omitted, Abs format (unit mm)*
G04 Created by KiCad (PCBNEW 8.0.2-1) date 2024-09-25 20:59:28*
%MOMM*%
%LPD*%
G01*
G04 APERTURE LIST*
G04 Aperture macros list*
%AMRoundRect*
0 Rectangle with rounded corners*
0 $1 Rounding radius*
0 $2 $3 $4 $5 $6 $7 $8 $9 X,Y pos of 4 corners*
0 Add a 4 corners polygon primitive as box body*
4,1,4,$2,$3,$4,$5,$6,$7,$8,$9,$2,$3,0*
0 Add four circle primitives for the rounded corners*
1,1,$1+$1,$2,$3*
1,1,$1+$1,$4,$5*
1,1,$1+$1,$6,$7*
1,1,$1+$1,$8,$9*
0 Add four rect primitives between the rounded corners*
20,1,$1+$1,$2,$3,$4,$5,0*
20,1,$1+$1,$4,$5,$6,$7,0*
20,1,$1+$1,$6,$7,$8,$9,0*
20,1,$1+$1,$8,$9,$2,$3,0*%
G04 Aperture macros list end*
G04 #@! TA.AperFunction,ComponentPad*
%ADD10R,1.930000X1.830000*%
G04 #@! TD*
G04 #@! TA.AperFunction,ComponentPad*
%ADD11C,2.130000*%
G04 #@! TD*
G04 #@! TA.AperFunction,ComponentPad*
%ADD12C,2.000000*%
G04 #@! TD*
G04 #@! TA.AperFunction,ComponentPad*
%ADD13R,1.830000X1.930000*%
G04 #@! TD*
G04 #@! TA.AperFunction,ComponentPad*
%ADD14O,4.000000X4.000000*%
G04 #@! TD*
G04 #@! TA.AperFunction,ComponentPad*
%ADD15R,1.800000X1.800000*%
G04 #@! TD*
G04 #@! TA.AperFunction,ComponentPad*
%ADD16C,1.800000*%
G04 #@! TD*
G04 #@! TA.AperFunction,ComponentPad*
%ADD17C,1.440000*%
G04 #@! TD*
G04 #@! TA.AperFunction,SMDPad,CuDef*
%ADD18RoundRect,0.250000X0.450000X-0.350000X0.450000X0.350000X-0.450000X0.350000X-0.450000X-0.350000X0*%
G04 #@! TD*
G04 #@! TA.AperFunction,ComponentPad*
%ADD19R,1.600000X1.600000*%
G04 #@! TD*
G04 #@! TA.AperFunction,ComponentPad*
%ADD20C,1.600000*%
G04 #@! TD*
G04 #@! TA.AperFunction,ComponentPad*
%ADD21RoundRect,0.250000X-0.600000X0.600000X-0.600000X-0.600000X0.600000X-0.600000X0.600000X0.600000X0*%
G04 #@! TD*
G04 #@! TA.AperFunction,ComponentPad*
%ADD22C,1.700000*%
G04 #@! TD*
G04 #@! TA.AperFunction,ViaPad*
%ADD23C,1.000000*%
G04 #@! TD*
G04 #@! TA.AperFunction,ViaPad*
%ADD24C,0.800000*%
G04 #@! TD*
G04 #@! TA.AperFunction,Conductor*
%ADD25C,0.300000*%
G04 #@! TD*
G04 #@! TA.AperFunction,Conductor*
%ADD26C,0.500000*%
G04 #@! TD*
G04 APERTURE END LIST*
D10*
X106000000Y-146900000D03*
D11*
X106000000Y-158300000D03*
X106000000Y-150000000D03*
D12*
X103700000Y-58900000D03*
D13*
X121480000Y-140000000D03*
D11*
X110080000Y-140000000D03*
X118380000Y-140000000D03*
D10*
X124000000Y-146900000D03*
D11*
X124000000Y-158300000D03*
X124000000Y-150000000D03*
D14*
X110250000Y-115000000D03*
X119750000Y-115000000D03*
D15*
X112500000Y-122500000D03*
D16*
X115000000Y-122500000D03*
X117500000Y-122500000D03*
D17*
X106500000Y-119950000D03*
X106500000Y-122490000D03*
X106500000Y-125030000D03*
D14*
X110250000Y-88000000D03*
X119750000Y-88000000D03*
D15*
X112500000Y-95500000D03*
D16*
X115000000Y-95500000D03*
X117500000Y-95500000D03*
D17*
X106500000Y-92960000D03*
X106500000Y-95500000D03*
X106500000Y-98040000D03*
D14*
X110250000Y-60000000D03*
X119750000Y-60000000D03*
D15*
X112500000Y-67500000D03*
D16*
X115000000Y-67500000D03*
X117500000Y-67500000D03*
D18*
X117900000Y-159000000D03*
X117900000Y-157000000D03*
X112100000Y-159000000D03*
X112100000Y-157000000D03*
D12*
X115000000Y-51800000D03*
X126200000Y-58800000D03*
X123600000Y-87300000D03*
D19*
X103700000Y-52500000D03*
D20*
X103700000Y-55000000D03*
D12*
X109900000Y-82400000D03*
X102600000Y-130900000D03*
D21*
X113840000Y-72750000D03*
D22*
X113840000Y-75290000D03*
X116380000Y-72750000D03*
X116380000Y-75290000D03*
X118920000Y-72750000D03*
X118920000Y-75290000D03*
X121460000Y-72750000D03*
X121460000Y-75290000D03*
X124000000Y-72750000D03*
X124000000Y-75290000D03*
D19*
X126250000Y-54932380D03*
D20*
X126250000Y-52432380D03*
D12*
X124400000Y-114400000D03*
X126100000Y-89600000D03*
X104900000Y-67700000D03*
D23*
X118000000Y-106900000D03*
X118200000Y-125400000D03*
X102400000Y-136500000D03*
X103700000Y-105300000D03*
X106500000Y-128400000D03*
D24*
X106300000Y-110700000D03*
X120600000Y-137500000D03*
X102900000Y-82400000D03*
X118100000Y-81150000D03*
X122500000Y-83200000D03*
X108890331Y-99929669D03*
X116250000Y-93300000D03*
X117500000Y-86000000D03*
X101575736Y-141100000D03*
X101550000Y-105600000D03*
X118800000Y-155500000D03*
X116000000Y-158800000D03*
X104600003Y-119700000D03*
X110700001Y-145100000D03*
X106900000Y-118500000D03*
X115000000Y-117400000D03*
X108150000Y-126000000D03*
X128650000Y-81500000D03*
X104900000Y-116500000D03*
X107150000Y-101900000D03*
X106400000Y-109400000D03*
X106000000Y-84400000D03*
X113300000Y-137500000D03*
X102100000Y-125600000D03*
X103600000Y-119700000D03*
X112600000Y-155400000D03*
X112200000Y-78500000D03*
X115600000Y-81650000D03*
X110015238Y-109938314D03*
X115900000Y-146400000D03*
X113750000Y-128600000D03*
X120900000Y-109800000D03*
X114100000Y-112900000D03*
X109400000Y-101500000D03*
X127500000Y-86200000D03*
D25*
X124400000Y-114400000D02*
X124400000Y-115400000D01*
X122400000Y-117400000D02*
X115000000Y-117400000D01*
X124400000Y-115400000D02*
X122400000Y-117400000D01*
X115900000Y-146400000D02*
X113200000Y-143700000D01*
X113200000Y-143700000D02*
X113200000Y-138660661D01*
X114100000Y-128950000D02*
X113750000Y-128600000D01*
X113200000Y-138660661D02*
X114100000Y-137760661D01*
X114100000Y-137760661D02*
X114100000Y-128950000D01*
D26*
X113850000Y-94150000D02*
X126450000Y-94150000D01*
X126200000Y-58800000D02*
X129500000Y-62100000D01*
X129500000Y-91100000D02*
X129500000Y-91000000D01*
X120900000Y-119950000D02*
X127750000Y-119950000D01*
X126900000Y-106900000D02*
X129500000Y-104300000D01*
X129500000Y-104300000D02*
X129500000Y-118200000D01*
X127750000Y-119950000D02*
X129500000Y-118200000D01*
X118000000Y-106900000D02*
X126900000Y-106900000D01*
X126250000Y-54932380D02*
X126250000Y-58750000D01*
X129500000Y-91000000D02*
X129500000Y-104300000D01*
X126450000Y-94150000D02*
X129500000Y-91100000D01*
X118200000Y-125400000D02*
X120900000Y-122700000D01*
X126250000Y-58750000D02*
X126200000Y-58800000D01*
X120900000Y-122700000D02*
X120900000Y-119950000D01*
X112500000Y-95500000D02*
X113850000Y-94150000D01*
X106500000Y-119950000D02*
X120900000Y-119950000D01*
X129500000Y-62100000D02*
X129500000Y-91000000D01*
X106500000Y-125030000D02*
X106500000Y-132400000D01*
X100700000Y-104700000D02*
X100700000Y-61900000D01*
X100700000Y-104700000D02*
X103100000Y-104700000D01*
X103700000Y-58900000D02*
X103700000Y-55000000D01*
X106500000Y-125030000D02*
X103230000Y-125030000D01*
X100700000Y-61900000D02*
X103700000Y-58900000D01*
X100700000Y-122500000D02*
X100700000Y-104700000D01*
X106500000Y-128400000D02*
X106500000Y-125030000D01*
X103100000Y-104700000D02*
X103700000Y-105300000D01*
X103230000Y-125030000D02*
X100700000Y-122500000D01*
X106500000Y-132400000D02*
X102400000Y-136500000D01*
D25*
X113840000Y-72750000D02*
X113840000Y-75290000D01*
X124000000Y-72750000D02*
X124000000Y-75290000D01*
X105200000Y-98960316D02*
X104400000Y-98160316D01*
X102850000Y-121250000D02*
X101800000Y-120200000D01*
X117500000Y-67500000D02*
X115700000Y-65700000D01*
X105200000Y-109460661D02*
X105200000Y-98960316D01*
X106300000Y-110700000D02*
X106300000Y-110560661D01*
X111300000Y-65600000D02*
X103900000Y-65600000D01*
X120600000Y-137500000D02*
X116250000Y-133150000D01*
X116250000Y-133150000D02*
X116250000Y-121982233D01*
X104400000Y-83900000D02*
X102900000Y-82400000D01*
X115700000Y-65700000D02*
X111400000Y-65700000D01*
X102900000Y-66600000D02*
X102900000Y-82400000D01*
X103900000Y-65600000D02*
X102900000Y-66600000D01*
X104900000Y-110700000D02*
X106300000Y-110700000D01*
X111400000Y-65700000D02*
X111300000Y-65600000D01*
X115517767Y-121250000D02*
X102850000Y-121250000D01*
X101800000Y-113800000D02*
X104900000Y-110700000D01*
X101800000Y-120200000D02*
X101800000Y-113800000D01*
X116250000Y-121982233D02*
X115517767Y-121250000D01*
X106300000Y-110560661D02*
X105200000Y-109460661D01*
X104400000Y-98160316D02*
X104400000Y-83900000D01*
X123600000Y-87300000D02*
X123600000Y-84300000D01*
X117850000Y-80900000D02*
X118100000Y-81150000D01*
X108570000Y-91355788D02*
X107900000Y-90685788D01*
X108890331Y-99929669D02*
X108570000Y-99609338D01*
X107900000Y-82414212D02*
X109414212Y-80900000D01*
X109414212Y-80900000D02*
X117850000Y-80900000D01*
X108570000Y-99609338D02*
X108570000Y-91355788D01*
X107900000Y-90685788D02*
X107900000Y-82414212D01*
X123600000Y-84300000D02*
X122500000Y-83200000D01*
X116400000Y-87100000D02*
X117500000Y-86000000D01*
X116400000Y-93150000D02*
X116400000Y-87100000D01*
X116250000Y-93300000D02*
X116400000Y-93150000D01*
X112100000Y-159000000D02*
X112000000Y-159000000D01*
X111300000Y-158300000D02*
X106000000Y-158300000D01*
X112000000Y-159000000D02*
X111300000Y-158300000D01*
X110080000Y-140000000D02*
X112500000Y-137580000D01*
X112500000Y-137580000D02*
X112500000Y-122500000D01*
X117900000Y-159000000D02*
X124300000Y-159000000D01*
X124300000Y-159000000D02*
X125000000Y-158300000D01*
X101575736Y-141100000D02*
X101325736Y-140850000D01*
X101325736Y-132174264D02*
X102600000Y-130900000D01*
X101325736Y-140850000D02*
X101325736Y-132174264D01*
X118800000Y-154260661D02*
X107900000Y-143360661D01*
X108900000Y-125000000D02*
X107600000Y-123700000D01*
X107600000Y-123700000D02*
X102748528Y-123700000D01*
X108900000Y-126310661D02*
X108900000Y-125000000D01*
X107900000Y-127310661D02*
X108900000Y-126310661D01*
X102748528Y-123700000D02*
X101300000Y-122251472D01*
X101300000Y-105850000D02*
X101550000Y-105600000D01*
X118800000Y-155500000D02*
X118800000Y-154260661D01*
X107900000Y-143360661D02*
X107900000Y-127310661D01*
X101300000Y-122251472D02*
X101300000Y-105850000D01*
X116000000Y-158800000D02*
X114200000Y-157000000D01*
X114200000Y-157000000D02*
X112100000Y-157000000D01*
X115000000Y-95500000D02*
X115000000Y-106014213D01*
X115000000Y-106014213D02*
X106900000Y-114114213D01*
X106900000Y-114114213D02*
X106900000Y-117400003D01*
X106900000Y-117400003D02*
X104600003Y-119700000D01*
X110700001Y-145100000D02*
X108400000Y-142799999D01*
X107097106Y-122490000D02*
X106500000Y-122490000D01*
X108400000Y-127517768D02*
X109400000Y-126517768D01*
X109400000Y-124792894D02*
X107097106Y-122490000D01*
X109400000Y-126517768D02*
X109400000Y-124792894D01*
X108400000Y-142799999D02*
X108400000Y-127517768D01*
X106900000Y-118500000D02*
X113900000Y-118500000D01*
X113900000Y-118500000D02*
X115000000Y-117400000D01*
X107400000Y-126750000D02*
X108150000Y-126000000D01*
X107400000Y-143600000D02*
X107400000Y-126750000D01*
X107570000Y-101480000D02*
X107570000Y-91770000D01*
X107650000Y-112657107D02*
X107650000Y-102400000D01*
X106800000Y-91000001D02*
X106800000Y-82100000D01*
X113350000Y-151350000D02*
X113350000Y-149550000D01*
X106800000Y-82100000D02*
X109000000Y-79900000D01*
X117900000Y-155900000D02*
X113350000Y-151350000D01*
X127050000Y-79900000D02*
X128650000Y-81500000D01*
X107150000Y-101900000D02*
X107570000Y-101480000D01*
X117900000Y-157000000D02*
X117900000Y-155900000D01*
X104900000Y-75800000D02*
X109000000Y-79900000D01*
X107570000Y-91770000D02*
X107092893Y-91292894D01*
X107650000Y-102400000D02*
X107150000Y-101900000D01*
X113350000Y-149550000D02*
X107400000Y-143600000D01*
X109000000Y-79900000D02*
X127050000Y-79900000D01*
X104900000Y-116500000D02*
X104900000Y-115407107D01*
X104900000Y-115407107D02*
X107650000Y-112657107D01*
X107092893Y-91292894D02*
X106800000Y-91000001D01*
X104900000Y-67700000D02*
X104900000Y-75800000D01*
X105700000Y-108700000D02*
X105700000Y-98753209D01*
X105700000Y-98753209D02*
X104900000Y-97953209D01*
X106400000Y-109400000D02*
X105700000Y-108700000D01*
X104900000Y-85500000D02*
X106000000Y-84400000D01*
X104900000Y-97953209D02*
X104900000Y-85500000D01*
X113000000Y-137200000D02*
X113000000Y-124500000D01*
X113300000Y-137500000D02*
X113000000Y-137200000D01*
X113000000Y-124500000D02*
X115000000Y-122500000D01*
X103600000Y-115900000D02*
X103600000Y-119700000D01*
X106500000Y-98040000D02*
X106400000Y-98140000D01*
X107150000Y-108950000D02*
X107150000Y-112350000D01*
X100825736Y-152325736D02*
X100825736Y-126874264D01*
X100825736Y-126874264D02*
X102100000Y-125600000D01*
X107150000Y-112350000D02*
X103600000Y-115900000D01*
X106400000Y-98140000D02*
X106400000Y-108200000D01*
X112600000Y-155400000D02*
X103900000Y-155400000D01*
X106400000Y-108200000D02*
X107150000Y-108950000D01*
X103900000Y-155400000D02*
X100825736Y-152325736D01*
X112200000Y-70300000D02*
X115000000Y-67500000D01*
X112200000Y-78500000D02*
X112200000Y-70300000D01*
X115500000Y-81750000D02*
X115500000Y-87000000D01*
X111250000Y-108703552D02*
X110015238Y-109938314D01*
X111250000Y-91250000D02*
X111250000Y-108703552D01*
X115500000Y-87000000D02*
X111250000Y-91250000D01*
X115600000Y-81650000D02*
X115500000Y-81750000D01*
X118700000Y-112000000D02*
X120900000Y-109800000D01*
X115000000Y-112000000D02*
X118700000Y-112000000D01*
X114100000Y-112900000D02*
X115000000Y-112000000D01*
X127500000Y-81600000D02*
X127500000Y-86200000D01*
X109207106Y-80400000D02*
X126300000Y-80400000D01*
X108070000Y-100170000D02*
X108070000Y-91562894D01*
X108070000Y-91562894D02*
X107300000Y-90792894D01*
X107300000Y-82307106D02*
X109207106Y-80400000D01*
X126300000Y-80400000D02*
X127500000Y-81600000D01*
X107300000Y-90792894D02*
X107300000Y-82307106D01*
X109400000Y-101500000D02*
X108070000Y-100170000D01*
G04 #@! TA.AperFunction,NonConductor*
G36*
X122814855Y-73416546D02*
G01*
X122831575Y-73435842D01*
X122961501Y-73621396D01*
X122961506Y-73621402D01*
X123128597Y-73788493D01*
X123128603Y-73788498D01*
X123296623Y-73906147D01*
X123340248Y-73960724D01*
X123349500Y-74007722D01*
X123349500Y-74032278D01*
X123329815Y-74099317D01*
X123296623Y-74133853D01*
X123128597Y-74251505D01*
X122961505Y-74418597D01*
X122831575Y-74604158D01*
X122776998Y-74647783D01*
X122707500Y-74654977D01*
X122645145Y-74623454D01*
X122628425Y-74604158D01*
X122498494Y-74418597D01*
X122331402Y-74251506D01*
X122331396Y-74251501D01*
X122145842Y-74121575D01*
X122102217Y-74066998D01*
X122095023Y-73997500D01*
X122126546Y-73935145D01*
X122145842Y-73918425D01*
X122288325Y-73818657D01*
X122331401Y-73788495D01*
X122498495Y-73621401D01*
X122628425Y-73435842D01*
X122683002Y-73392217D01*
X122752500Y-73385023D01*
X122814855Y-73416546D01*
G37*
G04 #@! TD.AperFunction*
G04 #@! TA.AperFunction,NonConductor*
G36*
X120274855Y-73416546D02*
G01*
X120291575Y-73435842D01*
X120421501Y-73621396D01*
X120421506Y-73621402D01*
X120588597Y-73788493D01*
X120588603Y-73788498D01*
X120774158Y-73918425D01*
X120817783Y-73973002D01*
X120824977Y-74042500D01*
X120793454Y-74104855D01*
X120774158Y-74121575D01*
X120588597Y-74251505D01*
X120421505Y-74418597D01*
X120291575Y-74604158D01*
X120236998Y-74647783D01*
X120167500Y-74654977D01*
X120105145Y-74623454D01*
X120088425Y-74604158D01*
X119958494Y-74418597D01*
X119791402Y-74251506D01*
X119791396Y-74251501D01*
X119605842Y-74121575D01*
X119562217Y-74066998D01*
X119555023Y-73997500D01*
X119586546Y-73935145D01*
X119605842Y-73918425D01*
X119748325Y-73818657D01*
X119791401Y-73788495D01*
X119958495Y-73621401D01*
X120088425Y-73435842D01*
X120143002Y-73392217D01*
X120212500Y-73385023D01*
X120274855Y-73416546D01*
G37*
G04 #@! TD.AperFunction*
G04 #@! TA.AperFunction,NonConductor*
G36*
X117734855Y-73416546D02*
G01*
X117751575Y-73435842D01*
X117881501Y-73621396D01*
X117881506Y-73621402D01*
X118048597Y-73788493D01*
X118048603Y-73788498D01*
X118234158Y-73918425D01*
X118277783Y-73973002D01*
X118284977Y-74042500D01*
X118253454Y-74104855D01*
X118234158Y-74121575D01*
X118048597Y-74251505D01*
X117881505Y-74418597D01*
X117751575Y-74604158D01*
X117696998Y-74647783D01*
X117627500Y-74654977D01*
X117565145Y-74623454D01*
X117548425Y-74604158D01*
X117418494Y-74418597D01*
X117251402Y-74251506D01*
X117251396Y-74251501D01*
X117065842Y-74121575D01*
X117022217Y-74066998D01*
X117015023Y-73997500D01*
X117046546Y-73935145D01*
X117065842Y-73918425D01*
X117208325Y-73818657D01*
X117251401Y-73788495D01*
X117418495Y-73621401D01*
X117548425Y-73435842D01*
X117603002Y-73392217D01*
X117672500Y-73385023D01*
X117734855Y-73416546D01*
G37*
G04 #@! TD.AperFunction*
G04 #@! TA.AperFunction,NonConductor*
G36*
X115300720Y-73588779D02*
G01*
X115337483Y-73617766D01*
X115337677Y-73617573D01*
X115339313Y-73619209D01*
X115340354Y-73620030D01*
X115341501Y-73621397D01*
X115508597Y-73788493D01*
X115508603Y-73788498D01*
X115694158Y-73918425D01*
X115737783Y-73973002D01*
X115744977Y-74042500D01*
X115713454Y-74104855D01*
X115694158Y-74121575D01*
X115508597Y-74251505D01*
X115341505Y-74418597D01*
X115211575Y-74604158D01*
X115156998Y-74647783D01*
X115087500Y-74654977D01*
X115025145Y-74623454D01*
X115008425Y-74604158D01*
X114878494Y-74418597D01*
X114711398Y-74251501D01*
X114710030Y-74250354D01*
X114709592Y-74249696D01*
X114707573Y-74247677D01*
X114707978Y-74247271D01*
X114671330Y-74192182D01*
X114670224Y-74122321D01*
X114707063Y-74062952D01*
X114750737Y-74037662D01*
X114759334Y-74034814D01*
X114908656Y-73942712D01*
X115032712Y-73818656D01*
X115124814Y-73669334D01*
X115127662Y-73660738D01*
X115167429Y-73603294D01*
X115231944Y-73576468D01*
X115300720Y-73588779D01*
G37*
G04 #@! TD.AperFunction*
G04 #@! TA.AperFunction,NonConductor*
G36*
X111082437Y-66270185D02*
G01*
X111084290Y-66271398D01*
X111086038Y-66272566D01*
X111130842Y-66326179D01*
X111139549Y-66395504D01*
X111133328Y-66419000D01*
X111105909Y-66492514D01*
X111105908Y-66492516D01*
X111099501Y-66552116D01*
X111099500Y-66552135D01*
X111099500Y-68447870D01*
X111099501Y-68447876D01*
X111105908Y-68507483D01*
X111156202Y-68642328D01*
X111156206Y-68642335D01*
X111242452Y-68757544D01*
X111242455Y-68757547D01*
X111357664Y-68843793D01*
X111357671Y-68843797D01*
X111492517Y-68894091D01*
X111492516Y-68894091D01*
X111499444Y-68894835D01*
X111552127Y-68900500D01*
X112380191Y-68900499D01*
X112447230Y-68920183D01*
X112492985Y-68972987D01*
X112502929Y-69042146D01*
X112473904Y-69105702D01*
X112467872Y-69112180D01*
X111694726Y-69885326D01*
X111623534Y-69991874D01*
X111574499Y-70110255D01*
X111574497Y-70110261D01*
X111549500Y-70235928D01*
X111549500Y-77829078D01*
X111529815Y-77896117D01*
X111517650Y-77912050D01*
X111467466Y-77967785D01*
X111372821Y-78131715D01*
X111372818Y-78131722D01*
X111314327Y-78311740D01*
X111314326Y-78311744D01*
X111294540Y-78500000D01*
X111314326Y-78688256D01*
X111314327Y-78688259D01*
X111372818Y-78868277D01*
X111372821Y-78868284D01*
X111467467Y-79032216D01*
X111476752Y-79042528D01*
X111506982Y-79105519D01*
X111498357Y-79174855D01*
X111453615Y-79228520D01*
X111386963Y-79249478D01*
X111384602Y-79249500D01*
X109320808Y-79249500D01*
X109253769Y-79229815D01*
X109233127Y-79213181D01*
X105586819Y-75566873D01*
X105553334Y-75505550D01*
X105550500Y-75479192D01*
X105550500Y-69127989D01*
X105570185Y-69060950D01*
X105615483Y-69018934D01*
X105723507Y-68960475D01*
X105723506Y-68960475D01*
X105723509Y-68960474D01*
X105919744Y-68807738D01*
X106088164Y-68624785D01*
X106224173Y-68416607D01*
X106324063Y-68188881D01*
X106385108Y-67947821D01*
X106405643Y-67700000D01*
X106385108Y-67452179D01*
X106324063Y-67211119D01*
X106224173Y-66983393D01*
X106124709Y-66831151D01*
X106088166Y-66775217D01*
X106066557Y-66751744D01*
X105919744Y-66592262D01*
X105765683Y-66472351D01*
X105724872Y-66415643D01*
X105721197Y-66345870D01*
X105755828Y-66285187D01*
X105817770Y-66252860D01*
X105841847Y-66250500D01*
X111015398Y-66250500D01*
X111082437Y-66270185D01*
G37*
G04 #@! TD.AperFunction*
G04 #@! TA.AperFunction,NonConductor*
G36*
X103755703Y-68673599D02*
G01*
X103765725Y-68683324D01*
X103880256Y-68807738D01*
X104002764Y-68903090D01*
X104076488Y-68960472D01*
X104076492Y-68960475D01*
X104184517Y-69018934D01*
X104234108Y-69068153D01*
X104249500Y-69127989D01*
X104249500Y-75864069D01*
X104270140Y-75967830D01*
X104271734Y-75975842D01*
X104274499Y-75989744D01*
X104323534Y-76108125D01*
X104394726Y-76214673D01*
X104394727Y-76214674D01*
X107992372Y-79812318D01*
X108025857Y-79873641D01*
X108020873Y-79943333D01*
X107992372Y-79987680D01*
X106294726Y-81685326D01*
X106235145Y-81774498D01*
X106223533Y-81791876D01*
X106174499Y-81910255D01*
X106174497Y-81910261D01*
X106149500Y-82035928D01*
X106149500Y-83375500D01*
X106129815Y-83442539D01*
X106077011Y-83488294D01*
X106025500Y-83499500D01*
X105905354Y-83499500D01*
X105872897Y-83506398D01*
X105720197Y-83538855D01*
X105720192Y-83538857D01*
X105547270Y-83615848D01*
X105547265Y-83615851D01*
X105394129Y-83727111D01*
X105263119Y-83872613D01*
X105261779Y-83871407D01*
X105213379Y-83908711D01*
X105143765Y-83914673D01*
X105081977Y-83882053D01*
X105047635Y-83821206D01*
X105046802Y-83817340D01*
X105028854Y-83727112D01*
X105025501Y-83710256D01*
X104976465Y-83591873D01*
X104976464Y-83591870D01*
X104905277Y-83485331D01*
X104905271Y-83485324D01*
X103834808Y-82414862D01*
X103801323Y-82353539D01*
X103799168Y-82340141D01*
X103798263Y-82331533D01*
X103785674Y-82211744D01*
X103727179Y-82031716D01*
X103632533Y-81867784D01*
X103582350Y-81812050D01*
X103552120Y-81749058D01*
X103550500Y-81729078D01*
X103550500Y-68767312D01*
X103570185Y-68700273D01*
X103622989Y-68654518D01*
X103692147Y-68644574D01*
X103755703Y-68673599D01*
G37*
G04 #@! TD.AperFunction*
G04 #@! TA.AperFunction,NonConductor*
G36*
X114639471Y-81570185D02*
G01*
X114685226Y-81622989D01*
X114695752Y-81661535D01*
X114714326Y-81838256D01*
X114714327Y-81838259D01*
X114772818Y-82018277D01*
X114772821Y-82018284D01*
X114783009Y-82035931D01*
X114832887Y-82122321D01*
X114849500Y-82184321D01*
X114849500Y-86679191D01*
X114829815Y-86746230D01*
X114813181Y-86766872D01*
X112895681Y-88684371D01*
X112834358Y-88717856D01*
X112764666Y-88712872D01*
X112708733Y-88671000D01*
X112684316Y-88605536D01*
X112686195Y-88573465D01*
X112735688Y-88314015D01*
X112738906Y-88262864D01*
X112755444Y-88000005D01*
X112755444Y-87999994D01*
X112735689Y-87685995D01*
X112735688Y-87685988D01*
X112735688Y-87685985D01*
X112676731Y-87376921D01*
X112579503Y-87077685D01*
X112571719Y-87061144D01*
X112483133Y-86872888D01*
X112445537Y-86792993D01*
X112302933Y-86568284D01*
X112276948Y-86527338D01*
X112276945Y-86527334D01*
X112076393Y-86284909D01*
X112076391Y-86284907D01*
X111985975Y-86200000D01*
X111847030Y-86069522D01*
X111847027Y-86069520D01*
X111847021Y-86069515D01*
X111592495Y-85884591D01*
X111592488Y-85884586D01*
X111592484Y-85884584D01*
X111316766Y-85733006D01*
X111316763Y-85733004D01*
X111316758Y-85733002D01*
X111316757Y-85733001D01*
X111024228Y-85617181D01*
X111024225Y-85617180D01*
X110719476Y-85538934D01*
X110719463Y-85538932D01*
X110407329Y-85499500D01*
X110407318Y-85499500D01*
X110092682Y-85499500D01*
X110092670Y-85499500D01*
X109780536Y-85538932D01*
X109780523Y-85538934D01*
X109475774Y-85617180D01*
X109475771Y-85617181D01*
X109183242Y-85733001D01*
X109183241Y-85733002D01*
X108907516Y-85884584D01*
X108907504Y-85884591D01*
X108747385Y-86000924D01*
X108681578Y-86024404D01*
X108613525Y-86008578D01*
X108564830Y-85958472D01*
X108550500Y-85900606D01*
X108550500Y-83467312D01*
X108570185Y-83400273D01*
X108622989Y-83354518D01*
X108692147Y-83344574D01*
X108755703Y-83373599D01*
X108765725Y-83383324D01*
X108880256Y-83507738D01*
X109076491Y-83660474D01*
X109295190Y-83778828D01*
X109530386Y-83859571D01*
X109775665Y-83900500D01*
X110024335Y-83900500D01*
X110269614Y-83859571D01*
X110504810Y-83778828D01*
X110723509Y-83660474D01*
X110919744Y-83507738D01*
X111088164Y-83324785D01*
X111224173Y-83116607D01*
X111324063Y-82888881D01*
X111385108Y-82647821D01*
X111385109Y-82647812D01*
X111405643Y-82400005D01*
X111405643Y-82399994D01*
X111385109Y-82152187D01*
X111385107Y-82152175D01*
X111324063Y-81911118D01*
X111242121Y-81724310D01*
X111233218Y-81655010D01*
X111263195Y-81591898D01*
X111322534Y-81555011D01*
X111355677Y-81550500D01*
X114572432Y-81550500D01*
X114639471Y-81570185D01*
G37*
G04 #@! TD.AperFunction*
G04 #@! TA.AperFunction,NonConductor*
G36*
X106068834Y-85353626D02*
G01*
X106124767Y-85395498D01*
X106149184Y-85460962D01*
X106149500Y-85469808D01*
X106149500Y-91064070D01*
X106149500Y-91064072D01*
X106149499Y-91064072D01*
X106171350Y-91173915D01*
X106174497Y-91189739D01*
X106174500Y-91189748D01*
X106223532Y-91308124D01*
X106294726Y-91414674D01*
X106417614Y-91537562D01*
X106451099Y-91598885D01*
X106446115Y-91668577D01*
X106404243Y-91724510D01*
X106340742Y-91748771D01*
X106287256Y-91753450D01*
X106287247Y-91753452D01*
X106080977Y-91808721D01*
X106080968Y-91808725D01*
X105887425Y-91898975D01*
X105745623Y-91998265D01*
X105679416Y-92020592D01*
X105611649Y-92003580D01*
X105563837Y-91952632D01*
X105550500Y-91896689D01*
X105550500Y-85820808D01*
X105570185Y-85753769D01*
X105586819Y-85733127D01*
X105937819Y-85382127D01*
X105999142Y-85348642D01*
X106068834Y-85353626D01*
G37*
G04 #@! TD.AperFunction*
G04 #@! TA.AperFunction,NonConductor*
G36*
X126046231Y-81070185D02*
G01*
X126066873Y-81086819D01*
X126813181Y-81833127D01*
X126846666Y-81894450D01*
X126849500Y-81920808D01*
X126849500Y-85529078D01*
X126829815Y-85596117D01*
X126817650Y-85612050D01*
X126767466Y-85667785D01*
X126672821Y-85831715D01*
X126672818Y-85831722D01*
X126614327Y-86011740D01*
X126614326Y-86011744D01*
X126594540Y-86200000D01*
X126614326Y-86388256D01*
X126614327Y-86388259D01*
X126672818Y-86568277D01*
X126672821Y-86568284D01*
X126767467Y-86732216D01*
X126838511Y-86811118D01*
X126894129Y-86872888D01*
X127047265Y-86984148D01*
X127047270Y-86984151D01*
X127220192Y-87061142D01*
X127220197Y-87061144D01*
X127405354Y-87100500D01*
X127405355Y-87100500D01*
X127594644Y-87100500D01*
X127594646Y-87100500D01*
X127779803Y-87061144D01*
X127952730Y-86984151D01*
X128105871Y-86872888D01*
X128232533Y-86732216D01*
X128327179Y-86568284D01*
X128385674Y-86388256D01*
X128405460Y-86200000D01*
X128385674Y-86011744D01*
X128327179Y-85831716D01*
X128232533Y-85667784D01*
X128182350Y-85612050D01*
X128152120Y-85549058D01*
X128150500Y-85529078D01*
X128150500Y-82454271D01*
X128170185Y-82387232D01*
X128222989Y-82341477D01*
X128292147Y-82331533D01*
X128324930Y-82340989D01*
X128370197Y-82361144D01*
X128555354Y-82400500D01*
X128555355Y-82400500D01*
X128625500Y-82400500D01*
X128692539Y-82420185D01*
X128738294Y-82472989D01*
X128749500Y-82524500D01*
X128749500Y-90737770D01*
X128729815Y-90804809D01*
X128713181Y-90825451D01*
X126175451Y-93363181D01*
X126114128Y-93396666D01*
X126087770Y-93399500D01*
X117277568Y-93399500D01*
X117210529Y-93379815D01*
X117164774Y-93327011D01*
X117154247Y-93288462D01*
X117135674Y-93111744D01*
X117077179Y-92931716D01*
X117077178Y-92931715D01*
X117077178Y-92931713D01*
X117067112Y-92914277D01*
X117050500Y-92852279D01*
X117050500Y-88504955D01*
X117070185Y-88437916D01*
X117122989Y-88392161D01*
X117192147Y-88382217D01*
X117255703Y-88411242D01*
X117293477Y-88470020D01*
X117296301Y-88481707D01*
X117311327Y-88560475D01*
X117323270Y-88623083D01*
X117420497Y-88922316D01*
X117420499Y-88922321D01*
X117554461Y-89207003D01*
X117554464Y-89207009D01*
X117723051Y-89472661D01*
X117723054Y-89472665D01*
X117923606Y-89715090D01*
X117923608Y-89715092D01*
X117923610Y-89715094D01*
X118064950Y-89847821D01*
X118152968Y-89930476D01*
X118152978Y-89930484D01*
X118407504Y-90115408D01*
X118407509Y-90115410D01*
X118407516Y-90115416D01*
X118683234Y-90266994D01*
X118683239Y-90266996D01*
X118683241Y-90266997D01*
X118683242Y-90266998D01*
X118975771Y-90382818D01*
X118975774Y-90382819D01*
X119008950Y-90391337D01*
X119280527Y-90461066D01*
X119346010Y-90469338D01*
X119592670Y-90500499D01*
X119592679Y-90500499D01*
X119592682Y-90500500D01*
X119592684Y-90500500D01*
X119907316Y-90500500D01*
X119907318Y-90500500D01*
X119907321Y-90500499D01*
X119907329Y-90500499D01*
X120093593Y-90476968D01*
X120219473Y-90461066D01*
X120524225Y-90382819D01*
X120569284Y-90364979D01*
X120816757Y-90266998D01*
X120816758Y-90266997D01*
X120816756Y-90266997D01*
X120816766Y-90266994D01*
X121092484Y-90115416D01*
X121347030Y-89930478D01*
X121576390Y-89715094D01*
X121671609Y-89599994D01*
X124594357Y-89599994D01*
X124594357Y-89600005D01*
X124614890Y-89847812D01*
X124614892Y-89847824D01*
X124675936Y-90088881D01*
X124775826Y-90316606D01*
X124911833Y-90524782D01*
X124911836Y-90524785D01*
X125080256Y-90707738D01*
X125276491Y-90860474D01*
X125495190Y-90978828D01*
X125730386Y-91059571D01*
X125975665Y-91100500D01*
X126224335Y-91100500D01*
X126469614Y-91059571D01*
X126704810Y-90978828D01*
X126923509Y-90860474D01*
X127119744Y-90707738D01*
X127288164Y-90524785D01*
X127424173Y-90316607D01*
X127524063Y-90088881D01*
X127585108Y-89847821D01*
X127585109Y-89847812D01*
X127605643Y-89600005D01*
X127605643Y-89599994D01*
X127585109Y-89352187D01*
X127585107Y-89352175D01*
X127524063Y-89111118D01*
X127424173Y-88883393D01*
X127288166Y-88675217D01*
X127182538Y-88560475D01*
X127119744Y-88492262D01*
X126923509Y-88339526D01*
X126923507Y-88339525D01*
X126923506Y-88339524D01*
X126704811Y-88221172D01*
X126704802Y-88221169D01*
X126469616Y-88140429D01*
X126224335Y-88099500D01*
X125975665Y-88099500D01*
X125730383Y-88140429D01*
X125495197Y-88221169D01*
X125495188Y-88221172D01*
X125276493Y-88339524D01*
X125080257Y-88492261D01*
X124911833Y-88675217D01*
X124775826Y-88883393D01*
X124675936Y-89111118D01*
X124614892Y-89352175D01*
X124614890Y-89352187D01*
X124594357Y-89599994D01*
X121671609Y-89599994D01*
X121776947Y-89472663D01*
X121945537Y-89207007D01*
X122079503Y-88922315D01*
X122176731Y-88623079D01*
X122233858Y-88323608D01*
X122265754Y-88261448D01*
X122326196Y-88226398D01*
X122395993Y-88229590D01*
X122446890Y-88262864D01*
X122580256Y-88407738D01*
X122776491Y-88560474D01*
X122995190Y-88678828D01*
X123230386Y-88759571D01*
X123475665Y-88800500D01*
X123724335Y-88800500D01*
X123969614Y-88759571D01*
X124204810Y-88678828D01*
X124423509Y-88560474D01*
X124619744Y-88407738D01*
X124788164Y-88224785D01*
X124790525Y-88221172D01*
X124870016Y-88099500D01*
X124924173Y-88016607D01*
X125024063Y-87788881D01*
X125085108Y-87547821D01*
X125085109Y-87547812D01*
X125105643Y-87300005D01*
X125105643Y-87299994D01*
X125085109Y-87052187D01*
X125085107Y-87052175D01*
X125024063Y-86811118D01*
X124924173Y-86583393D01*
X124788166Y-86375217D01*
X124766557Y-86351744D01*
X124619744Y-86192262D01*
X124423509Y-86039526D01*
X124423508Y-86039525D01*
X124423505Y-86039523D01*
X124423498Y-86039519D01*
X124315482Y-85981063D01*
X124265891Y-85931844D01*
X124250500Y-85872009D01*
X124250500Y-84235928D01*
X124225502Y-84110261D01*
X124225501Y-84110260D01*
X124225501Y-84110256D01*
X124176465Y-83991873D01*
X124111552Y-83894723D01*
X124105277Y-83885331D01*
X124105275Y-83885328D01*
X123434808Y-83214862D01*
X123401323Y-83153539D01*
X123399168Y-83140141D01*
X123390626Y-83058867D01*
X123385674Y-83011744D01*
X123327179Y-82831716D01*
X123232533Y-82667784D01*
X123105871Y-82527112D01*
X123102276Y-82524500D01*
X122952734Y-82415851D01*
X122952729Y-82415848D01*
X122779807Y-82338857D01*
X122779802Y-82338855D01*
X122634001Y-82307865D01*
X122594646Y-82299500D01*
X122405354Y-82299500D01*
X122372897Y-82306398D01*
X122220197Y-82338855D01*
X122220192Y-82338857D01*
X122047270Y-82415848D01*
X122047265Y-82415851D01*
X121894129Y-82527111D01*
X121767466Y-82667785D01*
X121672821Y-82831715D01*
X121672818Y-82831722D01*
X121640166Y-82932216D01*
X121614326Y-83011744D01*
X121594540Y-83200000D01*
X121614326Y-83388256D01*
X121614327Y-83388259D01*
X121672818Y-83568277D01*
X121672821Y-83568284D01*
X121767467Y-83732216D01*
X121893881Y-83872613D01*
X121894129Y-83872888D01*
X122047265Y-83984148D01*
X122047270Y-83984151D01*
X122220192Y-84061142D01*
X122220197Y-84061144D01*
X122405354Y-84100500D01*
X122429192Y-84100500D01*
X122496231Y-84120185D01*
X122516873Y-84136819D01*
X122913181Y-84533127D01*
X122946666Y-84594450D01*
X122949500Y-84620808D01*
X122949500Y-85872009D01*
X122929815Y-85939048D01*
X122884518Y-85981063D01*
X122776501Y-86039519D01*
X122776494Y-86039523D01*
X122580257Y-86192261D01*
X122411833Y-86375217D01*
X122275827Y-86583391D01*
X122178488Y-86805302D01*
X122133532Y-86858787D01*
X122066795Y-86879477D01*
X121999468Y-86860802D01*
X121952924Y-86808692D01*
X121945537Y-86792993D01*
X121776947Y-86527337D01*
X121696054Y-86429554D01*
X121576393Y-86284909D01*
X121576391Y-86284907D01*
X121485975Y-86200000D01*
X121347030Y-86069522D01*
X121347027Y-86069520D01*
X121347021Y-86069515D01*
X121092495Y-85884591D01*
X121092488Y-85884586D01*
X121092484Y-85884584D01*
X120816766Y-85733006D01*
X120816763Y-85733004D01*
X120816758Y-85733002D01*
X120816757Y-85733001D01*
X120524228Y-85617181D01*
X120524225Y-85617180D01*
X120219476Y-85538934D01*
X120219463Y-85538932D01*
X119907329Y-85499500D01*
X119907318Y-85499500D01*
X119592682Y-85499500D01*
X119592670Y-85499500D01*
X119280536Y-85538932D01*
X119280523Y-85538934D01*
X118975774Y-85617180D01*
X118975771Y-85617181D01*
X118683242Y-85733001D01*
X118683234Y-85733005D01*
X118540413Y-85811522D01*
X118472183Y-85826569D01*
X118406649Y-85802339D01*
X118364618Y-85746525D01*
X118362745Y-85741177D01*
X118360129Y-85733127D01*
X118327179Y-85631716D01*
X118232533Y-85467784D01*
X118105871Y-85327112D01*
X118069243Y-85300500D01*
X117952734Y-85215851D01*
X117952729Y-85215848D01*
X117779807Y-85138857D01*
X117779802Y-85138855D01*
X117634001Y-85107865D01*
X117594646Y-85099500D01*
X117405354Y-85099500D01*
X117372897Y-85106398D01*
X117220197Y-85138855D01*
X117220192Y-85138857D01*
X117047270Y-85215848D01*
X117047265Y-85215851D01*
X116894129Y-85327111D01*
X116767466Y-85467785D01*
X116672821Y-85631715D01*
X116672818Y-85631722D01*
X116614327Y-85811739D01*
X116614326Y-85811741D01*
X116600831Y-85940143D01*
X116574246Y-86004757D01*
X116565191Y-86014862D01*
X116362181Y-86217872D01*
X116300858Y-86251357D01*
X116231166Y-86246373D01*
X116175233Y-86204501D01*
X116150816Y-86139037D01*
X116150500Y-86130191D01*
X116150500Y-82426298D01*
X116170185Y-82359259D01*
X116201619Y-82325977D01*
X116205871Y-82322888D01*
X116332533Y-82182216D01*
X116427179Y-82018284D01*
X116485674Y-81838256D01*
X116504247Y-81661536D01*
X116530832Y-81596924D01*
X116588129Y-81556939D01*
X116627568Y-81550500D01*
X117219829Y-81550500D01*
X117286868Y-81570185D01*
X117327216Y-81612500D01*
X117367466Y-81682214D01*
X117367465Y-81682214D01*
X117494129Y-81822888D01*
X117647265Y-81934148D01*
X117647270Y-81934151D01*
X117820192Y-82011142D01*
X117820197Y-82011144D01*
X118005354Y-82050500D01*
X118005355Y-82050500D01*
X118194644Y-82050500D01*
X118194646Y-82050500D01*
X118379803Y-82011144D01*
X118552730Y-81934151D01*
X118705871Y-81822888D01*
X118832533Y-81682216D01*
X118927179Y-81518284D01*
X118985674Y-81338256D01*
X119004247Y-81161536D01*
X119030832Y-81096924D01*
X119088129Y-81056939D01*
X119127568Y-81050500D01*
X125979192Y-81050500D01*
X126046231Y-81070185D01*
G37*
G04 #@! TD.AperFunction*
G04 #@! TA.AperFunction,NonConductor*
G36*
X115668834Y-87853626D02*
G01*
X115724767Y-87895498D01*
X115749184Y-87960962D01*
X115749500Y-87969808D01*
X115749500Y-92487373D01*
X115729815Y-92554412D01*
X115698387Y-92587690D01*
X115644128Y-92627112D01*
X115644123Y-92627116D01*
X115517466Y-92767785D01*
X115422821Y-92931715D01*
X115422818Y-92931722D01*
X115369751Y-93095047D01*
X115364326Y-93111744D01*
X115354800Y-93202383D01*
X115345753Y-93288462D01*
X115319168Y-93353076D01*
X115261871Y-93393061D01*
X115222432Y-93399500D01*
X113776080Y-93399500D01*
X113631092Y-93428340D01*
X113631082Y-93428343D01*
X113494511Y-93484912D01*
X113494498Y-93484919D01*
X113371584Y-93567048D01*
X113371580Y-93567051D01*
X112875451Y-94063181D01*
X112814128Y-94096666D01*
X112787770Y-94099500D01*
X112024500Y-94099500D01*
X111957461Y-94079815D01*
X111911706Y-94027011D01*
X111900500Y-93975500D01*
X111900500Y-91570808D01*
X111920185Y-91503769D01*
X111936819Y-91483127D01*
X115537819Y-87882127D01*
X115599142Y-87848642D01*
X115668834Y-87853626D01*
G37*
G04 #@! TD.AperFunction*
G04 #@! TA.AperFunction,NonConductor*
G36*
X105745622Y-93921734D02*
G01*
X105887419Y-94021021D01*
X105887421Y-94021022D01*
X105887420Y-94021022D01*
X105900264Y-94027011D01*
X106080970Y-94111276D01*
X106080983Y-94111279D01*
X106086064Y-94113130D01*
X106085292Y-94115250D01*
X106136710Y-94146594D01*
X106167237Y-94209442D01*
X106158939Y-94278817D01*
X106114452Y-94332693D01*
X106085685Y-94345830D01*
X106086064Y-94346870D01*
X106080972Y-94348723D01*
X106080970Y-94348724D01*
X106080968Y-94348725D01*
X105887425Y-94438975D01*
X105745623Y-94538265D01*
X105679416Y-94560592D01*
X105611649Y-94543580D01*
X105563837Y-94492632D01*
X105550500Y-94436689D01*
X105550500Y-94023310D01*
X105570185Y-93956271D01*
X105622989Y-93910516D01*
X105692147Y-93900572D01*
X105745622Y-93921734D01*
G37*
G04 #@! TD.AperFunction*
G04 #@! TA.AperFunction,NonConductor*
G36*
X105745622Y-96461734D02*
G01*
X105887419Y-96561021D01*
X105887421Y-96561022D01*
X105887420Y-96561022D01*
X105951936Y-96591106D01*
X106080970Y-96651276D01*
X106080983Y-96651279D01*
X106086064Y-96653130D01*
X106085292Y-96655250D01*
X106136710Y-96686594D01*
X106167237Y-96749442D01*
X106158939Y-96818817D01*
X106114452Y-96872693D01*
X106085685Y-96885830D01*
X106086064Y-96886870D01*
X106080972Y-96888723D01*
X106080970Y-96888724D01*
X106080968Y-96888725D01*
X105887425Y-96978975D01*
X105745623Y-97078265D01*
X105679416Y-97100592D01*
X105611649Y-97083580D01*
X105563837Y-97032632D01*
X105550500Y-96976689D01*
X105550500Y-96563310D01*
X105570185Y-96496271D01*
X105622989Y-96450516D01*
X105692147Y-96440572D01*
X105745622Y-96461734D01*
G37*
G04 #@! TD.AperFunction*
G04 #@! TA.AperFunction,NonConductor*
G36*
X114287938Y-50270185D02*
G01*
X114333693Y-50322989D01*
X114343637Y-50392147D01*
X114314612Y-50455703D01*
X114279916Y-50483555D01*
X114176496Y-50539522D01*
X114176494Y-50539523D01*
X113980257Y-50692261D01*
X113811833Y-50875217D01*
X113675826Y-51083393D01*
X113575936Y-51311118D01*
X113514892Y-51552175D01*
X113514890Y-51552187D01*
X113494357Y-51799994D01*
X113494357Y-51800005D01*
X113514890Y-52047812D01*
X113514892Y-52047824D01*
X113575936Y-52288881D01*
X113675826Y-52516606D01*
X113811833Y-52724782D01*
X113811836Y-52724785D01*
X113980256Y-52907738D01*
X114176491Y-53060474D01*
X114395190Y-53178828D01*
X114630386Y-53259571D01*
X114875665Y-53300500D01*
X115124335Y-53300500D01*
X115369614Y-53259571D01*
X115604810Y-53178828D01*
X115823509Y-53060474D01*
X116019744Y-52907738D01*
X116188164Y-52724785D01*
X116324173Y-52516607D01*
X116424063Y-52288881D01*
X116485108Y-52047821D01*
X116490240Y-51985891D01*
X116505643Y-51800005D01*
X116505643Y-51799994D01*
X116485109Y-51552187D01*
X116485107Y-51552175D01*
X116424063Y-51311118D01*
X116324173Y-51083393D01*
X116188166Y-50875217D01*
X116166557Y-50851744D01*
X116019744Y-50692262D01*
X115823509Y-50539526D01*
X115823508Y-50539525D01*
X115823505Y-50539523D01*
X115823503Y-50539522D01*
X115720084Y-50483555D01*
X115670493Y-50434335D01*
X115655385Y-50366119D01*
X115679555Y-50300563D01*
X115735331Y-50258482D01*
X115779101Y-50250500D01*
X129625500Y-50250500D01*
X129692539Y-50270185D01*
X129738294Y-50322989D01*
X129749500Y-50374500D01*
X129749500Y-60988770D01*
X129729815Y-61055809D01*
X129677011Y-61101564D01*
X129607853Y-61111508D01*
X129544297Y-61082483D01*
X129537819Y-61076451D01*
X127699381Y-59238013D01*
X127665896Y-59176690D01*
X127666857Y-59119890D01*
X127685106Y-59047829D01*
X127685107Y-59047824D01*
X127685108Y-59047821D01*
X127685109Y-59047812D01*
X127705643Y-58800005D01*
X127705643Y-58799994D01*
X127685109Y-58552187D01*
X127685107Y-58552175D01*
X127624063Y-58311118D01*
X127524173Y-58083393D01*
X127388166Y-57875217D01*
X127311800Y-57792262D01*
X127219744Y-57692262D01*
X127048336Y-57558850D01*
X127007525Y-57502141D01*
X127000500Y-57460998D01*
X127000500Y-56354731D01*
X127020185Y-56287692D01*
X127072989Y-56241937D01*
X127111247Y-56231441D01*
X127157483Y-56226471D01*
X127292331Y-56176176D01*
X127407546Y-56089926D01*
X127493796Y-55974711D01*
X127544091Y-55839863D01*
X127550500Y-55780253D01*
X127550499Y-54084508D01*
X127544091Y-54024897D01*
X127536194Y-54003725D01*
X127493797Y-53890051D01*
X127493793Y-53890044D01*
X127407547Y-53774835D01*
X127407544Y-53774832D01*
X127292335Y-53688586D01*
X127292328Y-53688582D01*
X127157483Y-53638288D01*
X127152079Y-53637012D01*
X127091363Y-53602440D01*
X127058976Y-53540529D01*
X127065202Y-53470938D01*
X127092910Y-53428655D01*
X127250047Y-53271519D01*
X127380568Y-53085114D01*
X127476739Y-52878876D01*
X127535635Y-52659072D01*
X127555468Y-52432380D01*
X127535635Y-52205688D01*
X127476739Y-51985884D01*
X127380568Y-51779646D01*
X127250047Y-51593241D01*
X127250045Y-51593238D01*
X127089141Y-51432334D01*
X126902734Y-51301812D01*
X126902732Y-51301811D01*
X126696497Y-51205641D01*
X126696488Y-51205638D01*
X126476697Y-51146746D01*
X126476693Y-51146745D01*
X126476692Y-51146745D01*
X126476691Y-51146744D01*
X126476686Y-51146744D01*
X126250002Y-51126912D01*
X126249998Y-51126912D01*
X126023313Y-51146744D01*
X126023302Y-51146746D01*
X125803511Y-51205638D01*
X125803502Y-51205641D01*
X125597267Y-51301811D01*
X125597265Y-51301812D01*
X125410858Y-51432334D01*
X125249954Y-51593238D01*
X125119432Y-51779645D01*
X125119431Y-51779647D01*
X125023261Y-51985882D01*
X125023258Y-51985891D01*
X124964366Y-52205682D01*
X124964364Y-52205693D01*
X124944532Y-52432378D01*
X124944532Y-52432381D01*
X124964364Y-52659066D01*
X124964366Y-52659077D01*
X125023258Y-52878868D01*
X125023261Y-52878877D01*
X125119431Y-53085112D01*
X125119432Y-53085114D01*
X125249954Y-53271521D01*
X125407086Y-53428653D01*
X125440571Y-53489976D01*
X125435587Y-53559668D01*
X125393715Y-53615601D01*
X125347932Y-53637008D01*
X125342522Y-53638286D01*
X125207671Y-53688582D01*
X125207664Y-53688586D01*
X125092455Y-53774832D01*
X125092452Y-53774835D01*
X125006206Y-53890044D01*
X125006202Y-53890051D01*
X124955908Y-54024897D01*
X124949501Y-54084496D01*
X124949501Y-54084503D01*
X124949500Y-54084515D01*
X124949500Y-55780250D01*
X124949501Y-55780256D01*
X124955908Y-55839863D01*
X125006202Y-55974708D01*
X125006206Y-55974715D01*
X125092452Y-56089924D01*
X125092455Y-56089927D01*
X125207664Y-56176173D01*
X125207671Y-56176177D01*
X125342516Y-56226471D01*
X125388757Y-56231443D01*
X125453307Y-56258181D01*
X125493155Y-56315574D01*
X125499500Y-56354732D01*
X125499500Y-57399069D01*
X125479815Y-57466108D01*
X125434518Y-57508123D01*
X125376497Y-57539522D01*
X125376490Y-57539527D01*
X125180257Y-57692261D01*
X125011833Y-57875217D01*
X124875826Y-58083393D01*
X124775936Y-58311118D01*
X124714892Y-58552175D01*
X124714890Y-58552187D01*
X124694357Y-58799994D01*
X124694357Y-58800005D01*
X124714890Y-59047812D01*
X124714892Y-59047824D01*
X124775936Y-59288881D01*
X124875826Y-59516606D01*
X125011833Y-59724782D01*
X125011836Y-59724785D01*
X125180256Y-59907738D01*
X125376491Y-60060474D01*
X125595190Y-60178828D01*
X125830386Y-60259571D01*
X126075665Y-60300500D01*
X126324335Y-60300500D01*
X126454217Y-60278827D01*
X126531158Y-60265988D01*
X126600523Y-60274370D01*
X126639248Y-60300616D01*
X128713181Y-62374549D01*
X128746666Y-62435872D01*
X128749500Y-62462230D01*
X128749500Y-80380191D01*
X128729815Y-80447230D01*
X128677011Y-80492985D01*
X128607853Y-80502929D01*
X128544297Y-80473904D01*
X128537819Y-80467872D01*
X127464673Y-79394726D01*
X127464669Y-79394723D01*
X127358127Y-79323535D01*
X127239744Y-79274499D01*
X127239738Y-79274497D01*
X127114071Y-79249500D01*
X127114069Y-79249500D01*
X113015398Y-79249500D01*
X112948359Y-79229815D01*
X112902604Y-79177011D01*
X112892660Y-79107853D01*
X112921685Y-79044297D01*
X112923248Y-79042528D01*
X112932533Y-79032216D01*
X113027179Y-78868284D01*
X113085674Y-78688256D01*
X113105460Y-78500000D01*
X113085674Y-78311744D01*
X113027179Y-78131716D01*
X112932533Y-77967784D01*
X112882350Y-77912050D01*
X112852120Y-77849058D01*
X112850500Y-77829078D01*
X112850500Y-76484003D01*
X112870185Y-76416964D01*
X112922989Y-76371209D01*
X112992147Y-76361265D01*
X113045622Y-76382427D01*
X113162170Y-76464035D01*
X113376337Y-76563903D01*
X113604592Y-76625063D01*
X113792918Y-76641539D01*
X113839999Y-76645659D01*
X113840000Y-76645659D01*
X113840001Y-76645659D01*
X113879234Y-76642226D01*
X114075408Y-76625063D01*
X114303663Y-76563903D01*
X114517830Y-76464035D01*
X114711401Y-76328495D01*
X114878495Y-76161401D01*
X115008425Y-75975842D01*
X115063002Y-75932217D01*
X115132500Y-75925023D01*
X115194855Y-75956546D01*
X115211575Y-75975842D01*
X115341500Y-76161395D01*
X115341505Y-76161401D01*
X115508599Y-76328495D01*
X115569601Y-76371209D01*
X115702165Y-76464032D01*
X115702167Y-76464033D01*
X115702170Y-76464035D01*
X115916337Y-76563903D01*
X116144592Y-76625063D01*
X116332918Y-76641539D01*
X116379999Y-76645659D01*
X116380000Y-76645659D01*
X116380001Y-76645659D01*
X116419234Y-76642226D01*
X116615408Y-76625063D01*
X116843663Y-76563903D01*
X117057830Y-76464035D01*
X117251401Y-76328495D01*
X117418495Y-76161401D01*
X117548425Y-75975842D01*
X117603002Y-75932217D01*
X117672500Y-75925023D01*
X117734855Y-75956546D01*
X117751575Y-75975842D01*
X117881500Y-76161395D01*
X117881505Y-76161401D01*
X118048599Y-76328495D01*
X118109601Y-76371209D01*
X118242165Y-76464032D01*
X118242167Y-76464033D01*
X118242170Y-76464035D01*
X118456337Y-76563903D01*
X118684592Y-76625063D01*
X118872918Y-76641539D01*
X118919999Y-76645659D01*
X118920000Y-76645659D01*
X118920001Y-76645659D01*
X118959234Y-76642226D01*
X119155408Y-76625063D01*
X119383663Y-76563903D01*
X119597830Y-76464035D01*
X119791401Y-76328495D01*
X119958495Y-76161401D01*
X120088425Y-75975842D01*
X120143002Y-75932217D01*
X120212500Y-75925023D01*
X120274855Y-75956546D01*
X120291575Y-75975842D01*
X120421500Y-76161395D01*
X120421505Y-76161401D01*
X120588599Y-76328495D01*
X120649601Y-76371209D01*
X120782165Y-76464032D01*
X120782167Y-76464033D01*
X120782170Y-76464035D01*
X120996337Y-76563903D01*
X121224592Y-76625063D01*
X121412918Y-76641539D01*
X121459999Y-76645659D01*
X121460000Y-76645659D01*
X121460001Y-76645659D01*
X121499234Y-76642226D01*
X121695408Y-76625063D01*
X121923663Y-76563903D01*
X122137830Y-76464035D01*
X122331401Y-76328495D01*
X122498495Y-76161401D01*
X122628425Y-75975842D01*
X122683002Y-75932217D01*
X122752500Y-75925023D01*
X122814855Y-75956546D01*
X122831575Y-75975842D01*
X122961500Y-76161395D01*
X122961505Y-76161401D01*
X123128599Y-76328495D01*
X123189601Y-76371209D01*
X123322165Y-76464032D01*
X123322167Y-76464033D01*
X123322170Y-76464035D01*
X123536337Y-76563903D01*
X123764592Y-76625063D01*
X123952918Y-76641539D01*
X123999999Y-76645659D01*
X124000000Y-76645659D01*
X124000001Y-76645659D01*
X124039234Y-76642226D01*
X124235408Y-76625063D01*
X124463663Y-76563903D01*
X124677830Y-76464035D01*
X124871401Y-76328495D01*
X125038495Y-76161401D01*
X125174035Y-75967830D01*
X125273903Y-75753663D01*
X125335063Y-75525408D01*
X125355659Y-75290000D01*
X125335063Y-75054592D01*
X125273903Y-74826337D01*
X125174035Y-74612171D01*
X125168425Y-74604158D01*
X125038494Y-74418597D01*
X124871402Y-74251506D01*
X124871401Y-74251505D01*
X124703377Y-74133853D01*
X124703376Y-74133852D01*
X124659751Y-74079275D01*
X124650500Y-74032277D01*
X124650500Y-74007722D01*
X124670185Y-73940683D01*
X124703377Y-73906147D01*
X124828325Y-73818657D01*
X124871401Y-73788495D01*
X125038495Y-73621401D01*
X125174035Y-73427830D01*
X125273903Y-73213663D01*
X125335063Y-72985408D01*
X125355659Y-72750000D01*
X125335063Y-72514592D01*
X125273903Y-72286337D01*
X125174035Y-72072171D01*
X125168425Y-72064158D01*
X125038494Y-71878597D01*
X124871402Y-71711506D01*
X124871395Y-71711501D01*
X124677834Y-71575967D01*
X124677830Y-71575965D01*
X124637777Y-71557288D01*
X124463663Y-71476097D01*
X124463659Y-71476096D01*
X124463655Y-71476094D01*
X124235413Y-71414938D01*
X124235403Y-71414936D01*
X124000001Y-71394341D01*
X123999999Y-71394341D01*
X123764596Y-71414936D01*
X123764586Y-71414938D01*
X123536344Y-71476094D01*
X123536335Y-71476098D01*
X123322171Y-71575964D01*
X123322169Y-71575965D01*
X123128597Y-71711505D01*
X122961505Y-71878597D01*
X122831575Y-72064158D01*
X122776998Y-72107783D01*
X122707500Y-72114977D01*
X122645145Y-72083454D01*
X122628425Y-72064158D01*
X122498494Y-71878597D01*
X122331402Y-71711506D01*
X122331395Y-71711501D01*
X122137834Y-71575967D01*
X122137830Y-71575965D01*
X122097777Y-71557288D01*
X121923663Y-71476097D01*
X121923659Y-71476096D01*
X121923655Y-71476094D01*
X121695413Y-71414938D01*
X121695403Y-71414936D01*
X121460001Y-71394341D01*
X121459999Y-71394341D01*
X121224596Y-71414936D01*
X121224586Y-71414938D01*
X120996344Y-71476094D01*
X120996335Y-71476098D01*
X120782171Y-71575964D01*
X120782169Y-71575965D01*
X120588597Y-71711505D01*
X120421505Y-71878597D01*
X120291575Y-72064158D01*
X120236998Y-72107783D01*
X120167500Y-72114977D01*
X120105145Y-72083454D01*
X120088425Y-72064158D01*
X119958494Y-71878597D01*
X119791402Y-71711506D01*
X119791395Y-71711501D01*
X119597834Y-71575967D01*
X119597830Y-71575965D01*
X119557777Y-71557288D01*
X119383663Y-71476097D01*
X119383659Y-71476096D01*
X119383655Y-71476094D01*
X119155413Y-71414938D01*
X119155403Y-71414936D01*
X118920001Y-71394341D01*
X118919999Y-71394341D01*
X118684596Y-71414936D01*
X118684586Y-71414938D01*
X118456344Y-71476094D01*
X118456335Y-71476098D01*
X118242171Y-71575964D01*
X118242169Y-71575965D01*
X118048597Y-71711505D01*
X117881505Y-71878597D01*
X117751575Y-72064158D01*
X117696998Y-72107783D01*
X117627500Y-72114977D01*
X117565145Y-72083454D01*
X117548425Y-72064158D01*
X117418494Y-71878597D01*
X117251402Y-71711506D01*
X117251395Y-71711501D01*
X117057834Y-71575967D01*
X117057830Y-71575965D01*
X117017777Y-71557288D01*
X116843663Y-71476097D01*
X116843659Y-71476096D01*
X116843655Y-71476094D01*
X116615413Y-71414938D01*
X116615403Y-71414936D01*
X116380001Y-71394341D01*
X116379999Y-71394341D01*
X116144596Y-71414936D01*
X116144586Y-71414938D01*
X115916344Y-71476094D01*
X115916335Y-71476098D01*
X115702171Y-71575964D01*
X115702169Y-71575965D01*
X115508597Y-71711505D01*
X115341503Y-71878599D01*
X115340349Y-71879975D01*
X115339688Y-71880414D01*
X115337676Y-71882427D01*
X115337271Y-71882022D01*
X115282173Y-71918671D01*
X115212312Y-71919772D01*
X115152946Y-71882928D01*
X115127663Y-71839265D01*
X115124814Y-71830666D01*
X115032712Y-71681344D01*
X114908656Y-71557288D01*
X114815888Y-71500069D01*
X114759336Y-71465187D01*
X114759331Y-71465185D01*
X114757862Y-71464698D01*
X114592797Y-71410001D01*
X114592795Y-71410000D01*
X114490010Y-71399500D01*
X113189998Y-71399500D01*
X113189981Y-71399501D01*
X113087203Y-71410000D01*
X113087200Y-71410001D01*
X113013504Y-71434422D01*
X112943675Y-71436824D01*
X112883634Y-71401092D01*
X112852441Y-71338571D01*
X112850500Y-71316716D01*
X112850500Y-70620807D01*
X112870185Y-70553768D01*
X112886814Y-70533131D01*
X114527800Y-68892144D01*
X114589121Y-68858661D01*
X114649753Y-68862202D01*
X114650048Y-68861040D01*
X114655011Y-68862296D01*
X114655015Y-68862296D01*
X114655019Y-68862298D01*
X114883951Y-68900500D01*
X114883952Y-68900500D01*
X115116048Y-68900500D01*
X115116049Y-68900500D01*
X115344981Y-68862298D01*
X115564503Y-68786936D01*
X115768626Y-68676470D01*
X115951784Y-68533913D01*
X116108979Y-68363153D01*
X116146191Y-68306196D01*
X116199337Y-68260839D01*
X116268569Y-68251415D01*
X116331904Y-68280917D01*
X116353809Y-68306196D01*
X116391016Y-68363147D01*
X116391019Y-68363151D01*
X116391021Y-68363153D01*
X116548216Y-68533913D01*
X116548219Y-68533915D01*
X116548222Y-68533918D01*
X116731365Y-68676464D01*
X116731371Y-68676468D01*
X116731374Y-68676470D01*
X116935497Y-68786936D01*
X117049487Y-68826068D01*
X117155015Y-68862297D01*
X117155017Y-68862297D01*
X117155019Y-68862298D01*
X117383951Y-68900500D01*
X117383952Y-68900500D01*
X117616048Y-68900500D01*
X117616049Y-68900500D01*
X117844981Y-68862298D01*
X118064503Y-68786936D01*
X118268626Y-68676470D01*
X118451784Y-68533913D01*
X118608979Y-68363153D01*
X118735924Y-68168849D01*
X118829157Y-67956300D01*
X118886134Y-67731305D01*
X118888728Y-67700000D01*
X118905300Y-67500006D01*
X118905300Y-67499993D01*
X118886135Y-67268702D01*
X118886133Y-67268691D01*
X118829157Y-67043699D01*
X118735924Y-66831151D01*
X118608983Y-66636852D01*
X118608980Y-66636849D01*
X118608979Y-66636847D01*
X118451784Y-66466087D01*
X118451779Y-66466083D01*
X118451777Y-66466081D01*
X118268634Y-66323535D01*
X118268628Y-66323531D01*
X118064504Y-66213064D01*
X118064495Y-66213061D01*
X117844984Y-66137702D01*
X117666106Y-66107853D01*
X117616049Y-66099500D01*
X117383951Y-66099500D01*
X117269899Y-66118531D01*
X117155012Y-66137703D01*
X117150049Y-66138960D01*
X117149736Y-66137725D01*
X117085940Y-66140602D01*
X117027799Y-66107853D01*
X116114674Y-65194727D01*
X116114673Y-65194726D01*
X116114669Y-65194723D01*
X116008127Y-65123535D01*
X115889744Y-65074499D01*
X115889738Y-65074497D01*
X115764071Y-65049500D01*
X115764069Y-65049500D01*
X111684602Y-65049500D01*
X111617563Y-65029815D01*
X111615714Y-65028604D01*
X111608127Y-65023534D01*
X111489744Y-64974499D01*
X111489738Y-64974497D01*
X111364071Y-64949500D01*
X111364069Y-64949500D01*
X103835931Y-64949500D01*
X103835929Y-64949500D01*
X103710261Y-64974497D01*
X103710251Y-64974500D01*
X103661220Y-64994810D01*
X103591881Y-65023530D01*
X103591863Y-65023540D01*
X103485332Y-65094721D01*
X103485325Y-65094727D01*
X102394724Y-66185328D01*
X102333830Y-66276463D01*
X102333831Y-66276464D01*
X102323536Y-66291871D01*
X102323533Y-66291877D01*
X102274499Y-66410255D01*
X102274497Y-66410261D01*
X102249500Y-66535928D01*
X102249500Y-81729078D01*
X102229815Y-81796117D01*
X102217650Y-81812050D01*
X102167466Y-81867785D01*
X102072821Y-82031715D01*
X102072818Y-82031722D01*
X102033677Y-82152187D01*
X102014326Y-82211744D01*
X101994540Y-82400000D01*
X102014326Y-82588256D01*
X102014327Y-82588259D01*
X102072818Y-82768277D01*
X102072821Y-82768284D01*
X102167467Y-82932216D01*
X102281504Y-83058867D01*
X102294129Y-83072888D01*
X102447265Y-83184148D01*
X102447270Y-83184151D01*
X102620192Y-83261142D01*
X102620197Y-83261144D01*
X102805354Y-83300500D01*
X102829192Y-83300500D01*
X102896231Y-83320185D01*
X102916873Y-83336819D01*
X103713181Y-84133127D01*
X103746666Y-84194450D01*
X103749500Y-84220808D01*
X103749500Y-98224385D01*
X103749500Y-98224387D01*
X103749499Y-98224387D01*
X103774497Y-98350054D01*
X103774499Y-98350060D01*
X103823534Y-98468441D01*
X103894726Y-98574989D01*
X103894727Y-98574990D01*
X104513181Y-99193443D01*
X104546666Y-99254766D01*
X104549500Y-99281124D01*
X104549500Y-104440700D01*
X104529815Y-104507739D01*
X104477011Y-104553494D01*
X104407853Y-104563438D01*
X104346835Y-104536553D01*
X104258539Y-104464090D01*
X104258532Y-104464086D01*
X104084733Y-104371188D01*
X104084727Y-104371186D01*
X103896132Y-104313976D01*
X103896129Y-104313975D01*
X103806299Y-104305127D01*
X103741512Y-104278965D01*
X103730774Y-104269405D01*
X103578421Y-104117052D01*
X103578414Y-104117046D01*
X103504729Y-104067812D01*
X103504729Y-104067813D01*
X103455491Y-104034913D01*
X103318917Y-103978343D01*
X103318907Y-103978340D01*
X103173920Y-103949500D01*
X103173918Y-103949500D01*
X101574500Y-103949500D01*
X101507461Y-103929815D01*
X101461706Y-103877011D01*
X101450500Y-103825500D01*
X101450500Y-62262228D01*
X101470185Y-62195189D01*
X101486814Y-62174552D01*
X103260752Y-60400613D01*
X103322073Y-60367130D01*
X103368836Y-60365987D01*
X103575665Y-60400500D01*
X103575666Y-60400500D01*
X103824335Y-60400500D01*
X104069614Y-60359571D01*
X104304810Y-60278828D01*
X104523509Y-60160474D01*
X104719744Y-60007738D01*
X104726873Y-59999994D01*
X107744556Y-59999994D01*
X107744556Y-60000005D01*
X107764310Y-60314004D01*
X107764311Y-60314011D01*
X107823270Y-60623083D01*
X107920497Y-60922316D01*
X107920499Y-60922321D01*
X108054461Y-61207003D01*
X108054464Y-61207009D01*
X108223051Y-61472661D01*
X108223054Y-61472665D01*
X108423606Y-61715090D01*
X108423608Y-61715092D01*
X108652968Y-61930476D01*
X108652978Y-61930484D01*
X108907504Y-62115408D01*
X108907509Y-62115410D01*
X108907516Y-62115416D01*
X109183234Y-62266994D01*
X109183239Y-62266996D01*
X109183241Y-62266997D01*
X109183242Y-62266998D01*
X109475771Y-62382818D01*
X109475774Y-62382819D01*
X109780523Y-62461065D01*
X109780527Y-62461066D01*
X109846010Y-62469338D01*
X110092670Y-62500499D01*
X110092679Y-62500499D01*
X110092682Y-62500500D01*
X110092684Y-62500500D01*
X110407316Y-62500500D01*
X110407318Y-62500500D01*
X110407321Y-62500499D01*
X110407329Y-62500499D01*
X110593593Y-62476968D01*
X110719473Y-62461066D01*
X111024225Y-62382819D01*
X111045113Y-62374549D01*
X111316757Y-62266998D01*
X111316758Y-62266997D01*
X111316756Y-62266997D01*
X111316766Y-62266994D01*
X111592484Y-62115416D01*
X111847030Y-61930478D01*
X112076390Y-61715094D01*
X112276947Y-61472663D01*
X112445537Y-61207007D01*
X112579503Y-60922315D01*
X112676731Y-60623079D01*
X112735688Y-60314015D01*
X112736531Y-60300616D01*
X112755444Y-60000005D01*
X112755444Y-59999994D01*
X117244556Y-59999994D01*
X117244556Y-60000005D01*
X117264310Y-60314004D01*
X117264311Y-60314011D01*
X117323270Y-60623083D01*
X117420497Y-60922316D01*
X117420499Y-60922321D01*
X117554461Y-61207003D01*
X117554464Y-61207009D01*
X117723051Y-61472661D01*
X117723054Y-61472665D01*
X117923606Y-61715090D01*
X117923608Y-61715092D01*
X118152968Y-61930476D01*
X118152978Y-61930484D01*
X118407504Y-62115408D01*
X118407509Y-62115410D01*
X118407516Y-62115416D01*
X118683234Y-62266994D01*
X118683239Y-62266996D01*
X118683241Y-62266997D01*
X118683242Y-62266998D01*
X118975771Y-62382818D01*
X118975774Y-62382819D01*
X119280523Y-62461065D01*
X119280527Y-62461066D01*
X119346010Y-62469338D01*
X119592670Y-62500499D01*
X119592679Y-62500499D01*
X119592682Y-62500500D01*
X119592684Y-62500500D01*
X119907316Y-62500500D01*
X119907318Y-62500500D01*
X119907321Y-62500499D01*
X119907329Y-62500499D01*
X120093593Y-62476968D01*
X120219473Y-62461066D01*
X120524225Y-62382819D01*
X120545113Y-62374549D01*
X120816757Y-62266998D01*
X120816758Y-62266997D01*
X120816756Y-62266997D01*
X120816766Y-62266994D01*
X121092484Y-62115416D01*
X121347030Y-61930478D01*
X121576390Y-61715094D01*
X121776947Y-61472663D01*
X121945537Y-61207007D01*
X122079503Y-60922315D01*
X122176731Y-60623079D01*
X122235688Y-60314015D01*
X122236531Y-60300616D01*
X122255444Y-60000005D01*
X122255444Y-59999994D01*
X122235689Y-59685995D01*
X122235688Y-59685988D01*
X122235688Y-59685985D01*
X122176731Y-59376921D01*
X122079503Y-59077685D01*
X122065451Y-59047824D01*
X121995888Y-58899994D01*
X121945537Y-58792993D01*
X121856174Y-58652179D01*
X121776948Y-58527338D01*
X121776945Y-58527334D01*
X121576393Y-58284909D01*
X121576391Y-58284907D01*
X121347031Y-58069523D01*
X121347021Y-58069515D01*
X121092495Y-57884591D01*
X121092488Y-57884586D01*
X121092484Y-57884584D01*
X120816766Y-57733006D01*
X120816763Y-57733004D01*
X120816758Y-57733002D01*
X120816757Y-57733001D01*
X120524228Y-57617181D01*
X120524225Y-57617180D01*
X120219476Y-57538934D01*
X120219463Y-57538932D01*
X119907329Y-57499500D01*
X119907318Y-57499500D01*
X119592682Y-57499500D01*
X119592670Y-57499500D01*
X119280536Y-57538932D01*
X119280523Y-57538934D01*
X118975774Y-57617180D01*
X118975771Y-57617181D01*
X118683242Y-57733001D01*
X118683241Y-57733002D01*
X118407516Y-57884584D01*
X118407504Y-57884591D01*
X118152978Y-58069515D01*
X118152968Y-58069523D01*
X117923608Y-58284907D01*
X117923606Y-58284909D01*
X117723054Y-58527334D01*
X117723051Y-58527338D01*
X117554464Y-58792990D01*
X117554461Y-58792996D01*
X117420499Y-59077678D01*
X117420497Y-59077683D01*
X117323270Y-59376916D01*
X117264311Y-59685988D01*
X117264310Y-59685995D01*
X117244556Y-59999994D01*
X112755444Y-59999994D01*
X112735689Y-59685995D01*
X112735688Y-59685988D01*
X112735688Y-59685985D01*
X112676731Y-59376921D01*
X112579503Y-59077685D01*
X112565451Y-59047824D01*
X112495888Y-58899994D01*
X112445537Y-58792993D01*
X112356174Y-58652179D01*
X112276948Y-58527338D01*
X112276945Y-58527334D01*
X112076393Y-58284909D01*
X112076391Y-58284907D01*
X111847031Y-58069523D01*
X111847021Y-58069515D01*
X111592495Y-57884591D01*
X111592488Y-57884586D01*
X111592484Y-57884584D01*
X111316766Y-57733006D01*
X111316763Y-57733004D01*
X111316758Y-57733002D01*
X111316757Y-57733001D01*
X111024228Y-57617181D01*
X111024225Y-57617180D01*
X110719476Y-57538934D01*
X110719463Y-57538932D01*
X110407329Y-57499500D01*
X110407318Y-57499500D01*
X110092682Y-57499500D01*
X110092670Y-57499500D01*
X109780536Y-57538932D01*
X109780523Y-57538934D01*
X109475774Y-57617180D01*
X109475771Y-57617181D01*
X109183242Y-57733001D01*
X109183241Y-57733002D01*
X108907516Y-57884584D01*
X108907504Y-57884591D01*
X108652978Y-58069515D01*
X108652968Y-58069523D01*
X108423608Y-58284907D01*
X108423606Y-58284909D01*
X108223054Y-58527334D01*
X108223051Y-58527338D01*
X108054464Y-58792990D01*
X108054461Y-58792996D01*
X107920499Y-59077678D01*
X107920497Y-59077683D01*
X107823270Y-59376916D01*
X107764311Y-59685988D01*
X107764310Y-59685995D01*
X107744556Y-59999994D01*
X104726873Y-59999994D01*
X104888164Y-59824785D01*
X105024173Y-59616607D01*
X105124063Y-59388881D01*
X105185108Y-59147821D01*
X105185109Y-59147812D01*
X105205643Y-58900005D01*
X105205643Y-58899994D01*
X105185109Y-58652187D01*
X105185107Y-58652175D01*
X105124063Y-58411118D01*
X105024173Y-58183393D01*
X104888166Y-57975217D01*
X104866557Y-57951744D01*
X104719744Y-57792262D01*
X104523509Y-57639526D01*
X104515477Y-57635179D01*
X104465891Y-57585961D01*
X104450500Y-57526128D01*
X104450500Y-56126662D01*
X104470185Y-56059623D01*
X104503379Y-56025086D01*
X104539140Y-56000046D01*
X104700045Y-55839141D01*
X104700047Y-55839139D01*
X104830568Y-55652734D01*
X104926739Y-55446496D01*
X104985635Y-55226692D01*
X105005468Y-55000000D01*
X104985635Y-54773308D01*
X104926739Y-54553504D01*
X104830568Y-54347266D01*
X104700047Y-54160861D01*
X104700045Y-54160858D01*
X104542913Y-54003726D01*
X104509428Y-53942403D01*
X104514412Y-53872711D01*
X104556284Y-53816778D01*
X104602078Y-53795368D01*
X104607480Y-53794091D01*
X104607483Y-53794091D01*
X104742331Y-53743796D01*
X104857546Y-53657546D01*
X104943796Y-53542331D01*
X104994091Y-53407483D01*
X105000500Y-53347873D01*
X105000499Y-51652128D01*
X104994091Y-51592517D01*
X104979044Y-51552175D01*
X104943797Y-51457671D01*
X104943793Y-51457664D01*
X104857547Y-51342455D01*
X104857544Y-51342452D01*
X104742335Y-51256206D01*
X104742328Y-51256202D01*
X104607482Y-51205908D01*
X104607483Y-51205908D01*
X104547883Y-51199501D01*
X104547881Y-51199500D01*
X104547873Y-51199500D01*
X104547864Y-51199500D01*
X102852129Y-51199500D01*
X102852123Y-51199501D01*
X102792516Y-51205908D01*
X102657671Y-51256202D01*
X102657664Y-51256206D01*
X102542455Y-51342452D01*
X102542452Y-51342455D01*
X102456206Y-51457664D01*
X102456202Y-51457671D01*
X102405908Y-51592517D01*
X102399501Y-51652116D01*
X102399501Y-51652123D01*
X102399500Y-51652135D01*
X102399500Y-53347870D01*
X102399501Y-53347876D01*
X102405908Y-53407483D01*
X102456202Y-53542328D01*
X102456206Y-53542335D01*
X102542452Y-53657544D01*
X102542455Y-53657547D01*
X102657664Y-53743793D01*
X102657671Y-53743797D01*
X102710927Y-53763660D01*
X102792517Y-53794091D01*
X102792527Y-53794092D01*
X102797913Y-53795365D01*
X102858631Y-53829935D01*
X102891021Y-53891843D01*
X102884799Y-53961435D01*
X102857088Y-54003725D01*
X102699951Y-54160862D01*
X102569432Y-54347265D01*
X102569431Y-54347267D01*
X102473261Y-54553502D01*
X102473258Y-54553511D01*
X102414366Y-54773302D01*
X102414364Y-54773313D01*
X102394532Y-54999998D01*
X102394532Y-55000001D01*
X102414364Y-55226686D01*
X102414366Y-55226697D01*
X102473258Y-55446488D01*
X102473261Y-55446497D01*
X102569431Y-55652732D01*
X102569432Y-55652734D01*
X102699954Y-55839141D01*
X102860859Y-56000046D01*
X102896621Y-56025086D01*
X102940247Y-56079662D01*
X102949500Y-56126662D01*
X102949500Y-57526128D01*
X102929815Y-57593167D01*
X102884522Y-57635179D01*
X102876491Y-57639526D01*
X102808737Y-57692261D01*
X102680257Y-57792261D01*
X102511833Y-57975217D01*
X102375826Y-58183393D01*
X102275936Y-58411118D01*
X102214892Y-58652175D01*
X102214890Y-58652187D01*
X102194357Y-58899994D01*
X102194357Y-58900005D01*
X102214891Y-59147817D01*
X102233143Y-59219892D01*
X102230518Y-59289712D01*
X102200618Y-59338013D01*
X100462181Y-61076451D01*
X100400858Y-61109936D01*
X100331166Y-61104952D01*
X100275233Y-61063080D01*
X100250816Y-60997616D01*
X100250500Y-60988770D01*
X100250500Y-50374500D01*
X100270185Y-50307461D01*
X100322989Y-50261706D01*
X100374500Y-50250500D01*
X114220899Y-50250500D01*
X114287938Y-50270185D01*
G37*
G04 #@! TD.AperFunction*
G04 #@! TA.AperFunction,NonConductor*
G36*
X114037699Y-96527775D02*
G01*
X114054436Y-96538755D01*
X114231365Y-96676464D01*
X114231380Y-96676474D01*
X114284516Y-96705229D01*
X114334107Y-96754447D01*
X114349500Y-96814284D01*
X114349500Y-105693405D01*
X114329815Y-105760444D01*
X114313181Y-105781086D01*
X112112181Y-107982086D01*
X112050858Y-108015571D01*
X111981166Y-108010587D01*
X111925233Y-107968715D01*
X111900816Y-107903251D01*
X111900500Y-107894405D01*
X111900500Y-97024499D01*
X111920185Y-96957460D01*
X111972989Y-96911705D01*
X112024500Y-96900499D01*
X113447871Y-96900499D01*
X113447872Y-96900499D01*
X113507483Y-96894091D01*
X113642331Y-96843796D01*
X113757546Y-96757546D01*
X113843796Y-96642331D01*
X113862092Y-96593274D01*
X113903961Y-96537342D01*
X113969425Y-96512924D01*
X114037699Y-96527775D01*
G37*
G04 #@! TD.AperFunction*
G04 #@! TA.AperFunction,NonConductor*
G36*
X108747385Y-89999075D02*
G01*
X108907504Y-90115408D01*
X108907509Y-90115410D01*
X108907516Y-90115416D01*
X109183234Y-90266994D01*
X109183239Y-90266996D01*
X109183241Y-90266997D01*
X109183242Y-90266998D01*
X109475771Y-90382818D01*
X109475774Y-90382819D01*
X109508950Y-90391337D01*
X109780527Y-90461066D01*
X109846010Y-90469338D01*
X110092670Y-90500499D01*
X110092679Y-90500499D01*
X110092682Y-90500500D01*
X110092684Y-90500500D01*
X110407316Y-90500500D01*
X110407318Y-90500500D01*
X110407321Y-90500499D01*
X110407329Y-90500499D01*
X110593593Y-90476968D01*
X110719473Y-90461066D01*
X110817978Y-90435774D01*
X110887802Y-90438167D01*
X110945252Y-90477933D01*
X110972082Y-90542446D01*
X110959776Y-90611223D01*
X110936494Y-90643559D01*
X110744718Y-90835336D01*
X110744717Y-90835337D01*
X110716065Y-90878222D01*
X110716063Y-90878225D01*
X110699028Y-90903719D01*
X110673534Y-90941873D01*
X110624499Y-91060255D01*
X110624497Y-91060261D01*
X110599500Y-91185928D01*
X110599500Y-108382744D01*
X110579815Y-108449783D01*
X110563181Y-108470425D01*
X110032111Y-109001495D01*
X109970788Y-109034980D01*
X109944430Y-109037814D01*
X109920592Y-109037814D01*
X109888135Y-109044712D01*
X109735435Y-109077169D01*
X109735430Y-109077171D01*
X109562508Y-109154162D01*
X109562503Y-109154165D01*
X109409367Y-109265425D01*
X109282704Y-109406099D01*
X109188059Y-109570029D01*
X109188056Y-109570036D01*
X109161945Y-109650399D01*
X109129564Y-109750058D01*
X109109778Y-109938314D01*
X109129564Y-110126570D01*
X109129565Y-110126573D01*
X109188056Y-110306591D01*
X109188059Y-110306598D01*
X109282705Y-110470530D01*
X109365547Y-110562535D01*
X109395777Y-110625526D01*
X109387152Y-110694861D01*
X109361078Y-110733188D01*
X108512181Y-111582085D01*
X108450858Y-111615570D01*
X108381166Y-111610586D01*
X108325233Y-111568714D01*
X108300816Y-111503250D01*
X108300500Y-111494404D01*
X108300500Y-102335928D01*
X108275502Y-102210261D01*
X108275501Y-102210260D01*
X108275501Y-102210256D01*
X108226465Y-102091873D01*
X108186604Y-102032216D01*
X108186604Y-102032215D01*
X108155275Y-101985328D01*
X108142964Y-101973017D01*
X108109479Y-101911694D01*
X108114463Y-101842002D01*
X108127544Y-101816444D01*
X108146460Y-101788134D01*
X108146465Y-101788127D01*
X108178720Y-101710256D01*
X108195501Y-101669744D01*
X108217360Y-101559856D01*
X108220500Y-101544071D01*
X108220500Y-101539808D01*
X108240185Y-101472769D01*
X108292989Y-101427014D01*
X108362147Y-101417070D01*
X108425703Y-101446095D01*
X108432181Y-101452127D01*
X108465191Y-101485137D01*
X108498676Y-101546460D01*
X108500830Y-101559851D01*
X108514326Y-101688256D01*
X108514327Y-101688259D01*
X108572818Y-101868277D01*
X108572821Y-101868284D01*
X108667467Y-102032216D01*
X108794129Y-102172888D01*
X108947265Y-102284148D01*
X108947270Y-102284151D01*
X109120192Y-102361142D01*
X109120197Y-102361144D01*
X109305354Y-102400500D01*
X109305355Y-102400500D01*
X109494644Y-102400500D01*
X109494646Y-102400500D01*
X109679803Y-102361144D01*
X109852730Y-102284151D01*
X110005871Y-102172888D01*
X110132533Y-102032216D01*
X110227179Y-101868284D01*
X110285674Y-101688256D01*
X110305460Y-101500000D01*
X110285674Y-101311744D01*
X110227179Y-101131716D01*
X110132533Y-100967784D01*
X110005871Y-100827112D01*
X110005870Y-100827111D01*
X109852734Y-100715851D01*
X109852729Y-100715848D01*
X109679035Y-100638513D01*
X109625798Y-100593262D01*
X109605477Y-100526413D01*
X109622084Y-100463234D01*
X109622860Y-100461888D01*
X109622864Y-100461885D01*
X109717510Y-100297953D01*
X109776005Y-100117925D01*
X109795791Y-99929669D01*
X109776005Y-99741413D01*
X109717510Y-99561385D01*
X109622864Y-99397453D01*
X109496202Y-99256781D01*
X109493429Y-99254766D01*
X109343063Y-99145518D01*
X109294063Y-99123702D01*
X109240827Y-99078451D01*
X109220506Y-99011602D01*
X109220500Y-99010423D01*
X109220500Y-91291716D01*
X109195502Y-91166049D01*
X109195501Y-91166048D01*
X109195501Y-91166044D01*
X109146465Y-91047661D01*
X109132047Y-91026083D01*
X109075277Y-90941119D01*
X109075275Y-90941117D01*
X109075273Y-90941114D01*
X108586819Y-90452660D01*
X108553334Y-90391337D01*
X108550500Y-90364979D01*
X108550500Y-90099393D01*
X108570185Y-90032354D01*
X108622989Y-89986599D01*
X108692147Y-89976655D01*
X108747385Y-89999075D01*
G37*
G04 #@! TD.AperFunction*
G04 #@! TA.AperFunction,NonConductor*
G36*
X102675208Y-105470185D02*
G01*
X102720963Y-105522989D01*
X102726829Y-105538504D01*
X102771186Y-105684728D01*
X102864086Y-105858532D01*
X102864090Y-105858539D01*
X102989116Y-106010883D01*
X103141460Y-106135909D01*
X103141467Y-106135913D01*
X103315266Y-106228811D01*
X103315269Y-106228811D01*
X103315273Y-106228814D01*
X103503868Y-106286024D01*
X103700000Y-106305341D01*
X103896132Y-106286024D01*
X104084727Y-106228814D01*
X104258538Y-106135910D01*
X104346835Y-106063445D01*
X104411144Y-106036133D01*
X104480012Y-106047924D01*
X104531572Y-106095076D01*
X104549500Y-106159299D01*
X104549500Y-109524730D01*
X104549500Y-109524732D01*
X104549499Y-109524732D01*
X104574497Y-109650399D01*
X104574499Y-109650405D01*
X104623535Y-109768788D01*
X104654320Y-109814861D01*
X104694726Y-109875334D01*
X104708881Y-109889489D01*
X104742366Y-109950812D01*
X104737382Y-110020504D01*
X104695510Y-110076437D01*
X104668653Y-110091731D01*
X104591875Y-110123533D01*
X104485326Y-110194726D01*
X104485325Y-110194727D01*
X102162181Y-112517872D01*
X102100858Y-112551357D01*
X102031166Y-112546373D01*
X101975233Y-112504501D01*
X101950816Y-112439037D01*
X101950500Y-112430191D01*
X101950500Y-106485279D01*
X101970185Y-106418240D01*
X102001615Y-106384961D01*
X102002730Y-106384151D01*
X102155871Y-106272888D01*
X102282533Y-106132216D01*
X102377179Y-105968284D01*
X102435674Y-105788256D01*
X102455460Y-105600000D01*
X102454142Y-105587460D01*
X102466712Y-105518731D01*
X102514444Y-105467708D01*
X102577463Y-105450500D01*
X102608169Y-105450500D01*
X102675208Y-105470185D01*
G37*
G04 #@! TD.AperFunction*
G04 #@! TA.AperFunction,NonConductor*
G36*
X106168834Y-115160733D02*
G01*
X106224767Y-115202605D01*
X106249184Y-115268069D01*
X106249500Y-115276915D01*
X106249500Y-117079195D01*
X106229815Y-117146234D01*
X106213181Y-117166876D01*
X104616876Y-118763181D01*
X104555553Y-118796666D01*
X104529195Y-118799500D01*
X104505355Y-118799500D01*
X104400280Y-118821834D01*
X104330613Y-118816518D01*
X104274880Y-118774380D01*
X104250775Y-118708800D01*
X104250500Y-118700544D01*
X104250500Y-117384553D01*
X104270185Y-117317514D01*
X104322989Y-117271759D01*
X104392147Y-117261815D01*
X104441167Y-117281711D01*
X104441637Y-117280899D01*
X104447270Y-117284151D01*
X104620192Y-117361142D01*
X104620197Y-117361144D01*
X104805354Y-117400500D01*
X104805355Y-117400500D01*
X104994644Y-117400500D01*
X104994646Y-117400500D01*
X105179803Y-117361144D01*
X105352730Y-117284151D01*
X105505871Y-117172888D01*
X105632533Y-117032216D01*
X105727179Y-116868284D01*
X105785674Y-116688256D01*
X105805460Y-116500000D01*
X105785674Y-116311744D01*
X105727179Y-116131716D01*
X105632533Y-115967784D01*
X105582350Y-115912050D01*
X105552120Y-115849058D01*
X105550500Y-115829078D01*
X105550500Y-115727915D01*
X105570185Y-115660876D01*
X105586819Y-115640234D01*
X106037819Y-115189234D01*
X106099142Y-115155749D01*
X106168834Y-115160733D01*
G37*
G04 #@! TD.AperFunction*
G04 #@! TA.AperFunction,NonConductor*
G36*
X128668834Y-93095047D02*
G01*
X128724767Y-93136919D01*
X128749184Y-93202383D01*
X128749500Y-93211229D01*
X128749500Y-103937770D01*
X128729815Y-104004809D01*
X128713181Y-104025451D01*
X126625451Y-106113181D01*
X126564128Y-106146666D01*
X126537770Y-106149500D01*
X118706978Y-106149500D01*
X118639939Y-106129815D01*
X118628313Y-106121353D01*
X118558539Y-106064090D01*
X118558532Y-106064086D01*
X118384733Y-105971188D01*
X118384727Y-105971186D01*
X118196132Y-105913976D01*
X118196129Y-105913975D01*
X118000000Y-105894659D01*
X117803870Y-105913975D01*
X117615266Y-105971188D01*
X117441467Y-106064086D01*
X117441460Y-106064090D01*
X117289116Y-106189116D01*
X117164090Y-106341460D01*
X117164086Y-106341467D01*
X117071188Y-106515266D01*
X117013975Y-106703870D01*
X116994659Y-106900000D01*
X117013975Y-107096129D01*
X117071188Y-107284733D01*
X117164086Y-107458532D01*
X117164090Y-107458539D01*
X117289116Y-107610883D01*
X117441460Y-107735909D01*
X117441467Y-107735913D01*
X117615266Y-107828811D01*
X117615269Y-107828811D01*
X117615273Y-107828814D01*
X117803868Y-107886024D01*
X118000000Y-107905341D01*
X118196132Y-107886024D01*
X118384727Y-107828814D01*
X118558538Y-107735910D01*
X118628313Y-107678647D01*
X118692623Y-107651334D01*
X118706978Y-107650500D01*
X126973920Y-107650500D01*
X127071462Y-107631096D01*
X127118913Y-107621658D01*
X127255495Y-107565084D01*
X127304729Y-107532186D01*
X127378416Y-107482952D01*
X128537819Y-106323547D01*
X128599142Y-106290063D01*
X128668834Y-106295047D01*
X128724767Y-106336919D01*
X128749184Y-106402383D01*
X128749500Y-106411229D01*
X128749500Y-117837770D01*
X128729815Y-117904809D01*
X128713181Y-117925451D01*
X127475451Y-119163181D01*
X127414128Y-119196666D01*
X127387770Y-119199500D01*
X114419809Y-119199500D01*
X114352770Y-119179815D01*
X114307015Y-119127011D01*
X114297071Y-119057853D01*
X114326096Y-118994297D01*
X114332128Y-118987819D01*
X114983127Y-118336819D01*
X115044450Y-118303334D01*
X115070808Y-118300500D01*
X115094644Y-118300500D01*
X115094646Y-118300500D01*
X115279803Y-118261144D01*
X115452730Y-118184151D01*
X115604090Y-118074182D01*
X115669896Y-118050702D01*
X115676975Y-118050500D01*
X122464071Y-118050500D01*
X122548615Y-118033682D01*
X122589744Y-118025501D01*
X122708127Y-117976465D01*
X122712381Y-117973621D01*
X122721117Y-117967786D01*
X122721119Y-117967785D01*
X122791122Y-117921010D01*
X122814669Y-117905277D01*
X124887536Y-115832408D01*
X124934952Y-115802809D01*
X125004810Y-115778828D01*
X125223509Y-115660474D01*
X125419744Y-115507738D01*
X125588164Y-115324785D01*
X125724173Y-115116607D01*
X125824063Y-114888881D01*
X125885108Y-114647821D01*
X125905643Y-114400000D01*
X125903730Y-114376916D01*
X125885109Y-114152187D01*
X125885107Y-114152175D01*
X125824063Y-113911118D01*
X125724173Y-113683393D01*
X125588166Y-113475217D01*
X125548579Y-113432214D01*
X125419744Y-113292262D01*
X125223509Y-113139526D01*
X125223507Y-113139525D01*
X125223506Y-113139524D01*
X125004811Y-113021172D01*
X125004802Y-113021169D01*
X124769616Y-112940429D01*
X124524335Y-112899500D01*
X124275665Y-112899500D01*
X124030383Y-112940429D01*
X123795197Y-113021169D01*
X123795188Y-113021172D01*
X123576493Y-113139524D01*
X123380257Y-113292261D01*
X123211833Y-113475217D01*
X123075826Y-113683393D01*
X122975936Y-113911118D01*
X122914892Y-114152175D01*
X122914890Y-114152187D01*
X122894357Y-114399994D01*
X122894357Y-114400005D01*
X122914890Y-114647812D01*
X122914892Y-114647824D01*
X122975936Y-114888881D01*
X123075826Y-115116606D01*
X123104656Y-115160733D01*
X123211836Y-115324785D01*
X123261998Y-115379276D01*
X123295869Y-115416070D01*
X123326791Y-115478724D01*
X123318930Y-115548150D01*
X123292320Y-115587733D01*
X122166873Y-116713181D01*
X122105550Y-116746666D01*
X122079192Y-116749500D01*
X121811441Y-116749500D01*
X121744402Y-116729815D01*
X121698647Y-116677011D01*
X121688703Y-116607853D01*
X121715898Y-116546459D01*
X121776945Y-116472665D01*
X121776948Y-116472661D01*
X121945537Y-116207007D01*
X122079503Y-115922315D01*
X122176731Y-115623079D01*
X122235688Y-115314015D01*
X122238579Y-115268069D01*
X122255444Y-115000005D01*
X122255444Y-114999994D01*
X122235689Y-114685995D01*
X122235688Y-114685988D01*
X122235688Y-114685985D01*
X122176731Y-114376921D01*
X122079503Y-114077685D01*
X121945537Y-113792993D01*
X121875983Y-113683393D01*
X121776948Y-113527338D01*
X121776945Y-113527334D01*
X121576393Y-113284909D01*
X121576391Y-113284907D01*
X121347031Y-113069523D01*
X121347021Y-113069515D01*
X121092495Y-112884591D01*
X121092488Y-112884586D01*
X121092484Y-112884584D01*
X120816766Y-112733006D01*
X120816763Y-112733004D01*
X120816758Y-112733002D01*
X120816757Y-112733001D01*
X120524228Y-112617181D01*
X120524225Y-112617180D01*
X120219476Y-112538934D01*
X120219463Y-112538932D01*
X119907329Y-112499500D01*
X119907318Y-112499500D01*
X119592682Y-112499500D01*
X119592670Y-112499500D01*
X119411481Y-112522390D01*
X119342503Y-112511263D01*
X119290491Y-112464610D01*
X119271958Y-112397243D01*
X119292789Y-112330551D01*
X119308259Y-112311687D01*
X120883127Y-110736819D01*
X120944450Y-110703334D01*
X120970808Y-110700500D01*
X120994644Y-110700500D01*
X120994646Y-110700500D01*
X121179803Y-110661144D01*
X121352730Y-110584151D01*
X121505871Y-110472888D01*
X121632533Y-110332216D01*
X121727179Y-110168284D01*
X121785674Y-109988256D01*
X121805460Y-109800000D01*
X121785674Y-109611744D01*
X121727179Y-109431716D01*
X121632533Y-109267784D01*
X121505871Y-109127112D01*
X121505870Y-109127111D01*
X121352734Y-109015851D01*
X121352729Y-109015848D01*
X121179807Y-108938857D01*
X121179802Y-108938855D01*
X121034001Y-108907865D01*
X120994646Y-108899500D01*
X120805354Y-108899500D01*
X120772897Y-108906398D01*
X120620197Y-108938855D01*
X120620192Y-108938857D01*
X120447270Y-109015848D01*
X120447265Y-109015851D01*
X120294129Y-109127111D01*
X120167466Y-109267785D01*
X120072821Y-109431715D01*
X120072818Y-109431722D01*
X120014327Y-109611739D01*
X120014326Y-109611741D01*
X120000831Y-109740142D01*
X119974246Y-109804757D01*
X119965191Y-109814861D01*
X118466873Y-111313181D01*
X118405550Y-111346666D01*
X118379192Y-111349500D01*
X114935929Y-111349500D01*
X114818355Y-111372888D01*
X114810256Y-111374499D01*
X114810255Y-111374499D01*
X114691875Y-111423533D01*
X114691866Y-111423538D01*
X114585331Y-111494723D01*
X114585327Y-111494726D01*
X114116873Y-111963181D01*
X114055550Y-111996666D01*
X114029192Y-111999500D01*
X114005354Y-111999500D01*
X113972897Y-112006398D01*
X113820197Y-112038855D01*
X113820192Y-112038857D01*
X113647270Y-112115848D01*
X113647265Y-112115851D01*
X113494129Y-112227111D01*
X113367466Y-112367785D01*
X113272821Y-112531715D01*
X113272818Y-112531722D01*
X113227829Y-112670185D01*
X113214326Y-112711744D01*
X113194540Y-112900000D01*
X113214326Y-113088256D01*
X113214327Y-113088259D01*
X113272818Y-113268277D01*
X113272821Y-113268284D01*
X113367467Y-113432216D01*
X113494129Y-113572888D01*
X113647265Y-113684148D01*
X113647270Y-113684151D01*
X113820192Y-113761142D01*
X113820197Y-113761144D01*
X114005354Y-113800500D01*
X114005355Y-113800500D01*
X114194644Y-113800500D01*
X114194646Y-113800500D01*
X114379803Y-113761144D01*
X114552730Y-113684151D01*
X114705871Y-113572888D01*
X114832533Y-113432216D01*
X114927179Y-113268284D01*
X114985674Y-113088256D01*
X114999168Y-112959854D01*
X115025752Y-112895241D01*
X115034789Y-112885154D01*
X115233127Y-112686816D01*
X115294450Y-112653334D01*
X115320807Y-112650500D01*
X118350365Y-112650500D01*
X118417404Y-112670185D01*
X118463159Y-112722989D01*
X118473103Y-112792147D01*
X118444078Y-112855703D01*
X118410101Y-112883163D01*
X118407516Y-112884583D01*
X118407504Y-112884591D01*
X118152978Y-113069515D01*
X118152968Y-113069523D01*
X117923608Y-113284907D01*
X117923606Y-113284909D01*
X117723054Y-113527334D01*
X117723051Y-113527338D01*
X117554464Y-113792990D01*
X117554461Y-113792996D01*
X117420499Y-114077678D01*
X117420497Y-114077683D01*
X117323270Y-114376916D01*
X117323269Y-114376920D01*
X117323269Y-114376921D01*
X117317522Y-114407046D01*
X117264311Y-114685988D01*
X117264310Y-114685995D01*
X117244556Y-114999994D01*
X117244556Y-115000005D01*
X117264310Y-115314004D01*
X117264311Y-115314011D01*
X117264312Y-115314015D01*
X117316526Y-115587733D01*
X117323270Y-115623083D01*
X117420497Y-115922316D01*
X117420499Y-115922321D01*
X117554461Y-116207003D01*
X117554464Y-116207009D01*
X117723051Y-116472661D01*
X117723054Y-116472665D01*
X117784102Y-116546459D01*
X117811668Y-116610661D01*
X117800147Y-116679575D01*
X117753198Y-116731320D01*
X117688559Y-116749500D01*
X115676975Y-116749500D01*
X115609936Y-116729815D01*
X115604090Y-116725818D01*
X115452734Y-116615851D01*
X115452729Y-116615848D01*
X115279807Y-116538857D01*
X115279802Y-116538855D01*
X115134001Y-116507865D01*
X115094646Y-116499500D01*
X114905354Y-116499500D01*
X114872897Y-116506398D01*
X114720197Y-116538855D01*
X114720192Y-116538857D01*
X114547270Y-116615848D01*
X114547265Y-116615851D01*
X114394129Y-116727111D01*
X114267466Y-116867785D01*
X114172821Y-117031715D01*
X114172818Y-117031722D01*
X114114327Y-117211739D01*
X114114326Y-117211741D01*
X114100831Y-117340143D01*
X114074246Y-117404757D01*
X114065191Y-117414862D01*
X113666873Y-117813181D01*
X113605550Y-117846666D01*
X113579192Y-117849500D01*
X107603487Y-117849500D01*
X107536448Y-117829815D01*
X107490693Y-117777011D01*
X107480749Y-117707853D01*
X107488926Y-117678048D01*
X107504910Y-117639455D01*
X107525501Y-117589747D01*
X107529653Y-117568872D01*
X107550500Y-117464072D01*
X107550500Y-115504955D01*
X107570185Y-115437916D01*
X107622989Y-115392161D01*
X107692147Y-115382217D01*
X107755703Y-115411242D01*
X107793477Y-115470020D01*
X107796301Y-115481707D01*
X107817316Y-115591872D01*
X107823270Y-115623083D01*
X107920497Y-115922316D01*
X107920499Y-115922321D01*
X108054461Y-116207003D01*
X108054464Y-116207009D01*
X108223051Y-116472661D01*
X108223054Y-116472665D01*
X108423606Y-116715090D01*
X108423608Y-116715092D01*
X108652968Y-116930476D01*
X108652978Y-116930484D01*
X108907504Y-117115408D01*
X108907509Y-117115410D01*
X108907516Y-117115416D01*
X109183234Y-117266994D01*
X109183239Y-117266996D01*
X109183241Y-117266997D01*
X109183242Y-117266998D01*
X109475771Y-117382818D01*
X109475774Y-117382819D01*
X109600574Y-117414862D01*
X109780527Y-117461066D01*
X109846010Y-117469338D01*
X110092670Y-117500499D01*
X110092679Y-117500499D01*
X110092682Y-117500500D01*
X110092684Y-117500500D01*
X110407316Y-117500500D01*
X110407318Y-117500500D01*
X110407321Y-117500499D01*
X110407329Y-117500499D01*
X110593593Y-117476968D01*
X110719473Y-117461066D01*
X111024225Y-117382819D01*
X111078970Y-117361144D01*
X111316757Y-117266998D01*
X111316758Y-117266997D01*
X111316756Y-117266997D01*
X111316766Y-117266994D01*
X111592484Y-117115416D01*
X111847030Y-116930478D01*
X112076390Y-116715094D01*
X112276947Y-116472663D01*
X112445537Y-116207007D01*
X112579503Y-115922315D01*
X112676731Y-115623079D01*
X112735688Y-115314015D01*
X112738579Y-115268069D01*
X112755444Y-115000005D01*
X112755444Y-114999994D01*
X112735689Y-114685995D01*
X112735688Y-114685988D01*
X112735688Y-114685985D01*
X112676731Y-114376921D01*
X112579503Y-114077685D01*
X112445537Y-113792993D01*
X112375983Y-113683393D01*
X112276948Y-113527338D01*
X112276945Y-113527334D01*
X112076393Y-113284909D01*
X112076391Y-113284907D01*
X111847031Y-113069523D01*
X111847021Y-113069515D01*
X111592495Y-112884591D01*
X111592488Y-112884586D01*
X111592484Y-112884584D01*
X111316766Y-112733006D01*
X111316763Y-112733004D01*
X111316758Y-112733002D01*
X111316757Y-112733001D01*
X111024228Y-112617181D01*
X111024225Y-112617180D01*
X110719476Y-112538934D01*
X110719463Y-112538932D01*
X110407329Y-112499500D01*
X110407318Y-112499500D01*
X110092682Y-112499500D01*
X110092670Y-112499500D01*
X109780536Y-112538932D01*
X109780534Y-112538932D01*
X109701144Y-112559316D01*
X109631316Y-112556921D01*
X109573867Y-112517154D01*
X109547037Y-112452641D01*
X109559345Y-112383864D01*
X109582624Y-112351533D01*
X115505277Y-106428882D01*
X115576465Y-106322340D01*
X115625501Y-106203957D01*
X115636333Y-106149500D01*
X115650500Y-106078282D01*
X115650500Y-96814284D01*
X115670185Y-96747245D01*
X115715484Y-96705229D01*
X115768619Y-96676474D01*
X115768620Y-96676472D01*
X115768626Y-96676470D01*
X115798614Y-96653130D01*
X115875513Y-96593277D01*
X115951784Y-96533913D01*
X116108979Y-96363153D01*
X116146191Y-96306196D01*
X116199337Y-96260839D01*
X116268569Y-96251415D01*
X116331904Y-96280917D01*
X116353809Y-96306196D01*
X116391016Y-96363147D01*
X116391019Y-96363151D01*
X116391021Y-96363153D01*
X116548216Y-96533913D01*
X116548219Y-96533915D01*
X116548222Y-96533918D01*
X116731365Y-96676464D01*
X116731371Y-96676468D01*
X116731374Y-96676470D01*
X116935497Y-96786936D01*
X117015159Y-96814284D01*
X117155015Y-96862297D01*
X117155017Y-96862297D01*
X117155019Y-96862298D01*
X117383951Y-96900500D01*
X117383952Y-96900500D01*
X117616048Y-96900500D01*
X117616049Y-96900500D01*
X117844981Y-96862298D01*
X118064503Y-96786936D01*
X118268626Y-96676470D01*
X118298614Y-96653130D01*
X118375513Y-96593277D01*
X118451784Y-96533913D01*
X118608979Y-96363153D01*
X118735924Y-96168849D01*
X118829157Y-95956300D01*
X118886134Y-95731305D01*
X118905300Y-95500000D01*
X118905300Y-95499993D01*
X118886135Y-95268702D01*
X118886131Y-95268682D01*
X118832004Y-95054941D01*
X118834628Y-94985120D01*
X118874584Y-94927803D01*
X118939185Y-94901186D01*
X118952209Y-94900500D01*
X126523920Y-94900500D01*
X126621462Y-94881096D01*
X126668913Y-94871658D01*
X126805495Y-94815084D01*
X126854729Y-94782186D01*
X126928416Y-94732952D01*
X128537819Y-93123547D01*
X128599142Y-93090063D01*
X128668834Y-93095047D01*
G37*
G04 #@! TD.AperFunction*
G04 #@! TA.AperFunction,NonConductor*
G36*
X105690064Y-111370185D02*
G01*
X105695910Y-111374182D01*
X105847265Y-111484148D01*
X105847270Y-111484151D01*
X106020192Y-111561142D01*
X106020197Y-111561144D01*
X106205354Y-111600500D01*
X106205355Y-111600500D01*
X106375500Y-111600500D01*
X106442539Y-111620185D01*
X106488294Y-111672989D01*
X106499500Y-111724500D01*
X106499500Y-112029191D01*
X106479815Y-112096230D01*
X106463181Y-112116872D01*
X103094727Y-115485325D01*
X103094724Y-115485328D01*
X103034145Y-115575993D01*
X103023535Y-115591872D01*
X102974499Y-115710255D01*
X102974497Y-115710261D01*
X102949500Y-115835928D01*
X102949500Y-119029078D01*
X102929815Y-119096117D01*
X102917650Y-119112050D01*
X102867466Y-119167785D01*
X102772821Y-119331715D01*
X102772818Y-119331722D01*
X102714327Y-119511740D01*
X102714326Y-119511744D01*
X102699183Y-119655824D01*
X102697821Y-119668786D01*
X102671236Y-119733400D01*
X102613939Y-119773385D01*
X102544120Y-119776045D01*
X102483946Y-119740536D01*
X102452523Y-119678131D01*
X102450500Y-119655824D01*
X102450500Y-114120808D01*
X102470185Y-114053769D01*
X102486819Y-114033127D01*
X105133127Y-111386819D01*
X105194450Y-111353334D01*
X105220808Y-111350500D01*
X105623025Y-111350500D01*
X105690064Y-111370185D01*
G37*
G04 #@! TD.AperFunction*
G04 #@! TA.AperFunction,NonConductor*
G36*
X102155703Y-121476095D02*
G01*
X102162181Y-121482127D01*
X102435324Y-121755271D01*
X102435327Y-121755274D01*
X102435330Y-121755276D01*
X102488101Y-121790536D01*
X102541873Y-121826465D01*
X102660256Y-121875501D01*
X102660260Y-121875501D01*
X102660261Y-121875502D01*
X102785928Y-121900500D01*
X102785931Y-121900500D01*
X105233680Y-121900500D01*
X105300719Y-121920185D01*
X105346474Y-121972989D01*
X105356418Y-122042147D01*
X105350199Y-122066919D01*
X105348722Y-122070975D01*
X105293452Y-122277247D01*
X105293450Y-122277258D01*
X105274838Y-122489998D01*
X105274838Y-122490001D01*
X105293450Y-122702741D01*
X105293452Y-122702752D01*
X105344538Y-122893407D01*
X105342875Y-122963256D01*
X105303712Y-123021119D01*
X105239484Y-123048623D01*
X105224763Y-123049500D01*
X103069336Y-123049500D01*
X103002297Y-123029815D01*
X102981655Y-123013181D01*
X101986819Y-122018345D01*
X101953334Y-121957022D01*
X101950500Y-121930664D01*
X101950500Y-121569808D01*
X101970185Y-121502769D01*
X102022989Y-121457014D01*
X102092147Y-121447070D01*
X102155703Y-121476095D01*
G37*
G04 #@! TD.AperFunction*
G04 #@! TA.AperFunction,NonConductor*
G36*
X100455703Y-123317516D02*
G01*
X100462179Y-123323546D01*
X101111619Y-123972987D01*
X101732262Y-124593630D01*
X101765747Y-124654953D01*
X101760763Y-124724645D01*
X101718891Y-124780578D01*
X101695018Y-124794590D01*
X101647267Y-124815850D01*
X101647265Y-124815851D01*
X101494129Y-124927111D01*
X101367466Y-125067785D01*
X101272821Y-125231715D01*
X101272818Y-125231722D01*
X101214327Y-125411739D01*
X101214326Y-125411741D01*
X101200831Y-125540142D01*
X101174246Y-125604757D01*
X101165191Y-125614861D01*
X100462181Y-126317872D01*
X100400858Y-126351357D01*
X100331167Y-126346373D01*
X100275233Y-126304502D01*
X100250816Y-126239037D01*
X100250500Y-126230191D01*
X100250500Y-123411229D01*
X100270185Y-123344190D01*
X100322989Y-123298435D01*
X100392147Y-123288491D01*
X100455703Y-123317516D01*
G37*
G04 #@! TD.AperFunction*
G04 #@! TA.AperFunction,NonConductor*
G36*
X103106458Y-125770628D02*
G01*
X103126215Y-125774558D01*
X103156081Y-125780500D01*
X103156082Y-125780500D01*
X103303917Y-125780500D01*
X105473090Y-125780500D01*
X105540129Y-125800185D01*
X105560771Y-125816819D01*
X105713181Y-125969229D01*
X105746666Y-126030552D01*
X105749500Y-126056910D01*
X105749500Y-127693021D01*
X105729815Y-127760060D01*
X105721353Y-127771686D01*
X105664091Y-127841460D01*
X105664086Y-127841467D01*
X105571188Y-128015266D01*
X105513975Y-128203870D01*
X105494659Y-128400000D01*
X105513975Y-128596129D01*
X105513976Y-128596132D01*
X105563762Y-128760255D01*
X105571188Y-128784733D01*
X105664084Y-128958529D01*
X105664087Y-128958533D01*
X105664090Y-128958538D01*
X105721354Y-129028314D01*
X105748666Y-129092620D01*
X105749500Y-129106976D01*
X105749500Y-132037769D01*
X105729815Y-132104808D01*
X105713181Y-132125450D01*
X102369225Y-135469405D01*
X102307902Y-135502890D01*
X102293700Y-135505127D01*
X102203866Y-135513976D01*
X102203865Y-135513976D01*
X102136232Y-135534493D01*
X102066365Y-135535117D01*
X102007252Y-135497869D01*
X101977661Y-135434575D01*
X101976236Y-135415833D01*
X101976236Y-132495072D01*
X101995921Y-132428033D01*
X102012554Y-132407392D01*
X102049089Y-132370856D01*
X102110411Y-132337370D01*
X102177032Y-132341254D01*
X102211654Y-132353140D01*
X102230385Y-132359571D01*
X102475665Y-132400500D01*
X102724335Y-132400500D01*
X102969614Y-132359571D01*
X103204810Y-132278828D01*
X103423509Y-132160474D01*
X103619744Y-132007738D01*
X103788164Y-131824785D01*
X103924173Y-131616607D01*
X104024063Y-131388881D01*
X104085108Y-131147821D01*
X104105643Y-130900000D01*
X104085108Y-130652179D01*
X104024063Y-130411119D01*
X103924173Y-130183393D01*
X103788166Y-129975217D01*
X103723763Y-129905257D01*
X103619744Y-129792262D01*
X103423509Y-129639526D01*
X103423507Y-129639525D01*
X103423506Y-129639524D01*
X103204811Y-129521172D01*
X103204802Y-129521169D01*
X102969616Y-129440429D01*
X102724335Y-129399500D01*
X102475665Y-129399500D01*
X102230383Y-129440429D01*
X101995197Y-129521169D01*
X101995188Y-129521172D01*
X101776493Y-129639524D01*
X101724179Y-129680241D01*
X101676396Y-129717432D01*
X101611404Y-129743074D01*
X101542864Y-129729507D01*
X101492539Y-129681039D01*
X101476236Y-129619578D01*
X101476236Y-127195072D01*
X101495921Y-127128033D01*
X101512555Y-127107391D01*
X102083127Y-126536819D01*
X102144450Y-126503334D01*
X102170808Y-126500500D01*
X102194644Y-126500500D01*
X102194646Y-126500500D01*
X102379803Y-126461144D01*
X102552730Y-126384151D01*
X102705871Y-126272888D01*
X102832533Y-126132216D01*
X102927179Y-125968284D01*
X102964335Y-125853927D01*
X103003772Y-125796253D01*
X103068130Y-125769054D01*
X103106458Y-125770628D01*
G37*
G04 #@! TD.AperFunction*
G04 #@! TA.AperFunction,NonConductor*
G36*
X111042539Y-121920185D02*
G01*
X111088294Y-121972989D01*
X111099500Y-122024500D01*
X111099500Y-123447870D01*
X111099501Y-123447876D01*
X111105908Y-123507483D01*
X111156202Y-123642328D01*
X111156206Y-123642335D01*
X111242452Y-123757544D01*
X111242455Y-123757547D01*
X111357664Y-123843793D01*
X111357671Y-123843797D01*
X111397524Y-123858661D01*
X111492517Y-123894091D01*
X111552127Y-123900500D01*
X111725500Y-123900499D01*
X111792539Y-123920183D01*
X111838294Y-123972987D01*
X111849500Y-124024499D01*
X111849500Y-137259191D01*
X111829815Y-137326230D01*
X111813181Y-137346872D01*
X110685550Y-138474502D01*
X110624227Y-138507987D01*
X110568922Y-138507395D01*
X110325658Y-138448993D01*
X110080000Y-138429659D01*
X109834341Y-138448993D01*
X109594735Y-138506517D01*
X109367084Y-138600813D01*
X109313540Y-138633625D01*
X109239288Y-138679126D01*
X109171844Y-138697370D01*
X109105241Y-138676253D01*
X109060628Y-138622482D01*
X109050500Y-138573398D01*
X109050500Y-127838576D01*
X109070185Y-127771537D01*
X109086819Y-127750895D01*
X109905272Y-126932442D01*
X109905277Y-126932437D01*
X109976466Y-126825894D01*
X110014448Y-126734196D01*
X110025501Y-126707512D01*
X110050500Y-126581837D01*
X110050500Y-124728825D01*
X110050500Y-124728822D01*
X110025502Y-124603155D01*
X110025501Y-124603154D01*
X110025501Y-124603150D01*
X109976465Y-124484767D01*
X109905277Y-124378225D01*
X109905275Y-124378223D01*
X109905273Y-124378220D01*
X109905272Y-124378219D01*
X107694262Y-122167210D01*
X107662168Y-122111620D01*
X107651279Y-122070980D01*
X107651277Y-122070975D01*
X107651276Y-122070970D01*
X107651273Y-122070963D01*
X107649801Y-122066919D01*
X107645365Y-121997190D01*
X107679331Y-121936132D01*
X107740915Y-121903130D01*
X107766320Y-121900500D01*
X110975500Y-121900500D01*
X111042539Y-121920185D01*
G37*
G04 #@! TD.AperFunction*
G04 #@! TA.AperFunction,NonConductor*
G36*
X114205703Y-150586756D02*
G01*
X114212181Y-150592788D01*
X118113181Y-154493788D01*
X118146666Y-154555111D01*
X118149500Y-154581469D01*
X118149500Y-154829078D01*
X118129815Y-154896117D01*
X118117649Y-154912051D01*
X118069741Y-154965257D01*
X118010254Y-155001905D01*
X117940397Y-155000574D01*
X117889911Y-154969965D01*
X114036819Y-151116873D01*
X114003334Y-151055550D01*
X114000500Y-151029192D01*
X114000500Y-150680469D01*
X114020185Y-150613430D01*
X114072989Y-150567675D01*
X114142147Y-150557731D01*
X114205703Y-150586756D01*
G37*
G04 #@! TD.AperFunction*
G04 #@! TA.AperFunction,NonConductor*
G36*
X106668834Y-133395047D02*
G01*
X106724767Y-133436919D01*
X106749184Y-133502383D01*
X106749500Y-133511229D01*
X106749500Y-143664069D01*
X106769392Y-143764069D01*
X106774499Y-143789744D01*
X106823534Y-143908125D01*
X106894726Y-144014673D01*
X106894727Y-144014674D01*
X112663181Y-149783127D01*
X112696666Y-149844450D01*
X112699500Y-149870808D01*
X112699500Y-151414070D01*
X112715297Y-151493482D01*
X112715297Y-151493484D01*
X112724497Y-151539736D01*
X112724499Y-151539744D01*
X112773534Y-151658125D01*
X112844726Y-151764673D01*
X116971661Y-155891608D01*
X117005146Y-155952931D01*
X117000162Y-156022623D01*
X116971662Y-156066970D01*
X116857287Y-156181345D01*
X116765187Y-156330663D01*
X116765185Y-156330668D01*
X116752791Y-156368071D01*
X116710001Y-156497203D01*
X116710001Y-156497204D01*
X116710000Y-156497204D01*
X116699500Y-156599983D01*
X116699500Y-157400001D01*
X116699501Y-157400019D01*
X116710000Y-157502796D01*
X116710001Y-157502799D01*
X116738993Y-157590290D01*
X116765186Y-157669334D01*
X116854871Y-157814738D01*
X116857289Y-157818657D01*
X116950951Y-157912319D01*
X116984436Y-157973642D01*
X116979452Y-158043334D01*
X116950951Y-158087681D01*
X116857286Y-158181345D01*
X116853675Y-158185912D01*
X116796649Y-158226284D01*
X116726850Y-158229417D01*
X116666437Y-158194316D01*
X116664265Y-158191965D01*
X116605870Y-158127111D01*
X116452734Y-158015851D01*
X116452729Y-158015848D01*
X116279807Y-157938857D01*
X116279802Y-157938855D01*
X116134001Y-157907865D01*
X116094646Y-157899500D01*
X116094645Y-157899500D01*
X116070808Y-157899500D01*
X116003769Y-157879815D01*
X115983127Y-157863181D01*
X114614674Y-156494727D01*
X114614673Y-156494726D01*
X114594557Y-156481285D01*
X114508127Y-156423535D01*
X114478968Y-156411457D01*
X114389744Y-156374499D01*
X114389738Y-156374497D01*
X114264071Y-156349500D01*
X114264069Y-156349500D01*
X113315638Y-156349500D01*
X113248599Y-156329815D01*
X113210099Y-156290596D01*
X113176412Y-156235980D01*
X113157972Y-156168588D01*
X113178895Y-156101924D01*
X113201821Y-156078104D01*
X113201041Y-156077237D01*
X113205865Y-156072891D01*
X113205871Y-156072888D01*
X113332533Y-155932216D01*
X113427179Y-155768284D01*
X113485674Y-155588256D01*
X113505460Y-155400000D01*
X113485674Y-155211744D01*
X113427179Y-155031716D01*
X113332533Y-154867784D01*
X113205871Y-154727112D01*
X113204090Y-154725818D01*
X113052734Y-154615851D01*
X113052729Y-154615848D01*
X112879807Y-154538857D01*
X112879802Y-154538855D01*
X112734001Y-154507865D01*
X112694646Y-154499500D01*
X112505354Y-154499500D01*
X112472897Y-154506398D01*
X112320197Y-154538855D01*
X112320192Y-154538857D01*
X112147270Y-154615848D01*
X112147265Y-154615851D01*
X111995910Y-154725818D01*
X111930104Y-154749298D01*
X111923025Y-154749500D01*
X107050159Y-154749500D01*
X106983120Y-154729815D01*
X106937365Y-154677011D01*
X106927421Y-154607853D01*
X106956446Y-154544297D01*
X106970119Y-154530792D01*
X106971498Y-154529625D01*
X106971505Y-154529621D01*
X107146223Y-154355512D01*
X107290158Y-154155205D01*
X107399445Y-153934080D01*
X107399446Y-153934078D01*
X107399445Y-153934077D01*
X107471149Y-153698074D01*
X107503344Y-153453526D01*
X107505141Y-153380000D01*
X107484930Y-153134171D01*
X107424841Y-152894945D01*
X107326486Y-152668744D01*
X107192508Y-152461645D01*
X107026504Y-152279210D01*
X106832932Y-152126336D01*
X106616991Y-152007130D01*
X106616982Y-152007126D01*
X106384491Y-151924796D01*
X106384471Y-151924791D01*
X106141644Y-151881538D01*
X106141652Y-151881538D01*
X105900496Y-151878592D01*
X105895007Y-151878525D01*
X105895006Y-151878525D01*
X105895005Y-151878525D01*
X105895004Y-151878525D01*
X105651190Y-151915834D01*
X105651180Y-151915837D01*
X105416732Y-151992466D01*
X105197951Y-152106356D01*
X105197948Y-152106358D01*
X105000698Y-152254456D01*
X104830289Y-152432779D01*
X104830279Y-152432792D01*
X104691287Y-152636547D01*
X104691285Y-152636552D01*
X104587439Y-152860268D01*
X104587436Y-152860276D01*
X104521520Y-153097960D01*
X104521519Y-153097967D01*
X104495307Y-153343225D01*
X104509507Y-153589474D01*
X104509507Y-153589479D01*
X104563731Y-153830092D01*
X104656533Y-154058636D01*
X104785412Y-154268947D01*
X104860393Y-154355507D01*
X104946908Y-154455382D01*
X105036900Y-154530095D01*
X105075906Y-154588062D01*
X105077381Y-154657916D01*
X105040855Y-154717479D01*
X104977926Y-154747838D01*
X104957693Y-154749500D01*
X104220808Y-154749500D01*
X104153769Y-154729815D01*
X104133127Y-154713181D01*
X101512555Y-152092609D01*
X101479070Y-152031286D01*
X101476236Y-152004928D01*
X101476236Y-150000000D01*
X104429659Y-150000000D01*
X104448993Y-150245658D01*
X104506517Y-150485264D01*
X104600815Y-150712920D01*
X104729563Y-150923018D01*
X104729564Y-150923020D01*
X104729567Y-150923023D01*
X104889601Y-151110399D01*
X105034648Y-151234280D01*
X105076979Y-151270435D01*
X105076981Y-151270436D01*
X105287079Y-151399184D01*
X105514735Y-151493482D01*
X105514736Y-151493482D01*
X105514738Y-151493483D01*
X105754345Y-151551007D01*
X106000000Y-151570341D01*
X106245655Y-151551007D01*
X106485262Y-151493483D01*
X106712920Y-151399184D01*
X106923023Y-151270433D01*
X107110399Y-151110399D01*
X107270433Y-150923023D01*
X107399184Y-150712920D01*
X107493483Y-150485262D01*
X107551007Y-150245655D01*
X107570341Y-150000000D01*
X107551007Y-149754345D01*
X107493483Y-149514738D01*
X107399184Y-149287080D01*
X107399184Y-149287079D01*
X107270436Y-149076981D01*
X107270435Y-149076979D01*
X107234280Y-149034648D01*
X107110399Y-148889601D01*
X106986516Y-148783795D01*
X106923020Y-148729564D01*
X106923018Y-148729563D01*
X106712920Y-148600815D01*
X106600042Y-148554060D01*
X106545639Y-148510219D01*
X106523574Y-148443925D01*
X106540853Y-148376225D01*
X106591990Y-148328615D01*
X106647494Y-148315499D01*
X107012872Y-148315499D01*
X107072483Y-148309091D01*
X107207331Y-148258796D01*
X107322546Y-148172546D01*
X107408796Y-148057331D01*
X107459091Y-147922483D01*
X107465500Y-147862873D01*
X107465499Y-145937128D01*
X107459091Y-145877517D01*
X107455461Y-145867785D01*
X107408797Y-145742671D01*
X107408793Y-145742664D01*
X107322547Y-145627455D01*
X107322544Y-145627452D01*
X107207335Y-145541206D01*
X107207328Y-145541202D01*
X107072482Y-145490908D01*
X107072483Y-145490908D01*
X107012883Y-145484501D01*
X107012881Y-145484500D01*
X107012873Y-145484500D01*
X107012864Y-145484500D01*
X104987129Y-145484500D01*
X104987123Y-145484501D01*
X104927516Y-145490908D01*
X104792671Y-145541202D01*
X104792664Y-145541206D01*
X104677455Y-145627452D01*
X104677452Y-145627455D01*
X104591206Y-145742664D01*
X104591202Y-145742671D01*
X104540908Y-145877517D01*
X104534501Y-145937116D01*
X104534501Y-145937123D01*
X104534500Y-145937135D01*
X104534500Y-147862870D01*
X104534501Y-147862876D01*
X104540908Y-147922483D01*
X104591202Y-148057328D01*
X104591206Y-148057335D01*
X104677452Y-148172544D01*
X104677455Y-148172547D01*
X104792664Y-148258793D01*
X104792671Y-148258797D01*
X104927517Y-148309091D01*
X104927516Y-148309091D01*
X104934444Y-148309835D01*
X104987127Y-148315500D01*
X105352504Y-148315499D01*
X105419541Y-148335183D01*
X105465296Y-148387987D01*
X105475240Y-148457146D01*
X105446215Y-148520701D01*
X105399956Y-148554060D01*
X105287077Y-148600816D01*
X105076981Y-148729563D01*
X105076979Y-148729564D01*
X104889601Y-148889601D01*
X104729564Y-149076979D01*
X104729563Y-149076981D01*
X104600815Y-149287079D01*
X104506517Y-149514735D01*
X104448993Y-149754341D01*
X104429659Y-150000000D01*
X101476236Y-150000000D01*
X101476236Y-142124500D01*
X101495921Y-142057461D01*
X101548725Y-142011706D01*
X101600236Y-142000500D01*
X101670380Y-142000500D01*
X101670382Y-142000500D01*
X101855539Y-141961144D01*
X102028466Y-141884151D01*
X102181607Y-141772888D01*
X102308269Y-141632216D01*
X102402915Y-141468284D01*
X102461410Y-141288256D01*
X102481196Y-141100000D01*
X102461410Y-140911744D01*
X102402915Y-140731716D01*
X102308269Y-140567784D01*
X102181607Y-140427112D01*
X102181606Y-140427111D01*
X102027351Y-140315038D01*
X101984685Y-140259708D01*
X101976236Y-140214720D01*
X101976236Y-137584167D01*
X101995921Y-137517128D01*
X102048725Y-137471373D01*
X102117883Y-137461429D01*
X102136232Y-137465507D01*
X102155570Y-137471373D01*
X102203868Y-137486024D01*
X102400000Y-137505341D01*
X102596132Y-137486024D01*
X102784727Y-137428814D01*
X102958538Y-137335910D01*
X103110883Y-137210883D01*
X103235910Y-137058538D01*
X103328814Y-136884727D01*
X103386024Y-136696132D01*
X103394871Y-136606299D01*
X103421031Y-136541513D01*
X103430584Y-136530782D01*
X106537819Y-133423548D01*
X106599142Y-133390063D01*
X106668834Y-133395047D01*
G37*
G04 #@! TD.AperFunction*
G04 #@! TA.AperFunction,NonConductor*
G36*
X129668834Y-119195048D02*
G01*
X129724767Y-119236920D01*
X129749184Y-119302384D01*
X129749500Y-119311230D01*
X129749500Y-159625500D01*
X129729815Y-159692539D01*
X129677011Y-159738294D01*
X129625500Y-159749500D01*
X125049479Y-159749500D01*
X124982440Y-159729815D01*
X124936685Y-159677011D01*
X124926741Y-159607853D01*
X124955766Y-159544297D01*
X124968947Y-159531210D01*
X125002212Y-159502799D01*
X125110399Y-159410399D01*
X125270433Y-159223023D01*
X125399184Y-159012920D01*
X125493483Y-158785262D01*
X125508153Y-158724154D01*
X125525622Y-158684218D01*
X125576465Y-158608127D01*
X125625501Y-158489744D01*
X125650499Y-158364069D01*
X125650499Y-158235932D01*
X125625501Y-158110257D01*
X125576465Y-157991874D01*
X125525620Y-157915780D01*
X125508152Y-157875844D01*
X125493483Y-157814738D01*
X125433255Y-157669334D01*
X125399184Y-157587079D01*
X125270436Y-157376981D01*
X125270435Y-157376979D01*
X125234280Y-157334648D01*
X125110399Y-157189601D01*
X124986516Y-157083795D01*
X124923020Y-157029564D01*
X124923018Y-157029563D01*
X124712920Y-156900815D01*
X124485264Y-156806517D01*
X124245658Y-156748993D01*
X124000000Y-156729659D01*
X123754341Y-156748993D01*
X123514735Y-156806517D01*
X123287079Y-156900815D01*
X123076981Y-157029563D01*
X123076979Y-157029564D01*
X122889601Y-157189601D01*
X122729564Y-157376979D01*
X122729563Y-157376981D01*
X122600815Y-157587079D01*
X122506517Y-157814735D01*
X122455712Y-158026358D01*
X122448993Y-158054345D01*
X122434757Y-158235230D01*
X122409873Y-158300518D01*
X122353641Y-158341988D01*
X122311139Y-158349500D01*
X119115638Y-158349500D01*
X119048599Y-158329815D01*
X119010099Y-158290597D01*
X118996028Y-158267784D01*
X118942712Y-158181344D01*
X118849049Y-158087681D01*
X118815564Y-158026358D01*
X118820548Y-157956666D01*
X118849049Y-157912319D01*
X118885530Y-157875838D01*
X118942712Y-157818656D01*
X119034814Y-157669334D01*
X119089999Y-157502797D01*
X119100500Y-157400009D01*
X119100499Y-156599992D01*
X119089999Y-156497203D01*
X119084723Y-156481283D01*
X119082322Y-156411457D01*
X119118053Y-156351415D01*
X119151987Y-156329005D01*
X119252730Y-156284151D01*
X119405871Y-156172888D01*
X119532533Y-156032216D01*
X119627179Y-155868284D01*
X119685674Y-155688256D01*
X119705460Y-155500000D01*
X119685674Y-155311744D01*
X119627179Y-155131716D01*
X119532533Y-154967784D01*
X119482350Y-154912050D01*
X119452120Y-154849058D01*
X119450500Y-154829078D01*
X119450500Y-154196589D01*
X119425502Y-154070922D01*
X119425501Y-154070921D01*
X119425501Y-154070917D01*
X119376465Y-153952534D01*
X119364134Y-153934079D01*
X119364133Y-153934078D01*
X119305275Y-153845989D01*
X119305272Y-153845986D01*
X118802511Y-153343225D01*
X122495307Y-153343225D01*
X122509507Y-153589474D01*
X122509507Y-153589479D01*
X122563731Y-153830092D01*
X122656533Y-154058636D01*
X122785412Y-154268947D01*
X122860393Y-154355507D01*
X122946908Y-154455382D01*
X123136687Y-154612939D01*
X123136690Y-154612941D01*
X123136696Y-154612945D01*
X123349650Y-154737385D01*
X123580072Y-154825375D01*
X123580075Y-154825375D01*
X123580079Y-154825377D01*
X123821785Y-154874553D01*
X124068278Y-154883592D01*
X124312936Y-154852250D01*
X124549191Y-154781370D01*
X124770697Y-154672856D01*
X124971505Y-154529621D01*
X125146223Y-154355512D01*
X125290158Y-154155205D01*
X125399445Y-153934080D01*
X125399446Y-153934078D01*
X125399445Y-153934077D01*
X125471149Y-153698074D01*
X125503344Y-153453526D01*
X125505141Y-153380000D01*
X125484930Y-153134171D01*
X125424841Y-152894945D01*
X125326486Y-152668744D01*
X125192508Y-152461645D01*
X125026504Y-152279210D01*
X124832932Y-152126336D01*
X124616991Y-152007130D01*
X124616982Y-152007126D01*
X124384491Y-151924796D01*
X124384471Y-151924791D01*
X124141644Y-151881538D01*
X124141652Y-151881538D01*
X123900496Y-151878592D01*
X123895007Y-151878525D01*
X123895006Y-151878525D01*
X123895005Y-151878525D01*
X123895004Y-151878525D01*
X123651190Y-151915834D01*
X123651180Y-151915837D01*
X123416732Y-151992466D01*
X123197951Y-152106356D01*
X123197948Y-152106358D01*
X123000698Y-152254456D01*
X122830289Y-152432779D01*
X122830279Y-152432792D01*
X122691287Y-152636547D01*
X122691285Y-152636552D01*
X122587439Y-152860268D01*
X122587436Y-152860276D01*
X122521520Y-153097960D01*
X122521519Y-153097967D01*
X122495307Y-153343225D01*
X118802511Y-153343225D01*
X115459286Y-150000000D01*
X122429659Y-150000000D01*
X122448993Y-150245658D01*
X122506517Y-150485264D01*
X122600815Y-150712920D01*
X122729563Y-150923018D01*
X122729564Y-150923020D01*
X122729567Y-150923023D01*
X122889601Y-151110399D01*
X123034648Y-151234280D01*
X123076979Y-151270435D01*
X123076981Y-151270436D01*
X123287079Y-151399184D01*
X123514735Y-151493482D01*
X123514736Y-151493482D01*
X123514738Y-151493483D01*
X123754345Y-151551007D01*
X124000000Y-151570341D01*
X124245655Y-151551007D01*
X124485262Y-151493483D01*
X124712920Y-151399184D01*
X124923023Y-151270433D01*
X125110399Y-151110399D01*
X125270433Y-150923023D01*
X125399184Y-150712920D01*
X125493483Y-150485262D01*
X125551007Y-150245655D01*
X125570341Y-150000000D01*
X125551007Y-149754345D01*
X125493483Y-149514738D01*
X125399184Y-149287080D01*
X125399184Y-149287079D01*
X125270436Y-149076981D01*
X125270435Y-149076979D01*
X125234280Y-149034648D01*
X125110399Y-148889601D01*
X124986516Y-148783795D01*
X124923020Y-148729564D01*
X124923018Y-148729563D01*
X124712920Y-148600815D01*
X124600042Y-148554060D01*
X124545639Y-148510219D01*
X124523574Y-148443925D01*
X124540853Y-148376225D01*
X124591990Y-148328615D01*
X124647494Y-148315499D01*
X125012872Y-148315499D01*
X125072483Y-148309091D01*
X125207331Y-148258796D01*
X125322546Y-148172546D01*
X125408796Y-148057331D01*
X125459091Y-147922483D01*
X125465500Y-147862873D01*
X125465499Y-145937128D01*
X125459091Y-145877517D01*
X125455461Y-145867785D01*
X125408797Y-145742671D01*
X125408793Y-145742664D01*
X125322547Y-145627455D01*
X125322544Y-145627452D01*
X125207335Y-145541206D01*
X125207328Y-145541202D01*
X125072482Y-145490908D01*
X125072483Y-145490908D01*
X125012883Y-145484501D01*
X125012881Y-145484500D01*
X125012873Y-145484500D01*
X125012864Y-145484500D01*
X122987129Y-145484500D01*
X122987123Y-145484501D01*
X122927516Y-145490908D01*
X122792671Y-145541202D01*
X122792664Y-145541206D01*
X122677455Y-145627452D01*
X122677452Y-145627455D01*
X122591206Y-145742664D01*
X122591202Y-145742671D01*
X122540908Y-145877517D01*
X122534501Y-145937116D01*
X122534501Y-145937123D01*
X122534500Y-145937135D01*
X122534500Y-147862870D01*
X122534501Y-147862876D01*
X122540908Y-147922483D01*
X122591202Y-148057328D01*
X122591206Y-148057335D01*
X122677452Y-148172544D01*
X122677455Y-148172547D01*
X122792664Y-148258793D01*
X122792671Y-148258797D01*
X122927517Y-148309091D01*
X122927516Y-148309091D01*
X122934444Y-148309835D01*
X122987127Y-148315500D01*
X123352504Y-148315499D01*
X123419541Y-148335183D01*
X123465296Y-148387987D01*
X123475240Y-148457146D01*
X123446215Y-148520701D01*
X123399956Y-148554060D01*
X123287077Y-148600816D01*
X123076981Y-148729563D01*
X123076979Y-148729564D01*
X122889601Y-148889601D01*
X122729564Y-149076979D01*
X122729563Y-149076981D01*
X122600815Y-149287079D01*
X122506517Y-149514735D01*
X122448993Y-149754341D01*
X122429659Y-150000000D01*
X115459286Y-150000000D01*
X111354160Y-145894875D01*
X111320675Y-145833552D01*
X111325659Y-145763860D01*
X111349691Y-145724222D01*
X111432534Y-145632216D01*
X111527180Y-145468284D01*
X111585675Y-145288256D01*
X111605461Y-145100000D01*
X111585675Y-144911744D01*
X111527180Y-144731716D01*
X111432534Y-144567784D01*
X111305872Y-144427112D01*
X111305871Y-144427111D01*
X111152735Y-144315851D01*
X111152730Y-144315848D01*
X110979808Y-144238857D01*
X110979803Y-144238855D01*
X110834002Y-144207865D01*
X110794647Y-144199500D01*
X110794646Y-144199500D01*
X110770809Y-144199500D01*
X110703770Y-144179815D01*
X110683128Y-144163181D01*
X109086819Y-142566872D01*
X109053334Y-142505549D01*
X109050500Y-142479191D01*
X109050500Y-141426601D01*
X109070185Y-141359562D01*
X109122989Y-141313807D01*
X109192147Y-141303863D01*
X109239288Y-141320873D01*
X109248449Y-141326487D01*
X109367079Y-141399184D01*
X109594735Y-141493482D01*
X109594736Y-141493482D01*
X109594738Y-141493483D01*
X109834345Y-141551007D01*
X110080000Y-141570341D01*
X110325655Y-141551007D01*
X110565262Y-141493483D01*
X110792920Y-141399184D01*
X111003023Y-141270433D01*
X111190399Y-141110399D01*
X111350433Y-140923023D01*
X111479184Y-140712920D01*
X111573483Y-140485262D01*
X111631007Y-140245655D01*
X111650341Y-140000000D01*
X111631007Y-139754345D01*
X111573483Y-139514738D01*
X111572604Y-139511075D01*
X111576095Y-139441292D01*
X111605495Y-139394449D01*
X112337819Y-138662126D01*
X112399142Y-138628641D01*
X112468834Y-138633625D01*
X112524767Y-138675497D01*
X112549184Y-138740961D01*
X112549500Y-138749807D01*
X112549500Y-143764068D01*
X112549499Y-143764071D01*
X112574497Y-143889738D01*
X112574499Y-143889744D01*
X112582113Y-143908127D01*
X112623535Y-144008127D01*
X112694723Y-144114669D01*
X112694726Y-144114673D01*
X112694727Y-144114674D01*
X114965191Y-146385137D01*
X114998676Y-146446460D01*
X115000830Y-146459851D01*
X115014326Y-146588256D01*
X115014327Y-146588259D01*
X115072818Y-146768277D01*
X115072821Y-146768284D01*
X115167467Y-146932216D01*
X115294129Y-147072888D01*
X115447265Y-147184148D01*
X115447270Y-147184151D01*
X115620192Y-147261142D01*
X115620197Y-147261144D01*
X115805354Y-147300500D01*
X115805355Y-147300500D01*
X115994644Y-147300500D01*
X115994646Y-147300500D01*
X116179803Y-147261144D01*
X116352730Y-147184151D01*
X116505871Y-147072888D01*
X116632533Y-146932216D01*
X116727179Y-146768284D01*
X116785674Y-146588256D01*
X116805460Y-146400000D01*
X116785674Y-146211744D01*
X116727179Y-146031716D01*
X116632533Y-145867784D01*
X116505871Y-145727112D01*
X116505870Y-145727111D01*
X116352734Y-145615851D01*
X116352729Y-145615848D01*
X116179807Y-145538857D01*
X116179802Y-145538855D01*
X116034001Y-145507865D01*
X115994646Y-145499500D01*
X115994645Y-145499500D01*
X115970808Y-145499500D01*
X115903769Y-145479815D01*
X115883127Y-145463181D01*
X113886819Y-143466873D01*
X113853334Y-143405550D01*
X113850500Y-143379192D01*
X113850500Y-141262997D01*
X113870185Y-141195958D01*
X113922989Y-141150203D01*
X113992147Y-141140259D01*
X114046859Y-141162299D01*
X114224791Y-141290156D01*
X114224797Y-141290159D01*
X114445918Y-141399444D01*
X114445919Y-141399444D01*
X114445921Y-141399445D01*
X114681926Y-141471149D01*
X114926474Y-141503344D01*
X114992914Y-141504967D01*
X114999995Y-141505141D01*
X114999996Y-141505140D01*
X115000000Y-141505141D01*
X115245829Y-141484930D01*
X115485055Y-141424841D01*
X115711256Y-141326486D01*
X115918355Y-141192508D01*
X116100790Y-141026504D01*
X116253664Y-140832932D01*
X116372869Y-140616992D01*
X116390295Y-140567785D01*
X116455203Y-140384491D01*
X116455203Y-140384489D01*
X116455206Y-140384482D01*
X116467576Y-140315038D01*
X116498461Y-140141648D01*
X116498531Y-140135900D01*
X116501475Y-139895007D01*
X116464165Y-139651187D01*
X116387534Y-139416734D01*
X116354097Y-139352502D01*
X116273643Y-139197951D01*
X116273641Y-139197948D01*
X116273640Y-139197946D01*
X116125542Y-139000697D01*
X116069255Y-138946908D01*
X115947220Y-138830289D01*
X115947207Y-138830279D01*
X115743452Y-138691287D01*
X115743447Y-138691285D01*
X115519731Y-138587439D01*
X115519723Y-138587436D01*
X115282039Y-138521520D01*
X115282038Y-138521519D01*
X115282035Y-138521519D01*
X115222489Y-138515155D01*
X115036774Y-138495307D01*
X114790525Y-138509507D01*
X114790520Y-138509507D01*
X114549901Y-138563733D01*
X114546609Y-138564765D01*
X114545210Y-138564790D01*
X114544937Y-138564852D01*
X114544924Y-138564795D01*
X114476750Y-138566028D01*
X114417299Y-138529322D01*
X114387130Y-138466302D01*
X114395822Y-138396975D01*
X114421848Y-138358758D01*
X114605273Y-138175333D01*
X114605276Y-138175330D01*
X114676465Y-138068788D01*
X114725501Y-137950405D01*
X114733682Y-137909276D01*
X114750500Y-137824732D01*
X114750500Y-128885928D01*
X114725502Y-128760261D01*
X114725501Y-128760260D01*
X114725501Y-128760256D01*
X114676465Y-128641873D01*
X114673778Y-128637851D01*
X114653560Y-128581925D01*
X114635674Y-128411744D01*
X114577179Y-128231716D01*
X114482533Y-128067784D01*
X114355871Y-127927112D01*
X114355870Y-127927111D01*
X114202734Y-127815851D01*
X114202729Y-127815848D01*
X114029807Y-127738857D01*
X114029802Y-127738855D01*
X113884001Y-127707865D01*
X113844646Y-127699500D01*
X113774500Y-127699500D01*
X113707461Y-127679815D01*
X113661706Y-127627011D01*
X113650500Y-127575500D01*
X113650500Y-124820807D01*
X113670185Y-124753768D01*
X113686819Y-124733126D01*
X114050540Y-124369405D01*
X114527800Y-123892144D01*
X114589121Y-123858661D01*
X114649753Y-123862202D01*
X114650048Y-123861040D01*
X114655011Y-123862296D01*
X114655015Y-123862296D01*
X114655019Y-123862298D01*
X114883951Y-123900500D01*
X114883952Y-123900500D01*
X115116048Y-123900500D01*
X115116049Y-123900500D01*
X115344981Y-123862298D01*
X115435237Y-123831312D01*
X115505035Y-123828163D01*
X115565457Y-123863249D01*
X115597317Y-123925431D01*
X115599500Y-123948594D01*
X115599500Y-133214069D01*
X115599500Y-133214071D01*
X115599499Y-133214071D01*
X115624497Y-133339738D01*
X115624499Y-133339744D01*
X115673535Y-133458127D01*
X115709016Y-133511229D01*
X115744726Y-133564673D01*
X115744727Y-133564674D01*
X119665191Y-137485137D01*
X119698676Y-137546460D01*
X119700830Y-137559851D01*
X119714326Y-137688256D01*
X119714327Y-137688259D01*
X119772818Y-137868277D01*
X119772821Y-137868284D01*
X119867467Y-138032216D01*
X119994129Y-138172888D01*
X120147265Y-138284148D01*
X120147270Y-138284151D01*
X120325292Y-138363413D01*
X120378529Y-138408663D01*
X120398850Y-138475512D01*
X120379804Y-138542736D01*
X120330223Y-138586530D01*
X120330454Y-138586953D01*
X120328597Y-138587966D01*
X120327438Y-138588991D01*
X120324338Y-138590292D01*
X120322664Y-138591206D01*
X120207455Y-138677452D01*
X120207452Y-138677455D01*
X120121206Y-138792664D01*
X120121202Y-138792671D01*
X120070908Y-138927517D01*
X120064501Y-138987116D01*
X120064501Y-138987123D01*
X120064500Y-138987135D01*
X120064500Y-139352502D01*
X120044815Y-139419541D01*
X119992011Y-139465296D01*
X119922853Y-139475240D01*
X119859297Y-139446215D01*
X119825939Y-139399955D01*
X119779184Y-139287079D01*
X119650436Y-139076981D01*
X119650435Y-139076979D01*
X119614280Y-139034648D01*
X119490399Y-138889601D01*
X119316364Y-138740961D01*
X119303020Y-138729564D01*
X119303018Y-138729563D01*
X119092920Y-138600815D01*
X118865264Y-138506517D01*
X118625658Y-138448993D01*
X118380000Y-138429659D01*
X118134341Y-138448993D01*
X117894735Y-138506517D01*
X117667079Y-138600815D01*
X117456981Y-138729563D01*
X117456979Y-138729564D01*
X117269601Y-138889601D01*
X117109564Y-139076979D01*
X117109563Y-139076981D01*
X116980815Y-139287079D01*
X116886517Y-139514735D01*
X116828993Y-139754341D01*
X116809659Y-140000000D01*
X116828993Y-140245658D01*
X116886517Y-140485264D01*
X116980815Y-140712920D01*
X117109563Y-140923018D01*
X117109564Y-140923020D01*
X117109567Y-140923023D01*
X117269601Y-141110399D01*
X117383094Y-141207331D01*
X117456979Y-141270435D01*
X117456981Y-141270436D01*
X117667079Y-141399184D01*
X117894735Y-141493482D01*
X117894736Y-141493482D01*
X117894738Y-141493483D01*
X118134345Y-141551007D01*
X118380000Y-141570341D01*
X118625655Y-141551007D01*
X118865262Y-141493483D01*
X119092920Y-141399184D01*
X119303023Y-141270433D01*
X119490399Y-141110399D01*
X119650433Y-140923023D01*
X119779184Y-140712920D01*
X119825939Y-140600042D01*
X119869779Y-140545639D01*
X119936073Y-140523574D01*
X120003773Y-140540853D01*
X120051384Y-140591990D01*
X120064500Y-140647495D01*
X120064500Y-141012870D01*
X120064501Y-141012876D01*
X120070908Y-141072483D01*
X120121202Y-141207328D01*
X120121206Y-141207335D01*
X120207452Y-141322544D01*
X120207455Y-141322547D01*
X120322664Y-141408793D01*
X120322671Y-141408797D01*
X120457517Y-141459091D01*
X120457516Y-141459091D01*
X120464444Y-141459835D01*
X120517127Y-141465500D01*
X122442872Y-141465499D01*
X122502483Y-141459091D01*
X122637331Y-141408796D01*
X122752546Y-141322546D01*
X122838796Y-141207331D01*
X122889091Y-141072483D01*
X122895500Y-141012873D01*
X122895499Y-138987128D01*
X122889091Y-138927517D01*
X122874949Y-138889601D01*
X122838797Y-138792671D01*
X122838793Y-138792664D01*
X122752547Y-138677455D01*
X122752544Y-138677452D01*
X122637335Y-138591206D01*
X122637328Y-138591202D01*
X122502482Y-138540908D01*
X122502483Y-138540908D01*
X122442883Y-138534501D01*
X122442881Y-138534500D01*
X122442873Y-138534500D01*
X122442865Y-138534500D01*
X121073809Y-138534500D01*
X121006770Y-138514815D01*
X120961015Y-138462011D01*
X120951071Y-138392853D01*
X120980096Y-138329297D01*
X121023372Y-138297222D01*
X121052730Y-138284151D01*
X121205871Y-138172888D01*
X121332533Y-138032216D01*
X121427179Y-137868284D01*
X121485674Y-137688256D01*
X121505460Y-137500000D01*
X121485674Y-137311744D01*
X121427179Y-137131716D01*
X121332533Y-136967784D01*
X121205871Y-136827112D01*
X121205870Y-136827111D01*
X121052734Y-136715851D01*
X121052729Y-136715848D01*
X120879807Y-136638857D01*
X120879802Y-136638855D01*
X120726642Y-136606301D01*
X120694646Y-136599500D01*
X120694645Y-136599500D01*
X120670808Y-136599500D01*
X120603769Y-136579815D01*
X120583127Y-136563181D01*
X116936819Y-132916873D01*
X116903334Y-132855550D01*
X116900500Y-132829192D01*
X116900500Y-123948594D01*
X116920185Y-123881555D01*
X116972989Y-123835800D01*
X117042147Y-123825856D01*
X117064759Y-123831312D01*
X117155019Y-123862298D01*
X117383951Y-123900500D01*
X117383952Y-123900500D01*
X117616048Y-123900500D01*
X117616049Y-123900500D01*
X117844981Y-123862298D01*
X118064503Y-123786936D01*
X118268626Y-123676470D01*
X118451784Y-123533913D01*
X118608979Y-123363153D01*
X118735924Y-123168849D01*
X118829157Y-122956300D01*
X118886134Y-122731305D01*
X118888500Y-122702752D01*
X118905300Y-122500006D01*
X118905300Y-122499993D01*
X118886135Y-122268702D01*
X118886133Y-122268691D01*
X118829157Y-122043699D01*
X118735924Y-121831151D01*
X118608983Y-121636852D01*
X118608980Y-121636849D01*
X118608979Y-121636847D01*
X118451784Y-121466087D01*
X118451779Y-121466083D01*
X118451777Y-121466081D01*
X118268634Y-121323535D01*
X118268628Y-121323531D01*
X118064504Y-121213064D01*
X118064495Y-121213061D01*
X117844984Y-121137702D01*
X117673282Y-121109050D01*
X117616049Y-121099500D01*
X117383951Y-121099500D01*
X117338164Y-121107140D01*
X117155015Y-121137702D01*
X116935504Y-121213061D01*
X116935495Y-121213064D01*
X116731371Y-121323531D01*
X116731367Y-121323534D01*
X116693999Y-121352618D01*
X116629005Y-121378259D01*
X116560465Y-121364691D01*
X116530158Y-121342444D01*
X116099895Y-120912181D01*
X116066410Y-120850858D01*
X116071394Y-120781166D01*
X116113266Y-120725233D01*
X116178730Y-120700816D01*
X116187576Y-120700500D01*
X120025500Y-120700500D01*
X120092539Y-120720185D01*
X120138294Y-120772989D01*
X120149500Y-120824500D01*
X120149500Y-122337769D01*
X120129815Y-122404808D01*
X120113181Y-122425450D01*
X118169225Y-124369405D01*
X118107902Y-124402890D01*
X118093700Y-124405127D01*
X118003870Y-124413975D01*
X117815266Y-124471188D01*
X117641467Y-124564086D01*
X117641460Y-124564090D01*
X117489116Y-124689116D01*
X117364090Y-124841460D01*
X117364086Y-124841467D01*
X117271188Y-125015266D01*
X117213975Y-125203870D01*
X117194659Y-125400000D01*
X117213975Y-125596129D01*
X117213976Y-125596132D01*
X117266909Y-125770629D01*
X117271188Y-125784733D01*
X117364086Y-125958532D01*
X117364090Y-125958539D01*
X117489116Y-126110883D01*
X117641460Y-126235909D01*
X117641467Y-126235913D01*
X117815266Y-126328811D01*
X117815269Y-126328811D01*
X117815273Y-126328814D01*
X118003868Y-126386024D01*
X118200000Y-126405341D01*
X118396132Y-126386024D01*
X118584727Y-126328814D01*
X118758538Y-126235910D01*
X118910883Y-126110883D01*
X119035910Y-125958538D01*
X119111286Y-125817519D01*
X119128811Y-125784733D01*
X119128811Y-125784732D01*
X119128814Y-125784727D01*
X119186024Y-125596132D01*
X119194871Y-125506299D01*
X119221031Y-125441513D01*
X119230584Y-125430782D01*
X121482952Y-123178415D01*
X121533622Y-123102581D01*
X121565084Y-123055495D01*
X121567567Y-123049500D01*
X121588518Y-122998921D01*
X121588518Y-122998920D01*
X121621659Y-122918912D01*
X121650500Y-122773917D01*
X121650500Y-122626082D01*
X121650500Y-120824500D01*
X121670185Y-120757461D01*
X121722989Y-120711706D01*
X121774500Y-120700500D01*
X127823920Y-120700500D01*
X127921462Y-120681096D01*
X127968913Y-120671658D01*
X128105495Y-120615084D01*
X128154729Y-120582186D01*
X128228416Y-120532952D01*
X129537819Y-119223549D01*
X129599142Y-119190064D01*
X129668834Y-119195048D01*
G37*
G04 #@! TD.AperFunction*
G04 #@! TA.AperFunction,NonConductor*
G36*
X113946231Y-157670185D02*
G01*
X113966873Y-157686819D01*
X115065191Y-158785137D01*
X115098676Y-158846460D01*
X115100830Y-158859851D01*
X115114326Y-158988256D01*
X115114327Y-158988259D01*
X115172818Y-159168277D01*
X115172821Y-159168284D01*
X115267467Y-159332216D01*
X115394129Y-159472888D01*
X115466106Y-159525182D01*
X115508771Y-159580512D01*
X115514750Y-159650125D01*
X115482144Y-159711920D01*
X115421305Y-159746278D01*
X115393220Y-159749500D01*
X113379969Y-159749500D01*
X113312930Y-159729815D01*
X113267175Y-159677011D01*
X113257231Y-159607853D01*
X113262260Y-159586507D01*
X113289999Y-159502797D01*
X113300500Y-159400009D01*
X113300499Y-158599992D01*
X113294948Y-158545655D01*
X113289999Y-158497203D01*
X113289998Y-158497200D01*
X113287525Y-158489736D01*
X113234814Y-158330666D01*
X113142712Y-158181344D01*
X113049049Y-158087681D01*
X113015564Y-158026358D01*
X113020548Y-157956666D01*
X113049049Y-157912319D01*
X113085530Y-157875838D01*
X113142712Y-157818656D01*
X113210099Y-157709402D01*
X113262047Y-157662679D01*
X113315638Y-157650500D01*
X113879192Y-157650500D01*
X113946231Y-157670185D01*
G37*
G04 #@! TD.AperFunction*
G04 #@! TA.AperFunction,NonConductor*
G36*
X110842539Y-158970185D02*
G01*
X110888294Y-159022989D01*
X110899500Y-159074500D01*
X110899500Y-159400000D01*
X110899501Y-159400019D01*
X110910000Y-159502796D01*
X110910001Y-159502799D01*
X110937736Y-159586496D01*
X110940138Y-159656324D01*
X110904406Y-159716366D01*
X110841886Y-159747559D01*
X110820030Y-159749500D01*
X107049479Y-159749500D01*
X106982440Y-159729815D01*
X106936685Y-159677011D01*
X106926741Y-159607853D01*
X106955766Y-159544297D01*
X106968947Y-159531210D01*
X107002212Y-159502799D01*
X107110399Y-159410399D01*
X107270433Y-159223023D01*
X107361448Y-159074500D01*
X107401152Y-159009710D01*
X107452964Y-158962835D01*
X107506879Y-158950500D01*
X110775500Y-158950500D01*
X110842539Y-158970185D01*
G37*
G04 #@! TD.AperFunction*
G04 #@! TA.AperFunction,NonConductor*
G36*
X100455703Y-152876096D02*
G01*
X100462181Y-152882128D01*
X103485325Y-155905272D01*
X103485332Y-155905278D01*
X103573320Y-155964069D01*
X103573321Y-155964069D01*
X103591873Y-155976465D01*
X103710256Y-156025501D01*
X103710260Y-156025501D01*
X103710261Y-156025502D01*
X103835928Y-156050500D01*
X103835931Y-156050500D01*
X110915819Y-156050500D01*
X110982858Y-156070185D01*
X111028613Y-156122989D01*
X111038557Y-156192147D01*
X111021358Y-156239594D01*
X110999925Y-156274344D01*
X110965187Y-156330663D01*
X110965185Y-156330668D01*
X110952791Y-156368071D01*
X110910001Y-156497203D01*
X110910001Y-156497204D01*
X110910000Y-156497204D01*
X110899500Y-156599983D01*
X110899500Y-157400001D01*
X110899501Y-157400019D01*
X110910689Y-157509533D01*
X110908543Y-157509752D01*
X110904082Y-157569237D01*
X110862016Y-157625024D01*
X110796468Y-157649214D01*
X110788051Y-157649500D01*
X107506879Y-157649500D01*
X107439840Y-157629815D01*
X107401152Y-157590290D01*
X107270436Y-157376982D01*
X107270435Y-157376979D01*
X107234280Y-157334648D01*
X107110399Y-157189601D01*
X106986516Y-157083795D01*
X106923020Y-157029564D01*
X106923018Y-157029563D01*
X106712920Y-156900815D01*
X106485264Y-156806517D01*
X106245658Y-156748993D01*
X106000000Y-156729659D01*
X105754341Y-156748993D01*
X105514735Y-156806517D01*
X105287079Y-156900815D01*
X105076981Y-157029563D01*
X105076979Y-157029564D01*
X104889601Y-157189601D01*
X104729564Y-157376979D01*
X104729563Y-157376981D01*
X104600815Y-157587079D01*
X104506517Y-157814735D01*
X104448993Y-158054341D01*
X104429659Y-158300000D01*
X104448993Y-158545658D01*
X104506517Y-158785264D01*
X104600815Y-159012920D01*
X104729563Y-159223018D01*
X104729564Y-159223020D01*
X104729567Y-159223023D01*
X104889601Y-159410399D01*
X104997788Y-159502799D01*
X105031053Y-159531210D01*
X105069246Y-159589717D01*
X105069745Y-159659584D01*
X105032391Y-159718631D01*
X104969044Y-159748109D01*
X104950521Y-159749500D01*
X100374500Y-159749500D01*
X100307461Y-159729815D01*
X100261706Y-159677011D01*
X100250500Y-159625500D01*
X100250500Y-152969809D01*
X100270185Y-152902770D01*
X100322989Y-152857015D01*
X100392147Y-152847071D01*
X100455703Y-152876096D01*
G37*
G04 #@! TD.AperFunction*
M02*
