G04 #@! TF.GenerationSoftware,KiCad,Pcbnew,8.0.5*
G04 #@! TF.CreationDate,2024-11-24T11:24:00+01:00*
G04 #@! TF.ProjectId,kicks-panel,6b69636b-732d-4706-916e-656c2e6b6963,rev?*
G04 #@! TF.SameCoordinates,Original*
G04 #@! TF.FileFunction,Legend,Bot*
G04 #@! TF.FilePolarity,Positive*
%FSLAX46Y46*%
G04 Gerber Fmt 4.6, Leading zero omitted, Abs format (unit mm)*
G04 Created by KiCad (PCBNEW 8.0.5) date 2024-11-24 11:24:00*
%MOMM*%
%LPD*%
G01*
G04 APERTURE LIST*
%ADD10C,0.150000*%
%ADD11C,0.010000*%
%ADD12C,7.200000*%
%ADD13C,6.200000*%
%ADD14C,3.200000*%
%ADD15O,7.000000X3.200000*%
G04 APERTURE END LIST*
D10*
G36*
X88762108Y-82034014D02*
G01*
X88850943Y-82041259D01*
X88944199Y-82056328D01*
X89034597Y-82082700D01*
X89121703Y-82130517D01*
X89136876Y-82143519D01*
X89193039Y-82217796D01*
X89226321Y-82305483D01*
X89242595Y-82398934D01*
X89247000Y-82491459D01*
X89246424Y-82530370D01*
X89237795Y-82635275D01*
X89214639Y-82735239D01*
X89170915Y-82819910D01*
X89099721Y-82877460D01*
X89101040Y-82880977D01*
X89338884Y-82880977D01*
X89387098Y-82879314D01*
X89481441Y-82861745D01*
X89556944Y-82812834D01*
X89595111Y-82728684D01*
X89609288Y-82638078D01*
X89612778Y-82547293D01*
X89611294Y-82480621D01*
X89602226Y-82390452D01*
X89570572Y-82300656D01*
X89561793Y-82290600D01*
X89479348Y-82252296D01*
X89387683Y-82244383D01*
X89387683Y-82077321D01*
X89426151Y-82078167D01*
X89517169Y-82088698D01*
X89607295Y-82118785D01*
X89676085Y-82173601D01*
X89680846Y-82179810D01*
X89720138Y-82259941D01*
X89740691Y-82347662D01*
X89750741Y-82441639D01*
X89753461Y-82534983D01*
X89753101Y-82571353D01*
X89747691Y-82671765D01*
X89733175Y-82772426D01*
X89705767Y-82865725D01*
X89661138Y-82942966D01*
X89605606Y-82991629D01*
X89520208Y-83029755D01*
X89423920Y-83048872D01*
X89323936Y-83054194D01*
X88065255Y-83054194D01*
X88065255Y-82880977D01*
X88224843Y-82889770D01*
X88226162Y-82885813D01*
X88179807Y-82853135D01*
X88121981Y-82780354D01*
X88087882Y-82695980D01*
X88070912Y-82608287D01*
X88067037Y-82538500D01*
X88205939Y-82538500D01*
X88206018Y-82551277D01*
X88212372Y-82643566D01*
X88234612Y-82734121D01*
X88287272Y-82810636D01*
X88355450Y-82845180D01*
X88446470Y-82865330D01*
X88536690Y-82873838D01*
X88627551Y-82876141D01*
X88730467Y-82873838D01*
X88832721Y-82865330D01*
X88926088Y-82847930D01*
X89013552Y-82810636D01*
X89024785Y-82801896D01*
X89076965Y-82726306D01*
X89100518Y-82632995D01*
X89106316Y-82538500D01*
X89106233Y-82525891D01*
X89099639Y-82435092D01*
X89076558Y-82346787D01*
X89021905Y-82273839D01*
X88940340Y-82239297D01*
X88851458Y-82223182D01*
X88753265Y-82215302D01*
X88653929Y-82213169D01*
X88570842Y-82214650D01*
X88470786Y-82221700D01*
X88379671Y-82236868D01*
X88289470Y-82273839D01*
X88284331Y-82277770D01*
X88232369Y-82354357D01*
X88211159Y-82445462D01*
X88205939Y-82538500D01*
X88067037Y-82538500D01*
X88065255Y-82506407D01*
X88065750Y-82472900D01*
X88073168Y-82380478D01*
X88093076Y-82288007D01*
X88130665Y-82202573D01*
X88191870Y-82132275D01*
X88199997Y-82126081D01*
X88280341Y-82083608D01*
X88373001Y-82056768D01*
X88469034Y-82041430D01*
X88560774Y-82034056D01*
X88663161Y-82031599D01*
X88762108Y-82034014D01*
G37*
G36*
X87558793Y-83523727D02*
G01*
X87755750Y-83523727D01*
X87755750Y-83350510D01*
X87558793Y-83350510D01*
X87558793Y-83523727D01*
G37*
G36*
X88065255Y-83523727D02*
G01*
X89247000Y-83523727D01*
X89247000Y-83350510D01*
X88065255Y-83350510D01*
X88065255Y-83523727D01*
G37*
G36*
X88065255Y-84450482D02*
G01*
X88205939Y-84450482D01*
X88205939Y-83995458D01*
X88929581Y-83995458D01*
X89022781Y-84011858D01*
X89089056Y-84074836D01*
X89106316Y-84163399D01*
X89090988Y-84251498D01*
X89025235Y-84317246D01*
X88949365Y-84330461D01*
X88890893Y-84331780D01*
X88824948Y-84334418D01*
X88824948Y-84494885D01*
X88909798Y-84496204D01*
X89006941Y-84488111D01*
X89101779Y-84457034D01*
X89172907Y-84402650D01*
X89220326Y-84324958D01*
X89244036Y-84223958D01*
X89247000Y-84164718D01*
X89240270Y-84066055D01*
X89214427Y-83969733D01*
X89159781Y-83887793D01*
X89078755Y-83838629D01*
X88988306Y-83822575D01*
X88971347Y-83822241D01*
X88929581Y-83822241D01*
X88205939Y-83822241D01*
X88205939Y-83659135D01*
X88065255Y-83659135D01*
X88065255Y-83822241D01*
X87783887Y-83822241D01*
X87783887Y-83995458D01*
X88065255Y-83995458D01*
X88065255Y-84450482D01*
G37*
G36*
X87558793Y-84816260D02*
G01*
X88211214Y-84816260D01*
X88213852Y-84819777D01*
X88142021Y-84875229D01*
X88097906Y-84955759D01*
X88074542Y-85050339D01*
X88065835Y-85149325D01*
X88065255Y-85185995D01*
X88071169Y-85290271D01*
X88088913Y-85380644D01*
X88127727Y-85474059D01*
X88185023Y-85545749D01*
X88260803Y-85595714D01*
X88355065Y-85623956D01*
X88443782Y-85630908D01*
X88492143Y-85630908D01*
X89247000Y-85630908D01*
X89247000Y-85457691D01*
X88492143Y-85457691D01*
X88458730Y-85457691D01*
X88360230Y-85444626D01*
X88277283Y-85397702D01*
X88225935Y-85316651D01*
X88206926Y-85217736D01*
X88205939Y-85184676D01*
X88209557Y-85095297D01*
X88224843Y-85000908D01*
X88259772Y-84916901D01*
X88281556Y-84890119D01*
X88359290Y-84845111D01*
X88445179Y-84824988D01*
X88541377Y-84816909D01*
X88582268Y-84816260D01*
X89247000Y-84816260D01*
X89247000Y-84643043D01*
X87558793Y-84643043D01*
X87558793Y-84816260D01*
G37*
G36*
X88065255Y-86901899D02*
G01*
X89247000Y-86901899D01*
X89247000Y-86728682D01*
X89092687Y-86740991D01*
X89088730Y-86737474D01*
X89157973Y-86679552D01*
X89207432Y-86595911D01*
X89234480Y-86501628D01*
X89245608Y-86405141D01*
X89247000Y-86351473D01*
X89240817Y-86254409D01*
X89215701Y-86151279D01*
X89171265Y-86068371D01*
X89107509Y-86005684D01*
X89024433Y-85963218D01*
X88922037Y-85940975D01*
X88851326Y-85937335D01*
X88065255Y-85937335D01*
X88065255Y-86110552D01*
X88851326Y-86110552D01*
X88944008Y-86116838D01*
X89032050Y-86145670D01*
X89054878Y-86163748D01*
X89095013Y-86249179D01*
X89105864Y-86344295D01*
X89106316Y-86372575D01*
X89101452Y-86466575D01*
X89084354Y-86553210D01*
X89042406Y-86637239D01*
X89028500Y-86652624D01*
X88951838Y-86698972D01*
X88859995Y-86721254D01*
X88768221Y-86728384D01*
X88742736Y-86728682D01*
X88065255Y-86728682D01*
X88065255Y-86901899D01*
G37*
G36*
X89247000Y-87389017D02*
G01*
X89101040Y-87380224D01*
X89099721Y-87385060D01*
X89126041Y-87404084D01*
X89183572Y-87470757D01*
X89222693Y-87560622D01*
X89241822Y-87658277D01*
X89247000Y-87756114D01*
X89246510Y-87789634D01*
X89239168Y-87882262D01*
X89219469Y-87975286D01*
X89182271Y-88061764D01*
X89121703Y-88133762D01*
X89046360Y-88179539D01*
X88959969Y-88208865D01*
X88870716Y-88226032D01*
X88767428Y-88235841D01*
X88670635Y-88238395D01*
X88649383Y-88238299D01*
X88549342Y-88234918D01*
X88459669Y-88226707D01*
X88365748Y-88210478D01*
X88275044Y-88182754D01*
X88196267Y-88139477D01*
X88180402Y-88126484D01*
X88121677Y-88052457D01*
X88086877Y-87965285D01*
X88069861Y-87872511D01*
X88065255Y-87780733D01*
X88066274Y-87736330D01*
X88205939Y-87736330D01*
X88206024Y-87748615D01*
X88212824Y-87837188D01*
X88236627Y-87923638D01*
X88292987Y-87995716D01*
X88375804Y-88030257D01*
X88465270Y-88046373D01*
X88563748Y-88054253D01*
X88663161Y-88056386D01*
X88742925Y-88054894D01*
X88839628Y-88047792D01*
X88938303Y-88030068D01*
X89019707Y-87995276D01*
X89072484Y-87931268D01*
X89099465Y-87840659D01*
X89106316Y-87743804D01*
X89106233Y-87729894D01*
X89099604Y-87630055D01*
X89076403Y-87533850D01*
X89021466Y-87456281D01*
X88989328Y-87438296D01*
X88903837Y-87413605D01*
X88812772Y-87401229D01*
X88717605Y-87395377D01*
X88626232Y-87393853D01*
X88565974Y-87394931D01*
X88473085Y-87402009D01*
X88377150Y-87420815D01*
X88290349Y-87462876D01*
X88280128Y-87472084D01*
X88232647Y-87549405D01*
X88211214Y-87642742D01*
X88205939Y-87736330D01*
X88066274Y-87736330D01*
X88066615Y-87721443D01*
X88077496Y-87617074D01*
X88099258Y-87531653D01*
X88145200Y-87447236D01*
X88220007Y-87392534D01*
X88216050Y-87389017D01*
X87558793Y-87389017D01*
X87558793Y-87215800D01*
X89247000Y-87215800D01*
X89247000Y-87389017D01*
G37*
G36*
X89021905Y-88693420D02*
G01*
X89247000Y-88693420D01*
X89247000Y-88503057D01*
X89021905Y-88503057D01*
X89021905Y-88693420D01*
G37*
G36*
X88824948Y-89807900D02*
G01*
X88824948Y-89981117D01*
X88886057Y-89981996D01*
X88990040Y-89969857D01*
X89076398Y-89933439D01*
X89145132Y-89872742D01*
X89196242Y-89787766D01*
X89224441Y-89702305D01*
X89241360Y-89601305D01*
X89247000Y-89484767D01*
X89244155Y-89390431D01*
X89233233Y-89291142D01*
X89210137Y-89194488D01*
X89170089Y-89109322D01*
X89130496Y-89063155D01*
X89045383Y-89013638D01*
X88952113Y-88986328D01*
X88853313Y-88970723D01*
X88757686Y-88963220D01*
X88649972Y-88960719D01*
X88548843Y-88963263D01*
X88458404Y-88970894D01*
X88363988Y-88986768D01*
X88273293Y-89014546D01*
X88195299Y-89058503D01*
X88187474Y-89064913D01*
X88128393Y-89138689D01*
X88092110Y-89229316D01*
X88072894Y-89327954D01*
X88065732Y-89426867D01*
X88065255Y-89462785D01*
X88068176Y-89564490D01*
X88076940Y-89653306D01*
X88094548Y-89740632D01*
X88128872Y-89827127D01*
X88148346Y-89856260D01*
X88222365Y-89916082D01*
X88308505Y-89946557D01*
X88404401Y-89959692D01*
X88459170Y-89961333D01*
X88459170Y-89788116D01*
X88428835Y-89788116D01*
X88341148Y-89778534D01*
X88263277Y-89735944D01*
X88250782Y-89719973D01*
X88220127Y-89634813D01*
X88208741Y-89542249D01*
X88205939Y-89449156D01*
X88211187Y-89360267D01*
X88232508Y-89273653D01*
X88284743Y-89201749D01*
X88289909Y-89198123D01*
X88372013Y-89166585D01*
X88462723Y-89151871D01*
X88563506Y-89144676D01*
X88665799Y-89142729D01*
X88765351Y-89144970D01*
X88863094Y-89153250D01*
X88950533Y-89170183D01*
X89028500Y-89206476D01*
X89078883Y-89286278D01*
X89098716Y-89374339D01*
X89106012Y-89475153D01*
X89106316Y-89503671D01*
X89103238Y-89593549D01*
X89088957Y-89687611D01*
X89057076Y-89754704D01*
X88974424Y-89794601D01*
X88878838Y-89806601D01*
X88824948Y-89807900D01*
G37*
G36*
X88765347Y-90184854D02*
G01*
X88861924Y-90192002D01*
X88961125Y-90206871D01*
X89053849Y-90232891D01*
X89136651Y-90280070D01*
X89174152Y-90324723D01*
X89212084Y-90409312D01*
X89233960Y-90506814D01*
X89244305Y-90607834D01*
X89247000Y-90704320D01*
X89245275Y-90782713D01*
X89238271Y-90870580D01*
X89222753Y-90961173D01*
X89189993Y-91056767D01*
X89136651Y-91129889D01*
X89121791Y-91141708D01*
X89042120Y-91181357D01*
X88945856Y-91206043D01*
X88843620Y-91219768D01*
X88744515Y-91225963D01*
X88656127Y-91227488D01*
X88546918Y-91225105D01*
X88450374Y-91217957D01*
X88351239Y-91203088D01*
X88258633Y-91177068D01*
X88176043Y-91129889D01*
X88138393Y-91085190D01*
X88100309Y-91000395D01*
X88078346Y-90902578D01*
X88067960Y-90801186D01*
X88065255Y-90704320D01*
X88205939Y-90704320D01*
X88206222Y-90732538D01*
X88211677Y-90820453D01*
X88228891Y-90908695D01*
X88278479Y-90990524D01*
X88300248Y-91003404D01*
X88386466Y-91028091D01*
X88473847Y-91038985D01*
X88566459Y-91044137D01*
X88656127Y-91045478D01*
X88762367Y-91043546D01*
X88852253Y-91037750D01*
X88946666Y-91024012D01*
X89033775Y-90990524D01*
X89050777Y-90974031D01*
X89088181Y-90891496D01*
X89102844Y-90797056D01*
X89106316Y-90704320D01*
X89106245Y-90690093D01*
X89100578Y-90588613D01*
X89083363Y-90500656D01*
X89033775Y-90418996D01*
X89012007Y-90406116D01*
X88925788Y-90381429D01*
X88838408Y-90370535D01*
X88745796Y-90365383D01*
X88656127Y-90364041D01*
X88549888Y-90365973D01*
X88460001Y-90371769D01*
X88365589Y-90385508D01*
X88278479Y-90418996D01*
X88261477Y-90435475D01*
X88224074Y-90517804D01*
X88209410Y-90611927D01*
X88205939Y-90704320D01*
X88065255Y-90704320D01*
X88066229Y-90645086D01*
X88074018Y-90538698D01*
X88089598Y-90448414D01*
X88122488Y-90353088D01*
X88176043Y-90280070D01*
X88190850Y-90268252D01*
X88270342Y-90228602D01*
X88366495Y-90203916D01*
X88468669Y-90190191D01*
X88567746Y-90183996D01*
X88656127Y-90182471D01*
X88765347Y-90184854D01*
G37*
G36*
X88065255Y-91490831D02*
G01*
X88065255Y-91664048D01*
X88243308Y-91660091D01*
X88246825Y-91664048D01*
X88176077Y-91716758D01*
X88122705Y-91787182D01*
X88086710Y-91875320D01*
X88069688Y-91964965D01*
X88065255Y-92049610D01*
X88069688Y-92137808D01*
X88086710Y-92228400D01*
X88122705Y-92313073D01*
X88185120Y-92382123D01*
X88246825Y-92414509D01*
X88246825Y-92419345D01*
X88176077Y-92476821D01*
X88122705Y-92551928D01*
X88086710Y-92644663D01*
X88069688Y-92738182D01*
X88065255Y-92826009D01*
X88071650Y-92924000D01*
X88097631Y-93028115D01*
X88143598Y-93111816D01*
X88209550Y-93175102D01*
X88295487Y-93217973D01*
X88401410Y-93240429D01*
X88474557Y-93244104D01*
X89247000Y-93244104D01*
X89247000Y-93070887D01*
X88458290Y-93070887D01*
X88368258Y-93064289D01*
X88281653Y-93034028D01*
X88258695Y-93015053D01*
X88219128Y-92934929D01*
X88206763Y-92842378D01*
X88205939Y-92805346D01*
X88210582Y-92710961D01*
X88226908Y-92624551D01*
X88266959Y-92541902D01*
X88280237Y-92527056D01*
X88362808Y-92479804D01*
X88456540Y-92459849D01*
X88550443Y-92454147D01*
X88563364Y-92454076D01*
X89247000Y-92454076D01*
X89247000Y-92280859D01*
X88474557Y-92280859D01*
X88420042Y-92278661D01*
X88326372Y-92262339D01*
X88252983Y-92204959D01*
X88216184Y-92119271D01*
X88205939Y-92017516D01*
X88214966Y-91915687D01*
X88242046Y-91831117D01*
X88298372Y-91752415D01*
X88380696Y-91698566D01*
X88469158Y-91672678D01*
X88575674Y-91664048D01*
X89247000Y-91664048D01*
X89247000Y-91490831D01*
X88065255Y-91490831D01*
G37*
G36*
X87558793Y-94876916D02*
G01*
X89753461Y-93393141D01*
X89753461Y-93250698D01*
X87558793Y-94735793D01*
X87558793Y-94876916D01*
G37*
G36*
X87558793Y-95371068D02*
G01*
X89247000Y-95371068D01*
X89247000Y-95197851D01*
X87558793Y-95197851D01*
X87558793Y-95371068D01*
G37*
G36*
X88753986Y-95640418D02*
G01*
X88851264Y-95647888D01*
X88951563Y-95663427D01*
X89045919Y-95690619D01*
X89131375Y-95739924D01*
X89170669Y-95786070D01*
X89210415Y-95872170D01*
X89233337Y-95970544D01*
X89244177Y-96071976D01*
X89247000Y-96168570D01*
X89246930Y-96185936D01*
X89243570Y-96283205D01*
X89233283Y-96381684D01*
X89213129Y-96474447D01*
X89175339Y-96560726D01*
X89165905Y-96574302D01*
X89098980Y-96633311D01*
X89016050Y-96663966D01*
X88923427Y-96672834D01*
X88881221Y-96671515D01*
X88881221Y-96494781D01*
X88919470Y-96494781D01*
X88995410Y-96486002D01*
X89071145Y-96432352D01*
X89095187Y-96349706D01*
X89104117Y-96256360D01*
X89106316Y-96161096D01*
X89106243Y-96147486D01*
X89100404Y-96049859D01*
X89079967Y-95955956D01*
X89031577Y-95880608D01*
X88965546Y-95849077D01*
X88873080Y-95830685D01*
X88779524Y-95822919D01*
X88684264Y-95820817D01*
X88684264Y-96671515D01*
X88594578Y-96671515D01*
X88535388Y-96670622D01*
X88428855Y-96663482D01*
X88338118Y-96649200D01*
X88241707Y-96619051D01*
X88166811Y-96569959D01*
X88132298Y-96524111D01*
X88097388Y-96438313D01*
X88077255Y-96340114D01*
X88067734Y-96238764D01*
X88065673Y-96158458D01*
X88205939Y-96158458D01*
X88209291Y-96253750D01*
X88222909Y-96347207D01*
X88259575Y-96430154D01*
X88311203Y-96466197D01*
X88401177Y-96488454D01*
X88491703Y-96493462D01*
X88543580Y-96494781D01*
X88543580Y-95823455D01*
X88446942Y-95827357D01*
X88352343Y-95843208D01*
X88268807Y-95885883D01*
X88264939Y-95889929D01*
X88225831Y-95968782D01*
X88209868Y-96062617D01*
X88205939Y-96158458D01*
X88065673Y-96158458D01*
X88065255Y-96142192D01*
X88065715Y-96105588D01*
X88072619Y-96004970D01*
X88091144Y-95905007D01*
X88126122Y-95813741D01*
X88183078Y-95740363D01*
X88267015Y-95690846D01*
X88357064Y-95663537D01*
X88451495Y-95647931D01*
X88542348Y-95640429D01*
X88644257Y-95637928D01*
X88753986Y-95640418D01*
G37*
G36*
X88065255Y-96938814D02*
G01*
X88065255Y-97105876D01*
X88226162Y-97100601D01*
X88229679Y-97105876D01*
X88157744Y-97160116D01*
X88106361Y-97243703D01*
X88078261Y-97340913D01*
X88066700Y-97442119D01*
X88065255Y-97498912D01*
X88068269Y-97588124D01*
X88079404Y-97677671D01*
X88105775Y-97769804D01*
X88150984Y-97841829D01*
X88228115Y-97892890D01*
X88318733Y-97918903D01*
X88406333Y-97929325D01*
X88478074Y-97931515D01*
X89247000Y-97931515D01*
X89247000Y-97758737D01*
X88493022Y-97758737D01*
X88448618Y-97758737D01*
X88354296Y-97750577D01*
X88269501Y-97714307D01*
X88255618Y-97700705D01*
X88218359Y-97615745D01*
X88207152Y-97526095D01*
X88205939Y-97476930D01*
X88214000Y-97371808D01*
X88238182Y-97284503D01*
X88288481Y-97203256D01*
X88361995Y-97147666D01*
X88458723Y-97117733D01*
X88536106Y-97112031D01*
X89247000Y-97112031D01*
X89247000Y-96938814D01*
X88065255Y-96938814D01*
G37*
G36*
X88065255Y-98238381D02*
G01*
X88065255Y-98405444D01*
X88226162Y-98400168D01*
X88229679Y-98405444D01*
X88157744Y-98459684D01*
X88106361Y-98543270D01*
X88078261Y-98640480D01*
X88066700Y-98741686D01*
X88065255Y-98798479D01*
X88068269Y-98887691D01*
X88079404Y-98977238D01*
X88105775Y-99069371D01*
X88150984Y-99141396D01*
X88228115Y-99192458D01*
X88318733Y-99218470D01*
X88406333Y-99228893D01*
X88478074Y-99231082D01*
X89247000Y-99231082D01*
X89247000Y-99058305D01*
X88493022Y-99058305D01*
X88448618Y-99058305D01*
X88354296Y-99050144D01*
X88269501Y-99013874D01*
X88255618Y-99000273D01*
X88218359Y-98915313D01*
X88207152Y-98825662D01*
X88205939Y-98776497D01*
X88214000Y-98671375D01*
X88238182Y-98584070D01*
X88288481Y-98502823D01*
X88361995Y-98447233D01*
X88458723Y-98417300D01*
X88536106Y-98411599D01*
X89247000Y-98411599D01*
X89247000Y-98238381D01*
X88065255Y-98238381D01*
G37*
G36*
X88965004Y-99499681D02*
G01*
X89053861Y-99523743D01*
X89138359Y-99581492D01*
X89190332Y-99653678D01*
X89225540Y-99747738D01*
X89241635Y-99838736D01*
X89247000Y-99943734D01*
X89246501Y-99980801D01*
X89239031Y-100082439D01*
X89218986Y-100182890D01*
X89181136Y-100273785D01*
X89119505Y-100345562D01*
X89120824Y-100349079D01*
X89247000Y-100335451D01*
X89247000Y-100508668D01*
X88472799Y-100508668D01*
X88415728Y-100507046D01*
X88315931Y-100494077D01*
X88226518Y-100463984D01*
X88150105Y-100404913D01*
X88130218Y-100375973D01*
X88095168Y-100288905D01*
X88077187Y-100200173D01*
X88068238Y-100109482D01*
X88065255Y-100005283D01*
X88067681Y-99909657D01*
X88076646Y-99813916D01*
X88094981Y-99725363D01*
X88134278Y-99639945D01*
X88143364Y-99628658D01*
X88219449Y-99576232D01*
X88311094Y-99552567D01*
X88402896Y-99546742D01*
X88402896Y-99718640D01*
X88370803Y-99717321D01*
X88341340Y-99720122D01*
X88264060Y-99769925D01*
X88225420Y-99854589D01*
X88209964Y-99944234D01*
X88205939Y-100036058D01*
X88207933Y-100101952D01*
X88221945Y-100198511D01*
X88262652Y-100279617D01*
X88324167Y-100313640D01*
X88413902Y-100331034D01*
X88511047Y-100335451D01*
X88653050Y-100335451D01*
X88654369Y-100331933D01*
X88622452Y-100306465D01*
X88578634Y-100229896D01*
X88556671Y-100143030D01*
X88546285Y-100049552D01*
X88544726Y-99996930D01*
X88684264Y-99996930D01*
X88687039Y-100091177D01*
X88698313Y-100185339D01*
X88728667Y-100273022D01*
X88734546Y-100281647D01*
X88810999Y-100332489D01*
X88901445Y-100344243D01*
X88981272Y-100326719D01*
X89048496Y-100263776D01*
X89086309Y-100171148D01*
X89101314Y-100083528D01*
X89106316Y-99978026D01*
X89104816Y-99914234D01*
X89094280Y-99819601D01*
X89063671Y-99737104D01*
X89060918Y-99733453D01*
X88981567Y-99687549D01*
X88889135Y-99677753D01*
X88800202Y-99687621D01*
X88722952Y-99737544D01*
X88696505Y-99816837D01*
X88686682Y-99906035D01*
X88684264Y-99996930D01*
X88544726Y-99996930D01*
X88543580Y-99958242D01*
X88543656Y-99942023D01*
X88547304Y-99851348D01*
X88558475Y-99759938D01*
X88580360Y-99674429D01*
X88621396Y-99595981D01*
X88642828Y-99572488D01*
X88722169Y-99524033D01*
X88809341Y-99502009D01*
X88903643Y-99495744D01*
X88965004Y-99499681D01*
G37*
G36*
X88065255Y-100838835D02*
G01*
X88065255Y-101012052D01*
X88202422Y-100994906D01*
X88205939Y-100998423D01*
X88132080Y-101058022D01*
X88079323Y-101134381D01*
X88047669Y-101227502D01*
X88037283Y-101322732D01*
X88037118Y-101337384D01*
X88045415Y-101431360D01*
X88077275Y-101523107D01*
X88133030Y-101591917D01*
X88212680Y-101637791D01*
X88316225Y-101660727D01*
X88376958Y-101663594D01*
X88459170Y-101662275D01*
X88459170Y-101491696D01*
X88428835Y-101495213D01*
X88364208Y-101499170D01*
X88274100Y-101483521D01*
X88204015Y-101421890D01*
X88179440Y-101336689D01*
X88177802Y-101301333D01*
X88190600Y-101203023D01*
X88237879Y-101114035D01*
X88319997Y-101052732D01*
X88418112Y-101022222D01*
X88519426Y-101012335D01*
X88541822Y-101012052D01*
X89247000Y-101012052D01*
X89247000Y-100838835D01*
X88065255Y-100838835D01*
G37*
G36*
X88065255Y-102452743D02*
G01*
X88205939Y-102452743D01*
X88205939Y-101997719D01*
X88929581Y-101997719D01*
X89022781Y-102014119D01*
X89089056Y-102077097D01*
X89106316Y-102165660D01*
X89090988Y-102253759D01*
X89025235Y-102319507D01*
X88949365Y-102332722D01*
X88890893Y-102334041D01*
X88824948Y-102336679D01*
X88824948Y-102497146D01*
X88909798Y-102498465D01*
X89006941Y-102490372D01*
X89101779Y-102459295D01*
X89172907Y-102404911D01*
X89220326Y-102327219D01*
X89244036Y-102226219D01*
X89247000Y-102166979D01*
X89240270Y-102068316D01*
X89214427Y-101971994D01*
X89159781Y-101890054D01*
X89078755Y-101840890D01*
X88988306Y-101824836D01*
X88971347Y-101824502D01*
X88929581Y-101824502D01*
X88205939Y-101824502D01*
X88205939Y-101661396D01*
X88065255Y-101661396D01*
X88065255Y-101824502D01*
X87783887Y-101824502D01*
X87783887Y-101997719D01*
X88065255Y-101997719D01*
X88065255Y-102452743D01*
G37*
G36*
X88753851Y-102614339D02*
G01*
X88859611Y-102623736D01*
X88951090Y-102640181D01*
X89039766Y-102668275D01*
X89117307Y-102712129D01*
X89133012Y-102725266D01*
X89191145Y-102799432D01*
X89225595Y-102886027D01*
X89242440Y-102977756D01*
X89247000Y-103068235D01*
X89246424Y-103106124D01*
X89237795Y-103208891D01*
X89214639Y-103308118D01*
X89170915Y-103394267D01*
X89099721Y-103456435D01*
X89103678Y-103459952D01*
X89753461Y-103459952D01*
X89753461Y-103633169D01*
X88065255Y-103633169D01*
X88065255Y-103459952D01*
X88211214Y-103468744D01*
X88215171Y-103465227D01*
X88171982Y-103430048D01*
X88118106Y-103354293D01*
X88086337Y-103268352D01*
X88070525Y-103180088D01*
X88066644Y-103105164D01*
X88205939Y-103105164D01*
X88206279Y-103132352D01*
X88214440Y-103228701D01*
X88239942Y-103321239D01*
X88292987Y-103391368D01*
X88325365Y-103409733D01*
X88410423Y-103434946D01*
X88500382Y-103447583D01*
X88594066Y-103453559D01*
X88683824Y-103455116D01*
X88744103Y-103454030D01*
X88837127Y-103446908D01*
X88933421Y-103427982D01*
X89021026Y-103385653D01*
X89031354Y-103376506D01*
X89079329Y-103299845D01*
X89100985Y-103207435D01*
X89106316Y-103114836D01*
X89106234Y-103102604D01*
X89099743Y-103014299D01*
X89077023Y-102927797D01*
X89023224Y-102855011D01*
X88952985Y-102822553D01*
X88858936Y-102803620D01*
X88765590Y-102795626D01*
X88671515Y-102793462D01*
X88571246Y-102795564D01*
X88471692Y-102803330D01*
X88380893Y-102819211D01*
X88296064Y-102853252D01*
X88241144Y-102916910D01*
X88213068Y-103007741D01*
X88205939Y-103105164D01*
X88066644Y-103105164D01*
X88065255Y-103078347D01*
X88065758Y-103046008D01*
X88073306Y-102956595D01*
X88093559Y-102866696D01*
X88131800Y-102782966D01*
X88194069Y-102713008D01*
X88202291Y-102706787D01*
X88282415Y-102664129D01*
X88373441Y-102637171D01*
X88467001Y-102621766D01*
X88555924Y-102614360D01*
X88654808Y-102611892D01*
X88753851Y-102614339D01*
G37*
G36*
X88065255Y-104893608D02*
G01*
X89247000Y-104893608D01*
X89247000Y-104720391D01*
X89092687Y-104732701D01*
X89088730Y-104729184D01*
X89157973Y-104671262D01*
X89207432Y-104587621D01*
X89234480Y-104493338D01*
X89245608Y-104396851D01*
X89247000Y-104343183D01*
X89240817Y-104246119D01*
X89215701Y-104142989D01*
X89171265Y-104060080D01*
X89107509Y-103997393D01*
X89024433Y-103954928D01*
X88922037Y-103932684D01*
X88851326Y-103929044D01*
X88065255Y-103929044D01*
X88065255Y-104102261D01*
X88851326Y-104102261D01*
X88944008Y-104108547D01*
X89032050Y-104137379D01*
X89054878Y-104155458D01*
X89095013Y-104240888D01*
X89105864Y-104336005D01*
X89106316Y-104364285D01*
X89101452Y-104458285D01*
X89084354Y-104544920D01*
X89042406Y-104628949D01*
X89028500Y-104644334D01*
X88951838Y-104690681D01*
X88859995Y-104712964D01*
X88768221Y-104720094D01*
X88742736Y-104720391D01*
X88065255Y-104720391D01*
X88065255Y-104893608D01*
G37*
G36*
X88753986Y-105175268D02*
G01*
X88851264Y-105182738D01*
X88951563Y-105198277D01*
X89045919Y-105225469D01*
X89131375Y-105274774D01*
X89170669Y-105320920D01*
X89210415Y-105407020D01*
X89233337Y-105505394D01*
X89244177Y-105606826D01*
X89247000Y-105703420D01*
X89246930Y-105720786D01*
X89243570Y-105818055D01*
X89233283Y-105916534D01*
X89213129Y-106009297D01*
X89175339Y-106095576D01*
X89165905Y-106109152D01*
X89098980Y-106168161D01*
X89016050Y-106198816D01*
X88923427Y-106207684D01*
X88881221Y-106206365D01*
X88881221Y-106029631D01*
X88919470Y-106029631D01*
X88995410Y-106020852D01*
X89071145Y-105967202D01*
X89095187Y-105884556D01*
X89104117Y-105791210D01*
X89106316Y-105695946D01*
X89106243Y-105682336D01*
X89100404Y-105584709D01*
X89079967Y-105490806D01*
X89031577Y-105415458D01*
X88965546Y-105383927D01*
X88873080Y-105365535D01*
X88779524Y-105357769D01*
X88684264Y-105355667D01*
X88684264Y-106206365D01*
X88594578Y-106206365D01*
X88535388Y-106205472D01*
X88428855Y-106198331D01*
X88338118Y-106184050D01*
X88241707Y-106153901D01*
X88166811Y-106104809D01*
X88132298Y-106058961D01*
X88097388Y-105973163D01*
X88077255Y-105874964D01*
X88067734Y-105773614D01*
X88065673Y-105693308D01*
X88205939Y-105693308D01*
X88209291Y-105788600D01*
X88222909Y-105882057D01*
X88259575Y-105965004D01*
X88311203Y-106001047D01*
X88401177Y-106023304D01*
X88491703Y-106028312D01*
X88543580Y-106029631D01*
X88543580Y-105358305D01*
X88446942Y-105362207D01*
X88352343Y-105378057D01*
X88268807Y-105420733D01*
X88264939Y-105424779D01*
X88225831Y-105503632D01*
X88209868Y-105597467D01*
X88205939Y-105693308D01*
X88065673Y-105693308D01*
X88065255Y-105677042D01*
X88065715Y-105640438D01*
X88072619Y-105539820D01*
X88091144Y-105439857D01*
X88126122Y-105348591D01*
X88183078Y-105275213D01*
X88267015Y-105225696D01*
X88357064Y-105198387D01*
X88451495Y-105182781D01*
X88542348Y-105175279D01*
X88644257Y-105172778D01*
X88753986Y-105175268D01*
G37*
G36*
X88065255Y-106490810D02*
G01*
X88065255Y-106664027D01*
X88202422Y-106646881D01*
X88205939Y-106650398D01*
X88132080Y-106709997D01*
X88079323Y-106786356D01*
X88047669Y-106879477D01*
X88037283Y-106974707D01*
X88037118Y-106989358D01*
X88045415Y-107083335D01*
X88077275Y-107175082D01*
X88133030Y-107243892D01*
X88212680Y-107289765D01*
X88316225Y-107312702D01*
X88376958Y-107315569D01*
X88459170Y-107314250D01*
X88459170Y-107143671D01*
X88428835Y-107147188D01*
X88364208Y-107151145D01*
X88274100Y-107135496D01*
X88204015Y-107073865D01*
X88179440Y-106988664D01*
X88177802Y-106953308D01*
X88190600Y-106854998D01*
X88237879Y-106766010D01*
X88319997Y-106704707D01*
X88418112Y-106674197D01*
X88519426Y-106664309D01*
X88541822Y-106664027D01*
X89247000Y-106664027D01*
X89247000Y-106490810D01*
X88065255Y-106490810D01*
G37*
G36*
X88065255Y-108104718D02*
G01*
X88205939Y-108104718D01*
X88205939Y-107649693D01*
X88929581Y-107649693D01*
X89022781Y-107666094D01*
X89089056Y-107729072D01*
X89106316Y-107817635D01*
X89090988Y-107905734D01*
X89025235Y-107971482D01*
X88949365Y-107984697D01*
X88890893Y-107986016D01*
X88824948Y-107988654D01*
X88824948Y-108149121D01*
X88909798Y-108150440D01*
X89006941Y-108142347D01*
X89101779Y-108111270D01*
X89172907Y-108056886D01*
X89220326Y-107979194D01*
X89244036Y-107878194D01*
X89247000Y-107818954D01*
X89240270Y-107720291D01*
X89214427Y-107623969D01*
X89159781Y-107542029D01*
X89078755Y-107492864D01*
X88988306Y-107476811D01*
X88971347Y-107476476D01*
X88929581Y-107476476D01*
X88205939Y-107476476D01*
X88205939Y-107313371D01*
X88065255Y-107313371D01*
X88065255Y-107476476D01*
X87783887Y-107476476D01*
X87783887Y-107649693D01*
X88065255Y-107649693D01*
X88065255Y-108104718D01*
G37*
G36*
X88753986Y-108265038D02*
G01*
X88851264Y-108272508D01*
X88951563Y-108288047D01*
X89045919Y-108315239D01*
X89131375Y-108364543D01*
X89170669Y-108410690D01*
X89210415Y-108496790D01*
X89233337Y-108595164D01*
X89244177Y-108696596D01*
X89247000Y-108793190D01*
X89246930Y-108810555D01*
X89243570Y-108907825D01*
X89233283Y-109006304D01*
X89213129Y-109099067D01*
X89175339Y-109185346D01*
X89165905Y-109198921D01*
X89098980Y-109257931D01*
X89016050Y-109288585D01*
X88923427Y-109297453D01*
X88881221Y-109296134D01*
X88881221Y-109119400D01*
X88919470Y-109119400D01*
X88995410Y-109110621D01*
X89071145Y-109056972D01*
X89095187Y-108974325D01*
X89104117Y-108880980D01*
X89106316Y-108785716D01*
X89106243Y-108772106D01*
X89100404Y-108674479D01*
X89079967Y-108580575D01*
X89031577Y-108505227D01*
X88965546Y-108473697D01*
X88873080Y-108455304D01*
X88779524Y-108447539D01*
X88684264Y-108445437D01*
X88684264Y-109296134D01*
X88594578Y-109296134D01*
X88535388Y-109295242D01*
X88428855Y-109288101D01*
X88338118Y-109273820D01*
X88241707Y-109243670D01*
X88166811Y-109194578D01*
X88132298Y-109148731D01*
X88097388Y-109062933D01*
X88077255Y-108964734D01*
X88067734Y-108863383D01*
X88065673Y-108783078D01*
X88205939Y-108783078D01*
X88209291Y-108878369D01*
X88222909Y-108971827D01*
X88259575Y-109054774D01*
X88311203Y-109090817D01*
X88401177Y-109113074D01*
X88491703Y-109118081D01*
X88543580Y-109119400D01*
X88543580Y-108448074D01*
X88446942Y-108451976D01*
X88352343Y-108467827D01*
X88268807Y-108510503D01*
X88264939Y-108514549D01*
X88225831Y-108593402D01*
X88209868Y-108687237D01*
X88205939Y-108783078D01*
X88065673Y-108783078D01*
X88065255Y-108766811D01*
X88065715Y-108730208D01*
X88072619Y-108629590D01*
X88091144Y-108529626D01*
X88126122Y-108438360D01*
X88183078Y-108364983D01*
X88267015Y-108315466D01*
X88357064Y-108288156D01*
X88451495Y-108272551D01*
X88542348Y-108265048D01*
X88644257Y-108262548D01*
X88753986Y-108265038D01*
G37*
G36*
X88065255Y-109580580D02*
G01*
X88065255Y-109753797D01*
X88202422Y-109736651D01*
X88205939Y-109740168D01*
X88132080Y-109799766D01*
X88079323Y-109876126D01*
X88047669Y-109969246D01*
X88037283Y-110064476D01*
X88037118Y-110079128D01*
X88045415Y-110173105D01*
X88077275Y-110264852D01*
X88133030Y-110333662D01*
X88212680Y-110379535D01*
X88316225Y-110402472D01*
X88376958Y-110405339D01*
X88459170Y-110404020D01*
X88459170Y-110233441D01*
X88428835Y-110236958D01*
X88364208Y-110240915D01*
X88274100Y-110225265D01*
X88204015Y-110163635D01*
X88179440Y-110078434D01*
X88177802Y-110043078D01*
X88190600Y-109944768D01*
X88237879Y-109855780D01*
X88319997Y-109794477D01*
X88418112Y-109763967D01*
X88519426Y-109754079D01*
X88541822Y-109753797D01*
X89247000Y-109753797D01*
X89247000Y-109580580D01*
X88065255Y-109580580D01*
G37*
G36*
X87558793Y-111873287D02*
G01*
X89753461Y-110389512D01*
X89753461Y-110247070D01*
X87558793Y-111732164D01*
X87558793Y-111873287D01*
G37*
G36*
X88753986Y-112161981D02*
G01*
X88851264Y-112169452D01*
X88951563Y-112184990D01*
X89045919Y-112212182D01*
X89131375Y-112261487D01*
X89170669Y-112307633D01*
X89210415Y-112393733D01*
X89233337Y-112492107D01*
X89244177Y-112593540D01*
X89247000Y-112690133D01*
X89246930Y-112707499D01*
X89243570Y-112804768D01*
X89233283Y-112903247D01*
X89213129Y-112996011D01*
X89175339Y-113082289D01*
X89165905Y-113095865D01*
X89098980Y-113154875D01*
X89016050Y-113185529D01*
X88923427Y-113194397D01*
X88881221Y-113193078D01*
X88881221Y-113016344D01*
X88919470Y-113016344D01*
X88995410Y-113007565D01*
X89071145Y-112953915D01*
X89095187Y-112871269D01*
X89104117Y-112777923D01*
X89106316Y-112682659D01*
X89106243Y-112669049D01*
X89100404Y-112571422D01*
X89079967Y-112477519D01*
X89031577Y-112402171D01*
X88965546Y-112370641D01*
X88873080Y-112352248D01*
X88779524Y-112344482D01*
X88684264Y-112342380D01*
X88684264Y-113193078D01*
X88594578Y-113193078D01*
X88535388Y-113192185D01*
X88428855Y-113185045D01*
X88338118Y-113170763D01*
X88241707Y-113140614D01*
X88166811Y-113091522D01*
X88132298Y-113045674D01*
X88097388Y-112959876D01*
X88077255Y-112861677D01*
X88067734Y-112760327D01*
X88065673Y-112680021D01*
X88205939Y-112680021D01*
X88209291Y-112775313D01*
X88222909Y-112868770D01*
X88259575Y-112951717D01*
X88311203Y-112987761D01*
X88401177Y-113010017D01*
X88491703Y-113015025D01*
X88543580Y-113016344D01*
X88543580Y-112345018D01*
X88446942Y-112348920D01*
X88352343Y-112364771D01*
X88268807Y-112407446D01*
X88264939Y-112411492D01*
X88225831Y-112490345D01*
X88209868Y-112584181D01*
X88205939Y-112680021D01*
X88065673Y-112680021D01*
X88065255Y-112663755D01*
X88065715Y-112627152D01*
X88072619Y-112526533D01*
X88091144Y-112426570D01*
X88126122Y-112335304D01*
X88183078Y-112261927D01*
X88267015Y-112212409D01*
X88357064Y-112185100D01*
X88451495Y-112169495D01*
X88542348Y-112161992D01*
X88644257Y-112159491D01*
X88753986Y-112161981D01*
G37*
G36*
X88065255Y-114424941D02*
G01*
X89247000Y-114424941D01*
X89247000Y-114251724D01*
X89092687Y-114264034D01*
X89088730Y-114260517D01*
X89157973Y-114202595D01*
X89207432Y-114118954D01*
X89234480Y-114024670D01*
X89245608Y-113928184D01*
X89247000Y-113874515D01*
X89240817Y-113777452D01*
X89215701Y-113674322D01*
X89171265Y-113591413D01*
X89107509Y-113528726D01*
X89024433Y-113486261D01*
X88922037Y-113464017D01*
X88851326Y-113460377D01*
X88065255Y-113460377D01*
X88065255Y-113633594D01*
X88851326Y-113633594D01*
X88944008Y-113639880D01*
X89032050Y-113668712D01*
X89054878Y-113686790D01*
X89095013Y-113772221D01*
X89105864Y-113867337D01*
X89106316Y-113895618D01*
X89101452Y-113989618D01*
X89084354Y-114076253D01*
X89042406Y-114160282D01*
X89028500Y-114175667D01*
X88951838Y-114222014D01*
X88859995Y-114244297D01*
X88768221Y-114251427D01*
X88742736Y-114251724D01*
X88065255Y-114251724D01*
X88065255Y-114424941D01*
G37*
G36*
X88065255Y-114755988D02*
G01*
X88065255Y-114929205D01*
X88202422Y-114912059D01*
X88205939Y-114915576D01*
X88132080Y-114975175D01*
X88079323Y-115051534D01*
X88047669Y-115144655D01*
X88037283Y-115239885D01*
X88037118Y-115254536D01*
X88045415Y-115348513D01*
X88077275Y-115440260D01*
X88133030Y-115509070D01*
X88212680Y-115554943D01*
X88316225Y-115577880D01*
X88376958Y-115580747D01*
X88459170Y-115579428D01*
X88459170Y-115408849D01*
X88428835Y-115412366D01*
X88364208Y-115416323D01*
X88274100Y-115400674D01*
X88204015Y-115339043D01*
X88179440Y-115253842D01*
X88177802Y-115218486D01*
X88190600Y-115120176D01*
X88237879Y-115031188D01*
X88319997Y-114969885D01*
X88418112Y-114939375D01*
X88519426Y-114929487D01*
X88541822Y-114929205D01*
X89247000Y-114929205D01*
X89247000Y-114755988D01*
X88065255Y-114755988D01*
G37*
G36*
X88765347Y-115711944D02*
G01*
X88861924Y-115719092D01*
X88961125Y-115733961D01*
X89053849Y-115759981D01*
X89136651Y-115807160D01*
X89174152Y-115851813D01*
X89212084Y-115936402D01*
X89233960Y-116033904D01*
X89244305Y-116134924D01*
X89247000Y-116231410D01*
X89245275Y-116309803D01*
X89238271Y-116397670D01*
X89222753Y-116488263D01*
X89189993Y-116583857D01*
X89136651Y-116656979D01*
X89121791Y-116668798D01*
X89042120Y-116708447D01*
X88945856Y-116733133D01*
X88843620Y-116746858D01*
X88744515Y-116753053D01*
X88656127Y-116754578D01*
X88546918Y-116752195D01*
X88450374Y-116745047D01*
X88351239Y-116730178D01*
X88258633Y-116704158D01*
X88176043Y-116656979D01*
X88138393Y-116612280D01*
X88100309Y-116527485D01*
X88078346Y-116429668D01*
X88067960Y-116328276D01*
X88065255Y-116231410D01*
X88205939Y-116231410D01*
X88206222Y-116259628D01*
X88211677Y-116347543D01*
X88228891Y-116435785D01*
X88278479Y-116517614D01*
X88300248Y-116530494D01*
X88386466Y-116555181D01*
X88473847Y-116566075D01*
X88566459Y-116571227D01*
X88656127Y-116572569D01*
X88762367Y-116570637D01*
X88852253Y-116564841D01*
X88946666Y-116551102D01*
X89033775Y-116517614D01*
X89050777Y-116501121D01*
X89088181Y-116418586D01*
X89102844Y-116324146D01*
X89106316Y-116231410D01*
X89106245Y-116217183D01*
X89100578Y-116115703D01*
X89083363Y-116027746D01*
X89033775Y-115946086D01*
X89012007Y-115933206D01*
X88925788Y-115908519D01*
X88838408Y-115897625D01*
X88745796Y-115892473D01*
X88656127Y-115891131D01*
X88549888Y-115893063D01*
X88460001Y-115898859D01*
X88365589Y-115912598D01*
X88278479Y-115946086D01*
X88261477Y-115962565D01*
X88224074Y-116044894D01*
X88209410Y-116139017D01*
X88205939Y-116231410D01*
X88065255Y-116231410D01*
X88066229Y-116172176D01*
X88074018Y-116065788D01*
X88089598Y-115975504D01*
X88122488Y-115880178D01*
X88176043Y-115807160D01*
X88190850Y-115795342D01*
X88270342Y-115755692D01*
X88366495Y-115731006D01*
X88468669Y-115717281D01*
X88567746Y-115711086D01*
X88656127Y-115709561D01*
X88765347Y-115711944D01*
G37*
G36*
X88543580Y-116869324D02*
G01*
X88543580Y-117391173D01*
X88712401Y-117391173D01*
X88712401Y-116865806D01*
X88543580Y-116869324D01*
G37*
G36*
X88065255Y-117557356D02*
G01*
X88065255Y-117730573D01*
X88202422Y-117713427D01*
X88205939Y-117716944D01*
X88132080Y-117776542D01*
X88079323Y-117852902D01*
X88047669Y-117946022D01*
X88037283Y-118041252D01*
X88037118Y-118055904D01*
X88045415Y-118149881D01*
X88077275Y-118241628D01*
X88133030Y-118310438D01*
X88212680Y-118356311D01*
X88316225Y-118379248D01*
X88376958Y-118382115D01*
X88459170Y-118380796D01*
X88459170Y-118210217D01*
X88428835Y-118213734D01*
X88364208Y-118217691D01*
X88274100Y-118202041D01*
X88204015Y-118140411D01*
X88179440Y-118055210D01*
X88177802Y-118019854D01*
X88190600Y-117921544D01*
X88237879Y-117832556D01*
X88319997Y-117771253D01*
X88418112Y-117740743D01*
X88519426Y-117730855D01*
X88541822Y-117730573D01*
X89247000Y-117730573D01*
X89247000Y-117557356D01*
X88065255Y-117557356D01*
G37*
G36*
X88965004Y-118506073D02*
G01*
X89053861Y-118530135D01*
X89138359Y-118587884D01*
X89190332Y-118660070D01*
X89225540Y-118754130D01*
X89241635Y-118845128D01*
X89247000Y-118950126D01*
X89246501Y-118987193D01*
X89239031Y-119088832D01*
X89218986Y-119189282D01*
X89181136Y-119280177D01*
X89119505Y-119351954D01*
X89120824Y-119355472D01*
X89247000Y-119341843D01*
X89247000Y-119515060D01*
X88472799Y-119515060D01*
X88415728Y-119513439D01*
X88315931Y-119500469D01*
X88226518Y-119470377D01*
X88150105Y-119411305D01*
X88130218Y-119382365D01*
X88095168Y-119295297D01*
X88077187Y-119206565D01*
X88068238Y-119115874D01*
X88065255Y-119011675D01*
X88067681Y-118916049D01*
X88076646Y-118820308D01*
X88094981Y-118731756D01*
X88134278Y-118646337D01*
X88143364Y-118635051D01*
X88219449Y-118582624D01*
X88311094Y-118558959D01*
X88402896Y-118553134D01*
X88402896Y-118725032D01*
X88370803Y-118723713D01*
X88341340Y-118726514D01*
X88264060Y-118776317D01*
X88225420Y-118860982D01*
X88209964Y-118950626D01*
X88205939Y-119042450D01*
X88207933Y-119108344D01*
X88221945Y-119204904D01*
X88262652Y-119286009D01*
X88324167Y-119320033D01*
X88413902Y-119337426D01*
X88511047Y-119341843D01*
X88653050Y-119341843D01*
X88654369Y-119338326D01*
X88622452Y-119312858D01*
X88578634Y-119236289D01*
X88556671Y-119149423D01*
X88546285Y-119055945D01*
X88544726Y-119003322D01*
X88684264Y-119003322D01*
X88687039Y-119097569D01*
X88698313Y-119191731D01*
X88728667Y-119279414D01*
X88734546Y-119288039D01*
X88810999Y-119338881D01*
X88901445Y-119350636D01*
X88981272Y-119333111D01*
X89048496Y-119270168D01*
X89086309Y-119177540D01*
X89101314Y-119089920D01*
X89106316Y-118984418D01*
X89104816Y-118920626D01*
X89094280Y-118825993D01*
X89063671Y-118743497D01*
X89060918Y-118739845D01*
X88981567Y-118693941D01*
X88889135Y-118684146D01*
X88800202Y-118694013D01*
X88722952Y-118743936D01*
X88696505Y-118823229D01*
X88686682Y-118912427D01*
X88684264Y-119003322D01*
X88544726Y-119003322D01*
X88543580Y-118964634D01*
X88543656Y-118948416D01*
X88547304Y-118857740D01*
X88558475Y-118766330D01*
X88580360Y-118680821D01*
X88621396Y-118602373D01*
X88642828Y-118578880D01*
X88722169Y-118530425D01*
X88809341Y-118508401D01*
X88903643Y-118502136D01*
X88965004Y-118506073D01*
G37*
G36*
X88824948Y-120640531D02*
G01*
X88824948Y-120813748D01*
X88886057Y-120814627D01*
X88990040Y-120802488D01*
X89076398Y-120766070D01*
X89145132Y-120705373D01*
X89196242Y-120620397D01*
X89224441Y-120534935D01*
X89241360Y-120433936D01*
X89247000Y-120317398D01*
X89244155Y-120223062D01*
X89233233Y-120123773D01*
X89210137Y-120027119D01*
X89170089Y-119941953D01*
X89130496Y-119895786D01*
X89045383Y-119846268D01*
X88952113Y-119818959D01*
X88853313Y-119803354D01*
X88757686Y-119795851D01*
X88649972Y-119793350D01*
X88548843Y-119795894D01*
X88458404Y-119803525D01*
X88363988Y-119819399D01*
X88273293Y-119847177D01*
X88195299Y-119891134D01*
X88187474Y-119897544D01*
X88128393Y-119971319D01*
X88092110Y-120061946D01*
X88072894Y-120160584D01*
X88065732Y-120259498D01*
X88065255Y-120295416D01*
X88068176Y-120397121D01*
X88076940Y-120485937D01*
X88094548Y-120573262D01*
X88128872Y-120659758D01*
X88148346Y-120688891D01*
X88222365Y-120748713D01*
X88308505Y-120779188D01*
X88404401Y-120792322D01*
X88459170Y-120793964D01*
X88459170Y-120620747D01*
X88428835Y-120620747D01*
X88341148Y-120611164D01*
X88263277Y-120568575D01*
X88250782Y-120552603D01*
X88220127Y-120467444D01*
X88208741Y-120374880D01*
X88205939Y-120281787D01*
X88211187Y-120192898D01*
X88232508Y-120106284D01*
X88284743Y-120034380D01*
X88289909Y-120030754D01*
X88372013Y-119999216D01*
X88462723Y-119984502D01*
X88563506Y-119977307D01*
X88665799Y-119975360D01*
X88765351Y-119977601D01*
X88863094Y-119985881D01*
X88950533Y-120002814D01*
X89028500Y-120039107D01*
X89078883Y-120118909D01*
X89098716Y-120206970D01*
X89106012Y-120307784D01*
X89106316Y-120336302D01*
X89103238Y-120426180D01*
X89088957Y-120520242D01*
X89057076Y-120587335D01*
X88974424Y-120627232D01*
X88878838Y-120639232D01*
X88824948Y-120640531D01*
G37*
G36*
X87558793Y-121221731D02*
G01*
X88543580Y-121221731D01*
X88543580Y-121300866D01*
X88065255Y-121718521D01*
X88065255Y-121936141D01*
X88614362Y-121430559D01*
X89247000Y-122027586D01*
X89247000Y-121794139D01*
X88684264Y-121292073D01*
X88684264Y-121221731D01*
X89247000Y-121221731D01*
X89247000Y-121048514D01*
X87558793Y-121048514D01*
X87558793Y-121221731D01*
G37*
G36*
X88543580Y-121983183D02*
G01*
X88543580Y-122505032D01*
X88712401Y-122505032D01*
X88712401Y-121979666D01*
X88543580Y-121983183D01*
G37*
G36*
X88374759Y-123570273D02*
G01*
X88374759Y-123397056D01*
X88287040Y-123386043D01*
X88233636Y-123346937D01*
X88212863Y-123257471D01*
X88206913Y-123161592D01*
X88205939Y-123089310D01*
X88208373Y-122991910D01*
X88217960Y-122903185D01*
X88236713Y-122844432D01*
X88313638Y-122798685D01*
X88383552Y-122792555D01*
X88477336Y-122809599D01*
X88546579Y-122875050D01*
X88568200Y-122967090D01*
X88575234Y-123106455D01*
X88583587Y-123283629D01*
X88595724Y-123376213D01*
X88629274Y-123466599D01*
X88694592Y-123543491D01*
X88773016Y-123584918D01*
X88872150Y-123603749D01*
X88909798Y-123605004D01*
X88998934Y-123598354D01*
X89089026Y-123571341D01*
X89160753Y-123517625D01*
X89175339Y-123498612D01*
X89213129Y-123414857D01*
X89233283Y-123323001D01*
X89243570Y-123224504D01*
X89246930Y-123126616D01*
X89247000Y-123109093D01*
X89244697Y-123006486D01*
X89237788Y-122916615D01*
X89223906Y-122827861D01*
X89196847Y-122739221D01*
X89181494Y-122709024D01*
X89116970Y-122642315D01*
X89030777Y-122608213D01*
X88941012Y-122599554D01*
X88881221Y-122600873D01*
X88881221Y-122780245D01*
X88931340Y-122781564D01*
X89018608Y-122796401D01*
X89071145Y-122840915D01*
X89097523Y-122928952D01*
X89105457Y-123022758D01*
X89106316Y-123074362D01*
X89103843Y-123172236D01*
X89095149Y-123260405D01*
X89071540Y-123346748D01*
X89066748Y-123355730D01*
X88994832Y-123410119D01*
X88901005Y-123422994D01*
X88813659Y-123409605D01*
X88741665Y-123350100D01*
X88720491Y-123264147D01*
X88720314Y-123253734D01*
X88719304Y-123159363D01*
X88715202Y-123053262D01*
X88707944Y-122960341D01*
X88695069Y-122866235D01*
X88674306Y-122780433D01*
X88655688Y-122734962D01*
X88594539Y-122664377D01*
X88510458Y-122625634D01*
X88411586Y-122611469D01*
X88386630Y-122610984D01*
X88298180Y-122617112D01*
X88210261Y-122642005D01*
X88137968Y-122697152D01*
X88129442Y-122709024D01*
X88092898Y-122799689D01*
X88075848Y-122894472D01*
X88067511Y-122997333D01*
X88065255Y-123100301D01*
X88069452Y-123210450D01*
X88082044Y-123305913D01*
X88109587Y-123404589D01*
X88159953Y-123492709D01*
X88229206Y-123547784D01*
X88317347Y-123569814D01*
X88333873Y-123570273D01*
X88374759Y-123570273D01*
G37*
G36*
X88065255Y-124686072D02*
G01*
X89318221Y-124351068D01*
X89411791Y-124323984D01*
X89506189Y-124291019D01*
X89594597Y-124251541D01*
X89669226Y-124204829D01*
X89682240Y-124194118D01*
X89738808Y-124126451D01*
X89771895Y-124041330D01*
X89781598Y-123948800D01*
X89768409Y-123866148D01*
X89625087Y-123866148D01*
X89640914Y-123926818D01*
X89617065Y-124014466D01*
X89545074Y-124079450D01*
X89452984Y-124121360D01*
X89410545Y-124134767D01*
X89292282Y-124168179D01*
X89247000Y-124179170D01*
X89247000Y-124113224D01*
X88065255Y-123685458D01*
X88065255Y-123869666D01*
X88591940Y-124051675D01*
X88853964Y-124143120D01*
X88986295Y-124187523D01*
X89117307Y-124233245D01*
X89117307Y-124238521D01*
X88986295Y-124270615D01*
X88853964Y-124301389D01*
X88591940Y-124368214D01*
X88065255Y-124501864D01*
X88065255Y-124686072D01*
G37*
G36*
X88065255Y-124825876D02*
G01*
X88065255Y-124992938D01*
X88226162Y-124987663D01*
X88229679Y-124992938D01*
X88157744Y-125047179D01*
X88106361Y-125130765D01*
X88078261Y-125227975D01*
X88066700Y-125329181D01*
X88065255Y-125385974D01*
X88068269Y-125475186D01*
X88079404Y-125564733D01*
X88105775Y-125656866D01*
X88150984Y-125728891D01*
X88228115Y-125779952D01*
X88318733Y-125805965D01*
X88406333Y-125816387D01*
X88478074Y-125818577D01*
X89247000Y-125818577D01*
X89247000Y-125645800D01*
X88493022Y-125645800D01*
X88448618Y-125645800D01*
X88354296Y-125637639D01*
X88269501Y-125601369D01*
X88255618Y-125587767D01*
X88218359Y-125502808D01*
X88207152Y-125413157D01*
X88205939Y-125363992D01*
X88214000Y-125258870D01*
X88238182Y-125171565D01*
X88288481Y-125090318D01*
X88361995Y-125034728D01*
X88458723Y-125004795D01*
X88536106Y-124999093D01*
X89247000Y-124999093D01*
X89247000Y-124825876D01*
X88065255Y-124825876D01*
G37*
G36*
X88065255Y-126752366D02*
G01*
X88205939Y-126752366D01*
X88205939Y-126297342D01*
X88929581Y-126297342D01*
X89022781Y-126313742D01*
X89089056Y-126376720D01*
X89106316Y-126465283D01*
X89090988Y-126553382D01*
X89025235Y-126619130D01*
X88949365Y-126632345D01*
X88890893Y-126633664D01*
X88824948Y-126636302D01*
X88824948Y-126796769D01*
X88909798Y-126798088D01*
X89006941Y-126789995D01*
X89101779Y-126758919D01*
X89172907Y-126704534D01*
X89220326Y-126626842D01*
X89244036Y-126525842D01*
X89247000Y-126466602D01*
X89240270Y-126367939D01*
X89214427Y-126271617D01*
X89159781Y-126189677D01*
X89078755Y-126140513D01*
X88988306Y-126124459D01*
X88971347Y-126124125D01*
X88929581Y-126124125D01*
X88205939Y-126124125D01*
X88205939Y-125961019D01*
X88065255Y-125961019D01*
X88065255Y-126124125D01*
X87783887Y-126124125D01*
X87783887Y-126297342D01*
X88065255Y-126297342D01*
X88065255Y-126752366D01*
G37*
G36*
X87558793Y-127118144D02*
G01*
X88211214Y-127118144D01*
X88213852Y-127121661D01*
X88142021Y-127177114D01*
X88097906Y-127257643D01*
X88074542Y-127352224D01*
X88065835Y-127451209D01*
X88065255Y-127487879D01*
X88071169Y-127592155D01*
X88088913Y-127682528D01*
X88127727Y-127775943D01*
X88185023Y-127847633D01*
X88260803Y-127897599D01*
X88355065Y-127925840D01*
X88443782Y-127932792D01*
X88492143Y-127932792D01*
X89247000Y-127932792D01*
X89247000Y-127759575D01*
X88492143Y-127759575D01*
X88458730Y-127759575D01*
X88360230Y-127746511D01*
X88277283Y-127699586D01*
X88225935Y-127618535D01*
X88206926Y-127519621D01*
X88205939Y-127486560D01*
X88209557Y-127397182D01*
X88224843Y-127302792D01*
X88259772Y-127218785D01*
X88281556Y-127192003D01*
X88359290Y-127146995D01*
X88445179Y-127126872D01*
X88541377Y-127118793D01*
X88582268Y-127118144D01*
X89247000Y-127118144D01*
X89247000Y-126944927D01*
X87558793Y-126944927D01*
X87558793Y-127118144D01*
G37*
G36*
X51762000Y-41773210D02*
G01*
X51258664Y-41773210D01*
X51258664Y-42152079D01*
X51257638Y-42209867D01*
X51257313Y-42238269D01*
X51252445Y-42316552D01*
X51239381Y-42394755D01*
X51214713Y-42466819D01*
X51174547Y-42525819D01*
X51144917Y-42550052D01*
X51082716Y-42580282D01*
X51013354Y-42598108D01*
X50942805Y-42606979D01*
X50862013Y-42609937D01*
X50818593Y-42609224D01*
X50739742Y-42603526D01*
X50671541Y-42592130D01*
X50597174Y-42568071D01*
X50536145Y-42528897D01*
X50515708Y-42506511D01*
X50479689Y-42439966D01*
X50461212Y-42372727D01*
X50452015Y-42304309D01*
X50448950Y-42225938D01*
X50448950Y-42176015D01*
X50448950Y-42171228D01*
X50580255Y-42171228D01*
X50581281Y-42227990D01*
X50583702Y-42291008D01*
X50595563Y-42361961D01*
X50631888Y-42426315D01*
X50655806Y-42440608D01*
X50725321Y-42459132D01*
X50796739Y-42466361D01*
X50873639Y-42468374D01*
X50883719Y-42468313D01*
X50956082Y-42463451D01*
X51025859Y-42446434D01*
X51082223Y-42406140D01*
X51107920Y-42344883D01*
X51119910Y-42276831D01*
X51125772Y-42201053D01*
X51127359Y-42124040D01*
X51127359Y-41773210D01*
X50580255Y-41773210D01*
X50580255Y-42171228D01*
X50448950Y-42171228D01*
X50448950Y-41625150D01*
X51762000Y-41625150D01*
X51762000Y-41773210D01*
G37*
G36*
X50448950Y-42908792D02*
G01*
X51762000Y-42908792D01*
X51762000Y-42774068D01*
X50448950Y-42774068D01*
X50448950Y-42908792D01*
G37*
G36*
X51378545Y-43118287D02*
G01*
X51454205Y-43124097D01*
X51532216Y-43136182D01*
X51605603Y-43157332D01*
X51672069Y-43195680D01*
X51702632Y-43231572D01*
X51733545Y-43298538D01*
X51751373Y-43375051D01*
X51759804Y-43453943D01*
X51762000Y-43529071D01*
X51761945Y-43542578D01*
X51759332Y-43618232D01*
X51751331Y-43694827D01*
X51735655Y-43766976D01*
X51706263Y-43834082D01*
X51698926Y-43844641D01*
X51646874Y-43890537D01*
X51582372Y-43914379D01*
X51510332Y-43921277D01*
X51477505Y-43920251D01*
X51477505Y-43782791D01*
X51507254Y-43782791D01*
X51566319Y-43775963D01*
X51625224Y-43734235D01*
X51643923Y-43669955D01*
X51650869Y-43597353D01*
X51652579Y-43523258D01*
X51652522Y-43512673D01*
X51647981Y-43436741D01*
X51632086Y-43363705D01*
X51594449Y-43305101D01*
X51543091Y-43280577D01*
X51471174Y-43266272D01*
X51398408Y-43260232D01*
X51324316Y-43258597D01*
X51324316Y-43920251D01*
X51254561Y-43920251D01*
X51208524Y-43919556D01*
X51125665Y-43914003D01*
X51055092Y-43902895D01*
X50980105Y-43879445D01*
X50921853Y-43841263D01*
X50895009Y-43805603D01*
X50867857Y-43738872D01*
X50852198Y-43662494D01*
X50844793Y-43583667D01*
X50843190Y-43521207D01*
X50952286Y-43521207D01*
X50954893Y-43595322D01*
X50965485Y-43668011D01*
X50994002Y-43732526D01*
X51034158Y-43760559D01*
X51104138Y-43777870D01*
X51174547Y-43781765D01*
X51214896Y-43782791D01*
X51214896Y-43260648D01*
X51139733Y-43263683D01*
X51066156Y-43276012D01*
X51001183Y-43309204D01*
X50998175Y-43312351D01*
X50967757Y-43373681D01*
X50955342Y-43446664D01*
X50952286Y-43521207D01*
X50843190Y-43521207D01*
X50842865Y-43508555D01*
X50843223Y-43480086D01*
X50848592Y-43401827D01*
X50863001Y-43324078D01*
X50890206Y-43253093D01*
X50934505Y-43196022D01*
X50999790Y-43157509D01*
X51069827Y-43136268D01*
X51143274Y-43124130D01*
X51213937Y-43118295D01*
X51293200Y-43116350D01*
X51378545Y-43118287D01*
G37*
G36*
X51542670Y-44098386D02*
G01*
X51611781Y-44117101D01*
X51677502Y-44162017D01*
X51717925Y-44218162D01*
X51745309Y-44291320D01*
X51757827Y-44362096D01*
X51762000Y-44443761D01*
X51761612Y-44472591D01*
X51755802Y-44551643D01*
X51740211Y-44629771D01*
X51710772Y-44700467D01*
X51662837Y-44756294D01*
X51663863Y-44759030D01*
X51762000Y-44748429D01*
X51762000Y-44883154D01*
X51159843Y-44883154D01*
X51115455Y-44881893D01*
X51037835Y-44871806D01*
X50968291Y-44848400D01*
X50908859Y-44802456D01*
X50893392Y-44779947D01*
X50866130Y-44712227D01*
X50852145Y-44643213D01*
X50845185Y-44572676D01*
X50842865Y-44491632D01*
X50844752Y-44417256D01*
X50851725Y-44342791D01*
X50865985Y-44273917D01*
X50896549Y-44207480D01*
X50903617Y-44198702D01*
X50962794Y-44157926D01*
X51034073Y-44139520D01*
X51105475Y-44134989D01*
X51105475Y-44268688D01*
X51080513Y-44267662D01*
X51057597Y-44269841D01*
X50997491Y-44308576D01*
X50967437Y-44374426D01*
X50955416Y-44444150D01*
X50952286Y-44515568D01*
X50953836Y-44566819D01*
X50964735Y-44641921D01*
X50996396Y-44705003D01*
X51044241Y-44731466D01*
X51114035Y-44744994D01*
X51189592Y-44748429D01*
X51300039Y-44748429D01*
X51301064Y-44745694D01*
X51276240Y-44725885D01*
X51242160Y-44666332D01*
X51225078Y-44598769D01*
X51216999Y-44526064D01*
X51215787Y-44485136D01*
X51324316Y-44485136D01*
X51326475Y-44558439D01*
X51335244Y-44631676D01*
X51358852Y-44699874D01*
X51363424Y-44706582D01*
X51422888Y-44746126D01*
X51493235Y-44755268D01*
X51555323Y-44741638D01*
X51607608Y-44692682D01*
X51637018Y-44620639D01*
X51648688Y-44552489D01*
X51652579Y-44470432D01*
X51651413Y-44420816D01*
X51643218Y-44347213D01*
X51619411Y-44283049D01*
X51617270Y-44280209D01*
X51555552Y-44244506D01*
X51483660Y-44236887D01*
X51414490Y-44244562D01*
X51354407Y-44283391D01*
X51333837Y-44345063D01*
X51326197Y-44414439D01*
X51324316Y-44485136D01*
X51215787Y-44485136D01*
X51214896Y-44455045D01*
X51214955Y-44442430D01*
X51217792Y-44371905D01*
X51226480Y-44300809D01*
X51243502Y-44234301D01*
X51275419Y-44173286D01*
X51292088Y-44155014D01*
X51353798Y-44117327D01*
X51421598Y-44100197D01*
X51494944Y-44095324D01*
X51542670Y-44098386D01*
G37*
G36*
X51083591Y-45839218D02*
G01*
X51083591Y-45704494D01*
X51015365Y-45695928D01*
X50973828Y-45665512D01*
X50957671Y-45595928D01*
X50953043Y-45521355D01*
X50952286Y-45465136D01*
X50954179Y-45389380D01*
X50961636Y-45320372D01*
X50976221Y-45274675D01*
X51036052Y-45239094D01*
X51090429Y-45234326D01*
X51163372Y-45247583D01*
X51217228Y-45298489D01*
X51234044Y-45370076D01*
X51239515Y-45478471D01*
X51246012Y-45616273D01*
X51255452Y-45688282D01*
X51281546Y-45758583D01*
X51332349Y-45818388D01*
X51393345Y-45850609D01*
X51470450Y-45865255D01*
X51499732Y-45866231D01*
X51569060Y-45861059D01*
X51639131Y-45840049D01*
X51694919Y-45798270D01*
X51706263Y-45783482D01*
X51735655Y-45718339D01*
X51751331Y-45646895D01*
X51759332Y-45570287D01*
X51761945Y-45494152D01*
X51762000Y-45480523D01*
X51760208Y-45400717D01*
X51754835Y-45330817D01*
X51744038Y-45261787D01*
X51722992Y-45192844D01*
X51711050Y-45169357D01*
X51660865Y-45117473D01*
X51593826Y-45090949D01*
X51524009Y-45084214D01*
X51477505Y-45085240D01*
X51477505Y-45224752D01*
X51516487Y-45225778D01*
X51584362Y-45237318D01*
X51625224Y-45271939D01*
X51645740Y-45340413D01*
X51651911Y-45413373D01*
X51652579Y-45453510D01*
X51650655Y-45529634D01*
X51643893Y-45598210D01*
X51625531Y-45665365D01*
X51621804Y-45672351D01*
X51565869Y-45714654D01*
X51492893Y-45724668D01*
X51424957Y-45714255D01*
X51368962Y-45667972D01*
X51352493Y-45601121D01*
X51352355Y-45593021D01*
X51351570Y-45519622D01*
X51348379Y-45437099D01*
X51342734Y-45364827D01*
X51332721Y-45291633D01*
X51316571Y-45224898D01*
X51302090Y-45189532D01*
X51254530Y-45134633D01*
X51189134Y-45104499D01*
X51112233Y-45093482D01*
X51092823Y-45093105D01*
X51024029Y-45097871D01*
X50955648Y-45117232D01*
X50899420Y-45160124D01*
X50892788Y-45169357D01*
X50864365Y-45239875D01*
X50851104Y-45313595D01*
X50844620Y-45393598D01*
X50842865Y-45473684D01*
X50846129Y-45559356D01*
X50855923Y-45633605D01*
X50877346Y-45710353D01*
X50916519Y-45778891D01*
X50970383Y-45821727D01*
X51038936Y-45838861D01*
X51051790Y-45839218D01*
X51083591Y-45839218D01*
G37*
G36*
X51378545Y-46028880D02*
G01*
X51454205Y-46034690D01*
X51532216Y-46046775D01*
X51605603Y-46067925D01*
X51672069Y-46106273D01*
X51702632Y-46142165D01*
X51733545Y-46209132D01*
X51751373Y-46285644D01*
X51759804Y-46364536D01*
X51762000Y-46439665D01*
X51761945Y-46453171D01*
X51759332Y-46528825D01*
X51751331Y-46605420D01*
X51735655Y-46677569D01*
X51706263Y-46744675D01*
X51698926Y-46755234D01*
X51646874Y-46801130D01*
X51582372Y-46824972D01*
X51510332Y-46831870D01*
X51477505Y-46830844D01*
X51477505Y-46693384D01*
X51507254Y-46693384D01*
X51566319Y-46686556D01*
X51625224Y-46644829D01*
X51643923Y-46580548D01*
X51650869Y-46507946D01*
X51652579Y-46433852D01*
X51652522Y-46423266D01*
X51647981Y-46347334D01*
X51632086Y-46274298D01*
X51594449Y-46215694D01*
X51543091Y-46191170D01*
X51471174Y-46176865D01*
X51398408Y-46170825D01*
X51324316Y-46169190D01*
X51324316Y-46830844D01*
X51254561Y-46830844D01*
X51208524Y-46830150D01*
X51125665Y-46824596D01*
X51055092Y-46813488D01*
X50980105Y-46790038D01*
X50921853Y-46751856D01*
X50895009Y-46716196D01*
X50867857Y-46649465D01*
X50852198Y-46573088D01*
X50844793Y-46494260D01*
X50843190Y-46431800D01*
X50952286Y-46431800D01*
X50954893Y-46505915D01*
X50965485Y-46578604D01*
X50994002Y-46643119D01*
X51034158Y-46671153D01*
X51104138Y-46688463D01*
X51174547Y-46692358D01*
X51214896Y-46693384D01*
X51214896Y-46171242D01*
X51139733Y-46174276D01*
X51066156Y-46186605D01*
X51001183Y-46219797D01*
X50998175Y-46222944D01*
X50967757Y-46284274D01*
X50955342Y-46357257D01*
X50952286Y-46431800D01*
X50843190Y-46431800D01*
X50842865Y-46419148D01*
X50843223Y-46390679D01*
X50848592Y-46312420D01*
X50863001Y-46234671D01*
X50890206Y-46163686D01*
X50934505Y-46106615D01*
X50999790Y-46068102D01*
X51069827Y-46046861D01*
X51143274Y-46034723D01*
X51213937Y-46028888D01*
X51293200Y-46026943D01*
X51378545Y-46028880D01*
G37*
G36*
X51762000Y-47683300D02*
G01*
X51236780Y-47683300D01*
X51236780Y-48130558D01*
X51236780Y-48179455D01*
X51240327Y-48226098D01*
X51263609Y-48292758D01*
X51316823Y-48345620D01*
X51386667Y-48371468D01*
X51463828Y-48378464D01*
X51762000Y-48378464D01*
X51762000Y-48526524D01*
X51430660Y-48526524D01*
X51348891Y-48519191D01*
X51282845Y-48497192D01*
X51225666Y-48452990D01*
X51189888Y-48388827D01*
X51176256Y-48317941D01*
X51173179Y-48317941D01*
X51159394Y-48378934D01*
X51130042Y-48445353D01*
X51079829Y-48497801D01*
X51042979Y-48516188D01*
X50972000Y-48534621D01*
X50899685Y-48542731D01*
X50825084Y-48544989D01*
X50799580Y-48544651D01*
X50728871Y-48539582D01*
X50657376Y-48525980D01*
X50590175Y-48500297D01*
X50533067Y-48458478D01*
X50522881Y-48447175D01*
X50485176Y-48384214D01*
X50462833Y-48311626D01*
X50451907Y-48235280D01*
X50449017Y-48162016D01*
X50580255Y-48162016D01*
X50583589Y-48230532D01*
X50597133Y-48297785D01*
X50633598Y-48357606D01*
X50648846Y-48368345D01*
X50717544Y-48391971D01*
X50791661Y-48401233D01*
X50862697Y-48403426D01*
X50927516Y-48399579D01*
X50998288Y-48381727D01*
X51054526Y-48341877D01*
X51069203Y-48320013D01*
X51092737Y-48253400D01*
X51103037Y-48179964D01*
X51105475Y-48111067D01*
X51105475Y-47683300D01*
X50580255Y-47683300D01*
X50580255Y-48162016D01*
X50449017Y-48162016D01*
X50448950Y-48160307D01*
X50448950Y-47535240D01*
X51762000Y-47535240D01*
X51762000Y-47683300D01*
G37*
G36*
X51378545Y-48723367D02*
G01*
X51454205Y-48729177D01*
X51532216Y-48741263D01*
X51605603Y-48762412D01*
X51672069Y-48800760D01*
X51702632Y-48836652D01*
X51733545Y-48903619D01*
X51751373Y-48980131D01*
X51759804Y-49059023D01*
X51762000Y-49134152D01*
X51761945Y-49147658D01*
X51759332Y-49223312D01*
X51751331Y-49299907D01*
X51735655Y-49372056D01*
X51706263Y-49439162D01*
X51698926Y-49449721D01*
X51646874Y-49495617D01*
X51582372Y-49519460D01*
X51510332Y-49526357D01*
X51477505Y-49525331D01*
X51477505Y-49387871D01*
X51507254Y-49387871D01*
X51566319Y-49381043D01*
X51625224Y-49339316D01*
X51643923Y-49275035D01*
X51650869Y-49202433D01*
X51652579Y-49128339D01*
X51652522Y-49117753D01*
X51647981Y-49041821D01*
X51632086Y-48968785D01*
X51594449Y-48910181D01*
X51543091Y-48885657D01*
X51471174Y-48871352D01*
X51398408Y-48865312D01*
X51324316Y-48863677D01*
X51324316Y-49525331D01*
X51254561Y-49525331D01*
X51208524Y-49524637D01*
X51125665Y-49519083D01*
X51055092Y-49507975D01*
X50980105Y-49484526D01*
X50921853Y-49446343D01*
X50895009Y-49410684D01*
X50867857Y-49343952D01*
X50852198Y-49267575D01*
X50844793Y-49188747D01*
X50843190Y-49126287D01*
X50952286Y-49126287D01*
X50954893Y-49200403D01*
X50965485Y-49273091D01*
X50994002Y-49337606D01*
X51034158Y-49365640D01*
X51104138Y-49382950D01*
X51174547Y-49386845D01*
X51214896Y-49387871D01*
X51214896Y-48865729D01*
X51139733Y-48868763D01*
X51066156Y-48881092D01*
X51001183Y-48914284D01*
X50998175Y-48917431D01*
X50967757Y-48978761D01*
X50955342Y-49051744D01*
X50952286Y-49126287D01*
X50843190Y-49126287D01*
X50842865Y-49113635D01*
X50843223Y-49085166D01*
X50848592Y-49006907D01*
X50863001Y-48929158D01*
X50890206Y-48858173D01*
X50934505Y-48801102D01*
X50999790Y-48762589D01*
X51069827Y-48741348D01*
X51143274Y-48729211D01*
X51213937Y-48723375D01*
X51293200Y-48721430D01*
X51378545Y-48723367D01*
G37*
G36*
X51433737Y-50365136D02*
G01*
X51433737Y-50499860D01*
X51481267Y-50500544D01*
X51562142Y-50491102D01*
X51629309Y-50462777D01*
X51682769Y-50415568D01*
X51722521Y-50349476D01*
X51744454Y-50283006D01*
X51757613Y-50204450D01*
X51762000Y-50113810D01*
X51759787Y-50040438D01*
X51751292Y-49963213D01*
X51733329Y-49888037D01*
X51702180Y-49821797D01*
X51671385Y-49785889D01*
X51605187Y-49747376D01*
X51532643Y-49726135D01*
X51455799Y-49713998D01*
X51381422Y-49708162D01*
X51297645Y-49706217D01*
X51218989Y-49708196D01*
X51148647Y-49714131D01*
X51075213Y-49726477D01*
X51004673Y-49748083D01*
X50944010Y-49782271D01*
X50937924Y-49787257D01*
X50891973Y-49844638D01*
X50863752Y-49915126D01*
X50848806Y-49991844D01*
X50843236Y-50068776D01*
X50842865Y-50096713D01*
X50845137Y-50175817D01*
X50851953Y-50244896D01*
X50865648Y-50312816D01*
X50892345Y-50380090D01*
X50907491Y-50402749D01*
X50965061Y-50449277D01*
X51032059Y-50472980D01*
X51106645Y-50483196D01*
X51149243Y-50484473D01*
X51149243Y-50349748D01*
X51125649Y-50349748D01*
X51057448Y-50342295D01*
X50996882Y-50309170D01*
X50987163Y-50296748D01*
X50963321Y-50230513D01*
X50954465Y-50158518D01*
X50952286Y-50086113D01*
X50956368Y-50016977D01*
X50972950Y-49949610D01*
X51013578Y-49893685D01*
X51017596Y-49890865D01*
X51081454Y-49866335D01*
X51152006Y-49854891D01*
X51230394Y-49849295D01*
X51309955Y-49847780D01*
X51387384Y-49849523D01*
X51463406Y-49855963D01*
X51531415Y-49869133D01*
X51592055Y-49897362D01*
X51631242Y-49959430D01*
X51646668Y-50027921D01*
X51652342Y-50106332D01*
X51652579Y-50128513D01*
X51650185Y-50198418D01*
X51639077Y-50271577D01*
X51614281Y-50323761D01*
X51549997Y-50354792D01*
X51475651Y-50364125D01*
X51433737Y-50365136D01*
G37*
G36*
X50842865Y-51335561D02*
G01*
X51817394Y-51075003D01*
X51890171Y-51053938D01*
X51963591Y-51028298D01*
X52032353Y-50997593D01*
X52090398Y-50961261D01*
X52100520Y-50952930D01*
X52144517Y-50900301D01*
X52170252Y-50834096D01*
X52177799Y-50762128D01*
X52167540Y-50697843D01*
X52056068Y-50697843D01*
X52068378Y-50745031D01*
X52049828Y-50813202D01*
X51993835Y-50863745D01*
X51922210Y-50896341D01*
X51889201Y-50906769D01*
X51797219Y-50932756D01*
X51762000Y-50941304D01*
X51762000Y-50890013D01*
X50842865Y-50557306D01*
X50842865Y-50700579D01*
X51252509Y-50842142D01*
X51456305Y-50913265D01*
X51559229Y-50947801D01*
X51661127Y-50983363D01*
X51661127Y-50987466D01*
X51559229Y-51012428D01*
X51456305Y-51036364D01*
X51252509Y-51088339D01*
X50842865Y-51192288D01*
X50842865Y-51335561D01*
G37*
G36*
X51433737Y-52076203D02*
G01*
X51433737Y-52210928D01*
X51481267Y-52211612D01*
X51562142Y-52202170D01*
X51629309Y-52173844D01*
X51682769Y-52126636D01*
X51722521Y-52060543D01*
X51744454Y-51994074D01*
X51757613Y-51915518D01*
X51762000Y-51824877D01*
X51759787Y-51751506D01*
X51751292Y-51674281D01*
X51733329Y-51599105D01*
X51702180Y-51532865D01*
X51671385Y-51496957D01*
X51605187Y-51458444D01*
X51532643Y-51437203D01*
X51455799Y-51425065D01*
X51381422Y-51419230D01*
X51297645Y-51417285D01*
X51218989Y-51419263D01*
X51148647Y-51425199D01*
X51075213Y-51437545D01*
X51004673Y-51459150D01*
X50944010Y-51493339D01*
X50937924Y-51498325D01*
X50891973Y-51555705D01*
X50863752Y-51626193D01*
X50848806Y-51702912D01*
X50843236Y-51779844D01*
X50842865Y-51807780D01*
X50845137Y-51886885D01*
X50851953Y-51955963D01*
X50865648Y-52023883D01*
X50892345Y-52091158D01*
X50907491Y-52113817D01*
X50965061Y-52160345D01*
X51032059Y-52184048D01*
X51106645Y-52194263D01*
X51149243Y-52195540D01*
X51149243Y-52060816D01*
X51125649Y-52060816D01*
X51057448Y-52053363D01*
X50996882Y-52020237D01*
X50987163Y-52007815D01*
X50963321Y-51941580D01*
X50954465Y-51869586D01*
X50952286Y-51797180D01*
X50956368Y-51728044D01*
X50972950Y-51660678D01*
X51013578Y-51604753D01*
X51017596Y-51601933D01*
X51081454Y-51577403D01*
X51152006Y-51565959D01*
X51230394Y-51560363D01*
X51309955Y-51558848D01*
X51387384Y-51560591D01*
X51463406Y-51567031D01*
X51531415Y-51580201D01*
X51592055Y-51608429D01*
X51631242Y-51670497D01*
X51646668Y-51738989D01*
X51652342Y-51817400D01*
X51652579Y-51839581D01*
X51650185Y-51909486D01*
X51639077Y-51982645D01*
X51614281Y-52034829D01*
X51549997Y-52065860D01*
X51475651Y-52075193D01*
X51433737Y-52076203D01*
G37*
G36*
X50448950Y-52528248D02*
G01*
X51762000Y-52528248D01*
X51762000Y-52393524D01*
X50448950Y-52393524D01*
X50448950Y-52528248D01*
G37*
G36*
X51378545Y-52737742D02*
G01*
X51454205Y-52743553D01*
X51532216Y-52755638D01*
X51605603Y-52776788D01*
X51672069Y-52815136D01*
X51702632Y-52851027D01*
X51733545Y-52917994D01*
X51751373Y-52994507D01*
X51759804Y-53073399D01*
X51762000Y-53148527D01*
X51761945Y-53162034D01*
X51759332Y-53237688D01*
X51751331Y-53314282D01*
X51735655Y-53386432D01*
X51706263Y-53453538D01*
X51698926Y-53464096D01*
X51646874Y-53509993D01*
X51582372Y-53533835D01*
X51510332Y-53540732D01*
X51477505Y-53539706D01*
X51477505Y-53402247D01*
X51507254Y-53402247D01*
X51566319Y-53395418D01*
X51625224Y-53353691D01*
X51643923Y-53289410D01*
X51650869Y-53216808D01*
X51652579Y-53142714D01*
X51652522Y-53132129D01*
X51647981Y-53056197D01*
X51632086Y-52983160D01*
X51594449Y-52924556D01*
X51543091Y-52900033D01*
X51471174Y-52885727D01*
X51398408Y-52879687D01*
X51324316Y-52878053D01*
X51324316Y-53539706D01*
X51254561Y-53539706D01*
X51208524Y-53539012D01*
X51125665Y-53533458D01*
X51055092Y-53522351D01*
X50980105Y-53498901D01*
X50921853Y-53460718D01*
X50895009Y-53425059D01*
X50867857Y-53358327D01*
X50852198Y-53281950D01*
X50844793Y-53203122D01*
X50843190Y-53140662D01*
X50952286Y-53140662D01*
X50954893Y-53214778D01*
X50965485Y-53287467D01*
X50994002Y-53351981D01*
X51034158Y-53380015D01*
X51104138Y-53397326D01*
X51174547Y-53401221D01*
X51214896Y-53402247D01*
X51214896Y-52880104D01*
X51139733Y-52883139D01*
X51066156Y-52895467D01*
X51001183Y-52928660D01*
X50998175Y-52931807D01*
X50967757Y-52993137D01*
X50955342Y-53066120D01*
X50952286Y-53140662D01*
X50843190Y-53140662D01*
X50842865Y-53128011D01*
X50843223Y-53099541D01*
X50848592Y-53021283D01*
X50863001Y-52943533D01*
X50890206Y-52872549D01*
X50934505Y-52815478D01*
X50999790Y-52776964D01*
X51069827Y-52755724D01*
X51143274Y-52743586D01*
X51213937Y-52737751D01*
X51293200Y-52735806D01*
X51378545Y-52737742D01*
G37*
G36*
X50448950Y-55684696D02*
G01*
X51762000Y-55684696D01*
X51762000Y-55536636D01*
X50711902Y-55536636D01*
X50632914Y-55536636D01*
X50593591Y-55537320D01*
X50553926Y-55538346D01*
X50553926Y-55534584D01*
X50584700Y-55522958D01*
X50614791Y-55511674D01*
X50676340Y-55486371D01*
X51762000Y-55039455D01*
X51762000Y-54891053D01*
X50688650Y-54443112D01*
X50628127Y-54417124D01*
X50597352Y-54405498D01*
X50567603Y-54393872D01*
X50567603Y-54390111D01*
X50603165Y-54391137D01*
X50639752Y-54392163D01*
X50711902Y-54392163D01*
X51762000Y-54392163D01*
X51762000Y-54244103D01*
X50448950Y-54244103D01*
X50448950Y-54500900D01*
X51298671Y-54850704D01*
X51436131Y-54906441D01*
X51504177Y-54934480D01*
X51572565Y-54961493D01*
X51572565Y-54965254D01*
X51504177Y-54992267D01*
X51439983Y-55017881D01*
X51436131Y-55019281D01*
X51299697Y-55075701D01*
X50448950Y-55424138D01*
X50448950Y-55684696D01*
G37*
G36*
X51378545Y-55893164D02*
G01*
X51454205Y-55898975D01*
X51532216Y-55911060D01*
X51605603Y-55932210D01*
X51672069Y-55970558D01*
X51702632Y-56006449D01*
X51733545Y-56073416D01*
X51751373Y-56149929D01*
X51759804Y-56228821D01*
X51762000Y-56303949D01*
X51761945Y-56317456D01*
X51759332Y-56393110D01*
X51751331Y-56469705D01*
X51735655Y-56541854D01*
X51706263Y-56608960D01*
X51698926Y-56619518D01*
X51646874Y-56665415D01*
X51582372Y-56689257D01*
X51510332Y-56696154D01*
X51477505Y-56695129D01*
X51477505Y-56557669D01*
X51507254Y-56557669D01*
X51566319Y-56550841D01*
X51625224Y-56509113D01*
X51643923Y-56444833D01*
X51650869Y-56372230D01*
X51652579Y-56298136D01*
X51652522Y-56287551D01*
X51647981Y-56211619D01*
X51632086Y-56138583D01*
X51594449Y-56079979D01*
X51543091Y-56055455D01*
X51471174Y-56041150D01*
X51398408Y-56035110D01*
X51324316Y-56033475D01*
X51324316Y-56695129D01*
X51254561Y-56695129D01*
X51208524Y-56694434D01*
X51125665Y-56688881D01*
X51055092Y-56677773D01*
X50980105Y-56654323D01*
X50921853Y-56616140D01*
X50895009Y-56580481D01*
X50867857Y-56513749D01*
X50852198Y-56437372D01*
X50844793Y-56358544D01*
X50843190Y-56296085D01*
X50952286Y-56296085D01*
X50954893Y-56370200D01*
X50965485Y-56442889D01*
X50994002Y-56507404D01*
X51034158Y-56535437D01*
X51104138Y-56552748D01*
X51174547Y-56556643D01*
X51214896Y-56557669D01*
X51214896Y-56035526D01*
X51139733Y-56038561D01*
X51066156Y-56050890D01*
X51001183Y-56084082D01*
X50998175Y-56087229D01*
X50967757Y-56148559D01*
X50955342Y-56221542D01*
X50952286Y-56296085D01*
X50843190Y-56296085D01*
X50842865Y-56283433D01*
X50843223Y-56254964D01*
X50848592Y-56176705D01*
X50863001Y-56098956D01*
X50890206Y-56027971D01*
X50934505Y-55970900D01*
X50999790Y-55932386D01*
X51069827Y-55911146D01*
X51143274Y-55899008D01*
X51213937Y-55893173D01*
X51293200Y-55891228D01*
X51378545Y-55893164D01*
G37*
G36*
X51586926Y-57094515D02*
G01*
X51762000Y-57094515D01*
X51762000Y-56946454D01*
X51586926Y-56946454D01*
X51586926Y-57094515D01*
G37*
G36*
X50448950Y-57100327D02*
G01*
X51389969Y-57080837D01*
X51389969Y-56955003D01*
X50448950Y-56938590D01*
X50448950Y-57100327D01*
G37*
G36*
X85767950Y-92059966D02*
G01*
X86949695Y-92059966D01*
X86949695Y-92734955D01*
X87081000Y-92734955D01*
X87081000Y-91911906D01*
X85767950Y-91911906D01*
X85767950Y-92059966D01*
G37*
G36*
X85899255Y-92956190D02*
G01*
X86336938Y-92956190D01*
X86336938Y-93622631D01*
X86468243Y-93622631D01*
X86468243Y-92956190D01*
X86949695Y-92956190D01*
X86949695Y-93651696D01*
X87081000Y-93651696D01*
X87081000Y-92808130D01*
X85767950Y-92808130D01*
X85767950Y-93651696D01*
X85899255Y-93651696D01*
X85899255Y-92956190D01*
G37*
G36*
X85767950Y-94957565D02*
G01*
X87081000Y-94957565D01*
X87081000Y-94714104D01*
X86187852Y-94164264D01*
X86040476Y-94074676D01*
X85967301Y-94030566D01*
X85894126Y-93986113D01*
X85894126Y-93982352D01*
X85943365Y-93983378D01*
X85993288Y-93984404D01*
X86091767Y-93984404D01*
X87081000Y-93984404D01*
X87081000Y-93836344D01*
X85767950Y-93836344D01*
X85767950Y-94078437D01*
X86551334Y-94558521D01*
X86756840Y-94683329D01*
X86858739Y-94745904D01*
X86961662Y-94807453D01*
X86961662Y-94811557D01*
X86912765Y-94810531D01*
X86862842Y-94809505D01*
X86764705Y-94809505D01*
X85767950Y-94809505D01*
X85767950Y-94957565D01*
G37*
G36*
X85767950Y-95348060D02*
G01*
X87081000Y-95348060D01*
X87081000Y-95200000D01*
X85767950Y-95200000D01*
X85767950Y-95348060D01*
G37*
G36*
X85767950Y-97038612D02*
G01*
X87081000Y-97038612D01*
X87081000Y-96890552D01*
X86030902Y-96890552D01*
X85951914Y-96890552D01*
X85912591Y-96891236D01*
X85872926Y-96892261D01*
X85872926Y-96888500D01*
X85903700Y-96876874D01*
X85933791Y-96865590D01*
X85995340Y-96840287D01*
X87081000Y-96393371D01*
X87081000Y-96244969D01*
X86007650Y-95797028D01*
X85947127Y-95771040D01*
X85916352Y-95759414D01*
X85886603Y-95747788D01*
X85886603Y-95744027D01*
X85922165Y-95745053D01*
X85958752Y-95746079D01*
X86030902Y-95746079D01*
X87081000Y-95746079D01*
X87081000Y-95598019D01*
X85767950Y-95598019D01*
X85767950Y-95854816D01*
X86617671Y-96204620D01*
X86755131Y-96260356D01*
X86823177Y-96288395D01*
X86891565Y-96315409D01*
X86891565Y-96319170D01*
X86823177Y-96346183D01*
X86758983Y-96371797D01*
X86755131Y-96373197D01*
X86618697Y-96429617D01*
X85767950Y-96778053D01*
X85767950Y-97038612D01*
G37*
G36*
X87081000Y-97320370D02*
G01*
X86796505Y-97421243D01*
X86796505Y-98085632D01*
X87081000Y-98187530D01*
X87081000Y-98342429D01*
X85767950Y-97852087D01*
X85767950Y-97751215D01*
X85889339Y-97751215D01*
X86687085Y-98042548D01*
X86687085Y-97463643D01*
X85889339Y-97751215D01*
X85767950Y-97751215D01*
X85767950Y-97644187D01*
X87081000Y-97163420D01*
X87081000Y-97320370D01*
G37*
G36*
X85767950Y-98618374D02*
G01*
X86949695Y-98618374D01*
X86949695Y-99293364D01*
X87081000Y-99293364D01*
X87081000Y-98470314D01*
X85767950Y-98470314D01*
X85767950Y-98618374D01*
G37*
G36*
X87081000Y-100057258D02*
G01*
X86577664Y-100057258D01*
X86577664Y-100436127D01*
X86576638Y-100493915D01*
X86576313Y-100522318D01*
X86571445Y-100600601D01*
X86558381Y-100678803D01*
X86533713Y-100750867D01*
X86493547Y-100809868D01*
X86463917Y-100834101D01*
X86401716Y-100864330D01*
X86332354Y-100882156D01*
X86261805Y-100891028D01*
X86181013Y-100893985D01*
X86137593Y-100893273D01*
X86058742Y-100887575D01*
X85990541Y-100876178D01*
X85916174Y-100852120D01*
X85855145Y-100812945D01*
X85834708Y-100790559D01*
X85798689Y-100724015D01*
X85780212Y-100656775D01*
X85771015Y-100588358D01*
X85767950Y-100509986D01*
X85767950Y-100460063D01*
X85767950Y-100455276D01*
X85899255Y-100455276D01*
X85900281Y-100512038D01*
X85902702Y-100575057D01*
X85914563Y-100646009D01*
X85950888Y-100710363D01*
X85974806Y-100724657D01*
X86044321Y-100743181D01*
X86115739Y-100750409D01*
X86192639Y-100752422D01*
X86202719Y-100752361D01*
X86275082Y-100747499D01*
X86344859Y-100730482D01*
X86401223Y-100690189D01*
X86426920Y-100628931D01*
X86438910Y-100560880D01*
X86444772Y-100485101D01*
X86446359Y-100408088D01*
X86446359Y-100057258D01*
X85899255Y-100057258D01*
X85899255Y-100455276D01*
X85767950Y-100455276D01*
X85767950Y-99909198D01*
X87081000Y-99909198D01*
X87081000Y-100057258D01*
G37*
G36*
X86643316Y-101925618D02*
G01*
X86643316Y-102072652D01*
X86693581Y-102072652D01*
X86769631Y-102070423D01*
X86848395Y-102061864D01*
X86923057Y-102043765D01*
X86985664Y-102012381D01*
X87016715Y-101981354D01*
X87044839Y-101918395D01*
X87060659Y-101848454D01*
X87070390Y-101775295D01*
X87075914Y-101707030D01*
X87079430Y-101630109D01*
X87080937Y-101544533D01*
X87081000Y-101521787D01*
X87079199Y-101443050D01*
X87073797Y-101371825D01*
X87061981Y-101293357D01*
X87044539Y-101226627D01*
X87016181Y-101162045D01*
X86972855Y-101108061D01*
X86965766Y-101102227D01*
X86900246Y-101067452D01*
X86820280Y-101044443D01*
X86736856Y-101030063D01*
X86659128Y-101021696D01*
X86571634Y-101016118D01*
X86499605Y-101013765D01*
X86422081Y-101012980D01*
X86342356Y-101013295D01*
X86270388Y-101014241D01*
X86191338Y-101016310D01*
X86112478Y-101020092D01*
X86042536Y-101026298D01*
X86001495Y-101033155D01*
X85934309Y-101061962D01*
X85877801Y-101110592D01*
X85847280Y-101148730D01*
X85816369Y-101209886D01*
X85795917Y-101282022D01*
X85783134Y-101356038D01*
X85775697Y-101424351D01*
X85770739Y-101500754D01*
X85768260Y-101585245D01*
X85767950Y-101630524D01*
X85769787Y-101704949D01*
X85776839Y-101783681D01*
X85791752Y-101860949D01*
X85817611Y-101930021D01*
X85843177Y-101968361D01*
X85903918Y-102014342D01*
X85972274Y-102038866D01*
X86046496Y-102051383D01*
X86120820Y-102055470D01*
X86134168Y-102055555D01*
X86161865Y-102056239D01*
X86161865Y-101909205D01*
X86125277Y-101908179D01*
X86052443Y-101904095D01*
X85985536Y-101888010D01*
X85940288Y-101856546D01*
X85912238Y-101786927D01*
X85902501Y-101716043D01*
X85899415Y-101646774D01*
X85899255Y-101624711D01*
X85900051Y-101549238D01*
X85903285Y-101465747D01*
X85909007Y-101394310D01*
X85919157Y-101324498D01*
X85938263Y-101258418D01*
X85950204Y-101236951D01*
X86006606Y-101197042D01*
X86074475Y-101178422D01*
X86152409Y-101169318D01*
X86232988Y-101166853D01*
X86329065Y-101167268D01*
X86417387Y-101168512D01*
X86497956Y-101170586D01*
X86570772Y-101173489D01*
X86655797Y-101178650D01*
X86727038Y-101185286D01*
X86796705Y-101195654D01*
X86858055Y-101214041D01*
X86906380Y-101265773D01*
X86932154Y-101339183D01*
X86943967Y-101412922D01*
X86948889Y-101486602D01*
X86949695Y-101536148D01*
X86948768Y-101612995D01*
X86945210Y-101692560D01*
X86937685Y-101767944D01*
X86922674Y-101837265D01*
X86911739Y-101862359D01*
X86856537Y-101906771D01*
X86782310Y-101924219D01*
X86720937Y-101927328D01*
X86643316Y-101925618D01*
G37*
G36*
X87081000Y-102877579D02*
G01*
X87080667Y-102902578D01*
X87075678Y-102971869D01*
X87062291Y-103041890D01*
X87037014Y-103107650D01*
X86995856Y-103163441D01*
X86984682Y-103173420D01*
X86922297Y-103210358D01*
X86850223Y-103232248D01*
X86774325Y-103242951D01*
X86699736Y-103245848D01*
X86652669Y-103244015D01*
X86582451Y-103232812D01*
X86511766Y-103205924D01*
X86455890Y-103164370D01*
X86414826Y-103108151D01*
X86388571Y-103037265D01*
X86385494Y-103037265D01*
X86363758Y-103085731D01*
X86320258Y-103139783D01*
X86261508Y-103177734D01*
X86187508Y-103199585D01*
X86111942Y-103205499D01*
X86037469Y-103202879D01*
X85963621Y-103193197D01*
X85896414Y-103173396D01*
X85833944Y-103130956D01*
X85814932Y-103103588D01*
X85788831Y-103033792D01*
X85775748Y-102961255D01*
X85769561Y-102886371D01*
X85767950Y-102815004D01*
X85767950Y-102812268D01*
X85899255Y-102812268D01*
X85901071Y-102876315D01*
X85909967Y-102949191D01*
X85937210Y-103017432D01*
X85965535Y-103040078D01*
X86031758Y-103059703D01*
X86103051Y-103064278D01*
X86162804Y-103061726D01*
X86230738Y-103049223D01*
X86294196Y-103010936D01*
X86308721Y-102986280D01*
X86327546Y-102916912D01*
X86334893Y-102846819D01*
X86336938Y-102771919D01*
X86336938Y-102764055D01*
X86468243Y-102764055D01*
X86469638Y-102845740D01*
X86473821Y-102914610D01*
X86483737Y-102986503D01*
X86507908Y-103051626D01*
X86516471Y-103061098D01*
X86581083Y-103091377D01*
X86651997Y-103102091D01*
X86721963Y-103104627D01*
X86771018Y-103102776D01*
X86843343Y-103089765D01*
X86905242Y-103051968D01*
X86915420Y-103037062D01*
X86937812Y-102970416D01*
X86946591Y-102898847D01*
X86948669Y-102830391D01*
X86949695Y-102696693D01*
X86949695Y-102382450D01*
X86468243Y-102382450D01*
X86468243Y-102764055D01*
X86336938Y-102764055D01*
X86336938Y-102382450D01*
X85899255Y-102382450D01*
X85899255Y-102812268D01*
X85767950Y-102812268D01*
X85767950Y-102234390D01*
X87081000Y-102234390D01*
X87081000Y-102877579D01*
G37*
G36*
X87081000Y-104578388D02*
G01*
X87080860Y-104594863D01*
X87075963Y-104672039D01*
X87060852Y-104753211D01*
X87035667Y-104821904D01*
X86993553Y-104886276D01*
X86937727Y-104933664D01*
X86908369Y-104949552D01*
X86834686Y-104976640D01*
X86758040Y-104994439D01*
X86686745Y-105005552D01*
X86606582Y-105013886D01*
X86517549Y-105019443D01*
X86444954Y-105021787D01*
X86367371Y-105022568D01*
X86345644Y-105022471D01*
X86263173Y-105020122D01*
X86187796Y-105014643D01*
X86103553Y-105003392D01*
X86030397Y-104987248D01*
X85957243Y-104961418D01*
X85892074Y-104922380D01*
X85869892Y-104902060D01*
X85826618Y-104842211D01*
X85798981Y-104777056D01*
X85780071Y-104699109D01*
X85770980Y-104624383D01*
X85767950Y-104540775D01*
X85767950Y-104539065D01*
X85899255Y-104539065D01*
X85899347Y-104552903D01*
X85903755Y-104629166D01*
X85917254Y-104703493D01*
X85943700Y-104769124D01*
X85993288Y-104822192D01*
X86056547Y-104848072D01*
X86125309Y-104862630D01*
X86196569Y-104871584D01*
X86280518Y-104877650D01*
X86356813Y-104880423D01*
X86441230Y-104881347D01*
X86499614Y-104880746D01*
X86571205Y-104878075D01*
X86650641Y-104871730D01*
X86718907Y-104862046D01*
X86786083Y-104846018D01*
X86856687Y-104812959D01*
X86883481Y-104787506D01*
X86920266Y-104721115D01*
X86938704Y-104651189D01*
X86947424Y-104578516D01*
X86949695Y-104508975D01*
X86949695Y-104081208D01*
X85899255Y-104081208D01*
X85899255Y-104539065D01*
X85767950Y-104539065D01*
X85767950Y-103933148D01*
X87081000Y-103933148D01*
X87081000Y-104578388D01*
G37*
G36*
X85899255Y-105308430D02*
G01*
X86336938Y-105308430D01*
X86336938Y-105974871D01*
X86468243Y-105974871D01*
X86468243Y-105308430D01*
X86949695Y-105308430D01*
X86949695Y-106003936D01*
X87081000Y-106003936D01*
X87081000Y-105160370D01*
X85767950Y-105160370D01*
X85767950Y-106003936D01*
X85899255Y-106003936D01*
X85899255Y-105308430D01*
G37*
G36*
X86118096Y-107088570D02*
G01*
X86118096Y-106941536D01*
X86046305Y-106937343D01*
X85976165Y-106918710D01*
X85937552Y-106888535D01*
X85912756Y-106822048D01*
X85902995Y-106748249D01*
X85899592Y-106675142D01*
X85899255Y-106639603D01*
X85900232Y-106570874D01*
X85903982Y-106499067D01*
X85911913Y-106429999D01*
X85929885Y-106358806D01*
X85939262Y-106339379D01*
X85992687Y-106293331D01*
X86060928Y-106275241D01*
X86116387Y-106272017D01*
X86185972Y-106275308D01*
X86257084Y-106290581D01*
X86304454Y-106324676D01*
X86326605Y-106393759D01*
X86338060Y-106472405D01*
X86344912Y-106548500D01*
X86349484Y-106623115D01*
X86350274Y-106639261D01*
X86354302Y-106712447D01*
X86361532Y-106794101D01*
X86371199Y-106864837D01*
X86386017Y-106935306D01*
X86411235Y-107004805D01*
X86426184Y-107029072D01*
X86480454Y-107073070D01*
X86545700Y-107096536D01*
X86618709Y-107108513D01*
X86693113Y-107112424D01*
X86706575Y-107112506D01*
X86776240Y-107110168D01*
X86849106Y-107101192D01*
X86919317Y-107082212D01*
X86980043Y-107049300D01*
X87011928Y-107016762D01*
X87042147Y-106954444D01*
X87061506Y-106876213D01*
X87071286Y-106806790D01*
X87077694Y-106726080D01*
X87080392Y-106653386D01*
X87081000Y-106594125D01*
X87079280Y-106510076D01*
X87074121Y-106435310D01*
X87063390Y-106357844D01*
X87044610Y-106284363D01*
X87014894Y-106222664D01*
X87010560Y-106216623D01*
X86952296Y-106167215D01*
X86885490Y-106140865D01*
X86812308Y-106127415D01*
X86738641Y-106123023D01*
X86725382Y-106122931D01*
X86665200Y-106122247D01*
X86665200Y-106269282D01*
X86696659Y-106269282D01*
X86773745Y-106272637D01*
X86841206Y-106284433D01*
X86902644Y-106316465D01*
X86908320Y-106322966D01*
X86933533Y-106387144D01*
X86943876Y-106456216D01*
X86948684Y-106533904D01*
X86949695Y-106599254D01*
X86948684Y-106674070D01*
X86944806Y-106751199D01*
X86936603Y-106823740D01*
X86918017Y-106894786D01*
X86908320Y-106912471D01*
X86851513Y-106950550D01*
X86776634Y-106966632D01*
X86708085Y-106971055D01*
X86686059Y-106971284D01*
X86614913Y-106966557D01*
X86547719Y-106944874D01*
X86530476Y-106931277D01*
X86499616Y-106869728D01*
X86487425Y-106802024D01*
X86484314Y-106764411D01*
X86476792Y-106610538D01*
X86469269Y-106464529D01*
X86459064Y-106386311D01*
X86439734Y-106318521D01*
X86402738Y-106248450D01*
X86351484Y-106194675D01*
X86285971Y-106157195D01*
X86206199Y-106136011D01*
X86132116Y-106130796D01*
X86055416Y-106134210D01*
X85978847Y-106146823D01*
X85908370Y-106172618D01*
X85850797Y-106216147D01*
X85841125Y-106227907D01*
X85809111Y-106288537D01*
X85788602Y-106361399D01*
X85776597Y-106438568D01*
X85770523Y-106513252D01*
X85768021Y-106597369D01*
X85767950Y-106615325D01*
X85768986Y-106685722D01*
X85773197Y-106764702D01*
X85780647Y-106833664D01*
X85793863Y-106903196D01*
X85818739Y-106973464D01*
X85834286Y-106998982D01*
X85890359Y-107046225D01*
X85956567Y-107071422D01*
X86030067Y-107084283D01*
X86104631Y-107088482D01*
X86118096Y-107088570D01*
G37*
G36*
X85767950Y-107432220D02*
G01*
X87081000Y-107432220D01*
X87081000Y-107284160D01*
X85767950Y-107284160D01*
X85767950Y-107432220D01*
G37*
G36*
X86424475Y-108150294D02*
G01*
X86424475Y-108713127D01*
X86493898Y-108716168D01*
X86565696Y-108716888D01*
X86648900Y-108715526D01*
X86723779Y-108711438D01*
X86805673Y-108702498D01*
X86874560Y-108689299D01*
X86940056Y-108667841D01*
X86998250Y-108629693D01*
X87034453Y-108568743D01*
X87054817Y-108500029D01*
X87067343Y-108427707D01*
X87075828Y-108341694D01*
X87079707Y-108263027D01*
X87081000Y-108175597D01*
X87079477Y-108092623D01*
X87074909Y-108017407D01*
X87064916Y-107934296D01*
X87050165Y-107863307D01*
X87026182Y-107794120D01*
X86989542Y-107735464D01*
X86983547Y-107729023D01*
X86919497Y-107685789D01*
X86851572Y-107661470D01*
X86781947Y-107646512D01*
X86700484Y-107636379D01*
X86626791Y-107631747D01*
X86545521Y-107630203D01*
X86356087Y-107629177D01*
X86242221Y-107630203D01*
X86173753Y-107631923D01*
X86096597Y-107638912D01*
X86028809Y-107651278D01*
X85959826Y-107673212D01*
X85896394Y-107708588D01*
X85862325Y-107740307D01*
X85825552Y-107799179D01*
X85801221Y-107866675D01*
X85786014Y-107934933D01*
X85775415Y-108014110D01*
X85770254Y-108085314D01*
X85768042Y-108163506D01*
X85767950Y-108184146D01*
X85768874Y-108264122D01*
X85771647Y-108336672D01*
X85777713Y-108416916D01*
X85786667Y-108485556D01*
X85801225Y-108552607D01*
X85827106Y-108616016D01*
X85878123Y-108667227D01*
X85948420Y-108697100D01*
X86019066Y-108709713D01*
X86090741Y-108713127D01*
X86139981Y-108713127D01*
X86139981Y-108567802D01*
X86110916Y-108567802D01*
X86038815Y-108562582D01*
X85969692Y-108539381D01*
X85933449Y-108501808D01*
X85913981Y-108431580D01*
X85905800Y-108360762D01*
X85901392Y-108283885D01*
X85899555Y-108208416D01*
X85899255Y-108158158D01*
X85900666Y-108082601D01*
X85906083Y-108004318D01*
X85917539Y-107930065D01*
X85940395Y-107861622D01*
X85957043Y-107836735D01*
X86017022Y-107800135D01*
X86086377Y-107783059D01*
X86164839Y-107774710D01*
X86245298Y-107772450D01*
X86414900Y-107770398D01*
X86597496Y-107771424D01*
X86668494Y-107773169D01*
X86741680Y-107779869D01*
X86810502Y-107794036D01*
X86872782Y-107822301D01*
X86894642Y-107842889D01*
X86923674Y-107911077D01*
X86937598Y-107986545D01*
X86945340Y-108069412D01*
X86948834Y-108151287D01*
X86949695Y-108225178D01*
X86948451Y-108295011D01*
X86943674Y-108367107D01*
X86933574Y-108435083D01*
X86910687Y-108502048D01*
X86898745Y-108518905D01*
X86837357Y-108553286D01*
X86760895Y-108568658D01*
X86683398Y-108574443D01*
X86632032Y-108575325D01*
X86563010Y-108568713D01*
X86555780Y-108567802D01*
X86555780Y-108150294D01*
X86424475Y-108150294D01*
G37*
G36*
X85767950Y-110016602D02*
G01*
X87081000Y-110016602D01*
X87081000Y-109773141D01*
X86187852Y-109223301D01*
X86040476Y-109133713D01*
X85967301Y-109089603D01*
X85894126Y-109045150D01*
X85894126Y-109041389D01*
X85943365Y-109042415D01*
X85993288Y-109043441D01*
X86091767Y-109043441D01*
X87081000Y-109043441D01*
X87081000Y-108895381D01*
X85767950Y-108895381D01*
X85767950Y-109137474D01*
X86551334Y-109617558D01*
X86756840Y-109742366D01*
X86858739Y-109804941D01*
X86961662Y-109866490D01*
X86961662Y-109870594D01*
X86912765Y-109869568D01*
X86862842Y-109868542D01*
X86764705Y-109868542D01*
X85767950Y-109868542D01*
X85767950Y-110016602D01*
G37*
G36*
X86437551Y-110713412D02*
G01*
X86521142Y-110714870D01*
X86597796Y-110717579D01*
X86667513Y-110721538D01*
X86749680Y-110728761D01*
X86819516Y-110738208D01*
X86889470Y-110753141D01*
X86961321Y-110784257D01*
X86968684Y-110790218D01*
X87013680Y-110846191D01*
X87043132Y-110914015D01*
X87061248Y-110984531D01*
X87073520Y-111067768D01*
X87079130Y-111143519D01*
X87081000Y-111227411D01*
X87080883Y-111249169D01*
X87078078Y-111331104D01*
X87071533Y-111404885D01*
X87058092Y-111485647D01*
X87038808Y-111553669D01*
X87007953Y-111618480D01*
X86961321Y-111670908D01*
X86903358Y-111698621D01*
X86827135Y-111716957D01*
X86744901Y-111728418D01*
X86666863Y-111735085D01*
X86577938Y-111739531D01*
X86504098Y-111741406D01*
X86424133Y-111742031D01*
X86395450Y-111741958D01*
X86313724Y-111740856D01*
X86238483Y-111738431D01*
X86169728Y-111734685D01*
X86088143Y-111727632D01*
X86002376Y-111715511D01*
X85934624Y-111699716D01*
X85863693Y-111666804D01*
X85857803Y-111661841D01*
X85817411Y-111601772D01*
X85794971Y-111532962D01*
X85781414Y-111460064D01*
X85773934Y-111391564D01*
X85769446Y-111314013D01*
X85767950Y-111227411D01*
X85899255Y-111227411D01*
X85899859Y-111277214D01*
X85903551Y-111351322D01*
X85912410Y-111425574D01*
X85928854Y-111491963D01*
X85967985Y-111552254D01*
X85972571Y-111555242D01*
X86041916Y-111577860D01*
X86116216Y-111588671D01*
X86195286Y-111595072D01*
X86269770Y-111598486D01*
X86354235Y-111600383D01*
X86424133Y-111600810D01*
X86494156Y-111600383D01*
X86578778Y-111598486D01*
X86653409Y-111595072D01*
X86732648Y-111588671D01*
X86807128Y-111577860D01*
X86881307Y-111552254D01*
X86911226Y-111513743D01*
X86932598Y-111446766D01*
X86943016Y-111377852D01*
X86948025Y-111308191D01*
X86949695Y-111227411D01*
X86949427Y-111193807D01*
X86946422Y-111117566D01*
X86938408Y-111040734D01*
X86920242Y-110963162D01*
X86881307Y-110902910D01*
X86876699Y-110899923D01*
X86807128Y-110877305D01*
X86732648Y-110866494D01*
X86653409Y-110860092D01*
X86578778Y-110856678D01*
X86494156Y-110854782D01*
X86424133Y-110854355D01*
X86354235Y-110854782D01*
X86269770Y-110856678D01*
X86195286Y-110860092D01*
X86116216Y-110866494D01*
X86041916Y-110877305D01*
X85967985Y-110902910D01*
X85937915Y-110941400D01*
X85916437Y-111008313D01*
X85905967Y-111077152D01*
X85900933Y-111146730D01*
X85899255Y-111227411D01*
X85767950Y-111227411D01*
X85769409Y-111142589D01*
X85773784Y-111066443D01*
X85783356Y-110983463D01*
X85797486Y-110914039D01*
X85820459Y-110848627D01*
X85861300Y-110791780D01*
X85917930Y-110761136D01*
X85991604Y-110740860D01*
X86070723Y-110728187D01*
X86145619Y-110720814D01*
X86230826Y-110715899D01*
X86301498Y-110713825D01*
X86377971Y-110713134D01*
X86437551Y-110713412D01*
G37*
G36*
X86843565Y-111923142D02*
G01*
X86911953Y-111935879D01*
X86978685Y-111969712D01*
X87024579Y-112023448D01*
X87040833Y-112059924D01*
X87058960Y-112126559D01*
X87070200Y-112198130D01*
X87076537Y-112267965D01*
X87080118Y-112347067D01*
X87081000Y-112417021D01*
X87080924Y-112435332D01*
X87078283Y-112520997D01*
X87071868Y-112596845D01*
X87059189Y-112674904D01*
X87037530Y-112748104D01*
X87003721Y-112808200D01*
X86968891Y-112840622D01*
X86904649Y-112873416D01*
X86831748Y-112892328D01*
X86756863Y-112901272D01*
X86685717Y-112903601D01*
X86548599Y-112906337D01*
X86191956Y-112902575D01*
X86130230Y-112901058D01*
X86047880Y-112893092D01*
X85977816Y-112878298D01*
X85911602Y-112852408D01*
X85851041Y-112805465D01*
X85827104Y-112770159D01*
X85800408Y-112704069D01*
X85783854Y-112631949D01*
X85774523Y-112560939D01*
X85769248Y-112480012D01*
X85767950Y-112408130D01*
X85768008Y-112394795D01*
X85899255Y-112394795D01*
X85899303Y-112409871D01*
X85900998Y-112479761D01*
X85906227Y-112551553D01*
X85918623Y-112626779D01*
X85948836Y-112695702D01*
X85995719Y-112725635D01*
X86065094Y-112743096D01*
X86136855Y-112750468D01*
X86210762Y-112752464D01*
X86282591Y-112748617D01*
X86351280Y-112732989D01*
X86408062Y-112690915D01*
X86419095Y-112666964D01*
X86434241Y-112600080D01*
X86441834Y-112526929D01*
X86445424Y-112449511D01*
X86446359Y-112374620D01*
X86445941Y-112339087D01*
X86441717Y-112266041D01*
X86429603Y-112192416D01*
X86398829Y-112126372D01*
X86384810Y-112114190D01*
X86318131Y-112087391D01*
X86243888Y-112076884D01*
X86171781Y-112074397D01*
X86149495Y-112074603D01*
X86079971Y-112078562D01*
X86009962Y-112091058D01*
X85944391Y-112127056D01*
X85920589Y-112175976D01*
X85906704Y-112247013D01*
X85900842Y-112319954D01*
X85899255Y-112394795D01*
X85768008Y-112394795D01*
X85768029Y-112390054D01*
X85769937Y-112321677D01*
X85775897Y-112245041D01*
X85788295Y-112166037D01*
X85809992Y-112091733D01*
X85849332Y-112024474D01*
X85909336Y-111980340D01*
X85975678Y-111956000D01*
X86046244Y-111942091D01*
X86114708Y-111935405D01*
X86191956Y-111933176D01*
X86219841Y-111933514D01*
X86296525Y-111938583D01*
X86372771Y-111952184D01*
X86442479Y-111977867D01*
X86498676Y-112019686D01*
X86525519Y-112057874D01*
X86552672Y-112126668D01*
X86568330Y-112203623D01*
X86575735Y-112282034D01*
X86577664Y-112356155D01*
X86577198Y-112394881D01*
X86573468Y-112466699D01*
X86563562Y-112545908D01*
X86543984Y-112625465D01*
X86510537Y-112696920D01*
X86458327Y-112750412D01*
X86458327Y-112753490D01*
X86657678Y-112753490D01*
X86694309Y-112753006D01*
X86768982Y-112748113D01*
X86842775Y-112734082D01*
X86905242Y-112698437D01*
X86915661Y-112681741D01*
X86935630Y-112613587D01*
X86944442Y-112543427D01*
X86948609Y-112468574D01*
X86949695Y-112395820D01*
X86949256Y-112343947D01*
X86946381Y-112265176D01*
X86939810Y-112193866D01*
X86921655Y-112120559D01*
X86915704Y-112110292D01*
X86855752Y-112071191D01*
X86786589Y-112063113D01*
X86752737Y-112063797D01*
X86752737Y-111924627D01*
X86804370Y-111921550D01*
X86843565Y-111923142D01*
G37*
G36*
X86905926Y-113293071D02*
G01*
X87081000Y-113293071D01*
X87081000Y-113145011D01*
X86905926Y-113145011D01*
X86905926Y-113293071D01*
G37*
G36*
X86949695Y-114461822D02*
G01*
X87081000Y-114461822D01*
X87081000Y-113516358D01*
X86826938Y-113516358D01*
X86756060Y-113519195D01*
X86685768Y-113529676D01*
X86615010Y-113554500D01*
X86562277Y-113597056D01*
X86529350Y-113660195D01*
X86506882Y-113733575D01*
X86489812Y-113813377D01*
X86477129Y-113891797D01*
X86467993Y-113962336D01*
X86465849Y-113981054D01*
X86457269Y-114052124D01*
X86445761Y-114125021D01*
X86430663Y-114192990D01*
X86405973Y-114258186D01*
X86395068Y-114273755D01*
X86334862Y-114306521D01*
X86265610Y-114319420D01*
X86196152Y-114323917D01*
X86162207Y-114324362D01*
X86087044Y-114320836D01*
X86013467Y-114306510D01*
X85951664Y-114271413D01*
X85948494Y-114267942D01*
X85916614Y-114200369D01*
X85904063Y-114127803D01*
X85899688Y-114056776D01*
X85899255Y-114022429D01*
X85900165Y-113952742D01*
X85903659Y-113880358D01*
X85911048Y-113811407D01*
X85927791Y-113741856D01*
X85936526Y-113723573D01*
X85994534Y-113679150D01*
X86066393Y-113663858D01*
X86116045Y-113661682D01*
X86205633Y-113663734D01*
X86205633Y-113518409D01*
X86140665Y-113519435D01*
X86062045Y-113522933D01*
X85993908Y-113533428D01*
X85927664Y-113554514D01*
X85863458Y-113595618D01*
X85842493Y-113618940D01*
X85809880Y-113681173D01*
X85788988Y-113756103D01*
X85776758Y-113835540D01*
X85770571Y-113912463D01*
X85768241Y-113981022D01*
X85767950Y-114017642D01*
X85769987Y-114096313D01*
X85776098Y-114166486D01*
X85788808Y-114239475D01*
X85811052Y-114309163D01*
X85846250Y-114368409D01*
X85851383Y-114374285D01*
X85910618Y-114418418D01*
X85984253Y-114445523D01*
X86052438Y-114458361D01*
X86131731Y-114464781D01*
X86175542Y-114465583D01*
X86244136Y-114463504D01*
X86316552Y-114455522D01*
X86387394Y-114438643D01*
X86450365Y-114409375D01*
X86484998Y-114380440D01*
X86524849Y-114316778D01*
X86550309Y-114245459D01*
X86568277Y-114169144D01*
X86580532Y-114094840D01*
X86590316Y-114010803D01*
X86598477Y-113937518D01*
X86609504Y-113862601D01*
X86624072Y-113793157D01*
X86648061Y-113727500D01*
X86658704Y-113712289D01*
X86720342Y-113681294D01*
X86793891Y-113669093D01*
X86868562Y-113664838D01*
X86905242Y-113664418D01*
X86949695Y-113664418D01*
X86949695Y-114461822D01*
G37*
G36*
X86437551Y-114700432D02*
G01*
X86521142Y-114701890D01*
X86597796Y-114704599D01*
X86667513Y-114708558D01*
X86749680Y-114715782D01*
X86819516Y-114725228D01*
X86889470Y-114740161D01*
X86961321Y-114771277D01*
X86968684Y-114777238D01*
X87013680Y-114833211D01*
X87043132Y-114901036D01*
X87061248Y-114971551D01*
X87073520Y-115054788D01*
X87079130Y-115130539D01*
X87081000Y-115214432D01*
X87080883Y-115236189D01*
X87078078Y-115318124D01*
X87071533Y-115391906D01*
X87058092Y-115472667D01*
X87038808Y-115540690D01*
X87007953Y-115605501D01*
X86961321Y-115657928D01*
X86903358Y-115685641D01*
X86827135Y-115703978D01*
X86744901Y-115715438D01*
X86666863Y-115722106D01*
X86577938Y-115726551D01*
X86504098Y-115728426D01*
X86424133Y-115729051D01*
X86395450Y-115728978D01*
X86313724Y-115727876D01*
X86238483Y-115725452D01*
X86169728Y-115721705D01*
X86088143Y-115714653D01*
X86002376Y-115702531D01*
X85934624Y-115686736D01*
X85863693Y-115653825D01*
X85857803Y-115648861D01*
X85817411Y-115588792D01*
X85794971Y-115519982D01*
X85781414Y-115447084D01*
X85773934Y-115378584D01*
X85769446Y-115301033D01*
X85767950Y-115214432D01*
X85899255Y-115214432D01*
X85899859Y-115264234D01*
X85903551Y-115338342D01*
X85912410Y-115412594D01*
X85928854Y-115478983D01*
X85967985Y-115539275D01*
X85972571Y-115542262D01*
X86041916Y-115564880D01*
X86116216Y-115575691D01*
X86195286Y-115582093D01*
X86269770Y-115585507D01*
X86354235Y-115587403D01*
X86424133Y-115587830D01*
X86494156Y-115587403D01*
X86578778Y-115585507D01*
X86653409Y-115582093D01*
X86732648Y-115575691D01*
X86807128Y-115564880D01*
X86881307Y-115539275D01*
X86911226Y-115500764D01*
X86932598Y-115433786D01*
X86943016Y-115364872D01*
X86948025Y-115295212D01*
X86949695Y-115214432D01*
X86949427Y-115180827D01*
X86946422Y-115104586D01*
X86938408Y-115027754D01*
X86920242Y-114950182D01*
X86881307Y-114889931D01*
X86876699Y-114886943D01*
X86807128Y-114864325D01*
X86732648Y-114853514D01*
X86653409Y-114847113D01*
X86578778Y-114843699D01*
X86494156Y-114841802D01*
X86424133Y-114841375D01*
X86354235Y-114841802D01*
X86269770Y-114843699D01*
X86195286Y-114847113D01*
X86116216Y-114853514D01*
X86041916Y-114864325D01*
X85967985Y-114889931D01*
X85937915Y-114928420D01*
X85916437Y-114995334D01*
X85905967Y-115064172D01*
X85900933Y-115133750D01*
X85899255Y-115214432D01*
X85767950Y-115214432D01*
X85769409Y-115129609D01*
X85773784Y-115053463D01*
X85783356Y-114970483D01*
X85797486Y-114901060D01*
X85820459Y-114835648D01*
X85861300Y-114778800D01*
X85917930Y-114748156D01*
X85991604Y-114727880D01*
X86070723Y-114715207D01*
X86145619Y-114707834D01*
X86230826Y-114702919D01*
X86301498Y-114700845D01*
X86377971Y-114700154D01*
X86437551Y-114700432D01*
G37*
G36*
X86949695Y-116863608D02*
G01*
X87081000Y-116863608D01*
X87081000Y-115918144D01*
X86826938Y-115918144D01*
X86756060Y-115920981D01*
X86685768Y-115931462D01*
X86615010Y-115956287D01*
X86562277Y-115998842D01*
X86529350Y-116061981D01*
X86506882Y-116135362D01*
X86489812Y-116215163D01*
X86477129Y-116293584D01*
X86467993Y-116364122D01*
X86465849Y-116382841D01*
X86457269Y-116453910D01*
X86445761Y-116526807D01*
X86430663Y-116594777D01*
X86405973Y-116659972D01*
X86395068Y-116675541D01*
X86334862Y-116708307D01*
X86265610Y-116721206D01*
X86196152Y-116725704D01*
X86162207Y-116726148D01*
X86087044Y-116722622D01*
X86013467Y-116708297D01*
X85951664Y-116673199D01*
X85948494Y-116669728D01*
X85916614Y-116602156D01*
X85904063Y-116529589D01*
X85899688Y-116458562D01*
X85899255Y-116424215D01*
X85900165Y-116354528D01*
X85903659Y-116282144D01*
X85911048Y-116213193D01*
X85927791Y-116143643D01*
X85936526Y-116125360D01*
X85994534Y-116080936D01*
X86066393Y-116065645D01*
X86116045Y-116063469D01*
X86205633Y-116065520D01*
X86205633Y-115920196D01*
X86140665Y-115921222D01*
X86062045Y-115924720D01*
X85993908Y-115935214D01*
X85927664Y-115956301D01*
X85863458Y-115997405D01*
X85842493Y-116020726D01*
X85809880Y-116082959D01*
X85788988Y-116157890D01*
X85776758Y-116237326D01*
X85770571Y-116314250D01*
X85768241Y-116382809D01*
X85767950Y-116419428D01*
X85769987Y-116498099D01*
X85776098Y-116568272D01*
X85788808Y-116641262D01*
X85811052Y-116710949D01*
X85846250Y-116770196D01*
X85851383Y-116776072D01*
X85910618Y-116820205D01*
X85984253Y-116847309D01*
X86052438Y-116860148D01*
X86131731Y-116866567D01*
X86175542Y-116867370D01*
X86244136Y-116865291D01*
X86316552Y-116857309D01*
X86387394Y-116840430D01*
X86450365Y-116811162D01*
X86484998Y-116782227D01*
X86524849Y-116718565D01*
X86550309Y-116647246D01*
X86568277Y-116570930D01*
X86580532Y-116496627D01*
X86590316Y-116412589D01*
X86598477Y-116339304D01*
X86609504Y-116264387D01*
X86624072Y-116194943D01*
X86648061Y-116129287D01*
X86658704Y-116114076D01*
X86720342Y-116083081D01*
X86793891Y-116070879D01*
X86868562Y-116066625D01*
X86905242Y-116066204D01*
X86949695Y-116066204D01*
X86949695Y-116863608D01*
G37*
G36*
X86774621Y-117799156D02*
G01*
X87081000Y-117799156D01*
X87081000Y-117947216D01*
X86774621Y-117947216D01*
X86774621Y-118143490D01*
X86643316Y-118143490D01*
X86643316Y-117947216D01*
X85767950Y-117947216D01*
X85767950Y-117796079D01*
X85863009Y-117796079D01*
X85863009Y-117799156D01*
X86643316Y-117799156D01*
X86643316Y-117186400D01*
X85863009Y-117796079D01*
X85767950Y-117796079D01*
X85767950Y-117718116D01*
X86595445Y-117064327D01*
X86774621Y-117064327D01*
X86774621Y-117799156D01*
G37*
D11*
X59856184Y-55510526D02*
X55177237Y-55510526D01*
X55177237Y-54357500D01*
X59856184Y-54357500D01*
X59856184Y-55510526D01*
G36*
X59856184Y-55510526D02*
G01*
X55177237Y-55510526D01*
X55177237Y-54357500D01*
X59856184Y-54357500D01*
X59856184Y-55510526D01*
G37*
X58485938Y-48145362D02*
X58486595Y-48162572D01*
X58495141Y-48191467D01*
X58519466Y-48215972D01*
X58566918Y-48245143D01*
X58608573Y-48271793D01*
X58671989Y-48322960D01*
X58729460Y-48380400D01*
X58773422Y-48436279D01*
X58796311Y-48482762D01*
X58801919Y-48500674D01*
X58812309Y-48512970D01*
X58815812Y-48517116D01*
X58844445Y-48524083D01*
X58897141Y-48525526D01*
X58987237Y-48525526D01*
X58987237Y-48675921D01*
X58775228Y-48675921D01*
X58755433Y-48912183D01*
X58752775Y-48944483D01*
X58746583Y-49025340D01*
X58742208Y-49091135D01*
X58740030Y-49135791D01*
X58740426Y-49153233D01*
X58746185Y-49148219D01*
X58772462Y-49122083D01*
X58817888Y-49075758D01*
X58880166Y-49011647D01*
X58956997Y-48932150D01*
X59046080Y-48839669D01*
X59145119Y-48736606D01*
X59251814Y-48625362D01*
X59363865Y-48508338D01*
X59478975Y-48387936D01*
X59594844Y-48266558D01*
X59709174Y-48146604D01*
X59819666Y-48030476D01*
X59924021Y-47920575D01*
X60019940Y-47819304D01*
X60105124Y-47729063D01*
X60177275Y-47652253D01*
X60306194Y-47514539D01*
X60306781Y-47631852D01*
X60307368Y-47749164D01*
X59509286Y-48588485D01*
X58711204Y-49427807D01*
X58695250Y-49619106D01*
X58631419Y-50384528D01*
X58620138Y-50520287D01*
X58606140Y-50690154D01*
X58593220Y-50848505D01*
X58581627Y-50992228D01*
X58571607Y-51118210D01*
X58563407Y-51223338D01*
X58557274Y-51304501D01*
X58553456Y-51358586D01*
X58552199Y-51382480D01*
X58555517Y-51393429D01*
X58570429Y-51417071D01*
X58598709Y-51452703D01*
X58612358Y-51468277D01*
X58641864Y-51501948D01*
X58701399Y-51566428D01*
X58778820Y-51647768D01*
X58875632Y-51747591D01*
X58993342Y-51867520D01*
X59133454Y-52009179D01*
X59225628Y-52102136D01*
X59354119Y-52231795D01*
X59482159Y-52361079D01*
X59605900Y-52486097D01*
X59721492Y-52602959D01*
X59825085Y-52707774D01*
X59912831Y-52796652D01*
X59980881Y-52865702D01*
X60247617Y-53136757D01*
X60199169Y-53187326D01*
X60187743Y-53198719D01*
X60154035Y-53226697D01*
X60130910Y-53237895D01*
X60112805Y-53228335D01*
X60079145Y-53199649D01*
X60038792Y-53158520D01*
X60014230Y-53132542D01*
X59968423Y-53085104D01*
X59903683Y-53018566D01*
X59822295Y-52935263D01*
X59726545Y-52837528D01*
X59618721Y-52727695D01*
X59501108Y-52608096D01*
X59375992Y-52481066D01*
X59245659Y-52348938D01*
X58524831Y-51618732D01*
X58495469Y-51998017D01*
X58489068Y-52078972D01*
X58479721Y-52187793D01*
X58471290Y-52270217D01*
X58463151Y-52330575D01*
X58454679Y-52373200D01*
X58445250Y-52402424D01*
X58434237Y-52422580D01*
X58418825Y-52450750D01*
X58406143Y-52502539D01*
X58402368Y-52577152D01*
X58402368Y-52686447D01*
X58101579Y-52686447D01*
X58101579Y-52452500D01*
X56977832Y-52452500D01*
X56912875Y-52526295D01*
X56895110Y-52545511D01*
X56798831Y-52622712D01*
X56690049Y-52670239D01*
X56572262Y-52686447D01*
X56468327Y-52677854D01*
X56350770Y-52641628D01*
X56250134Y-52576882D01*
X56230520Y-52558378D01*
X56181503Y-52498475D01*
X56138497Y-52428693D01*
X56107658Y-52359909D01*
X56095141Y-52303002D01*
X56094899Y-52294741D01*
X56093099Y-52264471D01*
X56088392Y-52243563D01*
X56078544Y-52233669D01*
X56061323Y-52236444D01*
X56034494Y-52253540D01*
X55995824Y-52286610D01*
X55943080Y-52337307D01*
X55874028Y-52407285D01*
X55786434Y-52498197D01*
X55678065Y-52611695D01*
X55620342Y-52672280D01*
X55523855Y-52773718D01*
X55432568Y-52869889D01*
X55350059Y-52957013D01*
X55279906Y-53031311D01*
X55225685Y-53089003D01*
X55190974Y-53126310D01*
X55096092Y-53229539D01*
X55037449Y-53171052D01*
X54978805Y-53112566D01*
X55704179Y-52352237D01*
X55749916Y-52304263D01*
X55912633Y-52132940D01*
X56052313Y-51984738D01*
X56169373Y-51859198D01*
X56264233Y-51755861D01*
X56331309Y-51680967D01*
X56605947Y-51680967D01*
X56608106Y-51698589D01*
X56608483Y-51700430D01*
X56626480Y-51742171D01*
X56662428Y-51761620D01*
X56773237Y-51803083D01*
X56871963Y-51872156D01*
X56949611Y-51963524D01*
X57002828Y-52073195D01*
X57028258Y-52197173D01*
X57036681Y-52302105D01*
X58298482Y-52302105D01*
X58307280Y-52264506D01*
X58308836Y-52255279D01*
X58313672Y-52214018D01*
X58320271Y-52147304D01*
X58328142Y-52060453D01*
X58336797Y-51958777D01*
X58345743Y-51847592D01*
X58375409Y-51468277D01*
X57975532Y-51062198D01*
X57902187Y-50987961D01*
X57812447Y-50897837D01*
X57731940Y-50817775D01*
X57663488Y-50750542D01*
X57609917Y-50698910D01*
X57574052Y-50665646D01*
X57558715Y-50653521D01*
X57548431Y-50659314D01*
X57517801Y-50685675D01*
X57471705Y-50729709D01*
X57414265Y-50787444D01*
X57349605Y-50854911D01*
X57332738Y-50872804D01*
X57257107Y-50952839D01*
X57166984Y-51047977D01*
X57069155Y-51151067D01*
X56970405Y-51254956D01*
X56877520Y-51352493D01*
X56871940Y-51358346D01*
X56785584Y-51449214D01*
X56719690Y-51519577D01*
X56671651Y-51572783D01*
X56638863Y-51612177D01*
X56618720Y-51641108D01*
X56608616Y-51662922D01*
X56605947Y-51680967D01*
X56331309Y-51680967D01*
X56337311Y-51674266D01*
X56389026Y-51613955D01*
X56419796Y-51574466D01*
X56430040Y-51555342D01*
X56430041Y-51555229D01*
X56428636Y-51531394D01*
X56424531Y-51477967D01*
X56418048Y-51398584D01*
X56409508Y-51296880D01*
X56399233Y-51176493D01*
X56387544Y-51041057D01*
X56374763Y-50894211D01*
X56361212Y-50739590D01*
X56347212Y-50580830D01*
X56333085Y-50421568D01*
X56319153Y-50265441D01*
X56305736Y-50116083D01*
X56293157Y-49977133D01*
X56281738Y-49852226D01*
X56271799Y-49744998D01*
X56263662Y-49659087D01*
X56257650Y-49598127D01*
X56254083Y-49565756D01*
X56246891Y-49511538D01*
X56418573Y-49511538D01*
X56420772Y-49552630D01*
X56425611Y-49621735D01*
X56432848Y-49715870D01*
X56442241Y-49832053D01*
X56453547Y-49967299D01*
X56466523Y-50118627D01*
X56480929Y-50283054D01*
X56496521Y-50457597D01*
X56508710Y-50592206D01*
X56523976Y-50759145D01*
X56538269Y-50913618D01*
X56551305Y-51052649D01*
X56562800Y-51173264D01*
X56572470Y-51272489D01*
X56580030Y-51347348D01*
X56585197Y-51394867D01*
X56587686Y-51412072D01*
X56595236Y-51406742D01*
X56622922Y-51380578D01*
X56667909Y-51335637D01*
X56727100Y-51275191D01*
X56797399Y-51202509D01*
X56875708Y-51120864D01*
X56958930Y-51033526D01*
X57043969Y-50943767D01*
X57127727Y-50854858D01*
X57207107Y-50770070D01*
X57279013Y-50692673D01*
X57340347Y-50625941D01*
X57388013Y-50573142D01*
X57418913Y-50537550D01*
X57427941Y-50525186D01*
X57669574Y-50525186D01*
X58035971Y-50891299D01*
X58125569Y-50980679D01*
X58210013Y-51064320D01*
X58275427Y-51128027D01*
X58324208Y-51173868D01*
X58358753Y-51203909D01*
X58381459Y-51220218D01*
X58394722Y-51224862D01*
X58400940Y-51219908D01*
X58402509Y-51207423D01*
X58403515Y-51187363D01*
X58407140Y-51135712D01*
X58413130Y-51057320D01*
X58421198Y-50955759D01*
X58431055Y-50834602D01*
X58442413Y-50697421D01*
X58454984Y-50547787D01*
X58468480Y-50389271D01*
X58480395Y-50249563D01*
X58492811Y-50102414D01*
X58503943Y-49968805D01*
X58513526Y-49852028D01*
X58521290Y-49755378D01*
X58526969Y-49682145D01*
X58530297Y-49635624D01*
X58531004Y-49619106D01*
X58530444Y-49619416D01*
X58514663Y-49634623D01*
X58479606Y-49670303D01*
X58428363Y-49723220D01*
X58364019Y-49790139D01*
X58289664Y-49867823D01*
X58208385Y-49953036D01*
X58123270Y-50042541D01*
X58037406Y-50133102D01*
X57953881Y-50221483D01*
X57875784Y-50304448D01*
X57806202Y-50378760D01*
X57672141Y-50522434D01*
X57669574Y-50525186D01*
X57427941Y-50525186D01*
X57429951Y-50522434D01*
X57419131Y-50507785D01*
X57387674Y-50472722D01*
X57338503Y-50420265D01*
X57274544Y-50353372D01*
X57198723Y-50274999D01*
X57113967Y-50188103D01*
X57023202Y-50095641D01*
X56929356Y-50000569D01*
X56835354Y-49905845D01*
X56744124Y-49814424D01*
X56658591Y-49729265D01*
X56581683Y-49653323D01*
X56516326Y-49589556D01*
X56465446Y-49540920D01*
X56431970Y-49510372D01*
X56418824Y-49500868D01*
X56418573Y-49511538D01*
X56246891Y-49511538D01*
X56244663Y-49494737D01*
X55879079Y-49494737D01*
X55878641Y-49214835D01*
X55878414Y-49069584D01*
X56012763Y-49069584D01*
X56012763Y-49361052D01*
X56121382Y-49361052D01*
X56131045Y-49361044D01*
X56185604Y-49359880D01*
X56215276Y-49354902D01*
X56227571Y-49343477D01*
X56230000Y-49322971D01*
X56219301Y-49292829D01*
X56182654Y-49242687D01*
X56121382Y-49177237D01*
X56012763Y-49069584D01*
X55878414Y-49069584D01*
X55878204Y-48934934D01*
X55277885Y-48325000D01*
X54677567Y-47715066D01*
X54676744Y-47599337D01*
X54675921Y-47483610D01*
X55395969Y-48213449D01*
X55465564Y-48283944D01*
X55609975Y-48429828D01*
X55733442Y-48553875D01*
X55837560Y-48657611D01*
X55923925Y-48742562D01*
X55994132Y-48810256D01*
X56049776Y-48862219D01*
X56092452Y-48899977D01*
X56123756Y-48925057D01*
X56145282Y-48938986D01*
X56158625Y-48943289D01*
X56181125Y-48941986D01*
X56193756Y-48932468D01*
X56195934Y-48906427D01*
X56190697Y-48855559D01*
X56187086Y-48823533D01*
X56182061Y-48770002D01*
X56180037Y-48734408D01*
X56179045Y-48722138D01*
X56169386Y-48708996D01*
X56142703Y-48704641D01*
X56090902Y-48706542D01*
X56077676Y-48707287D01*
X56024733Y-48706447D01*
X55987073Y-48694813D01*
X55960529Y-48675921D01*
X56336974Y-48675921D01*
X56342504Y-48738585D01*
X56345058Y-48767017D01*
X56353018Y-48844642D01*
X56360861Y-48895769D01*
X56370031Y-48925711D01*
X56381973Y-48939780D01*
X56398129Y-48943289D01*
X56412656Y-48945679D01*
X56422289Y-48957098D01*
X56427672Y-48983645D01*
X56430015Y-49031414D01*
X56430526Y-49106502D01*
X56430526Y-49269715D01*
X56483948Y-49322971D01*
X56614342Y-49452960D01*
X56798158Y-49636206D01*
X56798158Y-49494737D01*
X57800790Y-49494737D01*
X57800790Y-49812237D01*
X56978827Y-49812237D01*
X57257589Y-50100493D01*
X57310984Y-50155548D01*
X57384817Y-50231120D01*
X57448929Y-50296082D01*
X57499961Y-50347060D01*
X57534557Y-50380681D01*
X57549357Y-50393574D01*
X57554983Y-50390018D01*
X57581363Y-50366118D01*
X57626849Y-50321862D01*
X57689012Y-50259708D01*
X57765422Y-50182115D01*
X57853649Y-50091540D01*
X57951262Y-49990441D01*
X58055833Y-49881275D01*
X58160940Y-49770964D01*
X58263974Y-49662246D01*
X58347530Y-49573136D01*
X58413654Y-49501271D01*
X58464387Y-49444289D01*
X58501775Y-49399828D01*
X58527860Y-49365525D01*
X58544687Y-49339017D01*
X58554298Y-49317942D01*
X58558739Y-49299939D01*
X58559916Y-49291169D01*
X58565136Y-49242847D01*
X58571742Y-49171707D01*
X58579008Y-49085861D01*
X58586207Y-48993421D01*
X58588648Y-48961225D01*
X58595701Y-48874236D01*
X58602425Y-48799203D01*
X58608160Y-48743255D01*
X58612240Y-48713520D01*
X58620242Y-48675921D01*
X56336974Y-48675921D01*
X55960529Y-48675921D01*
X55949956Y-48668396D01*
X55943563Y-48662835D01*
X55891285Y-48595487D01*
X55870581Y-48525526D01*
X56323481Y-48525526D01*
X58203306Y-48525526D01*
X58200583Y-48458684D01*
X58485921Y-48458684D01*
X58485921Y-48525526D01*
X58561706Y-48525526D01*
X58584412Y-48525366D01*
X58618054Y-48522442D01*
X58627766Y-48512970D01*
X58620227Y-48493267D01*
X58617999Y-48489511D01*
X58592990Y-48460623D01*
X58556757Y-48428563D01*
X58520613Y-48402560D01*
X58495874Y-48391842D01*
X58493650Y-48393536D01*
X58488131Y-48416810D01*
X58485921Y-48458684D01*
X58200583Y-48458684D01*
X58198397Y-48405007D01*
X58193487Y-48284488D01*
X58093224Y-48264348D01*
X58042943Y-48255214D01*
X57958975Y-48242425D01*
X57880165Y-48232776D01*
X57767368Y-48221345D01*
X57767368Y-48358421D01*
X56998684Y-48358421D01*
X56998684Y-48237596D01*
X56902599Y-48249065D01*
X56755787Y-48273646D01*
X56608032Y-48318089D01*
X56485814Y-48380062D01*
X56387062Y-48460413D01*
X56323481Y-48525526D01*
X55870581Y-48525526D01*
X55868281Y-48517754D01*
X55875328Y-48436211D01*
X55913203Y-48357434D01*
X55916868Y-48352529D01*
X55967486Y-48310327D01*
X56033474Y-48285365D01*
X56104607Y-48278725D01*
X56170664Y-48291492D01*
X56221419Y-48324750D01*
X56238604Y-48341729D01*
X56255345Y-48345844D01*
X56279318Y-48333115D01*
X56319799Y-48301332D01*
X56332219Y-48291564D01*
X56428111Y-48229911D01*
X56541715Y-48175084D01*
X56634630Y-48141184D01*
X57132368Y-48141184D01*
X57132368Y-48224737D01*
X57633684Y-48224737D01*
X57633684Y-48141184D01*
X57132368Y-48141184D01*
X56634630Y-48141184D01*
X56662453Y-48131033D01*
X56779746Y-48101706D01*
X56883017Y-48091052D01*
X56893988Y-48090968D01*
X56954970Y-48085031D01*
X56988460Y-48068385D01*
X56998684Y-48039133D01*
X56999885Y-48029917D01*
X57006449Y-48021991D01*
X57022391Y-48016189D01*
X57051719Y-48012181D01*
X57098440Y-48009639D01*
X57166559Y-48008230D01*
X57260086Y-48007628D01*
X57383026Y-48007500D01*
X57498219Y-48007725D01*
X57596126Y-48008635D01*
X57667800Y-48010469D01*
X57717001Y-48013466D01*
X57747490Y-48017863D01*
X57763025Y-48023898D01*
X57767368Y-48031808D01*
X57781653Y-48051232D01*
X57821678Y-48063627D01*
X57836997Y-48065796D01*
X57889230Y-48073430D01*
X57958737Y-48083778D01*
X58034737Y-48095240D01*
X58076651Y-48101075D01*
X58137992Y-48107394D01*
X58181273Y-48108918D01*
X58199057Y-48105197D01*
X58202094Y-48102773D01*
X58230130Y-48096785D01*
X58280564Y-48092617D01*
X58345274Y-48091052D01*
X58485921Y-48091052D01*
X58485937Y-48141184D01*
X58485938Y-48145362D01*
G36*
X58485938Y-48145362D02*
G01*
X58486595Y-48162572D01*
X58495141Y-48191467D01*
X58519466Y-48215972D01*
X58566918Y-48245143D01*
X58608573Y-48271793D01*
X58671989Y-48322960D01*
X58729460Y-48380400D01*
X58773422Y-48436279D01*
X58796311Y-48482762D01*
X58801919Y-48500674D01*
X58812309Y-48512970D01*
X58815812Y-48517116D01*
X58844445Y-48524083D01*
X58897141Y-48525526D01*
X58987237Y-48525526D01*
X58987237Y-48675921D01*
X58775228Y-48675921D01*
X58755433Y-48912183D01*
X58752775Y-48944483D01*
X58746583Y-49025340D01*
X58742208Y-49091135D01*
X58740030Y-49135791D01*
X58740426Y-49153233D01*
X58746185Y-49148219D01*
X58772462Y-49122083D01*
X58817888Y-49075758D01*
X58880166Y-49011647D01*
X58956997Y-48932150D01*
X59046080Y-48839669D01*
X59145119Y-48736606D01*
X59251814Y-48625362D01*
X59363865Y-48508338D01*
X59478975Y-48387936D01*
X59594844Y-48266558D01*
X59709174Y-48146604D01*
X59819666Y-48030476D01*
X59924021Y-47920575D01*
X60019940Y-47819304D01*
X60105124Y-47729063D01*
X60177275Y-47652253D01*
X60306194Y-47514539D01*
X60306781Y-47631852D01*
X60307368Y-47749164D01*
X59509286Y-48588485D01*
X58711204Y-49427807D01*
X58695250Y-49619106D01*
X58631419Y-50384528D01*
X58620138Y-50520287D01*
X58606140Y-50690154D01*
X58593220Y-50848505D01*
X58581627Y-50992228D01*
X58571607Y-51118210D01*
X58563407Y-51223338D01*
X58557274Y-51304501D01*
X58553456Y-51358586D01*
X58552199Y-51382480D01*
X58555517Y-51393429D01*
X58570429Y-51417071D01*
X58598709Y-51452703D01*
X58612358Y-51468277D01*
X58641864Y-51501948D01*
X58701399Y-51566428D01*
X58778820Y-51647768D01*
X58875632Y-51747591D01*
X58993342Y-51867520D01*
X59133454Y-52009179D01*
X59225628Y-52102136D01*
X59354119Y-52231795D01*
X59482159Y-52361079D01*
X59605900Y-52486097D01*
X59721492Y-52602959D01*
X59825085Y-52707774D01*
X59912831Y-52796652D01*
X59980881Y-52865702D01*
X60247617Y-53136757D01*
X60199169Y-53187326D01*
X60187743Y-53198719D01*
X60154035Y-53226697D01*
X60130910Y-53237895D01*
X60112805Y-53228335D01*
X60079145Y-53199649D01*
X60038792Y-53158520D01*
X60014230Y-53132542D01*
X59968423Y-53085104D01*
X59903683Y-53018566D01*
X59822295Y-52935263D01*
X59726545Y-52837528D01*
X59618721Y-52727695D01*
X59501108Y-52608096D01*
X59375992Y-52481066D01*
X59245659Y-52348938D01*
X58524831Y-51618732D01*
X58495469Y-51998017D01*
X58489068Y-52078972D01*
X58479721Y-52187793D01*
X58471290Y-52270217D01*
X58463151Y-52330575D01*
X58454679Y-52373200D01*
X58445250Y-52402424D01*
X58434237Y-52422580D01*
X58418825Y-52450750D01*
X58406143Y-52502539D01*
X58402368Y-52577152D01*
X58402368Y-52686447D01*
X58101579Y-52686447D01*
X58101579Y-52452500D01*
X56977832Y-52452500D01*
X56912875Y-52526295D01*
X56895110Y-52545511D01*
X56798831Y-52622712D01*
X56690049Y-52670239D01*
X56572262Y-52686447D01*
X56468327Y-52677854D01*
X56350770Y-52641628D01*
X56250134Y-52576882D01*
X56230520Y-52558378D01*
X56181503Y-52498475D01*
X56138497Y-52428693D01*
X56107658Y-52359909D01*
X56095141Y-52303002D01*
X56094899Y-52294741D01*
X56093099Y-52264471D01*
X56088392Y-52243563D01*
X56078544Y-52233669D01*
X56061323Y-52236444D01*
X56034494Y-52253540D01*
X55995824Y-52286610D01*
X55943080Y-52337307D01*
X55874028Y-52407285D01*
X55786434Y-52498197D01*
X55678065Y-52611695D01*
X55620342Y-52672280D01*
X55523855Y-52773718D01*
X55432568Y-52869889D01*
X55350059Y-52957013D01*
X55279906Y-53031311D01*
X55225685Y-53089003D01*
X55190974Y-53126310D01*
X55096092Y-53229539D01*
X55037449Y-53171052D01*
X54978805Y-53112566D01*
X55704179Y-52352237D01*
X55749916Y-52304263D01*
X55912633Y-52132940D01*
X56052313Y-51984738D01*
X56169373Y-51859198D01*
X56264233Y-51755861D01*
X56331309Y-51680967D01*
X56605947Y-51680967D01*
X56608106Y-51698589D01*
X56608483Y-51700430D01*
X56626480Y-51742171D01*
X56662428Y-51761620D01*
X56773237Y-51803083D01*
X56871963Y-51872156D01*
X56949611Y-51963524D01*
X57002828Y-52073195D01*
X57028258Y-52197173D01*
X57036681Y-52302105D01*
X58298482Y-52302105D01*
X58307280Y-52264506D01*
X58308836Y-52255279D01*
X58313672Y-52214018D01*
X58320271Y-52147304D01*
X58328142Y-52060453D01*
X58336797Y-51958777D01*
X58345743Y-51847592D01*
X58375409Y-51468277D01*
X57975532Y-51062198D01*
X57902187Y-50987961D01*
X57812447Y-50897837D01*
X57731940Y-50817775D01*
X57663488Y-50750542D01*
X57609917Y-50698910D01*
X57574052Y-50665646D01*
X57558715Y-50653521D01*
X57548431Y-50659314D01*
X57517801Y-50685675D01*
X57471705Y-50729709D01*
X57414265Y-50787444D01*
X57349605Y-50854911D01*
X57332738Y-50872804D01*
X57257107Y-50952839D01*
X57166984Y-51047977D01*
X57069155Y-51151067D01*
X56970405Y-51254956D01*
X56877520Y-51352493D01*
X56871940Y-51358346D01*
X56785584Y-51449214D01*
X56719690Y-51519577D01*
X56671651Y-51572783D01*
X56638863Y-51612177D01*
X56618720Y-51641108D01*
X56608616Y-51662922D01*
X56605947Y-51680967D01*
X56331309Y-51680967D01*
X56337311Y-51674266D01*
X56389026Y-51613955D01*
X56419796Y-51574466D01*
X56430040Y-51555342D01*
X56430041Y-51555229D01*
X56428636Y-51531394D01*
X56424531Y-51477967D01*
X56418048Y-51398584D01*
X56409508Y-51296880D01*
X56399233Y-51176493D01*
X56387544Y-51041057D01*
X56374763Y-50894211D01*
X56361212Y-50739590D01*
X56347212Y-50580830D01*
X56333085Y-50421568D01*
X56319153Y-50265441D01*
X56305736Y-50116083D01*
X56293157Y-49977133D01*
X56281738Y-49852226D01*
X56271799Y-49744998D01*
X56263662Y-49659087D01*
X56257650Y-49598127D01*
X56254083Y-49565756D01*
X56246891Y-49511538D01*
X56418573Y-49511538D01*
X56420772Y-49552630D01*
X56425611Y-49621735D01*
X56432848Y-49715870D01*
X56442241Y-49832053D01*
X56453547Y-49967299D01*
X56466523Y-50118627D01*
X56480929Y-50283054D01*
X56496521Y-50457597D01*
X56508710Y-50592206D01*
X56523976Y-50759145D01*
X56538269Y-50913618D01*
X56551305Y-51052649D01*
X56562800Y-51173264D01*
X56572470Y-51272489D01*
X56580030Y-51347348D01*
X56585197Y-51394867D01*
X56587686Y-51412072D01*
X56595236Y-51406742D01*
X56622922Y-51380578D01*
X56667909Y-51335637D01*
X56727100Y-51275191D01*
X56797399Y-51202509D01*
X56875708Y-51120864D01*
X56958930Y-51033526D01*
X57043969Y-50943767D01*
X57127727Y-50854858D01*
X57207107Y-50770070D01*
X57279013Y-50692673D01*
X57340347Y-50625941D01*
X57388013Y-50573142D01*
X57418913Y-50537550D01*
X57427941Y-50525186D01*
X57669574Y-50525186D01*
X58035971Y-50891299D01*
X58125569Y-50980679D01*
X58210013Y-51064320D01*
X58275427Y-51128027D01*
X58324208Y-51173868D01*
X58358753Y-51203909D01*
X58381459Y-51220218D01*
X58394722Y-51224862D01*
X58400940Y-51219908D01*
X58402509Y-51207423D01*
X58403515Y-51187363D01*
X58407140Y-51135712D01*
X58413130Y-51057320D01*
X58421198Y-50955759D01*
X58431055Y-50834602D01*
X58442413Y-50697421D01*
X58454984Y-50547787D01*
X58468480Y-50389271D01*
X58480395Y-50249563D01*
X58492811Y-50102414D01*
X58503943Y-49968805D01*
X58513526Y-49852028D01*
X58521290Y-49755378D01*
X58526969Y-49682145D01*
X58530297Y-49635624D01*
X58531004Y-49619106D01*
X58530444Y-49619416D01*
X58514663Y-49634623D01*
X58479606Y-49670303D01*
X58428363Y-49723220D01*
X58364019Y-49790139D01*
X58289664Y-49867823D01*
X58208385Y-49953036D01*
X58123270Y-50042541D01*
X58037406Y-50133102D01*
X57953881Y-50221483D01*
X57875784Y-50304448D01*
X57806202Y-50378760D01*
X57672141Y-50522434D01*
X57669574Y-50525186D01*
X57427941Y-50525186D01*
X57429951Y-50522434D01*
X57419131Y-50507785D01*
X57387674Y-50472722D01*
X57338503Y-50420265D01*
X57274544Y-50353372D01*
X57198723Y-50274999D01*
X57113967Y-50188103D01*
X57023202Y-50095641D01*
X56929356Y-50000569D01*
X56835354Y-49905845D01*
X56744124Y-49814424D01*
X56658591Y-49729265D01*
X56581683Y-49653323D01*
X56516326Y-49589556D01*
X56465446Y-49540920D01*
X56431970Y-49510372D01*
X56418824Y-49500868D01*
X56418573Y-49511538D01*
X56246891Y-49511538D01*
X56244663Y-49494737D01*
X55879079Y-49494737D01*
X55878641Y-49214835D01*
X55878414Y-49069584D01*
X56012763Y-49069584D01*
X56012763Y-49361052D01*
X56121382Y-49361052D01*
X56131045Y-49361044D01*
X56185604Y-49359880D01*
X56215276Y-49354902D01*
X56227571Y-49343477D01*
X56230000Y-49322971D01*
X56219301Y-49292829D01*
X56182654Y-49242687D01*
X56121382Y-49177237D01*
X56012763Y-49069584D01*
X55878414Y-49069584D01*
X55878204Y-48934934D01*
X55277885Y-48325000D01*
X54677567Y-47715066D01*
X54676744Y-47599337D01*
X54675921Y-47483610D01*
X55395969Y-48213449D01*
X55465564Y-48283944D01*
X55609975Y-48429828D01*
X55733442Y-48553875D01*
X55837560Y-48657611D01*
X55923925Y-48742562D01*
X55994132Y-48810256D01*
X56049776Y-48862219D01*
X56092452Y-48899977D01*
X56123756Y-48925057D01*
X56145282Y-48938986D01*
X56158625Y-48943289D01*
X56181125Y-48941986D01*
X56193756Y-48932468D01*
X56195934Y-48906427D01*
X56190697Y-48855559D01*
X56187086Y-48823533D01*
X56182061Y-48770002D01*
X56180037Y-48734408D01*
X56179045Y-48722138D01*
X56169386Y-48708996D01*
X56142703Y-48704641D01*
X56090902Y-48706542D01*
X56077676Y-48707287D01*
X56024733Y-48706447D01*
X55987073Y-48694813D01*
X55960529Y-48675921D01*
X56336974Y-48675921D01*
X56342504Y-48738585D01*
X56345058Y-48767017D01*
X56353018Y-48844642D01*
X56360861Y-48895769D01*
X56370031Y-48925711D01*
X56381973Y-48939780D01*
X56398129Y-48943289D01*
X56412656Y-48945679D01*
X56422289Y-48957098D01*
X56427672Y-48983645D01*
X56430015Y-49031414D01*
X56430526Y-49106502D01*
X56430526Y-49269715D01*
X56483948Y-49322971D01*
X56614342Y-49452960D01*
X56798158Y-49636206D01*
X56798158Y-49494737D01*
X57800790Y-49494737D01*
X57800790Y-49812237D01*
X56978827Y-49812237D01*
X57257589Y-50100493D01*
X57310984Y-50155548D01*
X57384817Y-50231120D01*
X57448929Y-50296082D01*
X57499961Y-50347060D01*
X57534557Y-50380681D01*
X57549357Y-50393574D01*
X57554983Y-50390018D01*
X57581363Y-50366118D01*
X57626849Y-50321862D01*
X57689012Y-50259708D01*
X57765422Y-50182115D01*
X57853649Y-50091540D01*
X57951262Y-49990441D01*
X58055833Y-49881275D01*
X58160940Y-49770964D01*
X58263974Y-49662246D01*
X58347530Y-49573136D01*
X58413654Y-49501271D01*
X58464387Y-49444289D01*
X58501775Y-49399828D01*
X58527860Y-49365525D01*
X58544687Y-49339017D01*
X58554298Y-49317942D01*
X58558739Y-49299939D01*
X58559916Y-49291169D01*
X58565136Y-49242847D01*
X58571742Y-49171707D01*
X58579008Y-49085861D01*
X58586207Y-48993421D01*
X58588648Y-48961225D01*
X58595701Y-48874236D01*
X58602425Y-48799203D01*
X58608160Y-48743255D01*
X58612240Y-48713520D01*
X58620242Y-48675921D01*
X56336974Y-48675921D01*
X55960529Y-48675921D01*
X55949956Y-48668396D01*
X55943563Y-48662835D01*
X55891285Y-48595487D01*
X55870581Y-48525526D01*
X56323481Y-48525526D01*
X58203306Y-48525526D01*
X58200583Y-48458684D01*
X58485921Y-48458684D01*
X58485921Y-48525526D01*
X58561706Y-48525526D01*
X58584412Y-48525366D01*
X58618054Y-48522442D01*
X58627766Y-48512970D01*
X58620227Y-48493267D01*
X58617999Y-48489511D01*
X58592990Y-48460623D01*
X58556757Y-48428563D01*
X58520613Y-48402560D01*
X58495874Y-48391842D01*
X58493650Y-48393536D01*
X58488131Y-48416810D01*
X58485921Y-48458684D01*
X58200583Y-48458684D01*
X58198397Y-48405007D01*
X58193487Y-48284488D01*
X58093224Y-48264348D01*
X58042943Y-48255214D01*
X57958975Y-48242425D01*
X57880165Y-48232776D01*
X57767368Y-48221345D01*
X57767368Y-48358421D01*
X56998684Y-48358421D01*
X56998684Y-48237596D01*
X56902599Y-48249065D01*
X56755787Y-48273646D01*
X56608032Y-48318089D01*
X56485814Y-48380062D01*
X56387062Y-48460413D01*
X56323481Y-48525526D01*
X55870581Y-48525526D01*
X55868281Y-48517754D01*
X55875328Y-48436211D01*
X55913203Y-48357434D01*
X55916868Y-48352529D01*
X55967486Y-48310327D01*
X56033474Y-48285365D01*
X56104607Y-48278725D01*
X56170664Y-48291492D01*
X56221419Y-48324750D01*
X56238604Y-48341729D01*
X56255345Y-48345844D01*
X56279318Y-48333115D01*
X56319799Y-48301332D01*
X56332219Y-48291564D01*
X56428111Y-48229911D01*
X56541715Y-48175084D01*
X56634630Y-48141184D01*
X57132368Y-48141184D01*
X57132368Y-48224737D01*
X57633684Y-48224737D01*
X57633684Y-48141184D01*
X57132368Y-48141184D01*
X56634630Y-48141184D01*
X56662453Y-48131033D01*
X56779746Y-48101706D01*
X56883017Y-48091052D01*
X56893988Y-48090968D01*
X56954970Y-48085031D01*
X56988460Y-48068385D01*
X56998684Y-48039133D01*
X56999885Y-48029917D01*
X57006449Y-48021991D01*
X57022391Y-48016189D01*
X57051719Y-48012181D01*
X57098440Y-48009639D01*
X57166559Y-48008230D01*
X57260086Y-48007628D01*
X57383026Y-48007500D01*
X57498219Y-48007725D01*
X57596126Y-48008635D01*
X57667800Y-48010469D01*
X57717001Y-48013466D01*
X57747490Y-48017863D01*
X57763025Y-48023898D01*
X57767368Y-48031808D01*
X57781653Y-48051232D01*
X57821678Y-48063627D01*
X57836997Y-48065796D01*
X57889230Y-48073430D01*
X57958737Y-48083778D01*
X58034737Y-48095240D01*
X58076651Y-48101075D01*
X58137992Y-48107394D01*
X58181273Y-48108918D01*
X58199057Y-48105197D01*
X58202094Y-48102773D01*
X58230130Y-48096785D01*
X58280564Y-48092617D01*
X58345274Y-48091052D01*
X58485921Y-48091052D01*
X58485937Y-48141184D01*
X58485938Y-48145362D01*
G37*
%LPC*%
D12*
X70150000Y-60000000D03*
D13*
X56150000Y-131000000D03*
D12*
X60150000Y-81000000D03*
D14*
X84150000Y-141000000D03*
D15*
X57500000Y-166250000D03*
D12*
X80150000Y-81000000D03*
X60150000Y-105000000D03*
D13*
X56150000Y-152000000D03*
X67150000Y-152000000D03*
X84150000Y-152000000D03*
D15*
X57500000Y-43750000D03*
D12*
X70150000Y-131000000D03*
%LPD*%
M02*
