G04 #@! TF.GenerationSoftware,KiCad,Pcbnew,8.0.5*
G04 #@! TF.CreationDate,2024-11-24T11:24:00+01:00*
G04 #@! TF.ProjectId,kicks-panel,6b69636b-732d-4706-916e-656c2e6b6963,rev?*
G04 #@! TF.SameCoordinates,Original*
G04 #@! TF.FileFunction,Legend,Top*
G04 #@! TF.FilePolarity,Positive*
%FSLAX46Y46*%
G04 Gerber Fmt 4.6, Leading zero omitted, Abs format (unit mm)*
G04 Created by KiCad (PCBNEW 8.0.5) date 2024-11-24 11:24:00*
%MOMM*%
%LPD*%
G01*
G04 APERTURE LIST*
%ADD10C,0.150000*%
%ADD11C,0.000000*%
%ADD12C,0.100000*%
%ADD13C,0.400000*%
%ADD14C,7.200000*%
%ADD15C,6.200000*%
%ADD16C,3.200000*%
%ADD17O,7.000000X3.200000*%
G04 APERTURE END LIST*
D10*
G36*
X57829825Y-68498672D02*
G01*
X57914708Y-68572684D01*
X58011284Y-68631430D01*
X58105510Y-68670960D01*
X58212177Y-68701660D01*
X58164556Y-68719950D01*
X58128158Y-68814012D01*
X58128158Y-70184214D01*
X58119294Y-70297082D01*
X58093513Y-70394363D01*
X58039358Y-70494296D01*
X57963059Y-70570456D01*
X57866997Y-70623170D01*
X57753553Y-70652759D01*
X57651884Y-70660000D01*
X56531787Y-70660000D01*
X56531787Y-70352254D01*
X56615806Y-70352254D01*
X56980216Y-70352254D01*
X57596197Y-70352254D01*
X57662639Y-70342965D01*
X57740478Y-70283718D01*
X57764236Y-70184214D01*
X57764236Y-69065582D01*
X56980216Y-69065582D01*
X56980216Y-70352254D01*
X56615806Y-70352254D01*
X56615806Y-69065582D01*
X56531787Y-69065582D01*
X56531787Y-68701660D01*
X56615806Y-68701660D01*
X56615806Y-68421758D01*
X56637076Y-68449373D01*
X56704077Y-68528141D01*
X56777801Y-68597274D01*
X56860741Y-68652253D01*
X56955388Y-68688555D01*
X57064236Y-68701660D01*
X57764236Y-68701660D01*
X57764236Y-68421758D01*
X57829825Y-68498672D01*
G37*
G36*
X59530600Y-70124131D02*
G01*
X58715806Y-70124131D01*
X58715806Y-70352254D01*
X59530600Y-70352254D01*
X59530600Y-70660000D01*
X58715806Y-70660000D01*
X58715806Y-70940390D01*
X58650217Y-70863473D01*
X58565334Y-70789432D01*
X58468758Y-70730599D01*
X58374533Y-70690927D01*
X58267865Y-70660000D01*
X58315272Y-70642079D01*
X58351884Y-70548136D01*
X58351884Y-69731388D01*
X58715806Y-69731388D01*
X58715806Y-69815896D01*
X59222854Y-69815896D01*
X59222854Y-69561395D01*
X58883845Y-69561395D01*
X58817403Y-69570852D01*
X58739564Y-69630917D01*
X58715806Y-69731388D01*
X58351884Y-69731388D01*
X58360728Y-69617854D01*
X58386452Y-69520034D01*
X58440507Y-69419586D01*
X58516693Y-69343066D01*
X58612651Y-69290128D01*
X58726021Y-69260426D01*
X58827669Y-69253161D01*
X59530600Y-69253161D01*
X59530600Y-70124131D01*
G37*
G36*
X60829972Y-69253161D02*
G01*
X60230600Y-69253161D01*
X60128952Y-69260425D01*
X60015582Y-69290117D01*
X59919624Y-69343025D01*
X59843438Y-69419484D01*
X59789383Y-69519828D01*
X59763658Y-69617527D01*
X59754815Y-69730900D01*
X59754815Y-70548136D01*
X59718203Y-70642079D01*
X59670796Y-70660000D01*
X59777463Y-70690927D01*
X59871689Y-70730599D01*
X59968265Y-70789432D01*
X60053148Y-70863473D01*
X60118737Y-70940390D01*
X60118737Y-70660000D01*
X60829972Y-70660000D01*
X60829972Y-70352254D01*
X60118737Y-70352254D01*
X60118737Y-69730900D01*
X60142495Y-69630562D01*
X60220334Y-69570776D01*
X60286776Y-69561395D01*
X60829972Y-69561395D01*
X60829972Y-69253161D01*
G37*
G36*
X62313992Y-70940390D02*
G01*
X62292802Y-70912769D01*
X62225935Y-70833931D01*
X62152241Y-70764675D01*
X62069305Y-70709562D01*
X61974713Y-70673150D01*
X61866050Y-70660000D01*
X61418109Y-70660000D01*
X61418109Y-70940390D01*
X61352520Y-70863473D01*
X61267637Y-70789432D01*
X61171061Y-70730599D01*
X61076835Y-70690927D01*
X60970168Y-70660000D01*
X61017575Y-70642079D01*
X61054187Y-70548136D01*
X61054187Y-70209616D01*
X61418109Y-70209616D01*
X61418109Y-70352254D01*
X61950070Y-70352254D01*
X61950070Y-70034738D01*
X61586148Y-70034738D01*
X61512229Y-70047127D01*
X61437897Y-70113643D01*
X61418109Y-70209616D01*
X61054187Y-70209616D01*
X61063030Y-70094490D01*
X61088755Y-69995514D01*
X61142810Y-69894127D01*
X61218996Y-69817108D01*
X61314954Y-69763974D01*
X61428324Y-69734246D01*
X61529972Y-69726992D01*
X61950070Y-69726992D01*
X61950070Y-69617571D01*
X61418109Y-69617571D01*
X61371504Y-69623700D01*
X61306246Y-69697683D01*
X61275319Y-69592823D01*
X61235646Y-69499717D01*
X61176813Y-69403757D01*
X61102772Y-69318951D01*
X61025855Y-69253161D01*
X62313992Y-69253161D01*
X62313992Y-70940390D01*
G37*
G36*
X63741347Y-69253161D02*
G01*
X63377425Y-69253161D01*
X63377425Y-70284842D01*
X63069191Y-70284842D01*
X62967598Y-70259712D01*
X62908496Y-70177639D01*
X62901152Y-70117780D01*
X62901152Y-69253161D01*
X62537230Y-69253161D01*
X62537230Y-70117780D01*
X62546073Y-70230487D01*
X62571798Y-70327646D01*
X62625853Y-70427475D01*
X62702039Y-70503575D01*
X62797997Y-70556258D01*
X62911367Y-70585837D01*
X63013015Y-70593077D01*
X63377425Y-70593077D01*
X63377425Y-70983866D01*
X62901152Y-70983866D01*
X62807337Y-70947587D01*
X62789288Y-70900334D01*
X62758361Y-71006776D01*
X62718689Y-71100859D01*
X62659856Y-71197348D01*
X62585815Y-71282201D01*
X62508898Y-71347787D01*
X63741347Y-71347787D01*
X63741347Y-69253161D01*
G37*
G36*
X66333112Y-42504584D02*
G01*
X66459141Y-42504584D01*
X66459141Y-45410586D01*
X66557865Y-45295210D01*
X66685429Y-45184148D01*
X66830407Y-45095899D01*
X66971780Y-45036390D01*
X67131786Y-44990000D01*
X67015351Y-44892112D01*
X67005757Y-44822205D01*
X67005757Y-42602037D01*
X67879169Y-44990000D01*
X68513712Y-44990000D01*
X69387125Y-42602037D01*
X69387125Y-44822205D01*
X69332206Y-44962926D01*
X69261095Y-44990000D01*
X69421097Y-45036390D01*
X69562436Y-45095899D01*
X69707300Y-45184148D01*
X69834624Y-45295210D01*
X69933007Y-45410586D01*
X69933007Y-42504584D01*
X70059037Y-42504584D01*
X70059037Y-42042965D01*
X69933007Y-42042965D01*
X69933007Y-41623112D01*
X69835314Y-41744573D01*
X69728589Y-41853844D01*
X69609209Y-41944142D01*
X69473552Y-42008687D01*
X69317996Y-42040697D01*
X69261095Y-42042965D01*
X69101361Y-42042965D01*
X68194243Y-44452909D01*
X67290788Y-42042965D01*
X67131786Y-42042965D01*
X66968515Y-42023307D01*
X66826543Y-41968854D01*
X66702134Y-41886386D01*
X66591548Y-41782686D01*
X66491047Y-41664535D01*
X66459141Y-41623112D01*
X66459141Y-42042965D01*
X66333112Y-42042965D01*
X66333112Y-42504584D01*
G37*
G36*
X72159037Y-42879741D02*
G01*
X71613154Y-42879741D01*
X71613154Y-44528381D01*
X71150802Y-44528381D01*
X70998413Y-44490273D01*
X70909761Y-44365731D01*
X70898744Y-44274856D01*
X70898744Y-42879741D01*
X70352861Y-42879741D01*
X70352861Y-44274856D01*
X70366126Y-44444642D01*
X70404713Y-44590926D01*
X70485796Y-44741137D01*
X70600075Y-44855562D01*
X70744011Y-44934722D01*
X70914067Y-44979136D01*
X71066538Y-44990000D01*
X71613154Y-44990000D01*
X71613154Y-45410586D01*
X71711538Y-45295210D01*
X71838862Y-45184148D01*
X71983726Y-45095899D01*
X72125064Y-45036390D01*
X72285066Y-44990000D01*
X72168631Y-44892421D01*
X72159037Y-44822205D01*
X72159037Y-42879741D01*
G37*
G36*
X74382135Y-45410586D02*
G01*
X74350351Y-45369154D01*
X74250049Y-45250897D01*
X74139508Y-45147013D01*
X74015105Y-45064343D01*
X73873218Y-45009725D01*
X73710223Y-44990000D01*
X73038311Y-44990000D01*
X73038311Y-45410586D01*
X72939927Y-45295210D01*
X72812603Y-45184148D01*
X72667739Y-45095899D01*
X72526401Y-45036390D01*
X72366399Y-44990000D01*
X72437509Y-44963119D01*
X72492428Y-44822205D01*
X72492428Y-44314424D01*
X73038311Y-44314424D01*
X73038311Y-44528381D01*
X73836252Y-44528381D01*
X73836252Y-44052107D01*
X73290370Y-44052107D01*
X73179490Y-44070690D01*
X73067993Y-44170465D01*
X73038311Y-44314424D01*
X72492428Y-44314424D01*
X72505693Y-44141736D01*
X72544280Y-43993271D01*
X72625363Y-43841191D01*
X72739642Y-43725662D01*
X72883578Y-43645961D01*
X73053634Y-43601369D01*
X73206106Y-43590488D01*
X73836252Y-43590488D01*
X73836252Y-43426357D01*
X73038311Y-43426357D01*
X72968404Y-43435550D01*
X72870516Y-43546524D01*
X72824126Y-43389235D01*
X72764617Y-43249576D01*
X72676367Y-43105635D01*
X72565306Y-42978426D01*
X72449930Y-42879741D01*
X74382135Y-42879741D01*
X74382135Y-45410586D01*
G37*
G36*
X76523168Y-42879741D02*
G01*
X75977285Y-42879741D01*
X75977285Y-44427264D01*
X75514933Y-44427264D01*
X75362544Y-44389568D01*
X75273892Y-44266459D01*
X75262875Y-44176671D01*
X75262875Y-42879741D01*
X74716992Y-42879741D01*
X74716992Y-44176671D01*
X74730257Y-44345731D01*
X74768844Y-44491469D01*
X74849927Y-44641213D01*
X74964206Y-44755363D01*
X75108142Y-44834387D01*
X75278198Y-44878756D01*
X75430670Y-44889616D01*
X75977285Y-44889616D01*
X75977285Y-45475799D01*
X75262875Y-45475799D01*
X75122154Y-45421381D01*
X75095080Y-45350502D01*
X75048689Y-45510164D01*
X74989181Y-45651288D01*
X74900931Y-45796023D01*
X74789870Y-45923302D01*
X74674494Y-46021681D01*
X76523168Y-46021681D01*
X76523168Y-42879741D01*
G37*
G36*
X77753419Y-42052491D02*
G01*
X77753419Y-42598374D01*
X78723552Y-42598374D01*
X78723552Y-45412784D01*
X78821936Y-45297413D01*
X78949260Y-45186396D01*
X79094123Y-45098276D01*
X79235462Y-45038981D01*
X79395464Y-44992930D01*
X79279132Y-44894939D01*
X79269434Y-44825136D01*
X79269434Y-42598374D01*
X79912037Y-42598374D01*
X80053131Y-42653292D01*
X80080565Y-42724403D01*
X80126616Y-42564736D01*
X80185910Y-42423578D01*
X80274030Y-42278729D01*
X80385047Y-42151209D01*
X80500418Y-42052491D01*
X79395464Y-42052491D01*
X79232469Y-42032833D01*
X79090581Y-41978379D01*
X78966178Y-41895912D01*
X78855637Y-41792212D01*
X78755336Y-41674060D01*
X78723552Y-41632637D01*
X78723552Y-42052491D01*
X77753419Y-42052491D01*
G37*
G36*
X80707781Y-45400327D02*
G01*
X80806164Y-45284957D01*
X80933488Y-45173939D01*
X81078352Y-45085819D01*
X81219691Y-45026525D01*
X81379693Y-44980474D01*
X81263361Y-44882174D01*
X81253663Y-44811946D01*
X81253663Y-43342093D01*
X81716015Y-43342093D01*
X81868089Y-43380102D01*
X81956994Y-43503956D01*
X81968074Y-43594152D01*
X81968074Y-45400327D01*
X82066458Y-45284957D01*
X82193782Y-45173939D01*
X82338645Y-45085819D01*
X82479984Y-45026525D01*
X82639986Y-44980474D01*
X82523551Y-44882174D01*
X82513956Y-44811946D01*
X82513956Y-43594152D01*
X82500660Y-43424818D01*
X82461990Y-43278815D01*
X82380757Y-43128765D01*
X82266308Y-43014354D01*
X82122215Y-42935127D01*
X81952050Y-42890633D01*
X81799546Y-42879741D01*
X81253663Y-42879741D01*
X81253663Y-41829741D01*
X80707781Y-41829741D01*
X80707781Y-45400327D01*
G37*
G36*
X84737055Y-45410586D02*
G01*
X84705270Y-45369154D01*
X84604969Y-45250897D01*
X84494428Y-45147013D01*
X84370025Y-45064343D01*
X84228137Y-45009725D01*
X84065143Y-44990000D01*
X83393231Y-44990000D01*
X83393231Y-45410586D01*
X83294847Y-45295210D01*
X83167523Y-45184148D01*
X83022659Y-45095899D01*
X82881320Y-45036390D01*
X82721319Y-44990000D01*
X82792429Y-44963119D01*
X82847348Y-44822205D01*
X82847348Y-44314424D01*
X83393231Y-44314424D01*
X83393231Y-44528381D01*
X84191172Y-44528381D01*
X84191172Y-44052107D01*
X83645289Y-44052107D01*
X83534410Y-44070690D01*
X83422913Y-44170465D01*
X83393231Y-44314424D01*
X82847348Y-44314424D01*
X82860613Y-44141736D01*
X82899200Y-43993271D01*
X82980283Y-43841191D01*
X83094562Y-43725662D01*
X83238498Y-43645961D01*
X83408554Y-43601369D01*
X83561026Y-43590488D01*
X84191172Y-43590488D01*
X84191172Y-43426357D01*
X83393231Y-43426357D01*
X83323324Y-43435550D01*
X83225436Y-43546524D01*
X83179045Y-43389235D01*
X83119537Y-43249576D01*
X83031287Y-43105635D01*
X82920225Y-42978426D01*
X82804850Y-42879741D01*
X84737055Y-42879741D01*
X84737055Y-45410586D01*
G37*
G36*
X85617795Y-42676043D02*
G01*
X85617795Y-42129427D01*
X85071912Y-42129427D01*
X85071912Y-42676043D01*
X85617795Y-42676043D01*
G37*
G36*
X85625855Y-42879741D02*
G01*
X85079972Y-42879741D01*
X85079972Y-45400327D01*
X85178691Y-45284957D01*
X85306210Y-45173939D01*
X85451059Y-45085819D01*
X85592217Y-45026525D01*
X85751884Y-44980474D01*
X85635552Y-44882174D01*
X85625855Y-44811946D01*
X85625855Y-42879741D01*
G37*
G36*
X82397802Y-145561605D02*
G01*
X83120272Y-146665094D01*
X83132581Y-146565083D01*
X83162716Y-146456898D01*
X83210890Y-146354648D01*
X83267378Y-146269170D01*
X83338626Y-146183447D01*
X83241012Y-146171494D01*
X83209665Y-146135575D01*
X82831577Y-145561605D01*
X82848674Y-145561605D01*
X82947246Y-145549394D01*
X83052702Y-145505350D01*
X83139362Y-145434042D01*
X83202147Y-145340552D01*
X83235973Y-145229960D01*
X83240440Y-145169839D01*
X83240440Y-144323782D01*
X83277053Y-144230182D01*
X83324459Y-144211919D01*
X83217973Y-144181218D01*
X83123781Y-144141688D01*
X83027134Y-144082942D01*
X82942149Y-144008930D01*
X82876518Y-143932016D01*
X82876518Y-145169839D01*
X82818029Y-145249722D01*
X82792499Y-145253370D01*
X82176518Y-145253370D01*
X82096192Y-145195143D01*
X82092499Y-145169839D01*
X82092499Y-144323782D01*
X82129111Y-144230182D01*
X82176518Y-144211919D01*
X82069850Y-144181218D01*
X81975625Y-144141688D01*
X81879049Y-144082942D01*
X81794166Y-144008930D01*
X81728577Y-143932016D01*
X81728577Y-146452114D01*
X81794166Y-146375200D01*
X81879049Y-146301188D01*
X81975625Y-146242442D01*
X82069850Y-146202912D01*
X82176518Y-146172212D01*
X82098963Y-146106678D01*
X82092499Y-146059860D01*
X82092499Y-145561605D01*
X82397802Y-145561605D01*
G37*
G36*
X83841277Y-144617362D02*
G01*
X83841277Y-144252951D01*
X83477356Y-144252951D01*
X83477356Y-144617362D01*
X83841277Y-144617362D01*
G37*
G36*
X83846651Y-144753161D02*
G01*
X83482729Y-144753161D01*
X83482729Y-146433551D01*
X83548541Y-146356638D01*
X83633554Y-146282626D01*
X83730120Y-146223879D01*
X83824226Y-146184350D01*
X83930670Y-146153649D01*
X83853115Y-146088116D01*
X83846651Y-146041297D01*
X83846651Y-144753161D01*
G37*
G36*
X85144557Y-144753161D02*
G01*
X84545185Y-144753161D01*
X84443537Y-144760425D01*
X84330167Y-144790117D01*
X84234209Y-144843025D01*
X84158023Y-144919484D01*
X84103968Y-145019828D01*
X84078243Y-145117527D01*
X84069400Y-145230900D01*
X84069400Y-146048136D01*
X84032788Y-146142079D01*
X83985381Y-146160000D01*
X84092048Y-146190927D01*
X84186274Y-146230599D01*
X84282850Y-146289432D01*
X84367733Y-146363473D01*
X84433322Y-146440390D01*
X84433322Y-146160000D01*
X85144557Y-146160000D01*
X85144557Y-145852254D01*
X84433322Y-145852254D01*
X84433322Y-145230900D01*
X84457080Y-145130562D01*
X84534919Y-145070776D01*
X84601361Y-145061395D01*
X85144557Y-145061395D01*
X85144557Y-144753161D01*
G37*
G36*
X85368772Y-146445275D02*
G01*
X85434361Y-146368358D01*
X85519244Y-146294317D01*
X85615820Y-146235484D01*
X85710046Y-146195811D01*
X85816714Y-146164884D01*
X85739159Y-146099626D01*
X85732694Y-146053021D01*
X85732694Y-145467815D01*
X86040928Y-145467815D01*
X86142311Y-145493155D01*
X86201581Y-145575724D01*
X86208968Y-145635854D01*
X86208968Y-146445275D01*
X86274557Y-146368358D01*
X86359439Y-146294317D01*
X86456015Y-146235484D01*
X86550241Y-146195811D01*
X86656909Y-146164884D01*
X86579285Y-146099626D01*
X86572889Y-146053021D01*
X86572889Y-145635854D01*
X86566062Y-145536704D01*
X86540710Y-145433293D01*
X86489427Y-145333796D01*
X86417107Y-145256695D01*
X86326204Y-145201591D01*
X86597802Y-144753161D01*
X86208968Y-144753161D01*
X85965213Y-145159581D01*
X85732694Y-145159581D01*
X85732694Y-144053161D01*
X85368772Y-144053161D01*
X85368772Y-146445275D01*
G37*
G36*
X66319427Y-120998672D02*
G01*
X66404310Y-121072684D01*
X66500886Y-121131430D01*
X66595112Y-121170960D01*
X66701779Y-121201660D01*
X66654158Y-121219950D01*
X66617760Y-121314012D01*
X66617760Y-122168374D01*
X66613293Y-122228869D01*
X66579456Y-122340008D01*
X66516632Y-122433822D01*
X66429883Y-122505290D01*
X66324272Y-122549388D01*
X66225506Y-122561605D01*
X65469818Y-122561605D01*
X65469818Y-123059860D01*
X65476215Y-123106678D01*
X65553838Y-123172212D01*
X65447167Y-123202912D01*
X65352919Y-123242442D01*
X65256266Y-123301188D01*
X65171224Y-123375200D01*
X65105408Y-123452114D01*
X65105408Y-122168374D01*
X65469818Y-122168374D01*
X65473470Y-122194175D01*
X65553838Y-122253370D01*
X66169818Y-122253370D01*
X66195167Y-122249670D01*
X66253838Y-122168374D01*
X66253838Y-121565582D01*
X65469818Y-121565582D01*
X65469818Y-122168374D01*
X65105408Y-122168374D01*
X65105408Y-121565582D01*
X65021389Y-121565582D01*
X65021389Y-121201660D01*
X65105408Y-121201660D01*
X65105408Y-120921758D01*
X65126678Y-120949373D01*
X65193679Y-121028141D01*
X65267403Y-121097274D01*
X65350343Y-121152253D01*
X65444990Y-121188555D01*
X65553838Y-121201660D01*
X66253838Y-121201660D01*
X66253838Y-120921758D01*
X66319427Y-120998672D01*
G37*
G36*
X67205408Y-121617362D02*
G01*
X67205408Y-121252951D01*
X66841486Y-121252951D01*
X66841486Y-121617362D01*
X67205408Y-121617362D01*
G37*
G36*
X67210781Y-121753161D02*
G01*
X66846860Y-121753161D01*
X66846860Y-123433551D01*
X66912672Y-123356638D01*
X66997685Y-123282626D01*
X67094251Y-123223879D01*
X67188356Y-123184350D01*
X67294801Y-123153649D01*
X67217246Y-123088116D01*
X67210781Y-123041297D01*
X67210781Y-121753161D01*
G37*
G36*
X67483845Y-121053161D02*
G01*
X67483845Y-121753161D01*
X67377355Y-121753161D01*
X67377355Y-122061395D01*
X67483845Y-122061395D01*
X67483845Y-123160000D01*
X68408060Y-123160000D01*
X68331143Y-123094407D01*
X68257102Y-123009495D01*
X68198269Y-122912832D01*
X68158596Y-122818464D01*
X68127669Y-122711570D01*
X68062410Y-122789605D01*
X68015806Y-122796078D01*
X67847767Y-122796078D01*
X67847767Y-122061395D01*
X68240021Y-122061395D01*
X68240021Y-121753161D01*
X67847767Y-121753161D01*
X67847767Y-121053161D01*
X67483845Y-121053161D01*
G37*
G36*
X69602896Y-121753161D02*
G01*
X69003524Y-121753161D01*
X68901876Y-121760425D01*
X68788506Y-121790117D01*
X68692548Y-121843025D01*
X68616362Y-121919484D01*
X68562307Y-122019828D01*
X68536582Y-122117527D01*
X68527739Y-122230900D01*
X68527739Y-123048136D01*
X68491126Y-123142079D01*
X68443719Y-123160000D01*
X68550387Y-123190927D01*
X68644613Y-123230599D01*
X68741189Y-123289432D01*
X68826071Y-123363473D01*
X68891661Y-123440390D01*
X68891661Y-123160000D01*
X69602896Y-123160000D01*
X69602896Y-122852254D01*
X68891661Y-122852254D01*
X68891661Y-122230900D01*
X68915418Y-122130562D01*
X68993258Y-122070776D01*
X69059700Y-122061395D01*
X69602896Y-122061395D01*
X69602896Y-121753161D01*
G37*
G36*
X69827111Y-123433551D02*
G01*
X69892700Y-123356638D01*
X69977583Y-123282626D01*
X70074159Y-123223879D01*
X70168384Y-123184350D01*
X70275052Y-123153649D01*
X70197497Y-123088116D01*
X70191033Y-123041297D01*
X70191033Y-122061395D01*
X70499267Y-122061395D01*
X70600650Y-122086735D01*
X70659920Y-122169304D01*
X70667306Y-122229434D01*
X70667306Y-123433551D01*
X70732895Y-123356638D01*
X70817778Y-123282626D01*
X70914354Y-123223879D01*
X71008580Y-123184350D01*
X71115248Y-123153649D01*
X71037624Y-123088116D01*
X71031228Y-123041297D01*
X71031228Y-122229434D01*
X71022364Y-122116545D01*
X70996584Y-122019210D01*
X70942428Y-121919177D01*
X70866129Y-121842902D01*
X70770067Y-121790085D01*
X70656623Y-121760422D01*
X70554954Y-121753161D01*
X70191033Y-121753161D01*
X70191033Y-121053161D01*
X69827111Y-121053161D01*
X69827111Y-123433551D01*
G37*
G36*
X71991102Y-122796078D02*
G01*
X72007444Y-122904578D01*
X72053210Y-122999882D01*
X72123512Y-123077142D01*
X72213463Y-123131507D01*
X72318174Y-123158129D01*
X72355513Y-123160000D01*
X73565003Y-123160000D01*
X73488089Y-123094413D01*
X73414078Y-123009560D01*
X73355331Y-122913071D01*
X73315802Y-122818988D01*
X73285101Y-122712547D01*
X73219774Y-122789689D01*
X73173238Y-122796078D01*
X72439532Y-122796078D01*
X72359164Y-122737850D01*
X72355513Y-122712547D01*
X72355513Y-121565582D01*
X73173238Y-121565582D01*
X73266837Y-121602195D01*
X73285101Y-121649602D01*
X73315802Y-121543157D01*
X73355331Y-121449052D01*
X73414078Y-121352486D01*
X73488089Y-121267473D01*
X73565003Y-121201660D01*
X72439532Y-121201660D01*
X72330685Y-121188555D01*
X72236037Y-121152253D01*
X72153097Y-121097274D01*
X72079373Y-121028141D01*
X72012373Y-120949373D01*
X71991102Y-120921758D01*
X71991102Y-121201660D01*
X71907083Y-121201660D01*
X71907083Y-121565582D01*
X71991102Y-121565582D01*
X71991102Y-122796078D01*
G37*
G36*
X73654885Y-122572351D02*
G01*
X74243021Y-123160000D01*
X74662631Y-123160000D01*
X75250767Y-122572351D01*
X75250767Y-121312058D01*
X75287380Y-121218459D01*
X75334787Y-121200195D01*
X75228301Y-121169271D01*
X75134108Y-121129621D01*
X75037461Y-121070865D01*
X74952477Y-120996983D01*
X74886846Y-120920293D01*
X74886846Y-122488332D01*
X74522924Y-122852254D01*
X74382728Y-122852254D01*
X74018807Y-122488332D01*
X74018807Y-121312058D01*
X74055419Y-121218459D01*
X74102826Y-121200195D01*
X73996158Y-121169271D01*
X73901933Y-121129621D01*
X73805357Y-121070865D01*
X73720474Y-120996983D01*
X73654885Y-120920293D01*
X73654885Y-122572351D01*
G37*
G36*
X64684613Y-144650090D02*
G01*
X64684613Y-146038855D01*
X64691009Y-146085673D01*
X64768632Y-146151207D01*
X64661965Y-146181907D01*
X64567739Y-146221437D01*
X64471163Y-146280183D01*
X64386280Y-146354195D01*
X64320691Y-146431109D01*
X64320691Y-145722316D01*
X63536671Y-145722316D01*
X63536671Y-146038855D01*
X63543068Y-146085673D01*
X63620691Y-146151207D01*
X63514020Y-146181907D01*
X63419772Y-146221437D01*
X63323119Y-146280183D01*
X63238077Y-146354195D01*
X63172261Y-146431109D01*
X63172261Y-145722316D01*
X63088242Y-145722316D01*
X63088242Y-145414570D01*
X63172261Y-145414570D01*
X63172261Y-144732644D01*
X63536671Y-144732644D01*
X63536671Y-145414570D01*
X64320691Y-145414570D01*
X64320691Y-144732644D01*
X63984613Y-144401451D01*
X63872750Y-144401451D01*
X63536671Y-144732644D01*
X63172261Y-144732644D01*
X63172261Y-144650090D01*
X63533741Y-144292519D01*
X63475476Y-144206896D01*
X63403185Y-144131122D01*
X63323692Y-144065373D01*
X64096476Y-144065373D01*
X64684613Y-144650090D01*
G37*
G36*
X65983496Y-144753161D02*
G01*
X65384124Y-144753161D01*
X65282476Y-144760425D01*
X65169106Y-144790117D01*
X65073148Y-144843025D01*
X64996962Y-144919484D01*
X64942907Y-145019828D01*
X64917183Y-145117527D01*
X64908339Y-145230900D01*
X64908339Y-146048136D01*
X64871727Y-146142079D01*
X64824320Y-146160000D01*
X64930988Y-146190927D01*
X65025213Y-146230599D01*
X65121789Y-146289432D01*
X65206672Y-146363473D01*
X65272261Y-146440390D01*
X65272261Y-146160000D01*
X65983496Y-146160000D01*
X65983496Y-145852254D01*
X65272261Y-145852254D01*
X65272261Y-145230900D01*
X65296019Y-145130562D01*
X65373858Y-145070776D01*
X65440300Y-145061395D01*
X65983496Y-145061395D01*
X65983496Y-144753161D01*
G37*
G36*
X67282868Y-144753161D02*
G01*
X66683496Y-144753161D01*
X66581848Y-144760425D01*
X66468478Y-144790117D01*
X66372520Y-144843025D01*
X66296334Y-144919484D01*
X66242279Y-145019828D01*
X66216555Y-145117527D01*
X66207711Y-145230900D01*
X66207711Y-146048136D01*
X66171099Y-146142079D01*
X66123692Y-146160000D01*
X66230359Y-146190927D01*
X66324585Y-146230599D01*
X66421161Y-146289432D01*
X66506044Y-146363473D01*
X66571633Y-146440390D01*
X66571633Y-146160000D01*
X67282868Y-146160000D01*
X67282868Y-145852254D01*
X66571633Y-145852254D01*
X66571633Y-145230900D01*
X66595391Y-145130562D01*
X66673230Y-145070776D01*
X66739672Y-145061395D01*
X67282868Y-145061395D01*
X67282868Y-144753161D01*
G37*
G36*
X68685799Y-145624131D02*
G01*
X67871005Y-145624131D01*
X67871005Y-145852254D01*
X68685799Y-145852254D01*
X68685799Y-146160000D01*
X67871005Y-146160000D01*
X67871005Y-146440390D01*
X67805416Y-146363473D01*
X67720533Y-146289432D01*
X67623957Y-146230599D01*
X67529731Y-146190927D01*
X67423064Y-146160000D01*
X67470471Y-146142079D01*
X67507083Y-146048136D01*
X67507083Y-145231388D01*
X67871005Y-145231388D01*
X67871005Y-145315896D01*
X68378053Y-145315896D01*
X68378053Y-145061395D01*
X68039044Y-145061395D01*
X67972602Y-145070852D01*
X67894763Y-145130917D01*
X67871005Y-145231388D01*
X67507083Y-145231388D01*
X67515926Y-145117854D01*
X67541651Y-145020034D01*
X67595706Y-144919586D01*
X67671892Y-144843066D01*
X67767850Y-144790128D01*
X67881220Y-144760426D01*
X67982868Y-144753161D01*
X68685799Y-144753161D01*
X68685799Y-145624131D01*
G37*
G36*
X68910014Y-146433551D02*
G01*
X68975603Y-146356638D01*
X69060486Y-146282626D01*
X69157062Y-146223879D01*
X69251288Y-146184350D01*
X69357955Y-146153649D01*
X69280401Y-146088116D01*
X69273936Y-146041297D01*
X69273936Y-145061395D01*
X69582170Y-145061395D01*
X69683553Y-145086735D01*
X69742823Y-145169304D01*
X69750209Y-145229434D01*
X69750209Y-146433551D01*
X69815799Y-146356638D01*
X69900681Y-146282626D01*
X69997257Y-146223879D01*
X70091483Y-146184350D01*
X70198151Y-146153649D01*
X70120527Y-146088116D01*
X70114131Y-146041297D01*
X70114131Y-145229434D01*
X70105267Y-145116545D01*
X70079487Y-145019210D01*
X70025332Y-144919177D01*
X69949032Y-144842902D01*
X69852970Y-144790085D01*
X69739527Y-144760422D01*
X69637858Y-144753161D01*
X68910014Y-144753161D01*
X68910014Y-146433551D01*
G37*
G36*
X70386706Y-144053161D02*
G01*
X70386706Y-144753161D01*
X70280216Y-144753161D01*
X70280216Y-145061395D01*
X70386706Y-145061395D01*
X70386706Y-146160000D01*
X71310921Y-146160000D01*
X71234004Y-146094407D01*
X71159963Y-146009495D01*
X71101130Y-145912832D01*
X71061457Y-145818464D01*
X71030530Y-145711570D01*
X70965272Y-145789605D01*
X70918667Y-145796078D01*
X70750628Y-145796078D01*
X70750628Y-145061395D01*
X71142882Y-145061395D01*
X71142882Y-144753161D01*
X70750628Y-144753161D01*
X70750628Y-144053161D01*
X70386706Y-144053161D01*
G37*
G36*
X77972463Y-68498672D02*
G01*
X78057346Y-68572684D01*
X78153922Y-68631430D01*
X78248148Y-68670960D01*
X78354815Y-68701660D01*
X78307194Y-68719950D01*
X78270796Y-68814012D01*
X78270796Y-70184214D01*
X78261932Y-70297082D01*
X78236151Y-70394363D01*
X78181996Y-70494296D01*
X78105697Y-70570456D01*
X78009635Y-70623170D01*
X77896191Y-70652759D01*
X77794522Y-70660000D01*
X76674425Y-70660000D01*
X76674425Y-70352254D01*
X76758444Y-70352254D01*
X77122854Y-70352254D01*
X77738835Y-70352254D01*
X77805277Y-70342965D01*
X77883116Y-70283718D01*
X77906874Y-70184214D01*
X77906874Y-69065582D01*
X77122854Y-69065582D01*
X77122854Y-70352254D01*
X76758444Y-70352254D01*
X76758444Y-69065582D01*
X76674425Y-69065582D01*
X76674425Y-68701660D01*
X76758444Y-68701660D01*
X76758444Y-68421758D01*
X76779714Y-68449373D01*
X76846715Y-68528141D01*
X76920439Y-68597274D01*
X77003379Y-68652253D01*
X77098026Y-68688555D01*
X77206874Y-68701660D01*
X77906874Y-68701660D01*
X77906874Y-68421758D01*
X77972463Y-68498672D01*
G37*
G36*
X79673238Y-70124131D02*
G01*
X78858444Y-70124131D01*
X78858444Y-70352254D01*
X79673238Y-70352254D01*
X79673238Y-70660000D01*
X78858444Y-70660000D01*
X78858444Y-70940390D01*
X78792855Y-70863473D01*
X78707972Y-70789432D01*
X78611396Y-70730599D01*
X78517171Y-70690927D01*
X78410503Y-70660000D01*
X78457910Y-70642079D01*
X78494522Y-70548136D01*
X78494522Y-69731388D01*
X78858444Y-69731388D01*
X78858444Y-69815896D01*
X79365492Y-69815896D01*
X79365492Y-69561395D01*
X79026483Y-69561395D01*
X78960041Y-69570852D01*
X78882202Y-69630917D01*
X78858444Y-69731388D01*
X78494522Y-69731388D01*
X78503366Y-69617854D01*
X78529090Y-69520034D01*
X78583145Y-69419586D01*
X78659331Y-69343066D01*
X78755289Y-69290128D01*
X78868659Y-69260426D01*
X78970307Y-69253161D01*
X79673238Y-69253161D01*
X79673238Y-70124131D01*
G37*
G36*
X80726966Y-69260425D02*
G01*
X80840409Y-69290117D01*
X80936471Y-69343025D01*
X81012771Y-69419484D01*
X81066926Y-69519828D01*
X81092706Y-69617527D01*
X81101570Y-69730900D01*
X81101570Y-70548136D01*
X81107967Y-70594947D01*
X81185590Y-70660000D01*
X81078922Y-70690322D01*
X80984696Y-70729268D01*
X80888120Y-70787073D01*
X80803238Y-70859862D01*
X80737649Y-70935505D01*
X80737649Y-70660000D01*
X80261375Y-70660000D01*
X80261375Y-71347787D01*
X79897453Y-71347787D01*
X79897453Y-70352254D01*
X80261375Y-70352254D01*
X80737649Y-70352254D01*
X80737649Y-69730900D01*
X80730262Y-69670090D01*
X80670992Y-69586833D01*
X80569609Y-69561395D01*
X80261375Y-69561395D01*
X80261375Y-70352254D01*
X79897453Y-70352254D01*
X79897453Y-69253161D01*
X80625297Y-69253161D01*
X80726966Y-69260425D01*
G37*
G36*
X81374145Y-68553161D02*
G01*
X81374145Y-69253161D01*
X81267656Y-69253161D01*
X81267656Y-69561395D01*
X81374145Y-69561395D01*
X81374145Y-70660000D01*
X82298360Y-70660000D01*
X82221443Y-70594407D01*
X82147402Y-70509495D01*
X82088569Y-70412832D01*
X82048897Y-70318464D01*
X82017970Y-70211570D01*
X81952711Y-70289605D01*
X81906106Y-70296078D01*
X81738067Y-70296078D01*
X81738067Y-69561395D01*
X82130321Y-69561395D01*
X82130321Y-69253161D01*
X81738067Y-69253161D01*
X81738067Y-68553161D01*
X81374145Y-68553161D01*
G37*
G36*
X82394592Y-70933551D02*
G01*
X82460181Y-70856638D01*
X82545064Y-70782626D01*
X82641640Y-70723879D01*
X82735866Y-70684350D01*
X82842533Y-70653649D01*
X82764979Y-70588116D01*
X82758514Y-70541297D01*
X82758514Y-69561395D01*
X83066748Y-69561395D01*
X83168131Y-69586735D01*
X83227401Y-69669304D01*
X83234787Y-69729434D01*
X83234787Y-70933551D01*
X83300377Y-70856638D01*
X83385259Y-70782626D01*
X83481835Y-70723879D01*
X83576061Y-70684350D01*
X83682729Y-70653649D01*
X83605105Y-70588116D01*
X83598709Y-70541297D01*
X83598709Y-69729434D01*
X83589845Y-69616545D01*
X83564065Y-69519210D01*
X83509910Y-69419177D01*
X83433610Y-69342902D01*
X83337548Y-69290085D01*
X83224105Y-69260422D01*
X83122436Y-69253161D01*
X82758514Y-69253161D01*
X82758514Y-68553161D01*
X82394592Y-68553161D01*
X82394592Y-70933551D01*
G37*
G36*
X68429685Y-47998672D02*
G01*
X68514568Y-48072684D01*
X68611144Y-48131430D01*
X68705370Y-48170960D01*
X68812037Y-48201660D01*
X68764416Y-48219950D01*
X68728018Y-48314012D01*
X68728018Y-49168374D01*
X68723551Y-49228869D01*
X68689714Y-49340008D01*
X68626890Y-49433822D01*
X68540141Y-49505290D01*
X68434530Y-49549388D01*
X68335764Y-49561605D01*
X67580076Y-49561605D01*
X67580076Y-50059860D01*
X67586473Y-50106678D01*
X67664096Y-50172212D01*
X67557425Y-50202912D01*
X67463177Y-50242442D01*
X67366524Y-50301188D01*
X67281482Y-50375200D01*
X67215666Y-50452114D01*
X67215666Y-49168374D01*
X67580076Y-49168374D01*
X67583728Y-49194175D01*
X67664096Y-49253370D01*
X68280076Y-49253370D01*
X68305425Y-49249670D01*
X68364096Y-49168374D01*
X68364096Y-48565582D01*
X67580076Y-48565582D01*
X67580076Y-49168374D01*
X67215666Y-49168374D01*
X67215666Y-48565582D01*
X67131647Y-48565582D01*
X67131647Y-48201660D01*
X67215666Y-48201660D01*
X67215666Y-47921758D01*
X67236936Y-47949373D01*
X67303937Y-48028141D01*
X67377661Y-48097274D01*
X67460601Y-48152253D01*
X67555248Y-48188555D01*
X67664096Y-48201660D01*
X68364096Y-48201660D01*
X68364096Y-47921758D01*
X68429685Y-47998672D01*
G37*
G36*
X69315666Y-48617362D02*
G01*
X69315666Y-48252951D01*
X68951744Y-48252951D01*
X68951744Y-48617362D01*
X69315666Y-48617362D01*
G37*
G36*
X69321039Y-48753161D02*
G01*
X68957118Y-48753161D01*
X68957118Y-50433551D01*
X69022930Y-50356638D01*
X69107943Y-50282626D01*
X69204509Y-50223879D01*
X69298614Y-50184350D01*
X69405059Y-50153649D01*
X69327504Y-50088116D01*
X69321039Y-50041297D01*
X69321039Y-48753161D01*
G37*
G36*
X69594103Y-48053161D02*
G01*
X69594103Y-48753161D01*
X69487613Y-48753161D01*
X69487613Y-49061395D01*
X69594103Y-49061395D01*
X69594103Y-50160000D01*
X70518318Y-50160000D01*
X70441401Y-50094407D01*
X70367360Y-50009495D01*
X70308527Y-49912832D01*
X70268854Y-49818464D01*
X70237927Y-49711570D01*
X70172668Y-49789605D01*
X70126064Y-49796078D01*
X69958025Y-49796078D01*
X69958025Y-49061395D01*
X70350279Y-49061395D01*
X70350279Y-48753161D01*
X69958025Y-48753161D01*
X69958025Y-48053161D01*
X69594103Y-48053161D01*
G37*
G36*
X71713154Y-48753161D02*
G01*
X71113782Y-48753161D01*
X71012134Y-48760425D01*
X70898764Y-48790117D01*
X70802806Y-48843025D01*
X70726620Y-48919484D01*
X70672565Y-49019828D01*
X70646840Y-49117527D01*
X70637997Y-49230900D01*
X70637997Y-50048136D01*
X70601384Y-50142079D01*
X70553977Y-50160000D01*
X70660645Y-50190927D01*
X70754871Y-50230599D01*
X70851447Y-50289432D01*
X70936329Y-50363473D01*
X71001919Y-50440390D01*
X71001919Y-50160000D01*
X71713154Y-50160000D01*
X71713154Y-49852254D01*
X71001919Y-49852254D01*
X71001919Y-49230900D01*
X71025676Y-49130562D01*
X71103516Y-49070776D01*
X71169958Y-49061395D01*
X71713154Y-49061395D01*
X71713154Y-48753161D01*
G37*
G36*
X71937369Y-50433551D02*
G01*
X72002958Y-50356638D01*
X72087841Y-50282626D01*
X72184417Y-50223879D01*
X72278642Y-50184350D01*
X72385310Y-50153649D01*
X72307755Y-50088116D01*
X72301291Y-50041297D01*
X72301291Y-49061395D01*
X72609525Y-49061395D01*
X72710908Y-49086735D01*
X72770178Y-49169304D01*
X72777564Y-49229434D01*
X72777564Y-50433551D01*
X72843153Y-50356638D01*
X72928036Y-50282626D01*
X73024612Y-50223879D01*
X73118838Y-50184350D01*
X73225506Y-50153649D01*
X73147882Y-50088116D01*
X73141486Y-50041297D01*
X73141486Y-49229434D01*
X73132622Y-49116545D01*
X73106842Y-49019210D01*
X73052686Y-48919177D01*
X72976387Y-48842902D01*
X72880325Y-48790085D01*
X72766881Y-48760422D01*
X72665212Y-48753161D01*
X72301291Y-48753161D01*
X72301291Y-48053161D01*
X71937369Y-48053161D01*
X71937369Y-50433551D01*
G37*
G36*
X53227669Y-92701660D02*
G01*
X53227669Y-93065582D01*
X53874424Y-93065582D01*
X53874424Y-94941856D01*
X53940013Y-94864942D01*
X54024896Y-94790930D01*
X54121472Y-94732184D01*
X54215698Y-94692654D01*
X54322366Y-94661953D01*
X54244811Y-94596626D01*
X54238346Y-94550090D01*
X54238346Y-93065582D01*
X54666748Y-93065582D01*
X54760810Y-93102195D01*
X54779100Y-93149602D01*
X54809800Y-93043157D01*
X54849330Y-92949052D01*
X54908076Y-92852486D01*
X54982088Y-92767473D01*
X55059002Y-92701660D01*
X54322366Y-92701660D01*
X54213702Y-92688555D01*
X54119111Y-92652253D01*
X54036175Y-92597274D01*
X53962481Y-92528141D01*
X53895614Y-92449373D01*
X53874424Y-92421758D01*
X53874424Y-92701660D01*
X53227669Y-92701660D01*
G37*
G36*
X56075052Y-93253161D02*
G01*
X55711130Y-93253161D01*
X55711130Y-94352254D01*
X55402896Y-94352254D01*
X55301303Y-94326848D01*
X55242202Y-94243821D01*
X55234857Y-94183237D01*
X55234857Y-93253161D01*
X54870935Y-93253161D01*
X54870935Y-94183237D01*
X54879778Y-94296428D01*
X54905503Y-94393950D01*
X54959558Y-94494091D01*
X55035744Y-94570375D01*
X55131702Y-94623148D01*
X55245072Y-94652757D01*
X55346720Y-94660000D01*
X55711130Y-94660000D01*
X55711130Y-94940390D01*
X55776720Y-94863473D01*
X55861602Y-94789432D01*
X55958178Y-94730599D01*
X56052404Y-94690927D01*
X56159072Y-94660000D01*
X56081448Y-94594947D01*
X56075052Y-94548136D01*
X56075052Y-93253161D01*
G37*
G36*
X56297313Y-94933551D02*
G01*
X56362903Y-94856638D01*
X56447785Y-94782626D01*
X56544361Y-94723879D01*
X56638587Y-94684350D01*
X56745255Y-94653649D01*
X56667700Y-94588116D01*
X56661235Y-94541297D01*
X56661235Y-93561395D01*
X56969470Y-93561395D01*
X57070853Y-93586735D01*
X57130122Y-93669304D01*
X57137509Y-93729434D01*
X57137509Y-94933551D01*
X57203098Y-94856638D01*
X57287981Y-94782626D01*
X57384557Y-94723879D01*
X57478782Y-94684350D01*
X57585450Y-94653649D01*
X57507827Y-94588116D01*
X57501431Y-94541297D01*
X57501431Y-93729434D01*
X57492566Y-93616545D01*
X57466786Y-93519210D01*
X57412631Y-93419177D01*
X57336332Y-93342902D01*
X57240269Y-93290085D01*
X57126826Y-93260422D01*
X57025157Y-93253161D01*
X56297313Y-93253161D01*
X56297313Y-94933551D01*
G37*
G36*
X58902407Y-94124131D02*
G01*
X58087613Y-94124131D01*
X58087613Y-94352254D01*
X58902407Y-94352254D01*
X58902407Y-94660000D01*
X58087613Y-94660000D01*
X58087613Y-94940390D01*
X58022024Y-94863473D01*
X57937141Y-94789432D01*
X57840566Y-94730599D01*
X57746340Y-94690927D01*
X57639672Y-94660000D01*
X57687079Y-94642079D01*
X57723692Y-94548136D01*
X57723692Y-93731388D01*
X58087613Y-93731388D01*
X58087613Y-93815896D01*
X58594662Y-93815896D01*
X58594662Y-93561395D01*
X58255652Y-93561395D01*
X58189211Y-93570852D01*
X58111371Y-93630917D01*
X58087613Y-93731388D01*
X57723692Y-93731388D01*
X57732535Y-93617854D01*
X57758260Y-93520034D01*
X57812315Y-93419586D01*
X57888501Y-93343066D01*
X57984458Y-93290128D01*
X58097829Y-93260426D01*
X58199477Y-93253161D01*
X58902407Y-93253161D01*
X58902407Y-94124131D01*
G37*
G36*
X61078255Y-92498672D02*
G01*
X61163138Y-92572684D01*
X61259714Y-92631430D01*
X61353939Y-92670960D01*
X61460607Y-92701660D01*
X61412985Y-92719950D01*
X61376588Y-92814012D01*
X61376588Y-94184214D01*
X61367723Y-94297082D01*
X61341943Y-94394363D01*
X61287788Y-94494296D01*
X61211489Y-94570456D01*
X61115426Y-94623170D01*
X61001983Y-94652759D01*
X60900314Y-94660000D01*
X59780216Y-94660000D01*
X59780216Y-94352254D01*
X59864236Y-94352254D01*
X60228646Y-94352254D01*
X60844627Y-94352254D01*
X60911068Y-94342965D01*
X60988908Y-94283718D01*
X61012666Y-94184214D01*
X61012666Y-93065582D01*
X60228646Y-93065582D01*
X60228646Y-94352254D01*
X59864236Y-94352254D01*
X59864236Y-93065582D01*
X59780216Y-93065582D01*
X59780216Y-92701660D01*
X59864236Y-92701660D01*
X59864236Y-92421758D01*
X59885506Y-92449373D01*
X59952507Y-92528141D01*
X60026231Y-92597274D01*
X60109170Y-92652253D01*
X60203818Y-92688555D01*
X60312666Y-92701660D01*
X61012666Y-92701660D01*
X61012666Y-92421758D01*
X61078255Y-92498672D01*
G37*
G36*
X62779030Y-94124131D02*
G01*
X61964236Y-94124131D01*
X61964236Y-94352254D01*
X62779030Y-94352254D01*
X62779030Y-94660000D01*
X61964236Y-94660000D01*
X61964236Y-94940390D01*
X61898647Y-94863473D01*
X61813764Y-94789432D01*
X61717188Y-94730599D01*
X61622962Y-94690927D01*
X61516294Y-94660000D01*
X61563701Y-94642079D01*
X61600314Y-94548136D01*
X61600314Y-93731388D01*
X61964236Y-93731388D01*
X61964236Y-93815896D01*
X62471284Y-93815896D01*
X62471284Y-93561395D01*
X62132275Y-93561395D01*
X62065833Y-93570852D01*
X61987994Y-93630917D01*
X61964236Y-93731388D01*
X61600314Y-93731388D01*
X61609157Y-93617854D01*
X61634882Y-93520034D01*
X61688937Y-93419586D01*
X61765123Y-93343066D01*
X61861081Y-93290128D01*
X61974451Y-93260426D01*
X62076099Y-93253161D01*
X62779030Y-93253161D01*
X62779030Y-94124131D01*
G37*
G36*
X64078402Y-93253161D02*
G01*
X63479030Y-93253161D01*
X63377382Y-93260425D01*
X63264012Y-93290117D01*
X63168054Y-93343025D01*
X63091868Y-93419484D01*
X63037813Y-93519828D01*
X63012088Y-93617527D01*
X63003245Y-93730900D01*
X63003245Y-94548136D01*
X62966632Y-94642079D01*
X62919225Y-94660000D01*
X63025893Y-94690927D01*
X63120119Y-94730599D01*
X63216695Y-94789432D01*
X63301578Y-94863473D01*
X63367167Y-94940390D01*
X63367167Y-94660000D01*
X64078402Y-94660000D01*
X64078402Y-94352254D01*
X63367167Y-94352254D01*
X63367167Y-93730900D01*
X63390925Y-93630562D01*
X63468764Y-93570776D01*
X63535206Y-93561395D01*
X64078402Y-93561395D01*
X64078402Y-93253161D01*
G37*
G36*
X65562421Y-94940390D02*
G01*
X65541232Y-94912769D01*
X65474364Y-94833931D01*
X65400670Y-94764675D01*
X65317735Y-94709562D01*
X65223143Y-94673150D01*
X65114480Y-94660000D01*
X64666539Y-94660000D01*
X64666539Y-94940390D01*
X64600949Y-94863473D01*
X64516067Y-94789432D01*
X64419491Y-94730599D01*
X64325265Y-94690927D01*
X64218597Y-94660000D01*
X64266004Y-94642079D01*
X64302617Y-94548136D01*
X64302617Y-94209616D01*
X64666539Y-94209616D01*
X64666539Y-94352254D01*
X65198500Y-94352254D01*
X65198500Y-94034738D01*
X64834578Y-94034738D01*
X64760658Y-94047127D01*
X64686327Y-94113643D01*
X64666539Y-94209616D01*
X64302617Y-94209616D01*
X64311460Y-94094490D01*
X64337185Y-93995514D01*
X64391240Y-93894127D01*
X64467426Y-93817108D01*
X64563384Y-93763974D01*
X64676754Y-93734246D01*
X64778402Y-93726992D01*
X65198500Y-93726992D01*
X65198500Y-93617571D01*
X64666539Y-93617571D01*
X64619934Y-93623700D01*
X64554675Y-93697683D01*
X64523748Y-93592823D01*
X64484076Y-93499717D01*
X64425243Y-93403757D01*
X64351202Y-93318951D01*
X64274285Y-93253161D01*
X65562421Y-93253161D01*
X65562421Y-94940390D01*
G37*
G36*
X66989777Y-93253161D02*
G01*
X66625855Y-93253161D01*
X66625855Y-94284842D01*
X66317620Y-94284842D01*
X66216028Y-94259712D01*
X66156926Y-94177639D01*
X66149581Y-94117780D01*
X66149581Y-93253161D01*
X65785659Y-93253161D01*
X65785659Y-94117780D01*
X65794503Y-94230487D01*
X65820227Y-94327646D01*
X65874283Y-94427475D01*
X65950469Y-94503575D01*
X66046426Y-94556258D01*
X66159797Y-94585837D01*
X66261444Y-94593077D01*
X66625855Y-94593077D01*
X66625855Y-94983866D01*
X66149581Y-94983866D01*
X66055767Y-94947587D01*
X66037718Y-94900334D01*
X66006791Y-95006776D01*
X65967118Y-95100859D01*
X65908286Y-95197348D01*
X65834244Y-95282201D01*
X65757327Y-95347787D01*
X66989777Y-95347787D01*
X66989777Y-93253161D01*
G37*
G36*
X74672087Y-98150090D02*
G01*
X74672087Y-99538855D01*
X74678483Y-99585673D01*
X74756106Y-99651207D01*
X74649439Y-99681907D01*
X74555213Y-99721437D01*
X74458637Y-99780183D01*
X74373754Y-99854195D01*
X74308165Y-99931109D01*
X74308165Y-99222316D01*
X73524145Y-99222316D01*
X73524145Y-99538855D01*
X73530542Y-99585673D01*
X73608165Y-99651207D01*
X73501494Y-99681907D01*
X73407246Y-99721437D01*
X73310593Y-99780183D01*
X73225551Y-99854195D01*
X73159735Y-99931109D01*
X73159735Y-99222316D01*
X73075716Y-99222316D01*
X73075716Y-98914570D01*
X73159735Y-98914570D01*
X73159735Y-98232644D01*
X73524145Y-98232644D01*
X73524145Y-98914570D01*
X74308165Y-98914570D01*
X74308165Y-98232644D01*
X73972087Y-97901451D01*
X73860224Y-97901451D01*
X73524145Y-98232644D01*
X73159735Y-98232644D01*
X73159735Y-98150090D01*
X73521215Y-97792519D01*
X73462950Y-97706896D01*
X73390659Y-97631122D01*
X73311166Y-97565373D01*
X74083950Y-97565373D01*
X74672087Y-98150090D01*
G37*
G36*
X74895813Y-99933551D02*
G01*
X74961402Y-99856638D01*
X75046285Y-99782626D01*
X75142861Y-99723879D01*
X75237087Y-99684350D01*
X75343755Y-99653649D01*
X75266200Y-99588116D01*
X75259735Y-99541297D01*
X75259735Y-98561395D01*
X75567970Y-98561395D01*
X75669353Y-98586735D01*
X75728622Y-98669304D01*
X75736009Y-98729434D01*
X75736009Y-99933551D01*
X75801598Y-99856638D01*
X75886481Y-99782626D01*
X75983056Y-99723879D01*
X76077282Y-99684350D01*
X76183950Y-99653649D01*
X76106327Y-99588116D01*
X76099930Y-99541297D01*
X76099930Y-98729434D01*
X76091066Y-98616545D01*
X76065286Y-98519210D01*
X76011131Y-98419177D01*
X75934832Y-98342902D01*
X75838769Y-98290085D01*
X75725326Y-98260422D01*
X75623657Y-98253161D01*
X74895813Y-98253161D01*
X74895813Y-99933551D01*
G37*
G36*
X77581996Y-99940390D02*
G01*
X77560806Y-99912769D01*
X77493939Y-99833931D01*
X77420245Y-99764675D01*
X77337310Y-99709562D01*
X77242718Y-99673150D01*
X77134055Y-99660000D01*
X76686113Y-99660000D01*
X76686113Y-99940390D01*
X76620524Y-99863473D01*
X76535641Y-99789432D01*
X76439065Y-99730599D01*
X76344840Y-99690927D01*
X76238172Y-99660000D01*
X76285579Y-99642079D01*
X76322191Y-99548136D01*
X76322191Y-99209616D01*
X76686113Y-99209616D01*
X76686113Y-99352254D01*
X77218074Y-99352254D01*
X77218074Y-99034738D01*
X76854152Y-99034738D01*
X76780233Y-99047127D01*
X76705901Y-99113643D01*
X76686113Y-99209616D01*
X76322191Y-99209616D01*
X76331035Y-99094490D01*
X76356759Y-98995514D01*
X76410815Y-98894127D01*
X76487001Y-98817108D01*
X76582958Y-98763974D01*
X76696329Y-98734246D01*
X76797977Y-98726992D01*
X77218074Y-98726992D01*
X77218074Y-98617571D01*
X76686113Y-98617571D01*
X76639509Y-98623700D01*
X76574250Y-98697683D01*
X76543323Y-98592823D01*
X76503651Y-98499717D01*
X76444818Y-98403757D01*
X76370776Y-98318951D01*
X76293859Y-98253161D01*
X77581996Y-98253161D01*
X77581996Y-99940390D01*
G37*
G36*
X78169156Y-97561465D02*
G01*
X77805234Y-97561465D01*
X77805234Y-99941367D01*
X77870823Y-99864677D01*
X77955706Y-99790795D01*
X78052282Y-99732039D01*
X78146508Y-99692389D01*
X78253175Y-99661465D01*
X78175621Y-99596206D01*
X78169156Y-99549602D01*
X78169156Y-97561465D01*
G37*
G36*
X79394930Y-98268203D02*
G01*
X79487663Y-98313046D01*
X79564951Y-98387267D01*
X79627225Y-98490443D01*
X79664334Y-98586571D01*
X79693420Y-98698568D01*
X79714664Y-98826257D01*
X79728247Y-98969458D01*
X79733135Y-99073455D01*
X79734753Y-99184214D01*
X79725888Y-99297082D01*
X79700108Y-99394363D01*
X79645953Y-99494296D01*
X79569654Y-99570456D01*
X79473591Y-99623170D01*
X79360148Y-99652759D01*
X79258479Y-99660000D01*
X78855478Y-99660000D01*
X78753809Y-99652759D01*
X78640366Y-99623170D01*
X78544304Y-99570456D01*
X78468004Y-99494296D01*
X78413849Y-99394363D01*
X78388069Y-99297082D01*
X78379205Y-99184214D01*
X78380822Y-99073455D01*
X78381208Y-99065245D01*
X78770139Y-99065245D01*
X78771459Y-99184214D01*
X78778804Y-99244345D01*
X78837905Y-99326914D01*
X78939498Y-99352254D01*
X79174459Y-99352254D01*
X79240901Y-99342896D01*
X79318741Y-99283501D01*
X79342499Y-99184214D01*
X79343025Y-99130568D01*
X79343788Y-99017038D01*
X79340979Y-98914379D01*
X79331935Y-98810706D01*
X79307373Y-98693060D01*
X79262706Y-98604682D01*
X79174459Y-98561395D01*
X78939498Y-98561395D01*
X78889985Y-98572834D01*
X78821503Y-98653236D01*
X78789600Y-98761232D01*
X78776379Y-98862120D01*
X78770880Y-98966383D01*
X78770139Y-99065245D01*
X78381208Y-99065245D01*
X78385710Y-98969458D01*
X78399288Y-98826257D01*
X78420522Y-98698568D01*
X78449590Y-98586571D01*
X78486672Y-98490443D01*
X78548887Y-98387267D01*
X78626088Y-98313046D01*
X78718700Y-98268203D01*
X78827146Y-98253161D01*
X79286323Y-98253161D01*
X79394930Y-98268203D01*
G37*
G36*
X81148919Y-100347787D02*
G01*
X79860782Y-100345345D01*
X79937696Y-100279539D01*
X80011707Y-100194585D01*
X80070454Y-100098192D01*
X80109984Y-100004372D01*
X80140684Y-99898381D01*
X80158948Y-99945264D01*
X80252547Y-99981423D01*
X80784997Y-99981423D01*
X80784997Y-99566210D01*
X80308723Y-99566210D01*
X80308723Y-99843182D01*
X80243134Y-99767264D01*
X80158251Y-99694154D01*
X80061675Y-99636028D01*
X79967450Y-99596808D01*
X79860782Y-99566210D01*
X79908189Y-99548290D01*
X79944801Y-99454347D01*
X79944801Y-98728946D01*
X80308723Y-98728946D01*
X80308723Y-99258464D01*
X80784997Y-99258464D01*
X80784997Y-98561395D01*
X80476762Y-98561395D01*
X80410321Y-98570676D01*
X80332481Y-98629793D01*
X80308723Y-98728946D01*
X79944801Y-98728946D01*
X79953645Y-98616218D01*
X79979369Y-98519004D01*
X80033425Y-98419075D01*
X80109611Y-98342862D01*
X80205568Y-98290074D01*
X80318938Y-98260421D01*
X80420586Y-98253161D01*
X81148919Y-98253161D01*
X81148919Y-100347787D01*
G37*
G36*
X82722331Y-99061605D02*
G01*
X83444801Y-100165094D01*
X83457110Y-100065083D01*
X83487245Y-99956898D01*
X83535419Y-99854648D01*
X83591907Y-99769170D01*
X83663154Y-99683447D01*
X83565541Y-99671494D01*
X83534194Y-99635575D01*
X83156106Y-99061605D01*
X83173203Y-99061605D01*
X83271775Y-99049394D01*
X83377230Y-99005350D01*
X83463891Y-98934042D01*
X83526675Y-98840552D01*
X83560502Y-98729960D01*
X83564969Y-98669839D01*
X83564969Y-97823782D01*
X83601581Y-97730182D01*
X83648988Y-97711919D01*
X83542502Y-97681218D01*
X83448310Y-97641688D01*
X83351663Y-97582942D01*
X83266678Y-97508930D01*
X83201047Y-97432016D01*
X83201047Y-98669839D01*
X83142558Y-98749722D01*
X83117027Y-98753370D01*
X82501047Y-98753370D01*
X82420721Y-98695143D01*
X82417027Y-98669839D01*
X82417027Y-97823782D01*
X82453640Y-97730182D01*
X82501047Y-97711919D01*
X82394379Y-97681218D01*
X82300153Y-97641688D01*
X82203578Y-97582942D01*
X82118695Y-97508930D01*
X82053106Y-97432016D01*
X82053106Y-99952114D01*
X82118695Y-99875200D01*
X82203578Y-99801188D01*
X82300153Y-99742442D01*
X82394379Y-99702912D01*
X82501047Y-99672212D01*
X82423492Y-99606678D01*
X82417027Y-99559860D01*
X82417027Y-99061605D01*
X82722331Y-99061605D01*
G37*
G36*
X84165806Y-98117362D02*
G01*
X84165806Y-97752951D01*
X83801884Y-97752951D01*
X83801884Y-98117362D01*
X84165806Y-98117362D01*
G37*
G36*
X84171180Y-98253161D02*
G01*
X83807258Y-98253161D01*
X83807258Y-99933551D01*
X83873070Y-99856638D01*
X83958083Y-99782626D01*
X84054649Y-99723879D01*
X84148755Y-99684350D01*
X84255199Y-99653649D01*
X84177644Y-99588116D01*
X84171180Y-99541297D01*
X84171180Y-98253161D01*
G37*
G36*
X85469086Y-98253161D02*
G01*
X84869714Y-98253161D01*
X84768066Y-98260425D01*
X84654696Y-98290117D01*
X84558738Y-98343025D01*
X84482552Y-98419484D01*
X84428497Y-98519828D01*
X84402772Y-98617527D01*
X84393929Y-98730900D01*
X84393929Y-99548136D01*
X84357317Y-99642079D01*
X84309910Y-99660000D01*
X84416577Y-99690927D01*
X84510803Y-99730599D01*
X84607379Y-99789432D01*
X84692262Y-99863473D01*
X84757851Y-99940390D01*
X84757851Y-99660000D01*
X85469086Y-99660000D01*
X85469086Y-99352254D01*
X84757851Y-99352254D01*
X84757851Y-98730900D01*
X84781609Y-98630562D01*
X84859448Y-98570776D01*
X84925890Y-98561395D01*
X85469086Y-98561395D01*
X85469086Y-98253161D01*
G37*
G36*
X85693301Y-99945275D02*
G01*
X85758890Y-99868358D01*
X85843773Y-99794317D01*
X85940349Y-99735484D01*
X86034575Y-99695811D01*
X86141242Y-99664884D01*
X86063688Y-99599626D01*
X86057223Y-99553021D01*
X86057223Y-98967815D01*
X86365457Y-98967815D01*
X86466840Y-98993155D01*
X86526110Y-99075724D01*
X86533496Y-99135854D01*
X86533496Y-99945275D01*
X86599086Y-99868358D01*
X86683968Y-99794317D01*
X86780544Y-99735484D01*
X86874770Y-99695811D01*
X86981438Y-99664884D01*
X86903814Y-99599626D01*
X86897418Y-99553021D01*
X86897418Y-99135854D01*
X86890591Y-99036704D01*
X86865239Y-98933293D01*
X86813956Y-98833796D01*
X86741636Y-98756695D01*
X86650733Y-98701591D01*
X86922331Y-98253161D01*
X86533496Y-98253161D01*
X86289742Y-98659581D01*
X86057223Y-98659581D01*
X86057223Y-97553161D01*
X85693301Y-97553161D01*
X85693301Y-99945275D01*
G37*
G36*
X54429685Y-123498672D02*
G01*
X54514568Y-123572684D01*
X54611144Y-123631430D01*
X54705370Y-123670960D01*
X54812037Y-123701660D01*
X54764416Y-123719950D01*
X54728018Y-123814012D01*
X54728018Y-124668374D01*
X54723551Y-124728869D01*
X54689714Y-124840008D01*
X54626890Y-124933822D01*
X54540141Y-125005290D01*
X54434530Y-125049388D01*
X54335764Y-125061605D01*
X53580076Y-125061605D01*
X53580076Y-125559860D01*
X53586473Y-125606678D01*
X53664096Y-125672212D01*
X53557425Y-125702912D01*
X53463177Y-125742442D01*
X53366524Y-125801188D01*
X53281482Y-125875200D01*
X53215666Y-125952114D01*
X53215666Y-124668374D01*
X53580076Y-124668374D01*
X53583728Y-124694175D01*
X53664096Y-124753370D01*
X54280076Y-124753370D01*
X54305425Y-124749670D01*
X54364096Y-124668374D01*
X54364096Y-124065582D01*
X53580076Y-124065582D01*
X53580076Y-124668374D01*
X53215666Y-124668374D01*
X53215666Y-124065582D01*
X53131647Y-124065582D01*
X53131647Y-123701660D01*
X53215666Y-123701660D01*
X53215666Y-123421758D01*
X53236936Y-123449373D01*
X53303937Y-123528141D01*
X53377661Y-123597274D01*
X53460601Y-123652253D01*
X53555248Y-123688555D01*
X53664096Y-123701660D01*
X54364096Y-123701660D01*
X54364096Y-123421758D01*
X54429685Y-123498672D01*
G37*
G36*
X55315666Y-124117362D02*
G01*
X55315666Y-123752951D01*
X54951744Y-123752951D01*
X54951744Y-124117362D01*
X55315666Y-124117362D01*
G37*
G36*
X55321039Y-124253161D02*
G01*
X54957118Y-124253161D01*
X54957118Y-125933551D01*
X55022930Y-125856638D01*
X55107943Y-125782626D01*
X55204509Y-125723879D01*
X55298614Y-125684350D01*
X55405059Y-125653649D01*
X55327504Y-125588116D01*
X55321039Y-125541297D01*
X55321039Y-124253161D01*
G37*
G36*
X55594103Y-123553161D02*
G01*
X55594103Y-124253161D01*
X55487613Y-124253161D01*
X55487613Y-124561395D01*
X55594103Y-124561395D01*
X55594103Y-125660000D01*
X56518318Y-125660000D01*
X56441401Y-125594407D01*
X56367360Y-125509495D01*
X56308527Y-125412832D01*
X56268854Y-125318464D01*
X56237927Y-125211570D01*
X56172668Y-125289605D01*
X56126064Y-125296078D01*
X55958025Y-125296078D01*
X55958025Y-124561395D01*
X56350279Y-124561395D01*
X56350279Y-124253161D01*
X55958025Y-124253161D01*
X55958025Y-123553161D01*
X55594103Y-123553161D01*
G37*
G36*
X57713154Y-124253161D02*
G01*
X57113782Y-124253161D01*
X57012134Y-124260425D01*
X56898764Y-124290117D01*
X56802806Y-124343025D01*
X56726620Y-124419484D01*
X56672565Y-124519828D01*
X56646840Y-124617527D01*
X56637997Y-124730900D01*
X56637997Y-125548136D01*
X56601384Y-125642079D01*
X56553977Y-125660000D01*
X56660645Y-125690927D01*
X56754871Y-125730599D01*
X56851447Y-125789432D01*
X56936329Y-125863473D01*
X57001919Y-125940390D01*
X57001919Y-125660000D01*
X57713154Y-125660000D01*
X57713154Y-125352254D01*
X57001919Y-125352254D01*
X57001919Y-124730900D01*
X57025676Y-124630562D01*
X57103516Y-124570776D01*
X57169958Y-124561395D01*
X57713154Y-124561395D01*
X57713154Y-124253161D01*
G37*
G36*
X57937369Y-125933551D02*
G01*
X58002958Y-125856638D01*
X58087841Y-125782626D01*
X58184417Y-125723879D01*
X58278642Y-125684350D01*
X58385310Y-125653649D01*
X58307755Y-125588116D01*
X58301291Y-125541297D01*
X58301291Y-124561395D01*
X58609525Y-124561395D01*
X58710908Y-124586735D01*
X58770178Y-124669304D01*
X58777564Y-124729434D01*
X58777564Y-125933551D01*
X58843153Y-125856638D01*
X58928036Y-125782626D01*
X59024612Y-125723879D01*
X59118838Y-125684350D01*
X59225506Y-125653649D01*
X59147882Y-125588116D01*
X59141486Y-125541297D01*
X59141486Y-124729434D01*
X59132622Y-124616545D01*
X59106842Y-124519210D01*
X59052686Y-124419177D01*
X58976387Y-124342902D01*
X58880325Y-124290085D01*
X58766881Y-124260422D01*
X58665212Y-124253161D01*
X58301291Y-124253161D01*
X58301291Y-123553161D01*
X57937369Y-123553161D01*
X57937369Y-125933551D01*
G37*
G36*
X51970028Y-144201660D02*
G01*
X51970028Y-144565582D01*
X52616783Y-144565582D01*
X52616783Y-146441856D01*
X52682372Y-146364942D01*
X52767255Y-146290930D01*
X52863831Y-146232184D01*
X52958057Y-146192654D01*
X53064725Y-146161953D01*
X52987170Y-146096626D01*
X52980705Y-146050090D01*
X52980705Y-144565582D01*
X53409107Y-144565582D01*
X53503169Y-144602195D01*
X53521459Y-144649602D01*
X53552159Y-144543157D01*
X53591689Y-144449052D01*
X53650435Y-144352486D01*
X53724447Y-144267473D01*
X53801361Y-144201660D01*
X53064725Y-144201660D01*
X52956061Y-144188555D01*
X52861470Y-144152253D01*
X52778534Y-144097274D01*
X52704840Y-144028141D01*
X52637973Y-143949373D01*
X52616783Y-143921758D01*
X52616783Y-144201660D01*
X51970028Y-144201660D01*
G37*
G36*
X53977216Y-145243600D02*
G01*
X54001549Y-145145216D01*
X54076595Y-145077863D01*
X54159421Y-145061395D01*
X54478402Y-145061395D01*
X54478402Y-144753161D01*
X54131089Y-144753161D01*
X54019642Y-144762688D01*
X53919117Y-144790454D01*
X53830727Y-144835232D01*
X53739156Y-144913263D01*
X53670813Y-145013571D01*
X53634456Y-145108248D01*
X53615696Y-145214425D01*
X53613294Y-145271444D01*
X53613294Y-146433551D01*
X53678883Y-146356638D01*
X53763766Y-146282626D01*
X53860342Y-146223879D01*
X53954568Y-146184350D01*
X54061235Y-146153649D01*
X53983681Y-146088116D01*
X53977216Y-146041297D01*
X53977216Y-145243600D01*
G37*
G36*
X54981542Y-144617362D02*
G01*
X54981542Y-144252951D01*
X54617621Y-144252951D01*
X54617621Y-144617362D01*
X54981542Y-144617362D01*
G37*
G36*
X54986916Y-144753161D02*
G01*
X54622994Y-144753161D01*
X54622994Y-146433551D01*
X54688806Y-146356638D01*
X54773819Y-146282626D01*
X54870385Y-146223879D01*
X54964491Y-146184350D01*
X55070935Y-146153649D01*
X54993381Y-146088116D01*
X54986916Y-146041297D01*
X54986916Y-144753161D01*
G37*
G36*
X56413783Y-146847787D02*
G01*
X55125646Y-146845345D01*
X55202560Y-146779539D01*
X55276571Y-146694585D01*
X55335318Y-146598192D01*
X55374848Y-146504372D01*
X55405548Y-146398381D01*
X55423812Y-146445264D01*
X55517411Y-146481423D01*
X56049861Y-146481423D01*
X56049861Y-146066210D01*
X55573587Y-146066210D01*
X55573587Y-146343182D01*
X55507998Y-146267264D01*
X55423115Y-146194154D01*
X55326539Y-146136028D01*
X55232314Y-146096808D01*
X55125646Y-146066210D01*
X55173053Y-146048290D01*
X55209665Y-145954347D01*
X55209665Y-145228946D01*
X55573587Y-145228946D01*
X55573587Y-145758464D01*
X56049861Y-145758464D01*
X56049861Y-145061395D01*
X55741626Y-145061395D01*
X55675185Y-145070676D01*
X55597345Y-145129793D01*
X55573587Y-145228946D01*
X55209665Y-145228946D01*
X55218509Y-145116218D01*
X55244233Y-145019004D01*
X55298289Y-144919075D01*
X55374474Y-144842862D01*
X55470432Y-144790074D01*
X55583802Y-144760421D01*
X55685450Y-144753161D01*
X56413783Y-144753161D01*
X56413783Y-146847787D01*
G37*
G36*
X57840161Y-146847787D02*
G01*
X56552024Y-146845345D01*
X56628938Y-146779539D01*
X56702950Y-146694585D01*
X56761696Y-146598192D01*
X56801226Y-146504372D01*
X56831926Y-146398381D01*
X56850190Y-146445264D01*
X56943790Y-146481423D01*
X57476239Y-146481423D01*
X57476239Y-146066210D01*
X56999965Y-146066210D01*
X56999965Y-146343182D01*
X56934376Y-146267264D01*
X56849493Y-146194154D01*
X56752918Y-146136028D01*
X56658692Y-146096808D01*
X56552024Y-146066210D01*
X56599431Y-146048290D01*
X56636044Y-145954347D01*
X56636044Y-145228946D01*
X56999965Y-145228946D01*
X56999965Y-145758464D01*
X57476239Y-145758464D01*
X57476239Y-145061395D01*
X57168004Y-145061395D01*
X57101563Y-145070676D01*
X57023723Y-145129793D01*
X56999965Y-145228946D01*
X56636044Y-145228946D01*
X56644887Y-145116218D01*
X56670612Y-145019004D01*
X56724667Y-144919075D01*
X56800853Y-144842862D01*
X56896810Y-144790074D01*
X57010181Y-144760421D01*
X57111829Y-144753161D01*
X57840161Y-144753161D01*
X57840161Y-146847787D01*
G37*
G36*
X59241138Y-145624131D02*
G01*
X58426344Y-145624131D01*
X58426344Y-145852254D01*
X59241138Y-145852254D01*
X59241138Y-146160000D01*
X58426344Y-146160000D01*
X58426344Y-146440390D01*
X58360754Y-146363473D01*
X58275872Y-146289432D01*
X58179296Y-146230599D01*
X58085070Y-146190927D01*
X57978402Y-146160000D01*
X58025809Y-146142079D01*
X58062422Y-146048136D01*
X58062422Y-145231388D01*
X58426344Y-145231388D01*
X58426344Y-145315896D01*
X58933392Y-145315896D01*
X58933392Y-145061395D01*
X58594383Y-145061395D01*
X58527941Y-145070852D01*
X58450101Y-145130917D01*
X58426344Y-145231388D01*
X58062422Y-145231388D01*
X58071265Y-145117854D01*
X58096990Y-145020034D01*
X58151045Y-144919586D01*
X58227231Y-144843066D01*
X58323189Y-144790128D01*
X58436559Y-144760426D01*
X58538207Y-144753161D01*
X59241138Y-144753161D01*
X59241138Y-145624131D01*
G37*
G36*
X59829275Y-145243600D02*
G01*
X59853608Y-145145216D01*
X59928654Y-145077863D01*
X60011480Y-145061395D01*
X60330461Y-145061395D01*
X60330461Y-144753161D01*
X59983148Y-144753161D01*
X59871700Y-144762688D01*
X59771175Y-144790454D01*
X59682786Y-144835232D01*
X59591214Y-144913263D01*
X59522871Y-145013571D01*
X59486515Y-145108248D01*
X59467755Y-145214425D01*
X59465353Y-145271444D01*
X59465353Y-146433551D01*
X59530942Y-146356638D01*
X59615825Y-146282626D01*
X59712401Y-146223879D01*
X59806626Y-146184350D01*
X59913294Y-146153649D01*
X59835739Y-146088116D01*
X59829275Y-146041297D01*
X59829275Y-145243600D01*
G37*
X50000000Y-163250000D02*
X90300000Y-163250000D01*
X90300000Y-46750000D02*
X50000000Y-46750000D01*
D11*
G36*
X80773371Y-101502925D02*
G01*
X80758379Y-101517450D01*
X80738236Y-101523915D01*
X80576212Y-101560704D01*
X80365236Y-101591129D01*
X80099097Y-101615571D01*
X79771583Y-101634411D01*
X79376481Y-101648030D01*
X78907579Y-101656809D01*
X78513539Y-101660390D01*
X77139903Y-101668420D01*
X78642736Y-101697036D01*
X79018938Y-101703409D01*
X79461178Y-101709575D01*
X79950826Y-101715352D01*
X80469253Y-101720558D01*
X80997831Y-101725012D01*
X81517930Y-101728532D01*
X82010922Y-101730938D01*
X82177569Y-101731494D01*
X82839306Y-101734442D01*
X83427335Y-101739245D01*
X83940337Y-101745864D01*
X84376993Y-101754259D01*
X84735983Y-101764391D01*
X85015991Y-101776220D01*
X85215696Y-101789708D01*
X85333780Y-101804813D01*
X85368925Y-101821498D01*
X85363128Y-101826788D01*
X85312937Y-101831940D01*
X85184016Y-101837434D01*
X84982299Y-101843181D01*
X84713722Y-101849089D01*
X84384219Y-101855068D01*
X83999727Y-101861030D01*
X83566179Y-101866883D01*
X83089511Y-101872538D01*
X82575658Y-101877905D01*
X82030556Y-101882893D01*
X81460139Y-101887413D01*
X81284719Y-101888666D01*
X80689565Y-101893046D01*
X80105088Y-101897805D01*
X79538625Y-101902856D01*
X78997511Y-101908115D01*
X78489082Y-101913497D01*
X78020676Y-101918916D01*
X77599629Y-101924287D01*
X77233278Y-101929525D01*
X76928958Y-101934545D01*
X76694006Y-101939261D01*
X76535758Y-101943588D01*
X76526070Y-101943936D01*
X76451996Y-101948357D01*
X76459930Y-101953044D01*
X76547214Y-101957954D01*
X76711191Y-101963044D01*
X76949202Y-101968270D01*
X77258590Y-101973591D01*
X77636696Y-101978962D01*
X78080863Y-101984340D01*
X78588433Y-101989683D01*
X79156748Y-101994947D01*
X79783150Y-102000090D01*
X80166736Y-102002961D01*
X80986832Y-102009115D01*
X81725870Y-102015151D01*
X82387460Y-102021148D01*
X82975211Y-102027187D01*
X83492731Y-102033348D01*
X83943631Y-102039712D01*
X84331517Y-102046359D01*
X84660001Y-102053369D01*
X84932690Y-102060822D01*
X85153194Y-102068798D01*
X85325122Y-102077379D01*
X85452083Y-102086643D01*
X85537686Y-102096672D01*
X85585539Y-102107546D01*
X85599253Y-102119345D01*
X85596643Y-102123719D01*
X85549637Y-102129767D01*
X85424306Y-102136389D01*
X85226988Y-102143491D01*
X84964022Y-102150982D01*
X84641746Y-102158766D01*
X84266499Y-102166753D01*
X83844620Y-102174849D01*
X83382448Y-102182960D01*
X82886320Y-102190994D01*
X82362576Y-102198858D01*
X81817554Y-102206459D01*
X81257594Y-102213704D01*
X80689032Y-102220500D01*
X80118209Y-102226754D01*
X79551464Y-102232373D01*
X78995133Y-102237264D01*
X78455556Y-102241334D01*
X77939072Y-102244490D01*
X77452019Y-102246640D01*
X77161070Y-102247440D01*
X76760265Y-102249087D01*
X76402220Y-102252232D01*
X76093598Y-102256716D01*
X75841060Y-102262379D01*
X75651268Y-102269063D01*
X75530883Y-102276609D01*
X75486568Y-102284856D01*
X75488903Y-102287360D01*
X75549456Y-102295732D01*
X75684674Y-102303599D01*
X75884556Y-102310720D01*
X76139103Y-102316855D01*
X76438313Y-102321765D01*
X76772186Y-102325210D01*
X77130720Y-102326949D01*
X77139903Y-102326968D01*
X77545066Y-102328289D01*
X77992494Y-102330618D01*
X78475517Y-102333866D01*
X78987464Y-102337942D01*
X79521666Y-102342756D01*
X80071450Y-102348218D01*
X80630149Y-102354238D01*
X81191090Y-102360725D01*
X81747605Y-102367589D01*
X82293021Y-102374741D01*
X82820670Y-102382089D01*
X83323880Y-102389543D01*
X83795981Y-102397014D01*
X84230304Y-102404412D01*
X84620177Y-102411645D01*
X84958931Y-102418624D01*
X85239894Y-102425258D01*
X85456398Y-102431458D01*
X85601770Y-102437133D01*
X85669342Y-102442193D01*
X85670069Y-102442329D01*
X85818236Y-102471346D01*
X85627736Y-102502650D01*
X85577842Y-102507556D01*
X85485030Y-102512680D01*
X85346770Y-102518063D01*
X85160535Y-102523748D01*
X84923795Y-102529777D01*
X84634022Y-102536191D01*
X84288689Y-102543032D01*
X83885265Y-102550343D01*
X83421224Y-102558166D01*
X82894036Y-102566541D01*
X82301173Y-102575512D01*
X81640107Y-102585120D01*
X80908309Y-102595407D01*
X80103250Y-102606415D01*
X79222404Y-102618186D01*
X78263240Y-102630762D01*
X77223230Y-102644184D01*
X76661658Y-102651359D01*
X76246676Y-102656946D01*
X75859004Y-102662746D01*
X75506555Y-102668600D01*
X75197243Y-102674350D01*
X74938982Y-102679836D01*
X74739685Y-102684899D01*
X74607267Y-102689378D01*
X74549641Y-102693116D01*
X74547839Y-102693907D01*
X74591483Y-102696668D01*
X74713764Y-102700251D01*
X74908656Y-102704563D01*
X75170134Y-102709507D01*
X75492173Y-102714990D01*
X75868748Y-102720916D01*
X76293833Y-102727191D01*
X76761404Y-102733719D01*
X77265434Y-102740407D01*
X77799900Y-102747158D01*
X78349251Y-102753766D01*
X79392817Y-102766332D01*
X80353006Y-102778565D01*
X81231109Y-102790493D01*
X82028413Y-102802141D01*
X82746210Y-102813539D01*
X83385787Y-102824712D01*
X83948435Y-102835687D01*
X84435442Y-102846493D01*
X84848099Y-102857157D01*
X85187694Y-102867704D01*
X85455518Y-102878164D01*
X85652858Y-102888562D01*
X85781006Y-102898926D01*
X85841249Y-102909284D01*
X85845811Y-102911835D01*
X85851359Y-102924727D01*
X85838907Y-102936739D01*
X85804901Y-102947971D01*
X85745792Y-102958523D01*
X85658028Y-102968497D01*
X85538058Y-102977993D01*
X85382332Y-102987112D01*
X85187297Y-102995953D01*
X84949404Y-103004618D01*
X84665100Y-103013208D01*
X84330836Y-103021822D01*
X83943060Y-103030562D01*
X83498220Y-103039528D01*
X82992766Y-103048820D01*
X82423147Y-103058540D01*
X81785812Y-103068787D01*
X81077210Y-103079663D01*
X80293789Y-103091267D01*
X79432000Y-103103701D01*
X78711163Y-103113927D01*
X78120288Y-103122426D01*
X77553602Y-103130900D01*
X77016803Y-103139245D01*
X76515594Y-103147360D01*
X76055675Y-103155139D01*
X75642747Y-103162482D01*
X75282510Y-103169283D01*
X74980667Y-103175441D01*
X74742917Y-103180852D01*
X74574961Y-103185414D01*
X74482501Y-103189022D01*
X74465614Y-103190705D01*
X74500952Y-103197807D01*
X74619680Y-103205530D01*
X74820526Y-103213848D01*
X75102214Y-103222732D01*
X75463473Y-103232154D01*
X75903028Y-103242088D01*
X76419605Y-103252504D01*
X77011931Y-103263375D01*
X77678733Y-103274673D01*
X78418736Y-103286372D01*
X79230668Y-103298442D01*
X79743403Y-103305733D01*
X80703870Y-103319674D01*
X81580315Y-103333433D01*
X82373384Y-103347027D01*
X83083719Y-103360474D01*
X83711967Y-103373789D01*
X84258771Y-103386991D01*
X84724776Y-103400095D01*
X85110626Y-103413119D01*
X85416968Y-103426080D01*
X85644444Y-103438995D01*
X85793699Y-103451880D01*
X85865378Y-103464752D01*
X85869065Y-103466444D01*
X85914320Y-103499019D01*
X85887368Y-103519019D01*
X85838804Y-103530440D01*
X85762625Y-103541853D01*
X85642172Y-103553114D01*
X85474635Y-103564295D01*
X85257205Y-103575470D01*
X84987073Y-103586714D01*
X84661431Y-103598098D01*
X84277468Y-103609698D01*
X83832376Y-103621585D01*
X83323345Y-103633834D01*
X82747567Y-103646519D01*
X82102232Y-103659712D01*
X81384531Y-103673487D01*
X80591655Y-103687917D01*
X79720795Y-103703077D01*
X78769141Y-103719039D01*
X78388736Y-103725281D01*
X77903016Y-103733538D01*
X77423844Y-103742307D01*
X76961176Y-103751366D01*
X76524969Y-103760494D01*
X76125180Y-103769467D01*
X75771765Y-103778064D01*
X75474682Y-103786063D01*
X75243887Y-103793241D01*
X75107903Y-103798502D01*
X74430570Y-103829235D01*
X74875070Y-103859256D01*
X74985618Y-103864648D01*
X75173620Y-103871334D01*
X75431877Y-103879140D01*
X75753189Y-103887891D01*
X76130357Y-103897416D01*
X76556180Y-103907541D01*
X77023459Y-103918092D01*
X77524995Y-103928896D01*
X78053588Y-103939780D01*
X78602037Y-103950571D01*
X78917903Y-103956560D01*
X79895088Y-103975166D01*
X80802353Y-103993130D01*
X81638393Y-104010417D01*
X82401900Y-104026993D01*
X83091567Y-104042825D01*
X83706090Y-104057879D01*
X84244160Y-104072123D01*
X84704472Y-104085521D01*
X85085719Y-104098041D01*
X85386595Y-104109649D01*
X85605793Y-104120312D01*
X85742007Y-104129995D01*
X85765319Y-104132554D01*
X85898447Y-104158799D01*
X85960808Y-104192181D01*
X85947282Y-104227922D01*
X85892319Y-104251078D01*
X85805529Y-104265314D01*
X85640769Y-104280645D01*
X85404726Y-104296774D01*
X85104085Y-104313403D01*
X84745533Y-104330235D01*
X84335756Y-104346973D01*
X83881439Y-104363321D01*
X83389269Y-104378980D01*
X82865931Y-104393654D01*
X82452736Y-104403934D01*
X82070422Y-104412890D01*
X81617642Y-104423423D01*
X81108574Y-104435206D01*
X80557396Y-104447915D01*
X79978289Y-104461222D01*
X79385429Y-104474802D01*
X78792997Y-104488330D01*
X78215170Y-104501479D01*
X77732570Y-104512420D01*
X77239730Y-104523953D01*
X76766705Y-104535754D01*
X76321126Y-104547589D01*
X75910624Y-104559220D01*
X75542831Y-104570410D01*
X75225378Y-104580923D01*
X74965896Y-104590523D01*
X74772017Y-104598971D01*
X74651373Y-104606032D01*
X74621070Y-104608945D01*
X74527833Y-104622567D01*
X74486863Y-104633023D01*
X74505216Y-104642022D01*
X74589943Y-104651272D01*
X74748099Y-104662483D01*
X74875070Y-104670484D01*
X75080946Y-104681303D01*
X75367402Y-104693340D01*
X75730360Y-104706481D01*
X76165744Y-104720610D01*
X76669477Y-104735612D01*
X77237481Y-104751370D01*
X77865679Y-104767771D01*
X78549996Y-104784697D01*
X79286354Y-104802035D01*
X80070675Y-104819668D01*
X80399569Y-104826836D01*
X81042343Y-104841208D01*
X81669907Y-104856184D01*
X82275691Y-104871559D01*
X82853121Y-104887128D01*
X83395628Y-104902686D01*
X83896639Y-104918026D01*
X84349584Y-104932945D01*
X84747890Y-104947236D01*
X85084986Y-104960695D01*
X85354301Y-104973117D01*
X85549263Y-104984295D01*
X85624308Y-104990006D01*
X85793956Y-105013214D01*
X85909634Y-105045236D01*
X85963501Y-105081293D01*
X85947718Y-105116603D01*
X85874160Y-105142354D01*
X85775808Y-105159348D01*
X85633455Y-105176094D01*
X85443912Y-105192719D01*
X85203990Y-105209355D01*
X84910498Y-105226131D01*
X84560246Y-105243177D01*
X84150046Y-105260621D01*
X83676707Y-105278595D01*
X83137039Y-105297228D01*
X82527853Y-105316650D01*
X81845959Y-105336990D01*
X81088167Y-105358378D01*
X80251288Y-105380944D01*
X79574070Y-105398609D01*
X78779667Y-105419454D01*
X78067092Y-105438978D01*
X77433519Y-105457292D01*
X76876120Y-105474512D01*
X76392070Y-105490749D01*
X75978541Y-105506117D01*
X75632707Y-105520730D01*
X75351742Y-105534701D01*
X75132819Y-105548143D01*
X74973111Y-105561169D01*
X74869791Y-105573892D01*
X74820034Y-105586426D01*
X74815904Y-105589259D01*
X74819401Y-105618715D01*
X74905580Y-105631672D01*
X74940686Y-105632348D01*
X75043721Y-105635388D01*
X75210492Y-105643273D01*
X75420279Y-105654905D01*
X75652359Y-105669187D01*
X75721736Y-105673725D01*
X75881196Y-105682581D01*
X76115026Y-105693142D01*
X76412956Y-105705052D01*
X76764715Y-105717953D01*
X77160031Y-105731487D01*
X77588635Y-105745298D01*
X78040254Y-105759029D01*
X78504619Y-105772323D01*
X78748570Y-105778967D01*
X79706655Y-105805148D01*
X80595176Y-105830583D01*
X81412821Y-105855221D01*
X82158279Y-105879010D01*
X82830240Y-105901900D01*
X83427390Y-105923838D01*
X83948420Y-105944774D01*
X84392018Y-105964654D01*
X84756873Y-105983430D01*
X85041673Y-106001048D01*
X85245108Y-106017457D01*
X85365865Y-106032606D01*
X85395171Y-106039821D01*
X85453540Y-106088183D01*
X85438753Y-106144421D01*
X85422310Y-106157003D01*
X85369447Y-106168872D01*
X85248011Y-106186646D01*
X85073723Y-106208302D01*
X84862304Y-106231816D01*
X84755560Y-106242835D01*
X84582404Y-106259204D01*
X84392851Y-106274861D01*
X84180696Y-106290097D01*
X83939740Y-106305207D01*
X83663777Y-106320483D01*
X83346608Y-106336218D01*
X82982028Y-106352705D01*
X82563837Y-106370238D01*
X82085831Y-106389111D01*
X81541808Y-106409614D01*
X80925566Y-106432043D01*
X80230903Y-106456691D01*
X80230236Y-106456714D01*
X79512225Y-106481993D01*
X78874083Y-106504625D01*
X78311064Y-106524852D01*
X77818419Y-106542914D01*
X77391401Y-106559054D01*
X77025262Y-106573513D01*
X76715255Y-106586531D01*
X76456631Y-106598351D01*
X76244644Y-106609212D01*
X76074546Y-106619357D01*
X75941588Y-106629027D01*
X75841024Y-106638463D01*
X75768106Y-106647906D01*
X75718086Y-106657597D01*
X75686217Y-106667778D01*
X75667750Y-106678690D01*
X75658869Y-106689003D01*
X75683274Y-106706163D01*
X75778170Y-106724074D01*
X75944916Y-106742808D01*
X76184867Y-106762439D01*
X76499380Y-106783039D01*
X76889813Y-106804682D01*
X77357522Y-106827439D01*
X77903864Y-106851385D01*
X78530197Y-106876592D01*
X79237876Y-106903132D01*
X80028259Y-106931079D01*
X80399569Y-106943739D01*
X80992265Y-106964691D01*
X81561421Y-106986662D01*
X82101121Y-107009321D01*
X82605448Y-107032340D01*
X83068484Y-107055391D01*
X83484314Y-107078143D01*
X83847020Y-107100267D01*
X84150687Y-107121435D01*
X84389397Y-107141318D01*
X84557233Y-107159585D01*
X84648280Y-107175909D01*
X84660363Y-107180749D01*
X84695605Y-107230469D01*
X84649917Y-107281391D01*
X84558819Y-107319339D01*
X84474263Y-107342172D01*
X84367204Y-107363820D01*
X84232762Y-107384612D01*
X84066059Y-107404875D01*
X83862215Y-107424937D01*
X83616350Y-107445126D01*
X83323585Y-107465768D01*
X82979041Y-107487192D01*
X82577839Y-107509725D01*
X82115098Y-107533696D01*
X81585940Y-107559431D01*
X80985486Y-107587258D01*
X80308855Y-107617506D01*
X79764570Y-107641279D01*
X79138899Y-107668555D01*
X78592734Y-107692807D01*
X78120981Y-107714387D01*
X77718545Y-107733649D01*
X77380335Y-107750947D01*
X77101255Y-107766634D01*
X76876212Y-107781065D01*
X76700112Y-107794592D01*
X76567862Y-107807570D01*
X76474368Y-107820353D01*
X76414536Y-107833293D01*
X76383272Y-107846745D01*
X76375483Y-107861062D01*
X76385324Y-107875913D01*
X76440686Y-107891749D01*
X76570544Y-107911292D01*
X76764859Y-107933553D01*
X77013591Y-107957541D01*
X77306700Y-107982268D01*
X77634146Y-108006742D01*
X77880736Y-108023343D01*
X78007178Y-108030455D01*
X78205841Y-108040331D01*
X78464343Y-108052412D01*
X78770306Y-108066144D01*
X79111347Y-108080968D01*
X79475086Y-108096328D01*
X79806903Y-108109960D01*
X80290175Y-108130380D01*
X80778681Y-108152583D01*
X81262294Y-108176002D01*
X81730891Y-108200071D01*
X82174344Y-108224223D01*
X82582528Y-108247892D01*
X82945318Y-108270512D01*
X83252588Y-108291516D01*
X83494212Y-108310339D01*
X83643469Y-108324535D01*
X83833261Y-108355737D01*
X83940886Y-108396088D01*
X83967914Y-108442207D01*
X83915912Y-108490716D01*
X83786451Y-108538235D01*
X83581097Y-108581385D01*
X83519864Y-108590836D01*
X83353326Y-108613695D01*
X83176985Y-108634963D01*
X82982760Y-108655232D01*
X82762568Y-108675093D01*
X82508325Y-108695137D01*
X82211949Y-108715955D01*
X81865357Y-108738140D01*
X81460466Y-108762281D01*
X80989192Y-108788971D01*
X80443455Y-108818801D01*
X80293736Y-108826856D01*
X79677003Y-108860253D01*
X79139708Y-108890051D01*
X78676717Y-108916614D01*
X78282895Y-108940308D01*
X77953106Y-108961495D01*
X77682215Y-108980539D01*
X77465088Y-108997805D01*
X77296588Y-109013657D01*
X77171581Y-109028458D01*
X77084933Y-109042572D01*
X77031507Y-109056363D01*
X77025960Y-109058459D01*
X76967950Y-109088318D01*
X76970570Y-109101182D01*
X77031906Y-109108609D01*
X77150433Y-109124539D01*
X77288070Y-109143771D01*
X77605304Y-109182328D01*
X78002065Y-109219434D01*
X78473222Y-109254700D01*
X79013640Y-109287736D01*
X79531736Y-109314153D01*
X80054340Y-109339876D01*
X80561560Y-109367185D01*
X81046320Y-109395552D01*
X81501545Y-109424448D01*
X81920158Y-109453343D01*
X82295084Y-109481706D01*
X82619247Y-109509009D01*
X82885571Y-109534721D01*
X83086980Y-109558314D01*
X83216399Y-109579257D01*
X83262838Y-109593425D01*
X83300164Y-109652725D01*
X83274005Y-109718936D01*
X83204152Y-109758064D01*
X83062260Y-109789233D01*
X82922759Y-109817003D01*
X82777692Y-109842155D01*
X82619101Y-109865467D01*
X82439031Y-109887718D01*
X82229523Y-109909687D01*
X81982621Y-109932154D01*
X81690367Y-109955896D01*
X81344806Y-109981694D01*
X80937979Y-110010326D01*
X80461929Y-110042572D01*
X79955070Y-110076159D01*
X79449783Y-110109595D01*
X79022193Y-110138376D01*
X78665493Y-110163106D01*
X78372877Y-110184386D01*
X78137538Y-110202820D01*
X77952671Y-110219011D01*
X77811468Y-110233560D01*
X77707123Y-110247070D01*
X77632830Y-110260145D01*
X77581781Y-110273387D01*
X77547172Y-110287399D01*
X77542668Y-110289772D01*
X77513228Y-110318557D01*
X77559096Y-110340883D01*
X77585001Y-110346999D01*
X77729370Y-110374408D01*
X77908053Y-110400514D01*
X78129348Y-110426100D01*
X78401554Y-110451952D01*
X78732967Y-110478851D01*
X79131885Y-110507583D01*
X79606607Y-110538931D01*
X79637570Y-110540905D01*
X80278540Y-110582820D01*
X80838245Y-110621902D01*
X81320026Y-110658507D01*
X81727224Y-110692991D01*
X82063180Y-110725712D01*
X82331235Y-110757026D01*
X82534730Y-110787289D01*
X82677006Y-110816858D01*
X82761405Y-110846090D01*
X82791268Y-110875341D01*
X82791402Y-110877475D01*
X82772444Y-110925035D01*
X82712092Y-110968947D01*
X82605133Y-111010098D01*
X82446353Y-111049377D01*
X82230539Y-111087673D01*
X81952475Y-111125873D01*
X81606949Y-111164867D01*
X81188746Y-111205543D01*
X80692653Y-111248789D01*
X80536815Y-111261665D01*
X79992981Y-111306378D01*
X79527970Y-111345268D01*
X79136190Y-111379015D01*
X78812050Y-111408300D01*
X78549958Y-111433802D01*
X78344320Y-111456203D01*
X78189544Y-111476182D01*
X78080038Y-111494419D01*
X78010210Y-111511596D01*
X77974468Y-111528391D01*
X77967218Y-111545485D01*
X77982868Y-111563558D01*
X77993899Y-111570975D01*
X78065977Y-111593205D01*
X78211322Y-111619834D01*
X78418726Y-111649557D01*
X78676982Y-111681069D01*
X78974882Y-111713066D01*
X79301219Y-111744244D01*
X79644785Y-111773298D01*
X79891570Y-111791819D01*
X80336477Y-111825123D01*
X80756270Y-111859944D01*
X81141400Y-111895292D01*
X81482316Y-111930176D01*
X81769467Y-111963607D01*
X81993304Y-111994594D01*
X82144276Y-112022148D01*
X82166986Y-112027710D01*
X82275132Y-112071497D01*
X82324722Y-112124408D01*
X82325736Y-112132539D01*
X82304656Y-112180653D01*
X82237934Y-112225680D01*
X82120347Y-112268620D01*
X81946673Y-112310474D01*
X81711689Y-112352244D01*
X81410172Y-112394929D01*
X81036900Y-112439530D01*
X80586650Y-112487048D01*
X80357236Y-112509677D01*
X79893060Y-112554817D01*
X79506172Y-112592958D01*
X79189569Y-112625056D01*
X78936248Y-112652067D01*
X78739206Y-112674947D01*
X78591439Y-112694651D01*
X78485943Y-112712135D01*
X78415715Y-112728355D01*
X78373752Y-112744266D01*
X78353051Y-112760825D01*
X78346607Y-112778986D01*
X78346403Y-112784089D01*
X78387180Y-112808656D01*
X78503796Y-112838533D01*
X78687677Y-112872468D01*
X78930251Y-112909210D01*
X79222944Y-112947508D01*
X79557182Y-112986109D01*
X79924392Y-113023764D01*
X80103236Y-113040533D01*
X80482591Y-113076813D01*
X80837054Y-113114077D01*
X81156988Y-113151071D01*
X81432761Y-113186544D01*
X81654737Y-113219243D01*
X81813283Y-113247917D01*
X81898763Y-113271311D01*
X81905530Y-113274793D01*
X81944854Y-113335905D01*
X81914021Y-113411580D01*
X81820882Y-113482900D01*
X81727987Y-113519445D01*
X81586391Y-113556755D01*
X81389973Y-113595838D01*
X81132614Y-113637706D01*
X80808194Y-113683367D01*
X80410593Y-113733832D01*
X80018569Y-113780328D01*
X79644930Y-113824061D01*
X79347148Y-113860297D01*
X79116891Y-113890491D01*
X78945825Y-113916098D01*
X78825617Y-113938572D01*
X78747932Y-113959370D01*
X78704437Y-113979945D01*
X78686799Y-114001753D01*
X78685070Y-114013153D01*
X78726442Y-114045973D01*
X78847089Y-114083472D01*
X79041807Y-114124703D01*
X79305390Y-114168719D01*
X79632635Y-114214574D01*
X80018336Y-114261321D01*
X80099430Y-114270407D01*
X80529145Y-114320186D01*
X80879838Y-114366021D01*
X81157004Y-114409014D01*
X81366136Y-114450269D01*
X81512730Y-114490888D01*
X81602279Y-114531977D01*
X81640277Y-114574636D01*
X81641673Y-114580120D01*
X81638341Y-114634926D01*
X81601815Y-114684559D01*
X81525239Y-114730940D01*
X81401761Y-114775994D01*
X81224526Y-114821642D01*
X80986679Y-114869809D01*
X80681366Y-114922417D01*
X80301734Y-114981388D01*
X80110503Y-115009683D01*
X79823255Y-115053141D01*
X79560168Y-115095651D01*
X79334108Y-115134919D01*
X79157938Y-115168648D01*
X79044523Y-115194543D01*
X79010779Y-115205961D01*
X78959772Y-115238444D01*
X78965355Y-115263800D01*
X79037456Y-115295900D01*
X79088178Y-115314099D01*
X79181878Y-115338619D01*
X79343418Y-115371805D01*
X79556768Y-115410747D01*
X79805895Y-115452532D01*
X80074768Y-115494248D01*
X80103236Y-115498468D01*
X80467415Y-115553243D01*
X80756187Y-115599593D01*
X80978145Y-115639715D01*
X81141879Y-115675810D01*
X81255980Y-115710076D01*
X81329040Y-115744713D01*
X81369649Y-115781918D01*
X81386400Y-115823892D01*
X81386897Y-115827039D01*
X81377813Y-115885713D01*
X81327876Y-115939968D01*
X81230034Y-115992173D01*
X81077236Y-116044700D01*
X80862431Y-116099918D01*
X80578568Y-116160199D01*
X80218596Y-116227911D01*
X80166736Y-116237223D01*
X79838584Y-116297415D01*
X79587355Y-116347476D01*
X79406191Y-116389494D01*
X79288237Y-116425558D01*
X79226634Y-116457756D01*
X79214526Y-116488176D01*
X79243983Y-116518217D01*
X79316076Y-116552690D01*
X79433034Y-116589368D01*
X79604133Y-116630429D01*
X79838645Y-116678052D01*
X80145845Y-116734417D01*
X80220048Y-116747495D01*
X80547680Y-116807034D01*
X80799505Y-116858587D01*
X80983664Y-116905181D01*
X81108298Y-116949843D01*
X81181546Y-116995598D01*
X81211550Y-117045474D01*
X81206450Y-117102498D01*
X81202772Y-117112874D01*
X81153942Y-117171301D01*
X81048648Y-117231577D01*
X80881891Y-117295255D01*
X80648672Y-117363889D01*
X80343991Y-117439032D01*
X79962850Y-117522237D01*
X79736073Y-117568545D01*
X79595773Y-117605100D01*
X79486890Y-117648672D01*
X79445143Y-117677848D01*
X79437077Y-117728433D01*
X79499078Y-117780248D01*
X79634794Y-117834790D01*
X79847873Y-117893553D01*
X80115662Y-117952688D01*
X80436118Y-118021110D01*
X80680000Y-118081159D01*
X80854549Y-118136455D01*
X80967003Y-118190620D01*
X81024601Y-118247275D01*
X81034583Y-118310042D01*
X81004189Y-118382542D01*
X80997138Y-118393652D01*
X80928269Y-118456922D01*
X80799309Y-118523787D01*
X80604518Y-118596354D01*
X80338156Y-118676726D01*
X79994483Y-118767007D01*
X79945639Y-118779134D01*
X79756801Y-118833947D01*
X79644167Y-118887919D01*
X79609056Y-118943131D01*
X79652793Y-119001664D01*
X79776699Y-119065597D01*
X79982096Y-119137012D01*
X80215290Y-119203427D01*
X80471395Y-119274827D01*
X80655357Y-119334209D01*
X80777924Y-119386794D01*
X80849845Y-119437804D01*
X80881868Y-119492461D01*
X80886402Y-119529471D01*
X80871100Y-119612345D01*
X80817840Y-119684650D01*
X80715590Y-119753780D01*
X80553319Y-119827131D01*
X80319995Y-119912095D01*
X80310936Y-119915189D01*
X80087552Y-119991715D01*
X79932091Y-120046615D01*
X79832257Y-120085356D01*
X79775760Y-120113404D01*
X79750304Y-120136224D01*
X79743597Y-120159284D01*
X79743403Y-120167539D01*
X79769744Y-120221486D01*
X79853894Y-120280936D01*
X80003541Y-120349929D01*
X80226379Y-120432504D01*
X80287525Y-120453415D01*
X80538518Y-120549352D01*
X80707494Y-120641808D01*
X80794252Y-120733794D01*
X80798595Y-120828320D01*
X80720324Y-120928397D01*
X80559238Y-121037035D01*
X80315141Y-121157245D01*
X80238846Y-121190429D01*
X80051144Y-121275340D01*
X79935589Y-121340561D01*
X79883490Y-121391570D01*
X79879013Y-121417314D01*
X79920263Y-121464335D01*
X80021246Y-121535851D01*
X80164947Y-121620611D01*
X80270309Y-121676026D01*
X80436014Y-121764171D01*
X80574291Y-121846631D01*
X80666318Y-121911711D01*
X80691687Y-121937853D01*
X80709681Y-122034876D01*
X80651479Y-122142478D01*
X80514888Y-122263278D01*
X80311098Y-122392322D01*
X80130219Y-122505387D01*
X80026627Y-122598156D01*
X79997379Y-122677367D01*
X80039526Y-122749758D01*
X80128285Y-122810412D01*
X80337360Y-122928935D01*
X80481169Y-123020285D01*
X80570837Y-123093797D01*
X80617488Y-123158806D01*
X80632246Y-123224648D01*
X80632402Y-123233445D01*
X80611057Y-123340759D01*
X80540092Y-123447543D01*
X80409118Y-123566288D01*
X80273253Y-123665222D01*
X80166569Y-123750918D01*
X80097038Y-123830353D01*
X80081772Y-123868810D01*
X80111522Y-123929068D01*
X80190874Y-124025709D01*
X80304538Y-124140735D01*
X80342521Y-124175670D01*
X80471096Y-124294537D01*
X80546028Y-124376486D01*
X80578557Y-124438989D01*
X80579927Y-124499519D01*
X80572708Y-124533434D01*
X80526264Y-124629538D01*
X80437930Y-124751307D01*
X80354293Y-124843943D01*
X80255052Y-124956136D01*
X80187064Y-125057770D01*
X80166736Y-125116445D01*
X80194206Y-125192485D01*
X80265157Y-125300310D01*
X80336069Y-125385096D01*
X80463895Y-125558831D01*
X80511005Y-125723236D01*
X80477787Y-125890913D01*
X80364631Y-126074460D01*
X80357647Y-126083318D01*
X80275292Y-126200092D01*
X80221471Y-126301659D01*
X80209480Y-126346939D01*
X80232918Y-126423686D01*
X80293459Y-126536394D01*
X80344413Y-126613148D01*
X80443118Y-126790654D01*
X80472960Y-126964839D01*
X80434128Y-127154632D01*
X80351606Y-127334387D01*
X80232305Y-127554930D01*
X80331665Y-127779895D01*
X80410293Y-127976211D01*
X80446874Y-128132065D01*
X80443433Y-128279285D01*
X80401998Y-128449700D01*
X80378853Y-128520841D01*
X80330188Y-128671293D01*
X80307990Y-128777077D01*
X80310938Y-128873501D01*
X80337709Y-128995875D01*
X80358191Y-129072567D01*
X80402502Y-129280151D01*
X80409755Y-129461848D01*
X80396906Y-129585043D01*
X80380641Y-129755625D01*
X80372851Y-129962930D01*
X80374703Y-130142693D01*
X80381182Y-130345544D01*
X80385321Y-130557946D01*
X80386223Y-130714193D01*
X80385008Y-131073770D01*
X80385170Y-131383649D01*
X80386666Y-131633407D01*
X80389456Y-131812620D01*
X80390746Y-131857193D01*
X80395294Y-132053014D01*
X80397298Y-132292916D01*
X80397011Y-132565014D01*
X80394687Y-132857425D01*
X80390575Y-133158264D01*
X80384930Y-133455646D01*
X80378004Y-133737688D01*
X80370048Y-133992505D01*
X80361316Y-134208213D01*
X80352060Y-134372928D01*
X80342531Y-134474766D01*
X80334563Y-134503026D01*
X80320989Y-134461552D01*
X80309685Y-134336930D01*
X80300642Y-134128862D01*
X80293851Y-133837048D01*
X80289302Y-133461189D01*
X80287010Y-133010776D01*
X80286085Y-132653507D01*
X80285140Y-132314702D01*
X80284211Y-132005796D01*
X80283337Y-131738227D01*
X80282554Y-131523430D01*
X80281898Y-131372842D01*
X80281496Y-131306859D01*
X80283087Y-131148805D01*
X80289048Y-130953706D01*
X80296256Y-130798859D01*
X80299330Y-130600458D01*
X80290235Y-130391958D01*
X80275912Y-130255968D01*
X80262252Y-129975064D01*
X80294456Y-129715543D01*
X80321558Y-129549686D01*
X80327832Y-129418968D01*
X80311816Y-129284911D01*
X80272052Y-129109039D01*
X80271336Y-129106163D01*
X80232599Y-128944467D01*
X80215191Y-128832164D01*
X80219920Y-128736508D01*
X80247595Y-128624750D01*
X80286198Y-128503588D01*
X80339317Y-128337527D01*
X80366848Y-128224700D01*
X80368194Y-128137447D01*
X80342756Y-128048107D01*
X80289937Y-127929020D01*
X80272983Y-127892646D01*
X80197650Y-127704927D01*
X80173522Y-127557353D01*
X80200530Y-127422689D01*
X80271465Y-127285193D01*
X80359207Y-127085723D01*
X80366043Y-126894542D01*
X80291562Y-126698755D01*
X80250632Y-126633239D01*
X80156883Y-126464025D01*
X80133207Y-126319519D01*
X80180513Y-126175589D01*
X80272980Y-126040985D01*
X80384050Y-125871594D01*
X80420163Y-125725389D01*
X80380848Y-125585305D01*
X80265633Y-125434273D01*
X80255948Y-125424128D01*
X80129802Y-125281915D01*
X80068695Y-125171309D01*
X80071346Y-125071283D01*
X80136474Y-124960809D01*
X80221762Y-124862532D01*
X80369394Y-124696020D01*
X80454964Y-124570441D01*
X80478032Y-124468665D01*
X80438154Y-124373561D01*
X80334891Y-124267997D01*
X80203709Y-124162466D01*
X80081440Y-124058613D01*
X80017824Y-123975208D01*
X79997633Y-123891346D01*
X79997403Y-123879255D01*
X80010024Y-123801034D01*
X80058227Y-123729372D01*
X80157519Y-123645148D01*
X80228586Y-123594148D01*
X80413069Y-123447862D01*
X80516752Y-123322325D01*
X80540567Y-123216193D01*
X80522593Y-123169629D01*
X80466229Y-123116550D01*
X80357580Y-123039814D01*
X80219247Y-122955269D01*
X80207047Y-122948346D01*
X80062120Y-122861905D01*
X79977089Y-122795039D01*
X79935306Y-122731132D01*
X79920956Y-122662756D01*
X79919682Y-122595402D01*
X79941018Y-122542381D01*
X79999257Y-122489088D01*
X80108691Y-122420914D01*
X80217289Y-122359907D01*
X80422829Y-122235574D01*
X80551702Y-122131055D01*
X80608207Y-122041406D01*
X80596642Y-121961685D01*
X80581916Y-121940621D01*
X80520006Y-121893274D01*
X80401589Y-121824067D01*
X80247779Y-121744949D01*
X80175870Y-121710790D01*
X79965117Y-121604031D01*
X79835168Y-121511878D01*
X79786291Y-121427737D01*
X79818752Y-121345016D01*
X79932818Y-121257125D01*
X80128755Y-121157470D01*
X80199520Y-121126042D01*
X80450550Y-121006221D01*
X80619225Y-120900982D01*
X80705178Y-120810579D01*
X80717069Y-120768426D01*
X80676001Y-120706091D01*
X80555716Y-120632633D01*
X80360593Y-120550350D01*
X80187902Y-120490693D01*
X79954986Y-120408942D01*
X79795925Y-120336360D01*
X79701240Y-120267177D01*
X79661449Y-120195620D01*
X79658736Y-120168594D01*
X79660252Y-120127901D01*
X79672985Y-120095591D01*
X79709210Y-120065267D01*
X79781205Y-120030532D01*
X79901245Y-119984988D01*
X80081606Y-119922239D01*
X80226270Y-119872856D01*
X80491900Y-119775421D01*
X80677015Y-119689437D01*
X80781112Y-119611608D01*
X80803688Y-119538637D01*
X80744241Y-119467225D01*
X80602267Y-119394077D01*
X80377263Y-119315894D01*
X80130623Y-119245760D01*
X79849626Y-119162771D01*
X79650495Y-119085441D01*
X79530749Y-119012103D01*
X79487906Y-118941087D01*
X79519484Y-118870723D01*
X79542320Y-118850111D01*
X79600885Y-118824067D01*
X79724812Y-118781961D01*
X79897521Y-118729029D01*
X80102430Y-118670510D01*
X80165310Y-118653296D01*
X80446756Y-118573753D01*
X80654231Y-118506660D01*
X80796795Y-118447913D01*
X80883510Y-118393406D01*
X80923437Y-118339034D01*
X80928736Y-118307390D01*
X80906658Y-118257674D01*
X80835140Y-118209131D01*
X80706261Y-118158877D01*
X80512095Y-118104028D01*
X80244719Y-118041700D01*
X80132671Y-118017648D01*
X79827814Y-117949315D01*
X79600586Y-117888802D01*
X79444560Y-117833797D01*
X79353309Y-117781985D01*
X79320404Y-117731055D01*
X79320070Y-117725203D01*
X79329224Y-117678258D01*
X79363964Y-117637984D01*
X79435208Y-117600209D01*
X79553871Y-117560763D01*
X79730872Y-117515474D01*
X79977126Y-117460170D01*
X80060902Y-117442124D01*
X80435533Y-117355949D01*
X80726177Y-117275778D01*
X80933284Y-117201383D01*
X81057304Y-117132532D01*
X81098687Y-117068998D01*
X81057883Y-117010551D01*
X80981652Y-116972919D01*
X80874025Y-116940565D01*
X80705474Y-116899654D01*
X80498701Y-116854872D01*
X80276407Y-116810907D01*
X80061292Y-116772449D01*
X79876059Y-116744183D01*
X79870403Y-116743437D01*
X79681330Y-116711046D01*
X79493502Y-116665978D01*
X79325102Y-116614193D01*
X79194312Y-116561649D01*
X79119316Y-116514308D01*
X79108403Y-116493676D01*
X79121238Y-116441170D01*
X79167362Y-116397708D01*
X79258203Y-116359024D01*
X79405189Y-116320853D01*
X79619746Y-116278930D01*
X79739911Y-116257956D01*
X80173888Y-116181574D01*
X80528915Y-116113611D01*
X80810129Y-116052626D01*
X81022671Y-115997178D01*
X81171681Y-115945825D01*
X81262297Y-115897128D01*
X81299658Y-115849645D01*
X81298593Y-115820960D01*
X81262666Y-115785111D01*
X81174289Y-115748440D01*
X81027237Y-115709557D01*
X80815287Y-115667074D01*
X80532216Y-115619603D01*
X80171800Y-115565755D01*
X80124402Y-115558990D01*
X79722565Y-115498790D01*
X79401498Y-115443432D01*
X79157527Y-115391676D01*
X78986976Y-115342285D01*
X78886169Y-115294020D01*
X78851429Y-115245641D01*
X78879081Y-115195910D01*
X78935754Y-115158468D01*
X78999332Y-115140282D01*
X79134061Y-115112652D01*
X79327232Y-115077803D01*
X79566138Y-115037965D01*
X79838071Y-114995366D01*
X80025837Y-114967350D01*
X80460762Y-114901257D01*
X80815947Y-114841561D01*
X81095977Y-114787076D01*
X81305439Y-114736613D01*
X81448919Y-114688985D01*
X81531002Y-114643006D01*
X81556275Y-114597487D01*
X81548241Y-114573203D01*
X81488367Y-114541095D01*
X81346612Y-114503542D01*
X81125556Y-114460979D01*
X80827778Y-114413839D01*
X80455860Y-114362557D01*
X80012382Y-114307567D01*
X79870403Y-114290948D01*
X79479451Y-114243466D01*
X79166930Y-114200164D01*
X78926777Y-114159807D01*
X78752930Y-114121161D01*
X78639326Y-114082994D01*
X78579902Y-114044072D01*
X78569298Y-114026213D01*
X78568936Y-113993414D01*
X78596142Y-113963723D01*
X78658485Y-113935581D01*
X78763534Y-113907430D01*
X78918858Y-113877712D01*
X79132027Y-113844869D01*
X79410608Y-113807344D01*
X79762170Y-113763577D01*
X79961879Y-113739559D01*
X80288361Y-113699820D01*
X80597464Y-113660723D01*
X80876339Y-113624006D01*
X81112137Y-113591409D01*
X81292008Y-113564670D01*
X81403101Y-113545528D01*
X81415569Y-113542848D01*
X81592338Y-113493959D01*
X81731020Y-113439573D01*
X81817651Y-113386664D01*
X81838269Y-113342206D01*
X81832778Y-113334468D01*
X81765512Y-113305981D01*
X81619811Y-113273135D01*
X81401745Y-113236780D01*
X81117385Y-113197766D01*
X80772801Y-113156942D01*
X80374064Y-113115160D01*
X80039736Y-113083396D01*
X79547013Y-113036043D01*
X79136265Y-112991221D01*
X78804853Y-112948497D01*
X78550137Y-112907439D01*
X78369477Y-112867617D01*
X78260235Y-112828599D01*
X78219769Y-112789954D01*
X78219403Y-112785884D01*
X78230258Y-112755669D01*
X78267640Y-112728130D01*
X78338777Y-112702061D01*
X78450894Y-112676258D01*
X78611218Y-112649517D01*
X78826977Y-112620633D01*
X79105396Y-112588402D01*
X79453703Y-112551619D01*
X79879123Y-112509080D01*
X79881640Y-112508833D01*
X80435046Y-112452768D01*
X80907274Y-112401104D01*
X81301668Y-112353269D01*
X81621570Y-112308693D01*
X81870324Y-112266802D01*
X82051271Y-112227027D01*
X82167756Y-112188796D01*
X82223120Y-112151537D01*
X82220708Y-112114678D01*
X82216213Y-112109775D01*
X82149136Y-112082810D01*
X82000848Y-112052173D01*
X81774703Y-112018257D01*
X81474060Y-111981454D01*
X81102274Y-111942157D01*
X80662703Y-111900759D01*
X80158703Y-111857651D01*
X79849236Y-111832885D01*
X79352129Y-111792862D01*
X78934775Y-111756487D01*
X78592384Y-111722880D01*
X78320165Y-111691158D01*
X78113326Y-111660440D01*
X77967077Y-111629844D01*
X77876625Y-111598488D01*
X77837180Y-111565491D01*
X77843950Y-111529971D01*
X77892145Y-111491046D01*
X77916493Y-111477213D01*
X77950714Y-111463696D01*
X78006613Y-111450014D01*
X78090555Y-111435520D01*
X78208905Y-111419568D01*
X78368027Y-111401509D01*
X78574289Y-111380699D01*
X78834054Y-111356490D01*
X79153687Y-111328234D01*
X79539555Y-111295287D01*
X79998022Y-111257000D01*
X80453014Y-111219491D01*
X80994359Y-111172966D01*
X81453926Y-111128882D01*
X81834553Y-111086851D01*
X82139082Y-111046483D01*
X82370352Y-111007389D01*
X82531205Y-110969179D01*
X82624479Y-110931464D01*
X82640414Y-110919535D01*
X82665523Y-110873747D01*
X82661510Y-110864023D01*
X82602331Y-110844350D01*
X82463221Y-110820943D01*
X82248818Y-110794214D01*
X81963757Y-110764574D01*
X81612672Y-110732433D01*
X81200201Y-110698204D01*
X80730978Y-110662296D01*
X80209640Y-110625122D01*
X79640822Y-110587091D01*
X79277736Y-110563975D01*
X78901279Y-110538221D01*
X78544906Y-110509625D01*
X78218364Y-110479291D01*
X77931396Y-110448325D01*
X77693751Y-110417832D01*
X77515173Y-110388916D01*
X77405407Y-110362684D01*
X77376302Y-110348370D01*
X77377616Y-110306306D01*
X77445721Y-110260751D01*
X77563466Y-110219260D01*
X77713700Y-110189389D01*
X77746014Y-110185488D01*
X77842718Y-110176877D01*
X78012834Y-110163671D01*
X78245275Y-110146650D01*
X78528957Y-110126599D01*
X78852795Y-110104301D01*
X79205705Y-110080538D01*
X79576600Y-110056093D01*
X79595236Y-110054878D01*
X80153944Y-110018262D01*
X80635541Y-109986114D01*
X81047429Y-109957825D01*
X81397012Y-109932788D01*
X81691691Y-109910394D01*
X81938870Y-109890032D01*
X82145952Y-109871096D01*
X82320339Y-109852975D01*
X82469434Y-109835061D01*
X82600640Y-109816745D01*
X82717194Y-109798126D01*
X82935004Y-109759556D01*
X83080115Y-109728868D01*
X83163739Y-109702664D01*
X83197089Y-109677552D01*
X83193847Y-109653809D01*
X83136491Y-109628552D01*
X82994625Y-109601509D01*
X82768389Y-109572690D01*
X82457919Y-109542107D01*
X82063355Y-109509772D01*
X81584834Y-109475695D01*
X81022495Y-109439887D01*
X80376476Y-109402360D01*
X79646915Y-109363126D01*
X79552903Y-109358259D01*
X79162461Y-109337138D01*
X78777436Y-109314470D01*
X78411006Y-109291163D01*
X78076349Y-109268124D01*
X77786640Y-109246261D01*
X77555058Y-109226481D01*
X77394778Y-109209692D01*
X77393903Y-109209583D01*
X77197250Y-109185060D01*
X77034216Y-109164874D01*
X76921424Y-109151074D01*
X76875496Y-109145708D01*
X76875320Y-109145698D01*
X76865759Y-109110970D01*
X76864736Y-109085223D01*
X76869212Y-109060396D01*
X76886748Y-109038478D01*
X76923507Y-109018860D01*
X76985652Y-109000931D01*
X77079346Y-108984081D01*
X77210751Y-108967699D01*
X77386032Y-108951176D01*
X77611350Y-108933901D01*
X77892868Y-108915264D01*
X78236750Y-108894654D01*
X78649158Y-108871460D01*
X79136255Y-108845073D01*
X79468236Y-108827385D01*
X80083041Y-108794539D01*
X80620333Y-108765307D01*
X81087162Y-108739211D01*
X81490584Y-108715770D01*
X81837650Y-108694505D01*
X82135414Y-108674937D01*
X82390929Y-108656585D01*
X82611249Y-108638971D01*
X82803425Y-108621614D01*
X82974512Y-108604035D01*
X83131562Y-108585754D01*
X83254958Y-108569885D01*
X83517590Y-108531505D01*
X83699815Y-108496941D01*
X83805750Y-108465060D01*
X83839510Y-108434723D01*
X83821772Y-108413407D01*
X83755365Y-108396508D01*
X83610361Y-108377085D01*
X83392782Y-108355514D01*
X83108648Y-108332166D01*
X82763981Y-108307416D01*
X82364800Y-108281636D01*
X81917127Y-108255200D01*
X81426983Y-108228481D01*
X80900388Y-108201853D01*
X80343363Y-108175687D01*
X79761930Y-108150359D01*
X79235403Y-108129080D01*
X78713946Y-108107264D01*
X78225403Y-108083854D01*
X77776199Y-108059316D01*
X77372763Y-108034117D01*
X77021522Y-108008723D01*
X76728901Y-107983600D01*
X76501330Y-107959216D01*
X76345233Y-107936036D01*
X76267040Y-107914526D01*
X76265351Y-107913541D01*
X76228702Y-107883741D01*
X76223204Y-107856671D01*
X76253509Y-107831870D01*
X76324268Y-107808877D01*
X76440133Y-107787232D01*
X76605755Y-107766474D01*
X76825786Y-107746142D01*
X77104876Y-107725775D01*
X77447679Y-107704913D01*
X77858844Y-107683094D01*
X78343024Y-107659859D01*
X78904870Y-107634746D01*
X79214236Y-107621432D01*
X80029900Y-107586073D01*
X80763974Y-107552946D01*
X81419502Y-107521879D01*
X81999525Y-107492700D01*
X82507088Y-107465236D01*
X82945232Y-107439315D01*
X83317000Y-107414766D01*
X83625435Y-107391415D01*
X83873581Y-107369091D01*
X84064479Y-107347621D01*
X84073393Y-107346460D01*
X84298069Y-107315399D01*
X84448988Y-107290048D01*
X84536637Y-107267679D01*
X84571504Y-107245564D01*
X84564077Y-107220975D01*
X84562427Y-107219273D01*
X84507923Y-107204987D01*
X84374412Y-107188570D01*
X84167517Y-107170307D01*
X83892865Y-107150485D01*
X83556078Y-107129390D01*
X83162782Y-107107309D01*
X82718601Y-107084526D01*
X82229161Y-107061329D01*
X81700084Y-107038003D01*
X81136997Y-107014834D01*
X80545523Y-106992110D01*
X79931288Y-106970115D01*
X79299916Y-106949135D01*
X79171903Y-106945081D01*
X78573452Y-106925076D01*
X78010898Y-106903874D01*
X77490308Y-106881808D01*
X77017748Y-106859208D01*
X76599286Y-106836406D01*
X76240989Y-106813734D01*
X75948923Y-106791523D01*
X75729156Y-106770104D01*
X75587754Y-106749808D01*
X75584153Y-106749093D01*
X75489805Y-106715788D01*
X75476486Y-106675345D01*
X75545615Y-106635723D01*
X75562986Y-106630399D01*
X75659039Y-106614114D01*
X75834611Y-106596583D01*
X76084569Y-106578086D01*
X76403780Y-106558904D01*
X76787109Y-106539317D01*
X77229424Y-106519605D01*
X77725591Y-106500048D01*
X78270477Y-106480927D01*
X78346403Y-106478430D01*
X79375457Y-106444077D01*
X80320373Y-106410924D01*
X81181669Y-106378931D01*
X81959866Y-106348060D01*
X82655482Y-106318271D01*
X83269036Y-106289526D01*
X83801048Y-106261784D01*
X84252037Y-106235006D01*
X84622521Y-106209154D01*
X84913022Y-106184189D01*
X85124056Y-106160070D01*
X85256144Y-106136759D01*
X85309805Y-106114217D01*
X85285559Y-106092404D01*
X85183923Y-106071282D01*
X85005418Y-106050810D01*
X84750563Y-106030950D01*
X84483658Y-106015024D01*
X84087940Y-105995223D01*
X83626974Y-105974930D01*
X83098210Y-105954057D01*
X82499101Y-105932518D01*
X81827098Y-105910229D01*
X81079653Y-105887104D01*
X80254216Y-105863056D01*
X79348240Y-105838000D01*
X78748570Y-105822016D01*
X78039696Y-105802500D01*
X77388716Y-105782817D01*
X76798925Y-105763105D01*
X76273618Y-105743505D01*
X75816088Y-105724158D01*
X75429630Y-105705204D01*
X75117539Y-105686785D01*
X74883108Y-105669039D01*
X74729633Y-105652109D01*
X74716320Y-105650059D01*
X74610399Y-105620300D01*
X74584842Y-105583240D01*
X74641051Y-105546694D01*
X74695153Y-105532122D01*
X74784538Y-105521268D01*
X74955803Y-105509000D01*
X75206173Y-105495416D01*
X75532874Y-105480620D01*
X75933133Y-105464710D01*
X76404176Y-105447789D01*
X76943228Y-105429956D01*
X77547516Y-105411313D01*
X78214267Y-105391960D01*
X78940705Y-105371997D01*
X79531736Y-105356462D01*
X80438024Y-105332646D01*
X81262474Y-105310056D01*
X82007902Y-105288566D01*
X82677127Y-105268056D01*
X83272965Y-105248400D01*
X83798233Y-105229476D01*
X84255749Y-105211161D01*
X84648331Y-105193331D01*
X84978795Y-105175864D01*
X85249959Y-105158635D01*
X85464640Y-105141523D01*
X85625656Y-105124402D01*
X85735823Y-105107151D01*
X85797960Y-105089646D01*
X85810846Y-105081799D01*
X85803180Y-105068740D01*
X85750142Y-105055742D01*
X85649331Y-105042724D01*
X85498347Y-105029608D01*
X85294791Y-105016313D01*
X85036263Y-105002761D01*
X84720363Y-104988871D01*
X84344691Y-104974564D01*
X83906849Y-104959761D01*
X83404435Y-104944381D01*
X82835050Y-104928346D01*
X82196295Y-104911576D01*
X81485769Y-104893991D01*
X80701073Y-104875512D01*
X79839809Y-104856059D01*
X78899574Y-104835553D01*
X77877970Y-104813914D01*
X77478570Y-104805598D01*
X77077918Y-104796288D01*
X76669155Y-104784951D01*
X76262726Y-104772025D01*
X75869082Y-104757948D01*
X75498671Y-104743158D01*
X75161940Y-104728093D01*
X74869338Y-104713192D01*
X74631314Y-104698891D01*
X74458316Y-104685630D01*
X74368309Y-104675192D01*
X74280395Y-104651702D01*
X74273017Y-104625687D01*
X74342156Y-104599012D01*
X74483794Y-104573547D01*
X74621070Y-104557717D01*
X74710523Y-104552167D01*
X74876742Y-104545103D01*
X75111845Y-104536754D01*
X75407950Y-104527347D01*
X75757174Y-104517111D01*
X76151634Y-104506274D01*
X76583449Y-104495064D01*
X77044735Y-104483708D01*
X77527611Y-104472436D01*
X77711403Y-104468304D01*
X78612570Y-104448197D01*
X79433316Y-104429740D01*
X80177868Y-104412820D01*
X80850453Y-104397324D01*
X81455298Y-104383141D01*
X81996631Y-104370157D01*
X82478679Y-104358259D01*
X82905668Y-104347336D01*
X83281827Y-104337274D01*
X83611381Y-104327961D01*
X83898559Y-104319284D01*
X84147587Y-104311131D01*
X84362693Y-104303388D01*
X84548103Y-104295944D01*
X84708045Y-104288686D01*
X84846747Y-104281501D01*
X84949680Y-104275455D01*
X85184826Y-104261080D01*
X85397101Y-104248563D01*
X85568862Y-104238911D01*
X85682468Y-104233129D01*
X85711680Y-104232010D01*
X85784713Y-104227833D01*
X85777125Y-104213762D01*
X85726304Y-104192268D01*
X85655401Y-104180422D01*
X85499942Y-104167935D01*
X85260034Y-104154810D01*
X84935787Y-104141050D01*
X84527309Y-104126658D01*
X84034707Y-104111637D01*
X83458090Y-104095990D01*
X82797566Y-104079720D01*
X82053244Y-104062831D01*
X81225230Y-104045325D01*
X80313634Y-104027205D01*
X79318565Y-104008475D01*
X78960236Y-104001950D01*
X78227803Y-103988552D01*
X77575305Y-103976229D01*
X76998018Y-103964845D01*
X76491218Y-103954262D01*
X76050183Y-103944343D01*
X75670190Y-103934953D01*
X75346514Y-103925953D01*
X75074432Y-103917207D01*
X74849221Y-103908578D01*
X74666158Y-103899929D01*
X74520519Y-103891124D01*
X74407581Y-103882025D01*
X74322621Y-103872495D01*
X74282403Y-103866393D01*
X74134236Y-103840957D01*
X74282403Y-103805990D01*
X74365782Y-103795892D01*
X74532566Y-103785092D01*
X74781499Y-103773623D01*
X75111321Y-103761517D01*
X75520775Y-103748805D01*
X76008603Y-103735521D01*
X76573548Y-103721695D01*
X77214351Y-103707360D01*
X77929754Y-103692548D01*
X78718500Y-103677291D01*
X79579331Y-103661621D01*
X80510988Y-103645570D01*
X80695902Y-103642480D01*
X81269032Y-103632438D01*
X81834468Y-103621555D01*
X82385900Y-103610012D01*
X82917017Y-103597991D01*
X83421509Y-103585675D01*
X83893063Y-103573246D01*
X84325371Y-103560884D01*
X84712120Y-103548774D01*
X85047000Y-103537095D01*
X85323700Y-103526031D01*
X85535910Y-103515763D01*
X85677319Y-103506474D01*
X85741615Y-103498344D01*
X85744633Y-103496907D01*
X85718444Y-103485850D01*
X85617001Y-103474802D01*
X85439211Y-103463728D01*
X85183982Y-103452596D01*
X84850220Y-103441369D01*
X84436834Y-103430015D01*
X83942730Y-103418498D01*
X83366816Y-103406784D01*
X82707999Y-103394839D01*
X82262236Y-103387380D01*
X81303986Y-103371764D01*
X80426748Y-103357407D01*
X79626878Y-103344238D01*
X78900733Y-103332186D01*
X78244667Y-103321179D01*
X77655038Y-103311145D01*
X77128201Y-103302014D01*
X76660511Y-103293713D01*
X76248326Y-103286170D01*
X75888001Y-103279316D01*
X75575892Y-103273077D01*
X75308355Y-103267383D01*
X75081746Y-103262161D01*
X74892420Y-103257341D01*
X74736735Y-103252851D01*
X74611046Y-103248619D01*
X74511708Y-103244574D01*
X74435079Y-103240645D01*
X74377513Y-103236759D01*
X74335367Y-103232845D01*
X74324736Y-103231600D01*
X74194791Y-103214622D01*
X74141477Y-103202413D01*
X74157379Y-103189524D01*
X74235082Y-103170503D01*
X74240070Y-103169380D01*
X74302482Y-103164110D01*
X74443637Y-103157864D01*
X74657614Y-103150773D01*
X74938496Y-103142965D01*
X75280364Y-103134569D01*
X75677301Y-103125713D01*
X76123388Y-103116526D01*
X76612707Y-103107137D01*
X77139340Y-103097675D01*
X77697368Y-103088267D01*
X78280873Y-103079044D01*
X78642736Y-103073623D01*
X79569905Y-103059888D01*
X80415411Y-103047071D01*
X81182256Y-103035105D01*
X81873439Y-103023921D01*
X82491960Y-103013454D01*
X83040818Y-103003634D01*
X83523013Y-102994396D01*
X83941544Y-102985670D01*
X84299411Y-102977391D01*
X84599614Y-102969490D01*
X84845152Y-102961900D01*
X85039026Y-102954553D01*
X85184234Y-102947382D01*
X85283776Y-102940319D01*
X85340651Y-102933298D01*
X85357861Y-102926250D01*
X85352569Y-102922710D01*
X85316460Y-102916588D01*
X85239798Y-102910479D01*
X85119702Y-102904332D01*
X84953290Y-102898098D01*
X84737680Y-102891727D01*
X84469992Y-102885167D01*
X84147342Y-102878370D01*
X83766851Y-102871286D01*
X83325636Y-102863863D01*
X82820815Y-102856052D01*
X82249508Y-102847803D01*
X81608832Y-102839066D01*
X80895906Y-102829790D01*
X80107848Y-102819926D01*
X79241778Y-102809424D01*
X78294813Y-102798232D01*
X77986570Y-102794641D01*
X77443257Y-102788003D01*
X76920574Y-102780985D01*
X76425250Y-102773715D01*
X75964017Y-102766319D01*
X75543603Y-102758926D01*
X75170739Y-102751664D01*
X74852155Y-102744660D01*
X74594581Y-102738041D01*
X74404746Y-102731936D01*
X74289381Y-102726473D01*
X74261236Y-102723953D01*
X74049570Y-102694080D01*
X74303570Y-102663468D01*
X74380500Y-102658781D01*
X74536101Y-102653370D01*
X74764379Y-102647337D01*
X75059341Y-102640785D01*
X75414996Y-102633818D01*
X75825350Y-102626537D01*
X76284411Y-102619046D01*
X76786185Y-102611447D01*
X77324682Y-102603844D01*
X77893907Y-102596339D01*
X78487868Y-102589034D01*
X78960236Y-102583589D01*
X79589925Y-102576366D01*
X80213753Y-102568870D01*
X80824236Y-102561211D01*
X81413891Y-102553496D01*
X81975231Y-102545833D01*
X82500772Y-102538330D01*
X82983030Y-102531096D01*
X83414521Y-102524239D01*
X83787758Y-102517868D01*
X84095259Y-102512089D01*
X84329538Y-102507012D01*
X84421236Y-102504649D01*
X85479569Y-102474975D01*
X83849736Y-102443417D01*
X83561999Y-102438279D01*
X83198885Y-102432505D01*
X82769681Y-102426212D01*
X82283673Y-102419516D01*
X81750147Y-102412534D01*
X81178390Y-102405382D01*
X80577689Y-102398177D01*
X79957329Y-102391035D01*
X79326598Y-102384072D01*
X78694781Y-102377405D01*
X78139305Y-102371817D01*
X77558888Y-102365899D01*
X77002659Y-102359792D01*
X76476436Y-102353585D01*
X75986031Y-102347366D01*
X75537259Y-102341224D01*
X75135934Y-102335246D01*
X74787871Y-102329521D01*
X74498884Y-102324137D01*
X74274788Y-102319182D01*
X74121396Y-102314745D01*
X74044523Y-102310913D01*
X74036500Y-102309568D01*
X74036543Y-102265294D01*
X74038677Y-102262974D01*
X74083392Y-102259381D01*
X74207363Y-102255220D01*
X74405181Y-102250565D01*
X74671440Y-102245492D01*
X75000730Y-102240074D01*
X75387644Y-102234388D01*
X75826773Y-102228507D01*
X76312710Y-102222508D01*
X76840046Y-102216463D01*
X77403373Y-102210449D01*
X77997284Y-102204541D01*
X78616369Y-102198812D01*
X78776483Y-102197399D01*
X79418251Y-102191565D01*
X80047757Y-102185407D01*
X80658446Y-102179011D01*
X81243761Y-102172465D01*
X81797147Y-102165856D01*
X82312048Y-102159271D01*
X82781909Y-102152797D01*
X83200174Y-102146520D01*
X83560288Y-102140529D01*
X83855694Y-102134910D01*
X84079837Y-102129751D01*
X84226162Y-102125138D01*
X84230736Y-102124948D01*
X84334871Y-102119204D01*
X84370124Y-102113606D01*
X84334973Y-102108124D01*
X84227895Y-102102727D01*
X84047367Y-102097386D01*
X83791866Y-102092070D01*
X83459869Y-102086750D01*
X83049853Y-102081395D01*
X82560296Y-102075975D01*
X81989675Y-102070460D01*
X81336466Y-102064821D01*
X81076902Y-102062723D01*
X80140153Y-102054877D01*
X79264091Y-102046726D01*
X78450548Y-102038304D01*
X77701355Y-102029645D01*
X77018344Y-102020782D01*
X76403349Y-102011749D01*
X75858200Y-102002578D01*
X75384731Y-101993303D01*
X74984772Y-101983958D01*
X74660156Y-101974576D01*
X74412715Y-101965191D01*
X74244280Y-101955835D01*
X74156685Y-101946543D01*
X74151761Y-101937347D01*
X74155403Y-101936532D01*
X74215999Y-101932318D01*
X74355918Y-101927571D01*
X74569816Y-101922363D01*
X74852353Y-101916770D01*
X75198185Y-101910866D01*
X75601971Y-101904726D01*
X76058369Y-101898424D01*
X76562035Y-101892035D01*
X77107629Y-101885633D01*
X77689808Y-101879293D01*
X78303230Y-101873090D01*
X78942552Y-101867098D01*
X79444777Y-101862711D01*
X80097448Y-101857031D01*
X80726447Y-101851245D01*
X81326607Y-101845416D01*
X81892756Y-101839609D01*
X82419726Y-101833887D01*
X82902347Y-101828314D01*
X83335451Y-101822952D01*
X83713867Y-101817865D01*
X84032427Y-101813118D01*
X84285961Y-101808773D01*
X84469300Y-101804894D01*
X84577275Y-101801544D01*
X84605916Y-101799291D01*
X84570019Y-101794597D01*
X84458997Y-101790296D01*
X84282391Y-101786523D01*
X84049742Y-101783412D01*
X83770590Y-101781096D01*
X83454476Y-101779710D01*
X83186445Y-101779360D01*
X82886051Y-101778916D01*
X82513056Y-101777638D01*
X82079524Y-101775603D01*
X81597515Y-101772888D01*
X81079091Y-101769572D01*
X80536314Y-101765732D01*
X79981247Y-101761445D01*
X79425950Y-101756790D01*
X78882485Y-101751844D01*
X78812230Y-101751173D01*
X78238821Y-101745490D01*
X77744948Y-101740145D01*
X77325485Y-101734984D01*
X76975303Y-101729848D01*
X76689274Y-101724582D01*
X76462270Y-101719027D01*
X76289163Y-101713028D01*
X76164826Y-101706428D01*
X76084129Y-101699070D01*
X76041944Y-101690796D01*
X76033145Y-101681451D01*
X76052603Y-101670878D01*
X76064160Y-101667149D01*
X76134594Y-101652584D01*
X76244181Y-101640470D01*
X76399413Y-101630623D01*
X76606782Y-101622854D01*
X76872781Y-101616977D01*
X77203901Y-101612805D01*
X77606634Y-101610153D01*
X78087473Y-101608832D01*
X78092403Y-101608825D01*
X78577955Y-101607076D01*
X79007129Y-101603289D01*
X79375005Y-101597578D01*
X79676662Y-101590061D01*
X79907179Y-101580852D01*
X80061633Y-101570067D01*
X80124402Y-101561061D01*
X80238471Y-101539042D01*
X80372060Y-101520630D01*
X80508756Y-101506820D01*
X80632148Y-101498603D01*
X80725823Y-101496974D01*
X80773371Y-101502925D01*
G37*
D12*
X74150000Y-60000000D02*
G75*
G02*
X66150000Y-60000000I-4000000J0D01*
G01*
X66150000Y-60000000D02*
G75*
G02*
X74150000Y-60000000I4000000J0D01*
G01*
D10*
X60340001Y-127599999D02*
X59550000Y-127600000D01*
X59550001Y-126859999D01*
X60340001Y-127599999D01*
G36*
X60340001Y-127599999D02*
G01*
X59550000Y-127600000D01*
X59550001Y-126859999D01*
X60340001Y-127599999D01*
G37*
D12*
X64150000Y-81000000D02*
G75*
G02*
X56150000Y-81000000I-4000000J0D01*
G01*
X56150000Y-81000000D02*
G75*
G02*
X64150000Y-81000000I4000000J0D01*
G01*
X84150000Y-81000000D02*
G75*
G02*
X76150000Y-81000000I-4000000J0D01*
G01*
X76150000Y-81000000D02*
G75*
G02*
X84150000Y-81000000I4000000J0D01*
G01*
X64150000Y-105000000D02*
G75*
G02*
X56150000Y-105000000I-4000000J0D01*
G01*
X56150000Y-105000000D02*
G75*
G02*
X64150000Y-105000000I4000000J0D01*
G01*
D10*
X60340001Y-148599999D02*
X59550000Y-148600000D01*
X59550001Y-147859999D01*
X60340001Y-148599999D01*
G36*
X60340001Y-148599999D02*
G01*
X59550000Y-148600000D01*
X59550001Y-147859999D01*
X60340001Y-148599999D01*
G37*
D11*
G36*
X68464667Y-166042333D02*
G01*
X68464667Y-167524000D01*
X67321667Y-167524000D01*
X66178667Y-167524000D01*
X66178667Y-167382888D01*
X67646222Y-167382888D01*
X67657845Y-167433223D01*
X67702667Y-167439333D01*
X67772357Y-167408355D01*
X67759111Y-167382888D01*
X67658632Y-167372755D01*
X67646222Y-167382888D01*
X66178667Y-167382888D01*
X66178667Y-167227666D01*
X66178667Y-167213555D01*
X67646222Y-167213555D01*
X67657845Y-167263889D01*
X67702667Y-167270000D01*
X67772357Y-167239021D01*
X67759111Y-167213555D01*
X67658632Y-167203422D01*
X67646222Y-167213555D01*
X66178667Y-167213555D01*
X66178667Y-166931333D01*
X66851003Y-166931333D01*
X67173013Y-166941477D01*
X67425816Y-166968389D01*
X67564861Y-167006783D01*
X67576520Y-167017381D01*
X67661663Y-167084639D01*
X67729471Y-166993084D01*
X67776589Y-166752657D01*
X67788896Y-166550333D01*
X67956667Y-166550333D01*
X67999000Y-166592666D01*
X68041334Y-166550333D01*
X67999000Y-166508000D01*
X67956667Y-166550333D01*
X67788896Y-166550333D01*
X67799664Y-166373299D01*
X67800050Y-166354836D01*
X67807792Y-166043665D01*
X67817875Y-165889231D01*
X67833653Y-165878939D01*
X67858480Y-166000195D01*
X67872000Y-166084666D01*
X67931234Y-166465666D01*
X68295334Y-166465666D01*
X68337667Y-166508000D01*
X68380000Y-166465666D01*
X68337667Y-166423333D01*
X68295334Y-166465666D01*
X67931234Y-166465666D01*
X67954534Y-166105833D01*
X67974154Y-165824058D01*
X67992050Y-165665449D01*
X68016444Y-165584129D01*
X68055561Y-165534221D01*
X68057303Y-165532475D01*
X68081190Y-165574987D01*
X68082597Y-165745310D01*
X68067819Y-165937174D01*
X68054708Y-166202777D01*
X68072114Y-166391941D01*
X68100030Y-166449616D01*
X68146034Y-166414211D01*
X68146707Y-166250869D01*
X68143923Y-166228361D01*
X68125303Y-166051416D01*
X68150451Y-166022635D01*
X68237866Y-166122748D01*
X68241217Y-166127000D01*
X68338925Y-166235858D01*
X68373558Y-166210912D01*
X68377307Y-166152373D01*
X68313057Y-165992547D01*
X68240594Y-165930398D01*
X68150402Y-165861175D01*
X68164737Y-165769975D01*
X68240594Y-165653352D01*
X68342009Y-165489434D01*
X68380000Y-165393721D01*
X68313830Y-165343690D01*
X68161092Y-165348429D01*
X67990443Y-165395041D01*
X67870541Y-165470629D01*
X67856784Y-165492000D01*
X67813490Y-165528998D01*
X67793767Y-165400428D01*
X67793284Y-165384510D01*
X67809288Y-165219033D01*
X67900595Y-165176051D01*
X67999020Y-165188407D01*
X68201948Y-165169340D01*
X68295353Y-165068629D01*
X68374048Y-164842283D01*
X68342381Y-164691337D01*
X68231834Y-164646629D01*
X68133231Y-164661034D01*
X68189909Y-164722841D01*
X68210667Y-164737742D01*
X68289037Y-164802849D01*
X68224458Y-164796924D01*
X68215959Y-164794654D01*
X68076641Y-164710569D01*
X68082410Y-164613226D01*
X68225768Y-164561136D01*
X68245945Y-164560666D01*
X68464667Y-164560666D01*
X68464667Y-166042333D01*
G37*
G36*
X78610384Y-164492713D02*
G01*
X78744267Y-164512237D01*
X78855230Y-164561797D01*
X78966540Y-164666804D01*
X79101462Y-164852667D01*
X79283263Y-165144796D01*
X79424845Y-165382191D01*
X79627987Y-165718752D01*
X79801412Y-165994716D01*
X79926599Y-166181378D01*
X79984819Y-166250025D01*
X80051311Y-166185628D01*
X80154541Y-166021562D01*
X80177669Y-165978833D01*
X80292534Y-165772925D01*
X80463118Y-165481058D01*
X80655581Y-165160985D01*
X80686153Y-165111000D01*
X80874858Y-164814088D01*
X81014671Y-164634058D01*
X81138987Y-164539792D01*
X81281198Y-164500176D01*
X81349668Y-164492739D01*
X81553683Y-164490240D01*
X81651485Y-164557904D01*
X81703531Y-164736156D01*
X81722760Y-164915910D01*
X81738950Y-165226626D01*
X81750752Y-165629938D01*
X81756815Y-166087483D01*
X81757334Y-166264583D01*
X81757334Y-167524000D01*
X81379399Y-167524000D01*
X81001465Y-167524000D01*
X80977233Y-166698500D01*
X80953000Y-165873000D01*
X80542787Y-166571500D01*
X80322285Y-166921614D01*
X80140557Y-167159230D01*
X80012145Y-167265918D01*
X79991554Y-167270000D01*
X79877543Y-167197174D01*
X79706694Y-166992474D01*
X79495690Y-166676563D01*
X79444624Y-166592666D01*
X79259725Y-166297611D01*
X79100211Y-166067598D01*
X78989337Y-165935019D01*
X78958322Y-165915333D01*
X78923279Y-165994481D01*
X78900117Y-166210353D01*
X78891530Y-166530588D01*
X78893108Y-166698500D01*
X78908285Y-167481666D01*
X78554809Y-167507701D01*
X78201334Y-167533736D01*
X78202490Y-166195368D01*
X78204474Y-165612164D01*
X78209119Y-165365000D01*
X78624667Y-165365000D01*
X78667000Y-165407333D01*
X78709334Y-165365000D01*
X78667000Y-165322666D01*
X78624667Y-165365000D01*
X78209119Y-165365000D01*
X78212648Y-165177187D01*
X78232069Y-164869336D01*
X78267791Y-164667507D01*
X78324869Y-164550599D01*
X78408359Y-164497510D01*
X78523316Y-164487137D01*
X78610384Y-164492713D01*
G37*
G36*
X83478267Y-164494907D02*
G01*
X83638341Y-164542426D01*
X83665454Y-164565715D01*
X83711113Y-164672888D01*
X83801335Y-164910841D01*
X83925369Y-165250308D01*
X84072467Y-165662022D01*
X84170820Y-165941548D01*
X84327757Y-166388924D01*
X84468488Y-166787797D01*
X84582035Y-167107223D01*
X84657416Y-167316262D01*
X84679761Y-167375833D01*
X84693928Y-167463361D01*
X84622745Y-167507803D01*
X84431548Y-167523004D01*
X84308813Y-167524000D01*
X84053212Y-167517165D01*
X83915984Y-167478021D01*
X83846227Y-167378607D01*
X83807864Y-167248833D01*
X83753373Y-167087051D01*
X83664439Y-166998356D01*
X83491506Y-166952146D01*
X83288513Y-166928141D01*
X83047717Y-166905246D01*
X82901944Y-166919176D01*
X82809451Y-167001793D01*
X82728491Y-167184957D01*
X82646479Y-167418166D01*
X82542781Y-167488009D01*
X82326583Y-167522649D01*
X82267991Y-167524000D01*
X82045028Y-167509827D01*
X81946094Y-167452962D01*
X81926667Y-167356982D01*
X81953973Y-167210489D01*
X82029309Y-166935755D01*
X82142803Y-166563666D01*
X82236146Y-166274934D01*
X83042900Y-166274934D01*
X83094773Y-166329667D01*
X83226627Y-166338839D01*
X83290392Y-166338666D01*
X83468273Y-166322031D01*
X83513795Y-166255251D01*
X83496129Y-166190500D01*
X83435666Y-165994436D01*
X83391469Y-165807738D01*
X83327663Y-165595323D01*
X83256771Y-165551814D01*
X83179818Y-165676977D01*
X83121787Y-165869210D01*
X83056681Y-166134746D01*
X83042900Y-166274934D01*
X82236146Y-166274934D01*
X82284584Y-166125105D01*
X82444781Y-165650958D01*
X82613520Y-165172111D01*
X82705439Y-164920500D01*
X82804582Y-164667989D01*
X82891859Y-164535594D01*
X83013923Y-164484528D01*
X83217426Y-164476005D01*
X83240087Y-164476000D01*
X83478267Y-164494907D01*
G37*
G36*
X66068704Y-164979199D02*
G01*
X66079946Y-165199605D01*
X66088395Y-165531759D01*
X66093208Y-165946871D01*
X66094000Y-166211666D01*
X66094000Y-167524000D01*
X65755334Y-167524000D01*
X65416667Y-167524000D01*
X65416667Y-167021705D01*
X65424706Y-166733461D01*
X65457874Y-166570612D01*
X65529747Y-166489614D01*
X65590458Y-166464251D01*
X65708429Y-166401684D01*
X65677366Y-166305353D01*
X65657945Y-166281004D01*
X65566298Y-166200846D01*
X65505203Y-166272533D01*
X65490105Y-166309291D01*
X65458796Y-166317560D01*
X65437288Y-166180682D01*
X65429297Y-165922734D01*
X65429302Y-165915333D01*
X65435225Y-165653590D01*
X65450071Y-165492050D01*
X65470655Y-165464889D01*
X65471154Y-165466077D01*
X65571301Y-165528857D01*
X65640903Y-165517794D01*
X65717446Y-165457021D01*
X65670151Y-165407014D01*
X65644100Y-165317628D01*
X65670994Y-165280333D01*
X65840000Y-165280333D01*
X65885718Y-165393005D01*
X65924667Y-165407333D01*
X65999781Y-165338756D01*
X66009334Y-165280333D01*
X65963616Y-165167661D01*
X65924667Y-165153333D01*
X65849552Y-165221909D01*
X65840000Y-165280333D01*
X65670994Y-165280333D01*
X65758877Y-165158460D01*
X65793900Y-165122463D01*
X65948227Y-164977433D01*
X66046385Y-164902255D01*
X66055515Y-164899333D01*
X66068704Y-164979199D01*
G37*
G36*
X86424584Y-165788333D02*
G01*
X86428248Y-166250571D01*
X86431362Y-166658477D01*
X86433686Y-166979429D01*
X86434980Y-167180804D01*
X86435167Y-167227666D01*
X86418472Y-167414225D01*
X86337452Y-167500079D01*
X86145701Y-167523444D01*
X86075334Y-167524000D01*
X85736667Y-167524000D01*
X85726845Y-166190500D01*
X85721395Y-165749725D01*
X85712634Y-165387532D01*
X85701524Y-165128691D01*
X85689025Y-164997975D01*
X85680437Y-164994091D01*
X85628551Y-165065806D01*
X85497897Y-165110652D01*
X85255958Y-165135554D01*
X84969095Y-165145586D01*
X84630855Y-165149328D01*
X84423297Y-165136619D01*
X84307923Y-165098225D01*
X84246238Y-165024908D01*
X84221175Y-164966161D01*
X84172346Y-164751488D01*
X84228564Y-164606565D01*
X84407074Y-164520217D01*
X84725121Y-164481272D01*
X84977646Y-164476000D01*
X85313318Y-164478942D01*
X85514531Y-164494269D01*
X85616138Y-164531729D01*
X85652991Y-164601071D01*
X85658684Y-164666500D01*
X85676498Y-164778594D01*
X85713713Y-164730000D01*
X85842494Y-164555118D01*
X86075488Y-164482214D01*
X86181167Y-164477296D01*
X86414000Y-164476000D01*
X86424584Y-165788333D01*
G37*
G36*
X75158219Y-164508439D02*
G01*
X75258923Y-164585073D01*
X75378149Y-164739935D01*
X75540539Y-164997373D01*
X75708768Y-165277919D01*
X75909858Y-165608335D01*
X76084058Y-165882472D01*
X76210816Y-166068731D01*
X76265803Y-166134294D01*
X76296306Y-166075374D01*
X76320533Y-165880572D01*
X76335428Y-165583309D01*
X76338667Y-165337644D01*
X76338667Y-164495961D01*
X76677334Y-164491287D01*
X77016000Y-164486613D01*
X77016000Y-166005306D01*
X77016000Y-167524000D01*
X76681224Y-167524000D01*
X76532735Y-167519361D01*
X76418604Y-167488614D01*
X76313290Y-167406517D01*
X76191251Y-167247824D01*
X76026946Y-166987291D01*
X75865087Y-166717368D01*
X75665274Y-166388532D01*
X75493240Y-166116506D01*
X75369327Y-165932769D01*
X75317354Y-165869716D01*
X75293937Y-165930308D01*
X75283418Y-166126382D01*
X75286622Y-166424518D01*
X75297487Y-166676347D01*
X75343995Y-167524000D01*
X74947760Y-167524000D01*
X74551526Y-167524000D01*
X74577263Y-166021166D01*
X74603000Y-164518333D01*
X74913799Y-164492455D01*
X75051392Y-164485682D01*
X75158219Y-164508439D01*
G37*
G36*
X74290577Y-164782058D02*
G01*
X74264334Y-165086958D01*
X73544667Y-165098979D01*
X72825000Y-165111000D01*
X72798469Y-165386166D01*
X72771938Y-165661333D01*
X73496969Y-165661333D01*
X74222000Y-165661333D01*
X74222000Y-165957666D01*
X74222000Y-166254000D01*
X73502334Y-166254000D01*
X72782667Y-166254000D01*
X72782667Y-166630003D01*
X72804757Y-166891982D01*
X72862156Y-167047992D01*
X72941559Y-167073582D01*
X72993480Y-167017381D01*
X73097719Y-166976971D01*
X73326672Y-166946745D01*
X73635790Y-166931987D01*
X73718997Y-166931333D01*
X74391334Y-166931333D01*
X74391334Y-167227763D01*
X74391334Y-167524193D01*
X73246387Y-167518486D01*
X72101440Y-167512779D01*
X72109378Y-166002338D01*
X72109613Y-165957666D01*
X72782667Y-165957666D01*
X72825000Y-166000000D01*
X72867334Y-165957666D01*
X72825000Y-165915333D01*
X72782667Y-165957666D01*
X72109613Y-165957666D01*
X72117316Y-164491897D01*
X73217068Y-164484527D01*
X74316820Y-164477158D01*
X74290577Y-164782058D01*
G37*
G36*
X67039556Y-164601426D02*
G01*
X67061620Y-164673163D01*
X67049776Y-164730341D01*
X66964685Y-164867755D01*
X66888459Y-164899333D01*
X66782276Y-164948370D01*
X66771334Y-164984000D01*
X66697761Y-165043447D01*
X66520494Y-165068660D01*
X66517334Y-165068666D01*
X66338943Y-165047529D01*
X66263351Y-164996606D01*
X66263334Y-164995740D01*
X66334893Y-164954703D01*
X66496167Y-164960036D01*
X66641515Y-164971230D01*
X66633008Y-164930771D01*
X66613587Y-164916210D01*
X66540537Y-164839108D01*
X66613587Y-164782075D01*
X66628324Y-164757776D01*
X66506067Y-164771578D01*
X66496167Y-164773439D01*
X66311890Y-164776965D01*
X66263334Y-164707691D01*
X66284075Y-164687666D01*
X66348000Y-164687666D01*
X66390334Y-164730000D01*
X66432667Y-164687666D01*
X66390334Y-164645333D01*
X66348000Y-164687666D01*
X66284075Y-164687666D01*
X66345736Y-164628135D01*
X66591318Y-164584613D01*
X66678651Y-164579420D01*
X66924517Y-164575309D01*
X67039556Y-164601426D01*
G37*
G36*
X69925167Y-164492298D02*
G01*
X70285000Y-164518333D01*
X70285000Y-165802417D01*
X70288366Y-166316992D01*
X70299315Y-166678081D01*
X70319127Y-166901416D01*
X70349081Y-167002727D01*
X70382807Y-167005211D01*
X70509544Y-166969597D01*
X70756595Y-166948876D01*
X71075314Y-166946649D01*
X71144807Y-166948794D01*
X71809000Y-166973666D01*
X71835531Y-167248833D01*
X71862062Y-167524000D01*
X70713698Y-167524000D01*
X69565334Y-167524000D01*
X69565334Y-165995131D01*
X69565334Y-164466263D01*
X69925167Y-164492298D01*
G37*
G36*
X67072836Y-165754971D02*
G01*
X67169200Y-165810362D01*
X67193910Y-165954892D01*
X67194667Y-166042333D01*
X67184414Y-166232065D01*
X67121109Y-166316382D01*
X66955933Y-166338004D01*
X66856000Y-166338666D01*
X66639164Y-166329695D01*
X66542801Y-166274303D01*
X66518091Y-166129774D01*
X66517334Y-166042333D01*
X66527586Y-165852601D01*
X66590891Y-165768283D01*
X66756068Y-165746662D01*
X66856000Y-165746000D01*
X67072836Y-165754971D01*
G37*
G36*
X67612098Y-164649100D02*
G01*
X67618000Y-164808619D01*
X67607246Y-164971194D01*
X67543519Y-165043659D01*
X67379625Y-165058253D01*
X67258167Y-165054433D01*
X66898334Y-165040201D01*
X67232153Y-165006016D01*
X67437214Y-164969747D01*
X67474531Y-164919844D01*
X67451255Y-164900933D01*
X67385316Y-164824443D01*
X67450101Y-164717257D01*
X67477269Y-164689302D01*
X67574561Y-164607018D01*
X67612098Y-164649100D01*
G37*
G36*
X67853753Y-164633954D02*
G01*
X67889465Y-164810638D01*
X67890060Y-164814666D01*
X67896116Y-164991738D01*
X67859241Y-165068571D01*
X67857337Y-165068666D01*
X67808169Y-164995035D01*
X67787338Y-164817647D01*
X67787334Y-164814666D01*
X67796833Y-164636164D01*
X67819712Y-164560680D01*
X67820057Y-164560666D01*
X67853753Y-164633954D01*
G37*
G36*
X77629834Y-164492298D02*
G01*
X77989667Y-164518333D01*
X78012787Y-166021166D01*
X78035907Y-167524000D01*
X77652954Y-167524000D01*
X77270000Y-167524000D01*
X77270000Y-165995131D01*
X77270000Y-164466263D01*
X77629834Y-164492298D01*
G37*
G36*
X66057876Y-164629444D02*
G01*
X66065778Y-164687666D01*
X66055948Y-164802722D01*
X66002232Y-164778898D01*
X65981111Y-164758222D01*
X65926651Y-164642604D01*
X65971113Y-164564408D01*
X65995222Y-164560666D01*
X66057876Y-164629444D01*
G37*
G36*
X65656339Y-164606384D02*
G01*
X65670667Y-164645333D01*
X65602090Y-164720447D01*
X65543667Y-164730000D01*
X65430995Y-164684282D01*
X65416667Y-164645333D01*
X65485243Y-164570218D01*
X65543667Y-164560666D01*
X65656339Y-164606384D01*
G37*
G36*
X65482448Y-164857000D02*
G01*
X65603822Y-164989089D01*
X65622263Y-165005166D01*
X65622999Y-165057975D01*
X65557778Y-165068666D01*
X65438847Y-164999721D01*
X65417963Y-164920500D01*
X65445118Y-164833889D01*
X65482448Y-164857000D01*
G37*
G36*
X67251111Y-164842888D02*
G01*
X67239489Y-164893223D01*
X67194667Y-164899333D01*
X67124977Y-164868355D01*
X67138222Y-164842888D01*
X67238702Y-164832755D01*
X67251111Y-164842888D01*
G37*
G36*
X67364000Y-164603000D02*
G01*
X67321667Y-164645333D01*
X67279334Y-164603000D01*
X67321667Y-164560666D01*
X67364000Y-164603000D01*
G37*
D10*
X71340001Y-148599999D02*
X70550000Y-148600000D01*
X70550001Y-147859999D01*
X71340001Y-148599999D01*
G36*
X71340001Y-148599999D02*
G01*
X70550000Y-148600000D01*
X70550001Y-147859999D01*
X71340001Y-148599999D01*
G37*
X87890001Y-155600001D02*
X87150000Y-155600000D01*
X87890000Y-154810000D01*
X87890001Y-155600001D01*
G36*
X87890001Y-155600001D02*
G01*
X87150000Y-155600000D01*
X87890000Y-154810000D01*
X87890001Y-155600001D01*
G37*
D13*
X88350000Y-152000000D02*
G75*
G02*
X79950000Y-152000000I-4200000J0D01*
G01*
X79950000Y-152000000D02*
G75*
G02*
X88350000Y-152000000I4200000J0D01*
G01*
D12*
X74150000Y-131000000D02*
G75*
G02*
X66150000Y-131000000I-4000000J0D01*
G01*
X66150000Y-131000000D02*
G75*
G02*
X74150000Y-131000000I4000000J0D01*
G01*
%LPC*%
D14*
X70150000Y-60000000D03*
D15*
X56150000Y-131000000D03*
D14*
X60150000Y-81000000D03*
D16*
X84150000Y-141000000D03*
D17*
X57500000Y-166250000D03*
D14*
X80150000Y-81000000D03*
X60150000Y-105000000D03*
D15*
X56150000Y-152000000D03*
X67150000Y-152000000D03*
X84150000Y-152000000D03*
D17*
X57500000Y-43750000D03*
D14*
X70150000Y-131000000D03*
%LPD*%
M02*
