%TF.GenerationSoftware,KiCad,Pcbnew,8.0.5*%
%TF.CreationDate,2024-11-03T16:46:17+01:00*%
%TF.ProjectId,cable-tester,6361626c-652d-4746-9573-7465722e6b69,rev?*%
%TF.SameCoordinates,Original*%
%TF.FileFunction,Drillmap*%
%TF.FilePolarity,Positive*%
%FSLAX45Y45*%
G04 Gerber Fmt 4.5, Leading zero omitted, Abs format (unit mm)*
G04 Created by KiCad (PCBNEW 8.0.5) date 2024-11-03 16:46:17*
%MOMM*%
%LPD*%
G01*
G04 APERTURE LIST*
%ADD10C,0.100000*%
%ADD11C,0.200000*%
%ADD12C,0.185000*%
G04 APERTURE END LIST*
D10*
X5000000Y-5000000D02*
X15000000Y-5000000D01*
X15000000Y-15000000D01*
X5000000Y-15000000D01*
X5000000Y-5000000D01*
D11*
D10*
X7960000Y-5360000D02*
X8040000Y-5440000D01*
X8040000Y-5360000D02*
X7960000Y-5440000D01*
X8210000Y-5360000D02*
X8290000Y-5440000D01*
X8290000Y-5360000D02*
X8210000Y-5440000D01*
X11760000Y-5360000D02*
X11840000Y-5440000D01*
X11840000Y-5360000D02*
X11760000Y-5440000D01*
X12010000Y-5360000D02*
X12090000Y-5440000D01*
X12090000Y-5360000D02*
X12010000Y-5440000D01*
X7825000Y-8377000D02*
G75*
G02*
X7735000Y-8377000I-45000J0D01*
G01*
X7735000Y-8377000D02*
G75*
G02*
X7825000Y-8377000I45000J0D01*
G01*
X7825000Y-8631000D02*
G75*
G02*
X7735000Y-8631000I-45000J0D01*
G01*
X7735000Y-8631000D02*
G75*
G02*
X7825000Y-8631000I45000J0D01*
G01*
X7825000Y-8877000D02*
G75*
G02*
X7735000Y-8877000I-45000J0D01*
G01*
X7735000Y-8877000D02*
G75*
G02*
X7825000Y-8877000I45000J0D01*
G01*
X7825000Y-9131000D02*
G75*
G02*
X7735000Y-9131000I-45000J0D01*
G01*
X7735000Y-9131000D02*
G75*
G02*
X7825000Y-9131000I45000J0D01*
G01*
X7825000Y-9377000D02*
G75*
G02*
X7735000Y-9377000I-45000J0D01*
G01*
X7735000Y-9377000D02*
G75*
G02*
X7825000Y-9377000I45000J0D01*
G01*
X7825000Y-9631000D02*
G75*
G02*
X7735000Y-9631000I-45000J0D01*
G01*
X7735000Y-9631000D02*
G75*
G02*
X7825000Y-9631000I45000J0D01*
G01*
X7825000Y-9877000D02*
G75*
G02*
X7735000Y-9877000I-45000J0D01*
G01*
X7735000Y-9877000D02*
G75*
G02*
X7825000Y-9877000I45000J0D01*
G01*
X7825000Y-10131000D02*
G75*
G02*
X7735000Y-10131000I-45000J0D01*
G01*
X7735000Y-10131000D02*
G75*
G02*
X7825000Y-10131000I45000J0D01*
G01*
X7825000Y-10377000D02*
G75*
G02*
X7735000Y-10377000I-45000J0D01*
G01*
X7735000Y-10377000D02*
G75*
G02*
X7825000Y-10377000I45000J0D01*
G01*
X7825000Y-10631000D02*
G75*
G02*
X7735000Y-10631000I-45000J0D01*
G01*
X7735000Y-10631000D02*
G75*
G02*
X7825000Y-10631000I45000J0D01*
G01*
X7825000Y-10877000D02*
G75*
G02*
X7735000Y-10877000I-45000J0D01*
G01*
X7735000Y-10877000D02*
G75*
G02*
X7825000Y-10877000I45000J0D01*
G01*
X7825000Y-11131000D02*
G75*
G02*
X7735000Y-11131000I-45000J0D01*
G01*
X7735000Y-11131000D02*
G75*
G02*
X7825000Y-11131000I45000J0D01*
G01*
X7825000Y-11377000D02*
G75*
G02*
X7735000Y-11377000I-45000J0D01*
G01*
X7735000Y-11377000D02*
G75*
G02*
X7825000Y-11377000I45000J0D01*
G01*
X7825000Y-11631000D02*
G75*
G02*
X7735000Y-11631000I-45000J0D01*
G01*
X7735000Y-11631000D02*
G75*
G02*
X7825000Y-11631000I45000J0D01*
G01*
X12345000Y-7877000D02*
G75*
G02*
X12255000Y-7877000I-45000J0D01*
G01*
X12255000Y-7877000D02*
G75*
G02*
X12345000Y-7877000I45000J0D01*
G01*
X12345000Y-8131000D02*
G75*
G02*
X12255000Y-8131000I-45000J0D01*
G01*
X12255000Y-8131000D02*
G75*
G02*
X12345000Y-8131000I45000J0D01*
G01*
X12345000Y-8377000D02*
G75*
G02*
X12255000Y-8377000I-45000J0D01*
G01*
X12255000Y-8377000D02*
G75*
G02*
X12345000Y-8377000I45000J0D01*
G01*
X12345000Y-8631000D02*
G75*
G02*
X12255000Y-8631000I-45000J0D01*
G01*
X12255000Y-8631000D02*
G75*
G02*
X12345000Y-8631000I45000J0D01*
G01*
X12345000Y-8877000D02*
G75*
G02*
X12255000Y-8877000I-45000J0D01*
G01*
X12255000Y-8877000D02*
G75*
G02*
X12345000Y-8877000I45000J0D01*
G01*
X12345000Y-9131000D02*
G75*
G02*
X12255000Y-9131000I-45000J0D01*
G01*
X12255000Y-9131000D02*
G75*
G02*
X12345000Y-9131000I45000J0D01*
G01*
X12345000Y-9377000D02*
G75*
G02*
X12255000Y-9377000I-45000J0D01*
G01*
X12255000Y-9377000D02*
G75*
G02*
X12345000Y-9377000I45000J0D01*
G01*
X12345000Y-9631000D02*
G75*
G02*
X12255000Y-9631000I-45000J0D01*
G01*
X12255000Y-9631000D02*
G75*
G02*
X12345000Y-9631000I45000J0D01*
G01*
X12345000Y-9877000D02*
G75*
G02*
X12255000Y-9877000I-45000J0D01*
G01*
X12255000Y-9877000D02*
G75*
G02*
X12345000Y-9877000I45000J0D01*
G01*
X12345000Y-10131000D02*
G75*
G02*
X12255000Y-10131000I-45000J0D01*
G01*
X12255000Y-10131000D02*
G75*
G02*
X12345000Y-10131000I45000J0D01*
G01*
X12345000Y-10377000D02*
G75*
G02*
X12255000Y-10377000I-45000J0D01*
G01*
X12255000Y-10377000D02*
G75*
G02*
X12345000Y-10377000I45000J0D01*
G01*
X12345000Y-10631000D02*
G75*
G02*
X12255000Y-10631000I-45000J0D01*
G01*
X12255000Y-10631000D02*
G75*
G02*
X12345000Y-10631000I45000J0D01*
G01*
X12345000Y-10877000D02*
G75*
G02*
X12255000Y-10877000I-45000J0D01*
G01*
X12255000Y-10877000D02*
G75*
G02*
X12345000Y-10877000I45000J0D01*
G01*
X12345000Y-11131000D02*
G75*
G02*
X12255000Y-11131000I-45000J0D01*
G01*
X12255000Y-11131000D02*
G75*
G02*
X12345000Y-11131000I45000J0D01*
G01*
X12345000Y-11377000D02*
G75*
G02*
X12255000Y-11377000I-45000J0D01*
G01*
X12255000Y-11377000D02*
G75*
G02*
X12345000Y-11377000I45000J0D01*
G01*
X12345000Y-11631000D02*
G75*
G02*
X12255000Y-11631000I-45000J0D01*
G01*
X12255000Y-11631000D02*
G75*
G02*
X12345000Y-11631000I45000J0D01*
G01*
X9638000Y-9289740D02*
X9638000Y-9386260D01*
X9589740Y-9338000D02*
X9686260Y-9338000D01*
X9638000Y-9543740D02*
X9638000Y-9640260D01*
X9589740Y-9592000D02*
X9686260Y-9592000D01*
X9638000Y-9797740D02*
X9638000Y-9894260D01*
X9589740Y-9846000D02*
X9686260Y-9846000D01*
X9638000Y-10051740D02*
X9638000Y-10148260D01*
X9589740Y-10100000D02*
X9686260Y-10100000D01*
X9638000Y-10305740D02*
X9638000Y-10402260D01*
X9589740Y-10354000D02*
X9686260Y-10354000D01*
X9638000Y-10559740D02*
X9638000Y-10656260D01*
X9589740Y-10608000D02*
X9686260Y-10608000D01*
X9638000Y-10813740D02*
X9638000Y-10910260D01*
X9589740Y-10862000D02*
X9686260Y-10862000D01*
X9638000Y-11067740D02*
X9638000Y-11164260D01*
X9589740Y-11116000D02*
X9686260Y-11116000D01*
X9638000Y-11321740D02*
X9638000Y-11418260D01*
X9589740Y-11370000D02*
X9686260Y-11370000D01*
X9638000Y-11575740D02*
X9638000Y-11672260D01*
X9589740Y-11624000D02*
X9686260Y-11624000D01*
X10400000Y-9289740D02*
X10400000Y-9386260D01*
X10351740Y-9338000D02*
X10448260Y-9338000D01*
X10400000Y-9543740D02*
X10400000Y-9640260D01*
X10351740Y-9592000D02*
X10448260Y-9592000D01*
X10400000Y-9797740D02*
X10400000Y-9894260D01*
X10351740Y-9846000D02*
X10448260Y-9846000D01*
X10400000Y-10051740D02*
X10400000Y-10148260D01*
X10351740Y-10100000D02*
X10448260Y-10100000D01*
X10400000Y-10305740D02*
X10400000Y-10402260D01*
X10351740Y-10354000D02*
X10448260Y-10354000D01*
X10400000Y-10559740D02*
X10400000Y-10656260D01*
X10351740Y-10608000D02*
X10448260Y-10608000D01*
X10400000Y-10813740D02*
X10400000Y-10910260D01*
X10351740Y-10862000D02*
X10448260Y-10862000D01*
X10400000Y-11067740D02*
X10400000Y-11164260D01*
X10351740Y-11116000D02*
X10448260Y-11116000D01*
X10400000Y-11321740D02*
X10400000Y-11418260D01*
X10351740Y-11370000D02*
X10448260Y-11370000D01*
X10400000Y-11575740D02*
X10400000Y-11672260D01*
X10351740Y-11624000D02*
X10448260Y-11624000D01*
X5615356Y-9035356D02*
X5615356Y-8964644D01*
X5544644Y-8964644D01*
X5544644Y-9035356D01*
X5615356Y-9035356D01*
X5615356Y-9289356D02*
X5615356Y-9218644D01*
X5544644Y-9218644D01*
X5544644Y-9289356D01*
X5615356Y-9289356D01*
X5615356Y-9543356D02*
X5615356Y-9472644D01*
X5544644Y-9472644D01*
X5544644Y-9543356D01*
X5615356Y-9543356D01*
X5615356Y-9797356D02*
X5615356Y-9726644D01*
X5544644Y-9726644D01*
X5544644Y-9797356D01*
X5615356Y-9797356D01*
X5615356Y-10051356D02*
X5615356Y-9980644D01*
X5544644Y-9980644D01*
X5544644Y-10051356D01*
X5615356Y-10051356D01*
X5869356Y-9035356D02*
X5869356Y-8964644D01*
X5798644Y-8964644D01*
X5798644Y-9035356D01*
X5869356Y-9035356D01*
X5869356Y-9289356D02*
X5869356Y-9218644D01*
X5798644Y-9218644D01*
X5798644Y-9289356D01*
X5869356Y-9289356D01*
X5869356Y-9543356D02*
X5869356Y-9472644D01*
X5798644Y-9472644D01*
X5798644Y-9543356D01*
X5869356Y-9543356D01*
X5869356Y-9797356D02*
X5869356Y-9726644D01*
X5798644Y-9726644D01*
X5798644Y-9797356D01*
X5869356Y-9797356D01*
X5869356Y-10051356D02*
X5869356Y-9980644D01*
X5798644Y-9980644D01*
X5798644Y-10051356D01*
X5869356Y-10051356D01*
X6815356Y-9035356D02*
X6815356Y-8964644D01*
X6744644Y-8964644D01*
X6744644Y-9035356D01*
X6815356Y-9035356D01*
X6815356Y-9289356D02*
X6815356Y-9218644D01*
X6744644Y-9218644D01*
X6744644Y-9289356D01*
X6815356Y-9289356D01*
X6815356Y-9543356D02*
X6815356Y-9472644D01*
X6744644Y-9472644D01*
X6744644Y-9543356D01*
X6815356Y-9543356D01*
X6815356Y-9797356D02*
X6815356Y-9726644D01*
X6744644Y-9726644D01*
X6744644Y-9797356D01*
X6815356Y-9797356D01*
X6815356Y-10051356D02*
X6815356Y-9980644D01*
X6744644Y-9980644D01*
X6744644Y-10051356D01*
X6815356Y-10051356D01*
X6815356Y-10305356D02*
X6815356Y-10234644D01*
X6744644Y-10234644D01*
X6744644Y-10305356D01*
X6815356Y-10305356D01*
X6815356Y-10559356D02*
X6815356Y-10488644D01*
X6744644Y-10488644D01*
X6744644Y-10559356D01*
X6815356Y-10559356D01*
X6815356Y-10813356D02*
X6815356Y-10742644D01*
X6744644Y-10742644D01*
X6744644Y-10813356D01*
X6815356Y-10813356D01*
X7069356Y-9035356D02*
X7069356Y-8964644D01*
X6998644Y-8964644D01*
X6998644Y-9035356D01*
X7069356Y-9035356D01*
X7069356Y-9289356D02*
X7069356Y-9218644D01*
X6998644Y-9218644D01*
X6998644Y-9289356D01*
X7069356Y-9289356D01*
X7069356Y-9543356D02*
X7069356Y-9472644D01*
X6998644Y-9472644D01*
X6998644Y-9543356D01*
X7069356Y-9543356D01*
X7069356Y-9797356D02*
X7069356Y-9726644D01*
X6998644Y-9726644D01*
X6998644Y-9797356D01*
X7069356Y-9797356D01*
X7069356Y-10051356D02*
X7069356Y-9980644D01*
X6998644Y-9980644D01*
X6998644Y-10051356D01*
X7069356Y-10051356D01*
X7069356Y-10305356D02*
X7069356Y-10234644D01*
X6998644Y-10234644D01*
X6998644Y-10305356D01*
X7069356Y-10305356D01*
X7069356Y-10559356D02*
X7069356Y-10488644D01*
X6998644Y-10488644D01*
X6998644Y-10559356D01*
X7069356Y-10559356D01*
X7069356Y-10813356D02*
X7069356Y-10742644D01*
X6998644Y-10742644D01*
X6998644Y-10813356D01*
X7069356Y-10813356D01*
X9035356Y-9335356D02*
X9035356Y-9264644D01*
X8964644Y-9264644D01*
X8964644Y-9335356D01*
X9035356Y-9335356D01*
X9035356Y-9589356D02*
X9035356Y-9518644D01*
X8964644Y-9518644D01*
X8964644Y-9589356D01*
X9035356Y-9589356D01*
X9035356Y-9843356D02*
X9035356Y-9772644D01*
X8964644Y-9772644D01*
X8964644Y-9843356D01*
X9035356Y-9843356D01*
X9035356Y-10097356D02*
X9035356Y-10026644D01*
X8964644Y-10026644D01*
X8964644Y-10097356D01*
X9035356Y-10097356D01*
X9035356Y-10351356D02*
X9035356Y-10280644D01*
X8964644Y-10280644D01*
X8964644Y-10351356D01*
X9035356Y-10351356D01*
X9035356Y-10605356D02*
X9035356Y-10534644D01*
X8964644Y-10534644D01*
X8964644Y-10605356D01*
X9035356Y-10605356D01*
X9035356Y-10859356D02*
X9035356Y-10788644D01*
X8964644Y-10788644D01*
X8964644Y-10859356D01*
X9035356Y-10859356D01*
X9035356Y-11113356D02*
X9035356Y-11042644D01*
X8964644Y-11042644D01*
X8964644Y-11113356D01*
X9035356Y-11113356D01*
X9035356Y-11367356D02*
X9035356Y-11296644D01*
X8964644Y-11296644D01*
X8964644Y-11367356D01*
X9035356Y-11367356D01*
X9035356Y-11621356D02*
X9035356Y-11550644D01*
X8964644Y-11550644D01*
X8964644Y-11621356D01*
X9035356Y-11621356D01*
X9519356Y-5535356D02*
X9519356Y-5464644D01*
X9448644Y-5464644D01*
X9448644Y-5535356D01*
X9519356Y-5535356D01*
X9519356Y-5789356D02*
X9519356Y-5718644D01*
X9448644Y-5718644D01*
X9448644Y-5789356D01*
X9519356Y-5789356D01*
X9773356Y-5535356D02*
X9773356Y-5464644D01*
X9702644Y-5464644D01*
X9702644Y-5535356D01*
X9773356Y-5535356D01*
X9773356Y-5789356D02*
X9773356Y-5718644D01*
X9702644Y-5718644D01*
X9702644Y-5789356D01*
X9773356Y-5789356D01*
X10027356Y-5535356D02*
X10027356Y-5464644D01*
X9956644Y-5464644D01*
X9956644Y-5535356D01*
X10027356Y-5535356D01*
X10027356Y-5789356D02*
X10027356Y-5718644D01*
X9956644Y-5718644D01*
X9956644Y-5789356D01*
X10027356Y-5789356D01*
X10281356Y-5535356D02*
X10281356Y-5464644D01*
X10210644Y-5464644D01*
X10210644Y-5535356D01*
X10281356Y-5535356D01*
X10281356Y-5789356D02*
X10281356Y-5718644D01*
X10210644Y-5718644D01*
X10210644Y-5789356D01*
X10281356Y-5789356D01*
X10535356Y-5535356D02*
X10535356Y-5464644D01*
X10464644Y-5464644D01*
X10464644Y-5535356D01*
X10535356Y-5535356D01*
X10535356Y-5789356D02*
X10535356Y-5718644D01*
X10464644Y-5718644D01*
X10464644Y-5789356D01*
X10535356Y-5789356D01*
X11035356Y-9335356D02*
X11035356Y-9264644D01*
X10964644Y-9264644D01*
X10964644Y-9335356D01*
X11035356Y-9335356D01*
X11035356Y-9589356D02*
X11035356Y-9518644D01*
X10964644Y-9518644D01*
X10964644Y-9589356D01*
X11035356Y-9589356D01*
X11035356Y-9843356D02*
X11035356Y-9772644D01*
X10964644Y-9772644D01*
X10964644Y-9843356D01*
X11035356Y-9843356D01*
X11035356Y-10097356D02*
X11035356Y-10026644D01*
X10964644Y-10026644D01*
X10964644Y-10097356D01*
X11035356Y-10097356D01*
X11035356Y-10351356D02*
X11035356Y-10280644D01*
X10964644Y-10280644D01*
X10964644Y-10351356D01*
X11035356Y-10351356D01*
X11035356Y-10605356D02*
X11035356Y-10534644D01*
X10964644Y-10534644D01*
X10964644Y-10605356D01*
X11035356Y-10605356D01*
X11035356Y-10859356D02*
X11035356Y-10788644D01*
X10964644Y-10788644D01*
X10964644Y-10859356D01*
X11035356Y-10859356D01*
X11035356Y-11113356D02*
X11035356Y-11042644D01*
X10964644Y-11042644D01*
X10964644Y-11113356D01*
X11035356Y-11113356D01*
X11035356Y-11367356D02*
X11035356Y-11296644D01*
X10964644Y-11296644D01*
X10964644Y-11367356D01*
X11035356Y-11367356D01*
X11035356Y-11621356D02*
X11035356Y-11550644D01*
X10964644Y-11550644D01*
X10964644Y-11621356D01*
X11035356Y-11621356D01*
X13035356Y-9035356D02*
X13035356Y-8964644D01*
X12964644Y-8964644D01*
X12964644Y-9035356D01*
X13035356Y-9035356D01*
X13035356Y-9289356D02*
X13035356Y-9218644D01*
X12964644Y-9218644D01*
X12964644Y-9289356D01*
X13035356Y-9289356D01*
X13035356Y-9543356D02*
X13035356Y-9472644D01*
X12964644Y-9472644D01*
X12964644Y-9543356D01*
X13035356Y-9543356D01*
X13035356Y-9797356D02*
X13035356Y-9726644D01*
X12964644Y-9726644D01*
X12964644Y-9797356D01*
X13035356Y-9797356D01*
X13035356Y-10051356D02*
X13035356Y-9980644D01*
X12964644Y-9980644D01*
X12964644Y-10051356D01*
X13035356Y-10051356D01*
X13035356Y-10305356D02*
X13035356Y-10234644D01*
X12964644Y-10234644D01*
X12964644Y-10305356D01*
X13035356Y-10305356D01*
X13035356Y-10559356D02*
X13035356Y-10488644D01*
X12964644Y-10488644D01*
X12964644Y-10559356D01*
X13035356Y-10559356D01*
X13035356Y-10813356D02*
X13035356Y-10742644D01*
X12964644Y-10742644D01*
X12964644Y-10813356D01*
X13035356Y-10813356D01*
X13289356Y-9035356D02*
X13289356Y-8964644D01*
X13218644Y-8964644D01*
X13218644Y-9035356D01*
X13289356Y-9035356D01*
X13289356Y-9289356D02*
X13289356Y-9218644D01*
X13218644Y-9218644D01*
X13218644Y-9289356D01*
X13289356Y-9289356D01*
X13289356Y-9543356D02*
X13289356Y-9472644D01*
X13218644Y-9472644D01*
X13218644Y-9543356D01*
X13289356Y-9543356D01*
X13289356Y-9797356D02*
X13289356Y-9726644D01*
X13218644Y-9726644D01*
X13218644Y-9797356D01*
X13289356Y-9797356D01*
X13289356Y-10051356D02*
X13289356Y-9980644D01*
X13218644Y-9980644D01*
X13218644Y-10051356D01*
X13289356Y-10051356D01*
X13289356Y-10305356D02*
X13289356Y-10234644D01*
X13218644Y-10234644D01*
X13218644Y-10305356D01*
X13289356Y-10305356D01*
X13289356Y-10559356D02*
X13289356Y-10488644D01*
X13218644Y-10488644D01*
X13218644Y-10559356D01*
X13289356Y-10559356D01*
X13289356Y-10813356D02*
X13289356Y-10742644D01*
X13218644Y-10742644D01*
X13218644Y-10813356D01*
X13289356Y-10813356D01*
X14235356Y-9035356D02*
X14235356Y-8964644D01*
X14164644Y-8964644D01*
X14164644Y-9035356D01*
X14235356Y-9035356D01*
X14235356Y-9289356D02*
X14235356Y-9218644D01*
X14164644Y-9218644D01*
X14164644Y-9289356D01*
X14235356Y-9289356D01*
X14235356Y-9543356D02*
X14235356Y-9472644D01*
X14164644Y-9472644D01*
X14164644Y-9543356D01*
X14235356Y-9543356D01*
X14235356Y-9797356D02*
X14235356Y-9726644D01*
X14164644Y-9726644D01*
X14164644Y-9797356D01*
X14235356Y-9797356D01*
X14235356Y-10051356D02*
X14235356Y-9980644D01*
X14164644Y-9980644D01*
X14164644Y-10051356D01*
X14235356Y-10051356D01*
X14489356Y-9035356D02*
X14489356Y-8964644D01*
X14418644Y-8964644D01*
X14418644Y-9035356D01*
X14489356Y-9035356D01*
X14489356Y-9289356D02*
X14489356Y-9218644D01*
X14418644Y-9218644D01*
X14418644Y-9289356D01*
X14489356Y-9289356D01*
X14489356Y-9543356D02*
X14489356Y-9472644D01*
X14418644Y-9472644D01*
X14418644Y-9543356D01*
X14489356Y-9543356D01*
X14489356Y-9797356D02*
X14489356Y-9726644D01*
X14418644Y-9726644D01*
X14418644Y-9797356D01*
X14489356Y-9797356D01*
X14489356Y-10051356D02*
X14489356Y-9980644D01*
X14418644Y-9980644D01*
X14418644Y-10051356D01*
X14489356Y-10051356D01*
D12*
X9530000Y-7592500D02*
X9622500Y-7500000D01*
X9530000Y-7407500D01*
X9437500Y-7500000D01*
X9530000Y-7592500D01*
X10000000Y-7592500D02*
X10092500Y-7500000D01*
X10000000Y-7407500D01*
X9907500Y-7500000D01*
X10000000Y-7592500D01*
X10470000Y-7592500D02*
X10562500Y-7500000D01*
X10470000Y-7407500D01*
X10377500Y-7500000D01*
X10470000Y-7592500D01*
D11*
X5255777Y-15316484D02*
X5255777Y-15116484D01*
X5255777Y-15116484D02*
X5303396Y-15116484D01*
X5303396Y-15116484D02*
X5331967Y-15126008D01*
X5331967Y-15126008D02*
X5351015Y-15145055D01*
X5351015Y-15145055D02*
X5360539Y-15164103D01*
X5360539Y-15164103D02*
X5370063Y-15202198D01*
X5370063Y-15202198D02*
X5370063Y-15230769D01*
X5370063Y-15230769D02*
X5360539Y-15268865D01*
X5360539Y-15268865D02*
X5351015Y-15287912D01*
X5351015Y-15287912D02*
X5331967Y-15306960D01*
X5331967Y-15306960D02*
X5303396Y-15316484D01*
X5303396Y-15316484D02*
X5255777Y-15316484D01*
X5455777Y-15316484D02*
X5455777Y-15183150D01*
X5455777Y-15221246D02*
X5465301Y-15202198D01*
X5465301Y-15202198D02*
X5474824Y-15192674D01*
X5474824Y-15192674D02*
X5493872Y-15183150D01*
X5493872Y-15183150D02*
X5512920Y-15183150D01*
X5579586Y-15316484D02*
X5579586Y-15183150D01*
X5579586Y-15116484D02*
X5570063Y-15126008D01*
X5570063Y-15126008D02*
X5579586Y-15135531D01*
X5579586Y-15135531D02*
X5589110Y-15126008D01*
X5589110Y-15126008D02*
X5579586Y-15116484D01*
X5579586Y-15116484D02*
X5579586Y-15135531D01*
X5703396Y-15316484D02*
X5684348Y-15306960D01*
X5684348Y-15306960D02*
X5674824Y-15287912D01*
X5674824Y-15287912D02*
X5674824Y-15116484D01*
X5808158Y-15316484D02*
X5789110Y-15306960D01*
X5789110Y-15306960D02*
X5779586Y-15287912D01*
X5779586Y-15287912D02*
X5779586Y-15116484D01*
X6036729Y-15316484D02*
X6036729Y-15116484D01*
X6036729Y-15116484D02*
X6103396Y-15259341D01*
X6103396Y-15259341D02*
X6170062Y-15116484D01*
X6170062Y-15116484D02*
X6170062Y-15316484D01*
X6351015Y-15316484D02*
X6351015Y-15211722D01*
X6351015Y-15211722D02*
X6341491Y-15192674D01*
X6341491Y-15192674D02*
X6322443Y-15183150D01*
X6322443Y-15183150D02*
X6284348Y-15183150D01*
X6284348Y-15183150D02*
X6265301Y-15192674D01*
X6351015Y-15306960D02*
X6331967Y-15316484D01*
X6331967Y-15316484D02*
X6284348Y-15316484D01*
X6284348Y-15316484D02*
X6265301Y-15306960D01*
X6265301Y-15306960D02*
X6255777Y-15287912D01*
X6255777Y-15287912D02*
X6255777Y-15268865D01*
X6255777Y-15268865D02*
X6265301Y-15249817D01*
X6265301Y-15249817D02*
X6284348Y-15240293D01*
X6284348Y-15240293D02*
X6331967Y-15240293D01*
X6331967Y-15240293D02*
X6351015Y-15230769D01*
X6446253Y-15183150D02*
X6446253Y-15383150D01*
X6446253Y-15192674D02*
X6465301Y-15183150D01*
X6465301Y-15183150D02*
X6503396Y-15183150D01*
X6503396Y-15183150D02*
X6522443Y-15192674D01*
X6522443Y-15192674D02*
X6531967Y-15202198D01*
X6531967Y-15202198D02*
X6541491Y-15221246D01*
X6541491Y-15221246D02*
X6541491Y-15278388D01*
X6541491Y-15278388D02*
X6531967Y-15297436D01*
X6531967Y-15297436D02*
X6522443Y-15306960D01*
X6522443Y-15306960D02*
X6503396Y-15316484D01*
X6503396Y-15316484D02*
X6465301Y-15316484D01*
X6465301Y-15316484D02*
X6446253Y-15306960D01*
X6627205Y-15297436D02*
X6636729Y-15306960D01*
X6636729Y-15306960D02*
X6627205Y-15316484D01*
X6627205Y-15316484D02*
X6617682Y-15306960D01*
X6617682Y-15306960D02*
X6627205Y-15297436D01*
X6627205Y-15297436D02*
X6627205Y-15316484D01*
X6627205Y-15192674D02*
X6636729Y-15202198D01*
X6636729Y-15202198D02*
X6627205Y-15211722D01*
X6627205Y-15211722D02*
X6617682Y-15202198D01*
X6617682Y-15202198D02*
X6627205Y-15192674D01*
X6627205Y-15192674D02*
X6627205Y-15211722D01*
D10*
X4915000Y-15605000D02*
X4995000Y-15685000D01*
X4995000Y-15605000D02*
X4915000Y-15685000D01*
D11*
X5293872Y-15536484D02*
X5312920Y-15536484D01*
X5312920Y-15536484D02*
X5331967Y-15546008D01*
X5331967Y-15546008D02*
X5341491Y-15555531D01*
X5341491Y-15555531D02*
X5351015Y-15574579D01*
X5351015Y-15574579D02*
X5360539Y-15612674D01*
X5360539Y-15612674D02*
X5360539Y-15660293D01*
X5360539Y-15660293D02*
X5351015Y-15698388D01*
X5351015Y-15698388D02*
X5341491Y-15717436D01*
X5341491Y-15717436D02*
X5331967Y-15726960D01*
X5331967Y-15726960D02*
X5312920Y-15736484D01*
X5312920Y-15736484D02*
X5293872Y-15736484D01*
X5293872Y-15736484D02*
X5274824Y-15726960D01*
X5274824Y-15726960D02*
X5265301Y-15717436D01*
X5265301Y-15717436D02*
X5255777Y-15698388D01*
X5255777Y-15698388D02*
X5246253Y-15660293D01*
X5246253Y-15660293D02*
X5246253Y-15612674D01*
X5246253Y-15612674D02*
X5255777Y-15574579D01*
X5255777Y-15574579D02*
X5265301Y-15555531D01*
X5265301Y-15555531D02*
X5274824Y-15546008D01*
X5274824Y-15546008D02*
X5293872Y-15536484D01*
X5446253Y-15717436D02*
X5455777Y-15726960D01*
X5455777Y-15726960D02*
X5446253Y-15736484D01*
X5446253Y-15736484D02*
X5436729Y-15726960D01*
X5436729Y-15726960D02*
X5446253Y-15717436D01*
X5446253Y-15717436D02*
X5446253Y-15736484D01*
X5570063Y-15622198D02*
X5551015Y-15612674D01*
X5551015Y-15612674D02*
X5541491Y-15603150D01*
X5541491Y-15603150D02*
X5531967Y-15584103D01*
X5531967Y-15584103D02*
X5531967Y-15574579D01*
X5531967Y-15574579D02*
X5541491Y-15555531D01*
X5541491Y-15555531D02*
X5551015Y-15546008D01*
X5551015Y-15546008D02*
X5570063Y-15536484D01*
X5570063Y-15536484D02*
X5608158Y-15536484D01*
X5608158Y-15536484D02*
X5627205Y-15546008D01*
X5627205Y-15546008D02*
X5636729Y-15555531D01*
X5636729Y-15555531D02*
X5646253Y-15574579D01*
X5646253Y-15574579D02*
X5646253Y-15584103D01*
X5646253Y-15584103D02*
X5636729Y-15603150D01*
X5636729Y-15603150D02*
X5627205Y-15612674D01*
X5627205Y-15612674D02*
X5608158Y-15622198D01*
X5608158Y-15622198D02*
X5570063Y-15622198D01*
X5570063Y-15622198D02*
X5551015Y-15631722D01*
X5551015Y-15631722D02*
X5541491Y-15641246D01*
X5541491Y-15641246D02*
X5531967Y-15660293D01*
X5531967Y-15660293D02*
X5531967Y-15698388D01*
X5531967Y-15698388D02*
X5541491Y-15717436D01*
X5541491Y-15717436D02*
X5551015Y-15726960D01*
X5551015Y-15726960D02*
X5570063Y-15736484D01*
X5570063Y-15736484D02*
X5608158Y-15736484D01*
X5608158Y-15736484D02*
X5627205Y-15726960D01*
X5627205Y-15726960D02*
X5636729Y-15717436D01*
X5636729Y-15717436D02*
X5646253Y-15698388D01*
X5646253Y-15698388D02*
X5646253Y-15660293D01*
X5646253Y-15660293D02*
X5636729Y-15641246D01*
X5636729Y-15641246D02*
X5627205Y-15631722D01*
X5627205Y-15631722D02*
X5608158Y-15622198D01*
X5770062Y-15536484D02*
X5789110Y-15536484D01*
X5789110Y-15536484D02*
X5808158Y-15546008D01*
X5808158Y-15546008D02*
X5817682Y-15555531D01*
X5817682Y-15555531D02*
X5827205Y-15574579D01*
X5827205Y-15574579D02*
X5836729Y-15612674D01*
X5836729Y-15612674D02*
X5836729Y-15660293D01*
X5836729Y-15660293D02*
X5827205Y-15698388D01*
X5827205Y-15698388D02*
X5817682Y-15717436D01*
X5817682Y-15717436D02*
X5808158Y-15726960D01*
X5808158Y-15726960D02*
X5789110Y-15736484D01*
X5789110Y-15736484D02*
X5770062Y-15736484D01*
X5770062Y-15736484D02*
X5751015Y-15726960D01*
X5751015Y-15726960D02*
X5741491Y-15717436D01*
X5741491Y-15717436D02*
X5731967Y-15698388D01*
X5731967Y-15698388D02*
X5722443Y-15660293D01*
X5722443Y-15660293D02*
X5722443Y-15612674D01*
X5722443Y-15612674D02*
X5731967Y-15574579D01*
X5731967Y-15574579D02*
X5741491Y-15555531D01*
X5741491Y-15555531D02*
X5751015Y-15546008D01*
X5751015Y-15546008D02*
X5770062Y-15536484D01*
X5960539Y-15536484D02*
X5979586Y-15536484D01*
X5979586Y-15536484D02*
X5998634Y-15546008D01*
X5998634Y-15546008D02*
X6008158Y-15555531D01*
X6008158Y-15555531D02*
X6017682Y-15574579D01*
X6017682Y-15574579D02*
X6027205Y-15612674D01*
X6027205Y-15612674D02*
X6027205Y-15660293D01*
X6027205Y-15660293D02*
X6017682Y-15698388D01*
X6017682Y-15698388D02*
X6008158Y-15717436D01*
X6008158Y-15717436D02*
X5998634Y-15726960D01*
X5998634Y-15726960D02*
X5979586Y-15736484D01*
X5979586Y-15736484D02*
X5960539Y-15736484D01*
X5960539Y-15736484D02*
X5941491Y-15726960D01*
X5941491Y-15726960D02*
X5931967Y-15717436D01*
X5931967Y-15717436D02*
X5922443Y-15698388D01*
X5922443Y-15698388D02*
X5912920Y-15660293D01*
X5912920Y-15660293D02*
X5912920Y-15612674D01*
X5912920Y-15612674D02*
X5922443Y-15574579D01*
X5922443Y-15574579D02*
X5931967Y-15555531D01*
X5931967Y-15555531D02*
X5941491Y-15546008D01*
X5941491Y-15546008D02*
X5960539Y-15536484D01*
X6112920Y-15736484D02*
X6112920Y-15603150D01*
X6112920Y-15622198D02*
X6122443Y-15612674D01*
X6122443Y-15612674D02*
X6141491Y-15603150D01*
X6141491Y-15603150D02*
X6170063Y-15603150D01*
X6170063Y-15603150D02*
X6189110Y-15612674D01*
X6189110Y-15612674D02*
X6198634Y-15631722D01*
X6198634Y-15631722D02*
X6198634Y-15736484D01*
X6198634Y-15631722D02*
X6208158Y-15612674D01*
X6208158Y-15612674D02*
X6227205Y-15603150D01*
X6227205Y-15603150D02*
X6255777Y-15603150D01*
X6255777Y-15603150D02*
X6274824Y-15612674D01*
X6274824Y-15612674D02*
X6284348Y-15631722D01*
X6284348Y-15631722D02*
X6284348Y-15736484D01*
X6379586Y-15736484D02*
X6379586Y-15603150D01*
X6379586Y-15622198D02*
X6389110Y-15612674D01*
X6389110Y-15612674D02*
X6408158Y-15603150D01*
X6408158Y-15603150D02*
X6436729Y-15603150D01*
X6436729Y-15603150D02*
X6455777Y-15612674D01*
X6455777Y-15612674D02*
X6465301Y-15631722D01*
X6465301Y-15631722D02*
X6465301Y-15736484D01*
X6465301Y-15631722D02*
X6474824Y-15612674D01*
X6474824Y-15612674D02*
X6493872Y-15603150D01*
X6493872Y-15603150D02*
X6522443Y-15603150D01*
X6522443Y-15603150D02*
X6541491Y-15612674D01*
X6541491Y-15612674D02*
X6551015Y-15631722D01*
X6551015Y-15631722D02*
X6551015Y-15736484D01*
X6941491Y-15526960D02*
X6770063Y-15784103D01*
X7198634Y-15536484D02*
X7217682Y-15536484D01*
X7217682Y-15536484D02*
X7236729Y-15546008D01*
X7236729Y-15546008D02*
X7246253Y-15555531D01*
X7246253Y-15555531D02*
X7255777Y-15574579D01*
X7255777Y-15574579D02*
X7265301Y-15612674D01*
X7265301Y-15612674D02*
X7265301Y-15660293D01*
X7265301Y-15660293D02*
X7255777Y-15698388D01*
X7255777Y-15698388D02*
X7246253Y-15717436D01*
X7246253Y-15717436D02*
X7236729Y-15726960D01*
X7236729Y-15726960D02*
X7217682Y-15736484D01*
X7217682Y-15736484D02*
X7198634Y-15736484D01*
X7198634Y-15736484D02*
X7179586Y-15726960D01*
X7179586Y-15726960D02*
X7170063Y-15717436D01*
X7170063Y-15717436D02*
X7160539Y-15698388D01*
X7160539Y-15698388D02*
X7151015Y-15660293D01*
X7151015Y-15660293D02*
X7151015Y-15612674D01*
X7151015Y-15612674D02*
X7160539Y-15574579D01*
X7160539Y-15574579D02*
X7170063Y-15555531D01*
X7170063Y-15555531D02*
X7179586Y-15546008D01*
X7179586Y-15546008D02*
X7198634Y-15536484D01*
X7351015Y-15717436D02*
X7360539Y-15726960D01*
X7360539Y-15726960D02*
X7351015Y-15736484D01*
X7351015Y-15736484D02*
X7341491Y-15726960D01*
X7341491Y-15726960D02*
X7351015Y-15717436D01*
X7351015Y-15717436D02*
X7351015Y-15736484D01*
X7484348Y-15536484D02*
X7503396Y-15536484D01*
X7503396Y-15536484D02*
X7522444Y-15546008D01*
X7522444Y-15546008D02*
X7531967Y-15555531D01*
X7531967Y-15555531D02*
X7541491Y-15574579D01*
X7541491Y-15574579D02*
X7551015Y-15612674D01*
X7551015Y-15612674D02*
X7551015Y-15660293D01*
X7551015Y-15660293D02*
X7541491Y-15698388D01*
X7541491Y-15698388D02*
X7531967Y-15717436D01*
X7531967Y-15717436D02*
X7522444Y-15726960D01*
X7522444Y-15726960D02*
X7503396Y-15736484D01*
X7503396Y-15736484D02*
X7484348Y-15736484D01*
X7484348Y-15736484D02*
X7465301Y-15726960D01*
X7465301Y-15726960D02*
X7455777Y-15717436D01*
X7455777Y-15717436D02*
X7446253Y-15698388D01*
X7446253Y-15698388D02*
X7436729Y-15660293D01*
X7436729Y-15660293D02*
X7436729Y-15612674D01*
X7436729Y-15612674D02*
X7446253Y-15574579D01*
X7446253Y-15574579D02*
X7455777Y-15555531D01*
X7455777Y-15555531D02*
X7465301Y-15546008D01*
X7465301Y-15546008D02*
X7484348Y-15536484D01*
X7617682Y-15536484D02*
X7741491Y-15536484D01*
X7741491Y-15536484D02*
X7674825Y-15612674D01*
X7674825Y-15612674D02*
X7703396Y-15612674D01*
X7703396Y-15612674D02*
X7722444Y-15622198D01*
X7722444Y-15622198D02*
X7731967Y-15631722D01*
X7731967Y-15631722D02*
X7741491Y-15650769D01*
X7741491Y-15650769D02*
X7741491Y-15698388D01*
X7741491Y-15698388D02*
X7731967Y-15717436D01*
X7731967Y-15717436D02*
X7722444Y-15726960D01*
X7722444Y-15726960D02*
X7703396Y-15736484D01*
X7703396Y-15736484D02*
X7646253Y-15736484D01*
X7646253Y-15736484D02*
X7627206Y-15726960D01*
X7627206Y-15726960D02*
X7617682Y-15717436D01*
X7931967Y-15736484D02*
X7817682Y-15736484D01*
X7874825Y-15736484D02*
X7874825Y-15536484D01*
X7874825Y-15536484D02*
X7855777Y-15565055D01*
X7855777Y-15565055D02*
X7836729Y-15584103D01*
X7836729Y-15584103D02*
X7817682Y-15593627D01*
X8112920Y-15536484D02*
X8017682Y-15536484D01*
X8017682Y-15536484D02*
X8008158Y-15631722D01*
X8008158Y-15631722D02*
X8017682Y-15622198D01*
X8017682Y-15622198D02*
X8036729Y-15612674D01*
X8036729Y-15612674D02*
X8084348Y-15612674D01*
X8084348Y-15612674D02*
X8103396Y-15622198D01*
X8103396Y-15622198D02*
X8112920Y-15631722D01*
X8112920Y-15631722D02*
X8122444Y-15650769D01*
X8122444Y-15650769D02*
X8122444Y-15698388D01*
X8122444Y-15698388D02*
X8112920Y-15717436D01*
X8112920Y-15717436D02*
X8103396Y-15726960D01*
X8103396Y-15726960D02*
X8084348Y-15736484D01*
X8084348Y-15736484D02*
X8036729Y-15736484D01*
X8036729Y-15736484D02*
X8017682Y-15726960D01*
X8017682Y-15726960D02*
X8008158Y-15717436D01*
X8198634Y-15536484D02*
X8198634Y-15574579D01*
X8274825Y-15536484D02*
X8274825Y-15574579D01*
X8570063Y-15812674D02*
X8560539Y-15803150D01*
X8560539Y-15803150D02*
X8541491Y-15774579D01*
X8541491Y-15774579D02*
X8531968Y-15755531D01*
X8531968Y-15755531D02*
X8522444Y-15726960D01*
X8522444Y-15726960D02*
X8512920Y-15679341D01*
X8512920Y-15679341D02*
X8512920Y-15641246D01*
X8512920Y-15641246D02*
X8522444Y-15593627D01*
X8522444Y-15593627D02*
X8531968Y-15565055D01*
X8531968Y-15565055D02*
X8541491Y-15546008D01*
X8541491Y-15546008D02*
X8560539Y-15517436D01*
X8560539Y-15517436D02*
X8570063Y-15507912D01*
X8731968Y-15603150D02*
X8731968Y-15736484D01*
X8684349Y-15526960D02*
X8636730Y-15669817D01*
X8636730Y-15669817D02*
X8760539Y-15669817D01*
X8989111Y-15736484D02*
X8989111Y-15536484D01*
X9074825Y-15736484D02*
X9074825Y-15631722D01*
X9074825Y-15631722D02*
X9065301Y-15612674D01*
X9065301Y-15612674D02*
X9046253Y-15603150D01*
X9046253Y-15603150D02*
X9017682Y-15603150D01*
X9017682Y-15603150D02*
X8998634Y-15612674D01*
X8998634Y-15612674D02*
X8989111Y-15622198D01*
X9198634Y-15736484D02*
X9179587Y-15726960D01*
X9179587Y-15726960D02*
X9170063Y-15717436D01*
X9170063Y-15717436D02*
X9160539Y-15698388D01*
X9160539Y-15698388D02*
X9160539Y-15641246D01*
X9160539Y-15641246D02*
X9170063Y-15622198D01*
X9170063Y-15622198D02*
X9179587Y-15612674D01*
X9179587Y-15612674D02*
X9198634Y-15603150D01*
X9198634Y-15603150D02*
X9227206Y-15603150D01*
X9227206Y-15603150D02*
X9246253Y-15612674D01*
X9246253Y-15612674D02*
X9255777Y-15622198D01*
X9255777Y-15622198D02*
X9265301Y-15641246D01*
X9265301Y-15641246D02*
X9265301Y-15698388D01*
X9265301Y-15698388D02*
X9255777Y-15717436D01*
X9255777Y-15717436D02*
X9246253Y-15726960D01*
X9246253Y-15726960D02*
X9227206Y-15736484D01*
X9227206Y-15736484D02*
X9198634Y-15736484D01*
X9379587Y-15736484D02*
X9360539Y-15726960D01*
X9360539Y-15726960D02*
X9351015Y-15707912D01*
X9351015Y-15707912D02*
X9351015Y-15536484D01*
X9531968Y-15726960D02*
X9512920Y-15736484D01*
X9512920Y-15736484D02*
X9474825Y-15736484D01*
X9474825Y-15736484D02*
X9455777Y-15726960D01*
X9455777Y-15726960D02*
X9446253Y-15707912D01*
X9446253Y-15707912D02*
X9446253Y-15631722D01*
X9446253Y-15631722D02*
X9455777Y-15612674D01*
X9455777Y-15612674D02*
X9474825Y-15603150D01*
X9474825Y-15603150D02*
X9512920Y-15603150D01*
X9512920Y-15603150D02*
X9531968Y-15612674D01*
X9531968Y-15612674D02*
X9541492Y-15631722D01*
X9541492Y-15631722D02*
X9541492Y-15650769D01*
X9541492Y-15650769D02*
X9446253Y-15669817D01*
X9617682Y-15726960D02*
X9636730Y-15736484D01*
X9636730Y-15736484D02*
X9674825Y-15736484D01*
X9674825Y-15736484D02*
X9693873Y-15726960D01*
X9693873Y-15726960D02*
X9703396Y-15707912D01*
X9703396Y-15707912D02*
X9703396Y-15698388D01*
X9703396Y-15698388D02*
X9693873Y-15679341D01*
X9693873Y-15679341D02*
X9674825Y-15669817D01*
X9674825Y-15669817D02*
X9646253Y-15669817D01*
X9646253Y-15669817D02*
X9627206Y-15660293D01*
X9627206Y-15660293D02*
X9617682Y-15641246D01*
X9617682Y-15641246D02*
X9617682Y-15631722D01*
X9617682Y-15631722D02*
X9627206Y-15612674D01*
X9627206Y-15612674D02*
X9646253Y-15603150D01*
X9646253Y-15603150D02*
X9674825Y-15603150D01*
X9674825Y-15603150D02*
X9693873Y-15612674D01*
X9770063Y-15812674D02*
X9779587Y-15803150D01*
X9779587Y-15803150D02*
X9798634Y-15774579D01*
X9798634Y-15774579D02*
X9808158Y-15755531D01*
X9808158Y-15755531D02*
X9817682Y-15726960D01*
X9817682Y-15726960D02*
X9827206Y-15679341D01*
X9827206Y-15679341D02*
X9827206Y-15641246D01*
X9827206Y-15641246D02*
X9817682Y-15593627D01*
X9817682Y-15593627D02*
X9808158Y-15565055D01*
X9808158Y-15565055D02*
X9798634Y-15546008D01*
X9798634Y-15546008D02*
X9779587Y-15517436D01*
X9779587Y-15517436D02*
X9770063Y-15507912D01*
D10*
X4995000Y-15909000D02*
G75*
G02*
X4905000Y-15909000I-45000J0D01*
G01*
X4905000Y-15909000D02*
G75*
G02*
X4995000Y-15909000I45000J0D01*
G01*
D11*
X5293872Y-15800484D02*
X5312920Y-15800484D01*
X5312920Y-15800484D02*
X5331967Y-15810008D01*
X5331967Y-15810008D02*
X5341491Y-15819531D01*
X5341491Y-15819531D02*
X5351015Y-15838579D01*
X5351015Y-15838579D02*
X5360539Y-15876674D01*
X5360539Y-15876674D02*
X5360539Y-15924293D01*
X5360539Y-15924293D02*
X5351015Y-15962388D01*
X5351015Y-15962388D02*
X5341491Y-15981436D01*
X5341491Y-15981436D02*
X5331967Y-15990960D01*
X5331967Y-15990960D02*
X5312920Y-16000484D01*
X5312920Y-16000484D02*
X5293872Y-16000484D01*
X5293872Y-16000484D02*
X5274824Y-15990960D01*
X5274824Y-15990960D02*
X5265301Y-15981436D01*
X5265301Y-15981436D02*
X5255777Y-15962388D01*
X5255777Y-15962388D02*
X5246253Y-15924293D01*
X5246253Y-15924293D02*
X5246253Y-15876674D01*
X5246253Y-15876674D02*
X5255777Y-15838579D01*
X5255777Y-15838579D02*
X5265301Y-15819531D01*
X5265301Y-15819531D02*
X5274824Y-15810008D01*
X5274824Y-15810008D02*
X5293872Y-15800484D01*
X5446253Y-15981436D02*
X5455777Y-15990960D01*
X5455777Y-15990960D02*
X5446253Y-16000484D01*
X5446253Y-16000484D02*
X5436729Y-15990960D01*
X5436729Y-15990960D02*
X5446253Y-15981436D01*
X5446253Y-15981436D02*
X5446253Y-16000484D01*
X5551015Y-16000484D02*
X5589110Y-16000484D01*
X5589110Y-16000484D02*
X5608158Y-15990960D01*
X5608158Y-15990960D02*
X5617682Y-15981436D01*
X5617682Y-15981436D02*
X5636729Y-15952865D01*
X5636729Y-15952865D02*
X5646253Y-15914769D01*
X5646253Y-15914769D02*
X5646253Y-15838579D01*
X5646253Y-15838579D02*
X5636729Y-15819531D01*
X5636729Y-15819531D02*
X5627205Y-15810008D01*
X5627205Y-15810008D02*
X5608158Y-15800484D01*
X5608158Y-15800484D02*
X5570063Y-15800484D01*
X5570063Y-15800484D02*
X5551015Y-15810008D01*
X5551015Y-15810008D02*
X5541491Y-15819531D01*
X5541491Y-15819531D02*
X5531967Y-15838579D01*
X5531967Y-15838579D02*
X5531967Y-15886198D01*
X5531967Y-15886198D02*
X5541491Y-15905246D01*
X5541491Y-15905246D02*
X5551015Y-15914769D01*
X5551015Y-15914769D02*
X5570063Y-15924293D01*
X5570063Y-15924293D02*
X5608158Y-15924293D01*
X5608158Y-15924293D02*
X5627205Y-15914769D01*
X5627205Y-15914769D02*
X5636729Y-15905246D01*
X5636729Y-15905246D02*
X5646253Y-15886198D01*
X5770062Y-15800484D02*
X5789110Y-15800484D01*
X5789110Y-15800484D02*
X5808158Y-15810008D01*
X5808158Y-15810008D02*
X5817682Y-15819531D01*
X5817682Y-15819531D02*
X5827205Y-15838579D01*
X5827205Y-15838579D02*
X5836729Y-15876674D01*
X5836729Y-15876674D02*
X5836729Y-15924293D01*
X5836729Y-15924293D02*
X5827205Y-15962388D01*
X5827205Y-15962388D02*
X5817682Y-15981436D01*
X5817682Y-15981436D02*
X5808158Y-15990960D01*
X5808158Y-15990960D02*
X5789110Y-16000484D01*
X5789110Y-16000484D02*
X5770062Y-16000484D01*
X5770062Y-16000484D02*
X5751015Y-15990960D01*
X5751015Y-15990960D02*
X5741491Y-15981436D01*
X5741491Y-15981436D02*
X5731967Y-15962388D01*
X5731967Y-15962388D02*
X5722443Y-15924293D01*
X5722443Y-15924293D02*
X5722443Y-15876674D01*
X5722443Y-15876674D02*
X5731967Y-15838579D01*
X5731967Y-15838579D02*
X5741491Y-15819531D01*
X5741491Y-15819531D02*
X5751015Y-15810008D01*
X5751015Y-15810008D02*
X5770062Y-15800484D01*
X5960539Y-15800484D02*
X5979586Y-15800484D01*
X5979586Y-15800484D02*
X5998634Y-15810008D01*
X5998634Y-15810008D02*
X6008158Y-15819531D01*
X6008158Y-15819531D02*
X6017682Y-15838579D01*
X6017682Y-15838579D02*
X6027205Y-15876674D01*
X6027205Y-15876674D02*
X6027205Y-15924293D01*
X6027205Y-15924293D02*
X6017682Y-15962388D01*
X6017682Y-15962388D02*
X6008158Y-15981436D01*
X6008158Y-15981436D02*
X5998634Y-15990960D01*
X5998634Y-15990960D02*
X5979586Y-16000484D01*
X5979586Y-16000484D02*
X5960539Y-16000484D01*
X5960539Y-16000484D02*
X5941491Y-15990960D01*
X5941491Y-15990960D02*
X5931967Y-15981436D01*
X5931967Y-15981436D02*
X5922443Y-15962388D01*
X5922443Y-15962388D02*
X5912920Y-15924293D01*
X5912920Y-15924293D02*
X5912920Y-15876674D01*
X5912920Y-15876674D02*
X5922443Y-15838579D01*
X5922443Y-15838579D02*
X5931967Y-15819531D01*
X5931967Y-15819531D02*
X5941491Y-15810008D01*
X5941491Y-15810008D02*
X5960539Y-15800484D01*
X6112920Y-16000484D02*
X6112920Y-15867150D01*
X6112920Y-15886198D02*
X6122443Y-15876674D01*
X6122443Y-15876674D02*
X6141491Y-15867150D01*
X6141491Y-15867150D02*
X6170063Y-15867150D01*
X6170063Y-15867150D02*
X6189110Y-15876674D01*
X6189110Y-15876674D02*
X6198634Y-15895722D01*
X6198634Y-15895722D02*
X6198634Y-16000484D01*
X6198634Y-15895722D02*
X6208158Y-15876674D01*
X6208158Y-15876674D02*
X6227205Y-15867150D01*
X6227205Y-15867150D02*
X6255777Y-15867150D01*
X6255777Y-15867150D02*
X6274824Y-15876674D01*
X6274824Y-15876674D02*
X6284348Y-15895722D01*
X6284348Y-15895722D02*
X6284348Y-16000484D01*
X6379586Y-16000484D02*
X6379586Y-15867150D01*
X6379586Y-15886198D02*
X6389110Y-15876674D01*
X6389110Y-15876674D02*
X6408158Y-15867150D01*
X6408158Y-15867150D02*
X6436729Y-15867150D01*
X6436729Y-15867150D02*
X6455777Y-15876674D01*
X6455777Y-15876674D02*
X6465301Y-15895722D01*
X6465301Y-15895722D02*
X6465301Y-16000484D01*
X6465301Y-15895722D02*
X6474824Y-15876674D01*
X6474824Y-15876674D02*
X6493872Y-15867150D01*
X6493872Y-15867150D02*
X6522443Y-15867150D01*
X6522443Y-15867150D02*
X6541491Y-15876674D01*
X6541491Y-15876674D02*
X6551015Y-15895722D01*
X6551015Y-15895722D02*
X6551015Y-16000484D01*
X6941491Y-15790960D02*
X6770063Y-16048103D01*
X7198634Y-15800484D02*
X7217682Y-15800484D01*
X7217682Y-15800484D02*
X7236729Y-15810008D01*
X7236729Y-15810008D02*
X7246253Y-15819531D01*
X7246253Y-15819531D02*
X7255777Y-15838579D01*
X7255777Y-15838579D02*
X7265301Y-15876674D01*
X7265301Y-15876674D02*
X7265301Y-15924293D01*
X7265301Y-15924293D02*
X7255777Y-15962388D01*
X7255777Y-15962388D02*
X7246253Y-15981436D01*
X7246253Y-15981436D02*
X7236729Y-15990960D01*
X7236729Y-15990960D02*
X7217682Y-16000484D01*
X7217682Y-16000484D02*
X7198634Y-16000484D01*
X7198634Y-16000484D02*
X7179586Y-15990960D01*
X7179586Y-15990960D02*
X7170063Y-15981436D01*
X7170063Y-15981436D02*
X7160539Y-15962388D01*
X7160539Y-15962388D02*
X7151015Y-15924293D01*
X7151015Y-15924293D02*
X7151015Y-15876674D01*
X7151015Y-15876674D02*
X7160539Y-15838579D01*
X7160539Y-15838579D02*
X7170063Y-15819531D01*
X7170063Y-15819531D02*
X7179586Y-15810008D01*
X7179586Y-15810008D02*
X7198634Y-15800484D01*
X7351015Y-15981436D02*
X7360539Y-15990960D01*
X7360539Y-15990960D02*
X7351015Y-16000484D01*
X7351015Y-16000484D02*
X7341491Y-15990960D01*
X7341491Y-15990960D02*
X7351015Y-15981436D01*
X7351015Y-15981436D02*
X7351015Y-16000484D01*
X7484348Y-15800484D02*
X7503396Y-15800484D01*
X7503396Y-15800484D02*
X7522444Y-15810008D01*
X7522444Y-15810008D02*
X7531967Y-15819531D01*
X7531967Y-15819531D02*
X7541491Y-15838579D01*
X7541491Y-15838579D02*
X7551015Y-15876674D01*
X7551015Y-15876674D02*
X7551015Y-15924293D01*
X7551015Y-15924293D02*
X7541491Y-15962388D01*
X7541491Y-15962388D02*
X7531967Y-15981436D01*
X7531967Y-15981436D02*
X7522444Y-15990960D01*
X7522444Y-15990960D02*
X7503396Y-16000484D01*
X7503396Y-16000484D02*
X7484348Y-16000484D01*
X7484348Y-16000484D02*
X7465301Y-15990960D01*
X7465301Y-15990960D02*
X7455777Y-15981436D01*
X7455777Y-15981436D02*
X7446253Y-15962388D01*
X7446253Y-15962388D02*
X7436729Y-15924293D01*
X7436729Y-15924293D02*
X7436729Y-15876674D01*
X7436729Y-15876674D02*
X7446253Y-15838579D01*
X7446253Y-15838579D02*
X7455777Y-15819531D01*
X7455777Y-15819531D02*
X7465301Y-15810008D01*
X7465301Y-15810008D02*
X7484348Y-15800484D01*
X7617682Y-15800484D02*
X7741491Y-15800484D01*
X7741491Y-15800484D02*
X7674825Y-15876674D01*
X7674825Y-15876674D02*
X7703396Y-15876674D01*
X7703396Y-15876674D02*
X7722444Y-15886198D01*
X7722444Y-15886198D02*
X7731967Y-15895722D01*
X7731967Y-15895722D02*
X7741491Y-15914769D01*
X7741491Y-15914769D02*
X7741491Y-15962388D01*
X7741491Y-15962388D02*
X7731967Y-15981436D01*
X7731967Y-15981436D02*
X7722444Y-15990960D01*
X7722444Y-15990960D02*
X7703396Y-16000484D01*
X7703396Y-16000484D02*
X7646253Y-16000484D01*
X7646253Y-16000484D02*
X7627206Y-15990960D01*
X7627206Y-15990960D02*
X7617682Y-15981436D01*
X7922444Y-15800484D02*
X7827206Y-15800484D01*
X7827206Y-15800484D02*
X7817682Y-15895722D01*
X7817682Y-15895722D02*
X7827206Y-15886198D01*
X7827206Y-15886198D02*
X7846253Y-15876674D01*
X7846253Y-15876674D02*
X7893872Y-15876674D01*
X7893872Y-15876674D02*
X7912920Y-15886198D01*
X7912920Y-15886198D02*
X7922444Y-15895722D01*
X7922444Y-15895722D02*
X7931967Y-15914769D01*
X7931967Y-15914769D02*
X7931967Y-15962388D01*
X7931967Y-15962388D02*
X7922444Y-15981436D01*
X7922444Y-15981436D02*
X7912920Y-15990960D01*
X7912920Y-15990960D02*
X7893872Y-16000484D01*
X7893872Y-16000484D02*
X7846253Y-16000484D01*
X7846253Y-16000484D02*
X7827206Y-15990960D01*
X7827206Y-15990960D02*
X7817682Y-15981436D01*
X8103396Y-15867150D02*
X8103396Y-16000484D01*
X8055777Y-15790960D02*
X8008158Y-15933817D01*
X8008158Y-15933817D02*
X8131967Y-15933817D01*
X8198634Y-15800484D02*
X8198634Y-15838579D01*
X8274825Y-15800484D02*
X8274825Y-15838579D01*
X8570063Y-16076674D02*
X8560539Y-16067150D01*
X8560539Y-16067150D02*
X8541491Y-16038579D01*
X8541491Y-16038579D02*
X8531968Y-16019531D01*
X8531968Y-16019531D02*
X8522444Y-15990960D01*
X8522444Y-15990960D02*
X8512920Y-15943341D01*
X8512920Y-15943341D02*
X8512920Y-15905246D01*
X8512920Y-15905246D02*
X8522444Y-15857627D01*
X8522444Y-15857627D02*
X8531968Y-15829055D01*
X8531968Y-15829055D02*
X8541491Y-15810008D01*
X8541491Y-15810008D02*
X8560539Y-15781436D01*
X8560539Y-15781436D02*
X8570063Y-15771912D01*
X8627206Y-15800484D02*
X8751015Y-15800484D01*
X8751015Y-15800484D02*
X8684349Y-15876674D01*
X8684349Y-15876674D02*
X8712920Y-15876674D01*
X8712920Y-15876674D02*
X8731968Y-15886198D01*
X8731968Y-15886198D02*
X8741491Y-15895722D01*
X8741491Y-15895722D02*
X8751015Y-15914769D01*
X8751015Y-15914769D02*
X8751015Y-15962388D01*
X8751015Y-15962388D02*
X8741491Y-15981436D01*
X8741491Y-15981436D02*
X8731968Y-15990960D01*
X8731968Y-15990960D02*
X8712920Y-16000484D01*
X8712920Y-16000484D02*
X8655777Y-16000484D01*
X8655777Y-16000484D02*
X8636730Y-15990960D01*
X8636730Y-15990960D02*
X8627206Y-15981436D01*
X8874825Y-15800484D02*
X8893872Y-15800484D01*
X8893872Y-15800484D02*
X8912920Y-15810008D01*
X8912920Y-15810008D02*
X8922444Y-15819531D01*
X8922444Y-15819531D02*
X8931968Y-15838579D01*
X8931968Y-15838579D02*
X8941491Y-15876674D01*
X8941491Y-15876674D02*
X8941491Y-15924293D01*
X8941491Y-15924293D02*
X8931968Y-15962388D01*
X8931968Y-15962388D02*
X8922444Y-15981436D01*
X8922444Y-15981436D02*
X8912920Y-15990960D01*
X8912920Y-15990960D02*
X8893872Y-16000484D01*
X8893872Y-16000484D02*
X8874825Y-16000484D01*
X8874825Y-16000484D02*
X8855777Y-15990960D01*
X8855777Y-15990960D02*
X8846253Y-15981436D01*
X8846253Y-15981436D02*
X8836730Y-15962388D01*
X8836730Y-15962388D02*
X8827206Y-15924293D01*
X8827206Y-15924293D02*
X8827206Y-15876674D01*
X8827206Y-15876674D02*
X8836730Y-15838579D01*
X8836730Y-15838579D02*
X8846253Y-15819531D01*
X8846253Y-15819531D02*
X8855777Y-15810008D01*
X8855777Y-15810008D02*
X8874825Y-15800484D01*
X9179587Y-16000484D02*
X9179587Y-15800484D01*
X9265301Y-16000484D02*
X9265301Y-15895722D01*
X9265301Y-15895722D02*
X9255777Y-15876674D01*
X9255777Y-15876674D02*
X9236730Y-15867150D01*
X9236730Y-15867150D02*
X9208158Y-15867150D01*
X9208158Y-15867150D02*
X9189111Y-15876674D01*
X9189111Y-15876674D02*
X9179587Y-15886198D01*
X9389111Y-16000484D02*
X9370063Y-15990960D01*
X9370063Y-15990960D02*
X9360539Y-15981436D01*
X9360539Y-15981436D02*
X9351015Y-15962388D01*
X9351015Y-15962388D02*
X9351015Y-15905246D01*
X9351015Y-15905246D02*
X9360539Y-15886198D01*
X9360539Y-15886198D02*
X9370063Y-15876674D01*
X9370063Y-15876674D02*
X9389111Y-15867150D01*
X9389111Y-15867150D02*
X9417682Y-15867150D01*
X9417682Y-15867150D02*
X9436730Y-15876674D01*
X9436730Y-15876674D02*
X9446253Y-15886198D01*
X9446253Y-15886198D02*
X9455777Y-15905246D01*
X9455777Y-15905246D02*
X9455777Y-15962388D01*
X9455777Y-15962388D02*
X9446253Y-15981436D01*
X9446253Y-15981436D02*
X9436730Y-15990960D01*
X9436730Y-15990960D02*
X9417682Y-16000484D01*
X9417682Y-16000484D02*
X9389111Y-16000484D01*
X9570063Y-16000484D02*
X9551015Y-15990960D01*
X9551015Y-15990960D02*
X9541492Y-15971912D01*
X9541492Y-15971912D02*
X9541492Y-15800484D01*
X9722444Y-15990960D02*
X9703396Y-16000484D01*
X9703396Y-16000484D02*
X9665301Y-16000484D01*
X9665301Y-16000484D02*
X9646253Y-15990960D01*
X9646253Y-15990960D02*
X9636730Y-15971912D01*
X9636730Y-15971912D02*
X9636730Y-15895722D01*
X9636730Y-15895722D02*
X9646253Y-15876674D01*
X9646253Y-15876674D02*
X9665301Y-15867150D01*
X9665301Y-15867150D02*
X9703396Y-15867150D01*
X9703396Y-15867150D02*
X9722444Y-15876674D01*
X9722444Y-15876674D02*
X9731968Y-15895722D01*
X9731968Y-15895722D02*
X9731968Y-15914769D01*
X9731968Y-15914769D02*
X9636730Y-15933817D01*
X9808158Y-15990960D02*
X9827206Y-16000484D01*
X9827206Y-16000484D02*
X9865301Y-16000484D01*
X9865301Y-16000484D02*
X9884349Y-15990960D01*
X9884349Y-15990960D02*
X9893873Y-15971912D01*
X9893873Y-15971912D02*
X9893873Y-15962388D01*
X9893873Y-15962388D02*
X9884349Y-15943341D01*
X9884349Y-15943341D02*
X9865301Y-15933817D01*
X9865301Y-15933817D02*
X9836730Y-15933817D01*
X9836730Y-15933817D02*
X9817682Y-15924293D01*
X9817682Y-15924293D02*
X9808158Y-15905246D01*
X9808158Y-15905246D02*
X9808158Y-15895722D01*
X9808158Y-15895722D02*
X9817682Y-15876674D01*
X9817682Y-15876674D02*
X9836730Y-15867150D01*
X9836730Y-15867150D02*
X9865301Y-15867150D01*
X9865301Y-15867150D02*
X9884349Y-15876674D01*
X9960539Y-16076674D02*
X9970063Y-16067150D01*
X9970063Y-16067150D02*
X9989111Y-16038579D01*
X9989111Y-16038579D02*
X9998634Y-16019531D01*
X9998634Y-16019531D02*
X10008158Y-15990960D01*
X10008158Y-15990960D02*
X10017682Y-15943341D01*
X10017682Y-15943341D02*
X10017682Y-15905246D01*
X10017682Y-15905246D02*
X10008158Y-15857627D01*
X10008158Y-15857627D02*
X9998634Y-15829055D01*
X9998634Y-15829055D02*
X9989111Y-15810008D01*
X9989111Y-15810008D02*
X9970063Y-15781436D01*
X9970063Y-15781436D02*
X9960539Y-15771912D01*
D10*
X4946740Y-16124740D02*
X4946740Y-16221260D01*
X4898480Y-16173000D02*
X4995000Y-16173000D01*
D11*
X5293872Y-16064484D02*
X5312920Y-16064484D01*
X5312920Y-16064484D02*
X5331967Y-16074008D01*
X5331967Y-16074008D02*
X5341491Y-16083531D01*
X5341491Y-16083531D02*
X5351015Y-16102579D01*
X5351015Y-16102579D02*
X5360539Y-16140674D01*
X5360539Y-16140674D02*
X5360539Y-16188293D01*
X5360539Y-16188293D02*
X5351015Y-16226388D01*
X5351015Y-16226388D02*
X5341491Y-16245436D01*
X5341491Y-16245436D02*
X5331967Y-16254960D01*
X5331967Y-16254960D02*
X5312920Y-16264484D01*
X5312920Y-16264484D02*
X5293872Y-16264484D01*
X5293872Y-16264484D02*
X5274824Y-16254960D01*
X5274824Y-16254960D02*
X5265301Y-16245436D01*
X5265301Y-16245436D02*
X5255777Y-16226388D01*
X5255777Y-16226388D02*
X5246253Y-16188293D01*
X5246253Y-16188293D02*
X5246253Y-16140674D01*
X5246253Y-16140674D02*
X5255777Y-16102579D01*
X5255777Y-16102579D02*
X5265301Y-16083531D01*
X5265301Y-16083531D02*
X5274824Y-16074008D01*
X5274824Y-16074008D02*
X5293872Y-16064484D01*
X5446253Y-16245436D02*
X5455777Y-16254960D01*
X5455777Y-16254960D02*
X5446253Y-16264484D01*
X5446253Y-16264484D02*
X5436729Y-16254960D01*
X5436729Y-16254960D02*
X5446253Y-16245436D01*
X5446253Y-16245436D02*
X5446253Y-16264484D01*
X5551015Y-16264484D02*
X5589110Y-16264484D01*
X5589110Y-16264484D02*
X5608158Y-16254960D01*
X5608158Y-16254960D02*
X5617682Y-16245436D01*
X5617682Y-16245436D02*
X5636729Y-16216865D01*
X5636729Y-16216865D02*
X5646253Y-16178769D01*
X5646253Y-16178769D02*
X5646253Y-16102579D01*
X5646253Y-16102579D02*
X5636729Y-16083531D01*
X5636729Y-16083531D02*
X5627205Y-16074008D01*
X5627205Y-16074008D02*
X5608158Y-16064484D01*
X5608158Y-16064484D02*
X5570063Y-16064484D01*
X5570063Y-16064484D02*
X5551015Y-16074008D01*
X5551015Y-16074008D02*
X5541491Y-16083531D01*
X5541491Y-16083531D02*
X5531967Y-16102579D01*
X5531967Y-16102579D02*
X5531967Y-16150198D01*
X5531967Y-16150198D02*
X5541491Y-16169246D01*
X5541491Y-16169246D02*
X5551015Y-16178769D01*
X5551015Y-16178769D02*
X5570063Y-16188293D01*
X5570063Y-16188293D02*
X5608158Y-16188293D01*
X5608158Y-16188293D02*
X5627205Y-16178769D01*
X5627205Y-16178769D02*
X5636729Y-16169246D01*
X5636729Y-16169246D02*
X5646253Y-16150198D01*
X5817682Y-16064484D02*
X5779586Y-16064484D01*
X5779586Y-16064484D02*
X5760539Y-16074008D01*
X5760539Y-16074008D02*
X5751015Y-16083531D01*
X5751015Y-16083531D02*
X5731967Y-16112103D01*
X5731967Y-16112103D02*
X5722443Y-16150198D01*
X5722443Y-16150198D02*
X5722443Y-16226388D01*
X5722443Y-16226388D02*
X5731967Y-16245436D01*
X5731967Y-16245436D02*
X5741491Y-16254960D01*
X5741491Y-16254960D02*
X5760539Y-16264484D01*
X5760539Y-16264484D02*
X5798634Y-16264484D01*
X5798634Y-16264484D02*
X5817682Y-16254960D01*
X5817682Y-16254960D02*
X5827205Y-16245436D01*
X5827205Y-16245436D02*
X5836729Y-16226388D01*
X5836729Y-16226388D02*
X5836729Y-16178769D01*
X5836729Y-16178769D02*
X5827205Y-16159722D01*
X5827205Y-16159722D02*
X5817682Y-16150198D01*
X5817682Y-16150198D02*
X5798634Y-16140674D01*
X5798634Y-16140674D02*
X5760539Y-16140674D01*
X5760539Y-16140674D02*
X5741491Y-16150198D01*
X5741491Y-16150198D02*
X5731967Y-16159722D01*
X5731967Y-16159722D02*
X5722443Y-16178769D01*
X6017682Y-16064484D02*
X5922443Y-16064484D01*
X5922443Y-16064484D02*
X5912920Y-16159722D01*
X5912920Y-16159722D02*
X5922443Y-16150198D01*
X5922443Y-16150198D02*
X5941491Y-16140674D01*
X5941491Y-16140674D02*
X5989110Y-16140674D01*
X5989110Y-16140674D02*
X6008158Y-16150198D01*
X6008158Y-16150198D02*
X6017682Y-16159722D01*
X6017682Y-16159722D02*
X6027205Y-16178769D01*
X6027205Y-16178769D02*
X6027205Y-16226388D01*
X6027205Y-16226388D02*
X6017682Y-16245436D01*
X6017682Y-16245436D02*
X6008158Y-16254960D01*
X6008158Y-16254960D02*
X5989110Y-16264484D01*
X5989110Y-16264484D02*
X5941491Y-16264484D01*
X5941491Y-16264484D02*
X5922443Y-16254960D01*
X5922443Y-16254960D02*
X5912920Y-16245436D01*
X6112920Y-16264484D02*
X6112920Y-16131150D01*
X6112920Y-16150198D02*
X6122443Y-16140674D01*
X6122443Y-16140674D02*
X6141491Y-16131150D01*
X6141491Y-16131150D02*
X6170063Y-16131150D01*
X6170063Y-16131150D02*
X6189110Y-16140674D01*
X6189110Y-16140674D02*
X6198634Y-16159722D01*
X6198634Y-16159722D02*
X6198634Y-16264484D01*
X6198634Y-16159722D02*
X6208158Y-16140674D01*
X6208158Y-16140674D02*
X6227205Y-16131150D01*
X6227205Y-16131150D02*
X6255777Y-16131150D01*
X6255777Y-16131150D02*
X6274824Y-16140674D01*
X6274824Y-16140674D02*
X6284348Y-16159722D01*
X6284348Y-16159722D02*
X6284348Y-16264484D01*
X6379586Y-16264484D02*
X6379586Y-16131150D01*
X6379586Y-16150198D02*
X6389110Y-16140674D01*
X6389110Y-16140674D02*
X6408158Y-16131150D01*
X6408158Y-16131150D02*
X6436729Y-16131150D01*
X6436729Y-16131150D02*
X6455777Y-16140674D01*
X6455777Y-16140674D02*
X6465301Y-16159722D01*
X6465301Y-16159722D02*
X6465301Y-16264484D01*
X6465301Y-16159722D02*
X6474824Y-16140674D01*
X6474824Y-16140674D02*
X6493872Y-16131150D01*
X6493872Y-16131150D02*
X6522443Y-16131150D01*
X6522443Y-16131150D02*
X6541491Y-16140674D01*
X6541491Y-16140674D02*
X6551015Y-16159722D01*
X6551015Y-16159722D02*
X6551015Y-16264484D01*
X6941491Y-16054960D02*
X6770063Y-16312103D01*
X7198634Y-16064484D02*
X7217682Y-16064484D01*
X7217682Y-16064484D02*
X7236729Y-16074008D01*
X7236729Y-16074008D02*
X7246253Y-16083531D01*
X7246253Y-16083531D02*
X7255777Y-16102579D01*
X7255777Y-16102579D02*
X7265301Y-16140674D01*
X7265301Y-16140674D02*
X7265301Y-16188293D01*
X7265301Y-16188293D02*
X7255777Y-16226388D01*
X7255777Y-16226388D02*
X7246253Y-16245436D01*
X7246253Y-16245436D02*
X7236729Y-16254960D01*
X7236729Y-16254960D02*
X7217682Y-16264484D01*
X7217682Y-16264484D02*
X7198634Y-16264484D01*
X7198634Y-16264484D02*
X7179586Y-16254960D01*
X7179586Y-16254960D02*
X7170063Y-16245436D01*
X7170063Y-16245436D02*
X7160539Y-16226388D01*
X7160539Y-16226388D02*
X7151015Y-16188293D01*
X7151015Y-16188293D02*
X7151015Y-16140674D01*
X7151015Y-16140674D02*
X7160539Y-16102579D01*
X7160539Y-16102579D02*
X7170063Y-16083531D01*
X7170063Y-16083531D02*
X7179586Y-16074008D01*
X7179586Y-16074008D02*
X7198634Y-16064484D01*
X7351015Y-16245436D02*
X7360539Y-16254960D01*
X7360539Y-16254960D02*
X7351015Y-16264484D01*
X7351015Y-16264484D02*
X7341491Y-16254960D01*
X7341491Y-16254960D02*
X7351015Y-16245436D01*
X7351015Y-16245436D02*
X7351015Y-16264484D01*
X7484348Y-16064484D02*
X7503396Y-16064484D01*
X7503396Y-16064484D02*
X7522444Y-16074008D01*
X7522444Y-16074008D02*
X7531967Y-16083531D01*
X7531967Y-16083531D02*
X7541491Y-16102579D01*
X7541491Y-16102579D02*
X7551015Y-16140674D01*
X7551015Y-16140674D02*
X7551015Y-16188293D01*
X7551015Y-16188293D02*
X7541491Y-16226388D01*
X7541491Y-16226388D02*
X7531967Y-16245436D01*
X7531967Y-16245436D02*
X7522444Y-16254960D01*
X7522444Y-16254960D02*
X7503396Y-16264484D01*
X7503396Y-16264484D02*
X7484348Y-16264484D01*
X7484348Y-16264484D02*
X7465301Y-16254960D01*
X7465301Y-16254960D02*
X7455777Y-16245436D01*
X7455777Y-16245436D02*
X7446253Y-16226388D01*
X7446253Y-16226388D02*
X7436729Y-16188293D01*
X7436729Y-16188293D02*
X7436729Y-16140674D01*
X7436729Y-16140674D02*
X7446253Y-16102579D01*
X7446253Y-16102579D02*
X7455777Y-16083531D01*
X7455777Y-16083531D02*
X7465301Y-16074008D01*
X7465301Y-16074008D02*
X7484348Y-16064484D01*
X7617682Y-16064484D02*
X7741491Y-16064484D01*
X7741491Y-16064484D02*
X7674825Y-16140674D01*
X7674825Y-16140674D02*
X7703396Y-16140674D01*
X7703396Y-16140674D02*
X7722444Y-16150198D01*
X7722444Y-16150198D02*
X7731967Y-16159722D01*
X7731967Y-16159722D02*
X7741491Y-16178769D01*
X7741491Y-16178769D02*
X7741491Y-16226388D01*
X7741491Y-16226388D02*
X7731967Y-16245436D01*
X7731967Y-16245436D02*
X7722444Y-16254960D01*
X7722444Y-16254960D02*
X7703396Y-16264484D01*
X7703396Y-16264484D02*
X7646253Y-16264484D01*
X7646253Y-16264484D02*
X7627206Y-16254960D01*
X7627206Y-16254960D02*
X7617682Y-16245436D01*
X7855777Y-16150198D02*
X7836729Y-16140674D01*
X7836729Y-16140674D02*
X7827206Y-16131150D01*
X7827206Y-16131150D02*
X7817682Y-16112103D01*
X7817682Y-16112103D02*
X7817682Y-16102579D01*
X7817682Y-16102579D02*
X7827206Y-16083531D01*
X7827206Y-16083531D02*
X7836729Y-16074008D01*
X7836729Y-16074008D02*
X7855777Y-16064484D01*
X7855777Y-16064484D02*
X7893872Y-16064484D01*
X7893872Y-16064484D02*
X7912920Y-16074008D01*
X7912920Y-16074008D02*
X7922444Y-16083531D01*
X7922444Y-16083531D02*
X7931967Y-16102579D01*
X7931967Y-16102579D02*
X7931967Y-16112103D01*
X7931967Y-16112103D02*
X7922444Y-16131150D01*
X7922444Y-16131150D02*
X7912920Y-16140674D01*
X7912920Y-16140674D02*
X7893872Y-16150198D01*
X7893872Y-16150198D02*
X7855777Y-16150198D01*
X7855777Y-16150198D02*
X7836729Y-16159722D01*
X7836729Y-16159722D02*
X7827206Y-16169246D01*
X7827206Y-16169246D02*
X7817682Y-16188293D01*
X7817682Y-16188293D02*
X7817682Y-16226388D01*
X7817682Y-16226388D02*
X7827206Y-16245436D01*
X7827206Y-16245436D02*
X7836729Y-16254960D01*
X7836729Y-16254960D02*
X7855777Y-16264484D01*
X7855777Y-16264484D02*
X7893872Y-16264484D01*
X7893872Y-16264484D02*
X7912920Y-16254960D01*
X7912920Y-16254960D02*
X7922444Y-16245436D01*
X7922444Y-16245436D02*
X7931967Y-16226388D01*
X7931967Y-16226388D02*
X7931967Y-16188293D01*
X7931967Y-16188293D02*
X7922444Y-16169246D01*
X7922444Y-16169246D02*
X7912920Y-16159722D01*
X7912920Y-16159722D02*
X7893872Y-16150198D01*
X8055777Y-16064484D02*
X8074825Y-16064484D01*
X8074825Y-16064484D02*
X8093872Y-16074008D01*
X8093872Y-16074008D02*
X8103396Y-16083531D01*
X8103396Y-16083531D02*
X8112920Y-16102579D01*
X8112920Y-16102579D02*
X8122444Y-16140674D01*
X8122444Y-16140674D02*
X8122444Y-16188293D01*
X8122444Y-16188293D02*
X8112920Y-16226388D01*
X8112920Y-16226388D02*
X8103396Y-16245436D01*
X8103396Y-16245436D02*
X8093872Y-16254960D01*
X8093872Y-16254960D02*
X8074825Y-16264484D01*
X8074825Y-16264484D02*
X8055777Y-16264484D01*
X8055777Y-16264484D02*
X8036729Y-16254960D01*
X8036729Y-16254960D02*
X8027206Y-16245436D01*
X8027206Y-16245436D02*
X8017682Y-16226388D01*
X8017682Y-16226388D02*
X8008158Y-16188293D01*
X8008158Y-16188293D02*
X8008158Y-16140674D01*
X8008158Y-16140674D02*
X8017682Y-16102579D01*
X8017682Y-16102579D02*
X8027206Y-16083531D01*
X8027206Y-16083531D02*
X8036729Y-16074008D01*
X8036729Y-16074008D02*
X8055777Y-16064484D01*
X8198634Y-16064484D02*
X8198634Y-16102579D01*
X8274825Y-16064484D02*
X8274825Y-16102579D01*
X8570063Y-16340674D02*
X8560539Y-16331150D01*
X8560539Y-16331150D02*
X8541491Y-16302579D01*
X8541491Y-16302579D02*
X8531968Y-16283531D01*
X8531968Y-16283531D02*
X8522444Y-16254960D01*
X8522444Y-16254960D02*
X8512920Y-16207341D01*
X8512920Y-16207341D02*
X8512920Y-16169246D01*
X8512920Y-16169246D02*
X8522444Y-16121627D01*
X8522444Y-16121627D02*
X8531968Y-16093055D01*
X8531968Y-16093055D02*
X8541491Y-16074008D01*
X8541491Y-16074008D02*
X8560539Y-16045436D01*
X8560539Y-16045436D02*
X8570063Y-16035912D01*
X8636730Y-16083531D02*
X8646253Y-16074008D01*
X8646253Y-16074008D02*
X8665301Y-16064484D01*
X8665301Y-16064484D02*
X8712920Y-16064484D01*
X8712920Y-16064484D02*
X8731968Y-16074008D01*
X8731968Y-16074008D02*
X8741491Y-16083531D01*
X8741491Y-16083531D02*
X8751015Y-16102579D01*
X8751015Y-16102579D02*
X8751015Y-16121627D01*
X8751015Y-16121627D02*
X8741491Y-16150198D01*
X8741491Y-16150198D02*
X8627206Y-16264484D01*
X8627206Y-16264484D02*
X8751015Y-16264484D01*
X8874825Y-16064484D02*
X8893872Y-16064484D01*
X8893872Y-16064484D02*
X8912920Y-16074008D01*
X8912920Y-16074008D02*
X8922444Y-16083531D01*
X8922444Y-16083531D02*
X8931968Y-16102579D01*
X8931968Y-16102579D02*
X8941491Y-16140674D01*
X8941491Y-16140674D02*
X8941491Y-16188293D01*
X8941491Y-16188293D02*
X8931968Y-16226388D01*
X8931968Y-16226388D02*
X8922444Y-16245436D01*
X8922444Y-16245436D02*
X8912920Y-16254960D01*
X8912920Y-16254960D02*
X8893872Y-16264484D01*
X8893872Y-16264484D02*
X8874825Y-16264484D01*
X8874825Y-16264484D02*
X8855777Y-16254960D01*
X8855777Y-16254960D02*
X8846253Y-16245436D01*
X8846253Y-16245436D02*
X8836730Y-16226388D01*
X8836730Y-16226388D02*
X8827206Y-16188293D01*
X8827206Y-16188293D02*
X8827206Y-16140674D01*
X8827206Y-16140674D02*
X8836730Y-16102579D01*
X8836730Y-16102579D02*
X8846253Y-16083531D01*
X8846253Y-16083531D02*
X8855777Y-16074008D01*
X8855777Y-16074008D02*
X8874825Y-16064484D01*
X9179587Y-16264484D02*
X9179587Y-16064484D01*
X9265301Y-16264484D02*
X9265301Y-16159722D01*
X9265301Y-16159722D02*
X9255777Y-16140674D01*
X9255777Y-16140674D02*
X9236730Y-16131150D01*
X9236730Y-16131150D02*
X9208158Y-16131150D01*
X9208158Y-16131150D02*
X9189111Y-16140674D01*
X9189111Y-16140674D02*
X9179587Y-16150198D01*
X9389111Y-16264484D02*
X9370063Y-16254960D01*
X9370063Y-16254960D02*
X9360539Y-16245436D01*
X9360539Y-16245436D02*
X9351015Y-16226388D01*
X9351015Y-16226388D02*
X9351015Y-16169246D01*
X9351015Y-16169246D02*
X9360539Y-16150198D01*
X9360539Y-16150198D02*
X9370063Y-16140674D01*
X9370063Y-16140674D02*
X9389111Y-16131150D01*
X9389111Y-16131150D02*
X9417682Y-16131150D01*
X9417682Y-16131150D02*
X9436730Y-16140674D01*
X9436730Y-16140674D02*
X9446253Y-16150198D01*
X9446253Y-16150198D02*
X9455777Y-16169246D01*
X9455777Y-16169246D02*
X9455777Y-16226388D01*
X9455777Y-16226388D02*
X9446253Y-16245436D01*
X9446253Y-16245436D02*
X9436730Y-16254960D01*
X9436730Y-16254960D02*
X9417682Y-16264484D01*
X9417682Y-16264484D02*
X9389111Y-16264484D01*
X9570063Y-16264484D02*
X9551015Y-16254960D01*
X9551015Y-16254960D02*
X9541492Y-16235912D01*
X9541492Y-16235912D02*
X9541492Y-16064484D01*
X9722444Y-16254960D02*
X9703396Y-16264484D01*
X9703396Y-16264484D02*
X9665301Y-16264484D01*
X9665301Y-16264484D02*
X9646253Y-16254960D01*
X9646253Y-16254960D02*
X9636730Y-16235912D01*
X9636730Y-16235912D02*
X9636730Y-16159722D01*
X9636730Y-16159722D02*
X9646253Y-16140674D01*
X9646253Y-16140674D02*
X9665301Y-16131150D01*
X9665301Y-16131150D02*
X9703396Y-16131150D01*
X9703396Y-16131150D02*
X9722444Y-16140674D01*
X9722444Y-16140674D02*
X9731968Y-16159722D01*
X9731968Y-16159722D02*
X9731968Y-16178769D01*
X9731968Y-16178769D02*
X9636730Y-16197817D01*
X9808158Y-16254960D02*
X9827206Y-16264484D01*
X9827206Y-16264484D02*
X9865301Y-16264484D01*
X9865301Y-16264484D02*
X9884349Y-16254960D01*
X9884349Y-16254960D02*
X9893873Y-16235912D01*
X9893873Y-16235912D02*
X9893873Y-16226388D01*
X9893873Y-16226388D02*
X9884349Y-16207341D01*
X9884349Y-16207341D02*
X9865301Y-16197817D01*
X9865301Y-16197817D02*
X9836730Y-16197817D01*
X9836730Y-16197817D02*
X9817682Y-16188293D01*
X9817682Y-16188293D02*
X9808158Y-16169246D01*
X9808158Y-16169246D02*
X9808158Y-16159722D01*
X9808158Y-16159722D02*
X9817682Y-16140674D01*
X9817682Y-16140674D02*
X9836730Y-16131150D01*
X9836730Y-16131150D02*
X9865301Y-16131150D01*
X9865301Y-16131150D02*
X9884349Y-16140674D01*
X9960539Y-16340674D02*
X9970063Y-16331150D01*
X9970063Y-16331150D02*
X9989111Y-16302579D01*
X9989111Y-16302579D02*
X9998634Y-16283531D01*
X9998634Y-16283531D02*
X10008158Y-16254960D01*
X10008158Y-16254960D02*
X10017682Y-16207341D01*
X10017682Y-16207341D02*
X10017682Y-16169246D01*
X10017682Y-16169246D02*
X10008158Y-16121627D01*
X10008158Y-16121627D02*
X9998634Y-16093055D01*
X9998634Y-16093055D02*
X9989111Y-16074008D01*
X9989111Y-16074008D02*
X9970063Y-16045436D01*
X9970063Y-16045436D02*
X9960539Y-16035912D01*
D10*
X4980356Y-16472356D02*
X4980356Y-16401644D01*
X4909644Y-16401644D01*
X4909644Y-16472356D01*
X4980356Y-16472356D01*
D11*
X5360539Y-16528484D02*
X5246253Y-16528484D01*
X5303396Y-16528484D02*
X5303396Y-16328484D01*
X5303396Y-16328484D02*
X5284348Y-16357055D01*
X5284348Y-16357055D02*
X5265301Y-16376103D01*
X5265301Y-16376103D02*
X5246253Y-16385627D01*
X5446253Y-16509436D02*
X5455777Y-16518960D01*
X5455777Y-16518960D02*
X5446253Y-16528484D01*
X5446253Y-16528484D02*
X5436729Y-16518960D01*
X5436729Y-16518960D02*
X5446253Y-16509436D01*
X5446253Y-16509436D02*
X5446253Y-16528484D01*
X5579586Y-16328484D02*
X5598634Y-16328484D01*
X5598634Y-16328484D02*
X5617682Y-16338008D01*
X5617682Y-16338008D02*
X5627205Y-16347531D01*
X5627205Y-16347531D02*
X5636729Y-16366579D01*
X5636729Y-16366579D02*
X5646253Y-16404674D01*
X5646253Y-16404674D02*
X5646253Y-16452293D01*
X5646253Y-16452293D02*
X5636729Y-16490388D01*
X5636729Y-16490388D02*
X5627205Y-16509436D01*
X5627205Y-16509436D02*
X5617682Y-16518960D01*
X5617682Y-16518960D02*
X5598634Y-16528484D01*
X5598634Y-16528484D02*
X5579586Y-16528484D01*
X5579586Y-16528484D02*
X5560539Y-16518960D01*
X5560539Y-16518960D02*
X5551015Y-16509436D01*
X5551015Y-16509436D02*
X5541491Y-16490388D01*
X5541491Y-16490388D02*
X5531967Y-16452293D01*
X5531967Y-16452293D02*
X5531967Y-16404674D01*
X5531967Y-16404674D02*
X5541491Y-16366579D01*
X5541491Y-16366579D02*
X5551015Y-16347531D01*
X5551015Y-16347531D02*
X5560539Y-16338008D01*
X5560539Y-16338008D02*
X5579586Y-16328484D01*
X5770062Y-16328484D02*
X5789110Y-16328484D01*
X5789110Y-16328484D02*
X5808158Y-16338008D01*
X5808158Y-16338008D02*
X5817682Y-16347531D01*
X5817682Y-16347531D02*
X5827205Y-16366579D01*
X5827205Y-16366579D02*
X5836729Y-16404674D01*
X5836729Y-16404674D02*
X5836729Y-16452293D01*
X5836729Y-16452293D02*
X5827205Y-16490388D01*
X5827205Y-16490388D02*
X5817682Y-16509436D01*
X5817682Y-16509436D02*
X5808158Y-16518960D01*
X5808158Y-16518960D02*
X5789110Y-16528484D01*
X5789110Y-16528484D02*
X5770062Y-16528484D01*
X5770062Y-16528484D02*
X5751015Y-16518960D01*
X5751015Y-16518960D02*
X5741491Y-16509436D01*
X5741491Y-16509436D02*
X5731967Y-16490388D01*
X5731967Y-16490388D02*
X5722443Y-16452293D01*
X5722443Y-16452293D02*
X5722443Y-16404674D01*
X5722443Y-16404674D02*
X5731967Y-16366579D01*
X5731967Y-16366579D02*
X5741491Y-16347531D01*
X5741491Y-16347531D02*
X5751015Y-16338008D01*
X5751015Y-16338008D02*
X5770062Y-16328484D01*
X5960539Y-16328484D02*
X5979586Y-16328484D01*
X5979586Y-16328484D02*
X5998634Y-16338008D01*
X5998634Y-16338008D02*
X6008158Y-16347531D01*
X6008158Y-16347531D02*
X6017682Y-16366579D01*
X6017682Y-16366579D02*
X6027205Y-16404674D01*
X6027205Y-16404674D02*
X6027205Y-16452293D01*
X6027205Y-16452293D02*
X6017682Y-16490388D01*
X6017682Y-16490388D02*
X6008158Y-16509436D01*
X6008158Y-16509436D02*
X5998634Y-16518960D01*
X5998634Y-16518960D02*
X5979586Y-16528484D01*
X5979586Y-16528484D02*
X5960539Y-16528484D01*
X5960539Y-16528484D02*
X5941491Y-16518960D01*
X5941491Y-16518960D02*
X5931967Y-16509436D01*
X5931967Y-16509436D02*
X5922443Y-16490388D01*
X5922443Y-16490388D02*
X5912920Y-16452293D01*
X5912920Y-16452293D02*
X5912920Y-16404674D01*
X5912920Y-16404674D02*
X5922443Y-16366579D01*
X5922443Y-16366579D02*
X5931967Y-16347531D01*
X5931967Y-16347531D02*
X5941491Y-16338008D01*
X5941491Y-16338008D02*
X5960539Y-16328484D01*
X6112920Y-16528484D02*
X6112920Y-16395150D01*
X6112920Y-16414198D02*
X6122443Y-16404674D01*
X6122443Y-16404674D02*
X6141491Y-16395150D01*
X6141491Y-16395150D02*
X6170063Y-16395150D01*
X6170063Y-16395150D02*
X6189110Y-16404674D01*
X6189110Y-16404674D02*
X6198634Y-16423722D01*
X6198634Y-16423722D02*
X6198634Y-16528484D01*
X6198634Y-16423722D02*
X6208158Y-16404674D01*
X6208158Y-16404674D02*
X6227205Y-16395150D01*
X6227205Y-16395150D02*
X6255777Y-16395150D01*
X6255777Y-16395150D02*
X6274824Y-16404674D01*
X6274824Y-16404674D02*
X6284348Y-16423722D01*
X6284348Y-16423722D02*
X6284348Y-16528484D01*
X6379586Y-16528484D02*
X6379586Y-16395150D01*
X6379586Y-16414198D02*
X6389110Y-16404674D01*
X6389110Y-16404674D02*
X6408158Y-16395150D01*
X6408158Y-16395150D02*
X6436729Y-16395150D01*
X6436729Y-16395150D02*
X6455777Y-16404674D01*
X6455777Y-16404674D02*
X6465301Y-16423722D01*
X6465301Y-16423722D02*
X6465301Y-16528484D01*
X6465301Y-16423722D02*
X6474824Y-16404674D01*
X6474824Y-16404674D02*
X6493872Y-16395150D01*
X6493872Y-16395150D02*
X6522443Y-16395150D01*
X6522443Y-16395150D02*
X6541491Y-16404674D01*
X6541491Y-16404674D02*
X6551015Y-16423722D01*
X6551015Y-16423722D02*
X6551015Y-16528484D01*
X6941491Y-16318960D02*
X6770063Y-16576103D01*
X7198634Y-16328484D02*
X7217682Y-16328484D01*
X7217682Y-16328484D02*
X7236729Y-16338008D01*
X7236729Y-16338008D02*
X7246253Y-16347531D01*
X7246253Y-16347531D02*
X7255777Y-16366579D01*
X7255777Y-16366579D02*
X7265301Y-16404674D01*
X7265301Y-16404674D02*
X7265301Y-16452293D01*
X7265301Y-16452293D02*
X7255777Y-16490388D01*
X7255777Y-16490388D02*
X7246253Y-16509436D01*
X7246253Y-16509436D02*
X7236729Y-16518960D01*
X7236729Y-16518960D02*
X7217682Y-16528484D01*
X7217682Y-16528484D02*
X7198634Y-16528484D01*
X7198634Y-16528484D02*
X7179586Y-16518960D01*
X7179586Y-16518960D02*
X7170063Y-16509436D01*
X7170063Y-16509436D02*
X7160539Y-16490388D01*
X7160539Y-16490388D02*
X7151015Y-16452293D01*
X7151015Y-16452293D02*
X7151015Y-16404674D01*
X7151015Y-16404674D02*
X7160539Y-16366579D01*
X7160539Y-16366579D02*
X7170063Y-16347531D01*
X7170063Y-16347531D02*
X7179586Y-16338008D01*
X7179586Y-16338008D02*
X7198634Y-16328484D01*
X7351015Y-16509436D02*
X7360539Y-16518960D01*
X7360539Y-16518960D02*
X7351015Y-16528484D01*
X7351015Y-16528484D02*
X7341491Y-16518960D01*
X7341491Y-16518960D02*
X7351015Y-16509436D01*
X7351015Y-16509436D02*
X7351015Y-16528484D01*
X7484348Y-16328484D02*
X7503396Y-16328484D01*
X7503396Y-16328484D02*
X7522444Y-16338008D01*
X7522444Y-16338008D02*
X7531967Y-16347531D01*
X7531967Y-16347531D02*
X7541491Y-16366579D01*
X7541491Y-16366579D02*
X7551015Y-16404674D01*
X7551015Y-16404674D02*
X7551015Y-16452293D01*
X7551015Y-16452293D02*
X7541491Y-16490388D01*
X7541491Y-16490388D02*
X7531967Y-16509436D01*
X7531967Y-16509436D02*
X7522444Y-16518960D01*
X7522444Y-16518960D02*
X7503396Y-16528484D01*
X7503396Y-16528484D02*
X7484348Y-16528484D01*
X7484348Y-16528484D02*
X7465301Y-16518960D01*
X7465301Y-16518960D02*
X7455777Y-16509436D01*
X7455777Y-16509436D02*
X7446253Y-16490388D01*
X7446253Y-16490388D02*
X7436729Y-16452293D01*
X7436729Y-16452293D02*
X7436729Y-16404674D01*
X7436729Y-16404674D02*
X7446253Y-16366579D01*
X7446253Y-16366579D02*
X7455777Y-16347531D01*
X7455777Y-16347531D02*
X7465301Y-16338008D01*
X7465301Y-16338008D02*
X7484348Y-16328484D01*
X7617682Y-16328484D02*
X7741491Y-16328484D01*
X7741491Y-16328484D02*
X7674825Y-16404674D01*
X7674825Y-16404674D02*
X7703396Y-16404674D01*
X7703396Y-16404674D02*
X7722444Y-16414198D01*
X7722444Y-16414198D02*
X7731967Y-16423722D01*
X7731967Y-16423722D02*
X7741491Y-16442769D01*
X7741491Y-16442769D02*
X7741491Y-16490388D01*
X7741491Y-16490388D02*
X7731967Y-16509436D01*
X7731967Y-16509436D02*
X7722444Y-16518960D01*
X7722444Y-16518960D02*
X7703396Y-16528484D01*
X7703396Y-16528484D02*
X7646253Y-16528484D01*
X7646253Y-16528484D02*
X7627206Y-16518960D01*
X7627206Y-16518960D02*
X7617682Y-16509436D01*
X7836729Y-16528484D02*
X7874825Y-16528484D01*
X7874825Y-16528484D02*
X7893872Y-16518960D01*
X7893872Y-16518960D02*
X7903396Y-16509436D01*
X7903396Y-16509436D02*
X7922444Y-16480865D01*
X7922444Y-16480865D02*
X7931967Y-16442769D01*
X7931967Y-16442769D02*
X7931967Y-16366579D01*
X7931967Y-16366579D02*
X7922444Y-16347531D01*
X7922444Y-16347531D02*
X7912920Y-16338008D01*
X7912920Y-16338008D02*
X7893872Y-16328484D01*
X7893872Y-16328484D02*
X7855777Y-16328484D01*
X7855777Y-16328484D02*
X7836729Y-16338008D01*
X7836729Y-16338008D02*
X7827206Y-16347531D01*
X7827206Y-16347531D02*
X7817682Y-16366579D01*
X7817682Y-16366579D02*
X7817682Y-16414198D01*
X7817682Y-16414198D02*
X7827206Y-16433246D01*
X7827206Y-16433246D02*
X7836729Y-16442769D01*
X7836729Y-16442769D02*
X7855777Y-16452293D01*
X7855777Y-16452293D02*
X7893872Y-16452293D01*
X7893872Y-16452293D02*
X7912920Y-16442769D01*
X7912920Y-16442769D02*
X7922444Y-16433246D01*
X7922444Y-16433246D02*
X7931967Y-16414198D01*
X8103396Y-16395150D02*
X8103396Y-16528484D01*
X8055777Y-16318960D02*
X8008158Y-16461817D01*
X8008158Y-16461817D02*
X8131967Y-16461817D01*
X8198634Y-16328484D02*
X8198634Y-16366579D01*
X8274825Y-16328484D02*
X8274825Y-16366579D01*
X8570063Y-16604674D02*
X8560539Y-16595150D01*
X8560539Y-16595150D02*
X8541491Y-16566579D01*
X8541491Y-16566579D02*
X8531968Y-16547531D01*
X8531968Y-16547531D02*
X8522444Y-16518960D01*
X8522444Y-16518960D02*
X8512920Y-16471341D01*
X8512920Y-16471341D02*
X8512920Y-16433246D01*
X8512920Y-16433246D02*
X8522444Y-16385627D01*
X8522444Y-16385627D02*
X8531968Y-16357055D01*
X8531968Y-16357055D02*
X8541491Y-16338008D01*
X8541491Y-16338008D02*
X8560539Y-16309436D01*
X8560539Y-16309436D02*
X8570063Y-16299912D01*
X8674825Y-16414198D02*
X8655777Y-16404674D01*
X8655777Y-16404674D02*
X8646253Y-16395150D01*
X8646253Y-16395150D02*
X8636730Y-16376103D01*
X8636730Y-16376103D02*
X8636730Y-16366579D01*
X8636730Y-16366579D02*
X8646253Y-16347531D01*
X8646253Y-16347531D02*
X8655777Y-16338008D01*
X8655777Y-16338008D02*
X8674825Y-16328484D01*
X8674825Y-16328484D02*
X8712920Y-16328484D01*
X8712920Y-16328484D02*
X8731968Y-16338008D01*
X8731968Y-16338008D02*
X8741491Y-16347531D01*
X8741491Y-16347531D02*
X8751015Y-16366579D01*
X8751015Y-16366579D02*
X8751015Y-16376103D01*
X8751015Y-16376103D02*
X8741491Y-16395150D01*
X8741491Y-16395150D02*
X8731968Y-16404674D01*
X8731968Y-16404674D02*
X8712920Y-16414198D01*
X8712920Y-16414198D02*
X8674825Y-16414198D01*
X8674825Y-16414198D02*
X8655777Y-16423722D01*
X8655777Y-16423722D02*
X8646253Y-16433246D01*
X8646253Y-16433246D02*
X8636730Y-16452293D01*
X8636730Y-16452293D02*
X8636730Y-16490388D01*
X8636730Y-16490388D02*
X8646253Y-16509436D01*
X8646253Y-16509436D02*
X8655777Y-16518960D01*
X8655777Y-16518960D02*
X8674825Y-16528484D01*
X8674825Y-16528484D02*
X8712920Y-16528484D01*
X8712920Y-16528484D02*
X8731968Y-16518960D01*
X8731968Y-16518960D02*
X8741491Y-16509436D01*
X8741491Y-16509436D02*
X8751015Y-16490388D01*
X8751015Y-16490388D02*
X8751015Y-16452293D01*
X8751015Y-16452293D02*
X8741491Y-16433246D01*
X8741491Y-16433246D02*
X8731968Y-16423722D01*
X8731968Y-16423722D02*
X8712920Y-16414198D01*
X8827206Y-16347531D02*
X8836730Y-16338008D01*
X8836730Y-16338008D02*
X8855777Y-16328484D01*
X8855777Y-16328484D02*
X8903396Y-16328484D01*
X8903396Y-16328484D02*
X8922444Y-16338008D01*
X8922444Y-16338008D02*
X8931968Y-16347531D01*
X8931968Y-16347531D02*
X8941491Y-16366579D01*
X8941491Y-16366579D02*
X8941491Y-16385627D01*
X8941491Y-16385627D02*
X8931968Y-16414198D01*
X8931968Y-16414198D02*
X8817682Y-16528484D01*
X8817682Y-16528484D02*
X8941491Y-16528484D01*
X9179587Y-16528484D02*
X9179587Y-16328484D01*
X9265301Y-16528484D02*
X9265301Y-16423722D01*
X9265301Y-16423722D02*
X9255777Y-16404674D01*
X9255777Y-16404674D02*
X9236730Y-16395150D01*
X9236730Y-16395150D02*
X9208158Y-16395150D01*
X9208158Y-16395150D02*
X9189111Y-16404674D01*
X9189111Y-16404674D02*
X9179587Y-16414198D01*
X9389111Y-16528484D02*
X9370063Y-16518960D01*
X9370063Y-16518960D02*
X9360539Y-16509436D01*
X9360539Y-16509436D02*
X9351015Y-16490388D01*
X9351015Y-16490388D02*
X9351015Y-16433246D01*
X9351015Y-16433246D02*
X9360539Y-16414198D01*
X9360539Y-16414198D02*
X9370063Y-16404674D01*
X9370063Y-16404674D02*
X9389111Y-16395150D01*
X9389111Y-16395150D02*
X9417682Y-16395150D01*
X9417682Y-16395150D02*
X9436730Y-16404674D01*
X9436730Y-16404674D02*
X9446253Y-16414198D01*
X9446253Y-16414198D02*
X9455777Y-16433246D01*
X9455777Y-16433246D02*
X9455777Y-16490388D01*
X9455777Y-16490388D02*
X9446253Y-16509436D01*
X9446253Y-16509436D02*
X9436730Y-16518960D01*
X9436730Y-16518960D02*
X9417682Y-16528484D01*
X9417682Y-16528484D02*
X9389111Y-16528484D01*
X9570063Y-16528484D02*
X9551015Y-16518960D01*
X9551015Y-16518960D02*
X9541492Y-16499912D01*
X9541492Y-16499912D02*
X9541492Y-16328484D01*
X9722444Y-16518960D02*
X9703396Y-16528484D01*
X9703396Y-16528484D02*
X9665301Y-16528484D01*
X9665301Y-16528484D02*
X9646253Y-16518960D01*
X9646253Y-16518960D02*
X9636730Y-16499912D01*
X9636730Y-16499912D02*
X9636730Y-16423722D01*
X9636730Y-16423722D02*
X9646253Y-16404674D01*
X9646253Y-16404674D02*
X9665301Y-16395150D01*
X9665301Y-16395150D02*
X9703396Y-16395150D01*
X9703396Y-16395150D02*
X9722444Y-16404674D01*
X9722444Y-16404674D02*
X9731968Y-16423722D01*
X9731968Y-16423722D02*
X9731968Y-16442769D01*
X9731968Y-16442769D02*
X9636730Y-16461817D01*
X9808158Y-16518960D02*
X9827206Y-16528484D01*
X9827206Y-16528484D02*
X9865301Y-16528484D01*
X9865301Y-16528484D02*
X9884349Y-16518960D01*
X9884349Y-16518960D02*
X9893873Y-16499912D01*
X9893873Y-16499912D02*
X9893873Y-16490388D01*
X9893873Y-16490388D02*
X9884349Y-16471341D01*
X9884349Y-16471341D02*
X9865301Y-16461817D01*
X9865301Y-16461817D02*
X9836730Y-16461817D01*
X9836730Y-16461817D02*
X9817682Y-16452293D01*
X9817682Y-16452293D02*
X9808158Y-16433246D01*
X9808158Y-16433246D02*
X9808158Y-16423722D01*
X9808158Y-16423722D02*
X9817682Y-16404674D01*
X9817682Y-16404674D02*
X9836730Y-16395150D01*
X9836730Y-16395150D02*
X9865301Y-16395150D01*
X9865301Y-16395150D02*
X9884349Y-16404674D01*
X9960539Y-16604674D02*
X9970063Y-16595150D01*
X9970063Y-16595150D02*
X9989111Y-16566579D01*
X9989111Y-16566579D02*
X9998634Y-16547531D01*
X9998634Y-16547531D02*
X10008158Y-16518960D01*
X10008158Y-16518960D02*
X10017682Y-16471341D01*
X10017682Y-16471341D02*
X10017682Y-16433246D01*
X10017682Y-16433246D02*
X10008158Y-16385627D01*
X10008158Y-16385627D02*
X9998634Y-16357055D01*
X9998634Y-16357055D02*
X9989111Y-16338008D01*
X9989111Y-16338008D02*
X9970063Y-16309436D01*
X9970063Y-16309436D02*
X9960539Y-16299912D01*
D12*
X4902500Y-16793500D02*
X4995000Y-16701000D01*
X4902500Y-16608500D01*
X4810000Y-16701000D01*
X4902500Y-16793500D01*
D11*
X5360539Y-16792484D02*
X5246253Y-16792484D01*
X5303396Y-16792484D02*
X5303396Y-16592484D01*
X5303396Y-16592484D02*
X5284348Y-16621055D01*
X5284348Y-16621055D02*
X5265301Y-16640103D01*
X5265301Y-16640103D02*
X5246253Y-16649627D01*
X5446253Y-16773436D02*
X5455777Y-16782960D01*
X5455777Y-16782960D02*
X5446253Y-16792484D01*
X5446253Y-16792484D02*
X5436729Y-16782960D01*
X5436729Y-16782960D02*
X5446253Y-16773436D01*
X5446253Y-16773436D02*
X5446253Y-16792484D01*
X5570063Y-16678198D02*
X5551015Y-16668674D01*
X5551015Y-16668674D02*
X5541491Y-16659150D01*
X5541491Y-16659150D02*
X5531967Y-16640103D01*
X5531967Y-16640103D02*
X5531967Y-16630579D01*
X5531967Y-16630579D02*
X5541491Y-16611531D01*
X5541491Y-16611531D02*
X5551015Y-16602008D01*
X5551015Y-16602008D02*
X5570063Y-16592484D01*
X5570063Y-16592484D02*
X5608158Y-16592484D01*
X5608158Y-16592484D02*
X5627205Y-16602008D01*
X5627205Y-16602008D02*
X5636729Y-16611531D01*
X5636729Y-16611531D02*
X5646253Y-16630579D01*
X5646253Y-16630579D02*
X5646253Y-16640103D01*
X5646253Y-16640103D02*
X5636729Y-16659150D01*
X5636729Y-16659150D02*
X5627205Y-16668674D01*
X5627205Y-16668674D02*
X5608158Y-16678198D01*
X5608158Y-16678198D02*
X5570063Y-16678198D01*
X5570063Y-16678198D02*
X5551015Y-16687722D01*
X5551015Y-16687722D02*
X5541491Y-16697246D01*
X5541491Y-16697246D02*
X5531967Y-16716293D01*
X5531967Y-16716293D02*
X5531967Y-16754388D01*
X5531967Y-16754388D02*
X5541491Y-16773436D01*
X5541491Y-16773436D02*
X5551015Y-16782960D01*
X5551015Y-16782960D02*
X5570063Y-16792484D01*
X5570063Y-16792484D02*
X5608158Y-16792484D01*
X5608158Y-16792484D02*
X5627205Y-16782960D01*
X5627205Y-16782960D02*
X5636729Y-16773436D01*
X5636729Y-16773436D02*
X5646253Y-16754388D01*
X5646253Y-16754388D02*
X5646253Y-16716293D01*
X5646253Y-16716293D02*
X5636729Y-16697246D01*
X5636729Y-16697246D02*
X5627205Y-16687722D01*
X5627205Y-16687722D02*
X5608158Y-16678198D01*
X5827205Y-16592484D02*
X5731967Y-16592484D01*
X5731967Y-16592484D02*
X5722443Y-16687722D01*
X5722443Y-16687722D02*
X5731967Y-16678198D01*
X5731967Y-16678198D02*
X5751015Y-16668674D01*
X5751015Y-16668674D02*
X5798634Y-16668674D01*
X5798634Y-16668674D02*
X5817682Y-16678198D01*
X5817682Y-16678198D02*
X5827205Y-16687722D01*
X5827205Y-16687722D02*
X5836729Y-16706769D01*
X5836729Y-16706769D02*
X5836729Y-16754388D01*
X5836729Y-16754388D02*
X5827205Y-16773436D01*
X5827205Y-16773436D02*
X5817682Y-16782960D01*
X5817682Y-16782960D02*
X5798634Y-16792484D01*
X5798634Y-16792484D02*
X5751015Y-16792484D01*
X5751015Y-16792484D02*
X5731967Y-16782960D01*
X5731967Y-16782960D02*
X5722443Y-16773436D01*
X5960539Y-16592484D02*
X5979586Y-16592484D01*
X5979586Y-16592484D02*
X5998634Y-16602008D01*
X5998634Y-16602008D02*
X6008158Y-16611531D01*
X6008158Y-16611531D02*
X6017682Y-16630579D01*
X6017682Y-16630579D02*
X6027205Y-16668674D01*
X6027205Y-16668674D02*
X6027205Y-16716293D01*
X6027205Y-16716293D02*
X6017682Y-16754388D01*
X6017682Y-16754388D02*
X6008158Y-16773436D01*
X6008158Y-16773436D02*
X5998634Y-16782960D01*
X5998634Y-16782960D02*
X5979586Y-16792484D01*
X5979586Y-16792484D02*
X5960539Y-16792484D01*
X5960539Y-16792484D02*
X5941491Y-16782960D01*
X5941491Y-16782960D02*
X5931967Y-16773436D01*
X5931967Y-16773436D02*
X5922443Y-16754388D01*
X5922443Y-16754388D02*
X5912920Y-16716293D01*
X5912920Y-16716293D02*
X5912920Y-16668674D01*
X5912920Y-16668674D02*
X5922443Y-16630579D01*
X5922443Y-16630579D02*
X5931967Y-16611531D01*
X5931967Y-16611531D02*
X5941491Y-16602008D01*
X5941491Y-16602008D02*
X5960539Y-16592484D01*
X6112920Y-16792484D02*
X6112920Y-16659150D01*
X6112920Y-16678198D02*
X6122443Y-16668674D01*
X6122443Y-16668674D02*
X6141491Y-16659150D01*
X6141491Y-16659150D02*
X6170063Y-16659150D01*
X6170063Y-16659150D02*
X6189110Y-16668674D01*
X6189110Y-16668674D02*
X6198634Y-16687722D01*
X6198634Y-16687722D02*
X6198634Y-16792484D01*
X6198634Y-16687722D02*
X6208158Y-16668674D01*
X6208158Y-16668674D02*
X6227205Y-16659150D01*
X6227205Y-16659150D02*
X6255777Y-16659150D01*
X6255777Y-16659150D02*
X6274824Y-16668674D01*
X6274824Y-16668674D02*
X6284348Y-16687722D01*
X6284348Y-16687722D02*
X6284348Y-16792484D01*
X6379586Y-16792484D02*
X6379586Y-16659150D01*
X6379586Y-16678198D02*
X6389110Y-16668674D01*
X6389110Y-16668674D02*
X6408158Y-16659150D01*
X6408158Y-16659150D02*
X6436729Y-16659150D01*
X6436729Y-16659150D02*
X6455777Y-16668674D01*
X6455777Y-16668674D02*
X6465301Y-16687722D01*
X6465301Y-16687722D02*
X6465301Y-16792484D01*
X6465301Y-16687722D02*
X6474824Y-16668674D01*
X6474824Y-16668674D02*
X6493872Y-16659150D01*
X6493872Y-16659150D02*
X6522443Y-16659150D01*
X6522443Y-16659150D02*
X6541491Y-16668674D01*
X6541491Y-16668674D02*
X6551015Y-16687722D01*
X6551015Y-16687722D02*
X6551015Y-16792484D01*
X6941491Y-16582960D02*
X6770063Y-16840103D01*
X7198634Y-16592484D02*
X7217682Y-16592484D01*
X7217682Y-16592484D02*
X7236729Y-16602008D01*
X7236729Y-16602008D02*
X7246253Y-16611531D01*
X7246253Y-16611531D02*
X7255777Y-16630579D01*
X7255777Y-16630579D02*
X7265301Y-16668674D01*
X7265301Y-16668674D02*
X7265301Y-16716293D01*
X7265301Y-16716293D02*
X7255777Y-16754388D01*
X7255777Y-16754388D02*
X7246253Y-16773436D01*
X7246253Y-16773436D02*
X7236729Y-16782960D01*
X7236729Y-16782960D02*
X7217682Y-16792484D01*
X7217682Y-16792484D02*
X7198634Y-16792484D01*
X7198634Y-16792484D02*
X7179586Y-16782960D01*
X7179586Y-16782960D02*
X7170063Y-16773436D01*
X7170063Y-16773436D02*
X7160539Y-16754388D01*
X7160539Y-16754388D02*
X7151015Y-16716293D01*
X7151015Y-16716293D02*
X7151015Y-16668674D01*
X7151015Y-16668674D02*
X7160539Y-16630579D01*
X7160539Y-16630579D02*
X7170063Y-16611531D01*
X7170063Y-16611531D02*
X7179586Y-16602008D01*
X7179586Y-16602008D02*
X7198634Y-16592484D01*
X7351015Y-16773436D02*
X7360539Y-16782960D01*
X7360539Y-16782960D02*
X7351015Y-16792484D01*
X7351015Y-16792484D02*
X7341491Y-16782960D01*
X7341491Y-16782960D02*
X7351015Y-16773436D01*
X7351015Y-16773436D02*
X7351015Y-16792484D01*
X7484348Y-16592484D02*
X7503396Y-16592484D01*
X7503396Y-16592484D02*
X7522444Y-16602008D01*
X7522444Y-16602008D02*
X7531967Y-16611531D01*
X7531967Y-16611531D02*
X7541491Y-16630579D01*
X7541491Y-16630579D02*
X7551015Y-16668674D01*
X7551015Y-16668674D02*
X7551015Y-16716293D01*
X7551015Y-16716293D02*
X7541491Y-16754388D01*
X7541491Y-16754388D02*
X7531967Y-16773436D01*
X7531967Y-16773436D02*
X7522444Y-16782960D01*
X7522444Y-16782960D02*
X7503396Y-16792484D01*
X7503396Y-16792484D02*
X7484348Y-16792484D01*
X7484348Y-16792484D02*
X7465301Y-16782960D01*
X7465301Y-16782960D02*
X7455777Y-16773436D01*
X7455777Y-16773436D02*
X7446253Y-16754388D01*
X7446253Y-16754388D02*
X7436729Y-16716293D01*
X7436729Y-16716293D02*
X7436729Y-16668674D01*
X7436729Y-16668674D02*
X7446253Y-16630579D01*
X7446253Y-16630579D02*
X7455777Y-16611531D01*
X7455777Y-16611531D02*
X7465301Y-16602008D01*
X7465301Y-16602008D02*
X7484348Y-16592484D01*
X7617682Y-16592484D02*
X7751015Y-16592484D01*
X7751015Y-16592484D02*
X7665301Y-16792484D01*
X7817682Y-16611531D02*
X7827206Y-16602008D01*
X7827206Y-16602008D02*
X7846253Y-16592484D01*
X7846253Y-16592484D02*
X7893872Y-16592484D01*
X7893872Y-16592484D02*
X7912920Y-16602008D01*
X7912920Y-16602008D02*
X7922444Y-16611531D01*
X7922444Y-16611531D02*
X7931967Y-16630579D01*
X7931967Y-16630579D02*
X7931967Y-16649627D01*
X7931967Y-16649627D02*
X7922444Y-16678198D01*
X7922444Y-16678198D02*
X7808158Y-16792484D01*
X7808158Y-16792484D02*
X7931967Y-16792484D01*
X8046253Y-16678198D02*
X8027206Y-16668674D01*
X8027206Y-16668674D02*
X8017682Y-16659150D01*
X8017682Y-16659150D02*
X8008158Y-16640103D01*
X8008158Y-16640103D02*
X8008158Y-16630579D01*
X8008158Y-16630579D02*
X8017682Y-16611531D01*
X8017682Y-16611531D02*
X8027206Y-16602008D01*
X8027206Y-16602008D02*
X8046253Y-16592484D01*
X8046253Y-16592484D02*
X8084348Y-16592484D01*
X8084348Y-16592484D02*
X8103396Y-16602008D01*
X8103396Y-16602008D02*
X8112920Y-16611531D01*
X8112920Y-16611531D02*
X8122444Y-16630579D01*
X8122444Y-16630579D02*
X8122444Y-16640103D01*
X8122444Y-16640103D02*
X8112920Y-16659150D01*
X8112920Y-16659150D02*
X8103396Y-16668674D01*
X8103396Y-16668674D02*
X8084348Y-16678198D01*
X8084348Y-16678198D02*
X8046253Y-16678198D01*
X8046253Y-16678198D02*
X8027206Y-16687722D01*
X8027206Y-16687722D02*
X8017682Y-16697246D01*
X8017682Y-16697246D02*
X8008158Y-16716293D01*
X8008158Y-16716293D02*
X8008158Y-16754388D01*
X8008158Y-16754388D02*
X8017682Y-16773436D01*
X8017682Y-16773436D02*
X8027206Y-16782960D01*
X8027206Y-16782960D02*
X8046253Y-16792484D01*
X8046253Y-16792484D02*
X8084348Y-16792484D01*
X8084348Y-16792484D02*
X8103396Y-16782960D01*
X8103396Y-16782960D02*
X8112920Y-16773436D01*
X8112920Y-16773436D02*
X8122444Y-16754388D01*
X8122444Y-16754388D02*
X8122444Y-16716293D01*
X8122444Y-16716293D02*
X8112920Y-16697246D01*
X8112920Y-16697246D02*
X8103396Y-16687722D01*
X8103396Y-16687722D02*
X8084348Y-16678198D01*
X8198634Y-16592484D02*
X8198634Y-16630579D01*
X8274825Y-16592484D02*
X8274825Y-16630579D01*
X8570063Y-16868674D02*
X8560539Y-16859150D01*
X8560539Y-16859150D02*
X8541491Y-16830579D01*
X8541491Y-16830579D02*
X8531968Y-16811531D01*
X8531968Y-16811531D02*
X8522444Y-16782960D01*
X8522444Y-16782960D02*
X8512920Y-16735341D01*
X8512920Y-16735341D02*
X8512920Y-16697246D01*
X8512920Y-16697246D02*
X8522444Y-16649627D01*
X8522444Y-16649627D02*
X8531968Y-16621055D01*
X8531968Y-16621055D02*
X8541491Y-16602008D01*
X8541491Y-16602008D02*
X8560539Y-16573436D01*
X8560539Y-16573436D02*
X8570063Y-16563912D01*
X8627206Y-16592484D02*
X8751015Y-16592484D01*
X8751015Y-16592484D02*
X8684349Y-16668674D01*
X8684349Y-16668674D02*
X8712920Y-16668674D01*
X8712920Y-16668674D02*
X8731968Y-16678198D01*
X8731968Y-16678198D02*
X8741491Y-16687722D01*
X8741491Y-16687722D02*
X8751015Y-16706769D01*
X8751015Y-16706769D02*
X8751015Y-16754388D01*
X8751015Y-16754388D02*
X8741491Y-16773436D01*
X8741491Y-16773436D02*
X8731968Y-16782960D01*
X8731968Y-16782960D02*
X8712920Y-16792484D01*
X8712920Y-16792484D02*
X8655777Y-16792484D01*
X8655777Y-16792484D02*
X8636730Y-16782960D01*
X8636730Y-16782960D02*
X8627206Y-16773436D01*
X8989111Y-16792484D02*
X8989111Y-16592484D01*
X9074825Y-16792484D02*
X9074825Y-16687722D01*
X9074825Y-16687722D02*
X9065301Y-16668674D01*
X9065301Y-16668674D02*
X9046253Y-16659150D01*
X9046253Y-16659150D02*
X9017682Y-16659150D01*
X9017682Y-16659150D02*
X8998634Y-16668674D01*
X8998634Y-16668674D02*
X8989111Y-16678198D01*
X9198634Y-16792484D02*
X9179587Y-16782960D01*
X9179587Y-16782960D02*
X9170063Y-16773436D01*
X9170063Y-16773436D02*
X9160539Y-16754388D01*
X9160539Y-16754388D02*
X9160539Y-16697246D01*
X9160539Y-16697246D02*
X9170063Y-16678198D01*
X9170063Y-16678198D02*
X9179587Y-16668674D01*
X9179587Y-16668674D02*
X9198634Y-16659150D01*
X9198634Y-16659150D02*
X9227206Y-16659150D01*
X9227206Y-16659150D02*
X9246253Y-16668674D01*
X9246253Y-16668674D02*
X9255777Y-16678198D01*
X9255777Y-16678198D02*
X9265301Y-16697246D01*
X9265301Y-16697246D02*
X9265301Y-16754388D01*
X9265301Y-16754388D02*
X9255777Y-16773436D01*
X9255777Y-16773436D02*
X9246253Y-16782960D01*
X9246253Y-16782960D02*
X9227206Y-16792484D01*
X9227206Y-16792484D02*
X9198634Y-16792484D01*
X9379587Y-16792484D02*
X9360539Y-16782960D01*
X9360539Y-16782960D02*
X9351015Y-16763912D01*
X9351015Y-16763912D02*
X9351015Y-16592484D01*
X9531968Y-16782960D02*
X9512920Y-16792484D01*
X9512920Y-16792484D02*
X9474825Y-16792484D01*
X9474825Y-16792484D02*
X9455777Y-16782960D01*
X9455777Y-16782960D02*
X9446253Y-16763912D01*
X9446253Y-16763912D02*
X9446253Y-16687722D01*
X9446253Y-16687722D02*
X9455777Y-16668674D01*
X9455777Y-16668674D02*
X9474825Y-16659150D01*
X9474825Y-16659150D02*
X9512920Y-16659150D01*
X9512920Y-16659150D02*
X9531968Y-16668674D01*
X9531968Y-16668674D02*
X9541492Y-16687722D01*
X9541492Y-16687722D02*
X9541492Y-16706769D01*
X9541492Y-16706769D02*
X9446253Y-16725817D01*
X9617682Y-16782960D02*
X9636730Y-16792484D01*
X9636730Y-16792484D02*
X9674825Y-16792484D01*
X9674825Y-16792484D02*
X9693873Y-16782960D01*
X9693873Y-16782960D02*
X9703396Y-16763912D01*
X9703396Y-16763912D02*
X9703396Y-16754388D01*
X9703396Y-16754388D02*
X9693873Y-16735341D01*
X9693873Y-16735341D02*
X9674825Y-16725817D01*
X9674825Y-16725817D02*
X9646253Y-16725817D01*
X9646253Y-16725817D02*
X9627206Y-16716293D01*
X9627206Y-16716293D02*
X9617682Y-16697246D01*
X9617682Y-16697246D02*
X9617682Y-16687722D01*
X9617682Y-16687722D02*
X9627206Y-16668674D01*
X9627206Y-16668674D02*
X9646253Y-16659150D01*
X9646253Y-16659150D02*
X9674825Y-16659150D01*
X9674825Y-16659150D02*
X9693873Y-16668674D01*
X9770063Y-16868674D02*
X9779587Y-16859150D01*
X9779587Y-16859150D02*
X9798634Y-16830579D01*
X9798634Y-16830579D02*
X9808158Y-16811531D01*
X9808158Y-16811531D02*
X9817682Y-16782960D01*
X9817682Y-16782960D02*
X9827206Y-16735341D01*
X9827206Y-16735341D02*
X9827206Y-16697246D01*
X9827206Y-16697246D02*
X9817682Y-16649627D01*
X9817682Y-16649627D02*
X9808158Y-16621055D01*
X9808158Y-16621055D02*
X9798634Y-16602008D01*
X9798634Y-16602008D02*
X9779587Y-16573436D01*
X9779587Y-16573436D02*
X9770063Y-16563912D01*
M02*
