G04 #@! TF.GenerationSoftware,KiCad,Pcbnew,8.0.2-1*
G04 #@! TF.CreationDate,2024-06-17T09:08:22+02:00*
G04 #@! TF.ProjectId,vixen,76697865-6e2e-46b6-9963-61645f706362,rev?*
G04 #@! TF.SameCoordinates,Original*
G04 #@! TF.FileFunction,Other,User*
%FSLAX46Y46*%
G04 Gerber Fmt 4.6, Leading zero omitted, Abs format (unit mm)*
G04 Created by KiCad (PCBNEW 8.0.2-1) date 2024-06-17 09:08:22*
%MOMM*%
%LPD*%
G01*
G04 APERTURE LIST*
%ADD10C,1.000000*%
%ADD11C,0.150000*%
G04 APERTURE END LIST*
D10*
X70800000Y-141000000D02*
X70800000Y-30000000D01*
D11*
X81071428Y-24454819D02*
X81404761Y-25454819D01*
X81404761Y-25454819D02*
X81738094Y-24454819D01*
X82023809Y-25407200D02*
X82166666Y-25454819D01*
X82166666Y-25454819D02*
X82404761Y-25454819D01*
X82404761Y-25454819D02*
X82499999Y-25407200D01*
X82499999Y-25407200D02*
X82547618Y-25359580D01*
X82547618Y-25359580D02*
X82595237Y-25264342D01*
X82595237Y-25264342D02*
X82595237Y-25169104D01*
X82595237Y-25169104D02*
X82547618Y-25073866D01*
X82547618Y-25073866D02*
X82499999Y-25026247D01*
X82499999Y-25026247D02*
X82404761Y-24978628D01*
X82404761Y-24978628D02*
X82214285Y-24931009D01*
X82214285Y-24931009D02*
X82119047Y-24883390D01*
X82119047Y-24883390D02*
X82071428Y-24835771D01*
X82071428Y-24835771D02*
X82023809Y-24740533D01*
X82023809Y-24740533D02*
X82023809Y-24645295D01*
X82023809Y-24645295D02*
X82071428Y-24550057D01*
X82071428Y-24550057D02*
X82119047Y-24502438D01*
X82119047Y-24502438D02*
X82214285Y-24454819D01*
X82214285Y-24454819D02*
X82452380Y-24454819D01*
X82452380Y-24454819D02*
X82595237Y-24502438D01*
X83452380Y-25407200D02*
X83357142Y-25454819D01*
X83357142Y-25454819D02*
X83166666Y-25454819D01*
X83166666Y-25454819D02*
X83071428Y-25407200D01*
X83071428Y-25407200D02*
X83023809Y-25359580D01*
X83023809Y-25359580D02*
X82976190Y-25264342D01*
X82976190Y-25264342D02*
X82976190Y-24978628D01*
X82976190Y-24978628D02*
X83023809Y-24883390D01*
X83023809Y-24883390D02*
X83071428Y-24835771D01*
X83071428Y-24835771D02*
X83166666Y-24788152D01*
X83166666Y-24788152D02*
X83357142Y-24788152D01*
X83357142Y-24788152D02*
X83452380Y-24835771D01*
X84023809Y-25454819D02*
X83928571Y-25407200D01*
X83928571Y-25407200D02*
X83880952Y-25359580D01*
X83880952Y-25359580D02*
X83833333Y-25264342D01*
X83833333Y-25264342D02*
X83833333Y-24978628D01*
X83833333Y-24978628D02*
X83880952Y-24883390D01*
X83880952Y-24883390D02*
X83928571Y-24835771D01*
X83928571Y-24835771D02*
X84023809Y-24788152D01*
X84023809Y-24788152D02*
X84166666Y-24788152D01*
X84166666Y-24788152D02*
X84261904Y-24835771D01*
X84261904Y-24835771D02*
X84309523Y-24883390D01*
X84309523Y-24883390D02*
X84357142Y-24978628D01*
X84357142Y-24978628D02*
X84357142Y-25264342D01*
X84357142Y-25264342D02*
X84309523Y-25359580D01*
X84309523Y-25359580D02*
X84261904Y-25407200D01*
X84261904Y-25407200D02*
X84166666Y-25454819D01*
X84166666Y-25454819D02*
X84023809Y-25454819D01*
X84785714Y-25454819D02*
X84785714Y-24788152D01*
X84785714Y-24978628D02*
X84833333Y-24883390D01*
X84833333Y-24883390D02*
X84880952Y-24835771D01*
X84880952Y-24835771D02*
X84976190Y-24788152D01*
X84976190Y-24788152D02*
X85071428Y-24788152D01*
X85785714Y-25407200D02*
X85690476Y-25454819D01*
X85690476Y-25454819D02*
X85500000Y-25454819D01*
X85500000Y-25454819D02*
X85404762Y-25407200D01*
X85404762Y-25407200D02*
X85357143Y-25311961D01*
X85357143Y-25311961D02*
X85357143Y-24931009D01*
X85357143Y-24931009D02*
X85404762Y-24835771D01*
X85404762Y-24835771D02*
X85500000Y-24788152D01*
X85500000Y-24788152D02*
X85690476Y-24788152D01*
X85690476Y-24788152D02*
X85785714Y-24835771D01*
X85785714Y-24835771D02*
X85833333Y-24931009D01*
X85833333Y-24931009D02*
X85833333Y-25026247D01*
X85833333Y-25026247D02*
X85357143Y-25121485D01*
X70800000Y-29500000D02*
X70800000Y-25000000D01*
X70800000Y-29500000D02*
X70213579Y-28373496D01*
X70800000Y-29500000D02*
X71386421Y-28373496D01*
X70800000Y-25000000D02*
X80351190Y-25000000D01*
X70800000Y-29500000D02*
X70800000Y-25000000D01*
X70800000Y-29500000D02*
X70213579Y-28373496D01*
X70800000Y-29500000D02*
X71386421Y-28373496D01*
X70800000Y-25000000D02*
X80351190Y-25000000D01*
M02*
