M48
; DRILL file {KiCad 8.0.2-1} date 2024-05-07T18:24:26+0200
; FORMAT={-:-/ absolute / metric / decimal}
; #@! TF.CreationDate,2024-05-07T18:24:26+02:00
; #@! TF.GenerationSoftware,Kicad,Pcbnew,8.0.2-1
; #@! TF.FileFunction,Plated,1,2,PTH
FMAT,2
METRIC
; #@! TA.AperFunction,Plated,PTH,ComponentDrill
T1C0.600
; #@! TA.AperFunction,Plated,PTH,ComponentDrill
T2C0.750
; #@! TA.AperFunction,Plated,PTH,ComponentDrill
T3C0.800
; #@! TA.AperFunction,Plated,PTH,ComponentDrill
T4C1.000
; #@! TA.AperFunction,Plated,PTH,ComponentDrill
T5C1.100
; #@! TA.AperFunction,Plated,PTH,ComponentDrill
T6C1.220
; #@! TA.AperFunction,Plated,PTH,ComponentDrill
T7C1.420
; #@! TA.AperFunction,Plated,PTH,ComponentDrill
T8C1.430
; #@! TA.AperFunction,Plated,PTH,ComponentDrill
T9C1.800
; #@! TA.AperFunction,Plated,PTH,ComponentDrill
T10C2.000
%
G90
G05
T1
X34.5Y-119.825
X36.5Y-119.825
X43.25Y-35.073
X43.25Y-37.073
X43.25Y-51.723
X43.25Y-53.723
X51.473Y-119.8
X53.473Y-119.8
X55.4Y-138.3
X57.4Y-138.3
T2
X46.67Y-80.98
X47.94Y-79.71
X47.94Y-82.25
X52.23Y-79.73
X52.23Y-82.27
X53.5Y-81.0
T3
X32.3Y-93.87
X32.3Y-104.03
X33.7Y-106.9
X33.7Y-111.9
X35.5Y-93.89
X35.5Y-104.05
X38.7Y-93.89
X38.7Y-104.05
X40.2Y-112.125
X40.2Y-114.665
X40.2Y-117.205
X40.2Y-119.745
X40.2Y-122.285
X40.2Y-124.825
X40.2Y-127.365
X41.95Y-93.87
X41.95Y-104.03
X43.25Y-40.5
X43.25Y-42.5
X43.25Y-46.5
X43.25Y-48.5
X45.2Y-93.87
X45.2Y-104.03
X47.07Y-53.5
X47.17Y-35.4
X47.82Y-112.125
X47.82Y-114.665
X47.82Y-117.205
X47.82Y-119.745
X47.82Y-122.285
X47.82Y-124.825
X47.82Y-127.365
X48.4Y-93.95
X48.4Y-104.11
X57.23Y-53.5
X57.33Y-35.4
X60.48Y-123.785
X60.48Y-126.325
X60.48Y-128.865
X60.48Y-131.405
X60.48Y-133.945
X60.48Y-136.485
X60.48Y-139.025
X61.19Y-117.5
X63.4Y-72.06
X63.4Y-74.6
X63.4Y-77.14
X63.5Y-120.5
X68.1Y-123.785
X68.1Y-126.325
X68.1Y-128.865
X68.1Y-131.405
X68.1Y-133.945
X68.1Y-136.485
X68.1Y-139.025
X68.15Y-70.67
X68.15Y-80.83
X68.5Y-120.5
X68.81Y-117.5
X72.77Y-91.1
X72.77Y-94.2
X72.77Y-97.3
X72.77Y-100.4
X79.5Y-46.87
X79.5Y-57.03
X82.7Y-46.89
X82.7Y-57.05
X82.7Y-59.4
X82.7Y-64.48
X82.93Y-91.1
X82.93Y-94.2
X82.93Y-97.3
X82.93Y-100.4
X85.9Y-46.89
X85.9Y-57.05
X85.9Y-59.4
X85.9Y-64.48
X86.37Y-127.1
X86.37Y-130.2
X89.1Y-46.89
X89.1Y-57.05
X89.1Y-59.4
X89.1Y-64.48
X91.3Y-74.37
X91.3Y-84.53
X92.3Y-46.87
X92.3Y-57.03
X92.3Y-59.4
X92.3Y-64.48
X96.53Y-127.1
X96.53Y-130.2
T4
X31.8Y-121.9
X34.0Y-35.82
X34.0Y-38.36
X34.0Y-40.9
X34.0Y-43.44
X34.0Y-45.98
X34.0Y-48.52
X34.0Y-51.06
X34.0Y-53.6
X36.54Y-35.82
X36.54Y-38.36
X36.54Y-40.9
X36.54Y-43.44
X36.54Y-45.98
X36.54Y-48.52
X36.54Y-51.06
X36.54Y-53.6
X48.4Y-76.5
X50.22Y-40.0
X51.0Y-45.0
X52.76Y-40.0
X54.2Y-93.8
X55.3Y-40.0
X56.6Y-112.1
X57.84Y-40.0
X60.0Y-45.0
X60.38Y-40.0
X62.92Y-40.0
X65.46Y-40.0
X67.5Y-51.82
X67.5Y-54.36
X67.5Y-56.9
X68.0Y-40.0
X68.0Y-45.0
X68.0Y-90.0
X68.0Y-92.54
X68.0Y-95.08
X68.0Y-97.62
X68.0Y-100.16
X68.0Y-102.7
X68.0Y-105.24
X68.0Y-107.78
X78.8Y-44.0
X78.88Y-84.96
X81.3Y-44.0
X81.38Y-84.96
X83.8Y-44.0
X83.88Y-84.96
X89.05Y-100.0
X91.3Y-105.0
X91.52Y-40.0
X91.55Y-100.0
X94.05Y-100.0
X94.06Y-40.0
X96.6Y-40.0
X99.05Y-60.0
X99.05Y-85.0
X99.14Y-40.0
X101.55Y-60.0
X101.55Y-85.0
X101.68Y-40.0
X104.05Y-60.0
X104.05Y-85.0
X104.22Y-40.0
X106.76Y-40.0
X109.3Y-40.0
X109.3Y-90.0
X109.3Y-92.54
X109.3Y-95.08
X109.3Y-97.62
X109.3Y-100.16
X109.3Y-102.7
X109.3Y-105.24
X109.3Y-107.78
T5
X41.87Y-57.5
X41.89Y-31.75
X52.03Y-57.5
X52.05Y-31.75
T6
X80.05Y-112.1
X80.05Y-127.02
X91.55Y-112.1
X102.8Y-112.02
X102.8Y-127.02
T7
X80.05Y-115.2
X80.05Y-130.12
X91.55Y-115.2
X102.8Y-115.12
X102.8Y-130.12
T8
X80.05Y-123.5
X80.05Y-138.42
X91.55Y-123.5
X102.8Y-123.42
X102.8Y-138.42
T9
X76.58Y-77.46
X86.18Y-77.46
T10
X76.55Y-36.5
X86.05Y-36.5
X86.8Y-92.5
X96.3Y-92.5
X96.8Y-52.5
X96.8Y-77.5
X106.3Y-52.5
X106.3Y-77.5
M30
