M48
; DRILL file {KiCad 7.0.10} date 
; FORMAT={-:-/ absolute / metric / decimal}
; #@! TF.CreationDate,2024-04-20T15:40:07+02:00
; #@! TF.GenerationSoftware,Kicad,Pcbnew,7.0.10
; #@! TF.FileFunction,Plated,1,2,PTH
FMAT,2
METRIC
; #@! TA.AperFunction,Plated,PTH,ComponentDrill
T1C0.600
; #@! TA.AperFunction,Plated,PTH,ComponentDrill
T2C0.750
; #@! TA.AperFunction,Plated,PTH,ComponentDrill
T3C0.800
; #@! TA.AperFunction,Plated,PTH,ComponentDrill
T4C1.000
; #@! TA.AperFunction,Plated,PTH,ComponentDrill
T5C1.100
; #@! TA.AperFunction,Plated,PTH,ComponentDrill
T6C1.220
; #@! TA.AperFunction,Plated,PTH,ComponentDrill
T7C1.420
; #@! TA.AperFunction,Plated,PTH,ComponentDrill
T8C1.430
; #@! TA.AperFunction,Plated,PTH,ComponentDrill
T9C2.000
%
G90
G05
T1
X34.5Y-119.825
X36.5Y-119.825
X43.25Y-35.073
X43.25Y-37.073
X43.25Y-51.723
X43.25Y-53.723
X51.473Y-119.8
X53.473Y-119.8
X55.4Y-138.3
X57.4Y-138.3
T2
X46.67Y-80.98
X47.94Y-79.71
X47.94Y-82.25
X52.23Y-79.73
X52.23Y-82.27
X53.5Y-81.0
T3
X32.3Y-93.9
X32.3Y-104.06
X33.7Y-106.9
X33.7Y-111.9
X35.5Y-93.92
X35.5Y-104.08
X38.7Y-93.92
X38.7Y-104.08
X40.2Y-112.125
X40.2Y-114.665
X40.2Y-117.205
X40.2Y-119.745
X40.2Y-122.285
X40.2Y-124.825
X40.2Y-127.365
X41.95Y-93.94
X41.95Y-104.1
X43.25Y-40.5
X43.25Y-42.5
X43.25Y-46.5
X43.25Y-48.5
X45.2Y-93.94
X45.2Y-104.1
X47.0Y-53.5
X47.09Y-35.5
X47.82Y-112.125
X47.82Y-114.665
X47.82Y-117.205
X47.82Y-119.745
X47.82Y-122.285
X47.82Y-124.825
X47.82Y-127.365
X48.4Y-93.92
X48.4Y-104.08
X57.16Y-53.5
X57.25Y-35.5
X60.48Y-123.785
X60.48Y-126.325
X60.48Y-128.865
X60.48Y-131.405
X60.48Y-133.945
X60.48Y-136.485
X60.48Y-139.025
X61.19Y-117.5
X63.4Y-72.06
X63.4Y-74.6
X63.4Y-77.14
X63.5Y-120.5
X68.1Y-123.785
X68.1Y-126.325
X68.1Y-128.865
X68.1Y-131.405
X68.1Y-133.945
X68.1Y-136.485
X68.1Y-139.025
X68.15Y-70.69
X68.15Y-80.85
X68.5Y-120.5
X68.81Y-117.5
X81.5Y-91.0
X81.5Y-94.2
X81.5Y-97.3
X81.5Y-100.4
X88.2Y-46.92
X88.2Y-57.08
X91.4Y-46.92
X91.4Y-57.08
X91.4Y-59.4
X91.4Y-64.48
X91.66Y-91.0
X91.66Y-94.2
X91.66Y-97.3
X91.66Y-100.4
X94.6Y-46.92
X94.6Y-57.08
X94.6Y-59.4
X94.6Y-64.48
X95.04Y-127.1
X95.04Y-130.2
X97.8Y-46.92
X97.8Y-57.08
X97.8Y-59.4
X97.8Y-64.48
X100.0Y-74.34
X100.0Y-84.5
X101.0Y-46.92
X101.0Y-57.08
X101.0Y-59.4
X101.0Y-64.48
X105.2Y-127.1
X105.2Y-130.2
T4
X31.8Y-121.9
X33.96Y-35.8
X33.96Y-38.34
X33.96Y-40.88
X33.96Y-43.42
X33.96Y-45.96
X33.96Y-48.5
X33.96Y-51.04
X33.96Y-53.58
X36.5Y-35.8
X36.5Y-38.34
X36.5Y-40.88
X36.5Y-43.42
X36.5Y-45.96
X36.5Y-48.5
X36.5Y-51.04
X36.5Y-53.58
X48.4Y-76.5
X50.22Y-40.0
X51.0Y-45.0
X52.76Y-40.0
X54.2Y-93.8
X55.3Y-40.0
X57.84Y-40.0
X60.0Y-45.0
X60.38Y-40.0
X62.92Y-40.0
X65.46Y-40.0
X68.0Y-40.0
X68.0Y-45.0
X68.0Y-90.0
X68.0Y-92.54
X68.0Y-95.08
X68.0Y-97.62
X68.0Y-100.16
X68.0Y-102.7
X68.0Y-105.24
X68.0Y-107.78
X87.575Y-44.0
X87.575Y-85.0
X90.075Y-44.0
X90.075Y-85.0
X92.575Y-44.0
X92.575Y-85.0
X97.65Y-100.0
X100.0Y-105.0
X100.15Y-100.0
X100.22Y-40.0
X102.65Y-100.0
X102.76Y-40.0
X105.3Y-40.0
X107.75Y-60.0
X107.75Y-85.0
X107.84Y-40.0
X110.25Y-60.0
X110.25Y-85.0
X110.38Y-40.0
X112.75Y-60.0
X112.75Y-85.0
X112.92Y-40.0
X115.46Y-40.0
X118.0Y-40.0
X118.0Y-90.0
X118.0Y-92.54
X118.0Y-95.08
X118.0Y-97.62
X118.0Y-100.16
X118.0Y-102.7
X118.0Y-105.24
X118.0Y-107.78
T5
X41.84Y-31.75
X41.92Y-57.5
X52.0Y-31.75
X52.08Y-57.5
T6
X88.75Y-112.0
X88.75Y-127.0
X100.15Y-112.0
X111.5Y-112.0
X111.5Y-127.0
T7
X88.75Y-115.1
X88.75Y-130.1
X100.15Y-115.1
X111.5Y-115.1
X111.5Y-130.1
T8
X88.75Y-123.4
X88.75Y-138.4
X100.15Y-123.4
X111.5Y-123.4
X111.5Y-138.4
T9
X85.325Y-36.5
X85.325Y-77.5
X94.825Y-36.5
X94.825Y-77.5
X95.4Y-92.5
X104.9Y-92.5
X105.5Y-52.5
X105.5Y-77.5
X115.0Y-52.5
X115.0Y-77.5
M30
