G04 #@! TF.GenerationSoftware,KiCad,Pcbnew,7.0.10*
G04 #@! TF.CreationDate,2024-04-20T15:40:05+02:00*
G04 #@! TF.ProjectId,vixen,76697865-6e2e-46b6-9963-61645f706362,rev?*
G04 #@! TF.SameCoordinates,Original*
G04 #@! TF.FileFunction,Legend,Bot*
G04 #@! TF.FilePolarity,Positive*
%FSLAX46Y46*%
G04 Gerber Fmt 4.6, Leading zero omitted, Abs format (unit mm)*
G04 Created by KiCad (PCBNEW 7.0.10) date 2024-04-20 15:40:05*
%MOMM*%
%LPD*%
G01*
G04 APERTURE LIST*
G04 Aperture macros list*
%AMRoundRect*
0 Rectangle with rounded corners*
0 $1 Rounding radius*
0 $2 $3 $4 $5 $6 $7 $8 $9 X,Y pos of 4 corners*
0 Add a 4 corners polygon primitive as box body*
4,1,4,$2,$3,$4,$5,$6,$7,$8,$9,$2,$3,0*
0 Add four circle primitives for the rounded corners*
1,1,$1+$1,$2,$3*
1,1,$1+$1,$4,$5*
1,1,$1+$1,$6,$7*
1,1,$1+$1,$8,$9*
0 Add four rect primitives between the rounded corners*
20,1,$1+$1,$2,$3,$4,$5,0*
20,1,$1+$1,$4,$5,$6,$7,0*
20,1,$1+$1,$6,$7,$8,$9,0*
20,1,$1+$1,$8,$9,$2,$3,0*%
G04 Aperture macros list end*
%ADD10C,0.150000*%
%ADD11C,0.300000*%
%ADD12C,0.120000*%
%ADD13C,1.000000*%
%ADD14C,2.000000*%
%ADD15C,3.500000*%
%ADD16O,1.700000X1.700000*%
%ADD17R,1.700000X1.700000*%
%ADD18O,2.200000X2.200000*%
%ADD19R,2.200000X2.200000*%
%ADD20O,1.600000X1.600000*%
%ADD21C,1.600000*%
%ADD22RoundRect,0.275000X0.625000X-0.275000X0.625000X0.275000X-0.625000X0.275000X-0.625000X-0.275000X0*%
%ADD23R,1.800000X1.100000*%
%ADD24C,1.800000*%
%ADD25R,1.800000X1.800000*%
%ADD26O,4.000000X4.000000*%
%ADD27C,2.130000*%
%ADD28R,1.930000X1.830000*%
%ADD29RoundRect,0.275000X-0.625000X0.275000X-0.625000X-0.275000X0.625000X-0.275000X0.625000X0.275000X0*%
%ADD30O,2.400000X1.600000*%
%ADD31R,2.400000X1.600000*%
%ADD32R,1.600000X1.600000*%
%ADD33C,1.440000*%
%ADD34C,1.700000*%
%ADD35RoundRect,0.250000X-0.600000X-0.600000X0.600000X-0.600000X0.600000X0.600000X-0.600000X0.600000X0*%
%ADD36C,1.200000*%
%ADD37R,1.200000X1.200000*%
G04 APERTURE END LIST*
D10*
X47059580Y-41333333D02*
X47107200Y-41285714D01*
X47107200Y-41285714D02*
X47154819Y-41142857D01*
X47154819Y-41142857D02*
X47154819Y-41047619D01*
X47154819Y-41047619D02*
X47107200Y-40904762D01*
X47107200Y-40904762D02*
X47011961Y-40809524D01*
X47011961Y-40809524D02*
X46916723Y-40761905D01*
X46916723Y-40761905D02*
X46726247Y-40714286D01*
X46726247Y-40714286D02*
X46583390Y-40714286D01*
X46583390Y-40714286D02*
X46392914Y-40761905D01*
X46392914Y-40761905D02*
X46297676Y-40809524D01*
X46297676Y-40809524D02*
X46202438Y-40904762D01*
X46202438Y-40904762D02*
X46154819Y-41047619D01*
X46154819Y-41047619D02*
X46154819Y-41142857D01*
X46154819Y-41142857D02*
X46202438Y-41285714D01*
X46202438Y-41285714D02*
X46250057Y-41333333D01*
X47154819Y-42285714D02*
X47154819Y-41714286D01*
X47154819Y-42000000D02*
X46154819Y-42000000D01*
X46154819Y-42000000D02*
X46297676Y-41904762D01*
X46297676Y-41904762D02*
X46392914Y-41809524D01*
X46392914Y-41809524D02*
X46440533Y-41714286D01*
X62354819Y-74004761D02*
X61878628Y-73671428D01*
X62354819Y-73433333D02*
X61354819Y-73433333D01*
X61354819Y-73433333D02*
X61354819Y-73814285D01*
X61354819Y-73814285D02*
X61402438Y-73909523D01*
X61402438Y-73909523D02*
X61450057Y-73957142D01*
X61450057Y-73957142D02*
X61545295Y-74004761D01*
X61545295Y-74004761D02*
X61688152Y-74004761D01*
X61688152Y-74004761D02*
X61783390Y-73957142D01*
X61783390Y-73957142D02*
X61831009Y-73909523D01*
X61831009Y-73909523D02*
X61878628Y-73814285D01*
X61878628Y-73814285D02*
X61878628Y-73433333D01*
X61354819Y-74290476D02*
X62354819Y-74623809D01*
X62354819Y-74623809D02*
X61354819Y-74957142D01*
X62354819Y-75814285D02*
X62354819Y-75242857D01*
X62354819Y-75528571D02*
X61354819Y-75528571D01*
X61354819Y-75528571D02*
X61497676Y-75433333D01*
X61497676Y-75433333D02*
X61592914Y-75338095D01*
X61592914Y-75338095D02*
X61640533Y-75242857D01*
X118761904Y-88124819D02*
X118761904Y-87124819D01*
X118761904Y-87601009D02*
X118190476Y-87601009D01*
X118190476Y-88124819D02*
X118190476Y-87124819D01*
X117190476Y-88124819D02*
X117761904Y-88124819D01*
X117476190Y-88124819D02*
X117476190Y-87124819D01*
X117476190Y-87124819D02*
X117571428Y-87267676D01*
X117571428Y-87267676D02*
X117666666Y-87362914D01*
X117666666Y-87362914D02*
X117761904Y-87410533D01*
D11*
X38466917Y-62849400D02*
X38252632Y-62920828D01*
X38252632Y-62920828D02*
X37895489Y-62920828D01*
X37895489Y-62920828D02*
X37752632Y-62849400D01*
X37752632Y-62849400D02*
X37681203Y-62777971D01*
X37681203Y-62777971D02*
X37609774Y-62635114D01*
X37609774Y-62635114D02*
X37609774Y-62492257D01*
X37609774Y-62492257D02*
X37681203Y-62349400D01*
X37681203Y-62349400D02*
X37752632Y-62277971D01*
X37752632Y-62277971D02*
X37895489Y-62206542D01*
X37895489Y-62206542D02*
X38181203Y-62135114D01*
X38181203Y-62135114D02*
X38324060Y-62063685D01*
X38324060Y-62063685D02*
X38395489Y-61992257D01*
X38395489Y-61992257D02*
X38466917Y-61849400D01*
X38466917Y-61849400D02*
X38466917Y-61706542D01*
X38466917Y-61706542D02*
X38395489Y-61563685D01*
X38395489Y-61563685D02*
X38324060Y-61492257D01*
X38324060Y-61492257D02*
X38181203Y-61420828D01*
X38181203Y-61420828D02*
X37824060Y-61420828D01*
X37824060Y-61420828D02*
X37609774Y-61492257D01*
X37181203Y-61420828D02*
X36324061Y-61420828D01*
X36752632Y-62920828D02*
X36752632Y-61420828D01*
X34966918Y-62920828D02*
X35466918Y-62206542D01*
X35824061Y-62920828D02*
X35824061Y-61420828D01*
X35824061Y-61420828D02*
X35252632Y-61420828D01*
X35252632Y-61420828D02*
X35109775Y-61492257D01*
X35109775Y-61492257D02*
X35038346Y-61563685D01*
X35038346Y-61563685D02*
X34966918Y-61706542D01*
X34966918Y-61706542D02*
X34966918Y-61920828D01*
X34966918Y-61920828D02*
X35038346Y-62063685D01*
X35038346Y-62063685D02*
X35109775Y-62135114D01*
X35109775Y-62135114D02*
X35252632Y-62206542D01*
X35252632Y-62206542D02*
X35824061Y-62206542D01*
X34324061Y-62920828D02*
X34324061Y-61420828D01*
X33609775Y-62920828D02*
X33609775Y-61420828D01*
X33609775Y-61420828D02*
X33038346Y-61420828D01*
X33038346Y-61420828D02*
X32895489Y-61492257D01*
X32895489Y-61492257D02*
X32824060Y-61563685D01*
X32824060Y-61563685D02*
X32752632Y-61706542D01*
X32752632Y-61706542D02*
X32752632Y-61920828D01*
X32752632Y-61920828D02*
X32824060Y-62063685D01*
X32824060Y-62063685D02*
X32895489Y-62135114D01*
X32895489Y-62135114D02*
X33038346Y-62206542D01*
X33038346Y-62206542D02*
X33609775Y-62206542D01*
X32109775Y-62135114D02*
X31609775Y-62135114D01*
X31395489Y-62920828D02*
X32109775Y-62920828D01*
X32109775Y-62920828D02*
X32109775Y-61420828D01*
X32109775Y-61420828D02*
X31395489Y-61420828D01*
D10*
X119738094Y-42954819D02*
X119738094Y-41954819D01*
X119738094Y-42431009D02*
X119166666Y-42431009D01*
X119166666Y-42954819D02*
X119166666Y-41954819D01*
X118166666Y-42954819D02*
X118738094Y-42954819D01*
X118452380Y-42954819D02*
X118452380Y-41954819D01*
X118452380Y-41954819D02*
X118547618Y-42097676D01*
X118547618Y-42097676D02*
X118642856Y-42192914D01*
X118642856Y-42192914D02*
X118738094Y-42240533D01*
X117785713Y-42050057D02*
X117738094Y-42002438D01*
X117738094Y-42002438D02*
X117642856Y-41954819D01*
X117642856Y-41954819D02*
X117404761Y-41954819D01*
X117404761Y-41954819D02*
X117309523Y-42002438D01*
X117309523Y-42002438D02*
X117261904Y-42050057D01*
X117261904Y-42050057D02*
X117214285Y-42145295D01*
X117214285Y-42145295D02*
X117214285Y-42240533D01*
X117214285Y-42240533D02*
X117261904Y-42383390D01*
X117261904Y-42383390D02*
X117833332Y-42954819D01*
X117833332Y-42954819D02*
X117214285Y-42954819D01*
X34059580Y-109233333D02*
X34107200Y-109185714D01*
X34107200Y-109185714D02*
X34154819Y-109042857D01*
X34154819Y-109042857D02*
X34154819Y-108947619D01*
X34154819Y-108947619D02*
X34107200Y-108804762D01*
X34107200Y-108804762D02*
X34011961Y-108709524D01*
X34011961Y-108709524D02*
X33916723Y-108661905D01*
X33916723Y-108661905D02*
X33726247Y-108614286D01*
X33726247Y-108614286D02*
X33583390Y-108614286D01*
X33583390Y-108614286D02*
X33392914Y-108661905D01*
X33392914Y-108661905D02*
X33297676Y-108709524D01*
X33297676Y-108709524D02*
X33202438Y-108804762D01*
X33202438Y-108804762D02*
X33154819Y-108947619D01*
X33154819Y-108947619D02*
X33154819Y-109042857D01*
X33154819Y-109042857D02*
X33202438Y-109185714D01*
X33202438Y-109185714D02*
X33250057Y-109233333D01*
X34154819Y-109709524D02*
X34154819Y-109900000D01*
X34154819Y-109900000D02*
X34107200Y-109995238D01*
X34107200Y-109995238D02*
X34059580Y-110042857D01*
X34059580Y-110042857D02*
X33916723Y-110138095D01*
X33916723Y-110138095D02*
X33726247Y-110185714D01*
X33726247Y-110185714D02*
X33345295Y-110185714D01*
X33345295Y-110185714D02*
X33250057Y-110138095D01*
X33250057Y-110138095D02*
X33202438Y-110090476D01*
X33202438Y-110090476D02*
X33154819Y-109995238D01*
X33154819Y-109995238D02*
X33154819Y-109804762D01*
X33154819Y-109804762D02*
X33202438Y-109709524D01*
X33202438Y-109709524D02*
X33250057Y-109661905D01*
X33250057Y-109661905D02*
X33345295Y-109614286D01*
X33345295Y-109614286D02*
X33583390Y-109614286D01*
X33583390Y-109614286D02*
X33678628Y-109661905D01*
X33678628Y-109661905D02*
X33726247Y-109709524D01*
X33726247Y-109709524D02*
X33773866Y-109804762D01*
X33773866Y-109804762D02*
X33773866Y-109995238D01*
X33773866Y-109995238D02*
X33726247Y-110090476D01*
X33726247Y-110090476D02*
X33678628Y-110138095D01*
X33678628Y-110138095D02*
X33583390Y-110185714D01*
X47059580Y-47333333D02*
X47107200Y-47285714D01*
X47107200Y-47285714D02*
X47154819Y-47142857D01*
X47154819Y-47142857D02*
X47154819Y-47047619D01*
X47154819Y-47047619D02*
X47107200Y-46904762D01*
X47107200Y-46904762D02*
X47011961Y-46809524D01*
X47011961Y-46809524D02*
X46916723Y-46761905D01*
X46916723Y-46761905D02*
X46726247Y-46714286D01*
X46726247Y-46714286D02*
X46583390Y-46714286D01*
X46583390Y-46714286D02*
X46392914Y-46761905D01*
X46392914Y-46761905D02*
X46297676Y-46809524D01*
X46297676Y-46809524D02*
X46202438Y-46904762D01*
X46202438Y-46904762D02*
X46154819Y-47047619D01*
X46154819Y-47047619D02*
X46154819Y-47142857D01*
X46154819Y-47142857D02*
X46202438Y-47285714D01*
X46202438Y-47285714D02*
X46250057Y-47333333D01*
X46250057Y-47714286D02*
X46202438Y-47761905D01*
X46202438Y-47761905D02*
X46154819Y-47857143D01*
X46154819Y-47857143D02*
X46154819Y-48095238D01*
X46154819Y-48095238D02*
X46202438Y-48190476D01*
X46202438Y-48190476D02*
X46250057Y-48238095D01*
X46250057Y-48238095D02*
X46345295Y-48285714D01*
X46345295Y-48285714D02*
X46440533Y-48285714D01*
X46440533Y-48285714D02*
X46583390Y-48238095D01*
X46583390Y-48238095D02*
X47154819Y-47666667D01*
X47154819Y-47666667D02*
X47154819Y-48285714D01*
X52639266Y-116909580D02*
X52686885Y-116957200D01*
X52686885Y-116957200D02*
X52829742Y-117004819D01*
X52829742Y-117004819D02*
X52924980Y-117004819D01*
X52924980Y-117004819D02*
X53067837Y-116957200D01*
X53067837Y-116957200D02*
X53163075Y-116861961D01*
X53163075Y-116861961D02*
X53210694Y-116766723D01*
X53210694Y-116766723D02*
X53258313Y-116576247D01*
X53258313Y-116576247D02*
X53258313Y-116433390D01*
X53258313Y-116433390D02*
X53210694Y-116242914D01*
X53210694Y-116242914D02*
X53163075Y-116147676D01*
X53163075Y-116147676D02*
X53067837Y-116052438D01*
X53067837Y-116052438D02*
X52924980Y-116004819D01*
X52924980Y-116004819D02*
X52829742Y-116004819D01*
X52829742Y-116004819D02*
X52686885Y-116052438D01*
X52686885Y-116052438D02*
X52639266Y-116100057D01*
X51782123Y-116004819D02*
X51972599Y-116004819D01*
X51972599Y-116004819D02*
X52067837Y-116052438D01*
X52067837Y-116052438D02*
X52115456Y-116100057D01*
X52115456Y-116100057D02*
X52210694Y-116242914D01*
X52210694Y-116242914D02*
X52258313Y-116433390D01*
X52258313Y-116433390D02*
X52258313Y-116814342D01*
X52258313Y-116814342D02*
X52210694Y-116909580D01*
X52210694Y-116909580D02*
X52163075Y-116957200D01*
X52163075Y-116957200D02*
X52067837Y-117004819D01*
X52067837Y-117004819D02*
X51877361Y-117004819D01*
X51877361Y-117004819D02*
X51782123Y-116957200D01*
X51782123Y-116957200D02*
X51734504Y-116909580D01*
X51734504Y-116909580D02*
X51686885Y-116814342D01*
X51686885Y-116814342D02*
X51686885Y-116576247D01*
X51686885Y-116576247D02*
X51734504Y-116481009D01*
X51734504Y-116481009D02*
X51782123Y-116433390D01*
X51782123Y-116433390D02*
X51877361Y-116385771D01*
X51877361Y-116385771D02*
X52067837Y-116385771D01*
X52067837Y-116385771D02*
X52163075Y-116433390D01*
X52163075Y-116433390D02*
X52210694Y-116481009D01*
X52210694Y-116481009D02*
X52258313Y-116576247D01*
X41359580Y-54733333D02*
X41407200Y-54685714D01*
X41407200Y-54685714D02*
X41454819Y-54542857D01*
X41454819Y-54542857D02*
X41454819Y-54447619D01*
X41454819Y-54447619D02*
X41407200Y-54304762D01*
X41407200Y-54304762D02*
X41311961Y-54209524D01*
X41311961Y-54209524D02*
X41216723Y-54161905D01*
X41216723Y-54161905D02*
X41026247Y-54114286D01*
X41026247Y-54114286D02*
X40883390Y-54114286D01*
X40883390Y-54114286D02*
X40692914Y-54161905D01*
X40692914Y-54161905D02*
X40597676Y-54209524D01*
X40597676Y-54209524D02*
X40502438Y-54304762D01*
X40502438Y-54304762D02*
X40454819Y-54447619D01*
X40454819Y-54447619D02*
X40454819Y-54542857D01*
X40454819Y-54542857D02*
X40502438Y-54685714D01*
X40502438Y-54685714D02*
X40550057Y-54733333D01*
X40788152Y-55590476D02*
X41454819Y-55590476D01*
X40407200Y-55352381D02*
X41121485Y-55114286D01*
X41121485Y-55114286D02*
X41121485Y-55733333D01*
X35666666Y-116934580D02*
X35714285Y-116982200D01*
X35714285Y-116982200D02*
X35857142Y-117029819D01*
X35857142Y-117029819D02*
X35952380Y-117029819D01*
X35952380Y-117029819D02*
X36095237Y-116982200D01*
X36095237Y-116982200D02*
X36190475Y-116886961D01*
X36190475Y-116886961D02*
X36238094Y-116791723D01*
X36238094Y-116791723D02*
X36285713Y-116601247D01*
X36285713Y-116601247D02*
X36285713Y-116458390D01*
X36285713Y-116458390D02*
X36238094Y-116267914D01*
X36238094Y-116267914D02*
X36190475Y-116172676D01*
X36190475Y-116172676D02*
X36095237Y-116077438D01*
X36095237Y-116077438D02*
X35952380Y-116029819D01*
X35952380Y-116029819D02*
X35857142Y-116029819D01*
X35857142Y-116029819D02*
X35714285Y-116077438D01*
X35714285Y-116077438D02*
X35666666Y-116125057D01*
X35095237Y-116458390D02*
X35190475Y-116410771D01*
X35190475Y-116410771D02*
X35238094Y-116363152D01*
X35238094Y-116363152D02*
X35285713Y-116267914D01*
X35285713Y-116267914D02*
X35285713Y-116220295D01*
X35285713Y-116220295D02*
X35238094Y-116125057D01*
X35238094Y-116125057D02*
X35190475Y-116077438D01*
X35190475Y-116077438D02*
X35095237Y-116029819D01*
X35095237Y-116029819D02*
X34904761Y-116029819D01*
X34904761Y-116029819D02*
X34809523Y-116077438D01*
X34809523Y-116077438D02*
X34761904Y-116125057D01*
X34761904Y-116125057D02*
X34714285Y-116220295D01*
X34714285Y-116220295D02*
X34714285Y-116267914D01*
X34714285Y-116267914D02*
X34761904Y-116363152D01*
X34761904Y-116363152D02*
X34809523Y-116410771D01*
X34809523Y-116410771D02*
X34904761Y-116458390D01*
X34904761Y-116458390D02*
X35095237Y-116458390D01*
X35095237Y-116458390D02*
X35190475Y-116506009D01*
X35190475Y-116506009D02*
X35238094Y-116553628D01*
X35238094Y-116553628D02*
X35285713Y-116648866D01*
X35285713Y-116648866D02*
X35285713Y-116839342D01*
X35285713Y-116839342D02*
X35238094Y-116934580D01*
X35238094Y-116934580D02*
X35190475Y-116982200D01*
X35190475Y-116982200D02*
X35095237Y-117029819D01*
X35095237Y-117029819D02*
X34904761Y-117029819D01*
X34904761Y-117029819D02*
X34809523Y-116982200D01*
X34809523Y-116982200D02*
X34761904Y-116934580D01*
X34761904Y-116934580D02*
X34714285Y-116839342D01*
X34714285Y-116839342D02*
X34714285Y-116648866D01*
X34714285Y-116648866D02*
X34761904Y-116553628D01*
X34761904Y-116553628D02*
X34809523Y-116506009D01*
X34809523Y-116506009D02*
X34904761Y-116458390D01*
X46259580Y-37833333D02*
X46307200Y-37785714D01*
X46307200Y-37785714D02*
X46354819Y-37642857D01*
X46354819Y-37642857D02*
X46354819Y-37547619D01*
X46354819Y-37547619D02*
X46307200Y-37404762D01*
X46307200Y-37404762D02*
X46211961Y-37309524D01*
X46211961Y-37309524D02*
X46116723Y-37261905D01*
X46116723Y-37261905D02*
X45926247Y-37214286D01*
X45926247Y-37214286D02*
X45783390Y-37214286D01*
X45783390Y-37214286D02*
X45592914Y-37261905D01*
X45592914Y-37261905D02*
X45497676Y-37309524D01*
X45497676Y-37309524D02*
X45402438Y-37404762D01*
X45402438Y-37404762D02*
X45354819Y-37547619D01*
X45354819Y-37547619D02*
X45354819Y-37642857D01*
X45354819Y-37642857D02*
X45402438Y-37785714D01*
X45402438Y-37785714D02*
X45450057Y-37833333D01*
X45354819Y-38166667D02*
X45354819Y-38785714D01*
X45354819Y-38785714D02*
X45735771Y-38452381D01*
X45735771Y-38452381D02*
X45735771Y-38595238D01*
X45735771Y-38595238D02*
X45783390Y-38690476D01*
X45783390Y-38690476D02*
X45831009Y-38738095D01*
X45831009Y-38738095D02*
X45926247Y-38785714D01*
X45926247Y-38785714D02*
X46164342Y-38785714D01*
X46164342Y-38785714D02*
X46259580Y-38738095D01*
X46259580Y-38738095D02*
X46307200Y-38690476D01*
X46307200Y-38690476D02*
X46354819Y-38595238D01*
X46354819Y-38595238D02*
X46354819Y-38309524D01*
X46354819Y-38309524D02*
X46307200Y-38214286D01*
X46307200Y-38214286D02*
X46259580Y-38166667D01*
X56566666Y-135409580D02*
X56614285Y-135457200D01*
X56614285Y-135457200D02*
X56757142Y-135504819D01*
X56757142Y-135504819D02*
X56852380Y-135504819D01*
X56852380Y-135504819D02*
X56995237Y-135457200D01*
X56995237Y-135457200D02*
X57090475Y-135361961D01*
X57090475Y-135361961D02*
X57138094Y-135266723D01*
X57138094Y-135266723D02*
X57185713Y-135076247D01*
X57185713Y-135076247D02*
X57185713Y-134933390D01*
X57185713Y-134933390D02*
X57138094Y-134742914D01*
X57138094Y-134742914D02*
X57090475Y-134647676D01*
X57090475Y-134647676D02*
X56995237Y-134552438D01*
X56995237Y-134552438D02*
X56852380Y-134504819D01*
X56852380Y-134504819D02*
X56757142Y-134504819D01*
X56757142Y-134504819D02*
X56614285Y-134552438D01*
X56614285Y-134552438D02*
X56566666Y-134600057D01*
X55661904Y-134504819D02*
X56138094Y-134504819D01*
X56138094Y-134504819D02*
X56185713Y-134981009D01*
X56185713Y-134981009D02*
X56138094Y-134933390D01*
X56138094Y-134933390D02*
X56042856Y-134885771D01*
X56042856Y-134885771D02*
X55804761Y-134885771D01*
X55804761Y-134885771D02*
X55709523Y-134933390D01*
X55709523Y-134933390D02*
X55661904Y-134981009D01*
X55661904Y-134981009D02*
X55614285Y-135076247D01*
X55614285Y-135076247D02*
X55614285Y-135314342D01*
X55614285Y-135314342D02*
X55661904Y-135409580D01*
X55661904Y-135409580D02*
X55709523Y-135457200D01*
X55709523Y-135457200D02*
X55804761Y-135504819D01*
X55804761Y-135504819D02*
X56042856Y-135504819D01*
X56042856Y-135504819D02*
X56138094Y-135457200D01*
X56138094Y-135457200D02*
X56185713Y-135409580D01*
D12*
X45870000Y-41500000D02*
G75*
G03*
X40630000Y-41500000I-2620000J0D01*
G01*
X40630000Y-41500000D02*
G75*
G03*
X45870000Y-41500000I2620000J0D01*
G01*
X42966000Y-44101000D02*
X43534000Y-44101000D01*
X42732000Y-44061000D02*
X43768000Y-44061000D01*
X42573000Y-44021000D02*
X43927000Y-44021000D01*
X42445000Y-43981000D02*
X44055000Y-43981000D01*
X42335000Y-43941000D02*
X44165000Y-43941000D01*
X42239000Y-43901000D02*
X44261000Y-43901000D01*
X42152000Y-43861000D02*
X44348000Y-43861000D01*
X42072000Y-43821000D02*
X44428000Y-43821000D01*
X41999000Y-43781000D02*
X44501000Y-43781000D01*
X41931000Y-43741000D02*
X44569000Y-43741000D01*
X41867000Y-43701000D02*
X44633000Y-43701000D01*
X41807000Y-43661000D02*
X44693000Y-43661000D01*
X41750000Y-43621000D02*
X44750000Y-43621000D01*
X41696000Y-43581000D02*
X44804000Y-43581000D01*
X41645000Y-43541000D02*
X44855000Y-43541000D01*
X41597000Y-43501000D02*
X42210000Y-43501000D01*
X44290000Y-43501000D02*
X44903000Y-43501000D01*
X41551000Y-43461000D02*
X42210000Y-43461000D01*
X44290000Y-43461000D02*
X44949000Y-43461000D01*
X41507000Y-43421000D02*
X42210000Y-43421000D01*
X44290000Y-43421000D02*
X44993000Y-43421000D01*
X41465000Y-43381000D02*
X42210000Y-43381000D01*
X44290000Y-43381000D02*
X45035000Y-43381000D01*
X41424000Y-43341000D02*
X42210000Y-43341000D01*
X44290000Y-43341000D02*
X45076000Y-43341000D01*
X41386000Y-43301000D02*
X42210000Y-43301000D01*
X44290000Y-43301000D02*
X45114000Y-43301000D01*
X41349000Y-43261000D02*
X42210000Y-43261000D01*
X44290000Y-43261000D02*
X45151000Y-43261000D01*
X41313000Y-43221000D02*
X42210000Y-43221000D01*
X44290000Y-43221000D02*
X45187000Y-43221000D01*
X41279000Y-43181000D02*
X42210000Y-43181000D01*
X44290000Y-43181000D02*
X45221000Y-43181000D01*
X41246000Y-43141000D02*
X42210000Y-43141000D01*
X44290000Y-43141000D02*
X45254000Y-43141000D01*
X41215000Y-43101000D02*
X42210000Y-43101000D01*
X44290000Y-43101000D02*
X45285000Y-43101000D01*
X41185000Y-43061000D02*
X42210000Y-43061000D01*
X44290000Y-43061000D02*
X45315000Y-43061000D01*
X41155000Y-43021000D02*
X42210000Y-43021000D01*
X44290000Y-43021000D02*
X45345000Y-43021000D01*
X41128000Y-42981000D02*
X42210000Y-42981000D01*
X44290000Y-42981000D02*
X45372000Y-42981000D01*
X41101000Y-42941000D02*
X42210000Y-42941000D01*
X44290000Y-42941000D02*
X45399000Y-42941000D01*
X41075000Y-42901000D02*
X42210000Y-42901000D01*
X44290000Y-42901000D02*
X45425000Y-42901000D01*
X41050000Y-42861000D02*
X42210000Y-42861000D01*
X44290000Y-42861000D02*
X45450000Y-42861000D01*
X41026000Y-42821000D02*
X42210000Y-42821000D01*
X44290000Y-42821000D02*
X45474000Y-42821000D01*
X41003000Y-42781000D02*
X42210000Y-42781000D01*
X44290000Y-42781000D02*
X45497000Y-42781000D01*
X40982000Y-42741000D02*
X42210000Y-42741000D01*
X44290000Y-42741000D02*
X45518000Y-42741000D01*
X40960000Y-42701000D02*
X42210000Y-42701000D01*
X44290000Y-42701000D02*
X45540000Y-42701000D01*
X40940000Y-42661000D02*
X42210000Y-42661000D01*
X44290000Y-42661000D02*
X45560000Y-42661000D01*
X40921000Y-42621000D02*
X42210000Y-42621000D01*
X44290000Y-42621000D02*
X45579000Y-42621000D01*
X40902000Y-42581000D02*
X42210000Y-42581000D01*
X44290000Y-42581000D02*
X45598000Y-42581000D01*
X40885000Y-42541000D02*
X42210000Y-42541000D01*
X44290000Y-42541000D02*
X45615000Y-42541000D01*
X40868000Y-42501000D02*
X42210000Y-42501000D01*
X44290000Y-42501000D02*
X45632000Y-42501000D01*
X40852000Y-42461000D02*
X42210000Y-42461000D01*
X44290000Y-42461000D02*
X45648000Y-42461000D01*
X40836000Y-42421000D02*
X42210000Y-42421000D01*
X44290000Y-42421000D02*
X45664000Y-42421000D01*
X40822000Y-42381000D02*
X42210000Y-42381000D01*
X44290000Y-42381000D02*
X45678000Y-42381000D01*
X40808000Y-42341000D02*
X42210000Y-42341000D01*
X44290000Y-42341000D02*
X45692000Y-42341000D01*
X40795000Y-42301000D02*
X42210000Y-42301000D01*
X44290000Y-42301000D02*
X45705000Y-42301000D01*
X40782000Y-42261000D02*
X42210000Y-42261000D01*
X44290000Y-42261000D02*
X45718000Y-42261000D01*
X40770000Y-42221000D02*
X42210000Y-42221000D01*
X44290000Y-42221000D02*
X45730000Y-42221000D01*
X40759000Y-42180000D02*
X42210000Y-42180000D01*
X44290000Y-42180000D02*
X45741000Y-42180000D01*
X40749000Y-42140000D02*
X42210000Y-42140000D01*
X44290000Y-42140000D02*
X45751000Y-42140000D01*
X40739000Y-42100000D02*
X42210000Y-42100000D01*
X44290000Y-42100000D02*
X45761000Y-42100000D01*
X40730000Y-42060000D02*
X42210000Y-42060000D01*
X44290000Y-42060000D02*
X45770000Y-42060000D01*
X40722000Y-42020000D02*
X42210000Y-42020000D01*
X44290000Y-42020000D02*
X45778000Y-42020000D01*
X40714000Y-41980000D02*
X42210000Y-41980000D01*
X44290000Y-41980000D02*
X45786000Y-41980000D01*
X40707000Y-41940000D02*
X42210000Y-41940000D01*
X44290000Y-41940000D02*
X45793000Y-41940000D01*
X40700000Y-41900000D02*
X42210000Y-41900000D01*
X44290000Y-41900000D02*
X45800000Y-41900000D01*
X40694000Y-41860000D02*
X42210000Y-41860000D01*
X44290000Y-41860000D02*
X45806000Y-41860000D01*
X40689000Y-41820000D02*
X42210000Y-41820000D01*
X44290000Y-41820000D02*
X45811000Y-41820000D01*
X40685000Y-41780000D02*
X42210000Y-41780000D01*
X44290000Y-41780000D02*
X45815000Y-41780000D01*
X40681000Y-41740000D02*
X42210000Y-41740000D01*
X44290000Y-41740000D02*
X45819000Y-41740000D01*
X40677000Y-41700000D02*
X42210000Y-41700000D01*
X44290000Y-41700000D02*
X45823000Y-41700000D01*
X40674000Y-41660000D02*
X42210000Y-41660000D01*
X44290000Y-41660000D02*
X45826000Y-41660000D01*
X40672000Y-41620000D02*
X42210000Y-41620000D01*
X44290000Y-41620000D02*
X45828000Y-41620000D01*
X40671000Y-41580000D02*
X42210000Y-41580000D01*
X44290000Y-41580000D02*
X45829000Y-41580000D01*
X40670000Y-41540000D02*
X42210000Y-41540000D01*
X44290000Y-41540000D02*
X45830000Y-41540000D01*
X40670000Y-41500000D02*
X42210000Y-41500000D01*
X44290000Y-41500000D02*
X45830000Y-41500000D01*
X41525000Y-38945225D02*
X42025000Y-38945225D01*
X41775000Y-38695225D02*
X41775000Y-39195225D01*
X60870000Y-79485000D02*
X65940000Y-79485000D01*
X60870000Y-69715000D02*
X60870000Y-79485000D01*
X60870000Y-69715000D02*
X65940000Y-69715000D01*
X65940000Y-69715000D02*
X65940000Y-79485000D01*
X116670000Y-91270000D02*
X116670000Y-109110000D01*
X119330000Y-88670000D02*
X118000000Y-88670000D01*
X119330000Y-90000000D02*
X119330000Y-88670000D01*
X119330000Y-91270000D02*
X116670000Y-91270000D01*
X119330000Y-91270000D02*
X119330000Y-109110000D01*
X119330000Y-109110000D02*
X116670000Y-109110000D01*
X30670000Y-30590000D02*
X30670000Y-58790000D01*
X30670000Y-46740000D02*
X31980000Y-46740000D01*
X30670000Y-58790000D02*
X39790000Y-58790000D01*
D13*
X30700000Y-60220000D02*
X39700000Y-60220000D01*
D12*
X31980000Y-31890000D02*
X31980000Y-42640000D01*
X31980000Y-42640000D02*
X30670000Y-42640000D01*
X31980000Y-42640000D02*
X31980000Y-42640000D01*
X31980000Y-46740000D02*
X31980000Y-57490000D01*
X31980000Y-57490000D02*
X38480000Y-57490000D01*
X38480000Y-31890000D02*
X31980000Y-31890000D01*
X38480000Y-57490000D02*
X38480000Y-31890000D01*
X39790000Y-30590000D02*
X30670000Y-30590000D01*
X39790000Y-58790000D02*
X39790000Y-30590000D01*
X116730000Y-38670000D02*
X98890000Y-38670000D01*
X119330000Y-41330000D02*
X119330000Y-40000000D01*
X118000000Y-41330000D02*
X119330000Y-41330000D01*
X116730000Y-41330000D02*
X116730000Y-38670000D01*
X116730000Y-41330000D02*
X98890000Y-41330000D01*
X98890000Y-41330000D02*
X98890000Y-38670000D01*
X30830000Y-113120000D02*
X36570000Y-113120000D01*
X30830000Y-105680000D02*
X30830000Y-113120000D01*
X30830000Y-105680000D02*
X36570000Y-105680000D01*
X36570000Y-105680000D02*
X36570000Y-113120000D01*
X45870000Y-47500000D02*
G75*
G03*
X40630000Y-47500000I-2620000J0D01*
G01*
X40630000Y-47500000D02*
G75*
G03*
X45870000Y-47500000I2620000J0D01*
G01*
X42966000Y-50101000D02*
X43534000Y-50101000D01*
X42732000Y-50061000D02*
X43768000Y-50061000D01*
X42573000Y-50021000D02*
X43927000Y-50021000D01*
X42445000Y-49981000D02*
X44055000Y-49981000D01*
X42335000Y-49941000D02*
X44165000Y-49941000D01*
X42239000Y-49901000D02*
X44261000Y-49901000D01*
X42152000Y-49861000D02*
X44348000Y-49861000D01*
X42072000Y-49821000D02*
X44428000Y-49821000D01*
X41999000Y-49781000D02*
X44501000Y-49781000D01*
X41931000Y-49741000D02*
X44569000Y-49741000D01*
X41867000Y-49701000D02*
X44633000Y-49701000D01*
X41807000Y-49661000D02*
X44693000Y-49661000D01*
X41750000Y-49621000D02*
X44750000Y-49621000D01*
X41696000Y-49581000D02*
X44804000Y-49581000D01*
X41645000Y-49541000D02*
X44855000Y-49541000D01*
X41597000Y-49501000D02*
X42210000Y-49501000D01*
X44290000Y-49501000D02*
X44903000Y-49501000D01*
X41551000Y-49461000D02*
X42210000Y-49461000D01*
X44290000Y-49461000D02*
X44949000Y-49461000D01*
X41507000Y-49421000D02*
X42210000Y-49421000D01*
X44290000Y-49421000D02*
X44993000Y-49421000D01*
X41465000Y-49381000D02*
X42210000Y-49381000D01*
X44290000Y-49381000D02*
X45035000Y-49381000D01*
X41424000Y-49341000D02*
X42210000Y-49341000D01*
X44290000Y-49341000D02*
X45076000Y-49341000D01*
X41386000Y-49301000D02*
X42210000Y-49301000D01*
X44290000Y-49301000D02*
X45114000Y-49301000D01*
X41349000Y-49261000D02*
X42210000Y-49261000D01*
X44290000Y-49261000D02*
X45151000Y-49261000D01*
X41313000Y-49221000D02*
X42210000Y-49221000D01*
X44290000Y-49221000D02*
X45187000Y-49221000D01*
X41279000Y-49181000D02*
X42210000Y-49181000D01*
X44290000Y-49181000D02*
X45221000Y-49181000D01*
X41246000Y-49141000D02*
X42210000Y-49141000D01*
X44290000Y-49141000D02*
X45254000Y-49141000D01*
X41215000Y-49101000D02*
X42210000Y-49101000D01*
X44290000Y-49101000D02*
X45285000Y-49101000D01*
X41185000Y-49061000D02*
X42210000Y-49061000D01*
X44290000Y-49061000D02*
X45315000Y-49061000D01*
X41155000Y-49021000D02*
X42210000Y-49021000D01*
X44290000Y-49021000D02*
X45345000Y-49021000D01*
X41128000Y-48981000D02*
X42210000Y-48981000D01*
X44290000Y-48981000D02*
X45372000Y-48981000D01*
X41101000Y-48941000D02*
X42210000Y-48941000D01*
X44290000Y-48941000D02*
X45399000Y-48941000D01*
X41075000Y-48901000D02*
X42210000Y-48901000D01*
X44290000Y-48901000D02*
X45425000Y-48901000D01*
X41050000Y-48861000D02*
X42210000Y-48861000D01*
X44290000Y-48861000D02*
X45450000Y-48861000D01*
X41026000Y-48821000D02*
X42210000Y-48821000D01*
X44290000Y-48821000D02*
X45474000Y-48821000D01*
X41003000Y-48781000D02*
X42210000Y-48781000D01*
X44290000Y-48781000D02*
X45497000Y-48781000D01*
X40982000Y-48741000D02*
X42210000Y-48741000D01*
X44290000Y-48741000D02*
X45518000Y-48741000D01*
X40960000Y-48701000D02*
X42210000Y-48701000D01*
X44290000Y-48701000D02*
X45540000Y-48701000D01*
X40940000Y-48661000D02*
X42210000Y-48661000D01*
X44290000Y-48661000D02*
X45560000Y-48661000D01*
X40921000Y-48621000D02*
X42210000Y-48621000D01*
X44290000Y-48621000D02*
X45579000Y-48621000D01*
X40902000Y-48581000D02*
X42210000Y-48581000D01*
X44290000Y-48581000D02*
X45598000Y-48581000D01*
X40885000Y-48541000D02*
X42210000Y-48541000D01*
X44290000Y-48541000D02*
X45615000Y-48541000D01*
X40868000Y-48501000D02*
X42210000Y-48501000D01*
X44290000Y-48501000D02*
X45632000Y-48501000D01*
X40852000Y-48461000D02*
X42210000Y-48461000D01*
X44290000Y-48461000D02*
X45648000Y-48461000D01*
X40836000Y-48421000D02*
X42210000Y-48421000D01*
X44290000Y-48421000D02*
X45664000Y-48421000D01*
X40822000Y-48381000D02*
X42210000Y-48381000D01*
X44290000Y-48381000D02*
X45678000Y-48381000D01*
X40808000Y-48341000D02*
X42210000Y-48341000D01*
X44290000Y-48341000D02*
X45692000Y-48341000D01*
X40795000Y-48301000D02*
X42210000Y-48301000D01*
X44290000Y-48301000D02*
X45705000Y-48301000D01*
X40782000Y-48261000D02*
X42210000Y-48261000D01*
X44290000Y-48261000D02*
X45718000Y-48261000D01*
X40770000Y-48221000D02*
X42210000Y-48221000D01*
X44290000Y-48221000D02*
X45730000Y-48221000D01*
X40759000Y-48180000D02*
X42210000Y-48180000D01*
X44290000Y-48180000D02*
X45741000Y-48180000D01*
X40749000Y-48140000D02*
X42210000Y-48140000D01*
X44290000Y-48140000D02*
X45751000Y-48140000D01*
X40739000Y-48100000D02*
X42210000Y-48100000D01*
X44290000Y-48100000D02*
X45761000Y-48100000D01*
X40730000Y-48060000D02*
X42210000Y-48060000D01*
X44290000Y-48060000D02*
X45770000Y-48060000D01*
X40722000Y-48020000D02*
X42210000Y-48020000D01*
X44290000Y-48020000D02*
X45778000Y-48020000D01*
X40714000Y-47980000D02*
X42210000Y-47980000D01*
X44290000Y-47980000D02*
X45786000Y-47980000D01*
X40707000Y-47940000D02*
X42210000Y-47940000D01*
X44290000Y-47940000D02*
X45793000Y-47940000D01*
X40700000Y-47900000D02*
X42210000Y-47900000D01*
X44290000Y-47900000D02*
X45800000Y-47900000D01*
X40694000Y-47860000D02*
X42210000Y-47860000D01*
X44290000Y-47860000D02*
X45806000Y-47860000D01*
X40689000Y-47820000D02*
X42210000Y-47820000D01*
X44290000Y-47820000D02*
X45811000Y-47820000D01*
X40685000Y-47780000D02*
X42210000Y-47780000D01*
X44290000Y-47780000D02*
X45815000Y-47780000D01*
X40681000Y-47740000D02*
X42210000Y-47740000D01*
X44290000Y-47740000D02*
X45819000Y-47740000D01*
X40677000Y-47700000D02*
X42210000Y-47700000D01*
X44290000Y-47700000D02*
X45823000Y-47700000D01*
X40674000Y-47660000D02*
X42210000Y-47660000D01*
X44290000Y-47660000D02*
X45826000Y-47660000D01*
X40672000Y-47620000D02*
X42210000Y-47620000D01*
X44290000Y-47620000D02*
X45828000Y-47620000D01*
X40671000Y-47580000D02*
X42210000Y-47580000D01*
X44290000Y-47580000D02*
X45829000Y-47580000D01*
X40670000Y-47540000D02*
X42210000Y-47540000D01*
X44290000Y-47540000D02*
X45830000Y-47540000D01*
X40670000Y-47500000D02*
X42210000Y-47500000D01*
X44290000Y-47500000D02*
X45830000Y-47500000D01*
X41525000Y-44945225D02*
X42025000Y-44945225D01*
X41775000Y-44695225D02*
X41775000Y-45195225D01*
X54592600Y-119800000D02*
G75*
G03*
X50352600Y-119800000I-2120000J0D01*
G01*
X50352600Y-119800000D02*
G75*
G03*
X54592600Y-119800000I2120000J0D01*
G01*
X50391600Y-119430000D02*
X50391600Y-120170000D01*
X50431600Y-119263000D02*
X50431600Y-120337000D01*
X50471600Y-119136000D02*
X50471600Y-120464000D01*
X50511600Y-119032000D02*
X50511600Y-120568000D01*
X50551600Y-118941000D02*
X50551600Y-120659000D01*
X50591600Y-118860000D02*
X50591600Y-120740000D01*
X50631600Y-118787000D02*
X50631600Y-120813000D01*
X50671600Y-118720000D02*
X50671600Y-118960000D01*
X50671600Y-120640000D02*
X50671600Y-120880000D01*
X50711600Y-118658000D02*
X50711600Y-118960000D01*
X50711600Y-120640000D02*
X50711600Y-120942000D01*
X50751600Y-118600000D02*
X50751600Y-118960000D01*
X50751600Y-120640000D02*
X50751600Y-121000000D01*
X50791600Y-118546000D02*
X50791600Y-118960000D01*
X50791600Y-120640000D02*
X50791600Y-121054000D01*
X50831600Y-118496000D02*
X50831600Y-118960000D01*
X50831600Y-120640000D02*
X50831600Y-121104000D01*
X50871600Y-118449000D02*
X50871600Y-118960000D01*
X50871600Y-120640000D02*
X50871600Y-121151000D01*
X50911600Y-118404000D02*
X50911600Y-118960000D01*
X50911600Y-120640000D02*
X50911600Y-121196000D01*
X50951600Y-118362000D02*
X50951600Y-118960000D01*
X50951600Y-120640000D02*
X50951600Y-121238000D01*
X50991600Y-118322000D02*
X50991600Y-118960000D01*
X50991600Y-120640000D02*
X50991600Y-121278000D01*
X51031600Y-118284000D02*
X51031600Y-118960000D01*
X51031600Y-120640000D02*
X51031600Y-121316000D01*
X51071600Y-118248000D02*
X51071600Y-118960000D01*
X51071600Y-120640000D02*
X51071600Y-121352000D01*
X51111600Y-118213000D02*
X51111600Y-118960000D01*
X51111600Y-120640000D02*
X51111600Y-121387000D01*
X51151600Y-118181000D02*
X51151600Y-118960000D01*
X51151600Y-120640000D02*
X51151600Y-121419000D01*
X51191600Y-118150000D02*
X51191600Y-118960000D01*
X51191600Y-120640000D02*
X51191600Y-121450000D01*
X51231600Y-118120000D02*
X51231600Y-118960000D01*
X51231600Y-120640000D02*
X51231600Y-121480000D01*
X51271600Y-118092000D02*
X51271600Y-118960000D01*
X51271600Y-120640000D02*
X51271600Y-121508000D01*
X51311600Y-118065000D02*
X51311600Y-118960000D01*
X51311600Y-120640000D02*
X51311600Y-121535000D01*
X51351600Y-118040000D02*
X51351600Y-118960000D01*
X51351600Y-120640000D02*
X51351600Y-121560000D01*
X51391600Y-118015000D02*
X51391600Y-118960000D01*
X51391600Y-120640000D02*
X51391600Y-121585000D01*
X51431600Y-117992000D02*
X51431600Y-118960000D01*
X51431600Y-120640000D02*
X51431600Y-121608000D01*
X51471600Y-117970000D02*
X51471600Y-118960000D01*
X51471600Y-120640000D02*
X51471600Y-121630000D01*
X51511600Y-117949000D02*
X51511600Y-118960000D01*
X51511600Y-120640000D02*
X51511600Y-121651000D01*
X51551600Y-117930000D02*
X51551600Y-118960000D01*
X51551600Y-120640000D02*
X51551600Y-121670000D01*
X51591600Y-117911000D02*
X51591600Y-118960000D01*
X51591600Y-120640000D02*
X51591600Y-121689000D01*
X51631600Y-117893000D02*
X51631600Y-118960000D01*
X51631600Y-120640000D02*
X51631600Y-121707000D01*
X51671600Y-117876000D02*
X51671600Y-118960000D01*
X51671600Y-120640000D02*
X51671600Y-121724000D01*
X51711600Y-117860000D02*
X51711600Y-118960000D01*
X51711600Y-120640000D02*
X51711600Y-121740000D01*
X51751600Y-117846000D02*
X51751600Y-118960000D01*
X51751600Y-120640000D02*
X51751600Y-121754000D01*
X51792600Y-117832000D02*
X51792600Y-118960000D01*
X51792600Y-120640000D02*
X51792600Y-121768000D01*
X51832600Y-117818000D02*
X51832600Y-118960000D01*
X51832600Y-120640000D02*
X51832600Y-121782000D01*
X51872600Y-117806000D02*
X51872600Y-118960000D01*
X51872600Y-120640000D02*
X51872600Y-121794000D01*
X51912600Y-117795000D02*
X51912600Y-118960000D01*
X51912600Y-120640000D02*
X51912600Y-121805000D01*
X51952600Y-117784000D02*
X51952600Y-118960000D01*
X51952600Y-120640000D02*
X51952600Y-121816000D01*
X51992600Y-117775000D02*
X51992600Y-118960000D01*
X51992600Y-120640000D02*
X51992600Y-121825000D01*
X52032600Y-117766000D02*
X52032600Y-118960000D01*
X52032600Y-120640000D02*
X52032600Y-121834000D01*
X52072600Y-117758000D02*
X52072600Y-118960000D01*
X52072600Y-120640000D02*
X52072600Y-121842000D01*
X52112600Y-117750000D02*
X52112600Y-118960000D01*
X52112600Y-120640000D02*
X52112600Y-121850000D01*
X52152600Y-117744000D02*
X52152600Y-118960000D01*
X52152600Y-120640000D02*
X52152600Y-121856000D01*
X52192600Y-117738000D02*
X52192600Y-118960000D01*
X52192600Y-120640000D02*
X52192600Y-121862000D01*
X52232600Y-117733000D02*
X52232600Y-118960000D01*
X52232600Y-120640000D02*
X52232600Y-121867000D01*
X52272600Y-117729000D02*
X52272600Y-118960000D01*
X52272600Y-120640000D02*
X52272600Y-121871000D01*
X52312600Y-117726000D02*
X52312600Y-121874000D01*
X52352600Y-117723000D02*
X52352600Y-121877000D01*
X52392600Y-117721000D02*
X52392600Y-121879000D01*
X52432600Y-117720000D02*
X52432600Y-121880000D01*
X52472600Y-117720000D02*
X52472600Y-121880000D01*
X54542401Y-118405000D02*
X54542401Y-118805000D01*
X54742401Y-118605000D02*
X54342401Y-118605000D01*
X45370000Y-52722600D02*
G75*
G03*
X41130000Y-52722600I-2120000J0D01*
G01*
X41130000Y-52722600D02*
G75*
G03*
X45370000Y-52722600I2120000J0D01*
G01*
X43620000Y-50641600D02*
X42880000Y-50641600D01*
X43787000Y-50681600D02*
X42713000Y-50681600D01*
X43914000Y-50721600D02*
X42586000Y-50721600D01*
X44018000Y-50761600D02*
X42482000Y-50761600D01*
X44109000Y-50801600D02*
X42391000Y-50801600D01*
X44190000Y-50841600D02*
X42310000Y-50841600D01*
X44263000Y-50881600D02*
X42237000Y-50881600D01*
X44330000Y-50921600D02*
X44090000Y-50921600D01*
X42410000Y-50921600D02*
X42170000Y-50921600D01*
X44392000Y-50961600D02*
X44090000Y-50961600D01*
X42410000Y-50961600D02*
X42108000Y-50961600D01*
X44450000Y-51001600D02*
X44090000Y-51001600D01*
X42410000Y-51001600D02*
X42050000Y-51001600D01*
X44504000Y-51041600D02*
X44090000Y-51041600D01*
X42410000Y-51041600D02*
X41996000Y-51041600D01*
X44554000Y-51081600D02*
X44090000Y-51081600D01*
X42410000Y-51081600D02*
X41946000Y-51081600D01*
X44601000Y-51121600D02*
X44090000Y-51121600D01*
X42410000Y-51121600D02*
X41899000Y-51121600D01*
X44646000Y-51161600D02*
X44090000Y-51161600D01*
X42410000Y-51161600D02*
X41854000Y-51161600D01*
X44688000Y-51201600D02*
X44090000Y-51201600D01*
X42410000Y-51201600D02*
X41812000Y-51201600D01*
X44728000Y-51241600D02*
X44090000Y-51241600D01*
X42410000Y-51241600D02*
X41772000Y-51241600D01*
X44766000Y-51281600D02*
X44090000Y-51281600D01*
X42410000Y-51281600D02*
X41734000Y-51281600D01*
X44802000Y-51321600D02*
X44090000Y-51321600D01*
X42410000Y-51321600D02*
X41698000Y-51321600D01*
X44837000Y-51361600D02*
X44090000Y-51361600D01*
X42410000Y-51361600D02*
X41663000Y-51361600D01*
X44869000Y-51401600D02*
X44090000Y-51401600D01*
X42410000Y-51401600D02*
X41631000Y-51401600D01*
X44900000Y-51441600D02*
X44090000Y-51441600D01*
X42410000Y-51441600D02*
X41600000Y-51441600D01*
X44930000Y-51481600D02*
X44090000Y-51481600D01*
X42410000Y-51481600D02*
X41570000Y-51481600D01*
X44958000Y-51521600D02*
X44090000Y-51521600D01*
X42410000Y-51521600D02*
X41542000Y-51521600D01*
X44985000Y-51561600D02*
X44090000Y-51561600D01*
X42410000Y-51561600D02*
X41515000Y-51561600D01*
X45010000Y-51601600D02*
X44090000Y-51601600D01*
X42410000Y-51601600D02*
X41490000Y-51601600D01*
X45035000Y-51641600D02*
X44090000Y-51641600D01*
X42410000Y-51641600D02*
X41465000Y-51641600D01*
X45058000Y-51681600D02*
X44090000Y-51681600D01*
X42410000Y-51681600D02*
X41442000Y-51681600D01*
X45080000Y-51721600D02*
X44090000Y-51721600D01*
X42410000Y-51721600D02*
X41420000Y-51721600D01*
X45101000Y-51761600D02*
X44090000Y-51761600D01*
X42410000Y-51761600D02*
X41399000Y-51761600D01*
X45120000Y-51801600D02*
X44090000Y-51801600D01*
X42410000Y-51801600D02*
X41380000Y-51801600D01*
X45139000Y-51841600D02*
X44090000Y-51841600D01*
X42410000Y-51841600D02*
X41361000Y-51841600D01*
X45157000Y-51881600D02*
X44090000Y-51881600D01*
X42410000Y-51881600D02*
X41343000Y-51881600D01*
X45174000Y-51921600D02*
X44090000Y-51921600D01*
X42410000Y-51921600D02*
X41326000Y-51921600D01*
X45190000Y-51961600D02*
X44090000Y-51961600D01*
X42410000Y-51961600D02*
X41310000Y-51961600D01*
X45204000Y-52001600D02*
X44090000Y-52001600D01*
X42410000Y-52001600D02*
X41296000Y-52001600D01*
X45218000Y-52042600D02*
X44090000Y-52042600D01*
X42410000Y-52042600D02*
X41282000Y-52042600D01*
X45232000Y-52082600D02*
X44090000Y-52082600D01*
X42410000Y-52082600D02*
X41268000Y-52082600D01*
X45244000Y-52122600D02*
X44090000Y-52122600D01*
X42410000Y-52122600D02*
X41256000Y-52122600D01*
X45255000Y-52162600D02*
X44090000Y-52162600D01*
X42410000Y-52162600D02*
X41245000Y-52162600D01*
X45266000Y-52202600D02*
X44090000Y-52202600D01*
X42410000Y-52202600D02*
X41234000Y-52202600D01*
X45275000Y-52242600D02*
X44090000Y-52242600D01*
X42410000Y-52242600D02*
X41225000Y-52242600D01*
X45284000Y-52282600D02*
X44090000Y-52282600D01*
X42410000Y-52282600D02*
X41216000Y-52282600D01*
X45292000Y-52322600D02*
X44090000Y-52322600D01*
X42410000Y-52322600D02*
X41208000Y-52322600D01*
X45300000Y-52362600D02*
X44090000Y-52362600D01*
X42410000Y-52362600D02*
X41200000Y-52362600D01*
X45306000Y-52402600D02*
X44090000Y-52402600D01*
X42410000Y-52402600D02*
X41194000Y-52402600D01*
X45312000Y-52442600D02*
X44090000Y-52442600D01*
X42410000Y-52442600D02*
X41188000Y-52442600D01*
X45317000Y-52482600D02*
X44090000Y-52482600D01*
X42410000Y-52482600D02*
X41183000Y-52482600D01*
X45321000Y-52522600D02*
X44090000Y-52522600D01*
X42410000Y-52522600D02*
X41179000Y-52522600D01*
X45324000Y-52562600D02*
X41176000Y-52562600D01*
X45327000Y-52602600D02*
X41173000Y-52602600D01*
X45329000Y-52642600D02*
X41171000Y-52642600D01*
X45330000Y-52682600D02*
X41170000Y-52682600D01*
X45330000Y-52722600D02*
X41170000Y-52722600D01*
X44645000Y-54792401D02*
X44245000Y-54792401D01*
X44445000Y-54992401D02*
X44445000Y-54592401D01*
X37620000Y-119825000D02*
G75*
G03*
X33380000Y-119825000I-2120000J0D01*
G01*
X33380000Y-119825000D02*
G75*
G03*
X37620000Y-119825000I2120000J0D01*
G01*
X33419000Y-119455000D02*
X33419000Y-120195000D01*
X33459000Y-119288000D02*
X33459000Y-120362000D01*
X33499000Y-119161000D02*
X33499000Y-120489000D01*
X33539000Y-119057000D02*
X33539000Y-120593000D01*
X33579000Y-118966000D02*
X33579000Y-120684000D01*
X33619000Y-118885000D02*
X33619000Y-120765000D01*
X33659000Y-118812000D02*
X33659000Y-120838000D01*
X33699000Y-118745000D02*
X33699000Y-118985000D01*
X33699000Y-120665000D02*
X33699000Y-120905000D01*
X33739000Y-118683000D02*
X33739000Y-118985000D01*
X33739000Y-120665000D02*
X33739000Y-120967000D01*
X33779000Y-118625000D02*
X33779000Y-118985000D01*
X33779000Y-120665000D02*
X33779000Y-121025000D01*
X33819000Y-118571000D02*
X33819000Y-118985000D01*
X33819000Y-120665000D02*
X33819000Y-121079000D01*
X33859000Y-118521000D02*
X33859000Y-118985000D01*
X33859000Y-120665000D02*
X33859000Y-121129000D01*
X33899000Y-118474000D02*
X33899000Y-118985000D01*
X33899000Y-120665000D02*
X33899000Y-121176000D01*
X33939000Y-118429000D02*
X33939000Y-118985000D01*
X33939000Y-120665000D02*
X33939000Y-121221000D01*
X33979000Y-118387000D02*
X33979000Y-118985000D01*
X33979000Y-120665000D02*
X33979000Y-121263000D01*
X34019000Y-118347000D02*
X34019000Y-118985000D01*
X34019000Y-120665000D02*
X34019000Y-121303000D01*
X34059000Y-118309000D02*
X34059000Y-118985000D01*
X34059000Y-120665000D02*
X34059000Y-121341000D01*
X34099000Y-118273000D02*
X34099000Y-118985000D01*
X34099000Y-120665000D02*
X34099000Y-121377000D01*
X34139000Y-118238000D02*
X34139000Y-118985000D01*
X34139000Y-120665000D02*
X34139000Y-121412000D01*
X34179000Y-118206000D02*
X34179000Y-118985000D01*
X34179000Y-120665000D02*
X34179000Y-121444000D01*
X34219000Y-118175000D02*
X34219000Y-118985000D01*
X34219000Y-120665000D02*
X34219000Y-121475000D01*
X34259000Y-118145000D02*
X34259000Y-118985000D01*
X34259000Y-120665000D02*
X34259000Y-121505000D01*
X34299000Y-118117000D02*
X34299000Y-118985000D01*
X34299000Y-120665000D02*
X34299000Y-121533000D01*
X34339000Y-118090000D02*
X34339000Y-118985000D01*
X34339000Y-120665000D02*
X34339000Y-121560000D01*
X34379000Y-118065000D02*
X34379000Y-118985000D01*
X34379000Y-120665000D02*
X34379000Y-121585000D01*
X34419000Y-118040000D02*
X34419000Y-118985000D01*
X34419000Y-120665000D02*
X34419000Y-121610000D01*
X34459000Y-118017000D02*
X34459000Y-118985000D01*
X34459000Y-120665000D02*
X34459000Y-121633000D01*
X34499000Y-117995000D02*
X34499000Y-118985000D01*
X34499000Y-120665000D02*
X34499000Y-121655000D01*
X34539000Y-117974000D02*
X34539000Y-118985000D01*
X34539000Y-120665000D02*
X34539000Y-121676000D01*
X34579000Y-117955000D02*
X34579000Y-118985000D01*
X34579000Y-120665000D02*
X34579000Y-121695000D01*
X34619000Y-117936000D02*
X34619000Y-118985000D01*
X34619000Y-120665000D02*
X34619000Y-121714000D01*
X34659000Y-117918000D02*
X34659000Y-118985000D01*
X34659000Y-120665000D02*
X34659000Y-121732000D01*
X34699000Y-117901000D02*
X34699000Y-118985000D01*
X34699000Y-120665000D02*
X34699000Y-121749000D01*
X34739000Y-117885000D02*
X34739000Y-118985000D01*
X34739000Y-120665000D02*
X34739000Y-121765000D01*
X34779000Y-117871000D02*
X34779000Y-118985000D01*
X34779000Y-120665000D02*
X34779000Y-121779000D01*
X34820000Y-117857000D02*
X34820000Y-118985000D01*
X34820000Y-120665000D02*
X34820000Y-121793000D01*
X34860000Y-117843000D02*
X34860000Y-118985000D01*
X34860000Y-120665000D02*
X34860000Y-121807000D01*
X34900000Y-117831000D02*
X34900000Y-118985000D01*
X34900000Y-120665000D02*
X34900000Y-121819000D01*
X34940000Y-117820000D02*
X34940000Y-118985000D01*
X34940000Y-120665000D02*
X34940000Y-121830000D01*
X34980000Y-117809000D02*
X34980000Y-118985000D01*
X34980000Y-120665000D02*
X34980000Y-121841000D01*
X35020000Y-117800000D02*
X35020000Y-118985000D01*
X35020000Y-120665000D02*
X35020000Y-121850000D01*
X35060000Y-117791000D02*
X35060000Y-118985000D01*
X35060000Y-120665000D02*
X35060000Y-121859000D01*
X35100000Y-117783000D02*
X35100000Y-118985000D01*
X35100000Y-120665000D02*
X35100000Y-121867000D01*
X35140000Y-117775000D02*
X35140000Y-118985000D01*
X35140000Y-120665000D02*
X35140000Y-121875000D01*
X35180000Y-117769000D02*
X35180000Y-118985000D01*
X35180000Y-120665000D02*
X35180000Y-121881000D01*
X35220000Y-117763000D02*
X35220000Y-118985000D01*
X35220000Y-120665000D02*
X35220000Y-121887000D01*
X35260000Y-117758000D02*
X35260000Y-118985000D01*
X35260000Y-120665000D02*
X35260000Y-121892000D01*
X35300000Y-117754000D02*
X35300000Y-118985000D01*
X35300000Y-120665000D02*
X35300000Y-121896000D01*
X35340000Y-117751000D02*
X35340000Y-121899000D01*
X35380000Y-117748000D02*
X35380000Y-121902000D01*
X35420000Y-117746000D02*
X35420000Y-121904000D01*
X35460000Y-117745000D02*
X35460000Y-121905000D01*
X35500000Y-117745000D02*
X35500000Y-121905000D01*
X37569801Y-118430000D02*
X37569801Y-118830000D01*
X37769801Y-118630000D02*
X37369801Y-118630000D01*
X45370000Y-36072600D02*
G75*
G03*
X41130000Y-36072600I-2120000J0D01*
G01*
X41130000Y-36072600D02*
G75*
G03*
X45370000Y-36072600I2120000J0D01*
G01*
X43620000Y-33991600D02*
X42880000Y-33991600D01*
X43787000Y-34031600D02*
X42713000Y-34031600D01*
X43914000Y-34071600D02*
X42586000Y-34071600D01*
X44018000Y-34111600D02*
X42482000Y-34111600D01*
X44109000Y-34151600D02*
X42391000Y-34151600D01*
X44190000Y-34191600D02*
X42310000Y-34191600D01*
X44263000Y-34231600D02*
X42237000Y-34231600D01*
X44330000Y-34271600D02*
X44090000Y-34271600D01*
X42410000Y-34271600D02*
X42170000Y-34271600D01*
X44392000Y-34311600D02*
X44090000Y-34311600D01*
X42410000Y-34311600D02*
X42108000Y-34311600D01*
X44450000Y-34351600D02*
X44090000Y-34351600D01*
X42410000Y-34351600D02*
X42050000Y-34351600D01*
X44504000Y-34391600D02*
X44090000Y-34391600D01*
X42410000Y-34391600D02*
X41996000Y-34391600D01*
X44554000Y-34431600D02*
X44090000Y-34431600D01*
X42410000Y-34431600D02*
X41946000Y-34431600D01*
X44601000Y-34471600D02*
X44090000Y-34471600D01*
X42410000Y-34471600D02*
X41899000Y-34471600D01*
X44646000Y-34511600D02*
X44090000Y-34511600D01*
X42410000Y-34511600D02*
X41854000Y-34511600D01*
X44688000Y-34551600D02*
X44090000Y-34551600D01*
X42410000Y-34551600D02*
X41812000Y-34551600D01*
X44728000Y-34591600D02*
X44090000Y-34591600D01*
X42410000Y-34591600D02*
X41772000Y-34591600D01*
X44766000Y-34631600D02*
X44090000Y-34631600D01*
X42410000Y-34631600D02*
X41734000Y-34631600D01*
X44802000Y-34671600D02*
X44090000Y-34671600D01*
X42410000Y-34671600D02*
X41698000Y-34671600D01*
X44837000Y-34711600D02*
X44090000Y-34711600D01*
X42410000Y-34711600D02*
X41663000Y-34711600D01*
X44869000Y-34751600D02*
X44090000Y-34751600D01*
X42410000Y-34751600D02*
X41631000Y-34751600D01*
X44900000Y-34791600D02*
X44090000Y-34791600D01*
X42410000Y-34791600D02*
X41600000Y-34791600D01*
X44930000Y-34831600D02*
X44090000Y-34831600D01*
X42410000Y-34831600D02*
X41570000Y-34831600D01*
X44958000Y-34871600D02*
X44090000Y-34871600D01*
X42410000Y-34871600D02*
X41542000Y-34871600D01*
X44985000Y-34911600D02*
X44090000Y-34911600D01*
X42410000Y-34911600D02*
X41515000Y-34911600D01*
X45010000Y-34951600D02*
X44090000Y-34951600D01*
X42410000Y-34951600D02*
X41490000Y-34951600D01*
X45035000Y-34991600D02*
X44090000Y-34991600D01*
X42410000Y-34991600D02*
X41465000Y-34991600D01*
X45058000Y-35031600D02*
X44090000Y-35031600D01*
X42410000Y-35031600D02*
X41442000Y-35031600D01*
X45080000Y-35071600D02*
X44090000Y-35071600D01*
X42410000Y-35071600D02*
X41420000Y-35071600D01*
X45101000Y-35111600D02*
X44090000Y-35111600D01*
X42410000Y-35111600D02*
X41399000Y-35111600D01*
X45120000Y-35151600D02*
X44090000Y-35151600D01*
X42410000Y-35151600D02*
X41380000Y-35151600D01*
X45139000Y-35191600D02*
X44090000Y-35191600D01*
X42410000Y-35191600D02*
X41361000Y-35191600D01*
X45157000Y-35231600D02*
X44090000Y-35231600D01*
X42410000Y-35231600D02*
X41343000Y-35231600D01*
X45174000Y-35271600D02*
X44090000Y-35271600D01*
X42410000Y-35271600D02*
X41326000Y-35271600D01*
X45190000Y-35311600D02*
X44090000Y-35311600D01*
X42410000Y-35311600D02*
X41310000Y-35311600D01*
X45204000Y-35351600D02*
X44090000Y-35351600D01*
X42410000Y-35351600D02*
X41296000Y-35351600D01*
X45218000Y-35392600D02*
X44090000Y-35392600D01*
X42410000Y-35392600D02*
X41282000Y-35392600D01*
X45232000Y-35432600D02*
X44090000Y-35432600D01*
X42410000Y-35432600D02*
X41268000Y-35432600D01*
X45244000Y-35472600D02*
X44090000Y-35472600D01*
X42410000Y-35472600D02*
X41256000Y-35472600D01*
X45255000Y-35512600D02*
X44090000Y-35512600D01*
X42410000Y-35512600D02*
X41245000Y-35512600D01*
X45266000Y-35552600D02*
X44090000Y-35552600D01*
X42410000Y-35552600D02*
X41234000Y-35552600D01*
X45275000Y-35592600D02*
X44090000Y-35592600D01*
X42410000Y-35592600D02*
X41225000Y-35592600D01*
X45284000Y-35632600D02*
X44090000Y-35632600D01*
X42410000Y-35632600D02*
X41216000Y-35632600D01*
X45292000Y-35672600D02*
X44090000Y-35672600D01*
X42410000Y-35672600D02*
X41208000Y-35672600D01*
X45300000Y-35712600D02*
X44090000Y-35712600D01*
X42410000Y-35712600D02*
X41200000Y-35712600D01*
X45306000Y-35752600D02*
X44090000Y-35752600D01*
X42410000Y-35752600D02*
X41194000Y-35752600D01*
X45312000Y-35792600D02*
X44090000Y-35792600D01*
X42410000Y-35792600D02*
X41188000Y-35792600D01*
X45317000Y-35832600D02*
X44090000Y-35832600D01*
X42410000Y-35832600D02*
X41183000Y-35832600D01*
X45321000Y-35872600D02*
X44090000Y-35872600D01*
X42410000Y-35872600D02*
X41179000Y-35872600D01*
X45324000Y-35912600D02*
X41176000Y-35912600D01*
X45327000Y-35952600D02*
X41173000Y-35952600D01*
X45329000Y-35992600D02*
X41171000Y-35992600D01*
X45330000Y-36032600D02*
X41170000Y-36032600D01*
X45330000Y-36072600D02*
X41170000Y-36072600D01*
X44645000Y-38142401D02*
X44245000Y-38142401D01*
X44445000Y-38342401D02*
X44445000Y-37942401D01*
X58520000Y-138300000D02*
G75*
G03*
X54280000Y-138300000I-2120000J0D01*
G01*
X54280000Y-138300000D02*
G75*
G03*
X58520000Y-138300000I2120000J0D01*
G01*
X54319000Y-137930000D02*
X54319000Y-138670000D01*
X54359000Y-137763000D02*
X54359000Y-138837000D01*
X54399000Y-137636000D02*
X54399000Y-138964000D01*
X54439000Y-137532000D02*
X54439000Y-139068000D01*
X54479000Y-137441000D02*
X54479000Y-139159000D01*
X54519000Y-137360000D02*
X54519000Y-139240000D01*
X54559000Y-137287000D02*
X54559000Y-139313000D01*
X54599000Y-137220000D02*
X54599000Y-137460000D01*
X54599000Y-139140000D02*
X54599000Y-139380000D01*
X54639000Y-137158000D02*
X54639000Y-137460000D01*
X54639000Y-139140000D02*
X54639000Y-139442000D01*
X54679000Y-137100000D02*
X54679000Y-137460000D01*
X54679000Y-139140000D02*
X54679000Y-139500000D01*
X54719000Y-137046000D02*
X54719000Y-137460000D01*
X54719000Y-139140000D02*
X54719000Y-139554000D01*
X54759000Y-136996000D02*
X54759000Y-137460000D01*
X54759000Y-139140000D02*
X54759000Y-139604000D01*
X54799000Y-136949000D02*
X54799000Y-137460000D01*
X54799000Y-139140000D02*
X54799000Y-139651000D01*
X54839000Y-136904000D02*
X54839000Y-137460000D01*
X54839000Y-139140000D02*
X54839000Y-139696000D01*
X54879000Y-136862000D02*
X54879000Y-137460000D01*
X54879000Y-139140000D02*
X54879000Y-139738000D01*
X54919000Y-136822000D02*
X54919000Y-137460000D01*
X54919000Y-139140000D02*
X54919000Y-139778000D01*
X54959000Y-136784000D02*
X54959000Y-137460000D01*
X54959000Y-139140000D02*
X54959000Y-139816000D01*
X54999000Y-136748000D02*
X54999000Y-137460000D01*
X54999000Y-139140000D02*
X54999000Y-139852000D01*
X55039000Y-136713000D02*
X55039000Y-137460000D01*
X55039000Y-139140000D02*
X55039000Y-139887000D01*
X55079000Y-136681000D02*
X55079000Y-137460000D01*
X55079000Y-139140000D02*
X55079000Y-139919000D01*
X55119000Y-136650000D02*
X55119000Y-137460000D01*
X55119000Y-139140000D02*
X55119000Y-139950000D01*
X55159000Y-136620000D02*
X55159000Y-137460000D01*
X55159000Y-139140000D02*
X55159000Y-139980000D01*
X55199000Y-136592000D02*
X55199000Y-137460000D01*
X55199000Y-139140000D02*
X55199000Y-140008000D01*
X55239000Y-136565000D02*
X55239000Y-137460000D01*
X55239000Y-139140000D02*
X55239000Y-140035000D01*
X55279000Y-136540000D02*
X55279000Y-137460000D01*
X55279000Y-139140000D02*
X55279000Y-140060000D01*
X55319000Y-136515000D02*
X55319000Y-137460000D01*
X55319000Y-139140000D02*
X55319000Y-140085000D01*
X55359000Y-136492000D02*
X55359000Y-137460000D01*
X55359000Y-139140000D02*
X55359000Y-140108000D01*
X55399000Y-136470000D02*
X55399000Y-137460000D01*
X55399000Y-139140000D02*
X55399000Y-140130000D01*
X55439000Y-136449000D02*
X55439000Y-137460000D01*
X55439000Y-139140000D02*
X55439000Y-140151000D01*
X55479000Y-136430000D02*
X55479000Y-137460000D01*
X55479000Y-139140000D02*
X55479000Y-140170000D01*
X55519000Y-136411000D02*
X55519000Y-137460000D01*
X55519000Y-139140000D02*
X55519000Y-140189000D01*
X55559000Y-136393000D02*
X55559000Y-137460000D01*
X55559000Y-139140000D02*
X55559000Y-140207000D01*
X55599000Y-136376000D02*
X55599000Y-137460000D01*
X55599000Y-139140000D02*
X55599000Y-140224000D01*
X55639000Y-136360000D02*
X55639000Y-137460000D01*
X55639000Y-139140000D02*
X55639000Y-140240000D01*
X55679000Y-136346000D02*
X55679000Y-137460000D01*
X55679000Y-139140000D02*
X55679000Y-140254000D01*
X55720000Y-136332000D02*
X55720000Y-137460000D01*
X55720000Y-139140000D02*
X55720000Y-140268000D01*
X55760000Y-136318000D02*
X55760000Y-137460000D01*
X55760000Y-139140000D02*
X55760000Y-140282000D01*
X55800000Y-136306000D02*
X55800000Y-137460000D01*
X55800000Y-139140000D02*
X55800000Y-140294000D01*
X55840000Y-136295000D02*
X55840000Y-137460000D01*
X55840000Y-139140000D02*
X55840000Y-140305000D01*
X55880000Y-136284000D02*
X55880000Y-137460000D01*
X55880000Y-139140000D02*
X55880000Y-140316000D01*
X55920000Y-136275000D02*
X55920000Y-137460000D01*
X55920000Y-139140000D02*
X55920000Y-140325000D01*
X55960000Y-136266000D02*
X55960000Y-137460000D01*
X55960000Y-139140000D02*
X55960000Y-140334000D01*
X56000000Y-136258000D02*
X56000000Y-137460000D01*
X56000000Y-139140000D02*
X56000000Y-140342000D01*
X56040000Y-136250000D02*
X56040000Y-137460000D01*
X56040000Y-139140000D02*
X56040000Y-140350000D01*
X56080000Y-136244000D02*
X56080000Y-137460000D01*
X56080000Y-139140000D02*
X56080000Y-140356000D01*
X56120000Y-136238000D02*
X56120000Y-137460000D01*
X56120000Y-139140000D02*
X56120000Y-140362000D01*
X56160000Y-136233000D02*
X56160000Y-137460000D01*
X56160000Y-139140000D02*
X56160000Y-140367000D01*
X56200000Y-136229000D02*
X56200000Y-137460000D01*
X56200000Y-139140000D02*
X56200000Y-140371000D01*
X56240000Y-136226000D02*
X56240000Y-140374000D01*
X56280000Y-136223000D02*
X56280000Y-140377000D01*
X56320000Y-136221000D02*
X56320000Y-140379000D01*
X56360000Y-136220000D02*
X56360000Y-140380000D01*
X56400000Y-136220000D02*
X56400000Y-140380000D01*
X58469801Y-136905000D02*
X58469801Y-137305000D01*
X58669801Y-137105000D02*
X58269801Y-137105000D01*
%LPC*%
D14*
X31800000Y-121900000D03*
X60000000Y-45000000D03*
D15*
X84000000Y-67000000D03*
D16*
X50220000Y-40000000D03*
X52760000Y-40000000D03*
X55300000Y-40000000D03*
X57840000Y-40000000D03*
X60380000Y-40000000D03*
X62920000Y-40000000D03*
X65460000Y-40000000D03*
D17*
X68000000Y-40000000D03*
D18*
X41840000Y-31750000D03*
D19*
X52000000Y-31750000D03*
D18*
X52080000Y-57500000D03*
D19*
X41920000Y-57500000D03*
D20*
X88200000Y-46920000D03*
D21*
X88200000Y-57080000D03*
D20*
X57250000Y-35500000D03*
D21*
X47090000Y-35500000D03*
D15*
X50150000Y-137000000D03*
D20*
X100000000Y-74340000D03*
D21*
X100000000Y-84500000D03*
D22*
X48340000Y-79710000D03*
X46270000Y-80980000D03*
D23*
X48340000Y-82250000D03*
D20*
X91400000Y-59400000D03*
D21*
X91400000Y-64480000D03*
D24*
X92575000Y-44000000D03*
X90075000Y-44000000D03*
D25*
X87575000Y-44000000D03*
D26*
X94825000Y-36500000D03*
X85325000Y-36500000D03*
D24*
X112750000Y-85000000D03*
X110250000Y-85000000D03*
D25*
X107750000Y-85000000D03*
D26*
X115000000Y-77500000D03*
X105500000Y-77500000D03*
D24*
X102650000Y-100000000D03*
X100150000Y-100000000D03*
D25*
X97650000Y-100000000D03*
D26*
X104900000Y-92500000D03*
X95400000Y-92500000D03*
D16*
X68000000Y-107780000D03*
X68000000Y-105240000D03*
X68000000Y-102700000D03*
X68000000Y-100160000D03*
X68000000Y-97620000D03*
X68000000Y-95080000D03*
X68000000Y-92540000D03*
D17*
X68000000Y-90000000D03*
D20*
X97800000Y-59400000D03*
D21*
X97800000Y-64480000D03*
D27*
X100150000Y-115100000D03*
X100150000Y-123400000D03*
D28*
X100150000Y-112000000D03*
D14*
X51000000Y-45000000D03*
D29*
X51830000Y-82270000D03*
X53900000Y-81000000D03*
D23*
X51830000Y-79730000D03*
D30*
X47820000Y-112125000D03*
X47820000Y-114665000D03*
X47820000Y-117205000D03*
X47820000Y-119745000D03*
X47820000Y-122285000D03*
X47820000Y-124825000D03*
X47820000Y-127365000D03*
X40200000Y-127365000D03*
X40200000Y-124825000D03*
X40200000Y-122285000D03*
X40200000Y-119745000D03*
X40200000Y-117205000D03*
X40200000Y-114665000D03*
D31*
X40200000Y-112125000D03*
D14*
X100000000Y-105000000D03*
D20*
X35500000Y-93920000D03*
D21*
X35500000Y-104080000D03*
D20*
X81500000Y-94200000D03*
D21*
X91660000Y-94200000D03*
D20*
X57160000Y-53500000D03*
D21*
X47000000Y-53500000D03*
D20*
X68150000Y-80850000D03*
D21*
X68150000Y-70690000D03*
X48400000Y-93920000D03*
D20*
X48400000Y-104080000D03*
D15*
X34000000Y-67000000D03*
D14*
X68000000Y-45000000D03*
D20*
X81500000Y-91000000D03*
D21*
X91660000Y-91000000D03*
D15*
X61000000Y-96000000D03*
D20*
X97800000Y-46920000D03*
D21*
X97800000Y-57080000D03*
D20*
X81500000Y-100400000D03*
D21*
X91660000Y-100400000D03*
D15*
X100150000Y-137000000D03*
D20*
X91400000Y-46920000D03*
D21*
X91400000Y-57080000D03*
D24*
X92575000Y-85000000D03*
X90075000Y-85000000D03*
D25*
X87575000Y-85000000D03*
D26*
X94825000Y-77500000D03*
X85325000Y-77500000D03*
D27*
X88750000Y-115100000D03*
X88750000Y-123400000D03*
D28*
X88750000Y-112000000D03*
D20*
X95040000Y-130200000D03*
D21*
X105200000Y-130200000D03*
D20*
X94600000Y-59400000D03*
D21*
X94600000Y-64480000D03*
D15*
X116250000Y-34000000D03*
X111000000Y-96000000D03*
D20*
X41950000Y-93940000D03*
D21*
X41950000Y-104100000D03*
D20*
X61190000Y-117500000D03*
D32*
X68810000Y-117500000D03*
D20*
X101000000Y-46920000D03*
D21*
X101000000Y-57080000D03*
D20*
X81500000Y-97300000D03*
D21*
X91660000Y-97300000D03*
D14*
X48400000Y-76500000D03*
D21*
X63500000Y-120500000D03*
X68500000Y-120500000D03*
D27*
X111500000Y-130100000D03*
X111500000Y-138400000D03*
D28*
X111500000Y-127000000D03*
D27*
X111500000Y-115100000D03*
X111500000Y-123400000D03*
D28*
X111500000Y-112000000D03*
D20*
X95040000Y-127100000D03*
D21*
X105200000Y-127100000D03*
D20*
X101000000Y-59400000D03*
D21*
X101000000Y-64480000D03*
D20*
X38700000Y-93920000D03*
D21*
X38700000Y-104080000D03*
D24*
X112750000Y-60000000D03*
X110250000Y-60000000D03*
D25*
X107750000Y-60000000D03*
D26*
X115000000Y-52500000D03*
X105500000Y-52500000D03*
D15*
X66250000Y-34000000D03*
D20*
X32300000Y-93900000D03*
D21*
X32300000Y-104060000D03*
D20*
X45200000Y-93940000D03*
D21*
X45200000Y-104100000D03*
D20*
X94600000Y-46920000D03*
D21*
X94600000Y-57080000D03*
D30*
X60480000Y-139025000D03*
X60480000Y-136485000D03*
X60480000Y-133945000D03*
X60480000Y-131405000D03*
X60480000Y-128865000D03*
X60480000Y-126325000D03*
X60480000Y-123785000D03*
X68100000Y-123785000D03*
X68100000Y-126325000D03*
X68100000Y-128865000D03*
X68100000Y-131405000D03*
X68100000Y-133945000D03*
X68100000Y-136485000D03*
D31*
X68100000Y-139025000D03*
D14*
X54200000Y-93800000D03*
D27*
X88750000Y-130100000D03*
X88750000Y-138400000D03*
D28*
X88750000Y-127000000D03*
D21*
X43250000Y-42500000D03*
D32*
X43250000Y-40500000D03*
D33*
X63400000Y-72060000D03*
X63400000Y-74600000D03*
X63400000Y-77140000D03*
D16*
X118000000Y-107780000D03*
X118000000Y-105240000D03*
X118000000Y-102700000D03*
X118000000Y-100160000D03*
X118000000Y-97620000D03*
X118000000Y-95080000D03*
X118000000Y-92540000D03*
D17*
X118000000Y-90000000D03*
D34*
X36500000Y-35800000D03*
X33960000Y-35800000D03*
X36500000Y-38340000D03*
X33960000Y-38340000D03*
X36500000Y-40880000D03*
X33960000Y-40880000D03*
X36500000Y-43420000D03*
X33960000Y-43420000D03*
X36500000Y-45960000D03*
X33960000Y-45960000D03*
X36500000Y-48500000D03*
X33960000Y-48500000D03*
X36500000Y-51040000D03*
X33960000Y-51040000D03*
X36500000Y-53580000D03*
D35*
X33960000Y-53580000D03*
D16*
X100220000Y-40000000D03*
X102760000Y-40000000D03*
X105300000Y-40000000D03*
X107840000Y-40000000D03*
X110380000Y-40000000D03*
X112920000Y-40000000D03*
X115460000Y-40000000D03*
D17*
X118000000Y-40000000D03*
D21*
X33700000Y-111900000D03*
X33700000Y-106900000D03*
X43250000Y-48500000D03*
D32*
X43250000Y-46500000D03*
D36*
X51472600Y-119800000D03*
D37*
X53472600Y-119800000D03*
D36*
X43250000Y-51722600D03*
D37*
X43250000Y-53722600D03*
D36*
X34500000Y-119825000D03*
D37*
X36500000Y-119825000D03*
D36*
X43250000Y-35072600D03*
D37*
X43250000Y-37072600D03*
D36*
X55400000Y-138300000D03*
D37*
X57400000Y-138300000D03*
%LPD*%
M02*
