M48
; DRILL file {KiCad 8.0.5} date 2024-11-24T11:50:25+0100
; FORMAT={-:-/ absolute / metric / decimal}
; #@! TF.CreationDate,2024-11-24T11:50:25+01:00
; #@! TF.GenerationSoftware,Kicad,Pcbnew,8.0.5
; #@! TF.FileFunction,Plated,1,2,PTH
FMAT,2
METRIC
; #@! TA.AperFunction,Plated,PTH,ViaDrill
T1C0.300
; #@! TA.AperFunction,Plated,PTH,ComponentDrill
T2C1.000
%
G90
G05
T1
X61.5Y-54.5
X64.0Y-64.5
X65.5Y-75.3
X67.4Y-78.9
X67.5Y-66.5
X68.5Y-78.0
X72.4Y-85.9
X72.419Y-74.217
X73.087Y-73.777
X73.162Y-82.537
X73.673Y-73.232
X73.961Y-82.575
X74.156Y-72.594
X74.944Y-72.458
X75.438Y-70.6
X75.613Y-72.896
X75.957Y-83.408
X76.478Y-82.801
X77.094Y-82.291
X77.2Y-65.2
X77.3Y-89.1
X77.4Y-69.1
X77.68Y-81.684
X79.669Y-70.769
X80.7Y-73.4
X81.076Y-70.4
X81.1Y-72.7
X81.5Y-72.007
X81.65Y-71.15
X82.4Y-69.974
X83.3Y-85.1
X83.308Y-66.2
X83.8Y-70.2
X83.9Y-80.5
X84.852Y-73.485
X85.4Y-76.5
X85.4Y-81.3
X85.6Y-73.2
X86.0Y-65.0
X88.25Y-51.75
T2
X53.0Y-53.543
X53.0Y-56.083
X53.0Y-58.623
X53.0Y-61.163
X53.0Y-63.703
X53.0Y-66.243
X53.0Y-68.783
X53.0Y-71.323
X53.0Y-73.863
X53.0Y-76.403
X53.0Y-78.943
X53.0Y-81.483
X53.0Y-84.023
X53.0Y-86.563
X53.0Y-89.103
X53.0Y-91.643
X56.62Y-97.0
X59.16Y-97.0
X61.7Y-97.0
X64.24Y-97.0
X66.78Y-97.0
X69.32Y-97.0
X71.13Y-54.5
X71.86Y-97.0
X73.67Y-54.5
X74.4Y-97.0
X76.21Y-54.5
X76.94Y-97.0
X78.75Y-54.5
X79.48Y-97.0
X82.02Y-97.0
X84.56Y-97.0
X87.1Y-97.0
X87.2Y-56.245
X87.2Y-58.785
X87.2Y-61.325
X89.64Y-97.0
X92.18Y-97.0
X94.72Y-97.0
X97.0Y-55.0
X97.0Y-57.54
X97.0Y-60.08
X97.0Y-62.62
X97.0Y-65.16
X97.0Y-67.7
X97.0Y-70.24
X97.0Y-72.78
X97.0Y-75.32
X97.0Y-77.86
X97.0Y-80.4
X97.0Y-82.94
X97.0Y-85.48
X97.0Y-88.02
X97.0Y-90.56
X97.0Y-93.1
M30
