G04 #@! TF.GenerationSoftware,KiCad,Pcbnew,8.0.5*
G04 #@! TF.CreationDate,2024-11-24T11:50:23+01:00*
G04 #@! TF.ProjectId,stm32_template,73746d33-325f-4746-956d-706c6174652e,rev?*
G04 #@! TF.SameCoordinates,Original*
G04 #@! TF.FileFunction,Soldermask,Top*
G04 #@! TF.FilePolarity,Negative*
%FSLAX46Y46*%
G04 Gerber Fmt 4.6, Leading zero omitted, Abs format (unit mm)*
G04 Created by KiCad (PCBNEW 8.0.5) date 2024-11-24 11:50:23*
%MOMM*%
%LPD*%
G01*
G04 APERTURE LIST*
G04 Aperture macros list*
%AMRoundRect*
0 Rectangle with rounded corners*
0 $1 Rounding radius*
0 $2 $3 $4 $5 $6 $7 $8 $9 X,Y pos of 4 corners*
0 Add a 4 corners polygon primitive as box body*
4,1,4,$2,$3,$4,$5,$6,$7,$8,$9,$2,$3,0*
0 Add four circle primitives for the rounded corners*
1,1,$1+$1,$2,$3*
1,1,$1+$1,$4,$5*
1,1,$1+$1,$6,$7*
1,1,$1+$1,$8,$9*
0 Add four rect primitives between the rounded corners*
20,1,$1+$1,$2,$3,$4,$5,0*
20,1,$1+$1,$4,$5,$6,$7,0*
20,1,$1+$1,$6,$7,$8,$9,0*
20,1,$1+$1,$8,$9,$2,$3,0*%
G04 Aperture macros list end*
%ADD10RoundRect,0.250000X-0.475000X0.337500X-0.475000X-0.337500X0.475000X-0.337500X0.475000X0.337500X0*%
%ADD11RoundRect,0.250000X-0.337500X-0.475000X0.337500X-0.475000X0.337500X0.475000X-0.337500X0.475000X0*%
%ADD12RoundRect,0.250000X0.337500X0.475000X-0.337500X0.475000X-0.337500X-0.475000X0.337500X-0.475000X0*%
%ADD13R,7.875000X2.000000*%
%ADD14R,1.700000X1.700000*%
%ADD15O,1.700000X1.700000*%
%ADD16RoundRect,0.250000X-0.350000X-0.450000X0.350000X-0.450000X0.350000X0.450000X-0.350000X0.450000X0*%
%ADD17RoundRect,0.250000X-0.275000X-0.350000X0.275000X-0.350000X0.275000X0.350000X-0.275000X0.350000X0*%
%ADD18RoundRect,0.075000X-0.548008X0.441942X0.441942X-0.548008X0.548008X-0.441942X-0.441942X0.548008X0*%
%ADD19RoundRect,0.075000X-0.548008X-0.441942X-0.441942X-0.548008X0.548008X0.441942X0.441942X0.548008X0*%
%ADD20RoundRect,0.250000X0.475000X-0.337500X0.475000X0.337500X-0.475000X0.337500X-0.475000X-0.337500X0*%
G04 APERTURE END LIST*
D10*
X83800000Y-76962500D03*
X83800000Y-79037500D03*
D11*
X65662500Y-64800000D03*
X67737500Y-64800000D03*
D12*
X88250000Y-53250000D03*
X86175000Y-53250000D03*
D11*
X73962500Y-88800000D03*
X76037500Y-88800000D03*
D13*
X80937500Y-59000000D03*
X69062500Y-59000000D03*
D14*
X87200000Y-61325000D03*
D15*
X87200000Y-58785000D03*
X87200000Y-56245000D03*
D14*
X78750000Y-54500000D03*
D15*
X76210000Y-54500000D03*
X73670000Y-54500000D03*
X71130000Y-54500000D03*
D12*
X76037500Y-86800000D03*
X73962500Y-86800000D03*
D11*
X82262500Y-64800000D03*
X84337500Y-64800000D03*
D16*
X92500000Y-52500000D03*
X94500000Y-52500000D03*
X82300000Y-62700000D03*
X84300000Y-62700000D03*
D11*
X73962500Y-69100000D03*
X76037500Y-69100000D03*
X61625000Y-56200000D03*
X63700000Y-56200000D03*
D12*
X63700000Y-62200000D03*
X61625000Y-62200000D03*
D10*
X66200000Y-76962500D03*
X66200000Y-79037500D03*
D17*
X61512500Y-58200000D03*
X63812500Y-58200000D03*
D18*
X73638821Y-71335520D03*
X73285267Y-71689072D03*
X72931714Y-72042627D03*
X72578160Y-72396179D03*
X72224606Y-72749734D03*
X71871054Y-73103287D03*
X71517501Y-73456839D03*
X71163947Y-73810394D03*
X70810394Y-74163947D03*
X70456839Y-74517501D03*
X70103287Y-74871054D03*
X69749734Y-75224606D03*
X69396179Y-75578160D03*
X69042627Y-75931714D03*
X68689072Y-76285267D03*
X68335520Y-76638821D03*
D19*
X68335520Y-79361179D03*
X68689072Y-79714733D03*
X69042627Y-80068286D03*
X69396179Y-80421840D03*
X69749734Y-80775394D03*
X70103287Y-81128946D03*
X70456839Y-81482499D03*
X70810394Y-81836053D03*
X71163947Y-82189606D03*
X71517501Y-82543161D03*
X71871054Y-82896713D03*
X72224606Y-83250266D03*
X72578160Y-83603821D03*
X72931714Y-83957373D03*
X73285267Y-84310928D03*
X73638821Y-84664480D03*
D18*
X76361179Y-84664480D03*
X76714733Y-84310928D03*
X77068286Y-83957373D03*
X77421840Y-83603821D03*
X77775394Y-83250266D03*
X78128946Y-82896713D03*
X78482499Y-82543161D03*
X78836053Y-82189606D03*
X79189606Y-81836053D03*
X79543161Y-81482499D03*
X79896713Y-81128946D03*
X80250266Y-80775394D03*
X80603821Y-80421840D03*
X80957373Y-80068286D03*
X81310928Y-79714733D03*
X81664480Y-79361179D03*
D19*
X81664480Y-76638821D03*
X81310928Y-76285267D03*
X80957373Y-75931714D03*
X80603821Y-75578160D03*
X80250266Y-75224606D03*
X79896713Y-74871054D03*
X79543161Y-74517501D03*
X79189606Y-74163947D03*
X78836053Y-73810394D03*
X78482499Y-73456839D03*
X78128946Y-73103287D03*
X77775394Y-72749734D03*
X77421840Y-72396179D03*
X77068286Y-72042627D03*
X76714733Y-71689072D03*
X76361179Y-71335520D03*
D16*
X65700000Y-62700000D03*
X67700000Y-62700000D03*
D20*
X65800000Y-68837500D03*
X65800000Y-66762500D03*
D12*
X63700000Y-60200000D03*
X61625000Y-60200000D03*
D14*
X56620000Y-97000000D03*
D15*
X59160000Y-97000000D03*
X61700000Y-97000000D03*
X64240000Y-97000000D03*
X66780000Y-97000000D03*
X69320000Y-97000000D03*
X71860000Y-97000000D03*
X74400000Y-97000000D03*
X76940000Y-97000000D03*
X79480000Y-97000000D03*
X82020000Y-97000000D03*
X84560000Y-97000000D03*
X87100000Y-97000000D03*
X89640000Y-97000000D03*
X92180000Y-97000000D03*
X94720000Y-97000000D03*
D14*
X53000000Y-53543161D03*
D15*
X53000000Y-56083161D03*
X53000000Y-58623161D03*
X53000000Y-61163161D03*
X53000000Y-63703161D03*
X53000000Y-66243161D03*
X53000000Y-68783161D03*
X53000000Y-71323161D03*
X53000000Y-73863161D03*
X53000000Y-76403161D03*
X53000000Y-78943161D03*
X53000000Y-81483161D03*
X53000000Y-84023161D03*
X53000000Y-86563161D03*
X53000000Y-89103161D03*
X53000000Y-91643161D03*
D14*
X97000000Y-55000000D03*
D15*
X97000000Y-57540000D03*
X97000000Y-60080000D03*
X97000000Y-62620000D03*
X97000000Y-65160000D03*
X97000000Y-67700000D03*
X97000000Y-70240000D03*
X97000000Y-72780000D03*
X97000000Y-75320000D03*
X97000000Y-77860000D03*
X97000000Y-80400000D03*
X97000000Y-82940000D03*
X97000000Y-85480000D03*
X97000000Y-88020000D03*
X97000000Y-90560000D03*
X97000000Y-93100000D03*
M02*
