G04 #@! TF.GenerationSoftware,KiCad,Pcbnew,8.0.5*
G04 #@! TF.CreationDate,2024-11-24T11:50:23+01:00*
G04 #@! TF.ProjectId,stm32_template,73746d33-325f-4746-956d-706c6174652e,rev?*
G04 #@! TF.SameCoordinates,Original*
G04 #@! TF.FileFunction,Legend,Bot*
G04 #@! TF.FilePolarity,Positive*
%FSLAX46Y46*%
G04 Gerber Fmt 4.6, Leading zero omitted, Abs format (unit mm)*
G04 Created by KiCad (PCBNEW 8.0.5) date 2024-11-24 11:50:23*
%MOMM*%
%LPD*%
G01*
G04 APERTURE LIST*
%ADD10C,0.100000*%
%ADD11C,0.120000*%
%ADD12C,0.000000*%
%ADD13R,1.700000X1.700000*%
%ADD14O,1.700000X1.700000*%
G04 APERTURE END LIST*
D10*
X56758645Y-56457085D02*
X56187217Y-56457085D01*
X56872931Y-56799942D02*
X56472931Y-55599942D01*
X56472931Y-55599942D02*
X56072931Y-56799942D01*
X55044360Y-56799942D02*
X55730074Y-56799942D01*
X55387217Y-56799942D02*
X55387217Y-55599942D01*
X55387217Y-55599942D02*
X55501503Y-55771371D01*
X55501503Y-55771371D02*
X55615788Y-55885657D01*
X55615788Y-55885657D02*
X55730074Y-55942800D01*
X77549942Y-92101503D02*
X76349942Y-92101503D01*
X76349942Y-92101503D02*
X76349942Y-92558646D01*
X76349942Y-92558646D02*
X76407085Y-92672931D01*
X76407085Y-92672931D02*
X76464228Y-92730074D01*
X76464228Y-92730074D02*
X76578514Y-92787217D01*
X76578514Y-92787217D02*
X76749942Y-92787217D01*
X76749942Y-92787217D02*
X76864228Y-92730074D01*
X76864228Y-92730074D02*
X76921371Y-92672931D01*
X76921371Y-92672931D02*
X76978514Y-92558646D01*
X76978514Y-92558646D02*
X76978514Y-92101503D01*
X76921371Y-93701503D02*
X76978514Y-93872931D01*
X76978514Y-93872931D02*
X77035657Y-93930074D01*
X77035657Y-93930074D02*
X77149942Y-93987217D01*
X77149942Y-93987217D02*
X77321371Y-93987217D01*
X77321371Y-93987217D02*
X77435657Y-93930074D01*
X77435657Y-93930074D02*
X77492800Y-93872931D01*
X77492800Y-93872931D02*
X77549942Y-93758646D01*
X77549942Y-93758646D02*
X77549942Y-93301503D01*
X77549942Y-93301503D02*
X76349942Y-93301503D01*
X76349942Y-93301503D02*
X76349942Y-93701503D01*
X76349942Y-93701503D02*
X76407085Y-93815789D01*
X76407085Y-93815789D02*
X76464228Y-93872931D01*
X76464228Y-93872931D02*
X76578514Y-93930074D01*
X76578514Y-93930074D02*
X76692800Y-93930074D01*
X76692800Y-93930074D02*
X76807085Y-93872931D01*
X76807085Y-93872931D02*
X76864228Y-93815789D01*
X76864228Y-93815789D02*
X76921371Y-93701503D01*
X76921371Y-93701503D02*
X76921371Y-93301503D01*
X76864228Y-94672931D02*
X76807085Y-94558646D01*
X76807085Y-94558646D02*
X76749942Y-94501503D01*
X76749942Y-94501503D02*
X76635657Y-94444360D01*
X76635657Y-94444360D02*
X76578514Y-94444360D01*
X76578514Y-94444360D02*
X76464228Y-94501503D01*
X76464228Y-94501503D02*
X76407085Y-94558646D01*
X76407085Y-94558646D02*
X76349942Y-94672931D01*
X76349942Y-94672931D02*
X76349942Y-94901503D01*
X76349942Y-94901503D02*
X76407085Y-95015789D01*
X76407085Y-95015789D02*
X76464228Y-95072931D01*
X76464228Y-95072931D02*
X76578514Y-95130074D01*
X76578514Y-95130074D02*
X76635657Y-95130074D01*
X76635657Y-95130074D02*
X76749942Y-95072931D01*
X76749942Y-95072931D02*
X76807085Y-95015789D01*
X76807085Y-95015789D02*
X76864228Y-94901503D01*
X76864228Y-94901503D02*
X76864228Y-94672931D01*
X76864228Y-94672931D02*
X76921371Y-94558646D01*
X76921371Y-94558646D02*
X76978514Y-94501503D01*
X76978514Y-94501503D02*
X77092800Y-94444360D01*
X77092800Y-94444360D02*
X77321371Y-94444360D01*
X77321371Y-94444360D02*
X77435657Y-94501503D01*
X77435657Y-94501503D02*
X77492800Y-94558646D01*
X77492800Y-94558646D02*
X77549942Y-94672931D01*
X77549942Y-94672931D02*
X77549942Y-94901503D01*
X77549942Y-94901503D02*
X77492800Y-95015789D01*
X77492800Y-95015789D02*
X77435657Y-95072931D01*
X77435657Y-95072931D02*
X77321371Y-95130074D01*
X77321371Y-95130074D02*
X77092800Y-95130074D01*
X77092800Y-95130074D02*
X76978514Y-95072931D01*
X76978514Y-95072931D02*
X76921371Y-95015789D01*
X76921371Y-95015789D02*
X76864228Y-94901503D01*
X57558646Y-88657085D02*
X57672932Y-88599942D01*
X57672932Y-88599942D02*
X57844360Y-88599942D01*
X57844360Y-88599942D02*
X58015789Y-88657085D01*
X58015789Y-88657085D02*
X58130074Y-88771371D01*
X58130074Y-88771371D02*
X58187217Y-88885657D01*
X58187217Y-88885657D02*
X58244360Y-89114228D01*
X58244360Y-89114228D02*
X58244360Y-89285657D01*
X58244360Y-89285657D02*
X58187217Y-89514228D01*
X58187217Y-89514228D02*
X58130074Y-89628514D01*
X58130074Y-89628514D02*
X58015789Y-89742800D01*
X58015789Y-89742800D02*
X57844360Y-89799942D01*
X57844360Y-89799942D02*
X57730074Y-89799942D01*
X57730074Y-89799942D02*
X57558646Y-89742800D01*
X57558646Y-89742800D02*
X57501503Y-89685657D01*
X57501503Y-89685657D02*
X57501503Y-89285657D01*
X57501503Y-89285657D02*
X57730074Y-89285657D01*
X56987217Y-89799942D02*
X56987217Y-88599942D01*
X56987217Y-88599942D02*
X56301503Y-89799942D01*
X56301503Y-89799942D02*
X56301503Y-88599942D01*
X55730074Y-89799942D02*
X55730074Y-88599942D01*
X55730074Y-88599942D02*
X55444360Y-88599942D01*
X55444360Y-88599942D02*
X55272931Y-88657085D01*
X55272931Y-88657085D02*
X55158646Y-88771371D01*
X55158646Y-88771371D02*
X55101503Y-88885657D01*
X55101503Y-88885657D02*
X55044360Y-89114228D01*
X55044360Y-89114228D02*
X55044360Y-89285657D01*
X55044360Y-89285657D02*
X55101503Y-89514228D01*
X55101503Y-89514228D02*
X55158646Y-89628514D01*
X55158646Y-89628514D02*
X55272931Y-89742800D01*
X55272931Y-89742800D02*
X55444360Y-89799942D01*
X55444360Y-89799942D02*
X55730074Y-89799942D01*
X73715789Y-52185657D02*
X73772932Y-52242800D01*
X73772932Y-52242800D02*
X73944360Y-52299942D01*
X73944360Y-52299942D02*
X74058646Y-52299942D01*
X74058646Y-52299942D02*
X74230075Y-52242800D01*
X74230075Y-52242800D02*
X74344360Y-52128514D01*
X74344360Y-52128514D02*
X74401503Y-52014228D01*
X74401503Y-52014228D02*
X74458646Y-51785657D01*
X74458646Y-51785657D02*
X74458646Y-51614228D01*
X74458646Y-51614228D02*
X74401503Y-51385657D01*
X74401503Y-51385657D02*
X74344360Y-51271371D01*
X74344360Y-51271371D02*
X74230075Y-51157085D01*
X74230075Y-51157085D02*
X74058646Y-51099942D01*
X74058646Y-51099942D02*
X73944360Y-51099942D01*
X73944360Y-51099942D02*
X73772932Y-51157085D01*
X73772932Y-51157085D02*
X73715789Y-51214228D01*
X72630075Y-52299942D02*
X73201503Y-52299942D01*
X73201503Y-52299942D02*
X73201503Y-51099942D01*
X72230074Y-52299942D02*
X72230074Y-51099942D01*
X71544360Y-52299942D02*
X72058646Y-51614228D01*
X71544360Y-51099942D02*
X72230074Y-51785657D01*
X62299942Y-92101503D02*
X61099942Y-92101503D01*
X61099942Y-92101503D02*
X61099942Y-92558646D01*
X61099942Y-92558646D02*
X61157085Y-92672931D01*
X61157085Y-92672931D02*
X61214228Y-92730074D01*
X61214228Y-92730074D02*
X61328514Y-92787217D01*
X61328514Y-92787217D02*
X61499942Y-92787217D01*
X61499942Y-92787217D02*
X61614228Y-92730074D01*
X61614228Y-92730074D02*
X61671371Y-92672931D01*
X61671371Y-92672931D02*
X61728514Y-92558646D01*
X61728514Y-92558646D02*
X61728514Y-92101503D01*
X61671371Y-93701503D02*
X61728514Y-93872931D01*
X61728514Y-93872931D02*
X61785657Y-93930074D01*
X61785657Y-93930074D02*
X61899942Y-93987217D01*
X61899942Y-93987217D02*
X62071371Y-93987217D01*
X62071371Y-93987217D02*
X62185657Y-93930074D01*
X62185657Y-93930074D02*
X62242800Y-93872931D01*
X62242800Y-93872931D02*
X62299942Y-93758646D01*
X62299942Y-93758646D02*
X62299942Y-93301503D01*
X62299942Y-93301503D02*
X61099942Y-93301503D01*
X61099942Y-93301503D02*
X61099942Y-93701503D01*
X61099942Y-93701503D02*
X61157085Y-93815789D01*
X61157085Y-93815789D02*
X61214228Y-93872931D01*
X61214228Y-93872931D02*
X61328514Y-93930074D01*
X61328514Y-93930074D02*
X61442800Y-93930074D01*
X61442800Y-93930074D02*
X61557085Y-93872931D01*
X61557085Y-93872931D02*
X61614228Y-93815789D01*
X61614228Y-93815789D02*
X61671371Y-93701503D01*
X61671371Y-93701503D02*
X61671371Y-93301503D01*
X61214228Y-94444360D02*
X61157085Y-94501503D01*
X61157085Y-94501503D02*
X61099942Y-94615789D01*
X61099942Y-94615789D02*
X61099942Y-94901503D01*
X61099942Y-94901503D02*
X61157085Y-95015789D01*
X61157085Y-95015789D02*
X61214228Y-95072931D01*
X61214228Y-95072931D02*
X61328514Y-95130074D01*
X61328514Y-95130074D02*
X61442800Y-95130074D01*
X61442800Y-95130074D02*
X61614228Y-95072931D01*
X61614228Y-95072931D02*
X62299942Y-94387217D01*
X62299942Y-94387217D02*
X62299942Y-95130074D01*
X57901502Y-79207085D02*
X57330074Y-79207085D01*
X58015788Y-79549942D02*
X57615788Y-78349942D01*
X57615788Y-78349942D02*
X57215788Y-79549942D01*
X56187217Y-79549942D02*
X56872931Y-79549942D01*
X56530074Y-79549942D02*
X56530074Y-78349942D01*
X56530074Y-78349942D02*
X56644360Y-78521371D01*
X56644360Y-78521371D02*
X56758645Y-78635657D01*
X56758645Y-78635657D02*
X56872931Y-78692800D01*
X55444360Y-78349942D02*
X55330074Y-78349942D01*
X55330074Y-78349942D02*
X55215788Y-78407085D01*
X55215788Y-78407085D02*
X55158646Y-78464228D01*
X55158646Y-78464228D02*
X55101503Y-78578514D01*
X55101503Y-78578514D02*
X55044360Y-78807085D01*
X55044360Y-78807085D02*
X55044360Y-79092800D01*
X55044360Y-79092800D02*
X55101503Y-79321371D01*
X55101503Y-79321371D02*
X55158646Y-79435657D01*
X55158646Y-79435657D02*
X55215788Y-79492800D01*
X55215788Y-79492800D02*
X55330074Y-79549942D01*
X55330074Y-79549942D02*
X55444360Y-79549942D01*
X55444360Y-79549942D02*
X55558646Y-79492800D01*
X55558646Y-79492800D02*
X55615788Y-79435657D01*
X55615788Y-79435657D02*
X55672931Y-79321371D01*
X55672931Y-79321371D02*
X55730074Y-79092800D01*
X55730074Y-79092800D02*
X55730074Y-78807085D01*
X55730074Y-78807085D02*
X55672931Y-78578514D01*
X55672931Y-78578514D02*
X55615788Y-78464228D01*
X55615788Y-78464228D02*
X55558646Y-78407085D01*
X55558646Y-78407085D02*
X55444360Y-78349942D01*
X64799942Y-92101503D02*
X63599942Y-92101503D01*
X63599942Y-92101503D02*
X63599942Y-92558646D01*
X63599942Y-92558646D02*
X63657085Y-92672931D01*
X63657085Y-92672931D02*
X63714228Y-92730074D01*
X63714228Y-92730074D02*
X63828514Y-92787217D01*
X63828514Y-92787217D02*
X63999942Y-92787217D01*
X63999942Y-92787217D02*
X64114228Y-92730074D01*
X64114228Y-92730074D02*
X64171371Y-92672931D01*
X64171371Y-92672931D02*
X64228514Y-92558646D01*
X64228514Y-92558646D02*
X64228514Y-92101503D01*
X64171371Y-93701503D02*
X64228514Y-93872931D01*
X64228514Y-93872931D02*
X64285657Y-93930074D01*
X64285657Y-93930074D02*
X64399942Y-93987217D01*
X64399942Y-93987217D02*
X64571371Y-93987217D01*
X64571371Y-93987217D02*
X64685657Y-93930074D01*
X64685657Y-93930074D02*
X64742800Y-93872931D01*
X64742800Y-93872931D02*
X64799942Y-93758646D01*
X64799942Y-93758646D02*
X64799942Y-93301503D01*
X64799942Y-93301503D02*
X63599942Y-93301503D01*
X63599942Y-93301503D02*
X63599942Y-93701503D01*
X63599942Y-93701503D02*
X63657085Y-93815789D01*
X63657085Y-93815789D02*
X63714228Y-93872931D01*
X63714228Y-93872931D02*
X63828514Y-93930074D01*
X63828514Y-93930074D02*
X63942800Y-93930074D01*
X63942800Y-93930074D02*
X64057085Y-93872931D01*
X64057085Y-93872931D02*
X64114228Y-93815789D01*
X64114228Y-93815789D02*
X64171371Y-93701503D01*
X64171371Y-93701503D02*
X64171371Y-93301503D01*
X63599942Y-94387217D02*
X63599942Y-95130074D01*
X63599942Y-95130074D02*
X64057085Y-94730074D01*
X64057085Y-94730074D02*
X64057085Y-94901503D01*
X64057085Y-94901503D02*
X64114228Y-95015789D01*
X64114228Y-95015789D02*
X64171371Y-95072931D01*
X64171371Y-95072931D02*
X64285657Y-95130074D01*
X64285657Y-95130074D02*
X64571371Y-95130074D01*
X64571371Y-95130074D02*
X64685657Y-95072931D01*
X64685657Y-95072931D02*
X64742800Y-95015789D01*
X64742800Y-95015789D02*
X64799942Y-94901503D01*
X64799942Y-94901503D02*
X64799942Y-94558646D01*
X64799942Y-94558646D02*
X64742800Y-94444360D01*
X64742800Y-94444360D02*
X64685657Y-94387217D01*
X56758645Y-61457085D02*
X56187217Y-61457085D01*
X56872931Y-61799942D02*
X56472931Y-60599942D01*
X56472931Y-60599942D02*
X56072931Y-61799942D01*
X55787217Y-60599942D02*
X55044360Y-60599942D01*
X55044360Y-60599942D02*
X55444360Y-61057085D01*
X55444360Y-61057085D02*
X55272931Y-61057085D01*
X55272931Y-61057085D02*
X55158646Y-61114228D01*
X55158646Y-61114228D02*
X55101503Y-61171371D01*
X55101503Y-61171371D02*
X55044360Y-61285657D01*
X55044360Y-61285657D02*
X55044360Y-61571371D01*
X55044360Y-61571371D02*
X55101503Y-61685657D01*
X55101503Y-61685657D02*
X55158646Y-61742800D01*
X55158646Y-61742800D02*
X55272931Y-61799942D01*
X55272931Y-61799942D02*
X55615788Y-61799942D01*
X55615788Y-61799942D02*
X55730074Y-61742800D01*
X55730074Y-61742800D02*
X55787217Y-61685657D01*
X94212782Y-80935657D02*
X94269925Y-80992800D01*
X94269925Y-80992800D02*
X94441353Y-81049942D01*
X94441353Y-81049942D02*
X94555639Y-81049942D01*
X94555639Y-81049942D02*
X94727068Y-80992800D01*
X94727068Y-80992800D02*
X94841353Y-80878514D01*
X94841353Y-80878514D02*
X94898496Y-80764228D01*
X94898496Y-80764228D02*
X94955639Y-80535657D01*
X94955639Y-80535657D02*
X94955639Y-80364228D01*
X94955639Y-80364228D02*
X94898496Y-80135657D01*
X94898496Y-80135657D02*
X94841353Y-80021371D01*
X94841353Y-80021371D02*
X94727068Y-79907085D01*
X94727068Y-79907085D02*
X94555639Y-79849942D01*
X94555639Y-79849942D02*
X94441353Y-79849942D01*
X94441353Y-79849942D02*
X94269925Y-79907085D01*
X94269925Y-79907085D02*
X94212782Y-79964228D01*
X93127068Y-79849942D02*
X93698496Y-79849942D01*
X93698496Y-79849942D02*
X93755639Y-80421371D01*
X93755639Y-80421371D02*
X93698496Y-80364228D01*
X93698496Y-80364228D02*
X93584211Y-80307085D01*
X93584211Y-80307085D02*
X93298496Y-80307085D01*
X93298496Y-80307085D02*
X93184211Y-80364228D01*
X93184211Y-80364228D02*
X93127068Y-80421371D01*
X93127068Y-80421371D02*
X93069925Y-80535657D01*
X93069925Y-80535657D02*
X93069925Y-80821371D01*
X93069925Y-80821371D02*
X93127068Y-80935657D01*
X93127068Y-80935657D02*
X93184211Y-80992800D01*
X93184211Y-80992800D02*
X93298496Y-81049942D01*
X93298496Y-81049942D02*
X93584211Y-81049942D01*
X93584211Y-81049942D02*
X93698496Y-80992800D01*
X93698496Y-80992800D02*
X93755639Y-80935657D01*
X94212782Y-57935657D02*
X94269925Y-57992800D01*
X94269925Y-57992800D02*
X94441353Y-58049942D01*
X94441353Y-58049942D02*
X94555639Y-58049942D01*
X94555639Y-58049942D02*
X94727068Y-57992800D01*
X94727068Y-57992800D02*
X94841353Y-57878514D01*
X94841353Y-57878514D02*
X94898496Y-57764228D01*
X94898496Y-57764228D02*
X94955639Y-57535657D01*
X94955639Y-57535657D02*
X94955639Y-57364228D01*
X94955639Y-57364228D02*
X94898496Y-57135657D01*
X94898496Y-57135657D02*
X94841353Y-57021371D01*
X94841353Y-57021371D02*
X94727068Y-56907085D01*
X94727068Y-56907085D02*
X94555639Y-56849942D01*
X94555639Y-56849942D02*
X94441353Y-56849942D01*
X94441353Y-56849942D02*
X94269925Y-56907085D01*
X94269925Y-56907085D02*
X94212782Y-56964228D01*
X93069925Y-58049942D02*
X93755639Y-58049942D01*
X93412782Y-58049942D02*
X93412782Y-56849942D01*
X93412782Y-56849942D02*
X93527068Y-57021371D01*
X93527068Y-57021371D02*
X93641353Y-57135657D01*
X93641353Y-57135657D02*
X93755639Y-57192800D01*
X92041354Y-57249942D02*
X92041354Y-58049942D01*
X92327068Y-56792800D02*
X92612782Y-57649942D01*
X92612782Y-57649942D02*
X91869925Y-57649942D01*
X94212782Y-65685657D02*
X94269925Y-65742800D01*
X94269925Y-65742800D02*
X94441353Y-65799942D01*
X94441353Y-65799942D02*
X94555639Y-65799942D01*
X94555639Y-65799942D02*
X94727068Y-65742800D01*
X94727068Y-65742800D02*
X94841353Y-65628514D01*
X94841353Y-65628514D02*
X94898496Y-65514228D01*
X94898496Y-65514228D02*
X94955639Y-65285657D01*
X94955639Y-65285657D02*
X94955639Y-65114228D01*
X94955639Y-65114228D02*
X94898496Y-64885657D01*
X94898496Y-64885657D02*
X94841353Y-64771371D01*
X94841353Y-64771371D02*
X94727068Y-64657085D01*
X94727068Y-64657085D02*
X94555639Y-64599942D01*
X94555639Y-64599942D02*
X94441353Y-64599942D01*
X94441353Y-64599942D02*
X94269925Y-64657085D01*
X94269925Y-64657085D02*
X94212782Y-64714228D01*
X93069925Y-65799942D02*
X93755639Y-65799942D01*
X93412782Y-65799942D02*
X93412782Y-64599942D01*
X93412782Y-64599942D02*
X93527068Y-64771371D01*
X93527068Y-64771371D02*
X93641353Y-64885657D01*
X93641353Y-64885657D02*
X93755639Y-64942800D01*
X91927068Y-65799942D02*
X92612782Y-65799942D01*
X92269925Y-65799942D02*
X92269925Y-64599942D01*
X92269925Y-64599942D02*
X92384211Y-64771371D01*
X92384211Y-64771371D02*
X92498496Y-64885657D01*
X92498496Y-64885657D02*
X92612782Y-64942800D01*
X80049942Y-92101503D02*
X78849942Y-92101503D01*
X78849942Y-92101503D02*
X78849942Y-92558646D01*
X78849942Y-92558646D02*
X78907085Y-92672931D01*
X78907085Y-92672931D02*
X78964228Y-92730074D01*
X78964228Y-92730074D02*
X79078514Y-92787217D01*
X79078514Y-92787217D02*
X79249942Y-92787217D01*
X79249942Y-92787217D02*
X79364228Y-92730074D01*
X79364228Y-92730074D02*
X79421371Y-92672931D01*
X79421371Y-92672931D02*
X79478514Y-92558646D01*
X79478514Y-92558646D02*
X79478514Y-92101503D01*
X79421371Y-93701503D02*
X79478514Y-93872931D01*
X79478514Y-93872931D02*
X79535657Y-93930074D01*
X79535657Y-93930074D02*
X79649942Y-93987217D01*
X79649942Y-93987217D02*
X79821371Y-93987217D01*
X79821371Y-93987217D02*
X79935657Y-93930074D01*
X79935657Y-93930074D02*
X79992800Y-93872931D01*
X79992800Y-93872931D02*
X80049942Y-93758646D01*
X80049942Y-93758646D02*
X80049942Y-93301503D01*
X80049942Y-93301503D02*
X78849942Y-93301503D01*
X78849942Y-93301503D02*
X78849942Y-93701503D01*
X78849942Y-93701503D02*
X78907085Y-93815789D01*
X78907085Y-93815789D02*
X78964228Y-93872931D01*
X78964228Y-93872931D02*
X79078514Y-93930074D01*
X79078514Y-93930074D02*
X79192800Y-93930074D01*
X79192800Y-93930074D02*
X79307085Y-93872931D01*
X79307085Y-93872931D02*
X79364228Y-93815789D01*
X79364228Y-93815789D02*
X79421371Y-93701503D01*
X79421371Y-93701503D02*
X79421371Y-93301503D01*
X80049942Y-94558646D02*
X80049942Y-94787217D01*
X80049942Y-94787217D02*
X79992800Y-94901503D01*
X79992800Y-94901503D02*
X79935657Y-94958646D01*
X79935657Y-94958646D02*
X79764228Y-95072931D01*
X79764228Y-95072931D02*
X79535657Y-95130074D01*
X79535657Y-95130074D02*
X79078514Y-95130074D01*
X79078514Y-95130074D02*
X78964228Y-95072931D01*
X78964228Y-95072931D02*
X78907085Y-95015789D01*
X78907085Y-95015789D02*
X78849942Y-94901503D01*
X78849942Y-94901503D02*
X78849942Y-94672931D01*
X78849942Y-94672931D02*
X78907085Y-94558646D01*
X78907085Y-94558646D02*
X78964228Y-94501503D01*
X78964228Y-94501503D02*
X79078514Y-94444360D01*
X79078514Y-94444360D02*
X79364228Y-94444360D01*
X79364228Y-94444360D02*
X79478514Y-94501503D01*
X79478514Y-94501503D02*
X79535657Y-94558646D01*
X79535657Y-94558646D02*
X79592800Y-94672931D01*
X79592800Y-94672931D02*
X79592800Y-94901503D01*
X79592800Y-94901503D02*
X79535657Y-95015789D01*
X79535657Y-95015789D02*
X79478514Y-95072931D01*
X79478514Y-95072931D02*
X79364228Y-95130074D01*
X94212782Y-62935657D02*
X94269925Y-62992800D01*
X94269925Y-62992800D02*
X94441353Y-63049942D01*
X94441353Y-63049942D02*
X94555639Y-63049942D01*
X94555639Y-63049942D02*
X94727068Y-62992800D01*
X94727068Y-62992800D02*
X94841353Y-62878514D01*
X94841353Y-62878514D02*
X94898496Y-62764228D01*
X94898496Y-62764228D02*
X94955639Y-62535657D01*
X94955639Y-62535657D02*
X94955639Y-62364228D01*
X94955639Y-62364228D02*
X94898496Y-62135657D01*
X94898496Y-62135657D02*
X94841353Y-62021371D01*
X94841353Y-62021371D02*
X94727068Y-61907085D01*
X94727068Y-61907085D02*
X94555639Y-61849942D01*
X94555639Y-61849942D02*
X94441353Y-61849942D01*
X94441353Y-61849942D02*
X94269925Y-61907085D01*
X94269925Y-61907085D02*
X94212782Y-61964228D01*
X93069925Y-63049942D02*
X93755639Y-63049942D01*
X93412782Y-63049942D02*
X93412782Y-61849942D01*
X93412782Y-61849942D02*
X93527068Y-62021371D01*
X93527068Y-62021371D02*
X93641353Y-62135657D01*
X93641353Y-62135657D02*
X93755639Y-62192800D01*
X92612782Y-61964228D02*
X92555639Y-61907085D01*
X92555639Y-61907085D02*
X92441354Y-61849942D01*
X92441354Y-61849942D02*
X92155639Y-61849942D01*
X92155639Y-61849942D02*
X92041354Y-61907085D01*
X92041354Y-61907085D02*
X91984211Y-61964228D01*
X91984211Y-61964228D02*
X91927068Y-62078514D01*
X91927068Y-62078514D02*
X91927068Y-62192800D01*
X91927068Y-62192800D02*
X91984211Y-62364228D01*
X91984211Y-62364228D02*
X92669925Y-63049942D01*
X92669925Y-63049942D02*
X91927068Y-63049942D01*
X94212782Y-85935657D02*
X94269925Y-85992800D01*
X94269925Y-85992800D02*
X94441353Y-86049942D01*
X94441353Y-86049942D02*
X94555639Y-86049942D01*
X94555639Y-86049942D02*
X94727068Y-85992800D01*
X94727068Y-85992800D02*
X94841353Y-85878514D01*
X94841353Y-85878514D02*
X94898496Y-85764228D01*
X94898496Y-85764228D02*
X94955639Y-85535657D01*
X94955639Y-85535657D02*
X94955639Y-85364228D01*
X94955639Y-85364228D02*
X94898496Y-85135657D01*
X94898496Y-85135657D02*
X94841353Y-85021371D01*
X94841353Y-85021371D02*
X94727068Y-84907085D01*
X94727068Y-84907085D02*
X94555639Y-84849942D01*
X94555639Y-84849942D02*
X94441353Y-84849942D01*
X94441353Y-84849942D02*
X94269925Y-84907085D01*
X94269925Y-84907085D02*
X94212782Y-84964228D01*
X93812782Y-84849942D02*
X93069925Y-84849942D01*
X93069925Y-84849942D02*
X93469925Y-85307085D01*
X93469925Y-85307085D02*
X93298496Y-85307085D01*
X93298496Y-85307085D02*
X93184211Y-85364228D01*
X93184211Y-85364228D02*
X93127068Y-85421371D01*
X93127068Y-85421371D02*
X93069925Y-85535657D01*
X93069925Y-85535657D02*
X93069925Y-85821371D01*
X93069925Y-85821371D02*
X93127068Y-85935657D01*
X93127068Y-85935657D02*
X93184211Y-85992800D01*
X93184211Y-85992800D02*
X93298496Y-86049942D01*
X93298496Y-86049942D02*
X93641353Y-86049942D01*
X93641353Y-86049942D02*
X93755639Y-85992800D01*
X93755639Y-85992800D02*
X93812782Y-85935657D01*
X72549942Y-92101503D02*
X71349942Y-92101503D01*
X71349942Y-92101503D02*
X71349942Y-92558646D01*
X71349942Y-92558646D02*
X71407085Y-92672931D01*
X71407085Y-92672931D02*
X71464228Y-92730074D01*
X71464228Y-92730074D02*
X71578514Y-92787217D01*
X71578514Y-92787217D02*
X71749942Y-92787217D01*
X71749942Y-92787217D02*
X71864228Y-92730074D01*
X71864228Y-92730074D02*
X71921371Y-92672931D01*
X71921371Y-92672931D02*
X71978514Y-92558646D01*
X71978514Y-92558646D02*
X71978514Y-92101503D01*
X71921371Y-93701503D02*
X71978514Y-93872931D01*
X71978514Y-93872931D02*
X72035657Y-93930074D01*
X72035657Y-93930074D02*
X72149942Y-93987217D01*
X72149942Y-93987217D02*
X72321371Y-93987217D01*
X72321371Y-93987217D02*
X72435657Y-93930074D01*
X72435657Y-93930074D02*
X72492800Y-93872931D01*
X72492800Y-93872931D02*
X72549942Y-93758646D01*
X72549942Y-93758646D02*
X72549942Y-93301503D01*
X72549942Y-93301503D02*
X71349942Y-93301503D01*
X71349942Y-93301503D02*
X71349942Y-93701503D01*
X71349942Y-93701503D02*
X71407085Y-93815789D01*
X71407085Y-93815789D02*
X71464228Y-93872931D01*
X71464228Y-93872931D02*
X71578514Y-93930074D01*
X71578514Y-93930074D02*
X71692800Y-93930074D01*
X71692800Y-93930074D02*
X71807085Y-93872931D01*
X71807085Y-93872931D02*
X71864228Y-93815789D01*
X71864228Y-93815789D02*
X71921371Y-93701503D01*
X71921371Y-93701503D02*
X71921371Y-93301503D01*
X71349942Y-95015789D02*
X71349942Y-94787217D01*
X71349942Y-94787217D02*
X71407085Y-94672931D01*
X71407085Y-94672931D02*
X71464228Y-94615789D01*
X71464228Y-94615789D02*
X71635657Y-94501503D01*
X71635657Y-94501503D02*
X71864228Y-94444360D01*
X71864228Y-94444360D02*
X72321371Y-94444360D01*
X72321371Y-94444360D02*
X72435657Y-94501503D01*
X72435657Y-94501503D02*
X72492800Y-94558646D01*
X72492800Y-94558646D02*
X72549942Y-94672931D01*
X72549942Y-94672931D02*
X72549942Y-94901503D01*
X72549942Y-94901503D02*
X72492800Y-95015789D01*
X72492800Y-95015789D02*
X72435657Y-95072931D01*
X72435657Y-95072931D02*
X72321371Y-95130074D01*
X72321371Y-95130074D02*
X72035657Y-95130074D01*
X72035657Y-95130074D02*
X71921371Y-95072931D01*
X71921371Y-95072931D02*
X71864228Y-95015789D01*
X71864228Y-95015789D02*
X71807085Y-94901503D01*
X71807085Y-94901503D02*
X71807085Y-94672931D01*
X71807085Y-94672931D02*
X71864228Y-94558646D01*
X71864228Y-94558646D02*
X71921371Y-94501503D01*
X71921371Y-94501503D02*
X72035657Y-94444360D01*
X81407200Y-56151502D02*
X81407200Y-55237217D01*
X80950057Y-55694359D02*
X81864342Y-55694359D01*
X82150057Y-54780074D02*
X82150057Y-54037217D01*
X82150057Y-54037217D02*
X81692914Y-54437217D01*
X81692914Y-54437217D02*
X81692914Y-54265788D01*
X81692914Y-54265788D02*
X81635771Y-54151503D01*
X81635771Y-54151503D02*
X81578628Y-54094360D01*
X81578628Y-54094360D02*
X81464342Y-54037217D01*
X81464342Y-54037217D02*
X81178628Y-54037217D01*
X81178628Y-54037217D02*
X81064342Y-54094360D01*
X81064342Y-54094360D02*
X81007200Y-54151503D01*
X81007200Y-54151503D02*
X80950057Y-54265788D01*
X80950057Y-54265788D02*
X80950057Y-54608645D01*
X80950057Y-54608645D02*
X81007200Y-54722931D01*
X81007200Y-54722931D02*
X81064342Y-54780074D01*
X81064342Y-53522931D02*
X81007200Y-53465788D01*
X81007200Y-53465788D02*
X80950057Y-53522931D01*
X80950057Y-53522931D02*
X81007200Y-53580074D01*
X81007200Y-53580074D02*
X81064342Y-53522931D01*
X81064342Y-53522931D02*
X80950057Y-53522931D01*
X82150057Y-53065788D02*
X82150057Y-52322931D01*
X82150057Y-52322931D02*
X81692914Y-52722931D01*
X81692914Y-52722931D02*
X81692914Y-52551502D01*
X81692914Y-52551502D02*
X81635771Y-52437217D01*
X81635771Y-52437217D02*
X81578628Y-52380074D01*
X81578628Y-52380074D02*
X81464342Y-52322931D01*
X81464342Y-52322931D02*
X81178628Y-52322931D01*
X81178628Y-52322931D02*
X81064342Y-52380074D01*
X81064342Y-52380074D02*
X81007200Y-52437217D01*
X81007200Y-52437217D02*
X80950057Y-52551502D01*
X80950057Y-52551502D02*
X80950057Y-52894359D01*
X80950057Y-52894359D02*
X81007200Y-53008645D01*
X81007200Y-53008645D02*
X81064342Y-53065788D01*
X82150057Y-51980074D02*
X80950057Y-51580074D01*
X80950057Y-51580074D02*
X82150057Y-51180074D01*
X81921371Y-92501503D02*
X81978514Y-92672931D01*
X81978514Y-92672931D02*
X82035657Y-92730074D01*
X82035657Y-92730074D02*
X82149942Y-92787217D01*
X82149942Y-92787217D02*
X82321371Y-92787217D01*
X82321371Y-92787217D02*
X82435657Y-92730074D01*
X82435657Y-92730074D02*
X82492800Y-92672931D01*
X82492800Y-92672931D02*
X82549942Y-92558646D01*
X82549942Y-92558646D02*
X82549942Y-92101503D01*
X82549942Y-92101503D02*
X81349942Y-92101503D01*
X81349942Y-92101503D02*
X81349942Y-92501503D01*
X81349942Y-92501503D02*
X81407085Y-92615789D01*
X81407085Y-92615789D02*
X81464228Y-92672931D01*
X81464228Y-92672931D02*
X81578514Y-92730074D01*
X81578514Y-92730074D02*
X81692800Y-92730074D01*
X81692800Y-92730074D02*
X81807085Y-92672931D01*
X81807085Y-92672931D02*
X81864228Y-92615789D01*
X81864228Y-92615789D02*
X81921371Y-92501503D01*
X81921371Y-92501503D02*
X81921371Y-92101503D01*
X82549942Y-93930074D02*
X82549942Y-93244360D01*
X82549942Y-93587217D02*
X81349942Y-93587217D01*
X81349942Y-93587217D02*
X81521371Y-93472931D01*
X81521371Y-93472931D02*
X81635657Y-93358646D01*
X81635657Y-93358646D02*
X81692800Y-93244360D01*
X81349942Y-94672931D02*
X81349942Y-94787217D01*
X81349942Y-94787217D02*
X81407085Y-94901503D01*
X81407085Y-94901503D02*
X81464228Y-94958646D01*
X81464228Y-94958646D02*
X81578514Y-95015788D01*
X81578514Y-95015788D02*
X81807085Y-95072931D01*
X81807085Y-95072931D02*
X82092800Y-95072931D01*
X82092800Y-95072931D02*
X82321371Y-95015788D01*
X82321371Y-95015788D02*
X82435657Y-94958646D01*
X82435657Y-94958646D02*
X82492800Y-94901503D01*
X82492800Y-94901503D02*
X82549942Y-94787217D01*
X82549942Y-94787217D02*
X82549942Y-94672931D01*
X82549942Y-94672931D02*
X82492800Y-94558646D01*
X82492800Y-94558646D02*
X82435657Y-94501503D01*
X82435657Y-94501503D02*
X82321371Y-94444360D01*
X82321371Y-94444360D02*
X82092800Y-94387217D01*
X82092800Y-94387217D02*
X81807085Y-94387217D01*
X81807085Y-94387217D02*
X81578514Y-94444360D01*
X81578514Y-94444360D02*
X81464228Y-94501503D01*
X81464228Y-94501503D02*
X81407085Y-94558646D01*
X81407085Y-94558646D02*
X81349942Y-94672931D01*
X94212782Y-73185657D02*
X94269925Y-73242800D01*
X94269925Y-73242800D02*
X94441353Y-73299942D01*
X94441353Y-73299942D02*
X94555639Y-73299942D01*
X94555639Y-73299942D02*
X94727068Y-73242800D01*
X94727068Y-73242800D02*
X94841353Y-73128514D01*
X94841353Y-73128514D02*
X94898496Y-73014228D01*
X94898496Y-73014228D02*
X94955639Y-72785657D01*
X94955639Y-72785657D02*
X94955639Y-72614228D01*
X94955639Y-72614228D02*
X94898496Y-72385657D01*
X94898496Y-72385657D02*
X94841353Y-72271371D01*
X94841353Y-72271371D02*
X94727068Y-72157085D01*
X94727068Y-72157085D02*
X94555639Y-72099942D01*
X94555639Y-72099942D02*
X94441353Y-72099942D01*
X94441353Y-72099942D02*
X94269925Y-72157085D01*
X94269925Y-72157085D02*
X94212782Y-72214228D01*
X93527068Y-72614228D02*
X93641353Y-72557085D01*
X93641353Y-72557085D02*
X93698496Y-72499942D01*
X93698496Y-72499942D02*
X93755639Y-72385657D01*
X93755639Y-72385657D02*
X93755639Y-72328514D01*
X93755639Y-72328514D02*
X93698496Y-72214228D01*
X93698496Y-72214228D02*
X93641353Y-72157085D01*
X93641353Y-72157085D02*
X93527068Y-72099942D01*
X93527068Y-72099942D02*
X93298496Y-72099942D01*
X93298496Y-72099942D02*
X93184211Y-72157085D01*
X93184211Y-72157085D02*
X93127068Y-72214228D01*
X93127068Y-72214228D02*
X93069925Y-72328514D01*
X93069925Y-72328514D02*
X93069925Y-72385657D01*
X93069925Y-72385657D02*
X93127068Y-72499942D01*
X93127068Y-72499942D02*
X93184211Y-72557085D01*
X93184211Y-72557085D02*
X93298496Y-72614228D01*
X93298496Y-72614228D02*
X93527068Y-72614228D01*
X93527068Y-72614228D02*
X93641353Y-72671371D01*
X93641353Y-72671371D02*
X93698496Y-72728514D01*
X93698496Y-72728514D02*
X93755639Y-72842800D01*
X93755639Y-72842800D02*
X93755639Y-73071371D01*
X93755639Y-73071371D02*
X93698496Y-73185657D01*
X93698496Y-73185657D02*
X93641353Y-73242800D01*
X93641353Y-73242800D02*
X93527068Y-73299942D01*
X93527068Y-73299942D02*
X93298496Y-73299942D01*
X93298496Y-73299942D02*
X93184211Y-73242800D01*
X93184211Y-73242800D02*
X93127068Y-73185657D01*
X93127068Y-73185657D02*
X93069925Y-73071371D01*
X93069925Y-73071371D02*
X93069925Y-72842800D01*
X93069925Y-72842800D02*
X93127068Y-72728514D01*
X93127068Y-72728514D02*
X93184211Y-72671371D01*
X93184211Y-72671371D02*
X93298496Y-72614228D01*
X86921371Y-92501503D02*
X86978514Y-92672931D01*
X86978514Y-92672931D02*
X87035657Y-92730074D01*
X87035657Y-92730074D02*
X87149942Y-92787217D01*
X87149942Y-92787217D02*
X87321371Y-92787217D01*
X87321371Y-92787217D02*
X87435657Y-92730074D01*
X87435657Y-92730074D02*
X87492800Y-92672931D01*
X87492800Y-92672931D02*
X87549942Y-92558646D01*
X87549942Y-92558646D02*
X87549942Y-92101503D01*
X87549942Y-92101503D02*
X86349942Y-92101503D01*
X86349942Y-92101503D02*
X86349942Y-92501503D01*
X86349942Y-92501503D02*
X86407085Y-92615789D01*
X86407085Y-92615789D02*
X86464228Y-92672931D01*
X86464228Y-92672931D02*
X86578514Y-92730074D01*
X86578514Y-92730074D02*
X86692800Y-92730074D01*
X86692800Y-92730074D02*
X86807085Y-92672931D01*
X86807085Y-92672931D02*
X86864228Y-92615789D01*
X86864228Y-92615789D02*
X86921371Y-92501503D01*
X86921371Y-92501503D02*
X86921371Y-92101503D01*
X87549942Y-93930074D02*
X87549942Y-93244360D01*
X87549942Y-93587217D02*
X86349942Y-93587217D01*
X86349942Y-93587217D02*
X86521371Y-93472931D01*
X86521371Y-93472931D02*
X86635657Y-93358646D01*
X86635657Y-93358646D02*
X86692800Y-93244360D01*
X86349942Y-94330074D02*
X86349942Y-95072931D01*
X86349942Y-95072931D02*
X86807085Y-94672931D01*
X86807085Y-94672931D02*
X86807085Y-94844360D01*
X86807085Y-94844360D02*
X86864228Y-94958646D01*
X86864228Y-94958646D02*
X86921371Y-95015788D01*
X86921371Y-95015788D02*
X87035657Y-95072931D01*
X87035657Y-95072931D02*
X87321371Y-95072931D01*
X87321371Y-95072931D02*
X87435657Y-95015788D01*
X87435657Y-95015788D02*
X87492800Y-94958646D01*
X87492800Y-94958646D02*
X87549942Y-94844360D01*
X87549942Y-94844360D02*
X87549942Y-94501503D01*
X87549942Y-94501503D02*
X87492800Y-94387217D01*
X87492800Y-94387217D02*
X87435657Y-94330074D01*
X76379449Y-76570980D02*
X76150877Y-76647170D01*
X76150877Y-76647170D02*
X75769925Y-76647170D01*
X75769925Y-76647170D02*
X75617544Y-76570980D01*
X75617544Y-76570980D02*
X75541353Y-76494789D01*
X75541353Y-76494789D02*
X75465163Y-76342408D01*
X75465163Y-76342408D02*
X75465163Y-76190027D01*
X75465163Y-76190027D02*
X75541353Y-76037646D01*
X75541353Y-76037646D02*
X75617544Y-75961456D01*
X75617544Y-75961456D02*
X75769925Y-75885265D01*
X75769925Y-75885265D02*
X76074687Y-75809075D01*
X76074687Y-75809075D02*
X76227068Y-75732884D01*
X76227068Y-75732884D02*
X76303258Y-75656694D01*
X76303258Y-75656694D02*
X76379449Y-75504313D01*
X76379449Y-75504313D02*
X76379449Y-75351932D01*
X76379449Y-75351932D02*
X76303258Y-75199551D01*
X76303258Y-75199551D02*
X76227068Y-75123360D01*
X76227068Y-75123360D02*
X76074687Y-75047170D01*
X76074687Y-75047170D02*
X75693734Y-75047170D01*
X75693734Y-75047170D02*
X75465163Y-75123360D01*
X75008020Y-75047170D02*
X74093734Y-75047170D01*
X74550877Y-76647170D02*
X74550877Y-75047170D01*
X73560400Y-76647170D02*
X73560400Y-75047170D01*
X73560400Y-75047170D02*
X73027067Y-76190027D01*
X73027067Y-76190027D02*
X72493733Y-75047170D01*
X72493733Y-75047170D02*
X72493733Y-76647170D01*
X71884210Y-75047170D02*
X70893734Y-75047170D01*
X70893734Y-75047170D02*
X71427067Y-75656694D01*
X71427067Y-75656694D02*
X71198496Y-75656694D01*
X71198496Y-75656694D02*
X71046115Y-75732884D01*
X71046115Y-75732884D02*
X70969924Y-75809075D01*
X70969924Y-75809075D02*
X70893734Y-75961456D01*
X70893734Y-75961456D02*
X70893734Y-76342408D01*
X70893734Y-76342408D02*
X70969924Y-76494789D01*
X70969924Y-76494789D02*
X71046115Y-76570980D01*
X71046115Y-76570980D02*
X71198496Y-76647170D01*
X71198496Y-76647170D02*
X71655639Y-76647170D01*
X71655639Y-76647170D02*
X71808020Y-76570980D01*
X71808020Y-76570980D02*
X71884210Y-76494789D01*
X70284210Y-75199551D02*
X70208019Y-75123360D01*
X70208019Y-75123360D02*
X70055638Y-75047170D01*
X70055638Y-75047170D02*
X69674686Y-75047170D01*
X69674686Y-75047170D02*
X69522305Y-75123360D01*
X69522305Y-75123360D02*
X69446114Y-75199551D01*
X69446114Y-75199551D02*
X69369924Y-75351932D01*
X69369924Y-75351932D02*
X69369924Y-75504313D01*
X69369924Y-75504313D02*
X69446114Y-75732884D01*
X69446114Y-75732884D02*
X70360400Y-76647170D01*
X70360400Y-76647170D02*
X69369924Y-76647170D01*
X75769925Y-78384985D02*
X76303258Y-78384985D01*
X76303258Y-79223080D02*
X76303258Y-77623080D01*
X76303258Y-77623080D02*
X75541353Y-77623080D01*
X74246115Y-78156413D02*
X74246115Y-79223080D01*
X74627067Y-77546890D02*
X75008020Y-78689747D01*
X75008020Y-78689747D02*
X74017543Y-78689747D01*
X72569924Y-79223080D02*
X73484210Y-79223080D01*
X73027067Y-79223080D02*
X73027067Y-77623080D01*
X73027067Y-77623080D02*
X73179448Y-77851651D01*
X73179448Y-77851651D02*
X73331829Y-78004032D01*
X73331829Y-78004032D02*
X73484210Y-78080223D01*
X71046114Y-79223080D02*
X71960400Y-79223080D01*
X71503257Y-79223080D02*
X71503257Y-77623080D01*
X71503257Y-77623080D02*
X71655638Y-77851651D01*
X71655638Y-77851651D02*
X71808019Y-78004032D01*
X71808019Y-78004032D02*
X71960400Y-78080223D01*
X75388972Y-81798990D02*
X75922306Y-81037085D01*
X76303258Y-81798990D02*
X76303258Y-80198990D01*
X76303258Y-80198990D02*
X75693734Y-80198990D01*
X75693734Y-80198990D02*
X75541353Y-80275180D01*
X75541353Y-80275180D02*
X75465163Y-80351371D01*
X75465163Y-80351371D02*
X75388972Y-80503752D01*
X75388972Y-80503752D02*
X75388972Y-80732323D01*
X75388972Y-80732323D02*
X75465163Y-80884704D01*
X75465163Y-80884704D02*
X75541353Y-80960895D01*
X75541353Y-80960895D02*
X75693734Y-81037085D01*
X75693734Y-81037085D02*
X76303258Y-81037085D01*
X74703258Y-80960895D02*
X74169925Y-80960895D01*
X73941353Y-81798990D02*
X74703258Y-81798990D01*
X74703258Y-81798990D02*
X74703258Y-80198990D01*
X74703258Y-80198990D02*
X73941353Y-80198990D01*
X73484211Y-80198990D02*
X72569925Y-80198990D01*
X73027068Y-81798990D02*
X73027068Y-80198990D01*
X71350877Y-80198990D02*
X71655639Y-80198990D01*
X71655639Y-80198990D02*
X71808020Y-80275180D01*
X71808020Y-80275180D02*
X71884210Y-80351371D01*
X71884210Y-80351371D02*
X72036591Y-80579942D01*
X72036591Y-80579942D02*
X72112782Y-80884704D01*
X72112782Y-80884704D02*
X72112782Y-81494228D01*
X72112782Y-81494228D02*
X72036591Y-81646609D01*
X72036591Y-81646609D02*
X71960401Y-81722800D01*
X71960401Y-81722800D02*
X71808020Y-81798990D01*
X71808020Y-81798990D02*
X71503258Y-81798990D01*
X71503258Y-81798990D02*
X71350877Y-81722800D01*
X71350877Y-81722800D02*
X71274686Y-81646609D01*
X71274686Y-81646609D02*
X71198496Y-81494228D01*
X71198496Y-81494228D02*
X71198496Y-81113276D01*
X71198496Y-81113276D02*
X71274686Y-80960895D01*
X71274686Y-80960895D02*
X71350877Y-80884704D01*
X71350877Y-80884704D02*
X71503258Y-80808514D01*
X71503258Y-80808514D02*
X71808020Y-80808514D01*
X71808020Y-80808514D02*
X71960401Y-80884704D01*
X71960401Y-80884704D02*
X72036591Y-80960895D01*
X72036591Y-80960895D02*
X72112782Y-81113276D01*
X94212782Y-68185657D02*
X94269925Y-68242800D01*
X94269925Y-68242800D02*
X94441353Y-68299942D01*
X94441353Y-68299942D02*
X94555639Y-68299942D01*
X94555639Y-68299942D02*
X94727068Y-68242800D01*
X94727068Y-68242800D02*
X94841353Y-68128514D01*
X94841353Y-68128514D02*
X94898496Y-68014228D01*
X94898496Y-68014228D02*
X94955639Y-67785657D01*
X94955639Y-67785657D02*
X94955639Y-67614228D01*
X94955639Y-67614228D02*
X94898496Y-67385657D01*
X94898496Y-67385657D02*
X94841353Y-67271371D01*
X94841353Y-67271371D02*
X94727068Y-67157085D01*
X94727068Y-67157085D02*
X94555639Y-67099942D01*
X94555639Y-67099942D02*
X94441353Y-67099942D01*
X94441353Y-67099942D02*
X94269925Y-67157085D01*
X94269925Y-67157085D02*
X94212782Y-67214228D01*
X93069925Y-68299942D02*
X93755639Y-68299942D01*
X93412782Y-68299942D02*
X93412782Y-67099942D01*
X93412782Y-67099942D02*
X93527068Y-67271371D01*
X93527068Y-67271371D02*
X93641353Y-67385657D01*
X93641353Y-67385657D02*
X93755639Y-67442800D01*
X92327068Y-67099942D02*
X92212782Y-67099942D01*
X92212782Y-67099942D02*
X92098496Y-67157085D01*
X92098496Y-67157085D02*
X92041354Y-67214228D01*
X92041354Y-67214228D02*
X91984211Y-67328514D01*
X91984211Y-67328514D02*
X91927068Y-67557085D01*
X91927068Y-67557085D02*
X91927068Y-67842800D01*
X91927068Y-67842800D02*
X91984211Y-68071371D01*
X91984211Y-68071371D02*
X92041354Y-68185657D01*
X92041354Y-68185657D02*
X92098496Y-68242800D01*
X92098496Y-68242800D02*
X92212782Y-68299942D01*
X92212782Y-68299942D02*
X92327068Y-68299942D01*
X92327068Y-68299942D02*
X92441354Y-68242800D01*
X92441354Y-68242800D02*
X92498496Y-68185657D01*
X92498496Y-68185657D02*
X92555639Y-68071371D01*
X92555639Y-68071371D02*
X92612782Y-67842800D01*
X92612782Y-67842800D02*
X92612782Y-67557085D01*
X92612782Y-67557085D02*
X92555639Y-67328514D01*
X92555639Y-67328514D02*
X92498496Y-67214228D01*
X92498496Y-67214228D02*
X92441354Y-67157085D01*
X92441354Y-67157085D02*
X92327068Y-67099942D01*
X56758645Y-74207085D02*
X56187217Y-74207085D01*
X56872931Y-74549942D02*
X56472931Y-73349942D01*
X56472931Y-73349942D02*
X56072931Y-74549942D01*
X55501503Y-73864228D02*
X55615788Y-73807085D01*
X55615788Y-73807085D02*
X55672931Y-73749942D01*
X55672931Y-73749942D02*
X55730074Y-73635657D01*
X55730074Y-73635657D02*
X55730074Y-73578514D01*
X55730074Y-73578514D02*
X55672931Y-73464228D01*
X55672931Y-73464228D02*
X55615788Y-73407085D01*
X55615788Y-73407085D02*
X55501503Y-73349942D01*
X55501503Y-73349942D02*
X55272931Y-73349942D01*
X55272931Y-73349942D02*
X55158646Y-73407085D01*
X55158646Y-73407085D02*
X55101503Y-73464228D01*
X55101503Y-73464228D02*
X55044360Y-73578514D01*
X55044360Y-73578514D02*
X55044360Y-73635657D01*
X55044360Y-73635657D02*
X55101503Y-73749942D01*
X55101503Y-73749942D02*
X55158646Y-73807085D01*
X55158646Y-73807085D02*
X55272931Y-73864228D01*
X55272931Y-73864228D02*
X55501503Y-73864228D01*
X55501503Y-73864228D02*
X55615788Y-73921371D01*
X55615788Y-73921371D02*
X55672931Y-73978514D01*
X55672931Y-73978514D02*
X55730074Y-74092800D01*
X55730074Y-74092800D02*
X55730074Y-74321371D01*
X55730074Y-74321371D02*
X55672931Y-74435657D01*
X55672931Y-74435657D02*
X55615788Y-74492800D01*
X55615788Y-74492800D02*
X55501503Y-74549942D01*
X55501503Y-74549942D02*
X55272931Y-74549942D01*
X55272931Y-74549942D02*
X55158646Y-74492800D01*
X55158646Y-74492800D02*
X55101503Y-74435657D01*
X55101503Y-74435657D02*
X55044360Y-74321371D01*
X55044360Y-74321371D02*
X55044360Y-74092800D01*
X55044360Y-74092800D02*
X55101503Y-73978514D01*
X55101503Y-73978514D02*
X55158646Y-73921371D01*
X55158646Y-73921371D02*
X55272931Y-73864228D01*
X77358646Y-52299942D02*
X77358646Y-51099942D01*
X76558646Y-51099942D02*
X76330074Y-51099942D01*
X76330074Y-51099942D02*
X76215789Y-51157085D01*
X76215789Y-51157085D02*
X76101503Y-51271371D01*
X76101503Y-51271371D02*
X76044360Y-51499942D01*
X76044360Y-51499942D02*
X76044360Y-51899942D01*
X76044360Y-51899942D02*
X76101503Y-52128514D01*
X76101503Y-52128514D02*
X76215789Y-52242800D01*
X76215789Y-52242800D02*
X76330074Y-52299942D01*
X76330074Y-52299942D02*
X76558646Y-52299942D01*
X76558646Y-52299942D02*
X76672932Y-52242800D01*
X76672932Y-52242800D02*
X76787217Y-52128514D01*
X76787217Y-52128514D02*
X76844360Y-51899942D01*
X76844360Y-51899942D02*
X76844360Y-51499942D01*
X76844360Y-51499942D02*
X76787217Y-51271371D01*
X76787217Y-51271371D02*
X76672932Y-51157085D01*
X76672932Y-51157085D02*
X76558646Y-51099942D01*
X94212782Y-88685657D02*
X94269925Y-88742800D01*
X94269925Y-88742800D02*
X94441353Y-88799942D01*
X94441353Y-88799942D02*
X94555639Y-88799942D01*
X94555639Y-88799942D02*
X94727068Y-88742800D01*
X94727068Y-88742800D02*
X94841353Y-88628514D01*
X94841353Y-88628514D02*
X94898496Y-88514228D01*
X94898496Y-88514228D02*
X94955639Y-88285657D01*
X94955639Y-88285657D02*
X94955639Y-88114228D01*
X94955639Y-88114228D02*
X94898496Y-87885657D01*
X94898496Y-87885657D02*
X94841353Y-87771371D01*
X94841353Y-87771371D02*
X94727068Y-87657085D01*
X94727068Y-87657085D02*
X94555639Y-87599942D01*
X94555639Y-87599942D02*
X94441353Y-87599942D01*
X94441353Y-87599942D02*
X94269925Y-87657085D01*
X94269925Y-87657085D02*
X94212782Y-87714228D01*
X93755639Y-87714228D02*
X93698496Y-87657085D01*
X93698496Y-87657085D02*
X93584211Y-87599942D01*
X93584211Y-87599942D02*
X93298496Y-87599942D01*
X93298496Y-87599942D02*
X93184211Y-87657085D01*
X93184211Y-87657085D02*
X93127068Y-87714228D01*
X93127068Y-87714228D02*
X93069925Y-87828514D01*
X93069925Y-87828514D02*
X93069925Y-87942800D01*
X93069925Y-87942800D02*
X93127068Y-88114228D01*
X93127068Y-88114228D02*
X93812782Y-88799942D01*
X93812782Y-88799942D02*
X93069925Y-88799942D01*
X91921371Y-92501503D02*
X91978514Y-92672931D01*
X91978514Y-92672931D02*
X92035657Y-92730074D01*
X92035657Y-92730074D02*
X92149942Y-92787217D01*
X92149942Y-92787217D02*
X92321371Y-92787217D01*
X92321371Y-92787217D02*
X92435657Y-92730074D01*
X92435657Y-92730074D02*
X92492800Y-92672931D01*
X92492800Y-92672931D02*
X92549942Y-92558646D01*
X92549942Y-92558646D02*
X92549942Y-92101503D01*
X92549942Y-92101503D02*
X91349942Y-92101503D01*
X91349942Y-92101503D02*
X91349942Y-92501503D01*
X91349942Y-92501503D02*
X91407085Y-92615789D01*
X91407085Y-92615789D02*
X91464228Y-92672931D01*
X91464228Y-92672931D02*
X91578514Y-92730074D01*
X91578514Y-92730074D02*
X91692800Y-92730074D01*
X91692800Y-92730074D02*
X91807085Y-92672931D01*
X91807085Y-92672931D02*
X91864228Y-92615789D01*
X91864228Y-92615789D02*
X91921371Y-92501503D01*
X91921371Y-92501503D02*
X91921371Y-92101503D01*
X92549942Y-93930074D02*
X92549942Y-93244360D01*
X92549942Y-93587217D02*
X91349942Y-93587217D01*
X91349942Y-93587217D02*
X91521371Y-93472931D01*
X91521371Y-93472931D02*
X91635657Y-93358646D01*
X91635657Y-93358646D02*
X91692800Y-93244360D01*
X91349942Y-95015788D02*
X91349942Y-94444360D01*
X91349942Y-94444360D02*
X91921371Y-94387217D01*
X91921371Y-94387217D02*
X91864228Y-94444360D01*
X91864228Y-94444360D02*
X91807085Y-94558646D01*
X91807085Y-94558646D02*
X91807085Y-94844360D01*
X91807085Y-94844360D02*
X91864228Y-94958646D01*
X91864228Y-94958646D02*
X91921371Y-95015788D01*
X91921371Y-95015788D02*
X92035657Y-95072931D01*
X92035657Y-95072931D02*
X92321371Y-95072931D01*
X92321371Y-95072931D02*
X92435657Y-95015788D01*
X92435657Y-95015788D02*
X92492800Y-94958646D01*
X92492800Y-94958646D02*
X92549942Y-94844360D01*
X92549942Y-94844360D02*
X92549942Y-94558646D01*
X92549942Y-94558646D02*
X92492800Y-94444360D01*
X92492800Y-94444360D02*
X92435657Y-94387217D01*
X57901502Y-84207085D02*
X57330074Y-84207085D01*
X58015788Y-84549942D02*
X57615788Y-83349942D01*
X57615788Y-83349942D02*
X57215788Y-84549942D01*
X56187217Y-84549942D02*
X56872931Y-84549942D01*
X56530074Y-84549942D02*
X56530074Y-83349942D01*
X56530074Y-83349942D02*
X56644360Y-83521371D01*
X56644360Y-83521371D02*
X56758645Y-83635657D01*
X56758645Y-83635657D02*
X56872931Y-83692800D01*
X55730074Y-83464228D02*
X55672931Y-83407085D01*
X55672931Y-83407085D02*
X55558646Y-83349942D01*
X55558646Y-83349942D02*
X55272931Y-83349942D01*
X55272931Y-83349942D02*
X55158646Y-83407085D01*
X55158646Y-83407085D02*
X55101503Y-83464228D01*
X55101503Y-83464228D02*
X55044360Y-83578514D01*
X55044360Y-83578514D02*
X55044360Y-83692800D01*
X55044360Y-83692800D02*
X55101503Y-83864228D01*
X55101503Y-83864228D02*
X55787217Y-84549942D01*
X55787217Y-84549942D02*
X55044360Y-84549942D01*
X89671371Y-92501503D02*
X89728514Y-92672931D01*
X89728514Y-92672931D02*
X89785657Y-92730074D01*
X89785657Y-92730074D02*
X89899942Y-92787217D01*
X89899942Y-92787217D02*
X90071371Y-92787217D01*
X90071371Y-92787217D02*
X90185657Y-92730074D01*
X90185657Y-92730074D02*
X90242800Y-92672931D01*
X90242800Y-92672931D02*
X90299942Y-92558646D01*
X90299942Y-92558646D02*
X90299942Y-92101503D01*
X90299942Y-92101503D02*
X89099942Y-92101503D01*
X89099942Y-92101503D02*
X89099942Y-92501503D01*
X89099942Y-92501503D02*
X89157085Y-92615789D01*
X89157085Y-92615789D02*
X89214228Y-92672931D01*
X89214228Y-92672931D02*
X89328514Y-92730074D01*
X89328514Y-92730074D02*
X89442800Y-92730074D01*
X89442800Y-92730074D02*
X89557085Y-92672931D01*
X89557085Y-92672931D02*
X89614228Y-92615789D01*
X89614228Y-92615789D02*
X89671371Y-92501503D01*
X89671371Y-92501503D02*
X89671371Y-92101503D01*
X90299942Y-93930074D02*
X90299942Y-93244360D01*
X90299942Y-93587217D02*
X89099942Y-93587217D01*
X89099942Y-93587217D02*
X89271371Y-93472931D01*
X89271371Y-93472931D02*
X89385657Y-93358646D01*
X89385657Y-93358646D02*
X89442800Y-93244360D01*
X89499942Y-94958646D02*
X90299942Y-94958646D01*
X89042800Y-94672931D02*
X89899942Y-94387217D01*
X89899942Y-94387217D02*
X89899942Y-95130074D01*
X57901502Y-81707085D02*
X57330074Y-81707085D01*
X58015788Y-82049942D02*
X57615788Y-80849942D01*
X57615788Y-80849942D02*
X57215788Y-82049942D01*
X56187217Y-82049942D02*
X56872931Y-82049942D01*
X56530074Y-82049942D02*
X56530074Y-80849942D01*
X56530074Y-80849942D02*
X56644360Y-81021371D01*
X56644360Y-81021371D02*
X56758645Y-81135657D01*
X56758645Y-81135657D02*
X56872931Y-81192800D01*
X55044360Y-82049942D02*
X55730074Y-82049942D01*
X55387217Y-82049942D02*
X55387217Y-80849942D01*
X55387217Y-80849942D02*
X55501503Y-81021371D01*
X55501503Y-81021371D02*
X55615788Y-81135657D01*
X55615788Y-81135657D02*
X55730074Y-81192800D01*
X94212782Y-60685657D02*
X94269925Y-60742800D01*
X94269925Y-60742800D02*
X94441353Y-60799942D01*
X94441353Y-60799942D02*
X94555639Y-60799942D01*
X94555639Y-60799942D02*
X94727068Y-60742800D01*
X94727068Y-60742800D02*
X94841353Y-60628514D01*
X94841353Y-60628514D02*
X94898496Y-60514228D01*
X94898496Y-60514228D02*
X94955639Y-60285657D01*
X94955639Y-60285657D02*
X94955639Y-60114228D01*
X94955639Y-60114228D02*
X94898496Y-59885657D01*
X94898496Y-59885657D02*
X94841353Y-59771371D01*
X94841353Y-59771371D02*
X94727068Y-59657085D01*
X94727068Y-59657085D02*
X94555639Y-59599942D01*
X94555639Y-59599942D02*
X94441353Y-59599942D01*
X94441353Y-59599942D02*
X94269925Y-59657085D01*
X94269925Y-59657085D02*
X94212782Y-59714228D01*
X93069925Y-60799942D02*
X93755639Y-60799942D01*
X93412782Y-60799942D02*
X93412782Y-59599942D01*
X93412782Y-59599942D02*
X93527068Y-59771371D01*
X93527068Y-59771371D02*
X93641353Y-59885657D01*
X93641353Y-59885657D02*
X93755639Y-59942800D01*
X92669925Y-59599942D02*
X91927068Y-59599942D01*
X91927068Y-59599942D02*
X92327068Y-60057085D01*
X92327068Y-60057085D02*
X92155639Y-60057085D01*
X92155639Y-60057085D02*
X92041354Y-60114228D01*
X92041354Y-60114228D02*
X91984211Y-60171371D01*
X91984211Y-60171371D02*
X91927068Y-60285657D01*
X91927068Y-60285657D02*
X91927068Y-60571371D01*
X91927068Y-60571371D02*
X91984211Y-60685657D01*
X91984211Y-60685657D02*
X92041354Y-60742800D01*
X92041354Y-60742800D02*
X92155639Y-60799942D01*
X92155639Y-60799942D02*
X92498496Y-60799942D01*
X92498496Y-60799942D02*
X92612782Y-60742800D01*
X92612782Y-60742800D02*
X92669925Y-60685657D01*
X67299942Y-92101503D02*
X66099942Y-92101503D01*
X66099942Y-92101503D02*
X66099942Y-92558646D01*
X66099942Y-92558646D02*
X66157085Y-92672931D01*
X66157085Y-92672931D02*
X66214228Y-92730074D01*
X66214228Y-92730074D02*
X66328514Y-92787217D01*
X66328514Y-92787217D02*
X66499942Y-92787217D01*
X66499942Y-92787217D02*
X66614228Y-92730074D01*
X66614228Y-92730074D02*
X66671371Y-92672931D01*
X66671371Y-92672931D02*
X66728514Y-92558646D01*
X66728514Y-92558646D02*
X66728514Y-92101503D01*
X66671371Y-93701503D02*
X66728514Y-93872931D01*
X66728514Y-93872931D02*
X66785657Y-93930074D01*
X66785657Y-93930074D02*
X66899942Y-93987217D01*
X66899942Y-93987217D02*
X67071371Y-93987217D01*
X67071371Y-93987217D02*
X67185657Y-93930074D01*
X67185657Y-93930074D02*
X67242800Y-93872931D01*
X67242800Y-93872931D02*
X67299942Y-93758646D01*
X67299942Y-93758646D02*
X67299942Y-93301503D01*
X67299942Y-93301503D02*
X66099942Y-93301503D01*
X66099942Y-93301503D02*
X66099942Y-93701503D01*
X66099942Y-93701503D02*
X66157085Y-93815789D01*
X66157085Y-93815789D02*
X66214228Y-93872931D01*
X66214228Y-93872931D02*
X66328514Y-93930074D01*
X66328514Y-93930074D02*
X66442800Y-93930074D01*
X66442800Y-93930074D02*
X66557085Y-93872931D01*
X66557085Y-93872931D02*
X66614228Y-93815789D01*
X66614228Y-93815789D02*
X66671371Y-93701503D01*
X66671371Y-93701503D02*
X66671371Y-93301503D01*
X66499942Y-95015789D02*
X67299942Y-95015789D01*
X66042800Y-94730074D02*
X66899942Y-94444360D01*
X66899942Y-94444360D02*
X66899942Y-95187217D01*
X89048580Y-61624687D02*
X89524771Y-61958020D01*
X89048580Y-62196115D02*
X90048580Y-62196115D01*
X90048580Y-62196115D02*
X90048580Y-61815163D01*
X90048580Y-61815163D02*
X90000961Y-61719925D01*
X90000961Y-61719925D02*
X89953342Y-61672306D01*
X89953342Y-61672306D02*
X89858104Y-61624687D01*
X89858104Y-61624687D02*
X89715247Y-61624687D01*
X89715247Y-61624687D02*
X89620009Y-61672306D01*
X89620009Y-61672306D02*
X89572390Y-61719925D01*
X89572390Y-61719925D02*
X89524771Y-61815163D01*
X89524771Y-61815163D02*
X89524771Y-62196115D01*
X90048580Y-61196115D02*
X89239057Y-61196115D01*
X89239057Y-61196115D02*
X89143819Y-61148496D01*
X89143819Y-61148496D02*
X89096200Y-61100877D01*
X89096200Y-61100877D02*
X89048580Y-61005639D01*
X89048580Y-61005639D02*
X89048580Y-60815163D01*
X89048580Y-60815163D02*
X89096200Y-60719925D01*
X89096200Y-60719925D02*
X89143819Y-60672306D01*
X89143819Y-60672306D02*
X89239057Y-60624687D01*
X89239057Y-60624687D02*
X90048580Y-60624687D01*
X89048580Y-60148496D02*
X90048580Y-60148496D01*
X90048580Y-60148496D02*
X89048580Y-59577068D01*
X89048580Y-59577068D02*
X90048580Y-59577068D01*
X56758645Y-63957085D02*
X56187217Y-63957085D01*
X56872931Y-64299942D02*
X56472931Y-63099942D01*
X56472931Y-63099942D02*
X56072931Y-64299942D01*
X55158646Y-63499942D02*
X55158646Y-64299942D01*
X55444360Y-63042800D02*
X55730074Y-63899942D01*
X55730074Y-63899942D02*
X54987217Y-63899942D01*
X57299942Y-92101503D02*
X56099942Y-92101503D01*
X56099942Y-92101503D02*
X56099942Y-92558646D01*
X56099942Y-92558646D02*
X56157085Y-92672931D01*
X56157085Y-92672931D02*
X56214228Y-92730074D01*
X56214228Y-92730074D02*
X56328514Y-92787217D01*
X56328514Y-92787217D02*
X56499942Y-92787217D01*
X56499942Y-92787217D02*
X56614228Y-92730074D01*
X56614228Y-92730074D02*
X56671371Y-92672931D01*
X56671371Y-92672931D02*
X56728514Y-92558646D01*
X56728514Y-92558646D02*
X56728514Y-92101503D01*
X56671371Y-93701503D02*
X56728514Y-93872931D01*
X56728514Y-93872931D02*
X56785657Y-93930074D01*
X56785657Y-93930074D02*
X56899942Y-93987217D01*
X56899942Y-93987217D02*
X57071371Y-93987217D01*
X57071371Y-93987217D02*
X57185657Y-93930074D01*
X57185657Y-93930074D02*
X57242800Y-93872931D01*
X57242800Y-93872931D02*
X57299942Y-93758646D01*
X57299942Y-93758646D02*
X57299942Y-93301503D01*
X57299942Y-93301503D02*
X56099942Y-93301503D01*
X56099942Y-93301503D02*
X56099942Y-93701503D01*
X56099942Y-93701503D02*
X56157085Y-93815789D01*
X56157085Y-93815789D02*
X56214228Y-93872931D01*
X56214228Y-93872931D02*
X56328514Y-93930074D01*
X56328514Y-93930074D02*
X56442800Y-93930074D01*
X56442800Y-93930074D02*
X56557085Y-93872931D01*
X56557085Y-93872931D02*
X56614228Y-93815789D01*
X56614228Y-93815789D02*
X56671371Y-93701503D01*
X56671371Y-93701503D02*
X56671371Y-93301503D01*
X56099942Y-94730074D02*
X56099942Y-94844360D01*
X56099942Y-94844360D02*
X56157085Y-94958646D01*
X56157085Y-94958646D02*
X56214228Y-95015789D01*
X56214228Y-95015789D02*
X56328514Y-95072931D01*
X56328514Y-95072931D02*
X56557085Y-95130074D01*
X56557085Y-95130074D02*
X56842800Y-95130074D01*
X56842800Y-95130074D02*
X57071371Y-95072931D01*
X57071371Y-95072931D02*
X57185657Y-95015789D01*
X57185657Y-95015789D02*
X57242800Y-94958646D01*
X57242800Y-94958646D02*
X57299942Y-94844360D01*
X57299942Y-94844360D02*
X57299942Y-94730074D01*
X57299942Y-94730074D02*
X57242800Y-94615789D01*
X57242800Y-94615789D02*
X57185657Y-94558646D01*
X57185657Y-94558646D02*
X57071371Y-94501503D01*
X57071371Y-94501503D02*
X56842800Y-94444360D01*
X56842800Y-94444360D02*
X56557085Y-94444360D01*
X56557085Y-94444360D02*
X56328514Y-94501503D01*
X56328514Y-94501503D02*
X56214228Y-94558646D01*
X56214228Y-94558646D02*
X56157085Y-94615789D01*
X56157085Y-94615789D02*
X56099942Y-94730074D01*
X56758645Y-66457085D02*
X56187217Y-66457085D01*
X56872931Y-66799942D02*
X56472931Y-65599942D01*
X56472931Y-65599942D02*
X56072931Y-66799942D01*
X55101503Y-65599942D02*
X55672931Y-65599942D01*
X55672931Y-65599942D02*
X55730074Y-66171371D01*
X55730074Y-66171371D02*
X55672931Y-66114228D01*
X55672931Y-66114228D02*
X55558646Y-66057085D01*
X55558646Y-66057085D02*
X55272931Y-66057085D01*
X55272931Y-66057085D02*
X55158646Y-66114228D01*
X55158646Y-66114228D02*
X55101503Y-66171371D01*
X55101503Y-66171371D02*
X55044360Y-66285657D01*
X55044360Y-66285657D02*
X55044360Y-66571371D01*
X55044360Y-66571371D02*
X55101503Y-66685657D01*
X55101503Y-66685657D02*
X55158646Y-66742800D01*
X55158646Y-66742800D02*
X55272931Y-66799942D01*
X55272931Y-66799942D02*
X55558646Y-66799942D01*
X55558646Y-66799942D02*
X55672931Y-66742800D01*
X55672931Y-66742800D02*
X55730074Y-66685657D01*
X94212782Y-78435657D02*
X94269925Y-78492800D01*
X94269925Y-78492800D02*
X94441353Y-78549942D01*
X94441353Y-78549942D02*
X94555639Y-78549942D01*
X94555639Y-78549942D02*
X94727068Y-78492800D01*
X94727068Y-78492800D02*
X94841353Y-78378514D01*
X94841353Y-78378514D02*
X94898496Y-78264228D01*
X94898496Y-78264228D02*
X94955639Y-78035657D01*
X94955639Y-78035657D02*
X94955639Y-77864228D01*
X94955639Y-77864228D02*
X94898496Y-77635657D01*
X94898496Y-77635657D02*
X94841353Y-77521371D01*
X94841353Y-77521371D02*
X94727068Y-77407085D01*
X94727068Y-77407085D02*
X94555639Y-77349942D01*
X94555639Y-77349942D02*
X94441353Y-77349942D01*
X94441353Y-77349942D02*
X94269925Y-77407085D01*
X94269925Y-77407085D02*
X94212782Y-77464228D01*
X93184211Y-77349942D02*
X93412782Y-77349942D01*
X93412782Y-77349942D02*
X93527068Y-77407085D01*
X93527068Y-77407085D02*
X93584211Y-77464228D01*
X93584211Y-77464228D02*
X93698496Y-77635657D01*
X93698496Y-77635657D02*
X93755639Y-77864228D01*
X93755639Y-77864228D02*
X93755639Y-78321371D01*
X93755639Y-78321371D02*
X93698496Y-78435657D01*
X93698496Y-78435657D02*
X93641353Y-78492800D01*
X93641353Y-78492800D02*
X93527068Y-78549942D01*
X93527068Y-78549942D02*
X93298496Y-78549942D01*
X93298496Y-78549942D02*
X93184211Y-78492800D01*
X93184211Y-78492800D02*
X93127068Y-78435657D01*
X93127068Y-78435657D02*
X93069925Y-78321371D01*
X93069925Y-78321371D02*
X93069925Y-78035657D01*
X93069925Y-78035657D02*
X93127068Y-77921371D01*
X93127068Y-77921371D02*
X93184211Y-77864228D01*
X93184211Y-77864228D02*
X93298496Y-77807085D01*
X93298496Y-77807085D02*
X93527068Y-77807085D01*
X93527068Y-77807085D02*
X93641353Y-77864228D01*
X93641353Y-77864228D02*
X93698496Y-77921371D01*
X93698496Y-77921371D02*
X93755639Y-78035657D01*
X94212782Y-70685657D02*
X94269925Y-70742800D01*
X94269925Y-70742800D02*
X94441353Y-70799942D01*
X94441353Y-70799942D02*
X94555639Y-70799942D01*
X94555639Y-70799942D02*
X94727068Y-70742800D01*
X94727068Y-70742800D02*
X94841353Y-70628514D01*
X94841353Y-70628514D02*
X94898496Y-70514228D01*
X94898496Y-70514228D02*
X94955639Y-70285657D01*
X94955639Y-70285657D02*
X94955639Y-70114228D01*
X94955639Y-70114228D02*
X94898496Y-69885657D01*
X94898496Y-69885657D02*
X94841353Y-69771371D01*
X94841353Y-69771371D02*
X94727068Y-69657085D01*
X94727068Y-69657085D02*
X94555639Y-69599942D01*
X94555639Y-69599942D02*
X94441353Y-69599942D01*
X94441353Y-69599942D02*
X94269925Y-69657085D01*
X94269925Y-69657085D02*
X94212782Y-69714228D01*
X93641353Y-70799942D02*
X93412782Y-70799942D01*
X93412782Y-70799942D02*
X93298496Y-70742800D01*
X93298496Y-70742800D02*
X93241353Y-70685657D01*
X93241353Y-70685657D02*
X93127068Y-70514228D01*
X93127068Y-70514228D02*
X93069925Y-70285657D01*
X93069925Y-70285657D02*
X93069925Y-69828514D01*
X93069925Y-69828514D02*
X93127068Y-69714228D01*
X93127068Y-69714228D02*
X93184211Y-69657085D01*
X93184211Y-69657085D02*
X93298496Y-69599942D01*
X93298496Y-69599942D02*
X93527068Y-69599942D01*
X93527068Y-69599942D02*
X93641353Y-69657085D01*
X93641353Y-69657085D02*
X93698496Y-69714228D01*
X93698496Y-69714228D02*
X93755639Y-69828514D01*
X93755639Y-69828514D02*
X93755639Y-70114228D01*
X93755639Y-70114228D02*
X93698496Y-70228514D01*
X93698496Y-70228514D02*
X93641353Y-70285657D01*
X93641353Y-70285657D02*
X93527068Y-70342800D01*
X93527068Y-70342800D02*
X93298496Y-70342800D01*
X93298496Y-70342800D02*
X93184211Y-70285657D01*
X93184211Y-70285657D02*
X93127068Y-70228514D01*
X93127068Y-70228514D02*
X93069925Y-70114228D01*
X69799942Y-92101503D02*
X68599942Y-92101503D01*
X68599942Y-92101503D02*
X68599942Y-92558646D01*
X68599942Y-92558646D02*
X68657085Y-92672931D01*
X68657085Y-92672931D02*
X68714228Y-92730074D01*
X68714228Y-92730074D02*
X68828514Y-92787217D01*
X68828514Y-92787217D02*
X68999942Y-92787217D01*
X68999942Y-92787217D02*
X69114228Y-92730074D01*
X69114228Y-92730074D02*
X69171371Y-92672931D01*
X69171371Y-92672931D02*
X69228514Y-92558646D01*
X69228514Y-92558646D02*
X69228514Y-92101503D01*
X69171371Y-93701503D02*
X69228514Y-93872931D01*
X69228514Y-93872931D02*
X69285657Y-93930074D01*
X69285657Y-93930074D02*
X69399942Y-93987217D01*
X69399942Y-93987217D02*
X69571371Y-93987217D01*
X69571371Y-93987217D02*
X69685657Y-93930074D01*
X69685657Y-93930074D02*
X69742800Y-93872931D01*
X69742800Y-93872931D02*
X69799942Y-93758646D01*
X69799942Y-93758646D02*
X69799942Y-93301503D01*
X69799942Y-93301503D02*
X68599942Y-93301503D01*
X68599942Y-93301503D02*
X68599942Y-93701503D01*
X68599942Y-93701503D02*
X68657085Y-93815789D01*
X68657085Y-93815789D02*
X68714228Y-93872931D01*
X68714228Y-93872931D02*
X68828514Y-93930074D01*
X68828514Y-93930074D02*
X68942800Y-93930074D01*
X68942800Y-93930074D02*
X69057085Y-93872931D01*
X69057085Y-93872931D02*
X69114228Y-93815789D01*
X69114228Y-93815789D02*
X69171371Y-93701503D01*
X69171371Y-93701503D02*
X69171371Y-93301503D01*
X68599942Y-95072931D02*
X68599942Y-94501503D01*
X68599942Y-94501503D02*
X69171371Y-94444360D01*
X69171371Y-94444360D02*
X69114228Y-94501503D01*
X69114228Y-94501503D02*
X69057085Y-94615789D01*
X69057085Y-94615789D02*
X69057085Y-94901503D01*
X69057085Y-94901503D02*
X69114228Y-95015789D01*
X69114228Y-95015789D02*
X69171371Y-95072931D01*
X69171371Y-95072931D02*
X69285657Y-95130074D01*
X69285657Y-95130074D02*
X69571371Y-95130074D01*
X69571371Y-95130074D02*
X69685657Y-95072931D01*
X69685657Y-95072931D02*
X69742800Y-95015789D01*
X69742800Y-95015789D02*
X69799942Y-94901503D01*
X69799942Y-94901503D02*
X69799942Y-94615789D01*
X69799942Y-94615789D02*
X69742800Y-94501503D01*
X69742800Y-94501503D02*
X69685657Y-94444360D01*
X56758645Y-68957085D02*
X56187217Y-68957085D01*
X56872931Y-69299942D02*
X56472931Y-68099942D01*
X56472931Y-68099942D02*
X56072931Y-69299942D01*
X55158646Y-68099942D02*
X55387217Y-68099942D01*
X55387217Y-68099942D02*
X55501503Y-68157085D01*
X55501503Y-68157085D02*
X55558646Y-68214228D01*
X55558646Y-68214228D02*
X55672931Y-68385657D01*
X55672931Y-68385657D02*
X55730074Y-68614228D01*
X55730074Y-68614228D02*
X55730074Y-69071371D01*
X55730074Y-69071371D02*
X55672931Y-69185657D01*
X55672931Y-69185657D02*
X55615788Y-69242800D01*
X55615788Y-69242800D02*
X55501503Y-69299942D01*
X55501503Y-69299942D02*
X55272931Y-69299942D01*
X55272931Y-69299942D02*
X55158646Y-69242800D01*
X55158646Y-69242800D02*
X55101503Y-69185657D01*
X55101503Y-69185657D02*
X55044360Y-69071371D01*
X55044360Y-69071371D02*
X55044360Y-68785657D01*
X55044360Y-68785657D02*
X55101503Y-68671371D01*
X55101503Y-68671371D02*
X55158646Y-68614228D01*
X55158646Y-68614228D02*
X55272931Y-68557085D01*
X55272931Y-68557085D02*
X55501503Y-68557085D01*
X55501503Y-68557085D02*
X55615788Y-68614228D01*
X55615788Y-68614228D02*
X55672931Y-68671371D01*
X55672931Y-68671371D02*
X55730074Y-68785657D01*
X57901502Y-86957085D02*
X57330074Y-86957085D01*
X58015788Y-87299942D02*
X57615788Y-86099942D01*
X57615788Y-86099942D02*
X57215788Y-87299942D01*
X56187217Y-87299942D02*
X56872931Y-87299942D01*
X56530074Y-87299942D02*
X56530074Y-86099942D01*
X56530074Y-86099942D02*
X56644360Y-86271371D01*
X56644360Y-86271371D02*
X56758645Y-86385657D01*
X56758645Y-86385657D02*
X56872931Y-86442800D01*
X55101503Y-86099942D02*
X55672931Y-86099942D01*
X55672931Y-86099942D02*
X55730074Y-86671371D01*
X55730074Y-86671371D02*
X55672931Y-86614228D01*
X55672931Y-86614228D02*
X55558646Y-86557085D01*
X55558646Y-86557085D02*
X55272931Y-86557085D01*
X55272931Y-86557085D02*
X55158646Y-86614228D01*
X55158646Y-86614228D02*
X55101503Y-86671371D01*
X55101503Y-86671371D02*
X55044360Y-86785657D01*
X55044360Y-86785657D02*
X55044360Y-87071371D01*
X55044360Y-87071371D02*
X55101503Y-87185657D01*
X55101503Y-87185657D02*
X55158646Y-87242800D01*
X55158646Y-87242800D02*
X55272931Y-87299942D01*
X55272931Y-87299942D02*
X55558646Y-87299942D01*
X55558646Y-87299942D02*
X55672931Y-87242800D01*
X55672931Y-87242800D02*
X55730074Y-87185657D01*
X94212782Y-75935657D02*
X94269925Y-75992800D01*
X94269925Y-75992800D02*
X94441353Y-76049942D01*
X94441353Y-76049942D02*
X94555639Y-76049942D01*
X94555639Y-76049942D02*
X94727068Y-75992800D01*
X94727068Y-75992800D02*
X94841353Y-75878514D01*
X94841353Y-75878514D02*
X94898496Y-75764228D01*
X94898496Y-75764228D02*
X94955639Y-75535657D01*
X94955639Y-75535657D02*
X94955639Y-75364228D01*
X94955639Y-75364228D02*
X94898496Y-75135657D01*
X94898496Y-75135657D02*
X94841353Y-75021371D01*
X94841353Y-75021371D02*
X94727068Y-74907085D01*
X94727068Y-74907085D02*
X94555639Y-74849942D01*
X94555639Y-74849942D02*
X94441353Y-74849942D01*
X94441353Y-74849942D02*
X94269925Y-74907085D01*
X94269925Y-74907085D02*
X94212782Y-74964228D01*
X93812782Y-74849942D02*
X93012782Y-74849942D01*
X93012782Y-74849942D02*
X93527068Y-76049942D01*
X69092914Y-55308646D02*
X69150057Y-55422932D01*
X69150057Y-55422932D02*
X69150057Y-55594360D01*
X69150057Y-55594360D02*
X69092914Y-55765789D01*
X69092914Y-55765789D02*
X68978628Y-55880074D01*
X68978628Y-55880074D02*
X68864342Y-55937217D01*
X68864342Y-55937217D02*
X68635771Y-55994360D01*
X68635771Y-55994360D02*
X68464342Y-55994360D01*
X68464342Y-55994360D02*
X68235771Y-55937217D01*
X68235771Y-55937217D02*
X68121485Y-55880074D01*
X68121485Y-55880074D02*
X68007200Y-55765789D01*
X68007200Y-55765789D02*
X67950057Y-55594360D01*
X67950057Y-55594360D02*
X67950057Y-55480074D01*
X67950057Y-55480074D02*
X68007200Y-55308646D01*
X68007200Y-55308646D02*
X68064342Y-55251503D01*
X68064342Y-55251503D02*
X68464342Y-55251503D01*
X68464342Y-55251503D02*
X68464342Y-55480074D01*
X67950057Y-54737217D02*
X69150057Y-54737217D01*
X69150057Y-54737217D02*
X67950057Y-54051503D01*
X67950057Y-54051503D02*
X69150057Y-54051503D01*
X67950057Y-53480074D02*
X69150057Y-53480074D01*
X69150057Y-53480074D02*
X69150057Y-53194360D01*
X69150057Y-53194360D02*
X69092914Y-53022931D01*
X69092914Y-53022931D02*
X68978628Y-52908646D01*
X68978628Y-52908646D02*
X68864342Y-52851503D01*
X68864342Y-52851503D02*
X68635771Y-52794360D01*
X68635771Y-52794360D02*
X68464342Y-52794360D01*
X68464342Y-52794360D02*
X68235771Y-52851503D01*
X68235771Y-52851503D02*
X68121485Y-52908646D01*
X68121485Y-52908646D02*
X68007200Y-53022931D01*
X68007200Y-53022931D02*
X67950057Y-53194360D01*
X67950057Y-53194360D02*
X67950057Y-53480074D01*
X56758645Y-71707085D02*
X56187217Y-71707085D01*
X56872931Y-72049942D02*
X56472931Y-70849942D01*
X56472931Y-70849942D02*
X56072931Y-72049942D01*
X55787217Y-70849942D02*
X54987217Y-70849942D01*
X54987217Y-70849942D02*
X55501503Y-72049942D01*
X56758645Y-53957085D02*
X56187217Y-53957085D01*
X56872931Y-54299942D02*
X56472931Y-53099942D01*
X56472931Y-53099942D02*
X56072931Y-54299942D01*
X55444360Y-53099942D02*
X55330074Y-53099942D01*
X55330074Y-53099942D02*
X55215788Y-53157085D01*
X55215788Y-53157085D02*
X55158646Y-53214228D01*
X55158646Y-53214228D02*
X55101503Y-53328514D01*
X55101503Y-53328514D02*
X55044360Y-53557085D01*
X55044360Y-53557085D02*
X55044360Y-53842800D01*
X55044360Y-53842800D02*
X55101503Y-54071371D01*
X55101503Y-54071371D02*
X55158646Y-54185657D01*
X55158646Y-54185657D02*
X55215788Y-54242800D01*
X55215788Y-54242800D02*
X55330074Y-54299942D01*
X55330074Y-54299942D02*
X55444360Y-54299942D01*
X55444360Y-54299942D02*
X55558646Y-54242800D01*
X55558646Y-54242800D02*
X55615788Y-54185657D01*
X55615788Y-54185657D02*
X55672931Y-54071371D01*
X55672931Y-54071371D02*
X55730074Y-53842800D01*
X55730074Y-53842800D02*
X55730074Y-53557085D01*
X55730074Y-53557085D02*
X55672931Y-53328514D01*
X55672931Y-53328514D02*
X55615788Y-53214228D01*
X55615788Y-53214228D02*
X55558646Y-53157085D01*
X55558646Y-53157085D02*
X55444360Y-53099942D01*
X94212782Y-91185657D02*
X94269925Y-91242800D01*
X94269925Y-91242800D02*
X94441353Y-91299942D01*
X94441353Y-91299942D02*
X94555639Y-91299942D01*
X94555639Y-91299942D02*
X94727068Y-91242800D01*
X94727068Y-91242800D02*
X94841353Y-91128514D01*
X94841353Y-91128514D02*
X94898496Y-91014228D01*
X94898496Y-91014228D02*
X94955639Y-90785657D01*
X94955639Y-90785657D02*
X94955639Y-90614228D01*
X94955639Y-90614228D02*
X94898496Y-90385657D01*
X94898496Y-90385657D02*
X94841353Y-90271371D01*
X94841353Y-90271371D02*
X94727068Y-90157085D01*
X94727068Y-90157085D02*
X94555639Y-90099942D01*
X94555639Y-90099942D02*
X94441353Y-90099942D01*
X94441353Y-90099942D02*
X94269925Y-90157085D01*
X94269925Y-90157085D02*
X94212782Y-90214228D01*
X93069925Y-91299942D02*
X93755639Y-91299942D01*
X93412782Y-91299942D02*
X93412782Y-90099942D01*
X93412782Y-90099942D02*
X93527068Y-90271371D01*
X93527068Y-90271371D02*
X93641353Y-90385657D01*
X93641353Y-90385657D02*
X93755639Y-90442800D01*
X94212782Y-83435657D02*
X94269925Y-83492800D01*
X94269925Y-83492800D02*
X94441353Y-83549942D01*
X94441353Y-83549942D02*
X94555639Y-83549942D01*
X94555639Y-83549942D02*
X94727068Y-83492800D01*
X94727068Y-83492800D02*
X94841353Y-83378514D01*
X94841353Y-83378514D02*
X94898496Y-83264228D01*
X94898496Y-83264228D02*
X94955639Y-83035657D01*
X94955639Y-83035657D02*
X94955639Y-82864228D01*
X94955639Y-82864228D02*
X94898496Y-82635657D01*
X94898496Y-82635657D02*
X94841353Y-82521371D01*
X94841353Y-82521371D02*
X94727068Y-82407085D01*
X94727068Y-82407085D02*
X94555639Y-82349942D01*
X94555639Y-82349942D02*
X94441353Y-82349942D01*
X94441353Y-82349942D02*
X94269925Y-82407085D01*
X94269925Y-82407085D02*
X94212782Y-82464228D01*
X93184211Y-82749942D02*
X93184211Y-83549942D01*
X93469925Y-82292800D02*
X93755639Y-83149942D01*
X93755639Y-83149942D02*
X93012782Y-83149942D01*
X89572390Y-58362782D02*
X89524771Y-58219925D01*
X89524771Y-58219925D02*
X89477152Y-58172306D01*
X89477152Y-58172306D02*
X89381914Y-58124687D01*
X89381914Y-58124687D02*
X89239057Y-58124687D01*
X89239057Y-58124687D02*
X89143819Y-58172306D01*
X89143819Y-58172306D02*
X89096200Y-58219925D01*
X89096200Y-58219925D02*
X89048580Y-58315163D01*
X89048580Y-58315163D02*
X89048580Y-58696115D01*
X89048580Y-58696115D02*
X90048580Y-58696115D01*
X90048580Y-58696115D02*
X90048580Y-58362782D01*
X90048580Y-58362782D02*
X90000961Y-58267544D01*
X90000961Y-58267544D02*
X89953342Y-58219925D01*
X89953342Y-58219925D02*
X89858104Y-58172306D01*
X89858104Y-58172306D02*
X89762866Y-58172306D01*
X89762866Y-58172306D02*
X89667628Y-58219925D01*
X89667628Y-58219925D02*
X89620009Y-58267544D01*
X89620009Y-58267544D02*
X89572390Y-58362782D01*
X89572390Y-58362782D02*
X89572390Y-58696115D01*
X90048580Y-57505639D02*
X90048580Y-57315163D01*
X90048580Y-57315163D02*
X90000961Y-57219925D01*
X90000961Y-57219925D02*
X89905723Y-57124687D01*
X89905723Y-57124687D02*
X89715247Y-57077068D01*
X89715247Y-57077068D02*
X89381914Y-57077068D01*
X89381914Y-57077068D02*
X89191438Y-57124687D01*
X89191438Y-57124687D02*
X89096200Y-57219925D01*
X89096200Y-57219925D02*
X89048580Y-57315163D01*
X89048580Y-57315163D02*
X89048580Y-57505639D01*
X89048580Y-57505639D02*
X89096200Y-57600877D01*
X89096200Y-57600877D02*
X89191438Y-57696115D01*
X89191438Y-57696115D02*
X89381914Y-57743734D01*
X89381914Y-57743734D02*
X89715247Y-57743734D01*
X89715247Y-57743734D02*
X89905723Y-57696115D01*
X89905723Y-57696115D02*
X90000961Y-57600877D01*
X90000961Y-57600877D02*
X90048580Y-57505639D01*
X90048580Y-56458020D02*
X90048580Y-56267544D01*
X90048580Y-56267544D02*
X90000961Y-56172306D01*
X90000961Y-56172306D02*
X89905723Y-56077068D01*
X89905723Y-56077068D02*
X89715247Y-56029449D01*
X89715247Y-56029449D02*
X89381914Y-56029449D01*
X89381914Y-56029449D02*
X89191438Y-56077068D01*
X89191438Y-56077068D02*
X89096200Y-56172306D01*
X89096200Y-56172306D02*
X89048580Y-56267544D01*
X89048580Y-56267544D02*
X89048580Y-56458020D01*
X89048580Y-56458020D02*
X89096200Y-56553258D01*
X89096200Y-56553258D02*
X89191438Y-56648496D01*
X89191438Y-56648496D02*
X89381914Y-56696115D01*
X89381914Y-56696115D02*
X89715247Y-56696115D01*
X89715247Y-56696115D02*
X89905723Y-56648496D01*
X89905723Y-56648496D02*
X90000961Y-56553258D01*
X90000961Y-56553258D02*
X90048580Y-56458020D01*
X90048580Y-55743734D02*
X90048580Y-55172306D01*
X89048580Y-55458020D02*
X90048580Y-55458020D01*
X75049942Y-92101503D02*
X73849942Y-92101503D01*
X73849942Y-92101503D02*
X73849942Y-92558646D01*
X73849942Y-92558646D02*
X73907085Y-92672931D01*
X73907085Y-92672931D02*
X73964228Y-92730074D01*
X73964228Y-92730074D02*
X74078514Y-92787217D01*
X74078514Y-92787217D02*
X74249942Y-92787217D01*
X74249942Y-92787217D02*
X74364228Y-92730074D01*
X74364228Y-92730074D02*
X74421371Y-92672931D01*
X74421371Y-92672931D02*
X74478514Y-92558646D01*
X74478514Y-92558646D02*
X74478514Y-92101503D01*
X74421371Y-93701503D02*
X74478514Y-93872931D01*
X74478514Y-93872931D02*
X74535657Y-93930074D01*
X74535657Y-93930074D02*
X74649942Y-93987217D01*
X74649942Y-93987217D02*
X74821371Y-93987217D01*
X74821371Y-93987217D02*
X74935657Y-93930074D01*
X74935657Y-93930074D02*
X74992800Y-93872931D01*
X74992800Y-93872931D02*
X75049942Y-93758646D01*
X75049942Y-93758646D02*
X75049942Y-93301503D01*
X75049942Y-93301503D02*
X73849942Y-93301503D01*
X73849942Y-93301503D02*
X73849942Y-93701503D01*
X73849942Y-93701503D02*
X73907085Y-93815789D01*
X73907085Y-93815789D02*
X73964228Y-93872931D01*
X73964228Y-93872931D02*
X74078514Y-93930074D01*
X74078514Y-93930074D02*
X74192800Y-93930074D01*
X74192800Y-93930074D02*
X74307085Y-93872931D01*
X74307085Y-93872931D02*
X74364228Y-93815789D01*
X74364228Y-93815789D02*
X74421371Y-93701503D01*
X74421371Y-93701503D02*
X74421371Y-93301503D01*
X73849942Y-94387217D02*
X73849942Y-95187217D01*
X73849942Y-95187217D02*
X75049942Y-94672931D01*
X94212782Y-93435657D02*
X94269925Y-93492800D01*
X94269925Y-93492800D02*
X94441353Y-93549942D01*
X94441353Y-93549942D02*
X94555639Y-93549942D01*
X94555639Y-93549942D02*
X94727068Y-93492800D01*
X94727068Y-93492800D02*
X94841353Y-93378514D01*
X94841353Y-93378514D02*
X94898496Y-93264228D01*
X94898496Y-93264228D02*
X94955639Y-93035657D01*
X94955639Y-93035657D02*
X94955639Y-92864228D01*
X94955639Y-92864228D02*
X94898496Y-92635657D01*
X94898496Y-92635657D02*
X94841353Y-92521371D01*
X94841353Y-92521371D02*
X94727068Y-92407085D01*
X94727068Y-92407085D02*
X94555639Y-92349942D01*
X94555639Y-92349942D02*
X94441353Y-92349942D01*
X94441353Y-92349942D02*
X94269925Y-92407085D01*
X94269925Y-92407085D02*
X94212782Y-92464228D01*
X93469925Y-92349942D02*
X93355639Y-92349942D01*
X93355639Y-92349942D02*
X93241353Y-92407085D01*
X93241353Y-92407085D02*
X93184211Y-92464228D01*
X93184211Y-92464228D02*
X93127068Y-92578514D01*
X93127068Y-92578514D02*
X93069925Y-92807085D01*
X93069925Y-92807085D02*
X93069925Y-93092800D01*
X93069925Y-93092800D02*
X93127068Y-93321371D01*
X93127068Y-93321371D02*
X93184211Y-93435657D01*
X93184211Y-93435657D02*
X93241353Y-93492800D01*
X93241353Y-93492800D02*
X93355639Y-93549942D01*
X93355639Y-93549942D02*
X93469925Y-93549942D01*
X93469925Y-93549942D02*
X93584211Y-93492800D01*
X93584211Y-93492800D02*
X93641353Y-93435657D01*
X93641353Y-93435657D02*
X93698496Y-93321371D01*
X93698496Y-93321371D02*
X93755639Y-93092800D01*
X93755639Y-93092800D02*
X93755639Y-92807085D01*
X93755639Y-92807085D02*
X93698496Y-92578514D01*
X93698496Y-92578514D02*
X93641353Y-92464228D01*
X93641353Y-92464228D02*
X93584211Y-92407085D01*
X93584211Y-92407085D02*
X93469925Y-92349942D01*
X94212782Y-55435657D02*
X94269925Y-55492800D01*
X94269925Y-55492800D02*
X94441353Y-55549942D01*
X94441353Y-55549942D02*
X94555639Y-55549942D01*
X94555639Y-55549942D02*
X94727068Y-55492800D01*
X94727068Y-55492800D02*
X94841353Y-55378514D01*
X94841353Y-55378514D02*
X94898496Y-55264228D01*
X94898496Y-55264228D02*
X94955639Y-55035657D01*
X94955639Y-55035657D02*
X94955639Y-54864228D01*
X94955639Y-54864228D02*
X94898496Y-54635657D01*
X94898496Y-54635657D02*
X94841353Y-54521371D01*
X94841353Y-54521371D02*
X94727068Y-54407085D01*
X94727068Y-54407085D02*
X94555639Y-54349942D01*
X94555639Y-54349942D02*
X94441353Y-54349942D01*
X94441353Y-54349942D02*
X94269925Y-54407085D01*
X94269925Y-54407085D02*
X94212782Y-54464228D01*
X93069925Y-55549942D02*
X93755639Y-55549942D01*
X93412782Y-55549942D02*
X93412782Y-54349942D01*
X93412782Y-54349942D02*
X93527068Y-54521371D01*
X93527068Y-54521371D02*
X93641353Y-54635657D01*
X93641353Y-54635657D02*
X93755639Y-54692800D01*
X91984211Y-54349942D02*
X92555639Y-54349942D01*
X92555639Y-54349942D02*
X92612782Y-54921371D01*
X92612782Y-54921371D02*
X92555639Y-54864228D01*
X92555639Y-54864228D02*
X92441354Y-54807085D01*
X92441354Y-54807085D02*
X92155639Y-54807085D01*
X92155639Y-54807085D02*
X92041354Y-54864228D01*
X92041354Y-54864228D02*
X91984211Y-54921371D01*
X91984211Y-54921371D02*
X91927068Y-55035657D01*
X91927068Y-55035657D02*
X91927068Y-55321371D01*
X91927068Y-55321371D02*
X91984211Y-55435657D01*
X91984211Y-55435657D02*
X92041354Y-55492800D01*
X92041354Y-55492800D02*
X92155639Y-55549942D01*
X92155639Y-55549942D02*
X92441354Y-55549942D01*
X92441354Y-55549942D02*
X92555639Y-55492800D01*
X92555639Y-55492800D02*
X92612782Y-55435657D01*
X84421371Y-92501503D02*
X84478514Y-92672931D01*
X84478514Y-92672931D02*
X84535657Y-92730074D01*
X84535657Y-92730074D02*
X84649942Y-92787217D01*
X84649942Y-92787217D02*
X84821371Y-92787217D01*
X84821371Y-92787217D02*
X84935657Y-92730074D01*
X84935657Y-92730074D02*
X84992800Y-92672931D01*
X84992800Y-92672931D02*
X85049942Y-92558646D01*
X85049942Y-92558646D02*
X85049942Y-92101503D01*
X85049942Y-92101503D02*
X83849942Y-92101503D01*
X83849942Y-92101503D02*
X83849942Y-92501503D01*
X83849942Y-92501503D02*
X83907085Y-92615789D01*
X83907085Y-92615789D02*
X83964228Y-92672931D01*
X83964228Y-92672931D02*
X84078514Y-92730074D01*
X84078514Y-92730074D02*
X84192800Y-92730074D01*
X84192800Y-92730074D02*
X84307085Y-92672931D01*
X84307085Y-92672931D02*
X84364228Y-92615789D01*
X84364228Y-92615789D02*
X84421371Y-92501503D01*
X84421371Y-92501503D02*
X84421371Y-92101503D01*
X85049942Y-93930074D02*
X85049942Y-93244360D01*
X85049942Y-93587217D02*
X83849942Y-93587217D01*
X83849942Y-93587217D02*
X84021371Y-93472931D01*
X84021371Y-93472931D02*
X84135657Y-93358646D01*
X84135657Y-93358646D02*
X84192800Y-93244360D01*
X83964228Y-94387217D02*
X83907085Y-94444360D01*
X83907085Y-94444360D02*
X83849942Y-94558646D01*
X83849942Y-94558646D02*
X83849942Y-94844360D01*
X83849942Y-94844360D02*
X83907085Y-94958646D01*
X83907085Y-94958646D02*
X83964228Y-95015788D01*
X83964228Y-95015788D02*
X84078514Y-95072931D01*
X84078514Y-95072931D02*
X84192800Y-95072931D01*
X84192800Y-95072931D02*
X84364228Y-95015788D01*
X84364228Y-95015788D02*
X85049942Y-94330074D01*
X85049942Y-94330074D02*
X85049942Y-95072931D01*
X56758645Y-58957085D02*
X56187217Y-58957085D01*
X56872931Y-59299942D02*
X56472931Y-58099942D01*
X56472931Y-58099942D02*
X56072931Y-59299942D01*
X55730074Y-58214228D02*
X55672931Y-58157085D01*
X55672931Y-58157085D02*
X55558646Y-58099942D01*
X55558646Y-58099942D02*
X55272931Y-58099942D01*
X55272931Y-58099942D02*
X55158646Y-58157085D01*
X55158646Y-58157085D02*
X55101503Y-58214228D01*
X55101503Y-58214228D02*
X55044360Y-58328514D01*
X55044360Y-58328514D02*
X55044360Y-58442800D01*
X55044360Y-58442800D02*
X55101503Y-58614228D01*
X55101503Y-58614228D02*
X55787217Y-59299942D01*
X55787217Y-59299942D02*
X55044360Y-59299942D01*
X56758645Y-76707085D02*
X56187217Y-76707085D01*
X56872931Y-77049942D02*
X56472931Y-75849942D01*
X56472931Y-75849942D02*
X56072931Y-77049942D01*
X55615788Y-77049942D02*
X55387217Y-77049942D01*
X55387217Y-77049942D02*
X55272931Y-76992800D01*
X55272931Y-76992800D02*
X55215788Y-76935657D01*
X55215788Y-76935657D02*
X55101503Y-76764228D01*
X55101503Y-76764228D02*
X55044360Y-76535657D01*
X55044360Y-76535657D02*
X55044360Y-76078514D01*
X55044360Y-76078514D02*
X55101503Y-75964228D01*
X55101503Y-75964228D02*
X55158646Y-75907085D01*
X55158646Y-75907085D02*
X55272931Y-75849942D01*
X55272931Y-75849942D02*
X55501503Y-75849942D01*
X55501503Y-75849942D02*
X55615788Y-75907085D01*
X55615788Y-75907085D02*
X55672931Y-75964228D01*
X55672931Y-75964228D02*
X55730074Y-76078514D01*
X55730074Y-76078514D02*
X55730074Y-76364228D01*
X55730074Y-76364228D02*
X55672931Y-76478514D01*
X55672931Y-76478514D02*
X55615788Y-76535657D01*
X55615788Y-76535657D02*
X55501503Y-76592800D01*
X55501503Y-76592800D02*
X55272931Y-76592800D01*
X55272931Y-76592800D02*
X55158646Y-76535657D01*
X55158646Y-76535657D02*
X55101503Y-76478514D01*
X55101503Y-76478514D02*
X55044360Y-76364228D01*
X59799942Y-92101503D02*
X58599942Y-92101503D01*
X58599942Y-92101503D02*
X58599942Y-92558646D01*
X58599942Y-92558646D02*
X58657085Y-92672931D01*
X58657085Y-92672931D02*
X58714228Y-92730074D01*
X58714228Y-92730074D02*
X58828514Y-92787217D01*
X58828514Y-92787217D02*
X58999942Y-92787217D01*
X58999942Y-92787217D02*
X59114228Y-92730074D01*
X59114228Y-92730074D02*
X59171371Y-92672931D01*
X59171371Y-92672931D02*
X59228514Y-92558646D01*
X59228514Y-92558646D02*
X59228514Y-92101503D01*
X59171371Y-93701503D02*
X59228514Y-93872931D01*
X59228514Y-93872931D02*
X59285657Y-93930074D01*
X59285657Y-93930074D02*
X59399942Y-93987217D01*
X59399942Y-93987217D02*
X59571371Y-93987217D01*
X59571371Y-93987217D02*
X59685657Y-93930074D01*
X59685657Y-93930074D02*
X59742800Y-93872931D01*
X59742800Y-93872931D02*
X59799942Y-93758646D01*
X59799942Y-93758646D02*
X59799942Y-93301503D01*
X59799942Y-93301503D02*
X58599942Y-93301503D01*
X58599942Y-93301503D02*
X58599942Y-93701503D01*
X58599942Y-93701503D02*
X58657085Y-93815789D01*
X58657085Y-93815789D02*
X58714228Y-93872931D01*
X58714228Y-93872931D02*
X58828514Y-93930074D01*
X58828514Y-93930074D02*
X58942800Y-93930074D01*
X58942800Y-93930074D02*
X59057085Y-93872931D01*
X59057085Y-93872931D02*
X59114228Y-93815789D01*
X59114228Y-93815789D02*
X59171371Y-93701503D01*
X59171371Y-93701503D02*
X59171371Y-93301503D01*
X59799942Y-95130074D02*
X59799942Y-94444360D01*
X59799942Y-94787217D02*
X58599942Y-94787217D01*
X58599942Y-94787217D02*
X58771371Y-94672931D01*
X58771371Y-94672931D02*
X58885657Y-94558646D01*
X58885657Y-94558646D02*
X58942800Y-94444360D01*
D11*
X55290000Y-95670000D02*
X56620000Y-95670000D01*
X55290000Y-97000000D02*
X55290000Y-95670000D01*
X57890000Y-98330000D02*
X57890000Y-95670000D01*
X96050000Y-95670000D02*
X57890000Y-95670000D01*
X96050000Y-98330000D02*
X57890000Y-98330000D01*
X96050000Y-98330000D02*
X96050000Y-95670000D01*
X51670000Y-54813161D02*
X54330000Y-54813161D01*
X51670000Y-92973161D02*
X51670000Y-54813161D01*
X51670000Y-92973161D02*
X54330000Y-92973161D01*
X53000000Y-52213161D02*
X54330000Y-52213161D01*
X54330000Y-52213161D02*
X54330000Y-53543161D01*
X54330000Y-92973161D02*
X54330000Y-54813161D01*
D12*
G36*
X81220666Y-88603000D02*
G01*
X81178333Y-88645333D01*
X81136000Y-88603000D01*
X81178333Y-88560666D01*
X81220666Y-88603000D01*
G37*
G36*
X81361778Y-88842888D02*
G01*
X81375023Y-88868355D01*
X81305333Y-88899333D01*
X81260511Y-88893223D01*
X81248889Y-88842888D01*
X81261298Y-88832755D01*
X81361778Y-88842888D01*
G37*
G36*
X71230000Y-89995131D02*
G01*
X71230000Y-91524000D01*
X70847046Y-91524000D01*
X70464093Y-91524000D01*
X70487213Y-90021166D01*
X70510333Y-88518333D01*
X70870166Y-88492298D01*
X71230000Y-88466263D01*
X71230000Y-89995131D01*
G37*
G36*
X82528887Y-88564408D02*
G01*
X82573349Y-88642604D01*
X82518889Y-88758222D01*
X82497768Y-88778898D01*
X82444052Y-88802722D01*
X82434222Y-88687666D01*
X82442124Y-88629444D01*
X82504778Y-88560666D01*
X82528887Y-88564408D01*
G37*
G36*
X83014757Y-88570218D02*
G01*
X83083333Y-88645333D01*
X83069005Y-88684282D01*
X82956333Y-88730000D01*
X82897910Y-88720447D01*
X82829333Y-88645333D01*
X82843661Y-88606384D01*
X82956333Y-88560666D01*
X83014757Y-88570218D01*
G37*
G36*
X83082037Y-88920500D02*
G01*
X83061153Y-88999721D01*
X82942222Y-89068666D01*
X82877001Y-89057975D01*
X82877737Y-89005166D01*
X82896178Y-88989089D01*
X83017552Y-88857000D01*
X83054882Y-88833889D01*
X83082037Y-88920500D01*
G37*
G36*
X80680288Y-88560680D02*
G01*
X80703167Y-88636164D01*
X80712666Y-88814666D01*
X80712662Y-88817647D01*
X80691831Y-88995035D01*
X80642663Y-89068666D01*
X80640759Y-89068571D01*
X80603884Y-88991738D01*
X80609940Y-88814666D01*
X80610535Y-88810638D01*
X80646247Y-88633954D01*
X80679943Y-88560666D01*
X80680288Y-88560680D01*
G37*
G36*
X81022731Y-88689302D02*
G01*
X81049899Y-88717257D01*
X81114684Y-88824443D01*
X81048745Y-88900933D01*
X81025469Y-88919844D01*
X81062786Y-88969747D01*
X81267847Y-89006016D01*
X81601666Y-89040201D01*
X81241833Y-89054433D01*
X81120375Y-89058253D01*
X80956481Y-89043659D01*
X80892754Y-88971194D01*
X80882000Y-88808619D01*
X80887902Y-88649100D01*
X80925439Y-88607018D01*
X81022731Y-88689302D01*
G37*
G36*
X81743932Y-89746662D02*
G01*
X81909109Y-89768283D01*
X81972414Y-89852601D01*
X81982666Y-90042333D01*
X81981909Y-90129774D01*
X81957199Y-90274303D01*
X81860836Y-90329695D01*
X81644000Y-90338666D01*
X81544067Y-90338004D01*
X81378891Y-90316382D01*
X81315586Y-90232065D01*
X81305333Y-90042333D01*
X81306090Y-89954892D01*
X81330800Y-89810362D01*
X81427164Y-89754971D01*
X81644000Y-89746000D01*
X81743932Y-89746662D01*
G37*
G36*
X78934666Y-89995131D02*
G01*
X78934666Y-91524000D01*
X77786302Y-91524000D01*
X76637938Y-91524000D01*
X76664469Y-91248833D01*
X76691000Y-90973666D01*
X77355193Y-90948794D01*
X77424686Y-90946649D01*
X77743405Y-90948876D01*
X77990456Y-90969597D01*
X78117193Y-91005211D01*
X78150919Y-91002727D01*
X78180873Y-90901416D01*
X78200685Y-90678081D01*
X78211634Y-90316992D01*
X78215000Y-89802417D01*
X78215000Y-88518333D01*
X78574833Y-88492298D01*
X78934666Y-88466263D01*
X78934666Y-89995131D01*
G37*
G36*
X82236666Y-88707691D02*
G01*
X82188110Y-88776965D01*
X82003833Y-88773439D01*
X81993933Y-88771578D01*
X81871676Y-88757776D01*
X81886413Y-88782075D01*
X81959463Y-88839108D01*
X81886413Y-88916210D01*
X81866992Y-88930771D01*
X81858485Y-88971230D01*
X82003833Y-88960036D01*
X82165107Y-88954703D01*
X82236666Y-88995740D01*
X82236649Y-88996606D01*
X82161057Y-89047529D01*
X81982666Y-89068666D01*
X81979506Y-89068660D01*
X81802239Y-89043447D01*
X81728666Y-88984000D01*
X81717724Y-88948370D01*
X81611541Y-88899333D01*
X81535315Y-88867755D01*
X81450224Y-88730341D01*
X81441384Y-88687666D01*
X82067333Y-88687666D01*
X82109666Y-88730000D01*
X82152000Y-88687666D01*
X82109666Y-88645333D01*
X82067333Y-88687666D01*
X81441384Y-88687666D01*
X81438380Y-88673163D01*
X81460444Y-88601426D01*
X81575483Y-88575309D01*
X81821349Y-88579420D01*
X81908682Y-88584613D01*
X82154264Y-88628135D01*
X82215925Y-88687666D01*
X82236666Y-88707691D01*
G37*
G36*
X76390622Y-90002338D02*
G01*
X76398560Y-91512779D01*
X75253613Y-91518486D01*
X74108666Y-91524193D01*
X74108666Y-91227763D01*
X74108666Y-90931333D01*
X74781003Y-90931333D01*
X74864210Y-90931987D01*
X75173328Y-90946745D01*
X75402281Y-90976971D01*
X75506520Y-91017381D01*
X75558441Y-91073582D01*
X75637844Y-91047992D01*
X75695243Y-90891982D01*
X75717333Y-90630003D01*
X75717333Y-90254000D01*
X74997666Y-90254000D01*
X74278000Y-90254000D01*
X74278000Y-89957666D01*
X75632666Y-89957666D01*
X75675000Y-90000000D01*
X75717333Y-89957666D01*
X75675000Y-89915333D01*
X75632666Y-89957666D01*
X74278000Y-89957666D01*
X74278000Y-89661333D01*
X75003031Y-89661333D01*
X75728062Y-89661333D01*
X75701531Y-89386166D01*
X75675000Y-89111000D01*
X74955333Y-89098979D01*
X74235666Y-89086958D01*
X74209423Y-88782058D01*
X74183180Y-88477158D01*
X75282932Y-88484527D01*
X76382684Y-88491897D01*
X76390387Y-89957666D01*
X76390622Y-90002338D01*
G37*
G36*
X73586201Y-88492455D02*
G01*
X73897000Y-88518333D01*
X73922737Y-90021166D01*
X73948474Y-91524000D01*
X73552240Y-91524000D01*
X73156005Y-91524000D01*
X73202513Y-90676347D01*
X73213378Y-90424518D01*
X73216582Y-90126382D01*
X73206063Y-89930308D01*
X73182646Y-89869716D01*
X73130673Y-89932769D01*
X73006760Y-90116506D01*
X72834726Y-90388532D01*
X72634913Y-90717368D01*
X72473054Y-90987291D01*
X72308749Y-91247824D01*
X72186710Y-91406517D01*
X72081396Y-91488614D01*
X71967265Y-91519361D01*
X71818776Y-91524000D01*
X71484000Y-91524000D01*
X71484000Y-90005306D01*
X71484000Y-88486613D01*
X71822666Y-88491287D01*
X72161333Y-88495961D01*
X72161333Y-89337644D01*
X72164572Y-89583309D01*
X72179467Y-89880572D01*
X72203694Y-90075374D01*
X72234197Y-90134294D01*
X72289184Y-90068731D01*
X72415942Y-89882472D01*
X72590142Y-89608335D01*
X72791232Y-89277919D01*
X72959461Y-88997373D01*
X73121851Y-88739935D01*
X73241077Y-88585073D01*
X73341781Y-88508439D01*
X73448608Y-88485682D01*
X73586201Y-88492455D01*
G37*
G36*
X63774879Y-88481272D02*
G01*
X64092926Y-88520217D01*
X64271436Y-88606565D01*
X64327654Y-88751488D01*
X64278825Y-88966161D01*
X64253762Y-89024908D01*
X64192077Y-89098225D01*
X64076703Y-89136619D01*
X63869145Y-89149328D01*
X63530905Y-89145586D01*
X63244042Y-89135554D01*
X63002103Y-89110652D01*
X62871449Y-89065806D01*
X62819563Y-88994091D01*
X62810975Y-88997975D01*
X62798476Y-89128691D01*
X62787366Y-89387532D01*
X62778605Y-89749725D01*
X62773155Y-90190500D01*
X62763333Y-91524000D01*
X62424666Y-91524000D01*
X62354299Y-91523444D01*
X62162548Y-91500079D01*
X62081528Y-91414225D01*
X62064833Y-91227666D01*
X62065020Y-91180804D01*
X62066314Y-90979429D01*
X62068638Y-90658477D01*
X62071752Y-90250571D01*
X62075416Y-89788333D01*
X62086000Y-88476000D01*
X62318833Y-88477296D01*
X62424512Y-88482214D01*
X62657506Y-88555118D01*
X62786287Y-88730000D01*
X62823502Y-88778594D01*
X62841316Y-88666500D01*
X62847009Y-88601071D01*
X62883862Y-88531729D01*
X62985469Y-88494269D01*
X63186682Y-88478942D01*
X63522354Y-88476000D01*
X63774879Y-88481272D01*
G37*
G36*
X82855900Y-89317628D02*
G01*
X82829849Y-89407014D01*
X82782554Y-89457021D01*
X82859097Y-89517794D01*
X82928699Y-89528857D01*
X83028846Y-89466077D01*
X83029345Y-89464889D01*
X83049929Y-89492050D01*
X83064775Y-89653590D01*
X83070698Y-89915333D01*
X83070703Y-89922734D01*
X83062712Y-90180682D01*
X83041204Y-90317560D01*
X83009895Y-90309291D01*
X82994797Y-90272533D01*
X82933702Y-90200846D01*
X82842055Y-90281004D01*
X82822634Y-90305353D01*
X82791571Y-90401684D01*
X82909542Y-90464251D01*
X82970253Y-90489614D01*
X83042126Y-90570612D01*
X83075294Y-90733461D01*
X83083333Y-91021705D01*
X83083333Y-91524000D01*
X82744666Y-91524000D01*
X82406000Y-91524000D01*
X82406000Y-90211666D01*
X82406792Y-89946871D01*
X82411605Y-89531759D01*
X82418001Y-89280333D01*
X82490666Y-89280333D01*
X82500219Y-89338756D01*
X82575333Y-89407333D01*
X82614282Y-89393005D01*
X82660000Y-89280333D01*
X82650448Y-89221909D01*
X82575333Y-89153333D01*
X82536384Y-89167661D01*
X82490666Y-89280333D01*
X82418001Y-89280333D01*
X82420054Y-89199605D01*
X82431296Y-88979199D01*
X82444485Y-88899333D01*
X82453615Y-88902255D01*
X82551773Y-88977433D01*
X82706100Y-89122463D01*
X82741123Y-89158460D01*
X82829006Y-89280333D01*
X82855900Y-89317628D01*
G37*
G36*
X66357197Y-90563666D02*
G01*
X66470691Y-90935755D01*
X66546027Y-91210489D01*
X66573333Y-91356982D01*
X66553906Y-91452962D01*
X66454972Y-91509827D01*
X66232009Y-91524000D01*
X66173417Y-91522649D01*
X65957219Y-91488009D01*
X65853521Y-91418166D01*
X65771509Y-91184957D01*
X65690549Y-91001793D01*
X65598056Y-90919176D01*
X65452283Y-90905246D01*
X65211487Y-90928141D01*
X65008494Y-90952146D01*
X64835561Y-90998356D01*
X64746627Y-91087051D01*
X64692136Y-91248833D01*
X64653773Y-91378607D01*
X64584016Y-91478021D01*
X64446788Y-91517165D01*
X64191187Y-91524000D01*
X64068452Y-91523004D01*
X63877255Y-91507803D01*
X63806072Y-91463361D01*
X63820239Y-91375833D01*
X63842584Y-91316262D01*
X63917965Y-91107223D01*
X64031512Y-90787797D01*
X64172243Y-90388924D01*
X64219135Y-90255251D01*
X64986205Y-90255251D01*
X65031727Y-90322031D01*
X65209608Y-90338666D01*
X65273373Y-90338839D01*
X65405227Y-90329667D01*
X65457100Y-90274934D01*
X65443319Y-90134746D01*
X65378213Y-89869210D01*
X65320182Y-89676977D01*
X65243229Y-89551814D01*
X65172337Y-89595323D01*
X65108531Y-89807738D01*
X65064334Y-89994436D01*
X65003871Y-90190500D01*
X64986205Y-90255251D01*
X64219135Y-90255251D01*
X64329180Y-89941548D01*
X64427533Y-89662022D01*
X64574631Y-89250308D01*
X64698665Y-88910841D01*
X64788887Y-88672888D01*
X64834546Y-88565715D01*
X64861659Y-88542426D01*
X65021733Y-88494907D01*
X65259913Y-88476000D01*
X65282574Y-88476005D01*
X65486077Y-88484528D01*
X65608141Y-88535594D01*
X65695418Y-88667989D01*
X65794561Y-88920500D01*
X65886480Y-89172111D01*
X66055219Y-89650958D01*
X66215416Y-90125105D01*
X66263854Y-90274934D01*
X66357197Y-90563666D01*
G37*
G36*
X70295526Y-89612164D02*
G01*
X70297510Y-90195368D01*
X70298666Y-91533736D01*
X69945191Y-91507701D01*
X69591715Y-91481666D01*
X69606892Y-90698500D01*
X69608470Y-90530588D01*
X69599883Y-90210353D01*
X69576721Y-89994481D01*
X69541678Y-89915333D01*
X69510663Y-89935019D01*
X69399789Y-90067598D01*
X69240275Y-90297611D01*
X69055376Y-90592666D01*
X69004310Y-90676563D01*
X68793306Y-90992474D01*
X68622457Y-91197174D01*
X68508446Y-91270000D01*
X68487855Y-91265918D01*
X68359443Y-91159230D01*
X68177715Y-90921614D01*
X67957213Y-90571500D01*
X67547000Y-89873000D01*
X67522767Y-90698500D01*
X67498535Y-91524000D01*
X67120601Y-91524000D01*
X66742666Y-91524000D01*
X66742666Y-90264583D01*
X66743185Y-90087483D01*
X66749248Y-89629938D01*
X66761050Y-89226626D01*
X66777240Y-88915910D01*
X66796469Y-88736156D01*
X66848515Y-88557904D01*
X66946317Y-88490240D01*
X67150332Y-88492739D01*
X67218802Y-88500176D01*
X67361013Y-88539792D01*
X67485329Y-88634058D01*
X67625142Y-88814088D01*
X67813847Y-89111000D01*
X67844419Y-89160985D01*
X68036882Y-89481058D01*
X68207466Y-89772925D01*
X68322331Y-89978833D01*
X68345459Y-90021562D01*
X68448689Y-90185628D01*
X68515181Y-90250025D01*
X68573401Y-90181378D01*
X68698588Y-89994716D01*
X68872013Y-89718752D01*
X69075155Y-89382191D01*
X69085408Y-89365000D01*
X69790666Y-89365000D01*
X69833000Y-89407333D01*
X69875333Y-89365000D01*
X69833000Y-89322666D01*
X69790666Y-89365000D01*
X69085408Y-89365000D01*
X69216737Y-89144796D01*
X69398538Y-88852667D01*
X69533460Y-88666804D01*
X69644770Y-88561797D01*
X69755733Y-88512237D01*
X69889616Y-88492713D01*
X69976684Y-88487137D01*
X70091641Y-88497510D01*
X70175131Y-88550599D01*
X70232209Y-88667507D01*
X70267931Y-88869336D01*
X70287352Y-89177187D01*
X70290881Y-89365000D01*
X70295526Y-89612164D01*
G37*
G36*
X80628000Y-90084666D02*
G01*
X80641520Y-90000195D01*
X80666347Y-89878939D01*
X80682125Y-89889231D01*
X80692208Y-90043665D01*
X80699950Y-90354836D01*
X80700336Y-90373299D01*
X80711104Y-90550333D01*
X80723411Y-90752657D01*
X80770529Y-90993084D01*
X80838337Y-91084639D01*
X80923480Y-91017381D01*
X80935139Y-91006783D01*
X81074184Y-90968389D01*
X81326987Y-90941477D01*
X81648997Y-90931333D01*
X82321333Y-90931333D01*
X82321333Y-91213555D01*
X82321333Y-91227666D01*
X82321333Y-91382888D01*
X82321333Y-91524000D01*
X81178333Y-91524000D01*
X80035333Y-91524000D01*
X80035333Y-91408355D01*
X80727643Y-91408355D01*
X80797333Y-91439333D01*
X80842155Y-91433223D01*
X80853778Y-91382888D01*
X80841368Y-91372755D01*
X80740889Y-91382888D01*
X80727643Y-91408355D01*
X80035333Y-91408355D01*
X80035333Y-91239021D01*
X80727643Y-91239021D01*
X80797333Y-91270000D01*
X80842155Y-91263889D01*
X80853778Y-91213555D01*
X80841368Y-91203422D01*
X80740889Y-91213555D01*
X80727643Y-91239021D01*
X80035333Y-91239021D01*
X80035333Y-90550333D01*
X80458666Y-90550333D01*
X80501000Y-90592666D01*
X80543333Y-90550333D01*
X80501000Y-90508000D01*
X80458666Y-90550333D01*
X80035333Y-90550333D01*
X80035333Y-90465666D01*
X80120000Y-90465666D01*
X80162333Y-90508000D01*
X80204666Y-90465666D01*
X80162333Y-90423333D01*
X80120000Y-90465666D01*
X80035333Y-90465666D01*
X80035333Y-90042333D01*
X80035333Y-88560666D01*
X80254055Y-88560666D01*
X80274232Y-88561136D01*
X80417590Y-88613226D01*
X80423359Y-88710569D01*
X80284041Y-88794654D01*
X80275542Y-88796924D01*
X80210963Y-88802849D01*
X80289333Y-88737742D01*
X80310091Y-88722841D01*
X80366769Y-88661034D01*
X80268166Y-88646629D01*
X80157619Y-88691337D01*
X80125952Y-88842283D01*
X80204647Y-89068629D01*
X80298052Y-89169340D01*
X80500980Y-89188407D01*
X80599405Y-89176051D01*
X80690712Y-89219033D01*
X80706716Y-89384510D01*
X80706233Y-89400428D01*
X80686510Y-89528998D01*
X80643216Y-89492000D01*
X80629459Y-89470629D01*
X80509557Y-89395041D01*
X80338908Y-89348429D01*
X80186170Y-89343690D01*
X80120000Y-89393721D01*
X80157991Y-89489434D01*
X80259406Y-89653352D01*
X80335263Y-89769975D01*
X80349598Y-89861175D01*
X80259406Y-89930398D01*
X80186943Y-89992547D01*
X80122693Y-90152373D01*
X80126442Y-90210912D01*
X80161075Y-90235858D01*
X80258783Y-90127000D01*
X80262134Y-90122748D01*
X80349549Y-90022635D01*
X80374697Y-90051416D01*
X80356077Y-90228361D01*
X80353293Y-90250869D01*
X80353966Y-90414211D01*
X80399970Y-90449616D01*
X80427886Y-90391941D01*
X80445292Y-90202777D01*
X80432181Y-89937174D01*
X80417403Y-89745310D01*
X80418810Y-89574987D01*
X80442697Y-89532475D01*
X80444439Y-89534221D01*
X80483556Y-89584129D01*
X80507950Y-89665449D01*
X80525846Y-89824058D01*
X80545466Y-90105833D01*
X80568766Y-90465666D01*
X80628000Y-90084666D01*
G37*
D11*
X95670000Y-56270000D02*
X98330000Y-56270000D01*
X95670000Y-94430000D02*
X95670000Y-56270000D01*
X95670000Y-94430000D02*
X98330000Y-94430000D01*
X97000000Y-53670000D02*
X98330000Y-53670000D01*
X98330000Y-53670000D02*
X98330000Y-55000000D01*
X98330000Y-94430000D02*
X98330000Y-56270000D01*
%LPC*%
D13*
X87200000Y-61325000D03*
D14*
X87200000Y-58785000D03*
X87200000Y-56245000D03*
D13*
X78750000Y-54500000D03*
D14*
X76210000Y-54500000D03*
X73670000Y-54500000D03*
X71130000Y-54500000D03*
D13*
X56620000Y-97000000D03*
D14*
X59160000Y-97000000D03*
X61700000Y-97000000D03*
X64240000Y-97000000D03*
X66780000Y-97000000D03*
X69320000Y-97000000D03*
X71860000Y-97000000D03*
X74400000Y-97000000D03*
X76940000Y-97000000D03*
X79480000Y-97000000D03*
X82020000Y-97000000D03*
X84560000Y-97000000D03*
X87100000Y-97000000D03*
X89640000Y-97000000D03*
X92180000Y-97000000D03*
X94720000Y-97000000D03*
D13*
X53000000Y-53543161D03*
D14*
X53000000Y-56083161D03*
X53000000Y-58623161D03*
X53000000Y-61163161D03*
X53000000Y-63703161D03*
X53000000Y-66243161D03*
X53000000Y-68783161D03*
X53000000Y-71323161D03*
X53000000Y-73863161D03*
X53000000Y-76403161D03*
X53000000Y-78943161D03*
X53000000Y-81483161D03*
X53000000Y-84023161D03*
X53000000Y-86563161D03*
X53000000Y-89103161D03*
X53000000Y-91643161D03*
D13*
X97000000Y-55000000D03*
D14*
X97000000Y-57540000D03*
X97000000Y-60080000D03*
X97000000Y-62620000D03*
X97000000Y-65160000D03*
X97000000Y-67700000D03*
X97000000Y-70240000D03*
X97000000Y-72780000D03*
X97000000Y-75320000D03*
X97000000Y-77860000D03*
X97000000Y-80400000D03*
X97000000Y-82940000D03*
X97000000Y-85480000D03*
X97000000Y-88020000D03*
X97000000Y-90560000D03*
X97000000Y-93100000D03*
%LPD*%
M02*
