M48
; DRILL file {KiCad 8.0.5} date 2024-11-24T11:25:04+0100
; FORMAT={-:-/ absolute / metric / decimal}
; #@! TF.CreationDate,2024-11-24T11:25:04+01:00
; #@! TF.GenerationSoftware,Kicad,Pcbnew,8.0.5
; #@! TF.FileFunction,Plated,1,2,PTH
FMAT,2
METRIC
; #@! TA.AperFunction,Plated,PTH,ViaDrill
T1C0.400
; #@! TA.AperFunction,Plated,PTH,ComponentDrill
T2C0.600
; #@! TA.AperFunction,Plated,PTH,ComponentDrill
T3C0.750
; #@! TA.AperFunction,Plated,PTH,ComponentDrill
T4C0.800
; #@! TA.AperFunction,Plated,PTH,ComponentDrill
T5C0.900
; #@! TA.AperFunction,Plated,PTH,ComponentDrill
T6C1.000
; #@! TA.AperFunction,Plated,PTH,ComponentDrill
T7C1.220
; #@! TA.AperFunction,Plated,PTH,ComponentDrill
T8C1.420
; #@! TA.AperFunction,Plated,PTH,ComponentDrill
T9C1.430
; #@! TA.AperFunction,Plated,PTH,ComponentDrill
T10C2.000
%
G90
G05
T1
X51.73Y-88.33
X51.8Y-87.2
X51.8Y-101.7
X52.75Y-134.25
X53.2Y-120.7
X54.6Y-82.0
X56.8Y-103.3
X57.25Y-70.75
X59.5Y-94.75
X60.1Y-74.411
X60.15Y-104.75
X61.75Y-78.5
X62.375Y-112.625
X62.75Y-86.5
X64.0Y-69.5
X64.23Y-98.17
X64.5Y-142.0
X68.25Y-139.25
X68.395Y-80.57
X68.43Y-81.57
X69.1Y-75.0
X69.85Y-68.2
X70.65Y-87.0
X70.868Y-75.1
X71.05Y-77.8
X72.3Y-121.5
X72.4Y-88.236
X74.069Y-75.719
X74.28Y-154.8
X74.6Y-81.4
X75.5Y-66.45
X75.9Y-113.7
X76.1Y-79.9
X76.1Y-103.5
X76.5Y-77.85
X76.5Y-147.6
X78.0Y-74.425
X79.75Y-60.5
X81.4Y-113.0
X81.87Y-117.67
X82.5Y-103.0
X85.9Y-110.9
X87.5Y-116.6
X89.25Y-72.9
X89.25Y-84.75
X89.25Y-120.5
T2
X74.15Y-51.723
X74.15Y-53.723
X86.25Y-59.5
X88.25Y-59.5
T3
X83.0Y-72.5
X84.27Y-72.5
X85.54Y-72.5
T4
X55.6Y-83.4
X55.9Y-101.6
X55.925Y-106.235
X55.925Y-109.335
X60.6Y-83.4
X60.9Y-101.6
X60.925Y-106.235
X60.925Y-109.335
X67.6Y-83.5
X68.4Y-52.5
X68.4Y-55.0
X72.6Y-83.5
X78.7Y-63.8
X78.7Y-68.8
X83.4Y-63.85
X83.4Y-68.85
X84.932Y-53.75
X87.432Y-53.75
T5
X68.69Y-135.0
X71.23Y-135.0
T6
X52.6Y-82.0
X53.0Y-104.1
X53.1Y-136.7
X54.0Y-56.0
X54.0Y-58.54
X54.0Y-61.08
X54.0Y-63.62
X54.0Y-66.16
X56.54Y-56.0
X56.54Y-58.54
X56.54Y-61.08
X56.54Y-63.62
X56.54Y-66.16
X57.5Y-97.5
X57.5Y-125.0
X60.0Y-97.5
X60.0Y-125.0
X62.5Y-97.5
X62.5Y-125.0
X67.5Y-70.0
X70.0Y-70.0
X72.5Y-70.0
X76.3Y-144.5
X76.5Y-56.0
X77.5Y-97.5
X77.5Y-125.0
X79.75Y-56.0
X80.0Y-97.5
X80.0Y-125.0
X81.5Y-101.5
X82.5Y-97.5
X82.5Y-125.0
X82.75Y-57.5
X84.8Y-101.5
X86.9Y-142.7
T7
X57.5Y-158.23
X60.0Y-141.48
X70.0Y-158.23
X80.0Y-141.48
X82.5Y-158.23
T8
X57.5Y-155.13
X60.0Y-138.38
X70.0Y-155.13
X80.0Y-138.38
X82.5Y-155.13
T9
X57.5Y-146.83
X60.0Y-130.08
X70.0Y-146.83
X80.0Y-130.08
X82.5Y-146.83
T10
X55.25Y-90.0
X55.25Y-117.5
X64.75Y-90.0
X64.75Y-117.5
X65.25Y-62.5
X74.75Y-62.5
X75.25Y-90.0
X75.25Y-117.5
X84.75Y-90.0
X84.75Y-117.5
M30
