G04 #@! TF.GenerationSoftware,KiCad,Pcbnew,8.0.5*
G04 #@! TF.CreationDate,2024-11-24T11:25:01+01:00*
G04 #@! TF.ProjectId,encore,656e636f-7265-42e6-9b69-6361645f7063,rev?*
G04 #@! TF.SameCoordinates,Original*
G04 #@! TF.FileFunction,Legend,Top*
G04 #@! TF.FilePolarity,Positive*
%FSLAX46Y46*%
G04 Gerber Fmt 4.6, Leading zero omitted, Abs format (unit mm)*
G04 Created by KiCad (PCBNEW 8.0.5) date 2024-11-24 11:25:01*
%MOMM*%
%LPD*%
G01*
G04 APERTURE LIST*
G04 Aperture macros list*
%AMRoundRect*
0 Rectangle with rounded corners*
0 $1 Rounding radius*
0 $2 $3 $4 $5 $6 $7 $8 $9 X,Y pos of 4 corners*
0 Add a 4 corners polygon primitive as box body*
4,1,4,$2,$3,$4,$5,$6,$7,$8,$9,$2,$3,0*
0 Add four circle primitives for the rounded corners*
1,1,$1+$1,$2,$3*
1,1,$1+$1,$4,$5*
1,1,$1+$1,$6,$7*
1,1,$1+$1,$8,$9*
0 Add four rect primitives between the rounded corners*
20,1,$1+$1,$2,$3,$4,$5,0*
20,1,$1+$1,$4,$5,$6,$7,0*
20,1,$1+$1,$6,$7,$8,$9,0*
20,1,$1+$1,$8,$9,$2,$3,0*%
G04 Aperture macros list end*
%ADD10C,0.150000*%
%ADD11C,0.120000*%
%ADD12O,4.000000X4.000000*%
%ADD13R,1.800000X1.800000*%
%ADD14C,1.800000*%
%ADD15R,1.930000X1.830000*%
%ADD16C,2.130000*%
%ADD17R,1.600000X1.600000*%
%ADD18C,1.600000*%
%ADD19C,2.000000*%
%ADD20R,1.200000X1.200000*%
%ADD21C,1.200000*%
%ADD22R,1.050000X1.500000*%
%ADD23O,1.050000X1.500000*%
%ADD24RoundRect,0.250000X-0.600000X-0.600000X0.600000X-0.600000X0.600000X0.600000X-0.600000X0.600000X0*%
%ADD25C,1.700000*%
G04 APERTURE END LIST*
D10*
X88630180Y-135261904D02*
X88630180Y-134785714D01*
X88630180Y-134785714D02*
X89630180Y-134785714D01*
X89153990Y-135595238D02*
X89153990Y-135928571D01*
X88630180Y-136071428D02*
X88630180Y-135595238D01*
X88630180Y-135595238D02*
X89630180Y-135595238D01*
X89630180Y-135595238D02*
X89630180Y-136071428D01*
X88630180Y-136500000D02*
X89630180Y-136500000D01*
X89630180Y-136500000D02*
X88630180Y-137071428D01*
X88630180Y-137071428D02*
X89630180Y-137071428D01*
X88630180Y-137547619D02*
X89630180Y-137547619D01*
X88630180Y-138023809D02*
X89630180Y-138023809D01*
X89630180Y-138023809D02*
X88915895Y-138357142D01*
X88915895Y-138357142D02*
X89630180Y-138690475D01*
X89630180Y-138690475D02*
X88630180Y-138690475D01*
X88915895Y-139119047D02*
X88915895Y-139595237D01*
X88630180Y-139023809D02*
X89630180Y-139357142D01*
X89630180Y-139357142D02*
X88630180Y-139690475D01*
X88630180Y-140499999D02*
X88630180Y-140023809D01*
X88630180Y-140023809D02*
X89630180Y-140023809D01*
X88630180Y-141595238D02*
X89630180Y-141595238D01*
X89630180Y-141595238D02*
X89630180Y-141976190D01*
X89630180Y-141976190D02*
X89582561Y-142071428D01*
X89582561Y-142071428D02*
X89534942Y-142119047D01*
X89534942Y-142119047D02*
X89439704Y-142166666D01*
X89439704Y-142166666D02*
X89296847Y-142166666D01*
X89296847Y-142166666D02*
X89201609Y-142119047D01*
X89201609Y-142119047D02*
X89153990Y-142071428D01*
X89153990Y-142071428D02*
X89106371Y-141976190D01*
X89106371Y-141976190D02*
X89106371Y-141595238D01*
X88725419Y-143166666D02*
X88677800Y-143119047D01*
X88677800Y-143119047D02*
X88630180Y-142976190D01*
X88630180Y-142976190D02*
X88630180Y-142880952D01*
X88630180Y-142880952D02*
X88677800Y-142738095D01*
X88677800Y-142738095D02*
X88773038Y-142642857D01*
X88773038Y-142642857D02*
X88868276Y-142595238D01*
X88868276Y-142595238D02*
X89058752Y-142547619D01*
X89058752Y-142547619D02*
X89201609Y-142547619D01*
X89201609Y-142547619D02*
X89392085Y-142595238D01*
X89392085Y-142595238D02*
X89487323Y-142642857D01*
X89487323Y-142642857D02*
X89582561Y-142738095D01*
X89582561Y-142738095D02*
X89630180Y-142880952D01*
X89630180Y-142880952D02*
X89630180Y-142976190D01*
X89630180Y-142976190D02*
X89582561Y-143119047D01*
X89582561Y-143119047D02*
X89534942Y-143166666D01*
X89153990Y-143928571D02*
X89106371Y-144071428D01*
X89106371Y-144071428D02*
X89058752Y-144119047D01*
X89058752Y-144119047D02*
X88963514Y-144166666D01*
X88963514Y-144166666D02*
X88820657Y-144166666D01*
X88820657Y-144166666D02*
X88725419Y-144119047D01*
X88725419Y-144119047D02*
X88677800Y-144071428D01*
X88677800Y-144071428D02*
X88630180Y-143976190D01*
X88630180Y-143976190D02*
X88630180Y-143595238D01*
X88630180Y-143595238D02*
X89630180Y-143595238D01*
X89630180Y-143595238D02*
X89630180Y-143928571D01*
X89630180Y-143928571D02*
X89582561Y-144023809D01*
X89582561Y-144023809D02*
X89534942Y-144071428D01*
X89534942Y-144071428D02*
X89439704Y-144119047D01*
X89439704Y-144119047D02*
X89344466Y-144119047D01*
X89344466Y-144119047D02*
X89249228Y-144071428D01*
X89249228Y-144071428D02*
X89201609Y-144023809D01*
X89201609Y-144023809D02*
X89153990Y-143928571D01*
X89153990Y-143928571D02*
X89153990Y-143595238D01*
X88630180Y-145357143D02*
X89630180Y-145357143D01*
X89630180Y-145357143D02*
X89630180Y-145595238D01*
X89630180Y-145595238D02*
X89582561Y-145738095D01*
X89582561Y-145738095D02*
X89487323Y-145833333D01*
X89487323Y-145833333D02*
X89392085Y-145880952D01*
X89392085Y-145880952D02*
X89201609Y-145928571D01*
X89201609Y-145928571D02*
X89058752Y-145928571D01*
X89058752Y-145928571D02*
X88868276Y-145880952D01*
X88868276Y-145880952D02*
X88773038Y-145833333D01*
X88773038Y-145833333D02*
X88677800Y-145738095D01*
X88677800Y-145738095D02*
X88630180Y-145595238D01*
X88630180Y-145595238D02*
X88630180Y-145357143D01*
X89153990Y-146357143D02*
X89153990Y-146690476D01*
X88630180Y-146833333D02*
X88630180Y-146357143D01*
X88630180Y-146357143D02*
X89630180Y-146357143D01*
X89630180Y-146357143D02*
X89630180Y-146833333D01*
X88677800Y-147214286D02*
X88630180Y-147357143D01*
X88630180Y-147357143D02*
X88630180Y-147595238D01*
X88630180Y-147595238D02*
X88677800Y-147690476D01*
X88677800Y-147690476D02*
X88725419Y-147738095D01*
X88725419Y-147738095D02*
X88820657Y-147785714D01*
X88820657Y-147785714D02*
X88915895Y-147785714D01*
X88915895Y-147785714D02*
X89011133Y-147738095D01*
X89011133Y-147738095D02*
X89058752Y-147690476D01*
X89058752Y-147690476D02*
X89106371Y-147595238D01*
X89106371Y-147595238D02*
X89153990Y-147404762D01*
X89153990Y-147404762D02*
X89201609Y-147309524D01*
X89201609Y-147309524D02*
X89249228Y-147261905D01*
X89249228Y-147261905D02*
X89344466Y-147214286D01*
X89344466Y-147214286D02*
X89439704Y-147214286D01*
X89439704Y-147214286D02*
X89534942Y-147261905D01*
X89534942Y-147261905D02*
X89582561Y-147309524D01*
X89582561Y-147309524D02*
X89630180Y-147404762D01*
X89630180Y-147404762D02*
X89630180Y-147642857D01*
X89630180Y-147642857D02*
X89582561Y-147785714D01*
X88630180Y-148214286D02*
X89630180Y-148214286D01*
X89582561Y-149214285D02*
X89630180Y-149119047D01*
X89630180Y-149119047D02*
X89630180Y-148976190D01*
X89630180Y-148976190D02*
X89582561Y-148833333D01*
X89582561Y-148833333D02*
X89487323Y-148738095D01*
X89487323Y-148738095D02*
X89392085Y-148690476D01*
X89392085Y-148690476D02*
X89201609Y-148642857D01*
X89201609Y-148642857D02*
X89058752Y-148642857D01*
X89058752Y-148642857D02*
X88868276Y-148690476D01*
X88868276Y-148690476D02*
X88773038Y-148738095D01*
X88773038Y-148738095D02*
X88677800Y-148833333D01*
X88677800Y-148833333D02*
X88630180Y-148976190D01*
X88630180Y-148976190D02*
X88630180Y-149071428D01*
X88630180Y-149071428D02*
X88677800Y-149214285D01*
X88677800Y-149214285D02*
X88725419Y-149261904D01*
X88725419Y-149261904D02*
X89058752Y-149261904D01*
X89058752Y-149261904D02*
X89058752Y-149071428D01*
X88630180Y-149690476D02*
X89630180Y-149690476D01*
X89630180Y-149690476D02*
X88630180Y-150261904D01*
X88630180Y-150261904D02*
X89630180Y-150261904D01*
X89011133Y-151500000D02*
X89011133Y-152261905D01*
X89630180Y-153690476D02*
X89630180Y-153785714D01*
X89630180Y-153785714D02*
X89582561Y-153880952D01*
X89582561Y-153880952D02*
X89534942Y-153928571D01*
X89534942Y-153928571D02*
X89439704Y-153976190D01*
X89439704Y-153976190D02*
X89249228Y-154023809D01*
X89249228Y-154023809D02*
X89011133Y-154023809D01*
X89011133Y-154023809D02*
X88820657Y-153976190D01*
X88820657Y-153976190D02*
X88725419Y-153928571D01*
X88725419Y-153928571D02*
X88677800Y-153880952D01*
X88677800Y-153880952D02*
X88630180Y-153785714D01*
X88630180Y-153785714D02*
X88630180Y-153690476D01*
X88630180Y-153690476D02*
X88677800Y-153595238D01*
X88677800Y-153595238D02*
X88725419Y-153547619D01*
X88725419Y-153547619D02*
X88820657Y-153500000D01*
X88820657Y-153500000D02*
X89011133Y-153452381D01*
X89011133Y-153452381D02*
X89249228Y-153452381D01*
X89249228Y-153452381D02*
X89439704Y-153500000D01*
X89439704Y-153500000D02*
X89534942Y-153547619D01*
X89534942Y-153547619D02*
X89582561Y-153595238D01*
X89582561Y-153595238D02*
X89630180Y-153690476D01*
X88630180Y-154500000D02*
X88630180Y-154690476D01*
X88630180Y-154690476D02*
X88677800Y-154785714D01*
X88677800Y-154785714D02*
X88725419Y-154833333D01*
X88725419Y-154833333D02*
X88868276Y-154928571D01*
X88868276Y-154928571D02*
X89058752Y-154976190D01*
X89058752Y-154976190D02*
X89439704Y-154976190D01*
X89439704Y-154976190D02*
X89534942Y-154928571D01*
X89534942Y-154928571D02*
X89582561Y-154880952D01*
X89582561Y-154880952D02*
X89630180Y-154785714D01*
X89630180Y-154785714D02*
X89630180Y-154595238D01*
X89630180Y-154595238D02*
X89582561Y-154500000D01*
X89582561Y-154500000D02*
X89534942Y-154452381D01*
X89534942Y-154452381D02*
X89439704Y-154404762D01*
X89439704Y-154404762D02*
X89201609Y-154404762D01*
X89201609Y-154404762D02*
X89106371Y-154452381D01*
X89106371Y-154452381D02*
X89058752Y-154500000D01*
X89058752Y-154500000D02*
X89011133Y-154595238D01*
X89011133Y-154595238D02*
X89011133Y-154785714D01*
X89011133Y-154785714D02*
X89058752Y-154880952D01*
X89058752Y-154880952D02*
X89106371Y-154928571D01*
X89106371Y-154928571D02*
X89201609Y-154976190D01*
X88725419Y-155404762D02*
X88677800Y-155452381D01*
X88677800Y-155452381D02*
X88630180Y-155404762D01*
X88630180Y-155404762D02*
X88677800Y-155357143D01*
X88677800Y-155357143D02*
X88725419Y-155404762D01*
X88725419Y-155404762D02*
X88630180Y-155404762D01*
X89534942Y-155833333D02*
X89582561Y-155880952D01*
X89582561Y-155880952D02*
X89630180Y-155976190D01*
X89630180Y-155976190D02*
X89630180Y-156214285D01*
X89630180Y-156214285D02*
X89582561Y-156309523D01*
X89582561Y-156309523D02*
X89534942Y-156357142D01*
X89534942Y-156357142D02*
X89439704Y-156404761D01*
X89439704Y-156404761D02*
X89344466Y-156404761D01*
X89344466Y-156404761D02*
X89201609Y-156357142D01*
X89201609Y-156357142D02*
X88630180Y-155785714D01*
X88630180Y-155785714D02*
X88630180Y-156404761D01*
X89630180Y-157023809D02*
X89630180Y-157119047D01*
X89630180Y-157119047D02*
X89582561Y-157214285D01*
X89582561Y-157214285D02*
X89534942Y-157261904D01*
X89534942Y-157261904D02*
X89439704Y-157309523D01*
X89439704Y-157309523D02*
X89249228Y-157357142D01*
X89249228Y-157357142D02*
X89011133Y-157357142D01*
X89011133Y-157357142D02*
X88820657Y-157309523D01*
X88820657Y-157309523D02*
X88725419Y-157261904D01*
X88725419Y-157261904D02*
X88677800Y-157214285D01*
X88677800Y-157214285D02*
X88630180Y-157119047D01*
X88630180Y-157119047D02*
X88630180Y-157023809D01*
X88630180Y-157023809D02*
X88677800Y-156928571D01*
X88677800Y-156928571D02*
X88725419Y-156880952D01*
X88725419Y-156880952D02*
X88820657Y-156833333D01*
X88820657Y-156833333D02*
X89011133Y-156785714D01*
X89011133Y-156785714D02*
X89249228Y-156785714D01*
X89249228Y-156785714D02*
X89439704Y-156833333D01*
X89439704Y-156833333D02*
X89534942Y-156880952D01*
X89534942Y-156880952D02*
X89582561Y-156928571D01*
X89582561Y-156928571D02*
X89630180Y-157023809D01*
X89534942Y-157738095D02*
X89582561Y-157785714D01*
X89582561Y-157785714D02*
X89630180Y-157880952D01*
X89630180Y-157880952D02*
X89630180Y-158119047D01*
X89630180Y-158119047D02*
X89582561Y-158214285D01*
X89582561Y-158214285D02*
X89534942Y-158261904D01*
X89534942Y-158261904D02*
X89439704Y-158309523D01*
X89439704Y-158309523D02*
X89344466Y-158309523D01*
X89344466Y-158309523D02*
X89201609Y-158261904D01*
X89201609Y-158261904D02*
X88630180Y-157690476D01*
X88630180Y-157690476D02*
X88630180Y-158309523D01*
X89296847Y-159166666D02*
X88630180Y-159166666D01*
X89677800Y-158928571D02*
X88963514Y-158690476D01*
X88963514Y-158690476D02*
X88963514Y-159309523D01*
X55193922Y-143869819D02*
X55765350Y-143869819D01*
X55479636Y-144869819D02*
X55479636Y-143869819D01*
X56670112Y-144869819D02*
X56336779Y-144393628D01*
X56098684Y-144869819D02*
X56098684Y-143869819D01*
X56098684Y-143869819D02*
X56479636Y-143869819D01*
X56479636Y-143869819D02*
X56574874Y-143917438D01*
X56574874Y-143917438D02*
X56622493Y-143965057D01*
X56622493Y-143965057D02*
X56670112Y-144060295D01*
X56670112Y-144060295D02*
X56670112Y-144203152D01*
X56670112Y-144203152D02*
X56622493Y-144298390D01*
X56622493Y-144298390D02*
X56574874Y-144346009D01*
X56574874Y-144346009D02*
X56479636Y-144393628D01*
X56479636Y-144393628D02*
X56098684Y-144393628D01*
X57098684Y-144869819D02*
X57098684Y-143869819D01*
X58098683Y-143917438D02*
X58003445Y-143869819D01*
X58003445Y-143869819D02*
X57860588Y-143869819D01*
X57860588Y-143869819D02*
X57717731Y-143917438D01*
X57717731Y-143917438D02*
X57622493Y-144012676D01*
X57622493Y-144012676D02*
X57574874Y-144107914D01*
X57574874Y-144107914D02*
X57527255Y-144298390D01*
X57527255Y-144298390D02*
X57527255Y-144441247D01*
X57527255Y-144441247D02*
X57574874Y-144631723D01*
X57574874Y-144631723D02*
X57622493Y-144726961D01*
X57622493Y-144726961D02*
X57717731Y-144822200D01*
X57717731Y-144822200D02*
X57860588Y-144869819D01*
X57860588Y-144869819D02*
X57955826Y-144869819D01*
X57955826Y-144869819D02*
X58098683Y-144822200D01*
X58098683Y-144822200D02*
X58146302Y-144774580D01*
X58146302Y-144774580D02*
X58146302Y-144441247D01*
X58146302Y-144441247D02*
X57955826Y-144441247D01*
X59098683Y-143917438D02*
X59003445Y-143869819D01*
X59003445Y-143869819D02*
X58860588Y-143869819D01*
X58860588Y-143869819D02*
X58717731Y-143917438D01*
X58717731Y-143917438D02*
X58622493Y-144012676D01*
X58622493Y-144012676D02*
X58574874Y-144107914D01*
X58574874Y-144107914D02*
X58527255Y-144298390D01*
X58527255Y-144298390D02*
X58527255Y-144441247D01*
X58527255Y-144441247D02*
X58574874Y-144631723D01*
X58574874Y-144631723D02*
X58622493Y-144726961D01*
X58622493Y-144726961D02*
X58717731Y-144822200D01*
X58717731Y-144822200D02*
X58860588Y-144869819D01*
X58860588Y-144869819D02*
X58955826Y-144869819D01*
X58955826Y-144869819D02*
X59098683Y-144822200D01*
X59098683Y-144822200D02*
X59146302Y-144774580D01*
X59146302Y-144774580D02*
X59146302Y-144441247D01*
X59146302Y-144441247D02*
X58955826Y-144441247D01*
X59574874Y-144346009D02*
X59908207Y-144346009D01*
X60051064Y-144869819D02*
X59574874Y-144869819D01*
X59574874Y-144869819D02*
X59574874Y-143869819D01*
X59574874Y-143869819D02*
X60051064Y-143869819D01*
X61051064Y-144869819D02*
X60717731Y-144393628D01*
X60479636Y-144869819D02*
X60479636Y-143869819D01*
X60479636Y-143869819D02*
X60860588Y-143869819D01*
X60860588Y-143869819D02*
X60955826Y-143917438D01*
X60955826Y-143917438D02*
X61003445Y-143965057D01*
X61003445Y-143965057D02*
X61051064Y-144060295D01*
X61051064Y-144060295D02*
X61051064Y-144203152D01*
X61051064Y-144203152D02*
X61003445Y-144298390D01*
X61003445Y-144298390D02*
X60955826Y-144346009D01*
X60955826Y-144346009D02*
X60860588Y-144393628D01*
X60860588Y-144393628D02*
X60479636Y-144393628D01*
G36*
X68728332Y-111238436D02*
G01*
X68690026Y-111138599D01*
X68625335Y-111055345D01*
X68543649Y-110986080D01*
X68526099Y-110973677D01*
X68433808Y-110914705D01*
X68348796Y-110858093D01*
X68271170Y-110793487D01*
X68207241Y-110703817D01*
X68197763Y-110599059D01*
X68233496Y-110519874D01*
X68309760Y-110452269D01*
X68408790Y-110429559D01*
X68455757Y-110437808D01*
X68541650Y-110501949D01*
X68580192Y-110601976D01*
X68586591Y-110701243D01*
X68584717Y-110732854D01*
X68670531Y-110787121D01*
X68717096Y-110732854D01*
X68717421Y-110631381D01*
X68698517Y-110532357D01*
X68655299Y-110442172D01*
X68618911Y-110398241D01*
X68532495Y-110338701D01*
X68431241Y-110312649D01*
X68360990Y-110313733D01*
X68251299Y-110346760D01*
X68161668Y-110412265D01*
X68098454Y-110501919D01*
X68068014Y-110607397D01*
X68076702Y-110720370D01*
X68089392Y-110758255D01*
X68143653Y-110847759D01*
X68217991Y-110916759D01*
X68304078Y-110973728D01*
X68393584Y-111027141D01*
X68478180Y-111085475D01*
X68549536Y-111157202D01*
X68572505Y-111191542D01*
X68604689Y-111294150D01*
X68591392Y-111395553D01*
X68539028Y-111481362D01*
X68454008Y-111537188D01*
X68393230Y-111550090D01*
X68295720Y-111536150D01*
X68215495Y-111479926D01*
X68198325Y-111456301D01*
X68163929Y-111356433D01*
X68166279Y-111249168D01*
X68191814Y-111143569D01*
X68211025Y-111088960D01*
X68142685Y-111016550D01*
X68083042Y-111057208D01*
X68053477Y-111152839D01*
X68036143Y-111253614D01*
X68035044Y-111354448D01*
X68054181Y-111450253D01*
X68109494Y-111551418D01*
X68187242Y-111618252D01*
X68206629Y-111629225D01*
X68313751Y-111664724D01*
X68426076Y-111666020D01*
X68533939Y-111634954D01*
X68627676Y-111573366D01*
X68671179Y-111525177D01*
X68718140Y-111433539D01*
X68736053Y-111331900D01*
X68728332Y-111238436D01*
G37*
G36*
X68969155Y-110596566D02*
G01*
X69015178Y-110696378D01*
X69061280Y-110796151D01*
X69107452Y-110895889D01*
X69153681Y-110995598D01*
X69199955Y-111095284D01*
X69246264Y-111194953D01*
X69292596Y-111294611D01*
X69338939Y-111394263D01*
X69347288Y-111497773D01*
X69351051Y-111598722D01*
X69351151Y-111612128D01*
X69435738Y-111668332D01*
X69483531Y-111612128D01*
X69483314Y-111497123D01*
X69482985Y-111382098D01*
X69482611Y-111267056D01*
X69482260Y-111152003D01*
X69481998Y-111036944D01*
X69481895Y-110921883D01*
X69482017Y-110806825D01*
X69482431Y-110691775D01*
X69483207Y-110576738D01*
X69484411Y-110461719D01*
X69485484Y-110385052D01*
X69401814Y-110328848D01*
X69353105Y-110385052D01*
X69351546Y-110498625D01*
X69350482Y-110612198D01*
X69349833Y-110725771D01*
X69349522Y-110839344D01*
X69349471Y-110952916D01*
X69349600Y-111066489D01*
X69349685Y-111111919D01*
X69306133Y-111018290D01*
X69262666Y-110924615D01*
X69219280Y-110830894D01*
X69175968Y-110737128D01*
X69132724Y-110643316D01*
X69089544Y-110549458D01*
X69046421Y-110455554D01*
X69003349Y-110361605D01*
X68912217Y-110325973D01*
X68909071Y-110326922D01*
X68852407Y-110383098D01*
X68842421Y-110496963D01*
X68836300Y-110611019D01*
X68833529Y-110725225D01*
X68833594Y-110839539D01*
X68835980Y-110953921D01*
X68840174Y-111068330D01*
X68845661Y-111182724D01*
X68851926Y-111297062D01*
X68858455Y-111411304D01*
X68864734Y-111525408D01*
X68868527Y-111601381D01*
X68949948Y-111658723D01*
X69000907Y-111601381D01*
X68994473Y-111476000D01*
X68987359Y-111350475D01*
X68980256Y-111224847D01*
X68973857Y-111099157D01*
X68968855Y-110973443D01*
X68965942Y-110847747D01*
X68965811Y-110722108D01*
X68969155Y-110596566D01*
G37*
G36*
X70007187Y-110313733D02*
G01*
X70077971Y-110356830D01*
X70136216Y-110436215D01*
X70175874Y-110530976D01*
X70205512Y-110634180D01*
X70232908Y-110750166D01*
X70255597Y-110868088D01*
X70273914Y-110987452D01*
X70288189Y-111107766D01*
X70298754Y-111228539D01*
X70305942Y-111349277D01*
X70310085Y-111469488D01*
X70311514Y-111588681D01*
X70264108Y-111644885D01*
X70179623Y-111588681D01*
X70177707Y-111488602D01*
X70173089Y-111388524D01*
X70166365Y-111288628D01*
X70158129Y-111189099D01*
X70152889Y-111131599D01*
X70142090Y-111028098D01*
X70128814Y-110924872D01*
X70112212Y-110822247D01*
X70016041Y-110825590D01*
X69910253Y-110828555D01*
X69804466Y-110832505D01*
X69795787Y-110879735D01*
X69776496Y-110998292D01*
X69760167Y-111117402D01*
X69746209Y-111236896D01*
X69734028Y-111356606D01*
X69723033Y-111476366D01*
X69712630Y-111596008D01*
X69666305Y-111650147D01*
X69580739Y-111596008D01*
X69591216Y-111471039D01*
X69601996Y-111345193D01*
X69613978Y-111218925D01*
X69628061Y-111092684D01*
X69645144Y-110966925D01*
X69666125Y-110842099D01*
X69691903Y-110718658D01*
X69693539Y-110712337D01*
X69828890Y-110712337D01*
X69877480Y-110710594D01*
X69982588Y-110707495D01*
X70087787Y-110704033D01*
X70087299Y-110702568D01*
X70061226Y-110603527D01*
X70025261Y-110508150D01*
X69988136Y-110447090D01*
X69971528Y-110430969D01*
X69966154Y-110426573D01*
X69947103Y-110429016D01*
X69898743Y-110497404D01*
X69886746Y-110522707D01*
X69853312Y-110615945D01*
X69828890Y-110712337D01*
X69693539Y-110712337D01*
X69723377Y-110597055D01*
X69734478Y-110560411D01*
X69770744Y-110465895D01*
X69823806Y-110377286D01*
X69908633Y-110312613D01*
X70007187Y-110313733D01*
G37*
G36*
X70621931Y-110322549D02*
G01*
X70724040Y-110339928D01*
X70822119Y-110372054D01*
X70913328Y-110420711D01*
X70941065Y-110440425D01*
X71015925Y-110510745D01*
X71074145Y-110594770D01*
X71110430Y-110688558D01*
X71119487Y-110788168D01*
X71096022Y-110889658D01*
X71056640Y-110961654D01*
X70980746Y-111040457D01*
X70886321Y-111096434D01*
X70779655Y-111132715D01*
X70683251Y-111150509D01*
X70710358Y-111187713D01*
X70757267Y-111278285D01*
X70792672Y-111377655D01*
X70808149Y-111430720D01*
X70853733Y-111521758D01*
X70888415Y-111522735D01*
X70924041Y-111508949D01*
X71007117Y-111454836D01*
X71069490Y-111444156D01*
X71100418Y-111538855D01*
X71026452Y-111590438D01*
X70934601Y-111634998D01*
X70836147Y-111642903D01*
X70756534Y-111601222D01*
X70700837Y-111514919D01*
X70685831Y-111475150D01*
X70655682Y-111378461D01*
X70619911Y-111283482D01*
X70557711Y-111197404D01*
X70563137Y-111298512D01*
X70568885Y-111399576D01*
X70574540Y-111500547D01*
X70579692Y-111601381D01*
X70528734Y-111658723D01*
X70447313Y-111601381D01*
X70443520Y-111525408D01*
X70437241Y-111411304D01*
X70430712Y-111297062D01*
X70424447Y-111182724D01*
X70418960Y-111068330D01*
X70414766Y-110953921D01*
X70412379Y-110839539D01*
X70412364Y-110813785D01*
X70544451Y-110813785D01*
X70546252Y-110926694D01*
X70549895Y-111039623D01*
X70585985Y-111038489D01*
X70699952Y-111025586D01*
X70811342Y-110994781D01*
X70905860Y-110941377D01*
X70969208Y-110860681D01*
X70987090Y-110747997D01*
X70981736Y-110709839D01*
X70939584Y-110611808D01*
X70866108Y-110537194D01*
X70771354Y-110484391D01*
X70665369Y-110451797D01*
X70558199Y-110437808D01*
X70555122Y-110475366D01*
X70548384Y-110588102D01*
X70544994Y-110700914D01*
X70544451Y-110813785D01*
X70412364Y-110813785D01*
X70412314Y-110725225D01*
X70415085Y-110611019D01*
X70421207Y-110496963D01*
X70431193Y-110383098D01*
X70483949Y-110327411D01*
X70518632Y-110318129D01*
X70621931Y-110322549D01*
G37*
G36*
X71222540Y-111616036D02*
G01*
X71284577Y-111689797D01*
X71394128Y-111691667D01*
X71503724Y-111690469D01*
X71613412Y-111689179D01*
X71723237Y-111690774D01*
X71782099Y-111611820D01*
X71723237Y-111572072D01*
X71618961Y-111570287D01*
X71514685Y-111571393D01*
X71410408Y-111572716D01*
X71352477Y-111572561D01*
X71352093Y-111451399D01*
X71351497Y-111330189D01*
X71350834Y-111208952D01*
X71350249Y-111087710D01*
X71349888Y-110966486D01*
X71349895Y-110845302D01*
X71350034Y-110796845D01*
X71450601Y-110795978D01*
X71551168Y-110794853D01*
X71618213Y-110795868D01*
X71677289Y-110716451D01*
X71618213Y-110676678D01*
X71517801Y-110675853D01*
X71417491Y-110677502D01*
X71350523Y-110678143D01*
X71351854Y-110579225D01*
X71353751Y-110480307D01*
X71355408Y-110414361D01*
X71459455Y-110414857D01*
X71563503Y-110414666D01*
X71667550Y-110414567D01*
X71771598Y-110415338D01*
X71830674Y-110334762D01*
X71771598Y-110296147D01*
X71666446Y-110295373D01*
X71561264Y-110295642D01*
X71456020Y-110296033D01*
X71350684Y-110295627D01*
X71290439Y-110294682D01*
X71224494Y-110354277D01*
X71221451Y-110471056D01*
X71219372Y-110587834D01*
X71218110Y-110704613D01*
X71217521Y-110821392D01*
X71217461Y-110938170D01*
X71217783Y-111054949D01*
X71218344Y-111171728D01*
X71218998Y-111288506D01*
X71219601Y-111405285D01*
X71220007Y-111522063D01*
X71220097Y-111599916D01*
X71222540Y-111616036D01*
G37*
G36*
X72355826Y-110508150D02*
G01*
X72321558Y-110619859D01*
X72286676Y-110731342D01*
X72251263Y-110842630D01*
X72215400Y-110953755D01*
X72179171Y-111064748D01*
X72142656Y-111175640D01*
X72105939Y-111286463D01*
X72069101Y-111397248D01*
X72032224Y-111508026D01*
X71995391Y-111618830D01*
X71970900Y-111692728D01*
X72040838Y-111765834D01*
X72098394Y-111723991D01*
X72135153Y-111613278D01*
X72172010Y-111502588D01*
X72208883Y-111391892D01*
X72245690Y-111281160D01*
X72282349Y-111170363D01*
X72318778Y-111059474D01*
X72354894Y-110948461D01*
X72390616Y-110837298D01*
X72425861Y-110725954D01*
X72460548Y-110614401D01*
X72483321Y-110539902D01*
X72418402Y-110465939D01*
X72355826Y-110508150D01*
G37*
G36*
X72955198Y-111636552D02*
G01*
X73054818Y-111656338D01*
X73152879Y-111638991D01*
X73232658Y-111592100D01*
X73300978Y-111511828D01*
X73344705Y-111415940D01*
X73369289Y-111311900D01*
X73380181Y-111207173D01*
X73298775Y-111151323D01*
X73247801Y-111207173D01*
X73233131Y-111314915D01*
X73200332Y-111421448D01*
X73143821Y-111506769D01*
X73043986Y-111538318D01*
X73012351Y-111530062D01*
X72926251Y-111469477D01*
X72867603Y-111376600D01*
X72833719Y-111283750D01*
X72816957Y-111216943D01*
X72800106Y-111114667D01*
X72793029Y-111010261D01*
X72795542Y-110905382D01*
X72807460Y-110801686D01*
X72818422Y-110743600D01*
X72843377Y-110646851D01*
X72884365Y-110546269D01*
X72947450Y-110464220D01*
X72994277Y-110434877D01*
X73096421Y-110423350D01*
X73180904Y-110481582D01*
X73225881Y-110569738D01*
X73243167Y-110669027D01*
X73241939Y-110709406D01*
X73326819Y-110763545D01*
X73373831Y-110709406D01*
X73370683Y-110600354D01*
X73340403Y-110497058D01*
X73284711Y-110408060D01*
X73205326Y-110341897D01*
X73103968Y-110307110D01*
X73065596Y-110303963D01*
X72968767Y-110317592D01*
X72875477Y-110367410D01*
X72801919Y-110444813D01*
X72746558Y-110540413D01*
X72717306Y-110614640D01*
X72687471Y-110724007D01*
X72669049Y-110836717D01*
X72661497Y-110951165D01*
X72664275Y-111065749D01*
X72676841Y-111178864D01*
X72683112Y-111215966D01*
X72709729Y-111325884D01*
X72745175Y-111418941D01*
X72794159Y-111504628D01*
X72870787Y-111587315D01*
X72955198Y-111636552D01*
G37*
G36*
X74069923Y-111511500D02*
G01*
X73969372Y-111544684D01*
X73872053Y-111559024D01*
X73768527Y-111541297D01*
X73687477Y-111477943D01*
X73637842Y-111386610D01*
X73628332Y-111358604D01*
X73604062Y-111259087D01*
X73591226Y-111156470D01*
X73587732Y-111052014D01*
X73591490Y-110946983D01*
X73600409Y-110842641D01*
X73612398Y-110740251D01*
X73617585Y-110700125D01*
X73631788Y-110598701D01*
X73647977Y-110497580D01*
X73664989Y-110396495D01*
X73668387Y-110376259D01*
X73602284Y-110301430D01*
X73540893Y-110344996D01*
X73521948Y-110456227D01*
X73503795Y-110567805D01*
X73487439Y-110679718D01*
X73473888Y-110791956D01*
X73464147Y-110904506D01*
X73459223Y-111017359D01*
X73458827Y-111062581D01*
X73461788Y-111163017D01*
X73472553Y-111268519D01*
X73494632Y-111373208D01*
X73531537Y-111471202D01*
X73586778Y-111556619D01*
X73663866Y-111623580D01*
X73701605Y-111643879D01*
X73795843Y-111672029D01*
X73906764Y-111674663D01*
X74003745Y-111657733D01*
X74097956Y-111629022D01*
X74136845Y-111614570D01*
X74133734Y-111516771D01*
X74069923Y-111511500D01*
G37*
G36*
X74604815Y-110313733D02*
G01*
X74675598Y-110356830D01*
X74733843Y-110436215D01*
X74773501Y-110530976D01*
X74803140Y-110634180D01*
X74830535Y-110750166D01*
X74853225Y-110868088D01*
X74871541Y-110987452D01*
X74885816Y-111107766D01*
X74896381Y-111228539D01*
X74903569Y-111349277D01*
X74907712Y-111469488D01*
X74909141Y-111588681D01*
X74861735Y-111644885D01*
X74777250Y-111588681D01*
X74775334Y-111488602D01*
X74770717Y-111388524D01*
X74763992Y-111288628D01*
X74755757Y-111189099D01*
X74750516Y-111131599D01*
X74739717Y-111028098D01*
X74726441Y-110924872D01*
X74709839Y-110822247D01*
X74613668Y-110825590D01*
X74507881Y-110828555D01*
X74402093Y-110832505D01*
X74393414Y-110879735D01*
X74374123Y-110998292D01*
X74357794Y-111117402D01*
X74343836Y-111236896D01*
X74331656Y-111356606D01*
X74320660Y-111476366D01*
X74310258Y-111596008D01*
X74263933Y-111650147D01*
X74178367Y-111596008D01*
X74188843Y-111471039D01*
X74199623Y-111345193D01*
X74211606Y-111218925D01*
X74225689Y-111092684D01*
X74242771Y-110966925D01*
X74263752Y-110842099D01*
X74289530Y-110718658D01*
X74291166Y-110712337D01*
X74426517Y-110712337D01*
X74475107Y-110710594D01*
X74580216Y-110707495D01*
X74685415Y-110704033D01*
X74684926Y-110702568D01*
X74658853Y-110603527D01*
X74622889Y-110508150D01*
X74585764Y-110447090D01*
X74569155Y-110430969D01*
X74563782Y-110426573D01*
X74544731Y-110429016D01*
X74496371Y-110497404D01*
X74484373Y-110522707D01*
X74450940Y-110615945D01*
X74426517Y-110712337D01*
X74291166Y-110712337D01*
X74321004Y-110597055D01*
X74332105Y-110560411D01*
X74368372Y-110465895D01*
X74421433Y-110377286D01*
X74506260Y-110312613D01*
X74604815Y-110313733D01*
G37*
G36*
X75219559Y-110322549D02*
G01*
X75321667Y-110339928D01*
X75419746Y-110372054D01*
X75510956Y-110420711D01*
X75538692Y-110440425D01*
X75613553Y-110510745D01*
X75671773Y-110594770D01*
X75708058Y-110688558D01*
X75717114Y-110788168D01*
X75693649Y-110889658D01*
X75685087Y-110908907D01*
X75629642Y-110992412D01*
X75539965Y-111066869D01*
X75451117Y-111110005D01*
X75354134Y-111138261D01*
X75253421Y-111153808D01*
X75153384Y-111158813D01*
X75159253Y-111269524D01*
X75165535Y-111380280D01*
X75171725Y-111490945D01*
X75177320Y-111601381D01*
X75126158Y-111658723D01*
X75044940Y-111601381D01*
X75041147Y-111525408D01*
X75034869Y-111411304D01*
X75028339Y-111297062D01*
X75022074Y-111182724D01*
X75016587Y-111068330D01*
X75012393Y-110953921D01*
X75010007Y-110839539D01*
X75009992Y-110813785D01*
X75142078Y-110813785D01*
X75143879Y-110926694D01*
X75147522Y-111039623D01*
X75183612Y-111038489D01*
X75297579Y-111025586D01*
X75408969Y-110994781D01*
X75503487Y-110941377D01*
X75566835Y-110860681D01*
X75584717Y-110747997D01*
X75579364Y-110709839D01*
X75537212Y-110611808D01*
X75463736Y-110537194D01*
X75368982Y-110484391D01*
X75262997Y-110451797D01*
X75155826Y-110437808D01*
X75152749Y-110475366D01*
X75146011Y-110588102D01*
X75142621Y-110700914D01*
X75142078Y-110813785D01*
X75009992Y-110813785D01*
X75009942Y-110725225D01*
X75012713Y-110611019D01*
X75018834Y-110496963D01*
X75028820Y-110383098D01*
X75081577Y-110327411D01*
X75116259Y-110318129D01*
X75219559Y-110322549D01*
G37*
G36*
X76667690Y-111054766D02*
G01*
X76565749Y-111054807D01*
X76463808Y-111055093D01*
X76434682Y-111055254D01*
X76375606Y-111136861D01*
X76434682Y-111174445D01*
X76536623Y-111174043D01*
X76638564Y-111173957D01*
X76667690Y-111173956D01*
X76726766Y-111092478D01*
X76667690Y-111054766D01*
G37*
G36*
X77648309Y-110322549D02*
G01*
X77750418Y-110339928D01*
X77848497Y-110372054D01*
X77939706Y-110420711D01*
X77967443Y-110440425D01*
X78042304Y-110510745D01*
X78100523Y-110594770D01*
X78136808Y-110688558D01*
X78145865Y-110788168D01*
X78122400Y-110889658D01*
X78083019Y-110961654D01*
X78007124Y-111040457D01*
X77912699Y-111096434D01*
X77806033Y-111132715D01*
X77709630Y-111150509D01*
X77736737Y-111187713D01*
X77783645Y-111278285D01*
X77819050Y-111377655D01*
X77834527Y-111430720D01*
X77880111Y-111521758D01*
X77914794Y-111522735D01*
X77950419Y-111508949D01*
X78033496Y-111454836D01*
X78095868Y-111444156D01*
X78126796Y-111538855D01*
X78052831Y-111590438D01*
X77960979Y-111634998D01*
X77862526Y-111642903D01*
X77782913Y-111601222D01*
X77727215Y-111514919D01*
X77712209Y-111475150D01*
X77682061Y-111378461D01*
X77646290Y-111283482D01*
X77584089Y-111197404D01*
X77589516Y-111298512D01*
X77595263Y-111399576D01*
X77600919Y-111500547D01*
X77606071Y-111601381D01*
X77555112Y-111658723D01*
X77473691Y-111601381D01*
X77469898Y-111525408D01*
X77463619Y-111411304D01*
X77457090Y-111297062D01*
X77450825Y-111182724D01*
X77445338Y-111068330D01*
X77441144Y-110953921D01*
X77438758Y-110839539D01*
X77438743Y-110813785D01*
X77570829Y-110813785D01*
X77572630Y-110926694D01*
X77576273Y-111039623D01*
X77612363Y-111038489D01*
X77726330Y-111025586D01*
X77837720Y-110994781D01*
X77932238Y-110941377D01*
X77995586Y-110860681D01*
X78013468Y-110747997D01*
X78008114Y-110709839D01*
X77965963Y-110611808D01*
X77892486Y-110537194D01*
X77797733Y-110484391D01*
X77691747Y-110451797D01*
X77584577Y-110437808D01*
X77581500Y-110475366D01*
X77574762Y-110588102D01*
X77571372Y-110700914D01*
X77570829Y-110813785D01*
X77438743Y-110813785D01*
X77438693Y-110725225D01*
X77441464Y-110611019D01*
X77447585Y-110496963D01*
X77457571Y-110383098D01*
X77510327Y-110327411D01*
X77545010Y-110318129D01*
X77648309Y-110322549D01*
G37*
G36*
X78248918Y-111616036D02*
G01*
X78310956Y-111689797D01*
X78420506Y-111691667D01*
X78530102Y-111690469D01*
X78639790Y-111689179D01*
X78749616Y-111690774D01*
X78808477Y-111611820D01*
X78749616Y-111572072D01*
X78645339Y-111570287D01*
X78541063Y-111571393D01*
X78436786Y-111572716D01*
X78378855Y-111572561D01*
X78378471Y-111451399D01*
X78377875Y-111330189D01*
X78377212Y-111208952D01*
X78376627Y-111087710D01*
X78376266Y-110966486D01*
X78376274Y-110845302D01*
X78376413Y-110796845D01*
X78476980Y-110795978D01*
X78577547Y-110794853D01*
X78644591Y-110795868D01*
X78703668Y-110716451D01*
X78644591Y-110676678D01*
X78544179Y-110675853D01*
X78443869Y-110677502D01*
X78376901Y-110678143D01*
X78378232Y-110579225D01*
X78380130Y-110480307D01*
X78381786Y-110414361D01*
X78485833Y-110414857D01*
X78589881Y-110414666D01*
X78693928Y-110414567D01*
X78797976Y-110415338D01*
X78857052Y-110334762D01*
X78797976Y-110296147D01*
X78692824Y-110295373D01*
X78587642Y-110295642D01*
X78482398Y-110296033D01*
X78377062Y-110295627D01*
X78316817Y-110294682D01*
X78250872Y-110354277D01*
X78247829Y-110471056D01*
X78245750Y-110587834D01*
X78244488Y-110704613D01*
X78243899Y-110821392D01*
X78243839Y-110938170D01*
X78244161Y-111054949D01*
X78244722Y-111171728D01*
X78245376Y-111288506D01*
X78245979Y-111405285D01*
X78246385Y-111522063D01*
X78246475Y-111599916D01*
X78248918Y-111616036D01*
G37*
G36*
X79238590Y-111631667D02*
G01*
X79334505Y-111650398D01*
X79342637Y-111643879D01*
X79387151Y-111555964D01*
X79410048Y-111471444D01*
X79440098Y-111369843D01*
X79468685Y-111267908D01*
X79496199Y-111165770D01*
X79511165Y-111108988D01*
X79540614Y-110997458D01*
X79570215Y-110884705D01*
X79598403Y-110771008D01*
X79623612Y-110656647D01*
X79644278Y-110541902D01*
X79658834Y-110427051D01*
X79662595Y-110381144D01*
X79581543Y-110325293D01*
X79530216Y-110381144D01*
X79519173Y-110488633D01*
X79501718Y-110596140D01*
X79479385Y-110703396D01*
X79453704Y-110810134D01*
X79426207Y-110916084D01*
X79398427Y-111020979D01*
X79387578Y-111062581D01*
X79361749Y-111160253D01*
X79335195Y-111257858D01*
X79307656Y-111355334D01*
X79291835Y-111409406D01*
X79285484Y-111430411D01*
X79245369Y-111337963D01*
X79207274Y-111244834D01*
X79170933Y-111151205D01*
X79163852Y-111132435D01*
X79122223Y-111019120D01*
X79090219Y-110925934D01*
X79060949Y-110830998D01*
X79035873Y-110734776D01*
X79016452Y-110637730D01*
X79004145Y-110540325D01*
X79000989Y-110418771D01*
X79004117Y-110370397D01*
X78918775Y-110316130D01*
X78871737Y-110370397D01*
X78867871Y-110471124D01*
X78873966Y-110572531D01*
X78888533Y-110674065D01*
X78910083Y-110775169D01*
X78937129Y-110875288D01*
X78968183Y-110973868D01*
X79001754Y-111070352D01*
X79036357Y-111164187D01*
X79076283Y-111268115D01*
X79118545Y-111371347D01*
X79163235Y-111473605D01*
X79210446Y-111574615D01*
X79238590Y-111631667D01*
G37*
G36*
X79909769Y-111771374D02*
G01*
X79897069Y-111751835D01*
X79895115Y-111749881D01*
X79879483Y-111741088D01*
X79860432Y-111737180D01*
X79841381Y-111741088D01*
X79825261Y-111749881D01*
X79817445Y-111759162D01*
X79810607Y-111781632D01*
X79812561Y-111793356D01*
X79825261Y-111813384D01*
X79827215Y-111814849D01*
X79842847Y-111824131D01*
X79861898Y-111827550D01*
X79881437Y-111824131D01*
X79897069Y-111814849D01*
X79904884Y-111805568D01*
X79911723Y-111783098D01*
X79909769Y-111771374D01*
G37*
G36*
X80734822Y-111519804D02*
G01*
X80633410Y-111519088D01*
X80604884Y-111518827D01*
X80607396Y-111411815D01*
X80609937Y-111304821D01*
X80612430Y-111197838D01*
X80614802Y-111090859D01*
X80616977Y-110983877D01*
X80618882Y-110876885D01*
X80620440Y-110769875D01*
X80621577Y-110662840D01*
X80622218Y-110555773D01*
X80622288Y-110448666D01*
X80621981Y-110377236D01*
X80561409Y-110319595D01*
X80498394Y-110336203D01*
X80429602Y-110409499D01*
X80357283Y-110479635D01*
X80283591Y-110548397D01*
X80210676Y-110617571D01*
X80234228Y-110714076D01*
X80303977Y-110701591D01*
X80379453Y-110630260D01*
X80455473Y-110559291D01*
X80490090Y-110526224D01*
X80489376Y-110650380D01*
X80488037Y-110774467D01*
X80486183Y-110898508D01*
X80483923Y-111022526D01*
X80481365Y-111146544D01*
X80478618Y-111270585D01*
X80475792Y-111394672D01*
X80472993Y-111518827D01*
X80373506Y-111519009D01*
X80334752Y-111519316D01*
X80273952Y-111595973D01*
X80334752Y-111638506D01*
X80434769Y-111637689D01*
X80534787Y-111637468D01*
X80634804Y-111637888D01*
X80734822Y-111638995D01*
X80793898Y-111558204D01*
X80734822Y-111519804D01*
G37*
X66822200Y-125460839D02*
X66869819Y-125317982D01*
X66869819Y-125317982D02*
X66869819Y-125079887D01*
X66869819Y-125079887D02*
X66822200Y-124984649D01*
X66822200Y-124984649D02*
X66774580Y-124937030D01*
X66774580Y-124937030D02*
X66679342Y-124889411D01*
X66679342Y-124889411D02*
X66584104Y-124889411D01*
X66584104Y-124889411D02*
X66488866Y-124937030D01*
X66488866Y-124937030D02*
X66441247Y-124984649D01*
X66441247Y-124984649D02*
X66393628Y-125079887D01*
X66393628Y-125079887D02*
X66346009Y-125270363D01*
X66346009Y-125270363D02*
X66298390Y-125365601D01*
X66298390Y-125365601D02*
X66250771Y-125413220D01*
X66250771Y-125413220D02*
X66155533Y-125460839D01*
X66155533Y-125460839D02*
X66060295Y-125460839D01*
X66060295Y-125460839D02*
X65965057Y-125413220D01*
X65965057Y-125413220D02*
X65917438Y-125365601D01*
X65917438Y-125365601D02*
X65869819Y-125270363D01*
X65869819Y-125270363D02*
X65869819Y-125032268D01*
X65869819Y-125032268D02*
X65917438Y-124889411D01*
X66869819Y-124460839D02*
X65869819Y-124460839D01*
X65869819Y-124460839D02*
X66869819Y-123889411D01*
X66869819Y-123889411D02*
X65869819Y-123889411D01*
X66584104Y-123460839D02*
X66584104Y-122984649D01*
X66869819Y-123556077D02*
X65869819Y-123222744D01*
X65869819Y-123222744D02*
X66869819Y-122889411D01*
X66869819Y-122556077D02*
X65869819Y-122556077D01*
X65869819Y-122556077D02*
X65869819Y-122175125D01*
X65869819Y-122175125D02*
X65917438Y-122079887D01*
X65917438Y-122079887D02*
X65965057Y-122032268D01*
X65965057Y-122032268D02*
X66060295Y-121984649D01*
X66060295Y-121984649D02*
X66203152Y-121984649D01*
X66203152Y-121984649D02*
X66298390Y-122032268D01*
X66298390Y-122032268D02*
X66346009Y-122079887D01*
X66346009Y-122079887D02*
X66393628Y-122175125D01*
X66393628Y-122175125D02*
X66393628Y-122556077D01*
X66869819Y-121556077D02*
X65869819Y-121556077D01*
X65869819Y-121556077D02*
X65869819Y-121175125D01*
X65869819Y-121175125D02*
X65917438Y-121079887D01*
X65917438Y-121079887D02*
X65965057Y-121032268D01*
X65965057Y-121032268D02*
X66060295Y-120984649D01*
X66060295Y-120984649D02*
X66203152Y-120984649D01*
X66203152Y-120984649D02*
X66298390Y-121032268D01*
X66298390Y-121032268D02*
X66346009Y-121079887D01*
X66346009Y-121079887D02*
X66393628Y-121175125D01*
X66393628Y-121175125D02*
X66393628Y-121556077D01*
X66393628Y-120365601D02*
X66869819Y-120365601D01*
X65869819Y-120698934D02*
X66393628Y-120365601D01*
X66393628Y-120365601D02*
X65869819Y-120032268D01*
X85869819Y-126306077D02*
X85869819Y-125734649D01*
X86869819Y-126020363D02*
X85869819Y-126020363D01*
X85869819Y-125401315D02*
X86679342Y-125401315D01*
X86679342Y-125401315D02*
X86774580Y-125353696D01*
X86774580Y-125353696D02*
X86822200Y-125306077D01*
X86822200Y-125306077D02*
X86869819Y-125210839D01*
X86869819Y-125210839D02*
X86869819Y-125020363D01*
X86869819Y-125020363D02*
X86822200Y-124925125D01*
X86822200Y-124925125D02*
X86774580Y-124877506D01*
X86774580Y-124877506D02*
X86679342Y-124829887D01*
X86679342Y-124829887D02*
X85869819Y-124829887D01*
X86869819Y-124353696D02*
X85869819Y-124353696D01*
X85869819Y-124353696D02*
X86869819Y-123782268D01*
X86869819Y-123782268D02*
X85869819Y-123782268D01*
X86346009Y-123306077D02*
X86346009Y-122972744D01*
X86869819Y-122829887D02*
X86869819Y-123306077D01*
X86869819Y-123306077D02*
X85869819Y-123306077D01*
X85869819Y-123306077D02*
X85869819Y-122829887D01*
X86774580Y-121067982D02*
X86822200Y-121115601D01*
X86822200Y-121115601D02*
X86869819Y-121258458D01*
X86869819Y-121258458D02*
X86869819Y-121353696D01*
X86869819Y-121353696D02*
X86822200Y-121496553D01*
X86822200Y-121496553D02*
X86726961Y-121591791D01*
X86726961Y-121591791D02*
X86631723Y-121639410D01*
X86631723Y-121639410D02*
X86441247Y-121687029D01*
X86441247Y-121687029D02*
X86298390Y-121687029D01*
X86298390Y-121687029D02*
X86107914Y-121639410D01*
X86107914Y-121639410D02*
X86012676Y-121591791D01*
X86012676Y-121591791D02*
X85917438Y-121496553D01*
X85917438Y-121496553D02*
X85869819Y-121353696D01*
X85869819Y-121353696D02*
X85869819Y-121258458D01*
X85869819Y-121258458D02*
X85917438Y-121115601D01*
X85917438Y-121115601D02*
X85965057Y-121067982D01*
X85869819Y-120782267D02*
X86869819Y-120448934D01*
X86869819Y-120448934D02*
X85869819Y-120115601D01*
X71293922Y-55969819D02*
X71865350Y-55969819D01*
X71579636Y-56969819D02*
X71579636Y-55969819D01*
X72198684Y-55969819D02*
X72198684Y-56779342D01*
X72198684Y-56779342D02*
X72246303Y-56874580D01*
X72246303Y-56874580D02*
X72293922Y-56922200D01*
X72293922Y-56922200D02*
X72389160Y-56969819D01*
X72389160Y-56969819D02*
X72579636Y-56969819D01*
X72579636Y-56969819D02*
X72674874Y-56922200D01*
X72674874Y-56922200D02*
X72722493Y-56874580D01*
X72722493Y-56874580D02*
X72770112Y-56779342D01*
X72770112Y-56779342D02*
X72770112Y-55969819D01*
X73246303Y-56969819D02*
X73246303Y-55969819D01*
X73246303Y-55969819D02*
X73817731Y-56969819D01*
X73817731Y-56969819D02*
X73817731Y-55969819D01*
X74293922Y-56446009D02*
X74627255Y-56446009D01*
X74770112Y-56969819D02*
X74293922Y-56969819D01*
X74293922Y-56969819D02*
X74293922Y-55969819D01*
X74293922Y-55969819D02*
X74770112Y-55969819D01*
X81527255Y-143869819D02*
X81717731Y-143869819D01*
X81717731Y-143869819D02*
X81812969Y-143917438D01*
X81812969Y-143917438D02*
X81908207Y-144012676D01*
X81908207Y-144012676D02*
X81955826Y-144203152D01*
X81955826Y-144203152D02*
X81955826Y-144536485D01*
X81955826Y-144536485D02*
X81908207Y-144726961D01*
X81908207Y-144726961D02*
X81812969Y-144822200D01*
X81812969Y-144822200D02*
X81717731Y-144869819D01*
X81717731Y-144869819D02*
X81527255Y-144869819D01*
X81527255Y-144869819D02*
X81432017Y-144822200D01*
X81432017Y-144822200D02*
X81336779Y-144726961D01*
X81336779Y-144726961D02*
X81289160Y-144536485D01*
X81289160Y-144536485D02*
X81289160Y-144203152D01*
X81289160Y-144203152D02*
X81336779Y-144012676D01*
X81336779Y-144012676D02*
X81432017Y-143917438D01*
X81432017Y-143917438D02*
X81527255Y-143869819D01*
X82384398Y-143869819D02*
X82384398Y-144679342D01*
X82384398Y-144679342D02*
X82432017Y-144774580D01*
X82432017Y-144774580D02*
X82479636Y-144822200D01*
X82479636Y-144822200D02*
X82574874Y-144869819D01*
X82574874Y-144869819D02*
X82765350Y-144869819D01*
X82765350Y-144869819D02*
X82860588Y-144822200D01*
X82860588Y-144822200D02*
X82908207Y-144774580D01*
X82908207Y-144774580D02*
X82955826Y-144679342D01*
X82955826Y-144679342D02*
X82955826Y-143869819D01*
X83289160Y-143869819D02*
X83860588Y-143869819D01*
X83574874Y-144869819D02*
X83574874Y-143869819D01*
X57289160Y-127822200D02*
X57432017Y-127869819D01*
X57432017Y-127869819D02*
X57670112Y-127869819D01*
X57670112Y-127869819D02*
X57765350Y-127822200D01*
X57765350Y-127822200D02*
X57812969Y-127774580D01*
X57812969Y-127774580D02*
X57860588Y-127679342D01*
X57860588Y-127679342D02*
X57860588Y-127584104D01*
X57860588Y-127584104D02*
X57812969Y-127488866D01*
X57812969Y-127488866D02*
X57765350Y-127441247D01*
X57765350Y-127441247D02*
X57670112Y-127393628D01*
X57670112Y-127393628D02*
X57479636Y-127346009D01*
X57479636Y-127346009D02*
X57384398Y-127298390D01*
X57384398Y-127298390D02*
X57336779Y-127250771D01*
X57336779Y-127250771D02*
X57289160Y-127155533D01*
X57289160Y-127155533D02*
X57289160Y-127060295D01*
X57289160Y-127060295D02*
X57336779Y-126965057D01*
X57336779Y-126965057D02*
X57384398Y-126917438D01*
X57384398Y-126917438D02*
X57479636Y-126869819D01*
X57479636Y-126869819D02*
X57717731Y-126869819D01*
X57717731Y-126869819D02*
X57860588Y-126917438D01*
X58289160Y-127869819D02*
X58289160Y-126869819D01*
X58289160Y-126869819D02*
X58860588Y-127869819D01*
X58860588Y-127869819D02*
X58860588Y-126869819D01*
X59289160Y-127584104D02*
X59765350Y-127584104D01*
X59193922Y-127869819D02*
X59527255Y-126869819D01*
X59527255Y-126869819D02*
X59860588Y-127869819D01*
X60193922Y-127869819D02*
X60193922Y-126869819D01*
X60193922Y-126869819D02*
X60574874Y-126869819D01*
X60574874Y-126869819D02*
X60670112Y-126917438D01*
X60670112Y-126917438D02*
X60717731Y-126965057D01*
X60717731Y-126965057D02*
X60765350Y-127060295D01*
X60765350Y-127060295D02*
X60765350Y-127203152D01*
X60765350Y-127203152D02*
X60717731Y-127298390D01*
X60717731Y-127298390D02*
X60670112Y-127346009D01*
X60670112Y-127346009D02*
X60574874Y-127393628D01*
X60574874Y-127393628D02*
X60193922Y-127393628D01*
X61193922Y-127869819D02*
X61193922Y-126869819D01*
X61193922Y-126869819D02*
X61574874Y-126869819D01*
X61574874Y-126869819D02*
X61670112Y-126917438D01*
X61670112Y-126917438D02*
X61717731Y-126965057D01*
X61717731Y-126965057D02*
X61765350Y-127060295D01*
X61765350Y-127060295D02*
X61765350Y-127203152D01*
X61765350Y-127203152D02*
X61717731Y-127298390D01*
X61717731Y-127298390D02*
X61670112Y-127346009D01*
X61670112Y-127346009D02*
X61574874Y-127393628D01*
X61574874Y-127393628D02*
X61193922Y-127393628D01*
X62384398Y-127393628D02*
X62384398Y-127869819D01*
X62051065Y-126869819D02*
X62384398Y-127393628D01*
X62384398Y-127393628D02*
X62717731Y-126869819D01*
X78193922Y-126869819D02*
X78765350Y-126869819D01*
X78479636Y-127869819D02*
X78479636Y-126869819D01*
X79098684Y-126869819D02*
X79098684Y-127679342D01*
X79098684Y-127679342D02*
X79146303Y-127774580D01*
X79146303Y-127774580D02*
X79193922Y-127822200D01*
X79193922Y-127822200D02*
X79289160Y-127869819D01*
X79289160Y-127869819D02*
X79479636Y-127869819D01*
X79479636Y-127869819D02*
X79574874Y-127822200D01*
X79574874Y-127822200D02*
X79622493Y-127774580D01*
X79622493Y-127774580D02*
X79670112Y-127679342D01*
X79670112Y-127679342D02*
X79670112Y-126869819D01*
X80146303Y-127869819D02*
X80146303Y-126869819D01*
X80146303Y-126869819D02*
X80717731Y-127869819D01*
X80717731Y-127869819D02*
X80717731Y-126869819D01*
X81193922Y-127346009D02*
X81527255Y-127346009D01*
X81670112Y-127869819D02*
X81193922Y-127869819D01*
X81193922Y-127869819D02*
X81193922Y-126869819D01*
X81193922Y-126869819D02*
X81670112Y-126869819D01*
G36*
X62787229Y-109464145D02*
G01*
X63035380Y-109759190D01*
X63473857Y-109766670D01*
X63912700Y-109761877D01*
X64351543Y-109756717D01*
X64790020Y-109763098D01*
X65026325Y-109447280D01*
X64790020Y-109288290D01*
X64372915Y-109281149D01*
X63955809Y-109285572D01*
X63538703Y-109290864D01*
X63306978Y-109290244D01*
X63306095Y-108805599D01*
X63303925Y-108320757D01*
X63301182Y-107835808D01*
X63298582Y-107350841D01*
X63296841Y-106865946D01*
X63296674Y-106381211D01*
X63297208Y-106187383D01*
X63699476Y-106183914D01*
X64101744Y-106179414D01*
X64369923Y-106183475D01*
X64606228Y-105865806D01*
X64369923Y-105706713D01*
X63969235Y-105703415D01*
X63568135Y-105710010D01*
X63301116Y-105712575D01*
X63304963Y-105316901D01*
X63312107Y-104921228D01*
X63318702Y-104657445D01*
X63734891Y-104659430D01*
X64151081Y-104658667D01*
X64567271Y-104658270D01*
X64983461Y-104661353D01*
X65219766Y-104339048D01*
X64983461Y-104184591D01*
X64562875Y-104181493D01*
X64142288Y-104182568D01*
X63721702Y-104184133D01*
X63301116Y-104182508D01*
X63060781Y-104178729D01*
X62795045Y-104417110D01*
X62783327Y-104884225D01*
X62775283Y-105351339D01*
X62770362Y-105818454D01*
X62768014Y-106285568D01*
X62767688Y-106752683D01*
X62768834Y-107219797D01*
X62770901Y-107686912D01*
X62773338Y-108154026D01*
X62775594Y-108621140D01*
X62777120Y-109088255D01*
X62777459Y-109399665D01*
X62787229Y-109464145D01*
G37*
G36*
X65974110Y-105386266D02*
G01*
X66158204Y-105785515D01*
X66342642Y-106184604D01*
X66527400Y-106583556D01*
X66712456Y-106982393D01*
X66897787Y-107381139D01*
X67083369Y-107779815D01*
X67269181Y-108178446D01*
X67455198Y-108577055D01*
X67486806Y-108991095D01*
X67501695Y-109394891D01*
X67502093Y-109448513D01*
X67840443Y-109673329D01*
X68031612Y-109448513D01*
X68031198Y-108988494D01*
X68030156Y-108528392D01*
X68028786Y-108068225D01*
X68027387Y-107608014D01*
X68026258Y-107147776D01*
X68025700Y-106687532D01*
X68026010Y-106227301D01*
X68027490Y-105767102D01*
X68030438Y-105306954D01*
X68035154Y-104846878D01*
X68039427Y-104540209D01*
X67705319Y-104315393D01*
X67509909Y-104540209D01*
X67504334Y-104994501D01*
X67500342Y-105448792D01*
X67497799Y-105903084D01*
X67496571Y-106357376D01*
X67496523Y-106811667D01*
X67497523Y-107265959D01*
X67498185Y-107447676D01*
X67323891Y-107073160D01*
X67149803Y-106698461D01*
X66975944Y-106323579D01*
X66802337Y-105948513D01*
X66629005Y-105573265D01*
X66455970Y-105197833D01*
X66283256Y-104822218D01*
X66110886Y-104446420D01*
X65746358Y-104303895D01*
X65733775Y-104307690D01*
X65507117Y-104532393D01*
X65467221Y-104987854D01*
X65442868Y-105444078D01*
X65431980Y-105900900D01*
X65432482Y-106358158D01*
X65442296Y-106815686D01*
X65459346Y-107273320D01*
X65481553Y-107730896D01*
X65506843Y-108188251D01*
X65533137Y-108645218D01*
X65558358Y-109101635D01*
X65573551Y-109405526D01*
X65897445Y-109634893D01*
X66101116Y-109405526D01*
X66075463Y-108904000D01*
X66047199Y-108401902D01*
X66019028Y-107899391D01*
X65993649Y-107396629D01*
X65973766Y-106893775D01*
X65962081Y-106390990D01*
X65961295Y-105888433D01*
X65974110Y-105386266D01*
G37*
G36*
X69618213Y-109546210D02*
G01*
X70015289Y-109625354D01*
X70407040Y-109555965D01*
X70726099Y-109368401D01*
X71000475Y-109047314D01*
X71175750Y-108663761D01*
X71273722Y-108247602D01*
X71316189Y-107828695D01*
X70991813Y-107605292D01*
X70788625Y-107828695D01*
X70729091Y-108259661D01*
X70597770Y-108685794D01*
X70371676Y-109027076D01*
X69971733Y-109153273D01*
X69844870Y-109120251D01*
X69500471Y-108877909D01*
X69265876Y-108506403D01*
X69130342Y-108135003D01*
X69063293Y-107867773D01*
X68995891Y-107458670D01*
X68967583Y-107041047D01*
X68977634Y-106621530D01*
X69025306Y-106206746D01*
X69069155Y-105974403D01*
X69169825Y-105587406D01*
X69333556Y-105185078D01*
X69585385Y-104856881D01*
X69772575Y-104739511D01*
X70181151Y-104693403D01*
X70519080Y-104926330D01*
X70698988Y-105278955D01*
X70768135Y-105676109D01*
X70763224Y-105837627D01*
X71103217Y-106054182D01*
X71292742Y-105837627D01*
X71279244Y-105401416D01*
X71157554Y-104988234D01*
X70934472Y-104632240D01*
X70616800Y-104367590D01*
X70211338Y-104228443D01*
X70057850Y-104215854D01*
X69670712Y-104270371D01*
X69298079Y-104469642D01*
X69004477Y-104779254D01*
X68783523Y-105161655D01*
X68666643Y-105458562D01*
X68546400Y-105896031D01*
X68472138Y-106346869D01*
X68441617Y-106804663D01*
X68452595Y-107262998D01*
X68502831Y-107715459D01*
X68527913Y-107863866D01*
X68634401Y-108303537D01*
X68776298Y-108675765D01*
X68972511Y-109018512D01*
X69279662Y-109349262D01*
X69618213Y-109546210D01*
G37*
G36*
X73512421Y-104256887D02*
G01*
X73591386Y-104276988D01*
X73957519Y-104437241D01*
X74270844Y-104682646D01*
X74524563Y-104993524D01*
X74618960Y-105147895D01*
X74807556Y-105560144D01*
X74932808Y-106000980D01*
X75000171Y-106459132D01*
X75015101Y-106923330D01*
X74983056Y-107382305D01*
X74909490Y-107824787D01*
X74872021Y-107982707D01*
X74744470Y-108374397D01*
X74566195Y-108745792D01*
X74334290Y-109077080D01*
X74045846Y-109348449D01*
X73697958Y-109540088D01*
X73287718Y-109632184D01*
X72882076Y-109589124D01*
X72464036Y-109392614D01*
X72137049Y-109071499D01*
X71892710Y-108662138D01*
X71751094Y-108295545D01*
X71652686Y-107914361D01*
X71583879Y-107445722D01*
X71570987Y-107268219D01*
X71566076Y-106827332D01*
X72090507Y-106827332D01*
X72094003Y-107221109D01*
X72140753Y-107678241D01*
X72200746Y-107983432D01*
X72318956Y-108362886D01*
X72534855Y-108765209D01*
X72851803Y-109053932D01*
X73287718Y-109155422D01*
X73431099Y-109131993D01*
X73795590Y-108938595D01*
X74069715Y-108606094D01*
X74263907Y-108193067D01*
X74388598Y-107758092D01*
X74454221Y-107359748D01*
X74468100Y-107218333D01*
X74484050Y-106777657D01*
X74453116Y-106326882D01*
X74364558Y-105884712D01*
X74207632Y-105469848D01*
X73971598Y-105100990D01*
X73919452Y-105041277D01*
X73607417Y-104795537D01*
X73205652Y-104688709D01*
X73094014Y-104708324D01*
X72752598Y-104931213D01*
X72508094Y-105253398D01*
X72337619Y-105596497D01*
X72194695Y-106042157D01*
X72122923Y-106431381D01*
X72090507Y-106827332D01*
X71566076Y-106827332D01*
X71565867Y-106808572D01*
X71604556Y-106338317D01*
X71693406Y-105872570D01*
X71838767Y-105426447D01*
X72046989Y-105015064D01*
X72324424Y-104653538D01*
X72384670Y-104593205D01*
X72720063Y-104354756D01*
X73101108Y-104236091D01*
X73512421Y-104256887D01*
G37*
G36*
X76219578Y-104290196D02*
G01*
X76628227Y-104359713D01*
X77021122Y-104488216D01*
X77387090Y-104682847D01*
X77497692Y-104761701D01*
X77796349Y-105042983D01*
X78028751Y-105379082D01*
X78173647Y-105754233D01*
X78209784Y-106152672D01*
X78115910Y-106558632D01*
X77958513Y-106846616D01*
X77655425Y-107161828D01*
X77278355Y-107385737D01*
X76852216Y-107530862D01*
X76466782Y-107602037D01*
X76574305Y-107750853D01*
X76761022Y-108113141D01*
X76902512Y-108510621D01*
X76964872Y-108722881D01*
X77146755Y-109087034D01*
X77287438Y-109090942D01*
X77428711Y-109035797D01*
X77760293Y-108819344D01*
X78009783Y-108776627D01*
X78133496Y-109155422D01*
X77837692Y-109361752D01*
X77470779Y-109539995D01*
X77078367Y-109571612D01*
X76759029Y-109404888D01*
X76535170Y-109059678D01*
X76475148Y-108900600D01*
X76354552Y-108513846D01*
X76211469Y-108133931D01*
X75962665Y-107789616D01*
X75985197Y-108194051D01*
X76008094Y-108598304D01*
X76030259Y-109002190D01*
X76050593Y-109405526D01*
X75846921Y-109634893D01*
X75523028Y-109405526D01*
X75507835Y-109101635D01*
X75482613Y-108645218D01*
X75456319Y-108188251D01*
X75431030Y-107730896D01*
X75408822Y-107273320D01*
X75391773Y-106815686D01*
X75381959Y-106358158D01*
X75381846Y-106255141D01*
X75910103Y-106255141D01*
X75917879Y-106706778D01*
X75933356Y-107158492D01*
X76077394Y-107153957D01*
X76532728Y-107102347D01*
X76978170Y-106979124D01*
X77356223Y-106765509D01*
X77609392Y-106442724D01*
X77680181Y-105991988D01*
X77658768Y-105839358D01*
X77490160Y-105447235D01*
X77196256Y-105148776D01*
X76817240Y-104937565D01*
X76393300Y-104807190D01*
X75964619Y-104751235D01*
X75952311Y-104901466D01*
X75925388Y-105352408D01*
X75911962Y-105803658D01*
X75910103Y-106255141D01*
X75381846Y-106255141D01*
X75381457Y-105900900D01*
X75392344Y-105444078D01*
X75416698Y-104987854D01*
X75456594Y-104532393D01*
X75667620Y-104309644D01*
X75806350Y-104272519D01*
X76219578Y-104290196D01*
G37*
G36*
X78598534Y-109464145D02*
G01*
X78846685Y-109759190D01*
X79285162Y-109766670D01*
X79724005Y-109761877D01*
X80162848Y-109756717D01*
X80601325Y-109763098D01*
X80837630Y-109447280D01*
X80601325Y-109288290D01*
X80184220Y-109281149D01*
X79767114Y-109285572D01*
X79350008Y-109290864D01*
X79118283Y-109290244D01*
X79117400Y-108805599D01*
X79115230Y-108320757D01*
X79112487Y-107835808D01*
X79109887Y-107350841D01*
X79108146Y-106865946D01*
X79107979Y-106381211D01*
X79108513Y-106187383D01*
X79510781Y-106183914D01*
X79913049Y-106179414D01*
X80181228Y-106183475D01*
X80417533Y-105865806D01*
X80181228Y-105706713D01*
X79780540Y-105703415D01*
X79379439Y-105710010D01*
X79112421Y-105712575D01*
X79116268Y-105316901D01*
X79123412Y-104921228D01*
X79130006Y-104657445D01*
X79546196Y-104659430D01*
X79962386Y-104658667D01*
X80378576Y-104658270D01*
X80794766Y-104661353D01*
X81031071Y-104339048D01*
X80794766Y-104184591D01*
X80374180Y-104181493D01*
X79953593Y-104182568D01*
X79533007Y-104184133D01*
X79112421Y-104182508D01*
X78872086Y-104178729D01*
X78606350Y-104417110D01*
X78594632Y-104884225D01*
X78586588Y-105351339D01*
X78581667Y-105818454D01*
X78579319Y-106285568D01*
X78578993Y-106752683D01*
X78580139Y-107219797D01*
X78582206Y-107686912D01*
X78584643Y-108154026D01*
X78586899Y-108621140D01*
X78588425Y-109088255D01*
X78588764Y-109399665D01*
X78598534Y-109464145D01*
G37*
X67289160Y-144584104D02*
X67765350Y-144584104D01*
X67193922Y-144869819D02*
X67527255Y-143869819D01*
X67527255Y-143869819D02*
X67860588Y-144869819D01*
X68765350Y-144774580D02*
X68717731Y-144822200D01*
X68717731Y-144822200D02*
X68574874Y-144869819D01*
X68574874Y-144869819D02*
X68479636Y-144869819D01*
X68479636Y-144869819D02*
X68336779Y-144822200D01*
X68336779Y-144822200D02*
X68241541Y-144726961D01*
X68241541Y-144726961D02*
X68193922Y-144631723D01*
X68193922Y-144631723D02*
X68146303Y-144441247D01*
X68146303Y-144441247D02*
X68146303Y-144298390D01*
X68146303Y-144298390D02*
X68193922Y-144107914D01*
X68193922Y-144107914D02*
X68241541Y-144012676D01*
X68241541Y-144012676D02*
X68336779Y-143917438D01*
X68336779Y-143917438D02*
X68479636Y-143869819D01*
X68479636Y-143869819D02*
X68574874Y-143869819D01*
X68574874Y-143869819D02*
X68717731Y-143917438D01*
X68717731Y-143917438D02*
X68765350Y-143965057D01*
X69765350Y-144774580D02*
X69717731Y-144822200D01*
X69717731Y-144822200D02*
X69574874Y-144869819D01*
X69574874Y-144869819D02*
X69479636Y-144869819D01*
X69479636Y-144869819D02*
X69336779Y-144822200D01*
X69336779Y-144822200D02*
X69241541Y-144726961D01*
X69241541Y-144726961D02*
X69193922Y-144631723D01*
X69193922Y-144631723D02*
X69146303Y-144441247D01*
X69146303Y-144441247D02*
X69146303Y-144298390D01*
X69146303Y-144298390D02*
X69193922Y-144107914D01*
X69193922Y-144107914D02*
X69241541Y-144012676D01*
X69241541Y-144012676D02*
X69336779Y-143917438D01*
X69336779Y-143917438D02*
X69479636Y-143869819D01*
X69479636Y-143869819D02*
X69574874Y-143869819D01*
X69574874Y-143869819D02*
X69717731Y-143917438D01*
X69717731Y-143917438D02*
X69765350Y-143965057D01*
X70193922Y-144346009D02*
X70527255Y-144346009D01*
X70670112Y-144869819D02*
X70193922Y-144869819D01*
X70193922Y-144869819D02*
X70193922Y-143869819D01*
X70193922Y-143869819D02*
X70670112Y-143869819D01*
X71098684Y-144869819D02*
X71098684Y-143869819D01*
X71098684Y-143869819D02*
X71670112Y-144869819D01*
X71670112Y-144869819D02*
X71670112Y-143869819D01*
X72003446Y-143869819D02*
X72574874Y-143869819D01*
X72289160Y-144869819D02*
X72289160Y-143869819D01*
X78086779Y-84619819D02*
X78086779Y-83619819D01*
X78086779Y-83619819D02*
X78324874Y-83619819D01*
X78324874Y-83619819D02*
X78467731Y-83667438D01*
X78467731Y-83667438D02*
X78562969Y-83762676D01*
X78562969Y-83762676D02*
X78610588Y-83857914D01*
X78610588Y-83857914D02*
X78658207Y-84048390D01*
X78658207Y-84048390D02*
X78658207Y-84191247D01*
X78658207Y-84191247D02*
X78610588Y-84381723D01*
X78610588Y-84381723D02*
X78562969Y-84476961D01*
X78562969Y-84476961D02*
X78467731Y-84572200D01*
X78467731Y-84572200D02*
X78324874Y-84619819D01*
X78324874Y-84619819D02*
X78086779Y-84619819D01*
X79086779Y-84096009D02*
X79420112Y-84096009D01*
X79562969Y-84619819D02*
X79086779Y-84619819D01*
X79086779Y-84619819D02*
X79086779Y-83619819D01*
X79086779Y-83619819D02*
X79562969Y-83619819D01*
X80562969Y-84524580D02*
X80515350Y-84572200D01*
X80515350Y-84572200D02*
X80372493Y-84619819D01*
X80372493Y-84619819D02*
X80277255Y-84619819D01*
X80277255Y-84619819D02*
X80134398Y-84572200D01*
X80134398Y-84572200D02*
X80039160Y-84476961D01*
X80039160Y-84476961D02*
X79991541Y-84381723D01*
X79991541Y-84381723D02*
X79943922Y-84191247D01*
X79943922Y-84191247D02*
X79943922Y-84048390D01*
X79943922Y-84048390D02*
X79991541Y-83857914D01*
X79991541Y-83857914D02*
X80039160Y-83762676D01*
X80039160Y-83762676D02*
X80134398Y-83667438D01*
X80134398Y-83667438D02*
X80277255Y-83619819D01*
X80277255Y-83619819D02*
X80372493Y-83619819D01*
X80372493Y-83619819D02*
X80515350Y-83667438D01*
X80515350Y-83667438D02*
X80562969Y-83715057D01*
X80943922Y-84334104D02*
X81420112Y-84334104D01*
X80848684Y-84619819D02*
X81182017Y-83619819D01*
X81182017Y-83619819D02*
X81515350Y-84619819D01*
X82039160Y-84143628D02*
X82039160Y-84619819D01*
X81705827Y-83619819D02*
X82039160Y-84143628D01*
X82039160Y-84143628D02*
X82372493Y-83619819D01*
X66584104Y-97210839D02*
X66584104Y-96734649D01*
X66869819Y-97306077D02*
X65869819Y-96972744D01*
X65869819Y-96972744D02*
X66869819Y-96639411D01*
X65869819Y-96448934D02*
X65869819Y-95877506D01*
X66869819Y-96163220D02*
X65869819Y-96163220D01*
X65869819Y-95687029D02*
X65869819Y-95115601D01*
X66869819Y-95401315D02*
X65869819Y-95401315D01*
X66584104Y-94829886D02*
X66584104Y-94353696D01*
X66869819Y-94925124D02*
X65869819Y-94591791D01*
X65869819Y-94591791D02*
X66869819Y-94258458D01*
X66774580Y-93353696D02*
X66822200Y-93401315D01*
X66822200Y-93401315D02*
X66869819Y-93544172D01*
X66869819Y-93544172D02*
X66869819Y-93639410D01*
X66869819Y-93639410D02*
X66822200Y-93782267D01*
X66822200Y-93782267D02*
X66726961Y-93877505D01*
X66726961Y-93877505D02*
X66631723Y-93925124D01*
X66631723Y-93925124D02*
X66441247Y-93972743D01*
X66441247Y-93972743D02*
X66298390Y-93972743D01*
X66298390Y-93972743D02*
X66107914Y-93925124D01*
X66107914Y-93925124D02*
X66012676Y-93877505D01*
X66012676Y-93877505D02*
X65917438Y-93782267D01*
X65917438Y-93782267D02*
X65869819Y-93639410D01*
X65869819Y-93639410D02*
X65869819Y-93544172D01*
X65869819Y-93544172D02*
X65917438Y-93401315D01*
X65917438Y-93401315D02*
X65965057Y-93353696D01*
X66869819Y-92925124D02*
X65869819Y-92925124D01*
X66869819Y-92353696D02*
X66298390Y-92782267D01*
X65869819Y-92353696D02*
X66441247Y-92925124D01*
X79404761Y-113954819D02*
X79071428Y-113478628D01*
X78833333Y-113954819D02*
X78833333Y-112954819D01*
X78833333Y-112954819D02*
X79214285Y-112954819D01*
X79214285Y-112954819D02*
X79309523Y-113002438D01*
X79309523Y-113002438D02*
X79357142Y-113050057D01*
X79357142Y-113050057D02*
X79404761Y-113145295D01*
X79404761Y-113145295D02*
X79404761Y-113288152D01*
X79404761Y-113288152D02*
X79357142Y-113383390D01*
X79357142Y-113383390D02*
X79309523Y-113431009D01*
X79309523Y-113431009D02*
X79214285Y-113478628D01*
X79214285Y-113478628D02*
X78833333Y-113478628D01*
X79690476Y-112954819D02*
X80023809Y-113954819D01*
X80023809Y-113954819D02*
X80357142Y-112954819D01*
X81166666Y-112954819D02*
X80690476Y-112954819D01*
X80690476Y-112954819D02*
X80642857Y-113431009D01*
X80642857Y-113431009D02*
X80690476Y-113383390D01*
X80690476Y-113383390D02*
X80785714Y-113335771D01*
X80785714Y-113335771D02*
X81023809Y-113335771D01*
X81023809Y-113335771D02*
X81119047Y-113383390D01*
X81119047Y-113383390D02*
X81166666Y-113431009D01*
X81166666Y-113431009D02*
X81214285Y-113526247D01*
X81214285Y-113526247D02*
X81214285Y-113764342D01*
X81214285Y-113764342D02*
X81166666Y-113859580D01*
X81166666Y-113859580D02*
X81119047Y-113907200D01*
X81119047Y-113907200D02*
X81023809Y-113954819D01*
X81023809Y-113954819D02*
X80785714Y-113954819D01*
X80785714Y-113954819D02*
X80690476Y-113907200D01*
X80690476Y-113907200D02*
X80642857Y-113859580D01*
X82466666Y-141554819D02*
X82466666Y-142269104D01*
X82466666Y-142269104D02*
X82419047Y-142411961D01*
X82419047Y-142411961D02*
X82323809Y-142507200D01*
X82323809Y-142507200D02*
X82180952Y-142554819D01*
X82180952Y-142554819D02*
X82085714Y-142554819D01*
X83371428Y-141888152D02*
X83371428Y-142554819D01*
X83133333Y-141507200D02*
X82895238Y-142221485D01*
X82895238Y-142221485D02*
X83514285Y-142221485D01*
X79404761Y-86454819D02*
X79071428Y-85978628D01*
X78833333Y-86454819D02*
X78833333Y-85454819D01*
X78833333Y-85454819D02*
X79214285Y-85454819D01*
X79214285Y-85454819D02*
X79309523Y-85502438D01*
X79309523Y-85502438D02*
X79357142Y-85550057D01*
X79357142Y-85550057D02*
X79404761Y-85645295D01*
X79404761Y-85645295D02*
X79404761Y-85788152D01*
X79404761Y-85788152D02*
X79357142Y-85883390D01*
X79357142Y-85883390D02*
X79309523Y-85931009D01*
X79309523Y-85931009D02*
X79214285Y-85978628D01*
X79214285Y-85978628D02*
X78833333Y-85978628D01*
X79690476Y-85454819D02*
X80023809Y-86454819D01*
X80023809Y-86454819D02*
X80357142Y-85454819D01*
X80595238Y-85454819D02*
X81214285Y-85454819D01*
X81214285Y-85454819D02*
X80880952Y-85835771D01*
X80880952Y-85835771D02*
X81023809Y-85835771D01*
X81023809Y-85835771D02*
X81119047Y-85883390D01*
X81119047Y-85883390D02*
X81166666Y-85931009D01*
X81166666Y-85931009D02*
X81214285Y-86026247D01*
X81214285Y-86026247D02*
X81214285Y-86264342D01*
X81214285Y-86264342D02*
X81166666Y-86359580D01*
X81166666Y-86359580D02*
X81119047Y-86407200D01*
X81119047Y-86407200D02*
X81023809Y-86454819D01*
X81023809Y-86454819D02*
X80738095Y-86454819D01*
X80738095Y-86454819D02*
X80642857Y-86407200D01*
X80642857Y-86407200D02*
X80595238Y-86359580D01*
X62466666Y-141554819D02*
X62466666Y-142269104D01*
X62466666Y-142269104D02*
X62419047Y-142411961D01*
X62419047Y-142411961D02*
X62323809Y-142507200D01*
X62323809Y-142507200D02*
X62180952Y-142554819D01*
X62180952Y-142554819D02*
X62085714Y-142554819D01*
X62847619Y-141554819D02*
X63466666Y-141554819D01*
X63466666Y-141554819D02*
X63133333Y-141935771D01*
X63133333Y-141935771D02*
X63276190Y-141935771D01*
X63276190Y-141935771D02*
X63371428Y-141983390D01*
X63371428Y-141983390D02*
X63419047Y-142031009D01*
X63419047Y-142031009D02*
X63466666Y-142126247D01*
X63466666Y-142126247D02*
X63466666Y-142364342D01*
X63466666Y-142364342D02*
X63419047Y-142459580D01*
X63419047Y-142459580D02*
X63371428Y-142507200D01*
X63371428Y-142507200D02*
X63276190Y-142554819D01*
X63276190Y-142554819D02*
X62990476Y-142554819D01*
X62990476Y-142554819D02*
X62895238Y-142507200D01*
X62895238Y-142507200D02*
X62847619Y-142459580D01*
X59404761Y-113954819D02*
X59071428Y-113478628D01*
X58833333Y-113954819D02*
X58833333Y-112954819D01*
X58833333Y-112954819D02*
X59214285Y-112954819D01*
X59214285Y-112954819D02*
X59309523Y-113002438D01*
X59309523Y-113002438D02*
X59357142Y-113050057D01*
X59357142Y-113050057D02*
X59404761Y-113145295D01*
X59404761Y-113145295D02*
X59404761Y-113288152D01*
X59404761Y-113288152D02*
X59357142Y-113383390D01*
X59357142Y-113383390D02*
X59309523Y-113431009D01*
X59309523Y-113431009D02*
X59214285Y-113478628D01*
X59214285Y-113478628D02*
X58833333Y-113478628D01*
X59690476Y-112954819D02*
X60023809Y-113954819D01*
X60023809Y-113954819D02*
X60357142Y-112954819D01*
X60642857Y-113050057D02*
X60690476Y-113002438D01*
X60690476Y-113002438D02*
X60785714Y-112954819D01*
X60785714Y-112954819D02*
X61023809Y-112954819D01*
X61023809Y-112954819D02*
X61119047Y-113002438D01*
X61119047Y-113002438D02*
X61166666Y-113050057D01*
X61166666Y-113050057D02*
X61214285Y-113145295D01*
X61214285Y-113145295D02*
X61214285Y-113240533D01*
X61214285Y-113240533D02*
X61166666Y-113383390D01*
X61166666Y-113383390D02*
X60595238Y-113954819D01*
X60595238Y-113954819D02*
X61214285Y-113954819D01*
X69404761Y-58954819D02*
X69071428Y-58478628D01*
X68833333Y-58954819D02*
X68833333Y-57954819D01*
X68833333Y-57954819D02*
X69214285Y-57954819D01*
X69214285Y-57954819D02*
X69309523Y-58002438D01*
X69309523Y-58002438D02*
X69357142Y-58050057D01*
X69357142Y-58050057D02*
X69404761Y-58145295D01*
X69404761Y-58145295D02*
X69404761Y-58288152D01*
X69404761Y-58288152D02*
X69357142Y-58383390D01*
X69357142Y-58383390D02*
X69309523Y-58431009D01*
X69309523Y-58431009D02*
X69214285Y-58478628D01*
X69214285Y-58478628D02*
X68833333Y-58478628D01*
X69690476Y-57954819D02*
X70023809Y-58954819D01*
X70023809Y-58954819D02*
X70357142Y-57954819D01*
X71214285Y-58954819D02*
X70642857Y-58954819D01*
X70928571Y-58954819D02*
X70928571Y-57954819D01*
X70928571Y-57954819D02*
X70833333Y-58097676D01*
X70833333Y-58097676D02*
X70738095Y-58192914D01*
X70738095Y-58192914D02*
X70642857Y-58240533D01*
X59404761Y-86454819D02*
X59071428Y-85978628D01*
X58833333Y-86454819D02*
X58833333Y-85454819D01*
X58833333Y-85454819D02*
X59214285Y-85454819D01*
X59214285Y-85454819D02*
X59309523Y-85502438D01*
X59309523Y-85502438D02*
X59357142Y-85550057D01*
X59357142Y-85550057D02*
X59404761Y-85645295D01*
X59404761Y-85645295D02*
X59404761Y-85788152D01*
X59404761Y-85788152D02*
X59357142Y-85883390D01*
X59357142Y-85883390D02*
X59309523Y-85931009D01*
X59309523Y-85931009D02*
X59214285Y-85978628D01*
X59214285Y-85978628D02*
X58833333Y-85978628D01*
X59690476Y-85454819D02*
X60023809Y-86454819D01*
X60023809Y-86454819D02*
X60357142Y-85454819D01*
X61119047Y-85788152D02*
X61119047Y-86454819D01*
X60880952Y-85407200D02*
X60642857Y-86121485D01*
X60642857Y-86121485D02*
X61261904Y-86121485D01*
X59966666Y-158304819D02*
X59966666Y-159019104D01*
X59966666Y-159019104D02*
X59919047Y-159161961D01*
X59919047Y-159161961D02*
X59823809Y-159257200D01*
X59823809Y-159257200D02*
X59680952Y-159304819D01*
X59680952Y-159304819D02*
X59585714Y-159304819D01*
X60966666Y-159304819D02*
X60395238Y-159304819D01*
X60680952Y-159304819D02*
X60680952Y-158304819D01*
X60680952Y-158304819D02*
X60585714Y-158447676D01*
X60585714Y-158447676D02*
X60490476Y-158542914D01*
X60490476Y-158542914D02*
X60395238Y-158590533D01*
X72466666Y-158304819D02*
X72466666Y-159019104D01*
X72466666Y-159019104D02*
X72419047Y-159161961D01*
X72419047Y-159161961D02*
X72323809Y-159257200D01*
X72323809Y-159257200D02*
X72180952Y-159304819D01*
X72180952Y-159304819D02*
X72085714Y-159304819D01*
X72895238Y-158400057D02*
X72942857Y-158352438D01*
X72942857Y-158352438D02*
X73038095Y-158304819D01*
X73038095Y-158304819D02*
X73276190Y-158304819D01*
X73276190Y-158304819D02*
X73371428Y-158352438D01*
X73371428Y-158352438D02*
X73419047Y-158400057D01*
X73419047Y-158400057D02*
X73466666Y-158495295D01*
X73466666Y-158495295D02*
X73466666Y-158590533D01*
X73466666Y-158590533D02*
X73419047Y-158733390D01*
X73419047Y-158733390D02*
X72847619Y-159304819D01*
X72847619Y-159304819D02*
X73466666Y-159304819D01*
X84966666Y-158304819D02*
X84966666Y-159019104D01*
X84966666Y-159019104D02*
X84919047Y-159161961D01*
X84919047Y-159161961D02*
X84823809Y-159257200D01*
X84823809Y-159257200D02*
X84680952Y-159304819D01*
X84680952Y-159304819D02*
X84585714Y-159304819D01*
X85919047Y-158304819D02*
X85442857Y-158304819D01*
X85442857Y-158304819D02*
X85395238Y-158781009D01*
X85395238Y-158781009D02*
X85442857Y-158733390D01*
X85442857Y-158733390D02*
X85538095Y-158685771D01*
X85538095Y-158685771D02*
X85776190Y-158685771D01*
X85776190Y-158685771D02*
X85871428Y-158733390D01*
X85871428Y-158733390D02*
X85919047Y-158781009D01*
X85919047Y-158781009D02*
X85966666Y-158876247D01*
X85966666Y-158876247D02*
X85966666Y-159114342D01*
X85966666Y-159114342D02*
X85919047Y-159209580D01*
X85919047Y-159209580D02*
X85871428Y-159257200D01*
X85871428Y-159257200D02*
X85776190Y-159304819D01*
X85776190Y-159304819D02*
X85538095Y-159304819D01*
X85538095Y-159304819D02*
X85442857Y-159257200D01*
X85442857Y-159257200D02*
X85395238Y-159209580D01*
X69261905Y-132554819D02*
X69261905Y-131554819D01*
X69261905Y-131554819D02*
X69500000Y-131554819D01*
X69500000Y-131554819D02*
X69642857Y-131602438D01*
X69642857Y-131602438D02*
X69738095Y-131697676D01*
X69738095Y-131697676D02*
X69785714Y-131792914D01*
X69785714Y-131792914D02*
X69833333Y-131983390D01*
X69833333Y-131983390D02*
X69833333Y-132126247D01*
X69833333Y-132126247D02*
X69785714Y-132316723D01*
X69785714Y-132316723D02*
X69738095Y-132411961D01*
X69738095Y-132411961D02*
X69642857Y-132507200D01*
X69642857Y-132507200D02*
X69500000Y-132554819D01*
X69500000Y-132554819D02*
X69261905Y-132554819D01*
X70309524Y-132554819D02*
X70500000Y-132554819D01*
X70500000Y-132554819D02*
X70595238Y-132507200D01*
X70595238Y-132507200D02*
X70642857Y-132459580D01*
X70642857Y-132459580D02*
X70738095Y-132316723D01*
X70738095Y-132316723D02*
X70785714Y-132126247D01*
X70785714Y-132126247D02*
X70785714Y-131745295D01*
X70785714Y-131745295D02*
X70738095Y-131650057D01*
X70738095Y-131650057D02*
X70690476Y-131602438D01*
X70690476Y-131602438D02*
X70595238Y-131554819D01*
X70595238Y-131554819D02*
X70404762Y-131554819D01*
X70404762Y-131554819D02*
X70309524Y-131602438D01*
X70309524Y-131602438D02*
X70261905Y-131650057D01*
X70261905Y-131650057D02*
X70214286Y-131745295D01*
X70214286Y-131745295D02*
X70214286Y-131983390D01*
X70214286Y-131983390D02*
X70261905Y-132078628D01*
X70261905Y-132078628D02*
X70309524Y-132126247D01*
X70309524Y-132126247D02*
X70404762Y-132173866D01*
X70404762Y-132173866D02*
X70595238Y-132173866D01*
X70595238Y-132173866D02*
X70690476Y-132126247D01*
X70690476Y-132126247D02*
X70738095Y-132078628D01*
X70738095Y-132078628D02*
X70785714Y-131983390D01*
D11*
X74530000Y-112530000D02*
X74530000Y-115250000D01*
X74530000Y-119750000D02*
X74530000Y-124120000D01*
X76350000Y-124120000D02*
X74530000Y-124120000D01*
X85470000Y-112530000D02*
X74530000Y-112530000D01*
X85470000Y-112530000D02*
X85470000Y-115250000D01*
X85470000Y-119750000D02*
X85470000Y-124120000D01*
X85470000Y-124120000D02*
X83650000Y-124120000D01*
X75500000Y-129000000D02*
X79200000Y-129000000D01*
X75500000Y-139500000D02*
X75500000Y-129000000D01*
X75500000Y-139500000D02*
X79280000Y-139500000D01*
X80720000Y-139500000D02*
X84500000Y-139500000D01*
X80800000Y-129000000D02*
X84500000Y-129000000D01*
X81230000Y-142650000D02*
X80370000Y-142650000D01*
X81230000Y-142650000D02*
X81230000Y-141850000D01*
X84500000Y-139500000D02*
X84500000Y-129000000D01*
X81800000Y-135000000D02*
G75*
G02*
X78200000Y-135000000I-1800000J0D01*
G01*
X78200000Y-135000000D02*
G75*
G02*
X81800000Y-135000000I1800000J0D01*
G01*
X74530000Y-85030000D02*
X74530000Y-87750000D01*
X74530000Y-92250000D02*
X74530000Y-96620000D01*
X76350000Y-96620000D02*
X74530000Y-96620000D01*
X85470000Y-85030000D02*
X74530000Y-85030000D01*
X85470000Y-85030000D02*
X85470000Y-87750000D01*
X85470000Y-92250000D02*
X85470000Y-96620000D01*
X85470000Y-96620000D02*
X83650000Y-96620000D01*
X55500000Y-129000000D02*
X59200000Y-129000000D01*
X55500000Y-139500000D02*
X55500000Y-129000000D01*
X55500000Y-139500000D02*
X59280000Y-139500000D01*
X60720000Y-139500000D02*
X64500000Y-139500000D01*
X60800000Y-129000000D02*
X64500000Y-129000000D01*
X61230000Y-142650000D02*
X60370000Y-142650000D01*
X61230000Y-142650000D02*
X61230000Y-141850000D01*
X64500000Y-139500000D02*
X64500000Y-129000000D01*
X61800000Y-135000000D02*
G75*
G02*
X58200000Y-135000000I-1800000J0D01*
G01*
X58200000Y-135000000D02*
G75*
G02*
X61800000Y-135000000I1800000J0D01*
G01*
X54530000Y-112530000D02*
X54530000Y-115250000D01*
X54530000Y-119750000D02*
X54530000Y-124120000D01*
X56350000Y-124120000D02*
X54530000Y-124120000D01*
X65470000Y-112530000D02*
X54530000Y-112530000D01*
X65470000Y-112530000D02*
X65470000Y-115250000D01*
X65470000Y-119750000D02*
X65470000Y-124120000D01*
X65470000Y-124120000D02*
X63650000Y-124120000D01*
X64530000Y-57530000D02*
X64530000Y-60250000D01*
X64530000Y-64750000D02*
X64530000Y-69120000D01*
X66350000Y-69120000D02*
X64530000Y-69120000D01*
X75470000Y-57530000D02*
X64530000Y-57530000D01*
X75470000Y-57530000D02*
X75470000Y-60250000D01*
X75470000Y-64750000D02*
X75470000Y-69120000D01*
X75470000Y-69120000D02*
X73650000Y-69120000D01*
X54530000Y-85030000D02*
X54530000Y-87750000D01*
X54530000Y-92250000D02*
X54530000Y-96620000D01*
X56350000Y-96620000D02*
X54530000Y-96620000D01*
X65470000Y-85030000D02*
X54530000Y-85030000D01*
X65470000Y-85030000D02*
X65470000Y-87750000D01*
X65470000Y-92250000D02*
X65470000Y-96620000D01*
X65470000Y-96620000D02*
X63650000Y-96620000D01*
X53000000Y-145750000D02*
X56700000Y-145750000D01*
X53000000Y-156250000D02*
X53000000Y-145750000D01*
X53000000Y-156250000D02*
X56780000Y-156250000D01*
X58220000Y-156250000D02*
X62000000Y-156250000D01*
X58300000Y-145750000D02*
X62000000Y-145750000D01*
X58730000Y-159400000D02*
X57870000Y-159400000D01*
X58730000Y-159400000D02*
X58730000Y-158600000D01*
X62000000Y-156250000D02*
X62000000Y-145750000D01*
X59300000Y-151750000D02*
G75*
G02*
X55700000Y-151750000I-1800000J0D01*
G01*
X55700000Y-151750000D02*
G75*
G02*
X59300000Y-151750000I1800000J0D01*
G01*
X65500000Y-145750000D02*
X69200000Y-145750000D01*
X65500000Y-156250000D02*
X65500000Y-145750000D01*
X65500000Y-156250000D02*
X69280000Y-156250000D01*
X70720000Y-156250000D02*
X74500000Y-156250000D01*
X70800000Y-145750000D02*
X74500000Y-145750000D01*
X71230000Y-159400000D02*
X70370000Y-159400000D01*
X71230000Y-159400000D02*
X71230000Y-158600000D01*
X74500000Y-156250000D02*
X74500000Y-145750000D01*
X71800000Y-151750000D02*
G75*
G02*
X68200000Y-151750000I-1800000J0D01*
G01*
X68200000Y-151750000D02*
G75*
G02*
X71800000Y-151750000I1800000J0D01*
G01*
X78000000Y-145750000D02*
X81700000Y-145750000D01*
X78000000Y-156250000D02*
X78000000Y-145750000D01*
X78000000Y-156250000D02*
X81780000Y-156250000D01*
X83220000Y-156250000D02*
X87000000Y-156250000D01*
X83300000Y-145750000D02*
X87000000Y-145750000D01*
X83730000Y-159400000D02*
X82870000Y-159400000D01*
X83730000Y-159400000D02*
X83730000Y-158600000D01*
X87000000Y-156250000D02*
X87000000Y-145750000D01*
X84300000Y-151750000D02*
G75*
G02*
X80700000Y-151750000I-1800000J0D01*
G01*
X80700000Y-151750000D02*
G75*
G02*
X84300000Y-151750000I1800000J0D01*
G01*
X68400000Y-133764000D02*
X68400000Y-133920000D01*
X68400000Y-136080000D02*
X68400000Y-136236000D01*
X68400000Y-133764484D02*
G75*
G02*
X71632335Y-133921392I1560000J-1235517D01*
G01*
X68919039Y-133920000D02*
G75*
G02*
X71001130Y-133920163I1040961J-1080000D01*
G01*
X71001130Y-136079837D02*
G75*
G02*
X68919039Y-136080000I-1041130J1079837D01*
G01*
X71632335Y-136078608D02*
G75*
G02*
X68400000Y-136235516I-1672335J1078609D01*
G01*
%LPC*%
D12*
X75250000Y-117500000D03*
X84750000Y-117500000D03*
D13*
X77500000Y-125000000D03*
D14*
X80000000Y-125000000D03*
X82500000Y-125000000D03*
D15*
X80000000Y-141480000D03*
D16*
X80000000Y-130080000D03*
X80000000Y-138380000D03*
D12*
X75250000Y-90000000D03*
X84750000Y-90000000D03*
D13*
X77500000Y-97500000D03*
D14*
X80000000Y-97500000D03*
X82500000Y-97500000D03*
D15*
X60000000Y-141480000D03*
D16*
X60000000Y-130080000D03*
X60000000Y-138380000D03*
D12*
X55250000Y-117500000D03*
X64750000Y-117500000D03*
D13*
X57500000Y-125000000D03*
D14*
X60000000Y-125000000D03*
X62500000Y-125000000D03*
D12*
X65250000Y-62500000D03*
X74750000Y-62500000D03*
D13*
X67500000Y-70000000D03*
D14*
X70000000Y-70000000D03*
X72500000Y-70000000D03*
D12*
X55250000Y-90000000D03*
X64750000Y-90000000D03*
D13*
X57500000Y-97500000D03*
D14*
X60000000Y-97500000D03*
X62500000Y-97500000D03*
D15*
X57500000Y-158230000D03*
D16*
X57500000Y-146830000D03*
X57500000Y-155130000D03*
D15*
X70000000Y-158230000D03*
D16*
X70000000Y-146830000D03*
X70000000Y-155130000D03*
D15*
X82500000Y-158230000D03*
D16*
X82500000Y-146830000D03*
X82500000Y-155130000D03*
D13*
X68690000Y-135000000D03*
D14*
X71230000Y-135000000D03*
D17*
X87432380Y-53750000D03*
D18*
X84932380Y-53750000D03*
X78700000Y-68800000D03*
X78700000Y-63800000D03*
X60925000Y-109335000D03*
X55925000Y-109335000D03*
D19*
X86900000Y-142700000D03*
X52600000Y-82000000D03*
D20*
X88250000Y-59500000D03*
D21*
X86250000Y-59500000D03*
D18*
X55925000Y-106235000D03*
X60925000Y-106235000D03*
D19*
X82750000Y-57500000D03*
X76300000Y-144500000D03*
D18*
X83400000Y-63850000D03*
X83400000Y-68850000D03*
D17*
X68400000Y-55000000D03*
D18*
X68400000Y-52500000D03*
D19*
X76500000Y-56000000D03*
D22*
X83000000Y-72500000D03*
D23*
X84270000Y-72500000D03*
X85540000Y-72500000D03*
D18*
X60600000Y-83400000D03*
X55600000Y-83400000D03*
D20*
X74150000Y-53722600D03*
D21*
X74150000Y-51722600D03*
D19*
X53100000Y-136700000D03*
D18*
X67600000Y-83500000D03*
X72600000Y-83500000D03*
D19*
X53000000Y-104100000D03*
D18*
X55900000Y-101600000D03*
X60900000Y-101600000D03*
D24*
X54000000Y-66160000D03*
D25*
X56540000Y-66160000D03*
X54000000Y-63620000D03*
X56540000Y-63620000D03*
X54000000Y-61080000D03*
X56540000Y-61080000D03*
X54000000Y-58540000D03*
X56540000Y-58540000D03*
X54000000Y-56000000D03*
X56540000Y-56000000D03*
D19*
X81500000Y-101500000D03*
X84800000Y-101500000D03*
X79750000Y-56000000D03*
%LPD*%
M02*
