M48
; DRILL file {KiCad 8.0.2-1} date 2024-09-28T09:27:40+0200
; FORMAT={-:-/ absolute / metric / decimal}
; #@! TF.CreationDate,2024-09-28T09:27:40+02:00
; #@! TF.GenerationSoftware,Kicad,Pcbnew,8.0.2-1
; #@! TF.FileFunction,Plated,1,2,PTH
FMAT,2
METRIC
; #@! TA.AperFunction,Plated,PTH,ViaDrill
T1C0.400
; #@! TA.AperFunction,Plated,PTH,ComponentDrill
T2C0.600
; #@! TA.AperFunction,Plated,PTH,ComponentDrill
T3C0.750
; #@! TA.AperFunction,Plated,PTH,ComponentDrill
T4C0.800
; #@! TA.AperFunction,Plated,PTH,ComponentDrill
T5C1.000
; #@! TA.AperFunction,Plated,PTH,ComponentDrill
T6C1.220
; #@! TA.AperFunction,Plated,PTH,ComponentDrill
T7C1.420
; #@! TA.AperFunction,Plated,PTH,ComponentDrill
T8C1.430
; #@! TA.AperFunction,Plated,PTH,ComponentDrill
T9C2.000
%
G90
G05
T1
X53.75Y-107.5
X53.75Y-116.5
X54.25Y-112.0
X56.25Y-110.75
X59.5Y-114.25
X62.75Y-141.5
X66.0Y-110.0
X66.0Y-116.25
X66.0Y-139.75
X67.5Y-59.75
X68.875Y-73.875
X69.0Y-51.25
X69.0Y-53.75
X69.0Y-56.25
X70.083Y-72.667
X73.0Y-113.25
X74.0Y-57.5
X74.5Y-58.5
X74.567Y-105.067
X74.845Y-123.595
X75.5Y-112.25
X75.5Y-113.25
X75.571Y-58.25
X77.0Y-111.0
X77.97Y-120.47
X79.0Y-65.0
X81.406Y-55.7
X81.75Y-78.25
X81.75Y-82.75
X82.75Y-57.0
X83.25Y-117.5
X83.25Y-122.75
X83.37Y-105.03
X84.85Y-71.0
X86.25Y-92.25
X86.5Y-78.25
X86.75Y-105.25
X88.5Y-152.75
X88.85Y-90.0
T2
X60.0Y-58.42
X60.0Y-60.42
X60.0Y-87.42
X60.0Y-89.42
T3
X85.23Y-67.64
X86.5Y-67.64
X87.77Y-67.64
T4
X54.0Y-56.92
X54.0Y-59.42
X54.0Y-88.92
X54.0Y-91.42
X67.75Y-128.0
X67.75Y-134.25
X67.75Y-143.0
X68.25Y-103.75
X68.25Y-108.75
X70.5Y-65.75
X71.75Y-103.75
X71.75Y-108.75
X72.75Y-128.0
X72.75Y-134.25
X72.75Y-143.0
X75.5Y-65.75
X86.5Y-59.25
X86.5Y-64.25
T5
X53.0Y-134.0
X54.0Y-67.42
X54.0Y-69.96
X54.0Y-72.5
X54.0Y-75.04
X54.0Y-77.58
X55.75Y-113.5
X56.54Y-67.42
X56.54Y-69.96
X56.54Y-72.5
X56.54Y-75.04
X56.54Y-77.58
X57.5Y-107.5
X57.5Y-127.5
X60.0Y-107.5
X60.0Y-127.5
X62.5Y-107.5
X62.5Y-127.5
X67.5Y-80.0
X68.0Y-123.25
X70.0Y-80.0
X71.5Y-120.0
X72.5Y-80.0
X74.95Y-92.25
X76.75Y-149.25
X77.5Y-107.5
X77.5Y-127.5
X79.0Y-92.25
X80.0Y-107.5
X80.0Y-127.5
X82.5Y-107.5
X82.5Y-109.75
X82.5Y-127.5
X82.75Y-92.25
X88.25Y-51.75
T6
X56.0Y-146.52
X60.0Y-131.6
X70.0Y-146.52
X80.0Y-131.52
X84.0Y-146.52
T7
X56.0Y-149.62
X60.0Y-134.7
X70.0Y-149.62
X80.0Y-134.62
X84.0Y-149.62
T8
X56.0Y-157.92
X60.0Y-143.0
X70.0Y-157.92
X80.0Y-142.92
X84.0Y-157.92
T9
X55.25Y-100.0
X55.25Y-120.0
X64.75Y-100.0
X64.75Y-120.0
X65.25Y-72.5
X74.75Y-72.5
X75.25Y-100.0
X75.25Y-120.0
X84.75Y-100.0
X84.75Y-120.0
M30
