G04 #@! TF.GenerationSoftware,KiCad,Pcbnew,8.0.2-1*
G04 #@! TF.CreationDate,2024-09-28T09:27:31+02:00*
G04 #@! TF.ProjectId,encore,656e636f-7265-42e6-9b69-6361645f7063,rev?*
G04 #@! TF.SameCoordinates,Original*
G04 #@! TF.FileFunction,Soldermask,Top*
G04 #@! TF.FilePolarity,Negative*
%FSLAX46Y46*%
G04 Gerber Fmt 4.6, Leading zero omitted, Abs format (unit mm)*
G04 Created by KiCad (PCBNEW 8.0.2-1) date 2024-09-28 09:27:31*
%MOMM*%
%LPD*%
G01*
G04 APERTURE LIST*
G04 Aperture macros list*
%AMRoundRect*
0 Rectangle with rounded corners*
0 $1 Rounding radius*
0 $2 $3 $4 $5 $6 $7 $8 $9 X,Y pos of 4 corners*
0 Add a 4 corners polygon primitive as box body*
4,1,4,$2,$3,$4,$5,$6,$7,$8,$9,$2,$3,0*
0 Add four circle primitives for the rounded corners*
1,1,$1+$1,$2,$3*
1,1,$1+$1,$4,$5*
1,1,$1+$1,$6,$7*
1,1,$1+$1,$8,$9*
0 Add four rect primitives between the rounded corners*
20,1,$1+$1,$2,$3,$4,$5,0*
20,1,$1+$1,$4,$5,$6,$7,0*
20,1,$1+$1,$6,$7,$8,$9,0*
20,1,$1+$1,$8,$9,$2,$3,0*%
G04 Aperture macros list end*
%ADD10O,4.000000X4.000000*%
%ADD11R,1.800000X1.800000*%
%ADD12C,1.800000*%
%ADD13R,1.930000X1.830000*%
%ADD14C,2.130000*%
%ADD15C,1.600000*%
%ADD16RoundRect,0.250000X-0.600000X-0.600000X0.600000X-0.600000X0.600000X0.600000X-0.600000X0.600000X0*%
%ADD17C,1.700000*%
%ADD18R,1.600000X1.600000*%
%ADD19C,2.000000*%
%ADD20R,1.200000X1.200000*%
%ADD21C,1.200000*%
%ADD22R,1.050000X1.500000*%
%ADD23O,1.050000X1.500000*%
G04 APERTURE END LIST*
D10*
X75250000Y-120000000D03*
X84750000Y-120000000D03*
D11*
X77500000Y-127500000D03*
D12*
X80000000Y-127500000D03*
X82500000Y-127500000D03*
D13*
X80000000Y-131520000D03*
D14*
X80000000Y-142920000D03*
X80000000Y-134620000D03*
D10*
X75250000Y-100000000D03*
X84750000Y-100000000D03*
D11*
X77500000Y-107500000D03*
D12*
X80000000Y-107500000D03*
X82500000Y-107500000D03*
D13*
X60000000Y-131600000D03*
D14*
X60000000Y-143000000D03*
X60000000Y-134700000D03*
D10*
X55250000Y-120000000D03*
X64750000Y-120000000D03*
D11*
X57500000Y-127500000D03*
D12*
X60000000Y-127500000D03*
X62500000Y-127500000D03*
D10*
X65250000Y-72500000D03*
X74750000Y-72500000D03*
D11*
X67500000Y-80000000D03*
D12*
X70000000Y-80000000D03*
X72500000Y-80000000D03*
D10*
X55250000Y-100000000D03*
X64750000Y-100000000D03*
D11*
X57500000Y-107500000D03*
D12*
X60000000Y-107500000D03*
X62500000Y-107500000D03*
D13*
X56000000Y-146520000D03*
D14*
X56000000Y-157920000D03*
X56000000Y-149620000D03*
D13*
X70000000Y-146520000D03*
D14*
X70000000Y-157920000D03*
X70000000Y-149620000D03*
D13*
X84000000Y-146520000D03*
D14*
X84000000Y-157920000D03*
X84000000Y-149620000D03*
D15*
X70500000Y-65750000D03*
X75500000Y-65750000D03*
X67750000Y-134250000D03*
X72750000Y-134250000D03*
D16*
X54000000Y-77580000D03*
D17*
X56540000Y-77580000D03*
X54000000Y-75040000D03*
X56540000Y-75040000D03*
X54000000Y-72500000D03*
X56540000Y-72500000D03*
X54000000Y-69960000D03*
X56540000Y-69960000D03*
X54000000Y-67420000D03*
X56540000Y-67420000D03*
D18*
X54000000Y-91420000D03*
D15*
X54000000Y-88920000D03*
X72750000Y-128000000D03*
X67750000Y-128000000D03*
D19*
X76750000Y-149250000D03*
X88250000Y-51750000D03*
D18*
X54000000Y-59420000D03*
D15*
X54000000Y-56920000D03*
D19*
X79000000Y-92250000D03*
X55750000Y-113500000D03*
X74950000Y-92250000D03*
X53000000Y-134000000D03*
X68000000Y-123250000D03*
D15*
X86500000Y-64250000D03*
X86500000Y-59250000D03*
D20*
X60000000Y-60420000D03*
D21*
X60000000Y-58420000D03*
D15*
X71750000Y-103750000D03*
X71750000Y-108750000D03*
D19*
X71500000Y-120000000D03*
D20*
X60000000Y-89420000D03*
D21*
X60000000Y-87420000D03*
D22*
X85230000Y-67640000D03*
D23*
X86500000Y-67640000D03*
X87770000Y-67640000D03*
D19*
X82500000Y-109750000D03*
D15*
X68250000Y-108750000D03*
X68250000Y-103750000D03*
D19*
X82750000Y-92250000D03*
D15*
X72750000Y-143000000D03*
X67750000Y-143000000D03*
M02*
