%TF.GenerationSoftware,KiCad,Pcbnew,8.0.2-1*%
%TF.CreationDate,2024-09-28T09:27:40+02:00*%
%TF.ProjectId,encore,656e636f-7265-42e6-9b69-6361645f7063,rev?*%
%TF.SameCoordinates,Original*%
%TF.FileFunction,Drillmap*%
%TF.FilePolarity,Positive*%
%FSLAX45Y45*%
G04 Gerber Fmt 4.5, Leading zero omitted, Abs format (unit mm)*
G04 Created by KiCad (PCBNEW 8.0.2-1) date 2024-09-28 09:27:40*
%MOMM*%
%LPD*%
G01*
G04 APERTURE LIST*
%ADD10C,0.100000*%
%ADD11C,0.200000*%
%ADD12C,0.122000*%
%ADD13C,0.142000*%
%ADD14C,0.143000*%
G04 APERTURE END LIST*
D10*
X5000000Y-5000000D02*
X9000000Y-5000000D01*
X9000000Y-16000000D01*
X5000000Y-16000000D01*
X5000000Y-5000000D01*
D11*
D10*
X5355000Y-10730000D02*
X5395000Y-10770000D01*
X5395000Y-10730000D02*
X5355000Y-10770000D01*
X5355000Y-11630000D02*
X5395000Y-11670000D01*
X5395000Y-11630000D02*
X5355000Y-11670000D01*
X5405000Y-11180000D02*
X5445000Y-11220000D01*
X5445000Y-11180000D02*
X5405000Y-11220000D01*
X5605000Y-11055000D02*
X5645000Y-11095000D01*
X5645000Y-11055000D02*
X5605000Y-11095000D01*
X5930000Y-11405000D02*
X5970000Y-11445000D01*
X5970000Y-11405000D02*
X5930000Y-11445000D01*
X6255000Y-14130000D02*
X6295000Y-14170000D01*
X6295000Y-14130000D02*
X6255000Y-14170000D01*
X6580000Y-10980000D02*
X6620000Y-11020000D01*
X6620000Y-10980000D02*
X6580000Y-11020000D01*
X6580000Y-11605000D02*
X6620000Y-11645000D01*
X6620000Y-11605000D02*
X6580000Y-11645000D01*
X6580000Y-13955000D02*
X6620000Y-13995000D01*
X6620000Y-13955000D02*
X6580000Y-13995000D01*
X6730000Y-5955000D02*
X6770000Y-5995000D01*
X6770000Y-5955000D02*
X6730000Y-5995000D01*
X6867500Y-7367500D02*
X6907500Y-7407500D01*
X6907500Y-7367500D02*
X6867500Y-7407500D01*
X6880000Y-5105000D02*
X6920000Y-5145000D01*
X6920000Y-5105000D02*
X6880000Y-5145000D01*
X6880000Y-5355000D02*
X6920000Y-5395000D01*
X6920000Y-5355000D02*
X6880000Y-5395000D01*
X6880000Y-5605000D02*
X6920000Y-5645000D01*
X6920000Y-5605000D02*
X6880000Y-5645000D01*
X6988345Y-7246655D02*
X7028345Y-7286655D01*
X7028345Y-7246655D02*
X6988345Y-7286655D01*
X7280000Y-11305000D02*
X7320000Y-11345000D01*
X7320000Y-11305000D02*
X7280000Y-11345000D01*
X7380000Y-5730000D02*
X7420000Y-5770000D01*
X7420000Y-5730000D02*
X7380000Y-5770000D01*
X7430000Y-5830000D02*
X7470000Y-5870000D01*
X7470000Y-5830000D02*
X7430000Y-5870000D01*
X7436703Y-10486703D02*
X7476703Y-10526703D01*
X7476703Y-10486703D02*
X7436703Y-10526703D01*
X7464467Y-12339467D02*
X7504467Y-12379467D01*
X7504467Y-12339467D02*
X7464467Y-12379467D01*
X7530000Y-11205000D02*
X7570000Y-11245000D01*
X7570000Y-11205000D02*
X7530000Y-11245000D01*
X7530000Y-11305000D02*
X7570000Y-11345000D01*
X7570000Y-11305000D02*
X7530000Y-11345000D01*
X7537122Y-5805000D02*
X7577122Y-5845000D01*
X7577122Y-5805000D02*
X7537122Y-5845000D01*
X7680000Y-11080000D02*
X7720000Y-11120000D01*
X7720000Y-11080000D02*
X7680000Y-11120000D01*
X7776967Y-12026967D02*
X7816967Y-12066967D01*
X7816967Y-12026967D02*
X7776967Y-12066967D01*
X7880000Y-6480000D02*
X7920000Y-6520000D01*
X7920000Y-6480000D02*
X7880000Y-6520000D01*
X8120627Y-5550000D02*
X8160627Y-5590000D01*
X8160627Y-5550000D02*
X8120627Y-5590000D01*
X8155000Y-7805000D02*
X8195000Y-7845000D01*
X8195000Y-7805000D02*
X8155000Y-7845000D01*
X8155000Y-8255000D02*
X8195000Y-8295000D01*
X8195000Y-8255000D02*
X8155000Y-8295000D01*
X8255000Y-5680000D02*
X8295000Y-5720000D01*
X8295000Y-5680000D02*
X8255000Y-5720000D01*
X8305000Y-11730000D02*
X8345000Y-11770000D01*
X8345000Y-11730000D02*
X8305000Y-11770000D01*
X8305000Y-12255000D02*
X8345000Y-12295000D01*
X8345000Y-12255000D02*
X8305000Y-12295000D01*
X8317040Y-10482960D02*
X8357040Y-10522960D01*
X8357040Y-10482960D02*
X8317040Y-10522960D01*
X8465000Y-7080000D02*
X8505000Y-7120000D01*
X8505000Y-7080000D02*
X8465000Y-7120000D01*
X8605000Y-9205000D02*
X8645000Y-9245000D01*
X8645000Y-9205000D02*
X8605000Y-9245000D01*
X8630000Y-7805000D02*
X8670000Y-7845000D01*
X8670000Y-7805000D02*
X8630000Y-7845000D01*
X8655000Y-10505000D02*
X8695000Y-10545000D01*
X8695000Y-10505000D02*
X8655000Y-10545000D01*
X8830000Y-15255000D02*
X8870000Y-15295000D01*
X8870000Y-15255000D02*
X8830000Y-15295000D01*
X8865000Y-8980000D02*
X8905000Y-9020000D01*
X8905000Y-8980000D02*
X8865000Y-9020000D01*
X6030000Y-5842000D02*
G75*
G02*
X5970000Y-5842000I-30000J0D01*
G01*
X5970000Y-5842000D02*
G75*
G02*
X6030000Y-5842000I30000J0D01*
G01*
X6030000Y-6042000D02*
G75*
G02*
X5970000Y-6042000I-30000J0D01*
G01*
X5970000Y-6042000D02*
G75*
G02*
X6030000Y-6042000I30000J0D01*
G01*
X6030000Y-8742000D02*
G75*
G02*
X5970000Y-8742000I-30000J0D01*
G01*
X5970000Y-8742000D02*
G75*
G02*
X6030000Y-8742000I30000J0D01*
G01*
X6030000Y-8942000D02*
G75*
G02*
X5970000Y-8942000I-30000J0D01*
G01*
X5970000Y-8942000D02*
G75*
G02*
X6030000Y-8942000I30000J0D01*
G01*
X8523000Y-6726500D02*
X8523000Y-6801500D01*
X8485500Y-6764000D02*
X8560500Y-6764000D01*
X8650000Y-6726500D02*
X8650000Y-6801500D01*
X8612500Y-6764000D02*
X8687500Y-6764000D01*
X8777000Y-6726500D02*
X8777000Y-6801500D01*
X8739500Y-6764000D02*
X8814500Y-6764000D01*
X5428285Y-5720284D02*
X5428285Y-5663715D01*
X5371716Y-5663715D01*
X5371716Y-5720284D01*
X5428285Y-5720284D01*
X5428285Y-5970284D02*
X5428285Y-5913715D01*
X5371716Y-5913715D01*
X5371716Y-5970284D01*
X5428285Y-5970284D01*
X5428285Y-8920285D02*
X5428285Y-8863716D01*
X5371716Y-8863716D01*
X5371716Y-8920285D01*
X5428285Y-8920285D01*
X5428285Y-9170285D02*
X5428285Y-9113716D01*
X5371716Y-9113716D01*
X5371716Y-9170285D01*
X5428285Y-9170285D01*
X6803284Y-12828284D02*
X6803284Y-12771715D01*
X6746715Y-12771715D01*
X6746715Y-12828284D01*
X6803284Y-12828284D01*
X6803284Y-13453284D02*
X6803284Y-13396715D01*
X6746715Y-13396715D01*
X6746715Y-13453284D01*
X6803284Y-13453284D01*
X6803284Y-14328284D02*
X6803284Y-14271715D01*
X6746715Y-14271715D01*
X6746715Y-14328284D01*
X6803284Y-14328284D01*
X6853284Y-10403285D02*
X6853284Y-10346716D01*
X6796715Y-10346716D01*
X6796715Y-10403285D01*
X6853284Y-10403285D01*
X6853284Y-10903285D02*
X6853284Y-10846716D01*
X6796715Y-10846716D01*
X6796715Y-10903285D01*
X6853284Y-10903285D01*
X7078284Y-6603284D02*
X7078284Y-6546715D01*
X7021715Y-6546715D01*
X7021715Y-6603284D01*
X7078284Y-6603284D01*
X7203284Y-10403285D02*
X7203284Y-10346716D01*
X7146715Y-10346716D01*
X7146715Y-10403285D01*
X7203284Y-10403285D01*
X7203284Y-10903285D02*
X7203284Y-10846716D01*
X7146715Y-10846716D01*
X7146715Y-10903285D01*
X7203284Y-10903285D01*
X7303284Y-12828284D02*
X7303284Y-12771715D01*
X7246715Y-12771715D01*
X7246715Y-12828284D01*
X7303284Y-12828284D01*
X7303284Y-13453284D02*
X7303284Y-13396715D01*
X7246715Y-13396715D01*
X7246715Y-13453284D01*
X7303284Y-13453284D01*
X7303284Y-14328284D02*
X7303284Y-14271715D01*
X7246715Y-14271715D01*
X7246715Y-14328284D01*
X7303284Y-14328284D01*
X7578284Y-6603284D02*
X7578284Y-6546715D01*
X7521715Y-6546715D01*
X7521715Y-6603284D01*
X7578284Y-6603284D01*
X8678285Y-5953284D02*
X8678285Y-5896715D01*
X8621716Y-5896715D01*
X8621716Y-5953284D01*
X8678285Y-5953284D01*
X8678285Y-6453284D02*
X8678285Y-6396715D01*
X8621716Y-6396715D01*
X8621716Y-6453284D01*
X8678285Y-6453284D01*
X5300000Y-13450000D02*
X5350000Y-13400000D01*
X5300000Y-13350000D01*
X5250000Y-13400000D01*
X5300000Y-13450000D01*
X5400000Y-6792000D02*
X5450000Y-6742000D01*
X5400000Y-6692000D01*
X5350000Y-6742000D01*
X5400000Y-6792000D01*
X5400000Y-7046000D02*
X5450000Y-6996000D01*
X5400000Y-6946000D01*
X5350000Y-6996000D01*
X5400000Y-7046000D01*
X5400000Y-7300000D02*
X5450000Y-7250000D01*
X5400000Y-7200000D01*
X5350000Y-7250000D01*
X5400000Y-7300000D01*
X5400000Y-7554000D02*
X5450000Y-7504000D01*
X5400000Y-7454000D01*
X5350000Y-7504000D01*
X5400000Y-7554000D01*
X5400000Y-7808000D02*
X5450000Y-7758000D01*
X5400000Y-7708000D01*
X5350000Y-7758000D01*
X5400000Y-7808000D01*
X5575000Y-11400000D02*
X5625000Y-11350000D01*
X5575000Y-11300000D01*
X5525000Y-11350000D01*
X5575000Y-11400000D01*
X5654000Y-6792000D02*
X5704000Y-6742000D01*
X5654000Y-6692000D01*
X5604000Y-6742000D01*
X5654000Y-6792000D01*
X5654000Y-7046000D02*
X5704000Y-6996000D01*
X5654000Y-6946000D01*
X5604000Y-6996000D01*
X5654000Y-7046000D01*
X5654000Y-7300000D02*
X5704000Y-7250000D01*
X5654000Y-7200000D01*
X5604000Y-7250000D01*
X5654000Y-7300000D01*
X5654000Y-7554000D02*
X5704000Y-7504000D01*
X5654000Y-7454000D01*
X5604000Y-7504000D01*
X5654000Y-7554000D01*
X5654000Y-7808000D02*
X5704000Y-7758000D01*
X5654000Y-7708000D01*
X5604000Y-7758000D01*
X5654000Y-7808000D01*
X5750000Y-10800000D02*
X5800000Y-10750000D01*
X5750000Y-10700000D01*
X5700000Y-10750000D01*
X5750000Y-10800000D01*
X5750000Y-12800000D02*
X5800000Y-12750000D01*
X5750000Y-12700000D01*
X5700000Y-12750000D01*
X5750000Y-12800000D01*
X6000000Y-10800000D02*
X6050000Y-10750000D01*
X6000000Y-10700000D01*
X5950000Y-10750000D01*
X6000000Y-10800000D01*
X6000000Y-12800000D02*
X6050000Y-12750000D01*
X6000000Y-12700000D01*
X5950000Y-12750000D01*
X6000000Y-12800000D01*
X6250000Y-10800000D02*
X6300000Y-10750000D01*
X6250000Y-10700000D01*
X6200000Y-10750000D01*
X6250000Y-10800000D01*
X6250000Y-12800000D02*
X6300000Y-12750000D01*
X6250000Y-12700000D01*
X6200000Y-12750000D01*
X6250000Y-12800000D01*
X6750000Y-8050000D02*
X6800000Y-8000000D01*
X6750000Y-7950000D01*
X6700000Y-8000000D01*
X6750000Y-8050000D01*
X6800000Y-12375000D02*
X6850000Y-12325000D01*
X6800000Y-12275000D01*
X6750000Y-12325000D01*
X6800000Y-12375000D01*
X7000000Y-8050000D02*
X7050000Y-8000000D01*
X7000000Y-7950000D01*
X6950000Y-8000000D01*
X7000000Y-8050000D01*
X7150000Y-12050000D02*
X7200000Y-12000000D01*
X7150000Y-11950000D01*
X7100000Y-12000000D01*
X7150000Y-12050000D01*
X7250000Y-8050000D02*
X7300000Y-8000000D01*
X7250000Y-7950000D01*
X7200000Y-8000000D01*
X7250000Y-8050000D01*
X7495000Y-9275000D02*
X7545000Y-9225000D01*
X7495000Y-9175000D01*
X7445000Y-9225000D01*
X7495000Y-9275000D01*
X7675000Y-14975000D02*
X7725000Y-14925000D01*
X7675000Y-14875000D01*
X7625000Y-14925000D01*
X7675000Y-14975000D01*
X7750000Y-10800000D02*
X7800000Y-10750000D01*
X7750000Y-10700000D01*
X7700000Y-10750000D01*
X7750000Y-10800000D01*
X7750000Y-12800000D02*
X7800000Y-12750000D01*
X7750000Y-12700000D01*
X7700000Y-12750000D01*
X7750000Y-12800000D01*
X7900000Y-9275000D02*
X7950000Y-9225000D01*
X7900000Y-9175000D01*
X7850000Y-9225000D01*
X7900000Y-9275000D01*
X8000000Y-10800000D02*
X8050000Y-10750000D01*
X8000000Y-10700000D01*
X7950000Y-10750000D01*
X8000000Y-10800000D01*
X8000000Y-12800000D02*
X8050000Y-12750000D01*
X8000000Y-12700000D01*
X7950000Y-12750000D01*
X8000000Y-12800000D01*
X8250000Y-10800000D02*
X8300000Y-10750000D01*
X8250000Y-10700000D01*
X8200000Y-10750000D01*
X8250000Y-10800000D01*
X8250000Y-11025000D02*
X8300000Y-10975000D01*
X8250000Y-10925000D01*
X8200000Y-10975000D01*
X8250000Y-11025000D01*
X8250000Y-12800000D02*
X8300000Y-12750000D01*
X8250000Y-12700000D01*
X8200000Y-12750000D01*
X8250000Y-12800000D01*
X8275000Y-9275000D02*
X8325000Y-9225000D01*
X8275000Y-9175000D01*
X8225000Y-9225000D01*
X8275000Y-9275000D01*
X8825000Y-5225000D02*
X8875000Y-5175000D01*
X8825000Y-5125000D01*
X8775000Y-5175000D01*
X8825000Y-5225000D01*
D12*
X5539000Y-14591000D02*
X5661000Y-14713000D01*
X5661000Y-14591000D02*
X5539000Y-14713000D01*
X5661000Y-14652000D02*
G75*
G02*
X5539000Y-14652000I-61000J0D01*
G01*
X5539000Y-14652000D02*
G75*
G02*
X5661000Y-14652000I61000J0D01*
G01*
X5939000Y-13099000D02*
X6061000Y-13221000D01*
X6061000Y-13099000D02*
X5939000Y-13221000D01*
X6061000Y-13160000D02*
G75*
G02*
X5939000Y-13160000I-61000J0D01*
G01*
X5939000Y-13160000D02*
G75*
G02*
X6061000Y-13160000I61000J0D01*
G01*
X6939000Y-14591000D02*
X7061000Y-14713000D01*
X7061000Y-14591000D02*
X6939000Y-14713000D01*
X7061000Y-14652000D02*
G75*
G02*
X6939000Y-14652000I-61000J0D01*
G01*
X6939000Y-14652000D02*
G75*
G02*
X7061000Y-14652000I61000J0D01*
G01*
X7939000Y-13091000D02*
X8061000Y-13213000D01*
X8061000Y-13091000D02*
X7939000Y-13213000D01*
X8061000Y-13152000D02*
G75*
G02*
X7939000Y-13152000I-61000J0D01*
G01*
X7939000Y-13152000D02*
G75*
G02*
X8061000Y-13152000I61000J0D01*
G01*
X8339000Y-14591000D02*
X8461000Y-14713000D01*
X8461000Y-14591000D02*
X8339000Y-14713000D01*
X8461000Y-14652000D02*
G75*
G02*
X8339000Y-14652000I-61000J0D01*
G01*
X8339000Y-14652000D02*
G75*
G02*
X8461000Y-14652000I61000J0D01*
G01*
D13*
X5529000Y-14891000D02*
X5671000Y-15033000D01*
X5671000Y-14891000D02*
X5529000Y-15033000D01*
X5600000Y-14891000D02*
X5600000Y-15033000D01*
X5529000Y-14962000D02*
X5671000Y-14962000D01*
X5929000Y-13399000D02*
X6071000Y-13541000D01*
X6071000Y-13399000D02*
X5929000Y-13541000D01*
X6000000Y-13399000D02*
X6000000Y-13541000D01*
X5929000Y-13470000D02*
X6071000Y-13470000D01*
X6929000Y-14891000D02*
X7071000Y-15033000D01*
X7071000Y-14891000D02*
X6929000Y-15033000D01*
X7000000Y-14891000D02*
X7000000Y-15033000D01*
X6929000Y-14962000D02*
X7071000Y-14962000D01*
X7929000Y-13391000D02*
X8071000Y-13533000D01*
X8071000Y-13391000D02*
X7929000Y-13533000D01*
X8000000Y-13391000D02*
X8000000Y-13533000D01*
X7929000Y-13462000D02*
X8071000Y-13462000D01*
X8329000Y-14891000D02*
X8471000Y-15033000D01*
X8471000Y-14891000D02*
X8329000Y-15033000D01*
X8400000Y-14891000D02*
X8400000Y-15033000D01*
X8329000Y-14962000D02*
X8471000Y-14962000D01*
D14*
X5528500Y-15720500D02*
X5671500Y-15863500D01*
X5671500Y-15720500D02*
X5528500Y-15863500D01*
X5650559Y-15842559D02*
X5650559Y-15741441D01*
X5549441Y-15741441D01*
X5549441Y-15842559D01*
X5650559Y-15842559D01*
X5928500Y-14228500D02*
X6071500Y-14371500D01*
X6071500Y-14228500D02*
X5928500Y-14371500D01*
X6050559Y-14350559D02*
X6050559Y-14249441D01*
X5949441Y-14249441D01*
X5949441Y-14350559D01*
X6050559Y-14350559D01*
X6928500Y-15720500D02*
X7071500Y-15863500D01*
X7071500Y-15720500D02*
X6928500Y-15863500D01*
X7050559Y-15842559D02*
X7050559Y-15741441D01*
X6949441Y-15741441D01*
X6949441Y-15842559D01*
X7050559Y-15842559D01*
X7928500Y-14220500D02*
X8071500Y-14363500D01*
X8071500Y-14220500D02*
X7928500Y-14363500D01*
X8050559Y-14342559D02*
X8050559Y-14241441D01*
X7949441Y-14241441D01*
X7949441Y-14342559D01*
X8050559Y-14342559D01*
X8328500Y-15720500D02*
X8471500Y-15863500D01*
X8471500Y-15720500D02*
X8328500Y-15863500D01*
X8450559Y-15842559D02*
X8450559Y-15741441D01*
X8349441Y-15741441D01*
X8349441Y-15842559D01*
X8450559Y-15842559D01*
D11*
X5425000Y-9900000D02*
X5625000Y-10100000D01*
X5625000Y-9900000D02*
X5425000Y-10100000D01*
X5525000Y-10100000D02*
X5625000Y-10000000D01*
X5525000Y-9900000D01*
X5425000Y-10000000D01*
X5525000Y-10100000D01*
X5425000Y-11900000D02*
X5625000Y-12100000D01*
X5625000Y-11900000D02*
X5425000Y-12100000D01*
X5525000Y-12100000D02*
X5625000Y-12000000D01*
X5525000Y-11900000D01*
X5425000Y-12000000D01*
X5525000Y-12100000D01*
X6375000Y-9900000D02*
X6575000Y-10100000D01*
X6575000Y-9900000D02*
X6375000Y-10100000D01*
X6475000Y-10100000D02*
X6575000Y-10000000D01*
X6475000Y-9900000D01*
X6375000Y-10000000D01*
X6475000Y-10100000D01*
X6375000Y-11900000D02*
X6575000Y-12100000D01*
X6575000Y-11900000D02*
X6375000Y-12100000D01*
X6475000Y-12100000D02*
X6575000Y-12000000D01*
X6475000Y-11900000D01*
X6375000Y-12000000D01*
X6475000Y-12100000D01*
X6425000Y-7150000D02*
X6625000Y-7350000D01*
X6625000Y-7150000D02*
X6425000Y-7350000D01*
X6525000Y-7350000D02*
X6625000Y-7250000D01*
X6525000Y-7150000D01*
X6425000Y-7250000D01*
X6525000Y-7350000D01*
X7375000Y-7150000D02*
X7575000Y-7350000D01*
X7575000Y-7150000D02*
X7375000Y-7350000D01*
X7475000Y-7350000D02*
X7575000Y-7250000D01*
X7475000Y-7150000D01*
X7375000Y-7250000D01*
X7475000Y-7350000D01*
X7425000Y-9900000D02*
X7625000Y-10100000D01*
X7625000Y-9900000D02*
X7425000Y-10100000D01*
X7525000Y-10100000D02*
X7625000Y-10000000D01*
X7525000Y-9900000D01*
X7425000Y-10000000D01*
X7525000Y-10100000D01*
X7425000Y-11900000D02*
X7625000Y-12100000D01*
X7625000Y-11900000D02*
X7425000Y-12100000D01*
X7525000Y-12100000D02*
X7625000Y-12000000D01*
X7525000Y-11900000D01*
X7425000Y-12000000D01*
X7525000Y-12100000D01*
X8375000Y-9900000D02*
X8575000Y-10100000D01*
X8575000Y-9900000D02*
X8375000Y-10100000D01*
X8475000Y-10100000D02*
X8575000Y-10000000D01*
X8475000Y-9900000D01*
X8375000Y-10000000D01*
X8475000Y-10100000D01*
X8375000Y-11900000D02*
X8575000Y-12100000D01*
X8575000Y-11900000D02*
X8375000Y-12100000D01*
X8475000Y-12100000D02*
X8575000Y-12000000D01*
X8475000Y-11900000D01*
X8375000Y-12000000D01*
X8475000Y-12100000D01*
X5255777Y-16316484D02*
X5255777Y-16116484D01*
X5255777Y-16116484D02*
X5303396Y-16116484D01*
X5303396Y-16116484D02*
X5331967Y-16126008D01*
X5331967Y-16126008D02*
X5351015Y-16145055D01*
X5351015Y-16145055D02*
X5360539Y-16164103D01*
X5360539Y-16164103D02*
X5370063Y-16202198D01*
X5370063Y-16202198D02*
X5370063Y-16230769D01*
X5370063Y-16230769D02*
X5360539Y-16268865D01*
X5360539Y-16268865D02*
X5351015Y-16287912D01*
X5351015Y-16287912D02*
X5331967Y-16306960D01*
X5331967Y-16306960D02*
X5303396Y-16316484D01*
X5303396Y-16316484D02*
X5255777Y-16316484D01*
X5455777Y-16316484D02*
X5455777Y-16183150D01*
X5455777Y-16221246D02*
X5465301Y-16202198D01*
X5465301Y-16202198D02*
X5474824Y-16192674D01*
X5474824Y-16192674D02*
X5493872Y-16183150D01*
X5493872Y-16183150D02*
X5512920Y-16183150D01*
X5579586Y-16316484D02*
X5579586Y-16183150D01*
X5579586Y-16116484D02*
X5570063Y-16126008D01*
X5570063Y-16126008D02*
X5579586Y-16135531D01*
X5579586Y-16135531D02*
X5589110Y-16126008D01*
X5589110Y-16126008D02*
X5579586Y-16116484D01*
X5579586Y-16116484D02*
X5579586Y-16135531D01*
X5703396Y-16316484D02*
X5684348Y-16306960D01*
X5684348Y-16306960D02*
X5674824Y-16287912D01*
X5674824Y-16287912D02*
X5674824Y-16116484D01*
X5808158Y-16316484D02*
X5789110Y-16306960D01*
X5789110Y-16306960D02*
X5779586Y-16287912D01*
X5779586Y-16287912D02*
X5779586Y-16116484D01*
X6036729Y-16316484D02*
X6036729Y-16116484D01*
X6036729Y-16116484D02*
X6103396Y-16259341D01*
X6103396Y-16259341D02*
X6170062Y-16116484D01*
X6170062Y-16116484D02*
X6170062Y-16316484D01*
X6351015Y-16316484D02*
X6351015Y-16211722D01*
X6351015Y-16211722D02*
X6341491Y-16192674D01*
X6341491Y-16192674D02*
X6322443Y-16183150D01*
X6322443Y-16183150D02*
X6284348Y-16183150D01*
X6284348Y-16183150D02*
X6265301Y-16192674D01*
X6351015Y-16306960D02*
X6331967Y-16316484D01*
X6331967Y-16316484D02*
X6284348Y-16316484D01*
X6284348Y-16316484D02*
X6265301Y-16306960D01*
X6265301Y-16306960D02*
X6255777Y-16287912D01*
X6255777Y-16287912D02*
X6255777Y-16268865D01*
X6255777Y-16268865D02*
X6265301Y-16249817D01*
X6265301Y-16249817D02*
X6284348Y-16240293D01*
X6284348Y-16240293D02*
X6331967Y-16240293D01*
X6331967Y-16240293D02*
X6351015Y-16230769D01*
X6446253Y-16183150D02*
X6446253Y-16383150D01*
X6446253Y-16192674D02*
X6465301Y-16183150D01*
X6465301Y-16183150D02*
X6503396Y-16183150D01*
X6503396Y-16183150D02*
X6522443Y-16192674D01*
X6522443Y-16192674D02*
X6531967Y-16202198D01*
X6531967Y-16202198D02*
X6541491Y-16221246D01*
X6541491Y-16221246D02*
X6541491Y-16278388D01*
X6541491Y-16278388D02*
X6531967Y-16297436D01*
X6531967Y-16297436D02*
X6522443Y-16306960D01*
X6522443Y-16306960D02*
X6503396Y-16316484D01*
X6503396Y-16316484D02*
X6465301Y-16316484D01*
X6465301Y-16316484D02*
X6446253Y-16306960D01*
X6627205Y-16297436D02*
X6636729Y-16306960D01*
X6636729Y-16306960D02*
X6627205Y-16316484D01*
X6627205Y-16316484D02*
X6617682Y-16306960D01*
X6617682Y-16306960D02*
X6627205Y-16297436D01*
X6627205Y-16297436D02*
X6627205Y-16316484D01*
X6627205Y-16192674D02*
X6636729Y-16202198D01*
X6636729Y-16202198D02*
X6627205Y-16211722D01*
X6627205Y-16211722D02*
X6617682Y-16202198D01*
X6617682Y-16202198D02*
X6627205Y-16192674D01*
X6627205Y-16192674D02*
X6627205Y-16211722D01*
D10*
X4955000Y-16625000D02*
X4995000Y-16665000D01*
X4995000Y-16625000D02*
X4955000Y-16665000D01*
D11*
X5293872Y-16536484D02*
X5312920Y-16536484D01*
X5312920Y-16536484D02*
X5331967Y-16546008D01*
X5331967Y-16546008D02*
X5341491Y-16555531D01*
X5341491Y-16555531D02*
X5351015Y-16574579D01*
X5351015Y-16574579D02*
X5360539Y-16612674D01*
X5360539Y-16612674D02*
X5360539Y-16660293D01*
X5360539Y-16660293D02*
X5351015Y-16698388D01*
X5351015Y-16698388D02*
X5341491Y-16717436D01*
X5341491Y-16717436D02*
X5331967Y-16726960D01*
X5331967Y-16726960D02*
X5312920Y-16736484D01*
X5312920Y-16736484D02*
X5293872Y-16736484D01*
X5293872Y-16736484D02*
X5274824Y-16726960D01*
X5274824Y-16726960D02*
X5265301Y-16717436D01*
X5265301Y-16717436D02*
X5255777Y-16698388D01*
X5255777Y-16698388D02*
X5246253Y-16660293D01*
X5246253Y-16660293D02*
X5246253Y-16612674D01*
X5246253Y-16612674D02*
X5255777Y-16574579D01*
X5255777Y-16574579D02*
X5265301Y-16555531D01*
X5265301Y-16555531D02*
X5274824Y-16546008D01*
X5274824Y-16546008D02*
X5293872Y-16536484D01*
X5446253Y-16717436D02*
X5455777Y-16726960D01*
X5455777Y-16726960D02*
X5446253Y-16736484D01*
X5446253Y-16736484D02*
X5436729Y-16726960D01*
X5436729Y-16726960D02*
X5446253Y-16717436D01*
X5446253Y-16717436D02*
X5446253Y-16736484D01*
X5627205Y-16603150D02*
X5627205Y-16736484D01*
X5579586Y-16526960D02*
X5531967Y-16669817D01*
X5531967Y-16669817D02*
X5655777Y-16669817D01*
X5770062Y-16536484D02*
X5789110Y-16536484D01*
X5789110Y-16536484D02*
X5808158Y-16546008D01*
X5808158Y-16546008D02*
X5817682Y-16555531D01*
X5817682Y-16555531D02*
X5827205Y-16574579D01*
X5827205Y-16574579D02*
X5836729Y-16612674D01*
X5836729Y-16612674D02*
X5836729Y-16660293D01*
X5836729Y-16660293D02*
X5827205Y-16698388D01*
X5827205Y-16698388D02*
X5817682Y-16717436D01*
X5817682Y-16717436D02*
X5808158Y-16726960D01*
X5808158Y-16726960D02*
X5789110Y-16736484D01*
X5789110Y-16736484D02*
X5770062Y-16736484D01*
X5770062Y-16736484D02*
X5751015Y-16726960D01*
X5751015Y-16726960D02*
X5741491Y-16717436D01*
X5741491Y-16717436D02*
X5731967Y-16698388D01*
X5731967Y-16698388D02*
X5722443Y-16660293D01*
X5722443Y-16660293D02*
X5722443Y-16612674D01*
X5722443Y-16612674D02*
X5731967Y-16574579D01*
X5731967Y-16574579D02*
X5741491Y-16555531D01*
X5741491Y-16555531D02*
X5751015Y-16546008D01*
X5751015Y-16546008D02*
X5770062Y-16536484D01*
X5960539Y-16536484D02*
X5979586Y-16536484D01*
X5979586Y-16536484D02*
X5998634Y-16546008D01*
X5998634Y-16546008D02*
X6008158Y-16555531D01*
X6008158Y-16555531D02*
X6017682Y-16574579D01*
X6017682Y-16574579D02*
X6027205Y-16612674D01*
X6027205Y-16612674D02*
X6027205Y-16660293D01*
X6027205Y-16660293D02*
X6017682Y-16698388D01*
X6017682Y-16698388D02*
X6008158Y-16717436D01*
X6008158Y-16717436D02*
X5998634Y-16726960D01*
X5998634Y-16726960D02*
X5979586Y-16736484D01*
X5979586Y-16736484D02*
X5960539Y-16736484D01*
X5960539Y-16736484D02*
X5941491Y-16726960D01*
X5941491Y-16726960D02*
X5931967Y-16717436D01*
X5931967Y-16717436D02*
X5922443Y-16698388D01*
X5922443Y-16698388D02*
X5912920Y-16660293D01*
X5912920Y-16660293D02*
X5912920Y-16612674D01*
X5912920Y-16612674D02*
X5922443Y-16574579D01*
X5922443Y-16574579D02*
X5931967Y-16555531D01*
X5931967Y-16555531D02*
X5941491Y-16546008D01*
X5941491Y-16546008D02*
X5960539Y-16536484D01*
X6112920Y-16736484D02*
X6112920Y-16603150D01*
X6112920Y-16622198D02*
X6122443Y-16612674D01*
X6122443Y-16612674D02*
X6141491Y-16603150D01*
X6141491Y-16603150D02*
X6170063Y-16603150D01*
X6170063Y-16603150D02*
X6189110Y-16612674D01*
X6189110Y-16612674D02*
X6198634Y-16631722D01*
X6198634Y-16631722D02*
X6198634Y-16736484D01*
X6198634Y-16631722D02*
X6208158Y-16612674D01*
X6208158Y-16612674D02*
X6227205Y-16603150D01*
X6227205Y-16603150D02*
X6255777Y-16603150D01*
X6255777Y-16603150D02*
X6274824Y-16612674D01*
X6274824Y-16612674D02*
X6284348Y-16631722D01*
X6284348Y-16631722D02*
X6284348Y-16736484D01*
X6379586Y-16736484D02*
X6379586Y-16603150D01*
X6379586Y-16622198D02*
X6389110Y-16612674D01*
X6389110Y-16612674D02*
X6408158Y-16603150D01*
X6408158Y-16603150D02*
X6436729Y-16603150D01*
X6436729Y-16603150D02*
X6455777Y-16612674D01*
X6455777Y-16612674D02*
X6465301Y-16631722D01*
X6465301Y-16631722D02*
X6465301Y-16736484D01*
X6465301Y-16631722D02*
X6474824Y-16612674D01*
X6474824Y-16612674D02*
X6493872Y-16603150D01*
X6493872Y-16603150D02*
X6522443Y-16603150D01*
X6522443Y-16603150D02*
X6541491Y-16612674D01*
X6541491Y-16612674D02*
X6551015Y-16631722D01*
X6551015Y-16631722D02*
X6551015Y-16736484D01*
X6941491Y-16526960D02*
X6770063Y-16784103D01*
X7198634Y-16536484D02*
X7217682Y-16536484D01*
X7217682Y-16536484D02*
X7236729Y-16546008D01*
X7236729Y-16546008D02*
X7246253Y-16555531D01*
X7246253Y-16555531D02*
X7255777Y-16574579D01*
X7255777Y-16574579D02*
X7265301Y-16612674D01*
X7265301Y-16612674D02*
X7265301Y-16660293D01*
X7265301Y-16660293D02*
X7255777Y-16698388D01*
X7255777Y-16698388D02*
X7246253Y-16717436D01*
X7246253Y-16717436D02*
X7236729Y-16726960D01*
X7236729Y-16726960D02*
X7217682Y-16736484D01*
X7217682Y-16736484D02*
X7198634Y-16736484D01*
X7198634Y-16736484D02*
X7179586Y-16726960D01*
X7179586Y-16726960D02*
X7170063Y-16717436D01*
X7170063Y-16717436D02*
X7160539Y-16698388D01*
X7160539Y-16698388D02*
X7151015Y-16660293D01*
X7151015Y-16660293D02*
X7151015Y-16612674D01*
X7151015Y-16612674D02*
X7160539Y-16574579D01*
X7160539Y-16574579D02*
X7170063Y-16555531D01*
X7170063Y-16555531D02*
X7179586Y-16546008D01*
X7179586Y-16546008D02*
X7198634Y-16536484D01*
X7351015Y-16717436D02*
X7360539Y-16726960D01*
X7360539Y-16726960D02*
X7351015Y-16736484D01*
X7351015Y-16736484D02*
X7341491Y-16726960D01*
X7341491Y-16726960D02*
X7351015Y-16717436D01*
X7351015Y-16717436D02*
X7351015Y-16736484D01*
X7484348Y-16536484D02*
X7503396Y-16536484D01*
X7503396Y-16536484D02*
X7522444Y-16546008D01*
X7522444Y-16546008D02*
X7531967Y-16555531D01*
X7531967Y-16555531D02*
X7541491Y-16574579D01*
X7541491Y-16574579D02*
X7551015Y-16612674D01*
X7551015Y-16612674D02*
X7551015Y-16660293D01*
X7551015Y-16660293D02*
X7541491Y-16698388D01*
X7541491Y-16698388D02*
X7531967Y-16717436D01*
X7531967Y-16717436D02*
X7522444Y-16726960D01*
X7522444Y-16726960D02*
X7503396Y-16736484D01*
X7503396Y-16736484D02*
X7484348Y-16736484D01*
X7484348Y-16736484D02*
X7465301Y-16726960D01*
X7465301Y-16726960D02*
X7455777Y-16717436D01*
X7455777Y-16717436D02*
X7446253Y-16698388D01*
X7446253Y-16698388D02*
X7436729Y-16660293D01*
X7436729Y-16660293D02*
X7436729Y-16612674D01*
X7436729Y-16612674D02*
X7446253Y-16574579D01*
X7446253Y-16574579D02*
X7455777Y-16555531D01*
X7455777Y-16555531D02*
X7465301Y-16546008D01*
X7465301Y-16546008D02*
X7484348Y-16536484D01*
X7741491Y-16736484D02*
X7627206Y-16736484D01*
X7684348Y-16736484D02*
X7684348Y-16536484D01*
X7684348Y-16536484D02*
X7665301Y-16565055D01*
X7665301Y-16565055D02*
X7646253Y-16584103D01*
X7646253Y-16584103D02*
X7627206Y-16593627D01*
X7922444Y-16536484D02*
X7827206Y-16536484D01*
X7827206Y-16536484D02*
X7817682Y-16631722D01*
X7817682Y-16631722D02*
X7827206Y-16622198D01*
X7827206Y-16622198D02*
X7846253Y-16612674D01*
X7846253Y-16612674D02*
X7893872Y-16612674D01*
X7893872Y-16612674D02*
X7912920Y-16622198D01*
X7912920Y-16622198D02*
X7922444Y-16631722D01*
X7922444Y-16631722D02*
X7931967Y-16650769D01*
X7931967Y-16650769D02*
X7931967Y-16698388D01*
X7931967Y-16698388D02*
X7922444Y-16717436D01*
X7922444Y-16717436D02*
X7912920Y-16726960D01*
X7912920Y-16726960D02*
X7893872Y-16736484D01*
X7893872Y-16736484D02*
X7846253Y-16736484D01*
X7846253Y-16736484D02*
X7827206Y-16726960D01*
X7827206Y-16726960D02*
X7817682Y-16717436D01*
X7998634Y-16536484D02*
X8131967Y-16536484D01*
X8131967Y-16536484D02*
X8046253Y-16736484D01*
X8198634Y-16536484D02*
X8198634Y-16574579D01*
X8274825Y-16536484D02*
X8274825Y-16574579D01*
X8570063Y-16812674D02*
X8560539Y-16803150D01*
X8560539Y-16803150D02*
X8541491Y-16774579D01*
X8541491Y-16774579D02*
X8531968Y-16755531D01*
X8531968Y-16755531D02*
X8522444Y-16726960D01*
X8522444Y-16726960D02*
X8512920Y-16679341D01*
X8512920Y-16679341D02*
X8512920Y-16641246D01*
X8512920Y-16641246D02*
X8522444Y-16593627D01*
X8522444Y-16593627D02*
X8531968Y-16565055D01*
X8531968Y-16565055D02*
X8541491Y-16546008D01*
X8541491Y-16546008D02*
X8560539Y-16517436D01*
X8560539Y-16517436D02*
X8570063Y-16507912D01*
X8627206Y-16536484D02*
X8751015Y-16536484D01*
X8751015Y-16536484D02*
X8684349Y-16612674D01*
X8684349Y-16612674D02*
X8712920Y-16612674D01*
X8712920Y-16612674D02*
X8731968Y-16622198D01*
X8731968Y-16622198D02*
X8741491Y-16631722D01*
X8741491Y-16631722D02*
X8751015Y-16650769D01*
X8751015Y-16650769D02*
X8751015Y-16698388D01*
X8751015Y-16698388D02*
X8741491Y-16717436D01*
X8741491Y-16717436D02*
X8731968Y-16726960D01*
X8731968Y-16726960D02*
X8712920Y-16736484D01*
X8712920Y-16736484D02*
X8655777Y-16736484D01*
X8655777Y-16736484D02*
X8636730Y-16726960D01*
X8636730Y-16726960D02*
X8627206Y-16717436D01*
X8846253Y-16736484D02*
X8884349Y-16736484D01*
X8884349Y-16736484D02*
X8903396Y-16726960D01*
X8903396Y-16726960D02*
X8912920Y-16717436D01*
X8912920Y-16717436D02*
X8931968Y-16688865D01*
X8931968Y-16688865D02*
X8941491Y-16650769D01*
X8941491Y-16650769D02*
X8941491Y-16574579D01*
X8941491Y-16574579D02*
X8931968Y-16555531D01*
X8931968Y-16555531D02*
X8922444Y-16546008D01*
X8922444Y-16546008D02*
X8903396Y-16536484D01*
X8903396Y-16536484D02*
X8865301Y-16536484D01*
X8865301Y-16536484D02*
X8846253Y-16546008D01*
X8846253Y-16546008D02*
X8836730Y-16555531D01*
X8836730Y-16555531D02*
X8827206Y-16574579D01*
X8827206Y-16574579D02*
X8827206Y-16622198D01*
X8827206Y-16622198D02*
X8836730Y-16641246D01*
X8836730Y-16641246D02*
X8846253Y-16650769D01*
X8846253Y-16650769D02*
X8865301Y-16660293D01*
X8865301Y-16660293D02*
X8903396Y-16660293D01*
X8903396Y-16660293D02*
X8922444Y-16650769D01*
X8922444Y-16650769D02*
X8931968Y-16641246D01*
X8931968Y-16641246D02*
X8941491Y-16622198D01*
X9179587Y-16736484D02*
X9179587Y-16536484D01*
X9265301Y-16736484D02*
X9265301Y-16631722D01*
X9265301Y-16631722D02*
X9255777Y-16612674D01*
X9255777Y-16612674D02*
X9236730Y-16603150D01*
X9236730Y-16603150D02*
X9208158Y-16603150D01*
X9208158Y-16603150D02*
X9189111Y-16612674D01*
X9189111Y-16612674D02*
X9179587Y-16622198D01*
X9389111Y-16736484D02*
X9370063Y-16726960D01*
X9370063Y-16726960D02*
X9360539Y-16717436D01*
X9360539Y-16717436D02*
X9351015Y-16698388D01*
X9351015Y-16698388D02*
X9351015Y-16641246D01*
X9351015Y-16641246D02*
X9360539Y-16622198D01*
X9360539Y-16622198D02*
X9370063Y-16612674D01*
X9370063Y-16612674D02*
X9389111Y-16603150D01*
X9389111Y-16603150D02*
X9417682Y-16603150D01*
X9417682Y-16603150D02*
X9436730Y-16612674D01*
X9436730Y-16612674D02*
X9446253Y-16622198D01*
X9446253Y-16622198D02*
X9455777Y-16641246D01*
X9455777Y-16641246D02*
X9455777Y-16698388D01*
X9455777Y-16698388D02*
X9446253Y-16717436D01*
X9446253Y-16717436D02*
X9436730Y-16726960D01*
X9436730Y-16726960D02*
X9417682Y-16736484D01*
X9417682Y-16736484D02*
X9389111Y-16736484D01*
X9570063Y-16736484D02*
X9551015Y-16726960D01*
X9551015Y-16726960D02*
X9541492Y-16707912D01*
X9541492Y-16707912D02*
X9541492Y-16536484D01*
X9722444Y-16726960D02*
X9703396Y-16736484D01*
X9703396Y-16736484D02*
X9665301Y-16736484D01*
X9665301Y-16736484D02*
X9646253Y-16726960D01*
X9646253Y-16726960D02*
X9636730Y-16707912D01*
X9636730Y-16707912D02*
X9636730Y-16631722D01*
X9636730Y-16631722D02*
X9646253Y-16612674D01*
X9646253Y-16612674D02*
X9665301Y-16603150D01*
X9665301Y-16603150D02*
X9703396Y-16603150D01*
X9703396Y-16603150D02*
X9722444Y-16612674D01*
X9722444Y-16612674D02*
X9731968Y-16631722D01*
X9731968Y-16631722D02*
X9731968Y-16650769D01*
X9731968Y-16650769D02*
X9636730Y-16669817D01*
X9808158Y-16726960D02*
X9827206Y-16736484D01*
X9827206Y-16736484D02*
X9865301Y-16736484D01*
X9865301Y-16736484D02*
X9884349Y-16726960D01*
X9884349Y-16726960D02*
X9893873Y-16707912D01*
X9893873Y-16707912D02*
X9893873Y-16698388D01*
X9893873Y-16698388D02*
X9884349Y-16679341D01*
X9884349Y-16679341D02*
X9865301Y-16669817D01*
X9865301Y-16669817D02*
X9836730Y-16669817D01*
X9836730Y-16669817D02*
X9817682Y-16660293D01*
X9817682Y-16660293D02*
X9808158Y-16641246D01*
X9808158Y-16641246D02*
X9808158Y-16631722D01*
X9808158Y-16631722D02*
X9817682Y-16612674D01*
X9817682Y-16612674D02*
X9836730Y-16603150D01*
X9836730Y-16603150D02*
X9865301Y-16603150D01*
X9865301Y-16603150D02*
X9884349Y-16612674D01*
X9960539Y-16812674D02*
X9970063Y-16803150D01*
X9970063Y-16803150D02*
X9989111Y-16774579D01*
X9989111Y-16774579D02*
X9998634Y-16755531D01*
X9998634Y-16755531D02*
X10008158Y-16726960D01*
X10008158Y-16726960D02*
X10017682Y-16679341D01*
X10017682Y-16679341D02*
X10017682Y-16641246D01*
X10017682Y-16641246D02*
X10008158Y-16593627D01*
X10008158Y-16593627D02*
X9998634Y-16565055D01*
X9998634Y-16565055D02*
X9989111Y-16546008D01*
X9989111Y-16546008D02*
X9970063Y-16517436D01*
X9970063Y-16517436D02*
X9960539Y-16507912D01*
D10*
X4995000Y-16909000D02*
G75*
G02*
X4935000Y-16909000I-30000J0D01*
G01*
X4935000Y-16909000D02*
G75*
G02*
X4995000Y-16909000I30000J0D01*
G01*
D11*
X5293872Y-16800484D02*
X5312920Y-16800484D01*
X5312920Y-16800484D02*
X5331967Y-16810008D01*
X5331967Y-16810008D02*
X5341491Y-16819531D01*
X5341491Y-16819531D02*
X5351015Y-16838579D01*
X5351015Y-16838579D02*
X5360539Y-16876674D01*
X5360539Y-16876674D02*
X5360539Y-16924293D01*
X5360539Y-16924293D02*
X5351015Y-16962389D01*
X5351015Y-16962389D02*
X5341491Y-16981436D01*
X5341491Y-16981436D02*
X5331967Y-16990960D01*
X5331967Y-16990960D02*
X5312920Y-17000484D01*
X5312920Y-17000484D02*
X5293872Y-17000484D01*
X5293872Y-17000484D02*
X5274824Y-16990960D01*
X5274824Y-16990960D02*
X5265301Y-16981436D01*
X5265301Y-16981436D02*
X5255777Y-16962389D01*
X5255777Y-16962389D02*
X5246253Y-16924293D01*
X5246253Y-16924293D02*
X5246253Y-16876674D01*
X5246253Y-16876674D02*
X5255777Y-16838579D01*
X5255777Y-16838579D02*
X5265301Y-16819531D01*
X5265301Y-16819531D02*
X5274824Y-16810008D01*
X5274824Y-16810008D02*
X5293872Y-16800484D01*
X5446253Y-16981436D02*
X5455777Y-16990960D01*
X5455777Y-16990960D02*
X5446253Y-17000484D01*
X5446253Y-17000484D02*
X5436729Y-16990960D01*
X5436729Y-16990960D02*
X5446253Y-16981436D01*
X5446253Y-16981436D02*
X5446253Y-17000484D01*
X5627205Y-16800484D02*
X5589110Y-16800484D01*
X5589110Y-16800484D02*
X5570063Y-16810008D01*
X5570063Y-16810008D02*
X5560539Y-16819531D01*
X5560539Y-16819531D02*
X5541491Y-16848103D01*
X5541491Y-16848103D02*
X5531967Y-16886198D01*
X5531967Y-16886198D02*
X5531967Y-16962389D01*
X5531967Y-16962389D02*
X5541491Y-16981436D01*
X5541491Y-16981436D02*
X5551015Y-16990960D01*
X5551015Y-16990960D02*
X5570063Y-17000484D01*
X5570063Y-17000484D02*
X5608158Y-17000484D01*
X5608158Y-17000484D02*
X5627205Y-16990960D01*
X5627205Y-16990960D02*
X5636729Y-16981436D01*
X5636729Y-16981436D02*
X5646253Y-16962389D01*
X5646253Y-16962389D02*
X5646253Y-16914770D01*
X5646253Y-16914770D02*
X5636729Y-16895722D01*
X5636729Y-16895722D02*
X5627205Y-16886198D01*
X5627205Y-16886198D02*
X5608158Y-16876674D01*
X5608158Y-16876674D02*
X5570063Y-16876674D01*
X5570063Y-16876674D02*
X5551015Y-16886198D01*
X5551015Y-16886198D02*
X5541491Y-16895722D01*
X5541491Y-16895722D02*
X5531967Y-16914770D01*
X5770062Y-16800484D02*
X5789110Y-16800484D01*
X5789110Y-16800484D02*
X5808158Y-16810008D01*
X5808158Y-16810008D02*
X5817682Y-16819531D01*
X5817682Y-16819531D02*
X5827205Y-16838579D01*
X5827205Y-16838579D02*
X5836729Y-16876674D01*
X5836729Y-16876674D02*
X5836729Y-16924293D01*
X5836729Y-16924293D02*
X5827205Y-16962389D01*
X5827205Y-16962389D02*
X5817682Y-16981436D01*
X5817682Y-16981436D02*
X5808158Y-16990960D01*
X5808158Y-16990960D02*
X5789110Y-17000484D01*
X5789110Y-17000484D02*
X5770062Y-17000484D01*
X5770062Y-17000484D02*
X5751015Y-16990960D01*
X5751015Y-16990960D02*
X5741491Y-16981436D01*
X5741491Y-16981436D02*
X5731967Y-16962389D01*
X5731967Y-16962389D02*
X5722443Y-16924293D01*
X5722443Y-16924293D02*
X5722443Y-16876674D01*
X5722443Y-16876674D02*
X5731967Y-16838579D01*
X5731967Y-16838579D02*
X5741491Y-16819531D01*
X5741491Y-16819531D02*
X5751015Y-16810008D01*
X5751015Y-16810008D02*
X5770062Y-16800484D01*
X5960539Y-16800484D02*
X5979586Y-16800484D01*
X5979586Y-16800484D02*
X5998634Y-16810008D01*
X5998634Y-16810008D02*
X6008158Y-16819531D01*
X6008158Y-16819531D02*
X6017682Y-16838579D01*
X6017682Y-16838579D02*
X6027205Y-16876674D01*
X6027205Y-16876674D02*
X6027205Y-16924293D01*
X6027205Y-16924293D02*
X6017682Y-16962389D01*
X6017682Y-16962389D02*
X6008158Y-16981436D01*
X6008158Y-16981436D02*
X5998634Y-16990960D01*
X5998634Y-16990960D02*
X5979586Y-17000484D01*
X5979586Y-17000484D02*
X5960539Y-17000484D01*
X5960539Y-17000484D02*
X5941491Y-16990960D01*
X5941491Y-16990960D02*
X5931967Y-16981436D01*
X5931967Y-16981436D02*
X5922443Y-16962389D01*
X5922443Y-16962389D02*
X5912920Y-16924293D01*
X5912920Y-16924293D02*
X5912920Y-16876674D01*
X5912920Y-16876674D02*
X5922443Y-16838579D01*
X5922443Y-16838579D02*
X5931967Y-16819531D01*
X5931967Y-16819531D02*
X5941491Y-16810008D01*
X5941491Y-16810008D02*
X5960539Y-16800484D01*
X6112920Y-17000484D02*
X6112920Y-16867150D01*
X6112920Y-16886198D02*
X6122443Y-16876674D01*
X6122443Y-16876674D02*
X6141491Y-16867150D01*
X6141491Y-16867150D02*
X6170063Y-16867150D01*
X6170063Y-16867150D02*
X6189110Y-16876674D01*
X6189110Y-16876674D02*
X6198634Y-16895722D01*
X6198634Y-16895722D02*
X6198634Y-17000484D01*
X6198634Y-16895722D02*
X6208158Y-16876674D01*
X6208158Y-16876674D02*
X6227205Y-16867150D01*
X6227205Y-16867150D02*
X6255777Y-16867150D01*
X6255777Y-16867150D02*
X6274824Y-16876674D01*
X6274824Y-16876674D02*
X6284348Y-16895722D01*
X6284348Y-16895722D02*
X6284348Y-17000484D01*
X6379586Y-17000484D02*
X6379586Y-16867150D01*
X6379586Y-16886198D02*
X6389110Y-16876674D01*
X6389110Y-16876674D02*
X6408158Y-16867150D01*
X6408158Y-16867150D02*
X6436729Y-16867150D01*
X6436729Y-16867150D02*
X6455777Y-16876674D01*
X6455777Y-16876674D02*
X6465301Y-16895722D01*
X6465301Y-16895722D02*
X6465301Y-17000484D01*
X6465301Y-16895722D02*
X6474824Y-16876674D01*
X6474824Y-16876674D02*
X6493872Y-16867150D01*
X6493872Y-16867150D02*
X6522443Y-16867150D01*
X6522443Y-16867150D02*
X6541491Y-16876674D01*
X6541491Y-16876674D02*
X6551015Y-16895722D01*
X6551015Y-16895722D02*
X6551015Y-17000484D01*
X6941491Y-16790960D02*
X6770063Y-17048103D01*
X7198634Y-16800484D02*
X7217682Y-16800484D01*
X7217682Y-16800484D02*
X7236729Y-16810008D01*
X7236729Y-16810008D02*
X7246253Y-16819531D01*
X7246253Y-16819531D02*
X7255777Y-16838579D01*
X7255777Y-16838579D02*
X7265301Y-16876674D01*
X7265301Y-16876674D02*
X7265301Y-16924293D01*
X7265301Y-16924293D02*
X7255777Y-16962389D01*
X7255777Y-16962389D02*
X7246253Y-16981436D01*
X7246253Y-16981436D02*
X7236729Y-16990960D01*
X7236729Y-16990960D02*
X7217682Y-17000484D01*
X7217682Y-17000484D02*
X7198634Y-17000484D01*
X7198634Y-17000484D02*
X7179586Y-16990960D01*
X7179586Y-16990960D02*
X7170063Y-16981436D01*
X7170063Y-16981436D02*
X7160539Y-16962389D01*
X7160539Y-16962389D02*
X7151015Y-16924293D01*
X7151015Y-16924293D02*
X7151015Y-16876674D01*
X7151015Y-16876674D02*
X7160539Y-16838579D01*
X7160539Y-16838579D02*
X7170063Y-16819531D01*
X7170063Y-16819531D02*
X7179586Y-16810008D01*
X7179586Y-16810008D02*
X7198634Y-16800484D01*
X7351015Y-16981436D02*
X7360539Y-16990960D01*
X7360539Y-16990960D02*
X7351015Y-17000484D01*
X7351015Y-17000484D02*
X7341491Y-16990960D01*
X7341491Y-16990960D02*
X7351015Y-16981436D01*
X7351015Y-16981436D02*
X7351015Y-17000484D01*
X7484348Y-16800484D02*
X7503396Y-16800484D01*
X7503396Y-16800484D02*
X7522444Y-16810008D01*
X7522444Y-16810008D02*
X7531967Y-16819531D01*
X7531967Y-16819531D02*
X7541491Y-16838579D01*
X7541491Y-16838579D02*
X7551015Y-16876674D01*
X7551015Y-16876674D02*
X7551015Y-16924293D01*
X7551015Y-16924293D02*
X7541491Y-16962389D01*
X7541491Y-16962389D02*
X7531967Y-16981436D01*
X7531967Y-16981436D02*
X7522444Y-16990960D01*
X7522444Y-16990960D02*
X7503396Y-17000484D01*
X7503396Y-17000484D02*
X7484348Y-17000484D01*
X7484348Y-17000484D02*
X7465301Y-16990960D01*
X7465301Y-16990960D02*
X7455777Y-16981436D01*
X7455777Y-16981436D02*
X7446253Y-16962389D01*
X7446253Y-16962389D02*
X7436729Y-16924293D01*
X7436729Y-16924293D02*
X7436729Y-16876674D01*
X7436729Y-16876674D02*
X7446253Y-16838579D01*
X7446253Y-16838579D02*
X7455777Y-16819531D01*
X7455777Y-16819531D02*
X7465301Y-16810008D01*
X7465301Y-16810008D02*
X7484348Y-16800484D01*
X7627206Y-16819531D02*
X7636729Y-16810008D01*
X7636729Y-16810008D02*
X7655777Y-16800484D01*
X7655777Y-16800484D02*
X7703396Y-16800484D01*
X7703396Y-16800484D02*
X7722444Y-16810008D01*
X7722444Y-16810008D02*
X7731967Y-16819531D01*
X7731967Y-16819531D02*
X7741491Y-16838579D01*
X7741491Y-16838579D02*
X7741491Y-16857627D01*
X7741491Y-16857627D02*
X7731967Y-16886198D01*
X7731967Y-16886198D02*
X7617682Y-17000484D01*
X7617682Y-17000484D02*
X7741491Y-17000484D01*
X7808158Y-16800484D02*
X7931967Y-16800484D01*
X7931967Y-16800484D02*
X7865301Y-16876674D01*
X7865301Y-16876674D02*
X7893872Y-16876674D01*
X7893872Y-16876674D02*
X7912920Y-16886198D01*
X7912920Y-16886198D02*
X7922444Y-16895722D01*
X7922444Y-16895722D02*
X7931967Y-16914770D01*
X7931967Y-16914770D02*
X7931967Y-16962389D01*
X7931967Y-16962389D02*
X7922444Y-16981436D01*
X7922444Y-16981436D02*
X7912920Y-16990960D01*
X7912920Y-16990960D02*
X7893872Y-17000484D01*
X7893872Y-17000484D02*
X7836729Y-17000484D01*
X7836729Y-17000484D02*
X7817682Y-16990960D01*
X7817682Y-16990960D02*
X7808158Y-16981436D01*
X8103396Y-16800484D02*
X8065301Y-16800484D01*
X8065301Y-16800484D02*
X8046253Y-16810008D01*
X8046253Y-16810008D02*
X8036729Y-16819531D01*
X8036729Y-16819531D02*
X8017682Y-16848103D01*
X8017682Y-16848103D02*
X8008158Y-16886198D01*
X8008158Y-16886198D02*
X8008158Y-16962389D01*
X8008158Y-16962389D02*
X8017682Y-16981436D01*
X8017682Y-16981436D02*
X8027206Y-16990960D01*
X8027206Y-16990960D02*
X8046253Y-17000484D01*
X8046253Y-17000484D02*
X8084348Y-17000484D01*
X8084348Y-17000484D02*
X8103396Y-16990960D01*
X8103396Y-16990960D02*
X8112920Y-16981436D01*
X8112920Y-16981436D02*
X8122444Y-16962389D01*
X8122444Y-16962389D02*
X8122444Y-16914770D01*
X8122444Y-16914770D02*
X8112920Y-16895722D01*
X8112920Y-16895722D02*
X8103396Y-16886198D01*
X8103396Y-16886198D02*
X8084348Y-16876674D01*
X8084348Y-16876674D02*
X8046253Y-16876674D01*
X8046253Y-16876674D02*
X8027206Y-16886198D01*
X8027206Y-16886198D02*
X8017682Y-16895722D01*
X8017682Y-16895722D02*
X8008158Y-16914770D01*
X8198634Y-16800484D02*
X8198634Y-16838579D01*
X8274825Y-16800484D02*
X8274825Y-16838579D01*
X8570063Y-17076674D02*
X8560539Y-17067150D01*
X8560539Y-17067150D02*
X8541491Y-17038579D01*
X8541491Y-17038579D02*
X8531968Y-17019531D01*
X8531968Y-17019531D02*
X8522444Y-16990960D01*
X8522444Y-16990960D02*
X8512920Y-16943341D01*
X8512920Y-16943341D02*
X8512920Y-16905246D01*
X8512920Y-16905246D02*
X8522444Y-16857627D01*
X8522444Y-16857627D02*
X8531968Y-16829055D01*
X8531968Y-16829055D02*
X8541491Y-16810008D01*
X8541491Y-16810008D02*
X8560539Y-16781436D01*
X8560539Y-16781436D02*
X8570063Y-16771912D01*
X8731968Y-16867150D02*
X8731968Y-17000484D01*
X8684349Y-16790960D02*
X8636730Y-16933817D01*
X8636730Y-16933817D02*
X8760539Y-16933817D01*
X8989111Y-17000484D02*
X8989111Y-16800484D01*
X9074825Y-17000484D02*
X9074825Y-16895722D01*
X9074825Y-16895722D02*
X9065301Y-16876674D01*
X9065301Y-16876674D02*
X9046253Y-16867150D01*
X9046253Y-16867150D02*
X9017682Y-16867150D01*
X9017682Y-16867150D02*
X8998634Y-16876674D01*
X8998634Y-16876674D02*
X8989111Y-16886198D01*
X9198634Y-17000484D02*
X9179587Y-16990960D01*
X9179587Y-16990960D02*
X9170063Y-16981436D01*
X9170063Y-16981436D02*
X9160539Y-16962389D01*
X9160539Y-16962389D02*
X9160539Y-16905246D01*
X9160539Y-16905246D02*
X9170063Y-16886198D01*
X9170063Y-16886198D02*
X9179587Y-16876674D01*
X9179587Y-16876674D02*
X9198634Y-16867150D01*
X9198634Y-16867150D02*
X9227206Y-16867150D01*
X9227206Y-16867150D02*
X9246253Y-16876674D01*
X9246253Y-16876674D02*
X9255777Y-16886198D01*
X9255777Y-16886198D02*
X9265301Y-16905246D01*
X9265301Y-16905246D02*
X9265301Y-16962389D01*
X9265301Y-16962389D02*
X9255777Y-16981436D01*
X9255777Y-16981436D02*
X9246253Y-16990960D01*
X9246253Y-16990960D02*
X9227206Y-17000484D01*
X9227206Y-17000484D02*
X9198634Y-17000484D01*
X9379587Y-17000484D02*
X9360539Y-16990960D01*
X9360539Y-16990960D02*
X9351015Y-16971912D01*
X9351015Y-16971912D02*
X9351015Y-16800484D01*
X9531968Y-16990960D02*
X9512920Y-17000484D01*
X9512920Y-17000484D02*
X9474825Y-17000484D01*
X9474825Y-17000484D02*
X9455777Y-16990960D01*
X9455777Y-16990960D02*
X9446253Y-16971912D01*
X9446253Y-16971912D02*
X9446253Y-16895722D01*
X9446253Y-16895722D02*
X9455777Y-16876674D01*
X9455777Y-16876674D02*
X9474825Y-16867150D01*
X9474825Y-16867150D02*
X9512920Y-16867150D01*
X9512920Y-16867150D02*
X9531968Y-16876674D01*
X9531968Y-16876674D02*
X9541492Y-16895722D01*
X9541492Y-16895722D02*
X9541492Y-16914770D01*
X9541492Y-16914770D02*
X9446253Y-16933817D01*
X9617682Y-16990960D02*
X9636730Y-17000484D01*
X9636730Y-17000484D02*
X9674825Y-17000484D01*
X9674825Y-17000484D02*
X9693873Y-16990960D01*
X9693873Y-16990960D02*
X9703396Y-16971912D01*
X9703396Y-16971912D02*
X9703396Y-16962389D01*
X9703396Y-16962389D02*
X9693873Y-16943341D01*
X9693873Y-16943341D02*
X9674825Y-16933817D01*
X9674825Y-16933817D02*
X9646253Y-16933817D01*
X9646253Y-16933817D02*
X9627206Y-16924293D01*
X9627206Y-16924293D02*
X9617682Y-16905246D01*
X9617682Y-16905246D02*
X9617682Y-16895722D01*
X9617682Y-16895722D02*
X9627206Y-16876674D01*
X9627206Y-16876674D02*
X9646253Y-16867150D01*
X9646253Y-16867150D02*
X9674825Y-16867150D01*
X9674825Y-16867150D02*
X9693873Y-16876674D01*
X9770063Y-17076674D02*
X9779587Y-17067150D01*
X9779587Y-17067150D02*
X9798634Y-17038579D01*
X9798634Y-17038579D02*
X9808158Y-17019531D01*
X9808158Y-17019531D02*
X9817682Y-16990960D01*
X9817682Y-16990960D02*
X9827206Y-16943341D01*
X9827206Y-16943341D02*
X9827206Y-16905246D01*
X9827206Y-16905246D02*
X9817682Y-16857627D01*
X9817682Y-16857627D02*
X9808158Y-16829055D01*
X9808158Y-16829055D02*
X9798634Y-16810008D01*
X9798634Y-16810008D02*
X9779587Y-16781436D01*
X9779587Y-16781436D02*
X9770063Y-16771912D01*
D10*
X4957500Y-17135500D02*
X4957500Y-17210500D01*
X4920000Y-17173000D02*
X4995000Y-17173000D01*
D11*
X5293872Y-17064484D02*
X5312920Y-17064484D01*
X5312920Y-17064484D02*
X5331967Y-17074008D01*
X5331967Y-17074008D02*
X5341491Y-17083531D01*
X5341491Y-17083531D02*
X5351015Y-17102579D01*
X5351015Y-17102579D02*
X5360539Y-17140674D01*
X5360539Y-17140674D02*
X5360539Y-17188293D01*
X5360539Y-17188293D02*
X5351015Y-17226389D01*
X5351015Y-17226389D02*
X5341491Y-17245436D01*
X5341491Y-17245436D02*
X5331967Y-17254960D01*
X5331967Y-17254960D02*
X5312920Y-17264484D01*
X5312920Y-17264484D02*
X5293872Y-17264484D01*
X5293872Y-17264484D02*
X5274824Y-17254960D01*
X5274824Y-17254960D02*
X5265301Y-17245436D01*
X5265301Y-17245436D02*
X5255777Y-17226389D01*
X5255777Y-17226389D02*
X5246253Y-17188293D01*
X5246253Y-17188293D02*
X5246253Y-17140674D01*
X5246253Y-17140674D02*
X5255777Y-17102579D01*
X5255777Y-17102579D02*
X5265301Y-17083531D01*
X5265301Y-17083531D02*
X5274824Y-17074008D01*
X5274824Y-17074008D02*
X5293872Y-17064484D01*
X5446253Y-17245436D02*
X5455777Y-17254960D01*
X5455777Y-17254960D02*
X5446253Y-17264484D01*
X5446253Y-17264484D02*
X5436729Y-17254960D01*
X5436729Y-17254960D02*
X5446253Y-17245436D01*
X5446253Y-17245436D02*
X5446253Y-17264484D01*
X5522444Y-17064484D02*
X5655777Y-17064484D01*
X5655777Y-17064484D02*
X5570063Y-17264484D01*
X5827205Y-17064484D02*
X5731967Y-17064484D01*
X5731967Y-17064484D02*
X5722443Y-17159722D01*
X5722443Y-17159722D02*
X5731967Y-17150198D01*
X5731967Y-17150198D02*
X5751015Y-17140674D01*
X5751015Y-17140674D02*
X5798634Y-17140674D01*
X5798634Y-17140674D02*
X5817682Y-17150198D01*
X5817682Y-17150198D02*
X5827205Y-17159722D01*
X5827205Y-17159722D02*
X5836729Y-17178770D01*
X5836729Y-17178770D02*
X5836729Y-17226389D01*
X5836729Y-17226389D02*
X5827205Y-17245436D01*
X5827205Y-17245436D02*
X5817682Y-17254960D01*
X5817682Y-17254960D02*
X5798634Y-17264484D01*
X5798634Y-17264484D02*
X5751015Y-17264484D01*
X5751015Y-17264484D02*
X5731967Y-17254960D01*
X5731967Y-17254960D02*
X5722443Y-17245436D01*
X5960539Y-17064484D02*
X5979586Y-17064484D01*
X5979586Y-17064484D02*
X5998634Y-17074008D01*
X5998634Y-17074008D02*
X6008158Y-17083531D01*
X6008158Y-17083531D02*
X6017682Y-17102579D01*
X6017682Y-17102579D02*
X6027205Y-17140674D01*
X6027205Y-17140674D02*
X6027205Y-17188293D01*
X6027205Y-17188293D02*
X6017682Y-17226389D01*
X6017682Y-17226389D02*
X6008158Y-17245436D01*
X6008158Y-17245436D02*
X5998634Y-17254960D01*
X5998634Y-17254960D02*
X5979586Y-17264484D01*
X5979586Y-17264484D02*
X5960539Y-17264484D01*
X5960539Y-17264484D02*
X5941491Y-17254960D01*
X5941491Y-17254960D02*
X5931967Y-17245436D01*
X5931967Y-17245436D02*
X5922443Y-17226389D01*
X5922443Y-17226389D02*
X5912920Y-17188293D01*
X5912920Y-17188293D02*
X5912920Y-17140674D01*
X5912920Y-17140674D02*
X5922443Y-17102579D01*
X5922443Y-17102579D02*
X5931967Y-17083531D01*
X5931967Y-17083531D02*
X5941491Y-17074008D01*
X5941491Y-17074008D02*
X5960539Y-17064484D01*
X6112920Y-17264484D02*
X6112920Y-17131150D01*
X6112920Y-17150198D02*
X6122443Y-17140674D01*
X6122443Y-17140674D02*
X6141491Y-17131150D01*
X6141491Y-17131150D02*
X6170063Y-17131150D01*
X6170063Y-17131150D02*
X6189110Y-17140674D01*
X6189110Y-17140674D02*
X6198634Y-17159722D01*
X6198634Y-17159722D02*
X6198634Y-17264484D01*
X6198634Y-17159722D02*
X6208158Y-17140674D01*
X6208158Y-17140674D02*
X6227205Y-17131150D01*
X6227205Y-17131150D02*
X6255777Y-17131150D01*
X6255777Y-17131150D02*
X6274824Y-17140674D01*
X6274824Y-17140674D02*
X6284348Y-17159722D01*
X6284348Y-17159722D02*
X6284348Y-17264484D01*
X6379586Y-17264484D02*
X6379586Y-17131150D01*
X6379586Y-17150198D02*
X6389110Y-17140674D01*
X6389110Y-17140674D02*
X6408158Y-17131150D01*
X6408158Y-17131150D02*
X6436729Y-17131150D01*
X6436729Y-17131150D02*
X6455777Y-17140674D01*
X6455777Y-17140674D02*
X6465301Y-17159722D01*
X6465301Y-17159722D02*
X6465301Y-17264484D01*
X6465301Y-17159722D02*
X6474824Y-17140674D01*
X6474824Y-17140674D02*
X6493872Y-17131150D01*
X6493872Y-17131150D02*
X6522443Y-17131150D01*
X6522443Y-17131150D02*
X6541491Y-17140674D01*
X6541491Y-17140674D02*
X6551015Y-17159722D01*
X6551015Y-17159722D02*
X6551015Y-17264484D01*
X6941491Y-17054960D02*
X6770063Y-17312103D01*
X7198634Y-17064484D02*
X7217682Y-17064484D01*
X7217682Y-17064484D02*
X7236729Y-17074008D01*
X7236729Y-17074008D02*
X7246253Y-17083531D01*
X7246253Y-17083531D02*
X7255777Y-17102579D01*
X7255777Y-17102579D02*
X7265301Y-17140674D01*
X7265301Y-17140674D02*
X7265301Y-17188293D01*
X7265301Y-17188293D02*
X7255777Y-17226389D01*
X7255777Y-17226389D02*
X7246253Y-17245436D01*
X7246253Y-17245436D02*
X7236729Y-17254960D01*
X7236729Y-17254960D02*
X7217682Y-17264484D01*
X7217682Y-17264484D02*
X7198634Y-17264484D01*
X7198634Y-17264484D02*
X7179586Y-17254960D01*
X7179586Y-17254960D02*
X7170063Y-17245436D01*
X7170063Y-17245436D02*
X7160539Y-17226389D01*
X7160539Y-17226389D02*
X7151015Y-17188293D01*
X7151015Y-17188293D02*
X7151015Y-17140674D01*
X7151015Y-17140674D02*
X7160539Y-17102579D01*
X7160539Y-17102579D02*
X7170063Y-17083531D01*
X7170063Y-17083531D02*
X7179586Y-17074008D01*
X7179586Y-17074008D02*
X7198634Y-17064484D01*
X7351015Y-17245436D02*
X7360539Y-17254960D01*
X7360539Y-17254960D02*
X7351015Y-17264484D01*
X7351015Y-17264484D02*
X7341491Y-17254960D01*
X7341491Y-17254960D02*
X7351015Y-17245436D01*
X7351015Y-17245436D02*
X7351015Y-17264484D01*
X7484348Y-17064484D02*
X7503396Y-17064484D01*
X7503396Y-17064484D02*
X7522444Y-17074008D01*
X7522444Y-17074008D02*
X7531967Y-17083531D01*
X7531967Y-17083531D02*
X7541491Y-17102579D01*
X7541491Y-17102579D02*
X7551015Y-17140674D01*
X7551015Y-17140674D02*
X7551015Y-17188293D01*
X7551015Y-17188293D02*
X7541491Y-17226389D01*
X7541491Y-17226389D02*
X7531967Y-17245436D01*
X7531967Y-17245436D02*
X7522444Y-17254960D01*
X7522444Y-17254960D02*
X7503396Y-17264484D01*
X7503396Y-17264484D02*
X7484348Y-17264484D01*
X7484348Y-17264484D02*
X7465301Y-17254960D01*
X7465301Y-17254960D02*
X7455777Y-17245436D01*
X7455777Y-17245436D02*
X7446253Y-17226389D01*
X7446253Y-17226389D02*
X7436729Y-17188293D01*
X7436729Y-17188293D02*
X7436729Y-17140674D01*
X7436729Y-17140674D02*
X7446253Y-17102579D01*
X7446253Y-17102579D02*
X7455777Y-17083531D01*
X7455777Y-17083531D02*
X7465301Y-17074008D01*
X7465301Y-17074008D02*
X7484348Y-17064484D01*
X7627206Y-17083531D02*
X7636729Y-17074008D01*
X7636729Y-17074008D02*
X7655777Y-17064484D01*
X7655777Y-17064484D02*
X7703396Y-17064484D01*
X7703396Y-17064484D02*
X7722444Y-17074008D01*
X7722444Y-17074008D02*
X7731967Y-17083531D01*
X7731967Y-17083531D02*
X7741491Y-17102579D01*
X7741491Y-17102579D02*
X7741491Y-17121627D01*
X7741491Y-17121627D02*
X7731967Y-17150198D01*
X7731967Y-17150198D02*
X7617682Y-17264484D01*
X7617682Y-17264484D02*
X7741491Y-17264484D01*
X7836729Y-17264484D02*
X7874825Y-17264484D01*
X7874825Y-17264484D02*
X7893872Y-17254960D01*
X7893872Y-17254960D02*
X7903396Y-17245436D01*
X7903396Y-17245436D02*
X7922444Y-17216865D01*
X7922444Y-17216865D02*
X7931967Y-17178770D01*
X7931967Y-17178770D02*
X7931967Y-17102579D01*
X7931967Y-17102579D02*
X7922444Y-17083531D01*
X7922444Y-17083531D02*
X7912920Y-17074008D01*
X7912920Y-17074008D02*
X7893872Y-17064484D01*
X7893872Y-17064484D02*
X7855777Y-17064484D01*
X7855777Y-17064484D02*
X7836729Y-17074008D01*
X7836729Y-17074008D02*
X7827206Y-17083531D01*
X7827206Y-17083531D02*
X7817682Y-17102579D01*
X7817682Y-17102579D02*
X7817682Y-17150198D01*
X7817682Y-17150198D02*
X7827206Y-17169246D01*
X7827206Y-17169246D02*
X7836729Y-17178770D01*
X7836729Y-17178770D02*
X7855777Y-17188293D01*
X7855777Y-17188293D02*
X7893872Y-17188293D01*
X7893872Y-17188293D02*
X7912920Y-17178770D01*
X7912920Y-17178770D02*
X7922444Y-17169246D01*
X7922444Y-17169246D02*
X7931967Y-17150198D01*
X8112920Y-17064484D02*
X8017682Y-17064484D01*
X8017682Y-17064484D02*
X8008158Y-17159722D01*
X8008158Y-17159722D02*
X8017682Y-17150198D01*
X8017682Y-17150198D02*
X8036729Y-17140674D01*
X8036729Y-17140674D02*
X8084348Y-17140674D01*
X8084348Y-17140674D02*
X8103396Y-17150198D01*
X8103396Y-17150198D02*
X8112920Y-17159722D01*
X8112920Y-17159722D02*
X8122444Y-17178770D01*
X8122444Y-17178770D02*
X8122444Y-17226389D01*
X8122444Y-17226389D02*
X8112920Y-17245436D01*
X8112920Y-17245436D02*
X8103396Y-17254960D01*
X8103396Y-17254960D02*
X8084348Y-17264484D01*
X8084348Y-17264484D02*
X8036729Y-17264484D01*
X8036729Y-17264484D02*
X8017682Y-17254960D01*
X8017682Y-17254960D02*
X8008158Y-17245436D01*
X8198634Y-17064484D02*
X8198634Y-17102579D01*
X8274825Y-17064484D02*
X8274825Y-17102579D01*
X8570063Y-17340674D02*
X8560539Y-17331150D01*
X8560539Y-17331150D02*
X8541491Y-17302579D01*
X8541491Y-17302579D02*
X8531968Y-17283531D01*
X8531968Y-17283531D02*
X8522444Y-17254960D01*
X8522444Y-17254960D02*
X8512920Y-17207341D01*
X8512920Y-17207341D02*
X8512920Y-17169246D01*
X8512920Y-17169246D02*
X8522444Y-17121627D01*
X8522444Y-17121627D02*
X8531968Y-17093055D01*
X8531968Y-17093055D02*
X8541491Y-17074008D01*
X8541491Y-17074008D02*
X8560539Y-17045436D01*
X8560539Y-17045436D02*
X8570063Y-17035912D01*
X8627206Y-17064484D02*
X8751015Y-17064484D01*
X8751015Y-17064484D02*
X8684349Y-17140674D01*
X8684349Y-17140674D02*
X8712920Y-17140674D01*
X8712920Y-17140674D02*
X8731968Y-17150198D01*
X8731968Y-17150198D02*
X8741491Y-17159722D01*
X8741491Y-17159722D02*
X8751015Y-17178770D01*
X8751015Y-17178770D02*
X8751015Y-17226389D01*
X8751015Y-17226389D02*
X8741491Y-17245436D01*
X8741491Y-17245436D02*
X8731968Y-17254960D01*
X8731968Y-17254960D02*
X8712920Y-17264484D01*
X8712920Y-17264484D02*
X8655777Y-17264484D01*
X8655777Y-17264484D02*
X8636730Y-17254960D01*
X8636730Y-17254960D02*
X8627206Y-17245436D01*
X8989111Y-17264484D02*
X8989111Y-17064484D01*
X9074825Y-17264484D02*
X9074825Y-17159722D01*
X9074825Y-17159722D02*
X9065301Y-17140674D01*
X9065301Y-17140674D02*
X9046253Y-17131150D01*
X9046253Y-17131150D02*
X9017682Y-17131150D01*
X9017682Y-17131150D02*
X8998634Y-17140674D01*
X8998634Y-17140674D02*
X8989111Y-17150198D01*
X9198634Y-17264484D02*
X9179587Y-17254960D01*
X9179587Y-17254960D02*
X9170063Y-17245436D01*
X9170063Y-17245436D02*
X9160539Y-17226389D01*
X9160539Y-17226389D02*
X9160539Y-17169246D01*
X9160539Y-17169246D02*
X9170063Y-17150198D01*
X9170063Y-17150198D02*
X9179587Y-17140674D01*
X9179587Y-17140674D02*
X9198634Y-17131150D01*
X9198634Y-17131150D02*
X9227206Y-17131150D01*
X9227206Y-17131150D02*
X9246253Y-17140674D01*
X9246253Y-17140674D02*
X9255777Y-17150198D01*
X9255777Y-17150198D02*
X9265301Y-17169246D01*
X9265301Y-17169246D02*
X9265301Y-17226389D01*
X9265301Y-17226389D02*
X9255777Y-17245436D01*
X9255777Y-17245436D02*
X9246253Y-17254960D01*
X9246253Y-17254960D02*
X9227206Y-17264484D01*
X9227206Y-17264484D02*
X9198634Y-17264484D01*
X9379587Y-17264484D02*
X9360539Y-17254960D01*
X9360539Y-17254960D02*
X9351015Y-17235912D01*
X9351015Y-17235912D02*
X9351015Y-17064484D01*
X9531968Y-17254960D02*
X9512920Y-17264484D01*
X9512920Y-17264484D02*
X9474825Y-17264484D01*
X9474825Y-17264484D02*
X9455777Y-17254960D01*
X9455777Y-17254960D02*
X9446253Y-17235912D01*
X9446253Y-17235912D02*
X9446253Y-17159722D01*
X9446253Y-17159722D02*
X9455777Y-17140674D01*
X9455777Y-17140674D02*
X9474825Y-17131150D01*
X9474825Y-17131150D02*
X9512920Y-17131150D01*
X9512920Y-17131150D02*
X9531968Y-17140674D01*
X9531968Y-17140674D02*
X9541492Y-17159722D01*
X9541492Y-17159722D02*
X9541492Y-17178770D01*
X9541492Y-17178770D02*
X9446253Y-17197817D01*
X9617682Y-17254960D02*
X9636730Y-17264484D01*
X9636730Y-17264484D02*
X9674825Y-17264484D01*
X9674825Y-17264484D02*
X9693873Y-17254960D01*
X9693873Y-17254960D02*
X9703396Y-17235912D01*
X9703396Y-17235912D02*
X9703396Y-17226389D01*
X9703396Y-17226389D02*
X9693873Y-17207341D01*
X9693873Y-17207341D02*
X9674825Y-17197817D01*
X9674825Y-17197817D02*
X9646253Y-17197817D01*
X9646253Y-17197817D02*
X9627206Y-17188293D01*
X9627206Y-17188293D02*
X9617682Y-17169246D01*
X9617682Y-17169246D02*
X9617682Y-17159722D01*
X9617682Y-17159722D02*
X9627206Y-17140674D01*
X9627206Y-17140674D02*
X9646253Y-17131150D01*
X9646253Y-17131150D02*
X9674825Y-17131150D01*
X9674825Y-17131150D02*
X9693873Y-17140674D01*
X9770063Y-17340674D02*
X9779587Y-17331150D01*
X9779587Y-17331150D02*
X9798634Y-17302579D01*
X9798634Y-17302579D02*
X9808158Y-17283531D01*
X9808158Y-17283531D02*
X9817682Y-17254960D01*
X9817682Y-17254960D02*
X9827206Y-17207341D01*
X9827206Y-17207341D02*
X9827206Y-17169246D01*
X9827206Y-17169246D02*
X9817682Y-17121627D01*
X9817682Y-17121627D02*
X9808158Y-17093055D01*
X9808158Y-17093055D02*
X9798634Y-17074008D01*
X9798634Y-17074008D02*
X9779587Y-17045436D01*
X9779587Y-17045436D02*
X9770063Y-17035912D01*
D10*
X4983285Y-17465285D02*
X4983285Y-17408716D01*
X4926716Y-17408716D01*
X4926716Y-17465285D01*
X4983285Y-17465285D01*
D11*
X5293872Y-17328484D02*
X5312920Y-17328484D01*
X5312920Y-17328484D02*
X5331967Y-17338008D01*
X5331967Y-17338008D02*
X5341491Y-17347531D01*
X5341491Y-17347531D02*
X5351015Y-17366579D01*
X5351015Y-17366579D02*
X5360539Y-17404674D01*
X5360539Y-17404674D02*
X5360539Y-17452293D01*
X5360539Y-17452293D02*
X5351015Y-17490389D01*
X5351015Y-17490389D02*
X5341491Y-17509436D01*
X5341491Y-17509436D02*
X5331967Y-17518960D01*
X5331967Y-17518960D02*
X5312920Y-17528484D01*
X5312920Y-17528484D02*
X5293872Y-17528484D01*
X5293872Y-17528484D02*
X5274824Y-17518960D01*
X5274824Y-17518960D02*
X5265301Y-17509436D01*
X5265301Y-17509436D02*
X5255777Y-17490389D01*
X5255777Y-17490389D02*
X5246253Y-17452293D01*
X5246253Y-17452293D02*
X5246253Y-17404674D01*
X5246253Y-17404674D02*
X5255777Y-17366579D01*
X5255777Y-17366579D02*
X5265301Y-17347531D01*
X5265301Y-17347531D02*
X5274824Y-17338008D01*
X5274824Y-17338008D02*
X5293872Y-17328484D01*
X5446253Y-17509436D02*
X5455777Y-17518960D01*
X5455777Y-17518960D02*
X5446253Y-17528484D01*
X5446253Y-17528484D02*
X5436729Y-17518960D01*
X5436729Y-17518960D02*
X5446253Y-17509436D01*
X5446253Y-17509436D02*
X5446253Y-17528484D01*
X5570063Y-17414198D02*
X5551015Y-17404674D01*
X5551015Y-17404674D02*
X5541491Y-17395150D01*
X5541491Y-17395150D02*
X5531967Y-17376103D01*
X5531967Y-17376103D02*
X5531967Y-17366579D01*
X5531967Y-17366579D02*
X5541491Y-17347531D01*
X5541491Y-17347531D02*
X5551015Y-17338008D01*
X5551015Y-17338008D02*
X5570063Y-17328484D01*
X5570063Y-17328484D02*
X5608158Y-17328484D01*
X5608158Y-17328484D02*
X5627205Y-17338008D01*
X5627205Y-17338008D02*
X5636729Y-17347531D01*
X5636729Y-17347531D02*
X5646253Y-17366579D01*
X5646253Y-17366579D02*
X5646253Y-17376103D01*
X5646253Y-17376103D02*
X5636729Y-17395150D01*
X5636729Y-17395150D02*
X5627205Y-17404674D01*
X5627205Y-17404674D02*
X5608158Y-17414198D01*
X5608158Y-17414198D02*
X5570063Y-17414198D01*
X5570063Y-17414198D02*
X5551015Y-17423722D01*
X5551015Y-17423722D02*
X5541491Y-17433246D01*
X5541491Y-17433246D02*
X5531967Y-17452293D01*
X5531967Y-17452293D02*
X5531967Y-17490389D01*
X5531967Y-17490389D02*
X5541491Y-17509436D01*
X5541491Y-17509436D02*
X5551015Y-17518960D01*
X5551015Y-17518960D02*
X5570063Y-17528484D01*
X5570063Y-17528484D02*
X5608158Y-17528484D01*
X5608158Y-17528484D02*
X5627205Y-17518960D01*
X5627205Y-17518960D02*
X5636729Y-17509436D01*
X5636729Y-17509436D02*
X5646253Y-17490389D01*
X5646253Y-17490389D02*
X5646253Y-17452293D01*
X5646253Y-17452293D02*
X5636729Y-17433246D01*
X5636729Y-17433246D02*
X5627205Y-17423722D01*
X5627205Y-17423722D02*
X5608158Y-17414198D01*
X5770062Y-17328484D02*
X5789110Y-17328484D01*
X5789110Y-17328484D02*
X5808158Y-17338008D01*
X5808158Y-17338008D02*
X5817682Y-17347531D01*
X5817682Y-17347531D02*
X5827205Y-17366579D01*
X5827205Y-17366579D02*
X5836729Y-17404674D01*
X5836729Y-17404674D02*
X5836729Y-17452293D01*
X5836729Y-17452293D02*
X5827205Y-17490389D01*
X5827205Y-17490389D02*
X5817682Y-17509436D01*
X5817682Y-17509436D02*
X5808158Y-17518960D01*
X5808158Y-17518960D02*
X5789110Y-17528484D01*
X5789110Y-17528484D02*
X5770062Y-17528484D01*
X5770062Y-17528484D02*
X5751015Y-17518960D01*
X5751015Y-17518960D02*
X5741491Y-17509436D01*
X5741491Y-17509436D02*
X5731967Y-17490389D01*
X5731967Y-17490389D02*
X5722443Y-17452293D01*
X5722443Y-17452293D02*
X5722443Y-17404674D01*
X5722443Y-17404674D02*
X5731967Y-17366579D01*
X5731967Y-17366579D02*
X5741491Y-17347531D01*
X5741491Y-17347531D02*
X5751015Y-17338008D01*
X5751015Y-17338008D02*
X5770062Y-17328484D01*
X5960539Y-17328484D02*
X5979586Y-17328484D01*
X5979586Y-17328484D02*
X5998634Y-17338008D01*
X5998634Y-17338008D02*
X6008158Y-17347531D01*
X6008158Y-17347531D02*
X6017682Y-17366579D01*
X6017682Y-17366579D02*
X6027205Y-17404674D01*
X6027205Y-17404674D02*
X6027205Y-17452293D01*
X6027205Y-17452293D02*
X6017682Y-17490389D01*
X6017682Y-17490389D02*
X6008158Y-17509436D01*
X6008158Y-17509436D02*
X5998634Y-17518960D01*
X5998634Y-17518960D02*
X5979586Y-17528484D01*
X5979586Y-17528484D02*
X5960539Y-17528484D01*
X5960539Y-17528484D02*
X5941491Y-17518960D01*
X5941491Y-17518960D02*
X5931967Y-17509436D01*
X5931967Y-17509436D02*
X5922443Y-17490389D01*
X5922443Y-17490389D02*
X5912920Y-17452293D01*
X5912920Y-17452293D02*
X5912920Y-17404674D01*
X5912920Y-17404674D02*
X5922443Y-17366579D01*
X5922443Y-17366579D02*
X5931967Y-17347531D01*
X5931967Y-17347531D02*
X5941491Y-17338008D01*
X5941491Y-17338008D02*
X5960539Y-17328484D01*
X6112920Y-17528484D02*
X6112920Y-17395150D01*
X6112920Y-17414198D02*
X6122443Y-17404674D01*
X6122443Y-17404674D02*
X6141491Y-17395150D01*
X6141491Y-17395150D02*
X6170063Y-17395150D01*
X6170063Y-17395150D02*
X6189110Y-17404674D01*
X6189110Y-17404674D02*
X6198634Y-17423722D01*
X6198634Y-17423722D02*
X6198634Y-17528484D01*
X6198634Y-17423722D02*
X6208158Y-17404674D01*
X6208158Y-17404674D02*
X6227205Y-17395150D01*
X6227205Y-17395150D02*
X6255777Y-17395150D01*
X6255777Y-17395150D02*
X6274824Y-17404674D01*
X6274824Y-17404674D02*
X6284348Y-17423722D01*
X6284348Y-17423722D02*
X6284348Y-17528484D01*
X6379586Y-17528484D02*
X6379586Y-17395150D01*
X6379586Y-17414198D02*
X6389110Y-17404674D01*
X6389110Y-17404674D02*
X6408158Y-17395150D01*
X6408158Y-17395150D02*
X6436729Y-17395150D01*
X6436729Y-17395150D02*
X6455777Y-17404674D01*
X6455777Y-17404674D02*
X6465301Y-17423722D01*
X6465301Y-17423722D02*
X6465301Y-17528484D01*
X6465301Y-17423722D02*
X6474824Y-17404674D01*
X6474824Y-17404674D02*
X6493872Y-17395150D01*
X6493872Y-17395150D02*
X6522443Y-17395150D01*
X6522443Y-17395150D02*
X6541491Y-17404674D01*
X6541491Y-17404674D02*
X6551015Y-17423722D01*
X6551015Y-17423722D02*
X6551015Y-17528484D01*
X6941491Y-17318960D02*
X6770063Y-17576103D01*
X7198634Y-17328484D02*
X7217682Y-17328484D01*
X7217682Y-17328484D02*
X7236729Y-17338008D01*
X7236729Y-17338008D02*
X7246253Y-17347531D01*
X7246253Y-17347531D02*
X7255777Y-17366579D01*
X7255777Y-17366579D02*
X7265301Y-17404674D01*
X7265301Y-17404674D02*
X7265301Y-17452293D01*
X7265301Y-17452293D02*
X7255777Y-17490389D01*
X7255777Y-17490389D02*
X7246253Y-17509436D01*
X7246253Y-17509436D02*
X7236729Y-17518960D01*
X7236729Y-17518960D02*
X7217682Y-17528484D01*
X7217682Y-17528484D02*
X7198634Y-17528484D01*
X7198634Y-17528484D02*
X7179586Y-17518960D01*
X7179586Y-17518960D02*
X7170063Y-17509436D01*
X7170063Y-17509436D02*
X7160539Y-17490389D01*
X7160539Y-17490389D02*
X7151015Y-17452293D01*
X7151015Y-17452293D02*
X7151015Y-17404674D01*
X7151015Y-17404674D02*
X7160539Y-17366579D01*
X7160539Y-17366579D02*
X7170063Y-17347531D01*
X7170063Y-17347531D02*
X7179586Y-17338008D01*
X7179586Y-17338008D02*
X7198634Y-17328484D01*
X7351015Y-17509436D02*
X7360539Y-17518960D01*
X7360539Y-17518960D02*
X7351015Y-17528484D01*
X7351015Y-17528484D02*
X7341491Y-17518960D01*
X7341491Y-17518960D02*
X7351015Y-17509436D01*
X7351015Y-17509436D02*
X7351015Y-17528484D01*
X7484348Y-17328484D02*
X7503396Y-17328484D01*
X7503396Y-17328484D02*
X7522444Y-17338008D01*
X7522444Y-17338008D02*
X7531967Y-17347531D01*
X7531967Y-17347531D02*
X7541491Y-17366579D01*
X7541491Y-17366579D02*
X7551015Y-17404674D01*
X7551015Y-17404674D02*
X7551015Y-17452293D01*
X7551015Y-17452293D02*
X7541491Y-17490389D01*
X7541491Y-17490389D02*
X7531967Y-17509436D01*
X7531967Y-17509436D02*
X7522444Y-17518960D01*
X7522444Y-17518960D02*
X7503396Y-17528484D01*
X7503396Y-17528484D02*
X7484348Y-17528484D01*
X7484348Y-17528484D02*
X7465301Y-17518960D01*
X7465301Y-17518960D02*
X7455777Y-17509436D01*
X7455777Y-17509436D02*
X7446253Y-17490389D01*
X7446253Y-17490389D02*
X7436729Y-17452293D01*
X7436729Y-17452293D02*
X7436729Y-17404674D01*
X7436729Y-17404674D02*
X7446253Y-17366579D01*
X7446253Y-17366579D02*
X7455777Y-17347531D01*
X7455777Y-17347531D02*
X7465301Y-17338008D01*
X7465301Y-17338008D02*
X7484348Y-17328484D01*
X7617682Y-17328484D02*
X7741491Y-17328484D01*
X7741491Y-17328484D02*
X7674825Y-17404674D01*
X7674825Y-17404674D02*
X7703396Y-17404674D01*
X7703396Y-17404674D02*
X7722444Y-17414198D01*
X7722444Y-17414198D02*
X7731967Y-17423722D01*
X7731967Y-17423722D02*
X7741491Y-17442770D01*
X7741491Y-17442770D02*
X7741491Y-17490389D01*
X7741491Y-17490389D02*
X7731967Y-17509436D01*
X7731967Y-17509436D02*
X7722444Y-17518960D01*
X7722444Y-17518960D02*
X7703396Y-17528484D01*
X7703396Y-17528484D02*
X7646253Y-17528484D01*
X7646253Y-17528484D02*
X7627206Y-17518960D01*
X7627206Y-17518960D02*
X7617682Y-17509436D01*
X7931967Y-17528484D02*
X7817682Y-17528484D01*
X7874825Y-17528484D02*
X7874825Y-17328484D01*
X7874825Y-17328484D02*
X7855777Y-17357055D01*
X7855777Y-17357055D02*
X7836729Y-17376103D01*
X7836729Y-17376103D02*
X7817682Y-17385627D01*
X8112920Y-17328484D02*
X8017682Y-17328484D01*
X8017682Y-17328484D02*
X8008158Y-17423722D01*
X8008158Y-17423722D02*
X8017682Y-17414198D01*
X8017682Y-17414198D02*
X8036729Y-17404674D01*
X8036729Y-17404674D02*
X8084348Y-17404674D01*
X8084348Y-17404674D02*
X8103396Y-17414198D01*
X8103396Y-17414198D02*
X8112920Y-17423722D01*
X8112920Y-17423722D02*
X8122444Y-17442770D01*
X8122444Y-17442770D02*
X8122444Y-17490389D01*
X8122444Y-17490389D02*
X8112920Y-17509436D01*
X8112920Y-17509436D02*
X8103396Y-17518960D01*
X8103396Y-17518960D02*
X8084348Y-17528484D01*
X8084348Y-17528484D02*
X8036729Y-17528484D01*
X8036729Y-17528484D02*
X8017682Y-17518960D01*
X8017682Y-17518960D02*
X8008158Y-17509436D01*
X8198634Y-17328484D02*
X8198634Y-17366579D01*
X8274825Y-17328484D02*
X8274825Y-17366579D01*
X8570063Y-17604674D02*
X8560539Y-17595150D01*
X8560539Y-17595150D02*
X8541491Y-17566579D01*
X8541491Y-17566579D02*
X8531968Y-17547531D01*
X8531968Y-17547531D02*
X8522444Y-17518960D01*
X8522444Y-17518960D02*
X8512920Y-17471341D01*
X8512920Y-17471341D02*
X8512920Y-17433246D01*
X8512920Y-17433246D02*
X8522444Y-17385627D01*
X8522444Y-17385627D02*
X8531968Y-17357055D01*
X8531968Y-17357055D02*
X8541491Y-17338008D01*
X8541491Y-17338008D02*
X8560539Y-17309436D01*
X8560539Y-17309436D02*
X8570063Y-17299912D01*
X8751015Y-17528484D02*
X8636730Y-17528484D01*
X8693872Y-17528484D02*
X8693872Y-17328484D01*
X8693872Y-17328484D02*
X8674825Y-17357055D01*
X8674825Y-17357055D02*
X8655777Y-17376103D01*
X8655777Y-17376103D02*
X8636730Y-17385627D01*
X8865301Y-17414198D02*
X8846253Y-17404674D01*
X8846253Y-17404674D02*
X8836730Y-17395150D01*
X8836730Y-17395150D02*
X8827206Y-17376103D01*
X8827206Y-17376103D02*
X8827206Y-17366579D01*
X8827206Y-17366579D02*
X8836730Y-17347531D01*
X8836730Y-17347531D02*
X8846253Y-17338008D01*
X8846253Y-17338008D02*
X8865301Y-17328484D01*
X8865301Y-17328484D02*
X8903396Y-17328484D01*
X8903396Y-17328484D02*
X8922444Y-17338008D01*
X8922444Y-17338008D02*
X8931968Y-17347531D01*
X8931968Y-17347531D02*
X8941491Y-17366579D01*
X8941491Y-17366579D02*
X8941491Y-17376103D01*
X8941491Y-17376103D02*
X8931968Y-17395150D01*
X8931968Y-17395150D02*
X8922444Y-17404674D01*
X8922444Y-17404674D02*
X8903396Y-17414198D01*
X8903396Y-17414198D02*
X8865301Y-17414198D01*
X8865301Y-17414198D02*
X8846253Y-17423722D01*
X8846253Y-17423722D02*
X8836730Y-17433246D01*
X8836730Y-17433246D02*
X8827206Y-17452293D01*
X8827206Y-17452293D02*
X8827206Y-17490389D01*
X8827206Y-17490389D02*
X8836730Y-17509436D01*
X8836730Y-17509436D02*
X8846253Y-17518960D01*
X8846253Y-17518960D02*
X8865301Y-17528484D01*
X8865301Y-17528484D02*
X8903396Y-17528484D01*
X8903396Y-17528484D02*
X8922444Y-17518960D01*
X8922444Y-17518960D02*
X8931968Y-17509436D01*
X8931968Y-17509436D02*
X8941491Y-17490389D01*
X8941491Y-17490389D02*
X8941491Y-17452293D01*
X8941491Y-17452293D02*
X8931968Y-17433246D01*
X8931968Y-17433246D02*
X8922444Y-17423722D01*
X8922444Y-17423722D02*
X8903396Y-17414198D01*
X9179587Y-17528484D02*
X9179587Y-17328484D01*
X9265301Y-17528484D02*
X9265301Y-17423722D01*
X9265301Y-17423722D02*
X9255777Y-17404674D01*
X9255777Y-17404674D02*
X9236730Y-17395150D01*
X9236730Y-17395150D02*
X9208158Y-17395150D01*
X9208158Y-17395150D02*
X9189111Y-17404674D01*
X9189111Y-17404674D02*
X9179587Y-17414198D01*
X9389111Y-17528484D02*
X9370063Y-17518960D01*
X9370063Y-17518960D02*
X9360539Y-17509436D01*
X9360539Y-17509436D02*
X9351015Y-17490389D01*
X9351015Y-17490389D02*
X9351015Y-17433246D01*
X9351015Y-17433246D02*
X9360539Y-17414198D01*
X9360539Y-17414198D02*
X9370063Y-17404674D01*
X9370063Y-17404674D02*
X9389111Y-17395150D01*
X9389111Y-17395150D02*
X9417682Y-17395150D01*
X9417682Y-17395150D02*
X9436730Y-17404674D01*
X9436730Y-17404674D02*
X9446253Y-17414198D01*
X9446253Y-17414198D02*
X9455777Y-17433246D01*
X9455777Y-17433246D02*
X9455777Y-17490389D01*
X9455777Y-17490389D02*
X9446253Y-17509436D01*
X9446253Y-17509436D02*
X9436730Y-17518960D01*
X9436730Y-17518960D02*
X9417682Y-17528484D01*
X9417682Y-17528484D02*
X9389111Y-17528484D01*
X9570063Y-17528484D02*
X9551015Y-17518960D01*
X9551015Y-17518960D02*
X9541492Y-17499912D01*
X9541492Y-17499912D02*
X9541492Y-17328484D01*
X9722444Y-17518960D02*
X9703396Y-17528484D01*
X9703396Y-17528484D02*
X9665301Y-17528484D01*
X9665301Y-17528484D02*
X9646253Y-17518960D01*
X9646253Y-17518960D02*
X9636730Y-17499912D01*
X9636730Y-17499912D02*
X9636730Y-17423722D01*
X9636730Y-17423722D02*
X9646253Y-17404674D01*
X9646253Y-17404674D02*
X9665301Y-17395150D01*
X9665301Y-17395150D02*
X9703396Y-17395150D01*
X9703396Y-17395150D02*
X9722444Y-17404674D01*
X9722444Y-17404674D02*
X9731968Y-17423722D01*
X9731968Y-17423722D02*
X9731968Y-17442770D01*
X9731968Y-17442770D02*
X9636730Y-17461817D01*
X9808158Y-17518960D02*
X9827206Y-17528484D01*
X9827206Y-17528484D02*
X9865301Y-17528484D01*
X9865301Y-17528484D02*
X9884349Y-17518960D01*
X9884349Y-17518960D02*
X9893873Y-17499912D01*
X9893873Y-17499912D02*
X9893873Y-17490389D01*
X9893873Y-17490389D02*
X9884349Y-17471341D01*
X9884349Y-17471341D02*
X9865301Y-17461817D01*
X9865301Y-17461817D02*
X9836730Y-17461817D01*
X9836730Y-17461817D02*
X9817682Y-17452293D01*
X9817682Y-17452293D02*
X9808158Y-17433246D01*
X9808158Y-17433246D02*
X9808158Y-17423722D01*
X9808158Y-17423722D02*
X9817682Y-17404674D01*
X9817682Y-17404674D02*
X9836730Y-17395150D01*
X9836730Y-17395150D02*
X9865301Y-17395150D01*
X9865301Y-17395150D02*
X9884349Y-17404674D01*
X9960539Y-17604674D02*
X9970063Y-17595150D01*
X9970063Y-17595150D02*
X9989111Y-17566579D01*
X9989111Y-17566579D02*
X9998634Y-17547531D01*
X9998634Y-17547531D02*
X10008158Y-17518960D01*
X10008158Y-17518960D02*
X10017682Y-17471341D01*
X10017682Y-17471341D02*
X10017682Y-17433246D01*
X10017682Y-17433246D02*
X10008158Y-17385627D01*
X10008158Y-17385627D02*
X9998634Y-17357055D01*
X9998634Y-17357055D02*
X9989111Y-17338008D01*
X9989111Y-17338008D02*
X9970063Y-17309436D01*
X9970063Y-17309436D02*
X9960539Y-17299912D01*
D10*
X4945000Y-17751000D02*
X4995000Y-17701000D01*
X4945000Y-17651000D01*
X4895000Y-17701000D01*
X4945000Y-17751000D01*
D11*
X5360539Y-17792484D02*
X5246253Y-17792484D01*
X5303396Y-17792484D02*
X5303396Y-17592484D01*
X5303396Y-17592484D02*
X5284348Y-17621055D01*
X5284348Y-17621055D02*
X5265301Y-17640103D01*
X5265301Y-17640103D02*
X5246253Y-17649627D01*
X5446253Y-17773436D02*
X5455777Y-17782960D01*
X5455777Y-17782960D02*
X5446253Y-17792484D01*
X5446253Y-17792484D02*
X5436729Y-17782960D01*
X5436729Y-17782960D02*
X5446253Y-17773436D01*
X5446253Y-17773436D02*
X5446253Y-17792484D01*
X5579586Y-17592484D02*
X5598634Y-17592484D01*
X5598634Y-17592484D02*
X5617682Y-17602008D01*
X5617682Y-17602008D02*
X5627205Y-17611531D01*
X5627205Y-17611531D02*
X5636729Y-17630579D01*
X5636729Y-17630579D02*
X5646253Y-17668674D01*
X5646253Y-17668674D02*
X5646253Y-17716293D01*
X5646253Y-17716293D02*
X5636729Y-17754389D01*
X5636729Y-17754389D02*
X5627205Y-17773436D01*
X5627205Y-17773436D02*
X5617682Y-17782960D01*
X5617682Y-17782960D02*
X5598634Y-17792484D01*
X5598634Y-17792484D02*
X5579586Y-17792484D01*
X5579586Y-17792484D02*
X5560539Y-17782960D01*
X5560539Y-17782960D02*
X5551015Y-17773436D01*
X5551015Y-17773436D02*
X5541491Y-17754389D01*
X5541491Y-17754389D02*
X5531967Y-17716293D01*
X5531967Y-17716293D02*
X5531967Y-17668674D01*
X5531967Y-17668674D02*
X5541491Y-17630579D01*
X5541491Y-17630579D02*
X5551015Y-17611531D01*
X5551015Y-17611531D02*
X5560539Y-17602008D01*
X5560539Y-17602008D02*
X5579586Y-17592484D01*
X5770062Y-17592484D02*
X5789110Y-17592484D01*
X5789110Y-17592484D02*
X5808158Y-17602008D01*
X5808158Y-17602008D02*
X5817682Y-17611531D01*
X5817682Y-17611531D02*
X5827205Y-17630579D01*
X5827205Y-17630579D02*
X5836729Y-17668674D01*
X5836729Y-17668674D02*
X5836729Y-17716293D01*
X5836729Y-17716293D02*
X5827205Y-17754389D01*
X5827205Y-17754389D02*
X5817682Y-17773436D01*
X5817682Y-17773436D02*
X5808158Y-17782960D01*
X5808158Y-17782960D02*
X5789110Y-17792484D01*
X5789110Y-17792484D02*
X5770062Y-17792484D01*
X5770062Y-17792484D02*
X5751015Y-17782960D01*
X5751015Y-17782960D02*
X5741491Y-17773436D01*
X5741491Y-17773436D02*
X5731967Y-17754389D01*
X5731967Y-17754389D02*
X5722443Y-17716293D01*
X5722443Y-17716293D02*
X5722443Y-17668674D01*
X5722443Y-17668674D02*
X5731967Y-17630579D01*
X5731967Y-17630579D02*
X5741491Y-17611531D01*
X5741491Y-17611531D02*
X5751015Y-17602008D01*
X5751015Y-17602008D02*
X5770062Y-17592484D01*
X5960539Y-17592484D02*
X5979586Y-17592484D01*
X5979586Y-17592484D02*
X5998634Y-17602008D01*
X5998634Y-17602008D02*
X6008158Y-17611531D01*
X6008158Y-17611531D02*
X6017682Y-17630579D01*
X6017682Y-17630579D02*
X6027205Y-17668674D01*
X6027205Y-17668674D02*
X6027205Y-17716293D01*
X6027205Y-17716293D02*
X6017682Y-17754389D01*
X6017682Y-17754389D02*
X6008158Y-17773436D01*
X6008158Y-17773436D02*
X5998634Y-17782960D01*
X5998634Y-17782960D02*
X5979586Y-17792484D01*
X5979586Y-17792484D02*
X5960539Y-17792484D01*
X5960539Y-17792484D02*
X5941491Y-17782960D01*
X5941491Y-17782960D02*
X5931967Y-17773436D01*
X5931967Y-17773436D02*
X5922443Y-17754389D01*
X5922443Y-17754389D02*
X5912920Y-17716293D01*
X5912920Y-17716293D02*
X5912920Y-17668674D01*
X5912920Y-17668674D02*
X5922443Y-17630579D01*
X5922443Y-17630579D02*
X5931967Y-17611531D01*
X5931967Y-17611531D02*
X5941491Y-17602008D01*
X5941491Y-17602008D02*
X5960539Y-17592484D01*
X6112920Y-17792484D02*
X6112920Y-17659150D01*
X6112920Y-17678198D02*
X6122443Y-17668674D01*
X6122443Y-17668674D02*
X6141491Y-17659150D01*
X6141491Y-17659150D02*
X6170063Y-17659150D01*
X6170063Y-17659150D02*
X6189110Y-17668674D01*
X6189110Y-17668674D02*
X6198634Y-17687722D01*
X6198634Y-17687722D02*
X6198634Y-17792484D01*
X6198634Y-17687722D02*
X6208158Y-17668674D01*
X6208158Y-17668674D02*
X6227205Y-17659150D01*
X6227205Y-17659150D02*
X6255777Y-17659150D01*
X6255777Y-17659150D02*
X6274824Y-17668674D01*
X6274824Y-17668674D02*
X6284348Y-17687722D01*
X6284348Y-17687722D02*
X6284348Y-17792484D01*
X6379586Y-17792484D02*
X6379586Y-17659150D01*
X6379586Y-17678198D02*
X6389110Y-17668674D01*
X6389110Y-17668674D02*
X6408158Y-17659150D01*
X6408158Y-17659150D02*
X6436729Y-17659150D01*
X6436729Y-17659150D02*
X6455777Y-17668674D01*
X6455777Y-17668674D02*
X6465301Y-17687722D01*
X6465301Y-17687722D02*
X6465301Y-17792484D01*
X6465301Y-17687722D02*
X6474824Y-17668674D01*
X6474824Y-17668674D02*
X6493872Y-17659150D01*
X6493872Y-17659150D02*
X6522443Y-17659150D01*
X6522443Y-17659150D02*
X6541491Y-17668674D01*
X6541491Y-17668674D02*
X6551015Y-17687722D01*
X6551015Y-17687722D02*
X6551015Y-17792484D01*
X6941491Y-17582960D02*
X6770063Y-17840103D01*
X7198634Y-17592484D02*
X7217682Y-17592484D01*
X7217682Y-17592484D02*
X7236729Y-17602008D01*
X7236729Y-17602008D02*
X7246253Y-17611531D01*
X7246253Y-17611531D02*
X7255777Y-17630579D01*
X7255777Y-17630579D02*
X7265301Y-17668674D01*
X7265301Y-17668674D02*
X7265301Y-17716293D01*
X7265301Y-17716293D02*
X7255777Y-17754389D01*
X7255777Y-17754389D02*
X7246253Y-17773436D01*
X7246253Y-17773436D02*
X7236729Y-17782960D01*
X7236729Y-17782960D02*
X7217682Y-17792484D01*
X7217682Y-17792484D02*
X7198634Y-17792484D01*
X7198634Y-17792484D02*
X7179586Y-17782960D01*
X7179586Y-17782960D02*
X7170063Y-17773436D01*
X7170063Y-17773436D02*
X7160539Y-17754389D01*
X7160539Y-17754389D02*
X7151015Y-17716293D01*
X7151015Y-17716293D02*
X7151015Y-17668674D01*
X7151015Y-17668674D02*
X7160539Y-17630579D01*
X7160539Y-17630579D02*
X7170063Y-17611531D01*
X7170063Y-17611531D02*
X7179586Y-17602008D01*
X7179586Y-17602008D02*
X7198634Y-17592484D01*
X7351015Y-17773436D02*
X7360539Y-17782960D01*
X7360539Y-17782960D02*
X7351015Y-17792484D01*
X7351015Y-17792484D02*
X7341491Y-17782960D01*
X7341491Y-17782960D02*
X7351015Y-17773436D01*
X7351015Y-17773436D02*
X7351015Y-17792484D01*
X7484348Y-17592484D02*
X7503396Y-17592484D01*
X7503396Y-17592484D02*
X7522444Y-17602008D01*
X7522444Y-17602008D02*
X7531967Y-17611531D01*
X7531967Y-17611531D02*
X7541491Y-17630579D01*
X7541491Y-17630579D02*
X7551015Y-17668674D01*
X7551015Y-17668674D02*
X7551015Y-17716293D01*
X7551015Y-17716293D02*
X7541491Y-17754389D01*
X7541491Y-17754389D02*
X7531967Y-17773436D01*
X7531967Y-17773436D02*
X7522444Y-17782960D01*
X7522444Y-17782960D02*
X7503396Y-17792484D01*
X7503396Y-17792484D02*
X7484348Y-17792484D01*
X7484348Y-17792484D02*
X7465301Y-17782960D01*
X7465301Y-17782960D02*
X7455777Y-17773436D01*
X7455777Y-17773436D02*
X7446253Y-17754389D01*
X7446253Y-17754389D02*
X7436729Y-17716293D01*
X7436729Y-17716293D02*
X7436729Y-17668674D01*
X7436729Y-17668674D02*
X7446253Y-17630579D01*
X7446253Y-17630579D02*
X7455777Y-17611531D01*
X7455777Y-17611531D02*
X7465301Y-17602008D01*
X7465301Y-17602008D02*
X7484348Y-17592484D01*
X7617682Y-17592484D02*
X7741491Y-17592484D01*
X7741491Y-17592484D02*
X7674825Y-17668674D01*
X7674825Y-17668674D02*
X7703396Y-17668674D01*
X7703396Y-17668674D02*
X7722444Y-17678198D01*
X7722444Y-17678198D02*
X7731967Y-17687722D01*
X7731967Y-17687722D02*
X7741491Y-17706770D01*
X7741491Y-17706770D02*
X7741491Y-17754389D01*
X7741491Y-17754389D02*
X7731967Y-17773436D01*
X7731967Y-17773436D02*
X7722444Y-17782960D01*
X7722444Y-17782960D02*
X7703396Y-17792484D01*
X7703396Y-17792484D02*
X7646253Y-17792484D01*
X7646253Y-17792484D02*
X7627206Y-17782960D01*
X7627206Y-17782960D02*
X7617682Y-17773436D01*
X7836729Y-17792484D02*
X7874825Y-17792484D01*
X7874825Y-17792484D02*
X7893872Y-17782960D01*
X7893872Y-17782960D02*
X7903396Y-17773436D01*
X7903396Y-17773436D02*
X7922444Y-17744865D01*
X7922444Y-17744865D02*
X7931967Y-17706770D01*
X7931967Y-17706770D02*
X7931967Y-17630579D01*
X7931967Y-17630579D02*
X7922444Y-17611531D01*
X7922444Y-17611531D02*
X7912920Y-17602008D01*
X7912920Y-17602008D02*
X7893872Y-17592484D01*
X7893872Y-17592484D02*
X7855777Y-17592484D01*
X7855777Y-17592484D02*
X7836729Y-17602008D01*
X7836729Y-17602008D02*
X7827206Y-17611531D01*
X7827206Y-17611531D02*
X7817682Y-17630579D01*
X7817682Y-17630579D02*
X7817682Y-17678198D01*
X7817682Y-17678198D02*
X7827206Y-17697246D01*
X7827206Y-17697246D02*
X7836729Y-17706770D01*
X7836729Y-17706770D02*
X7855777Y-17716293D01*
X7855777Y-17716293D02*
X7893872Y-17716293D01*
X7893872Y-17716293D02*
X7912920Y-17706770D01*
X7912920Y-17706770D02*
X7922444Y-17697246D01*
X7922444Y-17697246D02*
X7931967Y-17678198D01*
X8103396Y-17659150D02*
X8103396Y-17792484D01*
X8055777Y-17582960D02*
X8008158Y-17725817D01*
X8008158Y-17725817D02*
X8131967Y-17725817D01*
X8198634Y-17592484D02*
X8198634Y-17630579D01*
X8274825Y-17592484D02*
X8274825Y-17630579D01*
X8570063Y-17868674D02*
X8560539Y-17859150D01*
X8560539Y-17859150D02*
X8541491Y-17830579D01*
X8541491Y-17830579D02*
X8531968Y-17811531D01*
X8531968Y-17811531D02*
X8522444Y-17782960D01*
X8522444Y-17782960D02*
X8512920Y-17735341D01*
X8512920Y-17735341D02*
X8512920Y-17697246D01*
X8512920Y-17697246D02*
X8522444Y-17649627D01*
X8522444Y-17649627D02*
X8531968Y-17621055D01*
X8531968Y-17621055D02*
X8541491Y-17602008D01*
X8541491Y-17602008D02*
X8560539Y-17573436D01*
X8560539Y-17573436D02*
X8570063Y-17563912D01*
X8627206Y-17592484D02*
X8751015Y-17592484D01*
X8751015Y-17592484D02*
X8684349Y-17668674D01*
X8684349Y-17668674D02*
X8712920Y-17668674D01*
X8712920Y-17668674D02*
X8731968Y-17678198D01*
X8731968Y-17678198D02*
X8741491Y-17687722D01*
X8741491Y-17687722D02*
X8751015Y-17706770D01*
X8751015Y-17706770D02*
X8751015Y-17754389D01*
X8751015Y-17754389D02*
X8741491Y-17773436D01*
X8741491Y-17773436D02*
X8731968Y-17782960D01*
X8731968Y-17782960D02*
X8712920Y-17792484D01*
X8712920Y-17792484D02*
X8655777Y-17792484D01*
X8655777Y-17792484D02*
X8636730Y-17782960D01*
X8636730Y-17782960D02*
X8627206Y-17773436D01*
X8931968Y-17592484D02*
X8836730Y-17592484D01*
X8836730Y-17592484D02*
X8827206Y-17687722D01*
X8827206Y-17687722D02*
X8836730Y-17678198D01*
X8836730Y-17678198D02*
X8855777Y-17668674D01*
X8855777Y-17668674D02*
X8903396Y-17668674D01*
X8903396Y-17668674D02*
X8922444Y-17678198D01*
X8922444Y-17678198D02*
X8931968Y-17687722D01*
X8931968Y-17687722D02*
X8941491Y-17706770D01*
X8941491Y-17706770D02*
X8941491Y-17754389D01*
X8941491Y-17754389D02*
X8931968Y-17773436D01*
X8931968Y-17773436D02*
X8922444Y-17782960D01*
X8922444Y-17782960D02*
X8903396Y-17792484D01*
X8903396Y-17792484D02*
X8855777Y-17792484D01*
X8855777Y-17792484D02*
X8836730Y-17782960D01*
X8836730Y-17782960D02*
X8827206Y-17773436D01*
X9179587Y-17792484D02*
X9179587Y-17592484D01*
X9265301Y-17792484D02*
X9265301Y-17687722D01*
X9265301Y-17687722D02*
X9255777Y-17668674D01*
X9255777Y-17668674D02*
X9236730Y-17659150D01*
X9236730Y-17659150D02*
X9208158Y-17659150D01*
X9208158Y-17659150D02*
X9189111Y-17668674D01*
X9189111Y-17668674D02*
X9179587Y-17678198D01*
X9389111Y-17792484D02*
X9370063Y-17782960D01*
X9370063Y-17782960D02*
X9360539Y-17773436D01*
X9360539Y-17773436D02*
X9351015Y-17754389D01*
X9351015Y-17754389D02*
X9351015Y-17697246D01*
X9351015Y-17697246D02*
X9360539Y-17678198D01*
X9360539Y-17678198D02*
X9370063Y-17668674D01*
X9370063Y-17668674D02*
X9389111Y-17659150D01*
X9389111Y-17659150D02*
X9417682Y-17659150D01*
X9417682Y-17659150D02*
X9436730Y-17668674D01*
X9436730Y-17668674D02*
X9446253Y-17678198D01*
X9446253Y-17678198D02*
X9455777Y-17697246D01*
X9455777Y-17697246D02*
X9455777Y-17754389D01*
X9455777Y-17754389D02*
X9446253Y-17773436D01*
X9446253Y-17773436D02*
X9436730Y-17782960D01*
X9436730Y-17782960D02*
X9417682Y-17792484D01*
X9417682Y-17792484D02*
X9389111Y-17792484D01*
X9570063Y-17792484D02*
X9551015Y-17782960D01*
X9551015Y-17782960D02*
X9541492Y-17763912D01*
X9541492Y-17763912D02*
X9541492Y-17592484D01*
X9722444Y-17782960D02*
X9703396Y-17792484D01*
X9703396Y-17792484D02*
X9665301Y-17792484D01*
X9665301Y-17792484D02*
X9646253Y-17782960D01*
X9646253Y-17782960D02*
X9636730Y-17763912D01*
X9636730Y-17763912D02*
X9636730Y-17687722D01*
X9636730Y-17687722D02*
X9646253Y-17668674D01*
X9646253Y-17668674D02*
X9665301Y-17659150D01*
X9665301Y-17659150D02*
X9703396Y-17659150D01*
X9703396Y-17659150D02*
X9722444Y-17668674D01*
X9722444Y-17668674D02*
X9731968Y-17687722D01*
X9731968Y-17687722D02*
X9731968Y-17706770D01*
X9731968Y-17706770D02*
X9636730Y-17725817D01*
X9808158Y-17782960D02*
X9827206Y-17792484D01*
X9827206Y-17792484D02*
X9865301Y-17792484D01*
X9865301Y-17792484D02*
X9884349Y-17782960D01*
X9884349Y-17782960D02*
X9893873Y-17763912D01*
X9893873Y-17763912D02*
X9893873Y-17754389D01*
X9893873Y-17754389D02*
X9884349Y-17735341D01*
X9884349Y-17735341D02*
X9865301Y-17725817D01*
X9865301Y-17725817D02*
X9836730Y-17725817D01*
X9836730Y-17725817D02*
X9817682Y-17716293D01*
X9817682Y-17716293D02*
X9808158Y-17697246D01*
X9808158Y-17697246D02*
X9808158Y-17687722D01*
X9808158Y-17687722D02*
X9817682Y-17668674D01*
X9817682Y-17668674D02*
X9836730Y-17659150D01*
X9836730Y-17659150D02*
X9865301Y-17659150D01*
X9865301Y-17659150D02*
X9884349Y-17668674D01*
X9960539Y-17868674D02*
X9970063Y-17859150D01*
X9970063Y-17859150D02*
X9989111Y-17830579D01*
X9989111Y-17830579D02*
X9998634Y-17811531D01*
X9998634Y-17811531D02*
X10008158Y-17782960D01*
X10008158Y-17782960D02*
X10017682Y-17735341D01*
X10017682Y-17735341D02*
X10017682Y-17697246D01*
X10017682Y-17697246D02*
X10008158Y-17649627D01*
X10008158Y-17649627D02*
X9998634Y-17621055D01*
X9998634Y-17621055D02*
X9989111Y-17602008D01*
X9989111Y-17602008D02*
X9970063Y-17573436D01*
X9970063Y-17573436D02*
X9960539Y-17563912D01*
D12*
X4873000Y-17904000D02*
X4995000Y-18026000D01*
X4995000Y-17904000D02*
X4873000Y-18026000D01*
X4995000Y-17965000D02*
G75*
G02*
X4873000Y-17965000I-61000J0D01*
G01*
X4873000Y-17965000D02*
G75*
G02*
X4995000Y-17965000I61000J0D01*
G01*
D11*
X5360539Y-18056484D02*
X5246253Y-18056484D01*
X5303396Y-18056484D02*
X5303396Y-17856484D01*
X5303396Y-17856484D02*
X5284348Y-17885055D01*
X5284348Y-17885055D02*
X5265301Y-17904103D01*
X5265301Y-17904103D02*
X5246253Y-17913627D01*
X5446253Y-18037436D02*
X5455777Y-18046960D01*
X5455777Y-18046960D02*
X5446253Y-18056484D01*
X5446253Y-18056484D02*
X5436729Y-18046960D01*
X5436729Y-18046960D02*
X5446253Y-18037436D01*
X5446253Y-18037436D02*
X5446253Y-18056484D01*
X5531967Y-17875531D02*
X5541491Y-17866008D01*
X5541491Y-17866008D02*
X5560539Y-17856484D01*
X5560539Y-17856484D02*
X5608158Y-17856484D01*
X5608158Y-17856484D02*
X5627205Y-17866008D01*
X5627205Y-17866008D02*
X5636729Y-17875531D01*
X5636729Y-17875531D02*
X5646253Y-17894579D01*
X5646253Y-17894579D02*
X5646253Y-17913627D01*
X5646253Y-17913627D02*
X5636729Y-17942198D01*
X5636729Y-17942198D02*
X5522444Y-18056484D01*
X5522444Y-18056484D02*
X5646253Y-18056484D01*
X5722443Y-17875531D02*
X5731967Y-17866008D01*
X5731967Y-17866008D02*
X5751015Y-17856484D01*
X5751015Y-17856484D02*
X5798634Y-17856484D01*
X5798634Y-17856484D02*
X5817682Y-17866008D01*
X5817682Y-17866008D02*
X5827205Y-17875531D01*
X5827205Y-17875531D02*
X5836729Y-17894579D01*
X5836729Y-17894579D02*
X5836729Y-17913627D01*
X5836729Y-17913627D02*
X5827205Y-17942198D01*
X5827205Y-17942198D02*
X5712920Y-18056484D01*
X5712920Y-18056484D02*
X5836729Y-18056484D01*
X5960539Y-17856484D02*
X5979586Y-17856484D01*
X5979586Y-17856484D02*
X5998634Y-17866008D01*
X5998634Y-17866008D02*
X6008158Y-17875531D01*
X6008158Y-17875531D02*
X6017682Y-17894579D01*
X6017682Y-17894579D02*
X6027205Y-17932674D01*
X6027205Y-17932674D02*
X6027205Y-17980293D01*
X6027205Y-17980293D02*
X6017682Y-18018389D01*
X6017682Y-18018389D02*
X6008158Y-18037436D01*
X6008158Y-18037436D02*
X5998634Y-18046960D01*
X5998634Y-18046960D02*
X5979586Y-18056484D01*
X5979586Y-18056484D02*
X5960539Y-18056484D01*
X5960539Y-18056484D02*
X5941491Y-18046960D01*
X5941491Y-18046960D02*
X5931967Y-18037436D01*
X5931967Y-18037436D02*
X5922443Y-18018389D01*
X5922443Y-18018389D02*
X5912920Y-17980293D01*
X5912920Y-17980293D02*
X5912920Y-17932674D01*
X5912920Y-17932674D02*
X5922443Y-17894579D01*
X5922443Y-17894579D02*
X5931967Y-17875531D01*
X5931967Y-17875531D02*
X5941491Y-17866008D01*
X5941491Y-17866008D02*
X5960539Y-17856484D01*
X6112920Y-18056484D02*
X6112920Y-17923150D01*
X6112920Y-17942198D02*
X6122443Y-17932674D01*
X6122443Y-17932674D02*
X6141491Y-17923150D01*
X6141491Y-17923150D02*
X6170063Y-17923150D01*
X6170063Y-17923150D02*
X6189110Y-17932674D01*
X6189110Y-17932674D02*
X6198634Y-17951722D01*
X6198634Y-17951722D02*
X6198634Y-18056484D01*
X6198634Y-17951722D02*
X6208158Y-17932674D01*
X6208158Y-17932674D02*
X6227205Y-17923150D01*
X6227205Y-17923150D02*
X6255777Y-17923150D01*
X6255777Y-17923150D02*
X6274824Y-17932674D01*
X6274824Y-17932674D02*
X6284348Y-17951722D01*
X6284348Y-17951722D02*
X6284348Y-18056484D01*
X6379586Y-18056484D02*
X6379586Y-17923150D01*
X6379586Y-17942198D02*
X6389110Y-17932674D01*
X6389110Y-17932674D02*
X6408158Y-17923150D01*
X6408158Y-17923150D02*
X6436729Y-17923150D01*
X6436729Y-17923150D02*
X6455777Y-17932674D01*
X6455777Y-17932674D02*
X6465301Y-17951722D01*
X6465301Y-17951722D02*
X6465301Y-18056484D01*
X6465301Y-17951722D02*
X6474824Y-17932674D01*
X6474824Y-17932674D02*
X6493872Y-17923150D01*
X6493872Y-17923150D02*
X6522443Y-17923150D01*
X6522443Y-17923150D02*
X6541491Y-17932674D01*
X6541491Y-17932674D02*
X6551015Y-17951722D01*
X6551015Y-17951722D02*
X6551015Y-18056484D01*
X6941491Y-17846960D02*
X6770063Y-18104103D01*
X7198634Y-17856484D02*
X7217682Y-17856484D01*
X7217682Y-17856484D02*
X7236729Y-17866008D01*
X7236729Y-17866008D02*
X7246253Y-17875531D01*
X7246253Y-17875531D02*
X7255777Y-17894579D01*
X7255777Y-17894579D02*
X7265301Y-17932674D01*
X7265301Y-17932674D02*
X7265301Y-17980293D01*
X7265301Y-17980293D02*
X7255777Y-18018389D01*
X7255777Y-18018389D02*
X7246253Y-18037436D01*
X7246253Y-18037436D02*
X7236729Y-18046960D01*
X7236729Y-18046960D02*
X7217682Y-18056484D01*
X7217682Y-18056484D02*
X7198634Y-18056484D01*
X7198634Y-18056484D02*
X7179586Y-18046960D01*
X7179586Y-18046960D02*
X7170063Y-18037436D01*
X7170063Y-18037436D02*
X7160539Y-18018389D01*
X7160539Y-18018389D02*
X7151015Y-17980293D01*
X7151015Y-17980293D02*
X7151015Y-17932674D01*
X7151015Y-17932674D02*
X7160539Y-17894579D01*
X7160539Y-17894579D02*
X7170063Y-17875531D01*
X7170063Y-17875531D02*
X7179586Y-17866008D01*
X7179586Y-17866008D02*
X7198634Y-17856484D01*
X7351015Y-18037436D02*
X7360539Y-18046960D01*
X7360539Y-18046960D02*
X7351015Y-18056484D01*
X7351015Y-18056484D02*
X7341491Y-18046960D01*
X7341491Y-18046960D02*
X7351015Y-18037436D01*
X7351015Y-18037436D02*
X7351015Y-18056484D01*
X7484348Y-17856484D02*
X7503396Y-17856484D01*
X7503396Y-17856484D02*
X7522444Y-17866008D01*
X7522444Y-17866008D02*
X7531967Y-17875531D01*
X7531967Y-17875531D02*
X7541491Y-17894579D01*
X7541491Y-17894579D02*
X7551015Y-17932674D01*
X7551015Y-17932674D02*
X7551015Y-17980293D01*
X7551015Y-17980293D02*
X7541491Y-18018389D01*
X7541491Y-18018389D02*
X7531967Y-18037436D01*
X7531967Y-18037436D02*
X7522444Y-18046960D01*
X7522444Y-18046960D02*
X7503396Y-18056484D01*
X7503396Y-18056484D02*
X7484348Y-18056484D01*
X7484348Y-18056484D02*
X7465301Y-18046960D01*
X7465301Y-18046960D02*
X7455777Y-18037436D01*
X7455777Y-18037436D02*
X7446253Y-18018389D01*
X7446253Y-18018389D02*
X7436729Y-17980293D01*
X7436729Y-17980293D02*
X7436729Y-17932674D01*
X7436729Y-17932674D02*
X7446253Y-17894579D01*
X7446253Y-17894579D02*
X7455777Y-17875531D01*
X7455777Y-17875531D02*
X7465301Y-17866008D01*
X7465301Y-17866008D02*
X7484348Y-17856484D01*
X7722444Y-17923150D02*
X7722444Y-18056484D01*
X7674825Y-17846960D02*
X7627206Y-17989817D01*
X7627206Y-17989817D02*
X7751015Y-17989817D01*
X7855777Y-17942198D02*
X7836729Y-17932674D01*
X7836729Y-17932674D02*
X7827206Y-17923150D01*
X7827206Y-17923150D02*
X7817682Y-17904103D01*
X7817682Y-17904103D02*
X7817682Y-17894579D01*
X7817682Y-17894579D02*
X7827206Y-17875531D01*
X7827206Y-17875531D02*
X7836729Y-17866008D01*
X7836729Y-17866008D02*
X7855777Y-17856484D01*
X7855777Y-17856484D02*
X7893872Y-17856484D01*
X7893872Y-17856484D02*
X7912920Y-17866008D01*
X7912920Y-17866008D02*
X7922444Y-17875531D01*
X7922444Y-17875531D02*
X7931967Y-17894579D01*
X7931967Y-17894579D02*
X7931967Y-17904103D01*
X7931967Y-17904103D02*
X7922444Y-17923150D01*
X7922444Y-17923150D02*
X7912920Y-17932674D01*
X7912920Y-17932674D02*
X7893872Y-17942198D01*
X7893872Y-17942198D02*
X7855777Y-17942198D01*
X7855777Y-17942198D02*
X7836729Y-17951722D01*
X7836729Y-17951722D02*
X7827206Y-17961246D01*
X7827206Y-17961246D02*
X7817682Y-17980293D01*
X7817682Y-17980293D02*
X7817682Y-18018389D01*
X7817682Y-18018389D02*
X7827206Y-18037436D01*
X7827206Y-18037436D02*
X7836729Y-18046960D01*
X7836729Y-18046960D02*
X7855777Y-18056484D01*
X7855777Y-18056484D02*
X7893872Y-18056484D01*
X7893872Y-18056484D02*
X7912920Y-18046960D01*
X7912920Y-18046960D02*
X7922444Y-18037436D01*
X7922444Y-18037436D02*
X7931967Y-18018389D01*
X7931967Y-18018389D02*
X7931967Y-17980293D01*
X7931967Y-17980293D02*
X7922444Y-17961246D01*
X7922444Y-17961246D02*
X7912920Y-17951722D01*
X7912920Y-17951722D02*
X7893872Y-17942198D01*
X8055777Y-17856484D02*
X8074825Y-17856484D01*
X8074825Y-17856484D02*
X8093872Y-17866008D01*
X8093872Y-17866008D02*
X8103396Y-17875531D01*
X8103396Y-17875531D02*
X8112920Y-17894579D01*
X8112920Y-17894579D02*
X8122444Y-17932674D01*
X8122444Y-17932674D02*
X8122444Y-17980293D01*
X8122444Y-17980293D02*
X8112920Y-18018389D01*
X8112920Y-18018389D02*
X8103396Y-18037436D01*
X8103396Y-18037436D02*
X8093872Y-18046960D01*
X8093872Y-18046960D02*
X8074825Y-18056484D01*
X8074825Y-18056484D02*
X8055777Y-18056484D01*
X8055777Y-18056484D02*
X8036729Y-18046960D01*
X8036729Y-18046960D02*
X8027206Y-18037436D01*
X8027206Y-18037436D02*
X8017682Y-18018389D01*
X8017682Y-18018389D02*
X8008158Y-17980293D01*
X8008158Y-17980293D02*
X8008158Y-17932674D01*
X8008158Y-17932674D02*
X8017682Y-17894579D01*
X8017682Y-17894579D02*
X8027206Y-17875531D01*
X8027206Y-17875531D02*
X8036729Y-17866008D01*
X8036729Y-17866008D02*
X8055777Y-17856484D01*
X8198634Y-17856484D02*
X8198634Y-17894579D01*
X8274825Y-17856484D02*
X8274825Y-17894579D01*
X8570063Y-18132674D02*
X8560539Y-18123150D01*
X8560539Y-18123150D02*
X8541491Y-18094579D01*
X8541491Y-18094579D02*
X8531968Y-18075531D01*
X8531968Y-18075531D02*
X8522444Y-18046960D01*
X8522444Y-18046960D02*
X8512920Y-17999341D01*
X8512920Y-17999341D02*
X8512920Y-17961246D01*
X8512920Y-17961246D02*
X8522444Y-17913627D01*
X8522444Y-17913627D02*
X8531968Y-17885055D01*
X8531968Y-17885055D02*
X8541491Y-17866008D01*
X8541491Y-17866008D02*
X8560539Y-17837436D01*
X8560539Y-17837436D02*
X8570063Y-17827912D01*
X8741491Y-17856484D02*
X8646253Y-17856484D01*
X8646253Y-17856484D02*
X8636730Y-17951722D01*
X8636730Y-17951722D02*
X8646253Y-17942198D01*
X8646253Y-17942198D02*
X8665301Y-17932674D01*
X8665301Y-17932674D02*
X8712920Y-17932674D01*
X8712920Y-17932674D02*
X8731968Y-17942198D01*
X8731968Y-17942198D02*
X8741491Y-17951722D01*
X8741491Y-17951722D02*
X8751015Y-17970770D01*
X8751015Y-17970770D02*
X8751015Y-18018389D01*
X8751015Y-18018389D02*
X8741491Y-18037436D01*
X8741491Y-18037436D02*
X8731968Y-18046960D01*
X8731968Y-18046960D02*
X8712920Y-18056484D01*
X8712920Y-18056484D02*
X8665301Y-18056484D01*
X8665301Y-18056484D02*
X8646253Y-18046960D01*
X8646253Y-18046960D02*
X8636730Y-18037436D01*
X8989111Y-18056484D02*
X8989111Y-17856484D01*
X9074825Y-18056484D02*
X9074825Y-17951722D01*
X9074825Y-17951722D02*
X9065301Y-17932674D01*
X9065301Y-17932674D02*
X9046253Y-17923150D01*
X9046253Y-17923150D02*
X9017682Y-17923150D01*
X9017682Y-17923150D02*
X8998634Y-17932674D01*
X8998634Y-17932674D02*
X8989111Y-17942198D01*
X9198634Y-18056484D02*
X9179587Y-18046960D01*
X9179587Y-18046960D02*
X9170063Y-18037436D01*
X9170063Y-18037436D02*
X9160539Y-18018389D01*
X9160539Y-18018389D02*
X9160539Y-17961246D01*
X9160539Y-17961246D02*
X9170063Y-17942198D01*
X9170063Y-17942198D02*
X9179587Y-17932674D01*
X9179587Y-17932674D02*
X9198634Y-17923150D01*
X9198634Y-17923150D02*
X9227206Y-17923150D01*
X9227206Y-17923150D02*
X9246253Y-17932674D01*
X9246253Y-17932674D02*
X9255777Y-17942198D01*
X9255777Y-17942198D02*
X9265301Y-17961246D01*
X9265301Y-17961246D02*
X9265301Y-18018389D01*
X9265301Y-18018389D02*
X9255777Y-18037436D01*
X9255777Y-18037436D02*
X9246253Y-18046960D01*
X9246253Y-18046960D02*
X9227206Y-18056484D01*
X9227206Y-18056484D02*
X9198634Y-18056484D01*
X9379587Y-18056484D02*
X9360539Y-18046960D01*
X9360539Y-18046960D02*
X9351015Y-18027912D01*
X9351015Y-18027912D02*
X9351015Y-17856484D01*
X9531968Y-18046960D02*
X9512920Y-18056484D01*
X9512920Y-18056484D02*
X9474825Y-18056484D01*
X9474825Y-18056484D02*
X9455777Y-18046960D01*
X9455777Y-18046960D02*
X9446253Y-18027912D01*
X9446253Y-18027912D02*
X9446253Y-17951722D01*
X9446253Y-17951722D02*
X9455777Y-17932674D01*
X9455777Y-17932674D02*
X9474825Y-17923150D01*
X9474825Y-17923150D02*
X9512920Y-17923150D01*
X9512920Y-17923150D02*
X9531968Y-17932674D01*
X9531968Y-17932674D02*
X9541492Y-17951722D01*
X9541492Y-17951722D02*
X9541492Y-17970770D01*
X9541492Y-17970770D02*
X9446253Y-17989817D01*
X9617682Y-18046960D02*
X9636730Y-18056484D01*
X9636730Y-18056484D02*
X9674825Y-18056484D01*
X9674825Y-18056484D02*
X9693873Y-18046960D01*
X9693873Y-18046960D02*
X9703396Y-18027912D01*
X9703396Y-18027912D02*
X9703396Y-18018389D01*
X9703396Y-18018389D02*
X9693873Y-17999341D01*
X9693873Y-17999341D02*
X9674825Y-17989817D01*
X9674825Y-17989817D02*
X9646253Y-17989817D01*
X9646253Y-17989817D02*
X9627206Y-17980293D01*
X9627206Y-17980293D02*
X9617682Y-17961246D01*
X9617682Y-17961246D02*
X9617682Y-17951722D01*
X9617682Y-17951722D02*
X9627206Y-17932674D01*
X9627206Y-17932674D02*
X9646253Y-17923150D01*
X9646253Y-17923150D02*
X9674825Y-17923150D01*
X9674825Y-17923150D02*
X9693873Y-17932674D01*
X9770063Y-18132674D02*
X9779587Y-18123150D01*
X9779587Y-18123150D02*
X9798634Y-18094579D01*
X9798634Y-18094579D02*
X9808158Y-18075531D01*
X9808158Y-18075531D02*
X9817682Y-18046960D01*
X9817682Y-18046960D02*
X9827206Y-17999341D01*
X9827206Y-17999341D02*
X9827206Y-17961246D01*
X9827206Y-17961246D02*
X9817682Y-17913627D01*
X9817682Y-17913627D02*
X9808158Y-17885055D01*
X9808158Y-17885055D02*
X9798634Y-17866008D01*
X9798634Y-17866008D02*
X9779587Y-17837436D01*
X9779587Y-17837436D02*
X9770063Y-17827912D01*
D13*
X4853000Y-18158000D02*
X4995000Y-18300000D01*
X4995000Y-18158000D02*
X4853000Y-18300000D01*
X4924000Y-18158000D02*
X4924000Y-18300000D01*
X4853000Y-18229000D02*
X4995000Y-18229000D01*
D11*
X5360539Y-18320484D02*
X5246253Y-18320484D01*
X5303396Y-18320484D02*
X5303396Y-18120484D01*
X5303396Y-18120484D02*
X5284348Y-18149055D01*
X5284348Y-18149055D02*
X5265301Y-18168103D01*
X5265301Y-18168103D02*
X5246253Y-18177627D01*
X5446253Y-18301436D02*
X5455777Y-18310960D01*
X5455777Y-18310960D02*
X5446253Y-18320484D01*
X5446253Y-18320484D02*
X5436729Y-18310960D01*
X5436729Y-18310960D02*
X5446253Y-18301436D01*
X5446253Y-18301436D02*
X5446253Y-18320484D01*
X5627205Y-18187150D02*
X5627205Y-18320484D01*
X5579586Y-18110960D02*
X5531967Y-18253817D01*
X5531967Y-18253817D02*
X5655777Y-18253817D01*
X5722443Y-18139531D02*
X5731967Y-18130008D01*
X5731967Y-18130008D02*
X5751015Y-18120484D01*
X5751015Y-18120484D02*
X5798634Y-18120484D01*
X5798634Y-18120484D02*
X5817682Y-18130008D01*
X5817682Y-18130008D02*
X5827205Y-18139531D01*
X5827205Y-18139531D02*
X5836729Y-18158579D01*
X5836729Y-18158579D02*
X5836729Y-18177627D01*
X5836729Y-18177627D02*
X5827205Y-18206198D01*
X5827205Y-18206198D02*
X5712920Y-18320484D01*
X5712920Y-18320484D02*
X5836729Y-18320484D01*
X5960539Y-18120484D02*
X5979586Y-18120484D01*
X5979586Y-18120484D02*
X5998634Y-18130008D01*
X5998634Y-18130008D02*
X6008158Y-18139531D01*
X6008158Y-18139531D02*
X6017682Y-18158579D01*
X6017682Y-18158579D02*
X6027205Y-18196674D01*
X6027205Y-18196674D02*
X6027205Y-18244293D01*
X6027205Y-18244293D02*
X6017682Y-18282389D01*
X6017682Y-18282389D02*
X6008158Y-18301436D01*
X6008158Y-18301436D02*
X5998634Y-18310960D01*
X5998634Y-18310960D02*
X5979586Y-18320484D01*
X5979586Y-18320484D02*
X5960539Y-18320484D01*
X5960539Y-18320484D02*
X5941491Y-18310960D01*
X5941491Y-18310960D02*
X5931967Y-18301436D01*
X5931967Y-18301436D02*
X5922443Y-18282389D01*
X5922443Y-18282389D02*
X5912920Y-18244293D01*
X5912920Y-18244293D02*
X5912920Y-18196674D01*
X5912920Y-18196674D02*
X5922443Y-18158579D01*
X5922443Y-18158579D02*
X5931967Y-18139531D01*
X5931967Y-18139531D02*
X5941491Y-18130008D01*
X5941491Y-18130008D02*
X5960539Y-18120484D01*
X6112920Y-18320484D02*
X6112920Y-18187150D01*
X6112920Y-18206198D02*
X6122443Y-18196674D01*
X6122443Y-18196674D02*
X6141491Y-18187150D01*
X6141491Y-18187150D02*
X6170063Y-18187150D01*
X6170063Y-18187150D02*
X6189110Y-18196674D01*
X6189110Y-18196674D02*
X6198634Y-18215722D01*
X6198634Y-18215722D02*
X6198634Y-18320484D01*
X6198634Y-18215722D02*
X6208158Y-18196674D01*
X6208158Y-18196674D02*
X6227205Y-18187150D01*
X6227205Y-18187150D02*
X6255777Y-18187150D01*
X6255777Y-18187150D02*
X6274824Y-18196674D01*
X6274824Y-18196674D02*
X6284348Y-18215722D01*
X6284348Y-18215722D02*
X6284348Y-18320484D01*
X6379586Y-18320484D02*
X6379586Y-18187150D01*
X6379586Y-18206198D02*
X6389110Y-18196674D01*
X6389110Y-18196674D02*
X6408158Y-18187150D01*
X6408158Y-18187150D02*
X6436729Y-18187150D01*
X6436729Y-18187150D02*
X6455777Y-18196674D01*
X6455777Y-18196674D02*
X6465301Y-18215722D01*
X6465301Y-18215722D02*
X6465301Y-18320484D01*
X6465301Y-18215722D02*
X6474824Y-18196674D01*
X6474824Y-18196674D02*
X6493872Y-18187150D01*
X6493872Y-18187150D02*
X6522443Y-18187150D01*
X6522443Y-18187150D02*
X6541491Y-18196674D01*
X6541491Y-18196674D02*
X6551015Y-18215722D01*
X6551015Y-18215722D02*
X6551015Y-18320484D01*
X6941491Y-18110960D02*
X6770063Y-18368103D01*
X7198634Y-18120484D02*
X7217682Y-18120484D01*
X7217682Y-18120484D02*
X7236729Y-18130008D01*
X7236729Y-18130008D02*
X7246253Y-18139531D01*
X7246253Y-18139531D02*
X7255777Y-18158579D01*
X7255777Y-18158579D02*
X7265301Y-18196674D01*
X7265301Y-18196674D02*
X7265301Y-18244293D01*
X7265301Y-18244293D02*
X7255777Y-18282389D01*
X7255777Y-18282389D02*
X7246253Y-18301436D01*
X7246253Y-18301436D02*
X7236729Y-18310960D01*
X7236729Y-18310960D02*
X7217682Y-18320484D01*
X7217682Y-18320484D02*
X7198634Y-18320484D01*
X7198634Y-18320484D02*
X7179586Y-18310960D01*
X7179586Y-18310960D02*
X7170063Y-18301436D01*
X7170063Y-18301436D02*
X7160539Y-18282389D01*
X7160539Y-18282389D02*
X7151015Y-18244293D01*
X7151015Y-18244293D02*
X7151015Y-18196674D01*
X7151015Y-18196674D02*
X7160539Y-18158579D01*
X7160539Y-18158579D02*
X7170063Y-18139531D01*
X7170063Y-18139531D02*
X7179586Y-18130008D01*
X7179586Y-18130008D02*
X7198634Y-18120484D01*
X7351015Y-18301436D02*
X7360539Y-18310960D01*
X7360539Y-18310960D02*
X7351015Y-18320484D01*
X7351015Y-18320484D02*
X7341491Y-18310960D01*
X7341491Y-18310960D02*
X7351015Y-18301436D01*
X7351015Y-18301436D02*
X7351015Y-18320484D01*
X7484348Y-18120484D02*
X7503396Y-18120484D01*
X7503396Y-18120484D02*
X7522444Y-18130008D01*
X7522444Y-18130008D02*
X7531967Y-18139531D01*
X7531967Y-18139531D02*
X7541491Y-18158579D01*
X7541491Y-18158579D02*
X7551015Y-18196674D01*
X7551015Y-18196674D02*
X7551015Y-18244293D01*
X7551015Y-18244293D02*
X7541491Y-18282389D01*
X7541491Y-18282389D02*
X7531967Y-18301436D01*
X7531967Y-18301436D02*
X7522444Y-18310960D01*
X7522444Y-18310960D02*
X7503396Y-18320484D01*
X7503396Y-18320484D02*
X7484348Y-18320484D01*
X7484348Y-18320484D02*
X7465301Y-18310960D01*
X7465301Y-18310960D02*
X7455777Y-18301436D01*
X7455777Y-18301436D02*
X7446253Y-18282389D01*
X7446253Y-18282389D02*
X7436729Y-18244293D01*
X7436729Y-18244293D02*
X7436729Y-18196674D01*
X7436729Y-18196674D02*
X7446253Y-18158579D01*
X7446253Y-18158579D02*
X7455777Y-18139531D01*
X7455777Y-18139531D02*
X7465301Y-18130008D01*
X7465301Y-18130008D02*
X7484348Y-18120484D01*
X7731967Y-18120484D02*
X7636729Y-18120484D01*
X7636729Y-18120484D02*
X7627206Y-18215722D01*
X7627206Y-18215722D02*
X7636729Y-18206198D01*
X7636729Y-18206198D02*
X7655777Y-18196674D01*
X7655777Y-18196674D02*
X7703396Y-18196674D01*
X7703396Y-18196674D02*
X7722444Y-18206198D01*
X7722444Y-18206198D02*
X7731967Y-18215722D01*
X7731967Y-18215722D02*
X7741491Y-18234770D01*
X7741491Y-18234770D02*
X7741491Y-18282389D01*
X7741491Y-18282389D02*
X7731967Y-18301436D01*
X7731967Y-18301436D02*
X7722444Y-18310960D01*
X7722444Y-18310960D02*
X7703396Y-18320484D01*
X7703396Y-18320484D02*
X7655777Y-18320484D01*
X7655777Y-18320484D02*
X7636729Y-18310960D01*
X7636729Y-18310960D02*
X7627206Y-18301436D01*
X7922444Y-18120484D02*
X7827206Y-18120484D01*
X7827206Y-18120484D02*
X7817682Y-18215722D01*
X7817682Y-18215722D02*
X7827206Y-18206198D01*
X7827206Y-18206198D02*
X7846253Y-18196674D01*
X7846253Y-18196674D02*
X7893872Y-18196674D01*
X7893872Y-18196674D02*
X7912920Y-18206198D01*
X7912920Y-18206198D02*
X7922444Y-18215722D01*
X7922444Y-18215722D02*
X7931967Y-18234770D01*
X7931967Y-18234770D02*
X7931967Y-18282389D01*
X7931967Y-18282389D02*
X7922444Y-18301436D01*
X7922444Y-18301436D02*
X7912920Y-18310960D01*
X7912920Y-18310960D02*
X7893872Y-18320484D01*
X7893872Y-18320484D02*
X7846253Y-18320484D01*
X7846253Y-18320484D02*
X7827206Y-18310960D01*
X7827206Y-18310960D02*
X7817682Y-18301436D01*
X8027206Y-18320484D02*
X8065301Y-18320484D01*
X8065301Y-18320484D02*
X8084348Y-18310960D01*
X8084348Y-18310960D02*
X8093872Y-18301436D01*
X8093872Y-18301436D02*
X8112920Y-18272865D01*
X8112920Y-18272865D02*
X8122444Y-18234770D01*
X8122444Y-18234770D02*
X8122444Y-18158579D01*
X8122444Y-18158579D02*
X8112920Y-18139531D01*
X8112920Y-18139531D02*
X8103396Y-18130008D01*
X8103396Y-18130008D02*
X8084348Y-18120484D01*
X8084348Y-18120484D02*
X8046253Y-18120484D01*
X8046253Y-18120484D02*
X8027206Y-18130008D01*
X8027206Y-18130008D02*
X8017682Y-18139531D01*
X8017682Y-18139531D02*
X8008158Y-18158579D01*
X8008158Y-18158579D02*
X8008158Y-18206198D01*
X8008158Y-18206198D02*
X8017682Y-18225246D01*
X8017682Y-18225246D02*
X8027206Y-18234770D01*
X8027206Y-18234770D02*
X8046253Y-18244293D01*
X8046253Y-18244293D02*
X8084348Y-18244293D01*
X8084348Y-18244293D02*
X8103396Y-18234770D01*
X8103396Y-18234770D02*
X8112920Y-18225246D01*
X8112920Y-18225246D02*
X8122444Y-18206198D01*
X8198634Y-18120484D02*
X8198634Y-18158579D01*
X8274825Y-18120484D02*
X8274825Y-18158579D01*
X8570063Y-18396674D02*
X8560539Y-18387150D01*
X8560539Y-18387150D02*
X8541491Y-18358579D01*
X8541491Y-18358579D02*
X8531968Y-18339531D01*
X8531968Y-18339531D02*
X8522444Y-18310960D01*
X8522444Y-18310960D02*
X8512920Y-18263341D01*
X8512920Y-18263341D02*
X8512920Y-18225246D01*
X8512920Y-18225246D02*
X8522444Y-18177627D01*
X8522444Y-18177627D02*
X8531968Y-18149055D01*
X8531968Y-18149055D02*
X8541491Y-18130008D01*
X8541491Y-18130008D02*
X8560539Y-18101436D01*
X8560539Y-18101436D02*
X8570063Y-18091912D01*
X8741491Y-18120484D02*
X8646253Y-18120484D01*
X8646253Y-18120484D02*
X8636730Y-18215722D01*
X8636730Y-18215722D02*
X8646253Y-18206198D01*
X8646253Y-18206198D02*
X8665301Y-18196674D01*
X8665301Y-18196674D02*
X8712920Y-18196674D01*
X8712920Y-18196674D02*
X8731968Y-18206198D01*
X8731968Y-18206198D02*
X8741491Y-18215722D01*
X8741491Y-18215722D02*
X8751015Y-18234770D01*
X8751015Y-18234770D02*
X8751015Y-18282389D01*
X8751015Y-18282389D02*
X8741491Y-18301436D01*
X8741491Y-18301436D02*
X8731968Y-18310960D01*
X8731968Y-18310960D02*
X8712920Y-18320484D01*
X8712920Y-18320484D02*
X8665301Y-18320484D01*
X8665301Y-18320484D02*
X8646253Y-18310960D01*
X8646253Y-18310960D02*
X8636730Y-18301436D01*
X8989111Y-18320484D02*
X8989111Y-18120484D01*
X9074825Y-18320484D02*
X9074825Y-18215722D01*
X9074825Y-18215722D02*
X9065301Y-18196674D01*
X9065301Y-18196674D02*
X9046253Y-18187150D01*
X9046253Y-18187150D02*
X9017682Y-18187150D01*
X9017682Y-18187150D02*
X8998634Y-18196674D01*
X8998634Y-18196674D02*
X8989111Y-18206198D01*
X9198634Y-18320484D02*
X9179587Y-18310960D01*
X9179587Y-18310960D02*
X9170063Y-18301436D01*
X9170063Y-18301436D02*
X9160539Y-18282389D01*
X9160539Y-18282389D02*
X9160539Y-18225246D01*
X9160539Y-18225246D02*
X9170063Y-18206198D01*
X9170063Y-18206198D02*
X9179587Y-18196674D01*
X9179587Y-18196674D02*
X9198634Y-18187150D01*
X9198634Y-18187150D02*
X9227206Y-18187150D01*
X9227206Y-18187150D02*
X9246253Y-18196674D01*
X9246253Y-18196674D02*
X9255777Y-18206198D01*
X9255777Y-18206198D02*
X9265301Y-18225246D01*
X9265301Y-18225246D02*
X9265301Y-18282389D01*
X9265301Y-18282389D02*
X9255777Y-18301436D01*
X9255777Y-18301436D02*
X9246253Y-18310960D01*
X9246253Y-18310960D02*
X9227206Y-18320484D01*
X9227206Y-18320484D02*
X9198634Y-18320484D01*
X9379587Y-18320484D02*
X9360539Y-18310960D01*
X9360539Y-18310960D02*
X9351015Y-18291912D01*
X9351015Y-18291912D02*
X9351015Y-18120484D01*
X9531968Y-18310960D02*
X9512920Y-18320484D01*
X9512920Y-18320484D02*
X9474825Y-18320484D01*
X9474825Y-18320484D02*
X9455777Y-18310960D01*
X9455777Y-18310960D02*
X9446253Y-18291912D01*
X9446253Y-18291912D02*
X9446253Y-18215722D01*
X9446253Y-18215722D02*
X9455777Y-18196674D01*
X9455777Y-18196674D02*
X9474825Y-18187150D01*
X9474825Y-18187150D02*
X9512920Y-18187150D01*
X9512920Y-18187150D02*
X9531968Y-18196674D01*
X9531968Y-18196674D02*
X9541492Y-18215722D01*
X9541492Y-18215722D02*
X9541492Y-18234770D01*
X9541492Y-18234770D02*
X9446253Y-18253817D01*
X9617682Y-18310960D02*
X9636730Y-18320484D01*
X9636730Y-18320484D02*
X9674825Y-18320484D01*
X9674825Y-18320484D02*
X9693873Y-18310960D01*
X9693873Y-18310960D02*
X9703396Y-18291912D01*
X9703396Y-18291912D02*
X9703396Y-18282389D01*
X9703396Y-18282389D02*
X9693873Y-18263341D01*
X9693873Y-18263341D02*
X9674825Y-18253817D01*
X9674825Y-18253817D02*
X9646253Y-18253817D01*
X9646253Y-18253817D02*
X9627206Y-18244293D01*
X9627206Y-18244293D02*
X9617682Y-18225246D01*
X9617682Y-18225246D02*
X9617682Y-18215722D01*
X9617682Y-18215722D02*
X9627206Y-18196674D01*
X9627206Y-18196674D02*
X9646253Y-18187150D01*
X9646253Y-18187150D02*
X9674825Y-18187150D01*
X9674825Y-18187150D02*
X9693873Y-18196674D01*
X9770063Y-18396674D02*
X9779587Y-18387150D01*
X9779587Y-18387150D02*
X9798634Y-18358579D01*
X9798634Y-18358579D02*
X9808158Y-18339531D01*
X9808158Y-18339531D02*
X9817682Y-18310960D01*
X9817682Y-18310960D02*
X9827206Y-18263341D01*
X9827206Y-18263341D02*
X9827206Y-18225246D01*
X9827206Y-18225246D02*
X9817682Y-18177627D01*
X9817682Y-18177627D02*
X9808158Y-18149055D01*
X9808158Y-18149055D02*
X9798634Y-18130008D01*
X9798634Y-18130008D02*
X9779587Y-18101436D01*
X9779587Y-18101436D02*
X9770063Y-18091912D01*
D14*
X4852000Y-18421500D02*
X4995000Y-18564500D01*
X4995000Y-18421500D02*
X4852000Y-18564500D01*
X4974059Y-18543559D02*
X4974059Y-18442441D01*
X4872941Y-18442441D01*
X4872941Y-18543559D01*
X4974059Y-18543559D01*
D11*
X5360539Y-18584484D02*
X5246253Y-18584484D01*
X5303396Y-18584484D02*
X5303396Y-18384484D01*
X5303396Y-18384484D02*
X5284348Y-18413055D01*
X5284348Y-18413055D02*
X5265301Y-18432103D01*
X5265301Y-18432103D02*
X5246253Y-18441627D01*
X5446253Y-18565436D02*
X5455777Y-18574960D01*
X5455777Y-18574960D02*
X5446253Y-18584484D01*
X5446253Y-18584484D02*
X5436729Y-18574960D01*
X5436729Y-18574960D02*
X5446253Y-18565436D01*
X5446253Y-18565436D02*
X5446253Y-18584484D01*
X5627205Y-18451150D02*
X5627205Y-18584484D01*
X5579586Y-18374960D02*
X5531967Y-18517817D01*
X5531967Y-18517817D02*
X5655777Y-18517817D01*
X5712920Y-18384484D02*
X5836729Y-18384484D01*
X5836729Y-18384484D02*
X5770062Y-18460674D01*
X5770062Y-18460674D02*
X5798634Y-18460674D01*
X5798634Y-18460674D02*
X5817682Y-18470198D01*
X5817682Y-18470198D02*
X5827205Y-18479722D01*
X5827205Y-18479722D02*
X5836729Y-18498770D01*
X5836729Y-18498770D02*
X5836729Y-18546389D01*
X5836729Y-18546389D02*
X5827205Y-18565436D01*
X5827205Y-18565436D02*
X5817682Y-18574960D01*
X5817682Y-18574960D02*
X5798634Y-18584484D01*
X5798634Y-18584484D02*
X5741491Y-18584484D01*
X5741491Y-18584484D02*
X5722443Y-18574960D01*
X5722443Y-18574960D02*
X5712920Y-18565436D01*
X5960539Y-18384484D02*
X5979586Y-18384484D01*
X5979586Y-18384484D02*
X5998634Y-18394008D01*
X5998634Y-18394008D02*
X6008158Y-18403531D01*
X6008158Y-18403531D02*
X6017682Y-18422579D01*
X6017682Y-18422579D02*
X6027205Y-18460674D01*
X6027205Y-18460674D02*
X6027205Y-18508293D01*
X6027205Y-18508293D02*
X6017682Y-18546389D01*
X6017682Y-18546389D02*
X6008158Y-18565436D01*
X6008158Y-18565436D02*
X5998634Y-18574960D01*
X5998634Y-18574960D02*
X5979586Y-18584484D01*
X5979586Y-18584484D02*
X5960539Y-18584484D01*
X5960539Y-18584484D02*
X5941491Y-18574960D01*
X5941491Y-18574960D02*
X5931967Y-18565436D01*
X5931967Y-18565436D02*
X5922443Y-18546389D01*
X5922443Y-18546389D02*
X5912920Y-18508293D01*
X5912920Y-18508293D02*
X5912920Y-18460674D01*
X5912920Y-18460674D02*
X5922443Y-18422579D01*
X5922443Y-18422579D02*
X5931967Y-18403531D01*
X5931967Y-18403531D02*
X5941491Y-18394008D01*
X5941491Y-18394008D02*
X5960539Y-18384484D01*
X6112920Y-18584484D02*
X6112920Y-18451150D01*
X6112920Y-18470198D02*
X6122443Y-18460674D01*
X6122443Y-18460674D02*
X6141491Y-18451150D01*
X6141491Y-18451150D02*
X6170063Y-18451150D01*
X6170063Y-18451150D02*
X6189110Y-18460674D01*
X6189110Y-18460674D02*
X6198634Y-18479722D01*
X6198634Y-18479722D02*
X6198634Y-18584484D01*
X6198634Y-18479722D02*
X6208158Y-18460674D01*
X6208158Y-18460674D02*
X6227205Y-18451150D01*
X6227205Y-18451150D02*
X6255777Y-18451150D01*
X6255777Y-18451150D02*
X6274824Y-18460674D01*
X6274824Y-18460674D02*
X6284348Y-18479722D01*
X6284348Y-18479722D02*
X6284348Y-18584484D01*
X6379586Y-18584484D02*
X6379586Y-18451150D01*
X6379586Y-18470198D02*
X6389110Y-18460674D01*
X6389110Y-18460674D02*
X6408158Y-18451150D01*
X6408158Y-18451150D02*
X6436729Y-18451150D01*
X6436729Y-18451150D02*
X6455777Y-18460674D01*
X6455777Y-18460674D02*
X6465301Y-18479722D01*
X6465301Y-18479722D02*
X6465301Y-18584484D01*
X6465301Y-18479722D02*
X6474824Y-18460674D01*
X6474824Y-18460674D02*
X6493872Y-18451150D01*
X6493872Y-18451150D02*
X6522443Y-18451150D01*
X6522443Y-18451150D02*
X6541491Y-18460674D01*
X6541491Y-18460674D02*
X6551015Y-18479722D01*
X6551015Y-18479722D02*
X6551015Y-18584484D01*
X6941491Y-18374960D02*
X6770063Y-18632103D01*
X7198634Y-18384484D02*
X7217682Y-18384484D01*
X7217682Y-18384484D02*
X7236729Y-18394008D01*
X7236729Y-18394008D02*
X7246253Y-18403531D01*
X7246253Y-18403531D02*
X7255777Y-18422579D01*
X7255777Y-18422579D02*
X7265301Y-18460674D01*
X7265301Y-18460674D02*
X7265301Y-18508293D01*
X7265301Y-18508293D02*
X7255777Y-18546389D01*
X7255777Y-18546389D02*
X7246253Y-18565436D01*
X7246253Y-18565436D02*
X7236729Y-18574960D01*
X7236729Y-18574960D02*
X7217682Y-18584484D01*
X7217682Y-18584484D02*
X7198634Y-18584484D01*
X7198634Y-18584484D02*
X7179586Y-18574960D01*
X7179586Y-18574960D02*
X7170063Y-18565436D01*
X7170063Y-18565436D02*
X7160539Y-18546389D01*
X7160539Y-18546389D02*
X7151015Y-18508293D01*
X7151015Y-18508293D02*
X7151015Y-18460674D01*
X7151015Y-18460674D02*
X7160539Y-18422579D01*
X7160539Y-18422579D02*
X7170063Y-18403531D01*
X7170063Y-18403531D02*
X7179586Y-18394008D01*
X7179586Y-18394008D02*
X7198634Y-18384484D01*
X7351015Y-18565436D02*
X7360539Y-18574960D01*
X7360539Y-18574960D02*
X7351015Y-18584484D01*
X7351015Y-18584484D02*
X7341491Y-18574960D01*
X7341491Y-18574960D02*
X7351015Y-18565436D01*
X7351015Y-18565436D02*
X7351015Y-18584484D01*
X7484348Y-18384484D02*
X7503396Y-18384484D01*
X7503396Y-18384484D02*
X7522444Y-18394008D01*
X7522444Y-18394008D02*
X7531967Y-18403531D01*
X7531967Y-18403531D02*
X7541491Y-18422579D01*
X7541491Y-18422579D02*
X7551015Y-18460674D01*
X7551015Y-18460674D02*
X7551015Y-18508293D01*
X7551015Y-18508293D02*
X7541491Y-18546389D01*
X7541491Y-18546389D02*
X7531967Y-18565436D01*
X7531967Y-18565436D02*
X7522444Y-18574960D01*
X7522444Y-18574960D02*
X7503396Y-18584484D01*
X7503396Y-18584484D02*
X7484348Y-18584484D01*
X7484348Y-18584484D02*
X7465301Y-18574960D01*
X7465301Y-18574960D02*
X7455777Y-18565436D01*
X7455777Y-18565436D02*
X7446253Y-18546389D01*
X7446253Y-18546389D02*
X7436729Y-18508293D01*
X7436729Y-18508293D02*
X7436729Y-18460674D01*
X7436729Y-18460674D02*
X7446253Y-18422579D01*
X7446253Y-18422579D02*
X7455777Y-18403531D01*
X7455777Y-18403531D02*
X7465301Y-18394008D01*
X7465301Y-18394008D02*
X7484348Y-18384484D01*
X7731967Y-18384484D02*
X7636729Y-18384484D01*
X7636729Y-18384484D02*
X7627206Y-18479722D01*
X7627206Y-18479722D02*
X7636729Y-18470198D01*
X7636729Y-18470198D02*
X7655777Y-18460674D01*
X7655777Y-18460674D02*
X7703396Y-18460674D01*
X7703396Y-18460674D02*
X7722444Y-18470198D01*
X7722444Y-18470198D02*
X7731967Y-18479722D01*
X7731967Y-18479722D02*
X7741491Y-18498770D01*
X7741491Y-18498770D02*
X7741491Y-18546389D01*
X7741491Y-18546389D02*
X7731967Y-18565436D01*
X7731967Y-18565436D02*
X7722444Y-18574960D01*
X7722444Y-18574960D02*
X7703396Y-18584484D01*
X7703396Y-18584484D02*
X7655777Y-18584484D01*
X7655777Y-18584484D02*
X7636729Y-18574960D01*
X7636729Y-18574960D02*
X7627206Y-18565436D01*
X7912920Y-18384484D02*
X7874825Y-18384484D01*
X7874825Y-18384484D02*
X7855777Y-18394008D01*
X7855777Y-18394008D02*
X7846253Y-18403531D01*
X7846253Y-18403531D02*
X7827206Y-18432103D01*
X7827206Y-18432103D02*
X7817682Y-18470198D01*
X7817682Y-18470198D02*
X7817682Y-18546389D01*
X7817682Y-18546389D02*
X7827206Y-18565436D01*
X7827206Y-18565436D02*
X7836729Y-18574960D01*
X7836729Y-18574960D02*
X7855777Y-18584484D01*
X7855777Y-18584484D02*
X7893872Y-18584484D01*
X7893872Y-18584484D02*
X7912920Y-18574960D01*
X7912920Y-18574960D02*
X7922444Y-18565436D01*
X7922444Y-18565436D02*
X7931967Y-18546389D01*
X7931967Y-18546389D02*
X7931967Y-18498770D01*
X7931967Y-18498770D02*
X7922444Y-18479722D01*
X7922444Y-18479722D02*
X7912920Y-18470198D01*
X7912920Y-18470198D02*
X7893872Y-18460674D01*
X7893872Y-18460674D02*
X7855777Y-18460674D01*
X7855777Y-18460674D02*
X7836729Y-18470198D01*
X7836729Y-18470198D02*
X7827206Y-18479722D01*
X7827206Y-18479722D02*
X7817682Y-18498770D01*
X7998634Y-18384484D02*
X8122444Y-18384484D01*
X8122444Y-18384484D02*
X8055777Y-18460674D01*
X8055777Y-18460674D02*
X8084348Y-18460674D01*
X8084348Y-18460674D02*
X8103396Y-18470198D01*
X8103396Y-18470198D02*
X8112920Y-18479722D01*
X8112920Y-18479722D02*
X8122444Y-18498770D01*
X8122444Y-18498770D02*
X8122444Y-18546389D01*
X8122444Y-18546389D02*
X8112920Y-18565436D01*
X8112920Y-18565436D02*
X8103396Y-18574960D01*
X8103396Y-18574960D02*
X8084348Y-18584484D01*
X8084348Y-18584484D02*
X8027206Y-18584484D01*
X8027206Y-18584484D02*
X8008158Y-18574960D01*
X8008158Y-18574960D02*
X7998634Y-18565436D01*
X8198634Y-18384484D02*
X8198634Y-18422579D01*
X8274825Y-18384484D02*
X8274825Y-18422579D01*
X8570063Y-18660674D02*
X8560539Y-18651150D01*
X8560539Y-18651150D02*
X8541491Y-18622579D01*
X8541491Y-18622579D02*
X8531968Y-18603531D01*
X8531968Y-18603531D02*
X8522444Y-18574960D01*
X8522444Y-18574960D02*
X8512920Y-18527341D01*
X8512920Y-18527341D02*
X8512920Y-18489246D01*
X8512920Y-18489246D02*
X8522444Y-18441627D01*
X8522444Y-18441627D02*
X8531968Y-18413055D01*
X8531968Y-18413055D02*
X8541491Y-18394008D01*
X8541491Y-18394008D02*
X8560539Y-18365436D01*
X8560539Y-18365436D02*
X8570063Y-18355912D01*
X8741491Y-18384484D02*
X8646253Y-18384484D01*
X8646253Y-18384484D02*
X8636730Y-18479722D01*
X8636730Y-18479722D02*
X8646253Y-18470198D01*
X8646253Y-18470198D02*
X8665301Y-18460674D01*
X8665301Y-18460674D02*
X8712920Y-18460674D01*
X8712920Y-18460674D02*
X8731968Y-18470198D01*
X8731968Y-18470198D02*
X8741491Y-18479722D01*
X8741491Y-18479722D02*
X8751015Y-18498770D01*
X8751015Y-18498770D02*
X8751015Y-18546389D01*
X8751015Y-18546389D02*
X8741491Y-18565436D01*
X8741491Y-18565436D02*
X8731968Y-18574960D01*
X8731968Y-18574960D02*
X8712920Y-18584484D01*
X8712920Y-18584484D02*
X8665301Y-18584484D01*
X8665301Y-18584484D02*
X8646253Y-18574960D01*
X8646253Y-18574960D02*
X8636730Y-18565436D01*
X8989111Y-18584484D02*
X8989111Y-18384484D01*
X9074825Y-18584484D02*
X9074825Y-18479722D01*
X9074825Y-18479722D02*
X9065301Y-18460674D01*
X9065301Y-18460674D02*
X9046253Y-18451150D01*
X9046253Y-18451150D02*
X9017682Y-18451150D01*
X9017682Y-18451150D02*
X8998634Y-18460674D01*
X8998634Y-18460674D02*
X8989111Y-18470198D01*
X9198634Y-18584484D02*
X9179587Y-18574960D01*
X9179587Y-18574960D02*
X9170063Y-18565436D01*
X9170063Y-18565436D02*
X9160539Y-18546389D01*
X9160539Y-18546389D02*
X9160539Y-18489246D01*
X9160539Y-18489246D02*
X9170063Y-18470198D01*
X9170063Y-18470198D02*
X9179587Y-18460674D01*
X9179587Y-18460674D02*
X9198634Y-18451150D01*
X9198634Y-18451150D02*
X9227206Y-18451150D01*
X9227206Y-18451150D02*
X9246253Y-18460674D01*
X9246253Y-18460674D02*
X9255777Y-18470198D01*
X9255777Y-18470198D02*
X9265301Y-18489246D01*
X9265301Y-18489246D02*
X9265301Y-18546389D01*
X9265301Y-18546389D02*
X9255777Y-18565436D01*
X9255777Y-18565436D02*
X9246253Y-18574960D01*
X9246253Y-18574960D02*
X9227206Y-18584484D01*
X9227206Y-18584484D02*
X9198634Y-18584484D01*
X9379587Y-18584484D02*
X9360539Y-18574960D01*
X9360539Y-18574960D02*
X9351015Y-18555912D01*
X9351015Y-18555912D02*
X9351015Y-18384484D01*
X9531968Y-18574960D02*
X9512920Y-18584484D01*
X9512920Y-18584484D02*
X9474825Y-18584484D01*
X9474825Y-18584484D02*
X9455777Y-18574960D01*
X9455777Y-18574960D02*
X9446253Y-18555912D01*
X9446253Y-18555912D02*
X9446253Y-18479722D01*
X9446253Y-18479722D02*
X9455777Y-18460674D01*
X9455777Y-18460674D02*
X9474825Y-18451150D01*
X9474825Y-18451150D02*
X9512920Y-18451150D01*
X9512920Y-18451150D02*
X9531968Y-18460674D01*
X9531968Y-18460674D02*
X9541492Y-18479722D01*
X9541492Y-18479722D02*
X9541492Y-18498770D01*
X9541492Y-18498770D02*
X9446253Y-18517817D01*
X9617682Y-18574960D02*
X9636730Y-18584484D01*
X9636730Y-18584484D02*
X9674825Y-18584484D01*
X9674825Y-18584484D02*
X9693873Y-18574960D01*
X9693873Y-18574960D02*
X9703396Y-18555912D01*
X9703396Y-18555912D02*
X9703396Y-18546389D01*
X9703396Y-18546389D02*
X9693873Y-18527341D01*
X9693873Y-18527341D02*
X9674825Y-18517817D01*
X9674825Y-18517817D02*
X9646253Y-18517817D01*
X9646253Y-18517817D02*
X9627206Y-18508293D01*
X9627206Y-18508293D02*
X9617682Y-18489246D01*
X9617682Y-18489246D02*
X9617682Y-18479722D01*
X9617682Y-18479722D02*
X9627206Y-18460674D01*
X9627206Y-18460674D02*
X9646253Y-18451150D01*
X9646253Y-18451150D02*
X9674825Y-18451150D01*
X9674825Y-18451150D02*
X9693873Y-18460674D01*
X9770063Y-18660674D02*
X9779587Y-18651150D01*
X9779587Y-18651150D02*
X9798634Y-18622579D01*
X9798634Y-18622579D02*
X9808158Y-18603531D01*
X9808158Y-18603531D02*
X9817682Y-18574960D01*
X9817682Y-18574960D02*
X9827206Y-18527341D01*
X9827206Y-18527341D02*
X9827206Y-18489246D01*
X9827206Y-18489246D02*
X9817682Y-18441627D01*
X9817682Y-18441627D02*
X9808158Y-18413055D01*
X9808158Y-18413055D02*
X9798634Y-18394008D01*
X9798634Y-18394008D02*
X9779587Y-18365436D01*
X9779587Y-18365436D02*
X9770063Y-18355912D01*
X4795000Y-18657000D02*
X4995000Y-18857000D01*
X4995000Y-18657000D02*
X4795000Y-18857000D01*
X4895000Y-18857000D02*
X4995000Y-18757000D01*
X4895000Y-18657000D01*
X4795000Y-18757000D01*
X4895000Y-18857000D01*
X5246253Y-18667531D02*
X5255777Y-18658008D01*
X5255777Y-18658008D02*
X5274824Y-18648484D01*
X5274824Y-18648484D02*
X5322444Y-18648484D01*
X5322444Y-18648484D02*
X5341491Y-18658008D01*
X5341491Y-18658008D02*
X5351015Y-18667531D01*
X5351015Y-18667531D02*
X5360539Y-18686579D01*
X5360539Y-18686579D02*
X5360539Y-18705627D01*
X5360539Y-18705627D02*
X5351015Y-18734198D01*
X5351015Y-18734198D02*
X5236729Y-18848484D01*
X5236729Y-18848484D02*
X5360539Y-18848484D01*
X5446253Y-18829436D02*
X5455777Y-18838960D01*
X5455777Y-18838960D02*
X5446253Y-18848484D01*
X5446253Y-18848484D02*
X5436729Y-18838960D01*
X5436729Y-18838960D02*
X5446253Y-18829436D01*
X5446253Y-18829436D02*
X5446253Y-18848484D01*
X5579586Y-18648484D02*
X5598634Y-18648484D01*
X5598634Y-18648484D02*
X5617682Y-18658008D01*
X5617682Y-18658008D02*
X5627205Y-18667531D01*
X5627205Y-18667531D02*
X5636729Y-18686579D01*
X5636729Y-18686579D02*
X5646253Y-18724674D01*
X5646253Y-18724674D02*
X5646253Y-18772293D01*
X5646253Y-18772293D02*
X5636729Y-18810389D01*
X5636729Y-18810389D02*
X5627205Y-18829436D01*
X5627205Y-18829436D02*
X5617682Y-18838960D01*
X5617682Y-18838960D02*
X5598634Y-18848484D01*
X5598634Y-18848484D02*
X5579586Y-18848484D01*
X5579586Y-18848484D02*
X5560539Y-18838960D01*
X5560539Y-18838960D02*
X5551015Y-18829436D01*
X5551015Y-18829436D02*
X5541491Y-18810389D01*
X5541491Y-18810389D02*
X5531967Y-18772293D01*
X5531967Y-18772293D02*
X5531967Y-18724674D01*
X5531967Y-18724674D02*
X5541491Y-18686579D01*
X5541491Y-18686579D02*
X5551015Y-18667531D01*
X5551015Y-18667531D02*
X5560539Y-18658008D01*
X5560539Y-18658008D02*
X5579586Y-18648484D01*
X5770062Y-18648484D02*
X5789110Y-18648484D01*
X5789110Y-18648484D02*
X5808158Y-18658008D01*
X5808158Y-18658008D02*
X5817682Y-18667531D01*
X5817682Y-18667531D02*
X5827205Y-18686579D01*
X5827205Y-18686579D02*
X5836729Y-18724674D01*
X5836729Y-18724674D02*
X5836729Y-18772293D01*
X5836729Y-18772293D02*
X5827205Y-18810389D01*
X5827205Y-18810389D02*
X5817682Y-18829436D01*
X5817682Y-18829436D02*
X5808158Y-18838960D01*
X5808158Y-18838960D02*
X5789110Y-18848484D01*
X5789110Y-18848484D02*
X5770062Y-18848484D01*
X5770062Y-18848484D02*
X5751015Y-18838960D01*
X5751015Y-18838960D02*
X5741491Y-18829436D01*
X5741491Y-18829436D02*
X5731967Y-18810389D01*
X5731967Y-18810389D02*
X5722443Y-18772293D01*
X5722443Y-18772293D02*
X5722443Y-18724674D01*
X5722443Y-18724674D02*
X5731967Y-18686579D01*
X5731967Y-18686579D02*
X5741491Y-18667531D01*
X5741491Y-18667531D02*
X5751015Y-18658008D01*
X5751015Y-18658008D02*
X5770062Y-18648484D01*
X5960539Y-18648484D02*
X5979586Y-18648484D01*
X5979586Y-18648484D02*
X5998634Y-18658008D01*
X5998634Y-18658008D02*
X6008158Y-18667531D01*
X6008158Y-18667531D02*
X6017682Y-18686579D01*
X6017682Y-18686579D02*
X6027205Y-18724674D01*
X6027205Y-18724674D02*
X6027205Y-18772293D01*
X6027205Y-18772293D02*
X6017682Y-18810389D01*
X6017682Y-18810389D02*
X6008158Y-18829436D01*
X6008158Y-18829436D02*
X5998634Y-18838960D01*
X5998634Y-18838960D02*
X5979586Y-18848484D01*
X5979586Y-18848484D02*
X5960539Y-18848484D01*
X5960539Y-18848484D02*
X5941491Y-18838960D01*
X5941491Y-18838960D02*
X5931967Y-18829436D01*
X5931967Y-18829436D02*
X5922443Y-18810389D01*
X5922443Y-18810389D02*
X5912920Y-18772293D01*
X5912920Y-18772293D02*
X5912920Y-18724674D01*
X5912920Y-18724674D02*
X5922443Y-18686579D01*
X5922443Y-18686579D02*
X5931967Y-18667531D01*
X5931967Y-18667531D02*
X5941491Y-18658008D01*
X5941491Y-18658008D02*
X5960539Y-18648484D01*
X6112920Y-18848484D02*
X6112920Y-18715150D01*
X6112920Y-18734198D02*
X6122443Y-18724674D01*
X6122443Y-18724674D02*
X6141491Y-18715150D01*
X6141491Y-18715150D02*
X6170063Y-18715150D01*
X6170063Y-18715150D02*
X6189110Y-18724674D01*
X6189110Y-18724674D02*
X6198634Y-18743722D01*
X6198634Y-18743722D02*
X6198634Y-18848484D01*
X6198634Y-18743722D02*
X6208158Y-18724674D01*
X6208158Y-18724674D02*
X6227205Y-18715150D01*
X6227205Y-18715150D02*
X6255777Y-18715150D01*
X6255777Y-18715150D02*
X6274824Y-18724674D01*
X6274824Y-18724674D02*
X6284348Y-18743722D01*
X6284348Y-18743722D02*
X6284348Y-18848484D01*
X6379586Y-18848484D02*
X6379586Y-18715150D01*
X6379586Y-18734198D02*
X6389110Y-18724674D01*
X6389110Y-18724674D02*
X6408158Y-18715150D01*
X6408158Y-18715150D02*
X6436729Y-18715150D01*
X6436729Y-18715150D02*
X6455777Y-18724674D01*
X6455777Y-18724674D02*
X6465301Y-18743722D01*
X6465301Y-18743722D02*
X6465301Y-18848484D01*
X6465301Y-18743722D02*
X6474824Y-18724674D01*
X6474824Y-18724674D02*
X6493872Y-18715150D01*
X6493872Y-18715150D02*
X6522443Y-18715150D01*
X6522443Y-18715150D02*
X6541491Y-18724674D01*
X6541491Y-18724674D02*
X6551015Y-18743722D01*
X6551015Y-18743722D02*
X6551015Y-18848484D01*
X6941491Y-18638960D02*
X6770063Y-18896103D01*
X7198634Y-18648484D02*
X7217682Y-18648484D01*
X7217682Y-18648484D02*
X7236729Y-18658008D01*
X7236729Y-18658008D02*
X7246253Y-18667531D01*
X7246253Y-18667531D02*
X7255777Y-18686579D01*
X7255777Y-18686579D02*
X7265301Y-18724674D01*
X7265301Y-18724674D02*
X7265301Y-18772293D01*
X7265301Y-18772293D02*
X7255777Y-18810389D01*
X7255777Y-18810389D02*
X7246253Y-18829436D01*
X7246253Y-18829436D02*
X7236729Y-18838960D01*
X7236729Y-18838960D02*
X7217682Y-18848484D01*
X7217682Y-18848484D02*
X7198634Y-18848484D01*
X7198634Y-18848484D02*
X7179586Y-18838960D01*
X7179586Y-18838960D02*
X7170063Y-18829436D01*
X7170063Y-18829436D02*
X7160539Y-18810389D01*
X7160539Y-18810389D02*
X7151015Y-18772293D01*
X7151015Y-18772293D02*
X7151015Y-18724674D01*
X7151015Y-18724674D02*
X7160539Y-18686579D01*
X7160539Y-18686579D02*
X7170063Y-18667531D01*
X7170063Y-18667531D02*
X7179586Y-18658008D01*
X7179586Y-18658008D02*
X7198634Y-18648484D01*
X7351015Y-18829436D02*
X7360539Y-18838960D01*
X7360539Y-18838960D02*
X7351015Y-18848484D01*
X7351015Y-18848484D02*
X7341491Y-18838960D01*
X7341491Y-18838960D02*
X7351015Y-18829436D01*
X7351015Y-18829436D02*
X7351015Y-18848484D01*
X7484348Y-18648484D02*
X7503396Y-18648484D01*
X7503396Y-18648484D02*
X7522444Y-18658008D01*
X7522444Y-18658008D02*
X7531967Y-18667531D01*
X7531967Y-18667531D02*
X7541491Y-18686579D01*
X7541491Y-18686579D02*
X7551015Y-18724674D01*
X7551015Y-18724674D02*
X7551015Y-18772293D01*
X7551015Y-18772293D02*
X7541491Y-18810389D01*
X7541491Y-18810389D02*
X7531967Y-18829436D01*
X7531967Y-18829436D02*
X7522444Y-18838960D01*
X7522444Y-18838960D02*
X7503396Y-18848484D01*
X7503396Y-18848484D02*
X7484348Y-18848484D01*
X7484348Y-18848484D02*
X7465301Y-18838960D01*
X7465301Y-18838960D02*
X7455777Y-18829436D01*
X7455777Y-18829436D02*
X7446253Y-18810389D01*
X7446253Y-18810389D02*
X7436729Y-18772293D01*
X7436729Y-18772293D02*
X7436729Y-18724674D01*
X7436729Y-18724674D02*
X7446253Y-18686579D01*
X7446253Y-18686579D02*
X7455777Y-18667531D01*
X7455777Y-18667531D02*
X7465301Y-18658008D01*
X7465301Y-18658008D02*
X7484348Y-18648484D01*
X7617682Y-18648484D02*
X7751015Y-18648484D01*
X7751015Y-18648484D02*
X7665301Y-18848484D01*
X7855777Y-18734198D02*
X7836729Y-18724674D01*
X7836729Y-18724674D02*
X7827206Y-18715150D01*
X7827206Y-18715150D02*
X7817682Y-18696103D01*
X7817682Y-18696103D02*
X7817682Y-18686579D01*
X7817682Y-18686579D02*
X7827206Y-18667531D01*
X7827206Y-18667531D02*
X7836729Y-18658008D01*
X7836729Y-18658008D02*
X7855777Y-18648484D01*
X7855777Y-18648484D02*
X7893872Y-18648484D01*
X7893872Y-18648484D02*
X7912920Y-18658008D01*
X7912920Y-18658008D02*
X7922444Y-18667531D01*
X7922444Y-18667531D02*
X7931967Y-18686579D01*
X7931967Y-18686579D02*
X7931967Y-18696103D01*
X7931967Y-18696103D02*
X7922444Y-18715150D01*
X7922444Y-18715150D02*
X7912920Y-18724674D01*
X7912920Y-18724674D02*
X7893872Y-18734198D01*
X7893872Y-18734198D02*
X7855777Y-18734198D01*
X7855777Y-18734198D02*
X7836729Y-18743722D01*
X7836729Y-18743722D02*
X7827206Y-18753246D01*
X7827206Y-18753246D02*
X7817682Y-18772293D01*
X7817682Y-18772293D02*
X7817682Y-18810389D01*
X7817682Y-18810389D02*
X7827206Y-18829436D01*
X7827206Y-18829436D02*
X7836729Y-18838960D01*
X7836729Y-18838960D02*
X7855777Y-18848484D01*
X7855777Y-18848484D02*
X7893872Y-18848484D01*
X7893872Y-18848484D02*
X7912920Y-18838960D01*
X7912920Y-18838960D02*
X7922444Y-18829436D01*
X7922444Y-18829436D02*
X7931967Y-18810389D01*
X7931967Y-18810389D02*
X7931967Y-18772293D01*
X7931967Y-18772293D02*
X7922444Y-18753246D01*
X7922444Y-18753246D02*
X7912920Y-18743722D01*
X7912920Y-18743722D02*
X7893872Y-18734198D01*
X7998634Y-18648484D02*
X8131967Y-18648484D01*
X8131967Y-18648484D02*
X8046253Y-18848484D01*
X8198634Y-18648484D02*
X8198634Y-18686579D01*
X8274825Y-18648484D02*
X8274825Y-18686579D01*
X8570063Y-18924674D02*
X8560539Y-18915150D01*
X8560539Y-18915150D02*
X8541491Y-18886579D01*
X8541491Y-18886579D02*
X8531968Y-18867531D01*
X8531968Y-18867531D02*
X8522444Y-18838960D01*
X8522444Y-18838960D02*
X8512920Y-18791341D01*
X8512920Y-18791341D02*
X8512920Y-18753246D01*
X8512920Y-18753246D02*
X8522444Y-18705627D01*
X8522444Y-18705627D02*
X8531968Y-18677055D01*
X8531968Y-18677055D02*
X8541491Y-18658008D01*
X8541491Y-18658008D02*
X8560539Y-18629436D01*
X8560539Y-18629436D02*
X8570063Y-18619912D01*
X8751015Y-18848484D02*
X8636730Y-18848484D01*
X8693872Y-18848484D02*
X8693872Y-18648484D01*
X8693872Y-18648484D02*
X8674825Y-18677055D01*
X8674825Y-18677055D02*
X8655777Y-18696103D01*
X8655777Y-18696103D02*
X8636730Y-18705627D01*
X8874825Y-18648484D02*
X8893872Y-18648484D01*
X8893872Y-18648484D02*
X8912920Y-18658008D01*
X8912920Y-18658008D02*
X8922444Y-18667531D01*
X8922444Y-18667531D02*
X8931968Y-18686579D01*
X8931968Y-18686579D02*
X8941491Y-18724674D01*
X8941491Y-18724674D02*
X8941491Y-18772293D01*
X8941491Y-18772293D02*
X8931968Y-18810389D01*
X8931968Y-18810389D02*
X8922444Y-18829436D01*
X8922444Y-18829436D02*
X8912920Y-18838960D01*
X8912920Y-18838960D02*
X8893872Y-18848484D01*
X8893872Y-18848484D02*
X8874825Y-18848484D01*
X8874825Y-18848484D02*
X8855777Y-18838960D01*
X8855777Y-18838960D02*
X8846253Y-18829436D01*
X8846253Y-18829436D02*
X8836730Y-18810389D01*
X8836730Y-18810389D02*
X8827206Y-18772293D01*
X8827206Y-18772293D02*
X8827206Y-18724674D01*
X8827206Y-18724674D02*
X8836730Y-18686579D01*
X8836730Y-18686579D02*
X8846253Y-18667531D01*
X8846253Y-18667531D02*
X8855777Y-18658008D01*
X8855777Y-18658008D02*
X8874825Y-18648484D01*
X9179587Y-18848484D02*
X9179587Y-18648484D01*
X9265301Y-18848484D02*
X9265301Y-18743722D01*
X9265301Y-18743722D02*
X9255777Y-18724674D01*
X9255777Y-18724674D02*
X9236730Y-18715150D01*
X9236730Y-18715150D02*
X9208158Y-18715150D01*
X9208158Y-18715150D02*
X9189111Y-18724674D01*
X9189111Y-18724674D02*
X9179587Y-18734198D01*
X9389111Y-18848484D02*
X9370063Y-18838960D01*
X9370063Y-18838960D02*
X9360539Y-18829436D01*
X9360539Y-18829436D02*
X9351015Y-18810389D01*
X9351015Y-18810389D02*
X9351015Y-18753246D01*
X9351015Y-18753246D02*
X9360539Y-18734198D01*
X9360539Y-18734198D02*
X9370063Y-18724674D01*
X9370063Y-18724674D02*
X9389111Y-18715150D01*
X9389111Y-18715150D02*
X9417682Y-18715150D01*
X9417682Y-18715150D02*
X9436730Y-18724674D01*
X9436730Y-18724674D02*
X9446253Y-18734198D01*
X9446253Y-18734198D02*
X9455777Y-18753246D01*
X9455777Y-18753246D02*
X9455777Y-18810389D01*
X9455777Y-18810389D02*
X9446253Y-18829436D01*
X9446253Y-18829436D02*
X9436730Y-18838960D01*
X9436730Y-18838960D02*
X9417682Y-18848484D01*
X9417682Y-18848484D02*
X9389111Y-18848484D01*
X9570063Y-18848484D02*
X9551015Y-18838960D01*
X9551015Y-18838960D02*
X9541492Y-18819912D01*
X9541492Y-18819912D02*
X9541492Y-18648484D01*
X9722444Y-18838960D02*
X9703396Y-18848484D01*
X9703396Y-18848484D02*
X9665301Y-18848484D01*
X9665301Y-18848484D02*
X9646253Y-18838960D01*
X9646253Y-18838960D02*
X9636730Y-18819912D01*
X9636730Y-18819912D02*
X9636730Y-18743722D01*
X9636730Y-18743722D02*
X9646253Y-18724674D01*
X9646253Y-18724674D02*
X9665301Y-18715150D01*
X9665301Y-18715150D02*
X9703396Y-18715150D01*
X9703396Y-18715150D02*
X9722444Y-18724674D01*
X9722444Y-18724674D02*
X9731968Y-18743722D01*
X9731968Y-18743722D02*
X9731968Y-18762770D01*
X9731968Y-18762770D02*
X9636730Y-18781817D01*
X9808158Y-18838960D02*
X9827206Y-18848484D01*
X9827206Y-18848484D02*
X9865301Y-18848484D01*
X9865301Y-18848484D02*
X9884349Y-18838960D01*
X9884349Y-18838960D02*
X9893873Y-18819912D01*
X9893873Y-18819912D02*
X9893873Y-18810389D01*
X9893873Y-18810389D02*
X9884349Y-18791341D01*
X9884349Y-18791341D02*
X9865301Y-18781817D01*
X9865301Y-18781817D02*
X9836730Y-18781817D01*
X9836730Y-18781817D02*
X9817682Y-18772293D01*
X9817682Y-18772293D02*
X9808158Y-18753246D01*
X9808158Y-18753246D02*
X9808158Y-18743722D01*
X9808158Y-18743722D02*
X9817682Y-18724674D01*
X9817682Y-18724674D02*
X9836730Y-18715150D01*
X9836730Y-18715150D02*
X9865301Y-18715150D01*
X9865301Y-18715150D02*
X9884349Y-18724674D01*
X9960539Y-18924674D02*
X9970063Y-18915150D01*
X9970063Y-18915150D02*
X9989111Y-18886579D01*
X9989111Y-18886579D02*
X9998634Y-18867531D01*
X9998634Y-18867531D02*
X10008158Y-18838960D01*
X10008158Y-18838960D02*
X10017682Y-18791341D01*
X10017682Y-18791341D02*
X10017682Y-18753246D01*
X10017682Y-18753246D02*
X10008158Y-18705627D01*
X10008158Y-18705627D02*
X9998634Y-18677055D01*
X9998634Y-18677055D02*
X9989111Y-18658008D01*
X9989111Y-18658008D02*
X9970063Y-18629436D01*
X9970063Y-18629436D02*
X9960539Y-18619912D01*
M02*
