G04 #@! TF.GenerationSoftware,KiCad,Pcbnew,8.0.5*
G04 #@! TF.CreationDate,2024-11-24T11:25:02+01:00*
G04 #@! TF.ProjectId,encore,656e636f-7265-42e6-9b69-6361645f7063,rev?*
G04 #@! TF.SameCoordinates,Original*
G04 #@! TF.FileFunction,Soldermask,Bot*
G04 #@! TF.FilePolarity,Negative*
%FSLAX46Y46*%
G04 Gerber Fmt 4.6, Leading zero omitted, Abs format (unit mm)*
G04 Created by KiCad (PCBNEW 8.0.5) date 2024-11-24 11:25:02*
%MOMM*%
%LPD*%
G01*
G04 APERTURE LIST*
G04 Aperture macros list*
%AMRoundRect*
0 Rectangle with rounded corners*
0 $1 Rounding radius*
0 $2 $3 $4 $5 $6 $7 $8 $9 X,Y pos of 4 corners*
0 Add a 4 corners polygon primitive as box body*
4,1,4,$2,$3,$4,$5,$6,$7,$8,$9,$2,$3,0*
0 Add four circle primitives for the rounded corners*
1,1,$1+$1,$2,$3*
1,1,$1+$1,$4,$5*
1,1,$1+$1,$6,$7*
1,1,$1+$1,$8,$9*
0 Add four rect primitives between the rounded corners*
20,1,$1+$1,$2,$3,$4,$5,0*
20,1,$1+$1,$4,$5,$6,$7,0*
20,1,$1+$1,$6,$7,$8,$9,0*
20,1,$1+$1,$8,$9,$2,$3,0*%
G04 Aperture macros list end*
%ADD10O,4.000000X4.000000*%
%ADD11R,1.800000X1.800000*%
%ADD12C,1.800000*%
%ADD13R,1.930000X1.830000*%
%ADD14C,2.130000*%
%ADD15RoundRect,0.250000X0.450000X-0.350000X0.450000X0.350000X-0.450000X0.350000X-0.450000X-0.350000X0*%
%ADD16RoundRect,0.250000X-0.350000X-0.450000X0.350000X-0.450000X0.350000X0.450000X-0.350000X0.450000X0*%
%ADD17R,1.600000X1.600000*%
%ADD18C,1.600000*%
%ADD19RoundRect,0.225000X-0.225000X-0.375000X0.225000X-0.375000X0.225000X0.375000X-0.225000X0.375000X0*%
%ADD20RoundRect,0.200000X-0.200000X0.750000X-0.200000X-0.750000X0.200000X-0.750000X0.200000X0.750000X0*%
%ADD21RoundRect,0.200000X0.750000X0.200000X-0.750000X0.200000X-0.750000X-0.200000X0.750000X-0.200000X0*%
%ADD22RoundRect,0.250000X-0.475000X0.337500X-0.475000X-0.337500X0.475000X-0.337500X0.475000X0.337500X0*%
%ADD23RoundRect,0.250000X-0.337500X-0.475000X0.337500X-0.475000X0.337500X0.475000X-0.337500X0.475000X0*%
%ADD24RoundRect,0.250000X0.337500X0.475000X-0.337500X0.475000X-0.337500X-0.475000X0.337500X-0.475000X0*%
%ADD25C,2.000000*%
%ADD26RoundRect,0.250000X0.350000X0.450000X-0.350000X0.450000X-0.350000X-0.450000X0.350000X-0.450000X0*%
%ADD27RoundRect,0.250000X0.250000X-0.250000X0.250000X0.250000X-0.250000X0.250000X-0.250000X-0.250000X0*%
%ADD28RoundRect,0.250000X0.250000X0.250000X-0.250000X0.250000X-0.250000X-0.250000X0.250000X-0.250000X0*%
%ADD29RoundRect,0.250000X-0.450000X0.350000X-0.450000X-0.350000X0.450000X-0.350000X0.450000X0.350000X0*%
%ADD30R,1.200000X1.200000*%
%ADD31C,1.200000*%
%ADD32R,1.050000X1.500000*%
%ADD33O,1.050000X1.500000*%
%ADD34RoundRect,0.250000X-0.250000X-0.250000X0.250000X-0.250000X0.250000X0.250000X-0.250000X0.250000X0*%
%ADD35RoundRect,0.150000X0.825000X0.150000X-0.825000X0.150000X-0.825000X-0.150000X0.825000X-0.150000X0*%
%ADD36RoundRect,0.250000X0.475000X-0.337500X0.475000X0.337500X-0.475000X0.337500X-0.475000X-0.337500X0*%
%ADD37RoundRect,0.250000X-0.600000X-0.600000X0.600000X-0.600000X0.600000X0.600000X-0.600000X0.600000X0*%
%ADD38C,1.700000*%
%ADD39RoundRect,0.225000X0.225000X0.375000X-0.225000X0.375000X-0.225000X-0.375000X0.225000X-0.375000X0*%
%ADD40RoundRect,0.200000X0.200000X-0.750000X0.200000X0.750000X-0.200000X0.750000X-0.200000X-0.750000X0*%
%ADD41RoundRect,0.150000X-0.825000X-0.150000X0.825000X-0.150000X0.825000X0.150000X-0.825000X0.150000X0*%
%ADD42RoundRect,0.150000X0.150000X-0.587500X0.150000X0.587500X-0.150000X0.587500X-0.150000X-0.587500X0*%
G04 APERTURE END LIST*
D10*
X75250000Y-117500000D03*
X84750000Y-117500000D03*
D11*
X77500000Y-125000000D03*
D12*
X80000000Y-125000000D03*
X82500000Y-125000000D03*
D13*
X80000000Y-141480000D03*
D14*
X80000000Y-130080000D03*
X80000000Y-138380000D03*
D10*
X75250000Y-90000000D03*
X84750000Y-90000000D03*
D11*
X77500000Y-97500000D03*
D12*
X80000000Y-97500000D03*
X82500000Y-97500000D03*
D13*
X60000000Y-141480000D03*
D14*
X60000000Y-130080000D03*
X60000000Y-138380000D03*
D10*
X55250000Y-117500000D03*
X64750000Y-117500000D03*
D11*
X57500000Y-125000000D03*
D12*
X60000000Y-125000000D03*
X62500000Y-125000000D03*
D10*
X65250000Y-62500000D03*
X74750000Y-62500000D03*
D11*
X67500000Y-70000000D03*
D12*
X70000000Y-70000000D03*
X72500000Y-70000000D03*
D10*
X55250000Y-90000000D03*
X64750000Y-90000000D03*
D11*
X57500000Y-97500000D03*
D12*
X60000000Y-97500000D03*
X62500000Y-97500000D03*
D13*
X57500000Y-158230000D03*
D14*
X57500000Y-146830000D03*
X57500000Y-155130000D03*
D13*
X70000000Y-158230000D03*
D14*
X70000000Y-146830000D03*
X70000000Y-155130000D03*
D13*
X82500000Y-158230000D03*
D14*
X82500000Y-146830000D03*
X82500000Y-155130000D03*
D11*
X68690000Y-135000000D03*
D12*
X71230000Y-135000000D03*
D15*
X68900000Y-90200000D03*
X68900000Y-88200000D03*
D16*
X71300000Y-111795000D03*
X73300000Y-111795000D03*
D17*
X87432380Y-53750000D03*
D18*
X84932380Y-53750000D03*
D19*
X61100000Y-66250000D03*
X64400000Y-66250000D03*
D20*
X59150000Y-89800000D03*
X61050000Y-89800000D03*
X60100000Y-92800000D03*
D21*
X69400000Y-142150000D03*
X69400000Y-144050000D03*
X66400000Y-143100000D03*
D22*
X53200000Y-77262500D03*
X53200000Y-79337500D03*
D15*
X84750000Y-109495000D03*
X84750000Y-107495000D03*
D16*
X55750000Y-130250000D03*
X57750000Y-130250000D03*
D23*
X59662500Y-149070000D03*
X61737500Y-149070000D03*
D18*
X78700000Y-68800000D03*
X78700000Y-63800000D03*
D24*
X65037500Y-75790000D03*
X62962500Y-75790000D03*
D18*
X60925000Y-109335000D03*
X55925000Y-109335000D03*
D15*
X65250000Y-73040000D03*
X65250000Y-71040000D03*
D25*
X86900000Y-142700000D03*
D26*
X87000000Y-146750000D03*
X85000000Y-146750000D03*
D27*
X55200000Y-79350000D03*
X55200000Y-76850000D03*
D26*
X61125000Y-113935000D03*
X59125000Y-113935000D03*
D23*
X78762500Y-114500000D03*
X80837500Y-114500000D03*
D28*
X74230000Y-148700000D03*
X71730000Y-148700000D03*
D24*
X54037500Y-122750000D03*
X51962500Y-122750000D03*
D29*
X53525000Y-106835000D03*
X53525000Y-108835000D03*
D25*
X52600000Y-82000000D03*
D16*
X63300000Y-78350000D03*
X65300000Y-78350000D03*
D26*
X72000000Y-66700000D03*
X70000000Y-66700000D03*
D30*
X88250000Y-59500000D03*
D31*
X86250000Y-59500000D03*
D28*
X61700000Y-151100000D03*
X59200000Y-151100000D03*
D18*
X55925000Y-106235000D03*
X60925000Y-106235000D03*
D25*
X82750000Y-57500000D03*
D23*
X75162500Y-106595000D03*
X77237500Y-106595000D03*
D25*
X76300000Y-144500000D03*
D15*
X71100000Y-90200000D03*
X71100000Y-88200000D03*
D18*
X83400000Y-63850000D03*
X83400000Y-68850000D03*
D17*
X68400000Y-55000000D03*
D18*
X68400000Y-52500000D03*
D25*
X76500000Y-56000000D03*
D32*
X83000000Y-72500000D03*
D33*
X84270000Y-72500000D03*
X85540000Y-72500000D03*
D26*
X74100000Y-146700000D03*
X72100000Y-146700000D03*
X76600000Y-71350000D03*
X74600000Y-71350000D03*
X78480000Y-150800000D03*
X76480000Y-150800000D03*
D18*
X60600000Y-83400000D03*
X55600000Y-83400000D03*
D16*
X76500000Y-154800000D03*
X78500000Y-154800000D03*
D28*
X55750000Y-132250000D03*
X53250000Y-132250000D03*
D16*
X59100000Y-87500000D03*
X61100000Y-87500000D03*
X71300000Y-109795000D03*
X73300000Y-109795000D03*
D34*
X58975000Y-111935000D03*
X61475000Y-111935000D03*
D30*
X74150000Y-53722600D03*
D31*
X74150000Y-51722600D03*
D34*
X55750000Y-127250000D03*
X58250000Y-127250000D03*
D15*
X66250000Y-140300000D03*
X66250000Y-138300000D03*
D25*
X53100000Y-136700000D03*
D29*
X61250000Y-71040000D03*
X61250000Y-73040000D03*
D35*
X80475000Y-108390000D03*
X80475000Y-109660000D03*
X80475000Y-110930000D03*
X80475000Y-112200000D03*
X75525000Y-112200000D03*
X75525000Y-110930000D03*
X75525000Y-109660000D03*
X75525000Y-108390000D03*
D16*
X82700000Y-111395000D03*
X84700000Y-111395000D03*
D29*
X74700000Y-77900000D03*
X74700000Y-79900000D03*
D18*
X67600000Y-83500000D03*
X72600000Y-83500000D03*
D15*
X78500000Y-73250000D03*
X78500000Y-71250000D03*
D25*
X53000000Y-104100000D03*
D29*
X61500000Y-58250000D03*
X61500000Y-60250000D03*
D26*
X84700000Y-113395000D03*
X82700000Y-113395000D03*
D22*
X88900000Y-107420000D03*
X88900000Y-109495000D03*
D36*
X57300000Y-79325000D03*
X57300000Y-77250000D03*
D18*
X55900000Y-101600000D03*
X60900000Y-101600000D03*
D15*
X61500000Y-64000000D03*
X61500000Y-62000000D03*
X86900000Y-109495000D03*
X86900000Y-107495000D03*
D24*
X78037500Y-75750000D03*
X75962500Y-75750000D03*
D37*
X54000000Y-66160000D03*
D38*
X56540000Y-66160000D03*
X54000000Y-63620000D03*
X56540000Y-63620000D03*
X54000000Y-61080000D03*
X56540000Y-61080000D03*
X54000000Y-58540000D03*
X56540000Y-58540000D03*
X54000000Y-56000000D03*
X56540000Y-56000000D03*
D26*
X54000000Y-124750000D03*
X52000000Y-124750000D03*
D25*
X81500000Y-101500000D03*
D26*
X73600000Y-142300000D03*
X71600000Y-142300000D03*
X65300000Y-80350000D03*
X63300000Y-80350000D03*
D39*
X64250000Y-56000000D03*
X60950000Y-56000000D03*
D16*
X78400000Y-78450000D03*
X80400000Y-78450000D03*
D26*
X78500000Y-152800000D03*
X76500000Y-152800000D03*
D29*
X80500000Y-71250000D03*
X80500000Y-73250000D03*
D21*
X74280000Y-150850000D03*
X74280000Y-152750000D03*
X71280000Y-151800000D03*
D29*
X63250000Y-71040000D03*
X63250000Y-73040000D03*
X78200000Y-59500000D03*
X78200000Y-61500000D03*
D20*
X87000000Y-111660000D03*
X88900000Y-111660000D03*
X87950000Y-114660000D03*
D16*
X74600000Y-73350000D03*
X76600000Y-73350000D03*
X59700000Y-147000000D03*
X61700000Y-147000000D03*
D29*
X82750000Y-107495000D03*
X82750000Y-109495000D03*
D40*
X53950000Y-130000000D03*
X52050000Y-130000000D03*
X53000000Y-127000000D03*
D25*
X84800000Y-101500000D03*
D26*
X73300000Y-113795000D03*
X71300000Y-113795000D03*
X61700000Y-153100000D03*
X59700000Y-153100000D03*
D41*
X67500000Y-79620000D03*
X67500000Y-78350000D03*
X67500000Y-77080000D03*
X67500000Y-75810000D03*
X67500000Y-74540000D03*
X67500000Y-73270000D03*
X67500000Y-72000000D03*
X72450000Y-72000000D03*
X72450000Y-73270000D03*
X72450000Y-74540000D03*
X72450000Y-75810000D03*
X72450000Y-77080000D03*
X72450000Y-78350000D03*
X72450000Y-79620000D03*
D20*
X59250000Y-76000000D03*
X61150000Y-76000000D03*
X60200000Y-79000000D03*
D42*
X71600000Y-140200000D03*
X69700000Y-140200000D03*
X70650000Y-138325000D03*
D25*
X79750000Y-56000000D03*
M02*
