G04 #@! TF.GenerationSoftware,KiCad,Pcbnew,8.0.2-1*
G04 #@! TF.CreationDate,2024-06-17T09:13:27+02:00*
G04 #@! TF.ProjectId,XOF,584f462e-6b69-4636-9164-5f7063625858,rev?*
G04 #@! TF.SameCoordinates,Original*
G04 #@! TF.FileFunction,Other,User*
%FSLAX46Y46*%
G04 Gerber Fmt 4.6, Leading zero omitted, Abs format (unit mm)*
G04 Created by KiCad (PCBNEW 8.0.2-1) date 2024-06-17 09:13:27*
%MOMM*%
%LPD*%
G01*
G04 APERTURE LIST*
%ADD10C,1.000000*%
%ADD11C,0.150000*%
G04 APERTURE END LIST*
D10*
X90500000Y-50000000D02*
X90500000Y-161000000D01*
D11*
X100771428Y-41704819D02*
X101104761Y-42704819D01*
X101104761Y-42704819D02*
X101438094Y-41704819D01*
X101723809Y-42657200D02*
X101866666Y-42704819D01*
X101866666Y-42704819D02*
X102104761Y-42704819D01*
X102104761Y-42704819D02*
X102199999Y-42657200D01*
X102199999Y-42657200D02*
X102247618Y-42609580D01*
X102247618Y-42609580D02*
X102295237Y-42514342D01*
X102295237Y-42514342D02*
X102295237Y-42419104D01*
X102295237Y-42419104D02*
X102247618Y-42323866D01*
X102247618Y-42323866D02*
X102199999Y-42276247D01*
X102199999Y-42276247D02*
X102104761Y-42228628D01*
X102104761Y-42228628D02*
X101914285Y-42181009D01*
X101914285Y-42181009D02*
X101819047Y-42133390D01*
X101819047Y-42133390D02*
X101771428Y-42085771D01*
X101771428Y-42085771D02*
X101723809Y-41990533D01*
X101723809Y-41990533D02*
X101723809Y-41895295D01*
X101723809Y-41895295D02*
X101771428Y-41800057D01*
X101771428Y-41800057D02*
X101819047Y-41752438D01*
X101819047Y-41752438D02*
X101914285Y-41704819D01*
X101914285Y-41704819D02*
X102152380Y-41704819D01*
X102152380Y-41704819D02*
X102295237Y-41752438D01*
X103152380Y-42657200D02*
X103057142Y-42704819D01*
X103057142Y-42704819D02*
X102866666Y-42704819D01*
X102866666Y-42704819D02*
X102771428Y-42657200D01*
X102771428Y-42657200D02*
X102723809Y-42609580D01*
X102723809Y-42609580D02*
X102676190Y-42514342D01*
X102676190Y-42514342D02*
X102676190Y-42228628D01*
X102676190Y-42228628D02*
X102723809Y-42133390D01*
X102723809Y-42133390D02*
X102771428Y-42085771D01*
X102771428Y-42085771D02*
X102866666Y-42038152D01*
X102866666Y-42038152D02*
X103057142Y-42038152D01*
X103057142Y-42038152D02*
X103152380Y-42085771D01*
X103723809Y-42704819D02*
X103628571Y-42657200D01*
X103628571Y-42657200D02*
X103580952Y-42609580D01*
X103580952Y-42609580D02*
X103533333Y-42514342D01*
X103533333Y-42514342D02*
X103533333Y-42228628D01*
X103533333Y-42228628D02*
X103580952Y-42133390D01*
X103580952Y-42133390D02*
X103628571Y-42085771D01*
X103628571Y-42085771D02*
X103723809Y-42038152D01*
X103723809Y-42038152D02*
X103866666Y-42038152D01*
X103866666Y-42038152D02*
X103961904Y-42085771D01*
X103961904Y-42085771D02*
X104009523Y-42133390D01*
X104009523Y-42133390D02*
X104057142Y-42228628D01*
X104057142Y-42228628D02*
X104057142Y-42514342D01*
X104057142Y-42514342D02*
X104009523Y-42609580D01*
X104009523Y-42609580D02*
X103961904Y-42657200D01*
X103961904Y-42657200D02*
X103866666Y-42704819D01*
X103866666Y-42704819D02*
X103723809Y-42704819D01*
X104485714Y-42704819D02*
X104485714Y-42038152D01*
X104485714Y-42228628D02*
X104533333Y-42133390D01*
X104533333Y-42133390D02*
X104580952Y-42085771D01*
X104580952Y-42085771D02*
X104676190Y-42038152D01*
X104676190Y-42038152D02*
X104771428Y-42038152D01*
X105485714Y-42657200D02*
X105390476Y-42704819D01*
X105390476Y-42704819D02*
X105200000Y-42704819D01*
X105200000Y-42704819D02*
X105104762Y-42657200D01*
X105104762Y-42657200D02*
X105057143Y-42561961D01*
X105057143Y-42561961D02*
X105057143Y-42181009D01*
X105057143Y-42181009D02*
X105104762Y-42085771D01*
X105104762Y-42085771D02*
X105200000Y-42038152D01*
X105200000Y-42038152D02*
X105390476Y-42038152D01*
X105390476Y-42038152D02*
X105485714Y-42085771D01*
X105485714Y-42085771D02*
X105533333Y-42181009D01*
X105533333Y-42181009D02*
X105533333Y-42276247D01*
X105533333Y-42276247D02*
X105057143Y-42371485D01*
X90500000Y-49500000D02*
X90500000Y-42250000D01*
X90500000Y-49500000D02*
X89913579Y-48373496D01*
X90500000Y-49500000D02*
X91086421Y-48373496D01*
X90500000Y-42250000D02*
X100051190Y-42250000D01*
X90500000Y-49500000D02*
X90500000Y-42250000D01*
X90500000Y-49500000D02*
X89913579Y-48373496D01*
X90500000Y-49500000D02*
X91086421Y-48373496D01*
X90500000Y-42250000D02*
X100051190Y-42250000D01*
M02*
