G04 #@! TF.GenerationSoftware,KiCad,Pcbnew,8.0.2-1*
G04 #@! TF.CreationDate,2024-06-17T10:37:48+02:00*
G04 #@! TF.ProjectId,chrono-divider,6368726f-6e6f-42d6-9469-76696465722e,rev?*
G04 #@! TF.SameCoordinates,Original*
G04 #@! TF.FileFunction,Soldermask,Top*
G04 #@! TF.FilePolarity,Negative*
%FSLAX46Y46*%
G04 Gerber Fmt 4.6, Leading zero omitted, Abs format (unit mm)*
G04 Created by KiCad (PCBNEW 8.0.2-1) date 2024-06-17 10:37:48*
%MOMM*%
%LPD*%
G01*
G04 APERTURE LIST*
G04 Aperture macros list*
%AMRoundRect*
0 Rectangle with rounded corners*
0 $1 Rounding radius*
0 $2 $3 $4 $5 $6 $7 $8 $9 X,Y pos of 4 corners*
0 Add a 4 corners polygon primitive as box body*
4,1,4,$2,$3,$4,$5,$6,$7,$8,$9,$2,$3,0*
0 Add four circle primitives for the rounded corners*
1,1,$1+$1,$2,$3*
1,1,$1+$1,$4,$5*
1,1,$1+$1,$6,$7*
1,1,$1+$1,$8,$9*
0 Add four rect primitives between the rounded corners*
20,1,$1+$1,$2,$3,$4,$5,0*
20,1,$1+$1,$4,$5,$6,$7,0*
20,1,$1+$1,$6,$7,$8,$9,0*
20,1,$1+$1,$8,$9,$2,$3,0*%
G04 Aperture macros list end*
%ADD10C,3.200000*%
%ADD11C,1.600000*%
%ADD12O,1.600000X1.600000*%
%ADD13R,1.800000X1.800000*%
%ADD14C,1.800000*%
%ADD15R,1.830000X1.930000*%
%ADD16C,2.130000*%
%ADD17R,1.100000X1.800000*%
%ADD18RoundRect,0.275000X-0.275000X-0.625000X0.275000X-0.625000X0.275000X0.625000X-0.275000X0.625000X0*%
%ADD19R,1.600000X2.400000*%
%ADD20O,1.600000X2.400000*%
%ADD21R,1.930000X1.830000*%
%ADD22R,1.700000X1.700000*%
%ADD23O,1.700000X1.700000*%
%ADD24R,1.600000X1.600000*%
%ADD25C,2.000000*%
%ADD26R,2.400000X1.600000*%
%ADD27O,2.400000X1.600000*%
%ADD28R,2.200000X2.200000*%
%ADD29O,2.200000X2.200000*%
%ADD30C,1.400000*%
%ADD31R,1.200000X1.200000*%
%ADD32C,1.200000*%
%ADD33RoundRect,0.250000X-0.600000X0.600000X-0.600000X-0.600000X0.600000X-0.600000X0.600000X0.600000X0*%
%ADD34C,1.700000*%
G04 APERTURE END LIST*
D10*
X54000000Y-54000000D03*
D11*
X123800000Y-109080000D03*
D12*
X123800000Y-98920000D03*
D10*
X95000000Y-54000000D03*
D11*
X95100000Y-70830000D03*
D12*
X95100000Y-60670000D03*
D13*
X98730000Y-92000000D03*
D14*
X101270000Y-92000000D03*
D15*
X117480000Y-66000000D03*
D16*
X106080000Y-66000000D03*
X114380000Y-66000000D03*
D15*
X117480000Y-131000000D03*
D16*
X106080000Y-131000000D03*
X114380000Y-131000000D03*
D11*
X120600000Y-95960000D03*
D12*
X120600000Y-85800000D03*
D17*
X81000000Y-113100000D03*
D18*
X82270000Y-111030000D03*
X83540000Y-113100000D03*
D15*
X117480000Y-118000000D03*
D16*
X106080000Y-118000000D03*
X114380000Y-118000000D03*
D11*
X123800000Y-69660000D03*
D12*
X123800000Y-59500000D03*
D19*
X62475000Y-124000000D03*
D20*
X65015000Y-124000000D03*
X67555000Y-124000000D03*
X70095000Y-124000000D03*
X72635000Y-124000000D03*
X75175000Y-124000000D03*
X77715000Y-124000000D03*
X77715000Y-116380000D03*
X75175000Y-116380000D03*
X72635000Y-116380000D03*
X70095000Y-116380000D03*
X67555000Y-116380000D03*
X65015000Y-116380000D03*
X62475000Y-116380000D03*
D17*
X63460000Y-149400000D03*
D18*
X64730000Y-147330000D03*
X66000000Y-149400000D03*
D11*
X53320000Y-139800000D03*
D12*
X63480000Y-139800000D03*
D11*
X60000000Y-159000000D03*
X60000000Y-154000000D03*
D17*
X81000000Y-92300000D03*
D18*
X82270000Y-90230000D03*
X83540000Y-92300000D03*
D17*
X81000000Y-87100000D03*
D18*
X82270000Y-85030000D03*
X83540000Y-87100000D03*
D17*
X81000000Y-102700000D03*
D18*
X82270000Y-100630000D03*
X83540000Y-102700000D03*
D21*
X104000000Y-147520000D03*
D16*
X104000000Y-158920000D03*
X104000000Y-150620000D03*
D11*
X127000000Y-152030000D03*
D12*
X127000000Y-141870000D03*
D22*
X54000000Y-151000000D03*
D23*
X54000000Y-148460000D03*
X54000000Y-145920000D03*
X54000000Y-143380000D03*
D11*
X95100000Y-110280000D03*
D12*
X95100000Y-100120000D03*
D24*
X63000000Y-159000000D03*
D12*
X70620000Y-159000000D03*
D10*
X95000000Y-157000000D03*
D15*
X117480000Y-105000000D03*
D16*
X106080000Y-105000000D03*
X114380000Y-105000000D03*
D13*
X98730000Y-66000000D03*
D14*
X101270000Y-66000000D03*
D25*
X52200000Y-60550000D03*
D26*
X66300000Y-97175000D03*
D27*
X66300000Y-99715000D03*
X66300000Y-102255000D03*
X66300000Y-104795000D03*
X66300000Y-107335000D03*
X66300000Y-109875000D03*
X66300000Y-112415000D03*
X73920000Y-112415000D03*
X73920000Y-109875000D03*
X73920000Y-107335000D03*
X73920000Y-104795000D03*
X73920000Y-102255000D03*
X73920000Y-99715000D03*
X73920000Y-97175000D03*
D11*
X95000000Y-97030000D03*
D12*
X95000000Y-86870000D03*
D11*
X95100000Y-122780000D03*
D12*
X95100000Y-112620000D03*
D13*
X98730000Y-79000000D03*
D14*
X101270000Y-79000000D03*
D11*
X120600000Y-69660000D03*
D12*
X120600000Y-59500000D03*
D11*
X120600000Y-109080000D03*
D12*
X120600000Y-98920000D03*
D11*
X81280000Y-53000000D03*
D12*
X71120000Y-53000000D03*
D13*
X103000000Y-54000000D03*
D14*
X100460000Y-54000000D03*
D15*
X117480000Y-92000000D03*
D16*
X106080000Y-92000000D03*
X114380000Y-92000000D03*
D28*
X81080000Y-56400000D03*
D29*
X70920000Y-56400000D03*
D10*
X86000000Y-54000000D03*
D11*
X53320000Y-127400000D03*
D12*
X63480000Y-127400000D03*
D11*
X123800000Y-135330000D03*
D12*
X123800000Y-125170000D03*
D11*
X62970000Y-153000000D03*
D12*
X73130000Y-153000000D03*
D30*
X59500000Y-116150000D03*
X59500000Y-118650000D03*
D13*
X98730000Y-118000000D03*
D14*
X101270000Y-118000000D03*
D11*
X53320000Y-136700000D03*
D12*
X63480000Y-136700000D03*
D11*
X95100000Y-84080000D03*
D12*
X95100000Y-73920000D03*
D17*
X75460000Y-149400000D03*
D18*
X76730000Y-147330000D03*
X78000000Y-149400000D03*
D30*
X74150000Y-94100000D03*
X71650000Y-94100000D03*
D10*
X86000000Y-157000000D03*
D13*
X98730000Y-105000000D03*
D14*
X101270000Y-105000000D03*
D21*
X118000000Y-147520000D03*
D16*
X118000000Y-158920000D03*
X118000000Y-150620000D03*
D22*
X87000000Y-97000000D03*
D23*
X87000000Y-99540000D03*
X87000000Y-102080000D03*
X87000000Y-104620000D03*
X87000000Y-107160000D03*
X87000000Y-109700000D03*
X87000000Y-112240000D03*
X87000000Y-114780000D03*
D11*
X53320000Y-130500000D03*
D12*
X63480000Y-130500000D03*
D17*
X81000000Y-97500000D03*
D18*
X82270000Y-95430000D03*
X83540000Y-97500000D03*
D11*
X53320000Y-133600000D03*
D12*
X63480000Y-133600000D03*
D10*
X127000000Y-157000000D03*
X54000000Y-157000000D03*
D22*
X88000000Y-61200000D03*
D23*
X88000000Y-63740000D03*
X88000000Y-66280000D03*
D24*
X63000000Y-156000000D03*
D12*
X70620000Y-156000000D03*
D11*
X120600000Y-122280000D03*
D12*
X120600000Y-112120000D03*
D17*
X69460000Y-149400000D03*
D18*
X70730000Y-147330000D03*
X72000000Y-149400000D03*
D17*
X81000000Y-107900000D03*
D18*
X82270000Y-105830000D03*
X83540000Y-107900000D03*
D11*
X120600000Y-135330000D03*
D12*
X120600000Y-125170000D03*
D11*
X123800000Y-95960000D03*
D12*
X123800000Y-85800000D03*
D11*
X116380000Y-54000000D03*
D12*
X106220000Y-54000000D03*
D10*
X127000000Y-54000000D03*
D11*
X120600000Y-82830000D03*
D12*
X120600000Y-72670000D03*
D25*
X52200000Y-64600000D03*
D11*
X123800000Y-122280000D03*
D12*
X123800000Y-112120000D03*
D13*
X98730000Y-131000000D03*
D14*
X101270000Y-131000000D03*
D11*
X123800000Y-82830000D03*
D12*
X123800000Y-72670000D03*
D15*
X117480000Y-79000000D03*
D16*
X106080000Y-79000000D03*
X114380000Y-79000000D03*
D11*
X95000000Y-136030000D03*
D12*
X95000000Y-125870000D03*
D22*
X128000000Y-97000000D03*
D23*
X128000000Y-99540000D03*
X128000000Y-102080000D03*
X128000000Y-104620000D03*
X128000000Y-107160000D03*
X128000000Y-109700000D03*
X128000000Y-112240000D03*
X128000000Y-114780000D03*
D22*
X95000000Y-151000000D03*
D23*
X95000000Y-148460000D03*
X95000000Y-145920000D03*
X95000000Y-143380000D03*
D31*
X60200000Y-53827401D03*
D32*
X60200000Y-55827401D03*
D24*
X66000000Y-53500000D03*
D11*
X66000000Y-56000000D03*
D33*
X62460000Y-62000000D03*
D34*
X62460000Y-64540000D03*
X65000000Y-62000000D03*
X65000000Y-64540000D03*
X67540000Y-62000000D03*
X67540000Y-64540000D03*
X70080000Y-62000000D03*
X70080000Y-64540000D03*
X72620000Y-62000000D03*
X72620000Y-64540000D03*
X75160000Y-62000000D03*
X75160000Y-64540000D03*
X77700000Y-62000000D03*
X77700000Y-64540000D03*
X80240000Y-62000000D03*
X80240000Y-64540000D03*
M02*
