G04 #@! TF.GenerationSoftware,KiCad,Pcbnew,8.0.5*
G04 #@! TF.CreationDate,2024-11-24T11:42:17+01:00*
G04 #@! TF.ProjectId,wolkje-panel,776f6c6b-6a65-42d7-9061-6e656c2e6b69,rev?*
G04 #@! TF.SameCoordinates,Original*
G04 #@! TF.FileFunction,Copper,L2,Bot*
G04 #@! TF.FilePolarity,Positive*
%FSLAX46Y46*%
G04 Gerber Fmt 4.6, Leading zero omitted, Abs format (unit mm)*
G04 Created by KiCad (PCBNEW 8.0.5) date 2024-11-24 11:42:17*
%MOMM*%
%LPD*%
G01*
G04 APERTURE LIST*
G04 #@! TA.AperFunction,EtchedComponent*
%ADD10C,0.000000*%
G04 #@! TD*
G04 APERTURE END LIST*
D10*
G04 #@! TA.AperFunction,EtchedComponent*
G36*
X124080421Y-95185866D02*
G01*
X123881677Y-95281149D01*
X123553011Y-95415697D01*
X123222030Y-95501659D01*
X122817776Y-95549770D01*
X122269294Y-95570765D01*
X121505627Y-95575379D01*
X119723207Y-95575379D01*
X118807595Y-97077913D01*
X117736639Y-98749218D01*
X116452366Y-100514783D01*
X115109789Y-102089640D01*
X113660979Y-103524785D01*
X112058010Y-104871213D01*
X110252950Y-106179918D01*
X109868535Y-106433387D01*
X108283051Y-107349387D01*
X106494562Y-108209105D01*
X104567716Y-108988041D01*
X102567164Y-109661689D01*
X100557555Y-110205549D01*
X98603538Y-110595118D01*
X98344403Y-110639269D01*
X97740641Y-110767473D01*
X97304107Y-110898897D01*
X97093519Y-111017135D01*
X97051823Y-111150897D01*
X97032010Y-111503882D01*
X97049068Y-112081245D01*
X97103681Y-112902704D01*
X97196532Y-113987981D01*
X97300008Y-115072049D01*
X97437215Y-116353238D01*
X97586391Y-117542897D01*
X97756727Y-118693506D01*
X97957417Y-119857546D01*
X98197651Y-121087497D01*
X98486623Y-122435842D01*
X98833526Y-123955059D01*
X99247551Y-125697631D01*
X99341595Y-126090349D01*
X99572668Y-127072810D01*
X99785794Y-128002489D01*
X99968366Y-128823103D01*
X100107779Y-129478369D01*
X100191428Y-129912008D01*
X100222422Y-130134885D01*
X100273611Y-130811279D01*
X100297679Y-131658709D01*
X100296623Y-132611900D01*
X100272442Y-133605575D01*
X100227131Y-134574458D01*
X100162688Y-135453274D01*
X100081110Y-136176746D01*
X99984393Y-136679600D01*
X99555705Y-137851077D01*
X98917487Y-138982932D01*
X98125606Y-139946848D01*
X97211055Y-140705574D01*
X96204834Y-141221861D01*
X95818903Y-141341597D01*
X94825085Y-141451494D01*
X93836347Y-141280397D01*
X92866167Y-140831811D01*
X91928032Y-140109245D01*
X91747438Y-139934029D01*
X90936909Y-138947942D01*
X90297470Y-137785899D01*
X89822623Y-136430217D01*
X89505873Y-134863215D01*
X89340721Y-133067209D01*
X89323015Y-132584093D01*
X89322136Y-131829209D01*
X89361148Y-131069921D01*
X89446327Y-130261049D01*
X89583947Y-129357411D01*
X89780283Y-128313825D01*
X90041611Y-127085109D01*
X90374205Y-125626081D01*
X90410819Y-125468779D01*
X90919422Y-123239692D01*
X91352084Y-121248575D01*
X91714728Y-119461529D01*
X92013278Y-117844653D01*
X92253656Y-116364048D01*
X92441786Y-114985814D01*
X92583591Y-113676053D01*
X92684993Y-112400863D01*
X92694739Y-112247759D01*
X92723158Y-111628714D01*
X92713535Y-111226697D01*
X92661436Y-110985534D01*
X92562423Y-110849051D01*
X92471361Y-110802383D01*
X92124196Y-110684937D01*
X91581140Y-110532434D01*
X90895387Y-110359437D01*
X90120131Y-110180505D01*
X89522446Y-110046660D01*
X88062449Y-109697024D01*
X86796701Y-109351899D01*
X85659483Y-108989216D01*
X84585080Y-108586907D01*
X83507775Y-108122903D01*
X82361849Y-107575133D01*
X81354371Y-107045186D01*
X79102002Y-105633887D01*
X76968622Y-103974007D01*
X74970448Y-102080289D01*
X73123697Y-99967474D01*
X71444587Y-97650307D01*
X71333987Y-97482582D01*
X70938996Y-96887505D01*
X70602668Y-96386713D01*
X70357683Y-96028602D01*
X70236723Y-95861575D01*
X70064915Y-95807091D01*
X69657672Y-95760705D01*
X69073036Y-95729744D01*
X68366751Y-95718476D01*
X67678367Y-95716133D01*
X67138597Y-95700009D01*
X66745381Y-95656650D01*
X66425981Y-95572612D01*
X66107660Y-95434443D01*
X65717681Y-95228696D01*
X64879772Y-94688726D01*
X64389722Y-94217282D01*
X72820265Y-94217282D01*
X73347084Y-95182528D01*
X74522655Y-97132887D01*
X76006887Y-99127502D01*
X77677462Y-100924489D01*
X79550923Y-102539581D01*
X81643814Y-103988509D01*
X83972679Y-105287008D01*
X84163003Y-105380799D01*
X84898555Y-105722718D01*
X85655559Y-106049283D01*
X86297060Y-106300763D01*
X86481630Y-106365747D01*
X87036410Y-106548924D01*
X87663767Y-106743343D01*
X88306139Y-106932705D01*
X88905964Y-107100714D01*
X89405679Y-107231072D01*
X89747719Y-107307481D01*
X89874525Y-107313642D01*
X89873811Y-107311400D01*
X89740332Y-107219653D01*
X89420917Y-107038273D01*
X88980159Y-106804061D01*
X87963406Y-106222870D01*
X86589678Y-105223274D01*
X85434307Y-104098895D01*
X84513217Y-102868800D01*
X83842332Y-101552057D01*
X83437579Y-100167733D01*
X83349089Y-99655414D01*
X83324171Y-99325433D01*
X83370267Y-99121012D01*
X83490824Y-98964229D01*
X83585798Y-98882820D01*
X83821707Y-98820914D01*
X84052999Y-98990542D01*
X84295953Y-99408779D01*
X84566853Y-100092700D01*
X84634507Y-100277937D01*
X85155143Y-101396471D01*
X85853571Y-102435410D01*
X86764178Y-103439457D01*
X87921353Y-104453317D01*
X88280265Y-104728298D01*
X89328418Y-105426582D01*
X90456648Y-106051817D01*
X91574971Y-106556974D01*
X92593399Y-106895024D01*
X92925264Y-106963826D01*
X93806295Y-107054853D01*
X94827517Y-107067960D01*
X95897349Y-107006957D01*
X96924203Y-106875650D01*
X97816495Y-106677849D01*
X98307397Y-106522956D01*
X99852702Y-105870722D01*
X101325604Y-105008096D01*
X102658612Y-103978640D01*
X103784236Y-102825915D01*
X104192288Y-102258383D01*
X104656431Y-101471558D01*
X105116863Y-100564433D01*
X105530663Y-99615901D01*
X105587978Y-99483125D01*
X105850102Y-99093920D01*
X106138527Y-98970982D01*
X106435087Y-99124190D01*
X106492336Y-99198745D01*
X106580616Y-99584625D01*
X106519383Y-100144765D01*
X106325015Y-100836397D01*
X106013887Y-101616762D01*
X105602381Y-102443095D01*
X105106872Y-103272633D01*
X104543739Y-104062611D01*
X104290239Y-104375026D01*
X103698786Y-105008705D01*
X103030856Y-105582252D01*
X102222060Y-106147679D01*
X101208004Y-106756998D01*
X100966629Y-106896207D01*
X100557463Y-107141965D01*
X100303694Y-107308841D01*
X100252637Y-107366643D01*
X100302531Y-107361122D01*
X100938001Y-107250954D01*
X101748857Y-107059121D01*
X102653394Y-106809422D01*
X103569909Y-106525658D01*
X104416697Y-106231629D01*
X105112055Y-105951133D01*
X105246674Y-105887849D01*
X105804913Y-105593336D01*
X106518460Y-105184077D01*
X107327100Y-104697456D01*
X108170619Y-104170857D01*
X108988803Y-103641665D01*
X109721438Y-103147263D01*
X110308308Y-102725035D01*
X110779563Y-102345733D01*
X111771383Y-101423686D01*
X112819275Y-100303629D01*
X113886045Y-99028827D01*
X114934505Y-97642544D01*
X115927464Y-96188045D01*
X116177385Y-95784521D01*
X116428457Y-95264353D01*
X116492748Y-94832905D01*
X116359224Y-94425729D01*
X116016849Y-93978378D01*
X115454587Y-93426407D01*
X115245872Y-93234685D01*
X113467548Y-91708709D01*
X111559702Y-90245193D01*
X109569913Y-88873721D01*
X107545759Y-87623882D01*
X105534820Y-86525261D01*
X103584674Y-85607444D01*
X101742899Y-84900017D01*
X101133146Y-84704668D01*
X100500444Y-84524898D01*
X100032914Y-84418813D01*
X99752287Y-84388315D01*
X99680299Y-84435304D01*
X99838683Y-84561681D01*
X100249171Y-84769348D01*
X100332803Y-84808015D01*
X101898011Y-85681398D01*
X103312499Y-86758353D01*
X104545127Y-88007546D01*
X105564747Y-89397645D01*
X106340216Y-90897316D01*
X106484071Y-91271619D01*
X106700911Y-91985521D01*
X106843241Y-92668198D01*
X106903259Y-93260968D01*
X106873159Y-93705147D01*
X106745139Y-93942055D01*
X106612726Y-94014783D01*
X106412193Y-94041039D01*
X106237535Y-93898534D01*
X106055282Y-93551416D01*
X105831964Y-92963829D01*
X105263721Y-91553447D01*
X104376755Y-89904071D01*
X103320367Y-88476235D01*
X102082822Y-87256899D01*
X100652382Y-86233021D01*
X99017312Y-85391560D01*
X97628683Y-84930389D01*
X96100880Y-84690812D01*
X94537388Y-84697798D01*
X92807743Y-84959918D01*
X91100965Y-85477948D01*
X89531853Y-86244188D01*
X88097723Y-87260560D01*
X86795891Y-88528987D01*
X85623672Y-90051392D01*
X84578382Y-91829696D01*
X84342459Y-92273871D01*
X84041843Y-92775216D01*
X83811955Y-93055497D01*
X83632631Y-93142703D01*
X83521846Y-93126030D01*
X83383826Y-92971167D01*
X83318691Y-92598777D01*
X83322727Y-92204813D01*
X83488017Y-91447871D01*
X83858108Y-90549022D01*
X84440473Y-89487541D01*
X84955453Y-88679621D01*
X85881764Y-87472844D01*
X86896433Y-86470901D01*
X88055127Y-85622158D01*
X89413516Y-84874985D01*
X89696455Y-84735693D01*
X90147200Y-84500729D01*
X90445974Y-84326636D01*
X90539102Y-84243524D01*
X90434073Y-84234726D01*
X90102887Y-84290470D01*
X89611279Y-84407343D01*
X89022518Y-84567869D01*
X88399870Y-84754570D01*
X87806604Y-84949972D01*
X87305988Y-85136597D01*
X86700273Y-85389228D01*
X85913079Y-85741381D01*
X85154912Y-86115307D01*
X84389359Y-86533005D01*
X83580006Y-87016472D01*
X82690439Y-87587708D01*
X81684245Y-88268712D01*
X80525011Y-89081481D01*
X79176323Y-90048015D01*
X78367073Y-90628347D01*
X76796643Y-91728665D01*
X75420430Y-92654896D01*
X74245547Y-93402313D01*
X73279109Y-93966189D01*
X72820265Y-94217282D01*
X64389722Y-94217282D01*
X64020216Y-93861805D01*
X63405213Y-92886309D01*
X63035622Y-91763685D01*
X62912299Y-90495379D01*
X62964859Y-89496626D01*
X63161688Y-88559800D01*
X63521108Y-87781296D01*
X64060556Y-87109703D01*
X64069014Y-87101251D01*
X64498631Y-86697451D01*
X64803267Y-86494250D01*
X65003822Y-86508621D01*
X65121198Y-86757537D01*
X65176296Y-87257972D01*
X65190018Y-88026897D01*
X65193126Y-88522716D01*
X65215368Y-89103768D01*
X65268819Y-89522457D01*
X65364846Y-89853909D01*
X65514817Y-90173247D01*
X65517881Y-90178968D01*
X66030014Y-90851982D01*
X66714369Y-91315408D01*
X67543923Y-91564947D01*
X68491656Y-91596304D01*
X69530545Y-91405180D01*
X70633569Y-90987278D01*
X70660641Y-90974083D01*
X71034348Y-90755917D01*
X71577699Y-90397075D01*
X72241692Y-89931807D01*
X72977324Y-89394365D01*
X73735594Y-88819001D01*
X74790344Y-88013795D01*
X76305259Y-86905763D01*
X77714031Y-85943654D01*
X79073143Y-85091002D01*
X80439075Y-84311340D01*
X81868310Y-83568201D01*
X82627031Y-83198314D01*
X85101234Y-82107399D01*
X87481035Y-81237541D01*
X89746554Y-80595455D01*
X91877905Y-80187855D01*
X92605059Y-80110013D01*
X93791073Y-80049516D01*
X95094391Y-80042847D01*
X96420117Y-80088093D01*
X97673354Y-80183337D01*
X98759204Y-80326669D01*
X99180860Y-80402541D01*
X101869120Y-81043731D01*
X104572199Y-81954369D01*
X107265596Y-83122821D01*
X109924808Y-84537450D01*
X112525335Y-86186625D01*
X115042675Y-88058711D01*
X115164139Y-88155877D01*
X115838384Y-88686478D01*
X116504364Y-89197791D01*
X117091014Y-89635817D01*
X117527267Y-89946559D01*
X118083434Y-90303608D01*
X119270332Y-90927978D01*
X120406985Y-91340798D01*
X121459935Y-91531465D01*
X122395724Y-91489377D01*
X122734979Y-91419074D01*
X123238055Y-91257520D01*
X123618452Y-91015613D01*
X123984339Y-90635197D01*
X124268369Y-90217265D01*
X124508407Y-89574333D01*
X124618861Y-88765297D01*
X124610421Y-87740731D01*
X124595620Y-87454529D01*
X124587484Y-86896307D01*
X124643245Y-86588877D01*
X124788015Y-86507731D01*
X125046907Y-86628364D01*
X125445035Y-86926267D01*
X125741219Y-87182061D01*
X126410827Y-87994726D01*
X126832281Y-88942623D01*
X127007547Y-90031473D01*
X126938596Y-91266994D01*
X126817704Y-91911763D01*
X126455415Y-92968491D01*
X125896076Y-93842233D01*
X125113231Y-94569265D01*
X124671634Y-94832905D01*
X124080421Y-95185866D01*
G37*
G04 #@! TD.AperFunction*
G04 #@! TA.AperFunction,EtchedComponent*
G36*
X60247233Y-96397068D02*
G01*
X60182450Y-96575057D01*
X59983106Y-96643257D01*
X59573399Y-96658641D01*
X59543512Y-96659054D01*
X59186870Y-96662751D01*
X58594185Y-96667757D01*
X57809181Y-96673751D01*
X56875581Y-96680407D01*
X55837107Y-96687403D01*
X54737484Y-96694415D01*
X53635875Y-96702129D01*
X52564261Y-96715663D01*
X51722465Y-96740029D01*
X51079863Y-96781659D01*
X50605834Y-96846987D01*
X50269753Y-96942446D01*
X50040998Y-97074469D01*
X49888946Y-97249489D01*
X49782973Y-97473941D01*
X49692457Y-97754255D01*
X49590654Y-98038172D01*
X49244020Y-98725970D01*
X48782540Y-99425189D01*
X48272799Y-100040918D01*
X47781386Y-100478248D01*
X47627239Y-100578164D01*
X47096715Y-100865192D01*
X46514835Y-101119555D01*
X45979504Y-101301399D01*
X45588624Y-101370870D01*
X45406529Y-101419945D01*
X45159957Y-101701952D01*
X44999427Y-102198766D01*
X44942579Y-102869472D01*
X44982342Y-103672698D01*
X45117584Y-104801352D01*
X45337795Y-106102004D01*
X45631687Y-107524492D01*
X45987976Y-109018654D01*
X46395377Y-110534331D01*
X46842605Y-112021360D01*
X47318375Y-113429581D01*
X47322578Y-113441269D01*
X47609644Y-114248792D01*
X47859438Y-114968833D01*
X48056724Y-115556058D01*
X48186268Y-115965133D01*
X48232835Y-116150725D01*
X48234345Y-116166605D01*
X48321067Y-116398737D01*
X48514707Y-116789193D01*
X48778373Y-117262769D01*
X48810419Y-117317746D01*
X49084404Y-117799126D01*
X49300544Y-118197841D01*
X49414471Y-118432320D01*
X49467624Y-118525206D01*
X49671887Y-118837772D01*
X50008466Y-119334248D01*
X50457245Y-119985496D01*
X50998107Y-120762379D01*
X51610935Y-121635757D01*
X52275613Y-122576494D01*
X52527335Y-122931949D01*
X53273908Y-123990140D01*
X54022116Y-125055958D01*
X54738396Y-126081277D01*
X55389184Y-127017971D01*
X55940915Y-127817913D01*
X56360025Y-128432976D01*
X56402271Y-128495505D01*
X57459654Y-129975487D01*
X58474215Y-131220449D01*
X59480012Y-132269178D01*
X60511103Y-133160459D01*
X60956886Y-133517025D01*
X61577843Y-134027027D01*
X62253712Y-134592459D01*
X62900440Y-135143560D01*
X63504663Y-135657103D01*
X64133684Y-136178825D01*
X64696400Y-136633397D01*
X65118469Y-136959936D01*
X65434500Y-137182953D01*
X66085773Y-137610885D01*
X66916347Y-138131665D01*
X67882956Y-138719414D01*
X68942335Y-139348252D01*
X70051218Y-139992297D01*
X71166339Y-140625671D01*
X72244433Y-141222491D01*
X72331898Y-141270153D01*
X73083105Y-141674642D01*
X73630915Y-141955279D01*
X74016386Y-142128469D01*
X74280582Y-142210618D01*
X74464563Y-142218133D01*
X74609391Y-142167421D01*
X74631966Y-142152954D01*
X74837119Y-141910476D01*
X75126490Y-141436642D01*
X75485046Y-140762965D01*
X75897759Y-139920959D01*
X76349596Y-138942135D01*
X76825530Y-137858006D01*
X77310528Y-136700085D01*
X77789561Y-135499885D01*
X77952791Y-135082797D01*
X78314628Y-134172514D01*
X78678182Y-133274373D01*
X79008852Y-132473451D01*
X79272037Y-131854824D01*
X79446351Y-131441581D01*
X79647635Y-130918283D01*
X79773448Y-130529417D01*
X79801842Y-130337824D01*
X79766389Y-130299170D01*
X79521423Y-130136093D01*
X79085857Y-129888401D01*
X78506745Y-129582218D01*
X77831137Y-129243669D01*
X77620511Y-129139641D01*
X76709794Y-128668709D01*
X75757040Y-128147183D01*
X74822180Y-127610118D01*
X73965142Y-127092572D01*
X73245853Y-126629601D01*
X72724243Y-126256261D01*
X72550647Y-126134300D01*
X72188794Y-126004350D01*
X71776143Y-126057945D01*
X71230233Y-126297349D01*
X70951023Y-126413299D01*
X70249196Y-126568707D01*
X69424708Y-126625803D01*
X68575655Y-126580797D01*
X67800129Y-126429899D01*
X67380560Y-126266638D01*
X66643639Y-125791914D01*
X65987193Y-125140297D01*
X65488221Y-124380053D01*
X65194011Y-123516433D01*
X65130582Y-122573661D01*
X65133700Y-122555849D01*
X65878983Y-122555849D01*
X65919504Y-123398233D01*
X66222448Y-124154743D01*
X66782287Y-124805157D01*
X67593488Y-125329253D01*
X67852201Y-125447128D01*
X68845707Y-125744167D01*
X69775679Y-125764701D01*
X70637905Y-125508481D01*
X70671460Y-125492242D01*
X71452022Y-124968144D01*
X72051982Y-124272302D01*
X72421429Y-123461986D01*
X72498294Y-123005399D01*
X72469479Y-122210343D01*
X72281622Y-121414687D01*
X71956403Y-120745110D01*
X71496282Y-120234053D01*
X70771815Y-119765562D01*
X69933939Y-119483777D01*
X69049488Y-119401335D01*
X68185302Y-119530877D01*
X67408216Y-119885040D01*
X67212695Y-120035728D01*
X66779653Y-120486503D01*
X66412648Y-121010673D01*
X66106414Y-121647813D01*
X65878983Y-122555849D01*
X65133700Y-122555849D01*
X65294551Y-121637057D01*
X65661643Y-120750719D01*
X66207580Y-119958743D01*
X66908086Y-119305228D01*
X67738886Y-118834272D01*
X68675702Y-118589973D01*
X69563182Y-118576344D01*
X70551375Y-118776729D01*
X71444287Y-119185364D01*
X72189154Y-119777065D01*
X72733211Y-120526648D01*
X72891855Y-120853256D01*
X73042263Y-121285733D01*
X73113808Y-121762853D01*
X73131990Y-122404713D01*
X73106084Y-123005399D01*
X73105227Y-123025253D01*
X73028015Y-123654654D01*
X72916280Y-124126557D01*
X72700571Y-124737943D01*
X73308255Y-125298954D01*
X73404979Y-125386851D01*
X74057111Y-125918022D01*
X74845547Y-126460167D01*
X75803934Y-127033623D01*
X76965919Y-127658733D01*
X78365151Y-128355833D01*
X79076760Y-128703584D01*
X79801311Y-129070833D01*
X80318680Y-129354883D01*
X80659801Y-129574217D01*
X80855608Y-129747322D01*
X80937035Y-129892682D01*
X80945889Y-130017691D01*
X80889284Y-130349757D01*
X80738558Y-130853564D01*
X80487372Y-131546175D01*
X80129393Y-132444657D01*
X79658284Y-133566073D01*
X79067709Y-134927490D01*
X79049626Y-134968746D01*
X78699379Y-135780017D01*
X78344868Y-136620970D01*
X78026522Y-137394653D01*
X77784769Y-138004110D01*
X77636734Y-138384755D01*
X77256332Y-139324990D01*
X76857809Y-140264725D01*
X76461527Y-141159609D01*
X76087847Y-141965288D01*
X75757128Y-142637409D01*
X75489733Y-143131621D01*
X75306023Y-143403572D01*
X75205454Y-143502813D01*
X74987017Y-143641142D01*
X74718514Y-143684932D01*
X74359999Y-143625152D01*
X73871530Y-143452769D01*
X73213160Y-143158755D01*
X72344947Y-142734076D01*
X69305827Y-141087347D01*
X66102889Y-139055243D01*
X63061223Y-136805041D01*
X60200831Y-134352779D01*
X57541710Y-131714498D01*
X55103860Y-128906239D01*
X54914290Y-128666785D01*
X54255973Y-127796077D01*
X53502739Y-126752985D01*
X52692299Y-125593432D01*
X51862365Y-124373341D01*
X51050650Y-123148637D01*
X50294865Y-121975239D01*
X49632723Y-120909073D01*
X49101937Y-120006060D01*
X48758351Y-119380323D01*
X47712593Y-117273483D01*
X46731411Y-114994776D01*
X45850158Y-112630328D01*
X45104181Y-110266263D01*
X44965658Y-109771609D01*
X44583874Y-108261785D01*
X44292097Y-106818102D01*
X44068857Y-105323498D01*
X43892683Y-103660907D01*
X43719841Y-101729535D01*
X42605789Y-101344621D01*
X42542450Y-101322505D01*
X41914913Y-101082759D01*
X41317629Y-100823307D01*
X40872092Y-100596571D01*
X40769814Y-100533960D01*
X40136703Y-100041717D01*
X39535942Y-99418714D01*
X39042151Y-98751052D01*
X38729947Y-98124831D01*
X38591892Y-97559967D01*
X38518155Y-96590778D01*
X38526265Y-96463765D01*
X39526405Y-96463765D01*
X39630254Y-97509852D01*
X39979087Y-98410998D01*
X40572174Y-99165266D01*
X41408785Y-99770721D01*
X42488190Y-100225423D01*
X43391996Y-100429049D01*
X44438255Y-100506596D01*
X45449734Y-100434916D01*
X46321531Y-100214313D01*
X46664029Y-100060134D01*
X47464497Y-99544285D01*
X48191723Y-98877829D01*
X48742727Y-98148623D01*
X49100808Y-97302052D01*
X49265752Y-96293768D01*
X49213862Y-95239923D01*
X48954590Y-94201351D01*
X48497386Y-93238886D01*
X47851703Y-92413364D01*
X47638551Y-92217829D01*
X46797696Y-91670364D01*
X45804476Y-91287870D01*
X44731584Y-91086048D01*
X43651712Y-91080597D01*
X42637551Y-91287217D01*
X41904567Y-91644151D01*
X41157967Y-92246759D01*
X40530516Y-93006980D01*
X40088647Y-93857817D01*
X40056579Y-93944521D01*
X39668270Y-95274677D01*
X39526405Y-96463765D01*
X38526265Y-96463765D01*
X38586035Y-95527693D01*
X38783443Y-94455102D01*
X39098295Y-93457400D01*
X39518502Y-92618979D01*
X39743696Y-92302957D01*
X40440787Y-91570526D01*
X41266832Y-90957665D01*
X42122660Y-90543416D01*
X42356654Y-90474419D01*
X43071843Y-90346549D01*
X43917273Y-90278385D01*
X44810762Y-90269177D01*
X45670125Y-90318169D01*
X46413179Y-90424609D01*
X46957739Y-90587743D01*
X47149193Y-90681001D01*
X47764547Y-91078928D01*
X48310365Y-91613651D01*
X48813974Y-92321826D01*
X49302704Y-93240109D01*
X49803885Y-94405157D01*
X49891414Y-94621819D01*
X50068304Y-95000043D01*
X50266524Y-95273467D01*
X50530210Y-95458599D01*
X50903495Y-95571949D01*
X51430515Y-95630021D01*
X52155404Y-95649329D01*
X53122299Y-95646379D01*
X53319581Y-95644936D01*
X54399575Y-95639329D01*
X55604576Y-95636066D01*
X56801239Y-95635395D01*
X57856215Y-95637563D01*
X60253117Y-95646927D01*
X60253117Y-96147772D01*
X60249671Y-96293768D01*
X60247233Y-96397068D01*
G37*
G04 #@! TD.AperFunction*
G04 #@! TA.AperFunction,EtchedComponent*
G36*
X119612133Y-143054438D02*
G01*
X119623872Y-143410462D01*
X119602208Y-144345313D01*
X119482803Y-145085061D01*
X119252045Y-145689909D01*
X118896320Y-146220056D01*
X118810867Y-146320386D01*
X118279809Y-146801552D01*
X117628901Y-147144198D01*
X116777059Y-147393212D01*
X116369481Y-147468146D01*
X115467246Y-147557087D01*
X114520596Y-147569258D01*
X113636445Y-147505406D01*
X112921704Y-147366278D01*
X112794185Y-147325829D01*
X111909747Y-146883690D01*
X111178125Y-146224447D01*
X110623554Y-145383565D01*
X110270267Y-144396513D01*
X110142497Y-143298758D01*
X111124665Y-143298758D01*
X111129128Y-143885883D01*
X111154087Y-144415914D01*
X111212659Y-144799877D01*
X111317787Y-145115216D01*
X111482411Y-145439373D01*
X111878466Y-145970994D01*
X112521945Y-146498713D01*
X112756679Y-146637355D01*
X113085367Y-146790111D01*
X113444880Y-146883402D01*
X113920343Y-146936510D01*
X114596875Y-146968717D01*
X115280345Y-146976717D01*
X116151300Y-146910567D01*
X116849853Y-146732850D01*
X117437949Y-146425257D01*
X117977532Y-145969478D01*
X117980097Y-145966911D01*
X118453935Y-145376315D01*
X118767638Y-144688773D01*
X118939089Y-143848050D01*
X118986173Y-142797913D01*
X118911575Y-141879932D01*
X118657187Y-141030556D01*
X118206547Y-140363066D01*
X117543267Y-139860887D01*
X116650951Y-139507443D01*
X115513209Y-139286160D01*
X114807871Y-139233555D01*
X113757133Y-139329761D01*
X112867820Y-139659565D01*
X112133705Y-140225709D01*
X111548561Y-141030931D01*
X111526279Y-141071285D01*
X111341227Y-141431705D01*
X111223716Y-141753470D01*
X111158570Y-142117772D01*
X111130611Y-142605804D01*
X111124665Y-143298758D01*
X110142497Y-143298758D01*
X110149276Y-142918433D01*
X110299222Y-141832651D01*
X110666074Y-140859400D01*
X111277867Y-139915135D01*
X111290516Y-139898781D01*
X111603937Y-139448713D01*
X111826843Y-139045491D01*
X111911707Y-138774633D01*
X111911361Y-138764317D01*
X111848366Y-138503396D01*
X111675997Y-137996509D01*
X111393221Y-137241015D01*
X110999004Y-136234269D01*
X110492312Y-134973630D01*
X109872113Y-133456453D01*
X109137372Y-131680097D01*
X108882123Y-131035170D01*
X108698171Y-130456096D01*
X108640858Y-130040744D01*
X108704607Y-129741405D01*
X108883843Y-129510371D01*
X108973758Y-129446497D01*
X109312591Y-129254217D01*
X109832748Y-128986771D01*
X110482270Y-128670497D01*
X111209195Y-128331729D01*
X112144173Y-127893320D01*
X113123393Y-127407211D01*
X114168539Y-126860005D01*
X115323307Y-126228275D01*
X116631394Y-125488590D01*
X118136495Y-124617523D01*
X119061228Y-124057919D01*
X120763442Y-122902142D01*
X122324303Y-121652693D01*
X123781961Y-120271923D01*
X125174561Y-118722189D01*
X126540250Y-116965841D01*
X127917175Y-114965237D01*
X128185207Y-114558204D01*
X128724446Y-113754890D01*
X129259012Y-112976181D01*
X129739084Y-112294255D01*
X130114840Y-111781293D01*
X130155923Y-111727274D01*
X130585916Y-111191977D01*
X130947645Y-110851777D01*
X131306158Y-110692857D01*
X131726500Y-110701393D01*
X132273719Y-110863567D01*
X133012862Y-111165558D01*
X133182888Y-111236595D01*
X133926527Y-111520861D01*
X134756530Y-111807509D01*
X135522975Y-112044068D01*
X135901673Y-112161426D01*
X136630262Y-112416211D01*
X137489226Y-112741058D01*
X138401134Y-113106389D01*
X139288553Y-113482619D01*
X140011344Y-113792628D01*
X140736293Y-114089869D01*
X141345595Y-114325261D01*
X141790849Y-114480165D01*
X142023659Y-114535941D01*
X142098727Y-114530628D01*
X142298750Y-114433862D01*
X142493938Y-114173439D01*
X142730094Y-113694824D01*
X143090512Y-112813409D01*
X143546358Y-111476631D01*
X143958441Y-110023501D01*
X144300034Y-108550378D01*
X144544411Y-107153621D01*
X144566808Y-106999418D01*
X144656270Y-106459637D01*
X144741819Y-106044675D01*
X144807586Y-105834105D01*
X144808241Y-105833058D01*
X145026044Y-105738276D01*
X145449748Y-105760083D01*
X145777293Y-105831692D01*
X145922888Y-105945437D01*
X145906548Y-106149458D01*
X145899334Y-106176839D01*
X145836188Y-106495928D01*
X145756460Y-106989874D01*
X145675621Y-107563907D01*
X145575311Y-108182314D01*
X145327754Y-109301386D01*
X144992012Y-110536249D01*
X144593687Y-111807060D01*
X144158382Y-113033981D01*
X143711700Y-114137169D01*
X143279244Y-115036786D01*
X143112395Y-115325332D01*
X142902022Y-115593154D01*
X142657838Y-115750047D01*
X142342707Y-115793384D01*
X141919493Y-115720538D01*
X141351059Y-115528881D01*
X140600270Y-115215787D01*
X139629988Y-114778629D01*
X139100891Y-114541094D01*
X138213073Y-114160124D01*
X137352503Y-113810023D01*
X136596118Y-113521751D01*
X136020855Y-113326270D01*
X135890273Y-113286041D01*
X135121277Y-113027335D01*
X134321518Y-112729409D01*
X133644584Y-112448967D01*
X133440375Y-112357721D01*
X132773719Y-112072094D01*
X132292198Y-111910255D01*
X131936562Y-111874353D01*
X131647560Y-111966540D01*
X131365943Y-112188965D01*
X131032459Y-112543779D01*
X130615307Y-113057921D01*
X130163128Y-113694064D01*
X129777940Y-114309650D01*
X129434351Y-114897469D01*
X127891399Y-117251538D01*
X126073503Y-119617550D01*
X123975598Y-122002219D01*
X123901643Y-122082313D01*
X123553726Y-122488202D01*
X123308983Y-122822065D01*
X123216495Y-123018213D01*
X123251202Y-123148303D01*
X123425715Y-123476633D01*
X123693707Y-123875680D01*
X123994642Y-124258048D01*
X124267988Y-124536341D01*
X124439045Y-124699520D01*
X124763314Y-125033316D01*
X125186380Y-125482235D01*
X125660179Y-125995885D01*
X125766735Y-126112838D01*
X126223095Y-126624870D01*
X126512778Y-126982000D01*
X126663080Y-127226899D01*
X126701297Y-127402241D01*
X126654724Y-127550697D01*
X126521773Y-127731438D01*
X126328164Y-127844110D01*
X126236486Y-127800141D01*
X125968071Y-127589054D01*
X125587607Y-127243141D01*
X125145529Y-126806645D01*
X124988283Y-126647165D01*
X124366902Y-126036850D01*
X123702802Y-125408233D01*
X123115266Y-124874814D01*
X123045474Y-124813604D01*
X122571078Y-124417231D01*
X122165138Y-124146795D01*
X121785079Y-124008722D01*
X121388331Y-124009437D01*
X120932317Y-124155365D01*
X120374467Y-124452933D01*
X119672205Y-124908565D01*
X118782959Y-125528687D01*
X118721955Y-125571471D01*
X118041914Y-126018676D01*
X117205531Y-126527699D01*
X116262737Y-127071933D01*
X115263463Y-127624774D01*
X114257636Y-128159613D01*
X113295189Y-128649845D01*
X112426051Y-129068861D01*
X111700154Y-129390057D01*
X111167425Y-129586825D01*
X110770274Y-129755673D01*
X110343163Y-130043765D01*
X110029973Y-130366752D01*
X109908327Y-130658560D01*
X109908982Y-130676307D01*
X109973408Y-130971969D01*
X110130967Y-131475031D01*
X110364292Y-132142189D01*
X110656014Y-132930141D01*
X110988763Y-133795585D01*
X111345173Y-134695219D01*
X111707874Y-135585741D01*
X112059497Y-136423849D01*
X112382675Y-137166241D01*
X112660039Y-137769614D01*
X112874219Y-138190667D01*
X113007848Y-138386097D01*
X113056979Y-138416393D01*
X113415798Y-138492699D01*
X113963384Y-138476996D01*
X114189358Y-138460437D01*
X115028224Y-138481438D01*
X115931387Y-138602523D01*
X116783027Y-138804189D01*
X117467325Y-139066940D01*
X118163819Y-139502296D01*
X118781278Y-140121819D01*
X119216744Y-140898527D01*
X119487827Y-141865155D01*
X119585320Y-142797913D01*
X119612133Y-143054438D01*
G37*
G04 #@! TD.AperFunction*
G04 #@! TA.AperFunction,EtchedComponent*
G36*
X151091763Y-96925487D02*
G01*
X150974322Y-97799723D01*
X150603555Y-98900305D01*
X150009339Y-99843638D01*
X149211235Y-100607381D01*
X148228797Y-101169191D01*
X147081586Y-101506725D01*
X146922322Y-101531618D01*
X146087993Y-101588392D01*
X145141132Y-101563130D01*
X144211287Y-101463294D01*
X143428008Y-101296343D01*
X142967974Y-101132405D01*
X141986985Y-100587097D01*
X141138002Y-99842390D01*
X140470830Y-98947388D01*
X140035272Y-97951196D01*
X139892739Y-97483694D01*
X139735333Y-97072128D01*
X139567638Y-96829313D01*
X139343207Y-96693911D01*
X139015592Y-96604582D01*
X138865007Y-96582777D01*
X138383035Y-96555652D01*
X137673022Y-96546013D01*
X136772531Y-96553157D01*
X135719125Y-96576381D01*
X134550368Y-96614984D01*
X133303825Y-96668261D01*
X132017059Y-96735511D01*
X131842067Y-96744920D01*
X131017102Y-96763986D01*
X130433867Y-96718866D01*
X130058812Y-96599986D01*
X129858384Y-96397773D01*
X129799031Y-96102653D01*
X129799031Y-95707607D01*
X140581866Y-95707607D01*
X140628544Y-96747606D01*
X140911031Y-97867416D01*
X141174251Y-98411179D01*
X141668058Y-99082772D01*
X142288835Y-99716515D01*
X142960770Y-100236525D01*
X143608045Y-100566918D01*
X143808906Y-100631489D01*
X144896572Y-100843765D01*
X146023069Y-100862533D01*
X147101283Y-100692297D01*
X148044101Y-100337562D01*
X148293118Y-100186666D01*
X148888798Y-99698797D01*
X149447341Y-99091107D01*
X149869809Y-98465069D01*
X149927913Y-98352161D01*
X150061811Y-98020807D01*
X150141785Y-97644073D01*
X150180491Y-97141835D01*
X150190580Y-96433969D01*
X150185655Y-95856631D01*
X150156220Y-95330665D01*
X150084092Y-94917949D01*
X149951243Y-94523217D01*
X149739641Y-94051200D01*
X149636306Y-93843613D01*
X149017717Y-92893508D01*
X148263535Y-92125395D01*
X147421503Y-91589964D01*
X146820283Y-91396310D01*
X145975660Y-91281102D01*
X145066000Y-91279413D01*
X144196617Y-91390601D01*
X143472825Y-91614025D01*
X142562391Y-92120240D01*
X141733667Y-92843319D01*
X141128286Y-93733286D01*
X140729326Y-94809853D01*
X140581866Y-95707607D01*
X129799031Y-95707607D01*
X129799031Y-95692703D01*
X133256569Y-95598267D01*
X133716840Y-95586036D01*
X134797031Y-95559739D01*
X135849934Y-95537133D01*
X136810852Y-95519455D01*
X137615093Y-95507942D01*
X138197962Y-95503829D01*
X138708886Y-95498865D01*
X139276775Y-95470350D01*
X139607592Y-95413517D01*
X139730544Y-95324957D01*
X140028709Y-94361320D01*
X140481292Y-93314270D01*
X141032057Y-92485385D01*
X141713643Y-91837655D01*
X142558691Y-91334068D01*
X143599842Y-90937613D01*
X143879929Y-90850205D01*
X144416415Y-90661644D01*
X144740934Y-90478159D01*
X144898824Y-90247065D01*
X144935425Y-89915672D01*
X144896076Y-89431296D01*
X144889424Y-89369780D01*
X144343278Y-85617149D01*
X143530819Y-81964143D01*
X142450288Y-78406233D01*
X141099925Y-74938889D01*
X139477968Y-71557585D01*
X137582658Y-68257791D01*
X135412235Y-65034980D01*
X135091388Y-64602860D01*
X133849508Y-63078590D01*
X132395379Y-61486325D01*
X130767178Y-59862990D01*
X129003076Y-58245512D01*
X127141251Y-56670817D01*
X125219876Y-55175833D01*
X125167497Y-55136842D01*
X124475736Y-54621132D01*
X123862751Y-54162798D01*
X123366284Y-53790163D01*
X123024075Y-53531550D01*
X122873866Y-53415282D01*
X122851586Y-53384178D01*
X122848448Y-53151669D01*
X122942715Y-52833355D01*
X123088600Y-52552197D01*
X123240319Y-52431153D01*
X123260917Y-52432953D01*
X123523023Y-52546797D01*
X123957852Y-52818017D01*
X124528329Y-53218862D01*
X125197375Y-53721579D01*
X125927911Y-54298415D01*
X126682859Y-54921618D01*
X127425142Y-55563437D01*
X127781091Y-55878130D01*
X128537931Y-56541615D01*
X129296288Y-57200006D01*
X129984610Y-57791334D01*
X130531345Y-58253631D01*
X130538765Y-58259824D01*
X131906994Y-59499724D01*
X133315113Y-60957677D01*
X134716214Y-62579404D01*
X136063388Y-64310628D01*
X137309728Y-66097069D01*
X137810885Y-66872374D01*
X139487646Y-69667935D01*
X141006878Y-72523929D01*
X142345114Y-75391053D01*
X143478887Y-78220002D01*
X144384731Y-80961475D01*
X144435054Y-81134292D01*
X144725714Y-82173593D01*
X144963632Y-83120084D01*
X145163931Y-84049382D01*
X145341731Y-85037106D01*
X145512154Y-86158876D01*
X145690323Y-87490309D01*
X145758143Y-87992431D01*
X145879549Y-88778945D01*
X146000647Y-89440792D01*
X146111301Y-89924678D01*
X146201375Y-90177312D01*
X146261767Y-90248488D01*
X146567120Y-90485379D01*
X147032855Y-90767762D01*
X147584889Y-91048965D01*
X148339819Y-91458513D01*
X149360515Y-92258503D01*
X150158919Y-93226748D01*
X150722169Y-94341695D01*
X151037404Y-95581793D01*
X151071879Y-96433969D01*
X151091763Y-96925487D01*
G37*
G04 #@! TD.AperFunction*
G04 #@! TA.AperFunction,EtchedComponent*
G36*
X79862575Y-47870830D02*
G01*
X79861819Y-48894429D01*
X79654542Y-49890830D01*
X79234119Y-50812603D01*
X78593925Y-51612317D01*
X78239520Y-51925517D01*
X77283195Y-52530619D01*
X76252551Y-52861098D01*
X75154343Y-52916274D01*
X73995327Y-52695465D01*
X72782261Y-52197991D01*
X72488655Y-52047817D01*
X72056919Y-51842733D01*
X71680244Y-51711075D01*
X71322055Y-51663622D01*
X70945780Y-51711151D01*
X70514843Y-51864440D01*
X69992671Y-52134266D01*
X69342691Y-52531408D01*
X68528326Y-53066642D01*
X67513003Y-53750747D01*
X67236987Y-53937514D01*
X65635942Y-55033081D01*
X64222971Y-56021942D01*
X63007482Y-56897089D01*
X61998875Y-57651514D01*
X61206556Y-58278208D01*
X60639929Y-58770161D01*
X60308397Y-59120365D01*
X60135904Y-59325457D01*
X59777389Y-59723179D01*
X59277802Y-60261804D01*
X58668888Y-60907451D01*
X57982397Y-61626239D01*
X57250074Y-62384288D01*
X56551911Y-63108794D01*
X55611070Y-64114587D01*
X54790471Y-65041557D01*
X54060482Y-65932214D01*
X53391468Y-66829072D01*
X52753796Y-67774641D01*
X52117833Y-68811432D01*
X51453946Y-69981957D01*
X50732499Y-71328726D01*
X49923862Y-72894252D01*
X49713976Y-73308559D01*
X48379792Y-76119367D01*
X47250963Y-78846288D01*
X46300951Y-81557926D01*
X45503222Y-84322889D01*
X45340084Y-84937888D01*
X45184512Y-85497135D01*
X45064319Y-85899865D01*
X44996875Y-86085601D01*
X44931624Y-86140367D01*
X44700741Y-86140627D01*
X44604954Y-86109741D01*
X44285920Y-86059322D01*
X44151263Y-85997028D01*
X44096802Y-85787321D01*
X44126607Y-85399257D01*
X44243079Y-84801892D01*
X44448624Y-83964284D01*
X44983486Y-82054469D01*
X46144109Y-78607260D01*
X47546289Y-75168767D01*
X49167599Y-71791945D01*
X50985611Y-68529745D01*
X51480256Y-67713235D01*
X52100628Y-66729954D01*
X52683623Y-65869882D01*
X53277734Y-65068453D01*
X53931455Y-64261102D01*
X54693276Y-63383263D01*
X55611693Y-62370370D01*
X56187798Y-61747285D01*
X57628783Y-60229001D01*
X58967415Y-58888803D01*
X60250655Y-57687126D01*
X61525462Y-56584408D01*
X62838799Y-55541083D01*
X64237626Y-54517588D01*
X65768904Y-53474359D01*
X67479595Y-52371831D01*
X67900721Y-52106150D01*
X68599775Y-51664778D01*
X69222863Y-51270955D01*
X69714599Y-50959696D01*
X70019595Y-50766016D01*
X70556215Y-50423713D01*
X70556215Y-49071674D01*
X70575535Y-48470513D01*
X70592293Y-48362497D01*
X71455378Y-48362497D01*
X71548639Y-49369019D01*
X71798112Y-50056825D01*
X72314038Y-50801217D01*
X73012155Y-51392529D01*
X73837681Y-51773224D01*
X73983239Y-51814017D01*
X75084487Y-51982067D01*
X76101987Y-51880753D01*
X77025816Y-51512290D01*
X77846049Y-50878892D01*
X78103786Y-50599891D01*
X78615824Y-49819071D01*
X78906277Y-48924677D01*
X78995890Y-47862281D01*
X78968880Y-47352607D01*
X78752059Y-46438417D01*
X78315014Y-45705736D01*
X77653860Y-45149167D01*
X76764713Y-44763316D01*
X76091985Y-44616948D01*
X75085245Y-44602106D01*
X74140352Y-44817318D01*
X73289071Y-45234537D01*
X72563168Y-45825711D01*
X71994408Y-46562795D01*
X71614556Y-47417740D01*
X71455378Y-48362497D01*
X70592293Y-48362497D01*
X70763583Y-47258395D01*
X71158181Y-46231180D01*
X71767133Y-45372020D01*
X72598246Y-44664065D01*
X72673126Y-44614757D01*
X73584628Y-44168740D01*
X74607047Y-43901346D01*
X75662799Y-43819240D01*
X76674300Y-43929085D01*
X77563963Y-44237547D01*
X77932855Y-44453045D01*
X78691948Y-45111140D01*
X79271015Y-45931756D01*
X79663431Y-46867462D01*
X79860878Y-47862281D01*
X79862575Y-47870830D01*
G37*
G04 #@! TD.AperFunction*
G04 #@! TA.AperFunction,EtchedComponent*
G36*
X102945041Y-96560690D02*
G01*
X102673371Y-97951291D01*
X102134949Y-99316863D01*
X102103530Y-99378538D01*
X101314357Y-100606486D01*
X100308975Y-101677773D01*
X99126377Y-102562963D01*
X97805557Y-103232617D01*
X96385510Y-103657298D01*
X96039736Y-103714995D01*
X94939542Y-103784101D01*
X93770362Y-103716513D01*
X92664394Y-103517208D01*
X92541038Y-103484668D01*
X91162630Y-102970363D01*
X89953673Y-102228537D01*
X88926875Y-101270842D01*
X88094943Y-100108932D01*
X87470585Y-98754459D01*
X87351906Y-98405184D01*
X87224061Y-97931465D01*
X87148842Y-97446381D01*
X87113815Y-96858458D01*
X87106545Y-96076223D01*
X87108456Y-95871157D01*
X92354622Y-95871157D01*
X92472748Y-96657889D01*
X92772431Y-97335959D01*
X92887747Y-97492467D01*
X93298739Y-97914032D01*
X93732646Y-98219875D01*
X94130720Y-98381480D01*
X94919037Y-98512305D01*
X95714239Y-98438431D01*
X96436964Y-98171860D01*
X97007855Y-97724592D01*
X97300123Y-97292124D01*
X97553199Y-96550254D01*
X97606347Y-95743903D01*
X97457208Y-94958119D01*
X97103426Y-94277949D01*
X96777444Y-93927453D01*
X96122083Y-93503109D01*
X95377567Y-93276576D01*
X94603807Y-93247096D01*
X93860707Y-93413913D01*
X93208175Y-93776273D01*
X92706119Y-94333419D01*
X92672284Y-94390173D01*
X92420364Y-95080379D01*
X92354622Y-95871157D01*
X87108456Y-95871157D01*
X87111239Y-95572437D01*
X87139135Y-94905157D01*
X87204075Y-94367557D01*
X87319847Y-93862104D01*
X87500240Y-93291258D01*
X87658053Y-92862417D01*
X88336437Y-91495801D01*
X89207810Y-90325622D01*
X90257755Y-89365814D01*
X91471859Y-88630314D01*
X92835707Y-88133060D01*
X93453639Y-88017077D01*
X94374191Y-87939654D01*
X95364052Y-87934147D01*
X96308678Y-88000414D01*
X97093519Y-88138315D01*
X97146856Y-88152400D01*
X98519748Y-88657968D01*
X99734655Y-89379676D01*
X100777981Y-90287378D01*
X101636129Y-91350929D01*
X102295505Y-92540181D01*
X102742513Y-93824990D01*
X102963557Y-95175209D01*
X102955957Y-95743903D01*
X102945041Y-96560690D01*
G37*
G04 #@! TD.AperFunction*
G04 #@! TA.AperFunction,EtchedComponent*
G36*
X119749399Y-49175006D02*
G01*
X119561227Y-50329760D01*
X119155299Y-51301469D01*
X118533235Y-52087629D01*
X117696658Y-52685735D01*
X116647187Y-53093285D01*
X116428928Y-53145991D01*
X115444469Y-53266435D01*
X114384123Y-53240865D01*
X113333996Y-53081033D01*
X112380189Y-52798692D01*
X111608806Y-52405593D01*
X111444911Y-52287817D01*
X110719847Y-51567689D01*
X110226344Y-50682720D01*
X109967132Y-49639409D01*
X109949925Y-48712637D01*
X110952314Y-48712637D01*
X110974095Y-49627165D01*
X111234175Y-50515366D01*
X111732867Y-51252070D01*
X112459928Y-51822658D01*
X113405112Y-52212509D01*
X114308993Y-52412378D01*
X115467161Y-52489476D01*
X116491488Y-52338497D01*
X117366008Y-51966980D01*
X118074754Y-51382458D01*
X118601757Y-50592468D01*
X118931050Y-49604545D01*
X119000304Y-49138199D01*
X118960339Y-48089986D01*
X118662623Y-47087088D01*
X118126790Y-46167598D01*
X117372475Y-45369615D01*
X116419313Y-44731233D01*
X116367571Y-44704538D01*
X115866800Y-44491936D01*
X115353341Y-44384288D01*
X114692276Y-44351966D01*
X114255725Y-44357148D01*
X113806797Y-44405323D01*
X113450475Y-44526136D01*
X113074207Y-44747067D01*
X112879450Y-44885693D01*
X112154350Y-45603188D01*
X111571535Y-46517414D01*
X111160894Y-47572517D01*
X110952314Y-48712637D01*
X109949925Y-48712637D01*
X109944942Y-48444257D01*
X110047505Y-47706092D01*
X110408059Y-46550477D01*
X110984089Y-45523549D01*
X111750789Y-44665417D01*
X112683352Y-44016196D01*
X112883651Y-43914149D01*
X113243954Y-43765216D01*
X113618755Y-43679793D01*
X114098512Y-43641304D01*
X114773679Y-43633176D01*
X114951950Y-43634003D01*
X115600366Y-43653489D01*
X116082438Y-43711373D01*
X116495611Y-43824637D01*
X116937331Y-44010265D01*
X117725521Y-44446957D01*
X118575072Y-45160762D01*
X119190352Y-46031345D01*
X119579986Y-47071833D01*
X119752600Y-48295357D01*
X119749532Y-49138199D01*
X119749399Y-49175006D01*
G37*
G04 #@! TD.AperFunction*
G04 #@! TA.AperFunction,EtchedComponent*
G36*
X71781983Y-69811805D02*
G01*
X72425268Y-70002468D01*
X73257569Y-70360242D01*
X74285215Y-70888156D01*
X75514539Y-71589236D01*
X76951871Y-72466509D01*
X78603541Y-73523003D01*
X79384585Y-74036009D01*
X80461449Y-74763220D01*
X81311395Y-75367649D01*
X81948303Y-75860273D01*
X82386052Y-76252061D01*
X82638523Y-76553989D01*
X82719595Y-76777030D01*
X82704147Y-76850587D01*
X82514431Y-77116585D01*
X82170820Y-77416970D01*
X81752179Y-77689313D01*
X81337370Y-77871187D01*
X80884224Y-78036490D01*
X80232411Y-78319475D01*
X79482457Y-78675441D01*
X78710873Y-79066732D01*
X77994173Y-79455689D01*
X77408870Y-79804657D01*
X77238457Y-79917168D01*
X76697819Y-80298761D01*
X76081864Y-80758886D01*
X75493343Y-81221542D01*
X75219518Y-81442696D01*
X74696430Y-81860033D01*
X74244715Y-82214197D01*
X73939375Y-82446083D01*
X73932234Y-82451277D01*
X73473141Y-82712325D01*
X73116848Y-82733430D01*
X72815641Y-82517633D01*
X72737839Y-82420647D01*
X72642294Y-82258169D01*
X72558235Y-82030886D01*
X72475420Y-81695077D01*
X72383607Y-81207013D01*
X72272552Y-80522973D01*
X72132014Y-79599231D01*
X72006259Y-78782319D01*
X71836743Y-77720938D01*
X71659163Y-76641852D01*
X71496192Y-75684674D01*
X71355552Y-74817493D01*
X71206845Y-73783820D01*
X71077549Y-72770201D01*
X70985305Y-71907069D01*
X70964507Y-71676017D01*
X70909119Y-70990581D01*
X70888057Y-70523285D01*
X70902928Y-70222063D01*
X70955336Y-70034849D01*
X71046887Y-69909576D01*
X71321383Y-69785226D01*
X71781983Y-69811805D01*
G37*
G04 #@! TD.AperFunction*
G04 #@! TA.AperFunction,EtchedComponent*
G36*
X95220250Y-62217817D02*
G01*
X95466307Y-62428921D01*
X95766503Y-62817539D01*
X96135359Y-63405109D01*
X96587403Y-64213072D01*
X97137157Y-65262866D01*
X97375697Y-65733603D01*
X97998567Y-67010058D01*
X98599205Y-68305492D01*
X99163979Y-69585741D01*
X99679259Y-70816646D01*
X100131416Y-71964044D01*
X100506820Y-72993773D01*
X100791841Y-73871671D01*
X100972849Y-74563578D01*
X101036214Y-75035332D01*
X100982170Y-75341816D01*
X100785791Y-75601663D01*
X100734370Y-75632814D01*
X100632868Y-75694807D01*
X100531707Y-75728041D01*
X100374167Y-75730069D01*
X100103535Y-75698442D01*
X99663090Y-75630714D01*
X98996117Y-75524438D01*
X98953211Y-75517743D01*
X97828836Y-75389533D01*
X96514906Y-75312960D01*
X95099566Y-75288039D01*
X93670959Y-75314781D01*
X92317229Y-75393200D01*
X91126520Y-75523307D01*
X91023187Y-75538118D01*
X90256575Y-75637010D01*
X89718941Y-75680057D01*
X89364221Y-75669189D01*
X89146352Y-75606339D01*
X89053477Y-75550858D01*
X88960884Y-75453344D01*
X88926247Y-75304033D01*
X88958739Y-75067738D01*
X89067538Y-74709266D01*
X89261818Y-74193426D01*
X89550754Y-73485027D01*
X89943522Y-72548877D01*
X90068020Y-72251415D01*
X90477650Y-71250305D01*
X90922837Y-70135668D01*
X91357664Y-69023276D01*
X91736216Y-68028900D01*
X92045031Y-67217777D01*
X92673115Y-65673933D01*
X93249568Y-64410240D01*
X93774254Y-63426940D01*
X94247035Y-62724280D01*
X94667771Y-62302504D01*
X95036327Y-62161857D01*
X95220250Y-62217817D01*
G37*
G04 #@! TD.AperFunction*
G04 #@! TA.AperFunction,EtchedComponent*
G36*
X118241821Y-70581608D02*
G01*
X118275348Y-70715638D01*
X118309180Y-71108461D01*
X118336848Y-71723065D01*
X118358522Y-72525586D01*
X118374369Y-73482161D01*
X118384560Y-74558925D01*
X118389263Y-75722015D01*
X118388646Y-76937568D01*
X118382879Y-78171720D01*
X118372131Y-79390606D01*
X118356571Y-80560364D01*
X118336369Y-81647130D01*
X118311691Y-82617040D01*
X118282709Y-83436230D01*
X118249591Y-84070837D01*
X118212505Y-84486998D01*
X118171620Y-84650848D01*
X118117169Y-84678201D01*
X117937300Y-84691126D01*
X117690246Y-84592781D01*
X117341266Y-84361354D01*
X116855618Y-83975031D01*
X116198562Y-83411998D01*
X115690747Y-82972144D01*
X114739142Y-82176894D01*
X113886119Y-81517541D01*
X113062599Y-80947829D01*
X112199503Y-80421506D01*
X111227755Y-79892319D01*
X110078272Y-79314014D01*
X109503975Y-79030405D01*
X108704757Y-78624066D01*
X108129141Y-78311390D01*
X107753067Y-78078165D01*
X107552476Y-77910181D01*
X107503307Y-77793229D01*
X107569237Y-77700867D01*
X107840433Y-77444789D01*
X108291480Y-77063799D01*
X108890779Y-76581632D01*
X109606730Y-76022021D01*
X110407732Y-75408703D01*
X111262185Y-74765411D01*
X112138489Y-74115881D01*
X113005044Y-73483846D01*
X113830250Y-72893043D01*
X114582507Y-72367205D01*
X115230213Y-71930066D01*
X115741771Y-71605363D01*
X116470514Y-71173245D01*
X117100432Y-70821055D01*
X117557608Y-70600093D01*
X117876956Y-70496062D01*
X118093390Y-70494666D01*
X118241821Y-70581608D01*
G37*
G04 #@! TD.AperFunction*
G04 #@! TA.AperFunction,EtchedComponent*
G36*
X134668815Y-132304486D02*
G01*
X134518991Y-133298689D01*
X134434363Y-133562484D01*
X133985156Y-134391513D01*
X133314314Y-135046370D01*
X132438080Y-135509790D01*
X131775402Y-135661921D01*
X130923279Y-135660727D01*
X130069233Y-135485657D01*
X129301110Y-135155986D01*
X128706755Y-134690993D01*
X128593887Y-134562180D01*
X128171201Y-133927016D01*
X127943963Y-133220804D01*
X127911261Y-132778501D01*
X128607119Y-132778501D01*
X128805037Y-133550365D01*
X129252202Y-134185937D01*
X129945053Y-134677068D01*
X129972107Y-134690713D01*
X130784985Y-134952466D01*
X131607750Y-134965387D01*
X132388281Y-134751635D01*
X133074458Y-134333371D01*
X133614163Y-133732757D01*
X133955273Y-132971953D01*
X133988692Y-132830378D01*
X134018403Y-132034744D01*
X133810019Y-131263806D01*
X133398111Y-130578447D01*
X132817247Y-130039550D01*
X132101996Y-129707997D01*
X131751623Y-129639674D01*
X130933709Y-129666816D01*
X130162267Y-129928486D01*
X129492719Y-130391045D01*
X128980490Y-131020856D01*
X128681004Y-131784279D01*
X128662011Y-131878497D01*
X128607119Y-132778501D01*
X127911261Y-132778501D01*
X127879706Y-132351716D01*
X127898717Y-131911862D01*
X128069565Y-131063924D01*
X128446094Y-130342357D01*
X129063047Y-129668378D01*
X129678581Y-129219871D01*
X130475363Y-128921379D01*
X131367453Y-128875221D01*
X132383501Y-129076287D01*
X132964675Y-129309656D01*
X133697799Y-129835088D01*
X134239006Y-130534697D01*
X134569082Y-131370493D01*
X134640011Y-132034744D01*
X134668815Y-132304486D01*
G37*
G04 #@! TD.AperFunction*
G04 #@! TA.AperFunction,EtchedComponent*
G36*
X115350044Y-45498993D02*
G01*
X115782262Y-45552478D01*
X116130386Y-45683778D01*
X116510924Y-45924593D01*
X116734000Y-46102766D01*
X117189239Y-46565135D01*
X117560716Y-47058160D01*
X117561747Y-47059828D01*
X117790329Y-47464615D01*
X117920804Y-47825226D01*
X117979664Y-48251582D01*
X117993397Y-48853606D01*
X117993285Y-48936263D01*
X117978524Y-49495160D01*
X117922467Y-49874543D01*
X117801618Y-50169429D01*
X117592479Y-50474837D01*
X117487412Y-50604596D01*
X116814020Y-51180379D01*
X115919394Y-51590525D01*
X115627900Y-51640721D01*
X115139171Y-51667187D01*
X114582126Y-51658579D01*
X114395959Y-51647622D01*
X113841575Y-51579085D01*
X113419191Y-51440167D01*
X113008041Y-51195326D01*
X112789227Y-51028466D01*
X112213287Y-50376308D01*
X111878587Y-49602126D01*
X111806542Y-48749511D01*
X111928852Y-48071459D01*
X112259149Y-47229430D01*
X112739827Y-46483202D01*
X113321039Y-45925711D01*
X113607474Y-45737333D01*
X113952985Y-45579226D01*
X114350550Y-45507665D01*
X114916778Y-45490872D01*
X115350044Y-45498993D01*
G37*
G04 #@! TD.AperFunction*
G04 #@! TA.AperFunction,EtchedComponent*
G36*
X45402998Y-92252830D02*
G01*
X46257982Y-92651725D01*
X47014284Y-93253127D01*
X47624807Y-94047604D01*
X47723495Y-94220857D01*
X47879483Y-94556429D01*
X47968567Y-94907198D01*
X48008789Y-95363404D01*
X48018187Y-96015282D01*
X48015225Y-96461783D01*
X47990431Y-96964387D01*
X47924013Y-97329423D01*
X47796618Y-97646619D01*
X47588891Y-98005705D01*
X47174965Y-98532686D01*
X46446747Y-99064917D01*
X45525895Y-99386051D01*
X45156432Y-99432471D01*
X44495603Y-99443657D01*
X43750085Y-99402249D01*
X43031316Y-99315350D01*
X42450733Y-99190061D01*
X41854948Y-98920281D01*
X41281725Y-98391240D01*
X40892451Y-97657773D01*
X40693783Y-96733353D01*
X40692376Y-95631450D01*
X40715798Y-95396605D01*
X40926835Y-94395836D01*
X41315703Y-93580044D01*
X41903443Y-92901803D01*
X41938175Y-92870960D01*
X42716920Y-92365507D01*
X43585370Y-92100289D01*
X44496427Y-92065874D01*
X45402998Y-92252830D01*
G37*
G04 #@! TD.AperFunction*
G04 #@! TA.AperFunction,EtchedComponent*
G36*
X146470681Y-92166093D02*
G01*
X146877893Y-92220814D01*
X147227286Y-92349365D01*
X147628275Y-92577233D01*
X148248455Y-93093461D01*
X148793605Y-93873733D01*
X149170289Y-94836036D01*
X149358967Y-95942377D01*
X149386334Y-96397418D01*
X149377811Y-96868579D01*
X149302148Y-97233096D01*
X149146067Y-97593999D01*
X148760511Y-98184453D01*
X148061172Y-98882812D01*
X147213908Y-99438437D01*
X146295794Y-99791897D01*
X145821004Y-99879177D01*
X144825998Y-99869065D01*
X143874685Y-99617036D01*
X143017745Y-99147176D01*
X142305856Y-98483571D01*
X141789697Y-97650307D01*
X141686379Y-97375989D01*
X141542889Y-96499749D01*
X141624899Y-95571521D01*
X141914270Y-94656755D01*
X142392865Y-93820896D01*
X143042548Y-93129393D01*
X143415227Y-92846245D01*
X144123975Y-92453131D01*
X144898865Y-92236065D01*
X145839543Y-92160529D01*
X145896235Y-92159711D01*
X146470681Y-92166093D01*
G37*
G04 #@! TD.AperFunction*
G04 #@! TA.AperFunction,EtchedComponent*
G36*
X116242127Y-140265922D02*
G01*
X117025012Y-140663632D01*
X117660695Y-141224431D01*
X118105993Y-141918257D01*
X118317719Y-142715049D01*
X118302160Y-143430357D01*
X118065883Y-144291337D01*
X117622600Y-145061706D01*
X117008479Y-145682097D01*
X116259689Y-146093144D01*
X115793380Y-146216685D01*
X114911557Y-146280789D01*
X114003685Y-146172168D01*
X113163753Y-145905686D01*
X112485747Y-145496212D01*
X112411152Y-145431721D01*
X111927137Y-144868876D01*
X111659367Y-144204668D01*
X111578483Y-143370307D01*
X111581693Y-143205841D01*
X111737656Y-142210752D01*
X112119775Y-141386813D01*
X112717009Y-140746453D01*
X113518319Y-140302108D01*
X114512665Y-140066206D01*
X115355227Y-140061367D01*
X116242127Y-140265922D01*
G37*
G04 #@! TD.AperFunction*
G04 #@! TA.AperFunction,EtchedComponent*
G36*
X76053107Y-45547137D02*
G01*
X76342899Y-45623136D01*
X77141580Y-45990204D01*
X77718663Y-46536155D01*
X78068691Y-47254361D01*
X78186211Y-48138196D01*
X78087015Y-48951901D01*
X77745337Y-49771946D01*
X77182595Y-50438722D01*
X76422235Y-50915313D01*
X76264611Y-50976897D01*
X75462491Y-51133192D01*
X74605314Y-51091041D01*
X73790877Y-50863777D01*
X73116976Y-50464730D01*
X73016449Y-50374755D01*
X72559262Y-49759075D01*
X72317099Y-49028142D01*
X72285933Y-48240080D01*
X72461743Y-47453012D01*
X72840502Y-46725062D01*
X73418187Y-46114355D01*
X74211327Y-45656554D01*
X75096509Y-45464328D01*
X76053107Y-45547137D01*
G37*
G04 #@! TD.AperFunction*
G04 #@! TA.AperFunction,EtchedComponent*
G36*
X70284439Y-120136609D02*
G01*
X70910190Y-120448070D01*
X71437967Y-120991085D01*
X71757295Y-121726391D01*
X71864545Y-122648216D01*
X71861843Y-122792680D01*
X71713858Y-123637386D01*
X71344025Y-124310601D01*
X70758211Y-124800911D01*
X70215399Y-125020605D01*
X69428527Y-125112509D01*
X68617548Y-125002657D01*
X67853283Y-124711137D01*
X67206552Y-124258037D01*
X66748173Y-123663447D01*
X66589651Y-123184012D01*
X66566206Y-122477981D01*
X66732762Y-121766372D01*
X67075793Y-121152843D01*
X67089635Y-121135752D01*
X67776569Y-120487701D01*
X68556527Y-120099297D01*
X69401741Y-119979334D01*
X70284439Y-120136609D01*
G37*
G04 #@! TD.AperFunction*
G04 #@! TA.AperFunction,EtchedComponent*
G36*
X132400261Y-130480440D02*
G01*
X132920541Y-130932725D01*
X133256989Y-131575974D01*
X133376495Y-132384318D01*
X133354771Y-132730233D01*
X133137559Y-133416574D01*
X132690361Y-133933365D01*
X132017059Y-134275205D01*
X131768611Y-134340003D01*
X131023159Y-134367353D01*
X130326798Y-134165242D01*
X129744485Y-133760281D01*
X129341179Y-133179079D01*
X129140485Y-132423016D01*
X129198697Y-131710337D01*
X129494139Y-131088061D01*
X130004821Y-130602490D01*
X130708750Y-130299923D01*
X130940639Y-130252237D01*
X131729258Y-130244988D01*
X132400261Y-130480440D01*
G37*
G04 #@! TD.AperFunction*
G04 #@! TA.AperFunction,EtchedComponent*
G36*
X83821447Y-95191709D02*
G01*
X84080897Y-95421137D01*
X84166121Y-95513049D01*
X84405630Y-95959561D01*
X84369985Y-96394065D01*
X84059734Y-96781329D01*
X84034587Y-96800919D01*
X83749879Y-96997197D01*
X83570593Y-97077913D01*
X83282127Y-97023985D01*
X82969453Y-96780102D01*
X82805014Y-96407960D01*
X82799761Y-95983315D01*
X82964647Y-95581925D01*
X83310622Y-95279546D01*
X83325215Y-95272015D01*
X83615344Y-95150418D01*
X83821447Y-95191709D01*
G37*
G04 #@! TD.AperFunction*
G04 #@! TA.AperFunction,EtchedComponent*
G36*
X107012400Y-95888091D02*
G01*
X107235986Y-96223320D01*
X107293430Y-96612272D01*
X107173244Y-96968998D01*
X106863942Y-97207549D01*
X106712390Y-97248027D01*
X106264665Y-97221155D01*
X105880584Y-97017784D01*
X105664983Y-96683719D01*
X105649404Y-96306019D01*
X105835602Y-95924803D01*
X106193624Y-95702375D01*
X106662330Y-95699094D01*
X107012400Y-95888091D01*
G37*
G04 #@! TD.AperFunction*
M02*
