G04 #@! TF.GenerationSoftware,KiCad,Pcbnew,8.0.5*
G04 #@! TF.CreationDate,2024-11-24T11:42:17+01:00*
G04 #@! TF.ProjectId,wolkje-panel,776f6c6b-6a65-42d7-9061-6e656c2e6b69,rev?*
G04 #@! TF.SameCoordinates,Original*
G04 #@! TF.FileFunction,Copper,L1,Top*
G04 #@! TF.FilePolarity,Positive*
%FSLAX46Y46*%
G04 Gerber Fmt 4.6, Leading zero omitted, Abs format (unit mm)*
G04 Created by KiCad (PCBNEW 8.0.5) date 2024-11-24 11:42:17*
%MOMM*%
%LPD*%
G01*
G04 APERTURE LIST*
G04 #@! TA.AperFunction,EtchedComponent*
%ADD10C,0.000000*%
G04 #@! TD*
G04 APERTURE END LIST*
D10*
G04 #@! TA.AperFunction,EtchedComponent*
G36*
X72473748Y-53588351D02*
G01*
X73905975Y-53741668D01*
X75320985Y-54045653D01*
X76707592Y-54499268D01*
X78054611Y-55101476D01*
X79350855Y-55851238D01*
X80585138Y-56747517D01*
X81442286Y-57495295D01*
X82397441Y-58499814D01*
X83269282Y-59628686D01*
X84039084Y-60850455D01*
X84688121Y-62133666D01*
X85197665Y-63446862D01*
X85408124Y-64157000D01*
X85459680Y-64319095D01*
X85535608Y-64442447D01*
X85668257Y-64554270D01*
X85889981Y-64681777D01*
X86233130Y-64852183D01*
X86236468Y-64853801D01*
X87103147Y-65356606D01*
X87909212Y-65986305D01*
X88630566Y-66716885D01*
X89243110Y-67522335D01*
X89722745Y-68376643D01*
X89905073Y-68813667D01*
X90010063Y-69086792D01*
X90097608Y-69293750D01*
X90144129Y-69382408D01*
X90241546Y-69403793D01*
X90480326Y-69425970D01*
X90832517Y-69447224D01*
X91270166Y-69465840D01*
X91718475Y-69479025D01*
X92304049Y-69495767D01*
X92759557Y-69517626D01*
X93124264Y-69548969D01*
X93437436Y-69594161D01*
X93738337Y-69657569D01*
X94045333Y-69737751D01*
X95213568Y-70141587D01*
X96277696Y-70677853D01*
X97242509Y-71349310D01*
X97941773Y-71981327D01*
X98738559Y-72898444D01*
X99381530Y-73885757D01*
X99869230Y-74939735D01*
X100200202Y-76056844D01*
X100372989Y-77233552D01*
X100400152Y-77943323D01*
X100384304Y-78649382D01*
X100329816Y-79256620D01*
X100226634Y-79833118D01*
X100064707Y-80446956D01*
X99998569Y-80663259D01*
X99568398Y-81766415D01*
X99000727Y-82788099D01*
X98307488Y-83714892D01*
X97500608Y-84533375D01*
X96592017Y-85230129D01*
X95593644Y-85791733D01*
X95337227Y-85906962D01*
X95212204Y-85962665D01*
X95102478Y-86014569D01*
X95002012Y-86062807D01*
X94904768Y-86107510D01*
X94804709Y-86148812D01*
X94695799Y-86186845D01*
X94572000Y-86221742D01*
X94427275Y-86253634D01*
X94255588Y-86282655D01*
X94050902Y-86308937D01*
X93807178Y-86332612D01*
X93518381Y-86353813D01*
X93178474Y-86372673D01*
X92781419Y-86389324D01*
X92321179Y-86403898D01*
X91791718Y-86416528D01*
X91186998Y-86427347D01*
X90500982Y-86436486D01*
X89727634Y-86444079D01*
X88860916Y-86450258D01*
X87894791Y-86455156D01*
X86823223Y-86458905D01*
X85640174Y-86461637D01*
X84339607Y-86463485D01*
X82915485Y-86464581D01*
X81361772Y-86465059D01*
X79672430Y-86465050D01*
X77841422Y-86464686D01*
X75862712Y-86464102D01*
X73730262Y-86463428D01*
X71438035Y-86462798D01*
X70025620Y-86462504D01*
X46589667Y-86458341D01*
X45824358Y-86260454D01*
X44698271Y-85883964D01*
X43649217Y-85361195D01*
X42687317Y-84701422D01*
X42665657Y-84681694D01*
X51304797Y-84681694D01*
X51359848Y-85065250D01*
X51484541Y-85345070D01*
X51646718Y-85481808D01*
X51874334Y-85506904D01*
X52140006Y-85443863D01*
X52355222Y-85317040D01*
X52391871Y-85276782D01*
X52467480Y-85112514D01*
X52547829Y-84835825D01*
X52617146Y-84502382D01*
X52625293Y-84452951D01*
X52644902Y-84381482D01*
X54116050Y-84381482D01*
X54193400Y-84740215D01*
X54387319Y-85052707D01*
X54695473Y-85279659D01*
X54717667Y-85289751D01*
X55043077Y-85352597D01*
X55408630Y-85303236D01*
X55742667Y-85156641D01*
X55880205Y-85046872D01*
X56105495Y-84715837D01*
X56185458Y-84348581D01*
X56126931Y-83983173D01*
X55936755Y-83657682D01*
X55621768Y-83410179D01*
X55582700Y-83390724D01*
X55224511Y-83268587D01*
X54910803Y-83282857D01*
X54606738Y-83420837D01*
X54320387Y-83682493D01*
X54157602Y-84015807D01*
X54116050Y-84381482D01*
X52644902Y-84381482D01*
X52806098Y-83793969D01*
X53114973Y-83230522D01*
X53536619Y-82776123D01*
X54055739Y-82444283D01*
X54657032Y-82248514D01*
X55177429Y-82198955D01*
X55798512Y-82277490D01*
X56365679Y-82504894D01*
X56861793Y-82864745D01*
X57269714Y-83340622D01*
X57572304Y-83916101D01*
X57752422Y-84574760D01*
X57768007Y-84681174D01*
X57868556Y-85084244D01*
X58038553Y-85362278D01*
X58260891Y-85504084D01*
X58518461Y-85498469D01*
X58782180Y-85344701D01*
X58980561Y-85064867D01*
X59056782Y-84670846D01*
X59011025Y-84161173D01*
X58957831Y-83921519D01*
X58714747Y-83187101D01*
X58680525Y-83123868D01*
X60187644Y-83123868D01*
X60218118Y-83312734D01*
X60315368Y-83479768D01*
X60387906Y-83569674D01*
X60649580Y-83777983D01*
X60929049Y-83839710D01*
X61190708Y-83768966D01*
X61398952Y-83579862D01*
X61518176Y-83286508D01*
X61533333Y-83115716D01*
X61599316Y-82848178D01*
X61770293Y-82671178D01*
X62005803Y-82588550D01*
X62265390Y-82604131D01*
X62508592Y-82721756D01*
X62694952Y-82945258D01*
X62721865Y-83003055D01*
X62773215Y-83183491D01*
X62741658Y-83348784D01*
X62634399Y-83545021D01*
X62513229Y-83863950D01*
X62532465Y-84154153D01*
X62663941Y-84390264D01*
X62879491Y-84546919D01*
X63150949Y-84598753D01*
X63450149Y-84520402D01*
X63606508Y-84420451D01*
X63874792Y-84109130D01*
X63933409Y-83947330D01*
X65273585Y-83947330D01*
X65299310Y-84092215D01*
X65367931Y-84207815D01*
X65519464Y-84362372D01*
X65753672Y-84450314D01*
X65913228Y-84477297D01*
X66533271Y-84602000D01*
X67158915Y-84802293D01*
X67716188Y-85052951D01*
X67883333Y-85149114D01*
X68225490Y-85341841D01*
X68475126Y-85428299D01*
X68666605Y-85414353D01*
X68829166Y-85310544D01*
X68971716Y-85083749D01*
X68961113Y-84871496D01*
X70350775Y-84871496D01*
X70357196Y-85167953D01*
X70478789Y-85380500D01*
X70643181Y-85511322D01*
X70828284Y-85543576D01*
X71053978Y-85469528D01*
X71340143Y-85281448D01*
X71706658Y-84971603D01*
X71836776Y-84852335D01*
X71839988Y-84849625D01*
X73389288Y-84849625D01*
X73514930Y-85148289D01*
X73634154Y-85287846D01*
X73930403Y-85488796D01*
X74240713Y-85526113D01*
X74544526Y-85398599D01*
X74612470Y-85344833D01*
X74795137Y-85100739D01*
X74879867Y-84851640D01*
X74870298Y-84731000D01*
X76096000Y-84731000D01*
X76168750Y-85056609D01*
X76360604Y-85312079D01*
X76631971Y-85480549D01*
X76943259Y-85545160D01*
X77254874Y-85489054D01*
X77496848Y-85327515D01*
X77652320Y-85080236D01*
X78912180Y-85080236D01*
X79063095Y-85316972D01*
X79113085Y-85359855D01*
X79347165Y-85504805D01*
X79538921Y-85507973D01*
X79742498Y-85366744D01*
X79782848Y-85327515D01*
X79948791Y-85111660D01*
X79967914Y-84915243D01*
X79838088Y-84699067D01*
X79743179Y-84597487D01*
X79536299Y-84415416D01*
X79379476Y-84365434D01*
X79220911Y-84444357D01*
X79097818Y-84557818D01*
X78923616Y-84819918D01*
X78912180Y-85080236D01*
X77652320Y-85080236D01*
X77672509Y-85048126D01*
X77712688Y-84734396D01*
X77634245Y-84425917D01*
X77454040Y-84162280D01*
X77188932Y-83983079D01*
X76900333Y-83926667D01*
X76617931Y-83976025D01*
X76370700Y-84147552D01*
X76343487Y-84174154D01*
X76157052Y-84422287D01*
X76096489Y-84697259D01*
X76096000Y-84731000D01*
X74870298Y-84731000D01*
X74854382Y-84530355D01*
X74686257Y-84265804D01*
X74400063Y-84088024D01*
X74216094Y-84040367D01*
X73992932Y-84026041D01*
X73824075Y-84090823D01*
X73644594Y-84248380D01*
X73432528Y-84547833D01*
X73389288Y-84849625D01*
X71839988Y-84849625D01*
X72577703Y-84227172D01*
X73312788Y-83745507D01*
X74082527Y-83387971D01*
X74927416Y-83135192D01*
X75733494Y-82988426D01*
X76139510Y-82938484D01*
X76464208Y-82921786D01*
X76780748Y-82939959D01*
X77162293Y-82994630D01*
X77331974Y-83023972D01*
X78311889Y-83262508D01*
X79198402Y-83621034D01*
X80020790Y-84114820D01*
X80808330Y-84759135D01*
X80988521Y-84931114D01*
X81351873Y-85263587D01*
X81640492Y-85465239D01*
X81878002Y-85543088D01*
X82088028Y-85504151D01*
X82294193Y-85355447D01*
X82322848Y-85327515D01*
X82468620Y-85156801D01*
X82515994Y-85001222D01*
X82463003Y-84812680D01*
X82307680Y-84543076D01*
X82289607Y-84514743D01*
X81979384Y-84120175D01*
X85554306Y-84120175D01*
X85565016Y-84473237D01*
X85703054Y-84814781D01*
X85960825Y-85097784D01*
X86270889Y-85243867D01*
X86645192Y-85276419D01*
X87019615Y-85192352D01*
X87105438Y-85152900D01*
X87381503Y-84919815D01*
X87557085Y-84578001D01*
X87610667Y-84217244D01*
X87581620Y-83992747D01*
X87473177Y-83790942D01*
X87281961Y-83578039D01*
X87063569Y-83380014D01*
X86878598Y-83281863D01*
X86655479Y-83250601D01*
X86568790Y-83249333D01*
X86178165Y-83320175D01*
X85871678Y-83510816D01*
X85660125Y-83788425D01*
X85554306Y-84120175D01*
X81979384Y-84120175D01*
X81898819Y-84017705D01*
X81372525Y-83516304D01*
X80742621Y-83031673D01*
X80041004Y-82584946D01*
X79299571Y-82197255D01*
X78550218Y-81889736D01*
X78128000Y-81757387D01*
X77632717Y-81662557D01*
X77026714Y-81609482D01*
X76363243Y-81597637D01*
X75695554Y-81626501D01*
X75076900Y-81695552D01*
X74604823Y-81791954D01*
X73540694Y-82135878D01*
X72619604Y-82557553D01*
X71831506Y-83062354D01*
X71214409Y-83605699D01*
X70777284Y-84095429D01*
X70490105Y-84515675D01*
X70350775Y-84871496D01*
X68961113Y-84871496D01*
X68958335Y-84815881D01*
X68792019Y-84524314D01*
X68670917Y-84392756D01*
X68318706Y-84112499D01*
X67883334Y-83859466D01*
X67401260Y-83645624D01*
X66908939Y-83482940D01*
X66442828Y-83383381D01*
X66039386Y-83358916D01*
X65735069Y-83421512D01*
X65725625Y-83425923D01*
X65504966Y-83583396D01*
X65351445Y-83768744D01*
X65273585Y-83947330D01*
X63933409Y-83947330D01*
X64029179Y-83682978D01*
X64073333Y-83194117D01*
X63997905Y-82641921D01*
X63787483Y-82161790D01*
X63465863Y-81766968D01*
X63294911Y-81643142D01*
X64972021Y-81643142D01*
X65002709Y-81931852D01*
X65120948Y-82125346D01*
X65318195Y-82245716D01*
X65625396Y-82305456D01*
X65959224Y-82318000D01*
X66803222Y-82399468D01*
X67652909Y-82637737D01*
X68480549Y-83023607D01*
X68926417Y-83302357D01*
X69254634Y-83499957D01*
X69506294Y-83574648D01*
X69717201Y-83530209D01*
X69888710Y-83403908D01*
X70051758Y-83185251D01*
X70070800Y-82955765D01*
X69941887Y-82696427D01*
X69682107Y-82408268D01*
X69070197Y-81930033D01*
X68338569Y-81545002D01*
X67515792Y-81264624D01*
X66630439Y-81100350D01*
X66355967Y-81075354D01*
X65963479Y-81056183D01*
X65690336Y-81066538D01*
X65488418Y-81110868D01*
X65357496Y-81167676D01*
X65094660Y-81376616D01*
X64972021Y-81643142D01*
X63294911Y-81643142D01*
X63056839Y-81470699D01*
X62584206Y-81286226D01*
X62071760Y-81226791D01*
X61543294Y-81305640D01*
X61057096Y-81515385D01*
X60634803Y-81854032D01*
X60349737Y-82289958D01*
X60209059Y-82812007D01*
X60205877Y-82840817D01*
X60187644Y-83123868D01*
X58680525Y-83123868D01*
X58377575Y-82564102D01*
X57922948Y-82010085D01*
X57883366Y-81970032D01*
X57265992Y-81460492D01*
X56597911Y-81099920D01*
X55898007Y-80883212D01*
X55185161Y-80805262D01*
X54478254Y-80860965D01*
X53796170Y-81045217D01*
X53157791Y-81352911D01*
X52581998Y-81778943D01*
X52087674Y-82318208D01*
X51693701Y-82965599D01*
X51418960Y-83716013D01*
X51418453Y-83717960D01*
X51323097Y-84223049D01*
X51304797Y-84681694D01*
X42665657Y-84681694D01*
X41822693Y-83913921D01*
X41065468Y-83007967D01*
X40808375Y-82599990D01*
X46396930Y-82599990D01*
X46527878Y-82868936D01*
X46550631Y-82894702D01*
X46782105Y-83054081D01*
X47023479Y-83044737D01*
X47237563Y-82895400D01*
X47817333Y-82895400D01*
X47889488Y-83138816D01*
X48069115Y-83354766D01*
X48300955Y-83486568D01*
X48410000Y-83503333D01*
X48677310Y-83421963D01*
X48827188Y-83280248D01*
X48977884Y-83013692D01*
X48973306Y-82833074D01*
X49426000Y-82833074D01*
X49489184Y-83102421D01*
X49651671Y-83266116D01*
X49872867Y-83313908D01*
X50112177Y-83235551D01*
X50304888Y-83054953D01*
X50417218Y-82880662D01*
X50427218Y-82748508D01*
X50352924Y-82589286D01*
X50167289Y-82395493D01*
X49934795Y-82330068D01*
X49702669Y-82380590D01*
X49518140Y-82534638D01*
X49428433Y-82779792D01*
X49426000Y-82833074D01*
X48973306Y-82833074D01*
X48971864Y-82776188D01*
X48854500Y-82584990D01*
X48604251Y-82389407D01*
X48336129Y-82352435D01*
X48078204Y-82476374D01*
X48033261Y-82517709D01*
X47887391Y-82706335D01*
X47818212Y-82879916D01*
X47817333Y-82895400D01*
X47237563Y-82895400D01*
X47270848Y-82872182D01*
X47450714Y-82604658D01*
X47470708Y-82341781D01*
X47334017Y-82110500D01*
X47166733Y-81992008D01*
X46917788Y-81903342D01*
X46712687Y-81951379D01*
X46563298Y-82067298D01*
X46409017Y-82314477D01*
X46396930Y-82599990D01*
X40808375Y-82599990D01*
X40425765Y-81992833D01*
X40282149Y-81680103D01*
X45212777Y-81680103D01*
X45316710Y-81889948D01*
X45340833Y-81912830D01*
X45609957Y-82077827D01*
X45867618Y-82078723D01*
X46139961Y-81915458D01*
X46145167Y-81911008D01*
X46276844Y-81701997D01*
X46286421Y-81451376D01*
X46193325Y-81210504D01*
X46016985Y-81030741D01*
X45786677Y-80963333D01*
X45538334Y-81031332D01*
X45345377Y-81204394D01*
X45229595Y-81436118D01*
X45212777Y-81680103D01*
X40282149Y-81680103D01*
X39913705Y-80877797D01*
X39894371Y-80826869D01*
X39621704Y-79892316D01*
X39465152Y-78869964D01*
X39424401Y-77794964D01*
X39432991Y-77669383D01*
X42100717Y-77669383D01*
X42108888Y-78270367D01*
X42145176Y-78857542D01*
X42207950Y-79395535D01*
X42295577Y-79848970D01*
X42406428Y-80182473D01*
X42451644Y-80266265D01*
X42568412Y-80397190D01*
X42696922Y-80390522D01*
X42735549Y-80371621D01*
X42798555Y-80325070D01*
X42842668Y-80246043D01*
X42851847Y-80201333D01*
X44261333Y-80201333D01*
X44332205Y-80451998D01*
X44512999Y-80623507D01*
X44755984Y-80698502D01*
X45013431Y-80659628D01*
X45192667Y-80540000D01*
X45319517Y-80355686D01*
X45362000Y-80201333D01*
X45286455Y-79978293D01*
X45096008Y-79795033D01*
X44844939Y-79698460D01*
X44774134Y-79693333D01*
X44526884Y-79768014D01*
X44337404Y-79955310D01*
X44261335Y-80200101D01*
X44261333Y-80201333D01*
X42851847Y-80201333D01*
X42871125Y-80107426D01*
X42887161Y-79882103D01*
X42894013Y-79542956D01*
X42894917Y-79062872D01*
X42894868Y-79036689D01*
X42906164Y-78705464D01*
X43884208Y-78705464D01*
X43960170Y-78893511D01*
X44157755Y-79064484D01*
X44410200Y-79085047D01*
X44665828Y-78968866D01*
X44808568Y-78785032D01*
X44853484Y-78547540D01*
X44793711Y-78329490D01*
X44732531Y-78258590D01*
X44567446Y-78195862D01*
X44337298Y-78184141D01*
X44330953Y-78184723D01*
X44068820Y-78276715D01*
X43912363Y-78464714D01*
X43884208Y-78705464D01*
X42906164Y-78705464D01*
X42926548Y-78107760D01*
X42979884Y-77700476D01*
X45380589Y-77700476D01*
X45435636Y-78459681D01*
X45653697Y-79203209D01*
X46031755Y-79918362D01*
X46282789Y-80265046D01*
X46797310Y-80790519D01*
X47387103Y-81165078D01*
X48055890Y-81390492D01*
X48807389Y-81468529D01*
X48814886Y-81468569D01*
X49196215Y-81451521D01*
X49534262Y-81403118D01*
X49725591Y-81348428D01*
X49988733Y-81172097D01*
X50127577Y-80935184D01*
X50123556Y-80675831D01*
X50090985Y-80597956D01*
X49977967Y-80432973D01*
X49823096Y-80327647D01*
X49589450Y-80269460D01*
X49240106Y-80245890D01*
X49045000Y-80243279D01*
X48643702Y-80229443D01*
X48349722Y-80184380D01*
X48102208Y-80096673D01*
X48004339Y-80048024D01*
X47734417Y-79858037D01*
X50534513Y-79858037D01*
X50605145Y-80140050D01*
X50763357Y-80399796D01*
X50995991Y-80592540D01*
X51067527Y-80626354D01*
X51244966Y-80690122D01*
X51360541Y-80680585D01*
X51509520Y-80587551D01*
X51523828Y-80577532D01*
X51676807Y-80381909D01*
X51699953Y-80129837D01*
X51680725Y-80074375D01*
X57558677Y-80074375D01*
X57562062Y-80332728D01*
X57720368Y-80569960D01*
X57777085Y-80618521D01*
X57967621Y-80742308D01*
X58149947Y-80781007D01*
X58370476Y-80731454D01*
X58675623Y-80590481D01*
X58748581Y-80552262D01*
X59617887Y-80175206D01*
X60488007Y-79960568D01*
X61348261Y-79908177D01*
X62187972Y-80017862D01*
X62996458Y-80289454D01*
X63623913Y-80629816D01*
X63894160Y-80803840D01*
X64068413Y-80629587D01*
X64218172Y-80397507D01*
X64216035Y-80141504D01*
X64059571Y-79847246D01*
X63904000Y-79660806D01*
X63700491Y-79423597D01*
X63597831Y-79231661D01*
X63581050Y-79021838D01*
X63635176Y-78730965D01*
X63659874Y-78630861D01*
X63805583Y-78288137D01*
X64054261Y-77923544D01*
X64359364Y-77594703D01*
X64674348Y-77359239D01*
X64696861Y-77347060D01*
X64993623Y-77248994D01*
X65369197Y-77202690D01*
X65760461Y-77208094D01*
X66104294Y-77265154D01*
X66303521Y-77348433D01*
X66583567Y-77597520D01*
X66769966Y-77895818D01*
X66849272Y-78203389D01*
X66808043Y-78480291D01*
X66727211Y-78607166D01*
X66552749Y-78718851D01*
X66339883Y-78758171D01*
X66156013Y-78721732D01*
X66076609Y-78639933D01*
X65975630Y-78508099D01*
X65810082Y-78373923D01*
X65551987Y-78287797D01*
X65307326Y-78363711D01*
X65094204Y-78594437D01*
X65046217Y-78678847D01*
X64970071Y-78992638D01*
X65037064Y-79314564D01*
X65225344Y-79614660D01*
X65513057Y-79862961D01*
X65878351Y-80029503D01*
X66060417Y-80069520D01*
X66634382Y-80082006D01*
X67124257Y-79953081D01*
X70288658Y-79953081D01*
X70351500Y-80528739D01*
X70517656Y-81064634D01*
X70775713Y-81512497D01*
X70869325Y-81622452D01*
X71117337Y-81777207D01*
X71401998Y-81791875D01*
X71672330Y-81671263D01*
X71807975Y-81533911D01*
X71835654Y-81493968D01*
X81213608Y-81493968D01*
X81219404Y-81606240D01*
X81325870Y-81727472D01*
X81441147Y-81826432D01*
X81716693Y-82002660D01*
X81936560Y-82030898D01*
X82132267Y-82052729D01*
X82362500Y-82195059D01*
X82465970Y-82283636D01*
X82733070Y-82490667D01*
X82943338Y-82561649D01*
X83131015Y-82503291D01*
X83222500Y-82431878D01*
X83353128Y-82248579D01*
X83345712Y-82041741D01*
X83195974Y-81787779D01*
X83081000Y-81651815D01*
X82913610Y-81457466D01*
X82806168Y-81315302D01*
X82784667Y-81272284D01*
X82852195Y-81206405D01*
X83027544Y-81087578D01*
X83225814Y-80968809D01*
X83666962Y-80716859D01*
X83881981Y-81157596D01*
X84071267Y-81467491D01*
X84268728Y-81618500D01*
X84493526Y-81620712D01*
X84642966Y-81558337D01*
X84784213Y-81415891D01*
X84800345Y-81195069D01*
X84692147Y-80878012D01*
X84674492Y-80840269D01*
X84596727Y-80637397D01*
X84579843Y-80503068D01*
X84587964Y-80486480D01*
X84707998Y-80442307D01*
X84933570Y-80405524D01*
X85200893Y-80381727D01*
X85446183Y-80376511D01*
X85605654Y-80395472D01*
X85609490Y-80396868D01*
X85679870Y-80448738D01*
X85683125Y-80556803D01*
X85619885Y-80769648D01*
X85614538Y-80785220D01*
X85541226Y-81102169D01*
X85585734Y-81317007D01*
X85755351Y-81455908D01*
X85807424Y-81477831D01*
X86043719Y-81525012D01*
X86220705Y-81451015D01*
X86352249Y-81241141D01*
X86452216Y-80880696D01*
X86472575Y-80772833D01*
X86529744Y-80559215D01*
X86622860Y-80469230D01*
X86729376Y-80455333D01*
X86902578Y-80481329D01*
X87133384Y-80545974D01*
X87365704Y-80629252D01*
X87543446Y-80711150D01*
X87610667Y-80769804D01*
X87561330Y-80855370D01*
X87438832Y-81015350D01*
X87399000Y-81063440D01*
X87238048Y-81332695D01*
X87190579Y-81595588D01*
X87258642Y-81808518D01*
X87359865Y-81896378D01*
X87584683Y-81952927D01*
X87801354Y-81864354D01*
X88029459Y-81621310D01*
X88078155Y-81553371D01*
X88231951Y-81356451D01*
X88359793Y-81235518D01*
X88401778Y-81217333D01*
X88515451Y-81274650D01*
X88690039Y-81417019D01*
X88880305Y-81600066D01*
X89041012Y-81779420D01*
X89126922Y-81910707D01*
X89131405Y-81933016D01*
X89063740Y-82031680D01*
X88900590Y-82163179D01*
X88856238Y-82192144D01*
X88645501Y-82389031D01*
X88555576Y-82615092D01*
X88597627Y-82826424D01*
X88672740Y-82913771D01*
X88781171Y-82974757D01*
X88923314Y-82973817D01*
X89153030Y-82907811D01*
X89228911Y-82881322D01*
X89478472Y-82805656D01*
X89663683Y-82773087D01*
X89720965Y-82779731D01*
X89790738Y-82881720D01*
X89882191Y-83087568D01*
X89927157Y-83210684D01*
X90001682Y-83443260D01*
X90013240Y-83566411D01*
X89954669Y-83630584D01*
X89861963Y-83669766D01*
X89651250Y-83812243D01*
X89584111Y-83996078D01*
X89656527Y-84179623D01*
X89864480Y-84321228D01*
X89926860Y-84342282D01*
X90367084Y-84420754D01*
X90725442Y-84383225D01*
X90893828Y-84302866D01*
X91016478Y-84177084D01*
X91070765Y-83989350D01*
X91079236Y-83773699D01*
X90997405Y-83177743D01*
X90772869Y-82556101D01*
X90425057Y-81931938D01*
X89973397Y-81328420D01*
X89437317Y-80768713D01*
X88836246Y-80275983D01*
X88189613Y-79873394D01*
X87585090Y-79607404D01*
X86729464Y-79389061D01*
X85819435Y-79305061D01*
X84893611Y-79352015D01*
X83990598Y-79526535D01*
X83149004Y-79825230D01*
X82741260Y-80032614D01*
X82361568Y-80279221D01*
X81983229Y-80575193D01*
X81646527Y-80884580D01*
X81391749Y-81171430D01*
X81289461Y-81328180D01*
X81213608Y-81493968D01*
X71835654Y-81493968D01*
X71901667Y-81398706D01*
X71938638Y-81284868D01*
X71919539Y-81136712D01*
X71845022Y-80898555D01*
X71816386Y-80814244D01*
X71697463Y-80318422D01*
X71679933Y-80015187D01*
X72782673Y-80015187D01*
X72886378Y-80346525D01*
X73041487Y-80546513D01*
X73333668Y-80753302D01*
X73629939Y-80791423D01*
X73933150Y-80660769D01*
X74114800Y-80506133D01*
X74337498Y-80209318D01*
X74398254Y-79909593D01*
X74302261Y-79576846D01*
X74282016Y-79536279D01*
X74060166Y-79265809D01*
X73768932Y-79130054D01*
X73448673Y-79134771D01*
X73139750Y-79285717D01*
X73054513Y-79361179D01*
X72838823Y-79677152D01*
X72782673Y-80015187D01*
X71679933Y-80015187D01*
X71669270Y-79830727D01*
X71732129Y-79403718D01*
X71806544Y-79211999D01*
X72148468Y-78697832D01*
X72566524Y-78334274D01*
X73065041Y-78118577D01*
X73640667Y-78047993D01*
X74246603Y-78124169D01*
X74776641Y-78347778D01*
X75218518Y-78709330D01*
X75559975Y-79199338D01*
X75754492Y-79683793D01*
X75881067Y-80042481D01*
X76008409Y-80283900D01*
X76093643Y-80369405D01*
X76402884Y-80454743D01*
X76578436Y-80407584D01*
X78740778Y-80407584D01*
X78822528Y-80551501D01*
X78861192Y-80604195D01*
X79089790Y-80800865D01*
X79282416Y-80861513D01*
X79386428Y-80865982D01*
X79489572Y-80847544D01*
X79613208Y-80792314D01*
X79778696Y-80686412D01*
X80007397Y-80515955D01*
X80320672Y-80267061D01*
X80739880Y-79925847D01*
X80808487Y-79869716D01*
X81551709Y-79346139D01*
X82403442Y-78891296D01*
X83307831Y-78533202D01*
X83716000Y-78411384D01*
X84378175Y-78284752D01*
X85134424Y-78222083D01*
X85922031Y-78223382D01*
X86678276Y-78288658D01*
X87314333Y-78410935D01*
X88308591Y-78751484D01*
X89227239Y-79222224D01*
X90055876Y-79809325D01*
X90780102Y-80498957D01*
X91385515Y-81277292D01*
X91857714Y-82130498D01*
X92182298Y-83044747D01*
X92196249Y-83099184D01*
X92308037Y-83524144D01*
X92400803Y-83813518D01*
X92489198Y-83997672D01*
X92587871Y-84106974D01*
X92711472Y-84171788D01*
X92714210Y-84172806D01*
X92997400Y-84205695D01*
X93249278Y-84076718D01*
X93370042Y-83947173D01*
X93498262Y-83655737D01*
X93526559Y-83255354D01*
X93462074Y-82768264D01*
X93311951Y-82216711D01*
X93301904Y-82190617D01*
X94830279Y-82190617D01*
X94971456Y-82397424D01*
X94976667Y-82402667D01*
X95217660Y-82552459D01*
X95464552Y-82538074D01*
X95586935Y-82466167D01*
X95759963Y-82246424D01*
X95769279Y-82003585D01*
X95620773Y-81769076D01*
X95424727Y-81603169D01*
X95269098Y-81575457D01*
X95097147Y-81685447D01*
X95015151Y-81763818D01*
X94844195Y-81990192D01*
X94830279Y-82190617D01*
X93301904Y-82190617D01*
X93083333Y-81622934D01*
X92783362Y-81009176D01*
X92419180Y-80397679D01*
X92072523Y-79906819D01*
X91472803Y-79239286D01*
X90734485Y-78613333D01*
X89886786Y-78047895D01*
X88958922Y-77561910D01*
X87980109Y-77174315D01*
X87737667Y-77097068D01*
X87439846Y-77010631D01*
X87180459Y-76948739D01*
X86920782Y-76907295D01*
X86622090Y-76882203D01*
X86245660Y-76869367D01*
X85752768Y-76864690D01*
X85536333Y-76864211D01*
X84831780Y-76873066D01*
X84247845Y-76907071D01*
X83736649Y-76974555D01*
X83250314Y-77083853D01*
X82740961Y-77243295D01*
X82204133Y-77444080D01*
X81580286Y-77728925D01*
X80954063Y-78086162D01*
X80354003Y-78493561D01*
X79808648Y-78928888D01*
X79346538Y-79369912D01*
X78996212Y-79794401D01*
X78832388Y-80070616D01*
X78745511Y-80274093D01*
X78740778Y-80407584D01*
X76578436Y-80407584D01*
X76685496Y-80378824D01*
X76860861Y-80222500D01*
X76969241Y-80053199D01*
X77014372Y-79865621D01*
X77009599Y-79593323D01*
X77003084Y-79514397D01*
X76943507Y-79154576D01*
X76840892Y-78786457D01*
X76784729Y-78641043D01*
X76573143Y-78287680D01*
X76251724Y-77900061D01*
X75862382Y-77519090D01*
X75447022Y-77185669D01*
X75047553Y-76940702D01*
X75037667Y-76935837D01*
X74781945Y-76819030D01*
X74559537Y-76745769D01*
X74316270Y-76706138D01*
X73997972Y-76690221D01*
X73683000Y-76687879D01*
X73275715Y-76692717D01*
X72981193Y-76714130D01*
X72742964Y-76762831D01*
X72504558Y-76849535D01*
X72270793Y-76955809D01*
X71598618Y-77357802D01*
X71060064Y-77863474D01*
X70656400Y-78471227D01*
X70388893Y-79179465D01*
X70340542Y-79385931D01*
X70288658Y-79953081D01*
X67124257Y-79953081D01*
X67149563Y-79946421D01*
X67586807Y-79671764D01*
X67926959Y-79267035D01*
X67984822Y-79165301D01*
X68129596Y-78743787D01*
X68181266Y-78248519D01*
X68139898Y-77747143D01*
X68005558Y-77307303D01*
X67982957Y-77261415D01*
X67613740Y-76723586D01*
X67135901Y-76301719D01*
X66571554Y-76004157D01*
X65942809Y-75839241D01*
X65271781Y-75815311D01*
X64580580Y-75940710D01*
X64525682Y-75957254D01*
X63849429Y-76250751D01*
X63276763Y-76673459D01*
X62820133Y-77212866D01*
X62491989Y-77856461D01*
X62418314Y-78075126D01*
X62275967Y-78550333D01*
X61290817Y-78559644D01*
X60785174Y-78572655D01*
X60382676Y-78606712D01*
X60017563Y-78670772D01*
X59624080Y-78773792D01*
X59543667Y-78797613D01*
X58910404Y-79019366D01*
X58386076Y-79267398D01*
X57979881Y-79532230D01*
X57701016Y-79804383D01*
X57558677Y-80074375D01*
X51680725Y-80074375D01*
X51605413Y-79857147D01*
X51405336Y-79599669D01*
X51124481Y-79399662D01*
X50939229Y-79324866D01*
X50800554Y-79348831D01*
X50708623Y-79406154D01*
X50564620Y-79598493D01*
X50534513Y-79858037D01*
X47734417Y-79858037D01*
X47477025Y-79676869D01*
X47064064Y-79194085D01*
X46780927Y-78625504D01*
X46643082Y-77996958D01*
X46633144Y-77781183D01*
X47817333Y-77781183D01*
X47891921Y-78096839D01*
X48088356Y-78389785D01*
X48365643Y-78626437D01*
X48682789Y-78773211D01*
X48998800Y-78796524D01*
X49045000Y-78786938D01*
X49237469Y-78715243D01*
X49465077Y-78602051D01*
X49468143Y-78600316D01*
X49750525Y-78354958D01*
X49907411Y-78036051D01*
X49941442Y-77680745D01*
X49855261Y-77326192D01*
X49651509Y-77009543D01*
X49338062Y-76770642D01*
X48963730Y-76660804D01*
X48597341Y-76698392D01*
X48269557Y-76863030D01*
X48011043Y-77134342D01*
X47852461Y-77491952D01*
X47817333Y-77781183D01*
X46633144Y-77781183D01*
X46632000Y-77756347D01*
X46713608Y-77171511D01*
X46947175Y-76623287D01*
X47315814Y-76135429D01*
X47802641Y-75731692D01*
X48237924Y-75497183D01*
X48682470Y-75371986D01*
X49209951Y-75326503D01*
X49754511Y-75359613D01*
X50250293Y-75470191D01*
X50416752Y-75534317D01*
X50817304Y-75776535D01*
X51224481Y-76129277D01*
X51589599Y-76543020D01*
X51863979Y-76968241D01*
X51900832Y-77044049D01*
X51986023Y-77258971D01*
X52042747Y-77489427D01*
X52077196Y-77778715D01*
X52095562Y-78170133D01*
X52101044Y-78444213D01*
X52120672Y-78984714D01*
X52166212Y-79376622D01*
X52244704Y-79639621D01*
X52363193Y-79793396D01*
X52528720Y-79857632D01*
X52608518Y-79862667D01*
X52907793Y-79813489D01*
X53131216Y-79657255D01*
X53285336Y-79380916D01*
X53376704Y-78971422D01*
X53411870Y-78415722D01*
X53412680Y-78260546D01*
X53360382Y-77469774D01*
X53201756Y-76777991D01*
X52925118Y-76143773D01*
X52721142Y-75808536D01*
X52198401Y-75168173D01*
X51578918Y-74653003D01*
X50883321Y-74271666D01*
X50132236Y-74032802D01*
X49346293Y-73945055D01*
X48546119Y-74017063D01*
X48477667Y-74030921D01*
X47686470Y-74276934D01*
X46999088Y-74655481D01*
X46420949Y-75161277D01*
X45957477Y-75789041D01*
X45614099Y-76533488D01*
X45491578Y-76938288D01*
X45380589Y-77700476D01*
X42979884Y-77700476D01*
X43032714Y-77297061D01*
X43153237Y-76836786D01*
X44057844Y-76836786D01*
X44064848Y-77067598D01*
X44124275Y-77192198D01*
X44324744Y-77370979D01*
X44581311Y-77392643D01*
X44774899Y-77319688D01*
X44905001Y-77166050D01*
X44933285Y-76942355D01*
X44859948Y-76713696D01*
X44772745Y-76606087D01*
X44554023Y-76495308D01*
X44338152Y-76518356D01*
X44160852Y-76642944D01*
X44057844Y-76836786D01*
X43153237Y-76836786D01*
X43224161Y-76565926D01*
X43511682Y-75875686D01*
X43906073Y-75187674D01*
X44015620Y-75021852D01*
X44667664Y-74201641D01*
X45423415Y-73514227D01*
X46277572Y-72962824D01*
X47224833Y-72550651D01*
X48259895Y-72280922D01*
X48630054Y-72222345D01*
X49579171Y-72178395D01*
X50527635Y-72291110D01*
X51454223Y-72549076D01*
X52337712Y-72940880D01*
X53156877Y-73455107D01*
X53890496Y-74080345D01*
X54517345Y-74805178D01*
X55016200Y-75618193D01*
X55042191Y-75670744D01*
X55310233Y-76279670D01*
X55499584Y-76866524D01*
X55631672Y-77505580D01*
X55688061Y-77909378D01*
X55748787Y-78312712D01*
X55821540Y-78586283D01*
X55918239Y-78769661D01*
X55963367Y-78823529D01*
X56209636Y-78980509D01*
X56480091Y-78985647D01*
X56732132Y-78842712D01*
X56815868Y-78748144D01*
X56930354Y-78470845D01*
X56972186Y-78053454D01*
X56941519Y-77508759D01*
X56892604Y-77195730D01*
X58366800Y-77195730D01*
X58409425Y-77471331D01*
X58563858Y-77682249D01*
X58600121Y-77714639D01*
X58828343Y-77872706D01*
X59035857Y-77901624D01*
X59291975Y-77808729D01*
X59325944Y-77791465D01*
X59568957Y-77585441D01*
X59673287Y-77315869D01*
X59633447Y-77023764D01*
X59462848Y-76768485D01*
X59193820Y-76595718D01*
X58909524Y-76562833D01*
X58650297Y-76654104D01*
X58456476Y-76853807D01*
X58368399Y-77146220D01*
X58366800Y-77195730D01*
X56892604Y-77195730D01*
X56838508Y-76849550D01*
X56790021Y-76615267D01*
X56726573Y-76405530D01*
X60418820Y-76405530D01*
X60523646Y-76673991D01*
X60603819Y-76774269D01*
X60867973Y-76950348D01*
X61157782Y-76968177D01*
X61438447Y-76827682D01*
X61494848Y-76776182D01*
X61667975Y-76503387D01*
X61702667Y-76306667D01*
X61623519Y-76009507D01*
X61494848Y-75837151D01*
X61240904Y-75672780D01*
X60982570Y-75648051D01*
X60745522Y-75735963D01*
X60555432Y-75909514D01*
X60437974Y-76141704D01*
X60418820Y-76405530D01*
X56726573Y-76405530D01*
X56485428Y-75608384D01*
X56029770Y-74661798D01*
X55969301Y-74572984D01*
X57479985Y-74572984D01*
X57505720Y-74925112D01*
X57623904Y-75190028D01*
X57830563Y-75344747D01*
X58011547Y-75375333D01*
X58201612Y-75327216D01*
X58412113Y-75210313D01*
X58583108Y-75065797D01*
X58654656Y-74934844D01*
X58654667Y-74933572D01*
X58674647Y-74851742D01*
X59272374Y-74851742D01*
X59282680Y-75093415D01*
X59454983Y-75336680D01*
X59455151Y-75336848D01*
X59615640Y-75487461D01*
X59732936Y-75531756D01*
X59883861Y-75481499D01*
X60003278Y-75420798D01*
X60246400Y-75220895D01*
X60325569Y-75025805D01*
X62062234Y-75025805D01*
X62193146Y-75272394D01*
X62210667Y-75290667D01*
X62462000Y-75438069D01*
X62723939Y-75426582D01*
X68222000Y-75426582D01*
X68286732Y-75687783D01*
X68452525Y-75843284D01*
X68676771Y-75877013D01*
X68916862Y-75772901D01*
X68984000Y-75714000D01*
X69122840Y-75487413D01*
X69144982Y-75242775D01*
X69063440Y-75028180D01*
X68891234Y-74891723D01*
X68754854Y-74867333D01*
X68473821Y-74940319D01*
X68287090Y-75140092D01*
X68222000Y-75426582D01*
X62723939Y-75426582D01*
X62746332Y-75425600D01*
X63003582Y-75284521D01*
X63182761Y-75057762D01*
X63231520Y-74798955D01*
X63163716Y-74552699D01*
X62993204Y-74363594D01*
X62733842Y-74276239D01*
X62689834Y-74274667D01*
X62400072Y-74342724D01*
X62185610Y-74518748D01*
X62066359Y-74760516D01*
X62062234Y-75025805D01*
X60325569Y-75025805D01*
X60348810Y-74968534D01*
X60302912Y-74702346D01*
X60178667Y-74528667D01*
X59931671Y-74379826D01*
X59673827Y-74391554D01*
X59439992Y-74561372D01*
X59422812Y-74582418D01*
X59272374Y-74851742D01*
X58674647Y-74851742D01*
X58704491Y-74729513D01*
X58839214Y-74431282D01*
X58997911Y-74145741D01*
X64109924Y-74145741D01*
X64179666Y-74394994D01*
X64386089Y-74611125D01*
X64645539Y-74756733D01*
X64882866Y-74748104D01*
X65131884Y-74582004D01*
X65180513Y-74535179D01*
X65373718Y-74283542D01*
X65409914Y-74048408D01*
X65340505Y-73900222D01*
X67037927Y-73900222D01*
X67053580Y-74163280D01*
X67138267Y-74342400D01*
X67334910Y-74434195D01*
X67595515Y-74433897D01*
X67847025Y-74348905D01*
X67964702Y-74258702D01*
X68097085Y-74025966D01*
X68134722Y-73758454D01*
X68072537Y-73546508D01*
X67917675Y-73411192D01*
X67691607Y-73299129D01*
X67507899Y-73258667D01*
X67353218Y-73314900D01*
X67206000Y-73428000D01*
X67090538Y-73630774D01*
X67037927Y-73900222D01*
X65340505Y-73900222D01*
X65290325Y-73793090D01*
X65208807Y-73688496D01*
X64953342Y-73482621D01*
X64687363Y-73438849D01*
X64433939Y-73553315D01*
X64216140Y-73822152D01*
X64196847Y-73858075D01*
X64109924Y-74145741D01*
X58997911Y-74145741D01*
X59036710Y-74075930D01*
X59274855Y-73700511D01*
X59531524Y-73342077D01*
X59658176Y-73189736D01*
X60788156Y-73189736D01*
X60802688Y-73338649D01*
X60918466Y-73634824D01*
X61130074Y-73839699D01*
X61395575Y-73938128D01*
X61673031Y-73914966D01*
X61920506Y-73755069D01*
X61929292Y-73745500D01*
X62116856Y-73480560D01*
X62162811Y-73230516D01*
X62089993Y-72964416D01*
X61896938Y-72669388D01*
X61643697Y-72516791D01*
X61362481Y-72512357D01*
X61085498Y-72661822D01*
X60982123Y-72767149D01*
X60830976Y-72985719D01*
X60788156Y-73189736D01*
X59658176Y-73189736D01*
X59784592Y-73037678D01*
X59790746Y-73031011D01*
X60496992Y-72371205D01*
X62999205Y-72371205D01*
X63077082Y-72657863D01*
X63252287Y-72887003D01*
X63493280Y-73035891D01*
X63768518Y-73081793D01*
X64046461Y-73001975D01*
X64204182Y-72881515D01*
X64375634Y-72606188D01*
X64377910Y-72588106D01*
X65446685Y-72588106D01*
X65462013Y-72692779D01*
X65585073Y-72983795D01*
X65795201Y-73142684D01*
X66062234Y-73159511D01*
X66356009Y-73024341D01*
X66390248Y-72998521D01*
X66570375Y-72763308D01*
X66607701Y-72486626D01*
X66498867Y-72220998D01*
X66444000Y-72158000D01*
X66194157Y-72011411D01*
X65917513Y-72021424D01*
X65646804Y-72186118D01*
X65626357Y-72205946D01*
X65477746Y-72395566D01*
X65446685Y-72588106D01*
X64377910Y-72588106D01*
X64414912Y-72294167D01*
X64334137Y-71991654D01*
X64145428Y-71744850D01*
X63868442Y-71601802D01*
X63608913Y-71611967D01*
X63336529Y-71732965D01*
X63119948Y-71927204D01*
X63050199Y-72049764D01*
X62999205Y-72371205D01*
X60496992Y-72371205D01*
X60509192Y-72359807D01*
X61290051Y-71837731D01*
X62152576Y-71454445D01*
X63116021Y-71199611D01*
X63244937Y-71176199D01*
X64220243Y-71080554D01*
X65138529Y-71143496D01*
X66007295Y-71367051D01*
X66834044Y-71753249D01*
X67626278Y-72304117D01*
X67726883Y-72387726D01*
X68432420Y-73078086D01*
X68982522Y-73827298D01*
X69384973Y-74649108D01*
X69647554Y-75557264D01*
X69705617Y-75883333D01*
X69818796Y-76255894D01*
X70012366Y-76511650D01*
X70262871Y-76636253D01*
X70546852Y-76615354D01*
X70739781Y-76515900D01*
X70891061Y-76344807D01*
X70968262Y-76082648D01*
X70970563Y-75925490D01*
X76702533Y-75925490D01*
X76819707Y-76371730D01*
X77030158Y-76744409D01*
X77282482Y-76982084D01*
X77556514Y-77076659D01*
X77832085Y-77020039D01*
X78039271Y-76861323D01*
X78175174Y-76664225D01*
X78184551Y-76459795D01*
X78174989Y-76416823D01*
X78091770Y-76050633D01*
X78063074Y-75802563D01*
X78091828Y-75629452D01*
X78180963Y-75488136D01*
X78242454Y-75422515D01*
X78524822Y-75248248D01*
X78850570Y-75210218D01*
X79161427Y-75311823D01*
X79236393Y-75364564D01*
X79354963Y-75475819D01*
X79389712Y-75587863D01*
X79351046Y-75766398D01*
X79316871Y-75872613D01*
X79256871Y-76235772D01*
X79339237Y-76517349D01*
X79560645Y-76708020D01*
X79624194Y-76735523D01*
X79942075Y-76776668D01*
X80233580Y-76664160D01*
X80477408Y-76413602D01*
X80530159Y-76301071D01*
X89896667Y-76301071D01*
X89939200Y-76532793D01*
X90079974Y-76699973D01*
X90338748Y-76813580D01*
X90735280Y-76884588D01*
X90988493Y-76907342D01*
X91754448Y-77030544D01*
X92419611Y-77282323D01*
X92977098Y-77658636D01*
X93420024Y-78155440D01*
X93589542Y-78434817D01*
X93685954Y-78739681D01*
X93734107Y-79190144D01*
X93732982Y-79769195D01*
X93699576Y-80273295D01*
X93694560Y-80527155D01*
X93752863Y-80688252D01*
X93874048Y-80809444D01*
X94140156Y-80925201D01*
X94443426Y-80908142D01*
X94706546Y-80772330D01*
X94910051Y-80503218D01*
X94979608Y-80300732D01*
X95668937Y-80300732D01*
X95684121Y-80451846D01*
X95807641Y-80608771D01*
X95828540Y-80629873D01*
X96055465Y-80764754D01*
X96288926Y-80734241D01*
X96513149Y-80540797D01*
X96528575Y-80520568D01*
X96638882Y-80343163D01*
X96643361Y-80203258D01*
X96587013Y-80077471D01*
X96399781Y-79864927D01*
X96169814Y-79789980D01*
X95942918Y-79852496D01*
X95764900Y-80052337D01*
X95751515Y-80079944D01*
X95668937Y-80300732D01*
X94979608Y-80300732D01*
X95044017Y-80113232D01*
X95107737Y-79636210D01*
X95100506Y-79105990D01*
X95021618Y-78556410D01*
X94942934Y-78278038D01*
X95624128Y-78278038D01*
X95689016Y-78515511D01*
X95844428Y-78693019D01*
X96074677Y-78762000D01*
X96243066Y-78715580D01*
X96397161Y-78630199D01*
X96548269Y-78432470D01*
X96579221Y-78175379D01*
X96488570Y-77920317D01*
X96416000Y-77830667D01*
X96213172Y-77685786D01*
X96016269Y-77692586D01*
X95818602Y-77817473D01*
X95662934Y-78029169D01*
X95624128Y-78278038D01*
X94942934Y-78278038D01*
X94870367Y-78021309D01*
X94769092Y-77773482D01*
X94414607Y-77190890D01*
X93929197Y-76671571D01*
X93344084Y-76232494D01*
X92690490Y-75890627D01*
X91999639Y-75662939D01*
X91302752Y-75566397D01*
X90760842Y-75595148D01*
X90405477Y-75700840D01*
X90119696Y-75884690D01*
X89939960Y-76116911D01*
X89896667Y-76301071D01*
X80530159Y-76301071D01*
X80652259Y-76040599D01*
X80673388Y-75966906D01*
X80725086Y-75497191D01*
X80619293Y-75056060D01*
X80351256Y-74628972D01*
X80172243Y-74433297D01*
X79694678Y-74057121D01*
X79183474Y-73845425D01*
X78642517Y-73799462D01*
X78341405Y-73843543D01*
X77783055Y-74050740D01*
X77318837Y-74395951D01*
X76963419Y-74867782D01*
X76921500Y-74946597D01*
X76732941Y-75451678D01*
X76702533Y-75925490D01*
X70970563Y-75925490D01*
X70973737Y-75708746D01*
X70909837Y-75202422D01*
X70897375Y-75130404D01*
X70788031Y-74722052D01*
X73079121Y-74722052D01*
X73086412Y-75025025D01*
X73231663Y-75253777D01*
X73517075Y-75401061D01*
X73621663Y-75426566D01*
X73743094Y-75443735D01*
X73851695Y-75429225D01*
X73969570Y-75365135D01*
X74118823Y-75233565D01*
X74321559Y-75016616D01*
X74599882Y-74696389D01*
X74770937Y-74495898D01*
X75347562Y-73920147D01*
X76015401Y-73424945D01*
X76732609Y-73036091D01*
X77457338Y-72779381D01*
X77614120Y-72743099D01*
X77930841Y-72701323D01*
X78345110Y-72679572D01*
X78785977Y-72681058D01*
X78889623Y-72685317D01*
X79697982Y-72792518D01*
X80477377Y-73036634D01*
X81240633Y-73424630D01*
X82000574Y-73963470D01*
X82770025Y-74660121D01*
X83042318Y-74940785D01*
X83410317Y-75322073D01*
X83691645Y-75583722D01*
X83908294Y-75735963D01*
X84082256Y-75789029D01*
X84235523Y-75753152D01*
X84390086Y-75638563D01*
X84439515Y-75590848D01*
X84584515Y-75392485D01*
X84631388Y-75169709D01*
X84573747Y-74905192D01*
X84405203Y-74581603D01*
X84279544Y-74405759D01*
X85917333Y-74405759D01*
X85987743Y-74639139D01*
X86162270Y-74858087D01*
X86385855Y-75005779D01*
X86528639Y-75036667D01*
X86729674Y-74995058D01*
X86974243Y-74892494D01*
X87019321Y-74867900D01*
X88028078Y-74337482D01*
X88967711Y-73944621D01*
X89859913Y-73683959D01*
X90726381Y-73550135D01*
X91588809Y-73537788D01*
X92173172Y-73594529D01*
X93077860Y-73779456D01*
X93885979Y-74077245D01*
X94630201Y-74504442D01*
X95343201Y-75077597D01*
X95611667Y-75336019D01*
X96265073Y-76077415D01*
X96752133Y-76824010D01*
X97075827Y-77581996D01*
X97239140Y-78357568D01*
X97261637Y-78762000D01*
X97273193Y-79209388D01*
X97306241Y-79511059D01*
X97366683Y-79689911D01*
X97460423Y-79768842D01*
X97523562Y-79778000D01*
X97681269Y-79710314D01*
X97787907Y-79587500D01*
X97844307Y-79385121D01*
X97879402Y-79014921D01*
X97893177Y-78477072D01*
X97893350Y-78338667D01*
X97873773Y-77653902D01*
X97809702Y-77076702D01*
X97687926Y-76548209D01*
X97495234Y-76009569D01*
X97247580Y-75461932D01*
X96805101Y-74732228D01*
X96220267Y-74060049D01*
X95515275Y-73462961D01*
X94712321Y-72958532D01*
X93833602Y-72564330D01*
X93410333Y-72424928D01*
X92443583Y-72200691D01*
X91500153Y-72107695D01*
X90547943Y-72147025D01*
X89554847Y-72319764D01*
X88608948Y-72587123D01*
X87929808Y-72836925D01*
X87321011Y-73115439D01*
X86799917Y-73410937D01*
X86383882Y-73711691D01*
X86090267Y-74005972D01*
X85936430Y-74282050D01*
X85917333Y-74405759D01*
X84279544Y-74405759D01*
X84119369Y-74181614D01*
X83759085Y-73744920D01*
X83028504Y-73014232D01*
X82201914Y-72399089D01*
X81302788Y-71910654D01*
X80354594Y-71560088D01*
X79380804Y-71358556D01*
X78643623Y-71311926D01*
X77608784Y-71389558D01*
X76626996Y-71616966D01*
X75713987Y-71988239D01*
X74885484Y-72497462D01*
X74385513Y-72912858D01*
X73862985Y-73440259D01*
X73469609Y-73922423D01*
X73207587Y-74352102D01*
X73079121Y-74722052D01*
X70788031Y-74722052D01*
X70650041Y-74206723D01*
X70251409Y-73324002D01*
X70082553Y-73063018D01*
X71489927Y-73063018D01*
X71530624Y-73322563D01*
X71674137Y-73533833D01*
X71871633Y-73665483D01*
X72102980Y-73638802D01*
X72316915Y-73506521D01*
X72501217Y-73276038D01*
X72521221Y-73011391D01*
X72408199Y-72769505D01*
X72207939Y-72609550D01*
X71961502Y-72587243D01*
X71718078Y-72700306D01*
X71613329Y-72806303D01*
X71489927Y-73063018D01*
X70082553Y-73063018D01*
X69717819Y-72499285D01*
X69065608Y-71749616D01*
X68358608Y-71133430D01*
X70254000Y-71133430D01*
X70307183Y-71310349D01*
X70436561Y-71513738D01*
X70449958Y-71529705D01*
X70561611Y-71650040D01*
X70666512Y-71710124D01*
X70815505Y-71718882D01*
X71059436Y-71685237D01*
X71199121Y-71661184D01*
X71861852Y-71616877D01*
X72490952Y-71712244D01*
X72958762Y-71893907D01*
X73262016Y-72026524D01*
X73481924Y-72048594D01*
X73662902Y-71960699D01*
X73725333Y-71904000D01*
X73880273Y-71655713D01*
X73882119Y-71393255D01*
X73744484Y-71132152D01*
X73480982Y-70887931D01*
X73105227Y-70676119D01*
X72630833Y-70512242D01*
X72472332Y-70474963D01*
X72036096Y-70400458D01*
X71665506Y-70388431D01*
X71268833Y-70438861D01*
X71091003Y-70474648D01*
X70723235Y-70598930D01*
X70442477Y-70783164D01*
X70280708Y-71002179D01*
X70254000Y-71133430D01*
X68358608Y-71133430D01*
X68311117Y-71092039D01*
X67470683Y-70543598D01*
X66560644Y-70121337D01*
X65893667Y-69910654D01*
X65322140Y-69807531D01*
X64648207Y-69754654D01*
X63931004Y-69751495D01*
X63229668Y-69797530D01*
X62603336Y-69892232D01*
X62393832Y-69941796D01*
X61337018Y-70304715D01*
X60369775Y-70798787D01*
X59503877Y-71414547D01*
X58751096Y-72142525D01*
X58123205Y-72973253D01*
X57721758Y-73699037D01*
X57550673Y-74156630D01*
X57479985Y-74572984D01*
X55969301Y-74572984D01*
X55434103Y-73786916D01*
X54709483Y-72995143D01*
X53866966Y-72297885D01*
X52917608Y-71706547D01*
X51872465Y-71232535D01*
X51419529Y-71074973D01*
X51138561Y-70990688D01*
X50884570Y-70931042D01*
X50617771Y-70891672D01*
X50298381Y-70868217D01*
X49886616Y-70856317D01*
X49383667Y-70851785D01*
X48842869Y-70852300D01*
X48431162Y-70861979D01*
X48108390Y-70884644D01*
X47834394Y-70924112D01*
X47569017Y-70984203D01*
X47351667Y-71045049D01*
X46247442Y-71445615D01*
X45267898Y-71960725D01*
X44412617Y-72590792D01*
X43681184Y-73336235D01*
X43073181Y-74197469D01*
X42588194Y-75174912D01*
X42261221Y-76137333D01*
X42175252Y-76567491D01*
X42122295Y-77089966D01*
X42100717Y-77669383D01*
X39432991Y-77669383D01*
X39499133Y-76702471D01*
X39689034Y-75627638D01*
X39949145Y-74730074D01*
X40392565Y-73648670D01*
X40935359Y-72675570D01*
X41596043Y-71784972D01*
X42393137Y-70951075D01*
X43098914Y-70341477D01*
X43948785Y-69749802D01*
X44917348Y-69232201D01*
X45965037Y-68802513D01*
X47052288Y-68474576D01*
X47634740Y-68360819D01*
X53022228Y-68360819D01*
X53099385Y-69089404D01*
X53313944Y-69783014D01*
X53651356Y-70422719D01*
X54097074Y-70989592D01*
X54636549Y-71464703D01*
X55255232Y-71829124D01*
X55938576Y-72063928D01*
X56580333Y-72148251D01*
X56839538Y-72130551D01*
X57126911Y-72075628D01*
X57147982Y-72069945D01*
X57446263Y-71925543D01*
X57677758Y-71699748D01*
X57799345Y-71439295D01*
X57808000Y-71354612D01*
X57752282Y-71168953D01*
X57615743Y-70960440D01*
X57591695Y-70933330D01*
X57461982Y-70806729D01*
X57336977Y-70743262D01*
X57160958Y-70729797D01*
X56878206Y-70753201D01*
X56843190Y-70756927D01*
X56516064Y-70780267D01*
X56268119Y-70755843D01*
X56012492Y-70669106D01*
X55833396Y-70587791D01*
X55288212Y-70243553D01*
X54859963Y-69792619D01*
X54563132Y-69257067D01*
X54412201Y-68658976D01*
X54411230Y-68643402D01*
X55882307Y-68643402D01*
X55917286Y-69000274D01*
X56072596Y-69336447D01*
X56347052Y-69618206D01*
X56580333Y-69752481D01*
X56865553Y-69850121D01*
X57112368Y-69846409D01*
X57403512Y-69739070D01*
X57424177Y-69729295D01*
X57695677Y-69522903D01*
X57796393Y-69377795D01*
X68505351Y-69377795D01*
X68518501Y-69672731D01*
X68685001Y-69930681D01*
X68751400Y-69986167D01*
X68984466Y-70159410D01*
X69428733Y-69961689D01*
X70308105Y-69645025D01*
X71194264Y-69481999D01*
X71747915Y-69453547D01*
X72318220Y-69475826D01*
X72832918Y-69559792D01*
X73337404Y-69719542D01*
X73877074Y-69969176D01*
X74445000Y-70291144D01*
X74856784Y-70530637D01*
X75158393Y-70678609D01*
X75378633Y-70740277D01*
X75546310Y-70720856D01*
X75690232Y-70625563D01*
X75778500Y-70532596D01*
X75898961Y-70329679D01*
X75902106Y-70117924D01*
X75779349Y-69881293D01*
X75522104Y-69603750D01*
X75121786Y-69269259D01*
X75088305Y-69243391D01*
X74323669Y-68733430D01*
X73545972Y-68379921D01*
X72721291Y-68171274D01*
X71815702Y-68095896D01*
X71728043Y-68095251D01*
X71081934Y-68131411D01*
X70443663Y-68234947D01*
X69846112Y-68395325D01*
X69322160Y-68602011D01*
X68904688Y-68844472D01*
X68649564Y-69081518D01*
X68505351Y-69377795D01*
X57796393Y-69377795D01*
X57904723Y-69221716D01*
X58020330Y-68884410D01*
X58019608Y-68601733D01*
X57925673Y-68379967D01*
X57758276Y-68133485D01*
X57691923Y-68057434D01*
X57347399Y-67795880D01*
X56967264Y-67697608D01*
X56563184Y-67765300D01*
X56511207Y-67785717D01*
X56178083Y-68002409D01*
X55968844Y-68299542D01*
X55882307Y-68643402D01*
X54411230Y-68643402D01*
X54395813Y-68396131D01*
X54468034Y-67717742D01*
X54687108Y-67096519D01*
X55040309Y-66554481D01*
X55514908Y-66113646D01*
X55826789Y-65920340D01*
X56271901Y-65710282D01*
X56669773Y-65589926D01*
X57099120Y-65540831D01*
X57455020Y-65538865D01*
X58108629Y-65632853D01*
X58700853Y-65875635D01*
X59217133Y-66253277D01*
X59642910Y-66751842D01*
X59963624Y-67357395D01*
X60164717Y-68056000D01*
X60180465Y-68147593D01*
X60253621Y-68525055D01*
X60341398Y-68771600D01*
X60464651Y-68925531D01*
X60644233Y-69025149D01*
X60662020Y-69032058D01*
X60946428Y-69059786D01*
X61202181Y-68935092D01*
X61397626Y-68674861D01*
X61418364Y-68628599D01*
X61480042Y-68457458D01*
X61505906Y-68291884D01*
X61495916Y-68082321D01*
X61450033Y-67779212D01*
X61417550Y-67598461D01*
X61241777Y-66892837D01*
X60981385Y-66291872D01*
X60609214Y-65740934D01*
X60340769Y-65432745D01*
X59710568Y-64876015D01*
X59009102Y-64468782D01*
X58251589Y-64214959D01*
X57453242Y-64118457D01*
X56629279Y-64183189D01*
X56042212Y-64327540D01*
X55245666Y-64662710D01*
X54554880Y-65126962D01*
X53978460Y-65710683D01*
X53525012Y-66404262D01*
X53203146Y-67198090D01*
X53097021Y-67616186D01*
X53022228Y-68360819D01*
X47634740Y-68360819D01*
X48139535Y-68262229D01*
X49187212Y-68179309D01*
X49282691Y-68178667D01*
X49752651Y-68178667D01*
X49893849Y-67691833D01*
X50288502Y-66625733D01*
X50841125Y-65607608D01*
X51554575Y-64632730D01*
X52125284Y-64000068D01*
X52267484Y-63861972D01*
X61389148Y-63861972D01*
X61449011Y-64068976D01*
X61584779Y-64270363D01*
X61661025Y-64358283D01*
X61852410Y-64551306D01*
X62010698Y-64678069D01*
X62077596Y-64707333D01*
X62190235Y-64644739D01*
X62338096Y-64490436D01*
X62366612Y-64453333D01*
X62608897Y-64245187D01*
X62895590Y-64189530D01*
X63197087Y-64286547D01*
X63402513Y-64446820D01*
X63601730Y-64733073D01*
X63641853Y-65013856D01*
X63527285Y-65262901D01*
X63262425Y-65453936D01*
X63231546Y-65467312D01*
X62981693Y-65526932D01*
X62761290Y-65519305D01*
X62595451Y-65507708D01*
X62495839Y-65608683D01*
X62455882Y-65700214D01*
X62374492Y-65961561D01*
X62318591Y-66213657D01*
X62295064Y-66398990D01*
X62333917Y-66451058D01*
X62467464Y-66403240D01*
X62491540Y-66392305D01*
X62774979Y-66347129D01*
X63051123Y-66440320D01*
X63263907Y-66648088D01*
X63311756Y-66740355D01*
X63369805Y-67041068D01*
X63269460Y-67301082D01*
X63052326Y-67504899D01*
X62851091Y-67726907D01*
X62813698Y-67978256D01*
X62942710Y-68239982D01*
X62951500Y-68250554D01*
X63013569Y-68311595D01*
X63098529Y-68357787D01*
X63230638Y-68392133D01*
X63434153Y-68417634D01*
X63733332Y-68437292D01*
X64152430Y-68454110D01*
X64715706Y-68471088D01*
X64738823Y-68471736D01*
X65549102Y-68486795D01*
X66213267Y-68479360D01*
X66753541Y-68445289D01*
X67192145Y-68380442D01*
X67551304Y-68280675D01*
X67853238Y-68141849D01*
X68120170Y-67959820D01*
X68292919Y-67809354D01*
X68621213Y-67405274D01*
X74932924Y-67405274D01*
X74952682Y-67808212D01*
X75089813Y-68168828D01*
X75349877Y-68457642D01*
X75434738Y-68515163D01*
X75643887Y-68636013D01*
X75781086Y-68676567D01*
X75918170Y-68645969D01*
X76041054Y-68592341D01*
X76273642Y-68406699D01*
X76365116Y-68133338D01*
X76331670Y-67855078D01*
X76319129Y-67550599D01*
X76436153Y-67302868D01*
X76646840Y-67140284D01*
X76915287Y-67091246D01*
X77190800Y-67175521D01*
X77347142Y-67318983D01*
X77399445Y-67532228D01*
X77353601Y-67847930D01*
X77328929Y-67941572D01*
X77311691Y-68132740D01*
X77403782Y-68302940D01*
X77481042Y-68386072D01*
X77745640Y-68566891D01*
X78017336Y-68581750D01*
X78303802Y-68430069D01*
X78432800Y-68314133D01*
X78601574Y-68126573D01*
X78687548Y-67954217D01*
X78717872Y-67724875D01*
X78720667Y-67548760D01*
X78645777Y-67012172D01*
X78436707Y-66550834D01*
X78116851Y-66178003D01*
X77709603Y-65906934D01*
X77238361Y-65750883D01*
X76726519Y-65723106D01*
X76197472Y-65836858D01*
X75916475Y-65959911D01*
X75522316Y-66237332D01*
X75223299Y-66590354D01*
X75024982Y-66989494D01*
X74932924Y-67405274D01*
X68621213Y-67405274D01*
X68649123Y-67370921D01*
X68870646Y-66873600D01*
X68961234Y-66346188D01*
X68924633Y-65817480D01*
X68764589Y-65316272D01*
X68484846Y-64871360D01*
X68173445Y-64588192D01*
X70110694Y-64588192D01*
X70171544Y-65119575D01*
X70362407Y-65599173D01*
X70664127Y-66010322D01*
X71057548Y-66336355D01*
X71523513Y-66560607D01*
X72042866Y-66666410D01*
X72596452Y-66637099D01*
X73052772Y-66504494D01*
X73491553Y-66239747D01*
X73841806Y-65847029D01*
X74086785Y-65351738D01*
X74209742Y-64779270D01*
X74212668Y-64745589D01*
X74180049Y-64163999D01*
X73992447Y-63636289D01*
X73778538Y-63342629D01*
X75249333Y-63342629D01*
X75313829Y-63675736D01*
X75483650Y-63924991D01*
X75723297Y-64073434D01*
X75997269Y-64104106D01*
X76270067Y-64000045D01*
X76396376Y-63890637D01*
X76570159Y-63607042D01*
X76582342Y-63295240D01*
X76480131Y-63020055D01*
X76282407Y-62786527D01*
X76027501Y-62680528D01*
X75756097Y-62691396D01*
X75508875Y-62808467D01*
X75326517Y-63021082D01*
X75249706Y-63318576D01*
X75249333Y-63342629D01*
X73778538Y-63342629D01*
X73660348Y-63180374D01*
X73194240Y-62814167D01*
X73029389Y-62724250D01*
X72496626Y-62545231D01*
X71961017Y-62521482D01*
X71448039Y-62641325D01*
X70983168Y-62893082D01*
X70591879Y-63265074D01*
X70299649Y-63745623D01*
X70199012Y-64021691D01*
X70110694Y-64588192D01*
X68173445Y-64588192D01*
X68089150Y-64511540D01*
X67845678Y-64370931D01*
X67345001Y-64210010D01*
X66849109Y-64201029D01*
X66387958Y-64338574D01*
X65991510Y-64617230D01*
X65892682Y-64723943D01*
X65742983Y-64991989D01*
X65678163Y-65302598D01*
X65701580Y-65596527D01*
X65816590Y-65814531D01*
X65830167Y-65827196D01*
X66086269Y-65993879D01*
X66323711Y-66005370D01*
X66579922Y-65860943D01*
X66638740Y-65811504D01*
X66845410Y-65655493D01*
X67022648Y-65564007D01*
X67072859Y-65554000D01*
X67253512Y-65622781D01*
X67442497Y-65789860D01*
X67585188Y-65996338D01*
X67629333Y-66153991D01*
X67563320Y-66416510D01*
X67396223Y-66694142D01*
X67174459Y-66918825D01*
X67059913Y-66988964D01*
X66867006Y-67040519D01*
X66549327Y-67085791D01*
X66151393Y-67122272D01*
X65717723Y-67147451D01*
X65292835Y-67158820D01*
X64921248Y-67153869D01*
X64647480Y-67130089D01*
X64625176Y-67126203D01*
X64309752Y-67067029D01*
X64365489Y-66670348D01*
X64480493Y-66073017D01*
X64654262Y-65441900D01*
X64863970Y-64852664D01*
X65016380Y-64512669D01*
X65614777Y-63495281D01*
X66270400Y-62667388D01*
X68140046Y-62667388D01*
X68265982Y-62966141D01*
X68384820Y-63105179D01*
X68662173Y-63303189D01*
X68940234Y-63334089D01*
X69233126Y-63198309D01*
X69316170Y-63133474D01*
X69513586Y-62874527D01*
X69570884Y-62580905D01*
X69500215Y-62292017D01*
X69313727Y-62047275D01*
X69023571Y-61886088D01*
X68923892Y-61861004D01*
X68722403Y-61848523D01*
X68554943Y-61923124D01*
X68394725Y-62066249D01*
X68182978Y-62365543D01*
X68140046Y-62667388D01*
X66270400Y-62667388D01*
X66318449Y-62606714D01*
X67119344Y-61851750D01*
X68009410Y-61235176D01*
X68980595Y-60761774D01*
X70024846Y-60436330D01*
X71134112Y-60263627D01*
X72201333Y-60243589D01*
X72894863Y-60293683D01*
X73485808Y-60387742D01*
X74038544Y-60541464D01*
X74617444Y-60770550D01*
X74904602Y-60902868D01*
X75671790Y-61313845D01*
X76348851Y-61783035D01*
X76992540Y-62352246D01*
X77302907Y-62669641D01*
X78053520Y-63555246D01*
X78670655Y-64482121D01*
X79164104Y-65472312D01*
X79543658Y-66547862D01*
X79819106Y-67730816D01*
X79956402Y-68644333D01*
X80015068Y-69072841D01*
X80079527Y-69452295D01*
X80142424Y-69744481D01*
X80196404Y-69911187D01*
X80202146Y-69921279D01*
X80348397Y-70043661D01*
X80637349Y-70191945D01*
X81046510Y-70354811D01*
X81105134Y-70375683D01*
X81764499Y-70629286D01*
X82303100Y-70888733D01*
X82768493Y-71178376D01*
X82981228Y-71336362D01*
X83556037Y-71690694D01*
X84180484Y-71907128D01*
X84821681Y-71979261D01*
X85446744Y-71900693D01*
X85617990Y-71849594D01*
X86104328Y-71599019D01*
X86508335Y-71224044D01*
X86814457Y-70755881D01*
X87007140Y-70225740D01*
X87070830Y-69664833D01*
X86989972Y-69104370D01*
X86988540Y-69099418D01*
X86748532Y-68556268D01*
X86385910Y-68102905D01*
X85928032Y-67753423D01*
X85402253Y-67521918D01*
X84835931Y-67422487D01*
X84256420Y-67469225D01*
X83978944Y-67548672D01*
X83732433Y-67626280D01*
X83556017Y-67661343D01*
X83502833Y-67655055D01*
X83473005Y-67557868D01*
X83425358Y-67326006D01*
X83366054Y-66992423D01*
X83301251Y-66590071D01*
X83290129Y-66517188D01*
X83130978Y-65620728D01*
X82933954Y-64828824D01*
X82679205Y-64077659D01*
X82346878Y-63303414D01*
X82187139Y-62971667D01*
X81500629Y-61764954D01*
X80681147Y-60642797D01*
X79743551Y-59616851D01*
X78702701Y-58698771D01*
X77573455Y-57900211D01*
X76370671Y-57232828D01*
X75109208Y-56708275D01*
X73803926Y-56338207D01*
X73702784Y-56316610D01*
X72484626Y-56146764D01*
X71236273Y-56132381D01*
X69981747Y-56268505D01*
X68745068Y-56550179D01*
X67550257Y-56972448D01*
X66421335Y-57530354D01*
X65739585Y-57959695D01*
X64868256Y-58630902D01*
X64038310Y-59404978D01*
X63274696Y-60252009D01*
X62602366Y-61142081D01*
X62046268Y-62045279D01*
X61666243Y-62843509D01*
X61497639Y-63285613D01*
X61405316Y-63612975D01*
X61389148Y-63861972D01*
X52267484Y-63861972D01*
X52715364Y-63427019D01*
X53270618Y-62965659D01*
X53839824Y-62580424D01*
X54471759Y-62235749D01*
X54687905Y-62131630D01*
X55384386Y-61830604D01*
X56029771Y-61614543D01*
X56676393Y-61472311D01*
X57376582Y-61392772D01*
X58182671Y-61364790D01*
X58293524Y-61364363D01*
X59583381Y-61363000D01*
X59764765Y-60939667D01*
X60257374Y-59970366D01*
X60895630Y-59004447D01*
X61657312Y-58067521D01*
X62520202Y-57185199D01*
X63462077Y-56383095D01*
X64145235Y-55890587D01*
X65445862Y-55118104D01*
X66796386Y-54502516D01*
X68185623Y-54042784D01*
X69602386Y-53737871D01*
X71035490Y-53586739D01*
X72473748Y-53588351D01*
G37*
G04 #@! TD.AperFunction*
G04 #@! TA.AperFunction,EtchedComponent*
G36*
X85081200Y-68814651D02*
G01*
X85245947Y-68933534D01*
X85364897Y-69048630D01*
X85591979Y-69336885D01*
X85663017Y-69588367D01*
X85588192Y-69918763D01*
X85393127Y-70232215D01*
X85120680Y-70466258D01*
X85029199Y-70512095D01*
X84805734Y-70599254D01*
X84653627Y-70620289D01*
X84488158Y-70574759D01*
X84331501Y-70508474D01*
X84032274Y-70300027D01*
X83826271Y-70000863D01*
X83744343Y-69662624D01*
X83751658Y-69537884D01*
X83879145Y-69186862D01*
X84136544Y-68941506D01*
X84517099Y-68807511D01*
X84637692Y-68791392D01*
X84904320Y-68776422D01*
X85081200Y-68814651D01*
G37*
G04 #@! TD.AperFunction*
G04 #@! TA.AperFunction,EtchedComponent*
G36*
X73456157Y-57624898D02*
G01*
X73750519Y-57783977D01*
X73781584Y-57813220D01*
X73929215Y-57999405D01*
X73966115Y-58195062D01*
X73949927Y-58342387D01*
X73860165Y-58592562D01*
X73697169Y-58825051D01*
X73504917Y-58988216D01*
X73360779Y-59034145D01*
X73220318Y-58997023D01*
X73018501Y-58907824D01*
X73007599Y-58902187D01*
X72786201Y-58763401D01*
X72671356Y-58604993D01*
X72629716Y-58366829D01*
X72625963Y-58213967D01*
X72651828Y-57946748D01*
X72747742Y-57780496D01*
X72812839Y-57727134D01*
X73123834Y-57604194D01*
X73456157Y-57624898D01*
G37*
G04 #@! TD.AperFunction*
G04 #@! TA.AperFunction,EtchedComponent*
G36*
X81788661Y-66019529D02*
G01*
X82006933Y-66190011D01*
X82146226Y-66424778D01*
X82173743Y-66700436D01*
X82100518Y-66921400D01*
X81987950Y-67037621D01*
X81795900Y-67169630D01*
X81589397Y-67279180D01*
X81433473Y-67328020D01*
X81411553Y-67326633D01*
X81324073Y-67294612D01*
X81215394Y-67251437D01*
X80970333Y-67070889D01*
X80831114Y-66803247D01*
X80808465Y-66501515D01*
X80913115Y-66218698D01*
X80987949Y-66127754D01*
X81246372Y-65965005D01*
X81524209Y-65936728D01*
X81788661Y-66019529D01*
G37*
G04 #@! TD.AperFunction*
G04 #@! TA.AperFunction,EtchedComponent*
G36*
X77513878Y-59351877D02*
G01*
X77581515Y-59411818D01*
X77724678Y-59604080D01*
X77789056Y-59787563D01*
X77789333Y-59797023D01*
X77720962Y-60094942D01*
X77546867Y-60370090D01*
X77326032Y-60542183D01*
X77127512Y-60622228D01*
X76992416Y-60626330D01*
X76833113Y-60555069D01*
X76815667Y-60545566D01*
X76565821Y-60344054D01*
X76449770Y-60067326D01*
X76434667Y-59871296D01*
X76505490Y-59566747D01*
X76690305Y-59345911D01*
X76947630Y-59225408D01*
X77235982Y-59221856D01*
X77513878Y-59351877D01*
G37*
G04 #@! TD.AperFunction*
G04 #@! TA.AperFunction,EtchedComponent*
G36*
X67362050Y-58933577D02*
G01*
X67589765Y-59131291D01*
X67702940Y-59447951D01*
X67714000Y-59612868D01*
X67695356Y-59856825D01*
X67613027Y-60008493D01*
X67438833Y-60136261D01*
X67216567Y-60257790D01*
X67055084Y-60290640D01*
X66878252Y-60245770D01*
X66825000Y-60224626D01*
X66548402Y-60029288D01*
X66354947Y-59732322D01*
X66317782Y-59619572D01*
X66332465Y-59363355D01*
X66476225Y-59125063D01*
X66710386Y-58945686D01*
X66996271Y-58866215D01*
X67029434Y-58865333D01*
X67362050Y-58933577D01*
G37*
G04 #@! TD.AperFunction*
G04 #@! TA.AperFunction,EtchedComponent*
G36*
X65529180Y-60364230D02*
G01*
X65781780Y-60554221D01*
X65892790Y-60726305D01*
X66000337Y-60990655D01*
X65990028Y-61197924D01*
X65853912Y-61419852D01*
X65810003Y-61473367D01*
X65565087Y-61699119D01*
X65319906Y-61769640D01*
X65035013Y-61694434D01*
X64987288Y-61671608D01*
X64724206Y-61468772D01*
X64575907Y-61207163D01*
X64537133Y-60924156D01*
X64602629Y-60657125D01*
X64767136Y-60443444D01*
X65025397Y-60320487D01*
X65179566Y-60304667D01*
X65529180Y-60364230D01*
G37*
G04 #@! TD.AperFunction*
G04 #@! TA.AperFunction,EtchedComponent*
G36*
X78912106Y-60615755D02*
G01*
X79140092Y-60784701D01*
X79284128Y-61039258D01*
X79313333Y-61239892D01*
X79240664Y-61467462D01*
X79058518Y-61689267D01*
X78820684Y-61854625D01*
X78598588Y-61913333D01*
X78396462Y-61861888D01*
X78182145Y-61738165D01*
X78181751Y-61737855D01*
X78003220Y-61500260D01*
X77961042Y-61204722D01*
X78057480Y-60896706D01*
X78134145Y-60781751D01*
X78368162Y-60598362D01*
X78641139Y-60548335D01*
X78912106Y-60615755D01*
G37*
G04 #@! TD.AperFunction*
G04 #@! TA.AperFunction,EtchedComponent*
G36*
X64189447Y-62288181D02*
G01*
X64415214Y-62501303D01*
X64547137Y-62810698D01*
X64548995Y-62820108D01*
X64561477Y-63021597D01*
X64486876Y-63189057D01*
X64343751Y-63349274D01*
X64093280Y-63543779D01*
X63851374Y-63593818D01*
X63650000Y-63546873D01*
X63363173Y-63367604D01*
X63191961Y-63107530D01*
X63147289Y-62809293D01*
X63240080Y-62515536D01*
X63349818Y-62375151D01*
X63616676Y-62210236D01*
X63909910Y-62186203D01*
X64189447Y-62288181D01*
G37*
G04 #@! TD.AperFunction*
G04 #@! TA.AperFunction,EtchedComponent*
G36*
X82130806Y-67973102D02*
G01*
X82360686Y-68135644D01*
X82514853Y-68401537D01*
X82538342Y-68691400D01*
X82447843Y-68962234D01*
X82260047Y-69171043D01*
X81991644Y-69274829D01*
X81916728Y-69279333D01*
X81637217Y-69197168D01*
X81413582Y-69021941D01*
X81248104Y-68828946D01*
X81192493Y-68660991D01*
X81208683Y-68492774D01*
X81337585Y-68195492D01*
X81562777Y-68000939D01*
X81841454Y-67922385D01*
X82130806Y-67973102D01*
G37*
G04 #@! TD.AperFunction*
G04 #@! TA.AperFunction,EtchedComponent*
G36*
X81345299Y-64110312D02*
G01*
X81391515Y-64153151D01*
X81571518Y-64428181D01*
X81586312Y-64712876D01*
X81437119Y-64985699D01*
X81338837Y-65080807D01*
X81041538Y-65261120D01*
X80760443Y-65277201D01*
X80474879Y-65130087D01*
X80467751Y-65124521D01*
X80282588Y-64884516D01*
X80239483Y-64597858D01*
X80338392Y-64309982D01*
X80468696Y-64152957D01*
X80759449Y-63978388D01*
X81061749Y-63964176D01*
X81345299Y-64110312D01*
G37*
G04 #@! TD.AperFunction*
G04 #@! TA.AperFunction,EtchedComponent*
G36*
X80015225Y-62115350D02*
G01*
X80314375Y-62246241D01*
X80509572Y-62476001D01*
X80588387Y-62761321D01*
X80538392Y-63058891D01*
X80359303Y-63314376D01*
X80068551Y-63488945D01*
X79766250Y-63503157D01*
X79482701Y-63357021D01*
X79436485Y-63314182D01*
X79257002Y-63035455D01*
X79240847Y-62735171D01*
X79387051Y-62432762D01*
X79486059Y-62320249D01*
X79679053Y-62154770D01*
X79847009Y-62099160D01*
X80015225Y-62115350D01*
G37*
G04 #@! TD.AperFunction*
G04 #@! TA.AperFunction,EtchedComponent*
G36*
X75470362Y-58228910D02*
G01*
X75703582Y-58363478D01*
X75892000Y-58606050D01*
X75939945Y-58896498D01*
X75849003Y-59190539D01*
X75666170Y-59408140D01*
X75449547Y-59568659D01*
X75278880Y-59615896D01*
X75085375Y-59561095D01*
X74995333Y-59517774D01*
X74746011Y-59309999D01*
X74625087Y-59033008D01*
X74636750Y-58732674D01*
X74785188Y-58454871D01*
X74889266Y-58355994D01*
X75180417Y-58208225D01*
X75470362Y-58228910D01*
G37*
G04 #@! TD.AperFunction*
G04 #@! TA.AperFunction,EtchedComponent*
G36*
X72424957Y-63989619D02*
G01*
X72670848Y-64153151D01*
X72848011Y-64427612D01*
X72860548Y-64717284D01*
X72709150Y-65000720D01*
X72641200Y-65072493D01*
X72354923Y-65262243D01*
X72067825Y-65282813D01*
X71778500Y-65134159D01*
X71676915Y-65042608D01*
X71511437Y-64849613D01*
X71455827Y-64681658D01*
X71472017Y-64513441D01*
X71603234Y-64215734D01*
X71834786Y-64020482D01*
X72123188Y-63940754D01*
X72424957Y-63989619D01*
G37*
G04 #@! TD.AperFunction*
G04 #@! TA.AperFunction,EtchedComponent*
G36*
X71501169Y-57581547D02*
G01*
X71720997Y-57766466D01*
X71840947Y-58023840D01*
X71844455Y-58312085D01*
X71714958Y-58589619D01*
X71654848Y-58657515D01*
X71380801Y-58829553D01*
X71075958Y-58862415D01*
X70792031Y-58755465D01*
X70692092Y-58669376D01*
X70543952Y-58410498D01*
X70508000Y-58123844D01*
X70565993Y-57808877D01*
X70744319Y-57608804D01*
X71049493Y-57517834D01*
X71198027Y-57510667D01*
X71501169Y-57581547D01*
G37*
G04 #@! TD.AperFunction*
G04 #@! TA.AperFunction,EtchedComponent*
G36*
X69312191Y-57904712D02*
G01*
X69561335Y-58066650D01*
X69713804Y-58336242D01*
X69746000Y-58569000D01*
X69674724Y-58888735D01*
X69487768Y-59126443D01*
X69225441Y-59265372D01*
X68928053Y-59288766D01*
X68635910Y-59179874D01*
X68514485Y-59080848D01*
X68337078Y-58803312D01*
X68298033Y-58498791D01*
X68391589Y-58213895D01*
X68611985Y-57995233D01*
X68651389Y-57973202D01*
X68998249Y-57867779D01*
X69312191Y-57904712D01*
G37*
G04 #@! TD.AperFunction*
G04 #@! TA.AperFunction,EtchedComponent*
G36*
X125973748Y-75588351D02*
G01*
X127405975Y-75741668D01*
X128820985Y-76045653D01*
X130207592Y-76499268D01*
X131554611Y-77101476D01*
X132850855Y-77851238D01*
X134085138Y-78747517D01*
X134942286Y-79495295D01*
X135897441Y-80499814D01*
X136769282Y-81628686D01*
X137539084Y-82850455D01*
X138188121Y-84133666D01*
X138697665Y-85446862D01*
X138908124Y-86157000D01*
X138959680Y-86319095D01*
X139035608Y-86442447D01*
X139168257Y-86554270D01*
X139389981Y-86681777D01*
X139733130Y-86852183D01*
X139736468Y-86853801D01*
X140603147Y-87356606D01*
X141409212Y-87986305D01*
X142130566Y-88716885D01*
X142743110Y-89522335D01*
X143222745Y-90376643D01*
X143405073Y-90813667D01*
X143510063Y-91086792D01*
X143597608Y-91293750D01*
X143644129Y-91382408D01*
X143741546Y-91403793D01*
X143980326Y-91425970D01*
X144332517Y-91447224D01*
X144770166Y-91465840D01*
X145218475Y-91479025D01*
X145804049Y-91495767D01*
X146259557Y-91517626D01*
X146624264Y-91548969D01*
X146937436Y-91594161D01*
X147238337Y-91657569D01*
X147545333Y-91737751D01*
X148713568Y-92141587D01*
X149777696Y-92677853D01*
X150742509Y-93349310D01*
X151441773Y-93981327D01*
X152238559Y-94898444D01*
X152881530Y-95885757D01*
X153369230Y-96939735D01*
X153700202Y-98056844D01*
X153872989Y-99233552D01*
X153900152Y-99943323D01*
X153884304Y-100649382D01*
X153829816Y-101256620D01*
X153726634Y-101833118D01*
X153564707Y-102446956D01*
X153498569Y-102663259D01*
X153068398Y-103766415D01*
X152500727Y-104788099D01*
X151807488Y-105714892D01*
X151000608Y-106533375D01*
X150092017Y-107230129D01*
X149093644Y-107791733D01*
X148837227Y-107906962D01*
X148712204Y-107962665D01*
X148602478Y-108014569D01*
X148502012Y-108062807D01*
X148404768Y-108107510D01*
X148304709Y-108148812D01*
X148195799Y-108186845D01*
X148072000Y-108221742D01*
X147927275Y-108253634D01*
X147755588Y-108282655D01*
X147550902Y-108308937D01*
X147307178Y-108332612D01*
X147018381Y-108353813D01*
X146678474Y-108372673D01*
X146281419Y-108389324D01*
X145821179Y-108403898D01*
X145291718Y-108416528D01*
X144686998Y-108427347D01*
X144000982Y-108436486D01*
X143227634Y-108444079D01*
X142360916Y-108450258D01*
X141394791Y-108455156D01*
X140323223Y-108458905D01*
X139140174Y-108461637D01*
X137839607Y-108463485D01*
X136415485Y-108464581D01*
X134861772Y-108465059D01*
X133172430Y-108465050D01*
X131341422Y-108464686D01*
X129362712Y-108464102D01*
X127230262Y-108463428D01*
X124938035Y-108462798D01*
X123525620Y-108462504D01*
X100089667Y-108458341D01*
X99324358Y-108260454D01*
X98198271Y-107883964D01*
X97149217Y-107361195D01*
X96187317Y-106701422D01*
X96165657Y-106681694D01*
X104804797Y-106681694D01*
X104859848Y-107065250D01*
X104984541Y-107345070D01*
X105146718Y-107481808D01*
X105374334Y-107506904D01*
X105640006Y-107443863D01*
X105855222Y-107317040D01*
X105891871Y-107276782D01*
X105967480Y-107112514D01*
X106047829Y-106835825D01*
X106117146Y-106502382D01*
X106125293Y-106452951D01*
X106144902Y-106381482D01*
X107616050Y-106381482D01*
X107693400Y-106740215D01*
X107887319Y-107052707D01*
X108195473Y-107279659D01*
X108217667Y-107289751D01*
X108543077Y-107352597D01*
X108908630Y-107303236D01*
X109242667Y-107156641D01*
X109380205Y-107046872D01*
X109605495Y-106715837D01*
X109685458Y-106348581D01*
X109626931Y-105983173D01*
X109436755Y-105657682D01*
X109121768Y-105410179D01*
X109082700Y-105390724D01*
X108724511Y-105268587D01*
X108410803Y-105282857D01*
X108106738Y-105420837D01*
X107820387Y-105682493D01*
X107657602Y-106015807D01*
X107616050Y-106381482D01*
X106144902Y-106381482D01*
X106306098Y-105793969D01*
X106614973Y-105230522D01*
X107036619Y-104776123D01*
X107555739Y-104444283D01*
X108157032Y-104248514D01*
X108677429Y-104198955D01*
X109298512Y-104277490D01*
X109865679Y-104504894D01*
X110361793Y-104864745D01*
X110769714Y-105340622D01*
X111072304Y-105916101D01*
X111252422Y-106574760D01*
X111268007Y-106681174D01*
X111368556Y-107084244D01*
X111538553Y-107362278D01*
X111760891Y-107504084D01*
X112018461Y-107498469D01*
X112282180Y-107344701D01*
X112480561Y-107064867D01*
X112556782Y-106670846D01*
X112511025Y-106161173D01*
X112457831Y-105921519D01*
X112214747Y-105187101D01*
X112180525Y-105123868D01*
X113687644Y-105123868D01*
X113718118Y-105312734D01*
X113815368Y-105479768D01*
X113887906Y-105569674D01*
X114149580Y-105777983D01*
X114429049Y-105839710D01*
X114690708Y-105768966D01*
X114898952Y-105579862D01*
X115018176Y-105286508D01*
X115033333Y-105115716D01*
X115099316Y-104848178D01*
X115270293Y-104671178D01*
X115505803Y-104588550D01*
X115765390Y-104604131D01*
X116008592Y-104721756D01*
X116194952Y-104945258D01*
X116221865Y-105003055D01*
X116273215Y-105183491D01*
X116241658Y-105348784D01*
X116134399Y-105545021D01*
X116013229Y-105863950D01*
X116032465Y-106154153D01*
X116163941Y-106390264D01*
X116379491Y-106546919D01*
X116650949Y-106598753D01*
X116950149Y-106520402D01*
X117106508Y-106420451D01*
X117374792Y-106109130D01*
X117433409Y-105947330D01*
X118773585Y-105947330D01*
X118799310Y-106092215D01*
X118867931Y-106207815D01*
X119019464Y-106362372D01*
X119253672Y-106450314D01*
X119413228Y-106477297D01*
X120033271Y-106602000D01*
X120658915Y-106802293D01*
X121216188Y-107052951D01*
X121383333Y-107149114D01*
X121725490Y-107341841D01*
X121975126Y-107428299D01*
X122166605Y-107414353D01*
X122329166Y-107310544D01*
X122471716Y-107083749D01*
X122461113Y-106871496D01*
X123850775Y-106871496D01*
X123857196Y-107167953D01*
X123978789Y-107380500D01*
X124143181Y-107511322D01*
X124328284Y-107543576D01*
X124553978Y-107469528D01*
X124840143Y-107281448D01*
X125206658Y-106971603D01*
X125336776Y-106852335D01*
X125339988Y-106849625D01*
X126889288Y-106849625D01*
X127014930Y-107148289D01*
X127134154Y-107287846D01*
X127430403Y-107488796D01*
X127740713Y-107526113D01*
X128044526Y-107398599D01*
X128112470Y-107344833D01*
X128295137Y-107100739D01*
X128379867Y-106851640D01*
X128370298Y-106731000D01*
X129596000Y-106731000D01*
X129668750Y-107056609D01*
X129860604Y-107312079D01*
X130131971Y-107480549D01*
X130443259Y-107545160D01*
X130754874Y-107489054D01*
X130996848Y-107327515D01*
X131152320Y-107080236D01*
X132412180Y-107080236D01*
X132563095Y-107316972D01*
X132613085Y-107359855D01*
X132847165Y-107504805D01*
X133038921Y-107507973D01*
X133242498Y-107366744D01*
X133282848Y-107327515D01*
X133448791Y-107111660D01*
X133467914Y-106915243D01*
X133338088Y-106699067D01*
X133243179Y-106597487D01*
X133036299Y-106415416D01*
X132879476Y-106365434D01*
X132720911Y-106444357D01*
X132597818Y-106557818D01*
X132423616Y-106819918D01*
X132412180Y-107080236D01*
X131152320Y-107080236D01*
X131172509Y-107048126D01*
X131212688Y-106734396D01*
X131134245Y-106425917D01*
X130954040Y-106162280D01*
X130688932Y-105983079D01*
X130400333Y-105926667D01*
X130117931Y-105976025D01*
X129870700Y-106147552D01*
X129843487Y-106174154D01*
X129657052Y-106422287D01*
X129596489Y-106697259D01*
X129596000Y-106731000D01*
X128370298Y-106731000D01*
X128354382Y-106530355D01*
X128186257Y-106265804D01*
X127900063Y-106088024D01*
X127716094Y-106040367D01*
X127492932Y-106026041D01*
X127324075Y-106090823D01*
X127144594Y-106248380D01*
X126932528Y-106547833D01*
X126889288Y-106849625D01*
X125339988Y-106849625D01*
X126077703Y-106227172D01*
X126812788Y-105745507D01*
X127582527Y-105387971D01*
X128427416Y-105135192D01*
X129233494Y-104988426D01*
X129639510Y-104938484D01*
X129964208Y-104921786D01*
X130280748Y-104939959D01*
X130662293Y-104994630D01*
X130831974Y-105023972D01*
X131811889Y-105262508D01*
X132698402Y-105621034D01*
X133520790Y-106114820D01*
X134308330Y-106759135D01*
X134488521Y-106931114D01*
X134851873Y-107263587D01*
X135140492Y-107465239D01*
X135378002Y-107543088D01*
X135588028Y-107504151D01*
X135794193Y-107355447D01*
X135822848Y-107327515D01*
X135968620Y-107156801D01*
X136015994Y-107001222D01*
X135963003Y-106812680D01*
X135807680Y-106543076D01*
X135789607Y-106514743D01*
X135479384Y-106120175D01*
X139054306Y-106120175D01*
X139065016Y-106473237D01*
X139203054Y-106814781D01*
X139460825Y-107097784D01*
X139770889Y-107243867D01*
X140145192Y-107276419D01*
X140519615Y-107192352D01*
X140605438Y-107152900D01*
X140881503Y-106919815D01*
X141057085Y-106578001D01*
X141110667Y-106217244D01*
X141081620Y-105992747D01*
X140973177Y-105790942D01*
X140781961Y-105578039D01*
X140563569Y-105380014D01*
X140378598Y-105281863D01*
X140155479Y-105250601D01*
X140068790Y-105249333D01*
X139678165Y-105320175D01*
X139371678Y-105510816D01*
X139160125Y-105788425D01*
X139054306Y-106120175D01*
X135479384Y-106120175D01*
X135398819Y-106017705D01*
X134872525Y-105516304D01*
X134242621Y-105031673D01*
X133541004Y-104584946D01*
X132799571Y-104197255D01*
X132050218Y-103889736D01*
X131628000Y-103757387D01*
X131132717Y-103662557D01*
X130526714Y-103609482D01*
X129863243Y-103597637D01*
X129195554Y-103626501D01*
X128576900Y-103695552D01*
X128104823Y-103791954D01*
X127040694Y-104135878D01*
X126119604Y-104557553D01*
X125331506Y-105062354D01*
X124714409Y-105605699D01*
X124277284Y-106095429D01*
X123990105Y-106515675D01*
X123850775Y-106871496D01*
X122461113Y-106871496D01*
X122458335Y-106815881D01*
X122292019Y-106524314D01*
X122170917Y-106392756D01*
X121818706Y-106112499D01*
X121383334Y-105859466D01*
X120901260Y-105645624D01*
X120408939Y-105482940D01*
X119942828Y-105383381D01*
X119539386Y-105358916D01*
X119235069Y-105421512D01*
X119225625Y-105425923D01*
X119004966Y-105583396D01*
X118851445Y-105768744D01*
X118773585Y-105947330D01*
X117433409Y-105947330D01*
X117529179Y-105682978D01*
X117573333Y-105194117D01*
X117497905Y-104641921D01*
X117287483Y-104161790D01*
X116965863Y-103766968D01*
X116794911Y-103643142D01*
X118472021Y-103643142D01*
X118502709Y-103931852D01*
X118620948Y-104125346D01*
X118818195Y-104245716D01*
X119125396Y-104305456D01*
X119459224Y-104318000D01*
X120303222Y-104399468D01*
X121152909Y-104637737D01*
X121980549Y-105023607D01*
X122426417Y-105302357D01*
X122754634Y-105499957D01*
X123006294Y-105574648D01*
X123217201Y-105530209D01*
X123388710Y-105403908D01*
X123551758Y-105185251D01*
X123570800Y-104955765D01*
X123441887Y-104696427D01*
X123182107Y-104408268D01*
X122570197Y-103930033D01*
X121838569Y-103545002D01*
X121015792Y-103264624D01*
X120130439Y-103100350D01*
X119855967Y-103075354D01*
X119463479Y-103056183D01*
X119190336Y-103066538D01*
X118988418Y-103110868D01*
X118857496Y-103167676D01*
X118594660Y-103376616D01*
X118472021Y-103643142D01*
X116794911Y-103643142D01*
X116556839Y-103470699D01*
X116084206Y-103286226D01*
X115571760Y-103226791D01*
X115043294Y-103305640D01*
X114557096Y-103515385D01*
X114134803Y-103854032D01*
X113849737Y-104289958D01*
X113709059Y-104812007D01*
X113705877Y-104840817D01*
X113687644Y-105123868D01*
X112180525Y-105123868D01*
X111877575Y-104564102D01*
X111422948Y-104010085D01*
X111383366Y-103970032D01*
X110765992Y-103460492D01*
X110097911Y-103099920D01*
X109398007Y-102883212D01*
X108685161Y-102805262D01*
X107978254Y-102860965D01*
X107296170Y-103045217D01*
X106657791Y-103352911D01*
X106081998Y-103778943D01*
X105587674Y-104318208D01*
X105193701Y-104965599D01*
X104918960Y-105716013D01*
X104918453Y-105717960D01*
X104823097Y-106223049D01*
X104804797Y-106681694D01*
X96165657Y-106681694D01*
X95322693Y-105913921D01*
X94565468Y-105007967D01*
X94308375Y-104599990D01*
X99896930Y-104599990D01*
X100027878Y-104868936D01*
X100050631Y-104894702D01*
X100282105Y-105054081D01*
X100523479Y-105044737D01*
X100737563Y-104895400D01*
X101317333Y-104895400D01*
X101389488Y-105138816D01*
X101569115Y-105354766D01*
X101800955Y-105486568D01*
X101910000Y-105503333D01*
X102177310Y-105421963D01*
X102327188Y-105280248D01*
X102477884Y-105013692D01*
X102473306Y-104833074D01*
X102926000Y-104833074D01*
X102989184Y-105102421D01*
X103151671Y-105266116D01*
X103372867Y-105313908D01*
X103612177Y-105235551D01*
X103804888Y-105054953D01*
X103917218Y-104880662D01*
X103927218Y-104748508D01*
X103852924Y-104589286D01*
X103667289Y-104395493D01*
X103434795Y-104330068D01*
X103202669Y-104380590D01*
X103018140Y-104534638D01*
X102928433Y-104779792D01*
X102926000Y-104833074D01*
X102473306Y-104833074D01*
X102471864Y-104776188D01*
X102354500Y-104584990D01*
X102104251Y-104389407D01*
X101836129Y-104352435D01*
X101578204Y-104476374D01*
X101533261Y-104517709D01*
X101387391Y-104706335D01*
X101318212Y-104879916D01*
X101317333Y-104895400D01*
X100737563Y-104895400D01*
X100770848Y-104872182D01*
X100950714Y-104604658D01*
X100970708Y-104341781D01*
X100834017Y-104110500D01*
X100666733Y-103992008D01*
X100417788Y-103903342D01*
X100212687Y-103951379D01*
X100063298Y-104067298D01*
X99909017Y-104314477D01*
X99896930Y-104599990D01*
X94308375Y-104599990D01*
X93925765Y-103992833D01*
X93782149Y-103680103D01*
X98712777Y-103680103D01*
X98816710Y-103889948D01*
X98840833Y-103912830D01*
X99109957Y-104077827D01*
X99367618Y-104078723D01*
X99639961Y-103915458D01*
X99645167Y-103911008D01*
X99776844Y-103701997D01*
X99786421Y-103451376D01*
X99693325Y-103210504D01*
X99516985Y-103030741D01*
X99286677Y-102963333D01*
X99038334Y-103031332D01*
X98845377Y-103204394D01*
X98729595Y-103436118D01*
X98712777Y-103680103D01*
X93782149Y-103680103D01*
X93413705Y-102877797D01*
X93394371Y-102826869D01*
X93121704Y-101892316D01*
X92965152Y-100869964D01*
X92924401Y-99794964D01*
X92932991Y-99669383D01*
X95600717Y-99669383D01*
X95608888Y-100270367D01*
X95645176Y-100857542D01*
X95707950Y-101395535D01*
X95795577Y-101848970D01*
X95906428Y-102182473D01*
X95951644Y-102266265D01*
X96068412Y-102397190D01*
X96196922Y-102390522D01*
X96235549Y-102371621D01*
X96298555Y-102325070D01*
X96342668Y-102246043D01*
X96351847Y-102201333D01*
X97761333Y-102201333D01*
X97832205Y-102451998D01*
X98012999Y-102623507D01*
X98255984Y-102698502D01*
X98513431Y-102659628D01*
X98692667Y-102540000D01*
X98819517Y-102355686D01*
X98862000Y-102201333D01*
X98786455Y-101978293D01*
X98596008Y-101795033D01*
X98344939Y-101698460D01*
X98274134Y-101693333D01*
X98026884Y-101768014D01*
X97837404Y-101955310D01*
X97761335Y-102200101D01*
X97761333Y-102201333D01*
X96351847Y-102201333D01*
X96371125Y-102107426D01*
X96387161Y-101882103D01*
X96394013Y-101542956D01*
X96394917Y-101062872D01*
X96394868Y-101036689D01*
X96406164Y-100705464D01*
X97384208Y-100705464D01*
X97460170Y-100893511D01*
X97657755Y-101064484D01*
X97910200Y-101085047D01*
X98165828Y-100968866D01*
X98308568Y-100785032D01*
X98353484Y-100547540D01*
X98293711Y-100329490D01*
X98232531Y-100258590D01*
X98067446Y-100195862D01*
X97837298Y-100184141D01*
X97830953Y-100184723D01*
X97568820Y-100276715D01*
X97412363Y-100464714D01*
X97384208Y-100705464D01*
X96406164Y-100705464D01*
X96426548Y-100107760D01*
X96479884Y-99700476D01*
X98880589Y-99700476D01*
X98935636Y-100459681D01*
X99153697Y-101203209D01*
X99531755Y-101918362D01*
X99782789Y-102265046D01*
X100297310Y-102790519D01*
X100887103Y-103165078D01*
X101555890Y-103390492D01*
X102307389Y-103468529D01*
X102314886Y-103468569D01*
X102696215Y-103451521D01*
X103034262Y-103403118D01*
X103225591Y-103348428D01*
X103488733Y-103172097D01*
X103627577Y-102935184D01*
X103623556Y-102675831D01*
X103590985Y-102597956D01*
X103477967Y-102432973D01*
X103323096Y-102327647D01*
X103089450Y-102269460D01*
X102740106Y-102245890D01*
X102545000Y-102243279D01*
X102143702Y-102229443D01*
X101849722Y-102184380D01*
X101602208Y-102096673D01*
X101504339Y-102048024D01*
X101234417Y-101858037D01*
X104034513Y-101858037D01*
X104105145Y-102140050D01*
X104263357Y-102399796D01*
X104495991Y-102592540D01*
X104567527Y-102626354D01*
X104744966Y-102690122D01*
X104860541Y-102680585D01*
X105009520Y-102587551D01*
X105023828Y-102577532D01*
X105176807Y-102381909D01*
X105199953Y-102129837D01*
X105180725Y-102074375D01*
X111058677Y-102074375D01*
X111062062Y-102332728D01*
X111220368Y-102569960D01*
X111277085Y-102618521D01*
X111467621Y-102742308D01*
X111649947Y-102781007D01*
X111870476Y-102731454D01*
X112175623Y-102590481D01*
X112248581Y-102552262D01*
X113117887Y-102175206D01*
X113988007Y-101960568D01*
X114848261Y-101908177D01*
X115687972Y-102017862D01*
X116496458Y-102289454D01*
X117123913Y-102629816D01*
X117394160Y-102803840D01*
X117568413Y-102629587D01*
X117718172Y-102397507D01*
X117716035Y-102141504D01*
X117559571Y-101847246D01*
X117404000Y-101660806D01*
X117200491Y-101423597D01*
X117097831Y-101231661D01*
X117081050Y-101021838D01*
X117135176Y-100730965D01*
X117159874Y-100630861D01*
X117305583Y-100288137D01*
X117554261Y-99923544D01*
X117859364Y-99594703D01*
X118174348Y-99359239D01*
X118196861Y-99347060D01*
X118493623Y-99248994D01*
X118869197Y-99202690D01*
X119260461Y-99208094D01*
X119604294Y-99265154D01*
X119803521Y-99348433D01*
X120083567Y-99597520D01*
X120269966Y-99895818D01*
X120349272Y-100203389D01*
X120308043Y-100480291D01*
X120227211Y-100607166D01*
X120052749Y-100718851D01*
X119839883Y-100758171D01*
X119656013Y-100721732D01*
X119576609Y-100639933D01*
X119475630Y-100508099D01*
X119310082Y-100373923D01*
X119051987Y-100287797D01*
X118807326Y-100363711D01*
X118594204Y-100594437D01*
X118546217Y-100678847D01*
X118470071Y-100992638D01*
X118537064Y-101314564D01*
X118725344Y-101614660D01*
X119013057Y-101862961D01*
X119378351Y-102029503D01*
X119560417Y-102069520D01*
X120134382Y-102082006D01*
X120624257Y-101953081D01*
X123788658Y-101953081D01*
X123851500Y-102528739D01*
X124017656Y-103064634D01*
X124275713Y-103512497D01*
X124369325Y-103622452D01*
X124617337Y-103777207D01*
X124901998Y-103791875D01*
X125172330Y-103671263D01*
X125307975Y-103533911D01*
X125335654Y-103493968D01*
X134713608Y-103493968D01*
X134719404Y-103606240D01*
X134825870Y-103727472D01*
X134941147Y-103826432D01*
X135216693Y-104002660D01*
X135436560Y-104030898D01*
X135632267Y-104052729D01*
X135862500Y-104195059D01*
X135965970Y-104283636D01*
X136233070Y-104490667D01*
X136443338Y-104561649D01*
X136631015Y-104503291D01*
X136722500Y-104431878D01*
X136853128Y-104248579D01*
X136845712Y-104041741D01*
X136695974Y-103787779D01*
X136581000Y-103651815D01*
X136413610Y-103457466D01*
X136306168Y-103315302D01*
X136284667Y-103272284D01*
X136352195Y-103206405D01*
X136527544Y-103087578D01*
X136725814Y-102968809D01*
X137166962Y-102716859D01*
X137381981Y-103157596D01*
X137571267Y-103467491D01*
X137768728Y-103618500D01*
X137993526Y-103620712D01*
X138142966Y-103558337D01*
X138284213Y-103415891D01*
X138300345Y-103195069D01*
X138192147Y-102878012D01*
X138174492Y-102840269D01*
X138096727Y-102637397D01*
X138079843Y-102503068D01*
X138087964Y-102486480D01*
X138207998Y-102442307D01*
X138433570Y-102405524D01*
X138700893Y-102381727D01*
X138946183Y-102376511D01*
X139105654Y-102395472D01*
X139109490Y-102396868D01*
X139179870Y-102448738D01*
X139183125Y-102556803D01*
X139119885Y-102769648D01*
X139114538Y-102785220D01*
X139041226Y-103102169D01*
X139085734Y-103317007D01*
X139255351Y-103455908D01*
X139307424Y-103477831D01*
X139543719Y-103525012D01*
X139720705Y-103451015D01*
X139852249Y-103241141D01*
X139952216Y-102880696D01*
X139972575Y-102772833D01*
X140029744Y-102559215D01*
X140122860Y-102469230D01*
X140229376Y-102455333D01*
X140402578Y-102481329D01*
X140633384Y-102545974D01*
X140865704Y-102629252D01*
X141043446Y-102711150D01*
X141110667Y-102769804D01*
X141061330Y-102855370D01*
X140938832Y-103015350D01*
X140899000Y-103063440D01*
X140738048Y-103332695D01*
X140690579Y-103595588D01*
X140758642Y-103808518D01*
X140859865Y-103896378D01*
X141084683Y-103952927D01*
X141301354Y-103864354D01*
X141529459Y-103621310D01*
X141578155Y-103553371D01*
X141731951Y-103356451D01*
X141859793Y-103235518D01*
X141901778Y-103217333D01*
X142015451Y-103274650D01*
X142190039Y-103417019D01*
X142380305Y-103600066D01*
X142541012Y-103779420D01*
X142626922Y-103910707D01*
X142631405Y-103933016D01*
X142563740Y-104031680D01*
X142400590Y-104163179D01*
X142356238Y-104192144D01*
X142145501Y-104389031D01*
X142055576Y-104615092D01*
X142097627Y-104826424D01*
X142172740Y-104913771D01*
X142281171Y-104974757D01*
X142423314Y-104973817D01*
X142653030Y-104907811D01*
X142728911Y-104881322D01*
X142978472Y-104805656D01*
X143163683Y-104773087D01*
X143220965Y-104779731D01*
X143290738Y-104881720D01*
X143382191Y-105087568D01*
X143427157Y-105210684D01*
X143501682Y-105443260D01*
X143513240Y-105566411D01*
X143454669Y-105630584D01*
X143361963Y-105669766D01*
X143151250Y-105812243D01*
X143084111Y-105996078D01*
X143156527Y-106179623D01*
X143364480Y-106321228D01*
X143426860Y-106342282D01*
X143867084Y-106420754D01*
X144225442Y-106383225D01*
X144393828Y-106302866D01*
X144516478Y-106177084D01*
X144570765Y-105989350D01*
X144579236Y-105773699D01*
X144497405Y-105177743D01*
X144272869Y-104556101D01*
X143925057Y-103931938D01*
X143473397Y-103328420D01*
X142937317Y-102768713D01*
X142336246Y-102275983D01*
X141689613Y-101873394D01*
X141085090Y-101607404D01*
X140229464Y-101389061D01*
X139319435Y-101305061D01*
X138393611Y-101352015D01*
X137490598Y-101526535D01*
X136649004Y-101825230D01*
X136241260Y-102032614D01*
X135861568Y-102279221D01*
X135483229Y-102575193D01*
X135146527Y-102884580D01*
X134891749Y-103171430D01*
X134789461Y-103328180D01*
X134713608Y-103493968D01*
X125335654Y-103493968D01*
X125401667Y-103398706D01*
X125438638Y-103284868D01*
X125419539Y-103136712D01*
X125345022Y-102898555D01*
X125316386Y-102814244D01*
X125197463Y-102318422D01*
X125179933Y-102015187D01*
X126282673Y-102015187D01*
X126386378Y-102346525D01*
X126541487Y-102546513D01*
X126833668Y-102753302D01*
X127129939Y-102791423D01*
X127433150Y-102660769D01*
X127614800Y-102506133D01*
X127837498Y-102209318D01*
X127898254Y-101909593D01*
X127802261Y-101576846D01*
X127782016Y-101536279D01*
X127560166Y-101265809D01*
X127268932Y-101130054D01*
X126948673Y-101134771D01*
X126639750Y-101285717D01*
X126554513Y-101361179D01*
X126338823Y-101677152D01*
X126282673Y-102015187D01*
X125179933Y-102015187D01*
X125169270Y-101830727D01*
X125232129Y-101403718D01*
X125306544Y-101211999D01*
X125648468Y-100697832D01*
X126066524Y-100334274D01*
X126565041Y-100118577D01*
X127140667Y-100047993D01*
X127746603Y-100124169D01*
X128276641Y-100347778D01*
X128718518Y-100709330D01*
X129059975Y-101199338D01*
X129254492Y-101683793D01*
X129381067Y-102042481D01*
X129508409Y-102283900D01*
X129593643Y-102369405D01*
X129902884Y-102454743D01*
X130078436Y-102407584D01*
X132240778Y-102407584D01*
X132322528Y-102551501D01*
X132361192Y-102604195D01*
X132589790Y-102800865D01*
X132782416Y-102861513D01*
X132886428Y-102865982D01*
X132989572Y-102847544D01*
X133113208Y-102792314D01*
X133278696Y-102686412D01*
X133507397Y-102515955D01*
X133820672Y-102267061D01*
X134239880Y-101925847D01*
X134308487Y-101869716D01*
X135051709Y-101346139D01*
X135903442Y-100891296D01*
X136807831Y-100533202D01*
X137216000Y-100411384D01*
X137878175Y-100284752D01*
X138634424Y-100222083D01*
X139422031Y-100223382D01*
X140178276Y-100288658D01*
X140814333Y-100410935D01*
X141808591Y-100751484D01*
X142727239Y-101222224D01*
X143555876Y-101809325D01*
X144280102Y-102498957D01*
X144885515Y-103277292D01*
X145357714Y-104130498D01*
X145682298Y-105044747D01*
X145696249Y-105099184D01*
X145808037Y-105524144D01*
X145900803Y-105813518D01*
X145989198Y-105997672D01*
X146087871Y-106106974D01*
X146211472Y-106171788D01*
X146214210Y-106172806D01*
X146497400Y-106205695D01*
X146749278Y-106076718D01*
X146870042Y-105947173D01*
X146998262Y-105655737D01*
X147026559Y-105255354D01*
X146962074Y-104768264D01*
X146811951Y-104216711D01*
X146801904Y-104190617D01*
X148330279Y-104190617D01*
X148471456Y-104397424D01*
X148476667Y-104402667D01*
X148717660Y-104552459D01*
X148964552Y-104538074D01*
X149086935Y-104466167D01*
X149259963Y-104246424D01*
X149269279Y-104003585D01*
X149120773Y-103769076D01*
X148924727Y-103603169D01*
X148769098Y-103575457D01*
X148597147Y-103685447D01*
X148515151Y-103763818D01*
X148344195Y-103990192D01*
X148330279Y-104190617D01*
X146801904Y-104190617D01*
X146583333Y-103622934D01*
X146283362Y-103009176D01*
X145919180Y-102397679D01*
X145572523Y-101906819D01*
X144972803Y-101239286D01*
X144234485Y-100613333D01*
X143386786Y-100047895D01*
X142458922Y-99561910D01*
X141480109Y-99174315D01*
X141237667Y-99097068D01*
X140939846Y-99010631D01*
X140680459Y-98948739D01*
X140420782Y-98907295D01*
X140122090Y-98882203D01*
X139745660Y-98869367D01*
X139252768Y-98864690D01*
X139036333Y-98864211D01*
X138331780Y-98873066D01*
X137747845Y-98907071D01*
X137236649Y-98974555D01*
X136750314Y-99083853D01*
X136240961Y-99243295D01*
X135704133Y-99444080D01*
X135080286Y-99728925D01*
X134454063Y-100086162D01*
X133854003Y-100493561D01*
X133308648Y-100928888D01*
X132846538Y-101369912D01*
X132496212Y-101794401D01*
X132332388Y-102070616D01*
X132245511Y-102274093D01*
X132240778Y-102407584D01*
X130078436Y-102407584D01*
X130185496Y-102378824D01*
X130360861Y-102222500D01*
X130469241Y-102053199D01*
X130514372Y-101865621D01*
X130509599Y-101593323D01*
X130503084Y-101514397D01*
X130443507Y-101154576D01*
X130340892Y-100786457D01*
X130284729Y-100641043D01*
X130073143Y-100287680D01*
X129751724Y-99900061D01*
X129362382Y-99519090D01*
X128947022Y-99185669D01*
X128547553Y-98940702D01*
X128537667Y-98935837D01*
X128281945Y-98819030D01*
X128059537Y-98745769D01*
X127816270Y-98706138D01*
X127497972Y-98690221D01*
X127183000Y-98687879D01*
X126775715Y-98692717D01*
X126481193Y-98714130D01*
X126242964Y-98762831D01*
X126004558Y-98849535D01*
X125770793Y-98955809D01*
X125098618Y-99357802D01*
X124560064Y-99863474D01*
X124156400Y-100471227D01*
X123888893Y-101179465D01*
X123840542Y-101385931D01*
X123788658Y-101953081D01*
X120624257Y-101953081D01*
X120649563Y-101946421D01*
X121086807Y-101671764D01*
X121426959Y-101267035D01*
X121484822Y-101165301D01*
X121629596Y-100743787D01*
X121681266Y-100248519D01*
X121639898Y-99747143D01*
X121505558Y-99307303D01*
X121482957Y-99261415D01*
X121113740Y-98723586D01*
X120635901Y-98301719D01*
X120071554Y-98004157D01*
X119442809Y-97839241D01*
X118771781Y-97815311D01*
X118080580Y-97940710D01*
X118025682Y-97957254D01*
X117349429Y-98250751D01*
X116776763Y-98673459D01*
X116320133Y-99212866D01*
X115991989Y-99856461D01*
X115918314Y-100075126D01*
X115775967Y-100550333D01*
X114790817Y-100559644D01*
X114285174Y-100572655D01*
X113882676Y-100606712D01*
X113517563Y-100670772D01*
X113124080Y-100773792D01*
X113043667Y-100797613D01*
X112410404Y-101019366D01*
X111886076Y-101267398D01*
X111479881Y-101532230D01*
X111201016Y-101804383D01*
X111058677Y-102074375D01*
X105180725Y-102074375D01*
X105105413Y-101857147D01*
X104905336Y-101599669D01*
X104624481Y-101399662D01*
X104439229Y-101324866D01*
X104300554Y-101348831D01*
X104208623Y-101406154D01*
X104064620Y-101598493D01*
X104034513Y-101858037D01*
X101234417Y-101858037D01*
X100977025Y-101676869D01*
X100564064Y-101194085D01*
X100280927Y-100625504D01*
X100143082Y-99996958D01*
X100133144Y-99781183D01*
X101317333Y-99781183D01*
X101391921Y-100096839D01*
X101588356Y-100389785D01*
X101865643Y-100626437D01*
X102182789Y-100773211D01*
X102498800Y-100796524D01*
X102545000Y-100786938D01*
X102737469Y-100715243D01*
X102965077Y-100602051D01*
X102968143Y-100600316D01*
X103250525Y-100354958D01*
X103407411Y-100036051D01*
X103441442Y-99680745D01*
X103355261Y-99326192D01*
X103151509Y-99009543D01*
X102838062Y-98770642D01*
X102463730Y-98660804D01*
X102097341Y-98698392D01*
X101769557Y-98863030D01*
X101511043Y-99134342D01*
X101352461Y-99491952D01*
X101317333Y-99781183D01*
X100133144Y-99781183D01*
X100132000Y-99756347D01*
X100213608Y-99171511D01*
X100447175Y-98623287D01*
X100815814Y-98135429D01*
X101302641Y-97731692D01*
X101737924Y-97497183D01*
X102182470Y-97371986D01*
X102709951Y-97326503D01*
X103254511Y-97359613D01*
X103750293Y-97470191D01*
X103916752Y-97534317D01*
X104317304Y-97776535D01*
X104724481Y-98129277D01*
X105089599Y-98543020D01*
X105363979Y-98968241D01*
X105400832Y-99044049D01*
X105486023Y-99258971D01*
X105542747Y-99489427D01*
X105577196Y-99778715D01*
X105595562Y-100170133D01*
X105601044Y-100444213D01*
X105620672Y-100984714D01*
X105666212Y-101376622D01*
X105744704Y-101639621D01*
X105863193Y-101793396D01*
X106028720Y-101857632D01*
X106108518Y-101862667D01*
X106407793Y-101813489D01*
X106631216Y-101657255D01*
X106785336Y-101380916D01*
X106876704Y-100971422D01*
X106911870Y-100415722D01*
X106912680Y-100260546D01*
X106860382Y-99469774D01*
X106701756Y-98777991D01*
X106425118Y-98143773D01*
X106221142Y-97808536D01*
X105698401Y-97168173D01*
X105078918Y-96653003D01*
X104383321Y-96271666D01*
X103632236Y-96032802D01*
X102846293Y-95945055D01*
X102046119Y-96017063D01*
X101977667Y-96030921D01*
X101186470Y-96276934D01*
X100499088Y-96655481D01*
X99920949Y-97161277D01*
X99457477Y-97789041D01*
X99114099Y-98533488D01*
X98991578Y-98938288D01*
X98880589Y-99700476D01*
X96479884Y-99700476D01*
X96532714Y-99297061D01*
X96653237Y-98836786D01*
X97557844Y-98836786D01*
X97564848Y-99067598D01*
X97624275Y-99192198D01*
X97824744Y-99370979D01*
X98081311Y-99392643D01*
X98274899Y-99319688D01*
X98405001Y-99166050D01*
X98433285Y-98942355D01*
X98359948Y-98713696D01*
X98272745Y-98606087D01*
X98054023Y-98495308D01*
X97838152Y-98518356D01*
X97660852Y-98642944D01*
X97557844Y-98836786D01*
X96653237Y-98836786D01*
X96724161Y-98565926D01*
X97011682Y-97875686D01*
X97406073Y-97187674D01*
X97515620Y-97021852D01*
X98167664Y-96201641D01*
X98923415Y-95514227D01*
X99777572Y-94962824D01*
X100724833Y-94550651D01*
X101759895Y-94280922D01*
X102130054Y-94222345D01*
X103079171Y-94178395D01*
X104027635Y-94291110D01*
X104954223Y-94549076D01*
X105837712Y-94940880D01*
X106656877Y-95455107D01*
X107390496Y-96080345D01*
X108017345Y-96805178D01*
X108516200Y-97618193D01*
X108542191Y-97670744D01*
X108810233Y-98279670D01*
X108999584Y-98866524D01*
X109131672Y-99505580D01*
X109188061Y-99909378D01*
X109248787Y-100312712D01*
X109321540Y-100586283D01*
X109418239Y-100769661D01*
X109463367Y-100823529D01*
X109709636Y-100980509D01*
X109980091Y-100985647D01*
X110232132Y-100842712D01*
X110315868Y-100748144D01*
X110430354Y-100470845D01*
X110472186Y-100053454D01*
X110441519Y-99508759D01*
X110392604Y-99195730D01*
X111866800Y-99195730D01*
X111909425Y-99471331D01*
X112063858Y-99682249D01*
X112100121Y-99714639D01*
X112328343Y-99872706D01*
X112535857Y-99901624D01*
X112791975Y-99808729D01*
X112825944Y-99791465D01*
X113068957Y-99585441D01*
X113173287Y-99315869D01*
X113133447Y-99023764D01*
X112962848Y-98768485D01*
X112693820Y-98595718D01*
X112409524Y-98562833D01*
X112150297Y-98654104D01*
X111956476Y-98853807D01*
X111868399Y-99146220D01*
X111866800Y-99195730D01*
X110392604Y-99195730D01*
X110338508Y-98849550D01*
X110290021Y-98615267D01*
X110226573Y-98405530D01*
X113918820Y-98405530D01*
X114023646Y-98673991D01*
X114103819Y-98774269D01*
X114367973Y-98950348D01*
X114657782Y-98968177D01*
X114938447Y-98827682D01*
X114994848Y-98776182D01*
X115167975Y-98503387D01*
X115202667Y-98306667D01*
X115123519Y-98009507D01*
X114994848Y-97837151D01*
X114740904Y-97672780D01*
X114482570Y-97648051D01*
X114245522Y-97735963D01*
X114055432Y-97909514D01*
X113937974Y-98141704D01*
X113918820Y-98405530D01*
X110226573Y-98405530D01*
X109985428Y-97608384D01*
X109529770Y-96661798D01*
X109469301Y-96572984D01*
X110979985Y-96572984D01*
X111005720Y-96925112D01*
X111123904Y-97190028D01*
X111330563Y-97344747D01*
X111511547Y-97375333D01*
X111701612Y-97327216D01*
X111912113Y-97210313D01*
X112083108Y-97065797D01*
X112154656Y-96934844D01*
X112154667Y-96933572D01*
X112174647Y-96851742D01*
X112772374Y-96851742D01*
X112782680Y-97093415D01*
X112954983Y-97336680D01*
X112955151Y-97336848D01*
X113115640Y-97487461D01*
X113232936Y-97531756D01*
X113383861Y-97481499D01*
X113503278Y-97420798D01*
X113746400Y-97220895D01*
X113825569Y-97025805D01*
X115562234Y-97025805D01*
X115693146Y-97272394D01*
X115710667Y-97290667D01*
X115962000Y-97438069D01*
X116223939Y-97426582D01*
X121722000Y-97426582D01*
X121786732Y-97687783D01*
X121952525Y-97843284D01*
X122176771Y-97877013D01*
X122416862Y-97772901D01*
X122484000Y-97714000D01*
X122622840Y-97487413D01*
X122644982Y-97242775D01*
X122563440Y-97028180D01*
X122391234Y-96891723D01*
X122254854Y-96867333D01*
X121973821Y-96940319D01*
X121787090Y-97140092D01*
X121722000Y-97426582D01*
X116223939Y-97426582D01*
X116246332Y-97425600D01*
X116503582Y-97284521D01*
X116682761Y-97057762D01*
X116731520Y-96798955D01*
X116663716Y-96552699D01*
X116493204Y-96363594D01*
X116233842Y-96276239D01*
X116189834Y-96274667D01*
X115900072Y-96342724D01*
X115685610Y-96518748D01*
X115566359Y-96760516D01*
X115562234Y-97025805D01*
X113825569Y-97025805D01*
X113848810Y-96968534D01*
X113802912Y-96702346D01*
X113678667Y-96528667D01*
X113431671Y-96379826D01*
X113173827Y-96391554D01*
X112939992Y-96561372D01*
X112922812Y-96582418D01*
X112772374Y-96851742D01*
X112174647Y-96851742D01*
X112204491Y-96729513D01*
X112339214Y-96431282D01*
X112497911Y-96145741D01*
X117609924Y-96145741D01*
X117679666Y-96394994D01*
X117886089Y-96611125D01*
X118145539Y-96756733D01*
X118382866Y-96748104D01*
X118631884Y-96582004D01*
X118680513Y-96535179D01*
X118873718Y-96283542D01*
X118909914Y-96048408D01*
X118840505Y-95900222D01*
X120537927Y-95900222D01*
X120553580Y-96163280D01*
X120638267Y-96342400D01*
X120834910Y-96434195D01*
X121095515Y-96433897D01*
X121347025Y-96348905D01*
X121464702Y-96258702D01*
X121597085Y-96025966D01*
X121634722Y-95758454D01*
X121572537Y-95546508D01*
X121417675Y-95411192D01*
X121191607Y-95299129D01*
X121007899Y-95258667D01*
X120853218Y-95314900D01*
X120706000Y-95428000D01*
X120590538Y-95630774D01*
X120537927Y-95900222D01*
X118840505Y-95900222D01*
X118790325Y-95793090D01*
X118708807Y-95688496D01*
X118453342Y-95482621D01*
X118187363Y-95438849D01*
X117933939Y-95553315D01*
X117716140Y-95822152D01*
X117696847Y-95858075D01*
X117609924Y-96145741D01*
X112497911Y-96145741D01*
X112536710Y-96075930D01*
X112774855Y-95700511D01*
X113031524Y-95342077D01*
X113158176Y-95189736D01*
X114288156Y-95189736D01*
X114302688Y-95338649D01*
X114418466Y-95634824D01*
X114630074Y-95839699D01*
X114895575Y-95938128D01*
X115173031Y-95914966D01*
X115420506Y-95755069D01*
X115429292Y-95745500D01*
X115616856Y-95480560D01*
X115662811Y-95230516D01*
X115589993Y-94964416D01*
X115396938Y-94669388D01*
X115143697Y-94516791D01*
X114862481Y-94512357D01*
X114585498Y-94661822D01*
X114482123Y-94767149D01*
X114330976Y-94985719D01*
X114288156Y-95189736D01*
X113158176Y-95189736D01*
X113284592Y-95037678D01*
X113290746Y-95031011D01*
X113996992Y-94371205D01*
X116499205Y-94371205D01*
X116577082Y-94657863D01*
X116752287Y-94887003D01*
X116993280Y-95035891D01*
X117268518Y-95081793D01*
X117546461Y-95001975D01*
X117704182Y-94881515D01*
X117875634Y-94606188D01*
X117877910Y-94588106D01*
X118946685Y-94588106D01*
X118962013Y-94692779D01*
X119085073Y-94983795D01*
X119295201Y-95142684D01*
X119562234Y-95159511D01*
X119856009Y-95024341D01*
X119890248Y-94998521D01*
X120070375Y-94763308D01*
X120107701Y-94486626D01*
X119998867Y-94220998D01*
X119944000Y-94158000D01*
X119694157Y-94011411D01*
X119417513Y-94021424D01*
X119146804Y-94186118D01*
X119126357Y-94205946D01*
X118977746Y-94395566D01*
X118946685Y-94588106D01*
X117877910Y-94588106D01*
X117914912Y-94294167D01*
X117834137Y-93991654D01*
X117645428Y-93744850D01*
X117368442Y-93601802D01*
X117108913Y-93611967D01*
X116836529Y-93732965D01*
X116619948Y-93927204D01*
X116550199Y-94049764D01*
X116499205Y-94371205D01*
X113996992Y-94371205D01*
X114009192Y-94359807D01*
X114790051Y-93837731D01*
X115652576Y-93454445D01*
X116616021Y-93199611D01*
X116744937Y-93176199D01*
X117720243Y-93080554D01*
X118638529Y-93143496D01*
X119507295Y-93367051D01*
X120334044Y-93753249D01*
X121126278Y-94304117D01*
X121226883Y-94387726D01*
X121932420Y-95078086D01*
X122482522Y-95827298D01*
X122884973Y-96649108D01*
X123147554Y-97557264D01*
X123205617Y-97883333D01*
X123318796Y-98255894D01*
X123512366Y-98511650D01*
X123762871Y-98636253D01*
X124046852Y-98615354D01*
X124239781Y-98515900D01*
X124391061Y-98344807D01*
X124468262Y-98082648D01*
X124470563Y-97925490D01*
X130202533Y-97925490D01*
X130319707Y-98371730D01*
X130530158Y-98744409D01*
X130782482Y-98982084D01*
X131056514Y-99076659D01*
X131332085Y-99020039D01*
X131539271Y-98861323D01*
X131675174Y-98664225D01*
X131684551Y-98459795D01*
X131674989Y-98416823D01*
X131591770Y-98050633D01*
X131563074Y-97802563D01*
X131591828Y-97629452D01*
X131680963Y-97488136D01*
X131742454Y-97422515D01*
X132024822Y-97248248D01*
X132350570Y-97210218D01*
X132661427Y-97311823D01*
X132736393Y-97364564D01*
X132854963Y-97475819D01*
X132889712Y-97587863D01*
X132851046Y-97766398D01*
X132816871Y-97872613D01*
X132756871Y-98235772D01*
X132839237Y-98517349D01*
X133060645Y-98708020D01*
X133124194Y-98735523D01*
X133442075Y-98776668D01*
X133733580Y-98664160D01*
X133977408Y-98413602D01*
X134030159Y-98301071D01*
X143396667Y-98301071D01*
X143439200Y-98532793D01*
X143579974Y-98699973D01*
X143838748Y-98813580D01*
X144235280Y-98884588D01*
X144488493Y-98907342D01*
X145254448Y-99030544D01*
X145919611Y-99282323D01*
X146477098Y-99658636D01*
X146920024Y-100155440D01*
X147089542Y-100434817D01*
X147185954Y-100739681D01*
X147234107Y-101190144D01*
X147232982Y-101769195D01*
X147199576Y-102273295D01*
X147194560Y-102527155D01*
X147252863Y-102688252D01*
X147374048Y-102809444D01*
X147640156Y-102925201D01*
X147943426Y-102908142D01*
X148206546Y-102772330D01*
X148410051Y-102503218D01*
X148479608Y-102300732D01*
X149168937Y-102300732D01*
X149184121Y-102451846D01*
X149307641Y-102608771D01*
X149328540Y-102629873D01*
X149555465Y-102764754D01*
X149788926Y-102734241D01*
X150013149Y-102540797D01*
X150028575Y-102520568D01*
X150138882Y-102343163D01*
X150143361Y-102203258D01*
X150087013Y-102077471D01*
X149899781Y-101864927D01*
X149669814Y-101789980D01*
X149442918Y-101852496D01*
X149264900Y-102052337D01*
X149251515Y-102079944D01*
X149168937Y-102300732D01*
X148479608Y-102300732D01*
X148544017Y-102113232D01*
X148607737Y-101636210D01*
X148600506Y-101105990D01*
X148521618Y-100556410D01*
X148442934Y-100278038D01*
X149124128Y-100278038D01*
X149189016Y-100515511D01*
X149344428Y-100693019D01*
X149574677Y-100762000D01*
X149743066Y-100715580D01*
X149897161Y-100630199D01*
X150048269Y-100432470D01*
X150079221Y-100175379D01*
X149988570Y-99920317D01*
X149916000Y-99830667D01*
X149713172Y-99685786D01*
X149516269Y-99692586D01*
X149318602Y-99817473D01*
X149162934Y-100029169D01*
X149124128Y-100278038D01*
X148442934Y-100278038D01*
X148370367Y-100021309D01*
X148269092Y-99773482D01*
X147914607Y-99190890D01*
X147429197Y-98671571D01*
X146844084Y-98232494D01*
X146190490Y-97890627D01*
X145499639Y-97662939D01*
X144802752Y-97566397D01*
X144260842Y-97595148D01*
X143905477Y-97700840D01*
X143619696Y-97884690D01*
X143439960Y-98116911D01*
X143396667Y-98301071D01*
X134030159Y-98301071D01*
X134152259Y-98040599D01*
X134173388Y-97966906D01*
X134225086Y-97497191D01*
X134119293Y-97056060D01*
X133851256Y-96628972D01*
X133672243Y-96433297D01*
X133194678Y-96057121D01*
X132683474Y-95845425D01*
X132142517Y-95799462D01*
X131841405Y-95843543D01*
X131283055Y-96050740D01*
X130818837Y-96395951D01*
X130463419Y-96867782D01*
X130421500Y-96946597D01*
X130232941Y-97451678D01*
X130202533Y-97925490D01*
X124470563Y-97925490D01*
X124473737Y-97708746D01*
X124409837Y-97202422D01*
X124397375Y-97130404D01*
X124288031Y-96722052D01*
X126579121Y-96722052D01*
X126586412Y-97025025D01*
X126731663Y-97253777D01*
X127017075Y-97401061D01*
X127121663Y-97426566D01*
X127243094Y-97443735D01*
X127351695Y-97429225D01*
X127469570Y-97365135D01*
X127618823Y-97233565D01*
X127821559Y-97016616D01*
X128099882Y-96696389D01*
X128270937Y-96495898D01*
X128847562Y-95920147D01*
X129515401Y-95424945D01*
X130232609Y-95036091D01*
X130957338Y-94779381D01*
X131114120Y-94743099D01*
X131430841Y-94701323D01*
X131845110Y-94679572D01*
X132285977Y-94681058D01*
X132389623Y-94685317D01*
X133197982Y-94792518D01*
X133977377Y-95036634D01*
X134740633Y-95424630D01*
X135500574Y-95963470D01*
X136270025Y-96660121D01*
X136542318Y-96940785D01*
X136910317Y-97322073D01*
X137191645Y-97583722D01*
X137408294Y-97735963D01*
X137582256Y-97789029D01*
X137735523Y-97753152D01*
X137890086Y-97638563D01*
X137939515Y-97590848D01*
X138084515Y-97392485D01*
X138131388Y-97169709D01*
X138073747Y-96905192D01*
X137905203Y-96581603D01*
X137779544Y-96405759D01*
X139417333Y-96405759D01*
X139487743Y-96639139D01*
X139662270Y-96858087D01*
X139885855Y-97005779D01*
X140028639Y-97036667D01*
X140229674Y-96995058D01*
X140474243Y-96892494D01*
X140519321Y-96867900D01*
X141528078Y-96337482D01*
X142467711Y-95944621D01*
X143359913Y-95683959D01*
X144226381Y-95550135D01*
X145088809Y-95537788D01*
X145673172Y-95594529D01*
X146577860Y-95779456D01*
X147385979Y-96077245D01*
X148130201Y-96504442D01*
X148843201Y-97077597D01*
X149111667Y-97336019D01*
X149765073Y-98077415D01*
X150252133Y-98824010D01*
X150575827Y-99581996D01*
X150739140Y-100357568D01*
X150761637Y-100762000D01*
X150773193Y-101209388D01*
X150806241Y-101511059D01*
X150866683Y-101689911D01*
X150960423Y-101768842D01*
X151023562Y-101778000D01*
X151181269Y-101710314D01*
X151287907Y-101587500D01*
X151344307Y-101385121D01*
X151379402Y-101014921D01*
X151393177Y-100477072D01*
X151393350Y-100338667D01*
X151373773Y-99653902D01*
X151309702Y-99076702D01*
X151187926Y-98548209D01*
X150995234Y-98009569D01*
X150747580Y-97461932D01*
X150305101Y-96732228D01*
X149720267Y-96060049D01*
X149015275Y-95462961D01*
X148212321Y-94958532D01*
X147333602Y-94564330D01*
X146910333Y-94424928D01*
X145943583Y-94200691D01*
X145000153Y-94107695D01*
X144047943Y-94147025D01*
X143054847Y-94319764D01*
X142108948Y-94587123D01*
X141429808Y-94836925D01*
X140821011Y-95115439D01*
X140299917Y-95410937D01*
X139883882Y-95711691D01*
X139590267Y-96005972D01*
X139436430Y-96282050D01*
X139417333Y-96405759D01*
X137779544Y-96405759D01*
X137619369Y-96181614D01*
X137259085Y-95744920D01*
X136528504Y-95014232D01*
X135701914Y-94399089D01*
X134802788Y-93910654D01*
X133854594Y-93560088D01*
X132880804Y-93358556D01*
X132143623Y-93311926D01*
X131108784Y-93389558D01*
X130126996Y-93616966D01*
X129213987Y-93988239D01*
X128385484Y-94497462D01*
X127885513Y-94912858D01*
X127362985Y-95440259D01*
X126969609Y-95922423D01*
X126707587Y-96352102D01*
X126579121Y-96722052D01*
X124288031Y-96722052D01*
X124150041Y-96206723D01*
X123751409Y-95324002D01*
X123582553Y-95063018D01*
X124989927Y-95063018D01*
X125030624Y-95322563D01*
X125174137Y-95533833D01*
X125371633Y-95665483D01*
X125602980Y-95638802D01*
X125816915Y-95506521D01*
X126001217Y-95276038D01*
X126021221Y-95011391D01*
X125908199Y-94769505D01*
X125707939Y-94609550D01*
X125461502Y-94587243D01*
X125218078Y-94700306D01*
X125113329Y-94806303D01*
X124989927Y-95063018D01*
X123582553Y-95063018D01*
X123217819Y-94499285D01*
X122565608Y-93749616D01*
X121858608Y-93133430D01*
X123754000Y-93133430D01*
X123807183Y-93310349D01*
X123936561Y-93513738D01*
X123949958Y-93529705D01*
X124061611Y-93650040D01*
X124166512Y-93710124D01*
X124315505Y-93718882D01*
X124559436Y-93685237D01*
X124699121Y-93661184D01*
X125361852Y-93616877D01*
X125990952Y-93712244D01*
X126458762Y-93893907D01*
X126762016Y-94026524D01*
X126981924Y-94048594D01*
X127162902Y-93960699D01*
X127225333Y-93904000D01*
X127380273Y-93655713D01*
X127382119Y-93393255D01*
X127244484Y-93132152D01*
X126980982Y-92887931D01*
X126605227Y-92676119D01*
X126130833Y-92512242D01*
X125972332Y-92474963D01*
X125536096Y-92400458D01*
X125165506Y-92388431D01*
X124768833Y-92438861D01*
X124591003Y-92474648D01*
X124223235Y-92598930D01*
X123942477Y-92783164D01*
X123780708Y-93002179D01*
X123754000Y-93133430D01*
X121858608Y-93133430D01*
X121811117Y-93092039D01*
X120970683Y-92543598D01*
X120060644Y-92121337D01*
X119393667Y-91910654D01*
X118822140Y-91807531D01*
X118148207Y-91754654D01*
X117431004Y-91751495D01*
X116729668Y-91797530D01*
X116103336Y-91892232D01*
X115893832Y-91941796D01*
X114837018Y-92304715D01*
X113869775Y-92798787D01*
X113003877Y-93414547D01*
X112251096Y-94142525D01*
X111623205Y-94973253D01*
X111221758Y-95699037D01*
X111050673Y-96156630D01*
X110979985Y-96572984D01*
X109469301Y-96572984D01*
X108934103Y-95786916D01*
X108209483Y-94995143D01*
X107366966Y-94297885D01*
X106417608Y-93706547D01*
X105372465Y-93232535D01*
X104919529Y-93074973D01*
X104638561Y-92990688D01*
X104384570Y-92931042D01*
X104117771Y-92891672D01*
X103798381Y-92868217D01*
X103386616Y-92856317D01*
X102883667Y-92851785D01*
X102342869Y-92852300D01*
X101931162Y-92861979D01*
X101608390Y-92884644D01*
X101334394Y-92924112D01*
X101069017Y-92984203D01*
X100851667Y-93045049D01*
X99747442Y-93445615D01*
X98767898Y-93960725D01*
X97912617Y-94590792D01*
X97181184Y-95336235D01*
X96573181Y-96197469D01*
X96088194Y-97174912D01*
X95761221Y-98137333D01*
X95675252Y-98567491D01*
X95622295Y-99089966D01*
X95600717Y-99669383D01*
X92932991Y-99669383D01*
X92999133Y-98702471D01*
X93189034Y-97627638D01*
X93449145Y-96730074D01*
X93892565Y-95648670D01*
X94435359Y-94675570D01*
X95096043Y-93784972D01*
X95893137Y-92951075D01*
X96598914Y-92341477D01*
X97448785Y-91749802D01*
X98417348Y-91232201D01*
X99465037Y-90802513D01*
X100552288Y-90474576D01*
X101134740Y-90360819D01*
X106522228Y-90360819D01*
X106599385Y-91089404D01*
X106813944Y-91783014D01*
X107151356Y-92422719D01*
X107597074Y-92989592D01*
X108136549Y-93464703D01*
X108755232Y-93829124D01*
X109438576Y-94063928D01*
X110080333Y-94148251D01*
X110339538Y-94130551D01*
X110626911Y-94075628D01*
X110647982Y-94069945D01*
X110946263Y-93925543D01*
X111177758Y-93699748D01*
X111299345Y-93439295D01*
X111308000Y-93354612D01*
X111252282Y-93168953D01*
X111115743Y-92960440D01*
X111091695Y-92933330D01*
X110961982Y-92806729D01*
X110836977Y-92743262D01*
X110660958Y-92729797D01*
X110378206Y-92753201D01*
X110343190Y-92756927D01*
X110016064Y-92780267D01*
X109768119Y-92755843D01*
X109512492Y-92669106D01*
X109333396Y-92587791D01*
X108788212Y-92243553D01*
X108359963Y-91792619D01*
X108063132Y-91257067D01*
X107912201Y-90658976D01*
X107911230Y-90643402D01*
X109382307Y-90643402D01*
X109417286Y-91000274D01*
X109572596Y-91336447D01*
X109847052Y-91618206D01*
X110080333Y-91752481D01*
X110365553Y-91850121D01*
X110612368Y-91846409D01*
X110903512Y-91739070D01*
X110924177Y-91729295D01*
X111195677Y-91522903D01*
X111296393Y-91377795D01*
X122005351Y-91377795D01*
X122018501Y-91672731D01*
X122185001Y-91930681D01*
X122251400Y-91986167D01*
X122484466Y-92159410D01*
X122928733Y-91961689D01*
X123808105Y-91645025D01*
X124694264Y-91481999D01*
X125247915Y-91453547D01*
X125818220Y-91475826D01*
X126332918Y-91559792D01*
X126837404Y-91719542D01*
X127377074Y-91969176D01*
X127945000Y-92291144D01*
X128356784Y-92530637D01*
X128658393Y-92678609D01*
X128878633Y-92740277D01*
X129046310Y-92720856D01*
X129190232Y-92625563D01*
X129278500Y-92532596D01*
X129398961Y-92329679D01*
X129402106Y-92117924D01*
X129279349Y-91881293D01*
X129022104Y-91603750D01*
X128621786Y-91269259D01*
X128588305Y-91243391D01*
X127823669Y-90733430D01*
X127045972Y-90379921D01*
X126221291Y-90171274D01*
X125315702Y-90095896D01*
X125228043Y-90095251D01*
X124581934Y-90131411D01*
X123943663Y-90234947D01*
X123346112Y-90395325D01*
X122822160Y-90602011D01*
X122404688Y-90844472D01*
X122149564Y-91081518D01*
X122005351Y-91377795D01*
X111296393Y-91377795D01*
X111404723Y-91221716D01*
X111520330Y-90884410D01*
X111519608Y-90601733D01*
X111425673Y-90379967D01*
X111258276Y-90133485D01*
X111191923Y-90057434D01*
X110847399Y-89795880D01*
X110467264Y-89697608D01*
X110063184Y-89765300D01*
X110011207Y-89785717D01*
X109678083Y-90002409D01*
X109468844Y-90299542D01*
X109382307Y-90643402D01*
X107911230Y-90643402D01*
X107895813Y-90396131D01*
X107968034Y-89717742D01*
X108187108Y-89096519D01*
X108540309Y-88554481D01*
X109014908Y-88113646D01*
X109326789Y-87920340D01*
X109771901Y-87710282D01*
X110169773Y-87589926D01*
X110599120Y-87540831D01*
X110955020Y-87538865D01*
X111608629Y-87632853D01*
X112200853Y-87875635D01*
X112717133Y-88253277D01*
X113142910Y-88751842D01*
X113463624Y-89357395D01*
X113664717Y-90056000D01*
X113680465Y-90147593D01*
X113753621Y-90525055D01*
X113841398Y-90771600D01*
X113964651Y-90925531D01*
X114144233Y-91025149D01*
X114162020Y-91032058D01*
X114446428Y-91059786D01*
X114702181Y-90935092D01*
X114897626Y-90674861D01*
X114918364Y-90628599D01*
X114980042Y-90457458D01*
X115005906Y-90291884D01*
X114995916Y-90082321D01*
X114950033Y-89779212D01*
X114917550Y-89598461D01*
X114741777Y-88892837D01*
X114481385Y-88291872D01*
X114109214Y-87740934D01*
X113840769Y-87432745D01*
X113210568Y-86876015D01*
X112509102Y-86468782D01*
X111751589Y-86214959D01*
X110953242Y-86118457D01*
X110129279Y-86183189D01*
X109542212Y-86327540D01*
X108745666Y-86662710D01*
X108054880Y-87126962D01*
X107478460Y-87710683D01*
X107025012Y-88404262D01*
X106703146Y-89198090D01*
X106597021Y-89616186D01*
X106522228Y-90360819D01*
X101134740Y-90360819D01*
X101639535Y-90262229D01*
X102687212Y-90179309D01*
X102782691Y-90178667D01*
X103252651Y-90178667D01*
X103393849Y-89691833D01*
X103788502Y-88625733D01*
X104341125Y-87607608D01*
X105054575Y-86632730D01*
X105625284Y-86000068D01*
X105767484Y-85861972D01*
X114889148Y-85861972D01*
X114949011Y-86068976D01*
X115084779Y-86270363D01*
X115161025Y-86358283D01*
X115352410Y-86551306D01*
X115510698Y-86678069D01*
X115577596Y-86707333D01*
X115690235Y-86644739D01*
X115838096Y-86490436D01*
X115866612Y-86453333D01*
X116108897Y-86245187D01*
X116395590Y-86189530D01*
X116697087Y-86286547D01*
X116902513Y-86446820D01*
X117101730Y-86733073D01*
X117141853Y-87013856D01*
X117027285Y-87262901D01*
X116762425Y-87453936D01*
X116731546Y-87467312D01*
X116481693Y-87526932D01*
X116261290Y-87519305D01*
X116095451Y-87507708D01*
X115995839Y-87608683D01*
X115955882Y-87700214D01*
X115874492Y-87961561D01*
X115818591Y-88213657D01*
X115795064Y-88398990D01*
X115833917Y-88451058D01*
X115967464Y-88403240D01*
X115991540Y-88392305D01*
X116274979Y-88347129D01*
X116551123Y-88440320D01*
X116763907Y-88648088D01*
X116811756Y-88740355D01*
X116869805Y-89041068D01*
X116769460Y-89301082D01*
X116552326Y-89504899D01*
X116351091Y-89726907D01*
X116313698Y-89978256D01*
X116442710Y-90239982D01*
X116451500Y-90250554D01*
X116513569Y-90311595D01*
X116598529Y-90357787D01*
X116730638Y-90392133D01*
X116934153Y-90417634D01*
X117233332Y-90437292D01*
X117652430Y-90454110D01*
X118215706Y-90471088D01*
X118238823Y-90471736D01*
X119049102Y-90486795D01*
X119713267Y-90479360D01*
X120253541Y-90445289D01*
X120692145Y-90380442D01*
X121051304Y-90280675D01*
X121353238Y-90141849D01*
X121620170Y-89959820D01*
X121792919Y-89809354D01*
X122121213Y-89405274D01*
X128432924Y-89405274D01*
X128452682Y-89808212D01*
X128589813Y-90168828D01*
X128849877Y-90457642D01*
X128934738Y-90515163D01*
X129143887Y-90636013D01*
X129281086Y-90676567D01*
X129418170Y-90645969D01*
X129541054Y-90592341D01*
X129773642Y-90406699D01*
X129865116Y-90133338D01*
X129831670Y-89855078D01*
X129819129Y-89550599D01*
X129936153Y-89302868D01*
X130146840Y-89140284D01*
X130415287Y-89091246D01*
X130690800Y-89175521D01*
X130847142Y-89318983D01*
X130899445Y-89532228D01*
X130853601Y-89847930D01*
X130828929Y-89941572D01*
X130811691Y-90132740D01*
X130903782Y-90302940D01*
X130981042Y-90386072D01*
X131245640Y-90566891D01*
X131517336Y-90581750D01*
X131803802Y-90430069D01*
X131932800Y-90314133D01*
X132101574Y-90126573D01*
X132187548Y-89954217D01*
X132217872Y-89724875D01*
X132220667Y-89548760D01*
X132145777Y-89012172D01*
X131936707Y-88550834D01*
X131616851Y-88178003D01*
X131209603Y-87906934D01*
X130738361Y-87750883D01*
X130226519Y-87723106D01*
X129697472Y-87836858D01*
X129416475Y-87959911D01*
X129022316Y-88237332D01*
X128723299Y-88590354D01*
X128524982Y-88989494D01*
X128432924Y-89405274D01*
X122121213Y-89405274D01*
X122149123Y-89370921D01*
X122370646Y-88873600D01*
X122461234Y-88346188D01*
X122424633Y-87817480D01*
X122264589Y-87316272D01*
X121984846Y-86871360D01*
X121673445Y-86588192D01*
X123610694Y-86588192D01*
X123671544Y-87119575D01*
X123862407Y-87599173D01*
X124164127Y-88010322D01*
X124557548Y-88336355D01*
X125023513Y-88560607D01*
X125542866Y-88666410D01*
X126096452Y-88637099D01*
X126552772Y-88504494D01*
X126991553Y-88239747D01*
X127341806Y-87847029D01*
X127586785Y-87351738D01*
X127709742Y-86779270D01*
X127712668Y-86745589D01*
X127680049Y-86163999D01*
X127492447Y-85636289D01*
X127278538Y-85342629D01*
X128749333Y-85342629D01*
X128813829Y-85675736D01*
X128983650Y-85924991D01*
X129223297Y-86073434D01*
X129497269Y-86104106D01*
X129770067Y-86000045D01*
X129896376Y-85890637D01*
X130070159Y-85607042D01*
X130082342Y-85295240D01*
X129980131Y-85020055D01*
X129782407Y-84786527D01*
X129527501Y-84680528D01*
X129256097Y-84691396D01*
X129008875Y-84808467D01*
X128826517Y-85021082D01*
X128749706Y-85318576D01*
X128749333Y-85342629D01*
X127278538Y-85342629D01*
X127160348Y-85180374D01*
X126694240Y-84814167D01*
X126529389Y-84724250D01*
X125996626Y-84545231D01*
X125461017Y-84521482D01*
X124948039Y-84641325D01*
X124483168Y-84893082D01*
X124091879Y-85265074D01*
X123799649Y-85745623D01*
X123699012Y-86021691D01*
X123610694Y-86588192D01*
X121673445Y-86588192D01*
X121589150Y-86511540D01*
X121345678Y-86370931D01*
X120845001Y-86210010D01*
X120349109Y-86201029D01*
X119887958Y-86338574D01*
X119491510Y-86617230D01*
X119392682Y-86723943D01*
X119242983Y-86991989D01*
X119178163Y-87302598D01*
X119201580Y-87596527D01*
X119316590Y-87814531D01*
X119330167Y-87827196D01*
X119586269Y-87993879D01*
X119823711Y-88005370D01*
X120079922Y-87860943D01*
X120138740Y-87811504D01*
X120345410Y-87655493D01*
X120522648Y-87564007D01*
X120572859Y-87554000D01*
X120753512Y-87622781D01*
X120942497Y-87789860D01*
X121085188Y-87996338D01*
X121129333Y-88153991D01*
X121063320Y-88416510D01*
X120896223Y-88694142D01*
X120674459Y-88918825D01*
X120559913Y-88988964D01*
X120367006Y-89040519D01*
X120049327Y-89085791D01*
X119651393Y-89122272D01*
X119217723Y-89147451D01*
X118792835Y-89158820D01*
X118421248Y-89153869D01*
X118147480Y-89130089D01*
X118125176Y-89126203D01*
X117809752Y-89067029D01*
X117865489Y-88670348D01*
X117980493Y-88073017D01*
X118154262Y-87441900D01*
X118363970Y-86852664D01*
X118516380Y-86512669D01*
X119114777Y-85495281D01*
X119770400Y-84667388D01*
X121640046Y-84667388D01*
X121765982Y-84966141D01*
X121884820Y-85105179D01*
X122162173Y-85303189D01*
X122440234Y-85334089D01*
X122733126Y-85198309D01*
X122816170Y-85133474D01*
X123013586Y-84874527D01*
X123070884Y-84580905D01*
X123000215Y-84292017D01*
X122813727Y-84047275D01*
X122523571Y-83886088D01*
X122423892Y-83861004D01*
X122222403Y-83848523D01*
X122054943Y-83923124D01*
X121894725Y-84066249D01*
X121682978Y-84365543D01*
X121640046Y-84667388D01*
X119770400Y-84667388D01*
X119818449Y-84606714D01*
X120619344Y-83851750D01*
X121509410Y-83235176D01*
X122480595Y-82761774D01*
X123524846Y-82436330D01*
X124634112Y-82263627D01*
X125701333Y-82243589D01*
X126394863Y-82293683D01*
X126985808Y-82387742D01*
X127538544Y-82541464D01*
X128117444Y-82770550D01*
X128404602Y-82902868D01*
X129171790Y-83313845D01*
X129848851Y-83783035D01*
X130492540Y-84352246D01*
X130802907Y-84669641D01*
X131553520Y-85555246D01*
X132170655Y-86482121D01*
X132664104Y-87472312D01*
X133043658Y-88547862D01*
X133319106Y-89730816D01*
X133456402Y-90644333D01*
X133515068Y-91072841D01*
X133579527Y-91452295D01*
X133642424Y-91744481D01*
X133696404Y-91911187D01*
X133702146Y-91921279D01*
X133848397Y-92043661D01*
X134137349Y-92191945D01*
X134546510Y-92354811D01*
X134605134Y-92375683D01*
X135264499Y-92629286D01*
X135803100Y-92888733D01*
X136268493Y-93178376D01*
X136481228Y-93336362D01*
X137056037Y-93690694D01*
X137680484Y-93907128D01*
X138321681Y-93979261D01*
X138946744Y-93900693D01*
X139117990Y-93849594D01*
X139604328Y-93599019D01*
X140008335Y-93224044D01*
X140314457Y-92755881D01*
X140507140Y-92225740D01*
X140570830Y-91664833D01*
X140489972Y-91104370D01*
X140488540Y-91099418D01*
X140248532Y-90556268D01*
X139885910Y-90102905D01*
X139428032Y-89753423D01*
X138902253Y-89521918D01*
X138335931Y-89422487D01*
X137756420Y-89469225D01*
X137478944Y-89548672D01*
X137232433Y-89626280D01*
X137056017Y-89661343D01*
X137002833Y-89655055D01*
X136973005Y-89557868D01*
X136925358Y-89326006D01*
X136866054Y-88992423D01*
X136801251Y-88590071D01*
X136790129Y-88517188D01*
X136630978Y-87620728D01*
X136433954Y-86828824D01*
X136179205Y-86077659D01*
X135846878Y-85303414D01*
X135687139Y-84971667D01*
X135000629Y-83764954D01*
X134181147Y-82642797D01*
X133243551Y-81616851D01*
X132202701Y-80698771D01*
X131073455Y-79900211D01*
X129870671Y-79232828D01*
X128609208Y-78708275D01*
X127303926Y-78338207D01*
X127202784Y-78316610D01*
X125984626Y-78146764D01*
X124736273Y-78132381D01*
X123481747Y-78268505D01*
X122245068Y-78550179D01*
X121050257Y-78972448D01*
X119921335Y-79530354D01*
X119239585Y-79959695D01*
X118368256Y-80630902D01*
X117538310Y-81404978D01*
X116774696Y-82252009D01*
X116102366Y-83142081D01*
X115546268Y-84045279D01*
X115166243Y-84843509D01*
X114997639Y-85285613D01*
X114905316Y-85612975D01*
X114889148Y-85861972D01*
X105767484Y-85861972D01*
X106215364Y-85427019D01*
X106770618Y-84965659D01*
X107339824Y-84580424D01*
X107971759Y-84235749D01*
X108187905Y-84131630D01*
X108884386Y-83830604D01*
X109529771Y-83614543D01*
X110176393Y-83472311D01*
X110876582Y-83392772D01*
X111682671Y-83364790D01*
X111793524Y-83364363D01*
X113083381Y-83363000D01*
X113264765Y-82939667D01*
X113757374Y-81970366D01*
X114395630Y-81004447D01*
X115157312Y-80067521D01*
X116020202Y-79185199D01*
X116962077Y-78383095D01*
X117645235Y-77890587D01*
X118945862Y-77118104D01*
X120296386Y-76502516D01*
X121685623Y-76042784D01*
X123102386Y-75737871D01*
X124535490Y-75586739D01*
X125973748Y-75588351D01*
G37*
G04 #@! TD.AperFunction*
G04 #@! TA.AperFunction,EtchedComponent*
G36*
X138581200Y-90814651D02*
G01*
X138745947Y-90933534D01*
X138864897Y-91048630D01*
X139091979Y-91336885D01*
X139163017Y-91588367D01*
X139088192Y-91918763D01*
X138893127Y-92232215D01*
X138620680Y-92466258D01*
X138529199Y-92512095D01*
X138305734Y-92599254D01*
X138153627Y-92620289D01*
X137988158Y-92574759D01*
X137831501Y-92508474D01*
X137532274Y-92300027D01*
X137326271Y-92000863D01*
X137244343Y-91662624D01*
X137251658Y-91537884D01*
X137379145Y-91186862D01*
X137636544Y-90941506D01*
X138017099Y-90807511D01*
X138137692Y-90791392D01*
X138404320Y-90776422D01*
X138581200Y-90814651D01*
G37*
G04 #@! TD.AperFunction*
G04 #@! TA.AperFunction,EtchedComponent*
G36*
X126956157Y-79624898D02*
G01*
X127250519Y-79783977D01*
X127281584Y-79813220D01*
X127429215Y-79999405D01*
X127466115Y-80195062D01*
X127449927Y-80342387D01*
X127360165Y-80592562D01*
X127197169Y-80825051D01*
X127004917Y-80988216D01*
X126860779Y-81034145D01*
X126720318Y-80997023D01*
X126518501Y-80907824D01*
X126507599Y-80902187D01*
X126286201Y-80763401D01*
X126171356Y-80604993D01*
X126129716Y-80366829D01*
X126125963Y-80213967D01*
X126151828Y-79946748D01*
X126247742Y-79780496D01*
X126312839Y-79727134D01*
X126623834Y-79604194D01*
X126956157Y-79624898D01*
G37*
G04 #@! TD.AperFunction*
G04 #@! TA.AperFunction,EtchedComponent*
G36*
X135288661Y-88019529D02*
G01*
X135506933Y-88190011D01*
X135646226Y-88424778D01*
X135673743Y-88700436D01*
X135600518Y-88921400D01*
X135487950Y-89037621D01*
X135295900Y-89169630D01*
X135089397Y-89279180D01*
X134933473Y-89328020D01*
X134911553Y-89326633D01*
X134824073Y-89294612D01*
X134715394Y-89251437D01*
X134470333Y-89070889D01*
X134331114Y-88803247D01*
X134308465Y-88501515D01*
X134413115Y-88218698D01*
X134487949Y-88127754D01*
X134746372Y-87965005D01*
X135024209Y-87936728D01*
X135288661Y-88019529D01*
G37*
G04 #@! TD.AperFunction*
G04 #@! TA.AperFunction,EtchedComponent*
G36*
X131013878Y-81351877D02*
G01*
X131081515Y-81411818D01*
X131224678Y-81604080D01*
X131289056Y-81787563D01*
X131289333Y-81797023D01*
X131220962Y-82094942D01*
X131046867Y-82370090D01*
X130826032Y-82542183D01*
X130627512Y-82622228D01*
X130492416Y-82626330D01*
X130333113Y-82555069D01*
X130315667Y-82545566D01*
X130065821Y-82344054D01*
X129949770Y-82067326D01*
X129934667Y-81871296D01*
X130005490Y-81566747D01*
X130190305Y-81345911D01*
X130447630Y-81225408D01*
X130735982Y-81221856D01*
X131013878Y-81351877D01*
G37*
G04 #@! TD.AperFunction*
G04 #@! TA.AperFunction,EtchedComponent*
G36*
X120862050Y-80933577D02*
G01*
X121089765Y-81131291D01*
X121202940Y-81447951D01*
X121214000Y-81612868D01*
X121195356Y-81856825D01*
X121113027Y-82008493D01*
X120938833Y-82136261D01*
X120716567Y-82257790D01*
X120555084Y-82290640D01*
X120378252Y-82245770D01*
X120325000Y-82224626D01*
X120048402Y-82029288D01*
X119854947Y-81732322D01*
X119817782Y-81619572D01*
X119832465Y-81363355D01*
X119976225Y-81125063D01*
X120210386Y-80945686D01*
X120496271Y-80866215D01*
X120529434Y-80865333D01*
X120862050Y-80933577D01*
G37*
G04 #@! TD.AperFunction*
G04 #@! TA.AperFunction,EtchedComponent*
G36*
X119029180Y-82364230D02*
G01*
X119281780Y-82554221D01*
X119392790Y-82726305D01*
X119500337Y-82990655D01*
X119490028Y-83197924D01*
X119353912Y-83419852D01*
X119310003Y-83473367D01*
X119065087Y-83699119D01*
X118819906Y-83769640D01*
X118535013Y-83694434D01*
X118487288Y-83671608D01*
X118224206Y-83468772D01*
X118075907Y-83207163D01*
X118037133Y-82924156D01*
X118102629Y-82657125D01*
X118267136Y-82443444D01*
X118525397Y-82320487D01*
X118679566Y-82304667D01*
X119029180Y-82364230D01*
G37*
G04 #@! TD.AperFunction*
G04 #@! TA.AperFunction,EtchedComponent*
G36*
X132412106Y-82615755D02*
G01*
X132640092Y-82784701D01*
X132784128Y-83039258D01*
X132813333Y-83239892D01*
X132740664Y-83467462D01*
X132558518Y-83689267D01*
X132320684Y-83854625D01*
X132098588Y-83913333D01*
X131896462Y-83861888D01*
X131682145Y-83738165D01*
X131681751Y-83737855D01*
X131503220Y-83500260D01*
X131461042Y-83204722D01*
X131557480Y-82896706D01*
X131634145Y-82781751D01*
X131868162Y-82598362D01*
X132141139Y-82548335D01*
X132412106Y-82615755D01*
G37*
G04 #@! TD.AperFunction*
G04 #@! TA.AperFunction,EtchedComponent*
G36*
X117689447Y-84288181D02*
G01*
X117915214Y-84501303D01*
X118047137Y-84810698D01*
X118048995Y-84820108D01*
X118061477Y-85021597D01*
X117986876Y-85189057D01*
X117843751Y-85349274D01*
X117593280Y-85543779D01*
X117351374Y-85593818D01*
X117150000Y-85546873D01*
X116863173Y-85367604D01*
X116691961Y-85107530D01*
X116647289Y-84809293D01*
X116740080Y-84515536D01*
X116849818Y-84375151D01*
X117116676Y-84210236D01*
X117409910Y-84186203D01*
X117689447Y-84288181D01*
G37*
G04 #@! TD.AperFunction*
G04 #@! TA.AperFunction,EtchedComponent*
G36*
X135630806Y-89973102D02*
G01*
X135860686Y-90135644D01*
X136014853Y-90401537D01*
X136038342Y-90691400D01*
X135947843Y-90962234D01*
X135760047Y-91171043D01*
X135491644Y-91274829D01*
X135416728Y-91279333D01*
X135137217Y-91197168D01*
X134913582Y-91021941D01*
X134748104Y-90828946D01*
X134692493Y-90660991D01*
X134708683Y-90492774D01*
X134837585Y-90195492D01*
X135062777Y-90000939D01*
X135341454Y-89922385D01*
X135630806Y-89973102D01*
G37*
G04 #@! TD.AperFunction*
G04 #@! TA.AperFunction,EtchedComponent*
G36*
X134845299Y-86110312D02*
G01*
X134891515Y-86153151D01*
X135071518Y-86428181D01*
X135086312Y-86712876D01*
X134937119Y-86985699D01*
X134838837Y-87080807D01*
X134541538Y-87261120D01*
X134260443Y-87277201D01*
X133974879Y-87130087D01*
X133967751Y-87124521D01*
X133782588Y-86884516D01*
X133739483Y-86597858D01*
X133838392Y-86309982D01*
X133968696Y-86152957D01*
X134259449Y-85978388D01*
X134561749Y-85964176D01*
X134845299Y-86110312D01*
G37*
G04 #@! TD.AperFunction*
G04 #@! TA.AperFunction,EtchedComponent*
G36*
X133515225Y-84115350D02*
G01*
X133814375Y-84246241D01*
X134009572Y-84476001D01*
X134088387Y-84761321D01*
X134038392Y-85058891D01*
X133859303Y-85314376D01*
X133568551Y-85488945D01*
X133266250Y-85503157D01*
X132982701Y-85357021D01*
X132936485Y-85314182D01*
X132757002Y-85035455D01*
X132740847Y-84735171D01*
X132887051Y-84432762D01*
X132986059Y-84320249D01*
X133179053Y-84154770D01*
X133347009Y-84099160D01*
X133515225Y-84115350D01*
G37*
G04 #@! TD.AperFunction*
G04 #@! TA.AperFunction,EtchedComponent*
G36*
X128970362Y-80228910D02*
G01*
X129203582Y-80363478D01*
X129392000Y-80606050D01*
X129439945Y-80896498D01*
X129349003Y-81190539D01*
X129166170Y-81408140D01*
X128949547Y-81568659D01*
X128778880Y-81615896D01*
X128585375Y-81561095D01*
X128495333Y-81517774D01*
X128246011Y-81309999D01*
X128125087Y-81033008D01*
X128136750Y-80732674D01*
X128285188Y-80454871D01*
X128389266Y-80355994D01*
X128680417Y-80208225D01*
X128970362Y-80228910D01*
G37*
G04 #@! TD.AperFunction*
G04 #@! TA.AperFunction,EtchedComponent*
G36*
X125924957Y-85989619D02*
G01*
X126170848Y-86153151D01*
X126348011Y-86427612D01*
X126360548Y-86717284D01*
X126209150Y-87000720D01*
X126141200Y-87072493D01*
X125854923Y-87262243D01*
X125567825Y-87282813D01*
X125278500Y-87134159D01*
X125176915Y-87042608D01*
X125011437Y-86849613D01*
X124955827Y-86681658D01*
X124972017Y-86513441D01*
X125103234Y-86215734D01*
X125334786Y-86020482D01*
X125623188Y-85940754D01*
X125924957Y-85989619D01*
G37*
G04 #@! TD.AperFunction*
G04 #@! TA.AperFunction,EtchedComponent*
G36*
X125001169Y-79581547D02*
G01*
X125220997Y-79766466D01*
X125340947Y-80023840D01*
X125344455Y-80312085D01*
X125214958Y-80589619D01*
X125154848Y-80657515D01*
X124880801Y-80829553D01*
X124575958Y-80862415D01*
X124292031Y-80755465D01*
X124192092Y-80669376D01*
X124043952Y-80410498D01*
X124008000Y-80123844D01*
X124065993Y-79808877D01*
X124244319Y-79608804D01*
X124549493Y-79517834D01*
X124698027Y-79510667D01*
X125001169Y-79581547D01*
G37*
G04 #@! TD.AperFunction*
G04 #@! TA.AperFunction,EtchedComponent*
G36*
X122812191Y-79904712D02*
G01*
X123061335Y-80066650D01*
X123213804Y-80336242D01*
X123246000Y-80569000D01*
X123174724Y-80888735D01*
X122987768Y-81126443D01*
X122725441Y-81265372D01*
X122428053Y-81288766D01*
X122135910Y-81179874D01*
X122014485Y-81080848D01*
X121837078Y-80803312D01*
X121798033Y-80498791D01*
X121891589Y-80213895D01*
X122111985Y-79995233D01*
X122151389Y-79973202D01*
X122498249Y-79867779D01*
X122812191Y-79904712D01*
G37*
G04 #@! TD.AperFunction*
M02*
