%TF.GenerationSoftware,KiCad,Pcbnew,8.0.5*%
%TF.CreationDate,2024-11-24T11:42:19+01:00*%
%TF.ProjectId,wolkje-panel,776f6c6b-6a65-42d7-9061-6e656c2e6b69,rev?*%
%TF.SameCoordinates,Original*%
%TF.FileFunction,Drillmap*%
%TF.FilePolarity,Positive*%
%FSLAX45Y45*%
G04 Gerber Fmt 4.5, Leading zero omitted, Abs format (unit mm)*
G04 Created by KiCad (PCBNEW 8.0.5) date 2024-11-24 11:42:19*
%MOMM*%
%LPD*%
G01*
G04 APERTURE LIST*
%ADD10C,0.100000*%
%ADD11C,0.200000*%
G04 APERTURE END LIST*
D10*
X4945000Y-4075000D02*
X14055000Y-4075000D01*
X14055000Y-16925000D01*
X4945000Y-16925000D01*
X4945000Y-4075000D01*
D11*
X5200777Y-17241484D02*
X5200777Y-17041484D01*
X5200777Y-17041484D02*
X5248396Y-17041484D01*
X5248396Y-17041484D02*
X5276967Y-17051008D01*
X5276967Y-17051008D02*
X5296015Y-17070055D01*
X5296015Y-17070055D02*
X5305539Y-17089103D01*
X5305539Y-17089103D02*
X5315063Y-17127198D01*
X5315063Y-17127198D02*
X5315063Y-17155770D01*
X5315063Y-17155770D02*
X5305539Y-17193865D01*
X5305539Y-17193865D02*
X5296015Y-17212912D01*
X5296015Y-17212912D02*
X5276967Y-17231960D01*
X5276967Y-17231960D02*
X5248396Y-17241484D01*
X5248396Y-17241484D02*
X5200777Y-17241484D01*
X5400777Y-17241484D02*
X5400777Y-17108150D01*
X5400777Y-17146246D02*
X5410301Y-17127198D01*
X5410301Y-17127198D02*
X5419824Y-17117674D01*
X5419824Y-17117674D02*
X5438872Y-17108150D01*
X5438872Y-17108150D02*
X5457920Y-17108150D01*
X5524586Y-17241484D02*
X5524586Y-17108150D01*
X5524586Y-17041484D02*
X5515063Y-17051008D01*
X5515063Y-17051008D02*
X5524586Y-17060531D01*
X5524586Y-17060531D02*
X5534110Y-17051008D01*
X5534110Y-17051008D02*
X5524586Y-17041484D01*
X5524586Y-17041484D02*
X5524586Y-17060531D01*
X5648396Y-17241484D02*
X5629348Y-17231960D01*
X5629348Y-17231960D02*
X5619824Y-17212912D01*
X5619824Y-17212912D02*
X5619824Y-17041484D01*
X5753158Y-17241484D02*
X5734110Y-17231960D01*
X5734110Y-17231960D02*
X5724586Y-17212912D01*
X5724586Y-17212912D02*
X5724586Y-17041484D01*
X5981729Y-17241484D02*
X5981729Y-17041484D01*
X5981729Y-17041484D02*
X6048396Y-17184341D01*
X6048396Y-17184341D02*
X6115062Y-17041484D01*
X6115062Y-17041484D02*
X6115062Y-17241484D01*
X6296015Y-17241484D02*
X6296015Y-17136722D01*
X6296015Y-17136722D02*
X6286491Y-17117674D01*
X6286491Y-17117674D02*
X6267443Y-17108150D01*
X6267443Y-17108150D02*
X6229348Y-17108150D01*
X6229348Y-17108150D02*
X6210301Y-17117674D01*
X6296015Y-17231960D02*
X6276967Y-17241484D01*
X6276967Y-17241484D02*
X6229348Y-17241484D01*
X6229348Y-17241484D02*
X6210301Y-17231960D01*
X6210301Y-17231960D02*
X6200777Y-17212912D01*
X6200777Y-17212912D02*
X6200777Y-17193865D01*
X6200777Y-17193865D02*
X6210301Y-17174817D01*
X6210301Y-17174817D02*
X6229348Y-17165293D01*
X6229348Y-17165293D02*
X6276967Y-17165293D01*
X6276967Y-17165293D02*
X6296015Y-17155770D01*
X6391253Y-17108150D02*
X6391253Y-17308150D01*
X6391253Y-17117674D02*
X6410301Y-17108150D01*
X6410301Y-17108150D02*
X6448396Y-17108150D01*
X6448396Y-17108150D02*
X6467443Y-17117674D01*
X6467443Y-17117674D02*
X6476967Y-17127198D01*
X6476967Y-17127198D02*
X6486491Y-17146246D01*
X6486491Y-17146246D02*
X6486491Y-17203389D01*
X6486491Y-17203389D02*
X6476967Y-17222436D01*
X6476967Y-17222436D02*
X6467443Y-17231960D01*
X6467443Y-17231960D02*
X6448396Y-17241484D01*
X6448396Y-17241484D02*
X6410301Y-17241484D01*
X6410301Y-17241484D02*
X6391253Y-17231960D01*
X6572205Y-17222436D02*
X6581729Y-17231960D01*
X6581729Y-17231960D02*
X6572205Y-17241484D01*
X6572205Y-17241484D02*
X6562682Y-17231960D01*
X6562682Y-17231960D02*
X6572205Y-17222436D01*
X6572205Y-17222436D02*
X6572205Y-17241484D01*
X6572205Y-17117674D02*
X6581729Y-17127198D01*
X6581729Y-17127198D02*
X6572205Y-17136722D01*
X6572205Y-17136722D02*
X6562682Y-17127198D01*
X6562682Y-17127198D02*
X6572205Y-17117674D01*
X6572205Y-17117674D02*
X6572205Y-17136722D01*
M02*
