M48
; DRILL file {KiCad 8.0.5} date 2025-01-12T20:26:03+0100
; FORMAT={-:-/ absolute / metric / decimal}
; #@! TF.CreationDate,2025-01-12T20:26:03+01:00
; #@! TF.GenerationSoftware,Kicad,Pcbnew,8.0.5
; #@! TF.FileFunction,Plated,1,4,PTH
FMAT,2
METRIC
; #@! TA.AperFunction,Plated,PTH,ViaDrill
T1C0.400
; #@! TA.AperFunction,Plated,PTH,ComponentDrill
T2C0.600
; #@! TA.AperFunction,Plated,PTH,ComponentDrill
T3C0.800
; #@! TA.AperFunction,Plated,PTH,ComponentDrill
T4C1.000
%
G90
G05
T1
X54.5Y-94.037
X55.5Y-51.5
X55.5Y-53.5
X56.0Y-90.5
X58.5Y-90.5
X61.3Y-99.3
X61.925Y-103.3
X62.5Y-83.0
X62.9Y-59.9
X62.9Y-62.5
X63.0Y-67.6
X63.2Y-95.6
X64.6Y-99.5
X65.0Y-72.0
X65.5Y-99.2
X65.5Y-104.2
X66.0Y-50.65
X66.3Y-89.4
X66.4Y-99.5
X66.5Y-96.2
X66.561Y-97.2
X66.9Y-72.4
X67.1Y-91.25
X67.1Y-104.5
X67.53Y-103.47
X70.0Y-99.5
X70.1Y-54.9
X70.5Y-88.0
X70.627Y-71.627
X71.188Y-65.0
X72.8Y-104.15
X72.9Y-103.0
X73.0Y-88.0
X73.0Y-93.0
X73.0Y-107.0
X73.5Y-61.0
X74.5Y-91.5
X74.65Y-70.75
X74.689Y-69.686
X75.5Y-57.3
X75.5Y-62.0
X75.6Y-75.4
X75.7Y-73.73
X77.7Y-55.0
X78.3Y-57.3
X78.5Y-71.5
X78.8Y-63.5
X79.0Y-70.0
X79.0Y-89.0
X79.9Y-66.75
X79.9Y-67.75
X80.4Y-69.9
X80.716Y-68.951
X81.0Y-89.0
X81.5Y-57.0
X83.6Y-75.0
X83.6Y-76.0
X85.2Y-70.7
X85.452Y-74.523
X85.9Y-67.8
X85.9Y-68.8
X86.6Y-70.7
X87.1Y-64.9
X87.1Y-65.8
X87.1Y-66.7
X88.0Y-61.0
X88.0Y-72.05
X88.0Y-94.5
X88.0Y-99.5
X88.2Y-74.3
X88.5Y-75.5
X89.5Y-58.5
X90.47Y-65.53
X91.5Y-65.5
X92.0Y-76.9
X92.0Y-79.4
X92.2Y-60.0
X94.5Y-69.5
X94.5Y-75.5
T2
X64.973Y-107.0
X66.973Y-107.0
T3
X77.5Y-82.8
X80.0Y-94.5
X80.0Y-99.38
X82.38Y-82.8
T4
X53.0Y-56.0
X53.0Y-58.54
X53.0Y-61.08
X53.0Y-63.62
X53.0Y-66.16
X53.0Y-68.7
X53.0Y-73.3
X53.0Y-75.84
X53.0Y-78.38
X53.0Y-80.92
X53.0Y-83.46
X53.0Y-86.0
X53.38Y-107.0
X55.92Y-107.0
X58.0Y-53.0
X58.0Y-55.54
X58.0Y-58.08
X58.46Y-107.0
X61.0Y-107.0
X65.0Y-53.0
X65.0Y-57.46
X65.0Y-60.0
X65.0Y-62.54
X65.0Y-65.08
X65.0Y-67.62
X66.46Y-80.0
X67.54Y-53.0
X67.54Y-57.46
X67.54Y-60.0
X67.54Y-62.54
X67.54Y-65.08
X67.54Y-67.62
X69.0Y-80.0
X70.08Y-53.0
X71.54Y-80.0
X72.62Y-53.0
X75.16Y-53.0
X77.7Y-53.0
X78.22Y-107.0
X80.24Y-53.0
X80.76Y-107.0
X82.78Y-53.0
X83.3Y-107.0
X85.84Y-107.0
X86.92Y-53.0
X88.38Y-107.0
X89.46Y-53.0
X90.92Y-107.0
X92.0Y-53.0
X93.46Y-107.0
X96.0Y-107.0
X97.0Y-54.0
X97.0Y-56.54
X97.0Y-59.08
X97.0Y-61.62
X97.0Y-65.3
X97.0Y-67.84
X97.0Y-70.38
X97.0Y-72.92
X97.0Y-75.46
X97.0Y-78.0
M30
