G04 #@! TF.GenerationSoftware,KiCad,Pcbnew,8.0.5*
G04 #@! TF.CreationDate,2024-11-24T11:45:07+01:00*
G04 #@! TF.ProjectId,wolkje-brain,776f6c6b-6a65-42d6-9272-61696e2e6b69,rev?*
G04 #@! TF.SameCoordinates,Original*
G04 #@! TF.FileFunction,Copper,L1,Top*
G04 #@! TF.FilePolarity,Positive*
%FSLAX46Y46*%
G04 Gerber Fmt 4.6, Leading zero omitted, Abs format (unit mm)*
G04 Created by KiCad (PCBNEW 8.0.5) date 2024-11-24 11:45:07*
%MOMM*%
%LPD*%
G01*
G04 APERTURE LIST*
G04 Aperture macros list*
%AMRoundRect*
0 Rectangle with rounded corners*
0 $1 Rounding radius*
0 $2 $3 $4 $5 $6 $7 $8 $9 X,Y pos of 4 corners*
0 Add a 4 corners polygon primitive as box body*
4,1,4,$2,$3,$4,$5,$6,$7,$8,$9,$2,$3,0*
0 Add four circle primitives for the rounded corners*
1,1,$1+$1,$2,$3*
1,1,$1+$1,$4,$5*
1,1,$1+$1,$6,$7*
1,1,$1+$1,$8,$9*
0 Add four rect primitives between the rounded corners*
20,1,$1+$1,$2,$3,$4,$5,0*
20,1,$1+$1,$4,$5,$6,$7,0*
20,1,$1+$1,$6,$7,$8,$9,0*
20,1,$1+$1,$8,$9,$2,$3,0*%
G04 Aperture macros list end*
G04 #@! TA.AperFunction,SMDPad,CuDef*
%ADD10RoundRect,0.250000X0.337500X0.475000X-0.337500X0.475000X-0.337500X-0.475000X0.337500X-0.475000X0*%
G04 #@! TD*
G04 #@! TA.AperFunction,SMDPad,CuDef*
%ADD11RoundRect,0.250000X-0.475000X0.337500X-0.475000X-0.337500X0.475000X-0.337500X0.475000X0.337500X0*%
G04 #@! TD*
G04 #@! TA.AperFunction,SMDPad,CuDef*
%ADD12RoundRect,0.250000X-0.337500X-0.475000X0.337500X-0.475000X0.337500X0.475000X-0.337500X0.475000X0*%
G04 #@! TD*
G04 #@! TA.AperFunction,SMDPad,CuDef*
%ADD13R,0.450000X1.750000*%
G04 #@! TD*
G04 #@! TA.AperFunction,ComponentPad*
%ADD14R,1.700000X1.700000*%
G04 #@! TD*
G04 #@! TA.AperFunction,ComponentPad*
%ADD15O,1.700000X1.700000*%
G04 #@! TD*
G04 #@! TA.AperFunction,ComponentPad*
%ADD16R,1.200000X1.200000*%
G04 #@! TD*
G04 #@! TA.AperFunction,ComponentPad*
%ADD17C,1.200000*%
G04 #@! TD*
G04 #@! TA.AperFunction,ComponentPad*
%ADD18C,1.500000*%
G04 #@! TD*
G04 #@! TA.AperFunction,SMDPad,CuDef*
%ADD19RoundRect,0.075000X0.075000X-0.700000X0.075000X0.700000X-0.075000X0.700000X-0.075000X-0.700000X0*%
G04 #@! TD*
G04 #@! TA.AperFunction,SMDPad,CuDef*
%ADD20RoundRect,0.075000X0.700000X-0.075000X0.700000X0.075000X-0.700000X0.075000X-0.700000X-0.075000X0*%
G04 #@! TD*
G04 #@! TA.AperFunction,SMDPad,CuDef*
%ADD21RoundRect,0.250000X0.450000X-0.350000X0.450000X0.350000X-0.450000X0.350000X-0.450000X-0.350000X0*%
G04 #@! TD*
G04 #@! TA.AperFunction,SMDPad,CuDef*
%ADD22RoundRect,0.250000X0.475000X-0.337500X0.475000X0.337500X-0.475000X0.337500X-0.475000X-0.337500X0*%
G04 #@! TD*
G04 #@! TA.AperFunction,ViaPad*
%ADD23C,0.800000*%
G04 #@! TD*
G04 #@! TA.AperFunction,ViaPad*
%ADD24C,1.000000*%
G04 #@! TD*
G04 #@! TA.AperFunction,Conductor*
%ADD25C,0.250000*%
G04 #@! TD*
G04 #@! TA.AperFunction,Conductor*
%ADD26C,0.200000*%
G04 #@! TD*
G04 #@! TA.AperFunction,Conductor*
%ADD27C,0.500000*%
G04 #@! TD*
G04 #@! TA.AperFunction,Conductor*
%ADD28C,0.300000*%
G04 #@! TD*
G04 APERTURE END LIST*
D10*
X68075000Y-89000000D03*
X66000000Y-89000000D03*
D11*
X64000000Y-86962500D03*
X64000000Y-89037500D03*
D12*
X65962500Y-58000000D03*
X68037500Y-58000000D03*
X73000000Y-98000000D03*
X75075000Y-98000000D03*
D11*
X74250000Y-87962500D03*
X74250000Y-90037500D03*
D13*
X63262500Y-91400000D03*
X62612500Y-91400000D03*
X61962500Y-91400000D03*
X61312500Y-91400000D03*
X60662500Y-91400000D03*
X60012500Y-91400000D03*
X59362500Y-91400000D03*
X58712500Y-91400000D03*
X58062500Y-91400000D03*
X57412500Y-91400000D03*
X56762500Y-91400000D03*
X56112500Y-91400000D03*
X55462500Y-91400000D03*
X54812500Y-91400000D03*
X54812500Y-98600000D03*
X55462500Y-98600000D03*
X56112500Y-98600000D03*
X56762500Y-98600000D03*
X57412500Y-98600000D03*
X58062500Y-98600000D03*
X58712500Y-98600000D03*
X59362500Y-98600000D03*
X60012500Y-98600000D03*
X60662500Y-98600000D03*
X61312500Y-98600000D03*
X61962500Y-98600000D03*
X62612500Y-98600000D03*
X63262500Y-98600000D03*
D14*
X87000000Y-53000000D03*
D15*
X89540000Y-53000000D03*
X92080000Y-53000000D03*
D16*
X64500000Y-107000000D03*
D17*
X66500000Y-107000000D03*
D11*
X76430000Y-87962500D03*
X76430000Y-90037500D03*
D18*
X71500000Y-84000000D03*
X76380000Y-84000000D03*
D14*
X61000000Y-79000000D03*
D15*
X63540000Y-79000000D03*
X66080000Y-79000000D03*
D10*
X66075000Y-56000000D03*
X64000000Y-56000000D03*
D19*
X71250000Y-70675000D03*
X71750000Y-70675000D03*
X72250000Y-70675000D03*
X72750000Y-70675000D03*
X73250000Y-70675000D03*
X73750000Y-70675000D03*
X74250000Y-70675000D03*
X74750000Y-70675000D03*
X75250000Y-70675000D03*
X75750000Y-70675000D03*
X76250000Y-70675000D03*
X76750000Y-70675000D03*
X77250000Y-70675000D03*
X77750000Y-70675000D03*
X78250000Y-70675000D03*
X78750000Y-70675000D03*
D20*
X80675000Y-68750000D03*
X80675000Y-68250000D03*
X80675000Y-67750000D03*
X80675000Y-67250000D03*
X80675000Y-66750000D03*
X80675000Y-66250000D03*
X80675000Y-65750000D03*
X80675000Y-65250000D03*
X80675000Y-64750000D03*
X80675000Y-64250000D03*
X80675000Y-63750000D03*
X80675000Y-63250000D03*
X80675000Y-62750000D03*
X80675000Y-62250000D03*
X80675000Y-61750000D03*
X80675000Y-61250000D03*
D19*
X78750000Y-59325000D03*
X78250000Y-59325000D03*
X77750000Y-59325000D03*
X77250000Y-59325000D03*
X76750000Y-59325000D03*
X76250000Y-59325000D03*
X75750000Y-59325000D03*
X75250000Y-59325000D03*
X74750000Y-59325000D03*
X74250000Y-59325000D03*
X73750000Y-59325000D03*
X73250000Y-59325000D03*
X72750000Y-59325000D03*
X72250000Y-59325000D03*
X71750000Y-59325000D03*
X71250000Y-59325000D03*
D20*
X69325000Y-61250000D03*
X69325000Y-61750000D03*
X69325000Y-62250000D03*
X69325000Y-62750000D03*
X69325000Y-63250000D03*
X69325000Y-63750000D03*
X69325000Y-64250000D03*
X69325000Y-64750000D03*
X69325000Y-65250000D03*
X69325000Y-65750000D03*
X69325000Y-66250000D03*
X69325000Y-66750000D03*
X69325000Y-67250000D03*
X69325000Y-67750000D03*
X69325000Y-68250000D03*
X69325000Y-68750000D03*
D12*
X70962500Y-57000000D03*
X73037500Y-57000000D03*
D21*
X63500000Y-76250000D03*
X63500000Y-74250000D03*
X73250000Y-80000000D03*
X73250000Y-78000000D03*
D22*
X77000000Y-76037500D03*
X77000000Y-73962500D03*
D14*
X61000000Y-53000000D03*
D15*
X61000000Y-55540000D03*
X61000000Y-58080000D03*
X61000000Y-60620000D03*
D21*
X71250000Y-80000000D03*
X71250000Y-78000000D03*
D12*
X82962500Y-62000000D03*
X85037500Y-62000000D03*
X73000000Y-96000000D03*
X75075000Y-96000000D03*
D11*
X56000000Y-86962500D03*
X56000000Y-89037500D03*
D10*
X65037500Y-101000000D03*
X62962500Y-101000000D03*
X70787500Y-107000000D03*
X68712500Y-107000000D03*
X83037500Y-58000000D03*
X80962500Y-58000000D03*
D18*
X69000000Y-99000000D03*
X69000000Y-94120000D03*
D10*
X83037500Y-72000000D03*
X80962500Y-72000000D03*
D11*
X58010000Y-86962500D03*
X58010000Y-89037500D03*
X73250000Y-73962500D03*
X73250000Y-76037500D03*
D10*
X83037500Y-56000000D03*
X80962500Y-56000000D03*
D12*
X66962500Y-72000000D03*
X69037500Y-72000000D03*
D14*
X53000000Y-56000000D03*
D15*
X53000000Y-58540000D03*
X53000000Y-61080000D03*
X53000000Y-63620000D03*
X53000000Y-66160000D03*
X53000000Y-68700000D03*
D14*
X97000000Y-54000000D03*
D15*
X97000000Y-56540000D03*
X97000000Y-59080000D03*
X97000000Y-61620000D03*
D14*
X53000000Y-86000000D03*
D15*
X53000000Y-83460000D03*
X53000000Y-80920000D03*
X53000000Y-78380000D03*
X53000000Y-75840000D03*
X53000000Y-73300000D03*
D14*
X61000000Y-107000000D03*
D15*
X58460000Y-107000000D03*
X55920000Y-107000000D03*
X53380000Y-107000000D03*
D14*
X97000000Y-78000000D03*
D15*
X97000000Y-75460000D03*
X97000000Y-72920000D03*
X97000000Y-70380000D03*
X97000000Y-67840000D03*
X97000000Y-65300000D03*
D14*
X96000000Y-107000000D03*
D15*
X93460000Y-107000000D03*
X90920000Y-107000000D03*
X88380000Y-107000000D03*
X85840000Y-107000000D03*
X83300000Y-107000000D03*
X80760000Y-107000000D03*
X78220000Y-107000000D03*
D14*
X65000000Y-53000000D03*
D15*
X67540000Y-53000000D03*
X70080000Y-53000000D03*
X72620000Y-53000000D03*
X75160000Y-53000000D03*
X77700000Y-53000000D03*
X80240000Y-53000000D03*
X82780000Y-53000000D03*
D23*
X80500000Y-70500000D03*
X82250000Y-60500000D03*
D24*
X67325000Y-86750000D03*
X65675000Y-86750000D03*
X85000000Y-59500000D03*
X57750000Y-93000000D03*
X72750000Y-107000000D03*
X76750000Y-69000000D03*
X67000000Y-69500000D03*
X82675518Y-69574482D03*
X74500000Y-55750000D03*
X74500000Y-94250000D03*
X55750000Y-96750000D03*
X59000000Y-100250000D03*
X74750000Y-76037500D03*
X65000000Y-98500000D03*
D23*
X86250000Y-64000000D03*
X54250000Y-89000000D03*
X77000000Y-72500000D03*
X68824696Y-60100000D03*
X72242725Y-60556312D03*
X70987347Y-67987347D03*
X68000000Y-73500000D03*
X77387653Y-78862347D03*
X79000000Y-62250000D03*
X78749448Y-60741685D03*
X64750000Y-68475000D03*
X78750000Y-57750000D03*
X61499696Y-68474999D03*
X73000000Y-55500000D03*
X71224694Y-63724696D03*
X56880304Y-66474999D03*
X63720966Y-68478729D03*
X77750000Y-60775000D03*
X75500000Y-73000000D03*
X56077653Y-65672347D03*
X75183772Y-73948686D03*
X75250000Y-77750000D03*
X78250000Y-63250000D03*
X76250000Y-60750000D03*
X62910591Y-69203729D03*
D25*
X63500000Y-92762500D02*
X63500000Y-96612500D01*
X69925000Y-58000000D02*
X71250000Y-59325000D01*
X69037500Y-72000000D02*
X69037500Y-76042500D01*
X64000000Y-57670100D02*
X64000000Y-56000000D01*
X68037500Y-58000000D02*
X66987500Y-59050000D01*
X65000000Y-53000000D02*
X61000000Y-53000000D01*
X68037500Y-58000000D02*
X68037500Y-58287500D01*
X69037500Y-76042500D02*
X66080000Y-79000000D01*
X72250000Y-67750000D02*
X69037500Y-70962500D01*
X65962500Y-89037500D02*
X66000000Y-89000000D01*
X66500000Y-85500000D02*
X66000000Y-85000000D01*
X64000000Y-89037500D02*
X65962500Y-89037500D01*
X79575000Y-68007236D02*
X79832236Y-67750000D01*
X66987500Y-59050000D02*
X65379900Y-59050000D01*
X66000000Y-83000000D02*
X66000000Y-79080000D01*
X67540000Y-53000000D02*
X65000000Y-53000000D01*
X79582236Y-61500000D02*
X80582236Y-60500000D01*
X65379900Y-59050000D02*
X64000000Y-57670100D01*
X69037500Y-72000000D02*
X69037500Y-69037500D01*
X63262500Y-91400000D02*
X63262500Y-92525000D01*
X80962500Y-60962500D02*
X80675000Y-61250000D01*
X62612500Y-100650000D02*
X62612500Y-98600000D01*
X69037500Y-72000000D02*
X69925000Y-72000000D01*
X63262500Y-92525000D02*
X63500000Y-92762500D01*
X62612500Y-97500000D02*
X62612500Y-98600000D01*
X80500000Y-70500000D02*
X80500000Y-70000000D01*
X80500000Y-70500000D02*
X80500000Y-71537500D01*
X82250000Y-60500000D02*
X80962500Y-59212500D01*
X80500000Y-71537500D02*
X80962500Y-72000000D01*
X68037500Y-58000000D02*
X69925000Y-58000000D01*
X80500000Y-70000000D02*
X79575000Y-69075000D01*
X63262500Y-89775000D02*
X64000000Y-89037500D01*
X66000000Y-89000000D02*
X66500000Y-88500000D01*
X69037500Y-70962500D02*
X69037500Y-72000000D01*
X66000000Y-85000000D02*
X66000000Y-83000000D01*
X71250000Y-61500000D02*
X79582236Y-61500000D01*
X80500000Y-70500000D02*
X77750000Y-67750000D01*
X77750000Y-67750000D02*
X72250000Y-67750000D01*
X79575000Y-69075000D02*
X79575000Y-68007236D01*
X69925000Y-72000000D02*
X71250000Y-70675000D01*
X80582236Y-60500000D02*
X82250000Y-60500000D01*
X80962500Y-58000000D02*
X80962500Y-60962500D01*
X80962500Y-59212500D02*
X80962500Y-58000000D01*
X65000000Y-53000000D02*
X65000000Y-55000000D01*
X69037500Y-69037500D02*
X69325000Y-68750000D01*
X62962500Y-101000000D02*
X62612500Y-100650000D01*
X65000000Y-55000000D02*
X64000000Y-56000000D01*
X66500000Y-88500000D02*
X66500000Y-85500000D01*
X63500000Y-96612500D02*
X62612500Y-97500000D01*
X63262500Y-91400000D02*
X63262500Y-89775000D01*
X68037500Y-58287500D02*
X71250000Y-61500000D01*
X66000000Y-79080000D02*
X66080000Y-79000000D01*
X79832236Y-67750000D02*
X80675000Y-67750000D01*
D26*
X66962500Y-72000000D02*
X66962500Y-69537500D01*
X59362500Y-98600000D02*
X59362500Y-99887500D01*
D27*
X75075000Y-96000000D02*
X75075000Y-94825000D01*
X65462500Y-86962500D02*
X64000000Y-86962500D01*
X83037500Y-72000000D02*
X83037500Y-69936464D01*
D26*
X80675000Y-63250000D02*
X83787500Y-63250000D01*
D27*
X75075000Y-94825000D02*
X74500000Y-94250000D01*
D26*
X57287500Y-93000000D02*
X57750000Y-93000000D01*
D27*
X53962500Y-86962500D02*
X53000000Y-86000000D01*
X74287500Y-55750000D02*
X73037500Y-57000000D01*
X74500000Y-55750000D02*
X74287500Y-55750000D01*
D26*
X59362500Y-99887500D02*
X59000000Y-100250000D01*
D27*
X83037500Y-56000000D02*
X83037500Y-58000000D01*
D26*
X82675518Y-69443108D02*
X82675518Y-69574482D01*
X81482410Y-68250000D02*
X82675518Y-69443108D01*
D27*
X63287500Y-99250000D02*
X63287500Y-98600000D01*
X65037500Y-98537500D02*
X65000000Y-98500000D01*
D26*
X82787500Y-64250000D02*
X83787500Y-63250000D01*
X54812500Y-97687500D02*
X55750000Y-96750000D01*
X54812500Y-98600000D02*
X54812500Y-97687500D01*
X56762500Y-92475000D02*
X57287500Y-93000000D01*
X80675000Y-68250000D02*
X81482410Y-68250000D01*
D27*
X83037500Y-60000000D02*
X85037500Y-62000000D01*
X67080000Y-56000000D02*
X66075000Y-56000000D01*
X65037500Y-101000000D02*
X65037500Y-98537500D01*
X65675000Y-86750000D02*
X65462500Y-86962500D01*
X68075000Y-87500000D02*
X67325000Y-86750000D01*
D26*
X68250000Y-68250000D02*
X67000000Y-69500000D01*
D27*
X85037500Y-59537500D02*
X85000000Y-59500000D01*
X65037500Y-101000000D02*
X63287500Y-99250000D01*
D26*
X66962500Y-69537500D02*
X67000000Y-69500000D01*
X58712500Y-99962500D02*
X59000000Y-100250000D01*
D27*
X70080000Y-53000000D02*
X67080000Y-56000000D01*
X66075000Y-57887500D02*
X65962500Y-58000000D01*
X74250000Y-94000000D02*
X74500000Y-94250000D01*
X75075000Y-98000000D02*
X75075000Y-96000000D01*
D26*
X83787500Y-63250000D02*
X85037500Y-62000000D01*
X69325000Y-68250000D02*
X68250000Y-68250000D01*
X74750000Y-76037500D02*
X73250000Y-76037500D01*
D27*
X70787500Y-107000000D02*
X72750000Y-107000000D01*
X74250000Y-90037500D02*
X74250000Y-94000000D01*
D26*
X76750000Y-70675000D02*
X76750000Y-69000000D01*
D27*
X85037500Y-62000000D02*
X85037500Y-59537500D01*
X68075000Y-89000000D02*
X68075000Y-87500000D01*
X58010000Y-86962500D02*
X53962500Y-86962500D01*
D26*
X80675000Y-64250000D02*
X82787500Y-64250000D01*
D27*
X66075000Y-56000000D02*
X66075000Y-57887500D01*
X83037500Y-69936464D02*
X82675518Y-69574482D01*
X83037500Y-58000000D02*
X83037500Y-60000000D01*
X76430000Y-90037500D02*
X74250000Y-90037500D01*
D26*
X74750000Y-76037500D02*
X77000000Y-76037500D01*
X58712500Y-98600000D02*
X58712500Y-99962500D01*
X56762500Y-91400000D02*
X56762500Y-92475000D01*
D25*
X55962500Y-89000000D02*
X56000000Y-89037500D01*
X54250000Y-89000000D02*
X55962500Y-89000000D01*
X77250000Y-72250000D02*
X77000000Y-72500000D01*
X58712500Y-89740000D02*
X58712500Y-91400000D01*
X86250000Y-56470000D02*
X86250000Y-64000000D01*
X80240000Y-53000000D02*
X82780000Y-53000000D01*
X56000000Y-89037500D02*
X58010000Y-89037500D01*
X77250000Y-70675000D02*
X77250000Y-72250000D01*
X80962500Y-53722500D02*
X80240000Y-53000000D01*
X77000000Y-73962500D02*
X77000000Y-72500000D01*
X82780000Y-53000000D02*
X86250000Y-56470000D01*
X56000000Y-89037500D02*
X54812500Y-90225000D01*
X80962500Y-56000000D02*
X80962500Y-53722500D01*
X58010000Y-89037500D02*
X58712500Y-89740000D01*
X54812500Y-90225000D02*
X54812500Y-91400000D01*
X74250000Y-72962500D02*
X73250000Y-73962500D01*
X74250000Y-70675000D02*
X74250000Y-72962500D01*
D28*
X71250000Y-80000000D02*
X71250000Y-83700000D01*
X71250000Y-83700000D02*
X71550000Y-84000000D01*
X74250000Y-86700000D02*
X71550000Y-84000000D01*
X74250000Y-87962500D02*
X74250000Y-86700000D01*
X76430000Y-87962500D02*
X76430000Y-84000000D01*
X73250000Y-80000000D02*
X73500000Y-80250000D01*
X73500000Y-80250000D02*
X73500000Y-81070000D01*
X73500000Y-81070000D02*
X76430000Y-84000000D01*
D25*
X82712500Y-61750000D02*
X80675000Y-61750000D01*
X82962500Y-62000000D02*
X82712500Y-61750000D01*
D26*
X70962500Y-57000000D02*
X71750000Y-57787500D01*
X71750000Y-57787500D02*
X71750000Y-59325000D01*
D28*
X69037500Y-99000000D02*
X69037500Y-100621689D01*
X72000000Y-99000000D02*
X73000000Y-98000000D01*
X66909189Y-102750000D02*
X62337437Y-102750000D01*
X69037500Y-99000000D02*
X72000000Y-99000000D01*
X61312500Y-101725063D02*
X61312500Y-98600000D01*
X62337437Y-102750000D02*
X61312500Y-101725063D01*
X69037500Y-100621689D02*
X66909189Y-102750000D01*
X67762500Y-107950000D02*
X65450000Y-107950000D01*
X64500000Y-107000000D02*
X62750000Y-108750000D01*
X58372943Y-108750000D02*
X57120000Y-107497057D01*
X55462500Y-104712500D02*
X55462500Y-98600000D01*
X57120000Y-107497057D02*
X57120000Y-106370000D01*
X65450000Y-107950000D02*
X64500000Y-107000000D01*
X57120000Y-106370000D02*
X55462500Y-104712500D01*
X68712500Y-107000000D02*
X67762500Y-107950000D01*
X62750000Y-108750000D02*
X58372943Y-108750000D01*
X61925000Y-98637500D02*
X61925000Y-101630456D01*
X61962500Y-98600000D02*
X61925000Y-98637500D01*
X67750000Y-95407500D02*
X69037500Y-94120000D01*
X66702082Y-102250000D02*
X67750000Y-101202082D01*
X61925000Y-101630456D02*
X62544544Y-102250000D01*
X62544544Y-102250000D02*
X66702082Y-102250000D01*
X67750000Y-101202082D02*
X67750000Y-95407500D01*
X69037500Y-94120000D02*
X71120000Y-94120000D01*
X71120000Y-94120000D02*
X73000000Y-96000000D01*
D26*
X63500000Y-76250000D02*
X63500000Y-78960000D01*
X63500000Y-78960000D02*
X63540000Y-79000000D01*
D28*
X77777943Y-51225000D02*
X76360000Y-52642943D01*
X76360000Y-52642943D02*
X76360000Y-55629774D01*
X89540000Y-53000000D02*
X87765000Y-51225000D01*
X76360000Y-55629774D02*
X73750000Y-58239774D01*
X87765000Y-51225000D02*
X77777943Y-51225000D01*
X73750000Y-58239774D02*
X73750000Y-59325000D01*
X85725000Y-51725000D02*
X79275000Y-51725000D01*
X74250000Y-58446880D02*
X74250000Y-59325000D01*
X79000000Y-52000000D02*
X79000000Y-53696880D01*
X79275000Y-51725000D02*
X79000000Y-52000000D01*
X87000000Y-53000000D02*
X85725000Y-51725000D01*
X79000000Y-53696880D02*
X74250000Y-58446880D01*
D26*
X68875000Y-60800000D02*
X69325000Y-61250000D01*
X65694314Y-60800000D02*
X68875000Y-60800000D01*
X62974314Y-58080000D02*
X65694314Y-60800000D01*
X61000000Y-58080000D02*
X62974314Y-58080000D01*
D25*
X72250000Y-59325000D02*
X72250000Y-60549037D01*
X65595354Y-60100000D02*
X61035354Y-55540000D01*
X72250000Y-60549037D02*
X72242725Y-60556312D01*
X61035354Y-55540000D02*
X61000000Y-55540000D01*
X68824696Y-60100000D02*
X65595354Y-60100000D01*
D26*
X69325000Y-66750000D02*
X70132410Y-66750000D01*
X70987347Y-67604937D02*
X70987347Y-67987347D01*
X67250000Y-74250000D02*
X63500000Y-74250000D01*
X68000000Y-73500000D02*
X67250000Y-74250000D01*
X70132410Y-66750000D02*
X70987347Y-67604937D01*
X71250000Y-73482410D02*
X71250000Y-78000000D01*
X73250000Y-71482410D02*
X71250000Y-73482410D01*
X73250000Y-70675000D02*
X73250000Y-71482410D01*
X73750000Y-71548096D02*
X73750000Y-70675000D01*
X73250000Y-78000000D02*
X72225000Y-76975000D01*
X72225000Y-73073096D02*
X73750000Y-71548096D01*
X72225000Y-76975000D02*
X72225000Y-73073096D01*
D25*
X74000000Y-103750000D02*
X62029289Y-103750000D01*
X60012500Y-101733211D02*
X60012500Y-98600000D01*
X77955000Y-99795000D02*
X74000000Y-103750000D01*
X62029289Y-103750000D02*
X60012500Y-101733211D01*
X77387653Y-78862347D02*
X77955000Y-79429694D01*
X77955000Y-79429694D02*
X77955000Y-99795000D01*
X79000000Y-62250000D02*
X80675000Y-62250000D01*
X78250000Y-59325000D02*
X78250000Y-60242237D01*
X78250000Y-60242237D02*
X78749448Y-60741685D01*
X59675000Y-84152208D02*
X60150000Y-84627208D01*
X60150000Y-84627208D02*
X60150000Y-84650000D01*
X64750000Y-68475000D02*
X59675000Y-73550000D01*
X61962500Y-86462500D02*
X61962500Y-91400000D01*
X60150000Y-84650000D02*
X61962500Y-86462500D01*
X59675000Y-73550000D02*
X59675000Y-84152208D01*
X58325000Y-71649695D02*
X58325000Y-85644900D01*
X59362500Y-92525000D02*
X59362500Y-91400000D01*
X59587500Y-92750000D02*
X59362500Y-92525000D01*
X60662500Y-91400000D02*
X60662500Y-92525000D01*
X78750000Y-57750000D02*
X78750000Y-59325000D01*
X60437500Y-92750000D02*
X59587500Y-92750000D01*
X58325000Y-85644900D02*
X59362500Y-86682400D01*
X61499696Y-68474999D02*
X58325000Y-71649695D01*
X60662500Y-92525000D02*
X60437500Y-92750000D01*
X59362500Y-86682400D02*
X59362500Y-91400000D01*
X78250000Y-72500000D02*
X78250000Y-70675000D01*
X83300000Y-77550000D02*
X78250000Y-72500000D01*
X83300000Y-107000000D02*
X83300000Y-77550000D01*
X82850000Y-104910000D02*
X82850000Y-77736396D01*
X80760000Y-107000000D02*
X82850000Y-104910000D01*
X82850000Y-77736396D02*
X77750000Y-72636396D01*
X77750000Y-72636396D02*
X77750000Y-70675000D01*
X71224694Y-63724696D02*
X71224694Y-64275306D01*
X73985000Y-54515000D02*
X73985000Y-52513299D01*
X70250000Y-65250000D02*
X69325000Y-65250000D01*
X93750000Y-50750000D02*
X97000000Y-54000000D01*
X73000000Y-55500000D02*
X73985000Y-54515000D01*
X71224694Y-64275306D02*
X70250000Y-65250000D01*
X75748299Y-50750000D02*
X93750000Y-50750000D01*
X73985000Y-52513299D02*
X75748299Y-50750000D01*
X82454900Y-73050000D02*
X81875000Y-72470100D01*
X86681368Y-73050000D02*
X82454900Y-73050000D01*
X90470000Y-76838632D02*
X86681368Y-73050000D01*
X81875000Y-69950000D02*
X80675000Y-68750000D01*
X81875000Y-72470100D02*
X81875000Y-69950000D01*
X90470000Y-104910000D02*
X90470000Y-76838632D01*
X88380000Y-107000000D02*
X90470000Y-104910000D01*
X56880304Y-66474999D02*
X57105303Y-66250000D01*
X57105303Y-66250000D02*
X69325000Y-66250000D01*
X81654160Y-66750000D02*
X91370000Y-76465840D01*
X80675000Y-66750000D02*
X81654160Y-66750000D01*
X91370000Y-104910000D02*
X93460000Y-107000000D01*
X91370000Y-76465840D02*
X91370000Y-104910000D01*
X58775000Y-84525000D02*
X59250000Y-85000000D01*
X59250000Y-85000000D02*
X59250000Y-85022792D01*
X58775000Y-72225000D02*
X58775000Y-84525000D01*
X59250000Y-85022792D02*
X60012500Y-85785292D01*
X63720966Y-68478729D02*
X62521271Y-68478729D01*
X60012500Y-85785292D02*
X60012500Y-91400000D01*
X77750000Y-59325000D02*
X77750000Y-60775000D01*
X62521271Y-68478729D02*
X58775000Y-72225000D01*
D26*
X75250000Y-70675000D02*
X75250000Y-72750000D01*
X75250000Y-72750000D02*
X75500000Y-73000000D01*
D25*
X56710000Y-62250000D02*
X53000000Y-58540000D01*
X69325000Y-62250000D02*
X56710000Y-62250000D01*
X92870000Y-66250000D02*
X80675000Y-66250000D01*
X97000000Y-70380000D02*
X92870000Y-66250000D01*
X83750000Y-104910000D02*
X85840000Y-107000000D01*
X83750000Y-77363604D02*
X83750000Y-104910000D01*
X78750000Y-72363604D02*
X83750000Y-77363604D01*
X78750000Y-70675000D02*
X78750000Y-72363604D01*
X56077653Y-65672347D02*
X56155306Y-65750000D01*
X56155306Y-65750000D02*
X69325000Y-65750000D01*
X74750000Y-73514914D02*
X74750000Y-70675000D01*
X75183772Y-73948686D02*
X74750000Y-73514914D01*
X77505000Y-80005000D02*
X77505000Y-99495000D01*
X79775305Y-62750000D02*
X80675000Y-62750000D01*
X73775000Y-103225000D02*
X62140685Y-103225000D01*
X78250000Y-63250000D02*
X79275305Y-63250000D01*
X77505000Y-99495000D02*
X73775000Y-103225000D01*
X62140685Y-103225000D02*
X60662500Y-101746815D01*
X75250000Y-77750000D02*
X77505000Y-80005000D01*
X60662500Y-101746815D02*
X60662500Y-98600000D01*
X79275305Y-63250000D02*
X79775305Y-62750000D01*
X81517764Y-67250000D02*
X80675000Y-67250000D01*
X90920000Y-76652236D02*
X81517764Y-67250000D01*
X90920000Y-107000000D02*
X90920000Y-76652236D01*
X97000000Y-67840000D02*
X95096396Y-67840000D01*
X95096396Y-67840000D02*
X93006396Y-65750000D01*
X93006396Y-65750000D02*
X80675000Y-65750000D01*
X95096396Y-59080000D02*
X88926396Y-65250000D01*
X97000000Y-59080000D02*
X95096396Y-59080000D01*
X88926396Y-65250000D02*
X80675000Y-65250000D01*
X76667764Y-60750000D02*
X77250000Y-60167764D01*
X59225000Y-72889320D02*
X59225000Y-84338604D01*
X61312500Y-86448896D02*
X61312500Y-91400000D01*
X59225000Y-84338604D02*
X59700000Y-84813604D01*
X62910591Y-69203729D02*
X59225000Y-72889320D01*
X76250000Y-60750000D02*
X76667764Y-60750000D01*
X59700000Y-84836396D02*
X61312500Y-86448896D01*
X59700000Y-84813604D02*
X59700000Y-84836396D01*
X77250000Y-60167764D02*
X77250000Y-59325000D01*
X69325000Y-67750000D02*
X56493604Y-67750000D01*
X56493604Y-67750000D02*
X54903604Y-66160000D01*
X54903604Y-66160000D02*
X53000000Y-66160000D01*
X69325000Y-62750000D02*
X56573604Y-62750000D01*
X54903604Y-61080000D02*
X53000000Y-61080000D01*
X56573604Y-62750000D02*
X54903604Y-61080000D01*
X88790000Y-64750000D02*
X80675000Y-64750000D01*
X97000000Y-56540000D02*
X88790000Y-64750000D01*
X53830000Y-97503273D02*
X53830000Y-104910000D01*
X56112500Y-91400000D02*
X56112500Y-95220773D01*
X53830000Y-104910000D02*
X55920000Y-107000000D01*
X56112500Y-95220773D02*
X53830000Y-97503273D01*
X55462500Y-91400000D02*
X55462500Y-95234377D01*
X53380000Y-97316877D02*
X53380000Y-107000000D01*
X55462500Y-95234377D02*
X53380000Y-97316877D01*
X58062500Y-104062500D02*
X58062500Y-98600000D01*
X61000000Y-107000000D02*
X58062500Y-104062500D01*
X57412500Y-105952500D02*
X58460000Y-107000000D01*
X57412500Y-98600000D02*
X57412500Y-105952500D01*
X69325000Y-67250000D02*
X56630000Y-67250000D01*
X56630000Y-67250000D02*
X53000000Y-63620000D01*
M02*
