G04 #@! TF.GenerationSoftware,KiCad,Pcbnew,8.0.5*
G04 #@! TF.CreationDate,2025-01-12T20:26:01+01:00*
G04 #@! TF.ProjectId,wolkje-brain,776f6c6b-6a65-42d6-9272-61696e2e6b69,rev?*
G04 #@! TF.SameCoordinates,Original*
G04 #@! TF.FileFunction,Soldermask,Bot*
G04 #@! TF.FilePolarity,Negative*
%FSLAX46Y46*%
G04 Gerber Fmt 4.6, Leading zero omitted, Abs format (unit mm)*
G04 Created by KiCad (PCBNEW 8.0.5) date 2025-01-12 20:26:01*
%MOMM*%
%LPD*%
G01*
G04 APERTURE LIST*
G04 Aperture macros list*
%AMRoundRect*
0 Rectangle with rounded corners*
0 $1 Rounding radius*
0 $2 $3 $4 $5 $6 $7 $8 $9 X,Y pos of 4 corners*
0 Add a 4 corners polygon primitive as box body*
4,1,4,$2,$3,$4,$5,$6,$7,$8,$9,$2,$3,0*
0 Add four circle primitives for the rounded corners*
1,1,$1+$1,$2,$3*
1,1,$1+$1,$4,$5*
1,1,$1+$1,$6,$7*
1,1,$1+$1,$8,$9*
0 Add four rect primitives between the rounded corners*
20,1,$1+$1,$2,$3,$4,$5,0*
20,1,$1+$1,$4,$5,$6,$7,0*
20,1,$1+$1,$6,$7,$8,$9,0*
20,1,$1+$1,$8,$9,$2,$3,0*%
G04 Aperture macros list end*
%ADD10C,1.200000*%
%ADD11R,1.200000X1.200000*%
%ADD12O,1.700000X1.700000*%
%ADD13R,1.700000X1.700000*%
%ADD14C,1.500000*%
%ADD15RoundRect,0.250000X-0.350000X-0.450000X0.350000X-0.450000X0.350000X0.450000X-0.350000X0.450000X0*%
%ADD16RoundRect,0.250000X0.350000X0.450000X-0.350000X0.450000X-0.350000X-0.450000X0.350000X-0.450000X0*%
G04 APERTURE END LIST*
D10*
X64972600Y-107000000D03*
D11*
X66972600Y-107000000D03*
D12*
X71540000Y-80000000D03*
X69000000Y-80000000D03*
D13*
X66460000Y-80000000D03*
D12*
X86920000Y-53000000D03*
X89460000Y-53000000D03*
D13*
X92000000Y-53000000D03*
D14*
X80000000Y-99380000D03*
X80000000Y-94500000D03*
D12*
X67540000Y-67620000D03*
X65000000Y-67620000D03*
X67540000Y-65080000D03*
X65000000Y-65080000D03*
X67540000Y-62540000D03*
X65000000Y-62540000D03*
X67540000Y-60000000D03*
X65000000Y-60000000D03*
X67540000Y-57460000D03*
D13*
X65000000Y-57460000D03*
D14*
X82380000Y-82800000D03*
X77500000Y-82800000D03*
D12*
X58000000Y-58080000D03*
X58000000Y-55540000D03*
D13*
X58000000Y-53000000D03*
D12*
X53000000Y-68700000D03*
X53000000Y-66160000D03*
X53000000Y-63620000D03*
X53000000Y-61080000D03*
X53000000Y-58540000D03*
D13*
X53000000Y-56000000D03*
D12*
X97000000Y-61620000D03*
X97000000Y-59080000D03*
X97000000Y-56540000D03*
D13*
X97000000Y-54000000D03*
D15*
X94000000Y-74000000D03*
X92000000Y-74000000D03*
D16*
X92000000Y-72000000D03*
X94000000Y-72000000D03*
D12*
X53000000Y-73300000D03*
X53000000Y-75840000D03*
X53000000Y-78380000D03*
X53000000Y-80920000D03*
X53000000Y-83460000D03*
D13*
X53000000Y-86000000D03*
D12*
X53380000Y-107000000D03*
X55920000Y-107000000D03*
X58460000Y-107000000D03*
D13*
X61000000Y-107000000D03*
D12*
X97000000Y-65300000D03*
X97000000Y-67840000D03*
X97000000Y-70380000D03*
X97000000Y-72920000D03*
X97000000Y-75460000D03*
D13*
X97000000Y-78000000D03*
D12*
X78220000Y-107000000D03*
X80760000Y-107000000D03*
X83300000Y-107000000D03*
X85840000Y-107000000D03*
X88380000Y-107000000D03*
X90920000Y-107000000D03*
X93460000Y-107000000D03*
D13*
X96000000Y-107000000D03*
D12*
X82780000Y-53000000D03*
X80240000Y-53000000D03*
X77700000Y-53000000D03*
X75160000Y-53000000D03*
X72620000Y-53000000D03*
X70080000Y-53000000D03*
X67540000Y-53000000D03*
D13*
X65000000Y-53000000D03*
M02*
