%TF.GenerationSoftware,KiCad,Pcbnew,8.0.5*%
%TF.CreationDate,2025-01-12T20:26:02+01:00*%
%TF.ProjectId,wolkje-brain,776f6c6b-6a65-42d6-9272-61696e2e6b69,rev?*%
%TF.SameCoordinates,Original*%
%TF.FileFunction,Drillmap*%
%TF.FilePolarity,Positive*%
%FSLAX45Y45*%
G04 Gerber Fmt 4.5, Leading zero omitted, Abs format (unit mm)*
G04 Created by KiCad (PCBNEW 8.0.5) date 2025-01-12 20:26:02*
%MOMM*%
%LPD*%
G01*
G04 APERTURE LIST*
%ADD10C,0.100000*%
%ADD11C,0.200000*%
G04 APERTURE END LIST*
D10*
X5000000Y-5000000D02*
X10000000Y-5000000D01*
X10000000Y-11000000D01*
X5000000Y-11000000D01*
X5000000Y-5000000D01*
D11*
X5255777Y-11316484D02*
X5255777Y-11116484D01*
X5255777Y-11116484D02*
X5303396Y-11116484D01*
X5303396Y-11116484D02*
X5331967Y-11126008D01*
X5331967Y-11126008D02*
X5351015Y-11145055D01*
X5351015Y-11145055D02*
X5360539Y-11164103D01*
X5360539Y-11164103D02*
X5370063Y-11202198D01*
X5370063Y-11202198D02*
X5370063Y-11230769D01*
X5370063Y-11230769D02*
X5360539Y-11268865D01*
X5360539Y-11268865D02*
X5351015Y-11287912D01*
X5351015Y-11287912D02*
X5331967Y-11306960D01*
X5331967Y-11306960D02*
X5303396Y-11316484D01*
X5303396Y-11316484D02*
X5255777Y-11316484D01*
X5455777Y-11316484D02*
X5455777Y-11183150D01*
X5455777Y-11221246D02*
X5465301Y-11202198D01*
X5465301Y-11202198D02*
X5474824Y-11192674D01*
X5474824Y-11192674D02*
X5493872Y-11183150D01*
X5493872Y-11183150D02*
X5512920Y-11183150D01*
X5579586Y-11316484D02*
X5579586Y-11183150D01*
X5579586Y-11116484D02*
X5570063Y-11126008D01*
X5570063Y-11126008D02*
X5579586Y-11135531D01*
X5579586Y-11135531D02*
X5589110Y-11126008D01*
X5589110Y-11126008D02*
X5579586Y-11116484D01*
X5579586Y-11116484D02*
X5579586Y-11135531D01*
X5703396Y-11316484D02*
X5684348Y-11306960D01*
X5684348Y-11306960D02*
X5674824Y-11287912D01*
X5674824Y-11287912D02*
X5674824Y-11116484D01*
X5808158Y-11316484D02*
X5789110Y-11306960D01*
X5789110Y-11306960D02*
X5779586Y-11287912D01*
X5779586Y-11287912D02*
X5779586Y-11116484D01*
X6036729Y-11316484D02*
X6036729Y-11116484D01*
X6036729Y-11116484D02*
X6103396Y-11259341D01*
X6103396Y-11259341D02*
X6170062Y-11116484D01*
X6170062Y-11116484D02*
X6170062Y-11316484D01*
X6351015Y-11316484D02*
X6351015Y-11211722D01*
X6351015Y-11211722D02*
X6341491Y-11192674D01*
X6341491Y-11192674D02*
X6322443Y-11183150D01*
X6322443Y-11183150D02*
X6284348Y-11183150D01*
X6284348Y-11183150D02*
X6265301Y-11192674D01*
X6351015Y-11306960D02*
X6331967Y-11316484D01*
X6331967Y-11316484D02*
X6284348Y-11316484D01*
X6284348Y-11316484D02*
X6265301Y-11306960D01*
X6265301Y-11306960D02*
X6255777Y-11287912D01*
X6255777Y-11287912D02*
X6255777Y-11268865D01*
X6255777Y-11268865D02*
X6265301Y-11249817D01*
X6265301Y-11249817D02*
X6284348Y-11240293D01*
X6284348Y-11240293D02*
X6331967Y-11240293D01*
X6331967Y-11240293D02*
X6351015Y-11230769D01*
X6446253Y-11183150D02*
X6446253Y-11383150D01*
X6446253Y-11192674D02*
X6465301Y-11183150D01*
X6465301Y-11183150D02*
X6503396Y-11183150D01*
X6503396Y-11183150D02*
X6522443Y-11192674D01*
X6522443Y-11192674D02*
X6531967Y-11202198D01*
X6531967Y-11202198D02*
X6541491Y-11221246D01*
X6541491Y-11221246D02*
X6541491Y-11278388D01*
X6541491Y-11278388D02*
X6531967Y-11297436D01*
X6531967Y-11297436D02*
X6522443Y-11306960D01*
X6522443Y-11306960D02*
X6503396Y-11316484D01*
X6503396Y-11316484D02*
X6465301Y-11316484D01*
X6465301Y-11316484D02*
X6446253Y-11306960D01*
X6627205Y-11297436D02*
X6636729Y-11306960D01*
X6636729Y-11306960D02*
X6627205Y-11316484D01*
X6627205Y-11316484D02*
X6617682Y-11306960D01*
X6617682Y-11306960D02*
X6627205Y-11297436D01*
X6627205Y-11297436D02*
X6627205Y-11316484D01*
X6627205Y-11192674D02*
X6636729Y-11202198D01*
X6636729Y-11202198D02*
X6627205Y-11211722D01*
X6627205Y-11211722D02*
X6617682Y-11202198D01*
X6617682Y-11202198D02*
X6627205Y-11192674D01*
X6627205Y-11192674D02*
X6627205Y-11211722D01*
M02*
