G04 #@! TF.GenerationSoftware,KiCad,Pcbnew,8.0.5*
G04 #@! TF.CreationDate,2024-11-24T11:45:07+01:00*
G04 #@! TF.ProjectId,wolkje-brain,776f6c6b-6a65-42d6-9272-61696e2e6b69,rev?*
G04 #@! TF.SameCoordinates,Original*
G04 #@! TF.FileFunction,Legend,Bot*
G04 #@! TF.FilePolarity,Positive*
%FSLAX46Y46*%
G04 Gerber Fmt 4.6, Leading zero omitted, Abs format (unit mm)*
G04 Created by KiCad (PCBNEW 8.0.5) date 2024-11-24 11:45:07*
%MOMM*%
%LPD*%
G01*
G04 APERTURE LIST*
G04 Aperture macros list*
%AMRoundRect*
0 Rectangle with rounded corners*
0 $1 Rounding radius*
0 $2 $3 $4 $5 $6 $7 $8 $9 X,Y pos of 4 corners*
0 Add a 4 corners polygon primitive as box body*
4,1,4,$2,$3,$4,$5,$6,$7,$8,$9,$2,$3,0*
0 Add four circle primitives for the rounded corners*
1,1,$1+$1,$2,$3*
1,1,$1+$1,$4,$5*
1,1,$1+$1,$6,$7*
1,1,$1+$1,$8,$9*
0 Add four rect primitives between the rounded corners*
20,1,$1+$1,$2,$3,$4,$5,0*
20,1,$1+$1,$4,$5,$6,$7,0*
20,1,$1+$1,$6,$7,$8,$9,0*
20,1,$1+$1,$8,$9,$2,$3,0*%
G04 Aperture macros list end*
%ADD10C,0.150000*%
%ADD11C,0.000000*%
%ADD12C,0.120000*%
%ADD13R,1.700000X1.700000*%
%ADD14O,1.700000X1.700000*%
%ADD15R,1.200000X1.200000*%
%ADD16C,1.200000*%
%ADD17C,1.500000*%
%ADD18RoundRect,0.250000X-0.350000X-0.450000X0.350000X-0.450000X0.350000X0.450000X-0.350000X0.450000X0*%
%ADD19RoundRect,0.250000X0.350000X0.450000X-0.350000X0.450000X-0.350000X-0.450000X0.350000X-0.450000X0*%
G04 APERTURE END LIST*
D10*
X94913220Y-55704819D02*
X94913220Y-54704819D01*
X94913220Y-54704819D02*
X94675125Y-54704819D01*
X94675125Y-54704819D02*
X94532268Y-54752438D01*
X94532268Y-54752438D02*
X94437030Y-54847676D01*
X94437030Y-54847676D02*
X94389411Y-54942914D01*
X94389411Y-54942914D02*
X94341792Y-55133390D01*
X94341792Y-55133390D02*
X94341792Y-55276247D01*
X94341792Y-55276247D02*
X94389411Y-55466723D01*
X94389411Y-55466723D02*
X94437030Y-55561961D01*
X94437030Y-55561961D02*
X94532268Y-55657200D01*
X94532268Y-55657200D02*
X94675125Y-55704819D01*
X94675125Y-55704819D02*
X94913220Y-55704819D01*
X93960839Y-55419104D02*
X93484649Y-55419104D01*
X94056077Y-55704819D02*
X93722744Y-54704819D01*
X93722744Y-54704819D02*
X93389411Y-55704819D01*
X93198934Y-54704819D02*
X92627506Y-54704819D01*
X92913220Y-55704819D02*
X92913220Y-54704819D01*
X92341791Y-55419104D02*
X91865601Y-55419104D01*
X92437029Y-55704819D02*
X92103696Y-54704819D01*
X92103696Y-54704819D02*
X91770363Y-55704819D01*
X97687030Y-52204819D02*
X98163220Y-52204819D01*
X98163220Y-52204819D02*
X98163220Y-51204819D01*
X97353696Y-51681009D02*
X97020363Y-51681009D01*
X96877506Y-52204819D02*
X97353696Y-52204819D01*
X97353696Y-52204819D02*
X97353696Y-51204819D01*
X97353696Y-51204819D02*
X96877506Y-51204819D01*
X96448934Y-52204819D02*
X96448934Y-51204819D01*
X96448934Y-51204819D02*
X96210839Y-51204819D01*
X96210839Y-51204819D02*
X96067982Y-51252438D01*
X96067982Y-51252438D02*
X95972744Y-51347676D01*
X95972744Y-51347676D02*
X95925125Y-51442914D01*
X95925125Y-51442914D02*
X95877506Y-51633390D01*
X95877506Y-51633390D02*
X95877506Y-51776247D01*
X95877506Y-51776247D02*
X95925125Y-51966723D01*
X95925125Y-51966723D02*
X95972744Y-52061961D01*
X95972744Y-52061961D02*
X96067982Y-52157200D01*
X96067982Y-52157200D02*
X96210839Y-52204819D01*
X96210839Y-52204819D02*
X96448934Y-52204819D01*
X66955827Y-81181009D02*
X67289160Y-81181009D01*
X67289160Y-81704819D02*
X67289160Y-80704819D01*
X67289160Y-80704819D02*
X66812970Y-80704819D01*
X65860589Y-81704819D02*
X66193922Y-81228628D01*
X66432017Y-81704819D02*
X66432017Y-80704819D01*
X66432017Y-80704819D02*
X66051065Y-80704819D01*
X66051065Y-80704819D02*
X65955827Y-80752438D01*
X65955827Y-80752438D02*
X65908208Y-80800057D01*
X65908208Y-80800057D02*
X65860589Y-80895295D01*
X65860589Y-80895295D02*
X65860589Y-81038152D01*
X65860589Y-81038152D02*
X65908208Y-81133390D01*
X65908208Y-81133390D02*
X65955827Y-81181009D01*
X65955827Y-81181009D02*
X66051065Y-81228628D01*
X66051065Y-81228628D02*
X66432017Y-81228628D01*
X65432017Y-81181009D02*
X65098684Y-81181009D01*
X64955827Y-81704819D02*
X65432017Y-81704819D01*
X65432017Y-81704819D02*
X65432017Y-80704819D01*
X65432017Y-80704819D02*
X64955827Y-80704819D01*
X64527255Y-81181009D02*
X64193922Y-81181009D01*
X64051065Y-81704819D02*
X64527255Y-81704819D01*
X64527255Y-81704819D02*
X64527255Y-80704819D01*
X64527255Y-80704819D02*
X64051065Y-80704819D01*
X63717731Y-80704819D02*
X63051065Y-80704819D01*
X63051065Y-80704819D02*
X63717731Y-81704819D01*
X63717731Y-81704819D02*
X63051065Y-81704819D01*
X62670112Y-81181009D02*
X62336779Y-81181009D01*
X62193922Y-81704819D02*
X62670112Y-81704819D01*
X62670112Y-81704819D02*
X62670112Y-80704819D01*
X62670112Y-80704819D02*
X62193922Y-80704819D01*
X62003446Y-81800057D02*
X61241541Y-81800057D01*
X61146302Y-80704819D02*
X60574874Y-80704819D01*
X60860588Y-81704819D02*
X60860588Y-80704819D01*
X59670112Y-81704819D02*
X60003445Y-81228628D01*
X60241540Y-81704819D02*
X60241540Y-80704819D01*
X60241540Y-80704819D02*
X59860588Y-80704819D01*
X59860588Y-80704819D02*
X59765350Y-80752438D01*
X59765350Y-80752438D02*
X59717731Y-80800057D01*
X59717731Y-80800057D02*
X59670112Y-80895295D01*
X59670112Y-80895295D02*
X59670112Y-81038152D01*
X59670112Y-81038152D02*
X59717731Y-81133390D01*
X59717731Y-81133390D02*
X59765350Y-81181009D01*
X59765350Y-81181009D02*
X59860588Y-81228628D01*
X59860588Y-81228628D02*
X60241540Y-81228628D01*
X59241540Y-81704819D02*
X59241540Y-80704819D01*
X58241541Y-80752438D02*
X58336779Y-80704819D01*
X58336779Y-80704819D02*
X58479636Y-80704819D01*
X58479636Y-80704819D02*
X58622493Y-80752438D01*
X58622493Y-80752438D02*
X58717731Y-80847676D01*
X58717731Y-80847676D02*
X58765350Y-80942914D01*
X58765350Y-80942914D02*
X58812969Y-81133390D01*
X58812969Y-81133390D02*
X58812969Y-81276247D01*
X58812969Y-81276247D02*
X58765350Y-81466723D01*
X58765350Y-81466723D02*
X58717731Y-81561961D01*
X58717731Y-81561961D02*
X58622493Y-81657200D01*
X58622493Y-81657200D02*
X58479636Y-81704819D01*
X58479636Y-81704819D02*
X58384398Y-81704819D01*
X58384398Y-81704819D02*
X58241541Y-81657200D01*
X58241541Y-81657200D02*
X58193922Y-81609580D01*
X58193922Y-81609580D02*
X58193922Y-81276247D01*
X58193922Y-81276247D02*
X58384398Y-81276247D01*
X57241541Y-80752438D02*
X57336779Y-80704819D01*
X57336779Y-80704819D02*
X57479636Y-80704819D01*
X57479636Y-80704819D02*
X57622493Y-80752438D01*
X57622493Y-80752438D02*
X57717731Y-80847676D01*
X57717731Y-80847676D02*
X57765350Y-80942914D01*
X57765350Y-80942914D02*
X57812969Y-81133390D01*
X57812969Y-81133390D02*
X57812969Y-81276247D01*
X57812969Y-81276247D02*
X57765350Y-81466723D01*
X57765350Y-81466723D02*
X57717731Y-81561961D01*
X57717731Y-81561961D02*
X57622493Y-81657200D01*
X57622493Y-81657200D02*
X57479636Y-81704819D01*
X57479636Y-81704819D02*
X57384398Y-81704819D01*
X57384398Y-81704819D02*
X57241541Y-81657200D01*
X57241541Y-81657200D02*
X57193922Y-81609580D01*
X57193922Y-81609580D02*
X57193922Y-81276247D01*
X57193922Y-81276247D02*
X57384398Y-81276247D01*
X56765350Y-81181009D02*
X56432017Y-81181009D01*
X56289160Y-81704819D02*
X56765350Y-81704819D01*
X56765350Y-81704819D02*
X56765350Y-80704819D01*
X56765350Y-80704819D02*
X56289160Y-80704819D01*
X55289160Y-81704819D02*
X55622493Y-81228628D01*
X55860588Y-81704819D02*
X55860588Y-80704819D01*
X55860588Y-80704819D02*
X55479636Y-80704819D01*
X55479636Y-80704819D02*
X55384398Y-80752438D01*
X55384398Y-80752438D02*
X55336779Y-80800057D01*
X55336779Y-80800057D02*
X55289160Y-80895295D01*
X55289160Y-80895295D02*
X55289160Y-81038152D01*
X55289160Y-81038152D02*
X55336779Y-81133390D01*
X55336779Y-81133390D02*
X55384398Y-81181009D01*
X55384398Y-81181009D02*
X55479636Y-81228628D01*
X55479636Y-81228628D02*
X55860588Y-81228628D01*
X65289160Y-77454819D02*
X65289160Y-76454819D01*
X65289160Y-76454819D02*
X64908208Y-76454819D01*
X64908208Y-76454819D02*
X64812970Y-76502438D01*
X64812970Y-76502438D02*
X64765351Y-76550057D01*
X64765351Y-76550057D02*
X64717732Y-76645295D01*
X64717732Y-76645295D02*
X64717732Y-76788152D01*
X64717732Y-76788152D02*
X64765351Y-76883390D01*
X64765351Y-76883390D02*
X64812970Y-76931009D01*
X64812970Y-76931009D02*
X64908208Y-76978628D01*
X64908208Y-76978628D02*
X65289160Y-76978628D01*
X63812970Y-77454819D02*
X64289160Y-77454819D01*
X64289160Y-77454819D02*
X64289160Y-76454819D01*
X63527255Y-77169104D02*
X63051065Y-77169104D01*
X63622493Y-77454819D02*
X63289160Y-76454819D01*
X63289160Y-76454819D02*
X62955827Y-77454819D01*
X62432017Y-76978628D02*
X62432017Y-77454819D01*
X62765350Y-76454819D02*
X62432017Y-76978628D01*
X62432017Y-76978628D02*
X62098684Y-76454819D01*
X62003446Y-77550057D02*
X61241541Y-77550057D01*
X61146302Y-76454819D02*
X60574874Y-76454819D01*
X60860588Y-77454819D02*
X60860588Y-76454819D01*
X59670112Y-77454819D02*
X60003445Y-76978628D01*
X60241540Y-77454819D02*
X60241540Y-76454819D01*
X60241540Y-76454819D02*
X59860588Y-76454819D01*
X59860588Y-76454819D02*
X59765350Y-76502438D01*
X59765350Y-76502438D02*
X59717731Y-76550057D01*
X59717731Y-76550057D02*
X59670112Y-76645295D01*
X59670112Y-76645295D02*
X59670112Y-76788152D01*
X59670112Y-76788152D02*
X59717731Y-76883390D01*
X59717731Y-76883390D02*
X59765350Y-76931009D01*
X59765350Y-76931009D02*
X59860588Y-76978628D01*
X59860588Y-76978628D02*
X60241540Y-76978628D01*
X59241540Y-77454819D02*
X59241540Y-76454819D01*
X58241541Y-76502438D02*
X58336779Y-76454819D01*
X58336779Y-76454819D02*
X58479636Y-76454819D01*
X58479636Y-76454819D02*
X58622493Y-76502438D01*
X58622493Y-76502438D02*
X58717731Y-76597676D01*
X58717731Y-76597676D02*
X58765350Y-76692914D01*
X58765350Y-76692914D02*
X58812969Y-76883390D01*
X58812969Y-76883390D02*
X58812969Y-77026247D01*
X58812969Y-77026247D02*
X58765350Y-77216723D01*
X58765350Y-77216723D02*
X58717731Y-77311961D01*
X58717731Y-77311961D02*
X58622493Y-77407200D01*
X58622493Y-77407200D02*
X58479636Y-77454819D01*
X58479636Y-77454819D02*
X58384398Y-77454819D01*
X58384398Y-77454819D02*
X58241541Y-77407200D01*
X58241541Y-77407200D02*
X58193922Y-77359580D01*
X58193922Y-77359580D02*
X58193922Y-77026247D01*
X58193922Y-77026247D02*
X58384398Y-77026247D01*
X57241541Y-76502438D02*
X57336779Y-76454819D01*
X57336779Y-76454819D02*
X57479636Y-76454819D01*
X57479636Y-76454819D02*
X57622493Y-76502438D01*
X57622493Y-76502438D02*
X57717731Y-76597676D01*
X57717731Y-76597676D02*
X57765350Y-76692914D01*
X57765350Y-76692914D02*
X57812969Y-76883390D01*
X57812969Y-76883390D02*
X57812969Y-77026247D01*
X57812969Y-77026247D02*
X57765350Y-77216723D01*
X57765350Y-77216723D02*
X57717731Y-77311961D01*
X57717731Y-77311961D02*
X57622493Y-77407200D01*
X57622493Y-77407200D02*
X57479636Y-77454819D01*
X57479636Y-77454819D02*
X57384398Y-77454819D01*
X57384398Y-77454819D02*
X57241541Y-77407200D01*
X57241541Y-77407200D02*
X57193922Y-77359580D01*
X57193922Y-77359580D02*
X57193922Y-77026247D01*
X57193922Y-77026247D02*
X57384398Y-77026247D01*
X56765350Y-76931009D02*
X56432017Y-76931009D01*
X56289160Y-77454819D02*
X56765350Y-77454819D01*
X56765350Y-77454819D02*
X56765350Y-76454819D01*
X56765350Y-76454819D02*
X56289160Y-76454819D01*
X55289160Y-77454819D02*
X55622493Y-76978628D01*
X55860588Y-77454819D02*
X55860588Y-76454819D01*
X55860588Y-76454819D02*
X55479636Y-76454819D01*
X55479636Y-76454819D02*
X55384398Y-76502438D01*
X55384398Y-76502438D02*
X55336779Y-76550057D01*
X55336779Y-76550057D02*
X55289160Y-76645295D01*
X55289160Y-76645295D02*
X55289160Y-76788152D01*
X55289160Y-76788152D02*
X55336779Y-76883390D01*
X55336779Y-76883390D02*
X55384398Y-76931009D01*
X55384398Y-76931009D02*
X55479636Y-76978628D01*
X55479636Y-76978628D02*
X55860588Y-76978628D01*
X58574874Y-58907200D02*
X58432017Y-58954819D01*
X58432017Y-58954819D02*
X58193922Y-58954819D01*
X58193922Y-58954819D02*
X58098684Y-58907200D01*
X58098684Y-58907200D02*
X58051065Y-58859580D01*
X58051065Y-58859580D02*
X58003446Y-58764342D01*
X58003446Y-58764342D02*
X58003446Y-58669104D01*
X58003446Y-58669104D02*
X58051065Y-58573866D01*
X58051065Y-58573866D02*
X58098684Y-58526247D01*
X58098684Y-58526247D02*
X58193922Y-58478628D01*
X58193922Y-58478628D02*
X58384398Y-58431009D01*
X58384398Y-58431009D02*
X58479636Y-58383390D01*
X58479636Y-58383390D02*
X58527255Y-58335771D01*
X58527255Y-58335771D02*
X58574874Y-58240533D01*
X58574874Y-58240533D02*
X58574874Y-58145295D01*
X58574874Y-58145295D02*
X58527255Y-58050057D01*
X58527255Y-58050057D02*
X58479636Y-58002438D01*
X58479636Y-58002438D02*
X58384398Y-57954819D01*
X58384398Y-57954819D02*
X58146303Y-57954819D01*
X58146303Y-57954819D02*
X58003446Y-58002438D01*
X57670112Y-57954819D02*
X57432017Y-58954819D01*
X57432017Y-58954819D02*
X57241541Y-58240533D01*
X57241541Y-58240533D02*
X57051065Y-58954819D01*
X57051065Y-58954819D02*
X56812970Y-57954819D01*
X56670113Y-59050057D02*
X55908208Y-59050057D01*
X55193922Y-58954819D02*
X55670112Y-58954819D01*
X55670112Y-58954819D02*
X55670112Y-57954819D01*
X65777256Y-66181009D02*
X66110589Y-66181009D01*
X66110589Y-66704819D02*
X66110589Y-65704819D01*
X66110589Y-65704819D02*
X65634399Y-65704819D01*
X64682018Y-66704819D02*
X65015351Y-66228628D01*
X65253446Y-66704819D02*
X65253446Y-65704819D01*
X65253446Y-65704819D02*
X64872494Y-65704819D01*
X64872494Y-65704819D02*
X64777256Y-65752438D01*
X64777256Y-65752438D02*
X64729637Y-65800057D01*
X64729637Y-65800057D02*
X64682018Y-65895295D01*
X64682018Y-65895295D02*
X64682018Y-66038152D01*
X64682018Y-66038152D02*
X64729637Y-66133390D01*
X64729637Y-66133390D02*
X64777256Y-66181009D01*
X64777256Y-66181009D02*
X64872494Y-66228628D01*
X64872494Y-66228628D02*
X65253446Y-66228628D01*
X64253446Y-66181009D02*
X63920113Y-66181009D01*
X63777256Y-66704819D02*
X64253446Y-66704819D01*
X64253446Y-66704819D02*
X64253446Y-65704819D01*
X64253446Y-65704819D02*
X63777256Y-65704819D01*
X63348684Y-66181009D02*
X63015351Y-66181009D01*
X62872494Y-66704819D02*
X63348684Y-66704819D01*
X63348684Y-66704819D02*
X63348684Y-65704819D01*
X63348684Y-65704819D02*
X62872494Y-65704819D01*
X62539160Y-65704819D02*
X61872494Y-65704819D01*
X61872494Y-65704819D02*
X62539160Y-66704819D01*
X62539160Y-66704819D02*
X61872494Y-66704819D01*
X61491541Y-66181009D02*
X61158208Y-66181009D01*
X61015351Y-66704819D02*
X61491541Y-66704819D01*
X61491541Y-66704819D02*
X61491541Y-65704819D01*
X61491541Y-65704819D02*
X61015351Y-65704819D01*
X60824875Y-66800057D02*
X60062970Y-66800057D01*
X59348684Y-66704819D02*
X59824874Y-66704819D01*
X59824874Y-66704819D02*
X59824874Y-65704819D01*
X59015350Y-66181009D02*
X58682017Y-66181009D01*
X58539160Y-66704819D02*
X59015350Y-66704819D01*
X59015350Y-66704819D02*
X59015350Y-65704819D01*
X59015350Y-65704819D02*
X58539160Y-65704819D01*
X58110588Y-66704819D02*
X58110588Y-65704819D01*
X58110588Y-65704819D02*
X57872493Y-65704819D01*
X57872493Y-65704819D02*
X57729636Y-65752438D01*
X57729636Y-65752438D02*
X57634398Y-65847676D01*
X57634398Y-65847676D02*
X57586779Y-65942914D01*
X57586779Y-65942914D02*
X57539160Y-66133390D01*
X57539160Y-66133390D02*
X57539160Y-66276247D01*
X57539160Y-66276247D02*
X57586779Y-66466723D01*
X57586779Y-66466723D02*
X57634398Y-66561961D01*
X57634398Y-66561961D02*
X57729636Y-66657200D01*
X57729636Y-66657200D02*
X57872493Y-66704819D01*
X57872493Y-66704819D02*
X58110588Y-66704819D01*
X58622493Y-64157200D02*
X58479636Y-64204819D01*
X58479636Y-64204819D02*
X58241541Y-64204819D01*
X58241541Y-64204819D02*
X58146303Y-64157200D01*
X58146303Y-64157200D02*
X58098684Y-64109580D01*
X58098684Y-64109580D02*
X58051065Y-64014342D01*
X58051065Y-64014342D02*
X58051065Y-63919104D01*
X58051065Y-63919104D02*
X58098684Y-63823866D01*
X58098684Y-63823866D02*
X58146303Y-63776247D01*
X58146303Y-63776247D02*
X58241541Y-63728628D01*
X58241541Y-63728628D02*
X58432017Y-63681009D01*
X58432017Y-63681009D02*
X58527255Y-63633390D01*
X58527255Y-63633390D02*
X58574874Y-63585771D01*
X58574874Y-63585771D02*
X58622493Y-63490533D01*
X58622493Y-63490533D02*
X58622493Y-63395295D01*
X58622493Y-63395295D02*
X58574874Y-63300057D01*
X58574874Y-63300057D02*
X58527255Y-63252438D01*
X58527255Y-63252438D02*
X58432017Y-63204819D01*
X58432017Y-63204819D02*
X58193922Y-63204819D01*
X58193922Y-63204819D02*
X58051065Y-63252438D01*
X57717731Y-63204819D02*
X57479636Y-64204819D01*
X57479636Y-64204819D02*
X57289160Y-63490533D01*
X57289160Y-63490533D02*
X57098684Y-64204819D01*
X57098684Y-64204819D02*
X56860589Y-63204819D01*
X56717732Y-64300057D02*
X55955827Y-64300057D01*
X55384398Y-63681009D02*
X55717731Y-63681009D01*
X55717731Y-64204819D02*
X55717731Y-63204819D01*
X55717731Y-63204819D02*
X55241541Y-63204819D01*
X81295180Y-104806077D02*
X81295180Y-104234649D01*
X80295180Y-104520363D02*
X81295180Y-104520363D01*
X80818990Y-103901315D02*
X80818990Y-103567982D01*
X80295180Y-103425125D02*
X80295180Y-103901315D01*
X80295180Y-103901315D02*
X81295180Y-103901315D01*
X81295180Y-103901315D02*
X81295180Y-103425125D01*
X81295180Y-103091791D02*
X80295180Y-102425125D01*
X81295180Y-102425125D02*
X80295180Y-103091791D01*
X81295180Y-102187029D02*
X81295180Y-101615601D01*
X80295180Y-101901315D02*
X81295180Y-101901315D01*
X81295180Y-101282267D02*
X80485657Y-101282267D01*
X80485657Y-101282267D02*
X80390419Y-101234648D01*
X80390419Y-101234648D02*
X80342800Y-101187029D01*
X80342800Y-101187029D02*
X80295180Y-101091791D01*
X80295180Y-101091791D02*
X80295180Y-100901315D01*
X80295180Y-100901315D02*
X80342800Y-100806077D01*
X80342800Y-100806077D02*
X80390419Y-100758458D01*
X80390419Y-100758458D02*
X80485657Y-100710839D01*
X80485657Y-100710839D02*
X81295180Y-100710839D01*
X80295180Y-99663220D02*
X80771371Y-99996553D01*
X80295180Y-100234648D02*
X81295180Y-100234648D01*
X81295180Y-100234648D02*
X81295180Y-99853696D01*
X81295180Y-99853696D02*
X81247561Y-99758458D01*
X81247561Y-99758458D02*
X81199942Y-99710839D01*
X81199942Y-99710839D02*
X81104704Y-99663220D01*
X81104704Y-99663220D02*
X80961847Y-99663220D01*
X80961847Y-99663220D02*
X80866609Y-99710839D01*
X80866609Y-99710839D02*
X80818990Y-99758458D01*
X80818990Y-99758458D02*
X80771371Y-99853696D01*
X80771371Y-99853696D02*
X80771371Y-100234648D01*
X80818990Y-99234648D02*
X80818990Y-98901315D01*
X80295180Y-98758458D02*
X80295180Y-99234648D01*
X80295180Y-99234648D02*
X81295180Y-99234648D01*
X81295180Y-99234648D02*
X81295180Y-98758458D01*
X80199942Y-98567982D02*
X80199942Y-97806077D01*
X80390419Y-96996553D02*
X80342800Y-97044172D01*
X80342800Y-97044172D02*
X80295180Y-97187029D01*
X80295180Y-97187029D02*
X80295180Y-97282267D01*
X80295180Y-97282267D02*
X80342800Y-97425124D01*
X80342800Y-97425124D02*
X80438038Y-97520362D01*
X80438038Y-97520362D02*
X80533276Y-97567981D01*
X80533276Y-97567981D02*
X80723752Y-97615600D01*
X80723752Y-97615600D02*
X80866609Y-97615600D01*
X80866609Y-97615600D02*
X81057085Y-97567981D01*
X81057085Y-97567981D02*
X81152323Y-97520362D01*
X81152323Y-97520362D02*
X81247561Y-97425124D01*
X81247561Y-97425124D02*
X81295180Y-97282267D01*
X81295180Y-97282267D02*
X81295180Y-97187029D01*
X81295180Y-97187029D02*
X81247561Y-97044172D01*
X81247561Y-97044172D02*
X81199942Y-96996553D01*
X81295180Y-96710838D02*
X80295180Y-96377505D01*
X80295180Y-96377505D02*
X81295180Y-96044172D01*
X94710839Y-75907200D02*
X94567982Y-75954819D01*
X94567982Y-75954819D02*
X94329887Y-75954819D01*
X94329887Y-75954819D02*
X94234649Y-75907200D01*
X94234649Y-75907200D02*
X94187030Y-75859580D01*
X94187030Y-75859580D02*
X94139411Y-75764342D01*
X94139411Y-75764342D02*
X94139411Y-75669104D01*
X94139411Y-75669104D02*
X94187030Y-75573866D01*
X94187030Y-75573866D02*
X94234649Y-75526247D01*
X94234649Y-75526247D02*
X94329887Y-75478628D01*
X94329887Y-75478628D02*
X94520363Y-75431009D01*
X94520363Y-75431009D02*
X94615601Y-75383390D01*
X94615601Y-75383390D02*
X94663220Y-75335771D01*
X94663220Y-75335771D02*
X94710839Y-75240533D01*
X94710839Y-75240533D02*
X94710839Y-75145295D01*
X94710839Y-75145295D02*
X94663220Y-75050057D01*
X94663220Y-75050057D02*
X94615601Y-75002438D01*
X94615601Y-75002438D02*
X94520363Y-74954819D01*
X94520363Y-74954819D02*
X94282268Y-74954819D01*
X94282268Y-74954819D02*
X94139411Y-75002438D01*
X93710839Y-75954819D02*
X93710839Y-74954819D01*
X93329887Y-74954819D02*
X92663221Y-74954819D01*
X92663221Y-74954819D02*
X93329887Y-75954819D01*
X93329887Y-75954819D02*
X92663221Y-75954819D01*
X92282268Y-75431009D02*
X91948935Y-75431009D01*
X91806078Y-75954819D02*
X92282268Y-75954819D01*
X92282268Y-75954819D02*
X92282268Y-74954819D01*
X92282268Y-74954819D02*
X91806078Y-74954819D01*
X88045180Y-104663220D02*
X89045180Y-104663220D01*
X89045180Y-104663220D02*
X89045180Y-104425125D01*
X89045180Y-104425125D02*
X88997561Y-104282268D01*
X88997561Y-104282268D02*
X88902323Y-104187030D01*
X88902323Y-104187030D02*
X88807085Y-104139411D01*
X88807085Y-104139411D02*
X88616609Y-104091792D01*
X88616609Y-104091792D02*
X88473752Y-104091792D01*
X88473752Y-104091792D02*
X88283276Y-104139411D01*
X88283276Y-104139411D02*
X88188038Y-104187030D01*
X88188038Y-104187030D02*
X88092800Y-104282268D01*
X88092800Y-104282268D02*
X88045180Y-104425125D01*
X88045180Y-104425125D02*
X88045180Y-104663220D01*
X88568990Y-103663220D02*
X88568990Y-103329887D01*
X88045180Y-103187030D02*
X88045180Y-103663220D01*
X88045180Y-103663220D02*
X89045180Y-103663220D01*
X89045180Y-103663220D02*
X89045180Y-103187030D01*
X88045180Y-102758458D02*
X89045180Y-102758458D01*
X89045180Y-102758458D02*
X88045180Y-102187030D01*
X88045180Y-102187030D02*
X89045180Y-102187030D01*
X88092800Y-101758458D02*
X88045180Y-101615601D01*
X88045180Y-101615601D02*
X88045180Y-101377506D01*
X88045180Y-101377506D02*
X88092800Y-101282268D01*
X88092800Y-101282268D02*
X88140419Y-101234649D01*
X88140419Y-101234649D02*
X88235657Y-101187030D01*
X88235657Y-101187030D02*
X88330895Y-101187030D01*
X88330895Y-101187030D02*
X88426133Y-101234649D01*
X88426133Y-101234649D02*
X88473752Y-101282268D01*
X88473752Y-101282268D02*
X88521371Y-101377506D01*
X88521371Y-101377506D02*
X88568990Y-101567982D01*
X88568990Y-101567982D02*
X88616609Y-101663220D01*
X88616609Y-101663220D02*
X88664228Y-101710839D01*
X88664228Y-101710839D02*
X88759466Y-101758458D01*
X88759466Y-101758458D02*
X88854704Y-101758458D01*
X88854704Y-101758458D02*
X88949942Y-101710839D01*
X88949942Y-101710839D02*
X88997561Y-101663220D01*
X88997561Y-101663220D02*
X89045180Y-101567982D01*
X89045180Y-101567982D02*
X89045180Y-101329887D01*
X89045180Y-101329887D02*
X88997561Y-101187030D01*
X88045180Y-100758458D02*
X89045180Y-100758458D01*
X89045180Y-100425125D02*
X89045180Y-99853697D01*
X88045180Y-100139411D02*
X89045180Y-100139411D01*
X88521371Y-99329887D02*
X88045180Y-99329887D01*
X89045180Y-99663220D02*
X88521371Y-99329887D01*
X88521371Y-99329887D02*
X89045180Y-98996554D01*
X87949942Y-98901316D02*
X87949942Y-98139411D01*
X88140419Y-97329887D02*
X88092800Y-97377506D01*
X88092800Y-97377506D02*
X88045180Y-97520363D01*
X88045180Y-97520363D02*
X88045180Y-97615601D01*
X88045180Y-97615601D02*
X88092800Y-97758458D01*
X88092800Y-97758458D02*
X88188038Y-97853696D01*
X88188038Y-97853696D02*
X88283276Y-97901315D01*
X88283276Y-97901315D02*
X88473752Y-97948934D01*
X88473752Y-97948934D02*
X88616609Y-97948934D01*
X88616609Y-97948934D02*
X88807085Y-97901315D01*
X88807085Y-97901315D02*
X88902323Y-97853696D01*
X88902323Y-97853696D02*
X88997561Y-97758458D01*
X88997561Y-97758458D02*
X89045180Y-97615601D01*
X89045180Y-97615601D02*
X89045180Y-97520363D01*
X89045180Y-97520363D02*
X88997561Y-97377506D01*
X88997561Y-97377506D02*
X88949942Y-97329887D01*
X89045180Y-97044172D02*
X88045180Y-96710839D01*
X88045180Y-96710839D02*
X89045180Y-96377506D01*
X60545180Y-104187030D02*
X60545180Y-104663220D01*
X60545180Y-104663220D02*
X61545180Y-104663220D01*
X60449942Y-104091792D02*
X60449942Y-103329887D01*
X60545180Y-103091791D02*
X61545180Y-103091791D01*
X60545180Y-102615601D02*
X61545180Y-102615601D01*
X61545180Y-102615601D02*
X60545180Y-102044173D01*
X60545180Y-102044173D02*
X61545180Y-102044173D01*
X94806077Y-69954819D02*
X94234649Y-69954819D01*
X94520363Y-70954819D02*
X94520363Y-69954819D01*
X93901315Y-70431009D02*
X93567982Y-70431009D01*
X93425125Y-70954819D02*
X93901315Y-70954819D01*
X93901315Y-70954819D02*
X93901315Y-69954819D01*
X93901315Y-69954819D02*
X93425125Y-69954819D01*
X93091791Y-69954819D02*
X92425125Y-70954819D01*
X92425125Y-69954819D02*
X93091791Y-70954819D01*
X92187029Y-69954819D02*
X91615601Y-69954819D01*
X91901315Y-70954819D02*
X91901315Y-69954819D01*
X91282267Y-69954819D02*
X91282267Y-70764342D01*
X91282267Y-70764342D02*
X91234648Y-70859580D01*
X91234648Y-70859580D02*
X91187029Y-70907200D01*
X91187029Y-70907200D02*
X91091791Y-70954819D01*
X91091791Y-70954819D02*
X90901315Y-70954819D01*
X90901315Y-70954819D02*
X90806077Y-70907200D01*
X90806077Y-70907200D02*
X90758458Y-70859580D01*
X90758458Y-70859580D02*
X90710839Y-70764342D01*
X90710839Y-70764342D02*
X90710839Y-69954819D01*
X89663220Y-70954819D02*
X89996553Y-70478628D01*
X90234648Y-70954819D02*
X90234648Y-69954819D01*
X90234648Y-69954819D02*
X89853696Y-69954819D01*
X89853696Y-69954819D02*
X89758458Y-70002438D01*
X89758458Y-70002438D02*
X89710839Y-70050057D01*
X89710839Y-70050057D02*
X89663220Y-70145295D01*
X89663220Y-70145295D02*
X89663220Y-70288152D01*
X89663220Y-70288152D02*
X89710839Y-70383390D01*
X89710839Y-70383390D02*
X89758458Y-70431009D01*
X89758458Y-70431009D02*
X89853696Y-70478628D01*
X89853696Y-70478628D02*
X90234648Y-70478628D01*
X89234648Y-70431009D02*
X88901315Y-70431009D01*
X88758458Y-70954819D02*
X89234648Y-70954819D01*
X89234648Y-70954819D02*
X89234648Y-69954819D01*
X89234648Y-69954819D02*
X88758458Y-69954819D01*
X84413220Y-55323866D02*
X83651316Y-55323866D01*
X84032268Y-55704819D02*
X84032268Y-54942914D01*
X83270363Y-54704819D02*
X82651316Y-54704819D01*
X82651316Y-54704819D02*
X82984649Y-55085771D01*
X82984649Y-55085771D02*
X82841792Y-55085771D01*
X82841792Y-55085771D02*
X82746554Y-55133390D01*
X82746554Y-55133390D02*
X82698935Y-55181009D01*
X82698935Y-55181009D02*
X82651316Y-55276247D01*
X82651316Y-55276247D02*
X82651316Y-55514342D01*
X82651316Y-55514342D02*
X82698935Y-55609580D01*
X82698935Y-55609580D02*
X82746554Y-55657200D01*
X82746554Y-55657200D02*
X82841792Y-55704819D01*
X82841792Y-55704819D02*
X83127506Y-55704819D01*
X83127506Y-55704819D02*
X83222744Y-55657200D01*
X83222744Y-55657200D02*
X83270363Y-55609580D01*
X82222744Y-55609580D02*
X82175125Y-55657200D01*
X82175125Y-55657200D02*
X82222744Y-55704819D01*
X82222744Y-55704819D02*
X82270363Y-55657200D01*
X82270363Y-55657200D02*
X82222744Y-55609580D01*
X82222744Y-55609580D02*
X82222744Y-55704819D01*
X81841792Y-54704819D02*
X81222745Y-54704819D01*
X81222745Y-54704819D02*
X81556078Y-55085771D01*
X81556078Y-55085771D02*
X81413221Y-55085771D01*
X81413221Y-55085771D02*
X81317983Y-55133390D01*
X81317983Y-55133390D02*
X81270364Y-55181009D01*
X81270364Y-55181009D02*
X81222745Y-55276247D01*
X81222745Y-55276247D02*
X81222745Y-55514342D01*
X81222745Y-55514342D02*
X81270364Y-55609580D01*
X81270364Y-55609580D02*
X81317983Y-55657200D01*
X81317983Y-55657200D02*
X81413221Y-55704819D01*
X81413221Y-55704819D02*
X81698935Y-55704819D01*
X81698935Y-55704819D02*
X81794173Y-55657200D01*
X81794173Y-55657200D02*
X81841792Y-55609580D01*
X80937030Y-54704819D02*
X80603697Y-55704819D01*
X80603697Y-55704819D02*
X80270364Y-54704819D01*
X79984649Y-55419104D02*
X79508459Y-55419104D01*
X80079887Y-55704819D02*
X79746554Y-54704819D01*
X79746554Y-54704819D02*
X79413221Y-55704819D01*
X55295180Y-104187030D02*
X55295180Y-104663220D01*
X55295180Y-104663220D02*
X56295180Y-104663220D01*
X55199942Y-104091792D02*
X55199942Y-103329887D01*
X56295180Y-102901315D02*
X56295180Y-102710839D01*
X56295180Y-102710839D02*
X56247561Y-102615601D01*
X56247561Y-102615601D02*
X56152323Y-102520363D01*
X56152323Y-102520363D02*
X55961847Y-102472744D01*
X55961847Y-102472744D02*
X55628514Y-102472744D01*
X55628514Y-102472744D02*
X55438038Y-102520363D01*
X55438038Y-102520363D02*
X55342800Y-102615601D01*
X55342800Y-102615601D02*
X55295180Y-102710839D01*
X55295180Y-102710839D02*
X55295180Y-102901315D01*
X55295180Y-102901315D02*
X55342800Y-102996553D01*
X55342800Y-102996553D02*
X55438038Y-103091791D01*
X55438038Y-103091791D02*
X55628514Y-103139410D01*
X55628514Y-103139410D02*
X55961847Y-103139410D01*
X55961847Y-103139410D02*
X56152323Y-103091791D01*
X56152323Y-103091791D02*
X56247561Y-102996553D01*
X56247561Y-102996553D02*
X56295180Y-102901315D01*
X56295180Y-102044172D02*
X55485657Y-102044172D01*
X55485657Y-102044172D02*
X55390419Y-101996553D01*
X55390419Y-101996553D02*
X55342800Y-101948934D01*
X55342800Y-101948934D02*
X55295180Y-101853696D01*
X55295180Y-101853696D02*
X55295180Y-101663220D01*
X55295180Y-101663220D02*
X55342800Y-101567982D01*
X55342800Y-101567982D02*
X55390419Y-101520363D01*
X55390419Y-101520363D02*
X55485657Y-101472744D01*
X55485657Y-101472744D02*
X56295180Y-101472744D01*
X56295180Y-101139410D02*
X56295180Y-100567982D01*
X55295180Y-100853696D02*
X56295180Y-100853696D01*
X94341792Y-57609580D02*
X94389411Y-57657200D01*
X94389411Y-57657200D02*
X94532268Y-57704819D01*
X94532268Y-57704819D02*
X94627506Y-57704819D01*
X94627506Y-57704819D02*
X94770363Y-57657200D01*
X94770363Y-57657200D02*
X94865601Y-57561961D01*
X94865601Y-57561961D02*
X94913220Y-57466723D01*
X94913220Y-57466723D02*
X94960839Y-57276247D01*
X94960839Y-57276247D02*
X94960839Y-57133390D01*
X94960839Y-57133390D02*
X94913220Y-56942914D01*
X94913220Y-56942914D02*
X94865601Y-56847676D01*
X94865601Y-56847676D02*
X94770363Y-56752438D01*
X94770363Y-56752438D02*
X94627506Y-56704819D01*
X94627506Y-56704819D02*
X94532268Y-56704819D01*
X94532268Y-56704819D02*
X94389411Y-56752438D01*
X94389411Y-56752438D02*
X94341792Y-56800057D01*
X93437030Y-57704819D02*
X93913220Y-57704819D01*
X93913220Y-57704819D02*
X93913220Y-56704819D01*
X93103696Y-57704819D02*
X93103696Y-56704819D01*
X92532268Y-57704819D02*
X92960839Y-57133390D01*
X92532268Y-56704819D02*
X93103696Y-57276247D01*
X58045180Y-104091792D02*
X58521371Y-104425125D01*
X58045180Y-104663220D02*
X59045180Y-104663220D01*
X59045180Y-104663220D02*
X59045180Y-104282268D01*
X59045180Y-104282268D02*
X58997561Y-104187030D01*
X58997561Y-104187030D02*
X58949942Y-104139411D01*
X58949942Y-104139411D02*
X58854704Y-104091792D01*
X58854704Y-104091792D02*
X58711847Y-104091792D01*
X58711847Y-104091792D02*
X58616609Y-104139411D01*
X58616609Y-104139411D02*
X58568990Y-104187030D01*
X58568990Y-104187030D02*
X58521371Y-104282268D01*
X58521371Y-104282268D02*
X58521371Y-104663220D01*
X57949942Y-103901316D02*
X57949942Y-103139411D01*
X58045180Y-102901315D02*
X59045180Y-102901315D01*
X58045180Y-102425125D02*
X59045180Y-102425125D01*
X59045180Y-102425125D02*
X58045180Y-101853697D01*
X58045180Y-101853697D02*
X59045180Y-101853697D01*
X68413220Y-55573866D02*
X67651316Y-55573866D01*
X68032268Y-55954819D02*
X68032268Y-55192914D01*
X67270363Y-54954819D02*
X66651316Y-54954819D01*
X66651316Y-54954819D02*
X66984649Y-55335771D01*
X66984649Y-55335771D02*
X66841792Y-55335771D01*
X66841792Y-55335771D02*
X66746554Y-55383390D01*
X66746554Y-55383390D02*
X66698935Y-55431009D01*
X66698935Y-55431009D02*
X66651316Y-55526247D01*
X66651316Y-55526247D02*
X66651316Y-55764342D01*
X66651316Y-55764342D02*
X66698935Y-55859580D01*
X66698935Y-55859580D02*
X66746554Y-55907200D01*
X66746554Y-55907200D02*
X66841792Y-55954819D01*
X66841792Y-55954819D02*
X67127506Y-55954819D01*
X67127506Y-55954819D02*
X67222744Y-55907200D01*
X67222744Y-55907200D02*
X67270363Y-55859580D01*
X66222744Y-55859580D02*
X66175125Y-55907200D01*
X66175125Y-55907200D02*
X66222744Y-55954819D01*
X66222744Y-55954819D02*
X66270363Y-55907200D01*
X66270363Y-55907200D02*
X66222744Y-55859580D01*
X66222744Y-55859580D02*
X66222744Y-55954819D01*
X65841792Y-54954819D02*
X65222745Y-54954819D01*
X65222745Y-54954819D02*
X65556078Y-55335771D01*
X65556078Y-55335771D02*
X65413221Y-55335771D01*
X65413221Y-55335771D02*
X65317983Y-55383390D01*
X65317983Y-55383390D02*
X65270364Y-55431009D01*
X65270364Y-55431009D02*
X65222745Y-55526247D01*
X65222745Y-55526247D02*
X65222745Y-55764342D01*
X65222745Y-55764342D02*
X65270364Y-55859580D01*
X65270364Y-55859580D02*
X65317983Y-55907200D01*
X65317983Y-55907200D02*
X65413221Y-55954819D01*
X65413221Y-55954819D02*
X65698935Y-55954819D01*
X65698935Y-55954819D02*
X65794173Y-55907200D01*
X65794173Y-55907200D02*
X65841792Y-55859580D01*
X64937030Y-54954819D02*
X64603697Y-55954819D01*
X64603697Y-55954819D02*
X64270364Y-54954819D01*
X83092800Y-104710839D02*
X83045180Y-104567982D01*
X83045180Y-104567982D02*
X83045180Y-104329887D01*
X83045180Y-104329887D02*
X83092800Y-104234649D01*
X83092800Y-104234649D02*
X83140419Y-104187030D01*
X83140419Y-104187030D02*
X83235657Y-104139411D01*
X83235657Y-104139411D02*
X83330895Y-104139411D01*
X83330895Y-104139411D02*
X83426133Y-104187030D01*
X83426133Y-104187030D02*
X83473752Y-104234649D01*
X83473752Y-104234649D02*
X83521371Y-104329887D01*
X83521371Y-104329887D02*
X83568990Y-104520363D01*
X83568990Y-104520363D02*
X83616609Y-104615601D01*
X83616609Y-104615601D02*
X83664228Y-104663220D01*
X83664228Y-104663220D02*
X83759466Y-104710839D01*
X83759466Y-104710839D02*
X83854704Y-104710839D01*
X83854704Y-104710839D02*
X83949942Y-104663220D01*
X83949942Y-104663220D02*
X83997561Y-104615601D01*
X83997561Y-104615601D02*
X84045180Y-104520363D01*
X84045180Y-104520363D02*
X84045180Y-104282268D01*
X84045180Y-104282268D02*
X83997561Y-104139411D01*
X83045180Y-103710839D02*
X84045180Y-103710839D01*
X84045180Y-103329887D02*
X84045180Y-102663221D01*
X84045180Y-102663221D02*
X83045180Y-103329887D01*
X83045180Y-103329887D02*
X83045180Y-102663221D01*
X83568990Y-102282268D02*
X83568990Y-101948935D01*
X83045180Y-101806078D02*
X83045180Y-102282268D01*
X83045180Y-102282268D02*
X84045180Y-102282268D01*
X84045180Y-102282268D02*
X84045180Y-101806078D01*
X82949942Y-101615602D02*
X82949942Y-100853697D01*
X83140419Y-100044173D02*
X83092800Y-100091792D01*
X83092800Y-100091792D02*
X83045180Y-100234649D01*
X83045180Y-100234649D02*
X83045180Y-100329887D01*
X83045180Y-100329887D02*
X83092800Y-100472744D01*
X83092800Y-100472744D02*
X83188038Y-100567982D01*
X83188038Y-100567982D02*
X83283276Y-100615601D01*
X83283276Y-100615601D02*
X83473752Y-100663220D01*
X83473752Y-100663220D02*
X83616609Y-100663220D01*
X83616609Y-100663220D02*
X83807085Y-100615601D01*
X83807085Y-100615601D02*
X83902323Y-100567982D01*
X83902323Y-100567982D02*
X83997561Y-100472744D01*
X83997561Y-100472744D02*
X84045180Y-100329887D01*
X84045180Y-100329887D02*
X84045180Y-100234649D01*
X84045180Y-100234649D02*
X83997561Y-100091792D01*
X83997561Y-100091792D02*
X83949942Y-100044173D01*
X84045180Y-99758458D02*
X83045180Y-99425125D01*
X83045180Y-99425125D02*
X84045180Y-99091792D01*
X93318990Y-104329887D02*
X93271371Y-104187030D01*
X93271371Y-104187030D02*
X93223752Y-104139411D01*
X93223752Y-104139411D02*
X93128514Y-104091792D01*
X93128514Y-104091792D02*
X92985657Y-104091792D01*
X92985657Y-104091792D02*
X92890419Y-104139411D01*
X92890419Y-104139411D02*
X92842800Y-104187030D01*
X92842800Y-104187030D02*
X92795180Y-104282268D01*
X92795180Y-104282268D02*
X92795180Y-104663220D01*
X92795180Y-104663220D02*
X93795180Y-104663220D01*
X93795180Y-104663220D02*
X93795180Y-104329887D01*
X93795180Y-104329887D02*
X93747561Y-104234649D01*
X93747561Y-104234649D02*
X93699942Y-104187030D01*
X93699942Y-104187030D02*
X93604704Y-104139411D01*
X93604704Y-104139411D02*
X93509466Y-104139411D01*
X93509466Y-104139411D02*
X93414228Y-104187030D01*
X93414228Y-104187030D02*
X93366609Y-104234649D01*
X93366609Y-104234649D02*
X93318990Y-104329887D01*
X93318990Y-104329887D02*
X93318990Y-104663220D01*
X92795180Y-103187030D02*
X92795180Y-103663220D01*
X92795180Y-103663220D02*
X93795180Y-103663220D01*
X93318990Y-102853696D02*
X93318990Y-102520363D01*
X92795180Y-102377506D02*
X92795180Y-102853696D01*
X92795180Y-102853696D02*
X93795180Y-102853696D01*
X93795180Y-102853696D02*
X93795180Y-102377506D01*
X92795180Y-101948934D02*
X93795180Y-101948934D01*
X93795180Y-101948934D02*
X92795180Y-101377506D01*
X92795180Y-101377506D02*
X93795180Y-101377506D01*
X92795180Y-100901315D02*
X93795180Y-100901315D01*
X93795180Y-100901315D02*
X93795180Y-100663220D01*
X93795180Y-100663220D02*
X93747561Y-100520363D01*
X93747561Y-100520363D02*
X93652323Y-100425125D01*
X93652323Y-100425125D02*
X93557085Y-100377506D01*
X93557085Y-100377506D02*
X93366609Y-100329887D01*
X93366609Y-100329887D02*
X93223752Y-100329887D01*
X93223752Y-100329887D02*
X93033276Y-100377506D01*
X93033276Y-100377506D02*
X92938038Y-100425125D01*
X92938038Y-100425125D02*
X92842800Y-100520363D01*
X92842800Y-100520363D02*
X92795180Y-100663220D01*
X92795180Y-100663220D02*
X92795180Y-100901315D01*
X92699942Y-100139411D02*
X92699942Y-99377506D01*
X92890419Y-98567982D02*
X92842800Y-98615601D01*
X92842800Y-98615601D02*
X92795180Y-98758458D01*
X92795180Y-98758458D02*
X92795180Y-98853696D01*
X92795180Y-98853696D02*
X92842800Y-98996553D01*
X92842800Y-98996553D02*
X92938038Y-99091791D01*
X92938038Y-99091791D02*
X93033276Y-99139410D01*
X93033276Y-99139410D02*
X93223752Y-99187029D01*
X93223752Y-99187029D02*
X93366609Y-99187029D01*
X93366609Y-99187029D02*
X93557085Y-99139410D01*
X93557085Y-99139410D02*
X93652323Y-99091791D01*
X93652323Y-99091791D02*
X93747561Y-98996553D01*
X93747561Y-98996553D02*
X93795180Y-98853696D01*
X93795180Y-98853696D02*
X93795180Y-98758458D01*
X93795180Y-98758458D02*
X93747561Y-98615601D01*
X93747561Y-98615601D02*
X93699942Y-98567982D01*
X93795180Y-98282267D02*
X92795180Y-97948934D01*
X92795180Y-97948934D02*
X93795180Y-97615601D01*
X91795180Y-104806077D02*
X90795180Y-104472744D01*
X90795180Y-104472744D02*
X91795180Y-104139411D01*
X91842800Y-103091792D02*
X90557085Y-103948934D01*
X91795180Y-102567982D02*
X91795180Y-102377506D01*
X91795180Y-102377506D02*
X91747561Y-102282268D01*
X91747561Y-102282268D02*
X91652323Y-102187030D01*
X91652323Y-102187030D02*
X91461847Y-102139411D01*
X91461847Y-102139411D02*
X91128514Y-102139411D01*
X91128514Y-102139411D02*
X90938038Y-102187030D01*
X90938038Y-102187030D02*
X90842800Y-102282268D01*
X90842800Y-102282268D02*
X90795180Y-102377506D01*
X90795180Y-102377506D02*
X90795180Y-102567982D01*
X90795180Y-102567982D02*
X90842800Y-102663220D01*
X90842800Y-102663220D02*
X90938038Y-102758458D01*
X90938038Y-102758458D02*
X91128514Y-102806077D01*
X91128514Y-102806077D02*
X91461847Y-102806077D01*
X91461847Y-102806077D02*
X91652323Y-102758458D01*
X91652323Y-102758458D02*
X91747561Y-102663220D01*
X91747561Y-102663220D02*
X91795180Y-102567982D01*
X90890419Y-101139411D02*
X90842800Y-101187030D01*
X90842800Y-101187030D02*
X90795180Y-101329887D01*
X90795180Y-101329887D02*
X90795180Y-101425125D01*
X90795180Y-101425125D02*
X90842800Y-101567982D01*
X90842800Y-101567982D02*
X90938038Y-101663220D01*
X90938038Y-101663220D02*
X91033276Y-101710839D01*
X91033276Y-101710839D02*
X91223752Y-101758458D01*
X91223752Y-101758458D02*
X91366609Y-101758458D01*
X91366609Y-101758458D02*
X91557085Y-101710839D01*
X91557085Y-101710839D02*
X91652323Y-101663220D01*
X91652323Y-101663220D02*
X91747561Y-101567982D01*
X91747561Y-101567982D02*
X91795180Y-101425125D01*
X91795180Y-101425125D02*
X91795180Y-101329887D01*
X91795180Y-101329887D02*
X91747561Y-101187030D01*
X91747561Y-101187030D02*
X91699942Y-101139411D01*
X91795180Y-100853696D02*
X91795180Y-100282268D01*
X90795180Y-100567982D02*
X91795180Y-100567982D01*
X94091792Y-59359580D02*
X94139411Y-59407200D01*
X94139411Y-59407200D02*
X94282268Y-59454819D01*
X94282268Y-59454819D02*
X94377506Y-59454819D01*
X94377506Y-59454819D02*
X94520363Y-59407200D01*
X94520363Y-59407200D02*
X94615601Y-59311961D01*
X94615601Y-59311961D02*
X94663220Y-59216723D01*
X94663220Y-59216723D02*
X94710839Y-59026247D01*
X94710839Y-59026247D02*
X94710839Y-58883390D01*
X94710839Y-58883390D02*
X94663220Y-58692914D01*
X94663220Y-58692914D02*
X94615601Y-58597676D01*
X94615601Y-58597676D02*
X94520363Y-58502438D01*
X94520363Y-58502438D02*
X94377506Y-58454819D01*
X94377506Y-58454819D02*
X94282268Y-58454819D01*
X94282268Y-58454819D02*
X94139411Y-58502438D01*
X94139411Y-58502438D02*
X94091792Y-58550057D01*
X93710839Y-59407200D02*
X93567982Y-59454819D01*
X93567982Y-59454819D02*
X93329887Y-59454819D01*
X93329887Y-59454819D02*
X93234649Y-59407200D01*
X93234649Y-59407200D02*
X93187030Y-59359580D01*
X93187030Y-59359580D02*
X93139411Y-59264342D01*
X93139411Y-59264342D02*
X93139411Y-59169104D01*
X93139411Y-59169104D02*
X93187030Y-59073866D01*
X93187030Y-59073866D02*
X93234649Y-59026247D01*
X93234649Y-59026247D02*
X93329887Y-58978628D01*
X93329887Y-58978628D02*
X93520363Y-58931009D01*
X93520363Y-58931009D02*
X93615601Y-58883390D01*
X93615601Y-58883390D02*
X93663220Y-58835771D01*
X93663220Y-58835771D02*
X93710839Y-58740533D01*
X93710839Y-58740533D02*
X93710839Y-58645295D01*
X93710839Y-58645295D02*
X93663220Y-58550057D01*
X93663220Y-58550057D02*
X93615601Y-58502438D01*
X93615601Y-58502438D02*
X93520363Y-58454819D01*
X93520363Y-58454819D02*
X93282268Y-58454819D01*
X93282268Y-58454819D02*
X93139411Y-58502438D01*
X94579887Y-67681009D02*
X94437030Y-67728628D01*
X94437030Y-67728628D02*
X94389411Y-67776247D01*
X94389411Y-67776247D02*
X94341792Y-67871485D01*
X94341792Y-67871485D02*
X94341792Y-68014342D01*
X94341792Y-68014342D02*
X94389411Y-68109580D01*
X94389411Y-68109580D02*
X94437030Y-68157200D01*
X94437030Y-68157200D02*
X94532268Y-68204819D01*
X94532268Y-68204819D02*
X94913220Y-68204819D01*
X94913220Y-68204819D02*
X94913220Y-67204819D01*
X94913220Y-67204819D02*
X94579887Y-67204819D01*
X94579887Y-67204819D02*
X94484649Y-67252438D01*
X94484649Y-67252438D02*
X94437030Y-67300057D01*
X94437030Y-67300057D02*
X94389411Y-67395295D01*
X94389411Y-67395295D02*
X94389411Y-67490533D01*
X94389411Y-67490533D02*
X94437030Y-67585771D01*
X94437030Y-67585771D02*
X94484649Y-67633390D01*
X94484649Y-67633390D02*
X94579887Y-67681009D01*
X94579887Y-67681009D02*
X94913220Y-67681009D01*
X93437030Y-68204819D02*
X93913220Y-68204819D01*
X93913220Y-68204819D02*
X93913220Y-67204819D01*
X93103696Y-67681009D02*
X92770363Y-67681009D01*
X92627506Y-68204819D02*
X93103696Y-68204819D01*
X93103696Y-68204819D02*
X93103696Y-67204819D01*
X93103696Y-67204819D02*
X92627506Y-67204819D01*
X92198934Y-68204819D02*
X92198934Y-67204819D01*
X92198934Y-67204819D02*
X91627506Y-68204819D01*
X91627506Y-68204819D02*
X91627506Y-67204819D01*
X91151315Y-68204819D02*
X91151315Y-67204819D01*
X91151315Y-67204819D02*
X90913220Y-67204819D01*
X90913220Y-67204819D02*
X90770363Y-67252438D01*
X90770363Y-67252438D02*
X90675125Y-67347676D01*
X90675125Y-67347676D02*
X90627506Y-67442914D01*
X90627506Y-67442914D02*
X90579887Y-67633390D01*
X90579887Y-67633390D02*
X90579887Y-67776247D01*
X90579887Y-67776247D02*
X90627506Y-67966723D01*
X90627506Y-67966723D02*
X90675125Y-68061961D01*
X90675125Y-68061961D02*
X90770363Y-68157200D01*
X90770363Y-68157200D02*
X90913220Y-68204819D01*
X90913220Y-68204819D02*
X91151315Y-68204819D01*
X58908207Y-61657200D02*
X58765350Y-61704819D01*
X58765350Y-61704819D02*
X58527255Y-61704819D01*
X58527255Y-61704819D02*
X58432017Y-61657200D01*
X58432017Y-61657200D02*
X58384398Y-61609580D01*
X58384398Y-61609580D02*
X58336779Y-61514342D01*
X58336779Y-61514342D02*
X58336779Y-61419104D01*
X58336779Y-61419104D02*
X58384398Y-61323866D01*
X58384398Y-61323866D02*
X58432017Y-61276247D01*
X58432017Y-61276247D02*
X58527255Y-61228628D01*
X58527255Y-61228628D02*
X58717731Y-61181009D01*
X58717731Y-61181009D02*
X58812969Y-61133390D01*
X58812969Y-61133390D02*
X58860588Y-61085771D01*
X58860588Y-61085771D02*
X58908207Y-60990533D01*
X58908207Y-60990533D02*
X58908207Y-60895295D01*
X58908207Y-60895295D02*
X58860588Y-60800057D01*
X58860588Y-60800057D02*
X58812969Y-60752438D01*
X58812969Y-60752438D02*
X58717731Y-60704819D01*
X58717731Y-60704819D02*
X58479636Y-60704819D01*
X58479636Y-60704819D02*
X58336779Y-60752438D01*
X58003445Y-60704819D02*
X57765350Y-61704819D01*
X57765350Y-61704819D02*
X57574874Y-60990533D01*
X57574874Y-60990533D02*
X57384398Y-61704819D01*
X57384398Y-61704819D02*
X57146303Y-60704819D01*
X57003446Y-61800057D02*
X56241541Y-61800057D01*
X56003445Y-61704819D02*
X56003445Y-60704819D01*
X56003445Y-60704819D02*
X55670112Y-61419104D01*
X55670112Y-61419104D02*
X55336779Y-60704819D01*
X55336779Y-60704819D02*
X55336779Y-61704819D01*
X85545180Y-104663220D02*
X86545180Y-104663220D01*
X86545180Y-104663220D02*
X86545180Y-104282268D01*
X86545180Y-104282268D02*
X86497561Y-104187030D01*
X86497561Y-104187030D02*
X86449942Y-104139411D01*
X86449942Y-104139411D02*
X86354704Y-104091792D01*
X86354704Y-104091792D02*
X86211847Y-104091792D01*
X86211847Y-104091792D02*
X86116609Y-104139411D01*
X86116609Y-104139411D02*
X86068990Y-104187030D01*
X86068990Y-104187030D02*
X86021371Y-104282268D01*
X86021371Y-104282268D02*
X86021371Y-104663220D01*
X86545180Y-103472744D02*
X86545180Y-103282268D01*
X86545180Y-103282268D02*
X86497561Y-103187030D01*
X86497561Y-103187030D02*
X86402323Y-103091792D01*
X86402323Y-103091792D02*
X86211847Y-103044173D01*
X86211847Y-103044173D02*
X85878514Y-103044173D01*
X85878514Y-103044173D02*
X85688038Y-103091792D01*
X85688038Y-103091792D02*
X85592800Y-103187030D01*
X85592800Y-103187030D02*
X85545180Y-103282268D01*
X85545180Y-103282268D02*
X85545180Y-103472744D01*
X85545180Y-103472744D02*
X85592800Y-103567982D01*
X85592800Y-103567982D02*
X85688038Y-103663220D01*
X85688038Y-103663220D02*
X85878514Y-103710839D01*
X85878514Y-103710839D02*
X86211847Y-103710839D01*
X86211847Y-103710839D02*
X86402323Y-103663220D01*
X86402323Y-103663220D02*
X86497561Y-103567982D01*
X86497561Y-103567982D02*
X86545180Y-103472744D01*
X85592800Y-102663220D02*
X85545180Y-102520363D01*
X85545180Y-102520363D02*
X85545180Y-102282268D01*
X85545180Y-102282268D02*
X85592800Y-102187030D01*
X85592800Y-102187030D02*
X85640419Y-102139411D01*
X85640419Y-102139411D02*
X85735657Y-102091792D01*
X85735657Y-102091792D02*
X85830895Y-102091792D01*
X85830895Y-102091792D02*
X85926133Y-102139411D01*
X85926133Y-102139411D02*
X85973752Y-102187030D01*
X85973752Y-102187030D02*
X86021371Y-102282268D01*
X86021371Y-102282268D02*
X86068990Y-102472744D01*
X86068990Y-102472744D02*
X86116609Y-102567982D01*
X86116609Y-102567982D02*
X86164228Y-102615601D01*
X86164228Y-102615601D02*
X86259466Y-102663220D01*
X86259466Y-102663220D02*
X86354704Y-102663220D01*
X86354704Y-102663220D02*
X86449942Y-102615601D01*
X86449942Y-102615601D02*
X86497561Y-102567982D01*
X86497561Y-102567982D02*
X86545180Y-102472744D01*
X86545180Y-102472744D02*
X86545180Y-102234649D01*
X86545180Y-102234649D02*
X86497561Y-102091792D01*
X85545180Y-101663220D02*
X86545180Y-101663220D01*
X86545180Y-101329887D02*
X86545180Y-100758459D01*
X85545180Y-101044173D02*
X86545180Y-101044173D01*
X85545180Y-100425125D02*
X86545180Y-100425125D01*
X86545180Y-99758459D02*
X86545180Y-99567983D01*
X86545180Y-99567983D02*
X86497561Y-99472745D01*
X86497561Y-99472745D02*
X86402323Y-99377507D01*
X86402323Y-99377507D02*
X86211847Y-99329888D01*
X86211847Y-99329888D02*
X85878514Y-99329888D01*
X85878514Y-99329888D02*
X85688038Y-99377507D01*
X85688038Y-99377507D02*
X85592800Y-99472745D01*
X85592800Y-99472745D02*
X85545180Y-99567983D01*
X85545180Y-99567983D02*
X85545180Y-99758459D01*
X85545180Y-99758459D02*
X85592800Y-99853697D01*
X85592800Y-99853697D02*
X85688038Y-99948935D01*
X85688038Y-99948935D02*
X85878514Y-99996554D01*
X85878514Y-99996554D02*
X86211847Y-99996554D01*
X86211847Y-99996554D02*
X86402323Y-99948935D01*
X86402323Y-99948935D02*
X86497561Y-99853697D01*
X86497561Y-99853697D02*
X86545180Y-99758459D01*
X85545180Y-98901316D02*
X86545180Y-98901316D01*
X86545180Y-98901316D02*
X85545180Y-98329888D01*
X85545180Y-98329888D02*
X86545180Y-98329888D01*
X85449942Y-98091793D02*
X85449942Y-97329888D01*
X85640419Y-96520364D02*
X85592800Y-96567983D01*
X85592800Y-96567983D02*
X85545180Y-96710840D01*
X85545180Y-96710840D02*
X85545180Y-96806078D01*
X85545180Y-96806078D02*
X85592800Y-96948935D01*
X85592800Y-96948935D02*
X85688038Y-97044173D01*
X85688038Y-97044173D02*
X85783276Y-97091792D01*
X85783276Y-97091792D02*
X85973752Y-97139411D01*
X85973752Y-97139411D02*
X86116609Y-97139411D01*
X86116609Y-97139411D02*
X86307085Y-97091792D01*
X86307085Y-97091792D02*
X86402323Y-97044173D01*
X86402323Y-97044173D02*
X86497561Y-96948935D01*
X86497561Y-96948935D02*
X86545180Y-96806078D01*
X86545180Y-96806078D02*
X86545180Y-96710840D01*
X86545180Y-96710840D02*
X86497561Y-96567983D01*
X86497561Y-96567983D02*
X86449942Y-96520364D01*
X86545180Y-96234649D02*
X85545180Y-95901316D01*
X85545180Y-95901316D02*
X86545180Y-95567983D01*
X52795180Y-104091792D02*
X53271371Y-104425125D01*
X52795180Y-104663220D02*
X53795180Y-104663220D01*
X53795180Y-104663220D02*
X53795180Y-104282268D01*
X53795180Y-104282268D02*
X53747561Y-104187030D01*
X53747561Y-104187030D02*
X53699942Y-104139411D01*
X53699942Y-104139411D02*
X53604704Y-104091792D01*
X53604704Y-104091792D02*
X53461847Y-104091792D01*
X53461847Y-104091792D02*
X53366609Y-104139411D01*
X53366609Y-104139411D02*
X53318990Y-104187030D01*
X53318990Y-104187030D02*
X53271371Y-104282268D01*
X53271371Y-104282268D02*
X53271371Y-104663220D01*
X52699942Y-103901316D02*
X52699942Y-103139411D01*
X53795180Y-102710839D02*
X53795180Y-102520363D01*
X53795180Y-102520363D02*
X53747561Y-102425125D01*
X53747561Y-102425125D02*
X53652323Y-102329887D01*
X53652323Y-102329887D02*
X53461847Y-102282268D01*
X53461847Y-102282268D02*
X53128514Y-102282268D01*
X53128514Y-102282268D02*
X52938038Y-102329887D01*
X52938038Y-102329887D02*
X52842800Y-102425125D01*
X52842800Y-102425125D02*
X52795180Y-102520363D01*
X52795180Y-102520363D02*
X52795180Y-102710839D01*
X52795180Y-102710839D02*
X52842800Y-102806077D01*
X52842800Y-102806077D02*
X52938038Y-102901315D01*
X52938038Y-102901315D02*
X53128514Y-102948934D01*
X53128514Y-102948934D02*
X53461847Y-102948934D01*
X53461847Y-102948934D02*
X53652323Y-102901315D01*
X53652323Y-102901315D02*
X53747561Y-102806077D01*
X53747561Y-102806077D02*
X53795180Y-102710839D01*
X53795180Y-101853696D02*
X52985657Y-101853696D01*
X52985657Y-101853696D02*
X52890419Y-101806077D01*
X52890419Y-101806077D02*
X52842800Y-101758458D01*
X52842800Y-101758458D02*
X52795180Y-101663220D01*
X52795180Y-101663220D02*
X52795180Y-101472744D01*
X52795180Y-101472744D02*
X52842800Y-101377506D01*
X52842800Y-101377506D02*
X52890419Y-101329887D01*
X52890419Y-101329887D02*
X52985657Y-101282268D01*
X52985657Y-101282268D02*
X53795180Y-101282268D01*
X53795180Y-100948934D02*
X53795180Y-100377506D01*
X52795180Y-100663220D02*
X53795180Y-100663220D01*
X94663220Y-73454819D02*
X94663220Y-72454819D01*
X94663220Y-72454819D02*
X94282268Y-72454819D01*
X94282268Y-72454819D02*
X94187030Y-72502438D01*
X94187030Y-72502438D02*
X94139411Y-72550057D01*
X94139411Y-72550057D02*
X94091792Y-72645295D01*
X94091792Y-72645295D02*
X94091792Y-72788152D01*
X94091792Y-72788152D02*
X94139411Y-72883390D01*
X94139411Y-72883390D02*
X94187030Y-72931009D01*
X94187030Y-72931009D02*
X94282268Y-72978628D01*
X94282268Y-72978628D02*
X94663220Y-72978628D01*
X93663220Y-73454819D02*
X93663220Y-72454819D01*
X93329887Y-72454819D02*
X92758459Y-72454819D01*
X93044173Y-73454819D02*
X93044173Y-72454819D01*
X91853697Y-73359580D02*
X91901316Y-73407200D01*
X91901316Y-73407200D02*
X92044173Y-73454819D01*
X92044173Y-73454819D02*
X92139411Y-73454819D01*
X92139411Y-73454819D02*
X92282268Y-73407200D01*
X92282268Y-73407200D02*
X92377506Y-73311961D01*
X92377506Y-73311961D02*
X92425125Y-73216723D01*
X92425125Y-73216723D02*
X92472744Y-73026247D01*
X92472744Y-73026247D02*
X92472744Y-72883390D01*
X92472744Y-72883390D02*
X92425125Y-72692914D01*
X92425125Y-72692914D02*
X92377506Y-72597676D01*
X92377506Y-72597676D02*
X92282268Y-72502438D01*
X92282268Y-72502438D02*
X92139411Y-72454819D01*
X92139411Y-72454819D02*
X92044173Y-72454819D01*
X92044173Y-72454819D02*
X91901316Y-72502438D01*
X91901316Y-72502438D02*
X91853697Y-72550057D01*
X91425125Y-73454819D02*
X91425125Y-72454819D01*
X91425125Y-72931009D02*
X90853697Y-72931009D01*
X90853697Y-73454819D02*
X90853697Y-72454819D01*
X84166666Y-66854819D02*
X84499999Y-66378628D01*
X84738094Y-66854819D02*
X84738094Y-65854819D01*
X84738094Y-65854819D02*
X84357142Y-65854819D01*
X84357142Y-65854819D02*
X84261904Y-65902438D01*
X84261904Y-65902438D02*
X84214285Y-65950057D01*
X84214285Y-65950057D02*
X84166666Y-66045295D01*
X84166666Y-66045295D02*
X84166666Y-66188152D01*
X84166666Y-66188152D02*
X84214285Y-66283390D01*
X84214285Y-66283390D02*
X84261904Y-66331009D01*
X84261904Y-66331009D02*
X84357142Y-66378628D01*
X84357142Y-66378628D02*
X84738094Y-66378628D01*
X83261904Y-65854819D02*
X83738094Y-65854819D01*
X83738094Y-65854819D02*
X83785713Y-66331009D01*
X83785713Y-66331009D02*
X83738094Y-66283390D01*
X83738094Y-66283390D02*
X83642856Y-66235771D01*
X83642856Y-66235771D02*
X83404761Y-66235771D01*
X83404761Y-66235771D02*
X83309523Y-66283390D01*
X83309523Y-66283390D02*
X83261904Y-66331009D01*
X83261904Y-66331009D02*
X83214285Y-66426247D01*
X83214285Y-66426247D02*
X83214285Y-66664342D01*
X83214285Y-66664342D02*
X83261904Y-66759580D01*
X83261904Y-66759580D02*
X83309523Y-66807200D01*
X83309523Y-66807200D02*
X83404761Y-66854819D01*
X83404761Y-66854819D02*
X83642856Y-66854819D01*
X83642856Y-66854819D02*
X83738094Y-66807200D01*
X83738094Y-66807200D02*
X83785713Y-66759580D01*
X84166666Y-61554819D02*
X84499999Y-61078628D01*
X84738094Y-61554819D02*
X84738094Y-60554819D01*
X84738094Y-60554819D02*
X84357142Y-60554819D01*
X84357142Y-60554819D02*
X84261904Y-60602438D01*
X84261904Y-60602438D02*
X84214285Y-60650057D01*
X84214285Y-60650057D02*
X84166666Y-60745295D01*
X84166666Y-60745295D02*
X84166666Y-60888152D01*
X84166666Y-60888152D02*
X84214285Y-60983390D01*
X84214285Y-60983390D02*
X84261904Y-61031009D01*
X84261904Y-61031009D02*
X84357142Y-61078628D01*
X84357142Y-61078628D02*
X84738094Y-61078628D01*
X83309523Y-60888152D02*
X83309523Y-61554819D01*
X83547618Y-60507200D02*
X83785713Y-61221485D01*
X83785713Y-61221485D02*
X83166666Y-61221485D01*
X62124819Y-52666666D02*
X62839104Y-52666666D01*
X62839104Y-52666666D02*
X62981961Y-52619047D01*
X62981961Y-52619047D02*
X63077200Y-52523809D01*
X63077200Y-52523809D02*
X63124819Y-52380952D01*
X63124819Y-52380952D02*
X63124819Y-52285714D01*
X62124819Y-53047619D02*
X62124819Y-53714285D01*
X62124819Y-53714285D02*
X63124819Y-53285714D01*
D11*
G36*
X86709796Y-79011348D02*
G01*
X86719647Y-79016856D01*
X86774746Y-79071521D01*
X86798135Y-79142745D01*
X86788373Y-79218876D01*
X86744022Y-79288260D01*
X86713665Y-79313016D01*
X86640630Y-79340239D01*
X86566283Y-79334391D01*
X86500701Y-79299658D01*
X86453962Y-79240231D01*
X86436143Y-79160298D01*
X86444192Y-79102108D01*
X86482309Y-79034710D01*
X86544595Y-78994226D01*
X86623081Y-78984992D01*
X86709796Y-79011348D01*
G37*
G36*
X86110270Y-78897506D02*
G01*
X86186564Y-78920249D01*
X86231145Y-78970267D01*
X86245644Y-79049009D01*
X86236656Y-79120672D01*
X86199621Y-79185392D01*
X86174636Y-79206914D01*
X86103654Y-79233651D01*
X86027443Y-79225436D01*
X85958932Y-79182426D01*
X85943904Y-79165452D01*
X85911530Y-79096069D01*
X85912407Y-79024008D01*
X85942394Y-78959664D01*
X85997351Y-78913434D01*
X86073137Y-78895714D01*
X86110270Y-78897506D01*
G37*
G36*
X85913947Y-80523168D02*
G01*
X85971835Y-80571981D01*
X86004639Y-80646408D01*
X86008687Y-80688462D01*
X85994784Y-80730451D01*
X85953415Y-80778700D01*
X85928019Y-80801587D01*
X85855687Y-80838751D01*
X85783913Y-80833608D01*
X85712344Y-80786171D01*
X85695356Y-80768228D01*
X85657507Y-80697369D01*
X85660641Y-80624951D01*
X85704932Y-80556335D01*
X85766404Y-80515452D01*
X85841847Y-80503236D01*
X85913947Y-80523168D01*
G37*
G36*
X85150327Y-79107046D02*
G01*
X85176347Y-79131765D01*
X85213456Y-79201216D01*
X85216372Y-79276300D01*
X85186141Y-79345547D01*
X85123810Y-79397491D01*
X85101300Y-79408321D01*
X85052924Y-79422022D01*
X85010257Y-79410212D01*
X84956101Y-79370083D01*
X84910393Y-79315682D01*
X84887657Y-79242172D01*
X84899644Y-79169560D01*
X84946748Y-79108917D01*
X85005053Y-79075275D01*
X85077539Y-79070104D01*
X85150327Y-79107046D01*
G37*
G36*
X83952880Y-80056740D02*
G01*
X84001129Y-80098110D01*
X84025881Y-80126238D01*
X84062432Y-80201840D01*
X84058393Y-80276911D01*
X84013522Y-80346593D01*
X84001968Y-80357303D01*
X83931081Y-80393837D01*
X83855506Y-80390284D01*
X83782818Y-80346642D01*
X83738046Y-80282770D01*
X83725547Y-80208378D01*
X83745251Y-80137048D01*
X83794050Y-80079608D01*
X83868837Y-80046885D01*
X83910891Y-80042838D01*
X83952880Y-80056740D01*
G37*
G36*
X83682781Y-80512645D02*
G01*
X83755470Y-80556287D01*
X83788046Y-80595543D01*
X83812773Y-80667512D01*
X83801997Y-80739177D01*
X83755706Y-80799178D01*
X83753924Y-80800569D01*
X83682533Y-80837348D01*
X83612259Y-80833328D01*
X83537934Y-80788249D01*
X83513364Y-80764472D01*
X83476066Y-80696267D01*
X83479764Y-80625093D01*
X83524765Y-80556335D01*
X83536319Y-80545626D01*
X83607206Y-80509092D01*
X83682781Y-80512645D01*
G37*
G36*
X83481949Y-81518282D02*
G01*
X83538247Y-81566921D01*
X83570473Y-81641241D01*
X83574520Y-81683295D01*
X83560618Y-81725284D01*
X83519248Y-81773533D01*
X83463339Y-81817340D01*
X83393462Y-81837881D01*
X83374733Y-81836755D01*
X83307632Y-81810808D01*
X83260683Y-81758606D01*
X83238058Y-81690898D01*
X83243930Y-81618432D01*
X83282472Y-81551959D01*
X83339942Y-81511323D01*
X83412280Y-81498644D01*
X83481949Y-81518282D01*
G37*
G36*
X87968474Y-80070607D02*
G01*
X88035188Y-80111835D01*
X88062623Y-80146932D01*
X88085821Y-80220371D01*
X88074653Y-80294930D01*
X88031850Y-80359949D01*
X87960143Y-80404766D01*
X87909799Y-80416502D01*
X87849323Y-80403992D01*
X87786705Y-80355366D01*
X87750924Y-80315312D01*
X87732274Y-80273447D01*
X87735394Y-80223075D01*
X87735859Y-80220722D01*
X87768839Y-80143373D01*
X87825281Y-80090093D01*
X87895165Y-80064598D01*
X87968474Y-80070607D01*
G37*
G36*
X84280603Y-79667638D02*
G01*
X84339107Y-79713485D01*
X84358274Y-79742224D01*
X84382383Y-79819228D01*
X84371839Y-79893113D01*
X84327206Y-79952511D01*
X84327107Y-79952589D01*
X84273528Y-79983520D01*
X84222997Y-79996381D01*
X84167473Y-79981704D01*
X84108014Y-79940364D01*
X84062478Y-79884913D01*
X84044310Y-79828021D01*
X84051612Y-79777862D01*
X84087621Y-79714223D01*
X84144617Y-79671986D01*
X84212359Y-79655131D01*
X84280603Y-79667638D01*
G37*
G36*
X87616294Y-79598169D02*
G01*
X87680859Y-79628909D01*
X87721986Y-79682329D01*
X87738360Y-79749087D01*
X87728666Y-79819838D01*
X87691591Y-79885241D01*
X87625821Y-79935950D01*
X87613890Y-79941656D01*
X87542666Y-79960458D01*
X87481371Y-79942827D01*
X87420142Y-79886389D01*
X87409165Y-79873011D01*
X87375136Y-79817529D01*
X87372559Y-79765711D01*
X87399445Y-79699624D01*
X87427198Y-79656603D01*
X87490348Y-79609105D01*
X87577751Y-79594214D01*
X87616294Y-79598169D01*
G37*
G36*
X87123575Y-79234601D02*
G01*
X87195046Y-79254469D01*
X87253587Y-79299313D01*
X87289527Y-79358886D01*
X87293197Y-79422941D01*
X87283906Y-79451128D01*
X87235542Y-79525370D01*
X87166393Y-79574204D01*
X87153080Y-79579490D01*
X87108872Y-79590708D01*
X87068501Y-79582495D01*
X87012935Y-79552113D01*
X86969386Y-79520171D01*
X86948804Y-79482254D01*
X86944143Y-79421265D01*
X86946908Y-79380035D01*
X86975202Y-79300870D01*
X87032130Y-79251442D01*
X87115284Y-79234381D01*
X87123575Y-79234601D01*
G37*
G36*
X84635736Y-79324400D02*
G01*
X84700067Y-79354525D01*
X84746271Y-79409734D01*
X84763977Y-79485872D01*
X84760201Y-79534879D01*
X84731188Y-79604061D01*
X84668727Y-79654439D01*
X84664365Y-79656815D01*
X84624540Y-79674630D01*
X84590766Y-79673605D01*
X84541136Y-79653593D01*
X84485927Y-79610570D01*
X84442403Y-79541783D01*
X84425310Y-79467303D01*
X84425380Y-79464938D01*
X84441474Y-79419068D01*
X84477265Y-79371002D01*
X84494174Y-79356017D01*
X84563648Y-79323512D01*
X84635736Y-79324400D01*
G37*
G36*
X83561051Y-81009299D02*
G01*
X83625656Y-81049986D01*
X83644365Y-81072722D01*
X83670527Y-81143426D01*
X83664865Y-81218859D01*
X83630060Y-81285770D01*
X83568795Y-81330907D01*
X83541625Y-81341701D01*
X83519755Y-81349706D01*
X83514275Y-81350053D01*
X83475294Y-81337843D01*
X83423669Y-81310455D01*
X83375656Y-81277453D01*
X83347514Y-81248398D01*
X83329208Y-81193157D01*
X83336087Y-81124242D01*
X83370910Y-81065550D01*
X83425478Y-81022930D01*
X83491591Y-81002230D01*
X83561051Y-81009299D01*
G37*
G36*
X85669434Y-78949831D02*
G01*
X85685708Y-78963172D01*
X85709687Y-79004735D01*
X85716153Y-79071539D01*
X85715215Y-79109755D01*
X85704805Y-79169296D01*
X85676093Y-79208898D01*
X85620744Y-79243594D01*
X85618018Y-79245004D01*
X85567564Y-79267303D01*
X85532449Y-79276584D01*
X85496414Y-79265102D01*
X85448351Y-79224310D01*
X85407602Y-79166188D01*
X85385162Y-79103644D01*
X85381115Y-79066813D01*
X85390340Y-79017899D01*
X85427248Y-78971353D01*
X85435014Y-78964042D01*
X85508604Y-78924272D01*
X85591685Y-78919096D01*
X85669434Y-78949831D01*
G37*
G36*
X82713221Y-81715896D02*
G01*
X82743369Y-81719925D01*
X82838508Y-81753424D01*
X82902857Y-81814763D01*
X82934729Y-81902519D01*
X82936558Y-81933704D01*
X82916076Y-82018263D01*
X82864575Y-82093054D01*
X82789768Y-82145165D01*
X82750604Y-82161737D01*
X82709237Y-82173119D01*
X82671210Y-82167860D01*
X82615344Y-82146071D01*
X82592474Y-82134611D01*
X82524362Y-82076101D01*
X82475596Y-81997738D01*
X82456889Y-81915139D01*
X82474649Y-81852269D01*
X82531419Y-81780205D01*
X82561157Y-81751431D01*
X82602344Y-81721710D01*
X82646564Y-81712153D01*
X82713221Y-81715896D01*
G37*
G36*
X90841322Y-80518065D02*
G01*
X90983999Y-80676230D01*
X91162362Y-80919950D01*
X91300517Y-81174481D01*
X91399181Y-81441006D01*
X91434480Y-81562714D01*
X91551970Y-81562714D01*
X91575840Y-81562875D01*
X91837759Y-81583605D01*
X91963958Y-81608252D01*
X92109571Y-81636692D01*
X92381384Y-81718676D01*
X92643306Y-81826098D01*
X92885447Y-81955498D01*
X93097914Y-82103416D01*
X93274359Y-82255816D01*
X93473632Y-82464290D01*
X93638803Y-82686939D01*
X93774502Y-82930214D01*
X93885357Y-83200565D01*
X93950384Y-83424956D01*
X93997860Y-83693665D01*
X94014395Y-83935393D01*
X94016543Y-83966788D01*
X94006355Y-84235538D01*
X93967217Y-84491126D01*
X93899050Y-84724764D01*
X93894217Y-84737496D01*
X93802106Y-84938073D01*
X93766202Y-85016255D01*
X93670549Y-85168044D01*
X93606276Y-85270039D01*
X93416970Y-85496527D01*
X93206229Y-85688470D01*
X93200814Y-85693402D01*
X92960339Y-85858346D01*
X92698075Y-85989038D01*
X92416553Y-86083160D01*
X92225226Y-86132632D01*
X86366239Y-86133673D01*
X86013135Y-86133746D01*
X85440078Y-86133904D01*
X84906966Y-86134072D01*
X84412288Y-86134218D01*
X83954536Y-86134309D01*
X83532201Y-86134312D01*
X83143772Y-86134192D01*
X82787742Y-86133918D01*
X82462600Y-86133456D01*
X82166838Y-86132773D01*
X81898946Y-86131836D01*
X81657415Y-86130611D01*
X81440735Y-86129067D01*
X81247398Y-86127168D01*
X81075894Y-86124884D01*
X80924714Y-86122179D01*
X80792349Y-86119021D01*
X80677289Y-86115378D01*
X80578025Y-86111215D01*
X80493048Y-86106500D01*
X80420849Y-86101200D01*
X80359918Y-86095281D01*
X80308747Y-86088711D01*
X80265825Y-86081455D01*
X80229644Y-86073482D01*
X80198694Y-86064758D01*
X80171466Y-86055250D01*
X80146452Y-86044924D01*
X80122141Y-86033749D01*
X80097024Y-86021689D01*
X80069593Y-86008713D01*
X80038337Y-85994787D01*
X79974233Y-85965980D01*
X79724639Y-85825579D01*
X79497492Y-85651391D01*
X79295772Y-85446770D01*
X79209838Y-85331885D01*
X80491004Y-85331885D01*
X80498078Y-85431981D01*
X80530133Y-85504840D01*
X80560324Y-85537226D01*
X80623294Y-85569471D01*
X80694091Y-85561248D01*
X80694776Y-85560994D01*
X80725676Y-85544790D01*
X80750344Y-85517465D01*
X80772443Y-85471426D01*
X80775634Y-85461472D01*
X81102835Y-85461472D01*
X81104952Y-85515384D01*
X81118524Y-85562318D01*
X81149187Y-85593763D01*
X81191283Y-85613853D01*
X81280873Y-85623235D01*
X81390929Y-85603617D01*
X81406524Y-85598354D01*
X81444700Y-85572358D01*
X81969977Y-85572358D01*
X81983372Y-85662547D01*
X82027268Y-85748001D01*
X82096284Y-85806272D01*
X82117740Y-85816135D01*
X82211346Y-85837152D01*
X82304921Y-85829014D01*
X82382437Y-85792493D01*
X82404426Y-85768352D01*
X83243645Y-85768352D01*
X83255489Y-85807247D01*
X83291932Y-85849926D01*
X83299095Y-85856909D01*
X83350637Y-85894085D01*
X83403143Y-85903819D01*
X83462521Y-85884357D01*
X83534675Y-85833944D01*
X83625513Y-85750825D01*
X83629670Y-85746858D01*
X83880665Y-85746858D01*
X83885446Y-85795962D01*
X83926932Y-85849926D01*
X83937019Y-85859733D01*
X83987913Y-85895040D01*
X84035852Y-85894248D01*
X84094372Y-85858011D01*
X84106870Y-85847290D01*
X84144599Y-85788106D01*
X84141740Y-85723026D01*
X84127530Y-85701646D01*
X84444472Y-85701646D01*
X84454516Y-85780078D01*
X84459564Y-85788106D01*
X84498432Y-85849926D01*
X84558925Y-85890310D01*
X84636829Y-85904337D01*
X84714651Y-85888184D01*
X84782493Y-85846067D01*
X84830456Y-85782199D01*
X84841905Y-85730957D01*
X85152677Y-85730957D01*
X85173859Y-85793232D01*
X85219526Y-85854255D01*
X85236512Y-85867697D01*
X85312465Y-85899575D01*
X85390043Y-85890246D01*
X85464105Y-85840008D01*
X85493911Y-85805119D01*
X85525322Y-85730453D01*
X85514512Y-85655005D01*
X85461495Y-85580142D01*
X85416625Y-85540753D01*
X85374411Y-85524557D01*
X85318620Y-85528139D01*
X85272628Y-85540053D01*
X85201079Y-85584498D01*
X85159048Y-85650636D01*
X85155069Y-85700797D01*
X85152677Y-85730957D01*
X84841905Y-85730957D01*
X84848644Y-85700797D01*
X84848521Y-85692362D01*
X84833381Y-85623619D01*
X84786772Y-85561585D01*
X84779969Y-85554935D01*
X84718161Y-85512053D01*
X84647560Y-85499714D01*
X84575411Y-85513817D01*
X84509134Y-85558617D01*
X84464082Y-85624526D01*
X84444472Y-85701646D01*
X84127530Y-85701646D01*
X84098189Y-85657501D01*
X84067416Y-85629136D01*
X84027775Y-85609405D01*
X83988569Y-85621901D01*
X83936849Y-85667419D01*
X83913122Y-85692814D01*
X83880665Y-85746858D01*
X83629670Y-85746858D01*
X83670561Y-85707831D01*
X83867446Y-85546752D01*
X84073043Y-85423305D01*
X84294671Y-85333674D01*
X84539650Y-85274040D01*
X84582070Y-85266704D01*
X84677457Y-85253037D01*
X84756592Y-85248493D01*
X84837766Y-85252668D01*
X84939270Y-85265153D01*
X85140790Y-85301845D01*
X85352012Y-85365040D01*
X85544447Y-85454424D01*
X85728218Y-85574840D01*
X85912647Y-85730453D01*
X85913450Y-85731131D01*
X85945979Y-85760948D01*
X86037608Y-85838409D01*
X86109149Y-85885429D01*
X86165573Y-85903941D01*
X86211848Y-85895877D01*
X86252946Y-85863172D01*
X86283345Y-85810035D01*
X86283801Y-85788984D01*
X86629714Y-85788984D01*
X86665351Y-85845683D01*
X86705992Y-85871635D01*
X86753861Y-85875122D01*
X86816270Y-85853507D01*
X86901810Y-85805325D01*
X86943596Y-85781285D01*
X87082914Y-85718620D01*
X87185564Y-85685758D01*
X89108447Y-85685758D01*
X89127503Y-85784264D01*
X89177098Y-85854222D01*
X89243028Y-85892664D01*
X89307420Y-85894068D01*
X89363005Y-85858616D01*
X89405504Y-85789108D01*
X89430641Y-85688340D01*
X89434537Y-85661737D01*
X89450000Y-85605192D01*
X89826278Y-85605192D01*
X89846269Y-85697006D01*
X89902592Y-85779765D01*
X89936976Y-85807207D01*
X90020485Y-85843856D01*
X90111874Y-85856196D01*
X90193226Y-85840485D01*
X90198775Y-85837962D01*
X90275813Y-85781224D01*
X90324293Y-85703101D01*
X90343630Y-85613417D01*
X90333242Y-85521999D01*
X90292546Y-85438670D01*
X90220958Y-85373256D01*
X90144942Y-85338761D01*
X90066515Y-85335194D01*
X89976968Y-85365728D01*
X89967201Y-85370592D01*
X89888454Y-85432467D01*
X89840910Y-85513840D01*
X89826278Y-85605192D01*
X89450000Y-85605192D01*
X89479567Y-85497072D01*
X89555214Y-85353202D01*
X89657195Y-85234233D01*
X89781223Y-85144270D01*
X89923015Y-85087419D01*
X90078286Y-85067786D01*
X90208385Y-85080175D01*
X90358708Y-85129118D01*
X90488488Y-85212078D01*
X90593900Y-85325677D01*
X90671118Y-85466539D01*
X90711417Y-85613417D01*
X90716320Y-85631285D01*
X90718356Y-85643642D01*
X90735686Y-85727003D01*
X90755773Y-85796175D01*
X90774675Y-85837242D01*
X90783837Y-85847307D01*
X90837641Y-85879013D01*
X90904059Y-85894773D01*
X90960963Y-85888499D01*
X91001508Y-85854314D01*
X91032681Y-85784359D01*
X91046444Y-85688470D01*
X91041869Y-85573809D01*
X91018030Y-85447537D01*
X91017903Y-85447050D01*
X90949218Y-85259447D01*
X90916190Y-85205174D01*
X91265838Y-85205174D01*
X91268338Y-85238212D01*
X91296421Y-85281785D01*
X91344599Y-85326935D01*
X91404426Y-85346524D01*
X91459725Y-85334576D01*
X91500347Y-85293652D01*
X91505550Y-85271470D01*
X91628172Y-85271470D01*
X91665846Y-85338109D01*
X91703315Y-85373538D01*
X91770143Y-85393880D01*
X91797404Y-85389689D01*
X91855364Y-85356738D01*
X91900271Y-85302751D01*
X91918310Y-85241897D01*
X91918090Y-85238026D01*
X91900795Y-85194631D01*
X91864328Y-85147474D01*
X91853092Y-85137140D01*
X91788611Y-85106156D01*
X91721580Y-85115399D01*
X91659018Y-85164294D01*
X91629677Y-85212094D01*
X91629316Y-85226315D01*
X91628172Y-85271470D01*
X91505550Y-85271470D01*
X91516143Y-85226315D01*
X91515535Y-85212995D01*
X91493108Y-85151706D01*
X91446976Y-85113194D01*
X91402397Y-85103492D01*
X92004966Y-85103492D01*
X92009964Y-85169211D01*
X92054931Y-85236092D01*
X92063252Y-85241897D01*
X92116773Y-85279231D01*
X92177117Y-85281567D01*
X92234985Y-85241722D01*
X92240673Y-85235281D01*
X92273410Y-85168044D01*
X92270389Y-85096666D01*
X92231818Y-85034871D01*
X92194471Y-85005892D01*
X92143196Y-84993882D01*
X92080960Y-85016049D01*
X92039139Y-85045672D01*
X92004966Y-85103492D01*
X91402397Y-85103492D01*
X91388944Y-85100564D01*
X91330821Y-85116920D01*
X91284412Y-85165368D01*
X91265838Y-85205174D01*
X90916190Y-85205174D01*
X90850724Y-85097599D01*
X90727143Y-84962783D01*
X90583195Y-84856275D01*
X90423600Y-84779351D01*
X90253079Y-84733288D01*
X90076353Y-84719362D01*
X89898141Y-84738850D01*
X89723165Y-84793027D01*
X89556145Y-84883170D01*
X89401801Y-85010555D01*
X89391906Y-85020568D01*
X89278249Y-85159072D01*
X89202512Y-85299014D01*
X89193956Y-85314822D01*
X89133185Y-85498427D01*
X89119887Y-85558340D01*
X89108447Y-85685758D01*
X87185564Y-85685758D01*
X87239325Y-85668547D01*
X87394336Y-85637371D01*
X87434225Y-85630625D01*
X87492777Y-85608640D01*
X87530660Y-85570001D01*
X87547815Y-85541101D01*
X87554247Y-85504879D01*
X87534782Y-85460233D01*
X87496401Y-85413896D01*
X87441237Y-85374528D01*
X87438876Y-85373425D01*
X87362796Y-85357776D01*
X87261936Y-85363892D01*
X87145408Y-85388782D01*
X87022328Y-85429453D01*
X86901809Y-85482913D01*
X86792966Y-85546172D01*
X86704914Y-85616236D01*
X86674638Y-85649125D01*
X86633059Y-85722017D01*
X86632365Y-85735921D01*
X86629714Y-85788984D01*
X86283801Y-85788984D01*
X86284950Y-85735921D01*
X86250117Y-85646966D01*
X86178323Y-85541904D01*
X86069041Y-85419472D01*
X85914767Y-85283635D01*
X85873166Y-85256988D01*
X86354944Y-85256988D01*
X86359704Y-85314360D01*
X86400465Y-85369024D01*
X86443343Y-85400599D01*
X86496069Y-85411709D01*
X86558984Y-85393036D01*
X86641039Y-85343636D01*
X86684322Y-85316576D01*
X87854310Y-85316576D01*
X87865348Y-85438791D01*
X87889291Y-85504879D01*
X87903945Y-85545329D01*
X87971016Y-85623160D01*
X88010106Y-85648147D01*
X88084906Y-85667735D01*
X88152770Y-85654777D01*
X88206658Y-85615613D01*
X88239527Y-85556585D01*
X88244336Y-85484034D01*
X88214043Y-85404302D01*
X88187228Y-85355243D01*
X88179339Y-85313920D01*
X88192177Y-85268811D01*
X88198905Y-85254361D01*
X88245495Y-85198486D01*
X88306295Y-85169080D01*
X88371192Y-85165184D01*
X88430070Y-85185841D01*
X88472814Y-85230091D01*
X88489310Y-85296976D01*
X88493099Y-85339674D01*
X88522905Y-85413012D01*
X88574966Y-85460288D01*
X88640381Y-85477974D01*
X88710248Y-85462543D01*
X88775666Y-85410465D01*
X88793801Y-85387989D01*
X88818113Y-85346230D01*
X88825732Y-85299014D01*
X88821174Y-85228251D01*
X88820378Y-85221049D01*
X88785209Y-85090536D01*
X88713942Y-84981555D01*
X88608369Y-84896893D01*
X88486819Y-84844457D01*
X88354703Y-84824745D01*
X88226591Y-84839603D01*
X88108433Y-84885722D01*
X88048915Y-84928832D01*
X88006177Y-84959789D01*
X87925772Y-85058494D01*
X87873167Y-85178527D01*
X87854310Y-85316576D01*
X86684322Y-85316576D01*
X86752506Y-85273949D01*
X86959416Y-85177481D01*
X87171837Y-85117914D01*
X87382837Y-85097547D01*
X87466294Y-85094411D01*
X87543094Y-85079476D01*
X87592406Y-85049383D01*
X87621966Y-85001010D01*
X87629638Y-84928832D01*
X87598978Y-84862201D01*
X87533269Y-84809966D01*
X87500538Y-84795764D01*
X87450059Y-84784681D01*
X87381773Y-84782093D01*
X87283651Y-84786885D01*
X87215033Y-84793134D01*
X86993695Y-84834203D01*
X86788001Y-84904297D01*
X86605094Y-85000555D01*
X86452116Y-85120114D01*
X86387172Y-85192154D01*
X86354944Y-85256988D01*
X85873166Y-85256988D01*
X85717743Y-85157435D01*
X85487470Y-85052016D01*
X85221438Y-84966035D01*
X85103419Y-84941935D01*
X84948755Y-84924672D01*
X84781833Y-84917456D01*
X84615965Y-84920417D01*
X84464464Y-84933686D01*
X84340644Y-84957394D01*
X84235089Y-84990481D01*
X84047751Y-85067361D01*
X83862393Y-85164283D01*
X83686988Y-85275965D01*
X83529512Y-85397123D01*
X83397939Y-85522473D01*
X83377798Y-85548091D01*
X83300242Y-85646733D01*
X83295724Y-85653816D01*
X83256893Y-85721217D01*
X83243645Y-85768352D01*
X82404426Y-85768352D01*
X82446880Y-85721742D01*
X82481390Y-85636356D01*
X82484067Y-85548091D01*
X82457612Y-85465153D01*
X82404724Y-85395751D01*
X82328102Y-85348091D01*
X82230446Y-85330380D01*
X82208774Y-85330697D01*
X82152994Y-85338513D01*
X82106751Y-85363050D01*
X82052153Y-85412557D01*
X82004349Y-85465782D01*
X81977239Y-85516234D01*
X81969977Y-85572358D01*
X81444700Y-85572358D01*
X81458512Y-85562953D01*
X81476616Y-85517066D01*
X81459831Y-85471108D01*
X81407153Y-85435488D01*
X81383976Y-85425693D01*
X81369334Y-85409650D01*
X81372223Y-85378862D01*
X81390854Y-85320718D01*
X81402096Y-85289939D01*
X81424959Y-85238477D01*
X81442402Y-85212980D01*
X81456723Y-85211319D01*
X81503026Y-85219461D01*
X81565416Y-85238377D01*
X81584386Y-85245000D01*
X81641815Y-85261501D01*
X81677351Y-85261736D01*
X81704459Y-85246490D01*
X81723237Y-85224653D01*
X81733750Y-85171820D01*
X81711268Y-85115305D01*
X81658584Y-85066083D01*
X81647496Y-85058842D01*
X81606709Y-85025967D01*
X81589792Y-85001301D01*
X81590913Y-84995724D01*
X81612391Y-84962902D01*
X81652567Y-84918063D01*
X81700134Y-84872302D01*
X81743781Y-84836709D01*
X81772199Y-84822380D01*
X81782695Y-84826926D01*
X81814656Y-84857160D01*
X81853105Y-84906390D01*
X81865279Y-84923374D01*
X81922305Y-84984135D01*
X81976473Y-85006279D01*
X82032677Y-84992141D01*
X82057983Y-84970176D01*
X82074999Y-84916944D01*
X82063132Y-84851221D01*
X82022894Y-84783907D01*
X82012936Y-84771884D01*
X81982311Y-84731889D01*
X81969977Y-84710498D01*
X81986782Y-84695834D01*
X82031218Y-84675360D01*
X82089298Y-84654540D01*
X82146999Y-84638379D01*
X82190300Y-84631880D01*
X82216929Y-84635354D01*
X82240208Y-84657851D01*
X82254500Y-84711255D01*
X82259590Y-84738221D01*
X82284581Y-84828332D01*
X82317467Y-84880801D01*
X82361714Y-84899300D01*
X82420788Y-84887505D01*
X82433806Y-84882024D01*
X82476210Y-84847299D01*
X82487337Y-84793589D01*
X82469009Y-84714352D01*
X82467672Y-84710459D01*
X82451862Y-84657248D01*
X82452676Y-84630231D01*
X82470271Y-84617264D01*
X82471230Y-84616915D01*
X82511098Y-84612175D01*
X82572420Y-84613479D01*
X82639251Y-84619428D01*
X82695644Y-84628624D01*
X82725653Y-84639667D01*
X82727683Y-84643814D01*
X82723462Y-84677396D01*
X82704021Y-84728114D01*
X82699607Y-84737550D01*
X82672557Y-84816814D01*
X82676590Y-84872020D01*
X82711902Y-84907631D01*
X82749262Y-84923225D01*
X82805462Y-84922672D01*
X82854827Y-84884920D01*
X82902148Y-84807446D01*
X82955903Y-84697262D01*
X83066190Y-84760249D01*
X83115758Y-84789941D01*
X83159595Y-84819648D01*
X83176477Y-84836118D01*
X83171102Y-84846872D01*
X83144241Y-84882413D01*
X83102394Y-84931001D01*
X83073650Y-84964992D01*
X83036216Y-85028482D01*
X83034362Y-85080192D01*
X83067019Y-85126016D01*
X83089890Y-85143870D01*
X83136809Y-85158459D01*
X83189376Y-85140714D01*
X83256151Y-85088956D01*
X83282019Y-85066812D01*
X83339577Y-85031229D01*
X83388504Y-85025771D01*
X83443470Y-85018712D01*
X83512357Y-84974655D01*
X83541176Y-84949915D01*
X83567793Y-84919607D01*
X83569242Y-84891539D01*
X83550278Y-84850092D01*
X83524706Y-84810904D01*
X83461012Y-84739192D01*
X83376836Y-84661845D01*
X83282252Y-84587852D01*
X83187329Y-84526200D01*
X83085393Y-84474354D01*
X82874994Y-84399681D01*
X82649241Y-84356051D01*
X82417785Y-84344312D01*
X82190278Y-84365312D01*
X81976371Y-84419898D01*
X81825240Y-84486395D01*
X81663582Y-84587043D01*
X81513314Y-84710225D01*
X81379294Y-84850152D01*
X81266379Y-85001031D01*
X81179426Y-85157072D01*
X81123292Y-85312483D01*
X81102835Y-85461472D01*
X80775634Y-85461472D01*
X80795634Y-85399083D01*
X80823581Y-85292843D01*
X80827069Y-85279234D01*
X80908215Y-85050671D01*
X81026265Y-84837370D01*
X81177618Y-84642786D01*
X81358675Y-84470378D01*
X81565834Y-84323603D01*
X81795496Y-84205918D01*
X82044060Y-84120781D01*
X82203075Y-84090211D01*
X82392136Y-84073892D01*
X82589038Y-84073568D01*
X82778100Y-84089235D01*
X82943644Y-84120893D01*
X83045686Y-84151347D01*
X83271783Y-84240871D01*
X83484716Y-84354582D01*
X83670522Y-84485476D01*
X83687674Y-84499509D01*
X83792476Y-84584812D01*
X83870794Y-84647036D01*
X83927970Y-84689650D01*
X83969342Y-84716125D01*
X84000251Y-84729933D01*
X84026037Y-84734542D01*
X84052040Y-84733425D01*
X84100196Y-84718263D01*
X84157346Y-84669096D01*
X84167012Y-84655922D01*
X84187449Y-84619943D01*
X84186266Y-84586570D01*
X84164547Y-84535701D01*
X84134151Y-84484452D01*
X84619051Y-84484452D01*
X84630333Y-84531347D01*
X84657428Y-84573672D01*
X84701270Y-84612753D01*
X84728035Y-84619943D01*
X84771923Y-84631733D01*
X84849233Y-84610398D01*
X84870541Y-84589022D01*
X84902377Y-84528667D01*
X84914101Y-84495445D01*
X85273080Y-84495445D01*
X85288269Y-84570376D01*
X85343944Y-84644580D01*
X85389356Y-84683239D01*
X85465159Y-84715903D01*
X85539227Y-84706372D01*
X85612272Y-84654675D01*
X85651049Y-84604678D01*
X85676975Y-84521844D01*
X85662938Y-84437335D01*
X85609015Y-84358342D01*
X85587706Y-84339476D01*
X85510475Y-84301740D01*
X85430411Y-84300560D01*
X85357602Y-84334499D01*
X85302140Y-84402117D01*
X85297078Y-84412258D01*
X85273080Y-84495445D01*
X84914101Y-84495445D01*
X84934021Y-84438995D01*
X84982650Y-84317881D01*
X85068014Y-84195379D01*
X85178483Y-84104991D01*
X85310993Y-84049089D01*
X85462477Y-84030045D01*
X85606383Y-84047691D01*
X85731013Y-84101615D01*
X85835527Y-84192505D01*
X85921008Y-84321047D01*
X85939611Y-84368976D01*
X85955326Y-84475729D01*
X85952660Y-84521844D01*
X85948278Y-84597652D01*
X85918547Y-84721608D01*
X85911388Y-84742686D01*
X85892759Y-84802225D01*
X85887984Y-84839264D01*
X85897227Y-84867723D01*
X85913730Y-84891539D01*
X85920650Y-84901525D01*
X85954561Y-84935863D01*
X86022144Y-84966016D01*
X86093309Y-84962349D01*
X86155312Y-84923660D01*
X86178715Y-84896171D01*
X86243230Y-84784205D01*
X86284769Y-84650232D01*
X86300479Y-84506317D01*
X86287508Y-84364530D01*
X86275420Y-84312913D01*
X86208544Y-84135854D01*
X86171564Y-84080177D01*
X86827326Y-84080177D01*
X86840244Y-84203994D01*
X86876437Y-84309372D01*
X86890903Y-84334806D01*
X86975941Y-84435988D01*
X87085252Y-84504652D01*
X87091579Y-84506317D01*
X87214047Y-84538548D01*
X87357539Y-84535427D01*
X87403055Y-84525423D01*
X87494379Y-84483787D01*
X87566307Y-84421712D01*
X87613377Y-84346688D01*
X87630125Y-84266206D01*
X87611089Y-84187759D01*
X87599092Y-84166656D01*
X87545811Y-84108975D01*
X87484646Y-84089996D01*
X87420122Y-84111528D01*
X87378735Y-84145072D01*
X87353491Y-84178030D01*
X87333640Y-84198480D01*
X87287672Y-84207590D01*
X87234456Y-84197760D01*
X87190840Y-84169838D01*
X87170632Y-84138120D01*
X87160325Y-84068894D01*
X87180151Y-83992001D01*
X87226751Y-83917427D01*
X87296763Y-83855155D01*
X87346569Y-83834335D01*
X87432528Y-83820070D01*
X87530344Y-83818719D01*
X87624237Y-83830295D01*
X87698428Y-83854812D01*
X87704056Y-83857857D01*
X87782802Y-83916723D01*
X87859078Y-83998933D01*
X87921247Y-84090081D01*
X87957674Y-84175762D01*
X87963849Y-84200788D01*
X87977380Y-84273506D01*
X87973185Y-84325962D01*
X87947520Y-84373946D01*
X87896643Y-84433248D01*
X87857750Y-84479858D01*
X87818634Y-84553423D01*
X87818100Y-84617424D01*
X87855540Y-84675444D01*
X87899103Y-84719007D01*
X87966665Y-84675501D01*
X88123528Y-84590410D01*
X88325650Y-84522512D01*
X88535578Y-84495091D01*
X88750641Y-84508189D01*
X88968171Y-84561848D01*
X89185498Y-84656112D01*
X89203737Y-84665667D01*
X89280024Y-84700910D01*
X89335156Y-84713299D01*
X89380738Y-84703624D01*
X89428372Y-84672677D01*
X89442551Y-84660537D01*
X89482127Y-84601229D01*
X89482792Y-84550506D01*
X90947655Y-84550506D01*
X90953441Y-84613524D01*
X90991686Y-84662430D01*
X90995263Y-84664935D01*
X91032508Y-84688193D01*
X91061401Y-84690577D01*
X91105761Y-84674635D01*
X91123645Y-84666182D01*
X91181804Y-84617996D01*
X91221357Y-84553059D01*
X91239015Y-84482556D01*
X91231488Y-84417670D01*
X91195487Y-84369585D01*
X91172504Y-84355255D01*
X91137836Y-84349263D01*
X91091523Y-84367962D01*
X91021309Y-84417964D01*
X90971290Y-84482334D01*
X90952462Y-84536641D01*
X90947655Y-84550506D01*
X89482792Y-84550506D01*
X89482974Y-84536641D01*
X89447389Y-84469143D01*
X89377673Y-84401104D01*
X89276124Y-84334896D01*
X89145042Y-84272888D01*
X88986726Y-84217450D01*
X88966623Y-84211495D01*
X88868252Y-84185740D01*
X88776974Y-84169725D01*
X88676349Y-84161211D01*
X88549939Y-84157958D01*
X88303651Y-84155630D01*
X88268064Y-84036828D01*
X88266239Y-84031410D01*
X89629596Y-84031410D01*
X89640054Y-84135758D01*
X89668676Y-84205083D01*
X89689610Y-84228725D01*
X89752620Y-84264459D01*
X89820234Y-84263174D01*
X89881801Y-84223929D01*
X89893083Y-84210462D01*
X89917258Y-84164618D01*
X89935446Y-84096225D01*
X89937410Y-84083183D01*
X90519473Y-84083183D01*
X90519675Y-84121977D01*
X90528467Y-84260902D01*
X90551309Y-84363276D01*
X90589839Y-84432361D01*
X90645695Y-84471419D01*
X90720513Y-84483714D01*
X90740463Y-84482455D01*
X90781845Y-84466396D01*
X90811467Y-84427952D01*
X90831090Y-84362202D01*
X90842475Y-84264225D01*
X90847382Y-84129100D01*
X90848752Y-84060580D01*
X90853344Y-83962726D01*
X90856261Y-83938233D01*
X91387282Y-83938233D01*
X91395790Y-84027060D01*
X91435012Y-84106786D01*
X91505607Y-84168126D01*
X91506374Y-84168560D01*
X91563276Y-84196858D01*
X91611393Y-84214781D01*
X91622943Y-84217178D01*
X91701946Y-84211350D01*
X91781232Y-84174656D01*
X91850554Y-84115493D01*
X91899663Y-84042257D01*
X91918310Y-83963343D01*
X91909528Y-83891035D01*
X91869882Y-83801632D01*
X91805254Y-83733804D01*
X91723308Y-83692645D01*
X91631710Y-83683248D01*
X91538127Y-83710707D01*
X91459766Y-83770433D01*
X91408828Y-83849595D01*
X91387282Y-83938233D01*
X90856261Y-83938233D01*
X90861956Y-83890404D01*
X90876137Y-83832790D01*
X90897435Y-83779059D01*
X90906648Y-83760107D01*
X90975243Y-83653802D01*
X91066523Y-83550366D01*
X91168317Y-83462181D01*
X91268455Y-83401626D01*
X91310070Y-83385595D01*
X91434015Y-83357950D01*
X91570155Y-83349673D01*
X91702025Y-83361043D01*
X91813162Y-83392343D01*
X91921983Y-83450970D01*
X92043689Y-83551904D01*
X92135849Y-83673869D01*
X92194241Y-83810925D01*
X92214643Y-83957134D01*
X92214357Y-83963343D01*
X92211872Y-84017286D01*
X92177411Y-84174423D01*
X92106627Y-84316568D01*
X92003387Y-84437264D01*
X91939039Y-84482556D01*
X91871558Y-84530053D01*
X91847091Y-84542215D01*
X91785212Y-84564142D01*
X91711717Y-84575408D01*
X91611393Y-84578867D01*
X91562616Y-84579519D01*
X91475280Y-84585412D01*
X91416869Y-84599959D01*
X91378151Y-84626290D01*
X91349897Y-84667536D01*
X91341754Y-84687005D01*
X91340749Y-84751843D01*
X91375460Y-84811071D01*
X91441245Y-84855154D01*
X91489077Y-84868826D01*
X91573589Y-84880927D01*
X91668921Y-84885189D01*
X91670796Y-84885179D01*
X91712090Y-84880891D01*
X92301038Y-84880891D01*
X92303432Y-84943546D01*
X92336351Y-84995799D01*
X92337653Y-84996911D01*
X92405738Y-85037728D01*
X92470154Y-85037504D01*
X92537435Y-84996254D01*
X92543465Y-84990534D01*
X92569449Y-84938073D01*
X92565244Y-84877076D01*
X92536299Y-84819145D01*
X92488059Y-84775880D01*
X92425974Y-84758880D01*
X92368397Y-84775732D01*
X92324312Y-84820673D01*
X92301038Y-84880891D01*
X91712090Y-84880891D01*
X91858670Y-84865670D01*
X92025867Y-84809316D01*
X92173315Y-84715677D01*
X92301946Y-84584308D01*
X92313479Y-84568380D01*
X92532143Y-84568380D01*
X92542764Y-84606968D01*
X92574476Y-84653047D01*
X92619285Y-84682954D01*
X92683647Y-84692672D01*
X92744393Y-84673924D01*
X92789592Y-84631046D01*
X92807310Y-84568380D01*
X92807309Y-84568072D01*
X92788292Y-84506874D01*
X92740922Y-84460050D01*
X92679109Y-84441380D01*
X92661408Y-84442662D01*
X92598641Y-84466805D01*
X92551029Y-84512620D01*
X92532143Y-84568380D01*
X92313479Y-84568380D01*
X92364704Y-84497637D01*
X92459219Y-84318849D01*
X92507292Y-84154932D01*
X92659272Y-84154932D01*
X92670501Y-84214305D01*
X92706186Y-84260263D01*
X92770093Y-84289309D01*
X92833204Y-84284168D01*
X92882600Y-84241425D01*
X92901591Y-84194413D01*
X92894552Y-84134225D01*
X92855438Y-84087226D01*
X92789905Y-84064228D01*
X92788318Y-84064082D01*
X92730781Y-84067012D01*
X92689510Y-84082694D01*
X92674215Y-84100419D01*
X92659272Y-84154932D01*
X92507292Y-84154932D01*
X92513734Y-84132967D01*
X92527496Y-83943166D01*
X92499896Y-83753636D01*
X92639322Y-83753636D01*
X92646393Y-83809559D01*
X92678918Y-83847969D01*
X92727315Y-83866208D01*
X92791457Y-83860792D01*
X92841574Y-83816096D01*
X92856431Y-83784946D01*
X92858182Y-83727243D01*
X92832430Y-83678783D01*
X92788105Y-83647636D01*
X92734137Y-83641874D01*
X92679457Y-83669569D01*
X92657656Y-83696471D01*
X92639322Y-83753636D01*
X92499896Y-83753636D01*
X92499748Y-83752619D01*
X92469118Y-83651419D01*
X92383274Y-83465307D01*
X92267406Y-83308366D01*
X92122871Y-83181917D01*
X91951025Y-83087280D01*
X91753226Y-83025777D01*
X91736113Y-83022313D01*
X91536070Y-83004311D01*
X91339584Y-83026247D01*
X91151813Y-83085963D01*
X90977913Y-83181298D01*
X90823043Y-83310090D01*
X90692357Y-83470181D01*
X90641363Y-83553990D01*
X90572204Y-83712545D01*
X90532547Y-83885490D01*
X90519473Y-84083183D01*
X89937410Y-84083183D01*
X89950628Y-83995391D01*
X89964725Y-83894442D01*
X89997747Y-83734678D01*
X90045085Y-83587964D01*
X90112095Y-83435733D01*
X90118593Y-83422595D01*
X90243307Y-83219341D01*
X90400019Y-83038133D01*
X90583424Y-82881824D01*
X90788215Y-82753267D01*
X91009087Y-82655316D01*
X91240734Y-82590824D01*
X91477850Y-82562646D01*
X91715129Y-82573633D01*
X91807669Y-82588277D01*
X92066435Y-82655710D01*
X92303250Y-82758753D01*
X92516789Y-82896604D01*
X92705727Y-83068457D01*
X92868738Y-83273510D01*
X92896125Y-83314965D01*
X92994722Y-83486968D01*
X93066603Y-83659528D01*
X93084334Y-83727243D01*
X93114464Y-83842312D01*
X93127672Y-83943166D01*
X93141006Y-84044987D01*
X93146102Y-84194413D01*
X93148926Y-84277219D01*
X93148914Y-84283765D01*
X93149140Y-84403786D01*
X93150853Y-84488573D01*
X93154862Y-84544903D01*
X93159681Y-84568380D01*
X93161976Y-84579558D01*
X93173004Y-84599314D01*
X93188756Y-84610952D01*
X93198412Y-84615677D01*
X93230540Y-84617344D01*
X93259732Y-84584613D01*
X93271036Y-84563665D01*
X93298749Y-84480289D01*
X93320655Y-84366931D01*
X93336349Y-84232432D01*
X93345421Y-84085639D01*
X93347464Y-83935393D01*
X93342069Y-83790538D01*
X93328830Y-83659920D01*
X93307338Y-83552380D01*
X93225594Y-83311775D01*
X93104348Y-83067414D01*
X92952347Y-82852106D01*
X92769489Y-82665745D01*
X92555668Y-82508228D01*
X92310782Y-82379451D01*
X92034726Y-82279309D01*
X91980389Y-82264098D01*
X91914044Y-82249075D01*
X91845545Y-82239208D01*
X91764852Y-82233542D01*
X91661926Y-82231122D01*
X91526726Y-82230993D01*
X91400989Y-82232126D01*
X91298048Y-82235101D01*
X91218200Y-82240965D01*
X91151500Y-82250807D01*
X91088003Y-82265719D01*
X91017761Y-82286790D01*
X90904527Y-82326181D01*
X90643241Y-82444684D01*
X90405901Y-82592518D01*
X90195272Y-82766833D01*
X90014117Y-82964776D01*
X89880318Y-83161293D01*
X89865200Y-83183496D01*
X89751286Y-83420143D01*
X89691000Y-83619429D01*
X89675138Y-83671864D01*
X89663016Y-83730434D01*
X89649492Y-83816979D01*
X89637263Y-83895237D01*
X89629596Y-84031410D01*
X88266239Y-84031410D01*
X88249646Y-83982162D01*
X88180739Y-83847014D01*
X88954321Y-83847014D01*
X88980404Y-83914407D01*
X89041157Y-83965913D01*
X89049649Y-83970229D01*
X89113679Y-83993453D01*
X89165557Y-83986223D01*
X89222613Y-83946707D01*
X89231678Y-83938609D01*
X89270287Y-83885880D01*
X89280943Y-83816979D01*
X89280543Y-83804602D01*
X89258524Y-83731499D01*
X89210069Y-83681573D01*
X89145262Y-83658755D01*
X89074188Y-83666976D01*
X89006931Y-83710168D01*
X88964281Y-83773988D01*
X88954321Y-83847014D01*
X88180739Y-83847014D01*
X88167610Y-83821263D01*
X88053452Y-83686412D01*
X87929224Y-83594714D01*
X88446976Y-83594714D01*
X88455649Y-83643894D01*
X88498931Y-83712092D01*
X88513031Y-83724967D01*
X88583197Y-83760091D01*
X88655650Y-83755634D01*
X88721688Y-83711614D01*
X88741731Y-83686545D01*
X88767938Y-83619429D01*
X88763149Y-83553473D01*
X88733785Y-83495425D01*
X88686262Y-83452038D01*
X88627000Y-83430060D01*
X88562417Y-83436242D01*
X88498931Y-83477335D01*
X88466763Y-83520424D01*
X88446976Y-83594714D01*
X87929224Y-83594714D01*
X87910286Y-83580735D01*
X87741222Y-83507360D01*
X87727498Y-83503224D01*
X87554698Y-83471875D01*
X87386941Y-83477857D01*
X87229754Y-83519086D01*
X87088668Y-83593477D01*
X86969208Y-83698943D01*
X86876904Y-83833401D01*
X86871253Y-83844873D01*
X86837668Y-83954833D01*
X86827326Y-84080177D01*
X86171564Y-84080177D01*
X86107628Y-83983915D01*
X85972989Y-83857497D01*
X85804945Y-83756999D01*
X85746504Y-83730431D01*
X85686903Y-83708755D01*
X85627345Y-83696579D01*
X85553715Y-83691226D01*
X85451894Y-83690017D01*
X85373151Y-83690602D01*
X85293576Y-83694581D01*
X85232759Y-83704489D01*
X85177157Y-83722804D01*
X85113227Y-83752006D01*
X85110755Y-83753222D01*
X85010888Y-83814464D01*
X84907048Y-83897819D01*
X84809713Y-83993062D01*
X84729358Y-84089967D01*
X84676461Y-84178308D01*
X84662421Y-84214661D01*
X84636767Y-84306691D01*
X84621873Y-84396646D01*
X84620244Y-84416378D01*
X84619051Y-84484452D01*
X84134151Y-84484452D01*
X84123591Y-84466647D01*
X84036009Y-84360525D01*
X83920482Y-84250269D01*
X83784143Y-84141437D01*
X83634128Y-84039587D01*
X83477572Y-83950278D01*
X83321610Y-83879067D01*
X83187403Y-83828871D01*
X83060065Y-83789010D01*
X82938481Y-83761686D01*
X82810682Y-83744815D01*
X82664699Y-83736313D01*
X82488560Y-83734100D01*
X82434452Y-83734219D01*
X82311229Y-83735389D01*
X82217121Y-83738598D01*
X82142448Y-83744871D01*
X82077529Y-83755232D01*
X82012682Y-83770705D01*
X81938227Y-83792314D01*
X81877616Y-83811626D01*
X81632913Y-83908524D01*
X81400947Y-84030021D01*
X81189022Y-84171380D01*
X81004443Y-84327868D01*
X80854513Y-84494752D01*
X80767849Y-84617467D01*
X80676803Y-84770341D01*
X80601810Y-84923780D01*
X80547168Y-85065701D01*
X80544656Y-85072225D01*
X80507125Y-85210113D01*
X80491004Y-85331885D01*
X79209838Y-85331885D01*
X79122462Y-85215072D01*
X79013488Y-85018943D01*
X79930324Y-85018943D01*
X79932653Y-85079653D01*
X79975910Y-85134589D01*
X80006506Y-85152565D01*
X80068229Y-85156162D01*
X80128477Y-85118714D01*
X80129780Y-85117403D01*
X80165074Y-85065701D01*
X80161595Y-85015595D01*
X80118856Y-84959001D01*
X80098357Y-84939409D01*
X80055369Y-84911911D01*
X80016462Y-84918839D01*
X79967450Y-84960316D01*
X79930324Y-85018943D01*
X79013488Y-85018943D01*
X78980544Y-84959651D01*
X78873001Y-84683862D01*
X78856467Y-84629786D01*
X78840395Y-84568861D01*
X79711803Y-84568861D01*
X79712923Y-84603838D01*
X79740500Y-84648189D01*
X79744356Y-84653246D01*
X79800412Y-84701607D01*
X79858777Y-84709235D01*
X79915509Y-84675515D01*
X79920733Y-84670240D01*
X79951613Y-84631008D01*
X79955409Y-84593230D01*
X79934765Y-84538033D01*
X79931419Y-84531131D01*
X79886914Y-84481171D01*
X79830190Y-84465542D01*
X79772698Y-84484279D01*
X79725890Y-84537415D01*
X79711803Y-84568861D01*
X78840395Y-84568861D01*
X78815985Y-84476326D01*
X78790190Y-84332202D01*
X78776568Y-84180392D01*
X78774824Y-84102714D01*
X79399306Y-84102714D01*
X79399349Y-84137315D01*
X79402793Y-84271777D01*
X79411567Y-84364327D01*
X79425667Y-84414922D01*
X79452326Y-84445625D01*
X79491753Y-84462547D01*
X79507538Y-84460257D01*
X79530973Y-84440525D01*
X79535510Y-84427099D01*
X80095709Y-84427099D01*
X80111639Y-84546355D01*
X80127742Y-84593230D01*
X80145131Y-84643851D01*
X80196007Y-84711129D01*
X80261787Y-84745082D01*
X80337605Y-84749347D01*
X80404132Y-84720408D01*
X80434428Y-84690110D01*
X80449004Y-84649836D01*
X80447750Y-84586371D01*
X80439398Y-84460346D01*
X80439117Y-84315583D01*
X80451155Y-84202967D01*
X80475258Y-84126751D01*
X80517638Y-84056907D01*
X80628369Y-83932706D01*
X80767741Y-83838628D01*
X80934032Y-83775683D01*
X81125520Y-83744882D01*
X81188824Y-83739194D01*
X81287957Y-83721442D01*
X81352650Y-83693040D01*
X81387844Y-83651245D01*
X81398477Y-83593315D01*
X81387654Y-83547275D01*
X81342720Y-83489219D01*
X81271274Y-83443257D01*
X81182433Y-83416834D01*
X81046956Y-83409646D01*
X80872734Y-83433782D01*
X80700021Y-83490704D01*
X80536623Y-83576170D01*
X80390344Y-83685940D01*
X80268992Y-83815769D01*
X80180371Y-83961417D01*
X80155052Y-84023374D01*
X80136910Y-84087556D01*
X80117239Y-84157149D01*
X80097517Y-84294544D01*
X80095709Y-84427099D01*
X79535510Y-84427099D01*
X79546083Y-84395812D01*
X79554345Y-84320394D01*
X79557234Y-84208547D01*
X79562859Y-84107439D01*
X79572450Y-84061892D01*
X79727838Y-84061892D01*
X79735576Y-84126164D01*
X79773353Y-84175597D01*
X79811877Y-84196942D01*
X79853974Y-84208547D01*
X79911537Y-84191302D01*
X79950390Y-84146925D01*
X79966612Y-84087556D01*
X79956910Y-84025339D01*
X79917993Y-83972415D01*
X79868576Y-83941193D01*
X79819351Y-83939493D01*
X79768644Y-83975714D01*
X79750501Y-83998126D01*
X79727838Y-84061892D01*
X79572450Y-84061892D01*
X79603687Y-83913546D01*
X79684610Y-83724049D01*
X79806375Y-83537401D01*
X79969727Y-83352052D01*
X80012920Y-83310474D01*
X82714797Y-83310474D01*
X82726515Y-83366168D01*
X82762765Y-83415759D01*
X82775122Y-83427688D01*
X82813763Y-83456335D01*
X82852080Y-83465304D01*
X82895570Y-83452038D01*
X82949732Y-83413977D01*
X82972991Y-83392345D01*
X83691372Y-83392345D01*
X83704297Y-83509773D01*
X83709579Y-83528197D01*
X83740104Y-83593315D01*
X83753292Y-83621447D01*
X83814249Y-83684087D01*
X83887125Y-83712214D01*
X83966595Y-83701928D01*
X83982482Y-83695052D01*
X84037834Y-83647384D01*
X84058426Y-83576990D01*
X84043426Y-83486200D01*
X84034882Y-83459646D01*
X84025216Y-83415013D01*
X84033903Y-83387002D01*
X84063545Y-83359188D01*
X84082287Y-83346003D01*
X84160001Y-83320601D01*
X84241438Y-83330109D01*
X84312030Y-83373676D01*
X84327403Y-83390081D01*
X84349687Y-83425410D01*
X84356875Y-83468688D01*
X84349701Y-83530705D01*
X84328896Y-83622253D01*
X84326506Y-83632996D01*
X84328850Y-83684103D01*
X84362826Y-83733378D01*
X84414622Y-83773057D01*
X84483515Y-83787212D01*
X84552023Y-83763568D01*
X84615104Y-83704149D01*
X84667717Y-83610979D01*
X84697010Y-83499419D01*
X84693532Y-83445233D01*
X86129209Y-83445233D01*
X86130003Y-83499419D01*
X86130578Y-83538709D01*
X86149878Y-83604249D01*
X86187698Y-83647022D01*
X86235931Y-83671885D01*
X86306926Y-83677110D01*
X86369552Y-83645959D01*
X86417944Y-83582020D01*
X86446239Y-83488880D01*
X86460754Y-83407363D01*
X86483487Y-83328741D01*
X86586397Y-83328741D01*
X86591933Y-83389900D01*
X86626643Y-83446547D01*
X86643427Y-83461272D01*
X86703450Y-83487300D01*
X86759512Y-83478868D01*
X86800960Y-83439993D01*
X86817143Y-83374692D01*
X86800870Y-83303070D01*
X86754188Y-83253127D01*
X86683929Y-83234880D01*
X86649834Y-83240978D01*
X86606783Y-83275092D01*
X86586397Y-83328741D01*
X86483487Y-83328741D01*
X86515568Y-83217786D01*
X88064763Y-83217786D01*
X88076953Y-83282487D01*
X88121747Y-83339177D01*
X88186060Y-83374447D01*
X88191658Y-83374692D01*
X88257143Y-83377564D01*
X88319976Y-83340714D01*
X88324356Y-83336145D01*
X88357084Y-83274498D01*
X88356861Y-83260180D01*
X88785440Y-83260180D01*
X88791251Y-83274498D01*
X88811043Y-83323271D01*
X88871823Y-83373246D01*
X88901678Y-83388422D01*
X88939409Y-83400986D01*
X88968733Y-83389912D01*
X89008855Y-83352259D01*
X89008897Y-83352217D01*
X89051973Y-83291401D01*
X89054549Y-83230982D01*
X89016940Y-83163651D01*
X89012645Y-83158390D01*
X88954186Y-83115935D01*
X88889725Y-83113003D01*
X88827976Y-83150214D01*
X88796915Y-83193633D01*
X88785440Y-83260180D01*
X88356861Y-83260180D01*
X88356053Y-83208176D01*
X88326240Y-83147734D01*
X88272625Y-83103728D01*
X88200184Y-83086714D01*
X88189182Y-83087107D01*
X88124342Y-83108945D01*
X88081714Y-83156222D01*
X88064763Y-83217786D01*
X86515568Y-83217786D01*
X86526400Y-83180324D01*
X86627012Y-82974871D01*
X86639649Y-82957660D01*
X86838962Y-82957660D01*
X86848372Y-83024538D01*
X86881467Y-83082722D01*
X86910887Y-83105273D01*
X86973764Y-83126521D01*
X87038915Y-83126596D01*
X87088076Y-83103647D01*
X87109248Y-83058867D01*
X87110957Y-83030149D01*
X87520164Y-83030149D01*
X87529213Y-83088932D01*
X87577515Y-83151842D01*
X87589672Y-83163548D01*
X87651926Y-83205073D01*
X87711258Y-83207230D01*
X87776121Y-83170828D01*
X87827726Y-83116795D01*
X87845162Y-83054482D01*
X87823431Y-82982566D01*
X87818608Y-82973585D01*
X87764158Y-82906376D01*
X87700802Y-82877759D01*
X87634307Y-82888702D01*
X87570441Y-82940171D01*
X87550062Y-82966319D01*
X87537517Y-82993102D01*
X87520164Y-83030149D01*
X87110957Y-83030149D01*
X87113161Y-82993102D01*
X87100008Y-82925740D01*
X87071143Y-82875047D01*
X87034338Y-82846772D01*
X86995668Y-82832714D01*
X86949741Y-82842829D01*
X86893224Y-82870845D01*
X86854509Y-82904674D01*
X86838962Y-82957660D01*
X86639649Y-82957660D01*
X86736557Y-82825676D01*
X88331940Y-82825676D01*
X88343429Y-82888187D01*
X88390320Y-82954422D01*
X88392516Y-82956814D01*
X88454385Y-82996788D01*
X88523749Y-83002579D01*
X88590124Y-82977972D01*
X88643026Y-82926753D01*
X88671971Y-82852709D01*
X88675604Y-82815481D01*
X88664899Y-82764477D01*
X88627112Y-82709834D01*
X88601268Y-82683502D01*
X88532023Y-82646136D01*
X88461719Y-82647245D01*
X88398408Y-82685394D01*
X88350145Y-82759151D01*
X88331940Y-82825676D01*
X86736557Y-82825676D01*
X86764538Y-82787568D01*
X86915653Y-82639703D01*
X87220718Y-82639703D01*
X87230049Y-82708874D01*
X87275081Y-82767677D01*
X87283641Y-82774132D01*
X87357084Y-82807925D01*
X87423843Y-82803718D01*
X87476375Y-82763996D01*
X87507140Y-82691242D01*
X87510972Y-82665073D01*
X87503206Y-82616938D01*
X87483340Y-82591589D01*
X87768915Y-82591589D01*
X87778165Y-82665073D01*
X87778734Y-82669594D01*
X87821597Y-82738426D01*
X87861028Y-82768541D01*
X87930513Y-82788495D01*
X87999323Y-82777020D01*
X88059571Y-82739798D01*
X88103372Y-82682513D01*
X88122842Y-82610848D01*
X88110093Y-82530488D01*
X88092656Y-82499848D01*
X88038511Y-82451288D01*
X87970415Y-82421039D01*
X87905532Y-82418497D01*
X87836286Y-82454259D01*
X87789109Y-82515960D01*
X87768915Y-82591589D01*
X87483340Y-82591589D01*
X87466054Y-82569533D01*
X87460942Y-82564576D01*
X87393265Y-82523403D01*
X87324104Y-82520900D01*
X87261643Y-82557547D01*
X87247926Y-82573296D01*
X87220718Y-82639703D01*
X86915653Y-82639703D01*
X86940922Y-82614978D01*
X86966073Y-82594076D01*
X87164132Y-82456359D01*
X87370819Y-82359810D01*
X87588011Y-82303921D01*
X87817582Y-82288185D01*
X88061409Y-82312097D01*
X88093638Y-82317950D01*
X88334499Y-82381658D01*
X88550130Y-82477480D01*
X88745345Y-82607999D01*
X88748395Y-82610848D01*
X88924956Y-82775800D01*
X88926495Y-82777466D01*
X88958099Y-82815481D01*
X88989762Y-82853566D01*
X89053929Y-82943175D01*
X89113465Y-83037029D01*
X89123165Y-83054482D01*
X89162839Y-83125867D01*
X89196520Y-83200425D01*
X89203981Y-83230982D01*
X89208976Y-83251440D01*
X89208979Y-83251758D01*
X89226866Y-83284496D01*
X89269615Y-83320625D01*
X89322240Y-83349851D01*
X89369756Y-83361880D01*
X89415002Y-83354234D01*
X89466667Y-83315554D01*
X89496213Y-83249325D01*
X89502647Y-83161293D01*
X89484975Y-83057204D01*
X89442203Y-82942806D01*
X89341842Y-82761360D01*
X89184869Y-82553678D01*
X88996674Y-82371684D01*
X88780199Y-82217744D01*
X88538388Y-82094226D01*
X88274185Y-82003497D01*
X88221809Y-81991106D01*
X88065226Y-81967430D01*
X87889892Y-81955921D01*
X87710591Y-81956711D01*
X87542108Y-81969930D01*
X87399226Y-81995711D01*
X87232482Y-82048381D01*
X87004972Y-82153946D01*
X86794864Y-82291057D01*
X86782991Y-82301404D01*
X86606241Y-82455451D01*
X86443188Y-82642868D01*
X86352005Y-82783801D01*
X86309791Y-82849047D01*
X86210133Y-83069728D01*
X86175636Y-83198560D01*
X86148300Y-83300648D01*
X86145184Y-83318652D01*
X86129209Y-83445233D01*
X84693532Y-83445233D01*
X84689408Y-83380966D01*
X84642269Y-83254696D01*
X84631789Y-83234992D01*
X84542934Y-83117035D01*
X84426880Y-83030732D01*
X84287292Y-82978933D01*
X84212014Y-82967912D01*
X84076775Y-82979403D01*
X83948974Y-83032327D01*
X83829583Y-83126371D01*
X83784830Y-83175290D01*
X83717820Y-83282062D01*
X83691372Y-83392345D01*
X82972991Y-83392345D01*
X83020064Y-83348565D01*
X83112064Y-83253243D01*
X83180137Y-83183077D01*
X83372500Y-83008914D01*
X83562485Y-82874204D01*
X83753299Y-82777205D01*
X83948148Y-82716176D01*
X84150238Y-82689376D01*
X84176149Y-82688311D01*
X84286366Y-82687940D01*
X84389933Y-82693378D01*
X84469114Y-82703822D01*
X84508309Y-82712892D01*
X84689491Y-82777070D01*
X84868793Y-82874283D01*
X85035753Y-82998084D01*
X85179909Y-83142021D01*
X85222673Y-83192144D01*
X85292254Y-83272201D01*
X85342938Y-83326438D01*
X85380251Y-83359331D01*
X85409720Y-83375353D01*
X85436870Y-83378981D01*
X85467228Y-83374688D01*
X85493375Y-83368312D01*
X85564728Y-83331491D01*
X85601041Y-83274303D01*
X85602863Y-83198560D01*
X85570747Y-83106072D01*
X85505241Y-82998653D01*
X85406897Y-82878112D01*
X85300671Y-82770895D01*
X85742338Y-82770895D01*
X85747339Y-82837056D01*
X85793415Y-82894677D01*
X85846899Y-82927747D01*
X85904735Y-82934418D01*
X85954109Y-82901505D01*
X85989988Y-82848688D01*
X86000162Y-82783801D01*
X85969311Y-82719623D01*
X85943124Y-82693123D01*
X85882268Y-82664858D01*
X85820659Y-82670434D01*
X85770594Y-82710423D01*
X85742338Y-82770895D01*
X85300671Y-82770895D01*
X85276265Y-82746261D01*
X85151273Y-82642412D01*
X84944147Y-82515107D01*
X84715895Y-82422288D01*
X84474442Y-82366361D01*
X85402114Y-82366361D01*
X85402575Y-82431975D01*
X85441310Y-82494047D01*
X85456918Y-82508222D01*
X85502163Y-82530195D01*
X85557140Y-82524678D01*
X85632953Y-82491524D01*
X85749906Y-82446108D01*
X85907181Y-82422266D01*
X86072863Y-82433343D01*
X86107785Y-82439356D01*
X86168767Y-82447767D01*
X86206016Y-82445578D01*
X86232241Y-82430557D01*
X86260154Y-82400473D01*
X86263503Y-82396481D01*
X86295848Y-82345634D01*
X86309144Y-82301404D01*
X86302467Y-82268592D01*
X86262024Y-82213838D01*
X86191835Y-82167779D01*
X86099893Y-82136709D01*
X86055435Y-82127762D01*
X85956267Y-82115155D01*
X85863620Y-82118161D01*
X85754561Y-82136788D01*
X85714935Y-82146107D01*
X85596337Y-82187077D01*
X85502398Y-82240030D01*
X85436523Y-82301085D01*
X85402114Y-82366361D01*
X84474442Y-82366361D01*
X84470448Y-82365436D01*
X84211738Y-82346028D01*
X84027443Y-82357686D01*
X83783995Y-82408069D01*
X83546947Y-82495710D01*
X83322165Y-82617819D01*
X83115518Y-82771605D01*
X82932872Y-82954277D01*
X82842801Y-83063450D01*
X82802758Y-83119487D01*
X82771343Y-83163448D01*
X82729207Y-83244345D01*
X82714797Y-83310474D01*
X80012920Y-83310474D01*
X80036843Y-83287446D01*
X80215093Y-83144157D01*
X80401149Y-83037358D01*
X80603179Y-82962911D01*
X80829351Y-82916679D01*
X80975441Y-82902494D01*
X81191048Y-82905581D01*
X81407665Y-82939037D01*
X81630716Y-83004202D01*
X81865624Y-83102417D01*
X82117813Y-83235022D01*
X82129083Y-83241170D01*
X82190225Y-83266811D01*
X82240484Y-83277214D01*
X82276180Y-83269492D01*
X82332076Y-83232569D01*
X82375708Y-83177832D01*
X82393310Y-83119487D01*
X82388536Y-83088559D01*
X82350077Y-83019540D01*
X82276673Y-82945970D01*
X82172664Y-82870781D01*
X82042391Y-82796907D01*
X81890192Y-82727278D01*
X81720407Y-82664828D01*
X81483932Y-82597988D01*
X81235658Y-82554803D01*
X80997605Y-82544971D01*
X80761748Y-82568220D01*
X80520060Y-82624279D01*
X80414243Y-82659129D01*
X80194563Y-82757680D01*
X79993825Y-82883787D01*
X79817577Y-83033059D01*
X79671368Y-83201104D01*
X79560749Y-83383530D01*
X79498835Y-83520439D01*
X79450662Y-83655099D01*
X79420218Y-83787222D01*
X79404200Y-83931522D01*
X79399306Y-84102714D01*
X78774824Y-84102714D01*
X78772606Y-84003878D01*
X78779396Y-83826435D01*
X78822593Y-83532258D01*
X78905336Y-83252981D01*
X79027261Y-82989486D01*
X79188004Y-82742658D01*
X79387200Y-82513379D01*
X79562016Y-82355374D01*
X79803220Y-82187510D01*
X80069252Y-82053444D01*
X80361310Y-81952485D01*
X80431106Y-81934256D01*
X82104936Y-81934256D01*
X82120859Y-82074482D01*
X82169029Y-82207017D01*
X82245560Y-82324058D01*
X82346562Y-82417802D01*
X82468146Y-82480445D01*
X82510958Y-82493220D01*
X82667223Y-82512862D01*
X82827523Y-82494829D01*
X82983634Y-82440720D01*
X83127337Y-82352137D01*
X83180520Y-82312641D01*
X83296869Y-82240230D01*
X83431519Y-82175368D01*
X83596360Y-82111968D01*
X83611016Y-82106750D01*
X83713306Y-82066033D01*
X83749366Y-82047528D01*
X84897117Y-82047528D01*
X84897903Y-82100467D01*
X84928019Y-82151196D01*
X84950086Y-82174438D01*
X84986066Y-82198261D01*
X85027985Y-82203116D01*
X85083045Y-82187699D01*
X85158448Y-82150706D01*
X85261394Y-82090833D01*
X85403375Y-82010342D01*
X85538293Y-81947933D01*
X85664414Y-81907996D01*
X85793089Y-81887004D01*
X85935665Y-81881434D01*
X86074078Y-81888547D01*
X86295617Y-81929304D01*
X86515460Y-82008470D01*
X86626526Y-82057899D01*
X86684793Y-82014589D01*
X86701393Y-82000718D01*
X86743018Y-81936230D01*
X86746305Y-81862496D01*
X86710252Y-81788427D01*
X86646471Y-81729166D01*
X86542103Y-81668550D01*
X86411115Y-81616879D01*
X86261728Y-81576784D01*
X86102160Y-81550900D01*
X85940633Y-81541860D01*
X85918718Y-81542022D01*
X85692321Y-81560866D01*
X85486151Y-81613028D01*
X85291726Y-81701405D01*
X85100567Y-81828895D01*
X85092197Y-81835362D01*
X84992118Y-81918985D01*
X84927806Y-81988371D01*
X84897117Y-82047528D01*
X83749366Y-82047528D01*
X83785544Y-82028962D01*
X83822107Y-81998367D01*
X83823543Y-81995844D01*
X83837038Y-81954168D01*
X83852762Y-81881121D01*
X83868877Y-81786258D01*
X83883543Y-81679131D01*
X83917867Y-81450752D01*
X83928465Y-81405238D01*
X84192477Y-81405238D01*
X84193176Y-81449266D01*
X84200757Y-81506602D01*
X84222250Y-81549691D01*
X84264444Y-81596581D01*
X84296693Y-81625565D01*
X84368310Y-81663485D01*
X84436234Y-81659770D01*
X84502383Y-81614566D01*
X84521698Y-81593783D01*
X84544721Y-81551233D01*
X84540411Y-81503441D01*
X84534243Y-81480030D01*
X84522782Y-81401105D01*
X84535858Y-81347793D01*
X84574944Y-81311928D01*
X84643822Y-81290859D01*
X84710934Y-81303119D01*
X84763605Y-81343765D01*
X84792861Y-81405697D01*
X84789726Y-81481817D01*
X84781365Y-81551382D01*
X84804233Y-81619722D01*
X84862380Y-81666133D01*
X84893101Y-81679540D01*
X84927372Y-81687189D01*
X84961672Y-81677051D01*
X85013959Y-81646838D01*
X85035174Y-81632458D01*
X85100190Y-81560255D01*
X85134473Y-81470101D01*
X85139413Y-81369366D01*
X85116398Y-81265421D01*
X85066819Y-81165636D01*
X84992065Y-81077381D01*
X84893525Y-81008025D01*
X84823276Y-80977262D01*
X84691014Y-80948824D01*
X84563053Y-80955768D01*
X84445243Y-80994781D01*
X84343431Y-81062548D01*
X84263467Y-81155756D01*
X84211199Y-81271091D01*
X84192477Y-81405238D01*
X83928465Y-81405238D01*
X83986729Y-81155013D01*
X84081618Y-80886126D01*
X84172156Y-80704445D01*
X85319477Y-80704445D01*
X85320208Y-80712865D01*
X85350947Y-80855982D01*
X85412192Y-80979805D01*
X85499755Y-81077984D01*
X85609451Y-81144171D01*
X85723531Y-81177322D01*
X85861927Y-81184650D01*
X85991765Y-81158199D01*
X86108257Y-81102136D01*
X86206612Y-81020628D01*
X86282042Y-80917841D01*
X86329758Y-80797941D01*
X86344970Y-80665096D01*
X86322891Y-80523470D01*
X86297731Y-80454453D01*
X86224674Y-80334316D01*
X86126852Y-80241318D01*
X86010634Y-80178379D01*
X85945979Y-80163274D01*
X86479922Y-80163274D01*
X86494246Y-80236679D01*
X86543600Y-80301416D01*
X86564361Y-80317625D01*
X86637584Y-80351570D01*
X86707100Y-80343845D01*
X86776438Y-80294342D01*
X86806147Y-80259583D01*
X86837631Y-80184895D01*
X86826898Y-80109433D01*
X86773962Y-80034610D01*
X86733907Y-79998829D01*
X86692042Y-79980178D01*
X86641670Y-79983299D01*
X86616750Y-79989570D01*
X86544211Y-80029866D01*
X86497589Y-80091052D01*
X86479922Y-80163274D01*
X85945979Y-80163274D01*
X85882389Y-80148418D01*
X85748487Y-80154355D01*
X85615296Y-80199110D01*
X85574084Y-80221589D01*
X85457557Y-80313141D01*
X85428009Y-80353705D01*
X85374532Y-80427120D01*
X85327631Y-80559047D01*
X85319477Y-80704445D01*
X84172156Y-80704445D01*
X84204980Y-80638578D01*
X84359264Y-80406859D01*
X84414357Y-80341858D01*
X84727058Y-80341858D01*
X84730104Y-80419808D01*
X84773550Y-80490707D01*
X84805127Y-80518059D01*
X84873326Y-80544074D01*
X84941819Y-80536406D01*
X85001731Y-80499295D01*
X85044186Y-80436982D01*
X85060310Y-80353705D01*
X85060217Y-80347692D01*
X85041014Y-80273318D01*
X84995425Y-80220164D01*
X84933619Y-80190897D01*
X84865768Y-80188180D01*
X84802042Y-80214679D01*
X84752611Y-80273061D01*
X84727058Y-80341858D01*
X84414357Y-80341858D01*
X84546917Y-80185458D01*
X84624509Y-80106109D01*
X84785431Y-79963806D01*
X84954696Y-79846509D01*
X85146493Y-79743765D01*
X85218283Y-79710685D01*
X85363008Y-79653414D01*
X85501192Y-79614983D01*
X85648928Y-79591468D01*
X85822310Y-79578945D01*
X86089116Y-79583954D01*
X86366432Y-79627130D01*
X86627494Y-79708491D01*
X86870290Y-79826842D01*
X87092807Y-79980985D01*
X87293031Y-80169726D01*
X87305043Y-80184895D01*
X87468949Y-80391868D01*
X87618548Y-80646215D01*
X87656650Y-80731214D01*
X87709077Y-80878523D01*
X87752520Y-81036302D01*
X87781271Y-81185635D01*
X87795205Y-81284805D01*
X87716349Y-81299598D01*
X87710773Y-81300570D01*
X87642331Y-81306515D01*
X87549434Y-81307753D01*
X87443212Y-81304910D01*
X87334795Y-81298616D01*
X87235311Y-81289495D01*
X87155891Y-81278177D01*
X87107665Y-81265289D01*
X87079028Y-81247754D01*
X87023587Y-81191583D01*
X86981813Y-81122175D01*
X86965310Y-81056545D01*
X86976346Y-81017132D01*
X87012019Y-80965513D01*
X87059265Y-80923743D01*
X87104428Y-80906548D01*
X87116981Y-80909049D01*
X87161290Y-80931921D01*
X87212958Y-80970924D01*
X87227662Y-80983283D01*
X87291715Y-81019390D01*
X87351076Y-81016517D01*
X87415101Y-80974847D01*
X87418495Y-80971680D01*
X87447248Y-80917179D01*
X87453102Y-80843697D01*
X87436897Y-80766045D01*
X87399472Y-80699033D01*
X87374765Y-80672355D01*
X87275653Y-80602691D01*
X87160366Y-80568305D01*
X87036393Y-80570550D01*
X86911223Y-80610780D01*
X86850355Y-80645933D01*
X86829282Y-80665096D01*
X86751431Y-80735888D01*
X86681496Y-80847116D01*
X86641485Y-80972418D01*
X86632334Y-81104595D01*
X86654981Y-81236448D01*
X86710362Y-81360778D01*
X86717340Y-81369366D01*
X86799413Y-81470386D01*
X86842600Y-81508003D01*
X86909333Y-81553510D01*
X86984817Y-81588216D01*
X87074607Y-81613158D01*
X87184258Y-81629370D01*
X87319326Y-81637888D01*
X87485367Y-81639746D01*
X87687937Y-81635982D01*
X87693716Y-81635820D01*
X87834535Y-81631575D01*
X87939310Y-81627371D01*
X88014105Y-81622456D01*
X88064983Y-81616081D01*
X88098011Y-81607494D01*
X88119251Y-81595946D01*
X88124261Y-81591019D01*
X88496166Y-81591019D01*
X88502632Y-81632412D01*
X88518052Y-81675197D01*
X88523236Y-81686763D01*
X88572098Y-81751821D01*
X88636036Y-81782994D01*
X88707138Y-81776062D01*
X88711585Y-81774335D01*
X88756480Y-81749430D01*
X88764711Y-81739150D01*
X89367560Y-81739150D01*
X89396462Y-81823477D01*
X89423545Y-81862496D01*
X89448724Y-81898773D01*
X89516599Y-81950371D01*
X89521765Y-81952815D01*
X89594551Y-81979650D01*
X89656255Y-81980578D01*
X89727560Y-81956168D01*
X89785880Y-81922599D01*
X89854494Y-81852159D01*
X89893321Y-81768116D01*
X89902066Y-81678898D01*
X89880432Y-81592933D01*
X89828122Y-81518650D01*
X89744841Y-81464477D01*
X89731847Y-81459373D01*
X89630827Y-81442450D01*
X89535793Y-81467018D01*
X89449662Y-81532406D01*
X89433074Y-81551419D01*
X89391225Y-81613039D01*
X89367741Y-81668481D01*
X89367560Y-81739150D01*
X88764711Y-81739150D01*
X88787293Y-81710948D01*
X88809238Y-81649311D01*
X88827527Y-81554946D01*
X88831464Y-81532048D01*
X88881737Y-81357396D01*
X88961915Y-81206008D01*
X89068360Y-81081367D01*
X89197430Y-80986956D01*
X89345486Y-80926261D01*
X89508888Y-80902764D01*
X89597863Y-80903255D01*
X89705200Y-80915529D01*
X89804668Y-80945618D01*
X89915946Y-80998133D01*
X89993916Y-81046459D01*
X90112566Y-81156668D01*
X90200866Y-81292177D01*
X90255634Y-81447483D01*
X90273690Y-81617080D01*
X90269835Y-81678898D01*
X90269593Y-81682792D01*
X90231860Y-81832314D01*
X90157652Y-81966202D01*
X90050590Y-82078935D01*
X89914294Y-82164995D01*
X89869520Y-82185323D01*
X89805613Y-82207008D01*
X89743627Y-82213114D01*
X89661845Y-82207279D01*
X89653091Y-82206347D01*
X89582403Y-82200496D01*
X89538399Y-82203862D01*
X89507147Y-82219729D01*
X89474719Y-82251379D01*
X89468707Y-82258157D01*
X89434572Y-82310285D01*
X89420643Y-82356700D01*
X89422807Y-82377871D01*
X89453203Y-82442984D01*
X89511077Y-82499433D01*
X89585647Y-82535533D01*
X89590915Y-82536954D01*
X89662758Y-82550685D01*
X89727560Y-82555110D01*
X89887999Y-82534029D01*
X90058835Y-82475328D01*
X90213506Y-82384223D01*
X90348374Y-82265445D01*
X90459804Y-82123727D01*
X90544157Y-81963801D01*
X90597797Y-81790399D01*
X90617086Y-81608252D01*
X90598388Y-81422094D01*
X90571856Y-81317570D01*
X90491390Y-81119113D01*
X90378028Y-80945718D01*
X90233923Y-80799788D01*
X90061226Y-80683725D01*
X89862090Y-80599933D01*
X89715323Y-80563845D01*
X89509332Y-80547662D01*
X89309746Y-80571787D01*
X89120367Y-80635243D01*
X88945001Y-80737051D01*
X88787451Y-80876234D01*
X88720339Y-80953281D01*
X88627297Y-81091016D01*
X88562199Y-81241257D01*
X88518255Y-81417663D01*
X88510135Y-81462851D01*
X88498664Y-81538628D01*
X88496166Y-81591019D01*
X88124261Y-81591019D01*
X88134768Y-81580686D01*
X88136965Y-81578043D01*
X88169218Y-81512612D01*
X88159870Y-81449774D01*
X88109561Y-81394272D01*
X88055278Y-81343318D01*
X88030192Y-81278315D01*
X88044704Y-81203136D01*
X88056666Y-81180070D01*
X88109862Y-81128128D01*
X88178898Y-81104830D01*
X88249758Y-81116124D01*
X88255777Y-81118858D01*
X88289164Y-81130812D01*
X88298877Y-81117795D01*
X88292995Y-81071462D01*
X88279020Y-81008438D01*
X88258672Y-80943101D01*
X88248683Y-80920218D01*
X88223780Y-80894975D01*
X88182320Y-80897874D01*
X88127220Y-80899781D01*
X88064756Y-80884876D01*
X88057037Y-80881532D01*
X87990822Y-80833773D01*
X87962180Y-80771512D01*
X87972210Y-80701316D01*
X88022015Y-80629753D01*
X88073371Y-80589684D01*
X88148745Y-80565430D01*
X88220419Y-80579344D01*
X88280990Y-80631381D01*
X88288119Y-80640657D01*
X88325084Y-80679232D01*
X88353244Y-80694881D01*
X88369968Y-80687565D01*
X88409540Y-80655874D01*
X88457387Y-80607618D01*
X88476448Y-80585638D01*
X88510390Y-80535292D01*
X88525356Y-80483541D01*
X88521314Y-80421291D01*
X88498233Y-80339451D01*
X88456082Y-80228925D01*
X88361076Y-80029367D01*
X88222051Y-79803568D01*
X88053969Y-79581050D01*
X87863065Y-79369292D01*
X87655579Y-79175773D01*
X87437747Y-79007971D01*
X87267309Y-78900636D01*
X86985079Y-78761160D01*
X86686376Y-78655592D01*
X86377207Y-78585174D01*
X86063575Y-78551143D01*
X85751487Y-78554739D01*
X85446948Y-78597200D01*
X85421662Y-78602599D01*
X85095342Y-78695116D01*
X84779976Y-78826255D01*
X84479280Y-78993100D01*
X84196968Y-79192740D01*
X83936756Y-79422260D01*
X83702357Y-79678747D01*
X83497486Y-79959286D01*
X83325859Y-80260964D01*
X83285924Y-80343901D01*
X83202842Y-80537462D01*
X83139155Y-80725254D01*
X83089899Y-80923230D01*
X83050111Y-81147345D01*
X83047331Y-81165565D01*
X83031130Y-81266153D01*
X83016304Y-81349549D01*
X83004392Y-81407515D01*
X82996935Y-81431811D01*
X82983639Y-81433383D01*
X82939535Y-81424618D01*
X82877908Y-81405216D01*
X82808539Y-81385354D01*
X82663661Y-81373669D01*
X82522080Y-81398527D01*
X82390636Y-81456403D01*
X82276166Y-81543774D01*
X82185511Y-81657115D01*
X82125509Y-81792902D01*
X82125151Y-81794140D01*
X82104936Y-81934256D01*
X80431106Y-81934256D01*
X80438059Y-81932440D01*
X80513285Y-81916588D01*
X80591578Y-81905290D01*
X80682754Y-81897454D01*
X80796631Y-81891989D01*
X80943025Y-81887804D01*
X81055102Y-81884508D01*
X81164514Y-81879854D01*
X81252562Y-81874540D01*
X81312257Y-81868996D01*
X81336611Y-81863650D01*
X81348242Y-81841485D01*
X81370128Y-81789746D01*
X81396375Y-81721464D01*
X81441957Y-81612208D01*
X81561866Y-81398631D01*
X81715002Y-81197269D01*
X81895341Y-81014624D01*
X82096857Y-80857199D01*
X82313527Y-80731498D01*
X82314361Y-80731093D01*
X82400148Y-80688492D01*
X82455579Y-80656615D01*
X82488742Y-80628659D01*
X82507724Y-80597821D01*
X82520613Y-80557298D01*
X82573227Y-80379763D01*
X82700613Y-80051464D01*
X82862873Y-79730661D01*
X83055323Y-79425219D01*
X83273283Y-79143001D01*
X83512072Y-78891871D01*
X83726359Y-78704927D01*
X84034930Y-78480857D01*
X84358991Y-78293417D01*
X84695746Y-78142865D01*
X85042397Y-78029461D01*
X85396150Y-77953465D01*
X85754207Y-77915135D01*
X86113771Y-77914732D01*
X86472046Y-77952515D01*
X86826237Y-78028744D01*
X87173546Y-78143677D01*
X87511177Y-78297574D01*
X87836334Y-78490694D01*
X88007124Y-78613821D01*
X88242592Y-78814347D01*
X88458315Y-79034928D01*
X88648735Y-79269159D01*
X88808299Y-79510639D01*
X88931452Y-79752964D01*
X88976798Y-79858798D01*
X89299262Y-79859138D01*
X89326975Y-79859245D01*
X89528497Y-79866241D01*
X89703545Y-79886125D01*
X89865200Y-79921683D01*
X90026546Y-79975699D01*
X90200667Y-80050955D01*
X90254703Y-80076985D01*
X90412687Y-80163154D01*
X90554988Y-80259462D01*
X90693802Y-80374802D01*
X90805772Y-80483541D01*
X90841322Y-80518065D01*
G37*
D12*
X51670000Y-57270000D02*
X54330000Y-57270000D01*
X51670000Y-70030000D02*
X51670000Y-57270000D01*
X51670000Y-70030000D02*
X54330000Y-70030000D01*
X53000000Y-54670000D02*
X54330000Y-54670000D01*
X54330000Y-54670000D02*
X54330000Y-56000000D01*
X54330000Y-70030000D02*
X54330000Y-57270000D01*
X84227064Y-64015000D02*
X83772936Y-64015000D01*
X84227064Y-65485000D02*
X83772936Y-65485000D01*
D11*
G36*
X95645333Y-82321667D02*
G01*
X95603000Y-82364000D01*
X95560666Y-82321667D01*
X95603000Y-82279334D01*
X95645333Y-82321667D01*
G37*
G36*
X95899333Y-82194667D02*
G01*
X95893223Y-82239489D01*
X95842888Y-82251111D01*
X95832755Y-82238702D01*
X95842888Y-82138222D01*
X95868355Y-82124977D01*
X95899333Y-82194667D01*
G37*
G36*
X98524000Y-92652954D02*
G01*
X98524000Y-93035907D01*
X97021166Y-93012787D01*
X95518333Y-92989667D01*
X95492298Y-92629834D01*
X95466263Y-92270000D01*
X96995131Y-92270000D01*
X98524000Y-92270000D01*
X98524000Y-92652954D01*
G37*
G36*
X95684282Y-80430995D02*
G01*
X95730000Y-80543667D01*
X95720447Y-80602090D01*
X95645333Y-80670667D01*
X95606384Y-80656339D01*
X95560666Y-80543667D01*
X95570218Y-80485243D01*
X95645333Y-80416667D01*
X95684282Y-80430995D01*
G37*
G36*
X95758222Y-80981111D02*
G01*
X95778898Y-81002232D01*
X95802722Y-81055948D01*
X95687666Y-81065778D01*
X95629444Y-81057876D01*
X95560666Y-80995222D01*
X95564408Y-80971113D01*
X95642604Y-80926651D01*
X95758222Y-80981111D01*
G37*
G36*
X95999721Y-80438847D02*
G01*
X96068666Y-80557778D01*
X96057975Y-80622999D01*
X96005166Y-80622263D01*
X95989089Y-80603822D01*
X95857000Y-80482448D01*
X95833889Y-80445118D01*
X95920500Y-80417963D01*
X95999721Y-80438847D01*
G37*
G36*
X95817647Y-82787338D02*
G01*
X95995035Y-82808169D01*
X96068666Y-82857337D01*
X96068571Y-82859241D01*
X95991738Y-82896116D01*
X95814666Y-82890060D01*
X95810638Y-82889465D01*
X95633954Y-82853753D01*
X95560666Y-82820057D01*
X95560680Y-82819712D01*
X95636164Y-82796833D01*
X95814666Y-82787334D01*
X95817647Y-82787338D01*
G37*
G36*
X96054433Y-82258167D02*
G01*
X96058253Y-82379625D01*
X96043659Y-82543519D01*
X95971194Y-82607246D01*
X95808619Y-82618000D01*
X95649100Y-82612098D01*
X95607018Y-82574561D01*
X95689302Y-82477269D01*
X95717257Y-82450101D01*
X95824443Y-82385316D01*
X95900933Y-82451255D01*
X95919844Y-82474531D01*
X95969747Y-82437214D01*
X96006016Y-82232153D01*
X96040201Y-81898334D01*
X96054433Y-82258167D01*
G37*
G36*
X97129774Y-81518091D02*
G01*
X97274303Y-81542801D01*
X97329695Y-81639164D01*
X97338666Y-81856000D01*
X97338004Y-81955933D01*
X97316382Y-82121109D01*
X97232065Y-82184414D01*
X97042333Y-82194667D01*
X96954892Y-82193910D01*
X96810362Y-82169200D01*
X96754971Y-82072836D01*
X96746000Y-81856000D01*
X96746662Y-81756068D01*
X96768283Y-81590891D01*
X96852601Y-81527586D01*
X97042333Y-81517334D01*
X97129774Y-81518091D01*
G37*
G36*
X98524000Y-85713698D02*
G01*
X98524000Y-86862062D01*
X98248833Y-86835531D01*
X97973666Y-86809000D01*
X97948794Y-86144807D01*
X97946649Y-86075314D01*
X97948876Y-85756595D01*
X97969597Y-85509544D01*
X98005211Y-85382807D01*
X98002727Y-85349081D01*
X97901416Y-85319127D01*
X97678081Y-85299315D01*
X97316992Y-85288366D01*
X96802417Y-85285000D01*
X95518333Y-85285000D01*
X95492298Y-84925167D01*
X95466263Y-84565334D01*
X96995131Y-84565334D01*
X98524000Y-84565334D01*
X98524000Y-85713698D01*
G37*
G36*
X95996606Y-81263351D02*
G01*
X96047529Y-81338943D01*
X96068666Y-81517334D01*
X96068660Y-81520494D01*
X96043447Y-81697761D01*
X95984000Y-81771334D01*
X95948370Y-81782276D01*
X95899333Y-81888459D01*
X95867755Y-81964685D01*
X95730341Y-82049776D01*
X95673163Y-82061620D01*
X95601426Y-82039556D01*
X95575309Y-81924517D01*
X95579420Y-81678651D01*
X95584613Y-81591318D01*
X95620231Y-81390334D01*
X95645333Y-81390334D01*
X95687666Y-81432667D01*
X95730000Y-81390334D01*
X95687666Y-81348000D01*
X95645333Y-81390334D01*
X95620231Y-81390334D01*
X95628135Y-81345736D01*
X95687666Y-81284075D01*
X95707691Y-81263334D01*
X95776965Y-81311890D01*
X95773439Y-81496167D01*
X95771578Y-81506067D01*
X95757776Y-81628324D01*
X95782075Y-81613587D01*
X95839108Y-81540537D01*
X95916210Y-81613587D01*
X95930771Y-81633008D01*
X95971230Y-81641515D01*
X95960036Y-81496167D01*
X95954703Y-81334893D01*
X95995740Y-81263334D01*
X95996606Y-81263351D01*
G37*
G36*
X98518486Y-88246387D02*
G01*
X98524193Y-89391334D01*
X98227763Y-89391334D01*
X97931333Y-89391334D01*
X97931333Y-88718997D01*
X97931987Y-88635790D01*
X97946745Y-88326672D01*
X97976971Y-88097719D01*
X98017381Y-87993480D01*
X98073582Y-87941559D01*
X98047992Y-87862156D01*
X97891982Y-87804757D01*
X97630003Y-87782667D01*
X97254000Y-87782667D01*
X97254000Y-88502334D01*
X97254000Y-89222000D01*
X96957666Y-89222000D01*
X96661333Y-89222000D01*
X96661333Y-88496969D01*
X96661333Y-87825000D01*
X96915333Y-87825000D01*
X96957666Y-87867334D01*
X97000000Y-87825000D01*
X96957666Y-87782667D01*
X96915333Y-87825000D01*
X96661333Y-87825000D01*
X96661333Y-87771938D01*
X96386166Y-87798469D01*
X96111000Y-87825000D01*
X96098979Y-88544667D01*
X96086958Y-89264334D01*
X95782058Y-89290577D01*
X95477158Y-89316820D01*
X95484527Y-88217068D01*
X95491897Y-87117316D01*
X96957666Y-87109613D01*
X97002338Y-87109378D01*
X98512779Y-87101440D01*
X98518486Y-88246387D01*
G37*
G36*
X98524000Y-89947760D02*
G01*
X98524000Y-90343995D01*
X97676347Y-90297487D01*
X97424518Y-90286622D01*
X97126382Y-90283418D01*
X96930308Y-90293937D01*
X96869716Y-90317354D01*
X96932769Y-90369327D01*
X97116506Y-90493240D01*
X97388532Y-90665274D01*
X97717368Y-90865087D01*
X97987291Y-91026946D01*
X98247824Y-91191251D01*
X98406517Y-91313290D01*
X98488614Y-91418604D01*
X98519361Y-91532735D01*
X98524000Y-91681224D01*
X98524000Y-92016000D01*
X97005306Y-92016000D01*
X95486613Y-92016000D01*
X95491287Y-91677334D01*
X95495961Y-91338667D01*
X96337644Y-91338667D01*
X96583309Y-91335428D01*
X96880572Y-91320533D01*
X97075374Y-91296306D01*
X97134294Y-91265803D01*
X97068731Y-91210816D01*
X96882472Y-91084058D01*
X96608335Y-90909858D01*
X96277919Y-90708768D01*
X95997373Y-90540539D01*
X95739935Y-90378149D01*
X95585073Y-90258923D01*
X95508439Y-90158219D01*
X95485682Y-90051392D01*
X95492455Y-89913799D01*
X95518333Y-89603000D01*
X97021166Y-89577263D01*
X98524000Y-89551526D01*
X98524000Y-89947760D01*
G37*
G36*
X95966161Y-99221175D02*
G01*
X96024908Y-99246238D01*
X96098225Y-99307923D01*
X96136619Y-99423297D01*
X96149328Y-99630855D01*
X96145586Y-99969095D01*
X96135554Y-100255958D01*
X96110652Y-100497897D01*
X96065806Y-100628551D01*
X95994091Y-100680437D01*
X95997975Y-100689025D01*
X96128691Y-100701524D01*
X96387532Y-100712634D01*
X96749725Y-100721395D01*
X97190500Y-100726845D01*
X98524000Y-100736667D01*
X98524000Y-101075334D01*
X98523444Y-101145701D01*
X98500079Y-101337452D01*
X98414225Y-101418472D01*
X98227666Y-101435167D01*
X98180804Y-101434980D01*
X97979429Y-101433686D01*
X97658477Y-101431362D01*
X97250571Y-101428248D01*
X96788333Y-101424584D01*
X95476000Y-101414000D01*
X95477296Y-101181167D01*
X95482214Y-101075488D01*
X95555118Y-100842494D01*
X95730000Y-100713713D01*
X95778594Y-100676498D01*
X95666500Y-100658684D01*
X95601071Y-100652991D01*
X95531729Y-100616138D01*
X95494269Y-100514531D01*
X95478942Y-100313318D01*
X95476000Y-99977646D01*
X95481272Y-99725121D01*
X95520217Y-99407074D01*
X95606565Y-99228564D01*
X95751488Y-99172346D01*
X95966161Y-99221175D01*
G37*
G36*
X98524000Y-80755334D02*
G01*
X98524000Y-81094000D01*
X97211666Y-81094000D01*
X96946871Y-81093208D01*
X96531759Y-81088395D01*
X96199605Y-81079946D01*
X95979199Y-81068704D01*
X95899333Y-81055515D01*
X95902255Y-81046385D01*
X95977433Y-80948227D01*
X95999574Y-80924667D01*
X96153333Y-80924667D01*
X96167661Y-80963616D01*
X96280333Y-81009334D01*
X96338756Y-80999781D01*
X96407333Y-80924667D01*
X96393005Y-80885718D01*
X96280333Y-80840000D01*
X96221909Y-80849552D01*
X96153333Y-80924667D01*
X95999574Y-80924667D01*
X96122463Y-80793900D01*
X96158460Y-80758877D01*
X96280333Y-80670994D01*
X96317628Y-80644100D01*
X96407014Y-80670151D01*
X96457021Y-80717446D01*
X96517794Y-80640903D01*
X96528857Y-80571301D01*
X96466077Y-80471154D01*
X96464889Y-80470655D01*
X96492050Y-80450071D01*
X96653590Y-80435225D01*
X96915333Y-80429302D01*
X96922734Y-80429297D01*
X97180682Y-80437288D01*
X97317560Y-80458796D01*
X97309291Y-80490105D01*
X97272533Y-80505203D01*
X97200846Y-80566298D01*
X97281004Y-80657945D01*
X97305353Y-80677366D01*
X97401684Y-80708429D01*
X97464251Y-80590458D01*
X97489614Y-80529747D01*
X97570612Y-80457874D01*
X97733461Y-80424706D01*
X98021705Y-80416667D01*
X98524000Y-80416667D01*
X98524000Y-80755334D01*
G37*
G36*
X98452962Y-96946094D02*
G01*
X98509827Y-97045028D01*
X98524000Y-97267991D01*
X98522649Y-97326583D01*
X98488009Y-97542781D01*
X98418166Y-97646479D01*
X98184957Y-97728491D01*
X98001793Y-97809451D01*
X97919176Y-97901944D01*
X97905246Y-98047717D01*
X97928141Y-98288513D01*
X97952146Y-98491506D01*
X97998356Y-98664439D01*
X98087051Y-98753373D01*
X98248833Y-98807864D01*
X98378607Y-98846227D01*
X98478021Y-98915984D01*
X98517165Y-99053212D01*
X98524000Y-99308813D01*
X98523004Y-99431548D01*
X98507803Y-99622745D01*
X98463361Y-99693928D01*
X98375833Y-99679761D01*
X98316262Y-99657416D01*
X98107223Y-99582035D01*
X97787797Y-99468488D01*
X97388924Y-99327757D01*
X96941548Y-99170820D01*
X96662022Y-99072467D01*
X96250308Y-98925369D01*
X95910841Y-98801335D01*
X95672888Y-98711113D01*
X95565715Y-98665454D01*
X95542426Y-98638341D01*
X95494907Y-98478267D01*
X95477324Y-98256771D01*
X96551814Y-98256771D01*
X96595323Y-98327663D01*
X96807738Y-98391469D01*
X96994436Y-98435666D01*
X97190500Y-98496129D01*
X97255251Y-98513795D01*
X97322031Y-98468273D01*
X97338666Y-98290392D01*
X97338839Y-98226627D01*
X97329667Y-98094773D01*
X97274934Y-98042900D01*
X97134746Y-98056681D01*
X96869210Y-98121787D01*
X96676977Y-98179818D01*
X96551814Y-98256771D01*
X95477324Y-98256771D01*
X95476000Y-98240087D01*
X95476005Y-98217426D01*
X95484528Y-98013923D01*
X95535594Y-97891859D01*
X95667989Y-97804582D01*
X95920500Y-97705439D01*
X96172111Y-97613520D01*
X96650958Y-97444781D01*
X97125105Y-97284584D01*
X97274934Y-97236146D01*
X97563666Y-97142803D01*
X97935755Y-97029309D01*
X98210489Y-96953973D01*
X98356982Y-96926667D01*
X98452962Y-96946094D01*
G37*
G36*
X98507701Y-93554809D02*
G01*
X98481666Y-93908285D01*
X97698500Y-93893108D01*
X97530588Y-93891530D01*
X97210353Y-93900117D01*
X96994481Y-93923279D01*
X96915333Y-93958322D01*
X96935019Y-93989337D01*
X97067598Y-94100211D01*
X97297611Y-94259725D01*
X97592666Y-94444624D01*
X97676563Y-94495690D01*
X97992474Y-94706694D01*
X98197174Y-94877543D01*
X98270000Y-94991554D01*
X98265918Y-95012145D01*
X98159230Y-95140557D01*
X97921614Y-95322285D01*
X97571500Y-95542787D01*
X96873000Y-95953000D01*
X97698500Y-95977233D01*
X98524000Y-96001465D01*
X98524000Y-96379399D01*
X98524000Y-96757334D01*
X97264583Y-96757334D01*
X97087483Y-96756815D01*
X96629938Y-96750752D01*
X96226626Y-96738950D01*
X95915910Y-96722760D01*
X95736156Y-96703531D01*
X95557904Y-96651485D01*
X95490240Y-96553683D01*
X95492739Y-96349668D01*
X95500176Y-96281198D01*
X95539792Y-96138987D01*
X95634058Y-96014671D01*
X95814088Y-95874858D01*
X96111000Y-95686153D01*
X96160985Y-95655581D01*
X96481058Y-95463118D01*
X96772925Y-95292534D01*
X96978833Y-95177669D01*
X97021562Y-95154541D01*
X97185628Y-95051311D01*
X97250025Y-94984819D01*
X97181378Y-94926599D01*
X96994716Y-94801412D01*
X96718752Y-94627987D01*
X96382191Y-94424845D01*
X96144796Y-94283263D01*
X95852667Y-94101462D01*
X95666804Y-93966540D01*
X95561797Y-93855230D01*
X95512237Y-93744267D01*
X95500969Y-93667000D01*
X96322666Y-93667000D01*
X96365000Y-93709334D01*
X96407333Y-93667000D01*
X96365000Y-93624667D01*
X96322666Y-93667000D01*
X95500969Y-93667000D01*
X95492713Y-93610384D01*
X95487137Y-93523316D01*
X95497510Y-93408359D01*
X95550599Y-93324869D01*
X95667507Y-93267791D01*
X95869336Y-93232069D01*
X96177187Y-93212648D01*
X96365000Y-93209119D01*
X96612164Y-93204474D01*
X97195368Y-93202490D01*
X98533736Y-93201334D01*
X98507701Y-93554809D01*
G37*
G36*
X98213555Y-81178667D02*
G01*
X98227666Y-81178667D01*
X98382888Y-81178667D01*
X98524000Y-81178667D01*
X98524000Y-82321667D01*
X98524000Y-83464667D01*
X97042333Y-83464667D01*
X95560666Y-83464667D01*
X95560666Y-83245945D01*
X95561136Y-83225768D01*
X95613226Y-83082410D01*
X95710569Y-83076641D01*
X95794654Y-83215959D01*
X95796924Y-83224458D01*
X95802849Y-83289037D01*
X95737742Y-83210667D01*
X95722841Y-83189909D01*
X95661034Y-83133231D01*
X95646629Y-83231834D01*
X95691337Y-83342381D01*
X95842283Y-83374048D01*
X96068629Y-83295353D01*
X96169340Y-83201948D01*
X96188407Y-82999020D01*
X96176051Y-82900595D01*
X96219033Y-82809288D01*
X96384510Y-82793284D01*
X96400428Y-82793767D01*
X96528998Y-82813490D01*
X96492000Y-82856784D01*
X96470629Y-82870541D01*
X96395041Y-82990443D01*
X96348429Y-83161092D01*
X96343690Y-83313830D01*
X96393721Y-83380000D01*
X96489434Y-83342009D01*
X96653352Y-83240594D01*
X96769975Y-83164737D01*
X96861175Y-83150402D01*
X96930398Y-83240594D01*
X96992547Y-83313057D01*
X97152373Y-83377307D01*
X97210912Y-83373558D01*
X97235858Y-83338925D01*
X97234456Y-83337667D01*
X97423333Y-83337667D01*
X97465666Y-83380000D01*
X97508000Y-83337667D01*
X97465666Y-83295334D01*
X97423333Y-83337667D01*
X97234456Y-83337667D01*
X97127000Y-83241217D01*
X97122748Y-83237866D01*
X97022635Y-83150451D01*
X97051416Y-83125303D01*
X97228361Y-83143923D01*
X97250869Y-83146707D01*
X97414211Y-83146034D01*
X97449616Y-83100030D01*
X97391941Y-83072114D01*
X97202777Y-83054708D01*
X96937174Y-83067819D01*
X96745310Y-83082597D01*
X96574987Y-83081190D01*
X96532475Y-83057303D01*
X96534221Y-83055561D01*
X96584129Y-83016444D01*
X96642280Y-82999000D01*
X97508000Y-82999000D01*
X97550333Y-83041334D01*
X97592666Y-82999000D01*
X97550333Y-82956667D01*
X97508000Y-82999000D01*
X96642280Y-82999000D01*
X96665449Y-82992050D01*
X96824058Y-82974154D01*
X97105833Y-82954534D01*
X97465666Y-82931234D01*
X97084666Y-82872000D01*
X97000195Y-82858480D01*
X96878939Y-82833653D01*
X96889231Y-82817875D01*
X97043665Y-82807792D01*
X97354836Y-82800050D01*
X97373299Y-82799664D01*
X97550333Y-82788896D01*
X97752657Y-82776589D01*
X97993084Y-82729471D01*
X98084639Y-82661663D01*
X98082245Y-82658632D01*
X98203422Y-82658632D01*
X98213555Y-82759111D01*
X98239021Y-82772357D01*
X98270000Y-82702667D01*
X98263996Y-82658632D01*
X98372755Y-82658632D01*
X98382888Y-82759111D01*
X98408355Y-82772357D01*
X98439333Y-82702667D01*
X98433223Y-82657845D01*
X98382888Y-82646222D01*
X98372755Y-82658632D01*
X98263996Y-82658632D01*
X98263889Y-82657845D01*
X98213555Y-82646222D01*
X98203422Y-82658632D01*
X98082245Y-82658632D01*
X98017381Y-82576520D01*
X98006783Y-82564861D01*
X97968389Y-82425816D01*
X97941477Y-82173013D01*
X97931333Y-81851003D01*
X97931333Y-81178667D01*
X98213555Y-81178667D01*
G37*
D12*
X95670000Y-55270000D02*
X98330000Y-55270000D01*
X95670000Y-62950000D02*
X95670000Y-55270000D01*
X95670000Y-62950000D02*
X98330000Y-62950000D01*
X97000000Y-52670000D02*
X98330000Y-52670000D01*
X98330000Y-52670000D02*
X98330000Y-54000000D01*
X98330000Y-62950000D02*
X98330000Y-55270000D01*
X51670000Y-71970000D02*
X51670000Y-84730000D01*
X51670000Y-87330000D02*
X51670000Y-86000000D01*
X53000000Y-87330000D02*
X51670000Y-87330000D01*
X54330000Y-71970000D02*
X51670000Y-71970000D01*
X54330000Y-71970000D02*
X54330000Y-84730000D01*
X54330000Y-84730000D02*
X51670000Y-84730000D01*
X52050000Y-105670000D02*
X52050000Y-108330000D01*
X52050000Y-105670000D02*
X59730000Y-105670000D01*
X52050000Y-108330000D02*
X59730000Y-108330000D01*
X59730000Y-105670000D02*
X59730000Y-108330000D01*
X62330000Y-107000000D02*
X62330000Y-108330000D01*
X62330000Y-108330000D02*
X61000000Y-108330000D01*
X95670000Y-63970000D02*
X95670000Y-76730000D01*
X95670000Y-79330000D02*
X95670000Y-78000000D01*
X97000000Y-79330000D02*
X95670000Y-79330000D01*
X98330000Y-63970000D02*
X95670000Y-63970000D01*
X98330000Y-63970000D02*
X98330000Y-76730000D01*
X98330000Y-76730000D02*
X95670000Y-76730000D01*
X76890000Y-105670000D02*
X76890000Y-108330000D01*
X76890000Y-105670000D02*
X94730000Y-105670000D01*
X76890000Y-108330000D02*
X94730000Y-108330000D01*
X94730000Y-105670000D02*
X94730000Y-108330000D01*
X97330000Y-107000000D02*
X97330000Y-108330000D01*
X97330000Y-108330000D02*
X96000000Y-108330000D01*
X83772936Y-62015000D02*
X84227064Y-62015000D01*
X83772936Y-63485000D02*
X84227064Y-63485000D01*
X63670000Y-51670000D02*
X65000000Y-51670000D01*
X63670000Y-53000000D02*
X63670000Y-51670000D01*
X66270000Y-54330000D02*
X66270000Y-51670000D01*
X84110000Y-51670000D02*
X66270000Y-51670000D01*
X84110000Y-54330000D02*
X66270000Y-54330000D01*
X84110000Y-54330000D02*
X84110000Y-51670000D01*
%LPC*%
D13*
X87000000Y-53000000D03*
D14*
X89540000Y-53000000D03*
X92080000Y-53000000D03*
D15*
X64500000Y-107000000D03*
D16*
X66500000Y-107000000D03*
D17*
X71500000Y-84000000D03*
X76380000Y-84000000D03*
D13*
X61000000Y-79000000D03*
D14*
X63540000Y-79000000D03*
X66080000Y-79000000D03*
D13*
X61000000Y-53000000D03*
D14*
X61000000Y-55540000D03*
X61000000Y-58080000D03*
X61000000Y-60620000D03*
D17*
X69000000Y-99000000D03*
X69000000Y-94120000D03*
D13*
X53000000Y-56000000D03*
D14*
X53000000Y-58540000D03*
X53000000Y-61080000D03*
X53000000Y-63620000D03*
X53000000Y-66160000D03*
X53000000Y-68700000D03*
D18*
X83000000Y-64750000D03*
X85000000Y-64750000D03*
D13*
X97000000Y-54000000D03*
D14*
X97000000Y-56540000D03*
X97000000Y-59080000D03*
X97000000Y-61620000D03*
D13*
X53000000Y-86000000D03*
D14*
X53000000Y-83460000D03*
X53000000Y-80920000D03*
X53000000Y-78380000D03*
X53000000Y-75840000D03*
X53000000Y-73300000D03*
D13*
X61000000Y-107000000D03*
D14*
X58460000Y-107000000D03*
X55920000Y-107000000D03*
X53380000Y-107000000D03*
D13*
X97000000Y-78000000D03*
D14*
X97000000Y-75460000D03*
X97000000Y-72920000D03*
X97000000Y-70380000D03*
X97000000Y-67840000D03*
X97000000Y-65300000D03*
D13*
X96000000Y-107000000D03*
D14*
X93460000Y-107000000D03*
X90920000Y-107000000D03*
X88380000Y-107000000D03*
X85840000Y-107000000D03*
X83300000Y-107000000D03*
X80760000Y-107000000D03*
X78220000Y-107000000D03*
D19*
X85000000Y-62750000D03*
X83000000Y-62750000D03*
D13*
X65000000Y-53000000D03*
D14*
X67540000Y-53000000D03*
X70080000Y-53000000D03*
X72620000Y-53000000D03*
X75160000Y-53000000D03*
X77700000Y-53000000D03*
X80240000Y-53000000D03*
X82780000Y-53000000D03*
%LPD*%
M02*
