G04 #@! TF.GenerationSoftware,KiCad,Pcbnew,8.0.5*
G04 #@! TF.CreationDate,2025-01-12T20:26:01+01:00*
G04 #@! TF.ProjectId,wolkje-brain,776f6c6b-6a65-42d6-9272-61696e2e6b69,rev?*
G04 #@! TF.SameCoordinates,Original*
G04 #@! TF.FileFunction,Soldermask,Top*
G04 #@! TF.FilePolarity,Negative*
%FSLAX46Y46*%
G04 Gerber Fmt 4.6, Leading zero omitted, Abs format (unit mm)*
G04 Created by KiCad (PCBNEW 8.0.5) date 2025-01-12 20:26:01*
%MOMM*%
%LPD*%
G01*
G04 APERTURE LIST*
G04 Aperture macros list*
%AMRoundRect*
0 Rectangle with rounded corners*
0 $1 Rounding radius*
0 $2 $3 $4 $5 $6 $7 $8 $9 X,Y pos of 4 corners*
0 Add a 4 corners polygon primitive as box body*
4,1,4,$2,$3,$4,$5,$6,$7,$8,$9,$2,$3,0*
0 Add four circle primitives for the rounded corners*
1,1,$1+$1,$2,$3*
1,1,$1+$1,$4,$5*
1,1,$1+$1,$6,$7*
1,1,$1+$1,$8,$9*
0 Add four rect primitives between the rounded corners*
20,1,$1+$1,$2,$3,$4,$5,0*
20,1,$1+$1,$4,$5,$6,$7,0*
20,1,$1+$1,$6,$7,$8,$9,0*
20,1,$1+$1,$8,$9,$2,$3,0*%
G04 Aperture macros list end*
%ADD10RoundRect,0.250000X-0.475000X0.337500X-0.475000X-0.337500X0.475000X-0.337500X0.475000X0.337500X0*%
%ADD11C,1.200000*%
%ADD12R,1.200000X1.200000*%
%ADD13O,1.700000X1.700000*%
%ADD14R,1.700000X1.700000*%
%ADD15R,0.450000X1.750000*%
%ADD16RoundRect,0.250000X0.337500X0.475000X-0.337500X0.475000X-0.337500X-0.475000X0.337500X-0.475000X0*%
%ADD17RoundRect,0.250000X-0.337500X-0.475000X0.337500X-0.475000X0.337500X0.475000X-0.337500X0.475000X0*%
%ADD18RoundRect,0.250000X-0.450000X0.350000X-0.450000X-0.350000X0.450000X-0.350000X0.450000X0.350000X0*%
%ADD19RoundRect,0.250000X0.475000X-0.337500X0.475000X0.337500X-0.475000X0.337500X-0.475000X-0.337500X0*%
%ADD20C,1.500000*%
%ADD21RoundRect,0.250000X0.450000X-0.325000X0.450000X0.325000X-0.450000X0.325000X-0.450000X-0.325000X0*%
%ADD22RoundRect,0.250000X0.450000X-0.350000X0.450000X0.350000X-0.450000X0.350000X-0.450000X-0.350000X0*%
%ADD23RoundRect,0.250000X-0.325000X-0.450000X0.325000X-0.450000X0.325000X0.450000X-0.325000X0.450000X0*%
%ADD24RoundRect,0.075000X0.700000X-0.075000X0.700000X0.075000X-0.700000X0.075000X-0.700000X-0.075000X0*%
%ADD25RoundRect,0.075000X0.075000X-0.700000X0.075000X0.700000X-0.075000X0.700000X-0.075000X-0.700000X0*%
%ADD26RoundRect,0.250000X-0.350000X-0.450000X0.350000X-0.450000X0.350000X0.450000X-0.350000X0.450000X0*%
G04 APERTURE END LIST*
D10*
X82500000Y-89037500D03*
X82500000Y-86962500D03*
X89400000Y-61837500D03*
X89400000Y-59762500D03*
D11*
X64972600Y-107000000D03*
D12*
X66972600Y-107000000D03*
D10*
X75500000Y-60737500D03*
X75500000Y-58662500D03*
D13*
X71540000Y-80000000D03*
X69000000Y-80000000D03*
D14*
X66460000Y-80000000D03*
D15*
X69725000Y-101100000D03*
X69075000Y-101100000D03*
X68425000Y-101100000D03*
X67775000Y-101100000D03*
X67125000Y-101100000D03*
X66475000Y-101100000D03*
X65825000Y-101100000D03*
X65175000Y-101100000D03*
X64525000Y-101100000D03*
X63875000Y-101100000D03*
X63225000Y-101100000D03*
X62575000Y-101100000D03*
X61925000Y-101100000D03*
X61275000Y-101100000D03*
X61275000Y-93900000D03*
X61925000Y-93900000D03*
X62575000Y-93900000D03*
X63225000Y-93900000D03*
X63875000Y-93900000D03*
X64525000Y-93900000D03*
X65175000Y-93900000D03*
X65825000Y-93900000D03*
X66475000Y-93900000D03*
X67125000Y-93900000D03*
X67775000Y-93900000D03*
X68425000Y-93900000D03*
X69075000Y-93900000D03*
X69725000Y-93900000D03*
D16*
X88162500Y-77000000D03*
X90237500Y-77000000D03*
D17*
X86537500Y-99500000D03*
X84462500Y-99500000D03*
D13*
X86920000Y-53000000D03*
X89460000Y-53000000D03*
D14*
X92000000Y-53000000D03*
D10*
X77700000Y-60737500D03*
X77700000Y-58662500D03*
D18*
X69000000Y-72500000D03*
X69000000Y-70500000D03*
D10*
X70500000Y-91537500D03*
X70500000Y-89462500D03*
D19*
X80000000Y-56962500D03*
X80000000Y-59037500D03*
D20*
X80000000Y-99380000D03*
X80000000Y-94500000D03*
D16*
X68962500Y-104100000D03*
X71037500Y-104100000D03*
D13*
X67540000Y-67620000D03*
X65000000Y-67620000D03*
X67540000Y-65080000D03*
X65000000Y-65080000D03*
X67540000Y-62540000D03*
X65000000Y-62540000D03*
X67540000Y-60000000D03*
X65000000Y-60000000D03*
X67540000Y-57460000D03*
D14*
X65000000Y-57460000D03*
D21*
X66000000Y-82975000D03*
X66000000Y-85025000D03*
D19*
X77300000Y-73300000D03*
X77300000Y-75375000D03*
D20*
X82380000Y-82800000D03*
X77500000Y-82800000D03*
D10*
X58500000Y-94037500D03*
X58500000Y-91962500D03*
D16*
X90962500Y-69500000D03*
X93037500Y-69500000D03*
D22*
X64000000Y-83000000D03*
X64000000Y-85000000D03*
D23*
X54025000Y-51500000D03*
X51975000Y-51500000D03*
D17*
X67037500Y-70500000D03*
X64962500Y-70500000D03*
D22*
X80500000Y-76500000D03*
X80500000Y-78500000D03*
D16*
X88162500Y-79100000D03*
X90237500Y-79100000D03*
D22*
X69000000Y-75200000D03*
X69000000Y-77200000D03*
D10*
X56000000Y-94037500D03*
X56000000Y-91962500D03*
D19*
X92100000Y-61662500D03*
X92100000Y-63737500D03*
D10*
X77500000Y-89037500D03*
X77500000Y-86962500D03*
D17*
X86537500Y-94500000D03*
X84462500Y-94500000D03*
D10*
X73000000Y-91537500D03*
X73000000Y-89462500D03*
D16*
X69462500Y-107000000D03*
X71537500Y-107000000D03*
D21*
X61500000Y-51975000D03*
X61500000Y-54025000D03*
D24*
X77325000Y-70750000D03*
X77325000Y-70250000D03*
X77325000Y-69750000D03*
X77325000Y-69250000D03*
X77325000Y-68750000D03*
X77325000Y-68250000D03*
X77325000Y-67750000D03*
X77325000Y-67250000D03*
X77325000Y-66750000D03*
X77325000Y-66250000D03*
X77325000Y-65750000D03*
X77325000Y-65250000D03*
X77325000Y-64750000D03*
X77325000Y-64250000D03*
X77325000Y-63750000D03*
X77325000Y-63250000D03*
D25*
X79250000Y-61325000D03*
X79750000Y-61325000D03*
X80250000Y-61325000D03*
X80750000Y-61325000D03*
X81250000Y-61325000D03*
X81750000Y-61325000D03*
X82250000Y-61325000D03*
X82750000Y-61325000D03*
X83250000Y-61325000D03*
X83750000Y-61325000D03*
X84250000Y-61325000D03*
X84750000Y-61325000D03*
X85250000Y-61325000D03*
X85750000Y-61325000D03*
X86250000Y-61325000D03*
X86750000Y-61325000D03*
D24*
X88675000Y-63250000D03*
X88675000Y-63750000D03*
X88675000Y-64250000D03*
X88675000Y-64750000D03*
X88675000Y-65250000D03*
X88675000Y-65750000D03*
X88675000Y-66250000D03*
X88675000Y-66750000D03*
X88675000Y-67250000D03*
X88675000Y-67750000D03*
X88675000Y-68250000D03*
X88675000Y-68750000D03*
X88675000Y-69250000D03*
X88675000Y-69750000D03*
X88675000Y-70250000D03*
X88675000Y-70750000D03*
D25*
X86750000Y-72675000D03*
X86250000Y-72675000D03*
X85750000Y-72675000D03*
X85250000Y-72675000D03*
X84750000Y-72675000D03*
X84250000Y-72675000D03*
X83750000Y-72675000D03*
X83250000Y-72675000D03*
X82750000Y-72675000D03*
X82250000Y-72675000D03*
X81750000Y-72675000D03*
X81250000Y-72675000D03*
X80750000Y-72675000D03*
X80250000Y-72675000D03*
X79750000Y-72675000D03*
X79250000Y-72675000D03*
D13*
X58000000Y-58080000D03*
X58000000Y-55540000D03*
D14*
X58000000Y-53000000D03*
D26*
X54000000Y-53500000D03*
X52000000Y-53500000D03*
D13*
X53000000Y-68700000D03*
X53000000Y-66160000D03*
X53000000Y-63620000D03*
X53000000Y-61080000D03*
X53000000Y-58540000D03*
D14*
X53000000Y-56000000D03*
D13*
X97000000Y-61620000D03*
X97000000Y-59080000D03*
X97000000Y-56540000D03*
D14*
X97000000Y-54000000D03*
D13*
X53000000Y-73300000D03*
X53000000Y-75840000D03*
X53000000Y-78380000D03*
X53000000Y-80920000D03*
X53000000Y-83460000D03*
D14*
X53000000Y-86000000D03*
D13*
X53380000Y-107000000D03*
X55920000Y-107000000D03*
X58460000Y-107000000D03*
D14*
X61000000Y-107000000D03*
D13*
X97000000Y-65300000D03*
X97000000Y-67840000D03*
X97000000Y-70380000D03*
X97000000Y-72920000D03*
X97000000Y-75460000D03*
D14*
X97000000Y-78000000D03*
D13*
X78220000Y-107000000D03*
X80760000Y-107000000D03*
X83300000Y-107000000D03*
X85840000Y-107000000D03*
X88380000Y-107000000D03*
X90920000Y-107000000D03*
X93460000Y-107000000D03*
D14*
X96000000Y-107000000D03*
D13*
X82780000Y-53000000D03*
X80240000Y-53000000D03*
X77700000Y-53000000D03*
X75160000Y-53000000D03*
X72620000Y-53000000D03*
X70080000Y-53000000D03*
X67540000Y-53000000D03*
D14*
X65000000Y-53000000D03*
M02*
