G04 #@! TF.GenerationSoftware,KiCad,Pcbnew,8.0.5*
G04 #@! TF.CreationDate,2025-01-12T20:26:00+01:00*
G04 #@! TF.ProjectId,wolkje-brain,776f6c6b-6a65-42d6-9272-61696e2e6b69,rev?*
G04 #@! TF.SameCoordinates,Original*
G04 #@! TF.FileFunction,Copper,L2,Inr*
G04 #@! TF.FilePolarity,Positive*
%FSLAX46Y46*%
G04 Gerber Fmt 4.6, Leading zero omitted, Abs format (unit mm)*
G04 Created by KiCad (PCBNEW 8.0.5) date 2025-01-12 20:26:00*
%MOMM*%
%LPD*%
G01*
G04 APERTURE LIST*
G04 #@! TA.AperFunction,ComponentPad*
%ADD10C,1.200000*%
G04 #@! TD*
G04 #@! TA.AperFunction,ComponentPad*
%ADD11R,1.200000X1.200000*%
G04 #@! TD*
G04 #@! TA.AperFunction,ComponentPad*
%ADD12O,1.700000X1.700000*%
G04 #@! TD*
G04 #@! TA.AperFunction,ComponentPad*
%ADD13R,1.700000X1.700000*%
G04 #@! TD*
G04 #@! TA.AperFunction,ComponentPad*
%ADD14C,1.500000*%
G04 #@! TD*
G04 #@! TA.AperFunction,ViaPad*
%ADD15C,0.800000*%
G04 #@! TD*
G04 #@! TA.AperFunction,Conductor*
%ADD16C,0.300000*%
G04 #@! TD*
G04 APERTURE END LIST*
D10*
X64972600Y-107000000D03*
D11*
X66972600Y-107000000D03*
D12*
X71540000Y-80000000D03*
X69000000Y-80000000D03*
D13*
X66460000Y-80000000D03*
D12*
X86920000Y-53000000D03*
X89460000Y-53000000D03*
D13*
X92000000Y-53000000D03*
D14*
X80000000Y-99380000D03*
X80000000Y-94500000D03*
D12*
X67540000Y-67620000D03*
X65000000Y-67620000D03*
X67540000Y-65080000D03*
X65000000Y-65080000D03*
X67540000Y-62540000D03*
X65000000Y-62540000D03*
X67540000Y-60000000D03*
X65000000Y-60000000D03*
X67540000Y-57460000D03*
D13*
X65000000Y-57460000D03*
D14*
X82380000Y-82800000D03*
X77500000Y-82800000D03*
D12*
X58000000Y-58080000D03*
X58000000Y-55540000D03*
D13*
X58000000Y-53000000D03*
D12*
X53000000Y-68700000D03*
X53000000Y-66160000D03*
X53000000Y-63620000D03*
X53000000Y-61080000D03*
X53000000Y-58540000D03*
D13*
X53000000Y-56000000D03*
D12*
X97000000Y-61620000D03*
X97000000Y-59080000D03*
X97000000Y-56540000D03*
D13*
X97000000Y-54000000D03*
D12*
X53000000Y-73300000D03*
X53000000Y-75840000D03*
X53000000Y-78380000D03*
X53000000Y-80920000D03*
X53000000Y-83460000D03*
D13*
X53000000Y-86000000D03*
D12*
X53380000Y-107000000D03*
X55920000Y-107000000D03*
X58460000Y-107000000D03*
D13*
X61000000Y-107000000D03*
D12*
X97000000Y-65300000D03*
X97000000Y-67840000D03*
X97000000Y-70380000D03*
X97000000Y-72920000D03*
X97000000Y-75460000D03*
D13*
X97000000Y-78000000D03*
D12*
X78220000Y-107000000D03*
X80760000Y-107000000D03*
X83300000Y-107000000D03*
X85840000Y-107000000D03*
X88380000Y-107000000D03*
X90920000Y-107000000D03*
X93460000Y-107000000D03*
D13*
X96000000Y-107000000D03*
D12*
X82780000Y-53000000D03*
X80240000Y-53000000D03*
X77700000Y-53000000D03*
X75160000Y-53000000D03*
X72620000Y-53000000D03*
X70080000Y-53000000D03*
X67540000Y-53000000D03*
D13*
X65000000Y-53000000D03*
D15*
X65500000Y-104200000D03*
X70100000Y-54900000D03*
X77700000Y-55000000D03*
X73000000Y-93000000D03*
X94500000Y-75500000D03*
X75500000Y-62000000D03*
X72900000Y-103000000D03*
X88000000Y-61000000D03*
X55500000Y-53500000D03*
X73500000Y-61000000D03*
X88200000Y-74300000D03*
X66900000Y-72400000D03*
X74500000Y-91500000D03*
X75700000Y-73730331D03*
X89500000Y-58500000D03*
X79000000Y-70000000D03*
X94500000Y-69500000D03*
X87100000Y-65800000D03*
X79000000Y-89000000D03*
X87100000Y-64900000D03*
X64600000Y-99500000D03*
X58500000Y-90500000D03*
X55500000Y-51500000D03*
X81500000Y-57000000D03*
X92000000Y-79400000D03*
X87100000Y-66700000D03*
X62500000Y-83000000D03*
X63200000Y-95600000D03*
X73000000Y-107000000D03*
X88000000Y-94500000D03*
X92200000Y-60000000D03*
X85200000Y-70700000D03*
X56000000Y-90500000D03*
X81000000Y-89000000D03*
X70500000Y-88000000D03*
X92000000Y-76900000D03*
X70000000Y-99500000D03*
X78300000Y-57300000D03*
X88000000Y-99500000D03*
X63000000Y-67600000D03*
X65000000Y-72000000D03*
X72800000Y-104150000D03*
X66400000Y-99500000D03*
X75500000Y-57300000D03*
X62900000Y-62500000D03*
X61300000Y-99300000D03*
X75600000Y-75400000D03*
X65500000Y-99200000D03*
X62900000Y-59900000D03*
X86600000Y-70700000D03*
X73000000Y-88000000D03*
X66000000Y-50650000D03*
X88500000Y-75500000D03*
X54500000Y-94037500D03*
X85452056Y-74522944D03*
X78500000Y-71500000D03*
X70626775Y-71626775D03*
X61925000Y-103300000D03*
X67100000Y-104500000D03*
X91500000Y-65500000D03*
X80716228Y-68951315D03*
X66300000Y-89400000D03*
X67100000Y-91250000D03*
X80400000Y-69900000D03*
X78800000Y-63500000D03*
X88000000Y-72050000D03*
X85900000Y-67800000D03*
X79900000Y-67750000D03*
X66500000Y-96200000D03*
X83600000Y-74999997D03*
X83600000Y-76000000D03*
X90469669Y-65530331D03*
X67530331Y-103469669D03*
X85900000Y-68800000D03*
X66560658Y-97200003D03*
X79900000Y-66749997D03*
X74650000Y-70750000D03*
X71188404Y-65000000D03*
X74688946Y-69685927D03*
D16*
X79900000Y-67750000D02*
X79850000Y-67800000D01*
X78685788Y-67800000D02*
X70842894Y-75642894D01*
X79850000Y-67800000D02*
X78685788Y-67800000D01*
X64100000Y-90792894D02*
X66500000Y-93192894D01*
X70842894Y-75642894D02*
X67002893Y-75642894D01*
X67002893Y-75642894D02*
X64100000Y-78545787D01*
X64100000Y-78545787D02*
X64100000Y-90792894D01*
X66500000Y-93192894D02*
X66500000Y-96200000D01*
X70096447Y-77096447D02*
X66256446Y-77096447D01*
X64760000Y-78592893D02*
X64760000Y-87860000D01*
X80264913Y-68500000D02*
X78692894Y-68500000D01*
X80716228Y-68951315D02*
X80264913Y-68500000D01*
X78692894Y-68500000D02*
X70096447Y-77096447D01*
X66256446Y-77096447D02*
X64760000Y-78592893D01*
X64760000Y-87860000D02*
X66300000Y-89400000D01*
X80400000Y-69900000D02*
X79600000Y-69100000D01*
X65260000Y-81200000D02*
X67100000Y-83040000D01*
X79600000Y-69100000D02*
X78800000Y-69100000D01*
X66260000Y-77800000D02*
X65260000Y-78800000D01*
X65260000Y-78800000D02*
X65260000Y-81200000D01*
X78800000Y-69100000D02*
X70100000Y-77800000D01*
X70100000Y-77800000D02*
X66260000Y-77800000D01*
X67100000Y-83040000D02*
X67100000Y-91250000D01*
X79900000Y-66749997D02*
X79850003Y-66700000D01*
X79850003Y-66700000D02*
X76614212Y-66700000D01*
X63600000Y-91000000D02*
X65100000Y-92500000D01*
X76614212Y-66700000D02*
X68171318Y-75142894D01*
X68171318Y-75142894D02*
X66795786Y-75142894D01*
X66795786Y-75142894D02*
X63600000Y-78338680D01*
X65100000Y-92500000D02*
X65100000Y-95860661D01*
X63600000Y-78338680D02*
X63600000Y-91000000D01*
X65100000Y-95860661D02*
X66439342Y-97200003D01*
X66439342Y-97200003D02*
X66560658Y-97200003D01*
X96880000Y-72800000D02*
X97000000Y-72920000D01*
X83600000Y-74607233D02*
X85407233Y-72800000D01*
X85407233Y-72800000D02*
X96880000Y-72800000D01*
X83600000Y-74999997D02*
X83600000Y-74607233D01*
X84702056Y-75197944D02*
X84702056Y-74212283D01*
X94840000Y-73300000D02*
X97000000Y-75460000D01*
X84702056Y-74212283D02*
X85614339Y-73300000D01*
X85614339Y-73300000D02*
X94840000Y-73300000D01*
X83900000Y-76000000D02*
X84702056Y-75197944D01*
X83600000Y-76000000D02*
X83900000Y-76000000D01*
G04 #@! TA.AperFunction,Conductor*
G36*
X66354855Y-65746546D02*
G01*
X66371575Y-65765842D01*
X66501501Y-65951396D01*
X66501506Y-65951402D01*
X66668597Y-66118493D01*
X66668603Y-66118498D01*
X66854158Y-66248425D01*
X66897783Y-66303002D01*
X66904977Y-66372500D01*
X66873454Y-66434855D01*
X66854158Y-66451575D01*
X66668597Y-66581505D01*
X66501505Y-66748597D01*
X66371269Y-66934595D01*
X66316692Y-66978220D01*
X66247194Y-66985414D01*
X66184839Y-66953891D01*
X66168119Y-66934595D01*
X66114925Y-66858626D01*
X66114925Y-66858625D01*
X65482962Y-67490589D01*
X65465925Y-67427007D01*
X65400099Y-67312993D01*
X65307007Y-67219901D01*
X65192993Y-67154075D01*
X65129410Y-67137037D01*
X65761373Y-66505073D01*
X65761373Y-66505072D01*
X65685405Y-66451880D01*
X65641780Y-66397304D01*
X65634586Y-66327805D01*
X65666108Y-66265451D01*
X65685399Y-66248734D01*
X65871401Y-66118495D01*
X66038495Y-65951401D01*
X66168425Y-65765842D01*
X66223002Y-65722217D01*
X66292500Y-65715023D01*
X66354855Y-65746546D01*
G37*
G04 #@! TD.AperFunction*
G04 #@! TA.AperFunction,Conductor*
G36*
X66114925Y-63301373D02*
G01*
X66168119Y-63225405D01*
X66222696Y-63181781D01*
X66292195Y-63174588D01*
X66354549Y-63206110D01*
X66371269Y-63225405D01*
X66501505Y-63411401D01*
X66501506Y-63411402D01*
X66668597Y-63578493D01*
X66668603Y-63578498D01*
X66854158Y-63708425D01*
X66897783Y-63763002D01*
X66904977Y-63832500D01*
X66873454Y-63894855D01*
X66854158Y-63911575D01*
X66668597Y-64041505D01*
X66501505Y-64208597D01*
X66371575Y-64394158D01*
X66316998Y-64437783D01*
X66247500Y-64444977D01*
X66185145Y-64413454D01*
X66168425Y-64394158D01*
X66038494Y-64208597D01*
X65871402Y-64041506D01*
X65871401Y-64041505D01*
X65685405Y-63911269D01*
X65641781Y-63856692D01*
X65634588Y-63787193D01*
X65666110Y-63724839D01*
X65685405Y-63708119D01*
X65761373Y-63654925D01*
X65129409Y-63022962D01*
X65192993Y-63005925D01*
X65307007Y-62940099D01*
X65400099Y-62847007D01*
X65465925Y-62732993D01*
X65482962Y-62669410D01*
X66114925Y-63301373D01*
G37*
G04 #@! TD.AperFunction*
G04 #@! TA.AperFunction,Conductor*
G36*
X66114925Y-60761373D02*
G01*
X66168119Y-60685405D01*
X66222696Y-60641781D01*
X66292195Y-60634588D01*
X66354549Y-60666110D01*
X66371269Y-60685405D01*
X66501505Y-60871401D01*
X66501506Y-60871402D01*
X66668597Y-61038493D01*
X66668603Y-61038498D01*
X66854158Y-61168425D01*
X66897783Y-61223002D01*
X66904977Y-61292500D01*
X66873454Y-61354855D01*
X66854158Y-61371575D01*
X66668597Y-61501505D01*
X66501505Y-61668597D01*
X66371269Y-61854595D01*
X66316692Y-61898220D01*
X66247194Y-61905414D01*
X66184839Y-61873891D01*
X66168119Y-61854595D01*
X66114925Y-61778626D01*
X66114925Y-61778625D01*
X65482962Y-62410589D01*
X65465925Y-62347007D01*
X65400099Y-62232993D01*
X65307007Y-62139901D01*
X65192993Y-62074075D01*
X65129410Y-62057037D01*
X65761373Y-61425073D01*
X65684969Y-61371576D01*
X65641344Y-61316999D01*
X65634150Y-61247501D01*
X65665672Y-61185146D01*
X65684968Y-61168425D01*
X65761373Y-61114925D01*
X65129409Y-60482962D01*
X65192993Y-60465925D01*
X65307007Y-60400099D01*
X65400099Y-60307007D01*
X65465925Y-60192993D01*
X65482962Y-60129410D01*
X66114925Y-60761373D01*
G37*
G04 #@! TD.AperFunction*
G04 #@! TA.AperFunction,Conductor*
G36*
X66518418Y-58355417D02*
G01*
X66546673Y-58376569D01*
X66668597Y-58498493D01*
X66668603Y-58498498D01*
X66854158Y-58628425D01*
X66897783Y-58683002D01*
X66904977Y-58752500D01*
X66873454Y-58814855D01*
X66854158Y-58831575D01*
X66668597Y-58961505D01*
X66501505Y-59128597D01*
X66371269Y-59314595D01*
X66316692Y-59358220D01*
X66247194Y-59365414D01*
X66184839Y-59333891D01*
X66168119Y-59314595D01*
X66114925Y-59238626D01*
X66114925Y-59238625D01*
X65482962Y-59870589D01*
X65465925Y-59807007D01*
X65400099Y-59692993D01*
X65307007Y-59599901D01*
X65192993Y-59534075D01*
X65129410Y-59517037D01*
X65799629Y-58846818D01*
X65860952Y-58813333D01*
X65887309Y-58810499D01*
X65897872Y-58810499D01*
X65957483Y-58804091D01*
X66092331Y-58753796D01*
X66207546Y-58667546D01*
X66293796Y-58552331D01*
X66342810Y-58420916D01*
X66384681Y-58364984D01*
X66450145Y-58340566D01*
X66518418Y-58355417D01*
G37*
G04 #@! TD.AperFunction*
G04 #@! TA.AperFunction,Conductor*
G36*
X65079331Y-50270185D02*
G01*
X65125086Y-50322989D01*
X65135030Y-50392147D01*
X65130223Y-50412818D01*
X65114326Y-50461744D01*
X65094540Y-50650000D01*
X65114326Y-50838256D01*
X65114327Y-50838259D01*
X65172818Y-51018277D01*
X65172821Y-51018284D01*
X65267467Y-51182216D01*
X65394129Y-51322888D01*
X65534924Y-51425182D01*
X65577590Y-51480512D01*
X65583569Y-51550125D01*
X65550963Y-51611920D01*
X65490124Y-51646278D01*
X65462039Y-51649500D01*
X64102129Y-51649500D01*
X64102123Y-51649501D01*
X64042516Y-51655908D01*
X63907671Y-51706202D01*
X63907664Y-51706206D01*
X63792455Y-51792452D01*
X63792452Y-51792455D01*
X63706206Y-51907664D01*
X63706202Y-51907671D01*
X63655908Y-52042517D01*
X63649501Y-52102116D01*
X63649501Y-52102123D01*
X63649500Y-52102135D01*
X63649500Y-53897870D01*
X63649501Y-53897876D01*
X63655908Y-53957483D01*
X63706202Y-54092328D01*
X63706206Y-54092335D01*
X63792452Y-54207544D01*
X63792455Y-54207547D01*
X63907664Y-54293793D01*
X63907671Y-54293797D01*
X64042517Y-54344091D01*
X64042516Y-54344091D01*
X64049444Y-54344835D01*
X64102127Y-54350500D01*
X65897872Y-54350499D01*
X65957483Y-54344091D01*
X66092331Y-54293796D01*
X66207546Y-54207546D01*
X66293796Y-54092331D01*
X66342810Y-53960916D01*
X66384681Y-53904984D01*
X66450145Y-53880566D01*
X66518418Y-53895417D01*
X66546673Y-53916569D01*
X66668599Y-54038495D01*
X66765384Y-54106265D01*
X66862165Y-54174032D01*
X66862167Y-54174033D01*
X66862170Y-54174035D01*
X67076337Y-54273903D01*
X67076343Y-54273904D01*
X67076344Y-54273905D01*
X67131285Y-54288626D01*
X67304592Y-54335063D01*
X67481034Y-54350500D01*
X67539999Y-54355659D01*
X67540000Y-54355659D01*
X67540001Y-54355659D01*
X67598966Y-54350500D01*
X67775408Y-54335063D01*
X68003663Y-54273903D01*
X68217830Y-54174035D01*
X68411401Y-54038495D01*
X68578495Y-53871401D01*
X68708732Y-53685403D01*
X68763307Y-53641780D01*
X68832805Y-53634586D01*
X68895160Y-53666109D01*
X68911880Y-53685405D01*
X68965073Y-53761373D01*
X69597037Y-53129409D01*
X69614075Y-53192993D01*
X69679901Y-53307007D01*
X69772993Y-53400099D01*
X69887007Y-53465925D01*
X69950590Y-53482962D01*
X69318625Y-54114925D01*
X69402421Y-54173599D01*
X69616507Y-54273429D01*
X69616516Y-54273433D01*
X69844673Y-54334567D01*
X69844684Y-54334569D01*
X70079998Y-54355157D01*
X70080002Y-54355157D01*
X70315315Y-54334569D01*
X70315326Y-54334567D01*
X70543483Y-54273433D01*
X70543492Y-54273429D01*
X70757578Y-54173600D01*
X70757582Y-54173598D01*
X70841373Y-54114926D01*
X70841373Y-54114925D01*
X70209409Y-53482962D01*
X70272993Y-53465925D01*
X70387007Y-53400099D01*
X70480099Y-53307007D01*
X70545925Y-53192993D01*
X70562962Y-53129410D01*
X71194925Y-53761373D01*
X71248119Y-53685405D01*
X71302696Y-53641781D01*
X71372195Y-53634588D01*
X71434549Y-53666110D01*
X71451269Y-53685405D01*
X71581505Y-53871401D01*
X71748599Y-54038495D01*
X71845384Y-54106265D01*
X71942165Y-54174032D01*
X71942167Y-54174033D01*
X71942170Y-54174035D01*
X72156337Y-54273903D01*
X72156343Y-54273904D01*
X72156344Y-54273905D01*
X72211285Y-54288626D01*
X72384592Y-54335063D01*
X72561034Y-54350500D01*
X72619999Y-54355659D01*
X72620000Y-54355659D01*
X72620001Y-54355659D01*
X72678966Y-54350500D01*
X72855408Y-54335063D01*
X73083663Y-54273903D01*
X73297830Y-54174035D01*
X73491401Y-54038495D01*
X73658495Y-53871401D01*
X73788425Y-53685842D01*
X73843002Y-53642217D01*
X73912500Y-53635023D01*
X73974855Y-53666546D01*
X73991575Y-53685842D01*
X74121500Y-53871395D01*
X74121505Y-53871401D01*
X74288599Y-54038495D01*
X74385384Y-54106265D01*
X74482165Y-54174032D01*
X74482167Y-54174033D01*
X74482170Y-54174035D01*
X74696337Y-54273903D01*
X74696343Y-54273904D01*
X74696344Y-54273905D01*
X74751285Y-54288626D01*
X74924592Y-54335063D01*
X75101034Y-54350500D01*
X75159999Y-54355659D01*
X75160000Y-54355659D01*
X75160001Y-54355659D01*
X75218966Y-54350500D01*
X75395408Y-54335063D01*
X75623663Y-54273903D01*
X75837830Y-54174035D01*
X76031401Y-54038495D01*
X76198495Y-53871401D01*
X76328732Y-53685403D01*
X76383307Y-53641780D01*
X76452805Y-53634586D01*
X76515160Y-53666109D01*
X76531880Y-53685405D01*
X76585073Y-53761373D01*
X77217037Y-53129409D01*
X77234075Y-53192993D01*
X77299901Y-53307007D01*
X77392993Y-53400099D01*
X77507007Y-53465925D01*
X77570590Y-53482962D01*
X76938625Y-54114925D01*
X77022421Y-54173599D01*
X77236507Y-54273429D01*
X77236516Y-54273433D01*
X77464673Y-54334567D01*
X77464684Y-54334569D01*
X77699998Y-54355157D01*
X77700002Y-54355157D01*
X77935315Y-54334569D01*
X77935326Y-54334567D01*
X78163483Y-54273433D01*
X78163492Y-54273429D01*
X78377578Y-54173600D01*
X78377582Y-54173598D01*
X78461373Y-54114926D01*
X78461373Y-54114925D01*
X77829409Y-53482962D01*
X77892993Y-53465925D01*
X78007007Y-53400099D01*
X78100099Y-53307007D01*
X78165925Y-53192993D01*
X78182962Y-53129410D01*
X78814925Y-53761373D01*
X78868119Y-53685405D01*
X78922696Y-53641781D01*
X78992195Y-53634588D01*
X79054549Y-53666110D01*
X79071269Y-53685405D01*
X79201505Y-53871401D01*
X79368599Y-54038495D01*
X79465384Y-54106265D01*
X79562165Y-54174032D01*
X79562167Y-54174033D01*
X79562170Y-54174035D01*
X79776337Y-54273903D01*
X79776343Y-54273904D01*
X79776344Y-54273905D01*
X79831285Y-54288626D01*
X80004592Y-54335063D01*
X80181034Y-54350500D01*
X80239999Y-54355659D01*
X80240000Y-54355659D01*
X80240001Y-54355659D01*
X80298966Y-54350500D01*
X80475408Y-54335063D01*
X80703663Y-54273903D01*
X80917830Y-54174035D01*
X81111401Y-54038495D01*
X81278495Y-53871401D01*
X81408425Y-53685842D01*
X81463002Y-53642217D01*
X81532500Y-53635023D01*
X81594855Y-53666546D01*
X81611575Y-53685842D01*
X81741500Y-53871395D01*
X81741505Y-53871401D01*
X81908599Y-54038495D01*
X82005384Y-54106265D01*
X82102165Y-54174032D01*
X82102167Y-54174033D01*
X82102170Y-54174035D01*
X82316337Y-54273903D01*
X82316343Y-54273904D01*
X82316344Y-54273905D01*
X82371285Y-54288626D01*
X82544592Y-54335063D01*
X82721034Y-54350500D01*
X82779999Y-54355659D01*
X82780000Y-54355659D01*
X82780001Y-54355659D01*
X82838966Y-54350500D01*
X83015408Y-54335063D01*
X83243663Y-54273903D01*
X83457830Y-54174035D01*
X83651401Y-54038495D01*
X83818495Y-53871401D01*
X83954035Y-53677830D01*
X84053903Y-53463663D01*
X84115063Y-53235408D01*
X84135659Y-53000000D01*
X84132840Y-52967785D01*
X84118774Y-52807007D01*
X84115063Y-52764592D01*
X84111153Y-52749999D01*
X85589364Y-52749999D01*
X85589364Y-52750000D01*
X86486988Y-52750000D01*
X86454075Y-52807007D01*
X86420000Y-52934174D01*
X86420000Y-53065826D01*
X86454075Y-53192993D01*
X86486988Y-53250000D01*
X85589364Y-53250000D01*
X85646567Y-53463486D01*
X85646570Y-53463492D01*
X85746399Y-53677578D01*
X85881894Y-53871082D01*
X86048917Y-54038105D01*
X86242421Y-54173600D01*
X86456507Y-54273429D01*
X86456516Y-54273433D01*
X86670000Y-54330634D01*
X86670000Y-53433012D01*
X86727007Y-53465925D01*
X86854174Y-53500000D01*
X86985826Y-53500000D01*
X87112993Y-53465925D01*
X87170000Y-53433012D01*
X87170000Y-54330633D01*
X87383483Y-54273433D01*
X87383492Y-54273429D01*
X87597578Y-54173600D01*
X87791082Y-54038105D01*
X87958105Y-53871082D01*
X88088119Y-53685405D01*
X88142696Y-53641781D01*
X88212195Y-53634588D01*
X88274549Y-53666110D01*
X88291269Y-53685405D01*
X88421505Y-53871401D01*
X88588599Y-54038495D01*
X88685384Y-54106265D01*
X88782165Y-54174032D01*
X88782167Y-54174033D01*
X88782170Y-54174035D01*
X88996337Y-54273903D01*
X88996343Y-54273904D01*
X88996344Y-54273905D01*
X89051285Y-54288626D01*
X89224592Y-54335063D01*
X89401034Y-54350500D01*
X89459999Y-54355659D01*
X89460000Y-54355659D01*
X89460001Y-54355659D01*
X89518966Y-54350500D01*
X89695408Y-54335063D01*
X89923663Y-54273903D01*
X90137830Y-54174035D01*
X90331401Y-54038495D01*
X90453329Y-53916566D01*
X90514648Y-53883084D01*
X90584340Y-53888068D01*
X90640274Y-53929939D01*
X90657189Y-53960917D01*
X90706202Y-54092328D01*
X90706206Y-54092335D01*
X90792452Y-54207544D01*
X90792455Y-54207547D01*
X90907664Y-54293793D01*
X90907671Y-54293797D01*
X91042517Y-54344091D01*
X91042516Y-54344091D01*
X91049444Y-54344835D01*
X91102127Y-54350500D01*
X92897872Y-54350499D01*
X92957483Y-54344091D01*
X93092331Y-54293796D01*
X93207546Y-54207546D01*
X93293796Y-54092331D01*
X93344091Y-53957483D01*
X93350500Y-53897873D01*
X93350499Y-52102128D01*
X93344091Y-52042517D01*
X93342810Y-52039083D01*
X93293797Y-51907671D01*
X93293793Y-51907664D01*
X93207547Y-51792455D01*
X93207544Y-51792452D01*
X93092335Y-51706206D01*
X93092328Y-51706202D01*
X92957482Y-51655908D01*
X92957483Y-51655908D01*
X92897883Y-51649501D01*
X92897881Y-51649500D01*
X92897873Y-51649500D01*
X92897864Y-51649500D01*
X91102129Y-51649500D01*
X91102123Y-51649501D01*
X91042516Y-51655908D01*
X90907671Y-51706202D01*
X90907664Y-51706206D01*
X90792455Y-51792452D01*
X90792452Y-51792455D01*
X90706206Y-51907664D01*
X90706203Y-51907669D01*
X90657189Y-52039083D01*
X90615317Y-52095016D01*
X90549853Y-52119433D01*
X90481580Y-52104581D01*
X90453326Y-52083430D01*
X90331402Y-51961506D01*
X90331395Y-51961501D01*
X90137834Y-51825967D01*
X90137830Y-51825965D01*
X90137828Y-51825964D01*
X89923663Y-51726097D01*
X89923659Y-51726096D01*
X89923655Y-51726094D01*
X89695413Y-51664938D01*
X89695403Y-51664936D01*
X89460001Y-51644341D01*
X89459999Y-51644341D01*
X89224596Y-51664936D01*
X89224586Y-51664938D01*
X88996344Y-51726094D01*
X88996335Y-51726098D01*
X88782171Y-51825964D01*
X88782169Y-51825965D01*
X88588597Y-51961505D01*
X88421508Y-52128594D01*
X88291269Y-52314595D01*
X88236692Y-52358219D01*
X88167193Y-52365412D01*
X88104839Y-52333890D01*
X88088119Y-52314594D01*
X87958113Y-52128926D01*
X87958108Y-52128920D01*
X87791082Y-51961894D01*
X87597578Y-51826399D01*
X87383492Y-51726570D01*
X87383486Y-51726567D01*
X87170000Y-51669364D01*
X87170000Y-52566988D01*
X87112993Y-52534075D01*
X86985826Y-52500000D01*
X86854174Y-52500000D01*
X86727007Y-52534075D01*
X86670000Y-52566988D01*
X86670000Y-51669364D01*
X86669999Y-51669364D01*
X86456513Y-51726567D01*
X86456507Y-51726570D01*
X86242422Y-51826399D01*
X86242420Y-51826400D01*
X86048926Y-51961886D01*
X86048920Y-51961891D01*
X85881891Y-52128920D01*
X85881886Y-52128926D01*
X85746400Y-52322420D01*
X85746399Y-52322422D01*
X85646570Y-52536507D01*
X85646567Y-52536513D01*
X85589364Y-52749999D01*
X84111153Y-52749999D01*
X84053903Y-52536337D01*
X83954035Y-52322171D01*
X83948731Y-52314595D01*
X83818494Y-52128597D01*
X83651402Y-51961506D01*
X83651395Y-51961501D01*
X83457834Y-51825967D01*
X83457830Y-51825965D01*
X83457828Y-51825964D01*
X83243663Y-51726097D01*
X83243659Y-51726096D01*
X83243655Y-51726094D01*
X83015413Y-51664938D01*
X83015403Y-51664936D01*
X82780001Y-51644341D01*
X82779999Y-51644341D01*
X82544596Y-51664936D01*
X82544586Y-51664938D01*
X82316344Y-51726094D01*
X82316335Y-51726098D01*
X82102171Y-51825964D01*
X82102169Y-51825965D01*
X81908597Y-51961505D01*
X81741505Y-52128597D01*
X81611575Y-52314158D01*
X81556998Y-52357783D01*
X81487500Y-52364977D01*
X81425145Y-52333454D01*
X81408425Y-52314158D01*
X81278494Y-52128597D01*
X81111402Y-51961506D01*
X81111395Y-51961501D01*
X80917834Y-51825967D01*
X80917830Y-51825965D01*
X80917828Y-51825964D01*
X80703663Y-51726097D01*
X80703659Y-51726096D01*
X80703655Y-51726094D01*
X80475413Y-51664938D01*
X80475403Y-51664936D01*
X80240001Y-51644341D01*
X80239999Y-51644341D01*
X80004596Y-51664936D01*
X80004586Y-51664938D01*
X79776344Y-51726094D01*
X79776335Y-51726098D01*
X79562171Y-51825964D01*
X79562169Y-51825965D01*
X79368597Y-51961505D01*
X79201505Y-52128597D01*
X79071269Y-52314595D01*
X79016692Y-52358220D01*
X78947194Y-52365414D01*
X78884839Y-52333891D01*
X78868119Y-52314595D01*
X78814925Y-52238626D01*
X78814925Y-52238625D01*
X78182962Y-52870589D01*
X78165925Y-52807007D01*
X78100099Y-52692993D01*
X78007007Y-52599901D01*
X77892993Y-52534075D01*
X77829410Y-52517037D01*
X78461373Y-51885073D01*
X78461373Y-51885072D01*
X78377583Y-51826402D01*
X78377579Y-51826400D01*
X78163492Y-51726570D01*
X78163483Y-51726566D01*
X77935326Y-51665432D01*
X77935315Y-51665430D01*
X77700002Y-51644843D01*
X77699998Y-51644843D01*
X77464684Y-51665430D01*
X77464673Y-51665432D01*
X77236516Y-51726566D01*
X77236507Y-51726570D01*
X77022419Y-51826401D01*
X76938625Y-51885072D01*
X77570590Y-52517037D01*
X77507007Y-52534075D01*
X77392993Y-52599901D01*
X77299901Y-52692993D01*
X77234075Y-52807007D01*
X77217037Y-52870590D01*
X76585073Y-52238626D01*
X76531881Y-52314594D01*
X76477304Y-52358219D01*
X76407806Y-52365413D01*
X76345451Y-52333891D01*
X76328730Y-52314594D01*
X76198494Y-52128597D01*
X76031402Y-51961506D01*
X76031395Y-51961501D01*
X75837834Y-51825967D01*
X75837830Y-51825965D01*
X75837828Y-51825964D01*
X75623663Y-51726097D01*
X75623659Y-51726096D01*
X75623655Y-51726094D01*
X75395413Y-51664938D01*
X75395403Y-51664936D01*
X75160001Y-51644341D01*
X75159999Y-51644341D01*
X74924596Y-51664936D01*
X74924586Y-51664938D01*
X74696344Y-51726094D01*
X74696335Y-51726098D01*
X74482171Y-51825964D01*
X74482169Y-51825965D01*
X74288597Y-51961505D01*
X74121505Y-52128597D01*
X73991575Y-52314158D01*
X73936998Y-52357783D01*
X73867500Y-52364977D01*
X73805145Y-52333454D01*
X73788425Y-52314158D01*
X73658494Y-52128597D01*
X73491402Y-51961506D01*
X73491395Y-51961501D01*
X73297834Y-51825967D01*
X73297830Y-51825965D01*
X73297828Y-51825964D01*
X73083663Y-51726097D01*
X73083659Y-51726096D01*
X73083655Y-51726094D01*
X72855413Y-51664938D01*
X72855403Y-51664936D01*
X72620001Y-51644341D01*
X72619999Y-51644341D01*
X72384596Y-51664936D01*
X72384586Y-51664938D01*
X72156344Y-51726094D01*
X72156335Y-51726098D01*
X71942171Y-51825964D01*
X71942169Y-51825965D01*
X71748597Y-51961505D01*
X71581505Y-52128597D01*
X71451269Y-52314595D01*
X71396692Y-52358220D01*
X71327194Y-52365414D01*
X71264839Y-52333891D01*
X71248119Y-52314595D01*
X71194925Y-52238626D01*
X71194925Y-52238625D01*
X70562962Y-52870589D01*
X70545925Y-52807007D01*
X70480099Y-52692993D01*
X70387007Y-52599901D01*
X70272993Y-52534075D01*
X70209410Y-52517037D01*
X70841373Y-51885073D01*
X70841373Y-51885072D01*
X70757583Y-51826402D01*
X70757579Y-51826400D01*
X70543492Y-51726570D01*
X70543483Y-51726566D01*
X70315326Y-51665432D01*
X70315315Y-51665430D01*
X70080002Y-51644843D01*
X70079998Y-51644843D01*
X69844684Y-51665430D01*
X69844673Y-51665432D01*
X69616516Y-51726566D01*
X69616507Y-51726570D01*
X69402419Y-51826401D01*
X69318625Y-51885072D01*
X69950590Y-52517037D01*
X69887007Y-52534075D01*
X69772993Y-52599901D01*
X69679901Y-52692993D01*
X69614075Y-52807007D01*
X69597037Y-52870590D01*
X68965073Y-52238626D01*
X68911881Y-52314594D01*
X68857304Y-52358219D01*
X68787806Y-52365413D01*
X68725451Y-52333891D01*
X68708730Y-52314594D01*
X68578494Y-52128597D01*
X68411402Y-51961506D01*
X68411395Y-51961501D01*
X68217834Y-51825967D01*
X68217830Y-51825965D01*
X68217828Y-51825964D01*
X68003663Y-51726097D01*
X68003659Y-51726096D01*
X68003655Y-51726094D01*
X67775413Y-51664938D01*
X67775403Y-51664936D01*
X67540001Y-51644341D01*
X67539999Y-51644341D01*
X67304596Y-51664936D01*
X67304586Y-51664938D01*
X67076344Y-51726094D01*
X67076335Y-51726098D01*
X66862171Y-51825964D01*
X66862169Y-51825965D01*
X66668600Y-51961503D01*
X66546673Y-52083430D01*
X66485350Y-52116914D01*
X66415658Y-52111930D01*
X66359725Y-52070058D01*
X66342810Y-52039081D01*
X66293797Y-51907671D01*
X66293793Y-51907664D01*
X66207547Y-51792455D01*
X66207544Y-51792452D01*
X66149584Y-51749063D01*
X66107713Y-51693129D01*
X66102729Y-51623438D01*
X66136215Y-51562115D01*
X66197538Y-51528631D01*
X66197827Y-51528568D01*
X66279803Y-51511144D01*
X66279807Y-51511142D01*
X66279808Y-51511142D01*
X66348603Y-51480512D01*
X66452730Y-51434151D01*
X66605871Y-51322888D01*
X66732533Y-51182216D01*
X66827179Y-51018284D01*
X66885674Y-50838256D01*
X66905460Y-50650000D01*
X66885674Y-50461744D01*
X66869777Y-50412818D01*
X66867782Y-50342977D01*
X66903862Y-50283144D01*
X66966563Y-50252316D01*
X66987708Y-50250500D01*
X99625500Y-50250500D01*
X99692539Y-50270185D01*
X99738294Y-50322989D01*
X99749500Y-50374500D01*
X99749500Y-109625500D01*
X99729815Y-109692539D01*
X99677011Y-109738294D01*
X99625500Y-109749500D01*
X50374500Y-109749500D01*
X50307461Y-109729815D01*
X50261706Y-109677011D01*
X50250500Y-109625500D01*
X50250500Y-106999999D01*
X52024341Y-106999999D01*
X52024341Y-107000000D01*
X52044936Y-107235403D01*
X52044938Y-107235413D01*
X52106094Y-107463655D01*
X52106096Y-107463659D01*
X52106097Y-107463663D01*
X52200500Y-107666110D01*
X52205965Y-107677830D01*
X52205967Y-107677834D01*
X52226728Y-107707483D01*
X52341505Y-107871401D01*
X52508599Y-108038495D01*
X52587998Y-108094091D01*
X52702165Y-108174032D01*
X52702167Y-108174033D01*
X52702170Y-108174035D01*
X52916337Y-108273903D01*
X53144592Y-108335063D01*
X53321034Y-108350500D01*
X53379999Y-108355659D01*
X53380000Y-108355659D01*
X53380001Y-108355659D01*
X53438966Y-108350500D01*
X53615408Y-108335063D01*
X53843663Y-108273903D01*
X54057830Y-108174035D01*
X54251401Y-108038495D01*
X54418495Y-107871401D01*
X54548425Y-107685842D01*
X54603002Y-107642217D01*
X54672500Y-107635023D01*
X54734855Y-107666546D01*
X54751575Y-107685842D01*
X54881500Y-107871395D01*
X54881505Y-107871401D01*
X55048599Y-108038495D01*
X55127998Y-108094091D01*
X55242165Y-108174032D01*
X55242167Y-108174033D01*
X55242170Y-108174035D01*
X55456337Y-108273903D01*
X55684592Y-108335063D01*
X55861034Y-108350500D01*
X55919999Y-108355659D01*
X55920000Y-108355659D01*
X55920001Y-108355659D01*
X55978966Y-108350500D01*
X56155408Y-108335063D01*
X56383663Y-108273903D01*
X56597830Y-108174035D01*
X56791401Y-108038495D01*
X56958495Y-107871401D01*
X57088425Y-107685842D01*
X57143002Y-107642217D01*
X57212500Y-107635023D01*
X57274855Y-107666546D01*
X57291575Y-107685842D01*
X57421500Y-107871395D01*
X57421505Y-107871401D01*
X57588599Y-108038495D01*
X57667998Y-108094091D01*
X57782165Y-108174032D01*
X57782167Y-108174033D01*
X57782170Y-108174035D01*
X57996337Y-108273903D01*
X58224592Y-108335063D01*
X58401034Y-108350500D01*
X58459999Y-108355659D01*
X58460000Y-108355659D01*
X58460001Y-108355659D01*
X58518966Y-108350500D01*
X58695408Y-108335063D01*
X58923663Y-108273903D01*
X59137830Y-108174035D01*
X59331401Y-108038495D01*
X59453329Y-107916566D01*
X59514648Y-107883084D01*
X59584340Y-107888068D01*
X59640274Y-107929939D01*
X59657189Y-107960917D01*
X59706202Y-108092328D01*
X59706206Y-108092335D01*
X59792452Y-108207544D01*
X59792455Y-108207547D01*
X59907664Y-108293793D01*
X59907671Y-108293797D01*
X60042517Y-108344091D01*
X60042516Y-108344091D01*
X60049444Y-108344835D01*
X60102127Y-108350500D01*
X61897872Y-108350499D01*
X61957483Y-108344091D01*
X62092331Y-108293796D01*
X62207546Y-108207546D01*
X62293796Y-108092331D01*
X62344091Y-107957483D01*
X62346590Y-107934240D01*
X64391911Y-107934240D01*
X64480185Y-107988897D01*
X64670278Y-108062539D01*
X64870672Y-108100000D01*
X65074528Y-108100000D01*
X65274922Y-108062539D01*
X65465012Y-107988899D01*
X65465016Y-107988897D01*
X65553286Y-107934241D01*
X65553286Y-107934240D01*
X64972601Y-107353553D01*
X64972600Y-107353553D01*
X64391911Y-107934240D01*
X62346590Y-107934240D01*
X62350500Y-107897873D01*
X62350499Y-106999999D01*
X63867887Y-106999999D01*
X63867887Y-107000000D01*
X63886696Y-107202989D01*
X63886697Y-107202992D01*
X63942483Y-107399063D01*
X63942486Y-107399069D01*
X64033351Y-107581551D01*
X64035133Y-107583911D01*
X64619046Y-107000000D01*
X64579550Y-106960504D01*
X64672600Y-106960504D01*
X64672600Y-107039496D01*
X64693044Y-107115796D01*
X64732540Y-107184205D01*
X64788395Y-107240060D01*
X64856804Y-107279556D01*
X64933104Y-107300000D01*
X65012096Y-107300000D01*
X65088396Y-107279556D01*
X65156805Y-107240060D01*
X65212660Y-107184205D01*
X65252156Y-107115796D01*
X65272600Y-107039496D01*
X65272600Y-107000000D01*
X65326153Y-107000000D01*
X65835781Y-107509628D01*
X65869266Y-107570951D01*
X65872100Y-107597307D01*
X65872100Y-107647869D01*
X65872101Y-107647876D01*
X65878508Y-107707483D01*
X65928802Y-107842328D01*
X65928806Y-107842335D01*
X66015052Y-107957544D01*
X66015055Y-107957547D01*
X66130264Y-108043793D01*
X66130271Y-108043797D01*
X66265117Y-108094091D01*
X66265116Y-108094091D01*
X66272044Y-108094835D01*
X66324727Y-108100500D01*
X67620472Y-108100499D01*
X67680083Y-108094091D01*
X67814931Y-108043796D01*
X67930146Y-107957546D01*
X68016396Y-107842331D01*
X68066691Y-107707483D01*
X68073100Y-107647873D01*
X68073099Y-106749999D01*
X76889364Y-106749999D01*
X76889364Y-106750000D01*
X77786988Y-106750000D01*
X77754075Y-106807007D01*
X77720000Y-106934174D01*
X77720000Y-107065826D01*
X77754075Y-107192993D01*
X77786988Y-107250000D01*
X76889364Y-107250000D01*
X76946567Y-107463486D01*
X76946570Y-107463492D01*
X77046399Y-107677578D01*
X77181894Y-107871082D01*
X77348917Y-108038105D01*
X77542421Y-108173600D01*
X77756507Y-108273429D01*
X77756516Y-108273433D01*
X77970000Y-108330634D01*
X77970000Y-107433012D01*
X78027007Y-107465925D01*
X78154174Y-107500000D01*
X78285826Y-107500000D01*
X78412993Y-107465925D01*
X78470000Y-107433012D01*
X78470000Y-108330633D01*
X78683483Y-108273433D01*
X78683492Y-108273429D01*
X78897578Y-108173600D01*
X79091082Y-108038105D01*
X79258105Y-107871082D01*
X79388119Y-107685405D01*
X79442696Y-107641781D01*
X79512195Y-107634588D01*
X79574549Y-107666110D01*
X79591269Y-107685405D01*
X79721505Y-107871401D01*
X79888599Y-108038495D01*
X79967998Y-108094091D01*
X80082165Y-108174032D01*
X80082167Y-108174033D01*
X80082170Y-108174035D01*
X80296337Y-108273903D01*
X80524592Y-108335063D01*
X80701034Y-108350500D01*
X80759999Y-108355659D01*
X80760000Y-108355659D01*
X80760001Y-108355659D01*
X80818966Y-108350500D01*
X80995408Y-108335063D01*
X81223663Y-108273903D01*
X81437830Y-108174035D01*
X81631401Y-108038495D01*
X81798495Y-107871401D01*
X81928425Y-107685842D01*
X81983002Y-107642217D01*
X82052500Y-107635023D01*
X82114855Y-107666546D01*
X82131575Y-107685842D01*
X82261500Y-107871395D01*
X82261505Y-107871401D01*
X82428599Y-108038495D01*
X82507998Y-108094091D01*
X82622165Y-108174032D01*
X82622167Y-108174033D01*
X82622170Y-108174035D01*
X82836337Y-108273903D01*
X83064592Y-108335063D01*
X83241034Y-108350500D01*
X83299999Y-108355659D01*
X83300000Y-108355659D01*
X83300001Y-108355659D01*
X83358966Y-108350500D01*
X83535408Y-108335063D01*
X83763663Y-108273903D01*
X83977830Y-108174035D01*
X84171401Y-108038495D01*
X84338495Y-107871401D01*
X84468425Y-107685842D01*
X84523002Y-107642217D01*
X84592500Y-107635023D01*
X84654855Y-107666546D01*
X84671575Y-107685842D01*
X84801500Y-107871395D01*
X84801505Y-107871401D01*
X84968599Y-108038495D01*
X85047998Y-108094091D01*
X85162165Y-108174032D01*
X85162167Y-108174033D01*
X85162170Y-108174035D01*
X85376337Y-108273903D01*
X85604592Y-108335063D01*
X85781034Y-108350500D01*
X85839999Y-108355659D01*
X85840000Y-108355659D01*
X85840001Y-108355659D01*
X85898966Y-108350500D01*
X86075408Y-108335063D01*
X86303663Y-108273903D01*
X86517830Y-108174035D01*
X86711401Y-108038495D01*
X86878495Y-107871401D01*
X87008425Y-107685842D01*
X87063002Y-107642217D01*
X87132500Y-107635023D01*
X87194855Y-107666546D01*
X87211575Y-107685842D01*
X87341500Y-107871395D01*
X87341505Y-107871401D01*
X87508599Y-108038495D01*
X87587998Y-108094091D01*
X87702165Y-108174032D01*
X87702167Y-108174033D01*
X87702170Y-108174035D01*
X87916337Y-108273903D01*
X88144592Y-108335063D01*
X88321034Y-108350500D01*
X88379999Y-108355659D01*
X88380000Y-108355659D01*
X88380001Y-108355659D01*
X88438966Y-108350500D01*
X88615408Y-108335063D01*
X88843663Y-108273903D01*
X89057830Y-108174035D01*
X89251401Y-108038495D01*
X89418495Y-107871401D01*
X89548425Y-107685842D01*
X89603002Y-107642217D01*
X89672500Y-107635023D01*
X89734855Y-107666546D01*
X89751575Y-107685842D01*
X89881500Y-107871395D01*
X89881505Y-107871401D01*
X90048599Y-108038495D01*
X90127998Y-108094091D01*
X90242165Y-108174032D01*
X90242167Y-108174033D01*
X90242170Y-108174035D01*
X90456337Y-108273903D01*
X90684592Y-108335063D01*
X90861034Y-108350500D01*
X90919999Y-108355659D01*
X90920000Y-108355659D01*
X90920001Y-108355659D01*
X90978966Y-108350500D01*
X91155408Y-108335063D01*
X91383663Y-108273903D01*
X91597830Y-108174035D01*
X91791401Y-108038495D01*
X91958495Y-107871401D01*
X92088425Y-107685842D01*
X92143002Y-107642217D01*
X92212500Y-107635023D01*
X92274855Y-107666546D01*
X92291575Y-107685842D01*
X92421500Y-107871395D01*
X92421505Y-107871401D01*
X92588599Y-108038495D01*
X92667998Y-108094091D01*
X92782165Y-108174032D01*
X92782167Y-108174033D01*
X92782170Y-108174035D01*
X92996337Y-108273903D01*
X93224592Y-108335063D01*
X93401034Y-108350500D01*
X93459999Y-108355659D01*
X93460000Y-108355659D01*
X93460001Y-108355659D01*
X93518966Y-108350500D01*
X93695408Y-108335063D01*
X93923663Y-108273903D01*
X94137830Y-108174035D01*
X94331401Y-108038495D01*
X94453717Y-107916178D01*
X94515036Y-107882696D01*
X94584728Y-107887680D01*
X94640662Y-107929551D01*
X94657577Y-107960528D01*
X94706646Y-108092088D01*
X94706649Y-108092093D01*
X94792809Y-108207187D01*
X94792812Y-108207190D01*
X94907906Y-108293350D01*
X94907913Y-108293354D01*
X95042620Y-108343596D01*
X95042627Y-108343598D01*
X95102155Y-108349999D01*
X95102172Y-108350000D01*
X95750000Y-108350000D01*
X95750000Y-107433012D01*
X95807007Y-107465925D01*
X95934174Y-107500000D01*
X96065826Y-107500000D01*
X96192993Y-107465925D01*
X96250000Y-107433012D01*
X96250000Y-108350000D01*
X96897828Y-108350000D01*
X96897844Y-108349999D01*
X96957372Y-108343598D01*
X96957379Y-108343596D01*
X97092086Y-108293354D01*
X97092093Y-108293350D01*
X97207187Y-108207190D01*
X97207190Y-108207187D01*
X97293350Y-108092093D01*
X97293354Y-108092086D01*
X97343596Y-107957379D01*
X97343598Y-107957372D01*
X97349999Y-107897844D01*
X97350000Y-107897827D01*
X97350000Y-107250000D01*
X96433012Y-107250000D01*
X96465925Y-107192993D01*
X96500000Y-107065826D01*
X96500000Y-106934174D01*
X96465925Y-106807007D01*
X96433012Y-106750000D01*
X97350000Y-106750000D01*
X97350000Y-106102172D01*
X97349999Y-106102155D01*
X97343598Y-106042627D01*
X97343596Y-106042620D01*
X97293354Y-105907913D01*
X97293350Y-105907906D01*
X97207190Y-105792812D01*
X97207187Y-105792809D01*
X97092093Y-105706649D01*
X97092086Y-105706645D01*
X96957379Y-105656403D01*
X96957372Y-105656401D01*
X96897844Y-105650000D01*
X96250000Y-105650000D01*
X96250000Y-106566988D01*
X96192993Y-106534075D01*
X96065826Y-106500000D01*
X95934174Y-106500000D01*
X95807007Y-106534075D01*
X95750000Y-106566988D01*
X95750000Y-105650000D01*
X95102155Y-105650000D01*
X95042627Y-105656401D01*
X95042620Y-105656403D01*
X94907913Y-105706645D01*
X94907906Y-105706649D01*
X94792812Y-105792809D01*
X94792809Y-105792812D01*
X94706649Y-105907906D01*
X94706645Y-105907913D01*
X94657578Y-106039470D01*
X94615707Y-106095404D01*
X94550242Y-106119821D01*
X94481969Y-106104969D01*
X94453715Y-106083819D01*
X94408979Y-106039083D01*
X94331401Y-105961505D01*
X94331397Y-105961502D01*
X94331396Y-105961501D01*
X94137834Y-105825967D01*
X94137830Y-105825965D01*
X94066727Y-105792809D01*
X93923663Y-105726097D01*
X93923659Y-105726096D01*
X93923655Y-105726094D01*
X93695413Y-105664938D01*
X93695403Y-105664936D01*
X93460001Y-105644341D01*
X93459999Y-105644341D01*
X93224596Y-105664936D01*
X93224586Y-105664938D01*
X92996344Y-105726094D01*
X92996335Y-105726098D01*
X92782171Y-105825964D01*
X92782169Y-105825965D01*
X92588597Y-105961505D01*
X92421505Y-106128597D01*
X92291575Y-106314158D01*
X92236998Y-106357783D01*
X92167500Y-106364977D01*
X92105145Y-106333454D01*
X92088425Y-106314158D01*
X91958494Y-106128597D01*
X91791402Y-105961506D01*
X91791395Y-105961501D01*
X91783827Y-105956202D01*
X91714518Y-105907671D01*
X91597834Y-105825967D01*
X91597830Y-105825965D01*
X91526727Y-105792809D01*
X91383663Y-105726097D01*
X91383659Y-105726096D01*
X91383655Y-105726094D01*
X91155413Y-105664938D01*
X91155403Y-105664936D01*
X90920001Y-105644341D01*
X90919999Y-105644341D01*
X90684596Y-105664936D01*
X90684586Y-105664938D01*
X90456344Y-105726094D01*
X90456335Y-105726098D01*
X90242171Y-105825964D01*
X90242169Y-105825965D01*
X90048597Y-105961505D01*
X89881505Y-106128597D01*
X89751575Y-106314158D01*
X89696998Y-106357783D01*
X89627500Y-106364977D01*
X89565145Y-106333454D01*
X89548425Y-106314158D01*
X89418494Y-106128597D01*
X89251402Y-105961506D01*
X89251395Y-105961501D01*
X89243827Y-105956202D01*
X89174518Y-105907671D01*
X89057834Y-105825967D01*
X89057830Y-105825965D01*
X88986727Y-105792809D01*
X88843663Y-105726097D01*
X88843659Y-105726096D01*
X88843655Y-105726094D01*
X88615413Y-105664938D01*
X88615403Y-105664936D01*
X88380001Y-105644341D01*
X88379999Y-105644341D01*
X88144596Y-105664936D01*
X88144586Y-105664938D01*
X87916344Y-105726094D01*
X87916335Y-105726098D01*
X87702171Y-105825964D01*
X87702169Y-105825965D01*
X87508597Y-105961505D01*
X87341505Y-106128597D01*
X87211575Y-106314158D01*
X87156998Y-106357783D01*
X87087500Y-106364977D01*
X87025145Y-106333454D01*
X87008425Y-106314158D01*
X86878494Y-106128597D01*
X86711402Y-105961506D01*
X86711395Y-105961501D01*
X86703827Y-105956202D01*
X86634518Y-105907671D01*
X86517834Y-105825967D01*
X86517830Y-105825965D01*
X86446727Y-105792809D01*
X86303663Y-105726097D01*
X86303659Y-105726096D01*
X86303655Y-105726094D01*
X86075413Y-105664938D01*
X86075403Y-105664936D01*
X85840001Y-105644341D01*
X85839999Y-105644341D01*
X85604596Y-105664936D01*
X85604586Y-105664938D01*
X85376344Y-105726094D01*
X85376335Y-105726098D01*
X85162171Y-105825964D01*
X85162169Y-105825965D01*
X84968597Y-105961505D01*
X84801505Y-106128597D01*
X84671575Y-106314158D01*
X84616998Y-106357783D01*
X84547500Y-106364977D01*
X84485145Y-106333454D01*
X84468425Y-106314158D01*
X84338494Y-106128597D01*
X84171402Y-105961506D01*
X84171395Y-105961501D01*
X84163827Y-105956202D01*
X84094518Y-105907671D01*
X83977834Y-105825967D01*
X83977830Y-105825965D01*
X83906727Y-105792809D01*
X83763663Y-105726097D01*
X83763659Y-105726096D01*
X83763655Y-105726094D01*
X83535413Y-105664938D01*
X83535403Y-105664936D01*
X83300001Y-105644341D01*
X83299999Y-105644341D01*
X83064596Y-105664936D01*
X83064586Y-105664938D01*
X82836344Y-105726094D01*
X82836335Y-105726098D01*
X82622171Y-105825964D01*
X82622169Y-105825965D01*
X82428597Y-105961505D01*
X82261505Y-106128597D01*
X82131575Y-106314158D01*
X82076998Y-106357783D01*
X82007500Y-106364977D01*
X81945145Y-106333454D01*
X81928425Y-106314158D01*
X81798494Y-106128597D01*
X81631402Y-105961506D01*
X81631395Y-105961501D01*
X81623827Y-105956202D01*
X81554518Y-105907671D01*
X81437834Y-105825967D01*
X81437830Y-105825965D01*
X81366727Y-105792809D01*
X81223663Y-105726097D01*
X81223659Y-105726096D01*
X81223655Y-105726094D01*
X80995413Y-105664938D01*
X80995403Y-105664936D01*
X80760001Y-105644341D01*
X80759999Y-105644341D01*
X80524596Y-105664936D01*
X80524586Y-105664938D01*
X80296344Y-105726094D01*
X80296335Y-105726098D01*
X80082171Y-105825964D01*
X80082169Y-105825965D01*
X79888597Y-105961505D01*
X79721508Y-106128594D01*
X79591269Y-106314595D01*
X79536692Y-106358219D01*
X79467193Y-106365412D01*
X79404839Y-106333890D01*
X79388119Y-106314594D01*
X79258113Y-106128926D01*
X79258108Y-106128920D01*
X79091082Y-105961894D01*
X78897578Y-105826399D01*
X78683492Y-105726570D01*
X78683486Y-105726567D01*
X78470000Y-105669364D01*
X78470000Y-106566988D01*
X78412993Y-106534075D01*
X78285826Y-106500000D01*
X78154174Y-106500000D01*
X78027007Y-106534075D01*
X77970000Y-106566988D01*
X77970000Y-105669364D01*
X77969999Y-105669364D01*
X77756513Y-105726567D01*
X77756507Y-105726570D01*
X77542422Y-105826399D01*
X77542420Y-105826400D01*
X77348926Y-105961886D01*
X77348920Y-105961891D01*
X77181891Y-106128920D01*
X77181886Y-106128926D01*
X77046400Y-106322420D01*
X77046399Y-106322422D01*
X76946570Y-106536507D01*
X76946567Y-106536513D01*
X76889364Y-106749999D01*
X68073099Y-106749999D01*
X68073099Y-106352128D01*
X68066691Y-106292517D01*
X68016396Y-106157669D01*
X68016395Y-106157668D01*
X68016393Y-106157664D01*
X67930147Y-106042455D01*
X67930144Y-106042452D01*
X67814935Y-105956206D01*
X67814928Y-105956202D01*
X67680082Y-105905908D01*
X67680083Y-105905908D01*
X67620483Y-105899501D01*
X67620481Y-105899500D01*
X67620473Y-105899500D01*
X67620464Y-105899500D01*
X66324729Y-105899500D01*
X66324723Y-105899501D01*
X66265116Y-105905908D01*
X66130271Y-105956202D01*
X66130264Y-105956206D01*
X66015055Y-106042452D01*
X66015052Y-106042455D01*
X65928806Y-106157664D01*
X65928802Y-106157671D01*
X65878508Y-106292517D01*
X65872101Y-106352116D01*
X65872101Y-106352123D01*
X65872100Y-106352135D01*
X65872100Y-106402691D01*
X65852415Y-106469730D01*
X65835781Y-106490372D01*
X65326153Y-107000000D01*
X65272600Y-107000000D01*
X65272600Y-106960504D01*
X65252156Y-106884204D01*
X65212660Y-106815795D01*
X65156805Y-106759940D01*
X65088396Y-106720444D01*
X65012096Y-106700000D01*
X64933104Y-106700000D01*
X64856804Y-106720444D01*
X64788395Y-106759940D01*
X64732540Y-106815795D01*
X64693044Y-106884204D01*
X64672600Y-106960504D01*
X64579550Y-106960504D01*
X64035133Y-106416087D01*
X64033355Y-106418442D01*
X64033354Y-106418443D01*
X63942486Y-106600930D01*
X63942483Y-106600936D01*
X63886697Y-106797007D01*
X63886696Y-106797010D01*
X63867887Y-106999999D01*
X62350499Y-106999999D01*
X62350499Y-106102128D01*
X62346589Y-106065758D01*
X64391911Y-106065758D01*
X64972600Y-106646446D01*
X64972601Y-106646446D01*
X65553287Y-106065758D01*
X65465013Y-106011101D01*
X65465011Y-106011100D01*
X65274921Y-105937460D01*
X65074528Y-105900000D01*
X64870672Y-105900000D01*
X64670278Y-105937460D01*
X64480188Y-106011100D01*
X64480181Y-106011104D01*
X64391912Y-106065757D01*
X64391911Y-106065758D01*
X62346589Y-106065758D01*
X62344091Y-106042517D01*
X62342810Y-106039083D01*
X62293797Y-105907671D01*
X62293793Y-105907664D01*
X62207547Y-105792455D01*
X62207544Y-105792452D01*
X62092335Y-105706206D01*
X62092328Y-105706202D01*
X61957482Y-105655908D01*
X61957483Y-105655908D01*
X61897883Y-105649501D01*
X61897881Y-105649500D01*
X61897873Y-105649500D01*
X61897864Y-105649500D01*
X60102129Y-105649500D01*
X60102123Y-105649501D01*
X60042516Y-105655908D01*
X59907671Y-105706202D01*
X59907664Y-105706206D01*
X59792455Y-105792452D01*
X59792452Y-105792455D01*
X59706206Y-105907664D01*
X59706203Y-105907669D01*
X59657189Y-106039083D01*
X59615317Y-106095016D01*
X59549853Y-106119433D01*
X59481580Y-106104581D01*
X59453326Y-106083430D01*
X59331402Y-105961506D01*
X59331395Y-105961501D01*
X59323827Y-105956202D01*
X59254518Y-105907671D01*
X59137834Y-105825967D01*
X59137830Y-105825965D01*
X59066727Y-105792809D01*
X58923663Y-105726097D01*
X58923659Y-105726096D01*
X58923655Y-105726094D01*
X58695413Y-105664938D01*
X58695403Y-105664936D01*
X58460001Y-105644341D01*
X58459999Y-105644341D01*
X58224596Y-105664936D01*
X58224586Y-105664938D01*
X57996344Y-105726094D01*
X57996335Y-105726098D01*
X57782171Y-105825964D01*
X57782169Y-105825965D01*
X57588597Y-105961505D01*
X57421505Y-106128597D01*
X57291575Y-106314158D01*
X57236998Y-106357783D01*
X57167500Y-106364977D01*
X57105145Y-106333454D01*
X57088425Y-106314158D01*
X56958494Y-106128597D01*
X56791402Y-105961506D01*
X56791395Y-105961501D01*
X56783827Y-105956202D01*
X56714518Y-105907671D01*
X56597834Y-105825967D01*
X56597830Y-105825965D01*
X56526727Y-105792809D01*
X56383663Y-105726097D01*
X56383659Y-105726096D01*
X56383655Y-105726094D01*
X56155413Y-105664938D01*
X56155403Y-105664936D01*
X55920001Y-105644341D01*
X55919999Y-105644341D01*
X55684596Y-105664936D01*
X55684586Y-105664938D01*
X55456344Y-105726094D01*
X55456335Y-105726098D01*
X55242171Y-105825964D01*
X55242169Y-105825965D01*
X55048597Y-105961505D01*
X54881505Y-106128597D01*
X54751575Y-106314158D01*
X54696998Y-106357783D01*
X54627500Y-106364977D01*
X54565145Y-106333454D01*
X54548425Y-106314158D01*
X54418494Y-106128597D01*
X54251402Y-105961506D01*
X54251395Y-105961501D01*
X54243827Y-105956202D01*
X54174518Y-105907671D01*
X54057834Y-105825967D01*
X54057830Y-105825965D01*
X53986727Y-105792809D01*
X53843663Y-105726097D01*
X53843659Y-105726096D01*
X53843655Y-105726094D01*
X53615413Y-105664938D01*
X53615403Y-105664936D01*
X53380001Y-105644341D01*
X53379999Y-105644341D01*
X53144596Y-105664936D01*
X53144586Y-105664938D01*
X52916344Y-105726094D01*
X52916335Y-105726098D01*
X52702171Y-105825964D01*
X52702169Y-105825965D01*
X52508597Y-105961505D01*
X52341505Y-106128597D01*
X52205965Y-106322169D01*
X52205964Y-106322171D01*
X52106098Y-106536335D01*
X52106094Y-106536344D01*
X52044938Y-106764586D01*
X52044936Y-106764596D01*
X52024341Y-106999999D01*
X50250500Y-106999999D01*
X50250500Y-104500000D01*
X66194540Y-104500000D01*
X66214326Y-104688256D01*
X66214327Y-104688259D01*
X66272818Y-104868277D01*
X66272821Y-104868284D01*
X66367467Y-105032216D01*
X66494129Y-105172888D01*
X66647265Y-105284148D01*
X66647270Y-105284151D01*
X66820192Y-105361142D01*
X66820197Y-105361144D01*
X67005354Y-105400500D01*
X67005355Y-105400500D01*
X67194644Y-105400500D01*
X67194646Y-105400500D01*
X67379803Y-105361144D01*
X67552730Y-105284151D01*
X67705871Y-105172888D01*
X67832533Y-105032216D01*
X67927179Y-104868284D01*
X67985674Y-104688256D01*
X68005460Y-104500000D01*
X67987315Y-104327361D01*
X67999885Y-104258635D01*
X68037747Y-104214088D01*
X68136202Y-104142557D01*
X68262864Y-104001885D01*
X68357510Y-103837953D01*
X68416005Y-103657925D01*
X68435791Y-103469669D01*
X68416005Y-103281413D01*
X68357510Y-103101385D01*
X68298975Y-103000000D01*
X71994540Y-103000000D01*
X72014326Y-103188256D01*
X72014327Y-103188259D01*
X72072818Y-103368277D01*
X72072821Y-103368284D01*
X72167467Y-103532216D01*
X72266591Y-103642304D01*
X72294129Y-103672888D01*
X72447265Y-103784148D01*
X72447270Y-103784151D01*
X72620192Y-103861142D01*
X72620197Y-103861144D01*
X72805354Y-103900500D01*
X72805355Y-103900500D01*
X72994644Y-103900500D01*
X72994646Y-103900500D01*
X73179803Y-103861144D01*
X73352730Y-103784151D01*
X73505871Y-103672888D01*
X73632533Y-103532216D01*
X73651133Y-103500000D01*
X76500000Y-103500000D01*
X83000000Y-103500000D01*
X83000000Y-90500000D01*
X76500000Y-90500000D01*
X76500000Y-103500000D01*
X73651133Y-103500000D01*
X73727179Y-103368284D01*
X73785674Y-103188256D01*
X73805460Y-103000000D01*
X73785674Y-102811744D01*
X73727179Y-102631716D01*
X73632533Y-102467784D01*
X73505871Y-102327112D01*
X73505870Y-102327111D01*
X73352734Y-102215851D01*
X73352729Y-102215848D01*
X73179807Y-102138857D01*
X73179802Y-102138855D01*
X73034001Y-102107865D01*
X72994646Y-102099500D01*
X72805354Y-102099500D01*
X72772897Y-102106398D01*
X72620197Y-102138855D01*
X72620192Y-102138857D01*
X72447270Y-102215848D01*
X72447265Y-102215851D01*
X72294129Y-102327111D01*
X72167466Y-102467785D01*
X72072821Y-102631715D01*
X72072818Y-102631722D01*
X72014327Y-102811740D01*
X72014326Y-102811744D01*
X71994540Y-103000000D01*
X68298975Y-103000000D01*
X68262864Y-102937453D01*
X68136202Y-102796781D01*
X68136201Y-102796780D01*
X67983065Y-102685520D01*
X67983060Y-102685517D01*
X67810138Y-102608526D01*
X67810133Y-102608524D01*
X67664332Y-102577534D01*
X67624977Y-102569169D01*
X67435685Y-102569169D01*
X67403228Y-102576067D01*
X67250528Y-102608524D01*
X67250523Y-102608526D01*
X67077601Y-102685517D01*
X67077596Y-102685520D01*
X66924460Y-102796780D01*
X66797797Y-102937454D01*
X66703152Y-103101384D01*
X66703149Y-103101391D01*
X66644658Y-103281409D01*
X66644657Y-103281413D01*
X66635527Y-103368284D01*
X66624871Y-103469669D01*
X66643015Y-103642304D01*
X66630445Y-103711034D01*
X66592580Y-103755583D01*
X66494127Y-103827113D01*
X66367466Y-103967785D01*
X66272821Y-104131715D01*
X66272818Y-104131722D01*
X66231582Y-104258635D01*
X66214326Y-104311744D01*
X66194540Y-104500000D01*
X50250500Y-104500000D01*
X50250500Y-103300000D01*
X61019540Y-103300000D01*
X61039326Y-103488256D01*
X61039327Y-103488259D01*
X61097818Y-103668277D01*
X61097821Y-103668284D01*
X61192467Y-103832216D01*
X61314533Y-103967784D01*
X61319129Y-103972888D01*
X61472265Y-104084148D01*
X61472270Y-104084151D01*
X61645192Y-104161142D01*
X61645197Y-104161144D01*
X61830354Y-104200500D01*
X61830355Y-104200500D01*
X62019644Y-104200500D01*
X62019646Y-104200500D01*
X62204803Y-104161144D01*
X62377730Y-104084151D01*
X62530871Y-103972888D01*
X62657533Y-103832216D01*
X62752179Y-103668284D01*
X62810674Y-103488256D01*
X62830460Y-103300000D01*
X62810674Y-103111744D01*
X62752179Y-102931716D01*
X62657533Y-102767784D01*
X62530871Y-102627112D01*
X62530870Y-102627111D01*
X62377734Y-102515851D01*
X62377729Y-102515848D01*
X62204807Y-102438857D01*
X62204802Y-102438855D01*
X62059001Y-102407865D01*
X62019646Y-102399500D01*
X61830354Y-102399500D01*
X61797897Y-102406398D01*
X61645197Y-102438855D01*
X61645192Y-102438857D01*
X61472270Y-102515848D01*
X61472265Y-102515851D01*
X61319129Y-102627111D01*
X61192466Y-102767785D01*
X61097821Y-102931715D01*
X61097818Y-102931722D01*
X61042692Y-103101384D01*
X61039326Y-103111744D01*
X61019540Y-103300000D01*
X50250500Y-103300000D01*
X50250500Y-94037500D01*
X53594540Y-94037500D01*
X53614326Y-94225756D01*
X53614327Y-94225759D01*
X53672818Y-94405777D01*
X53672821Y-94405784D01*
X53767467Y-94569716D01*
X53894129Y-94710388D01*
X54047265Y-94821648D01*
X54047270Y-94821651D01*
X54220192Y-94898642D01*
X54220197Y-94898644D01*
X54405354Y-94938000D01*
X54405355Y-94938000D01*
X54594644Y-94938000D01*
X54594646Y-94938000D01*
X54779803Y-94898644D01*
X54952730Y-94821651D01*
X55105871Y-94710388D01*
X55232533Y-94569716D01*
X55327179Y-94405784D01*
X55385674Y-94225756D01*
X55405460Y-94037500D01*
X55385674Y-93849244D01*
X55327179Y-93669216D01*
X55232533Y-93505284D01*
X55105871Y-93364612D01*
X55105870Y-93364611D01*
X54952734Y-93253351D01*
X54952729Y-93253348D01*
X54779807Y-93176357D01*
X54779802Y-93176355D01*
X54634001Y-93145365D01*
X54594646Y-93137000D01*
X54405354Y-93137000D01*
X54372897Y-93143898D01*
X54220197Y-93176355D01*
X54220192Y-93176357D01*
X54047270Y-93253348D01*
X54047265Y-93253351D01*
X53894129Y-93364611D01*
X53767466Y-93505285D01*
X53672821Y-93669215D01*
X53672818Y-93669222D01*
X53635477Y-93784148D01*
X53614326Y-93849244D01*
X53594540Y-94037500D01*
X50250500Y-94037500D01*
X50250500Y-91064071D01*
X62949499Y-91064071D01*
X62970982Y-91172067D01*
X62974498Y-91189740D01*
X62974499Y-91189744D01*
X63023534Y-91308125D01*
X63094726Y-91414673D01*
X63094727Y-91414674D01*
X64413181Y-92733127D01*
X64446666Y-92794450D01*
X64449500Y-92820808D01*
X64449500Y-95924730D01*
X64449500Y-95924732D01*
X64449499Y-95924732D01*
X64474497Y-96050399D01*
X64474499Y-96050405D01*
X64523534Y-96168786D01*
X64594726Y-96275334D01*
X64594727Y-96275335D01*
X65640193Y-97320800D01*
X65673678Y-97382123D01*
X65673802Y-97382698D01*
X65674984Y-97388259D01*
X65733476Y-97568280D01*
X65733479Y-97568287D01*
X65828125Y-97732219D01*
X65954787Y-97872891D01*
X66107923Y-97984151D01*
X66107928Y-97984154D01*
X66280850Y-98061145D01*
X66280855Y-98061147D01*
X66466012Y-98100503D01*
X66466013Y-98100503D01*
X66655302Y-98100503D01*
X66655304Y-98100503D01*
X66840461Y-98061147D01*
X67013388Y-97984154D01*
X67166529Y-97872891D01*
X67293191Y-97732219D01*
X67387837Y-97568287D01*
X67446332Y-97388259D01*
X67466118Y-97200003D01*
X67446332Y-97011747D01*
X67387837Y-96831719D01*
X67317255Y-96709468D01*
X67300783Y-96641569D01*
X67317258Y-96585467D01*
X67327179Y-96568284D01*
X67385674Y-96388256D01*
X67405460Y-96200000D01*
X67385674Y-96011744D01*
X67327179Y-95831716D01*
X67232533Y-95667784D01*
X67182350Y-95612050D01*
X67152120Y-95549058D01*
X67150500Y-95529078D01*
X67150500Y-93128822D01*
X67125502Y-93003155D01*
X67125501Y-93003154D01*
X67125501Y-93003150D01*
X67124196Y-93000000D01*
X72094540Y-93000000D01*
X72114326Y-93188256D01*
X72114327Y-93188259D01*
X72172818Y-93368277D01*
X72172821Y-93368284D01*
X72267467Y-93532216D01*
X72390822Y-93669215D01*
X72394129Y-93672888D01*
X72547265Y-93784148D01*
X72547270Y-93784151D01*
X72720192Y-93861142D01*
X72720197Y-93861144D01*
X72905354Y-93900500D01*
X72905355Y-93900500D01*
X73094644Y-93900500D01*
X73094646Y-93900500D01*
X73279803Y-93861144D01*
X73452730Y-93784151D01*
X73605871Y-93672888D01*
X73732533Y-93532216D01*
X73827179Y-93368284D01*
X73885674Y-93188256D01*
X73905460Y-93000000D01*
X73885674Y-92811744D01*
X73827179Y-92631716D01*
X73732533Y-92467784D01*
X73605871Y-92327112D01*
X73605870Y-92327111D01*
X73452734Y-92215851D01*
X73452729Y-92215848D01*
X73279807Y-92138857D01*
X73279802Y-92138855D01*
X73134001Y-92107865D01*
X73094646Y-92099500D01*
X72905354Y-92099500D01*
X72872897Y-92106398D01*
X72720197Y-92138855D01*
X72720192Y-92138857D01*
X72547270Y-92215848D01*
X72547265Y-92215851D01*
X72394129Y-92327111D01*
X72267466Y-92467785D01*
X72172821Y-92631715D01*
X72172818Y-92631722D01*
X72119945Y-92794450D01*
X72114326Y-92811744D01*
X72094540Y-93000000D01*
X67124196Y-93000000D01*
X67088851Y-92914669D01*
X67076466Y-92884768D01*
X67027673Y-92811744D01*
X67005278Y-92778226D01*
X67005272Y-92778219D01*
X66349568Y-92122515D01*
X66316083Y-92061192D01*
X66316302Y-92058126D01*
X66280020Y-92048219D01*
X66257380Y-92030327D01*
X64786819Y-90559766D01*
X64753334Y-90498443D01*
X64750500Y-90472085D01*
X64750500Y-89069808D01*
X64770185Y-89002769D01*
X64822989Y-88957014D01*
X64892147Y-88947070D01*
X64955703Y-88976095D01*
X64962181Y-88982127D01*
X65365191Y-89385137D01*
X65398676Y-89446460D01*
X65400830Y-89459851D01*
X65414326Y-89588256D01*
X65414327Y-89588259D01*
X65472818Y-89768277D01*
X65472821Y-89768284D01*
X65567467Y-89932216D01*
X65694129Y-90072888D01*
X65847265Y-90184148D01*
X65847270Y-90184151D01*
X66020192Y-90261142D01*
X66020197Y-90261144D01*
X66205354Y-90300500D01*
X66205355Y-90300500D01*
X66325500Y-90300500D01*
X66392539Y-90320185D01*
X66438294Y-90372989D01*
X66449500Y-90424500D01*
X66449500Y-90579078D01*
X66429815Y-90646117D01*
X66417650Y-90662050D01*
X66367466Y-90717785D01*
X66272821Y-90881715D01*
X66272818Y-90881722D01*
X66244855Y-90967785D01*
X66214326Y-91061744D01*
X66194540Y-91250000D01*
X66214326Y-91438256D01*
X66214327Y-91438259D01*
X66272818Y-91618277D01*
X66272821Y-91618284D01*
X66367467Y-91782216D01*
X66437211Y-91859674D01*
X66465821Y-91919289D01*
X66496676Y-91926002D01*
X66510124Y-91934509D01*
X66642007Y-92030327D01*
X66647270Y-92034151D01*
X66820192Y-92111142D01*
X66820197Y-92111144D01*
X67005354Y-92150500D01*
X67005355Y-92150500D01*
X67194644Y-92150500D01*
X67194646Y-92150500D01*
X67379803Y-92111144D01*
X67552730Y-92034151D01*
X67705871Y-91922888D01*
X67832533Y-91782216D01*
X67927179Y-91618284D01*
X67965612Y-91500000D01*
X73594540Y-91500000D01*
X73614326Y-91688256D01*
X73614327Y-91688259D01*
X73672818Y-91868277D01*
X73672821Y-91868284D01*
X73767467Y-92032216D01*
X73863487Y-92138857D01*
X73894129Y-92172888D01*
X74047265Y-92284148D01*
X74047270Y-92284151D01*
X74220192Y-92361142D01*
X74220197Y-92361144D01*
X74405354Y-92400500D01*
X74405355Y-92400500D01*
X74594644Y-92400500D01*
X74594646Y-92400500D01*
X74779803Y-92361144D01*
X74952730Y-92284151D01*
X75105871Y-92172888D01*
X75232533Y-92032216D01*
X75327179Y-91868284D01*
X75385674Y-91688256D01*
X75405460Y-91500000D01*
X75385674Y-91311744D01*
X75327179Y-91131716D01*
X75232533Y-90967784D01*
X75105871Y-90827112D01*
X75105870Y-90827111D01*
X74952734Y-90715851D01*
X74952729Y-90715848D01*
X74779807Y-90638857D01*
X74779802Y-90638855D01*
X74634001Y-90607865D01*
X74594646Y-90599500D01*
X74405354Y-90599500D01*
X74372897Y-90606398D01*
X74220197Y-90638855D01*
X74220192Y-90638857D01*
X74047270Y-90715848D01*
X74047265Y-90715851D01*
X73894129Y-90827111D01*
X73767466Y-90967785D01*
X73672821Y-91131715D01*
X73672818Y-91131722D01*
X73615502Y-91308125D01*
X73614326Y-91311744D01*
X73594540Y-91500000D01*
X67965612Y-91500000D01*
X67985674Y-91438256D01*
X68005460Y-91250000D01*
X67985674Y-91061744D01*
X67927179Y-90881716D01*
X67832533Y-90717784D01*
X67782350Y-90662050D01*
X67752120Y-90599058D01*
X67750500Y-90579078D01*
X67750500Y-86000000D01*
X73500000Y-86000000D01*
X86500000Y-86000000D01*
X86500000Y-79500000D01*
X73500000Y-79500000D01*
X73500000Y-86000000D01*
X67750500Y-86000000D01*
X67750500Y-82975928D01*
X67725502Y-82850261D01*
X67725501Y-82850260D01*
X67725501Y-82850256D01*
X67676465Y-82731873D01*
X67662725Y-82711309D01*
X67662723Y-82711306D01*
X67662723Y-82711305D01*
X67605275Y-82625328D01*
X67605272Y-82625325D01*
X66541627Y-81561681D01*
X66508142Y-81500358D01*
X66513126Y-81430666D01*
X66554998Y-81374733D01*
X66620462Y-81350316D01*
X66629308Y-81350000D01*
X67357828Y-81350000D01*
X67357844Y-81349999D01*
X67417372Y-81343598D01*
X67417379Y-81343596D01*
X67552086Y-81293354D01*
X67552093Y-81293350D01*
X67667187Y-81207190D01*
X67667190Y-81207187D01*
X67753350Y-81092093D01*
X67753354Y-81092086D01*
X67802422Y-80960529D01*
X67844293Y-80904595D01*
X67909757Y-80880178D01*
X67978030Y-80895030D01*
X68006285Y-80916181D01*
X68128599Y-81038495D01*
X68205135Y-81092086D01*
X68322165Y-81174032D01*
X68322167Y-81174033D01*
X68322170Y-81174035D01*
X68536337Y-81273903D01*
X68764592Y-81335063D01*
X68935319Y-81350000D01*
X68999999Y-81355659D01*
X69000000Y-81355659D01*
X69000001Y-81355659D01*
X69064681Y-81350000D01*
X69235408Y-81335063D01*
X69463663Y-81273903D01*
X69677830Y-81174035D01*
X69871401Y-81038495D01*
X70038495Y-80871401D01*
X70168425Y-80685842D01*
X70223002Y-80642217D01*
X70292500Y-80635023D01*
X70354855Y-80666546D01*
X70371575Y-80685842D01*
X70501500Y-80871395D01*
X70501505Y-80871401D01*
X70668599Y-81038495D01*
X70745135Y-81092086D01*
X70862165Y-81174032D01*
X70862167Y-81174033D01*
X70862170Y-81174035D01*
X71076337Y-81273903D01*
X71304592Y-81335063D01*
X71475319Y-81350000D01*
X71539999Y-81355659D01*
X71540000Y-81355659D01*
X71540001Y-81355659D01*
X71604681Y-81350000D01*
X71775408Y-81335063D01*
X72003663Y-81273903D01*
X72217830Y-81174035D01*
X72411401Y-81038495D01*
X72578495Y-80871401D01*
X72714035Y-80677830D01*
X72813903Y-80463663D01*
X72875063Y-80235408D01*
X72895659Y-80000000D01*
X72875063Y-79764592D01*
X72813903Y-79536337D01*
X72714035Y-79322171D01*
X72708425Y-79314158D01*
X72578494Y-79128597D01*
X72411402Y-78961506D01*
X72411395Y-78961501D01*
X72217834Y-78825967D01*
X72217830Y-78825965D01*
X72146727Y-78792809D01*
X72003663Y-78726097D01*
X72003659Y-78726096D01*
X72003655Y-78726094D01*
X71775413Y-78664938D01*
X71775403Y-78664936D01*
X71540001Y-78644341D01*
X71539999Y-78644341D01*
X71304596Y-78664936D01*
X71304586Y-78664938D01*
X71076344Y-78726094D01*
X71076335Y-78726098D01*
X70862171Y-78825964D01*
X70862169Y-78825965D01*
X70668597Y-78961505D01*
X70501505Y-79128597D01*
X70371575Y-79314158D01*
X70316998Y-79357783D01*
X70247500Y-79364977D01*
X70185145Y-79333454D01*
X70168425Y-79314158D01*
X70038494Y-79128597D01*
X69871402Y-78961506D01*
X69871395Y-78961501D01*
X69677834Y-78825967D01*
X69677830Y-78825965D01*
X69606727Y-78792809D01*
X69463663Y-78726097D01*
X69463659Y-78726096D01*
X69463655Y-78726094D01*
X69344901Y-78694275D01*
X69285240Y-78657910D01*
X69254711Y-78595063D01*
X69263006Y-78525688D01*
X69307491Y-78471810D01*
X69374043Y-78450535D01*
X69376994Y-78450500D01*
X70164071Y-78450500D01*
X70248615Y-78433682D01*
X70289744Y-78425501D01*
X70408127Y-78376465D01*
X70438691Y-78356043D01*
X70514669Y-78305277D01*
X73819947Y-74999997D01*
X82694540Y-74999997D01*
X82714326Y-75188253D01*
X82714327Y-75188256D01*
X82772821Y-75368282D01*
X82813071Y-75437997D01*
X82829544Y-75505897D01*
X82813073Y-75561995D01*
X82772819Y-75631719D01*
X82752124Y-75695413D01*
X82714326Y-75811744D01*
X82694540Y-76000000D01*
X82714326Y-76188256D01*
X82714327Y-76188259D01*
X82772818Y-76368277D01*
X82772821Y-76368284D01*
X82867467Y-76532216D01*
X82980343Y-76657577D01*
X82994129Y-76672888D01*
X83147265Y-76784148D01*
X83147270Y-76784151D01*
X83320192Y-76861142D01*
X83320197Y-76861144D01*
X83505354Y-76900500D01*
X83505355Y-76900500D01*
X83694644Y-76900500D01*
X83694646Y-76900500D01*
X83879803Y-76861144D01*
X84052730Y-76784151D01*
X84205871Y-76672888D01*
X84332533Y-76532216D01*
X84385574Y-76440343D01*
X84405275Y-76414669D01*
X85207332Y-75612614D01*
X85278521Y-75506071D01*
X85281039Y-75499991D01*
X85324879Y-75445589D01*
X85391172Y-75423523D01*
X85395600Y-75423444D01*
X85546700Y-75423444D01*
X85546702Y-75423444D01*
X85731859Y-75384088D01*
X85904786Y-75307095D01*
X86057927Y-75195832D01*
X86184589Y-75055160D01*
X86279235Y-74891228D01*
X86337730Y-74711200D01*
X86357516Y-74522944D01*
X86337730Y-74334688D01*
X86279235Y-74154660D01*
X86268749Y-74136498D01*
X86252277Y-74068600D01*
X86275130Y-74002573D01*
X86330051Y-73959382D01*
X86376137Y-73950500D01*
X87196046Y-73950500D01*
X87263085Y-73970185D01*
X87308840Y-74022989D01*
X87318784Y-74092147D01*
X87315382Y-74106772D01*
X87314327Y-74111738D01*
X87314326Y-74111742D01*
X87314326Y-74111744D01*
X87294540Y-74300000D01*
X87314326Y-74488256D01*
X87314327Y-74488259D01*
X87372818Y-74668277D01*
X87372821Y-74668284D01*
X87467467Y-74832216D01*
X87589533Y-74967784D01*
X87594129Y-74972888D01*
X87626656Y-74996520D01*
X87669322Y-75051850D01*
X87675301Y-75121463D01*
X87671702Y-75135157D01*
X87614327Y-75311740D01*
X87614326Y-75311744D01*
X87594540Y-75500000D01*
X87614326Y-75688256D01*
X87614327Y-75688259D01*
X87672818Y-75868277D01*
X87672821Y-75868284D01*
X87767467Y-76032216D01*
X87806362Y-76075413D01*
X87894129Y-76172888D01*
X88047265Y-76284148D01*
X88047270Y-76284151D01*
X88220192Y-76361142D01*
X88220197Y-76361144D01*
X88405354Y-76400500D01*
X88405355Y-76400500D01*
X88594644Y-76400500D01*
X88594646Y-76400500D01*
X88779803Y-76361144D01*
X88952730Y-76284151D01*
X89105871Y-76172888D01*
X89232533Y-76032216D01*
X89327179Y-75868284D01*
X89385674Y-75688256D01*
X89405460Y-75500000D01*
X93594540Y-75500000D01*
X93614326Y-75688256D01*
X93614327Y-75688259D01*
X93672818Y-75868277D01*
X93672821Y-75868284D01*
X93767467Y-76032216D01*
X93806362Y-76075413D01*
X93894129Y-76172888D01*
X94047265Y-76284148D01*
X94047270Y-76284151D01*
X94220192Y-76361142D01*
X94220197Y-76361144D01*
X94405354Y-76400500D01*
X94405355Y-76400500D01*
X94594644Y-76400500D01*
X94594646Y-76400500D01*
X94779803Y-76361144D01*
X94952730Y-76284151D01*
X95105871Y-76172888D01*
X95232533Y-76032216D01*
X95327179Y-75868284D01*
X95385674Y-75688256D01*
X95403124Y-75522219D01*
X95418212Y-75485547D01*
X95401056Y-75452907D01*
X95399306Y-75441453D01*
X95385674Y-75311744D01*
X95327179Y-75131716D01*
X95232533Y-74967784D01*
X95188945Y-74919375D01*
X95158716Y-74856385D01*
X95161894Y-74830832D01*
X95161015Y-74831161D01*
X95092742Y-74816309D01*
X95079284Y-74807795D01*
X94952734Y-74715851D01*
X94952729Y-74715848D01*
X94779807Y-74638857D01*
X94779802Y-74638855D01*
X94634001Y-74607865D01*
X94594646Y-74599500D01*
X94405354Y-74599500D01*
X94372897Y-74606398D01*
X94220197Y-74638855D01*
X94220192Y-74638857D01*
X94047270Y-74715848D01*
X94047265Y-74715851D01*
X93894129Y-74827111D01*
X93767466Y-74967785D01*
X93672821Y-75131715D01*
X93672818Y-75131722D01*
X93614327Y-75311740D01*
X93614326Y-75311744D01*
X93594540Y-75500000D01*
X89405460Y-75500000D01*
X89385674Y-75311744D01*
X89327179Y-75131716D01*
X89232533Y-74967784D01*
X89105871Y-74827112D01*
X89105870Y-74827111D01*
X89105864Y-74827106D01*
X89073343Y-74803478D01*
X89030677Y-74748148D01*
X89024698Y-74678535D01*
X89028294Y-74664852D01*
X89085674Y-74488256D01*
X89105460Y-74300000D01*
X89085674Y-74111744D01*
X89085671Y-74111737D01*
X89084322Y-74105383D01*
X89085801Y-74105068D01*
X89084028Y-74042976D01*
X89120109Y-73983144D01*
X89182810Y-73952316D01*
X89203954Y-73950500D01*
X94519192Y-73950500D01*
X94586231Y-73970185D01*
X94606873Y-73986819D01*
X95239850Y-74619796D01*
X95273335Y-74681119D01*
X95270920Y-74714883D01*
X95278735Y-74712426D01*
X95346137Y-74730831D01*
X95368777Y-74748723D01*
X95652290Y-75032236D01*
X95685775Y-75093559D01*
X95684384Y-75152008D01*
X95664937Y-75224589D01*
X95664937Y-75224590D01*
X95646153Y-75439283D01*
X95630943Y-75478164D01*
X95648422Y-75512875D01*
X95649973Y-75524374D01*
X95664936Y-75695403D01*
X95664938Y-75695413D01*
X95726094Y-75923655D01*
X95726096Y-75923659D01*
X95726097Y-75923663D01*
X95825965Y-76137830D01*
X95825967Y-76137834D01*
X95928418Y-76284148D01*
X95961501Y-76331396D01*
X95961506Y-76331402D01*
X96083818Y-76453714D01*
X96117303Y-76515037D01*
X96112319Y-76584729D01*
X96070447Y-76640662D01*
X96039471Y-76657577D01*
X95907912Y-76706646D01*
X95907906Y-76706649D01*
X95792812Y-76792809D01*
X95792809Y-76792812D01*
X95706649Y-76907906D01*
X95706645Y-76907913D01*
X95656403Y-77042620D01*
X95656401Y-77042627D01*
X95650000Y-77102155D01*
X95650000Y-77750000D01*
X96566988Y-77750000D01*
X96534075Y-77807007D01*
X96500000Y-77934174D01*
X96500000Y-78065826D01*
X96534075Y-78192993D01*
X96566988Y-78250000D01*
X95650000Y-78250000D01*
X95650000Y-78897844D01*
X95656401Y-78957372D01*
X95656403Y-78957379D01*
X95706645Y-79092086D01*
X95706649Y-79092093D01*
X95792809Y-79207187D01*
X95792812Y-79207190D01*
X95907906Y-79293350D01*
X95907913Y-79293354D01*
X96042620Y-79343596D01*
X96042627Y-79343598D01*
X96102155Y-79349999D01*
X96102172Y-79350000D01*
X96750000Y-79350000D01*
X96750000Y-78433012D01*
X96807007Y-78465925D01*
X96934174Y-78500000D01*
X97065826Y-78500000D01*
X97192993Y-78465925D01*
X97250000Y-78433012D01*
X97250000Y-79350000D01*
X97897828Y-79350000D01*
X97897844Y-79349999D01*
X97957372Y-79343598D01*
X97957379Y-79343596D01*
X98092086Y-79293354D01*
X98092093Y-79293350D01*
X98207187Y-79207190D01*
X98207190Y-79207187D01*
X98293350Y-79092093D01*
X98293354Y-79092086D01*
X98343596Y-78957379D01*
X98343598Y-78957372D01*
X98349999Y-78897844D01*
X98350000Y-78897827D01*
X98350000Y-78250000D01*
X97433012Y-78250000D01*
X97465925Y-78192993D01*
X97500000Y-78065826D01*
X97500000Y-77934174D01*
X97465925Y-77807007D01*
X97433012Y-77750000D01*
X98350000Y-77750000D01*
X98350000Y-77102172D01*
X98349999Y-77102155D01*
X98343598Y-77042627D01*
X98343596Y-77042620D01*
X98293354Y-76907913D01*
X98293350Y-76907906D01*
X98207190Y-76792812D01*
X98207187Y-76792809D01*
X98092093Y-76706649D01*
X98092088Y-76706646D01*
X97960528Y-76657577D01*
X97904595Y-76615705D01*
X97880178Y-76550241D01*
X97895030Y-76481968D01*
X97916175Y-76453720D01*
X98038495Y-76331401D01*
X98174035Y-76137830D01*
X98273903Y-75923663D01*
X98335063Y-75695408D01*
X98355659Y-75460000D01*
X98355038Y-75452907D01*
X98348339Y-75376335D01*
X98335063Y-75224592D01*
X98273903Y-74996337D01*
X98174035Y-74782171D01*
X98173015Y-74780713D01*
X98038494Y-74588597D01*
X97871402Y-74421506D01*
X97871396Y-74421501D01*
X97685842Y-74291575D01*
X97642217Y-74236998D01*
X97635023Y-74167500D01*
X97666546Y-74105145D01*
X97685842Y-74088425D01*
X97808451Y-74002573D01*
X97871401Y-73958495D01*
X98038495Y-73791401D01*
X98174035Y-73597830D01*
X98273903Y-73383663D01*
X98335063Y-73155408D01*
X98355659Y-72920000D01*
X98335063Y-72684592D01*
X98273903Y-72456337D01*
X98174035Y-72242171D01*
X98125524Y-72172889D01*
X98038494Y-72048597D01*
X97871402Y-71881506D01*
X97871396Y-71881501D01*
X97685842Y-71751575D01*
X97642217Y-71696998D01*
X97635023Y-71627500D01*
X97666546Y-71565145D01*
X97685842Y-71548425D01*
X97805736Y-71464474D01*
X97871401Y-71418495D01*
X98038495Y-71251401D01*
X98174035Y-71057830D01*
X98273903Y-70843663D01*
X98335063Y-70615408D01*
X98355659Y-70380000D01*
X98335063Y-70144592D01*
X98273903Y-69916337D01*
X98174035Y-69702171D01*
X98145307Y-69661142D01*
X98038494Y-69508597D01*
X97871402Y-69341506D01*
X97871396Y-69341501D01*
X97685842Y-69211575D01*
X97642217Y-69156998D01*
X97635023Y-69087500D01*
X97666546Y-69025145D01*
X97685842Y-69008425D01*
X97714646Y-68988256D01*
X97871401Y-68878495D01*
X98038495Y-68711401D01*
X98174035Y-68517830D01*
X98273903Y-68303663D01*
X98335063Y-68075408D01*
X98355659Y-67840000D01*
X98335063Y-67604592D01*
X98286403Y-67422989D01*
X98273905Y-67376344D01*
X98273904Y-67376343D01*
X98273903Y-67376337D01*
X98174035Y-67162171D01*
X98170076Y-67156516D01*
X98038494Y-66968597D01*
X97871402Y-66801506D01*
X97871401Y-66801505D01*
X97685405Y-66671269D01*
X97641781Y-66616692D01*
X97634588Y-66547193D01*
X97666110Y-66484839D01*
X97685405Y-66468119D01*
X97871082Y-66338105D01*
X98038105Y-66171082D01*
X98173600Y-65977578D01*
X98273429Y-65763492D01*
X98273432Y-65763486D01*
X98330636Y-65550000D01*
X97433012Y-65550000D01*
X97465925Y-65492993D01*
X97500000Y-65365826D01*
X97500000Y-65234174D01*
X97465925Y-65107007D01*
X97433012Y-65050000D01*
X98330636Y-65050000D01*
X98330635Y-65049999D01*
X98273432Y-64836513D01*
X98273429Y-64836507D01*
X98173600Y-64622422D01*
X98173599Y-64622420D01*
X98038113Y-64428926D01*
X98038108Y-64428920D01*
X97871082Y-64261894D01*
X97677578Y-64126399D01*
X97463492Y-64026570D01*
X97463486Y-64026567D01*
X97250000Y-63969364D01*
X97250000Y-64866988D01*
X97192993Y-64834075D01*
X97065826Y-64800000D01*
X96934174Y-64800000D01*
X96807007Y-64834075D01*
X96750000Y-64866988D01*
X96750000Y-63969364D01*
X96749999Y-63969364D01*
X96536513Y-64026567D01*
X96536507Y-64026570D01*
X96322422Y-64126399D01*
X96322420Y-64126400D01*
X96128926Y-64261886D01*
X96128920Y-64261891D01*
X95961891Y-64428920D01*
X95961886Y-64428926D01*
X95826400Y-64622420D01*
X95826399Y-64622422D01*
X95726570Y-64836507D01*
X95726567Y-64836513D01*
X95669364Y-65049999D01*
X95669364Y-65050000D01*
X96566988Y-65050000D01*
X96534075Y-65107007D01*
X96500000Y-65234174D01*
X96500000Y-65365826D01*
X96534075Y-65492993D01*
X96566988Y-65550000D01*
X95669364Y-65550000D01*
X95726567Y-65763486D01*
X95726570Y-65763492D01*
X95826399Y-65977578D01*
X95961894Y-66171082D01*
X96128917Y-66338105D01*
X96314595Y-66468119D01*
X96358219Y-66522696D01*
X96365412Y-66592195D01*
X96333890Y-66654549D01*
X96314595Y-66671269D01*
X96128594Y-66801508D01*
X95961505Y-66968597D01*
X95825965Y-67162169D01*
X95825964Y-67162171D01*
X95726098Y-67376335D01*
X95726094Y-67376344D01*
X95664938Y-67604586D01*
X95664936Y-67604596D01*
X95644341Y-67839999D01*
X95644341Y-67840000D01*
X95664936Y-68075403D01*
X95664938Y-68075413D01*
X95726094Y-68303655D01*
X95726096Y-68303659D01*
X95726097Y-68303663D01*
X95813641Y-68491401D01*
X95825965Y-68517830D01*
X95825967Y-68517834D01*
X95961501Y-68711395D01*
X95961506Y-68711402D01*
X96128597Y-68878493D01*
X96128603Y-68878498D01*
X96314158Y-69008425D01*
X96357783Y-69063002D01*
X96364977Y-69132500D01*
X96333454Y-69194855D01*
X96314158Y-69211575D01*
X96128597Y-69341505D01*
X95961505Y-69508597D01*
X95825965Y-69702169D01*
X95825964Y-69702171D01*
X95726098Y-69916335D01*
X95726094Y-69916344D01*
X95664938Y-70144586D01*
X95664936Y-70144596D01*
X95644341Y-70379999D01*
X95644341Y-70380000D01*
X95664936Y-70615403D01*
X95664938Y-70615413D01*
X95726094Y-70843655D01*
X95726096Y-70843659D01*
X95726097Y-70843663D01*
X95783976Y-70967784D01*
X95825965Y-71057830D01*
X95825967Y-71057834D01*
X95961501Y-71251395D01*
X95961506Y-71251402D01*
X96128597Y-71418493D01*
X96128603Y-71418498D01*
X96314158Y-71548425D01*
X96357783Y-71603002D01*
X96364977Y-71672500D01*
X96333454Y-71734855D01*
X96314158Y-71751575D01*
X96128597Y-71881505D01*
X95961505Y-72048597D01*
X95927878Y-72096623D01*
X95873301Y-72140248D01*
X95826303Y-72149500D01*
X89027568Y-72149500D01*
X88960529Y-72129815D01*
X88914774Y-72077011D01*
X88904247Y-72038462D01*
X88885674Y-71861744D01*
X88827179Y-71681716D01*
X88732533Y-71517784D01*
X88605871Y-71377112D01*
X88605870Y-71377111D01*
X88452734Y-71265851D01*
X88452729Y-71265848D01*
X88279807Y-71188857D01*
X88279802Y-71188855D01*
X88118362Y-71154541D01*
X88094646Y-71149500D01*
X87905354Y-71149500D01*
X87881638Y-71154541D01*
X87720197Y-71188855D01*
X87720192Y-71188857D01*
X87547270Y-71265848D01*
X87547265Y-71265851D01*
X87394129Y-71377111D01*
X87267466Y-71517785D01*
X87172821Y-71681715D01*
X87172818Y-71681722D01*
X87150122Y-71751575D01*
X87114326Y-71861744D01*
X87096409Y-72032216D01*
X87095753Y-72038462D01*
X87069168Y-72103076D01*
X87011871Y-72143061D01*
X86972432Y-72149500D01*
X85343162Y-72149500D01*
X85225588Y-72172888D01*
X85217489Y-72174499D01*
X85217488Y-72174499D01*
X85099103Y-72223535D01*
X84992564Y-72294722D01*
X84992557Y-72294728D01*
X83094724Y-74192561D01*
X83027216Y-74293595D01*
X82997007Y-74325017D01*
X82994133Y-74327105D01*
X82994128Y-74327109D01*
X82867466Y-74467782D01*
X82772821Y-74631712D01*
X82772818Y-74631719D01*
X82715608Y-74807795D01*
X82714326Y-74811741D01*
X82694540Y-74999997D01*
X73819947Y-74999997D01*
X74703105Y-74116839D01*
X74764426Y-74083356D01*
X74834118Y-74088340D01*
X74890051Y-74130212D01*
X74898171Y-74142523D01*
X74967463Y-74262542D01*
X74967465Y-74262545D01*
X75094129Y-74403219D01*
X75247265Y-74514479D01*
X75247270Y-74514482D01*
X75420192Y-74591473D01*
X75420197Y-74591475D01*
X75605354Y-74630831D01*
X75605355Y-74630831D01*
X75794644Y-74630831D01*
X75794646Y-74630831D01*
X75979803Y-74591475D01*
X76152730Y-74514482D01*
X76305871Y-74403219D01*
X76432533Y-74262547D01*
X76527179Y-74098615D01*
X76585674Y-73918587D01*
X76605460Y-73730331D01*
X76585674Y-73542075D01*
X76527179Y-73362047D01*
X76432533Y-73198115D01*
X76305871Y-73057443D01*
X76295627Y-73050000D01*
X76152734Y-72946182D01*
X76152730Y-72946180D01*
X76124524Y-72933622D01*
X76071290Y-72888374D01*
X76050968Y-72821525D01*
X76070013Y-72754301D01*
X76087277Y-72732667D01*
X77384598Y-71435346D01*
X77445919Y-71401863D01*
X77515611Y-71406847D01*
X77571544Y-71448719D01*
X77595598Y-71510067D01*
X77614326Y-71688256D01*
X77614327Y-71688259D01*
X77672818Y-71868277D01*
X77672821Y-71868284D01*
X77767467Y-72032216D01*
X77831270Y-72103076D01*
X77894129Y-72172888D01*
X78047265Y-72284148D01*
X78047270Y-72284151D01*
X78220192Y-72361142D01*
X78220197Y-72361144D01*
X78405354Y-72400500D01*
X78405355Y-72400500D01*
X78594644Y-72400500D01*
X78594646Y-72400500D01*
X78779803Y-72361144D01*
X78952730Y-72284151D01*
X79105871Y-72172888D01*
X79232533Y-72032216D01*
X79327179Y-71868284D01*
X79385674Y-71688256D01*
X79405460Y-71500000D01*
X79385674Y-71311744D01*
X79327179Y-71131716D01*
X79232533Y-70967784D01*
X79105871Y-70827112D01*
X79069243Y-70800500D01*
X78952734Y-70715851D01*
X78952729Y-70715848D01*
X78779807Y-70638857D01*
X78779802Y-70638855D01*
X78634001Y-70607865D01*
X78594646Y-70599500D01*
X78519807Y-70599500D01*
X78452768Y-70579815D01*
X78407013Y-70527011D01*
X78397069Y-70457853D01*
X78426094Y-70394297D01*
X78432126Y-70387819D01*
X78675350Y-70144596D01*
X79033127Y-69786819D01*
X79094450Y-69753334D01*
X79120808Y-69750500D01*
X79279192Y-69750500D01*
X79346231Y-69770185D01*
X79366873Y-69786819D01*
X79465191Y-69885137D01*
X79498676Y-69946460D01*
X79500830Y-69959851D01*
X79514326Y-70088256D01*
X79514327Y-70088259D01*
X79572818Y-70268277D01*
X79572821Y-70268284D01*
X79667467Y-70432216D01*
X79690551Y-70457853D01*
X79794129Y-70572888D01*
X79947265Y-70684148D01*
X79947270Y-70684151D01*
X80120192Y-70761142D01*
X80120197Y-70761144D01*
X80305354Y-70800500D01*
X80305355Y-70800500D01*
X80494644Y-70800500D01*
X80494646Y-70800500D01*
X80679803Y-70761144D01*
X80852730Y-70684151D01*
X81005871Y-70572888D01*
X81132533Y-70432216D01*
X81227179Y-70268284D01*
X81285674Y-70088256D01*
X81305460Y-69900000D01*
X81287012Y-69724481D01*
X81299581Y-69655755D01*
X81318183Y-69628550D01*
X81322093Y-69624207D01*
X81322099Y-69624203D01*
X81448761Y-69483531D01*
X81543407Y-69319599D01*
X81601902Y-69139571D01*
X81621688Y-68951315D01*
X81601902Y-68763059D01*
X81543407Y-68583031D01*
X81448761Y-68419099D01*
X81322099Y-68278427D01*
X81299188Y-68261781D01*
X81168962Y-68167166D01*
X81168957Y-68167163D01*
X80996035Y-68090172D01*
X80996030Y-68090170D01*
X80883862Y-68066329D01*
X80822380Y-68033137D01*
X80788604Y-67971974D01*
X80786322Y-67932085D01*
X80800205Y-67800000D01*
X84994540Y-67800000D01*
X85014326Y-67988256D01*
X85014327Y-67988259D01*
X85072818Y-68168277D01*
X85072820Y-68168281D01*
X85072821Y-68168284D01*
X85110805Y-68234075D01*
X85113072Y-68238001D01*
X85129543Y-68305901D01*
X85113072Y-68361998D01*
X85080106Y-68419099D01*
X85072820Y-68431718D01*
X85072818Y-68431722D01*
X85014327Y-68611740D01*
X85014326Y-68611744D01*
X84994540Y-68800000D01*
X85014326Y-68988256D01*
X85014327Y-68988259D01*
X85072818Y-69168277D01*
X85072821Y-69168284D01*
X85167467Y-69332216D01*
X85294129Y-69472888D01*
X85447265Y-69584148D01*
X85447270Y-69584151D01*
X85620192Y-69661142D01*
X85620197Y-69661144D01*
X85805354Y-69700500D01*
X85805355Y-69700500D01*
X85994644Y-69700500D01*
X85994646Y-69700500D01*
X86179803Y-69661144D01*
X86352730Y-69584151D01*
X86505871Y-69472888D01*
X86632533Y-69332216D01*
X86727179Y-69168284D01*
X86785674Y-68988256D01*
X86805460Y-68800000D01*
X86785674Y-68611744D01*
X86727179Y-68431716D01*
X86686927Y-68361999D01*
X86670454Y-68294101D01*
X86686927Y-68238001D01*
X86727179Y-68168284D01*
X86785674Y-67988256D01*
X86805460Y-67800000D01*
X86785674Y-67611744D01*
X86727179Y-67431716D01*
X86632533Y-67267784D01*
X86505871Y-67127112D01*
X86505870Y-67127111D01*
X86352734Y-67015851D01*
X86352729Y-67015848D01*
X86179807Y-66938857D01*
X86179802Y-66938855D01*
X86034001Y-66907865D01*
X85994646Y-66899500D01*
X85805354Y-66899500D01*
X85772897Y-66906398D01*
X85620197Y-66938855D01*
X85620192Y-66938857D01*
X85447270Y-67015848D01*
X85447265Y-67015851D01*
X85294129Y-67127111D01*
X85167466Y-67267785D01*
X85072821Y-67431715D01*
X85072818Y-67431722D01*
X85014327Y-67611740D01*
X85014326Y-67611744D01*
X84994540Y-67800000D01*
X80800205Y-67800000D01*
X80805460Y-67750000D01*
X80785674Y-67561744D01*
X80727179Y-67381716D01*
X80724077Y-67376344D01*
X80686927Y-67311997D01*
X80670454Y-67244097D01*
X80686927Y-67187999D01*
X80727179Y-67118281D01*
X80785674Y-66938253D01*
X80805460Y-66749997D01*
X80785674Y-66561741D01*
X80727179Y-66381713D01*
X80632533Y-66217781D01*
X80505871Y-66077109D01*
X80502276Y-66074497D01*
X80352734Y-65965848D01*
X80352729Y-65965845D01*
X80179807Y-65888854D01*
X80179802Y-65888852D01*
X80034001Y-65857862D01*
X79994646Y-65849497D01*
X79805354Y-65849497D01*
X79772897Y-65856395D01*
X79620197Y-65888852D01*
X79620192Y-65888854D01*
X79447270Y-65965845D01*
X79447265Y-65965848D01*
X79364725Y-66025818D01*
X79298919Y-66049298D01*
X79291840Y-66049500D01*
X76550141Y-66049500D01*
X76424473Y-66074497D01*
X76424467Y-66074499D01*
X76306087Y-66123533D01*
X76306078Y-66123538D01*
X76199543Y-66194723D01*
X76199539Y-66194726D01*
X71423465Y-70970799D01*
X71362142Y-71004284D01*
X71292450Y-70999300D01*
X71243635Y-70966091D01*
X71232646Y-70953887D01*
X71232639Y-70953881D01*
X71079509Y-70842626D01*
X71079504Y-70842623D01*
X70906582Y-70765632D01*
X70906577Y-70765630D01*
X70760776Y-70734640D01*
X70721421Y-70726275D01*
X70532129Y-70726275D01*
X70499672Y-70733173D01*
X70346972Y-70765630D01*
X70346967Y-70765632D01*
X70174045Y-70842623D01*
X70174040Y-70842626D01*
X70020904Y-70953886D01*
X69894241Y-71094560D01*
X69799596Y-71258490D01*
X69799593Y-71258497D01*
X69742131Y-71435348D01*
X69741101Y-71438519D01*
X69721315Y-71626775D01*
X69741101Y-71815031D01*
X69741102Y-71815034D01*
X69799593Y-71995052D01*
X69799596Y-71995059D01*
X69894241Y-72158990D01*
X69977084Y-72250997D01*
X70007314Y-72313989D01*
X69998688Y-72383324D01*
X69972615Y-72421650D01*
X67938191Y-74456075D01*
X67876868Y-74489560D01*
X67850510Y-74492394D01*
X66731715Y-74492394D01*
X66606047Y-74517391D01*
X66606041Y-74517393D01*
X66487660Y-74566428D01*
X66381112Y-74637620D01*
X63094726Y-77924006D01*
X63032974Y-78016427D01*
X63032972Y-78016430D01*
X63023536Y-78030550D01*
X63023533Y-78030555D01*
X62974499Y-78148935D01*
X62974497Y-78148941D01*
X62949500Y-78274608D01*
X62949500Y-78274611D01*
X62949500Y-91064069D01*
X62949500Y-91064071D01*
X62949499Y-91064071D01*
X50250500Y-91064071D01*
X50250500Y-75839999D01*
X51644341Y-75839999D01*
X51644341Y-75840000D01*
X51664936Y-76075403D01*
X51664938Y-76075413D01*
X51726094Y-76303655D01*
X51726096Y-76303659D01*
X51726097Y-76303663D01*
X51771253Y-76400500D01*
X51825965Y-76517830D01*
X51825967Y-76517834D01*
X51961501Y-76711395D01*
X51961505Y-76711401D01*
X52128597Y-76878493D01*
X52128603Y-76878498D01*
X52314158Y-77008425D01*
X52357783Y-77063002D01*
X52364977Y-77132500D01*
X52333454Y-77194855D01*
X52314158Y-77211575D01*
X52128597Y-77341505D01*
X51961505Y-77508597D01*
X51825965Y-77702169D01*
X51825964Y-77702171D01*
X51726098Y-77916335D01*
X51726094Y-77916344D01*
X51664938Y-78144586D01*
X51664936Y-78144596D01*
X51644341Y-78379999D01*
X51644341Y-78380000D01*
X51664936Y-78615403D01*
X51664938Y-78615413D01*
X51726094Y-78843655D01*
X51726096Y-78843659D01*
X51726097Y-78843663D01*
X51779121Y-78957372D01*
X51825965Y-79057830D01*
X51825967Y-79057834D01*
X51961501Y-79251395D01*
X51961506Y-79251402D01*
X52128597Y-79418493D01*
X52128603Y-79418498D01*
X52314158Y-79548425D01*
X52357783Y-79603002D01*
X52364977Y-79672500D01*
X52333454Y-79734855D01*
X52314158Y-79751575D01*
X52128597Y-79881505D01*
X51961505Y-80048597D01*
X51825965Y-80242169D01*
X51825964Y-80242171D01*
X51726098Y-80456335D01*
X51726094Y-80456344D01*
X51664938Y-80684586D01*
X51664936Y-80684596D01*
X51644341Y-80919999D01*
X51644341Y-80920000D01*
X51664936Y-81155403D01*
X51664938Y-81155413D01*
X51726094Y-81383655D01*
X51726096Y-81383659D01*
X51726097Y-81383663D01*
X51748015Y-81430666D01*
X51825965Y-81597830D01*
X51825967Y-81597834D01*
X51961501Y-81791395D01*
X51961506Y-81791402D01*
X52128597Y-81958493D01*
X52128603Y-81958498D01*
X52314158Y-82088425D01*
X52357783Y-82143002D01*
X52364977Y-82212500D01*
X52333454Y-82274855D01*
X52314158Y-82291575D01*
X52128597Y-82421505D01*
X51961505Y-82588597D01*
X51825965Y-82782169D01*
X51825964Y-82782171D01*
X51726098Y-82996335D01*
X51726094Y-82996344D01*
X51664938Y-83224586D01*
X51664936Y-83224596D01*
X51644341Y-83459999D01*
X51644341Y-83460000D01*
X51664936Y-83695403D01*
X51664938Y-83695413D01*
X51726094Y-83923655D01*
X51726096Y-83923659D01*
X51726097Y-83923663D01*
X51825965Y-84137830D01*
X51825967Y-84137834D01*
X51934281Y-84292521D01*
X51961501Y-84331396D01*
X51961506Y-84331402D01*
X52083818Y-84453714D01*
X52117303Y-84515037D01*
X52112319Y-84584729D01*
X52070447Y-84640662D01*
X52039471Y-84657577D01*
X51907912Y-84706646D01*
X51907906Y-84706649D01*
X51792812Y-84792809D01*
X51792809Y-84792812D01*
X51706649Y-84907906D01*
X51706645Y-84907913D01*
X51656403Y-85042620D01*
X51656401Y-85042627D01*
X51650000Y-85102155D01*
X51650000Y-85750000D01*
X52566988Y-85750000D01*
X52534075Y-85807007D01*
X52500000Y-85934174D01*
X52500000Y-86065826D01*
X52534075Y-86192993D01*
X52566988Y-86250000D01*
X51650000Y-86250000D01*
X51650000Y-86897844D01*
X51656401Y-86957372D01*
X51656403Y-86957379D01*
X51706645Y-87092086D01*
X51706649Y-87092093D01*
X51792809Y-87207187D01*
X51792812Y-87207190D01*
X51907906Y-87293350D01*
X51907913Y-87293354D01*
X52042620Y-87343596D01*
X52042627Y-87343598D01*
X52102155Y-87349999D01*
X52102172Y-87350000D01*
X52750000Y-87350000D01*
X52750000Y-86433012D01*
X52807007Y-86465925D01*
X52934174Y-86500000D01*
X53065826Y-86500000D01*
X53192993Y-86465925D01*
X53250000Y-86433012D01*
X53250000Y-87350000D01*
X53897828Y-87350000D01*
X53897844Y-87349999D01*
X53957372Y-87343598D01*
X53957379Y-87343596D01*
X54092086Y-87293354D01*
X54092093Y-87293350D01*
X54207187Y-87207190D01*
X54207190Y-87207187D01*
X54293350Y-87092093D01*
X54293354Y-87092086D01*
X54343596Y-86957379D01*
X54343598Y-86957372D01*
X54349999Y-86897844D01*
X54350000Y-86897827D01*
X54350000Y-86250000D01*
X53433012Y-86250000D01*
X53465925Y-86192993D01*
X53500000Y-86065826D01*
X53500000Y-85934174D01*
X53465925Y-85807007D01*
X53433012Y-85750000D01*
X54350000Y-85750000D01*
X54350000Y-85102172D01*
X54349999Y-85102155D01*
X54343598Y-85042627D01*
X54343596Y-85042620D01*
X54293354Y-84907913D01*
X54293350Y-84907906D01*
X54207190Y-84792812D01*
X54207187Y-84792809D01*
X54092093Y-84706649D01*
X54092088Y-84706646D01*
X53960528Y-84657577D01*
X53904595Y-84615705D01*
X53880178Y-84550241D01*
X53895030Y-84481968D01*
X53916175Y-84453720D01*
X54038495Y-84331401D01*
X54174035Y-84137830D01*
X54273903Y-83923663D01*
X54335063Y-83695408D01*
X54355659Y-83460000D01*
X54335063Y-83224592D01*
X54273903Y-82996337D01*
X54174035Y-82782171D01*
X54138817Y-82731873D01*
X54038494Y-82588597D01*
X53871402Y-82421506D01*
X53871396Y-82421501D01*
X53685842Y-82291575D01*
X53642217Y-82236998D01*
X53635023Y-82167500D01*
X53666546Y-82105145D01*
X53685842Y-82088425D01*
X53708026Y-82072891D01*
X53871401Y-81958495D01*
X54038495Y-81791401D01*
X54174035Y-81597830D01*
X54273903Y-81383663D01*
X54335063Y-81155408D01*
X54355659Y-80920000D01*
X54335063Y-80684592D01*
X54285602Y-80500000D01*
X54273905Y-80456344D01*
X54273904Y-80456343D01*
X54273903Y-80456337D01*
X54174035Y-80242171D01*
X54139601Y-80192993D01*
X54038494Y-80048597D01*
X53871402Y-79881506D01*
X53871396Y-79881501D01*
X53685842Y-79751575D01*
X53642217Y-79696998D01*
X53635023Y-79627500D01*
X53666546Y-79565145D01*
X53685842Y-79548425D01*
X53755000Y-79500000D01*
X53871401Y-79418495D01*
X54038495Y-79251401D01*
X54174035Y-79057830D01*
X54273903Y-78843663D01*
X54335063Y-78615408D01*
X54355659Y-78380000D01*
X54335063Y-78144592D01*
X54273903Y-77916337D01*
X54174035Y-77702171D01*
X54056334Y-77534075D01*
X54038494Y-77508597D01*
X53871402Y-77341506D01*
X53871396Y-77341501D01*
X53685842Y-77211575D01*
X53642217Y-77156998D01*
X53635023Y-77087500D01*
X53666546Y-77025145D01*
X53685842Y-77008425D01*
X53708026Y-76992891D01*
X53871401Y-76878495D01*
X54038495Y-76711401D01*
X54174035Y-76517830D01*
X54273903Y-76303663D01*
X54335063Y-76075408D01*
X54355659Y-75840000D01*
X54335063Y-75604592D01*
X54273903Y-75376337D01*
X54174035Y-75162171D01*
X54152715Y-75131722D01*
X54038494Y-74968597D01*
X53871402Y-74801506D01*
X53871401Y-74801505D01*
X53685405Y-74671269D01*
X53641781Y-74616692D01*
X53634588Y-74547193D01*
X53666110Y-74484839D01*
X53685405Y-74468119D01*
X53871082Y-74338105D01*
X54038105Y-74171082D01*
X54173600Y-73977578D01*
X54273429Y-73763492D01*
X54273432Y-73763486D01*
X54330636Y-73550000D01*
X53433012Y-73550000D01*
X53465925Y-73492993D01*
X53500000Y-73365826D01*
X53500000Y-73234174D01*
X53465925Y-73107007D01*
X53433012Y-73050000D01*
X54330636Y-73050000D01*
X54330635Y-73049999D01*
X54273432Y-72836513D01*
X54273429Y-72836507D01*
X54173600Y-72622422D01*
X54173599Y-72622420D01*
X54038113Y-72428926D01*
X54038108Y-72428920D01*
X54009188Y-72400000D01*
X65994540Y-72400000D01*
X66014326Y-72588256D01*
X66014327Y-72588259D01*
X66072818Y-72768277D01*
X66072821Y-72768284D01*
X66167467Y-72932216D01*
X66280221Y-73057442D01*
X66294129Y-73072888D01*
X66447265Y-73184148D01*
X66447270Y-73184151D01*
X66620192Y-73261142D01*
X66620197Y-73261144D01*
X66805354Y-73300500D01*
X66805355Y-73300500D01*
X66994644Y-73300500D01*
X66994646Y-73300500D01*
X67179803Y-73261144D01*
X67352730Y-73184151D01*
X67505871Y-73072888D01*
X67632533Y-72932216D01*
X67727179Y-72768284D01*
X67785674Y-72588256D01*
X67805460Y-72400000D01*
X67785674Y-72211744D01*
X67729371Y-72038462D01*
X67727181Y-72031722D01*
X67727180Y-72031721D01*
X67727179Y-72031716D01*
X67632533Y-71867784D01*
X67505871Y-71727112D01*
X67505870Y-71727111D01*
X67352734Y-71615851D01*
X67352729Y-71615848D01*
X67179807Y-71538857D01*
X67179802Y-71538855D01*
X67034001Y-71507865D01*
X66994646Y-71499500D01*
X66805354Y-71499500D01*
X66772897Y-71506398D01*
X66620197Y-71538855D01*
X66620192Y-71538857D01*
X66447270Y-71615848D01*
X66447265Y-71615851D01*
X66294129Y-71727111D01*
X66167466Y-71867785D01*
X66072821Y-72031715D01*
X66072818Y-72031722D01*
X66014327Y-72211740D01*
X66014326Y-72211744D01*
X65994540Y-72400000D01*
X54009188Y-72400000D01*
X53871082Y-72261894D01*
X53677578Y-72126399D01*
X53463492Y-72026570D01*
X53463486Y-72026567D01*
X53250000Y-71969364D01*
X53250000Y-72866988D01*
X53192993Y-72834075D01*
X53065826Y-72800000D01*
X52934174Y-72800000D01*
X52807007Y-72834075D01*
X52750000Y-72866988D01*
X52750000Y-71969364D01*
X52749999Y-71969364D01*
X52536513Y-72026567D01*
X52536507Y-72026570D01*
X52322422Y-72126399D01*
X52322420Y-72126400D01*
X52128926Y-72261886D01*
X52128920Y-72261891D01*
X51961891Y-72428920D01*
X51961886Y-72428926D01*
X51826400Y-72622420D01*
X51826399Y-72622422D01*
X51726570Y-72836507D01*
X51726567Y-72836513D01*
X51669364Y-73049999D01*
X51669364Y-73050000D01*
X52566988Y-73050000D01*
X52534075Y-73107007D01*
X52500000Y-73234174D01*
X52500000Y-73365826D01*
X52534075Y-73492993D01*
X52566988Y-73550000D01*
X51669364Y-73550000D01*
X51726567Y-73763486D01*
X51726570Y-73763492D01*
X51826399Y-73977578D01*
X51961894Y-74171082D01*
X52128917Y-74338105D01*
X52314595Y-74468119D01*
X52358219Y-74522696D01*
X52365412Y-74592195D01*
X52333890Y-74654549D01*
X52314595Y-74671269D01*
X52128594Y-74801508D01*
X51961505Y-74968597D01*
X51825965Y-75162169D01*
X51825964Y-75162171D01*
X51726098Y-75376335D01*
X51726094Y-75376344D01*
X51664938Y-75604586D01*
X51664936Y-75604596D01*
X51644341Y-75839999D01*
X50250500Y-75839999D01*
X50250500Y-58539999D01*
X51644341Y-58539999D01*
X51644341Y-58540000D01*
X51664936Y-58775403D01*
X51664938Y-58775413D01*
X51726094Y-59003655D01*
X51726096Y-59003659D01*
X51726097Y-59003663D01*
X51779644Y-59118495D01*
X51825965Y-59217830D01*
X51825967Y-59217834D01*
X51961501Y-59411395D01*
X51961506Y-59411402D01*
X52128597Y-59578493D01*
X52128603Y-59578498D01*
X52314158Y-59708425D01*
X52357783Y-59763002D01*
X52364977Y-59832500D01*
X52333454Y-59894855D01*
X52314158Y-59911575D01*
X52128597Y-60041505D01*
X51961505Y-60208597D01*
X51825965Y-60402169D01*
X51825964Y-60402171D01*
X51726098Y-60616335D01*
X51726094Y-60616344D01*
X51664938Y-60844586D01*
X51664936Y-60844596D01*
X51644341Y-61079999D01*
X51644341Y-61080000D01*
X51664936Y-61315403D01*
X51664938Y-61315413D01*
X51726094Y-61543655D01*
X51726096Y-61543659D01*
X51726097Y-61543663D01*
X51767157Y-61631716D01*
X51825965Y-61757830D01*
X51825967Y-61757834D01*
X51961501Y-61951395D01*
X51961506Y-61951402D01*
X52128597Y-62118493D01*
X52128603Y-62118498D01*
X52314158Y-62248425D01*
X52357783Y-62303002D01*
X52364977Y-62372500D01*
X52333454Y-62434855D01*
X52314158Y-62451575D01*
X52128597Y-62581505D01*
X51961505Y-62748597D01*
X51825965Y-62942169D01*
X51825964Y-62942171D01*
X51726098Y-63156335D01*
X51726094Y-63156344D01*
X51664938Y-63384586D01*
X51664936Y-63384596D01*
X51644341Y-63619999D01*
X51644341Y-63620000D01*
X51664936Y-63855403D01*
X51664938Y-63855413D01*
X51726094Y-64083655D01*
X51726096Y-64083659D01*
X51726097Y-64083663D01*
X51809204Y-64261886D01*
X51825965Y-64297830D01*
X51825967Y-64297834D01*
X51961501Y-64491395D01*
X51961506Y-64491402D01*
X52128597Y-64658493D01*
X52128603Y-64658498D01*
X52314158Y-64788425D01*
X52357783Y-64843002D01*
X52364977Y-64912500D01*
X52333454Y-64974855D01*
X52314158Y-64991575D01*
X52128597Y-65121505D01*
X51961505Y-65288597D01*
X51825965Y-65482169D01*
X51825964Y-65482171D01*
X51726098Y-65696335D01*
X51726094Y-65696344D01*
X51664938Y-65924586D01*
X51664936Y-65924596D01*
X51644341Y-66159999D01*
X51644341Y-66160000D01*
X51664936Y-66395403D01*
X51664938Y-66395413D01*
X51726094Y-66623655D01*
X51726096Y-66623659D01*
X51726097Y-66623663D01*
X51784355Y-66748597D01*
X51825965Y-66837830D01*
X51825967Y-66837834D01*
X51961501Y-67031395D01*
X51961506Y-67031402D01*
X52128597Y-67198493D01*
X52128603Y-67198498D01*
X52314594Y-67328730D01*
X52358219Y-67383307D01*
X52365413Y-67452805D01*
X52333890Y-67515160D01*
X52314595Y-67531880D01*
X52128922Y-67661890D01*
X52128920Y-67661891D01*
X51961891Y-67828920D01*
X51961886Y-67828926D01*
X51826400Y-68022420D01*
X51826399Y-68022422D01*
X51726570Y-68236507D01*
X51726567Y-68236513D01*
X51669364Y-68449999D01*
X51669364Y-68450000D01*
X52566988Y-68450000D01*
X52534075Y-68507007D01*
X52500000Y-68634174D01*
X52500000Y-68765826D01*
X52534075Y-68892993D01*
X52566988Y-68950000D01*
X51669364Y-68950000D01*
X51726567Y-69163486D01*
X51726570Y-69163492D01*
X51826399Y-69377578D01*
X51961894Y-69571082D01*
X52128917Y-69738105D01*
X52322421Y-69873600D01*
X52536507Y-69973429D01*
X52536516Y-69973433D01*
X52750000Y-70030634D01*
X52750000Y-69133012D01*
X52807007Y-69165925D01*
X52934174Y-69200000D01*
X53065826Y-69200000D01*
X53192993Y-69165925D01*
X53250000Y-69133012D01*
X53250000Y-70030633D01*
X53463483Y-69973433D01*
X53463492Y-69973429D01*
X53677578Y-69873600D01*
X53871082Y-69738105D01*
X54038105Y-69571082D01*
X54173600Y-69377578D01*
X54273429Y-69163492D01*
X54273432Y-69163486D01*
X54330636Y-68950000D01*
X53433012Y-68950000D01*
X53465925Y-68892993D01*
X53500000Y-68765826D01*
X53500000Y-68634174D01*
X53465925Y-68507007D01*
X53433012Y-68450000D01*
X54330636Y-68450000D01*
X54330635Y-68449999D01*
X54273432Y-68236513D01*
X54273429Y-68236507D01*
X54173600Y-68022422D01*
X54173599Y-68022420D01*
X54038113Y-67828926D01*
X54038108Y-67828920D01*
X53871078Y-67661890D01*
X53685405Y-67531879D01*
X53641780Y-67477302D01*
X53634588Y-67407804D01*
X53666110Y-67345449D01*
X53685406Y-67328730D01*
X53709303Y-67311997D01*
X53871401Y-67198495D01*
X54038495Y-67031401D01*
X54174035Y-66837830D01*
X54273903Y-66623663D01*
X54335063Y-66395408D01*
X54355659Y-66160000D01*
X54335063Y-65924592D01*
X54287356Y-65746546D01*
X54273905Y-65696344D01*
X54273904Y-65696343D01*
X54273903Y-65696337D01*
X54174035Y-65482171D01*
X54075940Y-65342075D01*
X54038494Y-65288597D01*
X53871402Y-65121506D01*
X53871396Y-65121501D01*
X53812125Y-65079999D01*
X63644341Y-65079999D01*
X63644341Y-65080000D01*
X63664936Y-65315403D01*
X63664938Y-65315413D01*
X63726094Y-65543655D01*
X63726096Y-65543659D01*
X63726097Y-65543663D01*
X63797289Y-65696335D01*
X63825965Y-65757830D01*
X63825967Y-65757834D01*
X63890151Y-65849497D01*
X63961505Y-65951401D01*
X64128599Y-66118495D01*
X64314158Y-66248425D01*
X64314594Y-66248730D01*
X64358218Y-66303307D01*
X64365411Y-66372806D01*
X64333889Y-66435160D01*
X64314593Y-66451880D01*
X64238626Y-66505072D01*
X64238625Y-66505072D01*
X64870590Y-67137037D01*
X64807007Y-67154075D01*
X64692993Y-67219901D01*
X64599901Y-67312993D01*
X64534075Y-67427007D01*
X64517037Y-67490590D01*
X63885072Y-66858625D01*
X63826401Y-66942419D01*
X63726570Y-67156507D01*
X63726566Y-67156516D01*
X63665432Y-67384673D01*
X63665430Y-67384684D01*
X63644843Y-67619998D01*
X63644843Y-67620001D01*
X63665430Y-67855315D01*
X63665432Y-67855326D01*
X63726566Y-68083483D01*
X63726570Y-68083492D01*
X63826400Y-68297579D01*
X63826402Y-68297583D01*
X63885072Y-68381373D01*
X63885073Y-68381373D01*
X64517037Y-67749409D01*
X64534075Y-67812993D01*
X64599901Y-67927007D01*
X64692993Y-68020099D01*
X64807007Y-68085925D01*
X64870590Y-68102962D01*
X64238625Y-68734925D01*
X64322421Y-68793599D01*
X64536507Y-68893429D01*
X64536516Y-68893433D01*
X64764673Y-68954567D01*
X64764684Y-68954569D01*
X64999998Y-68975157D01*
X65000002Y-68975157D01*
X65235315Y-68954569D01*
X65235326Y-68954567D01*
X65463483Y-68893433D01*
X65463492Y-68893429D01*
X65677578Y-68793600D01*
X65677582Y-68793598D01*
X65761373Y-68734926D01*
X65761373Y-68734925D01*
X65129409Y-68102962D01*
X65192993Y-68085925D01*
X65307007Y-68020099D01*
X65400099Y-67927007D01*
X65465925Y-67812993D01*
X65482962Y-67749410D01*
X66114925Y-68381373D01*
X66168119Y-68305405D01*
X66222696Y-68261781D01*
X66292195Y-68254588D01*
X66354549Y-68286110D01*
X66371269Y-68305405D01*
X66501505Y-68491401D01*
X66668599Y-68658495D01*
X66744148Y-68711395D01*
X66862165Y-68794032D01*
X66862167Y-68794033D01*
X66862170Y-68794035D01*
X67076337Y-68893903D01*
X67304592Y-68955063D01*
X67492918Y-68971539D01*
X67539999Y-68975659D01*
X67540000Y-68975659D01*
X67540001Y-68975659D01*
X67579234Y-68972226D01*
X67775408Y-68955063D01*
X68003663Y-68893903D01*
X68217830Y-68794035D01*
X68411401Y-68658495D01*
X68578495Y-68491401D01*
X68714035Y-68297830D01*
X68813903Y-68083663D01*
X68875063Y-67855408D01*
X68895659Y-67620000D01*
X68875063Y-67384592D01*
X68813903Y-67156337D01*
X68714035Y-66942171D01*
X68711714Y-66938855D01*
X68578494Y-66748597D01*
X68411402Y-66581506D01*
X68411396Y-66581501D01*
X68225842Y-66451575D01*
X68182217Y-66396998D01*
X68175023Y-66327500D01*
X68206546Y-66265145D01*
X68225842Y-66248425D01*
X68302536Y-66194723D01*
X68411401Y-66118495D01*
X68578495Y-65951401D01*
X68714035Y-65757830D01*
X68813903Y-65543663D01*
X68875063Y-65315408D01*
X68895659Y-65080000D01*
X68888660Y-65000000D01*
X70282944Y-65000000D01*
X70302730Y-65188256D01*
X70302731Y-65188259D01*
X70361222Y-65368277D01*
X70361225Y-65368284D01*
X70455871Y-65532216D01*
X70582533Y-65672888D01*
X70735669Y-65784148D01*
X70735674Y-65784151D01*
X70908596Y-65861142D01*
X70908601Y-65861144D01*
X71093758Y-65900500D01*
X71093759Y-65900500D01*
X71283048Y-65900500D01*
X71283050Y-65900500D01*
X71468207Y-65861144D01*
X71641134Y-65784151D01*
X71794275Y-65672888D01*
X71920937Y-65532216D01*
X71922025Y-65530331D01*
X89564209Y-65530331D01*
X89583995Y-65718587D01*
X89583996Y-65718590D01*
X89642487Y-65898608D01*
X89642490Y-65898615D01*
X89737136Y-66062547D01*
X89834862Y-66171082D01*
X89863798Y-66203219D01*
X90016934Y-66314479D01*
X90016939Y-66314482D01*
X90189861Y-66391473D01*
X90189866Y-66391475D01*
X90375023Y-66430831D01*
X90375024Y-66430831D01*
X90564313Y-66430831D01*
X90564315Y-66430831D01*
X90749472Y-66391475D01*
X90922399Y-66314482D01*
X90937810Y-66303284D01*
X91003613Y-66279804D01*
X91061132Y-66290323D01*
X91220192Y-66361142D01*
X91220197Y-66361144D01*
X91405354Y-66400500D01*
X91405355Y-66400500D01*
X91594644Y-66400500D01*
X91594646Y-66400500D01*
X91779803Y-66361144D01*
X91952730Y-66284151D01*
X92105871Y-66172888D01*
X92232533Y-66032216D01*
X92327179Y-65868284D01*
X92385674Y-65688256D01*
X92405460Y-65500000D01*
X92385674Y-65311744D01*
X92327179Y-65131716D01*
X92232533Y-64967784D01*
X92105871Y-64827112D01*
X92084719Y-64811744D01*
X91952734Y-64715851D01*
X91952729Y-64715848D01*
X91779807Y-64638857D01*
X91779802Y-64638855D01*
X91634001Y-64607865D01*
X91594646Y-64599500D01*
X91405354Y-64599500D01*
X91372897Y-64606398D01*
X91220197Y-64638855D01*
X91220192Y-64638857D01*
X91047269Y-64715849D01*
X91031853Y-64727049D01*
X90966046Y-64750526D01*
X90908536Y-64740007D01*
X90749476Y-64669188D01*
X90749471Y-64669186D01*
X90603670Y-64638196D01*
X90564315Y-64629831D01*
X90375023Y-64629831D01*
X90342566Y-64636729D01*
X90189866Y-64669186D01*
X90189861Y-64669188D01*
X90016939Y-64746179D01*
X90016934Y-64746182D01*
X89863798Y-64857442D01*
X89737135Y-64998116D01*
X89642490Y-65162046D01*
X89642487Y-65162053D01*
X89592658Y-65315413D01*
X89583995Y-65342075D01*
X89564209Y-65530331D01*
X71922025Y-65530331D01*
X72015583Y-65368284D01*
X72074078Y-65188256D01*
X72093864Y-65000000D01*
X72074078Y-64811744D01*
X72015583Y-64631716D01*
X71920937Y-64467784D01*
X71794275Y-64327112D01*
X71794274Y-64327111D01*
X71641138Y-64215851D01*
X71641133Y-64215848D01*
X71468211Y-64138857D01*
X71468206Y-64138855D01*
X71322405Y-64107865D01*
X71283050Y-64099500D01*
X71093758Y-64099500D01*
X71061301Y-64106398D01*
X70908601Y-64138855D01*
X70908596Y-64138857D01*
X70735674Y-64215848D01*
X70735669Y-64215851D01*
X70582533Y-64327111D01*
X70455870Y-64467785D01*
X70361225Y-64631715D01*
X70361222Y-64631722D01*
X70308484Y-64794035D01*
X70302730Y-64811744D01*
X70282944Y-65000000D01*
X68888660Y-65000000D01*
X68875063Y-64844592D01*
X68818024Y-64631716D01*
X68813905Y-64616344D01*
X68813904Y-64616343D01*
X68813903Y-64616337D01*
X68714035Y-64402171D01*
X68708425Y-64394158D01*
X68578494Y-64208597D01*
X68411402Y-64041506D01*
X68411396Y-64041501D01*
X68225842Y-63911575D01*
X68182217Y-63856998D01*
X68175023Y-63787500D01*
X68206546Y-63725145D01*
X68225842Y-63708425D01*
X68302248Y-63654925D01*
X68411401Y-63578495D01*
X68489896Y-63500000D01*
X77894540Y-63500000D01*
X77914326Y-63688256D01*
X77914327Y-63688259D01*
X77972818Y-63868277D01*
X77972821Y-63868284D01*
X78067467Y-64032216D01*
X78163487Y-64138857D01*
X78194129Y-64172888D01*
X78347265Y-64284148D01*
X78347270Y-64284151D01*
X78520192Y-64361142D01*
X78520197Y-64361144D01*
X78705354Y-64400500D01*
X78705355Y-64400500D01*
X78894644Y-64400500D01*
X78894646Y-64400500D01*
X79079803Y-64361144D01*
X79252730Y-64284151D01*
X79405871Y-64172888D01*
X79532533Y-64032216D01*
X79627179Y-63868284D01*
X79685674Y-63688256D01*
X79705460Y-63500000D01*
X79685674Y-63311744D01*
X79627179Y-63131716D01*
X79532533Y-62967784D01*
X79405871Y-62827112D01*
X79359746Y-62793600D01*
X79252734Y-62715851D01*
X79252729Y-62715848D01*
X79079807Y-62638857D01*
X79079802Y-62638855D01*
X78934001Y-62607865D01*
X78894646Y-62599500D01*
X78705354Y-62599500D01*
X78675592Y-62605826D01*
X78520197Y-62638855D01*
X78520192Y-62638857D01*
X78347270Y-62715848D01*
X78347265Y-62715851D01*
X78194129Y-62827111D01*
X78067466Y-62967785D01*
X77972821Y-63131715D01*
X77972818Y-63131722D01*
X77914327Y-63311740D01*
X77914326Y-63311744D01*
X77894540Y-63500000D01*
X68489896Y-63500000D01*
X68578495Y-63411401D01*
X68714035Y-63217830D01*
X68813903Y-63003663D01*
X68875063Y-62775408D01*
X68895659Y-62540000D01*
X68875063Y-62304592D01*
X68813903Y-62076337D01*
X68778306Y-62000000D01*
X74594540Y-62000000D01*
X74614326Y-62188256D01*
X74614327Y-62188259D01*
X74672818Y-62368277D01*
X74672821Y-62368284D01*
X74767467Y-62532216D01*
X74863487Y-62638857D01*
X74894129Y-62672888D01*
X75047265Y-62784148D01*
X75047270Y-62784151D01*
X75220192Y-62861142D01*
X75220197Y-62861144D01*
X75405354Y-62900500D01*
X75405355Y-62900500D01*
X75594644Y-62900500D01*
X75594646Y-62900500D01*
X75779803Y-62861144D01*
X75952730Y-62784151D01*
X76105871Y-62672888D01*
X76232533Y-62532216D01*
X76327179Y-62368284D01*
X76385674Y-62188256D01*
X76405460Y-62000000D01*
X76385674Y-61811744D01*
X76327179Y-61631716D01*
X76232533Y-61467784D01*
X76105871Y-61327112D01*
X76091952Y-61316999D01*
X75952734Y-61215851D01*
X75952729Y-61215848D01*
X75779807Y-61138857D01*
X75779802Y-61138855D01*
X75634001Y-61107865D01*
X75594646Y-61099500D01*
X75405354Y-61099500D01*
X75372897Y-61106398D01*
X75220197Y-61138855D01*
X75220192Y-61138857D01*
X75047270Y-61215848D01*
X75047265Y-61215851D01*
X74894129Y-61327111D01*
X74767466Y-61467785D01*
X74672821Y-61631715D01*
X74672818Y-61631722D01*
X74614327Y-61811740D01*
X74614326Y-61811744D01*
X74594540Y-62000000D01*
X68778306Y-62000000D01*
X68714035Y-61862171D01*
X68713315Y-61861142D01*
X68578494Y-61668597D01*
X68411402Y-61501506D01*
X68411396Y-61501501D01*
X68225842Y-61371575D01*
X68182217Y-61316998D01*
X68175023Y-61247500D01*
X68206546Y-61185145D01*
X68225842Y-61168425D01*
X68324277Y-61099500D01*
X68411401Y-61038495D01*
X68449896Y-61000000D01*
X72594540Y-61000000D01*
X72614326Y-61188256D01*
X72614327Y-61188259D01*
X72672818Y-61368277D01*
X72672821Y-61368284D01*
X72767467Y-61532216D01*
X72857063Y-61631722D01*
X72894129Y-61672888D01*
X73047265Y-61784148D01*
X73047270Y-61784151D01*
X73220192Y-61861142D01*
X73220197Y-61861144D01*
X73405354Y-61900500D01*
X73405355Y-61900500D01*
X73594644Y-61900500D01*
X73594646Y-61900500D01*
X73779803Y-61861144D01*
X73952730Y-61784151D01*
X74105871Y-61672888D01*
X74232533Y-61532216D01*
X74327179Y-61368284D01*
X74385674Y-61188256D01*
X74405460Y-61000000D01*
X87094540Y-61000000D01*
X87114326Y-61188256D01*
X87114327Y-61188259D01*
X87172818Y-61368277D01*
X87172821Y-61368284D01*
X87267467Y-61532216D01*
X87357063Y-61631722D01*
X87394129Y-61672888D01*
X87547265Y-61784148D01*
X87547270Y-61784151D01*
X87720192Y-61861142D01*
X87720197Y-61861144D01*
X87905354Y-61900500D01*
X87905355Y-61900500D01*
X88094644Y-61900500D01*
X88094646Y-61900500D01*
X88279803Y-61861144D01*
X88452730Y-61784151D01*
X88605871Y-61672888D01*
X88732533Y-61532216D01*
X88827179Y-61368284D01*
X88885674Y-61188256D01*
X88905460Y-61000000D01*
X88885674Y-60811744D01*
X88827179Y-60631716D01*
X88732533Y-60467784D01*
X88605871Y-60327112D01*
X88578199Y-60307007D01*
X88452734Y-60215851D01*
X88452729Y-60215848D01*
X88279807Y-60138857D01*
X88279802Y-60138855D01*
X88134001Y-60107865D01*
X88094646Y-60099500D01*
X87905354Y-60099500D01*
X87872897Y-60106398D01*
X87720197Y-60138855D01*
X87720192Y-60138857D01*
X87547270Y-60215848D01*
X87547265Y-60215851D01*
X87394129Y-60327111D01*
X87267466Y-60467785D01*
X87172821Y-60631715D01*
X87172818Y-60631722D01*
X87114327Y-60811740D01*
X87114326Y-60811744D01*
X87094540Y-61000000D01*
X74405460Y-61000000D01*
X74385674Y-60811744D01*
X74327179Y-60631716D01*
X74232533Y-60467784D01*
X74105871Y-60327112D01*
X74078199Y-60307007D01*
X73952734Y-60215851D01*
X73952729Y-60215848D01*
X73779807Y-60138857D01*
X73779802Y-60138855D01*
X73634001Y-60107865D01*
X73594646Y-60099500D01*
X73405354Y-60099500D01*
X73372897Y-60106398D01*
X73220197Y-60138855D01*
X73220192Y-60138857D01*
X73047270Y-60215848D01*
X73047265Y-60215851D01*
X72894129Y-60327111D01*
X72767466Y-60467785D01*
X72672821Y-60631715D01*
X72672818Y-60631722D01*
X72614327Y-60811740D01*
X72614326Y-60811744D01*
X72594540Y-61000000D01*
X68449896Y-61000000D01*
X68578495Y-60871401D01*
X68714035Y-60677830D01*
X68813903Y-60463663D01*
X68875063Y-60235408D01*
X68895659Y-60000000D01*
X68875063Y-59764592D01*
X68813903Y-59536337D01*
X68714035Y-59322171D01*
X68708731Y-59314595D01*
X68578494Y-59128597D01*
X68411402Y-58961506D01*
X68411396Y-58961501D01*
X68225842Y-58831575D01*
X68182217Y-58776998D01*
X68175023Y-58707500D01*
X68206546Y-58645145D01*
X68225842Y-58628425D01*
X68248026Y-58612891D01*
X68411401Y-58498495D01*
X68578495Y-58331401D01*
X68714035Y-58137830D01*
X68813903Y-57923663D01*
X68875063Y-57695408D01*
X68895659Y-57460000D01*
X68875063Y-57224592D01*
X68813903Y-56996337D01*
X68714035Y-56782171D01*
X68674106Y-56725145D01*
X68578494Y-56588597D01*
X68529896Y-56539999D01*
X95644341Y-56539999D01*
X95644341Y-56540000D01*
X95664936Y-56775403D01*
X95664938Y-56775413D01*
X95726094Y-57003655D01*
X95726096Y-57003659D01*
X95726097Y-57003663D01*
X95767333Y-57092093D01*
X95825965Y-57217830D01*
X95825967Y-57217834D01*
X95961501Y-57411395D01*
X95961506Y-57411402D01*
X96128597Y-57578493D01*
X96128603Y-57578498D01*
X96314158Y-57708425D01*
X96357783Y-57763002D01*
X96364977Y-57832500D01*
X96333454Y-57894855D01*
X96314158Y-57911575D01*
X96128597Y-58041505D01*
X95961505Y-58208597D01*
X95825965Y-58402169D01*
X95825964Y-58402171D01*
X95726098Y-58616335D01*
X95726094Y-58616344D01*
X95664938Y-58844586D01*
X95664936Y-58844596D01*
X95644341Y-59079999D01*
X95644341Y-59080000D01*
X95664936Y-59315403D01*
X95664938Y-59315413D01*
X95726094Y-59543655D01*
X95726096Y-59543659D01*
X95726097Y-59543663D01*
X95774026Y-59646447D01*
X95825965Y-59757830D01*
X95825967Y-59757834D01*
X95895403Y-59856998D01*
X95961505Y-59951401D01*
X96128599Y-60118495D01*
X96267633Y-60215848D01*
X96314594Y-60248730D01*
X96358219Y-60303307D01*
X96365413Y-60372805D01*
X96333890Y-60435160D01*
X96314595Y-60451880D01*
X96128922Y-60581890D01*
X96128920Y-60581891D01*
X95961891Y-60748920D01*
X95961886Y-60748926D01*
X95826400Y-60942420D01*
X95826399Y-60942422D01*
X95726570Y-61156507D01*
X95726567Y-61156513D01*
X95669364Y-61369999D01*
X95669364Y-61370000D01*
X96566988Y-61370000D01*
X96534075Y-61427007D01*
X96500000Y-61554174D01*
X96500000Y-61685826D01*
X96534075Y-61812993D01*
X96566988Y-61870000D01*
X95669364Y-61870000D01*
X95726567Y-62083486D01*
X95726570Y-62083492D01*
X95826399Y-62297578D01*
X95961894Y-62491082D01*
X96128917Y-62658105D01*
X96322421Y-62793600D01*
X96536507Y-62893429D01*
X96536516Y-62893433D01*
X96750000Y-62950634D01*
X96750000Y-62053012D01*
X96807007Y-62085925D01*
X96934174Y-62120000D01*
X97065826Y-62120000D01*
X97192993Y-62085925D01*
X97250000Y-62053012D01*
X97250000Y-62950633D01*
X97463483Y-62893433D01*
X97463492Y-62893429D01*
X97677578Y-62793600D01*
X97871082Y-62658105D01*
X98038105Y-62491082D01*
X98173600Y-62297578D01*
X98273429Y-62083492D01*
X98273432Y-62083486D01*
X98330636Y-61870000D01*
X97433012Y-61870000D01*
X97465925Y-61812993D01*
X97500000Y-61685826D01*
X97500000Y-61554174D01*
X97465925Y-61427007D01*
X97433012Y-61370000D01*
X98330636Y-61370000D01*
X98330635Y-61369999D01*
X98273432Y-61156513D01*
X98273429Y-61156507D01*
X98173600Y-60942422D01*
X98173599Y-60942420D01*
X98038113Y-60748926D01*
X98038108Y-60748920D01*
X97871078Y-60581890D01*
X97685405Y-60451879D01*
X97641780Y-60397302D01*
X97634588Y-60327804D01*
X97666110Y-60265449D01*
X97685406Y-60248730D01*
X97732365Y-60215849D01*
X97871401Y-60118495D01*
X98038495Y-59951401D01*
X98174035Y-59757830D01*
X98273903Y-59543663D01*
X98335063Y-59315408D01*
X98355659Y-59080000D01*
X98335063Y-58844592D01*
X98273903Y-58616337D01*
X98174035Y-58402171D01*
X98156109Y-58376569D01*
X98038494Y-58208597D01*
X97871402Y-58041506D01*
X97871396Y-58041501D01*
X97685842Y-57911575D01*
X97642217Y-57856998D01*
X97635023Y-57787500D01*
X97666546Y-57725145D01*
X97685842Y-57708425D01*
X97817357Y-57616337D01*
X97871401Y-57578495D01*
X98038495Y-57411401D01*
X98174035Y-57217830D01*
X98273903Y-57003663D01*
X98335063Y-56775408D01*
X98355659Y-56540000D01*
X98335063Y-56304592D01*
X98273903Y-56076337D01*
X98174035Y-55862171D01*
X98113283Y-55775408D01*
X98038496Y-55668600D01*
X98038495Y-55668599D01*
X97916567Y-55546671D01*
X97883084Y-55485351D01*
X97888068Y-55415659D01*
X97929939Y-55359725D01*
X97960915Y-55342810D01*
X98092331Y-55293796D01*
X98207546Y-55207546D01*
X98293796Y-55092331D01*
X98344091Y-54957483D01*
X98350500Y-54897873D01*
X98350499Y-53102128D01*
X98344091Y-53042517D01*
X98328233Y-53000000D01*
X98293797Y-52907671D01*
X98293793Y-52907664D01*
X98207547Y-52792455D01*
X98207544Y-52792452D01*
X98092335Y-52706206D01*
X98092328Y-52706202D01*
X97957482Y-52655908D01*
X97957483Y-52655908D01*
X97897883Y-52649501D01*
X97897881Y-52649500D01*
X97897873Y-52649500D01*
X97897864Y-52649500D01*
X96102129Y-52649500D01*
X96102123Y-52649501D01*
X96042516Y-52655908D01*
X95907671Y-52706202D01*
X95907664Y-52706206D01*
X95792455Y-52792452D01*
X95792452Y-52792455D01*
X95706206Y-52907664D01*
X95706202Y-52907671D01*
X95655908Y-53042517D01*
X95649501Y-53102116D01*
X95649501Y-53102123D01*
X95649500Y-53102135D01*
X95649500Y-54897870D01*
X95649501Y-54897876D01*
X95655908Y-54957483D01*
X95706202Y-55092328D01*
X95706206Y-55092335D01*
X95792452Y-55207544D01*
X95792455Y-55207547D01*
X95907664Y-55293793D01*
X95907671Y-55293797D01*
X96039081Y-55342810D01*
X96095015Y-55384681D01*
X96119432Y-55450145D01*
X96104580Y-55518418D01*
X96083430Y-55546673D01*
X95961503Y-55668600D01*
X95825965Y-55862169D01*
X95825964Y-55862171D01*
X95726098Y-56076335D01*
X95726094Y-56076344D01*
X95664938Y-56304586D01*
X95664936Y-56304596D01*
X95644341Y-56539999D01*
X68529896Y-56539999D01*
X68411402Y-56421506D01*
X68411395Y-56421501D01*
X68217834Y-56285967D01*
X68217830Y-56285965D01*
X68217828Y-56285964D01*
X68003663Y-56186097D01*
X68003659Y-56186096D01*
X68003655Y-56186094D01*
X67775413Y-56124938D01*
X67775403Y-56124936D01*
X67540001Y-56104341D01*
X67539999Y-56104341D01*
X67304596Y-56124936D01*
X67304586Y-56124938D01*
X67076344Y-56186094D01*
X67076335Y-56186098D01*
X66862171Y-56285964D01*
X66862169Y-56285965D01*
X66668600Y-56421503D01*
X66546673Y-56543430D01*
X66485350Y-56576914D01*
X66415658Y-56571930D01*
X66359725Y-56530058D01*
X66342810Y-56499081D01*
X66293797Y-56367671D01*
X66293793Y-56367664D01*
X66207547Y-56252455D01*
X66207544Y-56252452D01*
X66092335Y-56166206D01*
X66092328Y-56166202D01*
X65957482Y-56115908D01*
X65957483Y-56115908D01*
X65897883Y-56109501D01*
X65897881Y-56109500D01*
X65897873Y-56109500D01*
X65897864Y-56109500D01*
X64102129Y-56109500D01*
X64102123Y-56109501D01*
X64042516Y-56115908D01*
X63907671Y-56166202D01*
X63907664Y-56166206D01*
X63792455Y-56252452D01*
X63792452Y-56252455D01*
X63706206Y-56367664D01*
X63706202Y-56367671D01*
X63655908Y-56502517D01*
X63649501Y-56562116D01*
X63649500Y-56562135D01*
X63649500Y-58357870D01*
X63649501Y-58357876D01*
X63655908Y-58417483D01*
X63706202Y-58552328D01*
X63706206Y-58552335D01*
X63792452Y-58667544D01*
X63792455Y-58667547D01*
X63907664Y-58753793D01*
X63907671Y-58753797D01*
X63918495Y-58757834D01*
X64042517Y-58804091D01*
X64102127Y-58810500D01*
X64112684Y-58810499D01*
X64179722Y-58830179D01*
X64200371Y-58846818D01*
X64870590Y-59517037D01*
X64807007Y-59534075D01*
X64692993Y-59599901D01*
X64599901Y-59692993D01*
X64534075Y-59807007D01*
X64517037Y-59870590D01*
X63885072Y-59238625D01*
X63826401Y-59322419D01*
X63726570Y-59536507D01*
X63726566Y-59536516D01*
X63665432Y-59764673D01*
X63665430Y-59764684D01*
X63644843Y-59999998D01*
X63644843Y-60000001D01*
X63665430Y-60235315D01*
X63665432Y-60235326D01*
X63726566Y-60463483D01*
X63726570Y-60463492D01*
X63826400Y-60677579D01*
X63826402Y-60677583D01*
X63885072Y-60761373D01*
X63885073Y-60761373D01*
X64517037Y-60129409D01*
X64534075Y-60192993D01*
X64599901Y-60307007D01*
X64692993Y-60400099D01*
X64807007Y-60465925D01*
X64870590Y-60482962D01*
X64238625Y-61114925D01*
X64315031Y-61168425D01*
X64358655Y-61223002D01*
X64365848Y-61292501D01*
X64334326Y-61354855D01*
X64315029Y-61371576D01*
X64238625Y-61425072D01*
X64870590Y-62057037D01*
X64807007Y-62074075D01*
X64692993Y-62139901D01*
X64599901Y-62232993D01*
X64534075Y-62347007D01*
X64517037Y-62410590D01*
X63885072Y-61778625D01*
X63826401Y-61862419D01*
X63726570Y-62076507D01*
X63726566Y-62076516D01*
X63665432Y-62304673D01*
X63665430Y-62304684D01*
X63644843Y-62539998D01*
X63644843Y-62540001D01*
X63665430Y-62775315D01*
X63665432Y-62775326D01*
X63726566Y-63003483D01*
X63726570Y-63003492D01*
X63826400Y-63217579D01*
X63826402Y-63217583D01*
X63885072Y-63301373D01*
X63885073Y-63301373D01*
X64517037Y-62669409D01*
X64534075Y-62732993D01*
X64599901Y-62847007D01*
X64692993Y-62940099D01*
X64807007Y-63005925D01*
X64870590Y-63022962D01*
X64238625Y-63654925D01*
X64314594Y-63708119D01*
X64358219Y-63762696D01*
X64365413Y-63832194D01*
X64333890Y-63894549D01*
X64314595Y-63911269D01*
X64128594Y-64041508D01*
X63961505Y-64208597D01*
X63825965Y-64402169D01*
X63825964Y-64402171D01*
X63726098Y-64616335D01*
X63726094Y-64616344D01*
X63664938Y-64844586D01*
X63664936Y-64844596D01*
X63644341Y-65079999D01*
X53812125Y-65079999D01*
X53685842Y-64991575D01*
X53642217Y-64936998D01*
X53635023Y-64867500D01*
X53666546Y-64805145D01*
X53685842Y-64788425D01*
X53789491Y-64715849D01*
X53871401Y-64658495D01*
X54038495Y-64491401D01*
X54174035Y-64297830D01*
X54273903Y-64083663D01*
X54335063Y-63855408D01*
X54355659Y-63620000D01*
X54335063Y-63384592D01*
X54273903Y-63156337D01*
X54174035Y-62942171D01*
X54172585Y-62940099D01*
X54038494Y-62748597D01*
X53871402Y-62581506D01*
X53871396Y-62581501D01*
X53685842Y-62451575D01*
X53642217Y-62396998D01*
X53635023Y-62327500D01*
X53666546Y-62265145D01*
X53685842Y-62248425D01*
X53708026Y-62232891D01*
X53871401Y-62118495D01*
X54038495Y-61951401D01*
X54174035Y-61757830D01*
X54273903Y-61543663D01*
X54335063Y-61315408D01*
X54355659Y-61080000D01*
X54335063Y-60844592D01*
X54278024Y-60631716D01*
X54273905Y-60616344D01*
X54273904Y-60616343D01*
X54273903Y-60616337D01*
X54174035Y-60402171D01*
X54172585Y-60400099D01*
X54038494Y-60208597D01*
X53871402Y-60041506D01*
X53871396Y-60041501D01*
X53685842Y-59911575D01*
X53642217Y-59856998D01*
X53635023Y-59787500D01*
X53666546Y-59725145D01*
X53685842Y-59708425D01*
X53708026Y-59692891D01*
X53871401Y-59578495D01*
X54038495Y-59411401D01*
X54174035Y-59217830D01*
X54273903Y-59003663D01*
X54335063Y-58775408D01*
X54355659Y-58540000D01*
X54335063Y-58304592D01*
X54281493Y-58104664D01*
X54273905Y-58076344D01*
X54273904Y-58076343D01*
X54273903Y-58076337D01*
X54174035Y-57862171D01*
X54153259Y-57832500D01*
X54038496Y-57668600D01*
X53986231Y-57616335D01*
X53916179Y-57546283D01*
X53882696Y-57484963D01*
X53887680Y-57415271D01*
X53929551Y-57359337D01*
X53960529Y-57342422D01*
X54092086Y-57293354D01*
X54092093Y-57293350D01*
X54207187Y-57207190D01*
X54207190Y-57207187D01*
X54293350Y-57092093D01*
X54293354Y-57092086D01*
X54343596Y-56957379D01*
X54343598Y-56957372D01*
X54349999Y-56897844D01*
X54350000Y-56897827D01*
X54350000Y-56250000D01*
X53433012Y-56250000D01*
X53465925Y-56192993D01*
X53500000Y-56065826D01*
X53500000Y-55934174D01*
X53465925Y-55807007D01*
X53433012Y-55750000D01*
X54350000Y-55750000D01*
X54350000Y-55102172D01*
X54349999Y-55102155D01*
X54343598Y-55042627D01*
X54343596Y-55042620D01*
X54293354Y-54907913D01*
X54293350Y-54907906D01*
X54207190Y-54792812D01*
X54207187Y-54792809D01*
X54092093Y-54706649D01*
X54092086Y-54706645D01*
X53957379Y-54656403D01*
X53957372Y-54656401D01*
X53897844Y-54650000D01*
X53250000Y-54650000D01*
X53250000Y-55566988D01*
X53192993Y-55534075D01*
X53065826Y-55500000D01*
X52934174Y-55500000D01*
X52807007Y-55534075D01*
X52750000Y-55566988D01*
X52750000Y-54650000D01*
X52102155Y-54650000D01*
X52042627Y-54656401D01*
X52042620Y-54656403D01*
X51907913Y-54706645D01*
X51907906Y-54706649D01*
X51792812Y-54792809D01*
X51792809Y-54792812D01*
X51706649Y-54907906D01*
X51706645Y-54907913D01*
X51656403Y-55042620D01*
X51656401Y-55042627D01*
X51650000Y-55102155D01*
X51650000Y-55750000D01*
X52566988Y-55750000D01*
X52534075Y-55807007D01*
X52500000Y-55934174D01*
X52500000Y-56065826D01*
X52534075Y-56192993D01*
X52566988Y-56250000D01*
X51650000Y-56250000D01*
X51650000Y-56897844D01*
X51656401Y-56957372D01*
X51656403Y-56957379D01*
X51706645Y-57092086D01*
X51706649Y-57092093D01*
X51792809Y-57207187D01*
X51792812Y-57207190D01*
X51907906Y-57293350D01*
X51907913Y-57293354D01*
X52039470Y-57342421D01*
X52095403Y-57384292D01*
X52119821Y-57449756D01*
X52104970Y-57518029D01*
X52083819Y-57546284D01*
X51961503Y-57668600D01*
X51825965Y-57862169D01*
X51825964Y-57862171D01*
X51726098Y-58076335D01*
X51726094Y-58076344D01*
X51664938Y-58304586D01*
X51664936Y-58304596D01*
X51644341Y-58539999D01*
X50250500Y-58539999D01*
X50250500Y-53500000D01*
X54594540Y-53500000D01*
X54614326Y-53688256D01*
X54614327Y-53688259D01*
X54672818Y-53868277D01*
X54672821Y-53868284D01*
X54767467Y-54032216D01*
X54821595Y-54092331D01*
X54894129Y-54172888D01*
X55047265Y-54284148D01*
X55047270Y-54284151D01*
X55220192Y-54361142D01*
X55220197Y-54361144D01*
X55405354Y-54400500D01*
X55405355Y-54400500D01*
X55594644Y-54400500D01*
X55594646Y-54400500D01*
X55779803Y-54361144D01*
X55952730Y-54284151D01*
X56105871Y-54172888D01*
X56232533Y-54032216D01*
X56327179Y-53868284D01*
X56385674Y-53688256D01*
X56402180Y-53531202D01*
X56414018Y-53502429D01*
X56412506Y-53500076D01*
X56636508Y-53500076D01*
X56647477Y-53521859D01*
X56649500Y-53544167D01*
X56649500Y-53897869D01*
X56649501Y-53897876D01*
X56655908Y-53957483D01*
X56706202Y-54092328D01*
X56706206Y-54092335D01*
X56792452Y-54207544D01*
X56792455Y-54207547D01*
X56907664Y-54293793D01*
X56907671Y-54293797D01*
X57039081Y-54342810D01*
X57095015Y-54384681D01*
X57119432Y-54450145D01*
X57104580Y-54518418D01*
X57083430Y-54546673D01*
X56961503Y-54668600D01*
X56825965Y-54862169D01*
X56825964Y-54862171D01*
X56726098Y-55076335D01*
X56726094Y-55076344D01*
X56664938Y-55304586D01*
X56664936Y-55304596D01*
X56644341Y-55539999D01*
X56644341Y-55540000D01*
X56664936Y-55775403D01*
X56664938Y-55775413D01*
X56726094Y-56003655D01*
X56726096Y-56003659D01*
X56726097Y-56003663D01*
X56801891Y-56166204D01*
X56825965Y-56217830D01*
X56825967Y-56217834D01*
X56961501Y-56411395D01*
X56961506Y-56411402D01*
X57128597Y-56578493D01*
X57128603Y-56578498D01*
X57314158Y-56708425D01*
X57357783Y-56763002D01*
X57364977Y-56832500D01*
X57333454Y-56894855D01*
X57314158Y-56911575D01*
X57128597Y-57041505D01*
X56961505Y-57208597D01*
X56825965Y-57402169D01*
X56825964Y-57402171D01*
X56726098Y-57616335D01*
X56726094Y-57616344D01*
X56664938Y-57844586D01*
X56664936Y-57844596D01*
X56644341Y-58079999D01*
X56644341Y-58080000D01*
X56664936Y-58315403D01*
X56664938Y-58315413D01*
X56726094Y-58543655D01*
X56726096Y-58543659D01*
X56726097Y-58543663D01*
X56773419Y-58645145D01*
X56825965Y-58757830D01*
X56825967Y-58757834D01*
X56886712Y-58844586D01*
X56961505Y-58951401D01*
X57128599Y-59118495D01*
X57225384Y-59186265D01*
X57322165Y-59254032D01*
X57322167Y-59254033D01*
X57322170Y-59254035D01*
X57536337Y-59353903D01*
X57764592Y-59415063D01*
X57952918Y-59431539D01*
X57999999Y-59435659D01*
X58000000Y-59435659D01*
X58000001Y-59435659D01*
X58039234Y-59432226D01*
X58235408Y-59415063D01*
X58463663Y-59353903D01*
X58677830Y-59254035D01*
X58871401Y-59118495D01*
X59038495Y-58951401D01*
X59174035Y-58757830D01*
X59273903Y-58543663D01*
X59335063Y-58315408D01*
X59355659Y-58080000D01*
X59335063Y-57844592D01*
X59273903Y-57616337D01*
X59174035Y-57402171D01*
X59148684Y-57365965D01*
X59038494Y-57208597D01*
X58871402Y-57041506D01*
X58871396Y-57041501D01*
X58685842Y-56911575D01*
X58642217Y-56856998D01*
X58635023Y-56787500D01*
X58666546Y-56725145D01*
X58685842Y-56708425D01*
X58708026Y-56692891D01*
X58871401Y-56578495D01*
X59038495Y-56411401D01*
X59174035Y-56217830D01*
X59273903Y-56003663D01*
X59335063Y-55775408D01*
X59355659Y-55540000D01*
X59335063Y-55304592D01*
X59273903Y-55076337D01*
X59174035Y-54862171D01*
X59125467Y-54792809D01*
X59038496Y-54668600D01*
X59019896Y-54650000D01*
X58916567Y-54546671D01*
X58883084Y-54485351D01*
X58888068Y-54415659D01*
X58929939Y-54359725D01*
X58960915Y-54342810D01*
X59092331Y-54293796D01*
X59207546Y-54207546D01*
X59293796Y-54092331D01*
X59344091Y-53957483D01*
X59350500Y-53897873D01*
X59350499Y-52102128D01*
X59344091Y-52042517D01*
X59342810Y-52039083D01*
X59293797Y-51907671D01*
X59293793Y-51907664D01*
X59207547Y-51792455D01*
X59207544Y-51792452D01*
X59092335Y-51706206D01*
X59092328Y-51706202D01*
X58957482Y-51655908D01*
X58957483Y-51655908D01*
X58897883Y-51649501D01*
X58897881Y-51649500D01*
X58897873Y-51649500D01*
X58897864Y-51649500D01*
X57102129Y-51649500D01*
X57102123Y-51649501D01*
X57042516Y-51655908D01*
X56907671Y-51706202D01*
X56907664Y-51706206D01*
X56792455Y-51792452D01*
X56792452Y-51792455D01*
X56706206Y-51907664D01*
X56706202Y-51907671D01*
X56655908Y-52042517D01*
X56649501Y-52102116D01*
X56649501Y-52102123D01*
X56649500Y-52102135D01*
X56649500Y-53455832D01*
X56636508Y-53500076D01*
X56412506Y-53500076D01*
X56406523Y-53490767D01*
X56402181Y-53468804D01*
X56385674Y-53311744D01*
X56327179Y-53131716D01*
X56232533Y-52967784D01*
X56105871Y-52827112D01*
X56058170Y-52792455D01*
X55952734Y-52715851D01*
X55952729Y-52715848D01*
X55779807Y-52638857D01*
X55779802Y-52638855D01*
X55634001Y-52607865D01*
X55594646Y-52599500D01*
X55405354Y-52599500D01*
X55372897Y-52606398D01*
X55220197Y-52638855D01*
X55220192Y-52638857D01*
X55047270Y-52715848D01*
X55047265Y-52715851D01*
X54894129Y-52827111D01*
X54767466Y-52967785D01*
X54672821Y-53131715D01*
X54672818Y-53131722D01*
X54615865Y-53307007D01*
X54614326Y-53311744D01*
X54594540Y-53500000D01*
X50250500Y-53500000D01*
X50250500Y-50374500D01*
X50270185Y-50307461D01*
X50322989Y-50261706D01*
X50374500Y-50250500D01*
X65012292Y-50250500D01*
X65079331Y-50270185D01*
G37*
G04 #@! TD.AperFunction*
M02*
