G04 #@! TF.GenerationSoftware,KiCad,Pcbnew,8.0.2-1*
G04 #@! TF.CreationDate,2024-07-01T13:43:52+02:00*
G04 #@! TF.ProjectId,distorted_daisy,64697374-6f72-4746-9564-5f6461697379,rev?*
G04 #@! TF.SameCoordinates,Original*
G04 #@! TF.FileFunction,Legend,Top*
G04 #@! TF.FilePolarity,Positive*
%FSLAX46Y46*%
G04 Gerber Fmt 4.6, Leading zero omitted, Abs format (unit mm)*
G04 Created by KiCad (PCBNEW 8.0.2-1) date 2024-07-01 13:43:52*
%MOMM*%
%LPD*%
G01*
G04 APERTURE LIST*
G04 Aperture macros list*
%AMRoundRect*
0 Rectangle with rounded corners*
0 $1 Rounding radius*
0 $2 $3 $4 $5 $6 $7 $8 $9 X,Y pos of 4 corners*
0 Add a 4 corners polygon primitive as box body*
4,1,4,$2,$3,$4,$5,$6,$7,$8,$9,$2,$3,0*
0 Add four circle primitives for the rounded corners*
1,1,$1+$1,$2,$3*
1,1,$1+$1,$4,$5*
1,1,$1+$1,$6,$7*
1,1,$1+$1,$8,$9*
0 Add four rect primitives between the rounded corners*
20,1,$1+$1,$2,$3,$4,$5,0*
20,1,$1+$1,$4,$5,$6,$7,0*
20,1,$1+$1,$6,$7,$8,$9,0*
20,1,$1+$1,$8,$9,$2,$3,0*%
G04 Aperture macros list end*
%ADD10C,0.150000*%
%ADD11C,0.120000*%
%ADD12C,1.600000*%
%ADD13O,1.600000X1.600000*%
%ADD14R,1.100000X1.800000*%
%ADD15RoundRect,0.275000X-0.275000X-0.625000X0.275000X-0.625000X0.275000X0.625000X-0.275000X0.625000X0*%
%ADD16R,1.800000X1.800000*%
%ADD17C,1.800000*%
%ADD18R,1.830000X1.930000*%
%ADD19C,2.130000*%
%ADD20R,1.600000X1.600000*%
%ADD21C,3.200000*%
%ADD22R,2.400000X1.600000*%
%ADD23O,2.400000X1.600000*%
%ADD24O,4.000000X4.000000*%
%ADD25R,1.800000X1.100000*%
%ADD26RoundRect,0.275000X0.625000X-0.275000X0.625000X0.275000X-0.625000X0.275000X-0.625000X-0.275000X0*%
%ADD27C,2.000000*%
%ADD28R,2.200000X2.200000*%
%ADD29O,2.200000X2.200000*%
%ADD30R,1.700000X1.700000*%
%ADD31O,1.700000X1.700000*%
%ADD32R,1.200000X1.200000*%
%ADD33C,1.200000*%
%ADD34RoundRect,0.250000X-0.600000X-0.600000X0.600000X-0.600000X0.600000X0.600000X-0.600000X0.600000X0*%
%ADD35C,1.700000*%
%ADD36C,1.440000*%
G04 APERTURE END LIST*
D10*
X75869819Y-90377506D02*
X76584104Y-90377506D01*
X76584104Y-90377506D02*
X76726961Y-90425125D01*
X76726961Y-90425125D02*
X76822200Y-90520363D01*
X76822200Y-90520363D02*
X76869819Y-90663220D01*
X76869819Y-90663220D02*
X76869819Y-90758458D01*
X76869819Y-89425125D02*
X76869819Y-89901315D01*
X76869819Y-89901315D02*
X75869819Y-89901315D01*
X76774580Y-88520363D02*
X76822200Y-88567982D01*
X76822200Y-88567982D02*
X76869819Y-88710839D01*
X76869819Y-88710839D02*
X76869819Y-88806077D01*
X76869819Y-88806077D02*
X76822200Y-88948934D01*
X76822200Y-88948934D02*
X76726961Y-89044172D01*
X76726961Y-89044172D02*
X76631723Y-89091791D01*
X76631723Y-89091791D02*
X76441247Y-89139410D01*
X76441247Y-89139410D02*
X76298390Y-89139410D01*
X76298390Y-89139410D02*
X76107914Y-89091791D01*
X76107914Y-89091791D02*
X76012676Y-89044172D01*
X76012676Y-89044172D02*
X75917438Y-88948934D01*
X75917438Y-88948934D02*
X75869819Y-88806077D01*
X75869819Y-88806077D02*
X75869819Y-88710839D01*
X75869819Y-88710839D02*
X75917438Y-88567982D01*
X75917438Y-88567982D02*
X75965057Y-88520363D01*
X75869819Y-87806077D02*
X76584104Y-87806077D01*
X76584104Y-87806077D02*
X76726961Y-87853696D01*
X76726961Y-87853696D02*
X76822200Y-87948934D01*
X76822200Y-87948934D02*
X76869819Y-88091791D01*
X76869819Y-88091791D02*
X76869819Y-88187029D01*
X76869819Y-86853696D02*
X76869819Y-87329886D01*
X76869819Y-87329886D02*
X75869819Y-87329886D01*
X76774580Y-85948934D02*
X76822200Y-85996553D01*
X76822200Y-85996553D02*
X76869819Y-86139410D01*
X76869819Y-86139410D02*
X76869819Y-86234648D01*
X76869819Y-86234648D02*
X76822200Y-86377505D01*
X76822200Y-86377505D02*
X76726961Y-86472743D01*
X76726961Y-86472743D02*
X76631723Y-86520362D01*
X76631723Y-86520362D02*
X76441247Y-86567981D01*
X76441247Y-86567981D02*
X76298390Y-86567981D01*
X76298390Y-86567981D02*
X76107914Y-86520362D01*
X76107914Y-86520362D02*
X76012676Y-86472743D01*
X76012676Y-86472743D02*
X75917438Y-86377505D01*
X75917438Y-86377505D02*
X75869819Y-86234648D01*
X75869819Y-86234648D02*
X75869819Y-86139410D01*
X75869819Y-86139410D02*
X75917438Y-85996553D01*
X75917438Y-85996553D02*
X75965057Y-85948934D01*
X75869819Y-85234648D02*
X76584104Y-85234648D01*
X76584104Y-85234648D02*
X76726961Y-85282267D01*
X76726961Y-85282267D02*
X76822200Y-85377505D01*
X76822200Y-85377505D02*
X76869819Y-85520362D01*
X76869819Y-85520362D02*
X76869819Y-85615600D01*
X76869819Y-84282267D02*
X76869819Y-84758457D01*
X76869819Y-84758457D02*
X75869819Y-84758457D01*
X76774580Y-83377505D02*
X76822200Y-83425124D01*
X76822200Y-83425124D02*
X76869819Y-83567981D01*
X76869819Y-83567981D02*
X76869819Y-83663219D01*
X76869819Y-83663219D02*
X76822200Y-83806076D01*
X76822200Y-83806076D02*
X76726961Y-83901314D01*
X76726961Y-83901314D02*
X76631723Y-83948933D01*
X76631723Y-83948933D02*
X76441247Y-83996552D01*
X76441247Y-83996552D02*
X76298390Y-83996552D01*
X76298390Y-83996552D02*
X76107914Y-83948933D01*
X76107914Y-83948933D02*
X76012676Y-83901314D01*
X76012676Y-83901314D02*
X75917438Y-83806076D01*
X75917438Y-83806076D02*
X75869819Y-83663219D01*
X75869819Y-83663219D02*
X75869819Y-83567981D01*
X75869819Y-83567981D02*
X75917438Y-83425124D01*
X75917438Y-83425124D02*
X75965057Y-83377505D01*
X75869819Y-82663219D02*
X76584104Y-82663219D01*
X76584104Y-82663219D02*
X76726961Y-82710838D01*
X76726961Y-82710838D02*
X76822200Y-82806076D01*
X76822200Y-82806076D02*
X76869819Y-82948933D01*
X76869819Y-82948933D02*
X76869819Y-83044171D01*
X76869819Y-81710838D02*
X76869819Y-82187028D01*
X76869819Y-82187028D02*
X75869819Y-82187028D01*
X76774580Y-80806076D02*
X76822200Y-80853695D01*
X76822200Y-80853695D02*
X76869819Y-80996552D01*
X76869819Y-80996552D02*
X76869819Y-81091790D01*
X76869819Y-81091790D02*
X76822200Y-81234647D01*
X76822200Y-81234647D02*
X76726961Y-81329885D01*
X76726961Y-81329885D02*
X76631723Y-81377504D01*
X76631723Y-81377504D02*
X76441247Y-81425123D01*
X76441247Y-81425123D02*
X76298390Y-81425123D01*
X76298390Y-81425123D02*
X76107914Y-81377504D01*
X76107914Y-81377504D02*
X76012676Y-81329885D01*
X76012676Y-81329885D02*
X75917438Y-81234647D01*
X75917438Y-81234647D02*
X75869819Y-81091790D01*
X75869819Y-81091790D02*
X75869819Y-80996552D01*
X75869819Y-80996552D02*
X75917438Y-80853695D01*
X75917438Y-80853695D02*
X75965057Y-80806076D01*
X81250000Y-125000000D02*
X87250000Y-125000000D01*
X87250000Y-135750000D01*
X81250000Y-135750000D01*
X81250000Y-125000000D01*
X97336779Y-154169819D02*
X97336779Y-153169819D01*
X97336779Y-153169819D02*
X97574874Y-153169819D01*
X97574874Y-153169819D02*
X97717731Y-153217438D01*
X97717731Y-153217438D02*
X97812969Y-153312676D01*
X97812969Y-153312676D02*
X97860588Y-153407914D01*
X97860588Y-153407914D02*
X97908207Y-153598390D01*
X97908207Y-153598390D02*
X97908207Y-153741247D01*
X97908207Y-153741247D02*
X97860588Y-153931723D01*
X97860588Y-153931723D02*
X97812969Y-154026961D01*
X97812969Y-154026961D02*
X97717731Y-154122200D01*
X97717731Y-154122200D02*
X97574874Y-154169819D01*
X97574874Y-154169819D02*
X97336779Y-154169819D01*
X98336779Y-154169819D02*
X98336779Y-153169819D01*
X98765350Y-154122200D02*
X98908207Y-154169819D01*
X98908207Y-154169819D02*
X99146302Y-154169819D01*
X99146302Y-154169819D02*
X99241540Y-154122200D01*
X99241540Y-154122200D02*
X99289159Y-154074580D01*
X99289159Y-154074580D02*
X99336778Y-153979342D01*
X99336778Y-153979342D02*
X99336778Y-153884104D01*
X99336778Y-153884104D02*
X99289159Y-153788866D01*
X99289159Y-153788866D02*
X99241540Y-153741247D01*
X99241540Y-153741247D02*
X99146302Y-153693628D01*
X99146302Y-153693628D02*
X98955826Y-153646009D01*
X98955826Y-153646009D02*
X98860588Y-153598390D01*
X98860588Y-153598390D02*
X98812969Y-153550771D01*
X98812969Y-153550771D02*
X98765350Y-153455533D01*
X98765350Y-153455533D02*
X98765350Y-153360295D01*
X98765350Y-153360295D02*
X98812969Y-153265057D01*
X98812969Y-153265057D02*
X98860588Y-153217438D01*
X98860588Y-153217438D02*
X98955826Y-153169819D01*
X98955826Y-153169819D02*
X99193921Y-153169819D01*
X99193921Y-153169819D02*
X99336778Y-153217438D01*
X99622493Y-153169819D02*
X100193921Y-153169819D01*
X99908207Y-154169819D02*
X99908207Y-153169819D01*
X100717731Y-153169819D02*
X100908207Y-153169819D01*
X100908207Y-153169819D02*
X101003445Y-153217438D01*
X101003445Y-153217438D02*
X101098683Y-153312676D01*
X101098683Y-153312676D02*
X101146302Y-153503152D01*
X101146302Y-153503152D02*
X101146302Y-153836485D01*
X101146302Y-153836485D02*
X101098683Y-154026961D01*
X101098683Y-154026961D02*
X101003445Y-154122200D01*
X101003445Y-154122200D02*
X100908207Y-154169819D01*
X100908207Y-154169819D02*
X100717731Y-154169819D01*
X100717731Y-154169819D02*
X100622493Y-154122200D01*
X100622493Y-154122200D02*
X100527255Y-154026961D01*
X100527255Y-154026961D02*
X100479636Y-153836485D01*
X100479636Y-153836485D02*
X100479636Y-153503152D01*
X100479636Y-153503152D02*
X100527255Y-153312676D01*
X100527255Y-153312676D02*
X100622493Y-153217438D01*
X100622493Y-153217438D02*
X100717731Y-153169819D01*
X102146302Y-154169819D02*
X101812969Y-153693628D01*
X101574874Y-154169819D02*
X101574874Y-153169819D01*
X101574874Y-153169819D02*
X101955826Y-153169819D01*
X101955826Y-153169819D02*
X102051064Y-153217438D01*
X102051064Y-153217438D02*
X102098683Y-153265057D01*
X102098683Y-153265057D02*
X102146302Y-153360295D01*
X102146302Y-153360295D02*
X102146302Y-153503152D01*
X102146302Y-153503152D02*
X102098683Y-153598390D01*
X102098683Y-153598390D02*
X102051064Y-153646009D01*
X102051064Y-153646009D02*
X101955826Y-153693628D01*
X101955826Y-153693628D02*
X101574874Y-153693628D01*
X102432017Y-153169819D02*
X103003445Y-153169819D01*
X102717731Y-154169819D02*
X102717731Y-153169819D01*
X103336779Y-153646009D02*
X103670112Y-153646009D01*
X103812969Y-154169819D02*
X103336779Y-154169819D01*
X103336779Y-154169819D02*
X103336779Y-153169819D01*
X103336779Y-153169819D02*
X103812969Y-153169819D01*
X104241541Y-154169819D02*
X104241541Y-153169819D01*
X104241541Y-153169819D02*
X104479636Y-153169819D01*
X104479636Y-153169819D02*
X104622493Y-153217438D01*
X104622493Y-153217438D02*
X104717731Y-153312676D01*
X104717731Y-153312676D02*
X104765350Y-153407914D01*
X104765350Y-153407914D02*
X104812969Y-153598390D01*
X104812969Y-153598390D02*
X104812969Y-153741247D01*
X104812969Y-153741247D02*
X104765350Y-153931723D01*
X104765350Y-153931723D02*
X104717731Y-154026961D01*
X104717731Y-154026961D02*
X104622493Y-154122200D01*
X104622493Y-154122200D02*
X104479636Y-154169819D01*
X104479636Y-154169819D02*
X104241541Y-154169819D01*
X105003446Y-154265057D02*
X105765350Y-154265057D01*
X106193922Y-153169819D02*
X106384398Y-153169819D01*
X106384398Y-153169819D02*
X106479636Y-153217438D01*
X106479636Y-153217438D02*
X106574874Y-153312676D01*
X106574874Y-153312676D02*
X106622493Y-153503152D01*
X106622493Y-153503152D02*
X106622493Y-153836485D01*
X106622493Y-153836485D02*
X106574874Y-154026961D01*
X106574874Y-154026961D02*
X106479636Y-154122200D01*
X106479636Y-154122200D02*
X106384398Y-154169819D01*
X106384398Y-154169819D02*
X106193922Y-154169819D01*
X106193922Y-154169819D02*
X106098684Y-154122200D01*
X106098684Y-154122200D02*
X106003446Y-154026961D01*
X106003446Y-154026961D02*
X105955827Y-153836485D01*
X105955827Y-153836485D02*
X105955827Y-153503152D01*
X105955827Y-153503152D02*
X106003446Y-153312676D01*
X106003446Y-153312676D02*
X106098684Y-153217438D01*
X106098684Y-153217438D02*
X106193922Y-153169819D01*
X107051065Y-153169819D02*
X107051065Y-153979342D01*
X107051065Y-153979342D02*
X107098684Y-154074580D01*
X107098684Y-154074580D02*
X107146303Y-154122200D01*
X107146303Y-154122200D02*
X107241541Y-154169819D01*
X107241541Y-154169819D02*
X107432017Y-154169819D01*
X107432017Y-154169819D02*
X107527255Y-154122200D01*
X107527255Y-154122200D02*
X107574874Y-154074580D01*
X107574874Y-154074580D02*
X107622493Y-153979342D01*
X107622493Y-153979342D02*
X107622493Y-153169819D01*
X107955827Y-153169819D02*
X108527255Y-153169819D01*
X108241541Y-154169819D02*
X108241541Y-153169819D01*
X108860589Y-154169819D02*
X108860589Y-153169819D01*
X108860589Y-153169819D02*
X109241541Y-153169819D01*
X109241541Y-153169819D02*
X109336779Y-153217438D01*
X109336779Y-153217438D02*
X109384398Y-153265057D01*
X109384398Y-153265057D02*
X109432017Y-153360295D01*
X109432017Y-153360295D02*
X109432017Y-153503152D01*
X109432017Y-153503152D02*
X109384398Y-153598390D01*
X109384398Y-153598390D02*
X109336779Y-153646009D01*
X109336779Y-153646009D02*
X109241541Y-153693628D01*
X109241541Y-153693628D02*
X108860589Y-153693628D01*
X109860589Y-153169819D02*
X109860589Y-153979342D01*
X109860589Y-153979342D02*
X109908208Y-154074580D01*
X109908208Y-154074580D02*
X109955827Y-154122200D01*
X109955827Y-154122200D02*
X110051065Y-154169819D01*
X110051065Y-154169819D02*
X110241541Y-154169819D01*
X110241541Y-154169819D02*
X110336779Y-154122200D01*
X110336779Y-154122200D02*
X110384398Y-154074580D01*
X110384398Y-154074580D02*
X110432017Y-153979342D01*
X110432017Y-153979342D02*
X110432017Y-153169819D01*
X110765351Y-153169819D02*
X111336779Y-153169819D01*
X111051065Y-154169819D02*
X111051065Y-153169819D01*
X72336779Y-58988866D02*
X73098684Y-58988866D01*
X72717731Y-59369819D02*
X72717731Y-58607914D01*
X74098683Y-59369819D02*
X73527255Y-59369819D01*
X73812969Y-59369819D02*
X73812969Y-58369819D01*
X73812969Y-58369819D02*
X73717731Y-58512676D01*
X73717731Y-58512676D02*
X73622493Y-58607914D01*
X73622493Y-58607914D02*
X73527255Y-58655533D01*
X74479636Y-58465057D02*
X74527255Y-58417438D01*
X74527255Y-58417438D02*
X74622493Y-58369819D01*
X74622493Y-58369819D02*
X74860588Y-58369819D01*
X74860588Y-58369819D02*
X74955826Y-58417438D01*
X74955826Y-58417438D02*
X75003445Y-58465057D01*
X75003445Y-58465057D02*
X75051064Y-58560295D01*
X75051064Y-58560295D02*
X75051064Y-58655533D01*
X75051064Y-58655533D02*
X75003445Y-58798390D01*
X75003445Y-58798390D02*
X74432017Y-59369819D01*
X74432017Y-59369819D02*
X75051064Y-59369819D01*
X75336779Y-58369819D02*
X75670112Y-59369819D01*
X75670112Y-59369819D02*
X76003445Y-58369819D01*
X108869819Y-100663220D02*
X107869819Y-100663220D01*
X108869819Y-100187030D02*
X107869819Y-100187030D01*
X107869819Y-100187030D02*
X108869819Y-99615602D01*
X108869819Y-99615602D02*
X107869819Y-99615602D01*
X108869819Y-99139411D02*
X107869819Y-99139411D01*
X107869819Y-99139411D02*
X107869819Y-98758459D01*
X107869819Y-98758459D02*
X107917438Y-98663221D01*
X107917438Y-98663221D02*
X107965057Y-98615602D01*
X107965057Y-98615602D02*
X108060295Y-98567983D01*
X108060295Y-98567983D02*
X108203152Y-98567983D01*
X108203152Y-98567983D02*
X108298390Y-98615602D01*
X108298390Y-98615602D02*
X108346009Y-98663221D01*
X108346009Y-98663221D02*
X108393628Y-98758459D01*
X108393628Y-98758459D02*
X108393628Y-99139411D01*
X108869819Y-98139411D02*
X107869819Y-98139411D01*
X107869819Y-97663221D02*
X108679342Y-97663221D01*
X108679342Y-97663221D02*
X108774580Y-97615602D01*
X108774580Y-97615602D02*
X108822200Y-97567983D01*
X108822200Y-97567983D02*
X108869819Y-97472745D01*
X108869819Y-97472745D02*
X108869819Y-97282269D01*
X108869819Y-97282269D02*
X108822200Y-97187031D01*
X108822200Y-97187031D02*
X108774580Y-97139412D01*
X108774580Y-97139412D02*
X108679342Y-97091793D01*
X108679342Y-97091793D02*
X107869819Y-97091793D01*
X107869819Y-96758459D02*
X107869819Y-96187031D01*
X108869819Y-96472745D02*
X107869819Y-96472745D01*
X108965057Y-96091793D02*
X108965057Y-95329888D01*
X107869819Y-95187030D02*
X107869819Y-94567983D01*
X107869819Y-94567983D02*
X108250771Y-94901316D01*
X108250771Y-94901316D02*
X108250771Y-94758459D01*
X108250771Y-94758459D02*
X108298390Y-94663221D01*
X108298390Y-94663221D02*
X108346009Y-94615602D01*
X108346009Y-94615602D02*
X108441247Y-94567983D01*
X108441247Y-94567983D02*
X108679342Y-94567983D01*
X108679342Y-94567983D02*
X108774580Y-94615602D01*
X108774580Y-94615602D02*
X108822200Y-94663221D01*
X108822200Y-94663221D02*
X108869819Y-94758459D01*
X108869819Y-94758459D02*
X108869819Y-95044173D01*
X108869819Y-95044173D02*
X108822200Y-95139411D01*
X108822200Y-95139411D02*
X108774580Y-95187030D01*
X100789160Y-55584104D02*
X101265350Y-55584104D01*
X100693922Y-55869819D02*
X101027255Y-54869819D01*
X101027255Y-54869819D02*
X101360588Y-55869819D01*
X102122493Y-55822200D02*
X102027255Y-55869819D01*
X102027255Y-55869819D02*
X101836779Y-55869819D01*
X101836779Y-55869819D02*
X101741541Y-55822200D01*
X101741541Y-55822200D02*
X101693922Y-55774580D01*
X101693922Y-55774580D02*
X101646303Y-55679342D01*
X101646303Y-55679342D02*
X101646303Y-55393628D01*
X101646303Y-55393628D02*
X101693922Y-55298390D01*
X101693922Y-55298390D02*
X101741541Y-55250771D01*
X101741541Y-55250771D02*
X101836779Y-55203152D01*
X101836779Y-55203152D02*
X102027255Y-55203152D01*
X102027255Y-55203152D02*
X102122493Y-55250771D01*
X102408208Y-55203152D02*
X102789160Y-55203152D01*
X102551065Y-54869819D02*
X102551065Y-55726961D01*
X102551065Y-55726961D02*
X102598684Y-55822200D01*
X102598684Y-55822200D02*
X102693922Y-55869819D01*
X102693922Y-55869819D02*
X102789160Y-55869819D01*
X103122494Y-55869819D02*
X103122494Y-55203152D01*
X103122494Y-54869819D02*
X103074875Y-54917438D01*
X103074875Y-54917438D02*
X103122494Y-54965057D01*
X103122494Y-54965057D02*
X103170113Y-54917438D01*
X103170113Y-54917438D02*
X103122494Y-54869819D01*
X103122494Y-54869819D02*
X103122494Y-54965057D01*
X103503446Y-55203152D02*
X103741541Y-55869819D01*
X103741541Y-55869819D02*
X103979636Y-55203152D01*
X104741541Y-55822200D02*
X104646303Y-55869819D01*
X104646303Y-55869819D02*
X104455827Y-55869819D01*
X104455827Y-55869819D02*
X104360589Y-55822200D01*
X104360589Y-55822200D02*
X104312970Y-55726961D01*
X104312970Y-55726961D02*
X104312970Y-55346009D01*
X104312970Y-55346009D02*
X104360589Y-55250771D01*
X104360589Y-55250771D02*
X104455827Y-55203152D01*
X104455827Y-55203152D02*
X104646303Y-55203152D01*
X104646303Y-55203152D02*
X104741541Y-55250771D01*
X104741541Y-55250771D02*
X104789160Y-55346009D01*
X104789160Y-55346009D02*
X104789160Y-55441247D01*
X104789160Y-55441247D02*
X104312970Y-55536485D01*
X105979637Y-55869819D02*
X105979637Y-54869819D01*
X105979637Y-54869819D02*
X106312970Y-55584104D01*
X106312970Y-55584104D02*
X106646303Y-54869819D01*
X106646303Y-54869819D02*
X106646303Y-55869819D01*
X107122494Y-55869819D02*
X107122494Y-55203152D01*
X107122494Y-54869819D02*
X107074875Y-54917438D01*
X107074875Y-54917438D02*
X107122494Y-54965057D01*
X107122494Y-54965057D02*
X107170113Y-54917438D01*
X107170113Y-54917438D02*
X107122494Y-54869819D01*
X107122494Y-54869819D02*
X107122494Y-54965057D01*
X107503446Y-55869819D02*
X108027255Y-55203152D01*
X107503446Y-55203152D02*
X108027255Y-55869819D01*
X108789160Y-55822200D02*
X108693922Y-55869819D01*
X108693922Y-55869819D02*
X108503446Y-55869819D01*
X108503446Y-55869819D02*
X108408208Y-55822200D01*
X108408208Y-55822200D02*
X108360589Y-55726961D01*
X108360589Y-55726961D02*
X108360589Y-55346009D01*
X108360589Y-55346009D02*
X108408208Y-55250771D01*
X108408208Y-55250771D02*
X108503446Y-55203152D01*
X108503446Y-55203152D02*
X108693922Y-55203152D01*
X108693922Y-55203152D02*
X108789160Y-55250771D01*
X108789160Y-55250771D02*
X108836779Y-55346009D01*
X108836779Y-55346009D02*
X108836779Y-55441247D01*
X108836779Y-55441247D02*
X108360589Y-55536485D01*
X109265351Y-55869819D02*
X109265351Y-55203152D01*
X109265351Y-55393628D02*
X109312970Y-55298390D01*
X109312970Y-55298390D02*
X109360589Y-55250771D01*
X109360589Y-55250771D02*
X109455827Y-55203152D01*
X109455827Y-55203152D02*
X109551065Y-55203152D01*
X92619819Y-141687030D02*
X92619819Y-142163220D01*
X92619819Y-142163220D02*
X91619819Y-142163220D01*
X92572200Y-140972744D02*
X92619819Y-141067982D01*
X92619819Y-141067982D02*
X92619819Y-141258458D01*
X92619819Y-141258458D02*
X92572200Y-141353696D01*
X92572200Y-141353696D02*
X92476961Y-141401315D01*
X92476961Y-141401315D02*
X92096009Y-141401315D01*
X92096009Y-141401315D02*
X92000771Y-141353696D01*
X92000771Y-141353696D02*
X91953152Y-141258458D01*
X91953152Y-141258458D02*
X91953152Y-141067982D01*
X91953152Y-141067982D02*
X92000771Y-140972744D01*
X92000771Y-140972744D02*
X92096009Y-140925125D01*
X92096009Y-140925125D02*
X92191247Y-140925125D01*
X92191247Y-140925125D02*
X92286485Y-141401315D01*
X91953152Y-140496553D02*
X92619819Y-140496553D01*
X92048390Y-140496553D02*
X92000771Y-140448934D01*
X92000771Y-140448934D02*
X91953152Y-140353696D01*
X91953152Y-140353696D02*
X91953152Y-140210839D01*
X91953152Y-140210839D02*
X92000771Y-140115601D01*
X92000771Y-140115601D02*
X92096009Y-140067982D01*
X92096009Y-140067982D02*
X92619819Y-140067982D01*
X92619819Y-139591791D02*
X91953152Y-139591791D01*
X91619819Y-139591791D02*
X91667438Y-139639410D01*
X91667438Y-139639410D02*
X91715057Y-139591791D01*
X91715057Y-139591791D02*
X91667438Y-139544172D01*
X91667438Y-139544172D02*
X91619819Y-139591791D01*
X91619819Y-139591791D02*
X91715057Y-139591791D01*
X92619819Y-139115601D02*
X91953152Y-139115601D01*
X92048390Y-139115601D02*
X92000771Y-139067982D01*
X92000771Y-139067982D02*
X91953152Y-138972744D01*
X91953152Y-138972744D02*
X91953152Y-138829887D01*
X91953152Y-138829887D02*
X92000771Y-138734649D01*
X92000771Y-138734649D02*
X92096009Y-138687030D01*
X92096009Y-138687030D02*
X92619819Y-138687030D01*
X92096009Y-138687030D02*
X92000771Y-138639411D01*
X92000771Y-138639411D02*
X91953152Y-138544173D01*
X91953152Y-138544173D02*
X91953152Y-138401316D01*
X91953152Y-138401316D02*
X92000771Y-138306077D01*
X92000771Y-138306077D02*
X92096009Y-138258458D01*
X92096009Y-138258458D02*
X92619819Y-138258458D01*
X92619819Y-137353697D02*
X92096009Y-137353697D01*
X92096009Y-137353697D02*
X92000771Y-137401316D01*
X92000771Y-137401316D02*
X91953152Y-137496554D01*
X91953152Y-137496554D02*
X91953152Y-137687030D01*
X91953152Y-137687030D02*
X92000771Y-137782268D01*
X92572200Y-137353697D02*
X92619819Y-137448935D01*
X92619819Y-137448935D02*
X92619819Y-137687030D01*
X92619819Y-137687030D02*
X92572200Y-137782268D01*
X92572200Y-137782268D02*
X92476961Y-137829887D01*
X92476961Y-137829887D02*
X92381723Y-137829887D01*
X92381723Y-137829887D02*
X92286485Y-137782268D01*
X92286485Y-137782268D02*
X92238866Y-137687030D01*
X92238866Y-137687030D02*
X92238866Y-137448935D01*
X92238866Y-137448935D02*
X92191247Y-137353697D01*
X92619819Y-136734649D02*
X92572200Y-136829887D01*
X92572200Y-136829887D02*
X92476961Y-136877506D01*
X92476961Y-136877506D02*
X91619819Y-136877506D01*
X92619819Y-135591791D02*
X91619819Y-135591791D01*
X91619819Y-135591791D02*
X91619819Y-135210839D01*
X91619819Y-135210839D02*
X91667438Y-135115601D01*
X91667438Y-135115601D02*
X91715057Y-135067982D01*
X91715057Y-135067982D02*
X91810295Y-135020363D01*
X91810295Y-135020363D02*
X91953152Y-135020363D01*
X91953152Y-135020363D02*
X92048390Y-135067982D01*
X92048390Y-135067982D02*
X92096009Y-135115601D01*
X92096009Y-135115601D02*
X92143628Y-135210839D01*
X92143628Y-135210839D02*
X92143628Y-135591791D01*
X92524580Y-134020363D02*
X92572200Y-134067982D01*
X92572200Y-134067982D02*
X92619819Y-134210839D01*
X92619819Y-134210839D02*
X92619819Y-134306077D01*
X92619819Y-134306077D02*
X92572200Y-134448934D01*
X92572200Y-134448934D02*
X92476961Y-134544172D01*
X92476961Y-134544172D02*
X92381723Y-134591791D01*
X92381723Y-134591791D02*
X92191247Y-134639410D01*
X92191247Y-134639410D02*
X92048390Y-134639410D01*
X92048390Y-134639410D02*
X91857914Y-134591791D01*
X91857914Y-134591791D02*
X91762676Y-134544172D01*
X91762676Y-134544172D02*
X91667438Y-134448934D01*
X91667438Y-134448934D02*
X91619819Y-134306077D01*
X91619819Y-134306077D02*
X91619819Y-134210839D01*
X91619819Y-134210839D02*
X91667438Y-134067982D01*
X91667438Y-134067982D02*
X91715057Y-134020363D01*
X92096009Y-133258458D02*
X92143628Y-133115601D01*
X92143628Y-133115601D02*
X92191247Y-133067982D01*
X92191247Y-133067982D02*
X92286485Y-133020363D01*
X92286485Y-133020363D02*
X92429342Y-133020363D01*
X92429342Y-133020363D02*
X92524580Y-133067982D01*
X92524580Y-133067982D02*
X92572200Y-133115601D01*
X92572200Y-133115601D02*
X92619819Y-133210839D01*
X92619819Y-133210839D02*
X92619819Y-133591791D01*
X92619819Y-133591791D02*
X91619819Y-133591791D01*
X91619819Y-133591791D02*
X91619819Y-133258458D01*
X91619819Y-133258458D02*
X91667438Y-133163220D01*
X91667438Y-133163220D02*
X91715057Y-133115601D01*
X91715057Y-133115601D02*
X91810295Y-133067982D01*
X91810295Y-133067982D02*
X91905533Y-133067982D01*
X91905533Y-133067982D02*
X92000771Y-133115601D01*
X92000771Y-133115601D02*
X92048390Y-133163220D01*
X92048390Y-133163220D02*
X92096009Y-133258458D01*
X92096009Y-133258458D02*
X92096009Y-133591791D01*
X92619819Y-131829886D02*
X91619819Y-131829886D01*
X91619819Y-131829886D02*
X91619819Y-131591791D01*
X91619819Y-131591791D02*
X91667438Y-131448934D01*
X91667438Y-131448934D02*
X91762676Y-131353696D01*
X91762676Y-131353696D02*
X91857914Y-131306077D01*
X91857914Y-131306077D02*
X92048390Y-131258458D01*
X92048390Y-131258458D02*
X92191247Y-131258458D01*
X92191247Y-131258458D02*
X92381723Y-131306077D01*
X92381723Y-131306077D02*
X92476961Y-131353696D01*
X92476961Y-131353696D02*
X92572200Y-131448934D01*
X92572200Y-131448934D02*
X92619819Y-131591791D01*
X92619819Y-131591791D02*
X92619819Y-131829886D01*
X92572200Y-130448934D02*
X92619819Y-130544172D01*
X92619819Y-130544172D02*
X92619819Y-130734648D01*
X92619819Y-130734648D02*
X92572200Y-130829886D01*
X92572200Y-130829886D02*
X92476961Y-130877505D01*
X92476961Y-130877505D02*
X92096009Y-130877505D01*
X92096009Y-130877505D02*
X92000771Y-130829886D01*
X92000771Y-130829886D02*
X91953152Y-130734648D01*
X91953152Y-130734648D02*
X91953152Y-130544172D01*
X91953152Y-130544172D02*
X92000771Y-130448934D01*
X92000771Y-130448934D02*
X92096009Y-130401315D01*
X92096009Y-130401315D02*
X92191247Y-130401315D01*
X92191247Y-130401315D02*
X92286485Y-130877505D01*
X92572200Y-130020362D02*
X92619819Y-129925124D01*
X92619819Y-129925124D02*
X92619819Y-129734648D01*
X92619819Y-129734648D02*
X92572200Y-129639410D01*
X92572200Y-129639410D02*
X92476961Y-129591791D01*
X92476961Y-129591791D02*
X92429342Y-129591791D01*
X92429342Y-129591791D02*
X92334104Y-129639410D01*
X92334104Y-129639410D02*
X92286485Y-129734648D01*
X92286485Y-129734648D02*
X92286485Y-129877505D01*
X92286485Y-129877505D02*
X92238866Y-129972743D01*
X92238866Y-129972743D02*
X92143628Y-130020362D01*
X92143628Y-130020362D02*
X92096009Y-130020362D01*
X92096009Y-130020362D02*
X92000771Y-129972743D01*
X92000771Y-129972743D02*
X91953152Y-129877505D01*
X91953152Y-129877505D02*
X91953152Y-129734648D01*
X91953152Y-129734648D02*
X92000771Y-129639410D01*
X92619819Y-129163219D02*
X91953152Y-129163219D01*
X91619819Y-129163219D02*
X91667438Y-129210838D01*
X91667438Y-129210838D02*
X91715057Y-129163219D01*
X91715057Y-129163219D02*
X91667438Y-129115600D01*
X91667438Y-129115600D02*
X91619819Y-129163219D01*
X91619819Y-129163219D02*
X91715057Y-129163219D01*
X91953152Y-128258458D02*
X92762676Y-128258458D01*
X92762676Y-128258458D02*
X92857914Y-128306077D01*
X92857914Y-128306077D02*
X92905533Y-128353696D01*
X92905533Y-128353696D02*
X92953152Y-128448934D01*
X92953152Y-128448934D02*
X92953152Y-128591791D01*
X92953152Y-128591791D02*
X92905533Y-128687029D01*
X92572200Y-128258458D02*
X92619819Y-128353696D01*
X92619819Y-128353696D02*
X92619819Y-128544172D01*
X92619819Y-128544172D02*
X92572200Y-128639410D01*
X92572200Y-128639410D02*
X92524580Y-128687029D01*
X92524580Y-128687029D02*
X92429342Y-128734648D01*
X92429342Y-128734648D02*
X92143628Y-128734648D01*
X92143628Y-128734648D02*
X92048390Y-128687029D01*
X92048390Y-128687029D02*
X92000771Y-128639410D01*
X92000771Y-128639410D02*
X91953152Y-128544172D01*
X91953152Y-128544172D02*
X91953152Y-128353696D01*
X91953152Y-128353696D02*
X92000771Y-128258458D01*
X91953152Y-127782267D02*
X92619819Y-127782267D01*
X92048390Y-127782267D02*
X92000771Y-127734648D01*
X92000771Y-127734648D02*
X91953152Y-127639410D01*
X91953152Y-127639410D02*
X91953152Y-127496553D01*
X91953152Y-127496553D02*
X92000771Y-127401315D01*
X92000771Y-127401315D02*
X92096009Y-127353696D01*
X92096009Y-127353696D02*
X92619819Y-127353696D01*
X91619819Y-125925124D02*
X91619819Y-125829886D01*
X91619819Y-125829886D02*
X91667438Y-125734648D01*
X91667438Y-125734648D02*
X91715057Y-125687029D01*
X91715057Y-125687029D02*
X91810295Y-125639410D01*
X91810295Y-125639410D02*
X92000771Y-125591791D01*
X92000771Y-125591791D02*
X92238866Y-125591791D01*
X92238866Y-125591791D02*
X92429342Y-125639410D01*
X92429342Y-125639410D02*
X92524580Y-125687029D01*
X92524580Y-125687029D02*
X92572200Y-125734648D01*
X92572200Y-125734648D02*
X92619819Y-125829886D01*
X92619819Y-125829886D02*
X92619819Y-125925124D01*
X92619819Y-125925124D02*
X92572200Y-126020362D01*
X92572200Y-126020362D02*
X92524580Y-126067981D01*
X92524580Y-126067981D02*
X92429342Y-126115600D01*
X92429342Y-126115600D02*
X92238866Y-126163219D01*
X92238866Y-126163219D02*
X92000771Y-126163219D01*
X92000771Y-126163219D02*
X91810295Y-126115600D01*
X91810295Y-126115600D02*
X91715057Y-126067981D01*
X91715057Y-126067981D02*
X91667438Y-126020362D01*
X91667438Y-126020362D02*
X91619819Y-125925124D01*
X91953152Y-124734648D02*
X92619819Y-124734648D01*
X91572200Y-124972743D02*
X92286485Y-125210838D01*
X92286485Y-125210838D02*
X92286485Y-124591791D01*
X92524580Y-124210838D02*
X92572200Y-124163219D01*
X92572200Y-124163219D02*
X92619819Y-124210838D01*
X92619819Y-124210838D02*
X92572200Y-124258457D01*
X92572200Y-124258457D02*
X92524580Y-124210838D01*
X92524580Y-124210838D02*
X92619819Y-124210838D01*
X91715057Y-123782267D02*
X91667438Y-123734648D01*
X91667438Y-123734648D02*
X91619819Y-123639410D01*
X91619819Y-123639410D02*
X91619819Y-123401315D01*
X91619819Y-123401315D02*
X91667438Y-123306077D01*
X91667438Y-123306077D02*
X91715057Y-123258458D01*
X91715057Y-123258458D02*
X91810295Y-123210839D01*
X91810295Y-123210839D02*
X91905533Y-123210839D01*
X91905533Y-123210839D02*
X92048390Y-123258458D01*
X92048390Y-123258458D02*
X92619819Y-123829886D01*
X92619819Y-123829886D02*
X92619819Y-123210839D01*
X91619819Y-122591791D02*
X91619819Y-122496553D01*
X91619819Y-122496553D02*
X91667438Y-122401315D01*
X91667438Y-122401315D02*
X91715057Y-122353696D01*
X91715057Y-122353696D02*
X91810295Y-122306077D01*
X91810295Y-122306077D02*
X92000771Y-122258458D01*
X92000771Y-122258458D02*
X92238866Y-122258458D01*
X92238866Y-122258458D02*
X92429342Y-122306077D01*
X92429342Y-122306077D02*
X92524580Y-122353696D01*
X92524580Y-122353696D02*
X92572200Y-122401315D01*
X92572200Y-122401315D02*
X92619819Y-122496553D01*
X92619819Y-122496553D02*
X92619819Y-122591791D01*
X92619819Y-122591791D02*
X92572200Y-122687029D01*
X92572200Y-122687029D02*
X92524580Y-122734648D01*
X92524580Y-122734648D02*
X92429342Y-122782267D01*
X92429342Y-122782267D02*
X92238866Y-122829886D01*
X92238866Y-122829886D02*
X92000771Y-122829886D01*
X92000771Y-122829886D02*
X91810295Y-122782267D01*
X91810295Y-122782267D02*
X91715057Y-122734648D01*
X91715057Y-122734648D02*
X91667438Y-122687029D01*
X91667438Y-122687029D02*
X91619819Y-122591791D01*
X91715057Y-121877505D02*
X91667438Y-121829886D01*
X91667438Y-121829886D02*
X91619819Y-121734648D01*
X91619819Y-121734648D02*
X91619819Y-121496553D01*
X91619819Y-121496553D02*
X91667438Y-121401315D01*
X91667438Y-121401315D02*
X91715057Y-121353696D01*
X91715057Y-121353696D02*
X91810295Y-121306077D01*
X91810295Y-121306077D02*
X91905533Y-121306077D01*
X91905533Y-121306077D02*
X92048390Y-121353696D01*
X92048390Y-121353696D02*
X92619819Y-121925124D01*
X92619819Y-121925124D02*
X92619819Y-121306077D01*
X91953152Y-120448934D02*
X92619819Y-120448934D01*
X91572200Y-120687029D02*
X92286485Y-120925124D01*
X92286485Y-120925124D02*
X92286485Y-120306077D01*
X73097795Y-126710839D02*
X72564461Y-126710839D01*
X72716842Y-126710839D02*
X72640652Y-126672744D01*
X72640652Y-126672744D02*
X72602557Y-126634649D01*
X72602557Y-126634649D02*
X72564461Y-126558458D01*
X72564461Y-126558458D02*
X72564461Y-126482268D01*
X73059700Y-125910839D02*
X73097795Y-125987030D01*
X73097795Y-125987030D02*
X73097795Y-126139411D01*
X73097795Y-126139411D02*
X73059700Y-126215601D01*
X73059700Y-126215601D02*
X72983509Y-126253697D01*
X72983509Y-126253697D02*
X72678747Y-126253697D01*
X72678747Y-126253697D02*
X72602557Y-126215601D01*
X72602557Y-126215601D02*
X72564461Y-126139411D01*
X72564461Y-126139411D02*
X72564461Y-125987030D01*
X72564461Y-125987030D02*
X72602557Y-125910839D01*
X72602557Y-125910839D02*
X72678747Y-125872744D01*
X72678747Y-125872744D02*
X72754938Y-125872744D01*
X72754938Y-125872744D02*
X72831128Y-126253697D01*
X72564461Y-125606078D02*
X73097795Y-125415602D01*
X73097795Y-125415602D02*
X72564461Y-125225125D01*
X73021604Y-124920363D02*
X73059700Y-124882268D01*
X73059700Y-124882268D02*
X73097795Y-124920363D01*
X73097795Y-124920363D02*
X73059700Y-124958459D01*
X73059700Y-124958459D02*
X73021604Y-124920363D01*
X73021604Y-124920363D02*
X73097795Y-124920363D01*
X72373985Y-124577507D02*
X72335890Y-124539411D01*
X72335890Y-124539411D02*
X72297795Y-124463221D01*
X72297795Y-124463221D02*
X72297795Y-124272745D01*
X72297795Y-124272745D02*
X72335890Y-124196554D01*
X72335890Y-124196554D02*
X72373985Y-124158459D01*
X72373985Y-124158459D02*
X72450176Y-124120364D01*
X72450176Y-124120364D02*
X72526366Y-124120364D01*
X72526366Y-124120364D02*
X72640652Y-124158459D01*
X72640652Y-124158459D02*
X73097795Y-124615602D01*
X73097795Y-124615602D02*
X73097795Y-124120364D01*
X108869819Y-118413220D02*
X107869819Y-118413220D01*
X108869819Y-117937030D02*
X107869819Y-117937030D01*
X107869819Y-117937030D02*
X108869819Y-117365602D01*
X108869819Y-117365602D02*
X107869819Y-117365602D01*
X108869819Y-116889411D02*
X107869819Y-116889411D01*
X107869819Y-116889411D02*
X107869819Y-116508459D01*
X107869819Y-116508459D02*
X107917438Y-116413221D01*
X107917438Y-116413221D02*
X107965057Y-116365602D01*
X107965057Y-116365602D02*
X108060295Y-116317983D01*
X108060295Y-116317983D02*
X108203152Y-116317983D01*
X108203152Y-116317983D02*
X108298390Y-116365602D01*
X108298390Y-116365602D02*
X108346009Y-116413221D01*
X108346009Y-116413221D02*
X108393628Y-116508459D01*
X108393628Y-116508459D02*
X108393628Y-116889411D01*
X107869819Y-115889411D02*
X108679342Y-115889411D01*
X108679342Y-115889411D02*
X108774580Y-115841792D01*
X108774580Y-115841792D02*
X108822200Y-115794173D01*
X108822200Y-115794173D02*
X108869819Y-115698935D01*
X108869819Y-115698935D02*
X108869819Y-115508459D01*
X108869819Y-115508459D02*
X108822200Y-115413221D01*
X108822200Y-115413221D02*
X108774580Y-115365602D01*
X108774580Y-115365602D02*
X108679342Y-115317983D01*
X108679342Y-115317983D02*
X107869819Y-115317983D01*
X107869819Y-114984649D02*
X107869819Y-114413221D01*
X108869819Y-114698935D02*
X107869819Y-114698935D01*
X108965057Y-114317983D02*
X108965057Y-113556078D01*
X108203152Y-112889411D02*
X108869819Y-112889411D01*
X107822200Y-113127506D02*
X108536485Y-113365601D01*
X108536485Y-113365601D02*
X108536485Y-112746554D01*
X108869819Y-64163220D02*
X107869819Y-64163220D01*
X108869819Y-63687030D02*
X107869819Y-63687030D01*
X107869819Y-63687030D02*
X108869819Y-63115602D01*
X108869819Y-63115602D02*
X107869819Y-63115602D01*
X108869819Y-62639411D02*
X107869819Y-62639411D01*
X107869819Y-62639411D02*
X107869819Y-62258459D01*
X107869819Y-62258459D02*
X107917438Y-62163221D01*
X107917438Y-62163221D02*
X107965057Y-62115602D01*
X107965057Y-62115602D02*
X108060295Y-62067983D01*
X108060295Y-62067983D02*
X108203152Y-62067983D01*
X108203152Y-62067983D02*
X108298390Y-62115602D01*
X108298390Y-62115602D02*
X108346009Y-62163221D01*
X108346009Y-62163221D02*
X108393628Y-62258459D01*
X108393628Y-62258459D02*
X108393628Y-62639411D01*
X107869819Y-61639411D02*
X108679342Y-61639411D01*
X108679342Y-61639411D02*
X108774580Y-61591792D01*
X108774580Y-61591792D02*
X108822200Y-61544173D01*
X108822200Y-61544173D02*
X108869819Y-61448935D01*
X108869819Y-61448935D02*
X108869819Y-61258459D01*
X108869819Y-61258459D02*
X108822200Y-61163221D01*
X108822200Y-61163221D02*
X108774580Y-61115602D01*
X108774580Y-61115602D02*
X108679342Y-61067983D01*
X108679342Y-61067983D02*
X107869819Y-61067983D01*
X107869819Y-60734649D02*
X107869819Y-60163221D01*
X108869819Y-60448935D02*
X107869819Y-60448935D01*
X108965057Y-60067983D02*
X108965057Y-59306078D01*
X108869819Y-58544173D02*
X108869819Y-59115601D01*
X108869819Y-58829887D02*
X107869819Y-58829887D01*
X107869819Y-58829887D02*
X108012676Y-58925125D01*
X108012676Y-58925125D02*
X108107914Y-59020363D01*
X108107914Y-59020363D02*
X108155533Y-59115601D01*
X118789160Y-55394295D02*
X118789160Y-54860961D01*
X118789160Y-55013342D02*
X118827255Y-54937152D01*
X118827255Y-54937152D02*
X118865350Y-54899057D01*
X118865350Y-54899057D02*
X118941541Y-54860961D01*
X118941541Y-54860961D02*
X119017731Y-54860961D01*
X119589160Y-55356200D02*
X119512969Y-55394295D01*
X119512969Y-55394295D02*
X119360588Y-55394295D01*
X119360588Y-55394295D02*
X119284398Y-55356200D01*
X119284398Y-55356200D02*
X119246302Y-55280009D01*
X119246302Y-55280009D02*
X119246302Y-54975247D01*
X119246302Y-54975247D02*
X119284398Y-54899057D01*
X119284398Y-54899057D02*
X119360588Y-54860961D01*
X119360588Y-54860961D02*
X119512969Y-54860961D01*
X119512969Y-54860961D02*
X119589160Y-54899057D01*
X119589160Y-54899057D02*
X119627255Y-54975247D01*
X119627255Y-54975247D02*
X119627255Y-55051438D01*
X119627255Y-55051438D02*
X119246302Y-55127628D01*
X119893921Y-54860961D02*
X120084397Y-55394295D01*
X120084397Y-55394295D02*
X120274874Y-54860961D01*
X120579636Y-55318104D02*
X120617731Y-55356200D01*
X120617731Y-55356200D02*
X120579636Y-55394295D01*
X120579636Y-55394295D02*
X120541540Y-55356200D01*
X120541540Y-55356200D02*
X120579636Y-55318104D01*
X120579636Y-55318104D02*
X120579636Y-55394295D01*
X120922492Y-54670485D02*
X120960588Y-54632390D01*
X120960588Y-54632390D02*
X121036778Y-54594295D01*
X121036778Y-54594295D02*
X121227254Y-54594295D01*
X121227254Y-54594295D02*
X121303445Y-54632390D01*
X121303445Y-54632390D02*
X121341540Y-54670485D01*
X121341540Y-54670485D02*
X121379635Y-54746676D01*
X121379635Y-54746676D02*
X121379635Y-54822866D01*
X121379635Y-54822866D02*
X121341540Y-54937152D01*
X121341540Y-54937152D02*
X120884397Y-55394295D01*
X120884397Y-55394295D02*
X121379635Y-55394295D01*
X73610588Y-62917438D02*
X73515350Y-62869819D01*
X73515350Y-62869819D02*
X73372493Y-62869819D01*
X73372493Y-62869819D02*
X73229636Y-62917438D01*
X73229636Y-62917438D02*
X73134398Y-63012676D01*
X73134398Y-63012676D02*
X73086779Y-63107914D01*
X73086779Y-63107914D02*
X73039160Y-63298390D01*
X73039160Y-63298390D02*
X73039160Y-63441247D01*
X73039160Y-63441247D02*
X73086779Y-63631723D01*
X73086779Y-63631723D02*
X73134398Y-63726961D01*
X73134398Y-63726961D02*
X73229636Y-63822200D01*
X73229636Y-63822200D02*
X73372493Y-63869819D01*
X73372493Y-63869819D02*
X73467731Y-63869819D01*
X73467731Y-63869819D02*
X73610588Y-63822200D01*
X73610588Y-63822200D02*
X73658207Y-63774580D01*
X73658207Y-63774580D02*
X73658207Y-63441247D01*
X73658207Y-63441247D02*
X73467731Y-63441247D01*
X74086779Y-63869819D02*
X74086779Y-62869819D01*
X74086779Y-62869819D02*
X74658207Y-63869819D01*
X74658207Y-63869819D02*
X74658207Y-62869819D01*
X75134398Y-63869819D02*
X75134398Y-62869819D01*
X75134398Y-62869819D02*
X75372493Y-62869819D01*
X75372493Y-62869819D02*
X75515350Y-62917438D01*
X75515350Y-62917438D02*
X75610588Y-63012676D01*
X75610588Y-63012676D02*
X75658207Y-63107914D01*
X75658207Y-63107914D02*
X75705826Y-63298390D01*
X75705826Y-63298390D02*
X75705826Y-63441247D01*
X75705826Y-63441247D02*
X75658207Y-63631723D01*
X75658207Y-63631723D02*
X75610588Y-63726961D01*
X75610588Y-63726961D02*
X75515350Y-63822200D01*
X75515350Y-63822200D02*
X75372493Y-63869819D01*
X75372493Y-63869819D02*
X75134398Y-63869819D01*
X108869819Y-82413220D02*
X107869819Y-82413220D01*
X108869819Y-81937030D02*
X107869819Y-81937030D01*
X107869819Y-81937030D02*
X108869819Y-81365602D01*
X108869819Y-81365602D02*
X107869819Y-81365602D01*
X108869819Y-80889411D02*
X107869819Y-80889411D01*
X107869819Y-80889411D02*
X107869819Y-80508459D01*
X107869819Y-80508459D02*
X107917438Y-80413221D01*
X107917438Y-80413221D02*
X107965057Y-80365602D01*
X107965057Y-80365602D02*
X108060295Y-80317983D01*
X108060295Y-80317983D02*
X108203152Y-80317983D01*
X108203152Y-80317983D02*
X108298390Y-80365602D01*
X108298390Y-80365602D02*
X108346009Y-80413221D01*
X108346009Y-80413221D02*
X108393628Y-80508459D01*
X108393628Y-80508459D02*
X108393628Y-80889411D01*
X107869819Y-79889411D02*
X108679342Y-79889411D01*
X108679342Y-79889411D02*
X108774580Y-79841792D01*
X108774580Y-79841792D02*
X108822200Y-79794173D01*
X108822200Y-79794173D02*
X108869819Y-79698935D01*
X108869819Y-79698935D02*
X108869819Y-79508459D01*
X108869819Y-79508459D02*
X108822200Y-79413221D01*
X108822200Y-79413221D02*
X108774580Y-79365602D01*
X108774580Y-79365602D02*
X108679342Y-79317983D01*
X108679342Y-79317983D02*
X107869819Y-79317983D01*
X107869819Y-78984649D02*
X107869819Y-78413221D01*
X108869819Y-78698935D02*
X107869819Y-78698935D01*
X108965057Y-78317983D02*
X108965057Y-77556078D01*
X107965057Y-77365601D02*
X107917438Y-77317982D01*
X107917438Y-77317982D02*
X107869819Y-77222744D01*
X107869819Y-77222744D02*
X107869819Y-76984649D01*
X107869819Y-76984649D02*
X107917438Y-76889411D01*
X107917438Y-76889411D02*
X107965057Y-76841792D01*
X107965057Y-76841792D02*
X108060295Y-76794173D01*
X108060295Y-76794173D02*
X108155533Y-76794173D01*
X108155533Y-76794173D02*
X108298390Y-76841792D01*
X108298390Y-76841792D02*
X108869819Y-77413220D01*
X108869819Y-77413220D02*
X108869819Y-76794173D01*
X51619819Y-153187030D02*
X51619819Y-153663220D01*
X51619819Y-153663220D02*
X50619819Y-153663220D01*
X51572200Y-152472744D02*
X51619819Y-152567982D01*
X51619819Y-152567982D02*
X51619819Y-152758458D01*
X51619819Y-152758458D02*
X51572200Y-152853696D01*
X51572200Y-152853696D02*
X51476961Y-152901315D01*
X51476961Y-152901315D02*
X51096009Y-152901315D01*
X51096009Y-152901315D02*
X51000771Y-152853696D01*
X51000771Y-152853696D02*
X50953152Y-152758458D01*
X50953152Y-152758458D02*
X50953152Y-152567982D01*
X50953152Y-152567982D02*
X51000771Y-152472744D01*
X51000771Y-152472744D02*
X51096009Y-152425125D01*
X51096009Y-152425125D02*
X51191247Y-152425125D01*
X51191247Y-152425125D02*
X51286485Y-152901315D01*
X50953152Y-151996553D02*
X51619819Y-151996553D01*
X51048390Y-151996553D02*
X51000771Y-151948934D01*
X51000771Y-151948934D02*
X50953152Y-151853696D01*
X50953152Y-151853696D02*
X50953152Y-151710839D01*
X50953152Y-151710839D02*
X51000771Y-151615601D01*
X51000771Y-151615601D02*
X51096009Y-151567982D01*
X51096009Y-151567982D02*
X51619819Y-151567982D01*
X51619819Y-151091791D02*
X50953152Y-151091791D01*
X50619819Y-151091791D02*
X50667438Y-151139410D01*
X50667438Y-151139410D02*
X50715057Y-151091791D01*
X50715057Y-151091791D02*
X50667438Y-151044172D01*
X50667438Y-151044172D02*
X50619819Y-151091791D01*
X50619819Y-151091791D02*
X50715057Y-151091791D01*
X51619819Y-150615601D02*
X50953152Y-150615601D01*
X51048390Y-150615601D02*
X51000771Y-150567982D01*
X51000771Y-150567982D02*
X50953152Y-150472744D01*
X50953152Y-150472744D02*
X50953152Y-150329887D01*
X50953152Y-150329887D02*
X51000771Y-150234649D01*
X51000771Y-150234649D02*
X51096009Y-150187030D01*
X51096009Y-150187030D02*
X51619819Y-150187030D01*
X51096009Y-150187030D02*
X51000771Y-150139411D01*
X51000771Y-150139411D02*
X50953152Y-150044173D01*
X50953152Y-150044173D02*
X50953152Y-149901316D01*
X50953152Y-149901316D02*
X51000771Y-149806077D01*
X51000771Y-149806077D02*
X51096009Y-149758458D01*
X51096009Y-149758458D02*
X51619819Y-149758458D01*
X51619819Y-148853697D02*
X51096009Y-148853697D01*
X51096009Y-148853697D02*
X51000771Y-148901316D01*
X51000771Y-148901316D02*
X50953152Y-148996554D01*
X50953152Y-148996554D02*
X50953152Y-149187030D01*
X50953152Y-149187030D02*
X51000771Y-149282268D01*
X51572200Y-148853697D02*
X51619819Y-148948935D01*
X51619819Y-148948935D02*
X51619819Y-149187030D01*
X51619819Y-149187030D02*
X51572200Y-149282268D01*
X51572200Y-149282268D02*
X51476961Y-149329887D01*
X51476961Y-149329887D02*
X51381723Y-149329887D01*
X51381723Y-149329887D02*
X51286485Y-149282268D01*
X51286485Y-149282268D02*
X51238866Y-149187030D01*
X51238866Y-149187030D02*
X51238866Y-148948935D01*
X51238866Y-148948935D02*
X51191247Y-148853697D01*
X51619819Y-148234649D02*
X51572200Y-148329887D01*
X51572200Y-148329887D02*
X51476961Y-148377506D01*
X51476961Y-148377506D02*
X50619819Y-148377506D01*
X51619819Y-147091791D02*
X50619819Y-147091791D01*
X50619819Y-147091791D02*
X50619819Y-146710839D01*
X50619819Y-146710839D02*
X50667438Y-146615601D01*
X50667438Y-146615601D02*
X50715057Y-146567982D01*
X50715057Y-146567982D02*
X50810295Y-146520363D01*
X50810295Y-146520363D02*
X50953152Y-146520363D01*
X50953152Y-146520363D02*
X51048390Y-146567982D01*
X51048390Y-146567982D02*
X51096009Y-146615601D01*
X51096009Y-146615601D02*
X51143628Y-146710839D01*
X51143628Y-146710839D02*
X51143628Y-147091791D01*
X51524580Y-145520363D02*
X51572200Y-145567982D01*
X51572200Y-145567982D02*
X51619819Y-145710839D01*
X51619819Y-145710839D02*
X51619819Y-145806077D01*
X51619819Y-145806077D02*
X51572200Y-145948934D01*
X51572200Y-145948934D02*
X51476961Y-146044172D01*
X51476961Y-146044172D02*
X51381723Y-146091791D01*
X51381723Y-146091791D02*
X51191247Y-146139410D01*
X51191247Y-146139410D02*
X51048390Y-146139410D01*
X51048390Y-146139410D02*
X50857914Y-146091791D01*
X50857914Y-146091791D02*
X50762676Y-146044172D01*
X50762676Y-146044172D02*
X50667438Y-145948934D01*
X50667438Y-145948934D02*
X50619819Y-145806077D01*
X50619819Y-145806077D02*
X50619819Y-145710839D01*
X50619819Y-145710839D02*
X50667438Y-145567982D01*
X50667438Y-145567982D02*
X50715057Y-145520363D01*
X51096009Y-144758458D02*
X51143628Y-144615601D01*
X51143628Y-144615601D02*
X51191247Y-144567982D01*
X51191247Y-144567982D02*
X51286485Y-144520363D01*
X51286485Y-144520363D02*
X51429342Y-144520363D01*
X51429342Y-144520363D02*
X51524580Y-144567982D01*
X51524580Y-144567982D02*
X51572200Y-144615601D01*
X51572200Y-144615601D02*
X51619819Y-144710839D01*
X51619819Y-144710839D02*
X51619819Y-145091791D01*
X51619819Y-145091791D02*
X50619819Y-145091791D01*
X50619819Y-145091791D02*
X50619819Y-144758458D01*
X50619819Y-144758458D02*
X50667438Y-144663220D01*
X50667438Y-144663220D02*
X50715057Y-144615601D01*
X50715057Y-144615601D02*
X50810295Y-144567982D01*
X50810295Y-144567982D02*
X50905533Y-144567982D01*
X50905533Y-144567982D02*
X51000771Y-144615601D01*
X51000771Y-144615601D02*
X51048390Y-144663220D01*
X51048390Y-144663220D02*
X51096009Y-144758458D01*
X51096009Y-144758458D02*
X51096009Y-145091791D01*
X51619819Y-143329886D02*
X50619819Y-143329886D01*
X50619819Y-143329886D02*
X50619819Y-143091791D01*
X50619819Y-143091791D02*
X50667438Y-142948934D01*
X50667438Y-142948934D02*
X50762676Y-142853696D01*
X50762676Y-142853696D02*
X50857914Y-142806077D01*
X50857914Y-142806077D02*
X51048390Y-142758458D01*
X51048390Y-142758458D02*
X51191247Y-142758458D01*
X51191247Y-142758458D02*
X51381723Y-142806077D01*
X51381723Y-142806077D02*
X51476961Y-142853696D01*
X51476961Y-142853696D02*
X51572200Y-142948934D01*
X51572200Y-142948934D02*
X51619819Y-143091791D01*
X51619819Y-143091791D02*
X51619819Y-143329886D01*
X51572200Y-141948934D02*
X51619819Y-142044172D01*
X51619819Y-142044172D02*
X51619819Y-142234648D01*
X51619819Y-142234648D02*
X51572200Y-142329886D01*
X51572200Y-142329886D02*
X51476961Y-142377505D01*
X51476961Y-142377505D02*
X51096009Y-142377505D01*
X51096009Y-142377505D02*
X51000771Y-142329886D01*
X51000771Y-142329886D02*
X50953152Y-142234648D01*
X50953152Y-142234648D02*
X50953152Y-142044172D01*
X50953152Y-142044172D02*
X51000771Y-141948934D01*
X51000771Y-141948934D02*
X51096009Y-141901315D01*
X51096009Y-141901315D02*
X51191247Y-141901315D01*
X51191247Y-141901315D02*
X51286485Y-142377505D01*
X51572200Y-141520362D02*
X51619819Y-141425124D01*
X51619819Y-141425124D02*
X51619819Y-141234648D01*
X51619819Y-141234648D02*
X51572200Y-141139410D01*
X51572200Y-141139410D02*
X51476961Y-141091791D01*
X51476961Y-141091791D02*
X51429342Y-141091791D01*
X51429342Y-141091791D02*
X51334104Y-141139410D01*
X51334104Y-141139410D02*
X51286485Y-141234648D01*
X51286485Y-141234648D02*
X51286485Y-141377505D01*
X51286485Y-141377505D02*
X51238866Y-141472743D01*
X51238866Y-141472743D02*
X51143628Y-141520362D01*
X51143628Y-141520362D02*
X51096009Y-141520362D01*
X51096009Y-141520362D02*
X51000771Y-141472743D01*
X51000771Y-141472743D02*
X50953152Y-141377505D01*
X50953152Y-141377505D02*
X50953152Y-141234648D01*
X50953152Y-141234648D02*
X51000771Y-141139410D01*
X51619819Y-140663219D02*
X50953152Y-140663219D01*
X50619819Y-140663219D02*
X50667438Y-140710838D01*
X50667438Y-140710838D02*
X50715057Y-140663219D01*
X50715057Y-140663219D02*
X50667438Y-140615600D01*
X50667438Y-140615600D02*
X50619819Y-140663219D01*
X50619819Y-140663219D02*
X50715057Y-140663219D01*
X50953152Y-139758458D02*
X51762676Y-139758458D01*
X51762676Y-139758458D02*
X51857914Y-139806077D01*
X51857914Y-139806077D02*
X51905533Y-139853696D01*
X51905533Y-139853696D02*
X51953152Y-139948934D01*
X51953152Y-139948934D02*
X51953152Y-140091791D01*
X51953152Y-140091791D02*
X51905533Y-140187029D01*
X51572200Y-139758458D02*
X51619819Y-139853696D01*
X51619819Y-139853696D02*
X51619819Y-140044172D01*
X51619819Y-140044172D02*
X51572200Y-140139410D01*
X51572200Y-140139410D02*
X51524580Y-140187029D01*
X51524580Y-140187029D02*
X51429342Y-140234648D01*
X51429342Y-140234648D02*
X51143628Y-140234648D01*
X51143628Y-140234648D02*
X51048390Y-140187029D01*
X51048390Y-140187029D02*
X51000771Y-140139410D01*
X51000771Y-140139410D02*
X50953152Y-140044172D01*
X50953152Y-140044172D02*
X50953152Y-139853696D01*
X50953152Y-139853696D02*
X51000771Y-139758458D01*
X50953152Y-139282267D02*
X51619819Y-139282267D01*
X51048390Y-139282267D02*
X51000771Y-139234648D01*
X51000771Y-139234648D02*
X50953152Y-139139410D01*
X50953152Y-139139410D02*
X50953152Y-138996553D01*
X50953152Y-138996553D02*
X51000771Y-138901315D01*
X51000771Y-138901315D02*
X51096009Y-138853696D01*
X51096009Y-138853696D02*
X51619819Y-138853696D01*
X50619819Y-137425124D02*
X50619819Y-137329886D01*
X50619819Y-137329886D02*
X50667438Y-137234648D01*
X50667438Y-137234648D02*
X50715057Y-137187029D01*
X50715057Y-137187029D02*
X50810295Y-137139410D01*
X50810295Y-137139410D02*
X51000771Y-137091791D01*
X51000771Y-137091791D02*
X51238866Y-137091791D01*
X51238866Y-137091791D02*
X51429342Y-137139410D01*
X51429342Y-137139410D02*
X51524580Y-137187029D01*
X51524580Y-137187029D02*
X51572200Y-137234648D01*
X51572200Y-137234648D02*
X51619819Y-137329886D01*
X51619819Y-137329886D02*
X51619819Y-137425124D01*
X51619819Y-137425124D02*
X51572200Y-137520362D01*
X51572200Y-137520362D02*
X51524580Y-137567981D01*
X51524580Y-137567981D02*
X51429342Y-137615600D01*
X51429342Y-137615600D02*
X51238866Y-137663219D01*
X51238866Y-137663219D02*
X51000771Y-137663219D01*
X51000771Y-137663219D02*
X50810295Y-137615600D01*
X50810295Y-137615600D02*
X50715057Y-137567981D01*
X50715057Y-137567981D02*
X50667438Y-137520362D01*
X50667438Y-137520362D02*
X50619819Y-137425124D01*
X50953152Y-136234648D02*
X51619819Y-136234648D01*
X50572200Y-136472743D02*
X51286485Y-136710838D01*
X51286485Y-136710838D02*
X51286485Y-136091791D01*
X51524580Y-135710838D02*
X51572200Y-135663219D01*
X51572200Y-135663219D02*
X51619819Y-135710838D01*
X51619819Y-135710838D02*
X51572200Y-135758457D01*
X51572200Y-135758457D02*
X51524580Y-135710838D01*
X51524580Y-135710838D02*
X51619819Y-135710838D01*
X50715057Y-135282267D02*
X50667438Y-135234648D01*
X50667438Y-135234648D02*
X50619819Y-135139410D01*
X50619819Y-135139410D02*
X50619819Y-134901315D01*
X50619819Y-134901315D02*
X50667438Y-134806077D01*
X50667438Y-134806077D02*
X50715057Y-134758458D01*
X50715057Y-134758458D02*
X50810295Y-134710839D01*
X50810295Y-134710839D02*
X50905533Y-134710839D01*
X50905533Y-134710839D02*
X51048390Y-134758458D01*
X51048390Y-134758458D02*
X51619819Y-135329886D01*
X51619819Y-135329886D02*
X51619819Y-134710839D01*
X50619819Y-134091791D02*
X50619819Y-133996553D01*
X50619819Y-133996553D02*
X50667438Y-133901315D01*
X50667438Y-133901315D02*
X50715057Y-133853696D01*
X50715057Y-133853696D02*
X50810295Y-133806077D01*
X50810295Y-133806077D02*
X51000771Y-133758458D01*
X51000771Y-133758458D02*
X51238866Y-133758458D01*
X51238866Y-133758458D02*
X51429342Y-133806077D01*
X51429342Y-133806077D02*
X51524580Y-133853696D01*
X51524580Y-133853696D02*
X51572200Y-133901315D01*
X51572200Y-133901315D02*
X51619819Y-133996553D01*
X51619819Y-133996553D02*
X51619819Y-134091791D01*
X51619819Y-134091791D02*
X51572200Y-134187029D01*
X51572200Y-134187029D02*
X51524580Y-134234648D01*
X51524580Y-134234648D02*
X51429342Y-134282267D01*
X51429342Y-134282267D02*
X51238866Y-134329886D01*
X51238866Y-134329886D02*
X51000771Y-134329886D01*
X51000771Y-134329886D02*
X50810295Y-134282267D01*
X50810295Y-134282267D02*
X50715057Y-134234648D01*
X50715057Y-134234648D02*
X50667438Y-134187029D01*
X50667438Y-134187029D02*
X50619819Y-134091791D01*
X50715057Y-133377505D02*
X50667438Y-133329886D01*
X50667438Y-133329886D02*
X50619819Y-133234648D01*
X50619819Y-133234648D02*
X50619819Y-132996553D01*
X50619819Y-132996553D02*
X50667438Y-132901315D01*
X50667438Y-132901315D02*
X50715057Y-132853696D01*
X50715057Y-132853696D02*
X50810295Y-132806077D01*
X50810295Y-132806077D02*
X50905533Y-132806077D01*
X50905533Y-132806077D02*
X51048390Y-132853696D01*
X51048390Y-132853696D02*
X51619819Y-133425124D01*
X51619819Y-133425124D02*
X51619819Y-132806077D01*
X50953152Y-131948934D02*
X51619819Y-131948934D01*
X50572200Y-132187029D02*
X51286485Y-132425124D01*
X51286485Y-132425124D02*
X51286485Y-131806077D01*
X73287604Y-144710839D02*
X73287604Y-144234649D01*
X73573319Y-144806077D02*
X72573319Y-144472744D01*
X72573319Y-144472744D02*
X73573319Y-144139411D01*
X73525700Y-143377506D02*
X73573319Y-143472744D01*
X73573319Y-143472744D02*
X73573319Y-143663220D01*
X73573319Y-143663220D02*
X73525700Y-143758458D01*
X73525700Y-143758458D02*
X73478080Y-143806077D01*
X73478080Y-143806077D02*
X73382842Y-143853696D01*
X73382842Y-143853696D02*
X73097128Y-143853696D01*
X73097128Y-143853696D02*
X73001890Y-143806077D01*
X73001890Y-143806077D02*
X72954271Y-143758458D01*
X72954271Y-143758458D02*
X72906652Y-143663220D01*
X72906652Y-143663220D02*
X72906652Y-143472744D01*
X72906652Y-143472744D02*
X72954271Y-143377506D01*
X72906652Y-143091791D02*
X72906652Y-142710839D01*
X72573319Y-142948934D02*
X73430461Y-142948934D01*
X73430461Y-142948934D02*
X73525700Y-142901315D01*
X73525700Y-142901315D02*
X73573319Y-142806077D01*
X73573319Y-142806077D02*
X73573319Y-142710839D01*
X73573319Y-142377505D02*
X72906652Y-142377505D01*
X72573319Y-142377505D02*
X72620938Y-142425124D01*
X72620938Y-142425124D02*
X72668557Y-142377505D01*
X72668557Y-142377505D02*
X72620938Y-142329886D01*
X72620938Y-142329886D02*
X72573319Y-142377505D01*
X72573319Y-142377505D02*
X72668557Y-142377505D01*
X72906652Y-141996553D02*
X73573319Y-141758458D01*
X73573319Y-141758458D02*
X72906652Y-141520363D01*
X73525700Y-140758458D02*
X73573319Y-140853696D01*
X73573319Y-140853696D02*
X73573319Y-141044172D01*
X73573319Y-141044172D02*
X73525700Y-141139410D01*
X73525700Y-141139410D02*
X73430461Y-141187029D01*
X73430461Y-141187029D02*
X73049509Y-141187029D01*
X73049509Y-141187029D02*
X72954271Y-141139410D01*
X72954271Y-141139410D02*
X72906652Y-141044172D01*
X72906652Y-141044172D02*
X72906652Y-140853696D01*
X72906652Y-140853696D02*
X72954271Y-140758458D01*
X72954271Y-140758458D02*
X73049509Y-140710839D01*
X73049509Y-140710839D02*
X73144747Y-140710839D01*
X73144747Y-140710839D02*
X73239985Y-141187029D01*
X73573319Y-139520362D02*
X72573319Y-139520362D01*
X72573319Y-139520362D02*
X73287604Y-139187029D01*
X73287604Y-139187029D02*
X72573319Y-138853696D01*
X72573319Y-138853696D02*
X73573319Y-138853696D01*
X73573319Y-138377505D02*
X72906652Y-138377505D01*
X72573319Y-138377505D02*
X72620938Y-138425124D01*
X72620938Y-138425124D02*
X72668557Y-138377505D01*
X72668557Y-138377505D02*
X72620938Y-138329886D01*
X72620938Y-138329886D02*
X72573319Y-138377505D01*
X72573319Y-138377505D02*
X72668557Y-138377505D01*
X73573319Y-137996553D02*
X72906652Y-137472744D01*
X72906652Y-137996553D02*
X73573319Y-137472744D01*
X73525700Y-136710839D02*
X73573319Y-136806077D01*
X73573319Y-136806077D02*
X73573319Y-136996553D01*
X73573319Y-136996553D02*
X73525700Y-137091791D01*
X73525700Y-137091791D02*
X73430461Y-137139410D01*
X73430461Y-137139410D02*
X73049509Y-137139410D01*
X73049509Y-137139410D02*
X72954271Y-137091791D01*
X72954271Y-137091791D02*
X72906652Y-136996553D01*
X72906652Y-136996553D02*
X72906652Y-136806077D01*
X72906652Y-136806077D02*
X72954271Y-136710839D01*
X72954271Y-136710839D02*
X73049509Y-136663220D01*
X73049509Y-136663220D02*
X73144747Y-136663220D01*
X73144747Y-136663220D02*
X73239985Y-137139410D01*
X73573319Y-136234648D02*
X72906652Y-136234648D01*
X73097128Y-136234648D02*
X73001890Y-136187029D01*
X73001890Y-136187029D02*
X72954271Y-136139410D01*
X72954271Y-136139410D02*
X72906652Y-136044172D01*
X72906652Y-136044172D02*
X72906652Y-135948934D01*
X100824874Y-54247438D02*
X100824874Y-52247438D01*
X100824874Y-52247438D02*
X101301064Y-52247438D01*
X101301064Y-52247438D02*
X101586779Y-52342676D01*
X101586779Y-52342676D02*
X101777255Y-52533152D01*
X101777255Y-52533152D02*
X101872493Y-52723628D01*
X101872493Y-52723628D02*
X101967731Y-53104580D01*
X101967731Y-53104580D02*
X101967731Y-53390295D01*
X101967731Y-53390295D02*
X101872493Y-53771247D01*
X101872493Y-53771247D02*
X101777255Y-53961723D01*
X101777255Y-53961723D02*
X101586779Y-54152200D01*
X101586779Y-54152200D02*
X101301064Y-54247438D01*
X101301064Y-54247438D02*
X100824874Y-54247438D01*
X102824874Y-54247438D02*
X102824874Y-52914104D01*
X102824874Y-52247438D02*
X102729636Y-52342676D01*
X102729636Y-52342676D02*
X102824874Y-52437914D01*
X102824874Y-52437914D02*
X102920112Y-52342676D01*
X102920112Y-52342676D02*
X102824874Y-52247438D01*
X102824874Y-52247438D02*
X102824874Y-52437914D01*
X103682017Y-54152200D02*
X103872493Y-54247438D01*
X103872493Y-54247438D02*
X104253445Y-54247438D01*
X104253445Y-54247438D02*
X104443922Y-54152200D01*
X104443922Y-54152200D02*
X104539160Y-53961723D01*
X104539160Y-53961723D02*
X104539160Y-53866485D01*
X104539160Y-53866485D02*
X104443922Y-53676009D01*
X104443922Y-53676009D02*
X104253445Y-53580771D01*
X104253445Y-53580771D02*
X103967731Y-53580771D01*
X103967731Y-53580771D02*
X103777255Y-53485533D01*
X103777255Y-53485533D02*
X103682017Y-53295057D01*
X103682017Y-53295057D02*
X103682017Y-53199819D01*
X103682017Y-53199819D02*
X103777255Y-53009342D01*
X103777255Y-53009342D02*
X103967731Y-52914104D01*
X103967731Y-52914104D02*
X104253445Y-52914104D01*
X104253445Y-52914104D02*
X104443922Y-53009342D01*
X105110589Y-52914104D02*
X105872493Y-52914104D01*
X105396303Y-52247438D02*
X105396303Y-53961723D01*
X105396303Y-53961723D02*
X105491541Y-54152200D01*
X105491541Y-54152200D02*
X105682017Y-54247438D01*
X105682017Y-54247438D02*
X105872493Y-54247438D01*
X106824874Y-54247438D02*
X106634398Y-54152200D01*
X106634398Y-54152200D02*
X106539160Y-54056961D01*
X106539160Y-54056961D02*
X106443922Y-53866485D01*
X106443922Y-53866485D02*
X106443922Y-53295057D01*
X106443922Y-53295057D02*
X106539160Y-53104580D01*
X106539160Y-53104580D02*
X106634398Y-53009342D01*
X106634398Y-53009342D02*
X106824874Y-52914104D01*
X106824874Y-52914104D02*
X107110589Y-52914104D01*
X107110589Y-52914104D02*
X107301065Y-53009342D01*
X107301065Y-53009342D02*
X107396303Y-53104580D01*
X107396303Y-53104580D02*
X107491541Y-53295057D01*
X107491541Y-53295057D02*
X107491541Y-53866485D01*
X107491541Y-53866485D02*
X107396303Y-54056961D01*
X107396303Y-54056961D02*
X107301065Y-54152200D01*
X107301065Y-54152200D02*
X107110589Y-54247438D01*
X107110589Y-54247438D02*
X106824874Y-54247438D01*
X108348684Y-54247438D02*
X108348684Y-52914104D01*
X108348684Y-53295057D02*
X108443922Y-53104580D01*
X108443922Y-53104580D02*
X108539160Y-53009342D01*
X108539160Y-53009342D02*
X108729636Y-52914104D01*
X108729636Y-52914104D02*
X108920113Y-52914104D01*
X109301065Y-52914104D02*
X110062969Y-52914104D01*
X109586779Y-52247438D02*
X109586779Y-53961723D01*
X109586779Y-53961723D02*
X109682017Y-54152200D01*
X109682017Y-54152200D02*
X109872493Y-54247438D01*
X109872493Y-54247438D02*
X110062969Y-54247438D01*
X111491541Y-54152200D02*
X111301065Y-54247438D01*
X111301065Y-54247438D02*
X110920112Y-54247438D01*
X110920112Y-54247438D02*
X110729636Y-54152200D01*
X110729636Y-54152200D02*
X110634398Y-53961723D01*
X110634398Y-53961723D02*
X110634398Y-53199819D01*
X110634398Y-53199819D02*
X110729636Y-53009342D01*
X110729636Y-53009342D02*
X110920112Y-52914104D01*
X110920112Y-52914104D02*
X111301065Y-52914104D01*
X111301065Y-52914104D02*
X111491541Y-53009342D01*
X111491541Y-53009342D02*
X111586779Y-53199819D01*
X111586779Y-53199819D02*
X111586779Y-53390295D01*
X111586779Y-53390295D02*
X110634398Y-53580771D01*
X113301065Y-54247438D02*
X113301065Y-52247438D01*
X113301065Y-54152200D02*
X113110589Y-54247438D01*
X113110589Y-54247438D02*
X112729636Y-54247438D01*
X112729636Y-54247438D02*
X112539160Y-54152200D01*
X112539160Y-54152200D02*
X112443922Y-54056961D01*
X112443922Y-54056961D02*
X112348684Y-53866485D01*
X112348684Y-53866485D02*
X112348684Y-53295057D01*
X112348684Y-53295057D02*
X112443922Y-53104580D01*
X112443922Y-53104580D02*
X112539160Y-53009342D01*
X112539160Y-53009342D02*
X112729636Y-52914104D01*
X112729636Y-52914104D02*
X113110589Y-52914104D01*
X113110589Y-52914104D02*
X113301065Y-53009342D01*
X115777256Y-54247438D02*
X115777256Y-52247438D01*
X115777256Y-52247438D02*
X116253446Y-52247438D01*
X116253446Y-52247438D02*
X116539161Y-52342676D01*
X116539161Y-52342676D02*
X116729637Y-52533152D01*
X116729637Y-52533152D02*
X116824875Y-52723628D01*
X116824875Y-52723628D02*
X116920113Y-53104580D01*
X116920113Y-53104580D02*
X116920113Y-53390295D01*
X116920113Y-53390295D02*
X116824875Y-53771247D01*
X116824875Y-53771247D02*
X116729637Y-53961723D01*
X116729637Y-53961723D02*
X116539161Y-54152200D01*
X116539161Y-54152200D02*
X116253446Y-54247438D01*
X116253446Y-54247438D02*
X115777256Y-54247438D01*
X118634399Y-54247438D02*
X118634399Y-53199819D01*
X118634399Y-53199819D02*
X118539161Y-53009342D01*
X118539161Y-53009342D02*
X118348685Y-52914104D01*
X118348685Y-52914104D02*
X117967732Y-52914104D01*
X117967732Y-52914104D02*
X117777256Y-53009342D01*
X118634399Y-54152200D02*
X118443923Y-54247438D01*
X118443923Y-54247438D02*
X117967732Y-54247438D01*
X117967732Y-54247438D02*
X117777256Y-54152200D01*
X117777256Y-54152200D02*
X117682018Y-53961723D01*
X117682018Y-53961723D02*
X117682018Y-53771247D01*
X117682018Y-53771247D02*
X117777256Y-53580771D01*
X117777256Y-53580771D02*
X117967732Y-53485533D01*
X117967732Y-53485533D02*
X118443923Y-53485533D01*
X118443923Y-53485533D02*
X118634399Y-53390295D01*
X119586780Y-54247438D02*
X119586780Y-52914104D01*
X119586780Y-52247438D02*
X119491542Y-52342676D01*
X119491542Y-52342676D02*
X119586780Y-52437914D01*
X119586780Y-52437914D02*
X119682018Y-52342676D01*
X119682018Y-52342676D02*
X119586780Y-52247438D01*
X119586780Y-52247438D02*
X119586780Y-52437914D01*
X120443923Y-54152200D02*
X120634399Y-54247438D01*
X120634399Y-54247438D02*
X121015351Y-54247438D01*
X121015351Y-54247438D02*
X121205828Y-54152200D01*
X121205828Y-54152200D02*
X121301066Y-53961723D01*
X121301066Y-53961723D02*
X121301066Y-53866485D01*
X121301066Y-53866485D02*
X121205828Y-53676009D01*
X121205828Y-53676009D02*
X121015351Y-53580771D01*
X121015351Y-53580771D02*
X120729637Y-53580771D01*
X120729637Y-53580771D02*
X120539161Y-53485533D01*
X120539161Y-53485533D02*
X120443923Y-53295057D01*
X120443923Y-53295057D02*
X120443923Y-53199819D01*
X120443923Y-53199819D02*
X120539161Y-53009342D01*
X120539161Y-53009342D02*
X120729637Y-52914104D01*
X120729637Y-52914104D02*
X121015351Y-52914104D01*
X121015351Y-52914104D02*
X121205828Y-53009342D01*
X121967733Y-52914104D02*
X122443923Y-54247438D01*
X122920114Y-52914104D02*
X122443923Y-54247438D01*
X122443923Y-54247438D02*
X122253447Y-54723628D01*
X122253447Y-54723628D02*
X122158209Y-54818866D01*
X122158209Y-54818866D02*
X121967733Y-54914104D01*
X72336779Y-68238866D02*
X73098684Y-68238866D01*
X74098683Y-68619819D02*
X73527255Y-68619819D01*
X73812969Y-68619819D02*
X73812969Y-67619819D01*
X73812969Y-67619819D02*
X73717731Y-67762676D01*
X73717731Y-67762676D02*
X73622493Y-67857914D01*
X73622493Y-67857914D02*
X73527255Y-67905533D01*
X74479636Y-67715057D02*
X74527255Y-67667438D01*
X74527255Y-67667438D02*
X74622493Y-67619819D01*
X74622493Y-67619819D02*
X74860588Y-67619819D01*
X74860588Y-67619819D02*
X74955826Y-67667438D01*
X74955826Y-67667438D02*
X75003445Y-67715057D01*
X75003445Y-67715057D02*
X75051064Y-67810295D01*
X75051064Y-67810295D02*
X75051064Y-67905533D01*
X75051064Y-67905533D02*
X75003445Y-68048390D01*
X75003445Y-68048390D02*
X74432017Y-68619819D01*
X74432017Y-68619819D02*
X75051064Y-68619819D01*
X75336779Y-67619819D02*
X75670112Y-68619819D01*
X75670112Y-68619819D02*
X76003445Y-67619819D01*
X71950938Y-144675125D02*
X69950938Y-144675125D01*
X69950938Y-144675125D02*
X69950938Y-144198935D01*
X69950938Y-144198935D02*
X70046176Y-143913220D01*
X70046176Y-143913220D02*
X70236652Y-143722744D01*
X70236652Y-143722744D02*
X70427128Y-143627506D01*
X70427128Y-143627506D02*
X70808080Y-143532268D01*
X70808080Y-143532268D02*
X71093795Y-143532268D01*
X71093795Y-143532268D02*
X71474747Y-143627506D01*
X71474747Y-143627506D02*
X71665223Y-143722744D01*
X71665223Y-143722744D02*
X71855700Y-143913220D01*
X71855700Y-143913220D02*
X71950938Y-144198935D01*
X71950938Y-144198935D02*
X71950938Y-144675125D01*
X71950938Y-142675125D02*
X70617604Y-142675125D01*
X69950938Y-142675125D02*
X70046176Y-142770363D01*
X70046176Y-142770363D02*
X70141414Y-142675125D01*
X70141414Y-142675125D02*
X70046176Y-142579887D01*
X70046176Y-142579887D02*
X69950938Y-142675125D01*
X69950938Y-142675125D02*
X70141414Y-142675125D01*
X71855700Y-141817982D02*
X71950938Y-141627506D01*
X71950938Y-141627506D02*
X71950938Y-141246554D01*
X71950938Y-141246554D02*
X71855700Y-141056077D01*
X71855700Y-141056077D02*
X71665223Y-140960839D01*
X71665223Y-140960839D02*
X71569985Y-140960839D01*
X71569985Y-140960839D02*
X71379509Y-141056077D01*
X71379509Y-141056077D02*
X71284271Y-141246554D01*
X71284271Y-141246554D02*
X71284271Y-141532268D01*
X71284271Y-141532268D02*
X71189033Y-141722744D01*
X71189033Y-141722744D02*
X70998557Y-141817982D01*
X70998557Y-141817982D02*
X70903319Y-141817982D01*
X70903319Y-141817982D02*
X70712842Y-141722744D01*
X70712842Y-141722744D02*
X70617604Y-141532268D01*
X70617604Y-141532268D02*
X70617604Y-141246554D01*
X70617604Y-141246554D02*
X70712842Y-141056077D01*
X70617604Y-140389410D02*
X70617604Y-139627506D01*
X69950938Y-140103696D02*
X71665223Y-140103696D01*
X71665223Y-140103696D02*
X71855700Y-140008458D01*
X71855700Y-140008458D02*
X71950938Y-139817982D01*
X71950938Y-139817982D02*
X71950938Y-139627506D01*
X71950938Y-138675125D02*
X71855700Y-138865601D01*
X71855700Y-138865601D02*
X71760461Y-138960839D01*
X71760461Y-138960839D02*
X71569985Y-139056077D01*
X71569985Y-139056077D02*
X70998557Y-139056077D01*
X70998557Y-139056077D02*
X70808080Y-138960839D01*
X70808080Y-138960839D02*
X70712842Y-138865601D01*
X70712842Y-138865601D02*
X70617604Y-138675125D01*
X70617604Y-138675125D02*
X70617604Y-138389410D01*
X70617604Y-138389410D02*
X70712842Y-138198934D01*
X70712842Y-138198934D02*
X70808080Y-138103696D01*
X70808080Y-138103696D02*
X70998557Y-138008458D01*
X70998557Y-138008458D02*
X71569985Y-138008458D01*
X71569985Y-138008458D02*
X71760461Y-138103696D01*
X71760461Y-138103696D02*
X71855700Y-138198934D01*
X71855700Y-138198934D02*
X71950938Y-138389410D01*
X71950938Y-138389410D02*
X71950938Y-138675125D01*
X71950938Y-137151315D02*
X70617604Y-137151315D01*
X70998557Y-137151315D02*
X70808080Y-137056077D01*
X70808080Y-137056077D02*
X70712842Y-136960839D01*
X70712842Y-136960839D02*
X70617604Y-136770363D01*
X70617604Y-136770363D02*
X70617604Y-136579886D01*
X70617604Y-136198934D02*
X70617604Y-135437030D01*
X69950938Y-135913220D02*
X71665223Y-135913220D01*
X71665223Y-135913220D02*
X71855700Y-135817982D01*
X71855700Y-135817982D02*
X71950938Y-135627506D01*
X71950938Y-135627506D02*
X71950938Y-135437030D01*
X71855700Y-134008458D02*
X71950938Y-134198934D01*
X71950938Y-134198934D02*
X71950938Y-134579887D01*
X71950938Y-134579887D02*
X71855700Y-134770363D01*
X71855700Y-134770363D02*
X71665223Y-134865601D01*
X71665223Y-134865601D02*
X70903319Y-134865601D01*
X70903319Y-134865601D02*
X70712842Y-134770363D01*
X70712842Y-134770363D02*
X70617604Y-134579887D01*
X70617604Y-134579887D02*
X70617604Y-134198934D01*
X70617604Y-134198934D02*
X70712842Y-134008458D01*
X70712842Y-134008458D02*
X70903319Y-133913220D01*
X70903319Y-133913220D02*
X71093795Y-133913220D01*
X71093795Y-133913220D02*
X71284271Y-134865601D01*
X71950938Y-132198934D02*
X69950938Y-132198934D01*
X71855700Y-132198934D02*
X71950938Y-132389410D01*
X71950938Y-132389410D02*
X71950938Y-132770363D01*
X71950938Y-132770363D02*
X71855700Y-132960839D01*
X71855700Y-132960839D02*
X71760461Y-133056077D01*
X71760461Y-133056077D02*
X71569985Y-133151315D01*
X71569985Y-133151315D02*
X70998557Y-133151315D01*
X70998557Y-133151315D02*
X70808080Y-133056077D01*
X70808080Y-133056077D02*
X70712842Y-132960839D01*
X70712842Y-132960839D02*
X70617604Y-132770363D01*
X70617604Y-132770363D02*
X70617604Y-132389410D01*
X70617604Y-132389410D02*
X70712842Y-132198934D01*
X71950938Y-129722743D02*
X69950938Y-129722743D01*
X69950938Y-129722743D02*
X69950938Y-129246553D01*
X69950938Y-129246553D02*
X70046176Y-128960838D01*
X70046176Y-128960838D02*
X70236652Y-128770362D01*
X70236652Y-128770362D02*
X70427128Y-128675124D01*
X70427128Y-128675124D02*
X70808080Y-128579886D01*
X70808080Y-128579886D02*
X71093795Y-128579886D01*
X71093795Y-128579886D02*
X71474747Y-128675124D01*
X71474747Y-128675124D02*
X71665223Y-128770362D01*
X71665223Y-128770362D02*
X71855700Y-128960838D01*
X71855700Y-128960838D02*
X71950938Y-129246553D01*
X71950938Y-129246553D02*
X71950938Y-129722743D01*
X71950938Y-126865600D02*
X70903319Y-126865600D01*
X70903319Y-126865600D02*
X70712842Y-126960838D01*
X70712842Y-126960838D02*
X70617604Y-127151314D01*
X70617604Y-127151314D02*
X70617604Y-127532267D01*
X70617604Y-127532267D02*
X70712842Y-127722743D01*
X71855700Y-126865600D02*
X71950938Y-127056076D01*
X71950938Y-127056076D02*
X71950938Y-127532267D01*
X71950938Y-127532267D02*
X71855700Y-127722743D01*
X71855700Y-127722743D02*
X71665223Y-127817981D01*
X71665223Y-127817981D02*
X71474747Y-127817981D01*
X71474747Y-127817981D02*
X71284271Y-127722743D01*
X71284271Y-127722743D02*
X71189033Y-127532267D01*
X71189033Y-127532267D02*
X71189033Y-127056076D01*
X71189033Y-127056076D02*
X71093795Y-126865600D01*
X71950938Y-125913219D02*
X70617604Y-125913219D01*
X69950938Y-125913219D02*
X70046176Y-126008457D01*
X70046176Y-126008457D02*
X70141414Y-125913219D01*
X70141414Y-125913219D02*
X70046176Y-125817981D01*
X70046176Y-125817981D02*
X69950938Y-125913219D01*
X69950938Y-125913219D02*
X70141414Y-125913219D01*
X71855700Y-125056076D02*
X71950938Y-124865600D01*
X71950938Y-124865600D02*
X71950938Y-124484648D01*
X71950938Y-124484648D02*
X71855700Y-124294171D01*
X71855700Y-124294171D02*
X71665223Y-124198933D01*
X71665223Y-124198933D02*
X71569985Y-124198933D01*
X71569985Y-124198933D02*
X71379509Y-124294171D01*
X71379509Y-124294171D02*
X71284271Y-124484648D01*
X71284271Y-124484648D02*
X71284271Y-124770362D01*
X71284271Y-124770362D02*
X71189033Y-124960838D01*
X71189033Y-124960838D02*
X70998557Y-125056076D01*
X70998557Y-125056076D02*
X70903319Y-125056076D01*
X70903319Y-125056076D02*
X70712842Y-124960838D01*
X70712842Y-124960838D02*
X70617604Y-124770362D01*
X70617604Y-124770362D02*
X70617604Y-124484648D01*
X70617604Y-124484648D02*
X70712842Y-124294171D01*
X70617604Y-123532266D02*
X71950938Y-123056076D01*
X70617604Y-122579885D02*
X71950938Y-123056076D01*
X71950938Y-123056076D02*
X72427128Y-123246552D01*
X72427128Y-123246552D02*
X72522366Y-123341790D01*
X72522366Y-123341790D02*
X72617604Y-123532266D01*
X80619819Y-138663220D02*
X79619819Y-138663220D01*
X79619819Y-138663220D02*
X79619819Y-138425125D01*
X79619819Y-138425125D02*
X79667438Y-138282268D01*
X79667438Y-138282268D02*
X79762676Y-138187030D01*
X79762676Y-138187030D02*
X79857914Y-138139411D01*
X79857914Y-138139411D02*
X80048390Y-138091792D01*
X80048390Y-138091792D02*
X80191247Y-138091792D01*
X80191247Y-138091792D02*
X80381723Y-138139411D01*
X80381723Y-138139411D02*
X80476961Y-138187030D01*
X80476961Y-138187030D02*
X80572200Y-138282268D01*
X80572200Y-138282268D02*
X80619819Y-138425125D01*
X80619819Y-138425125D02*
X80619819Y-138663220D01*
X80619819Y-137663220D02*
X79953152Y-137663220D01*
X79619819Y-137663220D02*
X79667438Y-137710839D01*
X79667438Y-137710839D02*
X79715057Y-137663220D01*
X79715057Y-137663220D02*
X79667438Y-137615601D01*
X79667438Y-137615601D02*
X79619819Y-137663220D01*
X79619819Y-137663220D02*
X79715057Y-137663220D01*
X80619819Y-137044173D02*
X80572200Y-137139411D01*
X80572200Y-137139411D02*
X80524580Y-137187030D01*
X80524580Y-137187030D02*
X80429342Y-137234649D01*
X80429342Y-137234649D02*
X80143628Y-137234649D01*
X80143628Y-137234649D02*
X80048390Y-137187030D01*
X80048390Y-137187030D02*
X80000771Y-137139411D01*
X80000771Y-137139411D02*
X79953152Y-137044173D01*
X79953152Y-137044173D02*
X79953152Y-136901316D01*
X79953152Y-136901316D02*
X80000771Y-136806078D01*
X80000771Y-136806078D02*
X80048390Y-136758459D01*
X80048390Y-136758459D02*
X80143628Y-136710840D01*
X80143628Y-136710840D02*
X80429342Y-136710840D01*
X80429342Y-136710840D02*
X80524580Y-136758459D01*
X80524580Y-136758459D02*
X80572200Y-136806078D01*
X80572200Y-136806078D02*
X80619819Y-136901316D01*
X80619819Y-136901316D02*
X80619819Y-137044173D01*
X80619819Y-135853697D02*
X79619819Y-135853697D01*
X80572200Y-135853697D02*
X80619819Y-135948935D01*
X80619819Y-135948935D02*
X80619819Y-136139411D01*
X80619819Y-136139411D02*
X80572200Y-136234649D01*
X80572200Y-136234649D02*
X80524580Y-136282268D01*
X80524580Y-136282268D02*
X80429342Y-136329887D01*
X80429342Y-136329887D02*
X80143628Y-136329887D01*
X80143628Y-136329887D02*
X80048390Y-136282268D01*
X80048390Y-136282268D02*
X80000771Y-136234649D01*
X80000771Y-136234649D02*
X79953152Y-136139411D01*
X79953152Y-136139411D02*
X79953152Y-135948935D01*
X79953152Y-135948935D02*
X80000771Y-135853697D01*
X80572200Y-134996554D02*
X80619819Y-135091792D01*
X80619819Y-135091792D02*
X80619819Y-135282268D01*
X80619819Y-135282268D02*
X80572200Y-135377506D01*
X80572200Y-135377506D02*
X80476961Y-135425125D01*
X80476961Y-135425125D02*
X80096009Y-135425125D01*
X80096009Y-135425125D02*
X80000771Y-135377506D01*
X80000771Y-135377506D02*
X79953152Y-135282268D01*
X79953152Y-135282268D02*
X79953152Y-135091792D01*
X79953152Y-135091792D02*
X80000771Y-134996554D01*
X80000771Y-134996554D02*
X80096009Y-134948935D01*
X80096009Y-134948935D02*
X80191247Y-134948935D01*
X80191247Y-134948935D02*
X80286485Y-135425125D01*
X80619819Y-133758458D02*
X79619819Y-133758458D01*
X79619819Y-133758458D02*
X79619819Y-133520363D01*
X79619819Y-133520363D02*
X79667438Y-133377506D01*
X79667438Y-133377506D02*
X79762676Y-133282268D01*
X79762676Y-133282268D02*
X79857914Y-133234649D01*
X79857914Y-133234649D02*
X80048390Y-133187030D01*
X80048390Y-133187030D02*
X80191247Y-133187030D01*
X80191247Y-133187030D02*
X80381723Y-133234649D01*
X80381723Y-133234649D02*
X80476961Y-133282268D01*
X80476961Y-133282268D02*
X80572200Y-133377506D01*
X80572200Y-133377506D02*
X80619819Y-133520363D01*
X80619819Y-133520363D02*
X80619819Y-133758458D01*
X80619819Y-132758458D02*
X79953152Y-132758458D01*
X79619819Y-132758458D02*
X79667438Y-132806077D01*
X79667438Y-132806077D02*
X79715057Y-132758458D01*
X79715057Y-132758458D02*
X79667438Y-132710839D01*
X79667438Y-132710839D02*
X79619819Y-132758458D01*
X79619819Y-132758458D02*
X79715057Y-132758458D01*
X80572200Y-132329887D02*
X80619819Y-132234649D01*
X80619819Y-132234649D02*
X80619819Y-132044173D01*
X80619819Y-132044173D02*
X80572200Y-131948935D01*
X80572200Y-131948935D02*
X80476961Y-131901316D01*
X80476961Y-131901316D02*
X80429342Y-131901316D01*
X80429342Y-131901316D02*
X80334104Y-131948935D01*
X80334104Y-131948935D02*
X80286485Y-132044173D01*
X80286485Y-132044173D02*
X80286485Y-132187030D01*
X80286485Y-132187030D02*
X80238866Y-132282268D01*
X80238866Y-132282268D02*
X80143628Y-132329887D01*
X80143628Y-132329887D02*
X80096009Y-132329887D01*
X80096009Y-132329887D02*
X80000771Y-132282268D01*
X80000771Y-132282268D02*
X79953152Y-132187030D01*
X79953152Y-132187030D02*
X79953152Y-132044173D01*
X79953152Y-132044173D02*
X80000771Y-131948935D01*
X79953152Y-131615601D02*
X79953152Y-131234649D01*
X79619819Y-131472744D02*
X80476961Y-131472744D01*
X80476961Y-131472744D02*
X80572200Y-131425125D01*
X80572200Y-131425125D02*
X80619819Y-131329887D01*
X80619819Y-131329887D02*
X80619819Y-131234649D01*
X80619819Y-130758458D02*
X80572200Y-130853696D01*
X80572200Y-130853696D02*
X80524580Y-130901315D01*
X80524580Y-130901315D02*
X80429342Y-130948934D01*
X80429342Y-130948934D02*
X80143628Y-130948934D01*
X80143628Y-130948934D02*
X80048390Y-130901315D01*
X80048390Y-130901315D02*
X80000771Y-130853696D01*
X80000771Y-130853696D02*
X79953152Y-130758458D01*
X79953152Y-130758458D02*
X79953152Y-130615601D01*
X79953152Y-130615601D02*
X80000771Y-130520363D01*
X80000771Y-130520363D02*
X80048390Y-130472744D01*
X80048390Y-130472744D02*
X80143628Y-130425125D01*
X80143628Y-130425125D02*
X80429342Y-130425125D01*
X80429342Y-130425125D02*
X80524580Y-130472744D01*
X80524580Y-130472744D02*
X80572200Y-130520363D01*
X80572200Y-130520363D02*
X80619819Y-130615601D01*
X80619819Y-130615601D02*
X80619819Y-130758458D01*
X80619819Y-129996553D02*
X79953152Y-129996553D01*
X80143628Y-129996553D02*
X80048390Y-129948934D01*
X80048390Y-129948934D02*
X80000771Y-129901315D01*
X80000771Y-129901315D02*
X79953152Y-129806077D01*
X79953152Y-129806077D02*
X79953152Y-129710839D01*
X79953152Y-129520362D02*
X79953152Y-129139410D01*
X79619819Y-129377505D02*
X80476961Y-129377505D01*
X80476961Y-129377505D02*
X80572200Y-129329886D01*
X80572200Y-129329886D02*
X80619819Y-129234648D01*
X80619819Y-129234648D02*
X80619819Y-129139410D01*
X80619819Y-128806076D02*
X79953152Y-128806076D01*
X79619819Y-128806076D02*
X79667438Y-128853695D01*
X79667438Y-128853695D02*
X79715057Y-128806076D01*
X79715057Y-128806076D02*
X79667438Y-128758457D01*
X79667438Y-128758457D02*
X79619819Y-128806076D01*
X79619819Y-128806076D02*
X79715057Y-128806076D01*
X80619819Y-128187029D02*
X80572200Y-128282267D01*
X80572200Y-128282267D02*
X80524580Y-128329886D01*
X80524580Y-128329886D02*
X80429342Y-128377505D01*
X80429342Y-128377505D02*
X80143628Y-128377505D01*
X80143628Y-128377505D02*
X80048390Y-128329886D01*
X80048390Y-128329886D02*
X80000771Y-128282267D01*
X80000771Y-128282267D02*
X79953152Y-128187029D01*
X79953152Y-128187029D02*
X79953152Y-128044172D01*
X79953152Y-128044172D02*
X80000771Y-127948934D01*
X80000771Y-127948934D02*
X80048390Y-127901315D01*
X80048390Y-127901315D02*
X80143628Y-127853696D01*
X80143628Y-127853696D02*
X80429342Y-127853696D01*
X80429342Y-127853696D02*
X80524580Y-127901315D01*
X80524580Y-127901315D02*
X80572200Y-127948934D01*
X80572200Y-127948934D02*
X80619819Y-128044172D01*
X80619819Y-128044172D02*
X80619819Y-128187029D01*
X79953152Y-127425124D02*
X80619819Y-127425124D01*
X80048390Y-127425124D02*
X80000771Y-127377505D01*
X80000771Y-127377505D02*
X79953152Y-127282267D01*
X79953152Y-127282267D02*
X79953152Y-127139410D01*
X79953152Y-127139410D02*
X80000771Y-127044172D01*
X80000771Y-127044172D02*
X80096009Y-126996553D01*
X80096009Y-126996553D02*
X80619819Y-126996553D01*
X80096009Y-125425124D02*
X80143628Y-125282267D01*
X80143628Y-125282267D02*
X80191247Y-125234648D01*
X80191247Y-125234648D02*
X80286485Y-125187029D01*
X80286485Y-125187029D02*
X80429342Y-125187029D01*
X80429342Y-125187029D02*
X80524580Y-125234648D01*
X80524580Y-125234648D02*
X80572200Y-125282267D01*
X80572200Y-125282267D02*
X80619819Y-125377505D01*
X80619819Y-125377505D02*
X80619819Y-125758457D01*
X80619819Y-125758457D02*
X79619819Y-125758457D01*
X79619819Y-125758457D02*
X79619819Y-125425124D01*
X79619819Y-125425124D02*
X79667438Y-125329886D01*
X79667438Y-125329886D02*
X79715057Y-125282267D01*
X79715057Y-125282267D02*
X79810295Y-125234648D01*
X79810295Y-125234648D02*
X79905533Y-125234648D01*
X79905533Y-125234648D02*
X80000771Y-125282267D01*
X80000771Y-125282267D02*
X80048390Y-125329886D01*
X80048390Y-125329886D02*
X80096009Y-125425124D01*
X80096009Y-125425124D02*
X80096009Y-125758457D01*
X80619819Y-124615600D02*
X80572200Y-124710838D01*
X80572200Y-124710838D02*
X80524580Y-124758457D01*
X80524580Y-124758457D02*
X80429342Y-124806076D01*
X80429342Y-124806076D02*
X80143628Y-124806076D01*
X80143628Y-124806076D02*
X80048390Y-124758457D01*
X80048390Y-124758457D02*
X80000771Y-124710838D01*
X80000771Y-124710838D02*
X79953152Y-124615600D01*
X79953152Y-124615600D02*
X79953152Y-124472743D01*
X79953152Y-124472743D02*
X80000771Y-124377505D01*
X80000771Y-124377505D02*
X80048390Y-124329886D01*
X80048390Y-124329886D02*
X80143628Y-124282267D01*
X80143628Y-124282267D02*
X80429342Y-124282267D01*
X80429342Y-124282267D02*
X80524580Y-124329886D01*
X80524580Y-124329886D02*
X80572200Y-124377505D01*
X80572200Y-124377505D02*
X80619819Y-124472743D01*
X80619819Y-124472743D02*
X80619819Y-124615600D01*
X80619819Y-123948933D02*
X79953152Y-123425124D01*
X79953152Y-123948933D02*
X80619819Y-123425124D01*
X116327255Y-153169819D02*
X116517731Y-153169819D01*
X116517731Y-153169819D02*
X116612969Y-153217438D01*
X116612969Y-153217438D02*
X116708207Y-153312676D01*
X116708207Y-153312676D02*
X116755826Y-153503152D01*
X116755826Y-153503152D02*
X116755826Y-153836485D01*
X116755826Y-153836485D02*
X116708207Y-154026961D01*
X116708207Y-154026961D02*
X116612969Y-154122200D01*
X116612969Y-154122200D02*
X116517731Y-154169819D01*
X116517731Y-154169819D02*
X116327255Y-154169819D01*
X116327255Y-154169819D02*
X116232017Y-154122200D01*
X116232017Y-154122200D02*
X116136779Y-154026961D01*
X116136779Y-154026961D02*
X116089160Y-153836485D01*
X116089160Y-153836485D02*
X116089160Y-153503152D01*
X116089160Y-153503152D02*
X116136779Y-153312676D01*
X116136779Y-153312676D02*
X116232017Y-153217438D01*
X116232017Y-153217438D02*
X116327255Y-153169819D01*
X117184398Y-153169819D02*
X117184398Y-153979342D01*
X117184398Y-153979342D02*
X117232017Y-154074580D01*
X117232017Y-154074580D02*
X117279636Y-154122200D01*
X117279636Y-154122200D02*
X117374874Y-154169819D01*
X117374874Y-154169819D02*
X117565350Y-154169819D01*
X117565350Y-154169819D02*
X117660588Y-154122200D01*
X117660588Y-154122200D02*
X117708207Y-154074580D01*
X117708207Y-154074580D02*
X117755826Y-153979342D01*
X117755826Y-153979342D02*
X117755826Y-153169819D01*
X118089160Y-153169819D02*
X118660588Y-153169819D01*
X118374874Y-154169819D02*
X118374874Y-153169819D01*
X118993922Y-154169819D02*
X118993922Y-153169819D01*
X118993922Y-153169819D02*
X119374874Y-153169819D01*
X119374874Y-153169819D02*
X119470112Y-153217438D01*
X119470112Y-153217438D02*
X119517731Y-153265057D01*
X119517731Y-153265057D02*
X119565350Y-153360295D01*
X119565350Y-153360295D02*
X119565350Y-153503152D01*
X119565350Y-153503152D02*
X119517731Y-153598390D01*
X119517731Y-153598390D02*
X119470112Y-153646009D01*
X119470112Y-153646009D02*
X119374874Y-153693628D01*
X119374874Y-153693628D02*
X118993922Y-153693628D01*
X119993922Y-153169819D02*
X119993922Y-153979342D01*
X119993922Y-153979342D02*
X120041541Y-154074580D01*
X120041541Y-154074580D02*
X120089160Y-154122200D01*
X120089160Y-154122200D02*
X120184398Y-154169819D01*
X120184398Y-154169819D02*
X120374874Y-154169819D01*
X120374874Y-154169819D02*
X120470112Y-154122200D01*
X120470112Y-154122200D02*
X120517731Y-154074580D01*
X120517731Y-154074580D02*
X120565350Y-153979342D01*
X120565350Y-153979342D02*
X120565350Y-153169819D01*
X120898684Y-153169819D02*
X121470112Y-153169819D01*
X121184398Y-154169819D02*
X121184398Y-153169819D01*
X82520476Y-111954819D02*
X82187143Y-111478628D01*
X81949048Y-111954819D02*
X81949048Y-110954819D01*
X81949048Y-110954819D02*
X82330000Y-110954819D01*
X82330000Y-110954819D02*
X82425238Y-111002438D01*
X82425238Y-111002438D02*
X82472857Y-111050057D01*
X82472857Y-111050057D02*
X82520476Y-111145295D01*
X82520476Y-111145295D02*
X82520476Y-111288152D01*
X82520476Y-111288152D02*
X82472857Y-111383390D01*
X82472857Y-111383390D02*
X82425238Y-111431009D01*
X82425238Y-111431009D02*
X82330000Y-111478628D01*
X82330000Y-111478628D02*
X81949048Y-111478628D01*
X83472857Y-111954819D02*
X82901429Y-111954819D01*
X83187143Y-111954819D02*
X83187143Y-110954819D01*
X83187143Y-110954819D02*
X83091905Y-111097676D01*
X83091905Y-111097676D02*
X82996667Y-111192914D01*
X82996667Y-111192914D02*
X82901429Y-111240533D01*
X84091905Y-110954819D02*
X84187143Y-110954819D01*
X84187143Y-110954819D02*
X84282381Y-111002438D01*
X84282381Y-111002438D02*
X84330000Y-111050057D01*
X84330000Y-111050057D02*
X84377619Y-111145295D01*
X84377619Y-111145295D02*
X84425238Y-111335771D01*
X84425238Y-111335771D02*
X84425238Y-111573866D01*
X84425238Y-111573866D02*
X84377619Y-111764342D01*
X84377619Y-111764342D02*
X84330000Y-111859580D01*
X84330000Y-111859580D02*
X84282381Y-111907200D01*
X84282381Y-111907200D02*
X84187143Y-111954819D01*
X84187143Y-111954819D02*
X84091905Y-111954819D01*
X84091905Y-111954819D02*
X83996667Y-111907200D01*
X83996667Y-111907200D02*
X83949048Y-111859580D01*
X83949048Y-111859580D02*
X83901429Y-111764342D01*
X83901429Y-111764342D02*
X83853810Y-111573866D01*
X83853810Y-111573866D02*
X83853810Y-111335771D01*
X83853810Y-111335771D02*
X83901429Y-111145295D01*
X83901429Y-111145295D02*
X83949048Y-111050057D01*
X83949048Y-111050057D02*
X83996667Y-111002438D01*
X83996667Y-111002438D02*
X84091905Y-110954819D01*
X74404761Y-150050057D02*
X74309523Y-150002438D01*
X74309523Y-150002438D02*
X74214285Y-149907200D01*
X74214285Y-149907200D02*
X74071428Y-149764342D01*
X74071428Y-149764342D02*
X73976190Y-149716723D01*
X73976190Y-149716723D02*
X73880952Y-149716723D01*
X73928571Y-149954819D02*
X73833333Y-149907200D01*
X73833333Y-149907200D02*
X73738095Y-149811961D01*
X73738095Y-149811961D02*
X73690476Y-149621485D01*
X73690476Y-149621485D02*
X73690476Y-149288152D01*
X73690476Y-149288152D02*
X73738095Y-149097676D01*
X73738095Y-149097676D02*
X73833333Y-149002438D01*
X73833333Y-149002438D02*
X73928571Y-148954819D01*
X73928571Y-148954819D02*
X74119047Y-148954819D01*
X74119047Y-148954819D02*
X74214285Y-149002438D01*
X74214285Y-149002438D02*
X74309523Y-149097676D01*
X74309523Y-149097676D02*
X74357142Y-149288152D01*
X74357142Y-149288152D02*
X74357142Y-149621485D01*
X74357142Y-149621485D02*
X74309523Y-149811961D01*
X74309523Y-149811961D02*
X74214285Y-149907200D01*
X74214285Y-149907200D02*
X74119047Y-149954819D01*
X74119047Y-149954819D02*
X73928571Y-149954819D01*
X75261904Y-148954819D02*
X74785714Y-148954819D01*
X74785714Y-148954819D02*
X74738095Y-149431009D01*
X74738095Y-149431009D02*
X74785714Y-149383390D01*
X74785714Y-149383390D02*
X74880952Y-149335771D01*
X74880952Y-149335771D02*
X75119047Y-149335771D01*
X75119047Y-149335771D02*
X75214285Y-149383390D01*
X75214285Y-149383390D02*
X75261904Y-149431009D01*
X75261904Y-149431009D02*
X75309523Y-149526247D01*
X75309523Y-149526247D02*
X75309523Y-149764342D01*
X75309523Y-149764342D02*
X75261904Y-149859580D01*
X75261904Y-149859580D02*
X75214285Y-149907200D01*
X75214285Y-149907200D02*
X75119047Y-149954819D01*
X75119047Y-149954819D02*
X74880952Y-149954819D01*
X74880952Y-149954819D02*
X74785714Y-149907200D01*
X74785714Y-149907200D02*
X74738095Y-149859580D01*
X82996667Y-105454819D02*
X82663334Y-104978628D01*
X82425239Y-105454819D02*
X82425239Y-104454819D01*
X82425239Y-104454819D02*
X82806191Y-104454819D01*
X82806191Y-104454819D02*
X82901429Y-104502438D01*
X82901429Y-104502438D02*
X82949048Y-104550057D01*
X82949048Y-104550057D02*
X82996667Y-104645295D01*
X82996667Y-104645295D02*
X82996667Y-104788152D01*
X82996667Y-104788152D02*
X82949048Y-104883390D01*
X82949048Y-104883390D02*
X82901429Y-104931009D01*
X82901429Y-104931009D02*
X82806191Y-104978628D01*
X82806191Y-104978628D02*
X82425239Y-104978628D01*
X83330001Y-104454819D02*
X83996667Y-104454819D01*
X83996667Y-104454819D02*
X83568096Y-105454819D01*
X82996667Y-102204819D02*
X82663334Y-101728628D01*
X82425239Y-102204819D02*
X82425239Y-101204819D01*
X82425239Y-101204819D02*
X82806191Y-101204819D01*
X82806191Y-101204819D02*
X82901429Y-101252438D01*
X82901429Y-101252438D02*
X82949048Y-101300057D01*
X82949048Y-101300057D02*
X82996667Y-101395295D01*
X82996667Y-101395295D02*
X82996667Y-101538152D01*
X82996667Y-101538152D02*
X82949048Y-101633390D01*
X82949048Y-101633390D02*
X82901429Y-101681009D01*
X82901429Y-101681009D02*
X82806191Y-101728628D01*
X82806191Y-101728628D02*
X82425239Y-101728628D01*
X83901429Y-101204819D02*
X83425239Y-101204819D01*
X83425239Y-101204819D02*
X83377620Y-101681009D01*
X83377620Y-101681009D02*
X83425239Y-101633390D01*
X83425239Y-101633390D02*
X83520477Y-101585771D01*
X83520477Y-101585771D02*
X83758572Y-101585771D01*
X83758572Y-101585771D02*
X83853810Y-101633390D01*
X83853810Y-101633390D02*
X83901429Y-101681009D01*
X83901429Y-101681009D02*
X83949048Y-101776247D01*
X83949048Y-101776247D02*
X83949048Y-102014342D01*
X83949048Y-102014342D02*
X83901429Y-102109580D01*
X83901429Y-102109580D02*
X83853810Y-102157200D01*
X83853810Y-102157200D02*
X83758572Y-102204819D01*
X83758572Y-102204819D02*
X83520477Y-102204819D01*
X83520477Y-102204819D02*
X83425239Y-102157200D01*
X83425239Y-102157200D02*
X83377620Y-102109580D01*
X96011905Y-125454819D02*
X96011905Y-124454819D01*
X96011905Y-124454819D02*
X96250000Y-124454819D01*
X96250000Y-124454819D02*
X96392857Y-124502438D01*
X96392857Y-124502438D02*
X96488095Y-124597676D01*
X96488095Y-124597676D02*
X96535714Y-124692914D01*
X96535714Y-124692914D02*
X96583333Y-124883390D01*
X96583333Y-124883390D02*
X96583333Y-125026247D01*
X96583333Y-125026247D02*
X96535714Y-125216723D01*
X96535714Y-125216723D02*
X96488095Y-125311961D01*
X96488095Y-125311961D02*
X96392857Y-125407200D01*
X96392857Y-125407200D02*
X96250000Y-125454819D01*
X96250000Y-125454819D02*
X96011905Y-125454819D01*
X97440476Y-124454819D02*
X97250000Y-124454819D01*
X97250000Y-124454819D02*
X97154762Y-124502438D01*
X97154762Y-124502438D02*
X97107143Y-124550057D01*
X97107143Y-124550057D02*
X97011905Y-124692914D01*
X97011905Y-124692914D02*
X96964286Y-124883390D01*
X96964286Y-124883390D02*
X96964286Y-125264342D01*
X96964286Y-125264342D02*
X97011905Y-125359580D01*
X97011905Y-125359580D02*
X97059524Y-125407200D01*
X97059524Y-125407200D02*
X97154762Y-125454819D01*
X97154762Y-125454819D02*
X97345238Y-125454819D01*
X97345238Y-125454819D02*
X97440476Y-125407200D01*
X97440476Y-125407200D02*
X97488095Y-125359580D01*
X97488095Y-125359580D02*
X97535714Y-125264342D01*
X97535714Y-125264342D02*
X97535714Y-125026247D01*
X97535714Y-125026247D02*
X97488095Y-124931009D01*
X97488095Y-124931009D02*
X97440476Y-124883390D01*
X97440476Y-124883390D02*
X97345238Y-124835771D01*
X97345238Y-124835771D02*
X97154762Y-124835771D01*
X97154762Y-124835771D02*
X97059524Y-124883390D01*
X97059524Y-124883390D02*
X97011905Y-124931009D01*
X97011905Y-124931009D02*
X96964286Y-125026247D01*
X110261905Y-144494819D02*
X110261905Y-143494819D01*
X110261905Y-143494819D02*
X110500000Y-143494819D01*
X110500000Y-143494819D02*
X110642857Y-143542438D01*
X110642857Y-143542438D02*
X110738095Y-143637676D01*
X110738095Y-143637676D02*
X110785714Y-143732914D01*
X110785714Y-143732914D02*
X110833333Y-143923390D01*
X110833333Y-143923390D02*
X110833333Y-144066247D01*
X110833333Y-144066247D02*
X110785714Y-144256723D01*
X110785714Y-144256723D02*
X110738095Y-144351961D01*
X110738095Y-144351961D02*
X110642857Y-144447200D01*
X110642857Y-144447200D02*
X110500000Y-144494819D01*
X110500000Y-144494819D02*
X110261905Y-144494819D01*
X111166667Y-143494819D02*
X111833333Y-143494819D01*
X111833333Y-143494819D02*
X111404762Y-144494819D01*
X96011905Y-89454819D02*
X96011905Y-88454819D01*
X96011905Y-88454819D02*
X96250000Y-88454819D01*
X96250000Y-88454819D02*
X96392857Y-88502438D01*
X96392857Y-88502438D02*
X96488095Y-88597676D01*
X96488095Y-88597676D02*
X96535714Y-88692914D01*
X96535714Y-88692914D02*
X96583333Y-88883390D01*
X96583333Y-88883390D02*
X96583333Y-89026247D01*
X96583333Y-89026247D02*
X96535714Y-89216723D01*
X96535714Y-89216723D02*
X96488095Y-89311961D01*
X96488095Y-89311961D02*
X96392857Y-89407200D01*
X96392857Y-89407200D02*
X96250000Y-89454819D01*
X96250000Y-89454819D02*
X96011905Y-89454819D01*
X97440476Y-88788152D02*
X97440476Y-89454819D01*
X97202381Y-88407200D02*
X96964286Y-89121485D01*
X96964286Y-89121485D02*
X97583333Y-89121485D01*
X92354819Y-151133333D02*
X93069104Y-151133333D01*
X93069104Y-151133333D02*
X93211961Y-151180952D01*
X93211961Y-151180952D02*
X93307200Y-151276190D01*
X93307200Y-151276190D02*
X93354819Y-151419047D01*
X93354819Y-151419047D02*
X93354819Y-151514285D01*
X92354819Y-150228571D02*
X92354819Y-150419047D01*
X92354819Y-150419047D02*
X92402438Y-150514285D01*
X92402438Y-150514285D02*
X92450057Y-150561904D01*
X92450057Y-150561904D02*
X92592914Y-150657142D01*
X92592914Y-150657142D02*
X92783390Y-150704761D01*
X92783390Y-150704761D02*
X93164342Y-150704761D01*
X93164342Y-150704761D02*
X93259580Y-150657142D01*
X93259580Y-150657142D02*
X93307200Y-150609523D01*
X93307200Y-150609523D02*
X93354819Y-150514285D01*
X93354819Y-150514285D02*
X93354819Y-150323809D01*
X93354819Y-150323809D02*
X93307200Y-150228571D01*
X93307200Y-150228571D02*
X93259580Y-150180952D01*
X93259580Y-150180952D02*
X93164342Y-150133333D01*
X93164342Y-150133333D02*
X92926247Y-150133333D01*
X92926247Y-150133333D02*
X92831009Y-150180952D01*
X92831009Y-150180952D02*
X92783390Y-150228571D01*
X92783390Y-150228571D02*
X92735771Y-150323809D01*
X92735771Y-150323809D02*
X92735771Y-150514285D01*
X92735771Y-150514285D02*
X92783390Y-150609523D01*
X92783390Y-150609523D02*
X92831009Y-150657142D01*
X92831009Y-150657142D02*
X92926247Y-150704761D01*
X82520476Y-121704819D02*
X82187143Y-121228628D01*
X81949048Y-121704819D02*
X81949048Y-120704819D01*
X81949048Y-120704819D02*
X82330000Y-120704819D01*
X82330000Y-120704819D02*
X82425238Y-120752438D01*
X82425238Y-120752438D02*
X82472857Y-120800057D01*
X82472857Y-120800057D02*
X82520476Y-120895295D01*
X82520476Y-120895295D02*
X82520476Y-121038152D01*
X82520476Y-121038152D02*
X82472857Y-121133390D01*
X82472857Y-121133390D02*
X82425238Y-121181009D01*
X82425238Y-121181009D02*
X82330000Y-121228628D01*
X82330000Y-121228628D02*
X81949048Y-121228628D01*
X83472857Y-121704819D02*
X82901429Y-121704819D01*
X83187143Y-121704819D02*
X83187143Y-120704819D01*
X83187143Y-120704819D02*
X83091905Y-120847676D01*
X83091905Y-120847676D02*
X82996667Y-120942914D01*
X82996667Y-120942914D02*
X82901429Y-120990533D01*
X84330000Y-121038152D02*
X84330000Y-121704819D01*
X84091905Y-120657200D02*
X83853810Y-121371485D01*
X83853810Y-121371485D02*
X84472857Y-121371485D01*
X80107142Y-73954819D02*
X79773809Y-73478628D01*
X79535714Y-73954819D02*
X79535714Y-72954819D01*
X79535714Y-72954819D02*
X79916666Y-72954819D01*
X79916666Y-72954819D02*
X80011904Y-73002438D01*
X80011904Y-73002438D02*
X80059523Y-73050057D01*
X80059523Y-73050057D02*
X80107142Y-73145295D01*
X80107142Y-73145295D02*
X80107142Y-73288152D01*
X80107142Y-73288152D02*
X80059523Y-73383390D01*
X80059523Y-73383390D02*
X80011904Y-73431009D01*
X80011904Y-73431009D02*
X79916666Y-73478628D01*
X79916666Y-73478628D02*
X79535714Y-73478628D01*
X81059523Y-73954819D02*
X80488095Y-73954819D01*
X80773809Y-73954819D02*
X80773809Y-72954819D01*
X80773809Y-72954819D02*
X80678571Y-73097676D01*
X80678571Y-73097676D02*
X80583333Y-73192914D01*
X80583333Y-73192914D02*
X80488095Y-73240533D01*
X81964285Y-72954819D02*
X81488095Y-72954819D01*
X81488095Y-72954819D02*
X81440476Y-73431009D01*
X81440476Y-73431009D02*
X81488095Y-73383390D01*
X81488095Y-73383390D02*
X81583333Y-73335771D01*
X81583333Y-73335771D02*
X81821428Y-73335771D01*
X81821428Y-73335771D02*
X81916666Y-73383390D01*
X81916666Y-73383390D02*
X81964285Y-73431009D01*
X81964285Y-73431009D02*
X82011904Y-73526247D01*
X82011904Y-73526247D02*
X82011904Y-73764342D01*
X82011904Y-73764342D02*
X81964285Y-73859580D01*
X81964285Y-73859580D02*
X81916666Y-73907200D01*
X81916666Y-73907200D02*
X81821428Y-73954819D01*
X81821428Y-73954819D02*
X81583333Y-73954819D01*
X81583333Y-73954819D02*
X81488095Y-73907200D01*
X81488095Y-73907200D02*
X81440476Y-73859580D01*
X57557142Y-92454819D02*
X57223809Y-91978628D01*
X56985714Y-92454819D02*
X56985714Y-91454819D01*
X56985714Y-91454819D02*
X57366666Y-91454819D01*
X57366666Y-91454819D02*
X57461904Y-91502438D01*
X57461904Y-91502438D02*
X57509523Y-91550057D01*
X57509523Y-91550057D02*
X57557142Y-91645295D01*
X57557142Y-91645295D02*
X57557142Y-91788152D01*
X57557142Y-91788152D02*
X57509523Y-91883390D01*
X57509523Y-91883390D02*
X57461904Y-91931009D01*
X57461904Y-91931009D02*
X57366666Y-91978628D01*
X57366666Y-91978628D02*
X56985714Y-91978628D01*
X57938095Y-91550057D02*
X57985714Y-91502438D01*
X57985714Y-91502438D02*
X58080952Y-91454819D01*
X58080952Y-91454819D02*
X58319047Y-91454819D01*
X58319047Y-91454819D02*
X58414285Y-91502438D01*
X58414285Y-91502438D02*
X58461904Y-91550057D01*
X58461904Y-91550057D02*
X58509523Y-91645295D01*
X58509523Y-91645295D02*
X58509523Y-91740533D01*
X58509523Y-91740533D02*
X58461904Y-91883390D01*
X58461904Y-91883390D02*
X57890476Y-92454819D01*
X57890476Y-92454819D02*
X58509523Y-92454819D01*
X58842857Y-91454819D02*
X59461904Y-91454819D01*
X59461904Y-91454819D02*
X59128571Y-91835771D01*
X59128571Y-91835771D02*
X59271428Y-91835771D01*
X59271428Y-91835771D02*
X59366666Y-91883390D01*
X59366666Y-91883390D02*
X59414285Y-91931009D01*
X59414285Y-91931009D02*
X59461904Y-92026247D01*
X59461904Y-92026247D02*
X59461904Y-92264342D01*
X59461904Y-92264342D02*
X59414285Y-92359580D01*
X59414285Y-92359580D02*
X59366666Y-92407200D01*
X59366666Y-92407200D02*
X59271428Y-92454819D01*
X59271428Y-92454819D02*
X58985714Y-92454819D01*
X58985714Y-92454819D02*
X58890476Y-92407200D01*
X58890476Y-92407200D02*
X58842857Y-92359580D01*
X85954819Y-130348094D02*
X84954819Y-130348094D01*
X84954819Y-130348094D02*
X84954819Y-130109999D01*
X84954819Y-130109999D02*
X85002438Y-129967142D01*
X85002438Y-129967142D02*
X85097676Y-129871904D01*
X85097676Y-129871904D02*
X85192914Y-129824285D01*
X85192914Y-129824285D02*
X85383390Y-129776666D01*
X85383390Y-129776666D02*
X85526247Y-129776666D01*
X85526247Y-129776666D02*
X85716723Y-129824285D01*
X85716723Y-129824285D02*
X85811961Y-129871904D01*
X85811961Y-129871904D02*
X85907200Y-129967142D01*
X85907200Y-129967142D02*
X85954819Y-130109999D01*
X85954819Y-130109999D02*
X85954819Y-130348094D01*
X85383390Y-129205237D02*
X85335771Y-129300475D01*
X85335771Y-129300475D02*
X85288152Y-129348094D01*
X85288152Y-129348094D02*
X85192914Y-129395713D01*
X85192914Y-129395713D02*
X85145295Y-129395713D01*
X85145295Y-129395713D02*
X85050057Y-129348094D01*
X85050057Y-129348094D02*
X85002438Y-129300475D01*
X85002438Y-129300475D02*
X84954819Y-129205237D01*
X84954819Y-129205237D02*
X84954819Y-129014761D01*
X84954819Y-129014761D02*
X85002438Y-128919523D01*
X85002438Y-128919523D02*
X85050057Y-128871904D01*
X85050057Y-128871904D02*
X85145295Y-128824285D01*
X85145295Y-128824285D02*
X85192914Y-128824285D01*
X85192914Y-128824285D02*
X85288152Y-128871904D01*
X85288152Y-128871904D02*
X85335771Y-128919523D01*
X85335771Y-128919523D02*
X85383390Y-129014761D01*
X85383390Y-129014761D02*
X85383390Y-129205237D01*
X85383390Y-129205237D02*
X85431009Y-129300475D01*
X85431009Y-129300475D02*
X85478628Y-129348094D01*
X85478628Y-129348094D02*
X85573866Y-129395713D01*
X85573866Y-129395713D02*
X85764342Y-129395713D01*
X85764342Y-129395713D02*
X85859580Y-129348094D01*
X85859580Y-129348094D02*
X85907200Y-129300475D01*
X85907200Y-129300475D02*
X85954819Y-129205237D01*
X85954819Y-129205237D02*
X85954819Y-129014761D01*
X85954819Y-129014761D02*
X85907200Y-128919523D01*
X85907200Y-128919523D02*
X85859580Y-128871904D01*
X85859580Y-128871904D02*
X85764342Y-128824285D01*
X85764342Y-128824285D02*
X85573866Y-128824285D01*
X85573866Y-128824285D02*
X85478628Y-128871904D01*
X85478628Y-128871904D02*
X85431009Y-128919523D01*
X85431009Y-128919523D02*
X85383390Y-129014761D01*
X57527142Y-95704819D02*
X57193809Y-95228628D01*
X56955714Y-95704819D02*
X56955714Y-94704819D01*
X56955714Y-94704819D02*
X57336666Y-94704819D01*
X57336666Y-94704819D02*
X57431904Y-94752438D01*
X57431904Y-94752438D02*
X57479523Y-94800057D01*
X57479523Y-94800057D02*
X57527142Y-94895295D01*
X57527142Y-94895295D02*
X57527142Y-95038152D01*
X57527142Y-95038152D02*
X57479523Y-95133390D01*
X57479523Y-95133390D02*
X57431904Y-95181009D01*
X57431904Y-95181009D02*
X57336666Y-95228628D01*
X57336666Y-95228628D02*
X56955714Y-95228628D01*
X58479523Y-95704819D02*
X57908095Y-95704819D01*
X58193809Y-95704819D02*
X58193809Y-94704819D01*
X58193809Y-94704819D02*
X58098571Y-94847676D01*
X58098571Y-94847676D02*
X58003333Y-94942914D01*
X58003333Y-94942914D02*
X57908095Y-94990533D01*
X59336666Y-94704819D02*
X59146190Y-94704819D01*
X59146190Y-94704819D02*
X59050952Y-94752438D01*
X59050952Y-94752438D02*
X59003333Y-94800057D01*
X59003333Y-94800057D02*
X58908095Y-94942914D01*
X58908095Y-94942914D02*
X58860476Y-95133390D01*
X58860476Y-95133390D02*
X58860476Y-95514342D01*
X58860476Y-95514342D02*
X58908095Y-95609580D01*
X58908095Y-95609580D02*
X58955714Y-95657200D01*
X58955714Y-95657200D02*
X59050952Y-95704819D01*
X59050952Y-95704819D02*
X59241428Y-95704819D01*
X59241428Y-95704819D02*
X59336666Y-95657200D01*
X59336666Y-95657200D02*
X59384285Y-95609580D01*
X59384285Y-95609580D02*
X59431904Y-95514342D01*
X59431904Y-95514342D02*
X59431904Y-95276247D01*
X59431904Y-95276247D02*
X59384285Y-95181009D01*
X59384285Y-95181009D02*
X59336666Y-95133390D01*
X59336666Y-95133390D02*
X59241428Y-95085771D01*
X59241428Y-95085771D02*
X59050952Y-95085771D01*
X59050952Y-95085771D02*
X58955714Y-95133390D01*
X58955714Y-95133390D02*
X58908095Y-95181009D01*
X58908095Y-95181009D02*
X58860476Y-95276247D01*
X76678095Y-94204819D02*
X76678095Y-95014342D01*
X76678095Y-95014342D02*
X76725714Y-95109580D01*
X76725714Y-95109580D02*
X76773333Y-95157200D01*
X76773333Y-95157200D02*
X76868571Y-95204819D01*
X76868571Y-95204819D02*
X77059047Y-95204819D01*
X77059047Y-95204819D02*
X77154285Y-95157200D01*
X77154285Y-95157200D02*
X77201904Y-95109580D01*
X77201904Y-95109580D02*
X77249523Y-95014342D01*
X77249523Y-95014342D02*
X77249523Y-94204819D01*
X78249523Y-95204819D02*
X77678095Y-95204819D01*
X77963809Y-95204819D02*
X77963809Y-94204819D01*
X77963809Y-94204819D02*
X77868571Y-94347676D01*
X77868571Y-94347676D02*
X77773333Y-94442914D01*
X77773333Y-94442914D02*
X77678095Y-94490533D01*
X120404761Y-112454819D02*
X120071428Y-111978628D01*
X119833333Y-112454819D02*
X119833333Y-111454819D01*
X119833333Y-111454819D02*
X120214285Y-111454819D01*
X120214285Y-111454819D02*
X120309523Y-111502438D01*
X120309523Y-111502438D02*
X120357142Y-111550057D01*
X120357142Y-111550057D02*
X120404761Y-111645295D01*
X120404761Y-111645295D02*
X120404761Y-111788152D01*
X120404761Y-111788152D02*
X120357142Y-111883390D01*
X120357142Y-111883390D02*
X120309523Y-111931009D01*
X120309523Y-111931009D02*
X120214285Y-111978628D01*
X120214285Y-111978628D02*
X119833333Y-111978628D01*
X120690476Y-111454819D02*
X121023809Y-112454819D01*
X121023809Y-112454819D02*
X121357142Y-111454819D01*
X122119047Y-111788152D02*
X122119047Y-112454819D01*
X121880952Y-111407200D02*
X121642857Y-112121485D01*
X121642857Y-112121485D02*
X122261904Y-112121485D01*
X93354819Y-65133333D02*
X94069104Y-65133333D01*
X94069104Y-65133333D02*
X94211961Y-65180952D01*
X94211961Y-65180952D02*
X94307200Y-65276190D01*
X94307200Y-65276190D02*
X94354819Y-65419047D01*
X94354819Y-65419047D02*
X94354819Y-65514285D01*
X94354819Y-64133333D02*
X94354819Y-64704761D01*
X94354819Y-64419047D02*
X93354819Y-64419047D01*
X93354819Y-64419047D02*
X93497676Y-64514285D01*
X93497676Y-64514285D02*
X93592914Y-64609523D01*
X93592914Y-64609523D02*
X93640533Y-64704761D01*
X72800057Y-113845238D02*
X72752438Y-113940476D01*
X72752438Y-113940476D02*
X72657200Y-114035714D01*
X72657200Y-114035714D02*
X72514342Y-114178571D01*
X72514342Y-114178571D02*
X72466723Y-114273809D01*
X72466723Y-114273809D02*
X72466723Y-114369047D01*
X72704819Y-114321428D02*
X72657200Y-114416666D01*
X72657200Y-114416666D02*
X72561961Y-114511904D01*
X72561961Y-114511904D02*
X72371485Y-114559523D01*
X72371485Y-114559523D02*
X72038152Y-114559523D01*
X72038152Y-114559523D02*
X71847676Y-114511904D01*
X71847676Y-114511904D02*
X71752438Y-114416666D01*
X71752438Y-114416666D02*
X71704819Y-114321428D01*
X71704819Y-114321428D02*
X71704819Y-114130952D01*
X71704819Y-114130952D02*
X71752438Y-114035714D01*
X71752438Y-114035714D02*
X71847676Y-113940476D01*
X71847676Y-113940476D02*
X72038152Y-113892857D01*
X72038152Y-113892857D02*
X72371485Y-113892857D01*
X72371485Y-113892857D02*
X72561961Y-113940476D01*
X72561961Y-113940476D02*
X72657200Y-114035714D01*
X72657200Y-114035714D02*
X72704819Y-114130952D01*
X72704819Y-114130952D02*
X72704819Y-114321428D01*
X71704819Y-113559523D02*
X71704819Y-112940476D01*
X71704819Y-112940476D02*
X72085771Y-113273809D01*
X72085771Y-113273809D02*
X72085771Y-113130952D01*
X72085771Y-113130952D02*
X72133390Y-113035714D01*
X72133390Y-113035714D02*
X72181009Y-112988095D01*
X72181009Y-112988095D02*
X72276247Y-112940476D01*
X72276247Y-112940476D02*
X72514342Y-112940476D01*
X72514342Y-112940476D02*
X72609580Y-112988095D01*
X72609580Y-112988095D02*
X72657200Y-113035714D01*
X72657200Y-113035714D02*
X72704819Y-113130952D01*
X72704819Y-113130952D02*
X72704819Y-113416666D01*
X72704819Y-113416666D02*
X72657200Y-113511904D01*
X72657200Y-113511904D02*
X72609580Y-113559523D01*
X80107142Y-77204819D02*
X79773809Y-76728628D01*
X79535714Y-77204819D02*
X79535714Y-76204819D01*
X79535714Y-76204819D02*
X79916666Y-76204819D01*
X79916666Y-76204819D02*
X80011904Y-76252438D01*
X80011904Y-76252438D02*
X80059523Y-76300057D01*
X80059523Y-76300057D02*
X80107142Y-76395295D01*
X80107142Y-76395295D02*
X80107142Y-76538152D01*
X80107142Y-76538152D02*
X80059523Y-76633390D01*
X80059523Y-76633390D02*
X80011904Y-76681009D01*
X80011904Y-76681009D02*
X79916666Y-76728628D01*
X79916666Y-76728628D02*
X79535714Y-76728628D01*
X81059523Y-77204819D02*
X80488095Y-77204819D01*
X80773809Y-77204819D02*
X80773809Y-76204819D01*
X80773809Y-76204819D02*
X80678571Y-76347676D01*
X80678571Y-76347676D02*
X80583333Y-76442914D01*
X80583333Y-76442914D02*
X80488095Y-76490533D01*
X81392857Y-76204819D02*
X82059523Y-76204819D01*
X82059523Y-76204819D02*
X81630952Y-77204819D01*
X65238095Y-101704819D02*
X65809523Y-101704819D01*
X65523809Y-102704819D02*
X65523809Y-101704819D01*
X66142857Y-102704819D02*
X66142857Y-101704819D01*
X66142857Y-101704819D02*
X66523809Y-101704819D01*
X66523809Y-101704819D02*
X66619047Y-101752438D01*
X66619047Y-101752438D02*
X66666666Y-101800057D01*
X66666666Y-101800057D02*
X66714285Y-101895295D01*
X66714285Y-101895295D02*
X66714285Y-102038152D01*
X66714285Y-102038152D02*
X66666666Y-102133390D01*
X66666666Y-102133390D02*
X66619047Y-102181009D01*
X66619047Y-102181009D02*
X66523809Y-102228628D01*
X66523809Y-102228628D02*
X66142857Y-102228628D01*
X67047619Y-101704819D02*
X67714285Y-101704819D01*
X67714285Y-101704819D02*
X67285714Y-102704819D01*
X128554819Y-145533333D02*
X129269104Y-145533333D01*
X129269104Y-145533333D02*
X129411961Y-145580952D01*
X129411961Y-145580952D02*
X129507200Y-145676190D01*
X129507200Y-145676190D02*
X129554819Y-145819047D01*
X129554819Y-145819047D02*
X129554819Y-145914285D01*
X128554819Y-144580952D02*
X128554819Y-145057142D01*
X128554819Y-145057142D02*
X129031009Y-145104761D01*
X129031009Y-145104761D02*
X128983390Y-145057142D01*
X128983390Y-145057142D02*
X128935771Y-144961904D01*
X128935771Y-144961904D02*
X128935771Y-144723809D01*
X128935771Y-144723809D02*
X128983390Y-144628571D01*
X128983390Y-144628571D02*
X129031009Y-144580952D01*
X129031009Y-144580952D02*
X129126247Y-144533333D01*
X129126247Y-144533333D02*
X129364342Y-144533333D01*
X129364342Y-144533333D02*
X129459580Y-144580952D01*
X129459580Y-144580952D02*
X129507200Y-144628571D01*
X129507200Y-144628571D02*
X129554819Y-144723809D01*
X129554819Y-144723809D02*
X129554819Y-144961904D01*
X129554819Y-144961904D02*
X129507200Y-145057142D01*
X129507200Y-145057142D02*
X129459580Y-145104761D01*
X65238095Y-106704819D02*
X65809523Y-106704819D01*
X65523809Y-107704819D02*
X65523809Y-106704819D01*
X66142857Y-107704819D02*
X66142857Y-106704819D01*
X66142857Y-106704819D02*
X66523809Y-106704819D01*
X66523809Y-106704819D02*
X66619047Y-106752438D01*
X66619047Y-106752438D02*
X66666666Y-106800057D01*
X66666666Y-106800057D02*
X66714285Y-106895295D01*
X66714285Y-106895295D02*
X66714285Y-107038152D01*
X66714285Y-107038152D02*
X66666666Y-107133390D01*
X66666666Y-107133390D02*
X66619047Y-107181009D01*
X66619047Y-107181009D02*
X66523809Y-107228628D01*
X66523809Y-107228628D02*
X66142857Y-107228628D01*
X67285714Y-107133390D02*
X67190476Y-107085771D01*
X67190476Y-107085771D02*
X67142857Y-107038152D01*
X67142857Y-107038152D02*
X67095238Y-106942914D01*
X67095238Y-106942914D02*
X67095238Y-106895295D01*
X67095238Y-106895295D02*
X67142857Y-106800057D01*
X67142857Y-106800057D02*
X67190476Y-106752438D01*
X67190476Y-106752438D02*
X67285714Y-106704819D01*
X67285714Y-106704819D02*
X67476190Y-106704819D01*
X67476190Y-106704819D02*
X67571428Y-106752438D01*
X67571428Y-106752438D02*
X67619047Y-106800057D01*
X67619047Y-106800057D02*
X67666666Y-106895295D01*
X67666666Y-106895295D02*
X67666666Y-106942914D01*
X67666666Y-106942914D02*
X67619047Y-107038152D01*
X67619047Y-107038152D02*
X67571428Y-107085771D01*
X67571428Y-107085771D02*
X67476190Y-107133390D01*
X67476190Y-107133390D02*
X67285714Y-107133390D01*
X67285714Y-107133390D02*
X67190476Y-107181009D01*
X67190476Y-107181009D02*
X67142857Y-107228628D01*
X67142857Y-107228628D02*
X67095238Y-107323866D01*
X67095238Y-107323866D02*
X67095238Y-107514342D01*
X67095238Y-107514342D02*
X67142857Y-107609580D01*
X67142857Y-107609580D02*
X67190476Y-107657200D01*
X67190476Y-107657200D02*
X67285714Y-107704819D01*
X67285714Y-107704819D02*
X67476190Y-107704819D01*
X67476190Y-107704819D02*
X67571428Y-107657200D01*
X67571428Y-107657200D02*
X67619047Y-107609580D01*
X67619047Y-107609580D02*
X67666666Y-107514342D01*
X67666666Y-107514342D02*
X67666666Y-107323866D01*
X67666666Y-107323866D02*
X67619047Y-107228628D01*
X67619047Y-107228628D02*
X67571428Y-107181009D01*
X67571428Y-107181009D02*
X67476190Y-107133390D01*
X93354819Y-83133333D02*
X94069104Y-83133333D01*
X94069104Y-83133333D02*
X94211961Y-83180952D01*
X94211961Y-83180952D02*
X94307200Y-83276190D01*
X94307200Y-83276190D02*
X94354819Y-83419047D01*
X94354819Y-83419047D02*
X94354819Y-83514285D01*
X93450057Y-82704761D02*
X93402438Y-82657142D01*
X93402438Y-82657142D02*
X93354819Y-82561904D01*
X93354819Y-82561904D02*
X93354819Y-82323809D01*
X93354819Y-82323809D02*
X93402438Y-82228571D01*
X93402438Y-82228571D02*
X93450057Y-82180952D01*
X93450057Y-82180952D02*
X93545295Y-82133333D01*
X93545295Y-82133333D02*
X93640533Y-82133333D01*
X93640533Y-82133333D02*
X93783390Y-82180952D01*
X93783390Y-82180952D02*
X94354819Y-82752380D01*
X94354819Y-82752380D02*
X94354819Y-82133333D01*
X65988095Y-79454819D02*
X66559523Y-79454819D01*
X66273809Y-80454819D02*
X66273809Y-79454819D01*
X66892857Y-80454819D02*
X66892857Y-79454819D01*
X66892857Y-79454819D02*
X67273809Y-79454819D01*
X67273809Y-79454819D02*
X67369047Y-79502438D01*
X67369047Y-79502438D02*
X67416666Y-79550057D01*
X67416666Y-79550057D02*
X67464285Y-79645295D01*
X67464285Y-79645295D02*
X67464285Y-79788152D01*
X67464285Y-79788152D02*
X67416666Y-79883390D01*
X67416666Y-79883390D02*
X67369047Y-79931009D01*
X67369047Y-79931009D02*
X67273809Y-79978628D01*
X67273809Y-79978628D02*
X66892857Y-79978628D01*
X68369047Y-79454819D02*
X67892857Y-79454819D01*
X67892857Y-79454819D02*
X67845238Y-79931009D01*
X67845238Y-79931009D02*
X67892857Y-79883390D01*
X67892857Y-79883390D02*
X67988095Y-79835771D01*
X67988095Y-79835771D02*
X68226190Y-79835771D01*
X68226190Y-79835771D02*
X68321428Y-79883390D01*
X68321428Y-79883390D02*
X68369047Y-79931009D01*
X68369047Y-79931009D02*
X68416666Y-80026247D01*
X68416666Y-80026247D02*
X68416666Y-80264342D01*
X68416666Y-80264342D02*
X68369047Y-80359580D01*
X68369047Y-80359580D02*
X68321428Y-80407200D01*
X68321428Y-80407200D02*
X68226190Y-80454819D01*
X68226190Y-80454819D02*
X67988095Y-80454819D01*
X67988095Y-80454819D02*
X67892857Y-80407200D01*
X67892857Y-80407200D02*
X67845238Y-80359580D01*
X57527142Y-98954819D02*
X57193809Y-98478628D01*
X56955714Y-98954819D02*
X56955714Y-97954819D01*
X56955714Y-97954819D02*
X57336666Y-97954819D01*
X57336666Y-97954819D02*
X57431904Y-98002438D01*
X57431904Y-98002438D02*
X57479523Y-98050057D01*
X57479523Y-98050057D02*
X57527142Y-98145295D01*
X57527142Y-98145295D02*
X57527142Y-98288152D01*
X57527142Y-98288152D02*
X57479523Y-98383390D01*
X57479523Y-98383390D02*
X57431904Y-98431009D01*
X57431904Y-98431009D02*
X57336666Y-98478628D01*
X57336666Y-98478628D02*
X56955714Y-98478628D01*
X58479523Y-98954819D02*
X57908095Y-98954819D01*
X58193809Y-98954819D02*
X58193809Y-97954819D01*
X58193809Y-97954819D02*
X58098571Y-98097676D01*
X58098571Y-98097676D02*
X58003333Y-98192914D01*
X58003333Y-98192914D02*
X57908095Y-98240533D01*
X59050952Y-98383390D02*
X58955714Y-98335771D01*
X58955714Y-98335771D02*
X58908095Y-98288152D01*
X58908095Y-98288152D02*
X58860476Y-98192914D01*
X58860476Y-98192914D02*
X58860476Y-98145295D01*
X58860476Y-98145295D02*
X58908095Y-98050057D01*
X58908095Y-98050057D02*
X58955714Y-98002438D01*
X58955714Y-98002438D02*
X59050952Y-97954819D01*
X59050952Y-97954819D02*
X59241428Y-97954819D01*
X59241428Y-97954819D02*
X59336666Y-98002438D01*
X59336666Y-98002438D02*
X59384285Y-98050057D01*
X59384285Y-98050057D02*
X59431904Y-98145295D01*
X59431904Y-98145295D02*
X59431904Y-98192914D01*
X59431904Y-98192914D02*
X59384285Y-98288152D01*
X59384285Y-98288152D02*
X59336666Y-98335771D01*
X59336666Y-98335771D02*
X59241428Y-98383390D01*
X59241428Y-98383390D02*
X59050952Y-98383390D01*
X59050952Y-98383390D02*
X58955714Y-98431009D01*
X58955714Y-98431009D02*
X58908095Y-98478628D01*
X58908095Y-98478628D02*
X58860476Y-98573866D01*
X58860476Y-98573866D02*
X58860476Y-98764342D01*
X58860476Y-98764342D02*
X58908095Y-98859580D01*
X58908095Y-98859580D02*
X58955714Y-98907200D01*
X58955714Y-98907200D02*
X59050952Y-98954819D01*
X59050952Y-98954819D02*
X59241428Y-98954819D01*
X59241428Y-98954819D02*
X59336666Y-98907200D01*
X59336666Y-98907200D02*
X59384285Y-98859580D01*
X59384285Y-98859580D02*
X59431904Y-98764342D01*
X59431904Y-98764342D02*
X59431904Y-98573866D01*
X59431904Y-98573866D02*
X59384285Y-98478628D01*
X59384285Y-98478628D02*
X59336666Y-98431009D01*
X59336666Y-98431009D02*
X59241428Y-98383390D01*
X57527142Y-105454819D02*
X57193809Y-104978628D01*
X56955714Y-105454819D02*
X56955714Y-104454819D01*
X56955714Y-104454819D02*
X57336666Y-104454819D01*
X57336666Y-104454819D02*
X57431904Y-104502438D01*
X57431904Y-104502438D02*
X57479523Y-104550057D01*
X57479523Y-104550057D02*
X57527142Y-104645295D01*
X57527142Y-104645295D02*
X57527142Y-104788152D01*
X57527142Y-104788152D02*
X57479523Y-104883390D01*
X57479523Y-104883390D02*
X57431904Y-104931009D01*
X57431904Y-104931009D02*
X57336666Y-104978628D01*
X57336666Y-104978628D02*
X56955714Y-104978628D01*
X57908095Y-104550057D02*
X57955714Y-104502438D01*
X57955714Y-104502438D02*
X58050952Y-104454819D01*
X58050952Y-104454819D02*
X58289047Y-104454819D01*
X58289047Y-104454819D02*
X58384285Y-104502438D01*
X58384285Y-104502438D02*
X58431904Y-104550057D01*
X58431904Y-104550057D02*
X58479523Y-104645295D01*
X58479523Y-104645295D02*
X58479523Y-104740533D01*
X58479523Y-104740533D02*
X58431904Y-104883390D01*
X58431904Y-104883390D02*
X57860476Y-105454819D01*
X57860476Y-105454819D02*
X58479523Y-105454819D01*
X59336666Y-104788152D02*
X59336666Y-105454819D01*
X59098571Y-104407200D02*
X58860476Y-105121485D01*
X58860476Y-105121485D02*
X59479523Y-105121485D01*
X72800057Y-102595238D02*
X72752438Y-102690476D01*
X72752438Y-102690476D02*
X72657200Y-102785714D01*
X72657200Y-102785714D02*
X72514342Y-102928571D01*
X72514342Y-102928571D02*
X72466723Y-103023809D01*
X72466723Y-103023809D02*
X72466723Y-103119047D01*
X72704819Y-103071428D02*
X72657200Y-103166666D01*
X72657200Y-103166666D02*
X72561961Y-103261904D01*
X72561961Y-103261904D02*
X72371485Y-103309523D01*
X72371485Y-103309523D02*
X72038152Y-103309523D01*
X72038152Y-103309523D02*
X71847676Y-103261904D01*
X71847676Y-103261904D02*
X71752438Y-103166666D01*
X71752438Y-103166666D02*
X71704819Y-103071428D01*
X71704819Y-103071428D02*
X71704819Y-102880952D01*
X71704819Y-102880952D02*
X71752438Y-102785714D01*
X71752438Y-102785714D02*
X71847676Y-102690476D01*
X71847676Y-102690476D02*
X72038152Y-102642857D01*
X72038152Y-102642857D02*
X72371485Y-102642857D01*
X72371485Y-102642857D02*
X72561961Y-102690476D01*
X72561961Y-102690476D02*
X72657200Y-102785714D01*
X72657200Y-102785714D02*
X72704819Y-102880952D01*
X72704819Y-102880952D02*
X72704819Y-103071428D01*
X72704819Y-101690476D02*
X72704819Y-102261904D01*
X72704819Y-101976190D02*
X71704819Y-101976190D01*
X71704819Y-101976190D02*
X71847676Y-102071428D01*
X71847676Y-102071428D02*
X71942914Y-102166666D01*
X71942914Y-102166666D02*
X71990533Y-102261904D01*
X121083333Y-109204819D02*
X120750000Y-108728628D01*
X120511905Y-109204819D02*
X120511905Y-108204819D01*
X120511905Y-108204819D02*
X120892857Y-108204819D01*
X120892857Y-108204819D02*
X120988095Y-108252438D01*
X120988095Y-108252438D02*
X121035714Y-108300057D01*
X121035714Y-108300057D02*
X121083333Y-108395295D01*
X121083333Y-108395295D02*
X121083333Y-108538152D01*
X121083333Y-108538152D02*
X121035714Y-108633390D01*
X121035714Y-108633390D02*
X120988095Y-108681009D01*
X120988095Y-108681009D02*
X120892857Y-108728628D01*
X120892857Y-108728628D02*
X120511905Y-108728628D01*
X121559524Y-109204819D02*
X121750000Y-109204819D01*
X121750000Y-109204819D02*
X121845238Y-109157200D01*
X121845238Y-109157200D02*
X121892857Y-109109580D01*
X121892857Y-109109580D02*
X121988095Y-108966723D01*
X121988095Y-108966723D02*
X122035714Y-108776247D01*
X122035714Y-108776247D02*
X122035714Y-108395295D01*
X122035714Y-108395295D02*
X121988095Y-108300057D01*
X121988095Y-108300057D02*
X121940476Y-108252438D01*
X121940476Y-108252438D02*
X121845238Y-108204819D01*
X121845238Y-108204819D02*
X121654762Y-108204819D01*
X121654762Y-108204819D02*
X121559524Y-108252438D01*
X121559524Y-108252438D02*
X121511905Y-108300057D01*
X121511905Y-108300057D02*
X121464286Y-108395295D01*
X121464286Y-108395295D02*
X121464286Y-108633390D01*
X121464286Y-108633390D02*
X121511905Y-108728628D01*
X121511905Y-108728628D02*
X121559524Y-108776247D01*
X121559524Y-108776247D02*
X121654762Y-108823866D01*
X121654762Y-108823866D02*
X121845238Y-108823866D01*
X121845238Y-108823866D02*
X121940476Y-108776247D01*
X121940476Y-108776247D02*
X121988095Y-108728628D01*
X121988095Y-108728628D02*
X122035714Y-108633390D01*
X76488095Y-65204819D02*
X77059523Y-65204819D01*
X76773809Y-66204819D02*
X76773809Y-65204819D01*
X77392857Y-66204819D02*
X77392857Y-65204819D01*
X77392857Y-65204819D02*
X77773809Y-65204819D01*
X77773809Y-65204819D02*
X77869047Y-65252438D01*
X77869047Y-65252438D02*
X77916666Y-65300057D01*
X77916666Y-65300057D02*
X77964285Y-65395295D01*
X77964285Y-65395295D02*
X77964285Y-65538152D01*
X77964285Y-65538152D02*
X77916666Y-65633390D01*
X77916666Y-65633390D02*
X77869047Y-65681009D01*
X77869047Y-65681009D02*
X77773809Y-65728628D01*
X77773809Y-65728628D02*
X77392857Y-65728628D01*
X78345238Y-65300057D02*
X78392857Y-65252438D01*
X78392857Y-65252438D02*
X78488095Y-65204819D01*
X78488095Y-65204819D02*
X78726190Y-65204819D01*
X78726190Y-65204819D02*
X78821428Y-65252438D01*
X78821428Y-65252438D02*
X78869047Y-65300057D01*
X78869047Y-65300057D02*
X78916666Y-65395295D01*
X78916666Y-65395295D02*
X78916666Y-65490533D01*
X78916666Y-65490533D02*
X78869047Y-65633390D01*
X78869047Y-65633390D02*
X78297619Y-66204819D01*
X78297619Y-66204819D02*
X78916666Y-66204819D01*
X76488095Y-60704819D02*
X77059523Y-60704819D01*
X76773809Y-61704819D02*
X76773809Y-60704819D01*
X77392857Y-61704819D02*
X77392857Y-60704819D01*
X77392857Y-60704819D02*
X77773809Y-60704819D01*
X77773809Y-60704819D02*
X77869047Y-60752438D01*
X77869047Y-60752438D02*
X77916666Y-60800057D01*
X77916666Y-60800057D02*
X77964285Y-60895295D01*
X77964285Y-60895295D02*
X77964285Y-61038152D01*
X77964285Y-61038152D02*
X77916666Y-61133390D01*
X77916666Y-61133390D02*
X77869047Y-61181009D01*
X77869047Y-61181009D02*
X77773809Y-61228628D01*
X77773809Y-61228628D02*
X77392857Y-61228628D01*
X78916666Y-61704819D02*
X78345238Y-61704819D01*
X78630952Y-61704819D02*
X78630952Y-60704819D01*
X78630952Y-60704819D02*
X78535714Y-60847676D01*
X78535714Y-60847676D02*
X78440476Y-60942914D01*
X78440476Y-60942914D02*
X78345238Y-60990533D01*
X57557142Y-89204819D02*
X57223809Y-88728628D01*
X56985714Y-89204819D02*
X56985714Y-88204819D01*
X56985714Y-88204819D02*
X57366666Y-88204819D01*
X57366666Y-88204819D02*
X57461904Y-88252438D01*
X57461904Y-88252438D02*
X57509523Y-88300057D01*
X57509523Y-88300057D02*
X57557142Y-88395295D01*
X57557142Y-88395295D02*
X57557142Y-88538152D01*
X57557142Y-88538152D02*
X57509523Y-88633390D01*
X57509523Y-88633390D02*
X57461904Y-88681009D01*
X57461904Y-88681009D02*
X57366666Y-88728628D01*
X57366666Y-88728628D02*
X56985714Y-88728628D01*
X57938095Y-88300057D02*
X57985714Y-88252438D01*
X57985714Y-88252438D02*
X58080952Y-88204819D01*
X58080952Y-88204819D02*
X58319047Y-88204819D01*
X58319047Y-88204819D02*
X58414285Y-88252438D01*
X58414285Y-88252438D02*
X58461904Y-88300057D01*
X58461904Y-88300057D02*
X58509523Y-88395295D01*
X58509523Y-88395295D02*
X58509523Y-88490533D01*
X58509523Y-88490533D02*
X58461904Y-88633390D01*
X58461904Y-88633390D02*
X57890476Y-89204819D01*
X57890476Y-89204819D02*
X58509523Y-89204819D01*
X58890476Y-88300057D02*
X58938095Y-88252438D01*
X58938095Y-88252438D02*
X59033333Y-88204819D01*
X59033333Y-88204819D02*
X59271428Y-88204819D01*
X59271428Y-88204819D02*
X59366666Y-88252438D01*
X59366666Y-88252438D02*
X59414285Y-88300057D01*
X59414285Y-88300057D02*
X59461904Y-88395295D01*
X59461904Y-88395295D02*
X59461904Y-88490533D01*
X59461904Y-88490533D02*
X59414285Y-88633390D01*
X59414285Y-88633390D02*
X58842857Y-89204819D01*
X58842857Y-89204819D02*
X59461904Y-89204819D01*
X62491905Y-52454819D02*
X62491905Y-51454819D01*
X62491905Y-51454819D02*
X62730000Y-51454819D01*
X62730000Y-51454819D02*
X62872857Y-51502438D01*
X62872857Y-51502438D02*
X62968095Y-51597676D01*
X62968095Y-51597676D02*
X63015714Y-51692914D01*
X63015714Y-51692914D02*
X63063333Y-51883390D01*
X63063333Y-51883390D02*
X63063333Y-52026247D01*
X63063333Y-52026247D02*
X63015714Y-52216723D01*
X63015714Y-52216723D02*
X62968095Y-52311961D01*
X62968095Y-52311961D02*
X62872857Y-52407200D01*
X62872857Y-52407200D02*
X62730000Y-52454819D01*
X62730000Y-52454819D02*
X62491905Y-52454819D01*
X64015714Y-52454819D02*
X63444286Y-52454819D01*
X63730000Y-52454819D02*
X63730000Y-51454819D01*
X63730000Y-51454819D02*
X63634762Y-51597676D01*
X63634762Y-51597676D02*
X63539524Y-51692914D01*
X63539524Y-51692914D02*
X63444286Y-51740533D01*
X57557142Y-85954819D02*
X57223809Y-85478628D01*
X56985714Y-85954819D02*
X56985714Y-84954819D01*
X56985714Y-84954819D02*
X57366666Y-84954819D01*
X57366666Y-84954819D02*
X57461904Y-85002438D01*
X57461904Y-85002438D02*
X57509523Y-85050057D01*
X57509523Y-85050057D02*
X57557142Y-85145295D01*
X57557142Y-85145295D02*
X57557142Y-85288152D01*
X57557142Y-85288152D02*
X57509523Y-85383390D01*
X57509523Y-85383390D02*
X57461904Y-85431009D01*
X57461904Y-85431009D02*
X57366666Y-85478628D01*
X57366666Y-85478628D02*
X56985714Y-85478628D01*
X57938095Y-85050057D02*
X57985714Y-85002438D01*
X57985714Y-85002438D02*
X58080952Y-84954819D01*
X58080952Y-84954819D02*
X58319047Y-84954819D01*
X58319047Y-84954819D02*
X58414285Y-85002438D01*
X58414285Y-85002438D02*
X58461904Y-85050057D01*
X58461904Y-85050057D02*
X58509523Y-85145295D01*
X58509523Y-85145295D02*
X58509523Y-85240533D01*
X58509523Y-85240533D02*
X58461904Y-85383390D01*
X58461904Y-85383390D02*
X57890476Y-85954819D01*
X57890476Y-85954819D02*
X58509523Y-85954819D01*
X59461904Y-85954819D02*
X58890476Y-85954819D01*
X59176190Y-85954819D02*
X59176190Y-84954819D01*
X59176190Y-84954819D02*
X59080952Y-85097676D01*
X59080952Y-85097676D02*
X58985714Y-85192914D01*
X58985714Y-85192914D02*
X58890476Y-85240533D01*
X93354819Y-101133333D02*
X94069104Y-101133333D01*
X94069104Y-101133333D02*
X94211961Y-101180952D01*
X94211961Y-101180952D02*
X94307200Y-101276190D01*
X94307200Y-101276190D02*
X94354819Y-101419047D01*
X94354819Y-101419047D02*
X94354819Y-101514285D01*
X93354819Y-100752380D02*
X93354819Y-100133333D01*
X93354819Y-100133333D02*
X93735771Y-100466666D01*
X93735771Y-100466666D02*
X93735771Y-100323809D01*
X93735771Y-100323809D02*
X93783390Y-100228571D01*
X93783390Y-100228571D02*
X93831009Y-100180952D01*
X93831009Y-100180952D02*
X93926247Y-100133333D01*
X93926247Y-100133333D02*
X94164342Y-100133333D01*
X94164342Y-100133333D02*
X94259580Y-100180952D01*
X94259580Y-100180952D02*
X94307200Y-100228571D01*
X94307200Y-100228571D02*
X94354819Y-100323809D01*
X94354819Y-100323809D02*
X94354819Y-100609523D01*
X94354819Y-100609523D02*
X94307200Y-100704761D01*
X94307200Y-100704761D02*
X94259580Y-100752380D01*
X57527142Y-102204819D02*
X57193809Y-101728628D01*
X56955714Y-102204819D02*
X56955714Y-101204819D01*
X56955714Y-101204819D02*
X57336666Y-101204819D01*
X57336666Y-101204819D02*
X57431904Y-101252438D01*
X57431904Y-101252438D02*
X57479523Y-101300057D01*
X57479523Y-101300057D02*
X57527142Y-101395295D01*
X57527142Y-101395295D02*
X57527142Y-101538152D01*
X57527142Y-101538152D02*
X57479523Y-101633390D01*
X57479523Y-101633390D02*
X57431904Y-101681009D01*
X57431904Y-101681009D02*
X57336666Y-101728628D01*
X57336666Y-101728628D02*
X56955714Y-101728628D01*
X57908095Y-101300057D02*
X57955714Y-101252438D01*
X57955714Y-101252438D02*
X58050952Y-101204819D01*
X58050952Y-101204819D02*
X58289047Y-101204819D01*
X58289047Y-101204819D02*
X58384285Y-101252438D01*
X58384285Y-101252438D02*
X58431904Y-101300057D01*
X58431904Y-101300057D02*
X58479523Y-101395295D01*
X58479523Y-101395295D02*
X58479523Y-101490533D01*
X58479523Y-101490533D02*
X58431904Y-101633390D01*
X58431904Y-101633390D02*
X57860476Y-102204819D01*
X57860476Y-102204819D02*
X58479523Y-102204819D01*
X59098571Y-101204819D02*
X59193809Y-101204819D01*
X59193809Y-101204819D02*
X59289047Y-101252438D01*
X59289047Y-101252438D02*
X59336666Y-101300057D01*
X59336666Y-101300057D02*
X59384285Y-101395295D01*
X59384285Y-101395295D02*
X59431904Y-101585771D01*
X59431904Y-101585771D02*
X59431904Y-101823866D01*
X59431904Y-101823866D02*
X59384285Y-102014342D01*
X59384285Y-102014342D02*
X59336666Y-102109580D01*
X59336666Y-102109580D02*
X59289047Y-102157200D01*
X59289047Y-102157200D02*
X59193809Y-102204819D01*
X59193809Y-102204819D02*
X59098571Y-102204819D01*
X59098571Y-102204819D02*
X59003333Y-102157200D01*
X59003333Y-102157200D02*
X58955714Y-102109580D01*
X58955714Y-102109580D02*
X58908095Y-102014342D01*
X58908095Y-102014342D02*
X58860476Y-101823866D01*
X58860476Y-101823866D02*
X58860476Y-101585771D01*
X58860476Y-101585771D02*
X58908095Y-101395295D01*
X58908095Y-101395295D02*
X58955714Y-101300057D01*
X58955714Y-101300057D02*
X59003333Y-101252438D01*
X59003333Y-101252438D02*
X59098571Y-101204819D01*
X86238095Y-79454819D02*
X86809523Y-79454819D01*
X86523809Y-80454819D02*
X86523809Y-79454819D01*
X87142857Y-80454819D02*
X87142857Y-79454819D01*
X87142857Y-79454819D02*
X87523809Y-79454819D01*
X87523809Y-79454819D02*
X87619047Y-79502438D01*
X87619047Y-79502438D02*
X87666666Y-79550057D01*
X87666666Y-79550057D02*
X87714285Y-79645295D01*
X87714285Y-79645295D02*
X87714285Y-79788152D01*
X87714285Y-79788152D02*
X87666666Y-79883390D01*
X87666666Y-79883390D02*
X87619047Y-79931009D01*
X87619047Y-79931009D02*
X87523809Y-79978628D01*
X87523809Y-79978628D02*
X87142857Y-79978628D01*
X88571428Y-79788152D02*
X88571428Y-80454819D01*
X88333333Y-79407200D02*
X88095238Y-80121485D01*
X88095238Y-80121485D02*
X88714285Y-80121485D01*
X96011905Y-71454819D02*
X96011905Y-70454819D01*
X96011905Y-70454819D02*
X96250000Y-70454819D01*
X96250000Y-70454819D02*
X96392857Y-70502438D01*
X96392857Y-70502438D02*
X96488095Y-70597676D01*
X96488095Y-70597676D02*
X96535714Y-70692914D01*
X96535714Y-70692914D02*
X96583333Y-70883390D01*
X96583333Y-70883390D02*
X96583333Y-71026247D01*
X96583333Y-71026247D02*
X96535714Y-71216723D01*
X96535714Y-71216723D02*
X96488095Y-71311961D01*
X96488095Y-71311961D02*
X96392857Y-71407200D01*
X96392857Y-71407200D02*
X96250000Y-71454819D01*
X96250000Y-71454819D02*
X96011905Y-71454819D01*
X96916667Y-70454819D02*
X97535714Y-70454819D01*
X97535714Y-70454819D02*
X97202381Y-70835771D01*
X97202381Y-70835771D02*
X97345238Y-70835771D01*
X97345238Y-70835771D02*
X97440476Y-70883390D01*
X97440476Y-70883390D02*
X97488095Y-70931009D01*
X97488095Y-70931009D02*
X97535714Y-71026247D01*
X97535714Y-71026247D02*
X97535714Y-71264342D01*
X97535714Y-71264342D02*
X97488095Y-71359580D01*
X97488095Y-71359580D02*
X97440476Y-71407200D01*
X97440476Y-71407200D02*
X97345238Y-71454819D01*
X97345238Y-71454819D02*
X97059524Y-71454819D01*
X97059524Y-71454819D02*
X96964286Y-71407200D01*
X96964286Y-71407200D02*
X96916667Y-71359580D01*
X120404761Y-76454819D02*
X120071428Y-75978628D01*
X119833333Y-76454819D02*
X119833333Y-75454819D01*
X119833333Y-75454819D02*
X120214285Y-75454819D01*
X120214285Y-75454819D02*
X120309523Y-75502438D01*
X120309523Y-75502438D02*
X120357142Y-75550057D01*
X120357142Y-75550057D02*
X120404761Y-75645295D01*
X120404761Y-75645295D02*
X120404761Y-75788152D01*
X120404761Y-75788152D02*
X120357142Y-75883390D01*
X120357142Y-75883390D02*
X120309523Y-75931009D01*
X120309523Y-75931009D02*
X120214285Y-75978628D01*
X120214285Y-75978628D02*
X119833333Y-75978628D01*
X120690476Y-75454819D02*
X121023809Y-76454819D01*
X121023809Y-76454819D02*
X121357142Y-75454819D01*
X121642857Y-75550057D02*
X121690476Y-75502438D01*
X121690476Y-75502438D02*
X121785714Y-75454819D01*
X121785714Y-75454819D02*
X122023809Y-75454819D01*
X122023809Y-75454819D02*
X122119047Y-75502438D01*
X122119047Y-75502438D02*
X122166666Y-75550057D01*
X122166666Y-75550057D02*
X122214285Y-75645295D01*
X122214285Y-75645295D02*
X122214285Y-75740533D01*
X122214285Y-75740533D02*
X122166666Y-75883390D01*
X122166666Y-75883390D02*
X121595238Y-76454819D01*
X121595238Y-76454819D02*
X122214285Y-76454819D01*
X96011905Y-107454819D02*
X96011905Y-106454819D01*
X96011905Y-106454819D02*
X96250000Y-106454819D01*
X96250000Y-106454819D02*
X96392857Y-106502438D01*
X96392857Y-106502438D02*
X96488095Y-106597676D01*
X96488095Y-106597676D02*
X96535714Y-106692914D01*
X96535714Y-106692914D02*
X96583333Y-106883390D01*
X96583333Y-106883390D02*
X96583333Y-107026247D01*
X96583333Y-107026247D02*
X96535714Y-107216723D01*
X96535714Y-107216723D02*
X96488095Y-107311961D01*
X96488095Y-107311961D02*
X96392857Y-107407200D01*
X96392857Y-107407200D02*
X96250000Y-107454819D01*
X96250000Y-107454819D02*
X96011905Y-107454819D01*
X97488095Y-106454819D02*
X97011905Y-106454819D01*
X97011905Y-106454819D02*
X96964286Y-106931009D01*
X96964286Y-106931009D02*
X97011905Y-106883390D01*
X97011905Y-106883390D02*
X97107143Y-106835771D01*
X97107143Y-106835771D02*
X97345238Y-106835771D01*
X97345238Y-106835771D02*
X97440476Y-106883390D01*
X97440476Y-106883390D02*
X97488095Y-106931009D01*
X97488095Y-106931009D02*
X97535714Y-107026247D01*
X97535714Y-107026247D02*
X97535714Y-107264342D01*
X97535714Y-107264342D02*
X97488095Y-107359580D01*
X97488095Y-107359580D02*
X97440476Y-107407200D01*
X97440476Y-107407200D02*
X97345238Y-107454819D01*
X97345238Y-107454819D02*
X97107143Y-107454819D01*
X97107143Y-107454819D02*
X97011905Y-107407200D01*
X97011905Y-107407200D02*
X96964286Y-107359580D01*
X76488095Y-69704819D02*
X77059523Y-69704819D01*
X76773809Y-70704819D02*
X76773809Y-69704819D01*
X77392857Y-70704819D02*
X77392857Y-69704819D01*
X77392857Y-69704819D02*
X77773809Y-69704819D01*
X77773809Y-69704819D02*
X77869047Y-69752438D01*
X77869047Y-69752438D02*
X77916666Y-69800057D01*
X77916666Y-69800057D02*
X77964285Y-69895295D01*
X77964285Y-69895295D02*
X77964285Y-70038152D01*
X77964285Y-70038152D02*
X77916666Y-70133390D01*
X77916666Y-70133390D02*
X77869047Y-70181009D01*
X77869047Y-70181009D02*
X77773809Y-70228628D01*
X77773809Y-70228628D02*
X77392857Y-70228628D01*
X78297619Y-69704819D02*
X78916666Y-69704819D01*
X78916666Y-69704819D02*
X78583333Y-70085771D01*
X78583333Y-70085771D02*
X78726190Y-70085771D01*
X78726190Y-70085771D02*
X78821428Y-70133390D01*
X78821428Y-70133390D02*
X78869047Y-70181009D01*
X78869047Y-70181009D02*
X78916666Y-70276247D01*
X78916666Y-70276247D02*
X78916666Y-70514342D01*
X78916666Y-70514342D02*
X78869047Y-70609580D01*
X78869047Y-70609580D02*
X78821428Y-70657200D01*
X78821428Y-70657200D02*
X78726190Y-70704819D01*
X78726190Y-70704819D02*
X78440476Y-70704819D01*
X78440476Y-70704819D02*
X78345238Y-70657200D01*
X78345238Y-70657200D02*
X78297619Y-70609580D01*
X120607142Y-127204819D02*
X120273809Y-126728628D01*
X120035714Y-127204819D02*
X120035714Y-126204819D01*
X120035714Y-126204819D02*
X120416666Y-126204819D01*
X120416666Y-126204819D02*
X120511904Y-126252438D01*
X120511904Y-126252438D02*
X120559523Y-126300057D01*
X120559523Y-126300057D02*
X120607142Y-126395295D01*
X120607142Y-126395295D02*
X120607142Y-126538152D01*
X120607142Y-126538152D02*
X120559523Y-126633390D01*
X120559523Y-126633390D02*
X120511904Y-126681009D01*
X120511904Y-126681009D02*
X120416666Y-126728628D01*
X120416666Y-126728628D02*
X120035714Y-126728628D01*
X121559523Y-127204819D02*
X120988095Y-127204819D01*
X121273809Y-127204819D02*
X121273809Y-126204819D01*
X121273809Y-126204819D02*
X121178571Y-126347676D01*
X121178571Y-126347676D02*
X121083333Y-126442914D01*
X121083333Y-126442914D02*
X120988095Y-126490533D01*
X121940476Y-126300057D02*
X121988095Y-126252438D01*
X121988095Y-126252438D02*
X122083333Y-126204819D01*
X122083333Y-126204819D02*
X122321428Y-126204819D01*
X122321428Y-126204819D02*
X122416666Y-126252438D01*
X122416666Y-126252438D02*
X122464285Y-126300057D01*
X122464285Y-126300057D02*
X122511904Y-126395295D01*
X122511904Y-126395295D02*
X122511904Y-126490533D01*
X122511904Y-126490533D02*
X122464285Y-126633390D01*
X122464285Y-126633390D02*
X121892857Y-127204819D01*
X121892857Y-127204819D02*
X122511904Y-127204819D01*
X81761905Y-69704819D02*
X82333333Y-69704819D01*
X82047619Y-70704819D02*
X82047619Y-69704819D01*
X82666667Y-70704819D02*
X82666667Y-69704819D01*
X82666667Y-69704819D02*
X83047619Y-69704819D01*
X83047619Y-69704819D02*
X83142857Y-69752438D01*
X83142857Y-69752438D02*
X83190476Y-69800057D01*
X83190476Y-69800057D02*
X83238095Y-69895295D01*
X83238095Y-69895295D02*
X83238095Y-70038152D01*
X83238095Y-70038152D02*
X83190476Y-70133390D01*
X83190476Y-70133390D02*
X83142857Y-70181009D01*
X83142857Y-70181009D02*
X83047619Y-70228628D01*
X83047619Y-70228628D02*
X82666667Y-70228628D01*
X84190476Y-70704819D02*
X83619048Y-70704819D01*
X83904762Y-70704819D02*
X83904762Y-69704819D01*
X83904762Y-69704819D02*
X83809524Y-69847676D01*
X83809524Y-69847676D02*
X83714286Y-69942914D01*
X83714286Y-69942914D02*
X83619048Y-69990533D01*
X85142857Y-70704819D02*
X84571429Y-70704819D01*
X84857143Y-70704819D02*
X84857143Y-69704819D01*
X84857143Y-69704819D02*
X84761905Y-69847676D01*
X84761905Y-69847676D02*
X84666667Y-69942914D01*
X84666667Y-69942914D02*
X84571429Y-69990533D01*
X121003333Y-91204819D02*
X120670000Y-90728628D01*
X120431905Y-91204819D02*
X120431905Y-90204819D01*
X120431905Y-90204819D02*
X120812857Y-90204819D01*
X120812857Y-90204819D02*
X120908095Y-90252438D01*
X120908095Y-90252438D02*
X120955714Y-90300057D01*
X120955714Y-90300057D02*
X121003333Y-90395295D01*
X121003333Y-90395295D02*
X121003333Y-90538152D01*
X121003333Y-90538152D02*
X120955714Y-90633390D01*
X120955714Y-90633390D02*
X120908095Y-90681009D01*
X120908095Y-90681009D02*
X120812857Y-90728628D01*
X120812857Y-90728628D02*
X120431905Y-90728628D01*
X121860476Y-90204819D02*
X121670000Y-90204819D01*
X121670000Y-90204819D02*
X121574762Y-90252438D01*
X121574762Y-90252438D02*
X121527143Y-90300057D01*
X121527143Y-90300057D02*
X121431905Y-90442914D01*
X121431905Y-90442914D02*
X121384286Y-90633390D01*
X121384286Y-90633390D02*
X121384286Y-91014342D01*
X121384286Y-91014342D02*
X121431905Y-91109580D01*
X121431905Y-91109580D02*
X121479524Y-91157200D01*
X121479524Y-91157200D02*
X121574762Y-91204819D01*
X121574762Y-91204819D02*
X121765238Y-91204819D01*
X121765238Y-91204819D02*
X121860476Y-91157200D01*
X121860476Y-91157200D02*
X121908095Y-91109580D01*
X121908095Y-91109580D02*
X121955714Y-91014342D01*
X121955714Y-91014342D02*
X121955714Y-90776247D01*
X121955714Y-90776247D02*
X121908095Y-90681009D01*
X121908095Y-90681009D02*
X121860476Y-90633390D01*
X121860476Y-90633390D02*
X121765238Y-90585771D01*
X121765238Y-90585771D02*
X121574762Y-90585771D01*
X121574762Y-90585771D02*
X121479524Y-90633390D01*
X121479524Y-90633390D02*
X121431905Y-90681009D01*
X121431905Y-90681009D02*
X121384286Y-90776247D01*
X120404761Y-94454819D02*
X120071428Y-93978628D01*
X119833333Y-94454819D02*
X119833333Y-93454819D01*
X119833333Y-93454819D02*
X120214285Y-93454819D01*
X120214285Y-93454819D02*
X120309523Y-93502438D01*
X120309523Y-93502438D02*
X120357142Y-93550057D01*
X120357142Y-93550057D02*
X120404761Y-93645295D01*
X120404761Y-93645295D02*
X120404761Y-93788152D01*
X120404761Y-93788152D02*
X120357142Y-93883390D01*
X120357142Y-93883390D02*
X120309523Y-93931009D01*
X120309523Y-93931009D02*
X120214285Y-93978628D01*
X120214285Y-93978628D02*
X119833333Y-93978628D01*
X120690476Y-93454819D02*
X121023809Y-94454819D01*
X121023809Y-94454819D02*
X121357142Y-93454819D01*
X121595238Y-93454819D02*
X122214285Y-93454819D01*
X122214285Y-93454819D02*
X121880952Y-93835771D01*
X121880952Y-93835771D02*
X122023809Y-93835771D01*
X122023809Y-93835771D02*
X122119047Y-93883390D01*
X122119047Y-93883390D02*
X122166666Y-93931009D01*
X122166666Y-93931009D02*
X122214285Y-94026247D01*
X122214285Y-94026247D02*
X122214285Y-94264342D01*
X122214285Y-94264342D02*
X122166666Y-94359580D01*
X122166666Y-94359580D02*
X122119047Y-94407200D01*
X122119047Y-94407200D02*
X122023809Y-94454819D01*
X122023809Y-94454819D02*
X121738095Y-94454819D01*
X121738095Y-94454819D02*
X121642857Y-94407200D01*
X121642857Y-94407200D02*
X121595238Y-94359580D01*
X82520476Y-118454819D02*
X82187143Y-117978628D01*
X81949048Y-118454819D02*
X81949048Y-117454819D01*
X81949048Y-117454819D02*
X82330000Y-117454819D01*
X82330000Y-117454819D02*
X82425238Y-117502438D01*
X82425238Y-117502438D02*
X82472857Y-117550057D01*
X82472857Y-117550057D02*
X82520476Y-117645295D01*
X82520476Y-117645295D02*
X82520476Y-117788152D01*
X82520476Y-117788152D02*
X82472857Y-117883390D01*
X82472857Y-117883390D02*
X82425238Y-117931009D01*
X82425238Y-117931009D02*
X82330000Y-117978628D01*
X82330000Y-117978628D02*
X81949048Y-117978628D01*
X83472857Y-118454819D02*
X82901429Y-118454819D01*
X83187143Y-118454819D02*
X83187143Y-117454819D01*
X83187143Y-117454819D02*
X83091905Y-117597676D01*
X83091905Y-117597676D02*
X82996667Y-117692914D01*
X82996667Y-117692914D02*
X82901429Y-117740533D01*
X83806191Y-117454819D02*
X84425238Y-117454819D01*
X84425238Y-117454819D02*
X84091905Y-117835771D01*
X84091905Y-117835771D02*
X84234762Y-117835771D01*
X84234762Y-117835771D02*
X84330000Y-117883390D01*
X84330000Y-117883390D02*
X84377619Y-117931009D01*
X84377619Y-117931009D02*
X84425238Y-118026247D01*
X84425238Y-118026247D02*
X84425238Y-118264342D01*
X84425238Y-118264342D02*
X84377619Y-118359580D01*
X84377619Y-118359580D02*
X84330000Y-118407200D01*
X84330000Y-118407200D02*
X84234762Y-118454819D01*
X84234762Y-118454819D02*
X83949048Y-118454819D01*
X83949048Y-118454819D02*
X83853810Y-118407200D01*
X83853810Y-118407200D02*
X83806191Y-118359580D01*
X82996667Y-108704819D02*
X82663334Y-108228628D01*
X82425239Y-108704819D02*
X82425239Y-107704819D01*
X82425239Y-107704819D02*
X82806191Y-107704819D01*
X82806191Y-107704819D02*
X82901429Y-107752438D01*
X82901429Y-107752438D02*
X82949048Y-107800057D01*
X82949048Y-107800057D02*
X82996667Y-107895295D01*
X82996667Y-107895295D02*
X82996667Y-108038152D01*
X82996667Y-108038152D02*
X82949048Y-108133390D01*
X82949048Y-108133390D02*
X82901429Y-108181009D01*
X82901429Y-108181009D02*
X82806191Y-108228628D01*
X82806191Y-108228628D02*
X82425239Y-108228628D01*
X83568096Y-108133390D02*
X83472858Y-108085771D01*
X83472858Y-108085771D02*
X83425239Y-108038152D01*
X83425239Y-108038152D02*
X83377620Y-107942914D01*
X83377620Y-107942914D02*
X83377620Y-107895295D01*
X83377620Y-107895295D02*
X83425239Y-107800057D01*
X83425239Y-107800057D02*
X83472858Y-107752438D01*
X83472858Y-107752438D02*
X83568096Y-107704819D01*
X83568096Y-107704819D02*
X83758572Y-107704819D01*
X83758572Y-107704819D02*
X83853810Y-107752438D01*
X83853810Y-107752438D02*
X83901429Y-107800057D01*
X83901429Y-107800057D02*
X83949048Y-107895295D01*
X83949048Y-107895295D02*
X83949048Y-107942914D01*
X83949048Y-107942914D02*
X83901429Y-108038152D01*
X83901429Y-108038152D02*
X83853810Y-108085771D01*
X83853810Y-108085771D02*
X83758572Y-108133390D01*
X83758572Y-108133390D02*
X83568096Y-108133390D01*
X83568096Y-108133390D02*
X83472858Y-108181009D01*
X83472858Y-108181009D02*
X83425239Y-108228628D01*
X83425239Y-108228628D02*
X83377620Y-108323866D01*
X83377620Y-108323866D02*
X83377620Y-108514342D01*
X83377620Y-108514342D02*
X83425239Y-108609580D01*
X83425239Y-108609580D02*
X83472858Y-108657200D01*
X83472858Y-108657200D02*
X83568096Y-108704819D01*
X83568096Y-108704819D02*
X83758572Y-108704819D01*
X83758572Y-108704819D02*
X83853810Y-108657200D01*
X83853810Y-108657200D02*
X83901429Y-108609580D01*
X83901429Y-108609580D02*
X83949048Y-108514342D01*
X83949048Y-108514342D02*
X83949048Y-108323866D01*
X83949048Y-108323866D02*
X83901429Y-108228628D01*
X83901429Y-108228628D02*
X83853810Y-108181009D01*
X83853810Y-108181009D02*
X83758572Y-108133390D01*
X123107142Y-141454819D02*
X122773809Y-140978628D01*
X122535714Y-141454819D02*
X122535714Y-140454819D01*
X122535714Y-140454819D02*
X122916666Y-140454819D01*
X122916666Y-140454819D02*
X123011904Y-140502438D01*
X123011904Y-140502438D02*
X123059523Y-140550057D01*
X123059523Y-140550057D02*
X123107142Y-140645295D01*
X123107142Y-140645295D02*
X123107142Y-140788152D01*
X123107142Y-140788152D02*
X123059523Y-140883390D01*
X123059523Y-140883390D02*
X123011904Y-140931009D01*
X123011904Y-140931009D02*
X122916666Y-140978628D01*
X122916666Y-140978628D02*
X122535714Y-140978628D01*
X124059523Y-141454819D02*
X123488095Y-141454819D01*
X123773809Y-141454819D02*
X123773809Y-140454819D01*
X123773809Y-140454819D02*
X123678571Y-140597676D01*
X123678571Y-140597676D02*
X123583333Y-140692914D01*
X123583333Y-140692914D02*
X123488095Y-140740533D01*
X124535714Y-141454819D02*
X124726190Y-141454819D01*
X124726190Y-141454819D02*
X124821428Y-141407200D01*
X124821428Y-141407200D02*
X124869047Y-141359580D01*
X124869047Y-141359580D02*
X124964285Y-141216723D01*
X124964285Y-141216723D02*
X125011904Y-141026247D01*
X125011904Y-141026247D02*
X125011904Y-140645295D01*
X125011904Y-140645295D02*
X124964285Y-140550057D01*
X124964285Y-140550057D02*
X124916666Y-140502438D01*
X124916666Y-140502438D02*
X124821428Y-140454819D01*
X124821428Y-140454819D02*
X124630952Y-140454819D01*
X124630952Y-140454819D02*
X124535714Y-140502438D01*
X124535714Y-140502438D02*
X124488095Y-140550057D01*
X124488095Y-140550057D02*
X124440476Y-140645295D01*
X124440476Y-140645295D02*
X124440476Y-140883390D01*
X124440476Y-140883390D02*
X124488095Y-140978628D01*
X124488095Y-140978628D02*
X124535714Y-141026247D01*
X124535714Y-141026247D02*
X124630952Y-141073866D01*
X124630952Y-141073866D02*
X124821428Y-141073866D01*
X124821428Y-141073866D02*
X124916666Y-141026247D01*
X124916666Y-141026247D02*
X124964285Y-140978628D01*
X124964285Y-140978628D02*
X125011904Y-140883390D01*
X64761905Y-116954819D02*
X65333333Y-116954819D01*
X65047619Y-117954819D02*
X65047619Y-116954819D01*
X65666667Y-117954819D02*
X65666667Y-116954819D01*
X65666667Y-116954819D02*
X66047619Y-116954819D01*
X66047619Y-116954819D02*
X66142857Y-117002438D01*
X66142857Y-117002438D02*
X66190476Y-117050057D01*
X66190476Y-117050057D02*
X66238095Y-117145295D01*
X66238095Y-117145295D02*
X66238095Y-117288152D01*
X66238095Y-117288152D02*
X66190476Y-117383390D01*
X66190476Y-117383390D02*
X66142857Y-117431009D01*
X66142857Y-117431009D02*
X66047619Y-117478628D01*
X66047619Y-117478628D02*
X65666667Y-117478628D01*
X67190476Y-117954819D02*
X66619048Y-117954819D01*
X66904762Y-117954819D02*
X66904762Y-116954819D01*
X66904762Y-116954819D02*
X66809524Y-117097676D01*
X66809524Y-117097676D02*
X66714286Y-117192914D01*
X66714286Y-117192914D02*
X66619048Y-117240533D01*
X67809524Y-116954819D02*
X67904762Y-116954819D01*
X67904762Y-116954819D02*
X68000000Y-117002438D01*
X68000000Y-117002438D02*
X68047619Y-117050057D01*
X68047619Y-117050057D02*
X68095238Y-117145295D01*
X68095238Y-117145295D02*
X68142857Y-117335771D01*
X68142857Y-117335771D02*
X68142857Y-117573866D01*
X68142857Y-117573866D02*
X68095238Y-117764342D01*
X68095238Y-117764342D02*
X68047619Y-117859580D01*
X68047619Y-117859580D02*
X68000000Y-117907200D01*
X68000000Y-117907200D02*
X67904762Y-117954819D01*
X67904762Y-117954819D02*
X67809524Y-117954819D01*
X67809524Y-117954819D02*
X67714286Y-117907200D01*
X67714286Y-117907200D02*
X67666667Y-117859580D01*
X67666667Y-117859580D02*
X67619048Y-117764342D01*
X67619048Y-117764342D02*
X67571429Y-117573866D01*
X67571429Y-117573866D02*
X67571429Y-117335771D01*
X67571429Y-117335771D02*
X67619048Y-117145295D01*
X67619048Y-117145295D02*
X67666667Y-117050057D01*
X67666667Y-117050057D02*
X67714286Y-117002438D01*
X67714286Y-117002438D02*
X67809524Y-116954819D01*
X93354819Y-119133333D02*
X94069104Y-119133333D01*
X94069104Y-119133333D02*
X94211961Y-119180952D01*
X94211961Y-119180952D02*
X94307200Y-119276190D01*
X94307200Y-119276190D02*
X94354819Y-119419047D01*
X94354819Y-119419047D02*
X94354819Y-119514285D01*
X93688152Y-118228571D02*
X94354819Y-118228571D01*
X93307200Y-118466666D02*
X94021485Y-118704761D01*
X94021485Y-118704761D02*
X94021485Y-118085714D01*
X82996667Y-99079819D02*
X82663334Y-98603628D01*
X82425239Y-99079819D02*
X82425239Y-98079819D01*
X82425239Y-98079819D02*
X82806191Y-98079819D01*
X82806191Y-98079819D02*
X82901429Y-98127438D01*
X82901429Y-98127438D02*
X82949048Y-98175057D01*
X82949048Y-98175057D02*
X82996667Y-98270295D01*
X82996667Y-98270295D02*
X82996667Y-98413152D01*
X82996667Y-98413152D02*
X82949048Y-98508390D01*
X82949048Y-98508390D02*
X82901429Y-98556009D01*
X82901429Y-98556009D02*
X82806191Y-98603628D01*
X82806191Y-98603628D02*
X82425239Y-98603628D01*
X83853810Y-98413152D02*
X83853810Y-99079819D01*
X83615715Y-98032200D02*
X83377620Y-98746485D01*
X83377620Y-98746485D02*
X83996667Y-98746485D01*
X66833333Y-73454819D02*
X66500000Y-72978628D01*
X66261905Y-73454819D02*
X66261905Y-72454819D01*
X66261905Y-72454819D02*
X66642857Y-72454819D01*
X66642857Y-72454819D02*
X66738095Y-72502438D01*
X66738095Y-72502438D02*
X66785714Y-72550057D01*
X66785714Y-72550057D02*
X66833333Y-72645295D01*
X66833333Y-72645295D02*
X66833333Y-72788152D01*
X66833333Y-72788152D02*
X66785714Y-72883390D01*
X66785714Y-72883390D02*
X66738095Y-72931009D01*
X66738095Y-72931009D02*
X66642857Y-72978628D01*
X66642857Y-72978628D02*
X66261905Y-72978628D01*
X67214286Y-72550057D02*
X67261905Y-72502438D01*
X67261905Y-72502438D02*
X67357143Y-72454819D01*
X67357143Y-72454819D02*
X67595238Y-72454819D01*
X67595238Y-72454819D02*
X67690476Y-72502438D01*
X67690476Y-72502438D02*
X67738095Y-72550057D01*
X67738095Y-72550057D02*
X67785714Y-72645295D01*
X67785714Y-72645295D02*
X67785714Y-72740533D01*
X67785714Y-72740533D02*
X67738095Y-72883390D01*
X67738095Y-72883390D02*
X67166667Y-73454819D01*
X67166667Y-73454819D02*
X67785714Y-73454819D01*
X67061905Y-76704819D02*
X67061905Y-75704819D01*
X67061905Y-75704819D02*
X67300000Y-75704819D01*
X67300000Y-75704819D02*
X67442857Y-75752438D01*
X67442857Y-75752438D02*
X67538095Y-75847676D01*
X67538095Y-75847676D02*
X67585714Y-75942914D01*
X67585714Y-75942914D02*
X67633333Y-76133390D01*
X67633333Y-76133390D02*
X67633333Y-76276247D01*
X67633333Y-76276247D02*
X67585714Y-76466723D01*
X67585714Y-76466723D02*
X67538095Y-76561961D01*
X67538095Y-76561961D02*
X67442857Y-76657200D01*
X67442857Y-76657200D02*
X67300000Y-76704819D01*
X67300000Y-76704819D02*
X67061905Y-76704819D01*
X68014286Y-75800057D02*
X68061905Y-75752438D01*
X68061905Y-75752438D02*
X68157143Y-75704819D01*
X68157143Y-75704819D02*
X68395238Y-75704819D01*
X68395238Y-75704819D02*
X68490476Y-75752438D01*
X68490476Y-75752438D02*
X68538095Y-75800057D01*
X68538095Y-75800057D02*
X68585714Y-75895295D01*
X68585714Y-75895295D02*
X68585714Y-75990533D01*
X68585714Y-75990533D02*
X68538095Y-76133390D01*
X68538095Y-76133390D02*
X67966667Y-76704819D01*
X67966667Y-76704819D02*
X68585714Y-76704819D01*
X59684819Y-158761904D02*
X58684819Y-158761904D01*
X59161009Y-158761904D02*
X59161009Y-158190476D01*
X59684819Y-158190476D02*
X58684819Y-158190476D01*
X58684819Y-157809523D02*
X58684819Y-157190476D01*
X58684819Y-157190476D02*
X59065771Y-157523809D01*
X59065771Y-157523809D02*
X59065771Y-157380952D01*
X59065771Y-157380952D02*
X59113390Y-157285714D01*
X59113390Y-157285714D02*
X59161009Y-157238095D01*
X59161009Y-157238095D02*
X59256247Y-157190476D01*
X59256247Y-157190476D02*
X59494342Y-157190476D01*
X59494342Y-157190476D02*
X59589580Y-157238095D01*
X59589580Y-157238095D02*
X59637200Y-157285714D01*
X59637200Y-157285714D02*
X59684819Y-157380952D01*
X59684819Y-157380952D02*
X59684819Y-157666666D01*
X59684819Y-157666666D02*
X59637200Y-157761904D01*
X59637200Y-157761904D02*
X59589580Y-157809523D01*
X69238095Y-97684819D02*
X69238095Y-96684819D01*
X69238095Y-97161009D02*
X69809523Y-97161009D01*
X69809523Y-97684819D02*
X69809523Y-96684819D01*
X70238095Y-96780057D02*
X70285714Y-96732438D01*
X70285714Y-96732438D02*
X70380952Y-96684819D01*
X70380952Y-96684819D02*
X70619047Y-96684819D01*
X70619047Y-96684819D02*
X70714285Y-96732438D01*
X70714285Y-96732438D02*
X70761904Y-96780057D01*
X70761904Y-96780057D02*
X70809523Y-96875295D01*
X70809523Y-96875295D02*
X70809523Y-96970533D01*
X70809523Y-96970533D02*
X70761904Y-97113390D01*
X70761904Y-97113390D02*
X70190476Y-97684819D01*
X70190476Y-97684819D02*
X70809523Y-97684819D01*
X120753333Y-73204819D02*
X120420000Y-72728628D01*
X120181905Y-73204819D02*
X120181905Y-72204819D01*
X120181905Y-72204819D02*
X120562857Y-72204819D01*
X120562857Y-72204819D02*
X120658095Y-72252438D01*
X120658095Y-72252438D02*
X120705714Y-72300057D01*
X120705714Y-72300057D02*
X120753333Y-72395295D01*
X120753333Y-72395295D02*
X120753333Y-72538152D01*
X120753333Y-72538152D02*
X120705714Y-72633390D01*
X120705714Y-72633390D02*
X120658095Y-72681009D01*
X120658095Y-72681009D02*
X120562857Y-72728628D01*
X120562857Y-72728628D02*
X120181905Y-72728628D01*
X121086667Y-72204819D02*
X121705714Y-72204819D01*
X121705714Y-72204819D02*
X121372381Y-72585771D01*
X121372381Y-72585771D02*
X121515238Y-72585771D01*
X121515238Y-72585771D02*
X121610476Y-72633390D01*
X121610476Y-72633390D02*
X121658095Y-72681009D01*
X121658095Y-72681009D02*
X121705714Y-72776247D01*
X121705714Y-72776247D02*
X121705714Y-73014342D01*
X121705714Y-73014342D02*
X121658095Y-73109580D01*
X121658095Y-73109580D02*
X121610476Y-73157200D01*
X121610476Y-73157200D02*
X121515238Y-73204819D01*
X121515238Y-73204819D02*
X121229524Y-73204819D01*
X121229524Y-73204819D02*
X121134286Y-73157200D01*
X121134286Y-73157200D02*
X121086667Y-73109580D01*
X65238095Y-111954819D02*
X65809523Y-111954819D01*
X65523809Y-112954819D02*
X65523809Y-111954819D01*
X66142857Y-112954819D02*
X66142857Y-111954819D01*
X66142857Y-111954819D02*
X66523809Y-111954819D01*
X66523809Y-111954819D02*
X66619047Y-112002438D01*
X66619047Y-112002438D02*
X66666666Y-112050057D01*
X66666666Y-112050057D02*
X66714285Y-112145295D01*
X66714285Y-112145295D02*
X66714285Y-112288152D01*
X66714285Y-112288152D02*
X66666666Y-112383390D01*
X66666666Y-112383390D02*
X66619047Y-112431009D01*
X66619047Y-112431009D02*
X66523809Y-112478628D01*
X66523809Y-112478628D02*
X66142857Y-112478628D01*
X67190476Y-112954819D02*
X67380952Y-112954819D01*
X67380952Y-112954819D02*
X67476190Y-112907200D01*
X67476190Y-112907200D02*
X67523809Y-112859580D01*
X67523809Y-112859580D02*
X67619047Y-112716723D01*
X67619047Y-112716723D02*
X67666666Y-112526247D01*
X67666666Y-112526247D02*
X67666666Y-112145295D01*
X67666666Y-112145295D02*
X67619047Y-112050057D01*
X67619047Y-112050057D02*
X67571428Y-112002438D01*
X67571428Y-112002438D02*
X67476190Y-111954819D01*
X67476190Y-111954819D02*
X67285714Y-111954819D01*
X67285714Y-111954819D02*
X67190476Y-112002438D01*
X67190476Y-112002438D02*
X67142857Y-112050057D01*
X67142857Y-112050057D02*
X67095238Y-112145295D01*
X67095238Y-112145295D02*
X67095238Y-112383390D01*
X67095238Y-112383390D02*
X67142857Y-112478628D01*
X67142857Y-112478628D02*
X67190476Y-112526247D01*
X67190476Y-112526247D02*
X67285714Y-112573866D01*
X67285714Y-112573866D02*
X67476190Y-112573866D01*
X67476190Y-112573866D02*
X67571428Y-112526247D01*
X67571428Y-112526247D02*
X67619047Y-112478628D01*
X67619047Y-112478628D02*
X67666666Y-112383390D01*
X82520476Y-115204819D02*
X82187143Y-114728628D01*
X81949048Y-115204819D02*
X81949048Y-114204819D01*
X81949048Y-114204819D02*
X82330000Y-114204819D01*
X82330000Y-114204819D02*
X82425238Y-114252438D01*
X82425238Y-114252438D02*
X82472857Y-114300057D01*
X82472857Y-114300057D02*
X82520476Y-114395295D01*
X82520476Y-114395295D02*
X82520476Y-114538152D01*
X82520476Y-114538152D02*
X82472857Y-114633390D01*
X82472857Y-114633390D02*
X82425238Y-114681009D01*
X82425238Y-114681009D02*
X82330000Y-114728628D01*
X82330000Y-114728628D02*
X81949048Y-114728628D01*
X83472857Y-115204819D02*
X82901429Y-115204819D01*
X83187143Y-115204819D02*
X83187143Y-114204819D01*
X83187143Y-114204819D02*
X83091905Y-114347676D01*
X83091905Y-114347676D02*
X82996667Y-114442914D01*
X82996667Y-114442914D02*
X82901429Y-114490533D01*
X84425238Y-115204819D02*
X83853810Y-115204819D01*
X84139524Y-115204819D02*
X84139524Y-114204819D01*
X84139524Y-114204819D02*
X84044286Y-114347676D01*
X84044286Y-114347676D02*
X83949048Y-114442914D01*
X83949048Y-114442914D02*
X83853810Y-114490533D01*
X110404761Y-130454819D02*
X110071428Y-129978628D01*
X109833333Y-130454819D02*
X109833333Y-129454819D01*
X109833333Y-129454819D02*
X110214285Y-129454819D01*
X110214285Y-129454819D02*
X110309523Y-129502438D01*
X110309523Y-129502438D02*
X110357142Y-129550057D01*
X110357142Y-129550057D02*
X110404761Y-129645295D01*
X110404761Y-129645295D02*
X110404761Y-129788152D01*
X110404761Y-129788152D02*
X110357142Y-129883390D01*
X110357142Y-129883390D02*
X110309523Y-129931009D01*
X110309523Y-129931009D02*
X110214285Y-129978628D01*
X110214285Y-129978628D02*
X109833333Y-129978628D01*
X110690476Y-129454819D02*
X111023809Y-130454819D01*
X111023809Y-130454819D02*
X111357142Y-129454819D01*
X112166666Y-129454819D02*
X111690476Y-129454819D01*
X111690476Y-129454819D02*
X111642857Y-129931009D01*
X111642857Y-129931009D02*
X111690476Y-129883390D01*
X111690476Y-129883390D02*
X111785714Y-129835771D01*
X111785714Y-129835771D02*
X112023809Y-129835771D01*
X112023809Y-129835771D02*
X112119047Y-129883390D01*
X112119047Y-129883390D02*
X112166666Y-129931009D01*
X112166666Y-129931009D02*
X112214285Y-130026247D01*
X112214285Y-130026247D02*
X112214285Y-130264342D01*
X112214285Y-130264342D02*
X112166666Y-130359580D01*
X112166666Y-130359580D02*
X112119047Y-130407200D01*
X112119047Y-130407200D02*
X112023809Y-130454819D01*
X112023809Y-130454819D02*
X111785714Y-130454819D01*
X111785714Y-130454819D02*
X111690476Y-130407200D01*
X111690476Y-130407200D02*
X111642857Y-130359580D01*
X83354819Y-132128094D02*
X82354819Y-132128094D01*
X82354819Y-132128094D02*
X82354819Y-131889999D01*
X82354819Y-131889999D02*
X82402438Y-131747142D01*
X82402438Y-131747142D02*
X82497676Y-131651904D01*
X82497676Y-131651904D02*
X82592914Y-131604285D01*
X82592914Y-131604285D02*
X82783390Y-131556666D01*
X82783390Y-131556666D02*
X82926247Y-131556666D01*
X82926247Y-131556666D02*
X83116723Y-131604285D01*
X83116723Y-131604285D02*
X83211961Y-131651904D01*
X83211961Y-131651904D02*
X83307200Y-131747142D01*
X83307200Y-131747142D02*
X83354819Y-131889999D01*
X83354819Y-131889999D02*
X83354819Y-132128094D01*
X83354819Y-131080475D02*
X83354819Y-130889999D01*
X83354819Y-130889999D02*
X83307200Y-130794761D01*
X83307200Y-130794761D02*
X83259580Y-130747142D01*
X83259580Y-130747142D02*
X83116723Y-130651904D01*
X83116723Y-130651904D02*
X82926247Y-130604285D01*
X82926247Y-130604285D02*
X82545295Y-130604285D01*
X82545295Y-130604285D02*
X82450057Y-130651904D01*
X82450057Y-130651904D02*
X82402438Y-130699523D01*
X82402438Y-130699523D02*
X82354819Y-130794761D01*
X82354819Y-130794761D02*
X82354819Y-130985237D01*
X82354819Y-130985237D02*
X82402438Y-131080475D01*
X82402438Y-131080475D02*
X82450057Y-131128094D01*
X82450057Y-131128094D02*
X82545295Y-131175713D01*
X82545295Y-131175713D02*
X82783390Y-131175713D01*
X82783390Y-131175713D02*
X82878628Y-131128094D01*
X82878628Y-131128094D02*
X82926247Y-131080475D01*
X82926247Y-131080475D02*
X82973866Y-130985237D01*
X82973866Y-130985237D02*
X82973866Y-130794761D01*
X82973866Y-130794761D02*
X82926247Y-130699523D01*
X82926247Y-130699523D02*
X82878628Y-130651904D01*
X82878628Y-130651904D02*
X82783390Y-130604285D01*
X72800057Y-119345238D02*
X72752438Y-119440476D01*
X72752438Y-119440476D02*
X72657200Y-119535714D01*
X72657200Y-119535714D02*
X72514342Y-119678571D01*
X72514342Y-119678571D02*
X72466723Y-119773809D01*
X72466723Y-119773809D02*
X72466723Y-119869047D01*
X72704819Y-119821428D02*
X72657200Y-119916666D01*
X72657200Y-119916666D02*
X72561961Y-120011904D01*
X72561961Y-120011904D02*
X72371485Y-120059523D01*
X72371485Y-120059523D02*
X72038152Y-120059523D01*
X72038152Y-120059523D02*
X71847676Y-120011904D01*
X71847676Y-120011904D02*
X71752438Y-119916666D01*
X71752438Y-119916666D02*
X71704819Y-119821428D01*
X71704819Y-119821428D02*
X71704819Y-119630952D01*
X71704819Y-119630952D02*
X71752438Y-119535714D01*
X71752438Y-119535714D02*
X71847676Y-119440476D01*
X71847676Y-119440476D02*
X72038152Y-119392857D01*
X72038152Y-119392857D02*
X72371485Y-119392857D01*
X72371485Y-119392857D02*
X72561961Y-119440476D01*
X72561961Y-119440476D02*
X72657200Y-119535714D01*
X72657200Y-119535714D02*
X72704819Y-119630952D01*
X72704819Y-119630952D02*
X72704819Y-119821428D01*
X72038152Y-118535714D02*
X72704819Y-118535714D01*
X71657200Y-118773809D02*
X72371485Y-119011904D01*
X72371485Y-119011904D02*
X72371485Y-118392857D01*
X63333333Y-55704819D02*
X63000000Y-55228628D01*
X62761905Y-55704819D02*
X62761905Y-54704819D01*
X62761905Y-54704819D02*
X63142857Y-54704819D01*
X63142857Y-54704819D02*
X63238095Y-54752438D01*
X63238095Y-54752438D02*
X63285714Y-54800057D01*
X63285714Y-54800057D02*
X63333333Y-54895295D01*
X63333333Y-54895295D02*
X63333333Y-55038152D01*
X63333333Y-55038152D02*
X63285714Y-55133390D01*
X63285714Y-55133390D02*
X63238095Y-55181009D01*
X63238095Y-55181009D02*
X63142857Y-55228628D01*
X63142857Y-55228628D02*
X62761905Y-55228628D01*
X64285714Y-55704819D02*
X63714286Y-55704819D01*
X64000000Y-55704819D02*
X64000000Y-54704819D01*
X64000000Y-54704819D02*
X63904762Y-54847676D01*
X63904762Y-54847676D02*
X63809524Y-54942914D01*
X63809524Y-54942914D02*
X63714286Y-54990533D01*
X72800057Y-108345238D02*
X72752438Y-108440476D01*
X72752438Y-108440476D02*
X72657200Y-108535714D01*
X72657200Y-108535714D02*
X72514342Y-108678571D01*
X72514342Y-108678571D02*
X72466723Y-108773809D01*
X72466723Y-108773809D02*
X72466723Y-108869047D01*
X72704819Y-108821428D02*
X72657200Y-108916666D01*
X72657200Y-108916666D02*
X72561961Y-109011904D01*
X72561961Y-109011904D02*
X72371485Y-109059523D01*
X72371485Y-109059523D02*
X72038152Y-109059523D01*
X72038152Y-109059523D02*
X71847676Y-109011904D01*
X71847676Y-109011904D02*
X71752438Y-108916666D01*
X71752438Y-108916666D02*
X71704819Y-108821428D01*
X71704819Y-108821428D02*
X71704819Y-108630952D01*
X71704819Y-108630952D02*
X71752438Y-108535714D01*
X71752438Y-108535714D02*
X71847676Y-108440476D01*
X71847676Y-108440476D02*
X72038152Y-108392857D01*
X72038152Y-108392857D02*
X72371485Y-108392857D01*
X72371485Y-108392857D02*
X72561961Y-108440476D01*
X72561961Y-108440476D02*
X72657200Y-108535714D01*
X72657200Y-108535714D02*
X72704819Y-108630952D01*
X72704819Y-108630952D02*
X72704819Y-108821428D01*
X71800057Y-108011904D02*
X71752438Y-107964285D01*
X71752438Y-107964285D02*
X71704819Y-107869047D01*
X71704819Y-107869047D02*
X71704819Y-107630952D01*
X71704819Y-107630952D02*
X71752438Y-107535714D01*
X71752438Y-107535714D02*
X71800057Y-107488095D01*
X71800057Y-107488095D02*
X71895295Y-107440476D01*
X71895295Y-107440476D02*
X71990533Y-107440476D01*
X71990533Y-107440476D02*
X72133390Y-107488095D01*
X72133390Y-107488095D02*
X72704819Y-108059523D01*
X72704819Y-108059523D02*
X72704819Y-107440476D01*
X120404761Y-58454819D02*
X120071428Y-57978628D01*
X119833333Y-58454819D02*
X119833333Y-57454819D01*
X119833333Y-57454819D02*
X120214285Y-57454819D01*
X120214285Y-57454819D02*
X120309523Y-57502438D01*
X120309523Y-57502438D02*
X120357142Y-57550057D01*
X120357142Y-57550057D02*
X120404761Y-57645295D01*
X120404761Y-57645295D02*
X120404761Y-57788152D01*
X120404761Y-57788152D02*
X120357142Y-57883390D01*
X120357142Y-57883390D02*
X120309523Y-57931009D01*
X120309523Y-57931009D02*
X120214285Y-57978628D01*
X120214285Y-57978628D02*
X119833333Y-57978628D01*
X120690476Y-57454819D02*
X121023809Y-58454819D01*
X121023809Y-58454819D02*
X121357142Y-57454819D01*
X122214285Y-58454819D02*
X121642857Y-58454819D01*
X121928571Y-58454819D02*
X121928571Y-57454819D01*
X121928571Y-57454819D02*
X121833333Y-57597676D01*
X121833333Y-57597676D02*
X121738095Y-57692914D01*
X121738095Y-57692914D02*
X121642857Y-57740533D01*
X83338095Y-94404819D02*
X83909523Y-94404819D01*
X83623809Y-95404819D02*
X83623809Y-94404819D01*
X84242857Y-95404819D02*
X84242857Y-94404819D01*
X84242857Y-94404819D02*
X84623809Y-94404819D01*
X84623809Y-94404819D02*
X84719047Y-94452438D01*
X84719047Y-94452438D02*
X84766666Y-94500057D01*
X84766666Y-94500057D02*
X84814285Y-94595295D01*
X84814285Y-94595295D02*
X84814285Y-94738152D01*
X84814285Y-94738152D02*
X84766666Y-94833390D01*
X84766666Y-94833390D02*
X84719047Y-94881009D01*
X84719047Y-94881009D02*
X84623809Y-94928628D01*
X84623809Y-94928628D02*
X84242857Y-94928628D01*
X85671428Y-94404819D02*
X85480952Y-94404819D01*
X85480952Y-94404819D02*
X85385714Y-94452438D01*
X85385714Y-94452438D02*
X85338095Y-94500057D01*
X85338095Y-94500057D02*
X85242857Y-94642914D01*
X85242857Y-94642914D02*
X85195238Y-94833390D01*
X85195238Y-94833390D02*
X85195238Y-95214342D01*
X85195238Y-95214342D02*
X85242857Y-95309580D01*
X85242857Y-95309580D02*
X85290476Y-95357200D01*
X85290476Y-95357200D02*
X85385714Y-95404819D01*
X85385714Y-95404819D02*
X85576190Y-95404819D01*
X85576190Y-95404819D02*
X85671428Y-95357200D01*
X85671428Y-95357200D02*
X85719047Y-95309580D01*
X85719047Y-95309580D02*
X85766666Y-95214342D01*
X85766666Y-95214342D02*
X85766666Y-94976247D01*
X85766666Y-94976247D02*
X85719047Y-94881009D01*
X85719047Y-94881009D02*
X85671428Y-94833390D01*
X85671428Y-94833390D02*
X85576190Y-94785771D01*
X85576190Y-94785771D02*
X85385714Y-94785771D01*
X85385714Y-94785771D02*
X85290476Y-94833390D01*
X85290476Y-94833390D02*
X85242857Y-94881009D01*
X85242857Y-94881009D02*
X85195238Y-94976247D01*
D11*
X79123334Y-111500000D02*
X79893334Y-111500000D01*
X79893334Y-110130000D02*
X79893334Y-112870000D01*
X79893334Y-112870000D02*
X86433334Y-112870000D01*
X86433334Y-110130000D02*
X79893334Y-110130000D01*
X86433334Y-112870000D02*
X86433334Y-110130000D01*
X87203334Y-111500000D02*
X86433334Y-111500000D01*
X74200000Y-155120000D02*
X77800000Y-155120000D01*
X74188125Y-155111741D02*
G75*
G02*
X75180000Y-150820000I1811875J1841741D01*
G01*
X76780000Y-150820000D02*
G75*
G02*
X77808445Y-155097684I-780000J-2450000D01*
G01*
X79123334Y-105000000D02*
X79893334Y-105000000D01*
X79893334Y-103630000D02*
X79893334Y-106370000D01*
X79893334Y-106370000D02*
X86433334Y-106370000D01*
X86433334Y-103630000D02*
X79893334Y-103630000D01*
X86433334Y-106370000D02*
X86433334Y-103630000D01*
X87203334Y-105000000D02*
X86433334Y-105000000D01*
X79123334Y-101750000D02*
X79893334Y-101750000D01*
X79893334Y-100380000D02*
X79893334Y-103120000D01*
X79893334Y-103120000D02*
X86433334Y-103120000D01*
X86433334Y-100380000D02*
X79893334Y-100380000D01*
X86433334Y-103120000D02*
X86433334Y-100380000D01*
X87203334Y-101750000D02*
X86433334Y-101750000D01*
X98440000Y-123455000D02*
X98440000Y-126545000D01*
X98440000Y-123455170D02*
G75*
G02*
X103990000Y-125000462I2560000J-1544830D01*
G01*
X103990000Y-124999538D02*
G75*
G02*
X98440000Y-126544830I-2990000J-462D01*
G01*
X103500000Y-125000000D02*
G75*
G02*
X98500000Y-125000000I-2500000J0D01*
G01*
X98500000Y-125000000D02*
G75*
G02*
X103500000Y-125000000I2500000J0D01*
G01*
X108440000Y-146455000D02*
X108440000Y-149545000D01*
X108440000Y-146455170D02*
G75*
G02*
X113990000Y-148000462I2560000J-1544830D01*
G01*
X113990000Y-147999538D02*
G75*
G02*
X108440000Y-149544830I-2990000J-462D01*
G01*
X113500000Y-148000000D02*
G75*
G02*
X108500000Y-148000000I-2500000J0D01*
G01*
X108500000Y-148000000D02*
G75*
G02*
X113500000Y-148000000I2500000J0D01*
G01*
X98440000Y-87455000D02*
X98440000Y-90545000D01*
X98440000Y-87455170D02*
G75*
G02*
X103990000Y-89000462I2560000J-1544830D01*
G01*
X103990000Y-88999538D02*
G75*
G02*
X98440000Y-90544830I-2990000J-462D01*
G01*
X103500000Y-89000000D02*
G75*
G02*
X98500000Y-89000000I-2500000J0D01*
G01*
X98500000Y-89000000D02*
G75*
G02*
X103500000Y-89000000I2500000J0D01*
G01*
X92350000Y-149230000D02*
X92350000Y-148370000D01*
X92350000Y-149230000D02*
X93150000Y-149230000D01*
X95500000Y-143500000D02*
X95500000Y-147280000D01*
X95500000Y-143500000D02*
X106000000Y-143500000D01*
X95500000Y-148720000D02*
X95500000Y-152500000D01*
X95500000Y-152500000D02*
X106000000Y-152500000D01*
X106000000Y-143500000D02*
X106000000Y-147200000D01*
X106000000Y-148800000D02*
X106000000Y-152500000D01*
X101800000Y-148000000D02*
G75*
G02*
X98200000Y-148000000I-1800000J0D01*
G01*
X98200000Y-148000000D02*
G75*
G02*
X101800000Y-148000000I1800000J0D01*
G01*
X79123334Y-121250000D02*
X79893334Y-121250000D01*
X79893334Y-119880000D02*
X79893334Y-122620000D01*
X79893334Y-122620000D02*
X86433334Y-122620000D01*
X86433334Y-119880000D02*
X79893334Y-119880000D01*
X86433334Y-122620000D02*
X86433334Y-119880000D01*
X87203334Y-121250000D02*
X86433334Y-121250000D01*
X76710000Y-73500000D02*
X77480000Y-73500000D01*
X77480000Y-72130000D02*
X77480000Y-74870000D01*
X77480000Y-74870000D02*
X84020000Y-74870000D01*
X84020000Y-72130000D02*
X77480000Y-72130000D01*
X84020000Y-74870000D02*
X84020000Y-72130000D01*
X84790000Y-73500000D02*
X84020000Y-73500000D01*
X54160000Y-92000000D02*
X54930000Y-92000000D01*
X54930000Y-90630000D02*
X54930000Y-93370000D01*
X54930000Y-93370000D02*
X61470000Y-93370000D01*
X61470000Y-90630000D02*
X54930000Y-90630000D01*
X61470000Y-93370000D02*
X61470000Y-90630000D01*
X62240000Y-92000000D02*
X61470000Y-92000000D01*
X84380000Y-128380000D02*
X84380000Y-132620000D01*
X84380000Y-131780000D02*
X86620000Y-131780000D01*
X84380000Y-131900000D02*
X86620000Y-131900000D01*
X84380000Y-132020000D02*
X86620000Y-132020000D01*
X84380000Y-132620000D02*
X86620000Y-132620000D01*
X85500000Y-127730000D02*
X85500000Y-128380000D01*
X85500000Y-133270000D02*
X85500000Y-132620000D01*
X86620000Y-128380000D02*
X84380000Y-128380000D01*
X86620000Y-132620000D02*
X86620000Y-128380000D01*
X54130000Y-95250000D02*
X54900000Y-95250000D01*
X54900000Y-93880000D02*
X54900000Y-96620000D01*
X54900000Y-96620000D02*
X61440000Y-96620000D01*
X61440000Y-93880000D02*
X54900000Y-93880000D01*
X61440000Y-96620000D02*
X61440000Y-93880000D01*
X62210000Y-95250000D02*
X61440000Y-95250000D01*
X72190000Y-78620000D02*
X72190000Y-96640000D01*
X72190000Y-96640000D02*
X82690000Y-96640000D01*
X75190000Y-78680000D02*
X75190000Y-96580000D01*
X75190000Y-96580000D02*
X76440000Y-96580000D01*
X78440000Y-96580000D02*
X79690000Y-96580000D01*
X79690000Y-78680000D02*
X75190000Y-78680000D01*
X79690000Y-96580000D02*
X79690000Y-78680000D01*
X82690000Y-78620000D02*
X72190000Y-78620000D01*
X82690000Y-96640000D02*
X82690000Y-78620000D01*
X76440000Y-96580000D02*
G75*
G02*
X78440000Y-96580000I1000000J0D01*
G01*
X115530000Y-111030000D02*
X115530000Y-113750000D01*
X115530000Y-118250000D02*
X115530000Y-122620000D01*
X117350000Y-122620000D02*
X115530000Y-122620000D01*
X126470000Y-111030000D02*
X115530000Y-111030000D01*
X126470000Y-111030000D02*
X126470000Y-113750000D01*
X126470000Y-118250000D02*
X126470000Y-122620000D01*
X126470000Y-122620000D02*
X124650000Y-122620000D01*
X93350000Y-63230000D02*
X93350000Y-62370000D01*
X93350000Y-63230000D02*
X94150000Y-63230000D01*
X96500000Y-57500000D02*
X96500000Y-61280000D01*
X96500000Y-57500000D02*
X107000000Y-57500000D01*
X96500000Y-62720000D02*
X96500000Y-66500000D01*
X96500000Y-66500000D02*
X107000000Y-66500000D01*
X107000000Y-57500000D02*
X107000000Y-61200000D01*
X107000000Y-62800000D02*
X107000000Y-66500000D01*
X102800000Y-62000000D02*
G75*
G02*
X99200000Y-62000000I-1800000J0D01*
G01*
X99200000Y-62000000D02*
G75*
G02*
X102800000Y-62000000I1800000J0D01*
G01*
X76726666Y-112710000D02*
X76726666Y-109110000D01*
X72426666Y-110130000D02*
G75*
G02*
X76704350Y-109101555I2450000J-780000D01*
G01*
X76718407Y-112721875D02*
G75*
G02*
X72426666Y-111730000I-1841741J1811875D01*
G01*
X76710000Y-76750000D02*
X77480000Y-76750000D01*
X77480000Y-75380000D02*
X77480000Y-78120000D01*
X77480000Y-78120000D02*
X84020000Y-78120000D01*
X84020000Y-75380000D02*
X77480000Y-75380000D01*
X84020000Y-78120000D02*
X84020000Y-75380000D01*
X84790000Y-76750000D02*
X84020000Y-76750000D01*
X67751000Y-100000000D02*
G75*
G02*
X65249000Y-100000000I-1251000J0D01*
G01*
X65249000Y-100000000D02*
G75*
G02*
X67751000Y-100000000I1251000J0D01*
G01*
X116000000Y-147200000D02*
X116000000Y-143500000D01*
X116000000Y-152500000D02*
X116000000Y-148800000D01*
X126500000Y-143500000D02*
X116000000Y-143500000D01*
X126500000Y-147280000D02*
X126500000Y-143500000D01*
X126500000Y-152500000D02*
X116000000Y-152500000D01*
X126500000Y-152500000D02*
X126500000Y-148720000D01*
X129650000Y-146770000D02*
X128850000Y-146770000D01*
X129650000Y-146770000D02*
X129650000Y-147630000D01*
X123800000Y-148000000D02*
G75*
G02*
X120200000Y-148000000I-1800000J0D01*
G01*
X120200000Y-148000000D02*
G75*
G02*
X123800000Y-148000000I1800000J0D01*
G01*
X67751000Y-105000000D02*
G75*
G02*
X65249000Y-105000000I-1251000J0D01*
G01*
X65249000Y-105000000D02*
G75*
G02*
X67751000Y-105000000I1251000J0D01*
G01*
X93350000Y-81230000D02*
X93350000Y-80370000D01*
X93350000Y-81230000D02*
X94150000Y-81230000D01*
X96500000Y-75500000D02*
X96500000Y-79280000D01*
X96500000Y-75500000D02*
X107000000Y-75500000D01*
X96500000Y-80720000D02*
X96500000Y-84500000D01*
X96500000Y-84500000D02*
X107000000Y-84500000D01*
X107000000Y-75500000D02*
X107000000Y-79200000D01*
X107000000Y-80800000D02*
X107000000Y-84500000D01*
X102800000Y-80000000D02*
G75*
G02*
X99200000Y-80000000I-1800000J0D01*
G01*
X99200000Y-80000000D02*
G75*
G02*
X102800000Y-80000000I1800000J0D01*
G01*
X71651000Y-80000000D02*
G75*
G02*
X69149000Y-80000000I-1251000J0D01*
G01*
X69149000Y-80000000D02*
G75*
G02*
X71651000Y-80000000I1251000J0D01*
G01*
X54130000Y-98500000D02*
X54900000Y-98500000D01*
X54900000Y-97130000D02*
X54900000Y-99870000D01*
X54900000Y-99870000D02*
X61440000Y-99870000D01*
X61440000Y-97130000D02*
X54900000Y-97130000D01*
X61440000Y-99870000D02*
X61440000Y-97130000D01*
X62210000Y-98500000D02*
X61440000Y-98500000D01*
X54130000Y-105000000D02*
X54900000Y-105000000D01*
X54900000Y-103630000D02*
X54900000Y-106370000D01*
X54900000Y-106370000D02*
X61440000Y-106370000D01*
X61440000Y-103630000D02*
X54900000Y-103630000D01*
X61440000Y-106370000D02*
X61440000Y-103630000D01*
X62210000Y-105000000D02*
X61440000Y-105000000D01*
X76720000Y-101530000D02*
X76720000Y-97930000D01*
X72420000Y-98950000D02*
G75*
G02*
X76697684Y-97921555I2450000J-780000D01*
G01*
X76711741Y-101541875D02*
G75*
G02*
X72420000Y-100550000I-1841741J1811875D01*
G01*
X117210000Y-108750000D02*
X117980000Y-108750000D01*
X117980000Y-107380000D02*
X117980000Y-110120000D01*
X117980000Y-110120000D02*
X124520000Y-110120000D01*
X124520000Y-107380000D02*
X117980000Y-107380000D01*
X124520000Y-110120000D02*
X124520000Y-107380000D01*
X125290000Y-108750000D02*
X124520000Y-108750000D01*
X79001000Y-63500000D02*
G75*
G02*
X76499000Y-63500000I-1251000J0D01*
G01*
X76499000Y-63500000D02*
G75*
G02*
X79001000Y-63500000I1251000J0D01*
G01*
X79001000Y-59000000D02*
G75*
G02*
X76499000Y-59000000I-1251000J0D01*
G01*
X76499000Y-59000000D02*
G75*
G02*
X79001000Y-59000000I1251000J0D01*
G01*
X54160000Y-88750000D02*
X54930000Y-88750000D01*
X54930000Y-87380000D02*
X54930000Y-90120000D01*
X54930000Y-90120000D02*
X61470000Y-90120000D01*
X61470000Y-87380000D02*
X54930000Y-87380000D01*
X61470000Y-90120000D02*
X61470000Y-87380000D01*
X62240000Y-88750000D02*
X61470000Y-88750000D01*
X60010000Y-52000000D02*
X61030000Y-52000000D01*
X61030000Y-50530000D02*
X61030000Y-53470000D01*
X61030000Y-53470000D02*
X66470000Y-53470000D01*
X65450000Y-53470000D02*
X65450000Y-50530000D01*
X65570000Y-53470000D02*
X65570000Y-50530000D01*
X65690000Y-53470000D02*
X65690000Y-50530000D01*
X66470000Y-50530000D02*
X61030000Y-50530000D01*
X66470000Y-53470000D02*
X66470000Y-50530000D01*
X67490000Y-52000000D02*
X66470000Y-52000000D01*
X54160000Y-85500000D02*
X54930000Y-85500000D01*
X54930000Y-84130000D02*
X54930000Y-86870000D01*
X54930000Y-86870000D02*
X61470000Y-86870000D01*
X61470000Y-84130000D02*
X54930000Y-84130000D01*
X61470000Y-86870000D02*
X61470000Y-84130000D01*
X62240000Y-85500000D02*
X61470000Y-85500000D01*
X93350000Y-99230000D02*
X93350000Y-98370000D01*
X93350000Y-99230000D02*
X94150000Y-99230000D01*
X96500000Y-93500000D02*
X96500000Y-97280000D01*
X96500000Y-93500000D02*
X107000000Y-93500000D01*
X96500000Y-98720000D02*
X96500000Y-102500000D01*
X96500000Y-102500000D02*
X107000000Y-102500000D01*
X107000000Y-93500000D02*
X107000000Y-97200000D01*
X107000000Y-98800000D02*
X107000000Y-102500000D01*
X102800000Y-98000000D02*
G75*
G02*
X99200000Y-98000000I-1800000J0D01*
G01*
X99200000Y-98000000D02*
G75*
G02*
X102800000Y-98000000I1800000J0D01*
G01*
X54130000Y-101750000D02*
X54900000Y-101750000D01*
X54900000Y-100380000D02*
X54900000Y-103120000D01*
X54900000Y-103120000D02*
X61440000Y-103120000D01*
X61440000Y-100380000D02*
X54900000Y-100380000D01*
X61440000Y-103120000D02*
X61440000Y-100380000D01*
X62210000Y-101750000D02*
X61440000Y-101750000D01*
X85851000Y-80000000D02*
G75*
G02*
X83349000Y-80000000I-1251000J0D01*
G01*
X83349000Y-80000000D02*
G75*
G02*
X85851000Y-80000000I1251000J0D01*
G01*
X98440000Y-69455000D02*
X98440000Y-72545000D01*
X98440000Y-69455170D02*
G75*
G02*
X103990000Y-71000462I2560000J-1544830D01*
G01*
X103990000Y-70999538D02*
G75*
G02*
X98440000Y-72544830I-2990000J-462D01*
G01*
X103500000Y-71000000D02*
G75*
G02*
X98500000Y-71000000I-2500000J0D01*
G01*
X98500000Y-71000000D02*
G75*
G02*
X103500000Y-71000000I2500000J0D01*
G01*
X115530000Y-75030000D02*
X115530000Y-77750000D01*
X115530000Y-82250000D02*
X115530000Y-86620000D01*
X117350000Y-86620000D02*
X115530000Y-86620000D01*
X126470000Y-75030000D02*
X115530000Y-75030000D01*
X126470000Y-75030000D02*
X126470000Y-77750000D01*
X126470000Y-82250000D02*
X126470000Y-86620000D01*
X126470000Y-86620000D02*
X124650000Y-86620000D01*
X98440000Y-105455000D02*
X98440000Y-108545000D01*
X98440000Y-105455170D02*
G75*
G02*
X103990000Y-107000462I2560000J-1544830D01*
G01*
X103990000Y-106999538D02*
G75*
G02*
X98440000Y-108544830I-2990000J-462D01*
G01*
X103500000Y-107000000D02*
G75*
G02*
X98500000Y-107000000I-2500000J0D01*
G01*
X98500000Y-107000000D02*
G75*
G02*
X103500000Y-107000000I2500000J0D01*
G01*
X79001000Y-68000000D02*
G75*
G02*
X76499000Y-68000000I-1251000J0D01*
G01*
X76499000Y-68000000D02*
G75*
G02*
X79001000Y-68000000I1251000J0D01*
G01*
X117210000Y-126750000D02*
X117980000Y-126750000D01*
X117980000Y-125380000D02*
X117980000Y-128120000D01*
X117980000Y-128120000D02*
X124520000Y-128120000D01*
X124520000Y-125380000D02*
X117980000Y-125380000D01*
X124520000Y-128120000D02*
X124520000Y-125380000D01*
X125290000Y-126750000D02*
X124520000Y-126750000D01*
X84751000Y-68000000D02*
G75*
G02*
X82249000Y-68000000I-1251000J0D01*
G01*
X82249000Y-68000000D02*
G75*
G02*
X84751000Y-68000000I1251000J0D01*
G01*
X117130000Y-90750000D02*
X117900000Y-90750000D01*
X117900000Y-89380000D02*
X117900000Y-92120000D01*
X117900000Y-92120000D02*
X124440000Y-92120000D01*
X124440000Y-89380000D02*
X117900000Y-89380000D01*
X124440000Y-92120000D02*
X124440000Y-89380000D01*
X125210000Y-90750000D02*
X124440000Y-90750000D01*
X115530000Y-93030000D02*
X115530000Y-95750000D01*
X115530000Y-100250000D02*
X115530000Y-104620000D01*
X117350000Y-104620000D02*
X115530000Y-104620000D01*
X126470000Y-93030000D02*
X115530000Y-93030000D01*
X126470000Y-93030000D02*
X126470000Y-95750000D01*
X126470000Y-100250000D02*
X126470000Y-104620000D01*
X126470000Y-104620000D02*
X124650000Y-104620000D01*
X79123334Y-118000000D02*
X79893334Y-118000000D01*
X79893334Y-116630000D02*
X79893334Y-119370000D01*
X79893334Y-119370000D02*
X86433334Y-119370000D01*
X86433334Y-116630000D02*
X79893334Y-116630000D01*
X86433334Y-119370000D02*
X86433334Y-116630000D01*
X87203334Y-118000000D02*
X86433334Y-118000000D01*
X79123334Y-108250000D02*
X79893334Y-108250000D01*
X79893334Y-106880000D02*
X79893334Y-109620000D01*
X79893334Y-109620000D02*
X86433334Y-109620000D01*
X86433334Y-106880000D02*
X79893334Y-106880000D01*
X86433334Y-109620000D02*
X86433334Y-106880000D01*
X87203334Y-108250000D02*
X86433334Y-108250000D01*
X119710000Y-141000000D02*
X120480000Y-141000000D01*
X120480000Y-139630000D02*
X120480000Y-142370000D01*
X120480000Y-142370000D02*
X127020000Y-142370000D01*
X127020000Y-139630000D02*
X120480000Y-139630000D01*
X127020000Y-142370000D02*
X127020000Y-139630000D01*
X127790000Y-141000000D02*
X127020000Y-141000000D01*
X67751000Y-115250000D02*
G75*
G02*
X65249000Y-115250000I-1251000J0D01*
G01*
X65249000Y-115250000D02*
G75*
G02*
X67751000Y-115250000I1251000J0D01*
G01*
X93350000Y-117230000D02*
X93350000Y-116370000D01*
X93350000Y-117230000D02*
X94150000Y-117230000D01*
X96500000Y-111500000D02*
X96500000Y-115280000D01*
X96500000Y-111500000D02*
X107000000Y-111500000D01*
X96500000Y-116720000D02*
X96500000Y-120500000D01*
X96500000Y-120500000D02*
X107000000Y-120500000D01*
X107000000Y-111500000D02*
X107000000Y-115200000D01*
X107000000Y-116800000D02*
X107000000Y-120500000D01*
X102800000Y-116000000D02*
G75*
G02*
X99200000Y-116000000I-1800000J0D01*
G01*
X99200000Y-116000000D02*
G75*
G02*
X102800000Y-116000000I1800000J0D01*
G01*
X79123334Y-98625000D02*
X79893334Y-98625000D01*
X79893334Y-97255000D02*
X79893334Y-99995000D01*
X79893334Y-99995000D02*
X86433334Y-99995000D01*
X86433334Y-97255000D02*
X79893334Y-97255000D01*
X86433334Y-99995000D02*
X86433334Y-97255000D01*
X87203334Y-98625000D02*
X86433334Y-98625000D01*
X62960000Y-73000000D02*
X63730000Y-73000000D01*
X63730000Y-71630000D02*
X63730000Y-74370000D01*
X63730000Y-74370000D02*
X70270000Y-74370000D01*
X70270000Y-71630000D02*
X63730000Y-71630000D01*
X70270000Y-74370000D02*
X70270000Y-71630000D01*
X71040000Y-73000000D02*
X70270000Y-73000000D01*
X63540000Y-76250000D02*
X64560000Y-76250000D01*
X64560000Y-74780000D02*
X64560000Y-77720000D01*
X64560000Y-77720000D02*
X70000000Y-77720000D01*
X65340000Y-74780000D02*
X65340000Y-77720000D01*
X65460000Y-74780000D02*
X65460000Y-77720000D01*
X65580000Y-74780000D02*
X65580000Y-77720000D01*
X70000000Y-74780000D02*
X64560000Y-74780000D01*
X70000000Y-77720000D02*
X70000000Y-74780000D01*
X71020000Y-76250000D02*
X70000000Y-76250000D01*
X60670000Y-156670000D02*
X62000000Y-156670000D01*
X60670000Y-158000000D02*
X60670000Y-156670000D01*
X63270000Y-156670000D02*
X81110000Y-156670000D01*
X63270000Y-159330000D02*
X63270000Y-156670000D01*
X63270000Y-159330000D02*
X81110000Y-159330000D01*
X81110000Y-159330000D02*
X81110000Y-156670000D01*
X68670000Y-101270000D02*
X68670000Y-119110000D01*
X68670000Y-101270000D02*
X71330000Y-101270000D01*
X68670000Y-119110000D02*
X71330000Y-119110000D01*
X70000000Y-98670000D02*
X71330000Y-98670000D01*
X71330000Y-98670000D02*
X71330000Y-100000000D01*
X71330000Y-101270000D02*
X71330000Y-119110000D01*
X116880000Y-72750000D02*
X117650000Y-72750000D01*
X117650000Y-71380000D02*
X117650000Y-74120000D01*
X117650000Y-74120000D02*
X124190000Y-74120000D01*
X124190000Y-71380000D02*
X117650000Y-71380000D01*
X124190000Y-74120000D02*
X124190000Y-71380000D01*
X124960000Y-72750000D02*
X124190000Y-72750000D01*
X67751000Y-110250000D02*
G75*
G02*
X65249000Y-110250000I-1251000J0D01*
G01*
X65249000Y-110250000D02*
G75*
G02*
X67751000Y-110250000I1251000J0D01*
G01*
X79123334Y-114750000D02*
X79893334Y-114750000D01*
X79893334Y-113380000D02*
X79893334Y-116120000D01*
X79893334Y-116120000D02*
X86433334Y-116120000D01*
X86433334Y-113380000D02*
X79893334Y-113380000D01*
X86433334Y-116120000D02*
X86433334Y-113380000D01*
X87203334Y-114750000D02*
X86433334Y-114750000D01*
X105530000Y-129030000D02*
X105530000Y-131750000D01*
X105530000Y-136250000D02*
X105530000Y-140620000D01*
X107350000Y-140620000D02*
X105530000Y-140620000D01*
X116470000Y-129030000D02*
X105530000Y-129030000D01*
X116470000Y-129030000D02*
X116470000Y-131750000D01*
X116470000Y-136250000D02*
X116470000Y-140620000D01*
X116470000Y-140620000D02*
X114650000Y-140620000D01*
X81780000Y-128380000D02*
X81780000Y-132620000D01*
X81780000Y-132620000D02*
X84020000Y-132620000D01*
X82900000Y-127730000D02*
X82900000Y-128380000D01*
X82900000Y-133270000D02*
X82900000Y-132620000D01*
X84020000Y-128380000D02*
X81780000Y-128380000D01*
X84020000Y-128980000D02*
X81780000Y-128980000D01*
X84020000Y-129100000D02*
X81780000Y-129100000D01*
X84020000Y-129220000D02*
X81780000Y-129220000D01*
X84020000Y-132620000D02*
X84020000Y-128380000D01*
X76733332Y-118300000D02*
X76733332Y-114700000D01*
X72433332Y-115720000D02*
G75*
G02*
X76711016Y-114691555I2450000J-780000D01*
G01*
X76725073Y-118311875D02*
G75*
G02*
X72433332Y-117320000I-1841741J1811875D01*
G01*
X59460000Y-55250000D02*
X60230000Y-55250000D01*
X60230000Y-53880000D02*
X60230000Y-56620000D01*
X60230000Y-56620000D02*
X66770000Y-56620000D01*
X66770000Y-53880000D02*
X60230000Y-53880000D01*
X66770000Y-56620000D02*
X66770000Y-53880000D01*
X67540000Y-55250000D02*
X66770000Y-55250000D01*
X76713334Y-107120000D02*
X76713334Y-103520000D01*
X72413334Y-104540000D02*
G75*
G02*
X76691018Y-103511555I2450000J-780000D01*
G01*
X76705075Y-107131875D02*
G75*
G02*
X72413334Y-106140000I-1841741J1811875D01*
G01*
X115530000Y-57030000D02*
X115530000Y-59750000D01*
X115530000Y-64250000D02*
X115530000Y-68620000D01*
X117350000Y-68620000D02*
X115530000Y-68620000D01*
X126470000Y-57030000D02*
X115530000Y-57030000D01*
X126470000Y-57030000D02*
X126470000Y-59750000D01*
X126470000Y-64250000D02*
X126470000Y-68620000D01*
X126470000Y-68620000D02*
X124650000Y-68620000D01*
X85851000Y-92700000D02*
G75*
G02*
X83349000Y-92700000I-1251000J0D01*
G01*
X83349000Y-92700000D02*
G75*
G02*
X85851000Y-92700000I1251000J0D01*
G01*
%LPC*%
D12*
X78083334Y-111500000D03*
D13*
X88243334Y-111500000D03*
D14*
X74730000Y-153670000D03*
D15*
X76000000Y-151600000D03*
X77270000Y-153670000D03*
D12*
X78083334Y-105000000D03*
D13*
X88243334Y-105000000D03*
D12*
X78083334Y-101750000D03*
D13*
X88243334Y-101750000D03*
D16*
X99730000Y-125000000D03*
D17*
X102270000Y-125000000D03*
D16*
X109730000Y-148000000D03*
D17*
X112270000Y-148000000D03*
D16*
X99730000Y-89000000D03*
D17*
X102270000Y-89000000D03*
D18*
X93520000Y-148000000D03*
D19*
X104920000Y-148000000D03*
X96620000Y-148000000D03*
D12*
X78083334Y-121250000D03*
D13*
X88243334Y-121250000D03*
D12*
X75670000Y-73500000D03*
D13*
X85830000Y-73500000D03*
D12*
X63280000Y-92000000D03*
D13*
X53120000Y-92000000D03*
D20*
X85500000Y-134310000D03*
D13*
X85500000Y-126690000D03*
D21*
X86500000Y-53500000D03*
D12*
X63250000Y-95250000D03*
D13*
X53090000Y-95250000D03*
D22*
X81250000Y-95250000D03*
D23*
X81250000Y-92710000D03*
X81250000Y-90170000D03*
X81250000Y-87630000D03*
X81250000Y-85090000D03*
X81250000Y-82550000D03*
X81250000Y-80010000D03*
X73630000Y-80010000D03*
X73630000Y-82550000D03*
X73630000Y-85090000D03*
X73630000Y-87630000D03*
X73630000Y-90170000D03*
X73630000Y-92710000D03*
X73630000Y-95250000D03*
D24*
X116250000Y-116000000D03*
X125750000Y-116000000D03*
D16*
X118500000Y-123500000D03*
D17*
X121000000Y-123500000D03*
X123500000Y-123500000D03*
D18*
X94520000Y-62000000D03*
D19*
X105920000Y-62000000D03*
X97620000Y-62000000D03*
D21*
X53500000Y-53500000D03*
D25*
X75276666Y-112180000D03*
D26*
X73206666Y-110910000D03*
X75276666Y-109640000D03*
D12*
X75670000Y-76750000D03*
D13*
X85830000Y-76750000D03*
D27*
X66500000Y-100000000D03*
D18*
X128480000Y-148000000D03*
D19*
X117080000Y-148000000D03*
X125380000Y-148000000D03*
D27*
X66500000Y-105000000D03*
D21*
X127250000Y-157250000D03*
D18*
X94520000Y-80000000D03*
D19*
X105920000Y-80000000D03*
X97620000Y-80000000D03*
D27*
X70400000Y-80000000D03*
D12*
X53090000Y-98500000D03*
D13*
X63250000Y-98500000D03*
D12*
X53090000Y-105000000D03*
D13*
X63250000Y-105000000D03*
D25*
X75270000Y-101000000D03*
D26*
X73200000Y-99730000D03*
X75270000Y-98460000D03*
D12*
X116170000Y-108750000D03*
D13*
X126330000Y-108750000D03*
D27*
X77750000Y-63500000D03*
X77750000Y-59000000D03*
D12*
X53120000Y-88750000D03*
D13*
X63280000Y-88750000D03*
D28*
X68830000Y-52000000D03*
D29*
X58670000Y-52000000D03*
D12*
X63280000Y-85500000D03*
D13*
X53120000Y-85500000D03*
D18*
X94520000Y-98000000D03*
D19*
X105920000Y-98000000D03*
X97620000Y-98000000D03*
D12*
X53090000Y-101750000D03*
D13*
X63250000Y-101750000D03*
D27*
X84600000Y-80000000D03*
D16*
X99730000Y-71000000D03*
D17*
X102270000Y-71000000D03*
D21*
X53750000Y-157250000D03*
D24*
X116250000Y-80000000D03*
X125750000Y-80000000D03*
D16*
X118500000Y-87500000D03*
D17*
X121000000Y-87500000D03*
X123500000Y-87500000D03*
D16*
X99730000Y-107000000D03*
D17*
X102270000Y-107000000D03*
D21*
X127500000Y-53500000D03*
D27*
X77750000Y-68000000D03*
D12*
X116170000Y-126750000D03*
D13*
X126330000Y-126750000D03*
D27*
X83500000Y-68000000D03*
D12*
X116090000Y-90750000D03*
D13*
X126250000Y-90750000D03*
D24*
X116250000Y-98000000D03*
X125750000Y-98000000D03*
D16*
X118500000Y-105500000D03*
D17*
X121000000Y-105500000D03*
X123500000Y-105500000D03*
D21*
X94500000Y-53500000D03*
D12*
X78083334Y-118000000D03*
D13*
X88243334Y-118000000D03*
D12*
X78083334Y-108250000D03*
D13*
X88243334Y-108250000D03*
D12*
X118670000Y-141000000D03*
D13*
X128830000Y-141000000D03*
D21*
X86250000Y-157250000D03*
D27*
X66500000Y-115250000D03*
D18*
X94520000Y-116000000D03*
D19*
X105920000Y-116000000D03*
X97620000Y-116000000D03*
D12*
X78083334Y-98625000D03*
D13*
X88243334Y-98625000D03*
D12*
X61920000Y-73000000D03*
D13*
X72080000Y-73000000D03*
D28*
X62200000Y-76250000D03*
D29*
X72360000Y-76250000D03*
D30*
X62000000Y-158000000D03*
D31*
X64540000Y-158000000D03*
X67080000Y-158000000D03*
X69620000Y-158000000D03*
X72160000Y-158000000D03*
X74700000Y-158000000D03*
X77240000Y-158000000D03*
X79780000Y-158000000D03*
D30*
X70000000Y-100000000D03*
D31*
X70000000Y-102540000D03*
X70000000Y-105080000D03*
X70000000Y-107620000D03*
X70000000Y-110160000D03*
X70000000Y-112700000D03*
X70000000Y-115240000D03*
X70000000Y-117780000D03*
D12*
X115840000Y-72750000D03*
D13*
X126000000Y-72750000D03*
D27*
X66500000Y-110250000D03*
D12*
X78083334Y-114750000D03*
D13*
X88243334Y-114750000D03*
D21*
X94750000Y-157250000D03*
D24*
X106250000Y-134000000D03*
X115750000Y-134000000D03*
D16*
X108500000Y-141500000D03*
D17*
X111000000Y-141500000D03*
X113500000Y-141500000D03*
D20*
X82900000Y-126690000D03*
D13*
X82900000Y-134310000D03*
D25*
X75283332Y-117770000D03*
D26*
X73213332Y-116500000D03*
X75283332Y-115230000D03*
D12*
X58420000Y-55250000D03*
D13*
X68580000Y-55250000D03*
D25*
X75263334Y-106590000D03*
D26*
X73193334Y-105320000D03*
X75263334Y-104050000D03*
D24*
X116250000Y-62000000D03*
X125750000Y-62000000D03*
D16*
X118500000Y-69500000D03*
D17*
X121000000Y-69500000D03*
X123500000Y-69500000D03*
D27*
X84600000Y-92700000D03*
D32*
X69000000Y-59527401D03*
D33*
X69000000Y-61527401D03*
D20*
X63750000Y-59294888D03*
D12*
X63750000Y-61794888D03*
D32*
X69000000Y-65027401D03*
D33*
X69000000Y-67027401D03*
D30*
X103000000Y-158000000D03*
D31*
X105540000Y-158000000D03*
X108080000Y-158000000D03*
X110620000Y-158000000D03*
X113160000Y-158000000D03*
X115700000Y-158000000D03*
X118240000Y-158000000D03*
X120780000Y-158000000D03*
D20*
X63750000Y-65000000D03*
D12*
X63750000Y-67500000D03*
D34*
X54460000Y-74000000D03*
D35*
X57000000Y-74000000D03*
X54460000Y-71460000D03*
X57000000Y-71460000D03*
X54460000Y-68920000D03*
X57000000Y-68920000D03*
X54460000Y-66380000D03*
X57000000Y-66380000D03*
X54460000Y-63840000D03*
X57000000Y-63840000D03*
D36*
X84500000Y-138500000D03*
X84500000Y-141040000D03*
X84500000Y-143580000D03*
D30*
X111000000Y-100000000D03*
D31*
X111000000Y-102540000D03*
X111000000Y-105080000D03*
X111000000Y-107620000D03*
X111000000Y-110160000D03*
X111000000Y-112700000D03*
X111000000Y-115240000D03*
X111000000Y-117780000D03*
%LPD*%
M02*
