G04 #@! TF.GenerationSoftware,KiCad,Pcbnew,8.0.2-1*
G04 #@! TF.CreationDate,2024-05-10T10:02:21+02:00*
G04 #@! TF.ProjectId,sparkle,73706172-6b6c-4652-9e6b-696361645f70,rev?*
G04 #@! TF.SameCoordinates,Original*
G04 #@! TF.FileFunction,Legend,Top*
G04 #@! TF.FilePolarity,Positive*
%FSLAX46Y46*%
G04 Gerber Fmt 4.6, Leading zero omitted, Abs format (unit mm)*
G04 Created by KiCad (PCBNEW 8.0.2-1) date 2024-05-10 10:02:21*
%MOMM*%
%LPD*%
G01*
G04 APERTURE LIST*
G04 Aperture macros list*
%AMRoundRect*
0 Rectangle with rounded corners*
0 $1 Rounding radius*
0 $2 $3 $4 $5 $6 $7 $8 $9 X,Y pos of 4 corners*
0 Add a 4 corners polygon primitive as box body*
4,1,4,$2,$3,$4,$5,$6,$7,$8,$9,$2,$3,0*
0 Add four circle primitives for the rounded corners*
1,1,$1+$1,$2,$3*
1,1,$1+$1,$4,$5*
1,1,$1+$1,$6,$7*
1,1,$1+$1,$8,$9*
0 Add four rect primitives between the rounded corners*
20,1,$1+$1,$2,$3,$4,$5,0*
20,1,$1+$1,$4,$5,$6,$7,0*
20,1,$1+$1,$6,$7,$8,$9,0*
20,1,$1+$1,$8,$9,$2,$3,0*%
G04 Aperture macros list end*
%ADD10C,0.150000*%
%ADD11C,0.120000*%
%ADD12C,1.600000*%
%ADD13O,1.600000X1.600000*%
%ADD14C,3.200000*%
%ADD15R,1.930000X1.830000*%
%ADD16C,2.130000*%
%ADD17R,1.700000X1.700000*%
%ADD18O,1.700000X1.700000*%
%ADD19C,2.000000*%
%ADD20R,2.200000X2.200000*%
%ADD21O,2.200000X2.200000*%
%ADD22R,1.800000X1.100000*%
%ADD23RoundRect,0.275000X-0.625000X0.275000X-0.625000X-0.275000X0.625000X-0.275000X0.625000X0.275000X0*%
%ADD24O,4.000000X4.000000*%
%ADD25R,1.800000X1.800000*%
%ADD26C,1.800000*%
%ADD27RoundRect,0.275000X0.625000X-0.275000X0.625000X0.275000X-0.625000X0.275000X-0.625000X-0.275000X0*%
%ADD28R,1.600000X2.400000*%
%ADD29O,1.600000X2.400000*%
%ADD30RoundRect,0.250000X-0.600000X-0.600000X0.600000X-0.600000X0.600000X0.600000X-0.600000X0.600000X0*%
%ADD31C,1.700000*%
%ADD32R,1.200000X1.200000*%
%ADD33C,1.200000*%
%ADD34C,1.440000*%
%ADD35R,1.600000X1.600000*%
G04 APERTURE END LIST*
D10*
X101293922Y-56369819D02*
X101627255Y-57369819D01*
X101627255Y-57369819D02*
X101960588Y-56369819D01*
X102436779Y-57369819D02*
X102341541Y-57322200D01*
X102341541Y-57322200D02*
X102293922Y-57274580D01*
X102293922Y-57274580D02*
X102246303Y-57179342D01*
X102246303Y-57179342D02*
X102246303Y-56893628D01*
X102246303Y-56893628D02*
X102293922Y-56798390D01*
X102293922Y-56798390D02*
X102341541Y-56750771D01*
X102341541Y-56750771D02*
X102436779Y-56703152D01*
X102436779Y-56703152D02*
X102579636Y-56703152D01*
X102579636Y-56703152D02*
X102674874Y-56750771D01*
X102674874Y-56750771D02*
X102722493Y-56798390D01*
X102722493Y-56798390D02*
X102770112Y-56893628D01*
X102770112Y-56893628D02*
X102770112Y-57179342D01*
X102770112Y-57179342D02*
X102722493Y-57274580D01*
X102722493Y-57274580D02*
X102674874Y-57322200D01*
X102674874Y-57322200D02*
X102579636Y-57369819D01*
X102579636Y-57369819D02*
X102436779Y-57369819D01*
X103341541Y-57369819D02*
X103246303Y-57322200D01*
X103246303Y-57322200D02*
X103198684Y-57226961D01*
X103198684Y-57226961D02*
X103198684Y-56369819D01*
X103579637Y-56703152D02*
X103960589Y-56703152D01*
X103722494Y-56369819D02*
X103722494Y-57226961D01*
X103722494Y-57226961D02*
X103770113Y-57322200D01*
X103770113Y-57322200D02*
X103865351Y-57369819D01*
X103865351Y-57369819D02*
X103960589Y-57369819D01*
X104722494Y-57369819D02*
X104722494Y-56846009D01*
X104722494Y-56846009D02*
X104674875Y-56750771D01*
X104674875Y-56750771D02*
X104579637Y-56703152D01*
X104579637Y-56703152D02*
X104389161Y-56703152D01*
X104389161Y-56703152D02*
X104293923Y-56750771D01*
X104722494Y-57322200D02*
X104627256Y-57369819D01*
X104627256Y-57369819D02*
X104389161Y-57369819D01*
X104389161Y-57369819D02*
X104293923Y-57322200D01*
X104293923Y-57322200D02*
X104246304Y-57226961D01*
X104246304Y-57226961D02*
X104246304Y-57131723D01*
X104246304Y-57131723D02*
X104293923Y-57036485D01*
X104293923Y-57036485D02*
X104389161Y-56988866D01*
X104389161Y-56988866D02*
X104627256Y-56988866D01*
X104627256Y-56988866D02*
X104722494Y-56941247D01*
X105627256Y-56703152D02*
X105627256Y-57512676D01*
X105627256Y-57512676D02*
X105579637Y-57607914D01*
X105579637Y-57607914D02*
X105532018Y-57655533D01*
X105532018Y-57655533D02*
X105436780Y-57703152D01*
X105436780Y-57703152D02*
X105293923Y-57703152D01*
X105293923Y-57703152D02*
X105198685Y-57655533D01*
X105627256Y-57322200D02*
X105532018Y-57369819D01*
X105532018Y-57369819D02*
X105341542Y-57369819D01*
X105341542Y-57369819D02*
X105246304Y-57322200D01*
X105246304Y-57322200D02*
X105198685Y-57274580D01*
X105198685Y-57274580D02*
X105151066Y-57179342D01*
X105151066Y-57179342D02*
X105151066Y-56893628D01*
X105151066Y-56893628D02*
X105198685Y-56798390D01*
X105198685Y-56798390D02*
X105246304Y-56750771D01*
X105246304Y-56750771D02*
X105341542Y-56703152D01*
X105341542Y-56703152D02*
X105532018Y-56703152D01*
X105532018Y-56703152D02*
X105627256Y-56750771D01*
X106484399Y-57322200D02*
X106389161Y-57369819D01*
X106389161Y-57369819D02*
X106198685Y-57369819D01*
X106198685Y-57369819D02*
X106103447Y-57322200D01*
X106103447Y-57322200D02*
X106055828Y-57226961D01*
X106055828Y-57226961D02*
X106055828Y-56846009D01*
X106055828Y-56846009D02*
X106103447Y-56750771D01*
X106103447Y-56750771D02*
X106198685Y-56703152D01*
X106198685Y-56703152D02*
X106389161Y-56703152D01*
X106389161Y-56703152D02*
X106484399Y-56750771D01*
X106484399Y-56750771D02*
X106532018Y-56846009D01*
X106532018Y-56846009D02*
X106532018Y-56941247D01*
X106532018Y-56941247D02*
X106055828Y-57036485D01*
X108293923Y-57274580D02*
X108246304Y-57322200D01*
X108246304Y-57322200D02*
X108103447Y-57369819D01*
X108103447Y-57369819D02*
X108008209Y-57369819D01*
X108008209Y-57369819D02*
X107865352Y-57322200D01*
X107865352Y-57322200D02*
X107770114Y-57226961D01*
X107770114Y-57226961D02*
X107722495Y-57131723D01*
X107722495Y-57131723D02*
X107674876Y-56941247D01*
X107674876Y-56941247D02*
X107674876Y-56798390D01*
X107674876Y-56798390D02*
X107722495Y-56607914D01*
X107722495Y-56607914D02*
X107770114Y-56512676D01*
X107770114Y-56512676D02*
X107865352Y-56417438D01*
X107865352Y-56417438D02*
X108008209Y-56369819D01*
X108008209Y-56369819D02*
X108103447Y-56369819D01*
X108103447Y-56369819D02*
X108246304Y-56417438D01*
X108246304Y-56417438D02*
X108293923Y-56465057D01*
X108865352Y-57369819D02*
X108770114Y-57322200D01*
X108770114Y-57322200D02*
X108722495Y-57274580D01*
X108722495Y-57274580D02*
X108674876Y-57179342D01*
X108674876Y-57179342D02*
X108674876Y-56893628D01*
X108674876Y-56893628D02*
X108722495Y-56798390D01*
X108722495Y-56798390D02*
X108770114Y-56750771D01*
X108770114Y-56750771D02*
X108865352Y-56703152D01*
X108865352Y-56703152D02*
X109008209Y-56703152D01*
X109008209Y-56703152D02*
X109103447Y-56750771D01*
X109103447Y-56750771D02*
X109151066Y-56798390D01*
X109151066Y-56798390D02*
X109198685Y-56893628D01*
X109198685Y-56893628D02*
X109198685Y-57179342D01*
X109198685Y-57179342D02*
X109151066Y-57274580D01*
X109151066Y-57274580D02*
X109103447Y-57322200D01*
X109103447Y-57322200D02*
X109008209Y-57369819D01*
X109008209Y-57369819D02*
X108865352Y-57369819D01*
X109627257Y-56703152D02*
X109627257Y-57369819D01*
X109627257Y-56798390D02*
X109674876Y-56750771D01*
X109674876Y-56750771D02*
X109770114Y-56703152D01*
X109770114Y-56703152D02*
X109912971Y-56703152D01*
X109912971Y-56703152D02*
X110008209Y-56750771D01*
X110008209Y-56750771D02*
X110055828Y-56846009D01*
X110055828Y-56846009D02*
X110055828Y-57369819D01*
X110389162Y-56703152D02*
X110770114Y-56703152D01*
X110532019Y-56369819D02*
X110532019Y-57226961D01*
X110532019Y-57226961D02*
X110579638Y-57322200D01*
X110579638Y-57322200D02*
X110674876Y-57369819D01*
X110674876Y-57369819D02*
X110770114Y-57369819D01*
X111103448Y-57369819D02*
X111103448Y-56703152D01*
X111103448Y-56893628D02*
X111151067Y-56798390D01*
X111151067Y-56798390D02*
X111198686Y-56750771D01*
X111198686Y-56750771D02*
X111293924Y-56703152D01*
X111293924Y-56703152D02*
X111389162Y-56703152D01*
X111865353Y-57369819D02*
X111770115Y-57322200D01*
X111770115Y-57322200D02*
X111722496Y-57274580D01*
X111722496Y-57274580D02*
X111674877Y-57179342D01*
X111674877Y-57179342D02*
X111674877Y-56893628D01*
X111674877Y-56893628D02*
X111722496Y-56798390D01*
X111722496Y-56798390D02*
X111770115Y-56750771D01*
X111770115Y-56750771D02*
X111865353Y-56703152D01*
X111865353Y-56703152D02*
X112008210Y-56703152D01*
X112008210Y-56703152D02*
X112103448Y-56750771D01*
X112103448Y-56750771D02*
X112151067Y-56798390D01*
X112151067Y-56798390D02*
X112198686Y-56893628D01*
X112198686Y-56893628D02*
X112198686Y-57179342D01*
X112198686Y-57179342D02*
X112151067Y-57274580D01*
X112151067Y-57274580D02*
X112103448Y-57322200D01*
X112103448Y-57322200D02*
X112008210Y-57369819D01*
X112008210Y-57369819D02*
X111865353Y-57369819D01*
X112770115Y-57369819D02*
X112674877Y-57322200D01*
X112674877Y-57322200D02*
X112627258Y-57226961D01*
X112627258Y-57226961D02*
X112627258Y-56369819D01*
X113293925Y-57369819D02*
X113198687Y-57322200D01*
X113198687Y-57322200D02*
X113151068Y-57226961D01*
X113151068Y-57226961D02*
X113151068Y-56369819D01*
X114055830Y-57322200D02*
X113960592Y-57369819D01*
X113960592Y-57369819D02*
X113770116Y-57369819D01*
X113770116Y-57369819D02*
X113674878Y-57322200D01*
X113674878Y-57322200D02*
X113627259Y-57226961D01*
X113627259Y-57226961D02*
X113627259Y-56846009D01*
X113627259Y-56846009D02*
X113674878Y-56750771D01*
X113674878Y-56750771D02*
X113770116Y-56703152D01*
X113770116Y-56703152D02*
X113960592Y-56703152D01*
X113960592Y-56703152D02*
X114055830Y-56750771D01*
X114055830Y-56750771D02*
X114103449Y-56846009D01*
X114103449Y-56846009D02*
X114103449Y-56941247D01*
X114103449Y-56941247D02*
X113627259Y-57036485D01*
X114960592Y-57369819D02*
X114960592Y-56369819D01*
X114960592Y-57322200D02*
X114865354Y-57369819D01*
X114865354Y-57369819D02*
X114674878Y-57369819D01*
X114674878Y-57369819D02*
X114579640Y-57322200D01*
X114579640Y-57322200D02*
X114532021Y-57274580D01*
X114532021Y-57274580D02*
X114484402Y-57179342D01*
X114484402Y-57179342D02*
X114484402Y-56893628D01*
X114484402Y-56893628D02*
X114532021Y-56798390D01*
X114532021Y-56798390D02*
X114579640Y-56750771D01*
X114579640Y-56750771D02*
X114674878Y-56703152D01*
X114674878Y-56703152D02*
X114865354Y-56703152D01*
X114865354Y-56703152D02*
X114960592Y-56750771D01*
X116151069Y-57084104D02*
X116627259Y-57084104D01*
X116055831Y-57369819D02*
X116389164Y-56369819D01*
X116389164Y-56369819D02*
X116722497Y-57369819D01*
X117055831Y-57369819D02*
X117055831Y-56703152D01*
X117055831Y-56798390D02*
X117103450Y-56750771D01*
X117103450Y-56750771D02*
X117198688Y-56703152D01*
X117198688Y-56703152D02*
X117341545Y-56703152D01*
X117341545Y-56703152D02*
X117436783Y-56750771D01*
X117436783Y-56750771D02*
X117484402Y-56846009D01*
X117484402Y-56846009D02*
X117484402Y-57369819D01*
X117484402Y-56846009D02*
X117532021Y-56750771D01*
X117532021Y-56750771D02*
X117627259Y-56703152D01*
X117627259Y-56703152D02*
X117770116Y-56703152D01*
X117770116Y-56703152D02*
X117865355Y-56750771D01*
X117865355Y-56750771D02*
X117912974Y-56846009D01*
X117912974Y-56846009D02*
X117912974Y-57369819D01*
X118389164Y-56703152D02*
X118389164Y-57703152D01*
X118389164Y-56750771D02*
X118484402Y-56703152D01*
X118484402Y-56703152D02*
X118674878Y-56703152D01*
X118674878Y-56703152D02*
X118770116Y-56750771D01*
X118770116Y-56750771D02*
X118817735Y-56798390D01*
X118817735Y-56798390D02*
X118865354Y-56893628D01*
X118865354Y-56893628D02*
X118865354Y-57179342D01*
X118865354Y-57179342D02*
X118817735Y-57274580D01*
X118817735Y-57274580D02*
X118770116Y-57322200D01*
X118770116Y-57322200D02*
X118674878Y-57369819D01*
X118674878Y-57369819D02*
X118484402Y-57369819D01*
X118484402Y-57369819D02*
X118389164Y-57322200D01*
X119436783Y-57369819D02*
X119341545Y-57322200D01*
X119341545Y-57322200D02*
X119293926Y-57226961D01*
X119293926Y-57226961D02*
X119293926Y-56369819D01*
X119817736Y-57369819D02*
X119817736Y-56703152D01*
X119817736Y-56369819D02*
X119770117Y-56417438D01*
X119770117Y-56417438D02*
X119817736Y-56465057D01*
X119817736Y-56465057D02*
X119865355Y-56417438D01*
X119865355Y-56417438D02*
X119817736Y-56369819D01*
X119817736Y-56369819D02*
X119817736Y-56465057D01*
X120151069Y-56703152D02*
X120532021Y-56703152D01*
X120293926Y-57369819D02*
X120293926Y-56512676D01*
X120293926Y-56512676D02*
X120341545Y-56417438D01*
X120341545Y-56417438D02*
X120436783Y-56369819D01*
X120436783Y-56369819D02*
X120532021Y-56369819D01*
X120865355Y-57369819D02*
X120865355Y-56703152D01*
X120865355Y-56369819D02*
X120817736Y-56417438D01*
X120817736Y-56417438D02*
X120865355Y-56465057D01*
X120865355Y-56465057D02*
X120912974Y-56417438D01*
X120912974Y-56417438D02*
X120865355Y-56369819D01*
X120865355Y-56369819D02*
X120865355Y-56465057D01*
X121722497Y-57322200D02*
X121627259Y-57369819D01*
X121627259Y-57369819D02*
X121436783Y-57369819D01*
X121436783Y-57369819D02*
X121341545Y-57322200D01*
X121341545Y-57322200D02*
X121293926Y-57226961D01*
X121293926Y-57226961D02*
X121293926Y-56846009D01*
X121293926Y-56846009D02*
X121341545Y-56750771D01*
X121341545Y-56750771D02*
X121436783Y-56703152D01*
X121436783Y-56703152D02*
X121627259Y-56703152D01*
X121627259Y-56703152D02*
X121722497Y-56750771D01*
X121722497Y-56750771D02*
X121770116Y-56846009D01*
X121770116Y-56846009D02*
X121770116Y-56941247D01*
X121770116Y-56941247D02*
X121293926Y-57036485D01*
X122198688Y-57369819D02*
X122198688Y-56703152D01*
X122198688Y-56893628D02*
X122246307Y-56798390D01*
X122246307Y-56798390D02*
X122293926Y-56750771D01*
X122293926Y-56750771D02*
X122389164Y-56703152D01*
X122389164Y-56703152D02*
X122484402Y-56703152D01*
X96136779Y-152269819D02*
X96136779Y-151269819D01*
X96612969Y-152269819D02*
X96612969Y-151269819D01*
X96612969Y-151269819D02*
X97184397Y-152269819D01*
X97184397Y-152269819D02*
X97184397Y-151269819D01*
X97660588Y-152269819D02*
X97660588Y-151269819D01*
X97660588Y-151269819D02*
X98041540Y-151269819D01*
X98041540Y-151269819D02*
X98136778Y-151317438D01*
X98136778Y-151317438D02*
X98184397Y-151365057D01*
X98184397Y-151365057D02*
X98232016Y-151460295D01*
X98232016Y-151460295D02*
X98232016Y-151603152D01*
X98232016Y-151603152D02*
X98184397Y-151698390D01*
X98184397Y-151698390D02*
X98136778Y-151746009D01*
X98136778Y-151746009D02*
X98041540Y-151793628D01*
X98041540Y-151793628D02*
X97660588Y-151793628D01*
X98660588Y-151269819D02*
X98660588Y-152079342D01*
X98660588Y-152079342D02*
X98708207Y-152174580D01*
X98708207Y-152174580D02*
X98755826Y-152222200D01*
X98755826Y-152222200D02*
X98851064Y-152269819D01*
X98851064Y-152269819D02*
X99041540Y-152269819D01*
X99041540Y-152269819D02*
X99136778Y-152222200D01*
X99136778Y-152222200D02*
X99184397Y-152174580D01*
X99184397Y-152174580D02*
X99232016Y-152079342D01*
X99232016Y-152079342D02*
X99232016Y-151269819D01*
X99565350Y-151269819D02*
X100136778Y-151269819D01*
X99851064Y-152269819D02*
X99851064Y-151269819D01*
X100232017Y-152365057D02*
X100993921Y-152365057D01*
X101184398Y-151365057D02*
X101232017Y-151317438D01*
X101232017Y-151317438D02*
X101327255Y-151269819D01*
X101327255Y-151269819D02*
X101565350Y-151269819D01*
X101565350Y-151269819D02*
X101660588Y-151317438D01*
X101660588Y-151317438D02*
X101708207Y-151365057D01*
X101708207Y-151365057D02*
X101755826Y-151460295D01*
X101755826Y-151460295D02*
X101755826Y-151555533D01*
X101755826Y-151555533D02*
X101708207Y-151698390D01*
X101708207Y-151698390D02*
X101136779Y-152269819D01*
X101136779Y-152269819D02*
X101755826Y-152269819D01*
X91851064Y-55342200D02*
X92565350Y-55580295D01*
X92565350Y-55580295D02*
X93755826Y-55580295D01*
X93755826Y-55580295D02*
X94232017Y-55342200D01*
X94232017Y-55342200D02*
X94470112Y-55104104D01*
X94470112Y-55104104D02*
X94708207Y-54627914D01*
X94708207Y-54627914D02*
X94708207Y-54151723D01*
X94708207Y-54151723D02*
X94470112Y-53675533D01*
X94470112Y-53675533D02*
X94232017Y-53437438D01*
X94232017Y-53437438D02*
X93755826Y-53199342D01*
X93755826Y-53199342D02*
X92803445Y-52961247D01*
X92803445Y-52961247D02*
X92327255Y-52723152D01*
X92327255Y-52723152D02*
X92089160Y-52485057D01*
X92089160Y-52485057D02*
X91851064Y-52008866D01*
X91851064Y-52008866D02*
X91851064Y-51532676D01*
X91851064Y-51532676D02*
X92089160Y-51056485D01*
X92089160Y-51056485D02*
X92327255Y-50818390D01*
X92327255Y-50818390D02*
X92803445Y-50580295D01*
X92803445Y-50580295D02*
X93993922Y-50580295D01*
X93993922Y-50580295D02*
X94708207Y-50818390D01*
X96851065Y-55580295D02*
X96851065Y-50580295D01*
X96851065Y-50580295D02*
X98755827Y-50580295D01*
X98755827Y-50580295D02*
X99232017Y-50818390D01*
X99232017Y-50818390D02*
X99470112Y-51056485D01*
X99470112Y-51056485D02*
X99708208Y-51532676D01*
X99708208Y-51532676D02*
X99708208Y-52246961D01*
X99708208Y-52246961D02*
X99470112Y-52723152D01*
X99470112Y-52723152D02*
X99232017Y-52961247D01*
X99232017Y-52961247D02*
X98755827Y-53199342D01*
X98755827Y-53199342D02*
X96851065Y-53199342D01*
X101612969Y-54151723D02*
X103993922Y-54151723D01*
X101136779Y-55580295D02*
X102803446Y-50580295D01*
X102803446Y-50580295D02*
X104470112Y-55580295D01*
X108993922Y-55580295D02*
X107327255Y-53199342D01*
X106136779Y-55580295D02*
X106136779Y-50580295D01*
X106136779Y-50580295D02*
X108041541Y-50580295D01*
X108041541Y-50580295D02*
X108517731Y-50818390D01*
X108517731Y-50818390D02*
X108755826Y-51056485D01*
X108755826Y-51056485D02*
X108993922Y-51532676D01*
X108993922Y-51532676D02*
X108993922Y-52246961D01*
X108993922Y-52246961D02*
X108755826Y-52723152D01*
X108755826Y-52723152D02*
X108517731Y-52961247D01*
X108517731Y-52961247D02*
X108041541Y-53199342D01*
X108041541Y-53199342D02*
X106136779Y-53199342D01*
X111136779Y-55580295D02*
X111136779Y-50580295D01*
X113993922Y-55580295D02*
X111851064Y-52723152D01*
X113993922Y-50580295D02*
X111136779Y-53437438D01*
X118517731Y-55580295D02*
X116136779Y-55580295D01*
X116136779Y-55580295D02*
X116136779Y-50580295D01*
X120184398Y-52961247D02*
X121851064Y-52961247D01*
X122565350Y-55580295D02*
X120184398Y-55580295D01*
X120184398Y-55580295D02*
X120184398Y-50580295D01*
X120184398Y-50580295D02*
X122565350Y-50580295D01*
X82260588Y-63717438D02*
X82165350Y-63669819D01*
X82165350Y-63669819D02*
X82022493Y-63669819D01*
X82022493Y-63669819D02*
X81879636Y-63717438D01*
X81879636Y-63717438D02*
X81784398Y-63812676D01*
X81784398Y-63812676D02*
X81736779Y-63907914D01*
X81736779Y-63907914D02*
X81689160Y-64098390D01*
X81689160Y-64098390D02*
X81689160Y-64241247D01*
X81689160Y-64241247D02*
X81736779Y-64431723D01*
X81736779Y-64431723D02*
X81784398Y-64526961D01*
X81784398Y-64526961D02*
X81879636Y-64622200D01*
X81879636Y-64622200D02*
X82022493Y-64669819D01*
X82022493Y-64669819D02*
X82117731Y-64669819D01*
X82117731Y-64669819D02*
X82260588Y-64622200D01*
X82260588Y-64622200D02*
X82308207Y-64574580D01*
X82308207Y-64574580D02*
X82308207Y-64241247D01*
X82308207Y-64241247D02*
X82117731Y-64241247D01*
X82736779Y-64669819D02*
X82736779Y-63669819D01*
X82736779Y-63669819D02*
X83308207Y-64669819D01*
X83308207Y-64669819D02*
X83308207Y-63669819D01*
X83784398Y-64669819D02*
X83784398Y-63669819D01*
X83784398Y-63669819D02*
X84022493Y-63669819D01*
X84022493Y-63669819D02*
X84165350Y-63717438D01*
X84165350Y-63717438D02*
X84260588Y-63812676D01*
X84260588Y-63812676D02*
X84308207Y-63907914D01*
X84308207Y-63907914D02*
X84355826Y-64098390D01*
X84355826Y-64098390D02*
X84355826Y-64241247D01*
X84355826Y-64241247D02*
X84308207Y-64431723D01*
X84308207Y-64431723D02*
X84260588Y-64526961D01*
X84260588Y-64526961D02*
X84165350Y-64622200D01*
X84165350Y-64622200D02*
X84022493Y-64669819D01*
X84022493Y-64669819D02*
X83784398Y-64669819D01*
X66422493Y-112669819D02*
X66422493Y-113384104D01*
X66422493Y-113384104D02*
X66374874Y-113526961D01*
X66374874Y-113526961D02*
X66279636Y-113622200D01*
X66279636Y-113622200D02*
X66136779Y-113669819D01*
X66136779Y-113669819D02*
X66041541Y-113669819D01*
X67374874Y-113669819D02*
X66898684Y-113669819D01*
X66898684Y-113669819D02*
X66898684Y-112669819D01*
X68279636Y-113574580D02*
X68232017Y-113622200D01*
X68232017Y-113622200D02*
X68089160Y-113669819D01*
X68089160Y-113669819D02*
X67993922Y-113669819D01*
X67993922Y-113669819D02*
X67851065Y-113622200D01*
X67851065Y-113622200D02*
X67755827Y-113526961D01*
X67755827Y-113526961D02*
X67708208Y-113431723D01*
X67708208Y-113431723D02*
X67660589Y-113241247D01*
X67660589Y-113241247D02*
X67660589Y-113098390D01*
X67660589Y-113098390D02*
X67708208Y-112907914D01*
X67708208Y-112907914D02*
X67755827Y-112812676D01*
X67755827Y-112812676D02*
X67851065Y-112717438D01*
X67851065Y-112717438D02*
X67993922Y-112669819D01*
X67993922Y-112669819D02*
X68089160Y-112669819D01*
X68089160Y-112669819D02*
X68232017Y-112717438D01*
X68232017Y-112717438D02*
X68279636Y-112765057D01*
X68993922Y-112669819D02*
X68993922Y-113384104D01*
X68993922Y-113384104D02*
X68946303Y-113526961D01*
X68946303Y-113526961D02*
X68851065Y-113622200D01*
X68851065Y-113622200D02*
X68708208Y-113669819D01*
X68708208Y-113669819D02*
X68612970Y-113669819D01*
X69946303Y-113669819D02*
X69470113Y-113669819D01*
X69470113Y-113669819D02*
X69470113Y-112669819D01*
X70851065Y-113574580D02*
X70803446Y-113622200D01*
X70803446Y-113622200D02*
X70660589Y-113669819D01*
X70660589Y-113669819D02*
X70565351Y-113669819D01*
X70565351Y-113669819D02*
X70422494Y-113622200D01*
X70422494Y-113622200D02*
X70327256Y-113526961D01*
X70327256Y-113526961D02*
X70279637Y-113431723D01*
X70279637Y-113431723D02*
X70232018Y-113241247D01*
X70232018Y-113241247D02*
X70232018Y-113098390D01*
X70232018Y-113098390D02*
X70279637Y-112907914D01*
X70279637Y-112907914D02*
X70327256Y-112812676D01*
X70327256Y-112812676D02*
X70422494Y-112717438D01*
X70422494Y-112717438D02*
X70565351Y-112669819D01*
X70565351Y-112669819D02*
X70660589Y-112669819D01*
X70660589Y-112669819D02*
X70803446Y-112717438D01*
X70803446Y-112717438D02*
X70851065Y-112765057D01*
X71565351Y-112669819D02*
X71565351Y-113384104D01*
X71565351Y-113384104D02*
X71517732Y-113526961D01*
X71517732Y-113526961D02*
X71422494Y-113622200D01*
X71422494Y-113622200D02*
X71279637Y-113669819D01*
X71279637Y-113669819D02*
X71184399Y-113669819D01*
X72517732Y-113669819D02*
X72041542Y-113669819D01*
X72041542Y-113669819D02*
X72041542Y-112669819D01*
X73422494Y-113574580D02*
X73374875Y-113622200D01*
X73374875Y-113622200D02*
X73232018Y-113669819D01*
X73232018Y-113669819D02*
X73136780Y-113669819D01*
X73136780Y-113669819D02*
X72993923Y-113622200D01*
X72993923Y-113622200D02*
X72898685Y-113526961D01*
X72898685Y-113526961D02*
X72851066Y-113431723D01*
X72851066Y-113431723D02*
X72803447Y-113241247D01*
X72803447Y-113241247D02*
X72803447Y-113098390D01*
X72803447Y-113098390D02*
X72851066Y-112907914D01*
X72851066Y-112907914D02*
X72898685Y-112812676D01*
X72898685Y-112812676D02*
X72993923Y-112717438D01*
X72993923Y-112717438D02*
X73136780Y-112669819D01*
X73136780Y-112669819D02*
X73232018Y-112669819D01*
X73232018Y-112669819D02*
X73374875Y-112717438D01*
X73374875Y-112717438D02*
X73422494Y-112765057D01*
X74136780Y-112669819D02*
X74136780Y-113384104D01*
X74136780Y-113384104D02*
X74089161Y-113526961D01*
X74089161Y-113526961D02*
X73993923Y-113622200D01*
X73993923Y-113622200D02*
X73851066Y-113669819D01*
X73851066Y-113669819D02*
X73755828Y-113669819D01*
X75089161Y-113669819D02*
X74612971Y-113669819D01*
X74612971Y-113669819D02*
X74612971Y-112669819D01*
X75993923Y-113574580D02*
X75946304Y-113622200D01*
X75946304Y-113622200D02*
X75803447Y-113669819D01*
X75803447Y-113669819D02*
X75708209Y-113669819D01*
X75708209Y-113669819D02*
X75565352Y-113622200D01*
X75565352Y-113622200D02*
X75470114Y-113526961D01*
X75470114Y-113526961D02*
X75422495Y-113431723D01*
X75422495Y-113431723D02*
X75374876Y-113241247D01*
X75374876Y-113241247D02*
X75374876Y-113098390D01*
X75374876Y-113098390D02*
X75422495Y-112907914D01*
X75422495Y-112907914D02*
X75470114Y-112812676D01*
X75470114Y-112812676D02*
X75565352Y-112717438D01*
X75565352Y-112717438D02*
X75708209Y-112669819D01*
X75708209Y-112669819D02*
X75803447Y-112669819D01*
X75803447Y-112669819D02*
X75946304Y-112717438D01*
X75946304Y-112717438D02*
X75993923Y-112765057D01*
X100412969Y-157369819D02*
X99936779Y-157369819D01*
X99936779Y-157369819D02*
X99936779Y-156369819D01*
X101127255Y-157322200D02*
X101032017Y-157369819D01*
X101032017Y-157369819D02*
X100841541Y-157369819D01*
X100841541Y-157369819D02*
X100746303Y-157322200D01*
X100746303Y-157322200D02*
X100698684Y-157226961D01*
X100698684Y-157226961D02*
X100698684Y-156846009D01*
X100698684Y-156846009D02*
X100746303Y-156750771D01*
X100746303Y-156750771D02*
X100841541Y-156703152D01*
X100841541Y-156703152D02*
X101032017Y-156703152D01*
X101032017Y-156703152D02*
X101127255Y-156750771D01*
X101127255Y-156750771D02*
X101174874Y-156846009D01*
X101174874Y-156846009D02*
X101174874Y-156941247D01*
X101174874Y-156941247D02*
X100698684Y-157036485D01*
X101603446Y-156703152D02*
X101603446Y-157369819D01*
X101603446Y-156798390D02*
X101651065Y-156750771D01*
X101651065Y-156750771D02*
X101746303Y-156703152D01*
X101746303Y-156703152D02*
X101889160Y-156703152D01*
X101889160Y-156703152D02*
X101984398Y-156750771D01*
X101984398Y-156750771D02*
X102032017Y-156846009D01*
X102032017Y-156846009D02*
X102032017Y-157369819D01*
X102508208Y-157369819D02*
X102508208Y-156703152D01*
X102508208Y-156369819D02*
X102460589Y-156417438D01*
X102460589Y-156417438D02*
X102508208Y-156465057D01*
X102508208Y-156465057D02*
X102555827Y-156417438D01*
X102555827Y-156417438D02*
X102508208Y-156369819D01*
X102508208Y-156369819D02*
X102508208Y-156465057D01*
X102984398Y-157369819D02*
X102984398Y-156703152D01*
X102984398Y-156798390D02*
X103032017Y-156750771D01*
X103032017Y-156750771D02*
X103127255Y-156703152D01*
X103127255Y-156703152D02*
X103270112Y-156703152D01*
X103270112Y-156703152D02*
X103365350Y-156750771D01*
X103365350Y-156750771D02*
X103412969Y-156846009D01*
X103412969Y-156846009D02*
X103412969Y-157369819D01*
X103412969Y-156846009D02*
X103460588Y-156750771D01*
X103460588Y-156750771D02*
X103555826Y-156703152D01*
X103555826Y-156703152D02*
X103698683Y-156703152D01*
X103698683Y-156703152D02*
X103793922Y-156750771D01*
X103793922Y-156750771D02*
X103841541Y-156846009D01*
X103841541Y-156846009D02*
X103841541Y-157369819D01*
X104746302Y-157369819D02*
X104746302Y-156846009D01*
X104746302Y-156846009D02*
X104698683Y-156750771D01*
X104698683Y-156750771D02*
X104603445Y-156703152D01*
X104603445Y-156703152D02*
X104412969Y-156703152D01*
X104412969Y-156703152D02*
X104317731Y-156750771D01*
X104746302Y-157322200D02*
X104651064Y-157369819D01*
X104651064Y-157369819D02*
X104412969Y-157369819D01*
X104412969Y-157369819D02*
X104317731Y-157322200D01*
X104317731Y-157322200D02*
X104270112Y-157226961D01*
X104270112Y-157226961D02*
X104270112Y-157131723D01*
X104270112Y-157131723D02*
X104317731Y-157036485D01*
X104317731Y-157036485D02*
X104412969Y-156988866D01*
X104412969Y-156988866D02*
X104651064Y-156988866D01*
X104651064Y-156988866D02*
X104746302Y-156941247D01*
X105365350Y-157369819D02*
X105270112Y-157322200D01*
X105270112Y-157322200D02*
X105222493Y-157226961D01*
X105222493Y-157226961D02*
X105222493Y-156369819D01*
X106508208Y-157369819D02*
X106508208Y-156369819D01*
X106508208Y-156369819D02*
X106889160Y-156369819D01*
X106889160Y-156369819D02*
X106984398Y-156417438D01*
X106984398Y-156417438D02*
X107032017Y-156465057D01*
X107032017Y-156465057D02*
X107079636Y-156560295D01*
X107079636Y-156560295D02*
X107079636Y-156703152D01*
X107079636Y-156703152D02*
X107032017Y-156798390D01*
X107032017Y-156798390D02*
X106984398Y-156846009D01*
X106984398Y-156846009D02*
X106889160Y-156893628D01*
X106889160Y-156893628D02*
X106508208Y-156893628D01*
X108079636Y-157274580D02*
X108032017Y-157322200D01*
X108032017Y-157322200D02*
X107889160Y-157369819D01*
X107889160Y-157369819D02*
X107793922Y-157369819D01*
X107793922Y-157369819D02*
X107651065Y-157322200D01*
X107651065Y-157322200D02*
X107555827Y-157226961D01*
X107555827Y-157226961D02*
X107508208Y-157131723D01*
X107508208Y-157131723D02*
X107460589Y-156941247D01*
X107460589Y-156941247D02*
X107460589Y-156798390D01*
X107460589Y-156798390D02*
X107508208Y-156607914D01*
X107508208Y-156607914D02*
X107555827Y-156512676D01*
X107555827Y-156512676D02*
X107651065Y-156417438D01*
X107651065Y-156417438D02*
X107793922Y-156369819D01*
X107793922Y-156369819D02*
X107889160Y-156369819D01*
X107889160Y-156369819D02*
X108032017Y-156417438D01*
X108032017Y-156417438D02*
X108079636Y-156465057D01*
X108841541Y-156846009D02*
X108984398Y-156893628D01*
X108984398Y-156893628D02*
X109032017Y-156941247D01*
X109032017Y-156941247D02*
X109079636Y-157036485D01*
X109079636Y-157036485D02*
X109079636Y-157179342D01*
X109079636Y-157179342D02*
X109032017Y-157274580D01*
X109032017Y-157274580D02*
X108984398Y-157322200D01*
X108984398Y-157322200D02*
X108889160Y-157369819D01*
X108889160Y-157369819D02*
X108508208Y-157369819D01*
X108508208Y-157369819D02*
X108508208Y-156369819D01*
X108508208Y-156369819D02*
X108841541Y-156369819D01*
X108841541Y-156369819D02*
X108936779Y-156417438D01*
X108936779Y-156417438D02*
X108984398Y-156465057D01*
X108984398Y-156465057D02*
X109032017Y-156560295D01*
X109032017Y-156560295D02*
X109032017Y-156655533D01*
X109032017Y-156655533D02*
X108984398Y-156750771D01*
X108984398Y-156750771D02*
X108936779Y-156798390D01*
X108936779Y-156798390D02*
X108841541Y-156846009D01*
X108841541Y-156846009D02*
X108508208Y-156846009D01*
X110270113Y-157369819D02*
X110270113Y-156369819D01*
X110270113Y-156369819D02*
X110508208Y-156369819D01*
X110508208Y-156369819D02*
X110651065Y-156417438D01*
X110651065Y-156417438D02*
X110746303Y-156512676D01*
X110746303Y-156512676D02*
X110793922Y-156607914D01*
X110793922Y-156607914D02*
X110841541Y-156798390D01*
X110841541Y-156798390D02*
X110841541Y-156941247D01*
X110841541Y-156941247D02*
X110793922Y-157131723D01*
X110793922Y-157131723D02*
X110746303Y-157226961D01*
X110746303Y-157226961D02*
X110651065Y-157322200D01*
X110651065Y-157322200D02*
X110508208Y-157369819D01*
X110508208Y-157369819D02*
X110270113Y-157369819D01*
X111651065Y-157322200D02*
X111555827Y-157369819D01*
X111555827Y-157369819D02*
X111365351Y-157369819D01*
X111365351Y-157369819D02*
X111270113Y-157322200D01*
X111270113Y-157322200D02*
X111222494Y-157226961D01*
X111222494Y-157226961D02*
X111222494Y-156846009D01*
X111222494Y-156846009D02*
X111270113Y-156750771D01*
X111270113Y-156750771D02*
X111365351Y-156703152D01*
X111365351Y-156703152D02*
X111555827Y-156703152D01*
X111555827Y-156703152D02*
X111651065Y-156750771D01*
X111651065Y-156750771D02*
X111698684Y-156846009D01*
X111698684Y-156846009D02*
X111698684Y-156941247D01*
X111698684Y-156941247D02*
X111222494Y-157036485D01*
X112079637Y-157322200D02*
X112174875Y-157369819D01*
X112174875Y-157369819D02*
X112365351Y-157369819D01*
X112365351Y-157369819D02*
X112460589Y-157322200D01*
X112460589Y-157322200D02*
X112508208Y-157226961D01*
X112508208Y-157226961D02*
X112508208Y-157179342D01*
X112508208Y-157179342D02*
X112460589Y-157084104D01*
X112460589Y-157084104D02*
X112365351Y-157036485D01*
X112365351Y-157036485D02*
X112222494Y-157036485D01*
X112222494Y-157036485D02*
X112127256Y-156988866D01*
X112127256Y-156988866D02*
X112079637Y-156893628D01*
X112079637Y-156893628D02*
X112079637Y-156846009D01*
X112079637Y-156846009D02*
X112127256Y-156750771D01*
X112127256Y-156750771D02*
X112222494Y-156703152D01*
X112222494Y-156703152D02*
X112365351Y-156703152D01*
X112365351Y-156703152D02*
X112460589Y-156750771D01*
X112936780Y-157369819D02*
X112936780Y-156703152D01*
X112936780Y-156369819D02*
X112889161Y-156417438D01*
X112889161Y-156417438D02*
X112936780Y-156465057D01*
X112936780Y-156465057D02*
X112984399Y-156417438D01*
X112984399Y-156417438D02*
X112936780Y-156369819D01*
X112936780Y-156369819D02*
X112936780Y-156465057D01*
X113841541Y-156703152D02*
X113841541Y-157512676D01*
X113841541Y-157512676D02*
X113793922Y-157607914D01*
X113793922Y-157607914D02*
X113746303Y-157655533D01*
X113746303Y-157655533D02*
X113651065Y-157703152D01*
X113651065Y-157703152D02*
X113508208Y-157703152D01*
X113508208Y-157703152D02*
X113412970Y-157655533D01*
X113841541Y-157322200D02*
X113746303Y-157369819D01*
X113746303Y-157369819D02*
X113555827Y-157369819D01*
X113555827Y-157369819D02*
X113460589Y-157322200D01*
X113460589Y-157322200D02*
X113412970Y-157274580D01*
X113412970Y-157274580D02*
X113365351Y-157179342D01*
X113365351Y-157179342D02*
X113365351Y-156893628D01*
X113365351Y-156893628D02*
X113412970Y-156798390D01*
X113412970Y-156798390D02*
X113460589Y-156750771D01*
X113460589Y-156750771D02*
X113555827Y-156703152D01*
X113555827Y-156703152D02*
X113746303Y-156703152D01*
X113746303Y-156703152D02*
X113841541Y-156750771D01*
X114317732Y-156703152D02*
X114317732Y-157369819D01*
X114317732Y-156798390D02*
X114365351Y-156750771D01*
X114365351Y-156750771D02*
X114460589Y-156703152D01*
X114460589Y-156703152D02*
X114603446Y-156703152D01*
X114603446Y-156703152D02*
X114698684Y-156750771D01*
X114698684Y-156750771D02*
X114746303Y-156846009D01*
X114746303Y-156846009D02*
X114746303Y-157369819D01*
X116174875Y-156369819D02*
X116270113Y-156369819D01*
X116270113Y-156369819D02*
X116365351Y-156417438D01*
X116365351Y-156417438D02*
X116412970Y-156465057D01*
X116412970Y-156465057D02*
X116460589Y-156560295D01*
X116460589Y-156560295D02*
X116508208Y-156750771D01*
X116508208Y-156750771D02*
X116508208Y-156988866D01*
X116508208Y-156988866D02*
X116460589Y-157179342D01*
X116460589Y-157179342D02*
X116412970Y-157274580D01*
X116412970Y-157274580D02*
X116365351Y-157322200D01*
X116365351Y-157322200D02*
X116270113Y-157369819D01*
X116270113Y-157369819D02*
X116174875Y-157369819D01*
X116174875Y-157369819D02*
X116079637Y-157322200D01*
X116079637Y-157322200D02*
X116032018Y-157274580D01*
X116032018Y-157274580D02*
X115984399Y-157179342D01*
X115984399Y-157179342D02*
X115936780Y-156988866D01*
X115936780Y-156988866D02*
X115936780Y-156750771D01*
X115936780Y-156750771D02*
X115984399Y-156560295D01*
X115984399Y-156560295D02*
X116032018Y-156465057D01*
X116032018Y-156465057D02*
X116079637Y-156417438D01*
X116079637Y-156417438D02*
X116174875Y-156369819D01*
X117365351Y-156703152D02*
X117365351Y-157369819D01*
X117127256Y-156322200D02*
X116889161Y-157036485D01*
X116889161Y-157036485D02*
X117508208Y-157036485D01*
X117889161Y-157274580D02*
X117936780Y-157322200D01*
X117936780Y-157322200D02*
X117889161Y-157369819D01*
X117889161Y-157369819D02*
X117841542Y-157322200D01*
X117841542Y-157322200D02*
X117889161Y-157274580D01*
X117889161Y-157274580D02*
X117889161Y-157369819D01*
X118317732Y-156465057D02*
X118365351Y-156417438D01*
X118365351Y-156417438D02*
X118460589Y-156369819D01*
X118460589Y-156369819D02*
X118698684Y-156369819D01*
X118698684Y-156369819D02*
X118793922Y-156417438D01*
X118793922Y-156417438D02*
X118841541Y-156465057D01*
X118841541Y-156465057D02*
X118889160Y-156560295D01*
X118889160Y-156560295D02*
X118889160Y-156655533D01*
X118889160Y-156655533D02*
X118841541Y-156798390D01*
X118841541Y-156798390D02*
X118270113Y-157369819D01*
X118270113Y-157369819D02*
X118889160Y-157369819D01*
X119508208Y-156369819D02*
X119603446Y-156369819D01*
X119603446Y-156369819D02*
X119698684Y-156417438D01*
X119698684Y-156417438D02*
X119746303Y-156465057D01*
X119746303Y-156465057D02*
X119793922Y-156560295D01*
X119793922Y-156560295D02*
X119841541Y-156750771D01*
X119841541Y-156750771D02*
X119841541Y-156988866D01*
X119841541Y-156988866D02*
X119793922Y-157179342D01*
X119793922Y-157179342D02*
X119746303Y-157274580D01*
X119746303Y-157274580D02*
X119698684Y-157322200D01*
X119698684Y-157322200D02*
X119603446Y-157369819D01*
X119603446Y-157369819D02*
X119508208Y-157369819D01*
X119508208Y-157369819D02*
X119412970Y-157322200D01*
X119412970Y-157322200D02*
X119365351Y-157274580D01*
X119365351Y-157274580D02*
X119317732Y-157179342D01*
X119317732Y-157179342D02*
X119270113Y-156988866D01*
X119270113Y-156988866D02*
X119270113Y-156750771D01*
X119270113Y-156750771D02*
X119317732Y-156560295D01*
X119317732Y-156560295D02*
X119365351Y-156465057D01*
X119365351Y-156465057D02*
X119412970Y-156417438D01*
X119412970Y-156417438D02*
X119508208Y-156369819D01*
X120222494Y-156465057D02*
X120270113Y-156417438D01*
X120270113Y-156417438D02*
X120365351Y-156369819D01*
X120365351Y-156369819D02*
X120603446Y-156369819D01*
X120603446Y-156369819D02*
X120698684Y-156417438D01*
X120698684Y-156417438D02*
X120746303Y-156465057D01*
X120746303Y-156465057D02*
X120793922Y-156560295D01*
X120793922Y-156560295D02*
X120793922Y-156655533D01*
X120793922Y-156655533D02*
X120746303Y-156798390D01*
X120746303Y-156798390D02*
X120174875Y-157369819D01*
X120174875Y-157369819D02*
X120793922Y-157369819D01*
X121651065Y-156703152D02*
X121651065Y-157369819D01*
X121412970Y-156322200D02*
X121174875Y-157036485D01*
X121174875Y-157036485D02*
X121793922Y-157036485D01*
X110108207Y-152174580D02*
X110060588Y-152222200D01*
X110060588Y-152222200D02*
X109917731Y-152269819D01*
X109917731Y-152269819D02*
X109822493Y-152269819D01*
X109822493Y-152269819D02*
X109679636Y-152222200D01*
X109679636Y-152222200D02*
X109584398Y-152126961D01*
X109584398Y-152126961D02*
X109536779Y-152031723D01*
X109536779Y-152031723D02*
X109489160Y-151841247D01*
X109489160Y-151841247D02*
X109489160Y-151698390D01*
X109489160Y-151698390D02*
X109536779Y-151507914D01*
X109536779Y-151507914D02*
X109584398Y-151412676D01*
X109584398Y-151412676D02*
X109679636Y-151317438D01*
X109679636Y-151317438D02*
X109822493Y-151269819D01*
X109822493Y-151269819D02*
X109917731Y-151269819D01*
X109917731Y-151269819D02*
X110060588Y-151317438D01*
X110060588Y-151317438D02*
X110108207Y-151365057D01*
X110393922Y-151269819D02*
X110727255Y-152269819D01*
X110727255Y-152269819D02*
X111060588Y-151269819D01*
X111155827Y-152365057D02*
X111917731Y-152365057D01*
X112108208Y-151365057D02*
X112155827Y-151317438D01*
X112155827Y-151317438D02*
X112251065Y-151269819D01*
X112251065Y-151269819D02*
X112489160Y-151269819D01*
X112489160Y-151269819D02*
X112584398Y-151317438D01*
X112584398Y-151317438D02*
X112632017Y-151365057D01*
X112632017Y-151365057D02*
X112679636Y-151460295D01*
X112679636Y-151460295D02*
X112679636Y-151555533D01*
X112679636Y-151555533D02*
X112632017Y-151698390D01*
X112632017Y-151698390D02*
X112060589Y-152269819D01*
X112060589Y-152269819D02*
X112679636Y-152269819D01*
X67393922Y-129069819D02*
X67727255Y-130069819D01*
X67727255Y-130069819D02*
X68060588Y-129069819D01*
X68536779Y-130069819D02*
X68441541Y-130022200D01*
X68441541Y-130022200D02*
X68393922Y-129974580D01*
X68393922Y-129974580D02*
X68346303Y-129879342D01*
X68346303Y-129879342D02*
X68346303Y-129593628D01*
X68346303Y-129593628D02*
X68393922Y-129498390D01*
X68393922Y-129498390D02*
X68441541Y-129450771D01*
X68441541Y-129450771D02*
X68536779Y-129403152D01*
X68536779Y-129403152D02*
X68679636Y-129403152D01*
X68679636Y-129403152D02*
X68774874Y-129450771D01*
X68774874Y-129450771D02*
X68822493Y-129498390D01*
X68822493Y-129498390D02*
X68870112Y-129593628D01*
X68870112Y-129593628D02*
X68870112Y-129879342D01*
X68870112Y-129879342D02*
X68822493Y-129974580D01*
X68822493Y-129974580D02*
X68774874Y-130022200D01*
X68774874Y-130022200D02*
X68679636Y-130069819D01*
X68679636Y-130069819D02*
X68536779Y-130069819D01*
X69441541Y-130069819D02*
X69346303Y-130022200D01*
X69346303Y-130022200D02*
X69298684Y-129926961D01*
X69298684Y-129926961D02*
X69298684Y-129069819D01*
X69679637Y-129403152D02*
X70060589Y-129403152D01*
X69822494Y-129069819D02*
X69822494Y-129926961D01*
X69822494Y-129926961D02*
X69870113Y-130022200D01*
X69870113Y-130022200D02*
X69965351Y-130069819D01*
X69965351Y-130069819D02*
X70060589Y-130069819D01*
X70822494Y-130069819D02*
X70822494Y-129546009D01*
X70822494Y-129546009D02*
X70774875Y-129450771D01*
X70774875Y-129450771D02*
X70679637Y-129403152D01*
X70679637Y-129403152D02*
X70489161Y-129403152D01*
X70489161Y-129403152D02*
X70393923Y-129450771D01*
X70822494Y-130022200D02*
X70727256Y-130069819D01*
X70727256Y-130069819D02*
X70489161Y-130069819D01*
X70489161Y-130069819D02*
X70393923Y-130022200D01*
X70393923Y-130022200D02*
X70346304Y-129926961D01*
X70346304Y-129926961D02*
X70346304Y-129831723D01*
X70346304Y-129831723D02*
X70393923Y-129736485D01*
X70393923Y-129736485D02*
X70489161Y-129688866D01*
X70489161Y-129688866D02*
X70727256Y-129688866D01*
X70727256Y-129688866D02*
X70822494Y-129641247D01*
X71727256Y-129403152D02*
X71727256Y-130212676D01*
X71727256Y-130212676D02*
X71679637Y-130307914D01*
X71679637Y-130307914D02*
X71632018Y-130355533D01*
X71632018Y-130355533D02*
X71536780Y-130403152D01*
X71536780Y-130403152D02*
X71393923Y-130403152D01*
X71393923Y-130403152D02*
X71298685Y-130355533D01*
X71727256Y-130022200D02*
X71632018Y-130069819D01*
X71632018Y-130069819D02*
X71441542Y-130069819D01*
X71441542Y-130069819D02*
X71346304Y-130022200D01*
X71346304Y-130022200D02*
X71298685Y-129974580D01*
X71298685Y-129974580D02*
X71251066Y-129879342D01*
X71251066Y-129879342D02*
X71251066Y-129593628D01*
X71251066Y-129593628D02*
X71298685Y-129498390D01*
X71298685Y-129498390D02*
X71346304Y-129450771D01*
X71346304Y-129450771D02*
X71441542Y-129403152D01*
X71441542Y-129403152D02*
X71632018Y-129403152D01*
X71632018Y-129403152D02*
X71727256Y-129450771D01*
X72584399Y-130022200D02*
X72489161Y-130069819D01*
X72489161Y-130069819D02*
X72298685Y-130069819D01*
X72298685Y-130069819D02*
X72203447Y-130022200D01*
X72203447Y-130022200D02*
X72155828Y-129926961D01*
X72155828Y-129926961D02*
X72155828Y-129546009D01*
X72155828Y-129546009D02*
X72203447Y-129450771D01*
X72203447Y-129450771D02*
X72298685Y-129403152D01*
X72298685Y-129403152D02*
X72489161Y-129403152D01*
X72489161Y-129403152D02*
X72584399Y-129450771D01*
X72584399Y-129450771D02*
X72632018Y-129546009D01*
X72632018Y-129546009D02*
X72632018Y-129641247D01*
X72632018Y-129641247D02*
X72155828Y-129736485D01*
X74393923Y-129974580D02*
X74346304Y-130022200D01*
X74346304Y-130022200D02*
X74203447Y-130069819D01*
X74203447Y-130069819D02*
X74108209Y-130069819D01*
X74108209Y-130069819D02*
X73965352Y-130022200D01*
X73965352Y-130022200D02*
X73870114Y-129926961D01*
X73870114Y-129926961D02*
X73822495Y-129831723D01*
X73822495Y-129831723D02*
X73774876Y-129641247D01*
X73774876Y-129641247D02*
X73774876Y-129498390D01*
X73774876Y-129498390D02*
X73822495Y-129307914D01*
X73822495Y-129307914D02*
X73870114Y-129212676D01*
X73870114Y-129212676D02*
X73965352Y-129117438D01*
X73965352Y-129117438D02*
X74108209Y-129069819D01*
X74108209Y-129069819D02*
X74203447Y-129069819D01*
X74203447Y-129069819D02*
X74346304Y-129117438D01*
X74346304Y-129117438D02*
X74393923Y-129165057D01*
X74965352Y-130069819D02*
X74870114Y-130022200D01*
X74870114Y-130022200D02*
X74822495Y-129974580D01*
X74822495Y-129974580D02*
X74774876Y-129879342D01*
X74774876Y-129879342D02*
X74774876Y-129593628D01*
X74774876Y-129593628D02*
X74822495Y-129498390D01*
X74822495Y-129498390D02*
X74870114Y-129450771D01*
X74870114Y-129450771D02*
X74965352Y-129403152D01*
X74965352Y-129403152D02*
X75108209Y-129403152D01*
X75108209Y-129403152D02*
X75203447Y-129450771D01*
X75203447Y-129450771D02*
X75251066Y-129498390D01*
X75251066Y-129498390D02*
X75298685Y-129593628D01*
X75298685Y-129593628D02*
X75298685Y-129879342D01*
X75298685Y-129879342D02*
X75251066Y-129974580D01*
X75251066Y-129974580D02*
X75203447Y-130022200D01*
X75203447Y-130022200D02*
X75108209Y-130069819D01*
X75108209Y-130069819D02*
X74965352Y-130069819D01*
X75727257Y-129403152D02*
X75727257Y-130069819D01*
X75727257Y-129498390D02*
X75774876Y-129450771D01*
X75774876Y-129450771D02*
X75870114Y-129403152D01*
X75870114Y-129403152D02*
X76012971Y-129403152D01*
X76012971Y-129403152D02*
X76108209Y-129450771D01*
X76108209Y-129450771D02*
X76155828Y-129546009D01*
X76155828Y-129546009D02*
X76155828Y-130069819D01*
X76489162Y-129403152D02*
X76870114Y-129403152D01*
X76632019Y-129069819D02*
X76632019Y-129926961D01*
X76632019Y-129926961D02*
X76679638Y-130022200D01*
X76679638Y-130022200D02*
X76774876Y-130069819D01*
X76774876Y-130069819D02*
X76870114Y-130069819D01*
X77203448Y-130069819D02*
X77203448Y-129403152D01*
X77203448Y-129593628D02*
X77251067Y-129498390D01*
X77251067Y-129498390D02*
X77298686Y-129450771D01*
X77298686Y-129450771D02*
X77393924Y-129403152D01*
X77393924Y-129403152D02*
X77489162Y-129403152D01*
X77965353Y-130069819D02*
X77870115Y-130022200D01*
X77870115Y-130022200D02*
X77822496Y-129974580D01*
X77822496Y-129974580D02*
X77774877Y-129879342D01*
X77774877Y-129879342D02*
X77774877Y-129593628D01*
X77774877Y-129593628D02*
X77822496Y-129498390D01*
X77822496Y-129498390D02*
X77870115Y-129450771D01*
X77870115Y-129450771D02*
X77965353Y-129403152D01*
X77965353Y-129403152D02*
X78108210Y-129403152D01*
X78108210Y-129403152D02*
X78203448Y-129450771D01*
X78203448Y-129450771D02*
X78251067Y-129498390D01*
X78251067Y-129498390D02*
X78298686Y-129593628D01*
X78298686Y-129593628D02*
X78298686Y-129879342D01*
X78298686Y-129879342D02*
X78251067Y-129974580D01*
X78251067Y-129974580D02*
X78203448Y-130022200D01*
X78203448Y-130022200D02*
X78108210Y-130069819D01*
X78108210Y-130069819D02*
X77965353Y-130069819D01*
X78870115Y-130069819D02*
X78774877Y-130022200D01*
X78774877Y-130022200D02*
X78727258Y-129926961D01*
X78727258Y-129926961D02*
X78727258Y-129069819D01*
X79393925Y-130069819D02*
X79298687Y-130022200D01*
X79298687Y-130022200D02*
X79251068Y-129926961D01*
X79251068Y-129926961D02*
X79251068Y-129069819D01*
X80155830Y-130022200D02*
X80060592Y-130069819D01*
X80060592Y-130069819D02*
X79870116Y-130069819D01*
X79870116Y-130069819D02*
X79774878Y-130022200D01*
X79774878Y-130022200D02*
X79727259Y-129926961D01*
X79727259Y-129926961D02*
X79727259Y-129546009D01*
X79727259Y-129546009D02*
X79774878Y-129450771D01*
X79774878Y-129450771D02*
X79870116Y-129403152D01*
X79870116Y-129403152D02*
X80060592Y-129403152D01*
X80060592Y-129403152D02*
X80155830Y-129450771D01*
X80155830Y-129450771D02*
X80203449Y-129546009D01*
X80203449Y-129546009D02*
X80203449Y-129641247D01*
X80203449Y-129641247D02*
X79727259Y-129736485D01*
X81060592Y-130069819D02*
X81060592Y-129069819D01*
X81060592Y-130022200D02*
X80965354Y-130069819D01*
X80965354Y-130069819D02*
X80774878Y-130069819D01*
X80774878Y-130069819D02*
X80679640Y-130022200D01*
X80679640Y-130022200D02*
X80632021Y-129974580D01*
X80632021Y-129974580D02*
X80584402Y-129879342D01*
X80584402Y-129879342D02*
X80584402Y-129593628D01*
X80584402Y-129593628D02*
X80632021Y-129498390D01*
X80632021Y-129498390D02*
X80679640Y-129450771D01*
X80679640Y-129450771D02*
X80774878Y-129403152D01*
X80774878Y-129403152D02*
X80965354Y-129403152D01*
X80965354Y-129403152D02*
X81060592Y-129450771D01*
X82251069Y-129784104D02*
X82727259Y-129784104D01*
X82155831Y-130069819D02*
X82489164Y-129069819D01*
X82489164Y-129069819D02*
X82822497Y-130069819D01*
X83155831Y-130069819D02*
X83155831Y-129403152D01*
X83155831Y-129498390D02*
X83203450Y-129450771D01*
X83203450Y-129450771D02*
X83298688Y-129403152D01*
X83298688Y-129403152D02*
X83441545Y-129403152D01*
X83441545Y-129403152D02*
X83536783Y-129450771D01*
X83536783Y-129450771D02*
X83584402Y-129546009D01*
X83584402Y-129546009D02*
X83584402Y-130069819D01*
X83584402Y-129546009D02*
X83632021Y-129450771D01*
X83632021Y-129450771D02*
X83727259Y-129403152D01*
X83727259Y-129403152D02*
X83870116Y-129403152D01*
X83870116Y-129403152D02*
X83965355Y-129450771D01*
X83965355Y-129450771D02*
X84012974Y-129546009D01*
X84012974Y-129546009D02*
X84012974Y-130069819D01*
X84489164Y-129403152D02*
X84489164Y-130403152D01*
X84489164Y-129450771D02*
X84584402Y-129403152D01*
X84584402Y-129403152D02*
X84774878Y-129403152D01*
X84774878Y-129403152D02*
X84870116Y-129450771D01*
X84870116Y-129450771D02*
X84917735Y-129498390D01*
X84917735Y-129498390D02*
X84965354Y-129593628D01*
X84965354Y-129593628D02*
X84965354Y-129879342D01*
X84965354Y-129879342D02*
X84917735Y-129974580D01*
X84917735Y-129974580D02*
X84870116Y-130022200D01*
X84870116Y-130022200D02*
X84774878Y-130069819D01*
X84774878Y-130069819D02*
X84584402Y-130069819D01*
X84584402Y-130069819D02*
X84489164Y-130022200D01*
X85536783Y-130069819D02*
X85441545Y-130022200D01*
X85441545Y-130022200D02*
X85393926Y-129926961D01*
X85393926Y-129926961D02*
X85393926Y-129069819D01*
X85917736Y-130069819D02*
X85917736Y-129403152D01*
X85917736Y-129069819D02*
X85870117Y-129117438D01*
X85870117Y-129117438D02*
X85917736Y-129165057D01*
X85917736Y-129165057D02*
X85965355Y-129117438D01*
X85965355Y-129117438D02*
X85917736Y-129069819D01*
X85917736Y-129069819D02*
X85917736Y-129165057D01*
X86251069Y-129403152D02*
X86632021Y-129403152D01*
X86393926Y-130069819D02*
X86393926Y-129212676D01*
X86393926Y-129212676D02*
X86441545Y-129117438D01*
X86441545Y-129117438D02*
X86536783Y-129069819D01*
X86536783Y-129069819D02*
X86632021Y-129069819D01*
X86965355Y-130069819D02*
X86965355Y-129403152D01*
X86965355Y-129069819D02*
X86917736Y-129117438D01*
X86917736Y-129117438D02*
X86965355Y-129165057D01*
X86965355Y-129165057D02*
X87012974Y-129117438D01*
X87012974Y-129117438D02*
X86965355Y-129069819D01*
X86965355Y-129069819D02*
X86965355Y-129165057D01*
X87822497Y-130022200D02*
X87727259Y-130069819D01*
X87727259Y-130069819D02*
X87536783Y-130069819D01*
X87536783Y-130069819D02*
X87441545Y-130022200D01*
X87441545Y-130022200D02*
X87393926Y-129926961D01*
X87393926Y-129926961D02*
X87393926Y-129546009D01*
X87393926Y-129546009D02*
X87441545Y-129450771D01*
X87441545Y-129450771D02*
X87536783Y-129403152D01*
X87536783Y-129403152D02*
X87727259Y-129403152D01*
X87727259Y-129403152D02*
X87822497Y-129450771D01*
X87822497Y-129450771D02*
X87870116Y-129546009D01*
X87870116Y-129546009D02*
X87870116Y-129641247D01*
X87870116Y-129641247D02*
X87393926Y-129736485D01*
X88298688Y-130069819D02*
X88298688Y-129403152D01*
X88298688Y-129593628D02*
X88346307Y-129498390D01*
X88346307Y-129498390D02*
X88393926Y-129450771D01*
X88393926Y-129450771D02*
X88489164Y-129403152D01*
X88489164Y-129403152D02*
X88584402Y-129403152D01*
X120527255Y-151269819D02*
X120717731Y-151269819D01*
X120717731Y-151269819D02*
X120812969Y-151317438D01*
X120812969Y-151317438D02*
X120908207Y-151412676D01*
X120908207Y-151412676D02*
X120955826Y-151603152D01*
X120955826Y-151603152D02*
X120955826Y-151936485D01*
X120955826Y-151936485D02*
X120908207Y-152126961D01*
X120908207Y-152126961D02*
X120812969Y-152222200D01*
X120812969Y-152222200D02*
X120717731Y-152269819D01*
X120717731Y-152269819D02*
X120527255Y-152269819D01*
X120527255Y-152269819D02*
X120432017Y-152222200D01*
X120432017Y-152222200D02*
X120336779Y-152126961D01*
X120336779Y-152126961D02*
X120289160Y-151936485D01*
X120289160Y-151936485D02*
X120289160Y-151603152D01*
X120289160Y-151603152D02*
X120336779Y-151412676D01*
X120336779Y-151412676D02*
X120432017Y-151317438D01*
X120432017Y-151317438D02*
X120527255Y-151269819D01*
X121384398Y-151269819D02*
X121384398Y-152079342D01*
X121384398Y-152079342D02*
X121432017Y-152174580D01*
X121432017Y-152174580D02*
X121479636Y-152222200D01*
X121479636Y-152222200D02*
X121574874Y-152269819D01*
X121574874Y-152269819D02*
X121765350Y-152269819D01*
X121765350Y-152269819D02*
X121860588Y-152222200D01*
X121860588Y-152222200D02*
X121908207Y-152174580D01*
X121908207Y-152174580D02*
X121955826Y-152079342D01*
X121955826Y-152079342D02*
X121955826Y-151269819D01*
X122289160Y-151269819D02*
X122860588Y-151269819D01*
X122574874Y-152269819D02*
X122574874Y-151269819D01*
X123193922Y-152269819D02*
X123193922Y-151269819D01*
X123193922Y-151269819D02*
X123574874Y-151269819D01*
X123574874Y-151269819D02*
X123670112Y-151317438D01*
X123670112Y-151317438D02*
X123717731Y-151365057D01*
X123717731Y-151365057D02*
X123765350Y-151460295D01*
X123765350Y-151460295D02*
X123765350Y-151603152D01*
X123765350Y-151603152D02*
X123717731Y-151698390D01*
X123717731Y-151698390D02*
X123670112Y-151746009D01*
X123670112Y-151746009D02*
X123574874Y-151793628D01*
X123574874Y-151793628D02*
X123193922Y-151793628D01*
X124193922Y-151269819D02*
X124193922Y-152079342D01*
X124193922Y-152079342D02*
X124241541Y-152174580D01*
X124241541Y-152174580D02*
X124289160Y-152222200D01*
X124289160Y-152222200D02*
X124384398Y-152269819D01*
X124384398Y-152269819D02*
X124574874Y-152269819D01*
X124574874Y-152269819D02*
X124670112Y-152222200D01*
X124670112Y-152222200D02*
X124717731Y-152174580D01*
X124717731Y-152174580D02*
X124765350Y-152079342D01*
X124765350Y-152079342D02*
X124765350Y-151269819D01*
X125098684Y-151269819D02*
X125670112Y-151269819D01*
X125384398Y-152269819D02*
X125384398Y-151269819D01*
X125765351Y-152365057D02*
X126527255Y-152365057D01*
X126717732Y-151365057D02*
X126765351Y-151317438D01*
X126765351Y-151317438D02*
X126860589Y-151269819D01*
X126860589Y-151269819D02*
X127098684Y-151269819D01*
X127098684Y-151269819D02*
X127193922Y-151317438D01*
X127193922Y-151317438D02*
X127241541Y-151365057D01*
X127241541Y-151365057D02*
X127289160Y-151460295D01*
X127289160Y-151460295D02*
X127289160Y-151555533D01*
X127289160Y-151555533D02*
X127241541Y-151698390D01*
X127241541Y-151698390D02*
X126670113Y-152269819D01*
X126670113Y-152269819D02*
X127289160Y-152269819D01*
X81736779Y-67288866D02*
X82498684Y-67288866D01*
X83498683Y-67669819D02*
X82927255Y-67669819D01*
X83212969Y-67669819D02*
X83212969Y-66669819D01*
X83212969Y-66669819D02*
X83117731Y-66812676D01*
X83117731Y-66812676D02*
X83022493Y-66907914D01*
X83022493Y-66907914D02*
X82927255Y-66955533D01*
X83879636Y-66765057D02*
X83927255Y-66717438D01*
X83927255Y-66717438D02*
X84022493Y-66669819D01*
X84022493Y-66669819D02*
X84260588Y-66669819D01*
X84260588Y-66669819D02*
X84355826Y-66717438D01*
X84355826Y-66717438D02*
X84403445Y-66765057D01*
X84403445Y-66765057D02*
X84451064Y-66860295D01*
X84451064Y-66860295D02*
X84451064Y-66955533D01*
X84451064Y-66955533D02*
X84403445Y-67098390D01*
X84403445Y-67098390D02*
X83832017Y-67669819D01*
X83832017Y-67669819D02*
X84451064Y-67669819D01*
X84736779Y-66669819D02*
X85070112Y-67669819D01*
X85070112Y-67669819D02*
X85403445Y-66669819D01*
X108993922Y-90069819D02*
X109327255Y-91069819D01*
X109327255Y-91069819D02*
X109660588Y-90069819D01*
X110184398Y-90069819D02*
X110374874Y-90069819D01*
X110374874Y-90069819D02*
X110470112Y-90117438D01*
X110470112Y-90117438D02*
X110565350Y-90212676D01*
X110565350Y-90212676D02*
X110612969Y-90403152D01*
X110612969Y-90403152D02*
X110612969Y-90736485D01*
X110612969Y-90736485D02*
X110565350Y-90926961D01*
X110565350Y-90926961D02*
X110470112Y-91022200D01*
X110470112Y-91022200D02*
X110374874Y-91069819D01*
X110374874Y-91069819D02*
X110184398Y-91069819D01*
X110184398Y-91069819D02*
X110089160Y-91022200D01*
X110089160Y-91022200D02*
X109993922Y-90926961D01*
X109993922Y-90926961D02*
X109946303Y-90736485D01*
X109946303Y-90736485D02*
X109946303Y-90403152D01*
X109946303Y-90403152D02*
X109993922Y-90212676D01*
X109993922Y-90212676D02*
X110089160Y-90117438D01*
X110089160Y-90117438D02*
X110184398Y-90069819D01*
X111517731Y-91069819D02*
X111041541Y-91069819D01*
X111041541Y-91069819D02*
X111041541Y-90069819D01*
X111612970Y-91165057D02*
X112374874Y-91165057D01*
X113136779Y-91069819D02*
X112565351Y-91069819D01*
X112851065Y-91069819D02*
X112851065Y-90069819D01*
X112851065Y-90069819D02*
X112755827Y-90212676D01*
X112755827Y-90212676D02*
X112660589Y-90307914D01*
X112660589Y-90307914D02*
X112565351Y-90355533D01*
X96136779Y-73869819D02*
X96136779Y-72869819D01*
X96612969Y-73869819D02*
X96612969Y-72869819D01*
X96612969Y-72869819D02*
X97184397Y-73869819D01*
X97184397Y-73869819D02*
X97184397Y-72869819D01*
X97660588Y-73869819D02*
X97660588Y-72869819D01*
X97660588Y-72869819D02*
X98041540Y-72869819D01*
X98041540Y-72869819D02*
X98136778Y-72917438D01*
X98136778Y-72917438D02*
X98184397Y-72965057D01*
X98184397Y-72965057D02*
X98232016Y-73060295D01*
X98232016Y-73060295D02*
X98232016Y-73203152D01*
X98232016Y-73203152D02*
X98184397Y-73298390D01*
X98184397Y-73298390D02*
X98136778Y-73346009D01*
X98136778Y-73346009D02*
X98041540Y-73393628D01*
X98041540Y-73393628D02*
X97660588Y-73393628D01*
X98660588Y-72869819D02*
X98660588Y-73679342D01*
X98660588Y-73679342D02*
X98708207Y-73774580D01*
X98708207Y-73774580D02*
X98755826Y-73822200D01*
X98755826Y-73822200D02*
X98851064Y-73869819D01*
X98851064Y-73869819D02*
X99041540Y-73869819D01*
X99041540Y-73869819D02*
X99136778Y-73822200D01*
X99136778Y-73822200D02*
X99184397Y-73774580D01*
X99184397Y-73774580D02*
X99232016Y-73679342D01*
X99232016Y-73679342D02*
X99232016Y-72869819D01*
X99565350Y-72869819D02*
X100136778Y-72869819D01*
X99851064Y-73869819D02*
X99851064Y-72869819D01*
X100232017Y-73965057D02*
X100993921Y-73965057D01*
X101755826Y-73869819D02*
X101184398Y-73869819D01*
X101470112Y-73869819D02*
X101470112Y-72869819D01*
X101470112Y-72869819D02*
X101374874Y-73012676D01*
X101374874Y-73012676D02*
X101279636Y-73107914D01*
X101279636Y-73107914D02*
X101184398Y-73155533D01*
X108993922Y-133069819D02*
X109327255Y-134069819D01*
X109327255Y-134069819D02*
X109660588Y-133069819D01*
X110184398Y-133069819D02*
X110374874Y-133069819D01*
X110374874Y-133069819D02*
X110470112Y-133117438D01*
X110470112Y-133117438D02*
X110565350Y-133212676D01*
X110565350Y-133212676D02*
X110612969Y-133403152D01*
X110612969Y-133403152D02*
X110612969Y-133736485D01*
X110612969Y-133736485D02*
X110565350Y-133926961D01*
X110565350Y-133926961D02*
X110470112Y-134022200D01*
X110470112Y-134022200D02*
X110374874Y-134069819D01*
X110374874Y-134069819D02*
X110184398Y-134069819D01*
X110184398Y-134069819D02*
X110089160Y-134022200D01*
X110089160Y-134022200D02*
X109993922Y-133926961D01*
X109993922Y-133926961D02*
X109946303Y-133736485D01*
X109946303Y-133736485D02*
X109946303Y-133403152D01*
X109946303Y-133403152D02*
X109993922Y-133212676D01*
X109993922Y-133212676D02*
X110089160Y-133117438D01*
X110089160Y-133117438D02*
X110184398Y-133069819D01*
X111517731Y-134069819D02*
X111041541Y-134069819D01*
X111041541Y-134069819D02*
X111041541Y-133069819D01*
X111612970Y-134165057D02*
X112374874Y-134165057D01*
X112565351Y-133165057D02*
X112612970Y-133117438D01*
X112612970Y-133117438D02*
X112708208Y-133069819D01*
X112708208Y-133069819D02*
X112946303Y-133069819D01*
X112946303Y-133069819D02*
X113041541Y-133117438D01*
X113041541Y-133117438D02*
X113089160Y-133165057D01*
X113089160Y-133165057D02*
X113136779Y-133260295D01*
X113136779Y-133260295D02*
X113136779Y-133355533D01*
X113136779Y-133355533D02*
X113089160Y-133498390D01*
X113089160Y-133498390D02*
X112517732Y-134069819D01*
X112517732Y-134069819D02*
X113136779Y-134069819D01*
X110108207Y-73574580D02*
X110060588Y-73622200D01*
X110060588Y-73622200D02*
X109917731Y-73669819D01*
X109917731Y-73669819D02*
X109822493Y-73669819D01*
X109822493Y-73669819D02*
X109679636Y-73622200D01*
X109679636Y-73622200D02*
X109584398Y-73526961D01*
X109584398Y-73526961D02*
X109536779Y-73431723D01*
X109536779Y-73431723D02*
X109489160Y-73241247D01*
X109489160Y-73241247D02*
X109489160Y-73098390D01*
X109489160Y-73098390D02*
X109536779Y-72907914D01*
X109536779Y-72907914D02*
X109584398Y-72812676D01*
X109584398Y-72812676D02*
X109679636Y-72717438D01*
X109679636Y-72717438D02*
X109822493Y-72669819D01*
X109822493Y-72669819D02*
X109917731Y-72669819D01*
X109917731Y-72669819D02*
X110060588Y-72717438D01*
X110060588Y-72717438D02*
X110108207Y-72765057D01*
X110393922Y-72669819D02*
X110727255Y-73669819D01*
X110727255Y-73669819D02*
X111060588Y-72669819D01*
X111155827Y-73765057D02*
X111917731Y-73765057D01*
X112679636Y-73669819D02*
X112108208Y-73669819D01*
X112393922Y-73669819D02*
X112393922Y-72669819D01*
X112393922Y-72669819D02*
X112298684Y-72812676D01*
X112298684Y-72812676D02*
X112203446Y-72907914D01*
X112203446Y-72907914D02*
X112108208Y-72955533D01*
X66812969Y-150969819D02*
X66336779Y-150969819D01*
X66336779Y-150969819D02*
X66336779Y-149969819D01*
X67527255Y-150922200D02*
X67432017Y-150969819D01*
X67432017Y-150969819D02*
X67241541Y-150969819D01*
X67241541Y-150969819D02*
X67146303Y-150922200D01*
X67146303Y-150922200D02*
X67098684Y-150826961D01*
X67098684Y-150826961D02*
X67098684Y-150446009D01*
X67098684Y-150446009D02*
X67146303Y-150350771D01*
X67146303Y-150350771D02*
X67241541Y-150303152D01*
X67241541Y-150303152D02*
X67432017Y-150303152D01*
X67432017Y-150303152D02*
X67527255Y-150350771D01*
X67527255Y-150350771D02*
X67574874Y-150446009D01*
X67574874Y-150446009D02*
X67574874Y-150541247D01*
X67574874Y-150541247D02*
X67098684Y-150636485D01*
X68003446Y-150303152D02*
X68003446Y-150969819D01*
X68003446Y-150398390D02*
X68051065Y-150350771D01*
X68051065Y-150350771D02*
X68146303Y-150303152D01*
X68146303Y-150303152D02*
X68289160Y-150303152D01*
X68289160Y-150303152D02*
X68384398Y-150350771D01*
X68384398Y-150350771D02*
X68432017Y-150446009D01*
X68432017Y-150446009D02*
X68432017Y-150969819D01*
X68908208Y-150969819D02*
X68908208Y-150303152D01*
X68908208Y-149969819D02*
X68860589Y-150017438D01*
X68860589Y-150017438D02*
X68908208Y-150065057D01*
X68908208Y-150065057D02*
X68955827Y-150017438D01*
X68955827Y-150017438D02*
X68908208Y-149969819D01*
X68908208Y-149969819D02*
X68908208Y-150065057D01*
X69384398Y-150969819D02*
X69384398Y-150303152D01*
X69384398Y-150398390D02*
X69432017Y-150350771D01*
X69432017Y-150350771D02*
X69527255Y-150303152D01*
X69527255Y-150303152D02*
X69670112Y-150303152D01*
X69670112Y-150303152D02*
X69765350Y-150350771D01*
X69765350Y-150350771D02*
X69812969Y-150446009D01*
X69812969Y-150446009D02*
X69812969Y-150969819D01*
X69812969Y-150446009D02*
X69860588Y-150350771D01*
X69860588Y-150350771D02*
X69955826Y-150303152D01*
X69955826Y-150303152D02*
X70098683Y-150303152D01*
X70098683Y-150303152D02*
X70193922Y-150350771D01*
X70193922Y-150350771D02*
X70241541Y-150446009D01*
X70241541Y-150446009D02*
X70241541Y-150969819D01*
X71146302Y-150969819D02*
X71146302Y-150446009D01*
X71146302Y-150446009D02*
X71098683Y-150350771D01*
X71098683Y-150350771D02*
X71003445Y-150303152D01*
X71003445Y-150303152D02*
X70812969Y-150303152D01*
X70812969Y-150303152D02*
X70717731Y-150350771D01*
X71146302Y-150922200D02*
X71051064Y-150969819D01*
X71051064Y-150969819D02*
X70812969Y-150969819D01*
X70812969Y-150969819D02*
X70717731Y-150922200D01*
X70717731Y-150922200D02*
X70670112Y-150826961D01*
X70670112Y-150826961D02*
X70670112Y-150731723D01*
X70670112Y-150731723D02*
X70717731Y-150636485D01*
X70717731Y-150636485D02*
X70812969Y-150588866D01*
X70812969Y-150588866D02*
X71051064Y-150588866D01*
X71051064Y-150588866D02*
X71146302Y-150541247D01*
X71765350Y-150969819D02*
X71670112Y-150922200D01*
X71670112Y-150922200D02*
X71622493Y-150826961D01*
X71622493Y-150826961D02*
X71622493Y-149969819D01*
X72908208Y-150969819D02*
X72908208Y-149969819D01*
X72908208Y-149969819D02*
X73289160Y-149969819D01*
X73289160Y-149969819D02*
X73384398Y-150017438D01*
X73384398Y-150017438D02*
X73432017Y-150065057D01*
X73432017Y-150065057D02*
X73479636Y-150160295D01*
X73479636Y-150160295D02*
X73479636Y-150303152D01*
X73479636Y-150303152D02*
X73432017Y-150398390D01*
X73432017Y-150398390D02*
X73384398Y-150446009D01*
X73384398Y-150446009D02*
X73289160Y-150493628D01*
X73289160Y-150493628D02*
X72908208Y-150493628D01*
X74479636Y-150874580D02*
X74432017Y-150922200D01*
X74432017Y-150922200D02*
X74289160Y-150969819D01*
X74289160Y-150969819D02*
X74193922Y-150969819D01*
X74193922Y-150969819D02*
X74051065Y-150922200D01*
X74051065Y-150922200D02*
X73955827Y-150826961D01*
X73955827Y-150826961D02*
X73908208Y-150731723D01*
X73908208Y-150731723D02*
X73860589Y-150541247D01*
X73860589Y-150541247D02*
X73860589Y-150398390D01*
X73860589Y-150398390D02*
X73908208Y-150207914D01*
X73908208Y-150207914D02*
X73955827Y-150112676D01*
X73955827Y-150112676D02*
X74051065Y-150017438D01*
X74051065Y-150017438D02*
X74193922Y-149969819D01*
X74193922Y-149969819D02*
X74289160Y-149969819D01*
X74289160Y-149969819D02*
X74432017Y-150017438D01*
X74432017Y-150017438D02*
X74479636Y-150065057D01*
X75241541Y-150446009D02*
X75384398Y-150493628D01*
X75384398Y-150493628D02*
X75432017Y-150541247D01*
X75432017Y-150541247D02*
X75479636Y-150636485D01*
X75479636Y-150636485D02*
X75479636Y-150779342D01*
X75479636Y-150779342D02*
X75432017Y-150874580D01*
X75432017Y-150874580D02*
X75384398Y-150922200D01*
X75384398Y-150922200D02*
X75289160Y-150969819D01*
X75289160Y-150969819D02*
X74908208Y-150969819D01*
X74908208Y-150969819D02*
X74908208Y-149969819D01*
X74908208Y-149969819D02*
X75241541Y-149969819D01*
X75241541Y-149969819D02*
X75336779Y-150017438D01*
X75336779Y-150017438D02*
X75384398Y-150065057D01*
X75384398Y-150065057D02*
X75432017Y-150160295D01*
X75432017Y-150160295D02*
X75432017Y-150255533D01*
X75432017Y-150255533D02*
X75384398Y-150350771D01*
X75384398Y-150350771D02*
X75336779Y-150398390D01*
X75336779Y-150398390D02*
X75241541Y-150446009D01*
X75241541Y-150446009D02*
X74908208Y-150446009D01*
X76670113Y-150969819D02*
X76670113Y-149969819D01*
X76670113Y-149969819D02*
X76908208Y-149969819D01*
X76908208Y-149969819D02*
X77051065Y-150017438D01*
X77051065Y-150017438D02*
X77146303Y-150112676D01*
X77146303Y-150112676D02*
X77193922Y-150207914D01*
X77193922Y-150207914D02*
X77241541Y-150398390D01*
X77241541Y-150398390D02*
X77241541Y-150541247D01*
X77241541Y-150541247D02*
X77193922Y-150731723D01*
X77193922Y-150731723D02*
X77146303Y-150826961D01*
X77146303Y-150826961D02*
X77051065Y-150922200D01*
X77051065Y-150922200D02*
X76908208Y-150969819D01*
X76908208Y-150969819D02*
X76670113Y-150969819D01*
X78051065Y-150922200D02*
X77955827Y-150969819D01*
X77955827Y-150969819D02*
X77765351Y-150969819D01*
X77765351Y-150969819D02*
X77670113Y-150922200D01*
X77670113Y-150922200D02*
X77622494Y-150826961D01*
X77622494Y-150826961D02*
X77622494Y-150446009D01*
X77622494Y-150446009D02*
X77670113Y-150350771D01*
X77670113Y-150350771D02*
X77765351Y-150303152D01*
X77765351Y-150303152D02*
X77955827Y-150303152D01*
X77955827Y-150303152D02*
X78051065Y-150350771D01*
X78051065Y-150350771D02*
X78098684Y-150446009D01*
X78098684Y-150446009D02*
X78098684Y-150541247D01*
X78098684Y-150541247D02*
X77622494Y-150636485D01*
X78479637Y-150922200D02*
X78574875Y-150969819D01*
X78574875Y-150969819D02*
X78765351Y-150969819D01*
X78765351Y-150969819D02*
X78860589Y-150922200D01*
X78860589Y-150922200D02*
X78908208Y-150826961D01*
X78908208Y-150826961D02*
X78908208Y-150779342D01*
X78908208Y-150779342D02*
X78860589Y-150684104D01*
X78860589Y-150684104D02*
X78765351Y-150636485D01*
X78765351Y-150636485D02*
X78622494Y-150636485D01*
X78622494Y-150636485D02*
X78527256Y-150588866D01*
X78527256Y-150588866D02*
X78479637Y-150493628D01*
X78479637Y-150493628D02*
X78479637Y-150446009D01*
X78479637Y-150446009D02*
X78527256Y-150350771D01*
X78527256Y-150350771D02*
X78622494Y-150303152D01*
X78622494Y-150303152D02*
X78765351Y-150303152D01*
X78765351Y-150303152D02*
X78860589Y-150350771D01*
X79336780Y-150969819D02*
X79336780Y-150303152D01*
X79336780Y-149969819D02*
X79289161Y-150017438D01*
X79289161Y-150017438D02*
X79336780Y-150065057D01*
X79336780Y-150065057D02*
X79384399Y-150017438D01*
X79384399Y-150017438D02*
X79336780Y-149969819D01*
X79336780Y-149969819D02*
X79336780Y-150065057D01*
X80241541Y-150303152D02*
X80241541Y-151112676D01*
X80241541Y-151112676D02*
X80193922Y-151207914D01*
X80193922Y-151207914D02*
X80146303Y-151255533D01*
X80146303Y-151255533D02*
X80051065Y-151303152D01*
X80051065Y-151303152D02*
X79908208Y-151303152D01*
X79908208Y-151303152D02*
X79812970Y-151255533D01*
X80241541Y-150922200D02*
X80146303Y-150969819D01*
X80146303Y-150969819D02*
X79955827Y-150969819D01*
X79955827Y-150969819D02*
X79860589Y-150922200D01*
X79860589Y-150922200D02*
X79812970Y-150874580D01*
X79812970Y-150874580D02*
X79765351Y-150779342D01*
X79765351Y-150779342D02*
X79765351Y-150493628D01*
X79765351Y-150493628D02*
X79812970Y-150398390D01*
X79812970Y-150398390D02*
X79860589Y-150350771D01*
X79860589Y-150350771D02*
X79955827Y-150303152D01*
X79955827Y-150303152D02*
X80146303Y-150303152D01*
X80146303Y-150303152D02*
X80241541Y-150350771D01*
X80717732Y-150303152D02*
X80717732Y-150969819D01*
X80717732Y-150398390D02*
X80765351Y-150350771D01*
X80765351Y-150350771D02*
X80860589Y-150303152D01*
X80860589Y-150303152D02*
X81003446Y-150303152D01*
X81003446Y-150303152D02*
X81098684Y-150350771D01*
X81098684Y-150350771D02*
X81146303Y-150446009D01*
X81146303Y-150446009D02*
X81146303Y-150969819D01*
X82574875Y-149969819D02*
X82670113Y-149969819D01*
X82670113Y-149969819D02*
X82765351Y-150017438D01*
X82765351Y-150017438D02*
X82812970Y-150065057D01*
X82812970Y-150065057D02*
X82860589Y-150160295D01*
X82860589Y-150160295D02*
X82908208Y-150350771D01*
X82908208Y-150350771D02*
X82908208Y-150588866D01*
X82908208Y-150588866D02*
X82860589Y-150779342D01*
X82860589Y-150779342D02*
X82812970Y-150874580D01*
X82812970Y-150874580D02*
X82765351Y-150922200D01*
X82765351Y-150922200D02*
X82670113Y-150969819D01*
X82670113Y-150969819D02*
X82574875Y-150969819D01*
X82574875Y-150969819D02*
X82479637Y-150922200D01*
X82479637Y-150922200D02*
X82432018Y-150874580D01*
X82432018Y-150874580D02*
X82384399Y-150779342D01*
X82384399Y-150779342D02*
X82336780Y-150588866D01*
X82336780Y-150588866D02*
X82336780Y-150350771D01*
X82336780Y-150350771D02*
X82384399Y-150160295D01*
X82384399Y-150160295D02*
X82432018Y-150065057D01*
X82432018Y-150065057D02*
X82479637Y-150017438D01*
X82479637Y-150017438D02*
X82574875Y-149969819D01*
X83765351Y-150303152D02*
X83765351Y-150969819D01*
X83527256Y-149922200D02*
X83289161Y-150636485D01*
X83289161Y-150636485D02*
X83908208Y-150636485D01*
X84289161Y-150874580D02*
X84336780Y-150922200D01*
X84336780Y-150922200D02*
X84289161Y-150969819D01*
X84289161Y-150969819D02*
X84241542Y-150922200D01*
X84241542Y-150922200D02*
X84289161Y-150874580D01*
X84289161Y-150874580D02*
X84289161Y-150969819D01*
X84717732Y-150065057D02*
X84765351Y-150017438D01*
X84765351Y-150017438D02*
X84860589Y-149969819D01*
X84860589Y-149969819D02*
X85098684Y-149969819D01*
X85098684Y-149969819D02*
X85193922Y-150017438D01*
X85193922Y-150017438D02*
X85241541Y-150065057D01*
X85241541Y-150065057D02*
X85289160Y-150160295D01*
X85289160Y-150160295D02*
X85289160Y-150255533D01*
X85289160Y-150255533D02*
X85241541Y-150398390D01*
X85241541Y-150398390D02*
X84670113Y-150969819D01*
X84670113Y-150969819D02*
X85289160Y-150969819D01*
X85908208Y-149969819D02*
X86003446Y-149969819D01*
X86003446Y-149969819D02*
X86098684Y-150017438D01*
X86098684Y-150017438D02*
X86146303Y-150065057D01*
X86146303Y-150065057D02*
X86193922Y-150160295D01*
X86193922Y-150160295D02*
X86241541Y-150350771D01*
X86241541Y-150350771D02*
X86241541Y-150588866D01*
X86241541Y-150588866D02*
X86193922Y-150779342D01*
X86193922Y-150779342D02*
X86146303Y-150874580D01*
X86146303Y-150874580D02*
X86098684Y-150922200D01*
X86098684Y-150922200D02*
X86003446Y-150969819D01*
X86003446Y-150969819D02*
X85908208Y-150969819D01*
X85908208Y-150969819D02*
X85812970Y-150922200D01*
X85812970Y-150922200D02*
X85765351Y-150874580D01*
X85765351Y-150874580D02*
X85717732Y-150779342D01*
X85717732Y-150779342D02*
X85670113Y-150588866D01*
X85670113Y-150588866D02*
X85670113Y-150350771D01*
X85670113Y-150350771D02*
X85717732Y-150160295D01*
X85717732Y-150160295D02*
X85765351Y-150065057D01*
X85765351Y-150065057D02*
X85812970Y-150017438D01*
X85812970Y-150017438D02*
X85908208Y-149969819D01*
X86622494Y-150065057D02*
X86670113Y-150017438D01*
X86670113Y-150017438D02*
X86765351Y-149969819D01*
X86765351Y-149969819D02*
X87003446Y-149969819D01*
X87003446Y-149969819D02*
X87098684Y-150017438D01*
X87098684Y-150017438D02*
X87146303Y-150065057D01*
X87146303Y-150065057D02*
X87193922Y-150160295D01*
X87193922Y-150160295D02*
X87193922Y-150255533D01*
X87193922Y-150255533D02*
X87146303Y-150398390D01*
X87146303Y-150398390D02*
X86574875Y-150969819D01*
X86574875Y-150969819D02*
X87193922Y-150969819D01*
X88051065Y-150303152D02*
X88051065Y-150969819D01*
X87812970Y-149922200D02*
X87574875Y-150636485D01*
X87574875Y-150636485D02*
X88193922Y-150636485D01*
X57651064Y-128342200D02*
X58365350Y-128580295D01*
X58365350Y-128580295D02*
X59555826Y-128580295D01*
X59555826Y-128580295D02*
X60032017Y-128342200D01*
X60032017Y-128342200D02*
X60270112Y-128104104D01*
X60270112Y-128104104D02*
X60508207Y-127627914D01*
X60508207Y-127627914D02*
X60508207Y-127151723D01*
X60508207Y-127151723D02*
X60270112Y-126675533D01*
X60270112Y-126675533D02*
X60032017Y-126437438D01*
X60032017Y-126437438D02*
X59555826Y-126199342D01*
X59555826Y-126199342D02*
X58603445Y-125961247D01*
X58603445Y-125961247D02*
X58127255Y-125723152D01*
X58127255Y-125723152D02*
X57889160Y-125485057D01*
X57889160Y-125485057D02*
X57651064Y-125008866D01*
X57651064Y-125008866D02*
X57651064Y-124532676D01*
X57651064Y-124532676D02*
X57889160Y-124056485D01*
X57889160Y-124056485D02*
X58127255Y-123818390D01*
X58127255Y-123818390D02*
X58603445Y-123580295D01*
X58603445Y-123580295D02*
X59793922Y-123580295D01*
X59793922Y-123580295D02*
X60508207Y-123818390D01*
X62651065Y-128580295D02*
X62651065Y-123580295D01*
X62651065Y-123580295D02*
X64555827Y-123580295D01*
X64555827Y-123580295D02*
X65032017Y-123818390D01*
X65032017Y-123818390D02*
X65270112Y-124056485D01*
X65270112Y-124056485D02*
X65508208Y-124532676D01*
X65508208Y-124532676D02*
X65508208Y-125246961D01*
X65508208Y-125246961D02*
X65270112Y-125723152D01*
X65270112Y-125723152D02*
X65032017Y-125961247D01*
X65032017Y-125961247D02*
X64555827Y-126199342D01*
X64555827Y-126199342D02*
X62651065Y-126199342D01*
X67412969Y-127151723D02*
X69793922Y-127151723D01*
X66936779Y-128580295D02*
X68603446Y-123580295D01*
X68603446Y-123580295D02*
X70270112Y-128580295D01*
X74793922Y-128580295D02*
X73127255Y-126199342D01*
X71936779Y-128580295D02*
X71936779Y-123580295D01*
X71936779Y-123580295D02*
X73841541Y-123580295D01*
X73841541Y-123580295D02*
X74317731Y-123818390D01*
X74317731Y-123818390D02*
X74555826Y-124056485D01*
X74555826Y-124056485D02*
X74793922Y-124532676D01*
X74793922Y-124532676D02*
X74793922Y-125246961D01*
X74793922Y-125246961D02*
X74555826Y-125723152D01*
X74555826Y-125723152D02*
X74317731Y-125961247D01*
X74317731Y-125961247D02*
X73841541Y-126199342D01*
X73841541Y-126199342D02*
X71936779Y-126199342D01*
X76936779Y-128580295D02*
X76936779Y-123580295D01*
X79793922Y-128580295D02*
X77651064Y-125723152D01*
X79793922Y-123580295D02*
X76936779Y-126437438D01*
X84317731Y-128580295D02*
X81936779Y-128580295D01*
X81936779Y-128580295D02*
X81936779Y-123580295D01*
X85984398Y-125961247D02*
X87651064Y-125961247D01*
X88365350Y-128580295D02*
X85984398Y-128580295D01*
X85984398Y-128580295D02*
X85984398Y-123580295D01*
X85984398Y-123580295D02*
X88365350Y-123580295D01*
X106422493Y-84469819D02*
X106422493Y-85184104D01*
X106422493Y-85184104D02*
X106374874Y-85326961D01*
X106374874Y-85326961D02*
X106279636Y-85422200D01*
X106279636Y-85422200D02*
X106136779Y-85469819D01*
X106136779Y-85469819D02*
X106041541Y-85469819D01*
X107374874Y-85469819D02*
X106898684Y-85469819D01*
X106898684Y-85469819D02*
X106898684Y-84469819D01*
X108279636Y-85374580D02*
X108232017Y-85422200D01*
X108232017Y-85422200D02*
X108089160Y-85469819D01*
X108089160Y-85469819D02*
X107993922Y-85469819D01*
X107993922Y-85469819D02*
X107851065Y-85422200D01*
X107851065Y-85422200D02*
X107755827Y-85326961D01*
X107755827Y-85326961D02*
X107708208Y-85231723D01*
X107708208Y-85231723D02*
X107660589Y-85041247D01*
X107660589Y-85041247D02*
X107660589Y-84898390D01*
X107660589Y-84898390D02*
X107708208Y-84707914D01*
X107708208Y-84707914D02*
X107755827Y-84612676D01*
X107755827Y-84612676D02*
X107851065Y-84517438D01*
X107851065Y-84517438D02*
X107993922Y-84469819D01*
X107993922Y-84469819D02*
X108089160Y-84469819D01*
X108089160Y-84469819D02*
X108232017Y-84517438D01*
X108232017Y-84517438D02*
X108279636Y-84565057D01*
X108993922Y-84469819D02*
X108993922Y-85184104D01*
X108993922Y-85184104D02*
X108946303Y-85326961D01*
X108946303Y-85326961D02*
X108851065Y-85422200D01*
X108851065Y-85422200D02*
X108708208Y-85469819D01*
X108708208Y-85469819D02*
X108612970Y-85469819D01*
X109946303Y-85469819D02*
X109470113Y-85469819D01*
X109470113Y-85469819D02*
X109470113Y-84469819D01*
X110851065Y-85374580D02*
X110803446Y-85422200D01*
X110803446Y-85422200D02*
X110660589Y-85469819D01*
X110660589Y-85469819D02*
X110565351Y-85469819D01*
X110565351Y-85469819D02*
X110422494Y-85422200D01*
X110422494Y-85422200D02*
X110327256Y-85326961D01*
X110327256Y-85326961D02*
X110279637Y-85231723D01*
X110279637Y-85231723D02*
X110232018Y-85041247D01*
X110232018Y-85041247D02*
X110232018Y-84898390D01*
X110232018Y-84898390D02*
X110279637Y-84707914D01*
X110279637Y-84707914D02*
X110327256Y-84612676D01*
X110327256Y-84612676D02*
X110422494Y-84517438D01*
X110422494Y-84517438D02*
X110565351Y-84469819D01*
X110565351Y-84469819D02*
X110660589Y-84469819D01*
X110660589Y-84469819D02*
X110803446Y-84517438D01*
X110803446Y-84517438D02*
X110851065Y-84565057D01*
X111565351Y-84469819D02*
X111565351Y-85184104D01*
X111565351Y-85184104D02*
X111517732Y-85326961D01*
X111517732Y-85326961D02*
X111422494Y-85422200D01*
X111422494Y-85422200D02*
X111279637Y-85469819D01*
X111279637Y-85469819D02*
X111184399Y-85469819D01*
X112517732Y-85469819D02*
X112041542Y-85469819D01*
X112041542Y-85469819D02*
X112041542Y-84469819D01*
X113422494Y-85374580D02*
X113374875Y-85422200D01*
X113374875Y-85422200D02*
X113232018Y-85469819D01*
X113232018Y-85469819D02*
X113136780Y-85469819D01*
X113136780Y-85469819D02*
X112993923Y-85422200D01*
X112993923Y-85422200D02*
X112898685Y-85326961D01*
X112898685Y-85326961D02*
X112851066Y-85231723D01*
X112851066Y-85231723D02*
X112803447Y-85041247D01*
X112803447Y-85041247D02*
X112803447Y-84898390D01*
X112803447Y-84898390D02*
X112851066Y-84707914D01*
X112851066Y-84707914D02*
X112898685Y-84612676D01*
X112898685Y-84612676D02*
X112993923Y-84517438D01*
X112993923Y-84517438D02*
X113136780Y-84469819D01*
X113136780Y-84469819D02*
X113232018Y-84469819D01*
X113232018Y-84469819D02*
X113374875Y-84517438D01*
X113374875Y-84517438D02*
X113422494Y-84565057D01*
X114136780Y-84469819D02*
X114136780Y-85184104D01*
X114136780Y-85184104D02*
X114089161Y-85326961D01*
X114089161Y-85326961D02*
X113993923Y-85422200D01*
X113993923Y-85422200D02*
X113851066Y-85469819D01*
X113851066Y-85469819D02*
X113755828Y-85469819D01*
X115089161Y-85469819D02*
X114612971Y-85469819D01*
X114612971Y-85469819D02*
X114612971Y-84469819D01*
X115993923Y-85374580D02*
X115946304Y-85422200D01*
X115946304Y-85422200D02*
X115803447Y-85469819D01*
X115803447Y-85469819D02*
X115708209Y-85469819D01*
X115708209Y-85469819D02*
X115565352Y-85422200D01*
X115565352Y-85422200D02*
X115470114Y-85326961D01*
X115470114Y-85326961D02*
X115422495Y-85231723D01*
X115422495Y-85231723D02*
X115374876Y-85041247D01*
X115374876Y-85041247D02*
X115374876Y-84898390D01*
X115374876Y-84898390D02*
X115422495Y-84707914D01*
X115422495Y-84707914D02*
X115470114Y-84612676D01*
X115470114Y-84612676D02*
X115565352Y-84517438D01*
X115565352Y-84517438D02*
X115708209Y-84469819D01*
X115708209Y-84469819D02*
X115803447Y-84469819D01*
X115803447Y-84469819D02*
X115946304Y-84517438D01*
X115946304Y-84517438D02*
X115993923Y-84565057D01*
X81536779Y-61088866D02*
X82298684Y-61088866D01*
X81917731Y-61469819D02*
X81917731Y-60707914D01*
X83298683Y-61469819D02*
X82727255Y-61469819D01*
X83012969Y-61469819D02*
X83012969Y-60469819D01*
X83012969Y-60469819D02*
X82917731Y-60612676D01*
X82917731Y-60612676D02*
X82822493Y-60707914D01*
X82822493Y-60707914D02*
X82727255Y-60755533D01*
X83679636Y-60565057D02*
X83727255Y-60517438D01*
X83727255Y-60517438D02*
X83822493Y-60469819D01*
X83822493Y-60469819D02*
X84060588Y-60469819D01*
X84060588Y-60469819D02*
X84155826Y-60517438D01*
X84155826Y-60517438D02*
X84203445Y-60565057D01*
X84203445Y-60565057D02*
X84251064Y-60660295D01*
X84251064Y-60660295D02*
X84251064Y-60755533D01*
X84251064Y-60755533D02*
X84203445Y-60898390D01*
X84203445Y-60898390D02*
X83632017Y-61469819D01*
X83632017Y-61469819D02*
X84251064Y-61469819D01*
X84536779Y-60469819D02*
X84870112Y-61469819D01*
X84870112Y-61469819D02*
X85203445Y-60469819D01*
X120527255Y-72669819D02*
X120717731Y-72669819D01*
X120717731Y-72669819D02*
X120812969Y-72717438D01*
X120812969Y-72717438D02*
X120908207Y-72812676D01*
X120908207Y-72812676D02*
X120955826Y-73003152D01*
X120955826Y-73003152D02*
X120955826Y-73336485D01*
X120955826Y-73336485D02*
X120908207Y-73526961D01*
X120908207Y-73526961D02*
X120812969Y-73622200D01*
X120812969Y-73622200D02*
X120717731Y-73669819D01*
X120717731Y-73669819D02*
X120527255Y-73669819D01*
X120527255Y-73669819D02*
X120432017Y-73622200D01*
X120432017Y-73622200D02*
X120336779Y-73526961D01*
X120336779Y-73526961D02*
X120289160Y-73336485D01*
X120289160Y-73336485D02*
X120289160Y-73003152D01*
X120289160Y-73003152D02*
X120336779Y-72812676D01*
X120336779Y-72812676D02*
X120432017Y-72717438D01*
X120432017Y-72717438D02*
X120527255Y-72669819D01*
X121384398Y-72669819D02*
X121384398Y-73479342D01*
X121384398Y-73479342D02*
X121432017Y-73574580D01*
X121432017Y-73574580D02*
X121479636Y-73622200D01*
X121479636Y-73622200D02*
X121574874Y-73669819D01*
X121574874Y-73669819D02*
X121765350Y-73669819D01*
X121765350Y-73669819D02*
X121860588Y-73622200D01*
X121860588Y-73622200D02*
X121908207Y-73574580D01*
X121908207Y-73574580D02*
X121955826Y-73479342D01*
X121955826Y-73479342D02*
X121955826Y-72669819D01*
X122289160Y-72669819D02*
X122860588Y-72669819D01*
X122574874Y-73669819D02*
X122574874Y-72669819D01*
X123193922Y-73669819D02*
X123193922Y-72669819D01*
X123193922Y-72669819D02*
X123574874Y-72669819D01*
X123574874Y-72669819D02*
X123670112Y-72717438D01*
X123670112Y-72717438D02*
X123717731Y-72765057D01*
X123717731Y-72765057D02*
X123765350Y-72860295D01*
X123765350Y-72860295D02*
X123765350Y-73003152D01*
X123765350Y-73003152D02*
X123717731Y-73098390D01*
X123717731Y-73098390D02*
X123670112Y-73146009D01*
X123670112Y-73146009D02*
X123574874Y-73193628D01*
X123574874Y-73193628D02*
X123193922Y-73193628D01*
X124193922Y-72669819D02*
X124193922Y-73479342D01*
X124193922Y-73479342D02*
X124241541Y-73574580D01*
X124241541Y-73574580D02*
X124289160Y-73622200D01*
X124289160Y-73622200D02*
X124384398Y-73669819D01*
X124384398Y-73669819D02*
X124574874Y-73669819D01*
X124574874Y-73669819D02*
X124670112Y-73622200D01*
X124670112Y-73622200D02*
X124717731Y-73574580D01*
X124717731Y-73574580D02*
X124765350Y-73479342D01*
X124765350Y-73479342D02*
X124765350Y-72669819D01*
X125098684Y-72669819D02*
X125670112Y-72669819D01*
X125384398Y-73669819D02*
X125384398Y-72669819D01*
X125765351Y-73765057D02*
X126527255Y-73765057D01*
X127289160Y-73669819D02*
X126717732Y-73669819D01*
X127003446Y-73669819D02*
X127003446Y-72669819D01*
X127003446Y-72669819D02*
X126908208Y-72812676D01*
X126908208Y-72812676D02*
X126812970Y-72907914D01*
X126812970Y-72907914D02*
X126717732Y-72955533D01*
X104454819Y-99222857D02*
X103978628Y-99556190D01*
X104454819Y-99794285D02*
X103454819Y-99794285D01*
X103454819Y-99794285D02*
X103454819Y-99413333D01*
X103454819Y-99413333D02*
X103502438Y-99318095D01*
X103502438Y-99318095D02*
X103550057Y-99270476D01*
X103550057Y-99270476D02*
X103645295Y-99222857D01*
X103645295Y-99222857D02*
X103788152Y-99222857D01*
X103788152Y-99222857D02*
X103883390Y-99270476D01*
X103883390Y-99270476D02*
X103931009Y-99318095D01*
X103931009Y-99318095D02*
X103978628Y-99413333D01*
X103978628Y-99413333D02*
X103978628Y-99794285D01*
X104454819Y-98270476D02*
X104454819Y-98841904D01*
X104454819Y-98556190D02*
X103454819Y-98556190D01*
X103454819Y-98556190D02*
X103597676Y-98651428D01*
X103597676Y-98651428D02*
X103692914Y-98746666D01*
X103692914Y-98746666D02*
X103740533Y-98841904D01*
X104454819Y-97318095D02*
X104454819Y-97889523D01*
X104454819Y-97603809D02*
X103454819Y-97603809D01*
X103454819Y-97603809D02*
X103597676Y-97699047D01*
X103597676Y-97699047D02*
X103692914Y-97794285D01*
X103692914Y-97794285D02*
X103740533Y-97889523D01*
X129138095Y-57954819D02*
X129138095Y-56954819D01*
X129138095Y-57431009D02*
X129709523Y-57431009D01*
X129709523Y-57954819D02*
X129709523Y-56954819D01*
X130661904Y-56954819D02*
X130185714Y-56954819D01*
X130185714Y-56954819D02*
X130138095Y-57431009D01*
X130138095Y-57431009D02*
X130185714Y-57383390D01*
X130185714Y-57383390D02*
X130280952Y-57335771D01*
X130280952Y-57335771D02*
X130519047Y-57335771D01*
X130519047Y-57335771D02*
X130614285Y-57383390D01*
X130614285Y-57383390D02*
X130661904Y-57431009D01*
X130661904Y-57431009D02*
X130709523Y-57526247D01*
X130709523Y-57526247D02*
X130709523Y-57764342D01*
X130709523Y-57764342D02*
X130661904Y-57859580D01*
X130661904Y-57859580D02*
X130614285Y-57907200D01*
X130614285Y-57907200D02*
X130519047Y-57954819D01*
X130519047Y-57954819D02*
X130280952Y-57954819D01*
X130280952Y-57954819D02*
X130185714Y-57907200D01*
X130185714Y-57907200D02*
X130138095Y-57859580D01*
X58954819Y-95642857D02*
X58478628Y-95976190D01*
X58954819Y-96214285D02*
X57954819Y-96214285D01*
X57954819Y-96214285D02*
X57954819Y-95833333D01*
X57954819Y-95833333D02*
X58002438Y-95738095D01*
X58002438Y-95738095D02*
X58050057Y-95690476D01*
X58050057Y-95690476D02*
X58145295Y-95642857D01*
X58145295Y-95642857D02*
X58288152Y-95642857D01*
X58288152Y-95642857D02*
X58383390Y-95690476D01*
X58383390Y-95690476D02*
X58431009Y-95738095D01*
X58431009Y-95738095D02*
X58478628Y-95833333D01*
X58478628Y-95833333D02*
X58478628Y-96214285D01*
X58954819Y-94690476D02*
X58954819Y-95261904D01*
X58954819Y-94976190D02*
X57954819Y-94976190D01*
X57954819Y-94976190D02*
X58097676Y-95071428D01*
X58097676Y-95071428D02*
X58192914Y-95166666D01*
X58192914Y-95166666D02*
X58240533Y-95261904D01*
X58288152Y-93833333D02*
X58954819Y-93833333D01*
X57907200Y-94071428D02*
X58621485Y-94309523D01*
X58621485Y-94309523D02*
X58621485Y-93690476D01*
X86454819Y-139142857D02*
X85978628Y-139476190D01*
X86454819Y-139714285D02*
X85454819Y-139714285D01*
X85454819Y-139714285D02*
X85454819Y-139333333D01*
X85454819Y-139333333D02*
X85502438Y-139238095D01*
X85502438Y-139238095D02*
X85550057Y-139190476D01*
X85550057Y-139190476D02*
X85645295Y-139142857D01*
X85645295Y-139142857D02*
X85788152Y-139142857D01*
X85788152Y-139142857D02*
X85883390Y-139190476D01*
X85883390Y-139190476D02*
X85931009Y-139238095D01*
X85931009Y-139238095D02*
X85978628Y-139333333D01*
X85978628Y-139333333D02*
X85978628Y-139714285D01*
X85550057Y-138761904D02*
X85502438Y-138714285D01*
X85502438Y-138714285D02*
X85454819Y-138619047D01*
X85454819Y-138619047D02*
X85454819Y-138380952D01*
X85454819Y-138380952D02*
X85502438Y-138285714D01*
X85502438Y-138285714D02*
X85550057Y-138238095D01*
X85550057Y-138238095D02*
X85645295Y-138190476D01*
X85645295Y-138190476D02*
X85740533Y-138190476D01*
X85740533Y-138190476D02*
X85883390Y-138238095D01*
X85883390Y-138238095D02*
X86454819Y-138809523D01*
X86454819Y-138809523D02*
X86454819Y-138190476D01*
X85454819Y-137857142D02*
X85454819Y-137238095D01*
X85454819Y-137238095D02*
X85835771Y-137571428D01*
X85835771Y-137571428D02*
X85835771Y-137428571D01*
X85835771Y-137428571D02*
X85883390Y-137333333D01*
X85883390Y-137333333D02*
X85931009Y-137285714D01*
X85931009Y-137285714D02*
X86026247Y-137238095D01*
X86026247Y-137238095D02*
X86264342Y-137238095D01*
X86264342Y-137238095D02*
X86359580Y-137285714D01*
X86359580Y-137285714D02*
X86407200Y-137333333D01*
X86407200Y-137333333D02*
X86454819Y-137428571D01*
X86454819Y-137428571D02*
X86454819Y-137714285D01*
X86454819Y-137714285D02*
X86407200Y-137809523D01*
X86407200Y-137809523D02*
X86359580Y-137857142D01*
X113466666Y-149724819D02*
X113466666Y-150439104D01*
X113466666Y-150439104D02*
X113419047Y-150581961D01*
X113419047Y-150581961D02*
X113323809Y-150677200D01*
X113323809Y-150677200D02*
X113180952Y-150724819D01*
X113180952Y-150724819D02*
X113085714Y-150724819D01*
X114371428Y-149724819D02*
X114180952Y-149724819D01*
X114180952Y-149724819D02*
X114085714Y-149772438D01*
X114085714Y-149772438D02*
X114038095Y-149820057D01*
X114038095Y-149820057D02*
X113942857Y-149962914D01*
X113942857Y-149962914D02*
X113895238Y-150153390D01*
X113895238Y-150153390D02*
X113895238Y-150534342D01*
X113895238Y-150534342D02*
X113942857Y-150629580D01*
X113942857Y-150629580D02*
X113990476Y-150677200D01*
X113990476Y-150677200D02*
X114085714Y-150724819D01*
X114085714Y-150724819D02*
X114276190Y-150724819D01*
X114276190Y-150724819D02*
X114371428Y-150677200D01*
X114371428Y-150677200D02*
X114419047Y-150629580D01*
X114419047Y-150629580D02*
X114466666Y-150534342D01*
X114466666Y-150534342D02*
X114466666Y-150296247D01*
X114466666Y-150296247D02*
X114419047Y-150201009D01*
X114419047Y-150201009D02*
X114371428Y-150153390D01*
X114371428Y-150153390D02*
X114276190Y-150105771D01*
X114276190Y-150105771D02*
X114085714Y-150105771D01*
X114085714Y-150105771D02*
X113990476Y-150153390D01*
X113990476Y-150153390D02*
X113942857Y-150201009D01*
X113942857Y-150201009D02*
X113895238Y-150296247D01*
X76454819Y-95166666D02*
X75978628Y-95499999D01*
X76454819Y-95738094D02*
X75454819Y-95738094D01*
X75454819Y-95738094D02*
X75454819Y-95357142D01*
X75454819Y-95357142D02*
X75502438Y-95261904D01*
X75502438Y-95261904D02*
X75550057Y-95214285D01*
X75550057Y-95214285D02*
X75645295Y-95166666D01*
X75645295Y-95166666D02*
X75788152Y-95166666D01*
X75788152Y-95166666D02*
X75883390Y-95214285D01*
X75883390Y-95214285D02*
X75931009Y-95261904D01*
X75931009Y-95261904D02*
X75978628Y-95357142D01*
X75978628Y-95357142D02*
X75978628Y-95738094D01*
X75550057Y-94785713D02*
X75502438Y-94738094D01*
X75502438Y-94738094D02*
X75454819Y-94642856D01*
X75454819Y-94642856D02*
X75454819Y-94404761D01*
X75454819Y-94404761D02*
X75502438Y-94309523D01*
X75502438Y-94309523D02*
X75550057Y-94261904D01*
X75550057Y-94261904D02*
X75645295Y-94214285D01*
X75645295Y-94214285D02*
X75740533Y-94214285D01*
X75740533Y-94214285D02*
X75883390Y-94261904D01*
X75883390Y-94261904D02*
X76454819Y-94833332D01*
X76454819Y-94833332D02*
X76454819Y-94214285D01*
X79954819Y-95166666D02*
X79478628Y-95499999D01*
X79954819Y-95738094D02*
X78954819Y-95738094D01*
X78954819Y-95738094D02*
X78954819Y-95357142D01*
X78954819Y-95357142D02*
X79002438Y-95261904D01*
X79002438Y-95261904D02*
X79050057Y-95214285D01*
X79050057Y-95214285D02*
X79145295Y-95166666D01*
X79145295Y-95166666D02*
X79288152Y-95166666D01*
X79288152Y-95166666D02*
X79383390Y-95214285D01*
X79383390Y-95214285D02*
X79431009Y-95261904D01*
X79431009Y-95261904D02*
X79478628Y-95357142D01*
X79478628Y-95357142D02*
X79478628Y-95738094D01*
X79954819Y-94214285D02*
X79954819Y-94785713D01*
X79954819Y-94499999D02*
X78954819Y-94499999D01*
X78954819Y-94499999D02*
X79097676Y-94595237D01*
X79097676Y-94595237D02*
X79192914Y-94690475D01*
X79192914Y-94690475D02*
X79240533Y-94785713D01*
X72954819Y-95146666D02*
X72478628Y-95479999D01*
X72954819Y-95718094D02*
X71954819Y-95718094D01*
X71954819Y-95718094D02*
X71954819Y-95337142D01*
X71954819Y-95337142D02*
X72002438Y-95241904D01*
X72002438Y-95241904D02*
X72050057Y-95194285D01*
X72050057Y-95194285D02*
X72145295Y-95146666D01*
X72145295Y-95146666D02*
X72288152Y-95146666D01*
X72288152Y-95146666D02*
X72383390Y-95194285D01*
X72383390Y-95194285D02*
X72431009Y-95241904D01*
X72431009Y-95241904D02*
X72478628Y-95337142D01*
X72478628Y-95337142D02*
X72478628Y-95718094D01*
X72288152Y-94289523D02*
X72954819Y-94289523D01*
X71907200Y-94527618D02*
X72621485Y-94765713D01*
X72621485Y-94765713D02*
X72621485Y-94146666D01*
X79454819Y-139142857D02*
X78978628Y-139476190D01*
X79454819Y-139714285D02*
X78454819Y-139714285D01*
X78454819Y-139714285D02*
X78454819Y-139333333D01*
X78454819Y-139333333D02*
X78502438Y-139238095D01*
X78502438Y-139238095D02*
X78550057Y-139190476D01*
X78550057Y-139190476D02*
X78645295Y-139142857D01*
X78645295Y-139142857D02*
X78788152Y-139142857D01*
X78788152Y-139142857D02*
X78883390Y-139190476D01*
X78883390Y-139190476D02*
X78931009Y-139238095D01*
X78931009Y-139238095D02*
X78978628Y-139333333D01*
X78978628Y-139333333D02*
X78978628Y-139714285D01*
X79454819Y-138190476D02*
X79454819Y-138761904D01*
X79454819Y-138476190D02*
X78454819Y-138476190D01*
X78454819Y-138476190D02*
X78597676Y-138571428D01*
X78597676Y-138571428D02*
X78692914Y-138666666D01*
X78692914Y-138666666D02*
X78740533Y-138761904D01*
X78454819Y-137857142D02*
X78454819Y-137190476D01*
X78454819Y-137190476D02*
X79454819Y-137619047D01*
X107866666Y-58354819D02*
X107866666Y-59069104D01*
X107866666Y-59069104D02*
X107819047Y-59211961D01*
X107819047Y-59211961D02*
X107723809Y-59307200D01*
X107723809Y-59307200D02*
X107580952Y-59354819D01*
X107580952Y-59354819D02*
X107485714Y-59354819D01*
X108247619Y-58354819D02*
X108866666Y-58354819D01*
X108866666Y-58354819D02*
X108533333Y-58735771D01*
X108533333Y-58735771D02*
X108676190Y-58735771D01*
X108676190Y-58735771D02*
X108771428Y-58783390D01*
X108771428Y-58783390D02*
X108819047Y-58831009D01*
X108819047Y-58831009D02*
X108866666Y-58926247D01*
X108866666Y-58926247D02*
X108866666Y-59164342D01*
X108866666Y-59164342D02*
X108819047Y-59259580D01*
X108819047Y-59259580D02*
X108771428Y-59307200D01*
X108771428Y-59307200D02*
X108676190Y-59354819D01*
X108676190Y-59354819D02*
X108390476Y-59354819D01*
X108390476Y-59354819D02*
X108295238Y-59307200D01*
X108295238Y-59307200D02*
X108247619Y-59259580D01*
X104454819Y-112142857D02*
X103978628Y-112476190D01*
X104454819Y-112714285D02*
X103454819Y-112714285D01*
X103454819Y-112714285D02*
X103454819Y-112333333D01*
X103454819Y-112333333D02*
X103502438Y-112238095D01*
X103502438Y-112238095D02*
X103550057Y-112190476D01*
X103550057Y-112190476D02*
X103645295Y-112142857D01*
X103645295Y-112142857D02*
X103788152Y-112142857D01*
X103788152Y-112142857D02*
X103883390Y-112190476D01*
X103883390Y-112190476D02*
X103931009Y-112238095D01*
X103931009Y-112238095D02*
X103978628Y-112333333D01*
X103978628Y-112333333D02*
X103978628Y-112714285D01*
X103550057Y-111761904D02*
X103502438Y-111714285D01*
X103502438Y-111714285D02*
X103454819Y-111619047D01*
X103454819Y-111619047D02*
X103454819Y-111380952D01*
X103454819Y-111380952D02*
X103502438Y-111285714D01*
X103502438Y-111285714D02*
X103550057Y-111238095D01*
X103550057Y-111238095D02*
X103645295Y-111190476D01*
X103645295Y-111190476D02*
X103740533Y-111190476D01*
X103740533Y-111190476D02*
X103883390Y-111238095D01*
X103883390Y-111238095D02*
X104454819Y-111809523D01*
X104454819Y-111809523D02*
X104454819Y-111190476D01*
X104454819Y-110714285D02*
X104454819Y-110523809D01*
X104454819Y-110523809D02*
X104407200Y-110428571D01*
X104407200Y-110428571D02*
X104359580Y-110380952D01*
X104359580Y-110380952D02*
X104216723Y-110285714D01*
X104216723Y-110285714D02*
X104026247Y-110238095D01*
X104026247Y-110238095D02*
X103645295Y-110238095D01*
X103645295Y-110238095D02*
X103550057Y-110285714D01*
X103550057Y-110285714D02*
X103502438Y-110333333D01*
X103502438Y-110333333D02*
X103454819Y-110428571D01*
X103454819Y-110428571D02*
X103454819Y-110619047D01*
X103454819Y-110619047D02*
X103502438Y-110714285D01*
X103502438Y-110714285D02*
X103550057Y-110761904D01*
X103550057Y-110761904D02*
X103645295Y-110809523D01*
X103645295Y-110809523D02*
X103883390Y-110809523D01*
X103883390Y-110809523D02*
X103978628Y-110761904D01*
X103978628Y-110761904D02*
X104026247Y-110714285D01*
X104026247Y-110714285D02*
X104073866Y-110619047D01*
X104073866Y-110619047D02*
X104073866Y-110428571D01*
X104073866Y-110428571D02*
X104026247Y-110333333D01*
X104026247Y-110333333D02*
X103978628Y-110285714D01*
X103978628Y-110285714D02*
X103883390Y-110238095D01*
X114954819Y-112142857D02*
X114478628Y-112476190D01*
X114954819Y-112714285D02*
X113954819Y-112714285D01*
X113954819Y-112714285D02*
X113954819Y-112333333D01*
X113954819Y-112333333D02*
X114002438Y-112238095D01*
X114002438Y-112238095D02*
X114050057Y-112190476D01*
X114050057Y-112190476D02*
X114145295Y-112142857D01*
X114145295Y-112142857D02*
X114288152Y-112142857D01*
X114288152Y-112142857D02*
X114383390Y-112190476D01*
X114383390Y-112190476D02*
X114431009Y-112238095D01*
X114431009Y-112238095D02*
X114478628Y-112333333D01*
X114478628Y-112333333D02*
X114478628Y-112714285D01*
X114050057Y-111761904D02*
X114002438Y-111714285D01*
X114002438Y-111714285D02*
X113954819Y-111619047D01*
X113954819Y-111619047D02*
X113954819Y-111380952D01*
X113954819Y-111380952D02*
X114002438Y-111285714D01*
X114002438Y-111285714D02*
X114050057Y-111238095D01*
X114050057Y-111238095D02*
X114145295Y-111190476D01*
X114145295Y-111190476D02*
X114240533Y-111190476D01*
X114240533Y-111190476D02*
X114383390Y-111238095D01*
X114383390Y-111238095D02*
X114954819Y-111809523D01*
X114954819Y-111809523D02*
X114954819Y-111190476D01*
X113954819Y-110333333D02*
X113954819Y-110523809D01*
X113954819Y-110523809D02*
X114002438Y-110619047D01*
X114002438Y-110619047D02*
X114050057Y-110666666D01*
X114050057Y-110666666D02*
X114192914Y-110761904D01*
X114192914Y-110761904D02*
X114383390Y-110809523D01*
X114383390Y-110809523D02*
X114764342Y-110809523D01*
X114764342Y-110809523D02*
X114859580Y-110761904D01*
X114859580Y-110761904D02*
X114907200Y-110714285D01*
X114907200Y-110714285D02*
X114954819Y-110619047D01*
X114954819Y-110619047D02*
X114954819Y-110428571D01*
X114954819Y-110428571D02*
X114907200Y-110333333D01*
X114907200Y-110333333D02*
X114859580Y-110285714D01*
X114859580Y-110285714D02*
X114764342Y-110238095D01*
X114764342Y-110238095D02*
X114526247Y-110238095D01*
X114526247Y-110238095D02*
X114431009Y-110285714D01*
X114431009Y-110285714D02*
X114383390Y-110333333D01*
X114383390Y-110333333D02*
X114335771Y-110428571D01*
X114335771Y-110428571D02*
X114335771Y-110619047D01*
X114335771Y-110619047D02*
X114383390Y-110714285D01*
X114383390Y-110714285D02*
X114431009Y-110761904D01*
X114431009Y-110761904D02*
X114526247Y-110809523D01*
X72454819Y-139142857D02*
X71978628Y-139476190D01*
X72454819Y-139714285D02*
X71454819Y-139714285D01*
X71454819Y-139714285D02*
X71454819Y-139333333D01*
X71454819Y-139333333D02*
X71502438Y-139238095D01*
X71502438Y-139238095D02*
X71550057Y-139190476D01*
X71550057Y-139190476D02*
X71645295Y-139142857D01*
X71645295Y-139142857D02*
X71788152Y-139142857D01*
X71788152Y-139142857D02*
X71883390Y-139190476D01*
X71883390Y-139190476D02*
X71931009Y-139238095D01*
X71931009Y-139238095D02*
X71978628Y-139333333D01*
X71978628Y-139333333D02*
X71978628Y-139714285D01*
X71550057Y-138761904D02*
X71502438Y-138714285D01*
X71502438Y-138714285D02*
X71454819Y-138619047D01*
X71454819Y-138619047D02*
X71454819Y-138380952D01*
X71454819Y-138380952D02*
X71502438Y-138285714D01*
X71502438Y-138285714D02*
X71550057Y-138238095D01*
X71550057Y-138238095D02*
X71645295Y-138190476D01*
X71645295Y-138190476D02*
X71740533Y-138190476D01*
X71740533Y-138190476D02*
X71883390Y-138238095D01*
X71883390Y-138238095D02*
X72454819Y-138809523D01*
X72454819Y-138809523D02*
X72454819Y-138190476D01*
X71454819Y-137571428D02*
X71454819Y-137476190D01*
X71454819Y-137476190D02*
X71502438Y-137380952D01*
X71502438Y-137380952D02*
X71550057Y-137333333D01*
X71550057Y-137333333D02*
X71645295Y-137285714D01*
X71645295Y-137285714D02*
X71835771Y-137238095D01*
X71835771Y-137238095D02*
X72073866Y-137238095D01*
X72073866Y-137238095D02*
X72264342Y-137285714D01*
X72264342Y-137285714D02*
X72359580Y-137333333D01*
X72359580Y-137333333D02*
X72407200Y-137380952D01*
X72407200Y-137380952D02*
X72454819Y-137476190D01*
X72454819Y-137476190D02*
X72454819Y-137571428D01*
X72454819Y-137571428D02*
X72407200Y-137666666D01*
X72407200Y-137666666D02*
X72359580Y-137714285D01*
X72359580Y-137714285D02*
X72264342Y-137761904D01*
X72264342Y-137761904D02*
X72073866Y-137809523D01*
X72073866Y-137809523D02*
X71835771Y-137809523D01*
X71835771Y-137809523D02*
X71645295Y-137761904D01*
X71645295Y-137761904D02*
X71550057Y-137714285D01*
X71550057Y-137714285D02*
X71502438Y-137666666D01*
X71502438Y-137666666D02*
X71454819Y-137571428D01*
X65954819Y-95642857D02*
X65478628Y-95976190D01*
X65954819Y-96214285D02*
X64954819Y-96214285D01*
X64954819Y-96214285D02*
X64954819Y-95833333D01*
X64954819Y-95833333D02*
X65002438Y-95738095D01*
X65002438Y-95738095D02*
X65050057Y-95690476D01*
X65050057Y-95690476D02*
X65145295Y-95642857D01*
X65145295Y-95642857D02*
X65288152Y-95642857D01*
X65288152Y-95642857D02*
X65383390Y-95690476D01*
X65383390Y-95690476D02*
X65431009Y-95738095D01*
X65431009Y-95738095D02*
X65478628Y-95833333D01*
X65478628Y-95833333D02*
X65478628Y-96214285D01*
X65954819Y-94690476D02*
X65954819Y-95261904D01*
X65954819Y-94976190D02*
X64954819Y-94976190D01*
X64954819Y-94976190D02*
X65097676Y-95071428D01*
X65097676Y-95071428D02*
X65192914Y-95166666D01*
X65192914Y-95166666D02*
X65240533Y-95261904D01*
X64954819Y-94071428D02*
X64954819Y-93976190D01*
X64954819Y-93976190D02*
X65002438Y-93880952D01*
X65002438Y-93880952D02*
X65050057Y-93833333D01*
X65050057Y-93833333D02*
X65145295Y-93785714D01*
X65145295Y-93785714D02*
X65335771Y-93738095D01*
X65335771Y-93738095D02*
X65573866Y-93738095D01*
X65573866Y-93738095D02*
X65764342Y-93785714D01*
X65764342Y-93785714D02*
X65859580Y-93833333D01*
X65859580Y-93833333D02*
X65907200Y-93880952D01*
X65907200Y-93880952D02*
X65954819Y-93976190D01*
X65954819Y-93976190D02*
X65954819Y-94071428D01*
X65954819Y-94071428D02*
X65907200Y-94166666D01*
X65907200Y-94166666D02*
X65859580Y-94214285D01*
X65859580Y-94214285D02*
X65764342Y-94261904D01*
X65764342Y-94261904D02*
X65573866Y-94309523D01*
X65573866Y-94309523D02*
X65335771Y-94309523D01*
X65335771Y-94309523D02*
X65145295Y-94261904D01*
X65145295Y-94261904D02*
X65050057Y-94214285D01*
X65050057Y-94214285D02*
X65002438Y-94166666D01*
X65002438Y-94166666D02*
X64954819Y-94071428D01*
X100954819Y-112162857D02*
X100478628Y-112496190D01*
X100954819Y-112734285D02*
X99954819Y-112734285D01*
X99954819Y-112734285D02*
X99954819Y-112353333D01*
X99954819Y-112353333D02*
X100002438Y-112258095D01*
X100002438Y-112258095D02*
X100050057Y-112210476D01*
X100050057Y-112210476D02*
X100145295Y-112162857D01*
X100145295Y-112162857D02*
X100288152Y-112162857D01*
X100288152Y-112162857D02*
X100383390Y-112210476D01*
X100383390Y-112210476D02*
X100431009Y-112258095D01*
X100431009Y-112258095D02*
X100478628Y-112353333D01*
X100478628Y-112353333D02*
X100478628Y-112734285D01*
X100050057Y-111781904D02*
X100002438Y-111734285D01*
X100002438Y-111734285D02*
X99954819Y-111639047D01*
X99954819Y-111639047D02*
X99954819Y-111400952D01*
X99954819Y-111400952D02*
X100002438Y-111305714D01*
X100002438Y-111305714D02*
X100050057Y-111258095D01*
X100050057Y-111258095D02*
X100145295Y-111210476D01*
X100145295Y-111210476D02*
X100240533Y-111210476D01*
X100240533Y-111210476D02*
X100383390Y-111258095D01*
X100383390Y-111258095D02*
X100954819Y-111829523D01*
X100954819Y-111829523D02*
X100954819Y-111210476D01*
X100288152Y-110353333D02*
X100954819Y-110353333D01*
X99907200Y-110591428D02*
X100621485Y-110829523D01*
X100621485Y-110829523D02*
X100621485Y-110210476D01*
X121661905Y-160654819D02*
X121661905Y-159654819D01*
X121661905Y-160131009D02*
X122233333Y-160131009D01*
X122233333Y-160654819D02*
X122233333Y-159654819D01*
X123233333Y-160654819D02*
X122661905Y-160654819D01*
X122947619Y-160654819D02*
X122947619Y-159654819D01*
X122947619Y-159654819D02*
X122852381Y-159797676D01*
X122852381Y-159797676D02*
X122757143Y-159892914D01*
X122757143Y-159892914D02*
X122661905Y-159940533D01*
X123852381Y-159654819D02*
X123947619Y-159654819D01*
X123947619Y-159654819D02*
X124042857Y-159702438D01*
X124042857Y-159702438D02*
X124090476Y-159750057D01*
X124090476Y-159750057D02*
X124138095Y-159845295D01*
X124138095Y-159845295D02*
X124185714Y-160035771D01*
X124185714Y-160035771D02*
X124185714Y-160273866D01*
X124185714Y-160273866D02*
X124138095Y-160464342D01*
X124138095Y-160464342D02*
X124090476Y-160559580D01*
X124090476Y-160559580D02*
X124042857Y-160607200D01*
X124042857Y-160607200D02*
X123947619Y-160654819D01*
X123947619Y-160654819D02*
X123852381Y-160654819D01*
X123852381Y-160654819D02*
X123757143Y-160607200D01*
X123757143Y-160607200D02*
X123709524Y-160559580D01*
X123709524Y-160559580D02*
X123661905Y-160464342D01*
X123661905Y-160464342D02*
X123614286Y-160273866D01*
X123614286Y-160273866D02*
X123614286Y-160035771D01*
X123614286Y-160035771D02*
X123661905Y-159845295D01*
X123661905Y-159845295D02*
X123709524Y-159750057D01*
X123709524Y-159750057D02*
X123757143Y-159702438D01*
X123757143Y-159702438D02*
X123852381Y-159654819D01*
X86738095Y-107184819D02*
X86738095Y-106184819D01*
X86738095Y-106661009D02*
X87309523Y-106661009D01*
X87309523Y-107184819D02*
X87309523Y-106184819D01*
X88309523Y-107184819D02*
X87738095Y-107184819D01*
X88023809Y-107184819D02*
X88023809Y-106184819D01*
X88023809Y-106184819D02*
X87928571Y-106327676D01*
X87928571Y-106327676D02*
X87833333Y-106422914D01*
X87833333Y-106422914D02*
X87738095Y-106470533D01*
X68954819Y-139142857D02*
X68478628Y-139476190D01*
X68954819Y-139714285D02*
X67954819Y-139714285D01*
X67954819Y-139714285D02*
X67954819Y-139333333D01*
X67954819Y-139333333D02*
X68002438Y-139238095D01*
X68002438Y-139238095D02*
X68050057Y-139190476D01*
X68050057Y-139190476D02*
X68145295Y-139142857D01*
X68145295Y-139142857D02*
X68288152Y-139142857D01*
X68288152Y-139142857D02*
X68383390Y-139190476D01*
X68383390Y-139190476D02*
X68431009Y-139238095D01*
X68431009Y-139238095D02*
X68478628Y-139333333D01*
X68478628Y-139333333D02*
X68478628Y-139714285D01*
X68954819Y-138190476D02*
X68954819Y-138761904D01*
X68954819Y-138476190D02*
X67954819Y-138476190D01*
X67954819Y-138476190D02*
X68097676Y-138571428D01*
X68097676Y-138571428D02*
X68192914Y-138666666D01*
X68192914Y-138666666D02*
X68240533Y-138761904D01*
X68954819Y-137714285D02*
X68954819Y-137523809D01*
X68954819Y-137523809D02*
X68907200Y-137428571D01*
X68907200Y-137428571D02*
X68859580Y-137380952D01*
X68859580Y-137380952D02*
X68716723Y-137285714D01*
X68716723Y-137285714D02*
X68526247Y-137238095D01*
X68526247Y-137238095D02*
X68145295Y-137238095D01*
X68145295Y-137238095D02*
X68050057Y-137285714D01*
X68050057Y-137285714D02*
X68002438Y-137333333D01*
X68002438Y-137333333D02*
X67954819Y-137428571D01*
X67954819Y-137428571D02*
X67954819Y-137619047D01*
X67954819Y-137619047D02*
X68002438Y-137714285D01*
X68002438Y-137714285D02*
X68050057Y-137761904D01*
X68050057Y-137761904D02*
X68145295Y-137809523D01*
X68145295Y-137809523D02*
X68383390Y-137809523D01*
X68383390Y-137809523D02*
X68478628Y-137761904D01*
X68478628Y-137761904D02*
X68526247Y-137714285D01*
X68526247Y-137714285D02*
X68573866Y-137619047D01*
X68573866Y-137619047D02*
X68573866Y-137428571D01*
X68573866Y-137428571D02*
X68526247Y-137333333D01*
X68526247Y-137333333D02*
X68478628Y-137285714D01*
X68478628Y-137285714D02*
X68383390Y-137238095D01*
X82954819Y-139142857D02*
X82478628Y-139476190D01*
X82954819Y-139714285D02*
X81954819Y-139714285D01*
X81954819Y-139714285D02*
X81954819Y-139333333D01*
X81954819Y-139333333D02*
X82002438Y-139238095D01*
X82002438Y-139238095D02*
X82050057Y-139190476D01*
X82050057Y-139190476D02*
X82145295Y-139142857D01*
X82145295Y-139142857D02*
X82288152Y-139142857D01*
X82288152Y-139142857D02*
X82383390Y-139190476D01*
X82383390Y-139190476D02*
X82431009Y-139238095D01*
X82431009Y-139238095D02*
X82478628Y-139333333D01*
X82478628Y-139333333D02*
X82478628Y-139714285D01*
X82050057Y-138761904D02*
X82002438Y-138714285D01*
X82002438Y-138714285D02*
X81954819Y-138619047D01*
X81954819Y-138619047D02*
X81954819Y-138380952D01*
X81954819Y-138380952D02*
X82002438Y-138285714D01*
X82002438Y-138285714D02*
X82050057Y-138238095D01*
X82050057Y-138238095D02*
X82145295Y-138190476D01*
X82145295Y-138190476D02*
X82240533Y-138190476D01*
X82240533Y-138190476D02*
X82383390Y-138238095D01*
X82383390Y-138238095D02*
X82954819Y-138809523D01*
X82954819Y-138809523D02*
X82954819Y-138190476D01*
X82050057Y-137809523D02*
X82002438Y-137761904D01*
X82002438Y-137761904D02*
X81954819Y-137666666D01*
X81954819Y-137666666D02*
X81954819Y-137428571D01*
X81954819Y-137428571D02*
X82002438Y-137333333D01*
X82002438Y-137333333D02*
X82050057Y-137285714D01*
X82050057Y-137285714D02*
X82145295Y-137238095D01*
X82145295Y-137238095D02*
X82240533Y-137238095D01*
X82240533Y-137238095D02*
X82383390Y-137285714D01*
X82383390Y-137285714D02*
X82954819Y-137857142D01*
X82954819Y-137857142D02*
X82954819Y-137238095D01*
X55454819Y-95662857D02*
X54978628Y-95996190D01*
X55454819Y-96234285D02*
X54454819Y-96234285D01*
X54454819Y-96234285D02*
X54454819Y-95853333D01*
X54454819Y-95853333D02*
X54502438Y-95758095D01*
X54502438Y-95758095D02*
X54550057Y-95710476D01*
X54550057Y-95710476D02*
X54645295Y-95662857D01*
X54645295Y-95662857D02*
X54788152Y-95662857D01*
X54788152Y-95662857D02*
X54883390Y-95710476D01*
X54883390Y-95710476D02*
X54931009Y-95758095D01*
X54931009Y-95758095D02*
X54978628Y-95853333D01*
X54978628Y-95853333D02*
X54978628Y-96234285D01*
X55454819Y-94710476D02*
X55454819Y-95281904D01*
X55454819Y-94996190D02*
X54454819Y-94996190D01*
X54454819Y-94996190D02*
X54597676Y-95091428D01*
X54597676Y-95091428D02*
X54692914Y-95186666D01*
X54692914Y-95186666D02*
X54740533Y-95281904D01*
X54454819Y-93853333D02*
X54454819Y-94043809D01*
X54454819Y-94043809D02*
X54502438Y-94139047D01*
X54502438Y-94139047D02*
X54550057Y-94186666D01*
X54550057Y-94186666D02*
X54692914Y-94281904D01*
X54692914Y-94281904D02*
X54883390Y-94329523D01*
X54883390Y-94329523D02*
X55264342Y-94329523D01*
X55264342Y-94329523D02*
X55359580Y-94281904D01*
X55359580Y-94281904D02*
X55407200Y-94234285D01*
X55407200Y-94234285D02*
X55454819Y-94139047D01*
X55454819Y-94139047D02*
X55454819Y-93948571D01*
X55454819Y-93948571D02*
X55407200Y-93853333D01*
X55407200Y-93853333D02*
X55359580Y-93805714D01*
X55359580Y-93805714D02*
X55264342Y-93758095D01*
X55264342Y-93758095D02*
X55026247Y-93758095D01*
X55026247Y-93758095D02*
X54931009Y-93805714D01*
X54931009Y-93805714D02*
X54883390Y-93853333D01*
X54883390Y-93853333D02*
X54835771Y-93948571D01*
X54835771Y-93948571D02*
X54835771Y-94139047D01*
X54835771Y-94139047D02*
X54883390Y-94234285D01*
X54883390Y-94234285D02*
X54931009Y-94281904D01*
X54931009Y-94281904D02*
X55026247Y-94329523D01*
X81238095Y-86754819D02*
X81809523Y-86754819D01*
X81523809Y-87754819D02*
X81523809Y-86754819D01*
X82142857Y-87754819D02*
X82142857Y-86754819D01*
X82142857Y-86754819D02*
X82523809Y-86754819D01*
X82523809Y-86754819D02*
X82619047Y-86802438D01*
X82619047Y-86802438D02*
X82666666Y-86850057D01*
X82666666Y-86850057D02*
X82714285Y-86945295D01*
X82714285Y-86945295D02*
X82714285Y-87088152D01*
X82714285Y-87088152D02*
X82666666Y-87183390D01*
X82666666Y-87183390D02*
X82619047Y-87231009D01*
X82619047Y-87231009D02*
X82523809Y-87278628D01*
X82523809Y-87278628D02*
X82142857Y-87278628D01*
X83047619Y-86754819D02*
X83666666Y-86754819D01*
X83666666Y-86754819D02*
X83333333Y-87135771D01*
X83333333Y-87135771D02*
X83476190Y-87135771D01*
X83476190Y-87135771D02*
X83571428Y-87183390D01*
X83571428Y-87183390D02*
X83619047Y-87231009D01*
X83619047Y-87231009D02*
X83666666Y-87326247D01*
X83666666Y-87326247D02*
X83666666Y-87564342D01*
X83666666Y-87564342D02*
X83619047Y-87659580D01*
X83619047Y-87659580D02*
X83571428Y-87707200D01*
X83571428Y-87707200D02*
X83476190Y-87754819D01*
X83476190Y-87754819D02*
X83190476Y-87754819D01*
X83190476Y-87754819D02*
X83095238Y-87707200D01*
X83095238Y-87707200D02*
X83047619Y-87659580D01*
X61954819Y-139142857D02*
X61478628Y-139476190D01*
X61954819Y-139714285D02*
X60954819Y-139714285D01*
X60954819Y-139714285D02*
X60954819Y-139333333D01*
X60954819Y-139333333D02*
X61002438Y-139238095D01*
X61002438Y-139238095D02*
X61050057Y-139190476D01*
X61050057Y-139190476D02*
X61145295Y-139142857D01*
X61145295Y-139142857D02*
X61288152Y-139142857D01*
X61288152Y-139142857D02*
X61383390Y-139190476D01*
X61383390Y-139190476D02*
X61431009Y-139238095D01*
X61431009Y-139238095D02*
X61478628Y-139333333D01*
X61478628Y-139333333D02*
X61478628Y-139714285D01*
X61050057Y-138761904D02*
X61002438Y-138714285D01*
X61002438Y-138714285D02*
X60954819Y-138619047D01*
X60954819Y-138619047D02*
X60954819Y-138380952D01*
X60954819Y-138380952D02*
X61002438Y-138285714D01*
X61002438Y-138285714D02*
X61050057Y-138238095D01*
X61050057Y-138238095D02*
X61145295Y-138190476D01*
X61145295Y-138190476D02*
X61240533Y-138190476D01*
X61240533Y-138190476D02*
X61383390Y-138238095D01*
X61383390Y-138238095D02*
X61954819Y-138809523D01*
X61954819Y-138809523D02*
X61954819Y-138190476D01*
X60954819Y-137285714D02*
X60954819Y-137761904D01*
X60954819Y-137761904D02*
X61431009Y-137809523D01*
X61431009Y-137809523D02*
X61383390Y-137761904D01*
X61383390Y-137761904D02*
X61335771Y-137666666D01*
X61335771Y-137666666D02*
X61335771Y-137428571D01*
X61335771Y-137428571D02*
X61383390Y-137333333D01*
X61383390Y-137333333D02*
X61431009Y-137285714D01*
X61431009Y-137285714D02*
X61526247Y-137238095D01*
X61526247Y-137238095D02*
X61764342Y-137238095D01*
X61764342Y-137238095D02*
X61859580Y-137285714D01*
X61859580Y-137285714D02*
X61907200Y-137333333D01*
X61907200Y-137333333D02*
X61954819Y-137428571D01*
X61954819Y-137428571D02*
X61954819Y-137666666D01*
X61954819Y-137666666D02*
X61907200Y-137761904D01*
X61907200Y-137761904D02*
X61859580Y-137809523D01*
X52861905Y-130154819D02*
X53433333Y-130154819D01*
X53147619Y-131154819D02*
X53147619Y-130154819D01*
X53766667Y-131154819D02*
X53766667Y-130154819D01*
X53766667Y-130154819D02*
X54147619Y-130154819D01*
X54147619Y-130154819D02*
X54242857Y-130202438D01*
X54242857Y-130202438D02*
X54290476Y-130250057D01*
X54290476Y-130250057D02*
X54338095Y-130345295D01*
X54338095Y-130345295D02*
X54338095Y-130488152D01*
X54338095Y-130488152D02*
X54290476Y-130583390D01*
X54290476Y-130583390D02*
X54242857Y-130631009D01*
X54242857Y-130631009D02*
X54147619Y-130678628D01*
X54147619Y-130678628D02*
X53766667Y-130678628D01*
X55290476Y-131154819D02*
X54719048Y-131154819D01*
X55004762Y-131154819D02*
X55004762Y-130154819D01*
X55004762Y-130154819D02*
X54909524Y-130297676D01*
X54909524Y-130297676D02*
X54814286Y-130392914D01*
X54814286Y-130392914D02*
X54719048Y-130440533D01*
X55909524Y-130154819D02*
X56004762Y-130154819D01*
X56004762Y-130154819D02*
X56100000Y-130202438D01*
X56100000Y-130202438D02*
X56147619Y-130250057D01*
X56147619Y-130250057D02*
X56195238Y-130345295D01*
X56195238Y-130345295D02*
X56242857Y-130535771D01*
X56242857Y-130535771D02*
X56242857Y-130773866D01*
X56242857Y-130773866D02*
X56195238Y-130964342D01*
X56195238Y-130964342D02*
X56147619Y-131059580D01*
X56147619Y-131059580D02*
X56100000Y-131107200D01*
X56100000Y-131107200D02*
X56004762Y-131154819D01*
X56004762Y-131154819D02*
X55909524Y-131154819D01*
X55909524Y-131154819D02*
X55814286Y-131107200D01*
X55814286Y-131107200D02*
X55766667Y-131059580D01*
X55766667Y-131059580D02*
X55719048Y-130964342D01*
X55719048Y-130964342D02*
X55671429Y-130773866D01*
X55671429Y-130773866D02*
X55671429Y-130535771D01*
X55671429Y-130535771D02*
X55719048Y-130345295D01*
X55719048Y-130345295D02*
X55766667Y-130250057D01*
X55766667Y-130250057D02*
X55814286Y-130202438D01*
X55814286Y-130202438D02*
X55909524Y-130154819D01*
X121954819Y-98746666D02*
X121478628Y-99079999D01*
X121954819Y-99318094D02*
X120954819Y-99318094D01*
X120954819Y-99318094D02*
X120954819Y-98937142D01*
X120954819Y-98937142D02*
X121002438Y-98841904D01*
X121002438Y-98841904D02*
X121050057Y-98794285D01*
X121050057Y-98794285D02*
X121145295Y-98746666D01*
X121145295Y-98746666D02*
X121288152Y-98746666D01*
X121288152Y-98746666D02*
X121383390Y-98794285D01*
X121383390Y-98794285D02*
X121431009Y-98841904D01*
X121431009Y-98841904D02*
X121478628Y-98937142D01*
X121478628Y-98937142D02*
X121478628Y-99318094D01*
X120954819Y-97841904D02*
X120954819Y-98318094D01*
X120954819Y-98318094D02*
X121431009Y-98365713D01*
X121431009Y-98365713D02*
X121383390Y-98318094D01*
X121383390Y-98318094D02*
X121335771Y-98222856D01*
X121335771Y-98222856D02*
X121335771Y-97984761D01*
X121335771Y-97984761D02*
X121383390Y-97889523D01*
X121383390Y-97889523D02*
X121431009Y-97841904D01*
X121431009Y-97841904D02*
X121526247Y-97794285D01*
X121526247Y-97794285D02*
X121764342Y-97794285D01*
X121764342Y-97794285D02*
X121859580Y-97841904D01*
X121859580Y-97841904D02*
X121907200Y-97889523D01*
X121907200Y-97889523D02*
X121954819Y-97984761D01*
X121954819Y-97984761D02*
X121954819Y-98222856D01*
X121954819Y-98222856D02*
X121907200Y-98318094D01*
X121907200Y-98318094D02*
X121859580Y-98365713D01*
X62454819Y-95166666D02*
X61978628Y-95499999D01*
X62454819Y-95738094D02*
X61454819Y-95738094D01*
X61454819Y-95738094D02*
X61454819Y-95357142D01*
X61454819Y-95357142D02*
X61502438Y-95261904D01*
X61502438Y-95261904D02*
X61550057Y-95214285D01*
X61550057Y-95214285D02*
X61645295Y-95166666D01*
X61645295Y-95166666D02*
X61788152Y-95166666D01*
X61788152Y-95166666D02*
X61883390Y-95214285D01*
X61883390Y-95214285D02*
X61931009Y-95261904D01*
X61931009Y-95261904D02*
X61978628Y-95357142D01*
X61978628Y-95357142D02*
X61978628Y-95738094D01*
X62454819Y-94690475D02*
X62454819Y-94499999D01*
X62454819Y-94499999D02*
X62407200Y-94404761D01*
X62407200Y-94404761D02*
X62359580Y-94357142D01*
X62359580Y-94357142D02*
X62216723Y-94261904D01*
X62216723Y-94261904D02*
X62026247Y-94214285D01*
X62026247Y-94214285D02*
X61645295Y-94214285D01*
X61645295Y-94214285D02*
X61550057Y-94261904D01*
X61550057Y-94261904D02*
X61502438Y-94309523D01*
X61502438Y-94309523D02*
X61454819Y-94404761D01*
X61454819Y-94404761D02*
X61454819Y-94595237D01*
X61454819Y-94595237D02*
X61502438Y-94690475D01*
X61502438Y-94690475D02*
X61550057Y-94738094D01*
X61550057Y-94738094D02*
X61645295Y-94785713D01*
X61645295Y-94785713D02*
X61883390Y-94785713D01*
X61883390Y-94785713D02*
X61978628Y-94738094D01*
X61978628Y-94738094D02*
X62026247Y-94690475D01*
X62026247Y-94690475D02*
X62073866Y-94595237D01*
X62073866Y-94595237D02*
X62073866Y-94404761D01*
X62073866Y-94404761D02*
X62026247Y-94309523D01*
X62026247Y-94309523D02*
X61978628Y-94261904D01*
X61978628Y-94261904D02*
X61883390Y-94214285D01*
X80361905Y-51654819D02*
X80361905Y-50654819D01*
X80361905Y-51131009D02*
X80933333Y-51131009D01*
X80933333Y-51654819D02*
X80933333Y-50654819D01*
X81933333Y-51654819D02*
X81361905Y-51654819D01*
X81647619Y-51654819D02*
X81647619Y-50654819D01*
X81647619Y-50654819D02*
X81552381Y-50797676D01*
X81552381Y-50797676D02*
X81457143Y-50892914D01*
X81457143Y-50892914D02*
X81361905Y-50940533D01*
X82885714Y-51654819D02*
X82314286Y-51654819D01*
X82600000Y-51654819D02*
X82600000Y-50654819D01*
X82600000Y-50654819D02*
X82504762Y-50797676D01*
X82504762Y-50797676D02*
X82409524Y-50892914D01*
X82409524Y-50892914D02*
X82314286Y-50940533D01*
X51738095Y-106684819D02*
X51738095Y-105684819D01*
X51738095Y-106161009D02*
X52309523Y-106161009D01*
X52309523Y-106684819D02*
X52309523Y-105684819D01*
X53214285Y-106018152D02*
X53214285Y-106684819D01*
X52976190Y-105637200D02*
X52738095Y-106351485D01*
X52738095Y-106351485D02*
X53357142Y-106351485D01*
X120366666Y-58434819D02*
X120366666Y-59149104D01*
X120366666Y-59149104D02*
X120319047Y-59291961D01*
X120319047Y-59291961D02*
X120223809Y-59387200D01*
X120223809Y-59387200D02*
X120080952Y-59434819D01*
X120080952Y-59434819D02*
X119985714Y-59434819D01*
X121366666Y-59434819D02*
X120795238Y-59434819D01*
X121080952Y-59434819D02*
X121080952Y-58434819D01*
X121080952Y-58434819D02*
X120985714Y-58577676D01*
X120985714Y-58577676D02*
X120890476Y-58672914D01*
X120890476Y-58672914D02*
X120795238Y-58720533D01*
X69454819Y-95166666D02*
X68978628Y-95499999D01*
X69454819Y-95738094D02*
X68454819Y-95738094D01*
X68454819Y-95738094D02*
X68454819Y-95357142D01*
X68454819Y-95357142D02*
X68502438Y-95261904D01*
X68502438Y-95261904D02*
X68550057Y-95214285D01*
X68550057Y-95214285D02*
X68645295Y-95166666D01*
X68645295Y-95166666D02*
X68788152Y-95166666D01*
X68788152Y-95166666D02*
X68883390Y-95214285D01*
X68883390Y-95214285D02*
X68931009Y-95261904D01*
X68931009Y-95261904D02*
X68978628Y-95357142D01*
X68978628Y-95357142D02*
X68978628Y-95738094D01*
X68454819Y-94833332D02*
X68454819Y-94214285D01*
X68454819Y-94214285D02*
X68835771Y-94547618D01*
X68835771Y-94547618D02*
X68835771Y-94404761D01*
X68835771Y-94404761D02*
X68883390Y-94309523D01*
X68883390Y-94309523D02*
X68931009Y-94261904D01*
X68931009Y-94261904D02*
X69026247Y-94214285D01*
X69026247Y-94214285D02*
X69264342Y-94214285D01*
X69264342Y-94214285D02*
X69359580Y-94261904D01*
X69359580Y-94261904D02*
X69407200Y-94309523D01*
X69407200Y-94309523D02*
X69454819Y-94404761D01*
X69454819Y-94404761D02*
X69454819Y-94690475D01*
X69454819Y-94690475D02*
X69407200Y-94785713D01*
X69407200Y-94785713D02*
X69359580Y-94833332D01*
X54638095Y-110704819D02*
X55209523Y-110704819D01*
X54923809Y-111704819D02*
X54923809Y-110704819D01*
X55542857Y-111704819D02*
X55542857Y-110704819D01*
X55542857Y-110704819D02*
X55923809Y-110704819D01*
X55923809Y-110704819D02*
X56019047Y-110752438D01*
X56019047Y-110752438D02*
X56066666Y-110800057D01*
X56066666Y-110800057D02*
X56114285Y-110895295D01*
X56114285Y-110895295D02*
X56114285Y-111038152D01*
X56114285Y-111038152D02*
X56066666Y-111133390D01*
X56066666Y-111133390D02*
X56019047Y-111181009D01*
X56019047Y-111181009D02*
X55923809Y-111228628D01*
X55923809Y-111228628D02*
X55542857Y-111228628D01*
X56971428Y-111038152D02*
X56971428Y-111704819D01*
X56733333Y-110657200D02*
X56495238Y-111371485D01*
X56495238Y-111371485D02*
X57114285Y-111371485D01*
X107954819Y-112142857D02*
X107478628Y-112476190D01*
X107954819Y-112714285D02*
X106954819Y-112714285D01*
X106954819Y-112714285D02*
X106954819Y-112333333D01*
X106954819Y-112333333D02*
X107002438Y-112238095D01*
X107002438Y-112238095D02*
X107050057Y-112190476D01*
X107050057Y-112190476D02*
X107145295Y-112142857D01*
X107145295Y-112142857D02*
X107288152Y-112142857D01*
X107288152Y-112142857D02*
X107383390Y-112190476D01*
X107383390Y-112190476D02*
X107431009Y-112238095D01*
X107431009Y-112238095D02*
X107478628Y-112333333D01*
X107478628Y-112333333D02*
X107478628Y-112714285D01*
X106954819Y-111809523D02*
X106954819Y-111190476D01*
X106954819Y-111190476D02*
X107335771Y-111523809D01*
X107335771Y-111523809D02*
X107335771Y-111380952D01*
X107335771Y-111380952D02*
X107383390Y-111285714D01*
X107383390Y-111285714D02*
X107431009Y-111238095D01*
X107431009Y-111238095D02*
X107526247Y-111190476D01*
X107526247Y-111190476D02*
X107764342Y-111190476D01*
X107764342Y-111190476D02*
X107859580Y-111238095D01*
X107859580Y-111238095D02*
X107907200Y-111285714D01*
X107907200Y-111285714D02*
X107954819Y-111380952D01*
X107954819Y-111380952D02*
X107954819Y-111666666D01*
X107954819Y-111666666D02*
X107907200Y-111761904D01*
X107907200Y-111761904D02*
X107859580Y-111809523D01*
X107954819Y-110238095D02*
X107954819Y-110809523D01*
X107954819Y-110523809D02*
X106954819Y-110523809D01*
X106954819Y-110523809D02*
X107097676Y-110619047D01*
X107097676Y-110619047D02*
X107192914Y-110714285D01*
X107192914Y-110714285D02*
X107240533Y-110809523D01*
X67561905Y-76354819D02*
X67561905Y-75354819D01*
X67561905Y-75354819D02*
X67800000Y-75354819D01*
X67800000Y-75354819D02*
X67942857Y-75402438D01*
X67942857Y-75402438D02*
X68038095Y-75497676D01*
X68038095Y-75497676D02*
X68085714Y-75592914D01*
X68085714Y-75592914D02*
X68133333Y-75783390D01*
X68133333Y-75783390D02*
X68133333Y-75926247D01*
X68133333Y-75926247D02*
X68085714Y-76116723D01*
X68085714Y-76116723D02*
X68038095Y-76211961D01*
X68038095Y-76211961D02*
X67942857Y-76307200D01*
X67942857Y-76307200D02*
X67800000Y-76354819D01*
X67800000Y-76354819D02*
X67561905Y-76354819D01*
X68514286Y-75450057D02*
X68561905Y-75402438D01*
X68561905Y-75402438D02*
X68657143Y-75354819D01*
X68657143Y-75354819D02*
X68895238Y-75354819D01*
X68895238Y-75354819D02*
X68990476Y-75402438D01*
X68990476Y-75402438D02*
X69038095Y-75450057D01*
X69038095Y-75450057D02*
X69085714Y-75545295D01*
X69085714Y-75545295D02*
X69085714Y-75640533D01*
X69085714Y-75640533D02*
X69038095Y-75783390D01*
X69038095Y-75783390D02*
X68466667Y-76354819D01*
X68466667Y-76354819D02*
X69085714Y-76354819D01*
X76030057Y-82165238D02*
X75982438Y-82260476D01*
X75982438Y-82260476D02*
X75887200Y-82355714D01*
X75887200Y-82355714D02*
X75744342Y-82498571D01*
X75744342Y-82498571D02*
X75696723Y-82593809D01*
X75696723Y-82593809D02*
X75696723Y-82689047D01*
X75934819Y-82641428D02*
X75887200Y-82736666D01*
X75887200Y-82736666D02*
X75791961Y-82831904D01*
X75791961Y-82831904D02*
X75601485Y-82879523D01*
X75601485Y-82879523D02*
X75268152Y-82879523D01*
X75268152Y-82879523D02*
X75077676Y-82831904D01*
X75077676Y-82831904D02*
X74982438Y-82736666D01*
X74982438Y-82736666D02*
X74934819Y-82641428D01*
X74934819Y-82641428D02*
X74934819Y-82450952D01*
X74934819Y-82450952D02*
X74982438Y-82355714D01*
X74982438Y-82355714D02*
X75077676Y-82260476D01*
X75077676Y-82260476D02*
X75268152Y-82212857D01*
X75268152Y-82212857D02*
X75601485Y-82212857D01*
X75601485Y-82212857D02*
X75791961Y-82260476D01*
X75791961Y-82260476D02*
X75887200Y-82355714D01*
X75887200Y-82355714D02*
X75934819Y-82450952D01*
X75934819Y-82450952D02*
X75934819Y-82641428D01*
X75030057Y-81831904D02*
X74982438Y-81784285D01*
X74982438Y-81784285D02*
X74934819Y-81689047D01*
X74934819Y-81689047D02*
X74934819Y-81450952D01*
X74934819Y-81450952D02*
X74982438Y-81355714D01*
X74982438Y-81355714D02*
X75030057Y-81308095D01*
X75030057Y-81308095D02*
X75125295Y-81260476D01*
X75125295Y-81260476D02*
X75220533Y-81260476D01*
X75220533Y-81260476D02*
X75363390Y-81308095D01*
X75363390Y-81308095D02*
X75934819Y-81879523D01*
X75934819Y-81879523D02*
X75934819Y-81260476D01*
X54638095Y-115804819D02*
X55209523Y-115804819D01*
X54923809Y-116804819D02*
X54923809Y-115804819D01*
X55542857Y-116804819D02*
X55542857Y-115804819D01*
X55542857Y-115804819D02*
X55923809Y-115804819D01*
X55923809Y-115804819D02*
X56019047Y-115852438D01*
X56019047Y-115852438D02*
X56066666Y-115900057D01*
X56066666Y-115900057D02*
X56114285Y-115995295D01*
X56114285Y-115995295D02*
X56114285Y-116138152D01*
X56114285Y-116138152D02*
X56066666Y-116233390D01*
X56066666Y-116233390D02*
X56019047Y-116281009D01*
X56019047Y-116281009D02*
X55923809Y-116328628D01*
X55923809Y-116328628D02*
X55542857Y-116328628D01*
X56590476Y-116804819D02*
X56780952Y-116804819D01*
X56780952Y-116804819D02*
X56876190Y-116757200D01*
X56876190Y-116757200D02*
X56923809Y-116709580D01*
X56923809Y-116709580D02*
X57019047Y-116566723D01*
X57019047Y-116566723D02*
X57066666Y-116376247D01*
X57066666Y-116376247D02*
X57066666Y-115995295D01*
X57066666Y-115995295D02*
X57019047Y-115900057D01*
X57019047Y-115900057D02*
X56971428Y-115852438D01*
X56971428Y-115852438D02*
X56876190Y-115804819D01*
X56876190Y-115804819D02*
X56685714Y-115804819D01*
X56685714Y-115804819D02*
X56590476Y-115852438D01*
X56590476Y-115852438D02*
X56542857Y-115900057D01*
X56542857Y-115900057D02*
X56495238Y-115995295D01*
X56495238Y-115995295D02*
X56495238Y-116233390D01*
X56495238Y-116233390D02*
X56542857Y-116328628D01*
X56542857Y-116328628D02*
X56590476Y-116376247D01*
X56590476Y-116376247D02*
X56685714Y-116423866D01*
X56685714Y-116423866D02*
X56876190Y-116423866D01*
X56876190Y-116423866D02*
X56971428Y-116376247D01*
X56971428Y-116376247D02*
X57019047Y-116328628D01*
X57019047Y-116328628D02*
X57066666Y-116233390D01*
X65454819Y-139142857D02*
X64978628Y-139476190D01*
X65454819Y-139714285D02*
X64454819Y-139714285D01*
X64454819Y-139714285D02*
X64454819Y-139333333D01*
X64454819Y-139333333D02*
X64502438Y-139238095D01*
X64502438Y-139238095D02*
X64550057Y-139190476D01*
X64550057Y-139190476D02*
X64645295Y-139142857D01*
X64645295Y-139142857D02*
X64788152Y-139142857D01*
X64788152Y-139142857D02*
X64883390Y-139190476D01*
X64883390Y-139190476D02*
X64931009Y-139238095D01*
X64931009Y-139238095D02*
X64978628Y-139333333D01*
X64978628Y-139333333D02*
X64978628Y-139714285D01*
X64550057Y-138761904D02*
X64502438Y-138714285D01*
X64502438Y-138714285D02*
X64454819Y-138619047D01*
X64454819Y-138619047D02*
X64454819Y-138380952D01*
X64454819Y-138380952D02*
X64502438Y-138285714D01*
X64502438Y-138285714D02*
X64550057Y-138238095D01*
X64550057Y-138238095D02*
X64645295Y-138190476D01*
X64645295Y-138190476D02*
X64740533Y-138190476D01*
X64740533Y-138190476D02*
X64883390Y-138238095D01*
X64883390Y-138238095D02*
X65454819Y-138809523D01*
X65454819Y-138809523D02*
X65454819Y-138190476D01*
X64454819Y-137857142D02*
X64454819Y-137190476D01*
X64454819Y-137190476D02*
X65454819Y-137619047D01*
X111454819Y-99222857D02*
X110978628Y-99556190D01*
X111454819Y-99794285D02*
X110454819Y-99794285D01*
X110454819Y-99794285D02*
X110454819Y-99413333D01*
X110454819Y-99413333D02*
X110502438Y-99318095D01*
X110502438Y-99318095D02*
X110550057Y-99270476D01*
X110550057Y-99270476D02*
X110645295Y-99222857D01*
X110645295Y-99222857D02*
X110788152Y-99222857D01*
X110788152Y-99222857D02*
X110883390Y-99270476D01*
X110883390Y-99270476D02*
X110931009Y-99318095D01*
X110931009Y-99318095D02*
X110978628Y-99413333D01*
X110978628Y-99413333D02*
X110978628Y-99794285D01*
X111454819Y-98270476D02*
X111454819Y-98841904D01*
X111454819Y-98556190D02*
X110454819Y-98556190D01*
X110454819Y-98556190D02*
X110597676Y-98651428D01*
X110597676Y-98651428D02*
X110692914Y-98746666D01*
X110692914Y-98746666D02*
X110740533Y-98841904D01*
X110454819Y-97937142D02*
X110454819Y-97318095D01*
X110454819Y-97318095D02*
X110835771Y-97651428D01*
X110835771Y-97651428D02*
X110835771Y-97508571D01*
X110835771Y-97508571D02*
X110883390Y-97413333D01*
X110883390Y-97413333D02*
X110931009Y-97365714D01*
X110931009Y-97365714D02*
X111026247Y-97318095D01*
X111026247Y-97318095D02*
X111264342Y-97318095D01*
X111264342Y-97318095D02*
X111359580Y-97365714D01*
X111359580Y-97365714D02*
X111407200Y-97413333D01*
X111407200Y-97413333D02*
X111454819Y-97508571D01*
X111454819Y-97508571D02*
X111454819Y-97794285D01*
X111454819Y-97794285D02*
X111407200Y-97889523D01*
X111407200Y-97889523D02*
X111359580Y-97937142D01*
X82838095Y-111204819D02*
X83409523Y-111204819D01*
X83123809Y-112204819D02*
X83123809Y-111204819D01*
X83742857Y-112204819D02*
X83742857Y-111204819D01*
X83742857Y-111204819D02*
X84123809Y-111204819D01*
X84123809Y-111204819D02*
X84219047Y-111252438D01*
X84219047Y-111252438D02*
X84266666Y-111300057D01*
X84266666Y-111300057D02*
X84314285Y-111395295D01*
X84314285Y-111395295D02*
X84314285Y-111538152D01*
X84314285Y-111538152D02*
X84266666Y-111633390D01*
X84266666Y-111633390D02*
X84219047Y-111681009D01*
X84219047Y-111681009D02*
X84123809Y-111728628D01*
X84123809Y-111728628D02*
X83742857Y-111728628D01*
X85266666Y-112204819D02*
X84695238Y-112204819D01*
X84980952Y-112204819D02*
X84980952Y-111204819D01*
X84980952Y-111204819D02*
X84885714Y-111347676D01*
X84885714Y-111347676D02*
X84790476Y-111442914D01*
X84790476Y-111442914D02*
X84695238Y-111490533D01*
X100966666Y-149724819D02*
X100966666Y-150439104D01*
X100966666Y-150439104D02*
X100919047Y-150581961D01*
X100919047Y-150581961D02*
X100823809Y-150677200D01*
X100823809Y-150677200D02*
X100680952Y-150724819D01*
X100680952Y-150724819D02*
X100585714Y-150724819D01*
X101919047Y-149724819D02*
X101442857Y-149724819D01*
X101442857Y-149724819D02*
X101395238Y-150201009D01*
X101395238Y-150201009D02*
X101442857Y-150153390D01*
X101442857Y-150153390D02*
X101538095Y-150105771D01*
X101538095Y-150105771D02*
X101776190Y-150105771D01*
X101776190Y-150105771D02*
X101871428Y-150153390D01*
X101871428Y-150153390D02*
X101919047Y-150201009D01*
X101919047Y-150201009D02*
X101966666Y-150296247D01*
X101966666Y-150296247D02*
X101966666Y-150534342D01*
X101966666Y-150534342D02*
X101919047Y-150629580D01*
X101919047Y-150629580D02*
X101871428Y-150677200D01*
X101871428Y-150677200D02*
X101776190Y-150724819D01*
X101776190Y-150724819D02*
X101538095Y-150724819D01*
X101538095Y-150724819D02*
X101442857Y-150677200D01*
X101442857Y-150677200D02*
X101395238Y-150629580D01*
X118454819Y-112142857D02*
X117978628Y-112476190D01*
X118454819Y-112714285D02*
X117454819Y-112714285D01*
X117454819Y-112714285D02*
X117454819Y-112333333D01*
X117454819Y-112333333D02*
X117502438Y-112238095D01*
X117502438Y-112238095D02*
X117550057Y-112190476D01*
X117550057Y-112190476D02*
X117645295Y-112142857D01*
X117645295Y-112142857D02*
X117788152Y-112142857D01*
X117788152Y-112142857D02*
X117883390Y-112190476D01*
X117883390Y-112190476D02*
X117931009Y-112238095D01*
X117931009Y-112238095D02*
X117978628Y-112333333D01*
X117978628Y-112333333D02*
X117978628Y-112714285D01*
X117550057Y-111761904D02*
X117502438Y-111714285D01*
X117502438Y-111714285D02*
X117454819Y-111619047D01*
X117454819Y-111619047D02*
X117454819Y-111380952D01*
X117454819Y-111380952D02*
X117502438Y-111285714D01*
X117502438Y-111285714D02*
X117550057Y-111238095D01*
X117550057Y-111238095D02*
X117645295Y-111190476D01*
X117645295Y-111190476D02*
X117740533Y-111190476D01*
X117740533Y-111190476D02*
X117883390Y-111238095D01*
X117883390Y-111238095D02*
X118454819Y-111809523D01*
X118454819Y-111809523D02*
X118454819Y-111190476D01*
X117883390Y-110619047D02*
X117835771Y-110714285D01*
X117835771Y-110714285D02*
X117788152Y-110761904D01*
X117788152Y-110761904D02*
X117692914Y-110809523D01*
X117692914Y-110809523D02*
X117645295Y-110809523D01*
X117645295Y-110809523D02*
X117550057Y-110761904D01*
X117550057Y-110761904D02*
X117502438Y-110714285D01*
X117502438Y-110714285D02*
X117454819Y-110619047D01*
X117454819Y-110619047D02*
X117454819Y-110428571D01*
X117454819Y-110428571D02*
X117502438Y-110333333D01*
X117502438Y-110333333D02*
X117550057Y-110285714D01*
X117550057Y-110285714D02*
X117645295Y-110238095D01*
X117645295Y-110238095D02*
X117692914Y-110238095D01*
X117692914Y-110238095D02*
X117788152Y-110285714D01*
X117788152Y-110285714D02*
X117835771Y-110333333D01*
X117835771Y-110333333D02*
X117883390Y-110428571D01*
X117883390Y-110428571D02*
X117883390Y-110619047D01*
X117883390Y-110619047D02*
X117931009Y-110714285D01*
X117931009Y-110714285D02*
X117978628Y-110761904D01*
X117978628Y-110761904D02*
X118073866Y-110809523D01*
X118073866Y-110809523D02*
X118264342Y-110809523D01*
X118264342Y-110809523D02*
X118359580Y-110761904D01*
X118359580Y-110761904D02*
X118407200Y-110714285D01*
X118407200Y-110714285D02*
X118454819Y-110619047D01*
X118454819Y-110619047D02*
X118454819Y-110428571D01*
X118454819Y-110428571D02*
X118407200Y-110333333D01*
X118407200Y-110333333D02*
X118359580Y-110285714D01*
X118359580Y-110285714D02*
X118264342Y-110238095D01*
X118264342Y-110238095D02*
X118073866Y-110238095D01*
X118073866Y-110238095D02*
X117978628Y-110285714D01*
X117978628Y-110285714D02*
X117931009Y-110333333D01*
X117931009Y-110333333D02*
X117883390Y-110428571D01*
X70738095Y-148004819D02*
X71309523Y-148004819D01*
X71023809Y-149004819D02*
X71023809Y-148004819D01*
X71642857Y-149004819D02*
X71642857Y-148004819D01*
X71642857Y-148004819D02*
X72023809Y-148004819D01*
X72023809Y-148004819D02*
X72119047Y-148052438D01*
X72119047Y-148052438D02*
X72166666Y-148100057D01*
X72166666Y-148100057D02*
X72214285Y-148195295D01*
X72214285Y-148195295D02*
X72214285Y-148338152D01*
X72214285Y-148338152D02*
X72166666Y-148433390D01*
X72166666Y-148433390D02*
X72119047Y-148481009D01*
X72119047Y-148481009D02*
X72023809Y-148528628D01*
X72023809Y-148528628D02*
X71642857Y-148528628D01*
X73071428Y-148004819D02*
X72880952Y-148004819D01*
X72880952Y-148004819D02*
X72785714Y-148052438D01*
X72785714Y-148052438D02*
X72738095Y-148100057D01*
X72738095Y-148100057D02*
X72642857Y-148242914D01*
X72642857Y-148242914D02*
X72595238Y-148433390D01*
X72595238Y-148433390D02*
X72595238Y-148814342D01*
X72595238Y-148814342D02*
X72642857Y-148909580D01*
X72642857Y-148909580D02*
X72690476Y-148957200D01*
X72690476Y-148957200D02*
X72785714Y-149004819D01*
X72785714Y-149004819D02*
X72976190Y-149004819D01*
X72976190Y-149004819D02*
X73071428Y-148957200D01*
X73071428Y-148957200D02*
X73119047Y-148909580D01*
X73119047Y-148909580D02*
X73166666Y-148814342D01*
X73166666Y-148814342D02*
X73166666Y-148576247D01*
X73166666Y-148576247D02*
X73119047Y-148481009D01*
X73119047Y-148481009D02*
X73071428Y-148433390D01*
X73071428Y-148433390D02*
X72976190Y-148385771D01*
X72976190Y-148385771D02*
X72785714Y-148385771D01*
X72785714Y-148385771D02*
X72690476Y-148433390D01*
X72690476Y-148433390D02*
X72642857Y-148481009D01*
X72642857Y-148481009D02*
X72595238Y-148576247D01*
X54954819Y-139142857D02*
X54478628Y-139476190D01*
X54954819Y-139714285D02*
X53954819Y-139714285D01*
X53954819Y-139714285D02*
X53954819Y-139333333D01*
X53954819Y-139333333D02*
X54002438Y-139238095D01*
X54002438Y-139238095D02*
X54050057Y-139190476D01*
X54050057Y-139190476D02*
X54145295Y-139142857D01*
X54145295Y-139142857D02*
X54288152Y-139142857D01*
X54288152Y-139142857D02*
X54383390Y-139190476D01*
X54383390Y-139190476D02*
X54431009Y-139238095D01*
X54431009Y-139238095D02*
X54478628Y-139333333D01*
X54478628Y-139333333D02*
X54478628Y-139714285D01*
X53954819Y-138809523D02*
X53954819Y-138190476D01*
X53954819Y-138190476D02*
X54335771Y-138523809D01*
X54335771Y-138523809D02*
X54335771Y-138380952D01*
X54335771Y-138380952D02*
X54383390Y-138285714D01*
X54383390Y-138285714D02*
X54431009Y-138238095D01*
X54431009Y-138238095D02*
X54526247Y-138190476D01*
X54526247Y-138190476D02*
X54764342Y-138190476D01*
X54764342Y-138190476D02*
X54859580Y-138238095D01*
X54859580Y-138238095D02*
X54907200Y-138285714D01*
X54907200Y-138285714D02*
X54954819Y-138380952D01*
X54954819Y-138380952D02*
X54954819Y-138666666D01*
X54954819Y-138666666D02*
X54907200Y-138761904D01*
X54907200Y-138761904D02*
X54859580Y-138809523D01*
X54050057Y-137809523D02*
X54002438Y-137761904D01*
X54002438Y-137761904D02*
X53954819Y-137666666D01*
X53954819Y-137666666D02*
X53954819Y-137428571D01*
X53954819Y-137428571D02*
X54002438Y-137333333D01*
X54002438Y-137333333D02*
X54050057Y-137285714D01*
X54050057Y-137285714D02*
X54145295Y-137238095D01*
X54145295Y-137238095D02*
X54240533Y-137238095D01*
X54240533Y-137238095D02*
X54383390Y-137285714D01*
X54383390Y-137285714D02*
X54954819Y-137857142D01*
X54954819Y-137857142D02*
X54954819Y-137238095D01*
X111454819Y-112142857D02*
X110978628Y-112476190D01*
X111454819Y-112714285D02*
X110454819Y-112714285D01*
X110454819Y-112714285D02*
X110454819Y-112333333D01*
X110454819Y-112333333D02*
X110502438Y-112238095D01*
X110502438Y-112238095D02*
X110550057Y-112190476D01*
X110550057Y-112190476D02*
X110645295Y-112142857D01*
X110645295Y-112142857D02*
X110788152Y-112142857D01*
X110788152Y-112142857D02*
X110883390Y-112190476D01*
X110883390Y-112190476D02*
X110931009Y-112238095D01*
X110931009Y-112238095D02*
X110978628Y-112333333D01*
X110978628Y-112333333D02*
X110978628Y-112714285D01*
X110550057Y-111761904D02*
X110502438Y-111714285D01*
X110502438Y-111714285D02*
X110454819Y-111619047D01*
X110454819Y-111619047D02*
X110454819Y-111380952D01*
X110454819Y-111380952D02*
X110502438Y-111285714D01*
X110502438Y-111285714D02*
X110550057Y-111238095D01*
X110550057Y-111238095D02*
X110645295Y-111190476D01*
X110645295Y-111190476D02*
X110740533Y-111190476D01*
X110740533Y-111190476D02*
X110883390Y-111238095D01*
X110883390Y-111238095D02*
X111454819Y-111809523D01*
X111454819Y-111809523D02*
X111454819Y-111190476D01*
X111454819Y-110238095D02*
X111454819Y-110809523D01*
X111454819Y-110523809D02*
X110454819Y-110523809D01*
X110454819Y-110523809D02*
X110597676Y-110619047D01*
X110597676Y-110619047D02*
X110692914Y-110714285D01*
X110692914Y-110714285D02*
X110740533Y-110809523D01*
X80561905Y-160054819D02*
X80561905Y-159054819D01*
X80561905Y-159531009D02*
X81133333Y-159531009D01*
X81133333Y-160054819D02*
X81133333Y-159054819D01*
X82133333Y-160054819D02*
X81561905Y-160054819D01*
X81847619Y-160054819D02*
X81847619Y-159054819D01*
X81847619Y-159054819D02*
X81752381Y-159197676D01*
X81752381Y-159197676D02*
X81657143Y-159292914D01*
X81657143Y-159292914D02*
X81561905Y-159340533D01*
X82514286Y-159150057D02*
X82561905Y-159102438D01*
X82561905Y-159102438D02*
X82657143Y-159054819D01*
X82657143Y-159054819D02*
X82895238Y-159054819D01*
X82895238Y-159054819D02*
X82990476Y-159102438D01*
X82990476Y-159102438D02*
X83038095Y-159150057D01*
X83038095Y-159150057D02*
X83085714Y-159245295D01*
X83085714Y-159245295D02*
X83085714Y-159340533D01*
X83085714Y-159340533D02*
X83038095Y-159483390D01*
X83038095Y-159483390D02*
X82466667Y-160054819D01*
X82466667Y-160054819D02*
X83085714Y-160054819D01*
X53038095Y-78254819D02*
X53038095Y-77254819D01*
X53038095Y-77731009D02*
X53609523Y-77731009D01*
X53609523Y-78254819D02*
X53609523Y-77254819D01*
X53990476Y-77254819D02*
X54657142Y-77254819D01*
X54657142Y-77254819D02*
X54228571Y-78254819D01*
X74761905Y-66154819D02*
X75333333Y-66154819D01*
X75047619Y-67154819D02*
X75047619Y-66154819D01*
X75666667Y-67154819D02*
X75666667Y-66154819D01*
X75666667Y-66154819D02*
X76047619Y-66154819D01*
X76047619Y-66154819D02*
X76142857Y-66202438D01*
X76142857Y-66202438D02*
X76190476Y-66250057D01*
X76190476Y-66250057D02*
X76238095Y-66345295D01*
X76238095Y-66345295D02*
X76238095Y-66488152D01*
X76238095Y-66488152D02*
X76190476Y-66583390D01*
X76190476Y-66583390D02*
X76142857Y-66631009D01*
X76142857Y-66631009D02*
X76047619Y-66678628D01*
X76047619Y-66678628D02*
X75666667Y-66678628D01*
X77190476Y-67154819D02*
X76619048Y-67154819D01*
X76904762Y-67154819D02*
X76904762Y-66154819D01*
X76904762Y-66154819D02*
X76809524Y-66297676D01*
X76809524Y-66297676D02*
X76714286Y-66392914D01*
X76714286Y-66392914D02*
X76619048Y-66440533D01*
X77523810Y-66154819D02*
X78142857Y-66154819D01*
X78142857Y-66154819D02*
X77809524Y-66535771D01*
X77809524Y-66535771D02*
X77952381Y-66535771D01*
X77952381Y-66535771D02*
X78047619Y-66583390D01*
X78047619Y-66583390D02*
X78095238Y-66631009D01*
X78095238Y-66631009D02*
X78142857Y-66726247D01*
X78142857Y-66726247D02*
X78142857Y-66964342D01*
X78142857Y-66964342D02*
X78095238Y-67059580D01*
X78095238Y-67059580D02*
X78047619Y-67107200D01*
X78047619Y-67107200D02*
X77952381Y-67154819D01*
X77952381Y-67154819D02*
X77666667Y-67154819D01*
X77666667Y-67154819D02*
X77571429Y-67107200D01*
X77571429Y-67107200D02*
X77523810Y-67059580D01*
X86954819Y-95166666D02*
X86478628Y-95499999D01*
X86954819Y-95738094D02*
X85954819Y-95738094D01*
X85954819Y-95738094D02*
X85954819Y-95357142D01*
X85954819Y-95357142D02*
X86002438Y-95261904D01*
X86002438Y-95261904D02*
X86050057Y-95214285D01*
X86050057Y-95214285D02*
X86145295Y-95166666D01*
X86145295Y-95166666D02*
X86288152Y-95166666D01*
X86288152Y-95166666D02*
X86383390Y-95214285D01*
X86383390Y-95214285D02*
X86431009Y-95261904D01*
X86431009Y-95261904D02*
X86478628Y-95357142D01*
X86478628Y-95357142D02*
X86478628Y-95738094D01*
X85954819Y-94833332D02*
X85954819Y-94166666D01*
X85954819Y-94166666D02*
X86954819Y-94595237D01*
X66837142Y-55854819D02*
X66503809Y-55378628D01*
X66265714Y-55854819D02*
X66265714Y-54854819D01*
X66265714Y-54854819D02*
X66646666Y-54854819D01*
X66646666Y-54854819D02*
X66741904Y-54902438D01*
X66741904Y-54902438D02*
X66789523Y-54950057D01*
X66789523Y-54950057D02*
X66837142Y-55045295D01*
X66837142Y-55045295D02*
X66837142Y-55188152D01*
X66837142Y-55188152D02*
X66789523Y-55283390D01*
X66789523Y-55283390D02*
X66741904Y-55331009D01*
X66741904Y-55331009D02*
X66646666Y-55378628D01*
X66646666Y-55378628D02*
X66265714Y-55378628D01*
X67170476Y-54854819D02*
X67789523Y-54854819D01*
X67789523Y-54854819D02*
X67456190Y-55235771D01*
X67456190Y-55235771D02*
X67599047Y-55235771D01*
X67599047Y-55235771D02*
X67694285Y-55283390D01*
X67694285Y-55283390D02*
X67741904Y-55331009D01*
X67741904Y-55331009D02*
X67789523Y-55426247D01*
X67789523Y-55426247D02*
X67789523Y-55664342D01*
X67789523Y-55664342D02*
X67741904Y-55759580D01*
X67741904Y-55759580D02*
X67694285Y-55807200D01*
X67694285Y-55807200D02*
X67599047Y-55854819D01*
X67599047Y-55854819D02*
X67313333Y-55854819D01*
X67313333Y-55854819D02*
X67218095Y-55807200D01*
X67218095Y-55807200D02*
X67170476Y-55759580D01*
X68122857Y-54854819D02*
X68741904Y-54854819D01*
X68741904Y-54854819D02*
X68408571Y-55235771D01*
X68408571Y-55235771D02*
X68551428Y-55235771D01*
X68551428Y-55235771D02*
X68646666Y-55283390D01*
X68646666Y-55283390D02*
X68694285Y-55331009D01*
X68694285Y-55331009D02*
X68741904Y-55426247D01*
X68741904Y-55426247D02*
X68741904Y-55664342D01*
X68741904Y-55664342D02*
X68694285Y-55759580D01*
X68694285Y-55759580D02*
X68646666Y-55807200D01*
X68646666Y-55807200D02*
X68551428Y-55854819D01*
X68551428Y-55854819D02*
X68265714Y-55854819D01*
X68265714Y-55854819D02*
X68170476Y-55807200D01*
X68170476Y-55807200D02*
X68122857Y-55759580D01*
X98038095Y-160454819D02*
X98038095Y-159454819D01*
X98038095Y-159931009D02*
X98609523Y-159931009D01*
X98609523Y-160454819D02*
X98609523Y-159454819D01*
X99514285Y-159454819D02*
X99323809Y-159454819D01*
X99323809Y-159454819D02*
X99228571Y-159502438D01*
X99228571Y-159502438D02*
X99180952Y-159550057D01*
X99180952Y-159550057D02*
X99085714Y-159692914D01*
X99085714Y-159692914D02*
X99038095Y-159883390D01*
X99038095Y-159883390D02*
X99038095Y-160264342D01*
X99038095Y-160264342D02*
X99085714Y-160359580D01*
X99085714Y-160359580D02*
X99133333Y-160407200D01*
X99133333Y-160407200D02*
X99228571Y-160454819D01*
X99228571Y-160454819D02*
X99419047Y-160454819D01*
X99419047Y-160454819D02*
X99514285Y-160407200D01*
X99514285Y-160407200D02*
X99561904Y-160359580D01*
X99561904Y-160359580D02*
X99609523Y-160264342D01*
X99609523Y-160264342D02*
X99609523Y-160026247D01*
X99609523Y-160026247D02*
X99561904Y-159931009D01*
X99561904Y-159931009D02*
X99514285Y-159883390D01*
X99514285Y-159883390D02*
X99419047Y-159835771D01*
X99419047Y-159835771D02*
X99228571Y-159835771D01*
X99228571Y-159835771D02*
X99133333Y-159883390D01*
X99133333Y-159883390D02*
X99085714Y-159931009D01*
X99085714Y-159931009D02*
X99038095Y-160026247D01*
X74761905Y-63054819D02*
X75333333Y-63054819D01*
X75047619Y-64054819D02*
X75047619Y-63054819D01*
X75666667Y-64054819D02*
X75666667Y-63054819D01*
X75666667Y-63054819D02*
X76047619Y-63054819D01*
X76047619Y-63054819D02*
X76142857Y-63102438D01*
X76142857Y-63102438D02*
X76190476Y-63150057D01*
X76190476Y-63150057D02*
X76238095Y-63245295D01*
X76238095Y-63245295D02*
X76238095Y-63388152D01*
X76238095Y-63388152D02*
X76190476Y-63483390D01*
X76190476Y-63483390D02*
X76142857Y-63531009D01*
X76142857Y-63531009D02*
X76047619Y-63578628D01*
X76047619Y-63578628D02*
X75666667Y-63578628D01*
X77190476Y-64054819D02*
X76619048Y-64054819D01*
X76904762Y-64054819D02*
X76904762Y-63054819D01*
X76904762Y-63054819D02*
X76809524Y-63197676D01*
X76809524Y-63197676D02*
X76714286Y-63292914D01*
X76714286Y-63292914D02*
X76619048Y-63340533D01*
X77571429Y-63150057D02*
X77619048Y-63102438D01*
X77619048Y-63102438D02*
X77714286Y-63054819D01*
X77714286Y-63054819D02*
X77952381Y-63054819D01*
X77952381Y-63054819D02*
X78047619Y-63102438D01*
X78047619Y-63102438D02*
X78095238Y-63150057D01*
X78095238Y-63150057D02*
X78142857Y-63245295D01*
X78142857Y-63245295D02*
X78142857Y-63340533D01*
X78142857Y-63340533D02*
X78095238Y-63483390D01*
X78095238Y-63483390D02*
X77523810Y-64054819D01*
X77523810Y-64054819D02*
X78142857Y-64054819D01*
X118454819Y-99222857D02*
X117978628Y-99556190D01*
X118454819Y-99794285D02*
X117454819Y-99794285D01*
X117454819Y-99794285D02*
X117454819Y-99413333D01*
X117454819Y-99413333D02*
X117502438Y-99318095D01*
X117502438Y-99318095D02*
X117550057Y-99270476D01*
X117550057Y-99270476D02*
X117645295Y-99222857D01*
X117645295Y-99222857D02*
X117788152Y-99222857D01*
X117788152Y-99222857D02*
X117883390Y-99270476D01*
X117883390Y-99270476D02*
X117931009Y-99318095D01*
X117931009Y-99318095D02*
X117978628Y-99413333D01*
X117978628Y-99413333D02*
X117978628Y-99794285D01*
X118454819Y-98270476D02*
X118454819Y-98841904D01*
X118454819Y-98556190D02*
X117454819Y-98556190D01*
X117454819Y-98556190D02*
X117597676Y-98651428D01*
X117597676Y-98651428D02*
X117692914Y-98746666D01*
X117692914Y-98746666D02*
X117740533Y-98841904D01*
X117550057Y-97889523D02*
X117502438Y-97841904D01*
X117502438Y-97841904D02*
X117454819Y-97746666D01*
X117454819Y-97746666D02*
X117454819Y-97508571D01*
X117454819Y-97508571D02*
X117502438Y-97413333D01*
X117502438Y-97413333D02*
X117550057Y-97365714D01*
X117550057Y-97365714D02*
X117645295Y-97318095D01*
X117645295Y-97318095D02*
X117740533Y-97318095D01*
X117740533Y-97318095D02*
X117883390Y-97365714D01*
X117883390Y-97365714D02*
X118454819Y-97937142D01*
X118454819Y-97937142D02*
X118454819Y-97318095D01*
X66837142Y-73154819D02*
X66503809Y-72678628D01*
X66265714Y-73154819D02*
X66265714Y-72154819D01*
X66265714Y-72154819D02*
X66646666Y-72154819D01*
X66646666Y-72154819D02*
X66741904Y-72202438D01*
X66741904Y-72202438D02*
X66789523Y-72250057D01*
X66789523Y-72250057D02*
X66837142Y-72345295D01*
X66837142Y-72345295D02*
X66837142Y-72488152D01*
X66837142Y-72488152D02*
X66789523Y-72583390D01*
X66789523Y-72583390D02*
X66741904Y-72631009D01*
X66741904Y-72631009D02*
X66646666Y-72678628D01*
X66646666Y-72678628D02*
X66265714Y-72678628D01*
X67170476Y-72154819D02*
X67789523Y-72154819D01*
X67789523Y-72154819D02*
X67456190Y-72535771D01*
X67456190Y-72535771D02*
X67599047Y-72535771D01*
X67599047Y-72535771D02*
X67694285Y-72583390D01*
X67694285Y-72583390D02*
X67741904Y-72631009D01*
X67741904Y-72631009D02*
X67789523Y-72726247D01*
X67789523Y-72726247D02*
X67789523Y-72964342D01*
X67789523Y-72964342D02*
X67741904Y-73059580D01*
X67741904Y-73059580D02*
X67694285Y-73107200D01*
X67694285Y-73107200D02*
X67599047Y-73154819D01*
X67599047Y-73154819D02*
X67313333Y-73154819D01*
X67313333Y-73154819D02*
X67218095Y-73107200D01*
X67218095Y-73107200D02*
X67170476Y-73059580D01*
X68646666Y-72488152D02*
X68646666Y-73154819D01*
X68408571Y-72107200D02*
X68170476Y-72821485D01*
X68170476Y-72821485D02*
X68789523Y-72821485D01*
X66521905Y-52654819D02*
X66521905Y-51654819D01*
X66521905Y-51654819D02*
X66760000Y-51654819D01*
X66760000Y-51654819D02*
X66902857Y-51702438D01*
X66902857Y-51702438D02*
X66998095Y-51797676D01*
X66998095Y-51797676D02*
X67045714Y-51892914D01*
X67045714Y-51892914D02*
X67093333Y-52083390D01*
X67093333Y-52083390D02*
X67093333Y-52226247D01*
X67093333Y-52226247D02*
X67045714Y-52416723D01*
X67045714Y-52416723D02*
X66998095Y-52511961D01*
X66998095Y-52511961D02*
X66902857Y-52607200D01*
X66902857Y-52607200D02*
X66760000Y-52654819D01*
X66760000Y-52654819D02*
X66521905Y-52654819D01*
X68045714Y-52654819D02*
X67474286Y-52654819D01*
X67760000Y-52654819D02*
X67760000Y-51654819D01*
X67760000Y-51654819D02*
X67664762Y-51797676D01*
X67664762Y-51797676D02*
X67569524Y-51892914D01*
X67569524Y-51892914D02*
X67474286Y-51940533D01*
X110404761Y-77454819D02*
X110071428Y-76978628D01*
X109833333Y-77454819D02*
X109833333Y-76454819D01*
X109833333Y-76454819D02*
X110214285Y-76454819D01*
X110214285Y-76454819D02*
X110309523Y-76502438D01*
X110309523Y-76502438D02*
X110357142Y-76550057D01*
X110357142Y-76550057D02*
X110404761Y-76645295D01*
X110404761Y-76645295D02*
X110404761Y-76788152D01*
X110404761Y-76788152D02*
X110357142Y-76883390D01*
X110357142Y-76883390D02*
X110309523Y-76931009D01*
X110309523Y-76931009D02*
X110214285Y-76978628D01*
X110214285Y-76978628D02*
X109833333Y-76978628D01*
X110690476Y-76454819D02*
X111023809Y-77454819D01*
X111023809Y-77454819D02*
X111357142Y-76454819D01*
X111642857Y-76550057D02*
X111690476Y-76502438D01*
X111690476Y-76502438D02*
X111785714Y-76454819D01*
X111785714Y-76454819D02*
X112023809Y-76454819D01*
X112023809Y-76454819D02*
X112119047Y-76502438D01*
X112119047Y-76502438D02*
X112166666Y-76550057D01*
X112166666Y-76550057D02*
X112214285Y-76645295D01*
X112214285Y-76645295D02*
X112214285Y-76740533D01*
X112214285Y-76740533D02*
X112166666Y-76883390D01*
X112166666Y-76883390D02*
X111595238Y-77454819D01*
X111595238Y-77454819D02*
X112214285Y-77454819D01*
X125966666Y-149724819D02*
X125966666Y-150439104D01*
X125966666Y-150439104D02*
X125919047Y-150581961D01*
X125919047Y-150581961D02*
X125823809Y-150677200D01*
X125823809Y-150677200D02*
X125680952Y-150724819D01*
X125680952Y-150724819D02*
X125585714Y-150724819D01*
X126871428Y-150058152D02*
X126871428Y-150724819D01*
X126633333Y-149677200D02*
X126395238Y-150391485D01*
X126395238Y-150391485D02*
X127014285Y-150391485D01*
X82838095Y-118954819D02*
X83409523Y-118954819D01*
X83123809Y-119954819D02*
X83123809Y-118954819D01*
X83742857Y-119954819D02*
X83742857Y-118954819D01*
X83742857Y-118954819D02*
X84123809Y-118954819D01*
X84123809Y-118954819D02*
X84219047Y-119002438D01*
X84219047Y-119002438D02*
X84266666Y-119050057D01*
X84266666Y-119050057D02*
X84314285Y-119145295D01*
X84314285Y-119145295D02*
X84314285Y-119288152D01*
X84314285Y-119288152D02*
X84266666Y-119383390D01*
X84266666Y-119383390D02*
X84219047Y-119431009D01*
X84219047Y-119431009D02*
X84123809Y-119478628D01*
X84123809Y-119478628D02*
X83742857Y-119478628D01*
X84647619Y-118954819D02*
X85314285Y-118954819D01*
X85314285Y-118954819D02*
X84885714Y-119954819D01*
X83454819Y-95146666D02*
X82978628Y-95479999D01*
X83454819Y-95718094D02*
X82454819Y-95718094D01*
X82454819Y-95718094D02*
X82454819Y-95337142D01*
X82454819Y-95337142D02*
X82502438Y-95241904D01*
X82502438Y-95241904D02*
X82550057Y-95194285D01*
X82550057Y-95194285D02*
X82645295Y-95146666D01*
X82645295Y-95146666D02*
X82788152Y-95146666D01*
X82788152Y-95146666D02*
X82883390Y-95194285D01*
X82883390Y-95194285D02*
X82931009Y-95241904D01*
X82931009Y-95241904D02*
X82978628Y-95337142D01*
X82978628Y-95337142D02*
X82978628Y-95718094D01*
X82454819Y-94289523D02*
X82454819Y-94479999D01*
X82454819Y-94479999D02*
X82502438Y-94575237D01*
X82502438Y-94575237D02*
X82550057Y-94622856D01*
X82550057Y-94622856D02*
X82692914Y-94718094D01*
X82692914Y-94718094D02*
X82883390Y-94765713D01*
X82883390Y-94765713D02*
X83264342Y-94765713D01*
X83264342Y-94765713D02*
X83359580Y-94718094D01*
X83359580Y-94718094D02*
X83407200Y-94670475D01*
X83407200Y-94670475D02*
X83454819Y-94575237D01*
X83454819Y-94575237D02*
X83454819Y-94384761D01*
X83454819Y-94384761D02*
X83407200Y-94289523D01*
X83407200Y-94289523D02*
X83359580Y-94241904D01*
X83359580Y-94241904D02*
X83264342Y-94194285D01*
X83264342Y-94194285D02*
X83026247Y-94194285D01*
X83026247Y-94194285D02*
X82931009Y-94241904D01*
X82931009Y-94241904D02*
X82883390Y-94289523D01*
X82883390Y-94289523D02*
X82835771Y-94384761D01*
X82835771Y-94384761D02*
X82835771Y-94575237D01*
X82835771Y-94575237D02*
X82883390Y-94670475D01*
X82883390Y-94670475D02*
X82931009Y-94718094D01*
X82931009Y-94718094D02*
X83026247Y-94765713D01*
X110404761Y-120454819D02*
X110071428Y-119978628D01*
X109833333Y-120454819D02*
X109833333Y-119454819D01*
X109833333Y-119454819D02*
X110214285Y-119454819D01*
X110214285Y-119454819D02*
X110309523Y-119502438D01*
X110309523Y-119502438D02*
X110357142Y-119550057D01*
X110357142Y-119550057D02*
X110404761Y-119645295D01*
X110404761Y-119645295D02*
X110404761Y-119788152D01*
X110404761Y-119788152D02*
X110357142Y-119883390D01*
X110357142Y-119883390D02*
X110309523Y-119931009D01*
X110309523Y-119931009D02*
X110214285Y-119978628D01*
X110214285Y-119978628D02*
X109833333Y-119978628D01*
X110690476Y-119454819D02*
X111023809Y-120454819D01*
X111023809Y-120454819D02*
X111357142Y-119454819D01*
X112119047Y-119788152D02*
X112119047Y-120454819D01*
X111880952Y-119407200D02*
X111642857Y-120121485D01*
X111642857Y-120121485D02*
X112261904Y-120121485D01*
X63030057Y-82165238D02*
X62982438Y-82260476D01*
X62982438Y-82260476D02*
X62887200Y-82355714D01*
X62887200Y-82355714D02*
X62744342Y-82498571D01*
X62744342Y-82498571D02*
X62696723Y-82593809D01*
X62696723Y-82593809D02*
X62696723Y-82689047D01*
X62934819Y-82641428D02*
X62887200Y-82736666D01*
X62887200Y-82736666D02*
X62791961Y-82831904D01*
X62791961Y-82831904D02*
X62601485Y-82879523D01*
X62601485Y-82879523D02*
X62268152Y-82879523D01*
X62268152Y-82879523D02*
X62077676Y-82831904D01*
X62077676Y-82831904D02*
X61982438Y-82736666D01*
X61982438Y-82736666D02*
X61934819Y-82641428D01*
X61934819Y-82641428D02*
X61934819Y-82450952D01*
X61934819Y-82450952D02*
X61982438Y-82355714D01*
X61982438Y-82355714D02*
X62077676Y-82260476D01*
X62077676Y-82260476D02*
X62268152Y-82212857D01*
X62268152Y-82212857D02*
X62601485Y-82212857D01*
X62601485Y-82212857D02*
X62791961Y-82260476D01*
X62791961Y-82260476D02*
X62887200Y-82355714D01*
X62887200Y-82355714D02*
X62934819Y-82450952D01*
X62934819Y-82450952D02*
X62934819Y-82641428D01*
X62934819Y-81260476D02*
X62934819Y-81831904D01*
X62934819Y-81546190D02*
X61934819Y-81546190D01*
X61934819Y-81546190D02*
X62077676Y-81641428D01*
X62077676Y-81641428D02*
X62172914Y-81736666D01*
X62172914Y-81736666D02*
X62220533Y-81831904D01*
X65350057Y-155205238D02*
X65302438Y-155300476D01*
X65302438Y-155300476D02*
X65207200Y-155395714D01*
X65207200Y-155395714D02*
X65064342Y-155538571D01*
X65064342Y-155538571D02*
X65016723Y-155633809D01*
X65016723Y-155633809D02*
X65016723Y-155729047D01*
X65254819Y-155681428D02*
X65207200Y-155776666D01*
X65207200Y-155776666D02*
X65111961Y-155871904D01*
X65111961Y-155871904D02*
X64921485Y-155919523D01*
X64921485Y-155919523D02*
X64588152Y-155919523D01*
X64588152Y-155919523D02*
X64397676Y-155871904D01*
X64397676Y-155871904D02*
X64302438Y-155776666D01*
X64302438Y-155776666D02*
X64254819Y-155681428D01*
X64254819Y-155681428D02*
X64254819Y-155490952D01*
X64254819Y-155490952D02*
X64302438Y-155395714D01*
X64302438Y-155395714D02*
X64397676Y-155300476D01*
X64397676Y-155300476D02*
X64588152Y-155252857D01*
X64588152Y-155252857D02*
X64921485Y-155252857D01*
X64921485Y-155252857D02*
X65111961Y-155300476D01*
X65111961Y-155300476D02*
X65207200Y-155395714D01*
X65207200Y-155395714D02*
X65254819Y-155490952D01*
X65254819Y-155490952D02*
X65254819Y-155681428D01*
X64254819Y-154919523D02*
X64254819Y-154300476D01*
X64254819Y-154300476D02*
X64635771Y-154633809D01*
X64635771Y-154633809D02*
X64635771Y-154490952D01*
X64635771Y-154490952D02*
X64683390Y-154395714D01*
X64683390Y-154395714D02*
X64731009Y-154348095D01*
X64731009Y-154348095D02*
X64826247Y-154300476D01*
X64826247Y-154300476D02*
X65064342Y-154300476D01*
X65064342Y-154300476D02*
X65159580Y-154348095D01*
X65159580Y-154348095D02*
X65207200Y-154395714D01*
X65207200Y-154395714D02*
X65254819Y-154490952D01*
X65254819Y-154490952D02*
X65254819Y-154776666D01*
X65254819Y-154776666D02*
X65207200Y-154871904D01*
X65207200Y-154871904D02*
X65159580Y-154919523D01*
X71738095Y-86754819D02*
X72309523Y-86754819D01*
X72023809Y-87754819D02*
X72023809Y-86754819D01*
X72642857Y-87754819D02*
X72642857Y-86754819D01*
X72642857Y-86754819D02*
X73023809Y-86754819D01*
X73023809Y-86754819D02*
X73119047Y-86802438D01*
X73119047Y-86802438D02*
X73166666Y-86850057D01*
X73166666Y-86850057D02*
X73214285Y-86945295D01*
X73214285Y-86945295D02*
X73214285Y-87088152D01*
X73214285Y-87088152D02*
X73166666Y-87183390D01*
X73166666Y-87183390D02*
X73119047Y-87231009D01*
X73119047Y-87231009D02*
X73023809Y-87278628D01*
X73023809Y-87278628D02*
X72642857Y-87278628D01*
X73595238Y-86850057D02*
X73642857Y-86802438D01*
X73642857Y-86802438D02*
X73738095Y-86754819D01*
X73738095Y-86754819D02*
X73976190Y-86754819D01*
X73976190Y-86754819D02*
X74071428Y-86802438D01*
X74071428Y-86802438D02*
X74119047Y-86850057D01*
X74119047Y-86850057D02*
X74166666Y-86945295D01*
X74166666Y-86945295D02*
X74166666Y-87040533D01*
X74166666Y-87040533D02*
X74119047Y-87183390D01*
X74119047Y-87183390D02*
X73547619Y-87754819D01*
X73547619Y-87754819D02*
X74166666Y-87754819D01*
X74861905Y-59954819D02*
X75433333Y-59954819D01*
X75147619Y-60954819D02*
X75147619Y-59954819D01*
X75766667Y-60954819D02*
X75766667Y-59954819D01*
X75766667Y-59954819D02*
X76147619Y-59954819D01*
X76147619Y-59954819D02*
X76242857Y-60002438D01*
X76242857Y-60002438D02*
X76290476Y-60050057D01*
X76290476Y-60050057D02*
X76338095Y-60145295D01*
X76338095Y-60145295D02*
X76338095Y-60288152D01*
X76338095Y-60288152D02*
X76290476Y-60383390D01*
X76290476Y-60383390D02*
X76242857Y-60431009D01*
X76242857Y-60431009D02*
X76147619Y-60478628D01*
X76147619Y-60478628D02*
X75766667Y-60478628D01*
X77290476Y-60954819D02*
X76719048Y-60954819D01*
X77004762Y-60954819D02*
X77004762Y-59954819D01*
X77004762Y-59954819D02*
X76909524Y-60097676D01*
X76909524Y-60097676D02*
X76814286Y-60192914D01*
X76814286Y-60192914D02*
X76719048Y-60240533D01*
X78242857Y-60954819D02*
X77671429Y-60954819D01*
X77957143Y-60954819D02*
X77957143Y-59954819D01*
X77957143Y-59954819D02*
X77861905Y-60097676D01*
X77861905Y-60097676D02*
X77766667Y-60192914D01*
X77766667Y-60192914D02*
X77671429Y-60240533D01*
X107954819Y-99222857D02*
X107478628Y-99556190D01*
X107954819Y-99794285D02*
X106954819Y-99794285D01*
X106954819Y-99794285D02*
X106954819Y-99413333D01*
X106954819Y-99413333D02*
X107002438Y-99318095D01*
X107002438Y-99318095D02*
X107050057Y-99270476D01*
X107050057Y-99270476D02*
X107145295Y-99222857D01*
X107145295Y-99222857D02*
X107288152Y-99222857D01*
X107288152Y-99222857D02*
X107383390Y-99270476D01*
X107383390Y-99270476D02*
X107431009Y-99318095D01*
X107431009Y-99318095D02*
X107478628Y-99413333D01*
X107478628Y-99413333D02*
X107478628Y-99794285D01*
X107954819Y-98270476D02*
X107954819Y-98841904D01*
X107954819Y-98556190D02*
X106954819Y-98556190D01*
X106954819Y-98556190D02*
X107097676Y-98651428D01*
X107097676Y-98651428D02*
X107192914Y-98746666D01*
X107192914Y-98746666D02*
X107240533Y-98841904D01*
X106954819Y-97365714D02*
X106954819Y-97841904D01*
X106954819Y-97841904D02*
X107431009Y-97889523D01*
X107431009Y-97889523D02*
X107383390Y-97841904D01*
X107383390Y-97841904D02*
X107335771Y-97746666D01*
X107335771Y-97746666D02*
X107335771Y-97508571D01*
X107335771Y-97508571D02*
X107383390Y-97413333D01*
X107383390Y-97413333D02*
X107431009Y-97365714D01*
X107431009Y-97365714D02*
X107526247Y-97318095D01*
X107526247Y-97318095D02*
X107764342Y-97318095D01*
X107764342Y-97318095D02*
X107859580Y-97365714D01*
X107859580Y-97365714D02*
X107907200Y-97413333D01*
X107907200Y-97413333D02*
X107954819Y-97508571D01*
X107954819Y-97508571D02*
X107954819Y-97746666D01*
X107954819Y-97746666D02*
X107907200Y-97841904D01*
X107907200Y-97841904D02*
X107859580Y-97889523D01*
X56838095Y-160454819D02*
X56838095Y-159454819D01*
X56838095Y-159931009D02*
X57409523Y-159931009D01*
X57409523Y-160454819D02*
X57409523Y-159454819D01*
X58028571Y-159883390D02*
X57933333Y-159835771D01*
X57933333Y-159835771D02*
X57885714Y-159788152D01*
X57885714Y-159788152D02*
X57838095Y-159692914D01*
X57838095Y-159692914D02*
X57838095Y-159645295D01*
X57838095Y-159645295D02*
X57885714Y-159550057D01*
X57885714Y-159550057D02*
X57933333Y-159502438D01*
X57933333Y-159502438D02*
X58028571Y-159454819D01*
X58028571Y-159454819D02*
X58219047Y-159454819D01*
X58219047Y-159454819D02*
X58314285Y-159502438D01*
X58314285Y-159502438D02*
X58361904Y-159550057D01*
X58361904Y-159550057D02*
X58409523Y-159645295D01*
X58409523Y-159645295D02*
X58409523Y-159692914D01*
X58409523Y-159692914D02*
X58361904Y-159788152D01*
X58361904Y-159788152D02*
X58314285Y-159835771D01*
X58314285Y-159835771D02*
X58219047Y-159883390D01*
X58219047Y-159883390D02*
X58028571Y-159883390D01*
X58028571Y-159883390D02*
X57933333Y-159931009D01*
X57933333Y-159931009D02*
X57885714Y-159978628D01*
X57885714Y-159978628D02*
X57838095Y-160073866D01*
X57838095Y-160073866D02*
X57838095Y-160264342D01*
X57838095Y-160264342D02*
X57885714Y-160359580D01*
X57885714Y-160359580D02*
X57933333Y-160407200D01*
X57933333Y-160407200D02*
X58028571Y-160454819D01*
X58028571Y-160454819D02*
X58219047Y-160454819D01*
X58219047Y-160454819D02*
X58314285Y-160407200D01*
X58314285Y-160407200D02*
X58361904Y-160359580D01*
X58361904Y-160359580D02*
X58409523Y-160264342D01*
X58409523Y-160264342D02*
X58409523Y-160073866D01*
X58409523Y-160073866D02*
X58361904Y-159978628D01*
X58361904Y-159978628D02*
X58314285Y-159931009D01*
X58314285Y-159931009D02*
X58219047Y-159883390D01*
X58454819Y-139142857D02*
X57978628Y-139476190D01*
X58454819Y-139714285D02*
X57454819Y-139714285D01*
X57454819Y-139714285D02*
X57454819Y-139333333D01*
X57454819Y-139333333D02*
X57502438Y-139238095D01*
X57502438Y-139238095D02*
X57550057Y-139190476D01*
X57550057Y-139190476D02*
X57645295Y-139142857D01*
X57645295Y-139142857D02*
X57788152Y-139142857D01*
X57788152Y-139142857D02*
X57883390Y-139190476D01*
X57883390Y-139190476D02*
X57931009Y-139238095D01*
X57931009Y-139238095D02*
X57978628Y-139333333D01*
X57978628Y-139333333D02*
X57978628Y-139714285D01*
X57454819Y-138809523D02*
X57454819Y-138190476D01*
X57454819Y-138190476D02*
X57835771Y-138523809D01*
X57835771Y-138523809D02*
X57835771Y-138380952D01*
X57835771Y-138380952D02*
X57883390Y-138285714D01*
X57883390Y-138285714D02*
X57931009Y-138238095D01*
X57931009Y-138238095D02*
X58026247Y-138190476D01*
X58026247Y-138190476D02*
X58264342Y-138190476D01*
X58264342Y-138190476D02*
X58359580Y-138238095D01*
X58359580Y-138238095D02*
X58407200Y-138285714D01*
X58407200Y-138285714D02*
X58454819Y-138380952D01*
X58454819Y-138380952D02*
X58454819Y-138666666D01*
X58454819Y-138666666D02*
X58407200Y-138761904D01*
X58407200Y-138761904D02*
X58359580Y-138809523D01*
X57454819Y-137571428D02*
X57454819Y-137476190D01*
X57454819Y-137476190D02*
X57502438Y-137380952D01*
X57502438Y-137380952D02*
X57550057Y-137333333D01*
X57550057Y-137333333D02*
X57645295Y-137285714D01*
X57645295Y-137285714D02*
X57835771Y-137238095D01*
X57835771Y-137238095D02*
X58073866Y-137238095D01*
X58073866Y-137238095D02*
X58264342Y-137285714D01*
X58264342Y-137285714D02*
X58359580Y-137333333D01*
X58359580Y-137333333D02*
X58407200Y-137380952D01*
X58407200Y-137380952D02*
X58454819Y-137476190D01*
X58454819Y-137476190D02*
X58454819Y-137571428D01*
X58454819Y-137571428D02*
X58407200Y-137666666D01*
X58407200Y-137666666D02*
X58359580Y-137714285D01*
X58359580Y-137714285D02*
X58264342Y-137761904D01*
X58264342Y-137761904D02*
X58073866Y-137809523D01*
X58073866Y-137809523D02*
X57835771Y-137809523D01*
X57835771Y-137809523D02*
X57645295Y-137761904D01*
X57645295Y-137761904D02*
X57550057Y-137714285D01*
X57550057Y-137714285D02*
X57502438Y-137666666D01*
X57502438Y-137666666D02*
X57454819Y-137571428D01*
X94038095Y-78254819D02*
X94038095Y-77254819D01*
X94038095Y-77731009D02*
X94609523Y-77731009D01*
X94609523Y-78254819D02*
X94609523Y-77254819D01*
X95133333Y-78254819D02*
X95323809Y-78254819D01*
X95323809Y-78254819D02*
X95419047Y-78207200D01*
X95419047Y-78207200D02*
X95466666Y-78159580D01*
X95466666Y-78159580D02*
X95561904Y-78016723D01*
X95561904Y-78016723D02*
X95609523Y-77826247D01*
X95609523Y-77826247D02*
X95609523Y-77445295D01*
X95609523Y-77445295D02*
X95561904Y-77350057D01*
X95561904Y-77350057D02*
X95514285Y-77302438D01*
X95514285Y-77302438D02*
X95419047Y-77254819D01*
X95419047Y-77254819D02*
X95228571Y-77254819D01*
X95228571Y-77254819D02*
X95133333Y-77302438D01*
X95133333Y-77302438D02*
X95085714Y-77350057D01*
X95085714Y-77350057D02*
X95038095Y-77445295D01*
X95038095Y-77445295D02*
X95038095Y-77683390D01*
X95038095Y-77683390D02*
X95085714Y-77778628D01*
X95085714Y-77778628D02*
X95133333Y-77826247D01*
X95133333Y-77826247D02*
X95228571Y-77873866D01*
X95228571Y-77873866D02*
X95419047Y-77873866D01*
X95419047Y-77873866D02*
X95514285Y-77826247D01*
X95514285Y-77826247D02*
X95561904Y-77778628D01*
X95561904Y-77778628D02*
X95609523Y-77683390D01*
X77738095Y-148004819D02*
X78309523Y-148004819D01*
X78023809Y-149004819D02*
X78023809Y-148004819D01*
X78642857Y-149004819D02*
X78642857Y-148004819D01*
X78642857Y-148004819D02*
X79023809Y-148004819D01*
X79023809Y-148004819D02*
X79119047Y-148052438D01*
X79119047Y-148052438D02*
X79166666Y-148100057D01*
X79166666Y-148100057D02*
X79214285Y-148195295D01*
X79214285Y-148195295D02*
X79214285Y-148338152D01*
X79214285Y-148338152D02*
X79166666Y-148433390D01*
X79166666Y-148433390D02*
X79119047Y-148481009D01*
X79119047Y-148481009D02*
X79023809Y-148528628D01*
X79023809Y-148528628D02*
X78642857Y-148528628D01*
X79785714Y-148433390D02*
X79690476Y-148385771D01*
X79690476Y-148385771D02*
X79642857Y-148338152D01*
X79642857Y-148338152D02*
X79595238Y-148242914D01*
X79595238Y-148242914D02*
X79595238Y-148195295D01*
X79595238Y-148195295D02*
X79642857Y-148100057D01*
X79642857Y-148100057D02*
X79690476Y-148052438D01*
X79690476Y-148052438D02*
X79785714Y-148004819D01*
X79785714Y-148004819D02*
X79976190Y-148004819D01*
X79976190Y-148004819D02*
X80071428Y-148052438D01*
X80071428Y-148052438D02*
X80119047Y-148100057D01*
X80119047Y-148100057D02*
X80166666Y-148195295D01*
X80166666Y-148195295D02*
X80166666Y-148242914D01*
X80166666Y-148242914D02*
X80119047Y-148338152D01*
X80119047Y-148338152D02*
X80071428Y-148385771D01*
X80071428Y-148385771D02*
X79976190Y-148433390D01*
X79976190Y-148433390D02*
X79785714Y-148433390D01*
X79785714Y-148433390D02*
X79690476Y-148481009D01*
X79690476Y-148481009D02*
X79642857Y-148528628D01*
X79642857Y-148528628D02*
X79595238Y-148623866D01*
X79595238Y-148623866D02*
X79595238Y-148814342D01*
X79595238Y-148814342D02*
X79642857Y-148909580D01*
X79642857Y-148909580D02*
X79690476Y-148957200D01*
X79690476Y-148957200D02*
X79785714Y-149004819D01*
X79785714Y-149004819D02*
X79976190Y-149004819D01*
X79976190Y-149004819D02*
X80071428Y-148957200D01*
X80071428Y-148957200D02*
X80119047Y-148909580D01*
X80119047Y-148909580D02*
X80166666Y-148814342D01*
X80166666Y-148814342D02*
X80166666Y-148623866D01*
X80166666Y-148623866D02*
X80119047Y-148528628D01*
X80119047Y-148528628D02*
X80071428Y-148481009D01*
X80071428Y-148481009D02*
X79976190Y-148433390D01*
X114954819Y-98746666D02*
X114478628Y-99079999D01*
X114954819Y-99318094D02*
X113954819Y-99318094D01*
X113954819Y-99318094D02*
X113954819Y-98937142D01*
X113954819Y-98937142D02*
X114002438Y-98841904D01*
X114002438Y-98841904D02*
X114050057Y-98794285D01*
X114050057Y-98794285D02*
X114145295Y-98746666D01*
X114145295Y-98746666D02*
X114288152Y-98746666D01*
X114288152Y-98746666D02*
X114383390Y-98794285D01*
X114383390Y-98794285D02*
X114431009Y-98841904D01*
X114431009Y-98841904D02*
X114478628Y-98937142D01*
X114478628Y-98937142D02*
X114478628Y-99318094D01*
X114383390Y-98175237D02*
X114335771Y-98270475D01*
X114335771Y-98270475D02*
X114288152Y-98318094D01*
X114288152Y-98318094D02*
X114192914Y-98365713D01*
X114192914Y-98365713D02*
X114145295Y-98365713D01*
X114145295Y-98365713D02*
X114050057Y-98318094D01*
X114050057Y-98318094D02*
X114002438Y-98270475D01*
X114002438Y-98270475D02*
X113954819Y-98175237D01*
X113954819Y-98175237D02*
X113954819Y-97984761D01*
X113954819Y-97984761D02*
X114002438Y-97889523D01*
X114002438Y-97889523D02*
X114050057Y-97841904D01*
X114050057Y-97841904D02*
X114145295Y-97794285D01*
X114145295Y-97794285D02*
X114192914Y-97794285D01*
X114192914Y-97794285D02*
X114288152Y-97841904D01*
X114288152Y-97841904D02*
X114335771Y-97889523D01*
X114335771Y-97889523D02*
X114383390Y-97984761D01*
X114383390Y-97984761D02*
X114383390Y-98175237D01*
X114383390Y-98175237D02*
X114431009Y-98270475D01*
X114431009Y-98270475D02*
X114478628Y-98318094D01*
X114478628Y-98318094D02*
X114573866Y-98365713D01*
X114573866Y-98365713D02*
X114764342Y-98365713D01*
X114764342Y-98365713D02*
X114859580Y-98318094D01*
X114859580Y-98318094D02*
X114907200Y-98270475D01*
X114907200Y-98270475D02*
X114954819Y-98175237D01*
X114954819Y-98175237D02*
X114954819Y-97984761D01*
X114954819Y-97984761D02*
X114907200Y-97889523D01*
X114907200Y-97889523D02*
X114859580Y-97841904D01*
X114859580Y-97841904D02*
X114764342Y-97794285D01*
X114764342Y-97794285D02*
X114573866Y-97794285D01*
X114573866Y-97794285D02*
X114478628Y-97841904D01*
X114478628Y-97841904D02*
X114431009Y-97889523D01*
X114431009Y-97889523D02*
X114383390Y-97984761D01*
X80444819Y-113951904D02*
X81254342Y-113951904D01*
X81254342Y-113951904D02*
X81349580Y-113904285D01*
X81349580Y-113904285D02*
X81397200Y-113856666D01*
X81397200Y-113856666D02*
X81444819Y-113761428D01*
X81444819Y-113761428D02*
X81444819Y-113570952D01*
X81444819Y-113570952D02*
X81397200Y-113475714D01*
X81397200Y-113475714D02*
X81349580Y-113428095D01*
X81349580Y-113428095D02*
X81254342Y-113380476D01*
X81254342Y-113380476D02*
X80444819Y-113380476D01*
X81444819Y-112380476D02*
X81444819Y-112951904D01*
X81444819Y-112666190D02*
X80444819Y-112666190D01*
X80444819Y-112666190D02*
X80587676Y-112761428D01*
X80587676Y-112761428D02*
X80682914Y-112856666D01*
X80682914Y-112856666D02*
X80730533Y-112951904D01*
X78330057Y-155195238D02*
X78282438Y-155290476D01*
X78282438Y-155290476D02*
X78187200Y-155385714D01*
X78187200Y-155385714D02*
X78044342Y-155528571D01*
X78044342Y-155528571D02*
X77996723Y-155623809D01*
X77996723Y-155623809D02*
X77996723Y-155719047D01*
X78234819Y-155671428D02*
X78187200Y-155766666D01*
X78187200Y-155766666D02*
X78091961Y-155861904D01*
X78091961Y-155861904D02*
X77901485Y-155909523D01*
X77901485Y-155909523D02*
X77568152Y-155909523D01*
X77568152Y-155909523D02*
X77377676Y-155861904D01*
X77377676Y-155861904D02*
X77282438Y-155766666D01*
X77282438Y-155766666D02*
X77234819Y-155671428D01*
X77234819Y-155671428D02*
X77234819Y-155480952D01*
X77234819Y-155480952D02*
X77282438Y-155385714D01*
X77282438Y-155385714D02*
X77377676Y-155290476D01*
X77377676Y-155290476D02*
X77568152Y-155242857D01*
X77568152Y-155242857D02*
X77901485Y-155242857D01*
X77901485Y-155242857D02*
X78091961Y-155290476D01*
X78091961Y-155290476D02*
X78187200Y-155385714D01*
X78187200Y-155385714D02*
X78234819Y-155480952D01*
X78234819Y-155480952D02*
X78234819Y-155671428D01*
X77568152Y-154385714D02*
X78234819Y-154385714D01*
X77187200Y-154623809D02*
X77901485Y-154861904D01*
X77901485Y-154861904D02*
X77901485Y-154242857D01*
X95366666Y-58434819D02*
X95366666Y-59149104D01*
X95366666Y-59149104D02*
X95319047Y-59291961D01*
X95319047Y-59291961D02*
X95223809Y-59387200D01*
X95223809Y-59387200D02*
X95080952Y-59434819D01*
X95080952Y-59434819D02*
X94985714Y-59434819D01*
X95795238Y-58530057D02*
X95842857Y-58482438D01*
X95842857Y-58482438D02*
X95938095Y-58434819D01*
X95938095Y-58434819D02*
X96176190Y-58434819D01*
X96176190Y-58434819D02*
X96271428Y-58482438D01*
X96271428Y-58482438D02*
X96319047Y-58530057D01*
X96319047Y-58530057D02*
X96366666Y-58625295D01*
X96366666Y-58625295D02*
X96366666Y-58720533D01*
X96366666Y-58720533D02*
X96319047Y-58863390D01*
X96319047Y-58863390D02*
X95747619Y-59434819D01*
X95747619Y-59434819D02*
X96366666Y-59434819D01*
X54238095Y-86654819D02*
X54809523Y-86654819D01*
X54523809Y-87654819D02*
X54523809Y-86654819D01*
X55142857Y-87654819D02*
X55142857Y-86654819D01*
X55142857Y-86654819D02*
X55523809Y-86654819D01*
X55523809Y-86654819D02*
X55619047Y-86702438D01*
X55619047Y-86702438D02*
X55666666Y-86750057D01*
X55666666Y-86750057D02*
X55714285Y-86845295D01*
X55714285Y-86845295D02*
X55714285Y-86988152D01*
X55714285Y-86988152D02*
X55666666Y-87083390D01*
X55666666Y-87083390D02*
X55619047Y-87131009D01*
X55619047Y-87131009D02*
X55523809Y-87178628D01*
X55523809Y-87178628D02*
X55142857Y-87178628D01*
X56619047Y-86654819D02*
X56142857Y-86654819D01*
X56142857Y-86654819D02*
X56095238Y-87131009D01*
X56095238Y-87131009D02*
X56142857Y-87083390D01*
X56142857Y-87083390D02*
X56238095Y-87035771D01*
X56238095Y-87035771D02*
X56476190Y-87035771D01*
X56476190Y-87035771D02*
X56571428Y-87083390D01*
X56571428Y-87083390D02*
X56619047Y-87131009D01*
X56619047Y-87131009D02*
X56666666Y-87226247D01*
X56666666Y-87226247D02*
X56666666Y-87464342D01*
X56666666Y-87464342D02*
X56619047Y-87559580D01*
X56619047Y-87559580D02*
X56571428Y-87607200D01*
X56571428Y-87607200D02*
X56476190Y-87654819D01*
X56476190Y-87654819D02*
X56238095Y-87654819D01*
X56238095Y-87654819D02*
X56142857Y-87607200D01*
X56142857Y-87607200D02*
X56095238Y-87559580D01*
X75954819Y-139142857D02*
X75478628Y-139476190D01*
X75954819Y-139714285D02*
X74954819Y-139714285D01*
X74954819Y-139714285D02*
X74954819Y-139333333D01*
X74954819Y-139333333D02*
X75002438Y-139238095D01*
X75002438Y-139238095D02*
X75050057Y-139190476D01*
X75050057Y-139190476D02*
X75145295Y-139142857D01*
X75145295Y-139142857D02*
X75288152Y-139142857D01*
X75288152Y-139142857D02*
X75383390Y-139190476D01*
X75383390Y-139190476D02*
X75431009Y-139238095D01*
X75431009Y-139238095D02*
X75478628Y-139333333D01*
X75478628Y-139333333D02*
X75478628Y-139714285D01*
X75954819Y-138190476D02*
X75954819Y-138761904D01*
X75954819Y-138476190D02*
X74954819Y-138476190D01*
X74954819Y-138476190D02*
X75097676Y-138571428D01*
X75097676Y-138571428D02*
X75192914Y-138666666D01*
X75192914Y-138666666D02*
X75240533Y-138761904D01*
X75383390Y-137619047D02*
X75335771Y-137714285D01*
X75335771Y-137714285D02*
X75288152Y-137761904D01*
X75288152Y-137761904D02*
X75192914Y-137809523D01*
X75192914Y-137809523D02*
X75145295Y-137809523D01*
X75145295Y-137809523D02*
X75050057Y-137761904D01*
X75050057Y-137761904D02*
X75002438Y-137714285D01*
X75002438Y-137714285D02*
X74954819Y-137619047D01*
X74954819Y-137619047D02*
X74954819Y-137428571D01*
X74954819Y-137428571D02*
X75002438Y-137333333D01*
X75002438Y-137333333D02*
X75050057Y-137285714D01*
X75050057Y-137285714D02*
X75145295Y-137238095D01*
X75145295Y-137238095D02*
X75192914Y-137238095D01*
X75192914Y-137238095D02*
X75288152Y-137285714D01*
X75288152Y-137285714D02*
X75335771Y-137333333D01*
X75335771Y-137333333D02*
X75383390Y-137428571D01*
X75383390Y-137428571D02*
X75383390Y-137619047D01*
X75383390Y-137619047D02*
X75431009Y-137714285D01*
X75431009Y-137714285D02*
X75478628Y-137761904D01*
X75478628Y-137761904D02*
X75573866Y-137809523D01*
X75573866Y-137809523D02*
X75764342Y-137809523D01*
X75764342Y-137809523D02*
X75859580Y-137761904D01*
X75859580Y-137761904D02*
X75907200Y-137714285D01*
X75907200Y-137714285D02*
X75954819Y-137619047D01*
X75954819Y-137619047D02*
X75954819Y-137428571D01*
X75954819Y-137428571D02*
X75907200Y-137333333D01*
X75907200Y-137333333D02*
X75859580Y-137285714D01*
X75859580Y-137285714D02*
X75764342Y-137238095D01*
X75764342Y-137238095D02*
X75573866Y-137238095D01*
X75573866Y-137238095D02*
X75478628Y-137285714D01*
X75478628Y-137285714D02*
X75431009Y-137333333D01*
X75431009Y-137333333D02*
X75383390Y-137428571D01*
D11*
X102630000Y-95280000D02*
X102630000Y-101820000D01*
X102630000Y-101820000D02*
X105370000Y-101820000D01*
X104000000Y-94510000D02*
X104000000Y-95280000D01*
X104000000Y-102590000D02*
X104000000Y-101820000D01*
X105370000Y-95280000D02*
X102630000Y-95280000D01*
X105370000Y-101820000D02*
X105370000Y-95280000D01*
X57130000Y-91760000D02*
X57130000Y-98300000D01*
X57130000Y-98300000D02*
X59870000Y-98300000D01*
X58500000Y-90990000D02*
X58500000Y-91760000D01*
X58500000Y-99070000D02*
X58500000Y-98300000D01*
X59870000Y-91760000D02*
X57130000Y-91760000D01*
X59870000Y-98300000D02*
X59870000Y-91760000D01*
X84630000Y-135260000D02*
X84630000Y-141800000D01*
X84630000Y-141800000D02*
X87370000Y-141800000D01*
X86000000Y-134490000D02*
X86000000Y-135260000D01*
X86000000Y-142570000D02*
X86000000Y-141800000D01*
X87370000Y-135260000D02*
X84630000Y-135260000D01*
X87370000Y-141800000D02*
X87370000Y-135260000D01*
X106500000Y-137170000D02*
X110200000Y-137170000D01*
X106500000Y-147670000D02*
X106500000Y-137170000D01*
X106500000Y-147670000D02*
X110280000Y-147670000D01*
X111720000Y-147670000D02*
X115500000Y-147670000D01*
X111800000Y-137170000D02*
X115500000Y-137170000D01*
X112230000Y-150820000D02*
X111370000Y-150820000D01*
X112230000Y-150820000D02*
X112230000Y-150020000D01*
X115500000Y-147670000D02*
X115500000Y-137170000D01*
X112800000Y-143170000D02*
G75*
G02*
X109200000Y-143170000I-1800000J0D01*
G01*
X109200000Y-143170000D02*
G75*
G02*
X112800000Y-143170000I1800000J0D01*
G01*
X74630000Y-91700000D02*
X74630000Y-98240000D01*
X74630000Y-98240000D02*
X77370000Y-98240000D01*
X76000000Y-90930000D02*
X76000000Y-91700000D01*
X76000000Y-99010000D02*
X76000000Y-98240000D01*
X77370000Y-91700000D02*
X74630000Y-91700000D01*
X77370000Y-98240000D02*
X77370000Y-91700000D01*
X78130000Y-91700000D02*
X78130000Y-98240000D01*
X78130000Y-98240000D02*
X80870000Y-98240000D01*
X79500000Y-90930000D02*
X79500000Y-91700000D01*
X79500000Y-99010000D02*
X79500000Y-98240000D01*
X80870000Y-91700000D02*
X78130000Y-91700000D01*
X80870000Y-98240000D02*
X80870000Y-91700000D01*
X71130000Y-91680000D02*
X71130000Y-98220000D01*
X71130000Y-98220000D02*
X73870000Y-98220000D01*
X72500000Y-90910000D02*
X72500000Y-91680000D01*
X72500000Y-98990000D02*
X72500000Y-98220000D01*
X73870000Y-91680000D02*
X71130000Y-91680000D01*
X73870000Y-98220000D02*
X73870000Y-91680000D01*
X77630000Y-135260000D02*
X77630000Y-141800000D01*
X77630000Y-141800000D02*
X80370000Y-141800000D01*
X79000000Y-134490000D02*
X79000000Y-135260000D01*
X79000000Y-142570000D02*
X79000000Y-141800000D01*
X80370000Y-135260000D02*
X77630000Y-135260000D01*
X80370000Y-141800000D02*
X80370000Y-135260000D01*
X106500000Y-61500000D02*
X106500000Y-72000000D01*
X109770000Y-58350000D02*
X109770000Y-59150000D01*
X109770000Y-58350000D02*
X110630000Y-58350000D01*
X110200000Y-72000000D02*
X106500000Y-72000000D01*
X110280000Y-61500000D02*
X106500000Y-61500000D01*
X115500000Y-61500000D02*
X111720000Y-61500000D01*
X115500000Y-61500000D02*
X115500000Y-72000000D01*
X115500000Y-72000000D02*
X111800000Y-72000000D01*
X112800000Y-66000000D02*
G75*
G02*
X109200000Y-66000000I-1800000J0D01*
G01*
X109200000Y-66000000D02*
G75*
G02*
X112800000Y-66000000I1800000J0D01*
G01*
X102630000Y-108260000D02*
X102630000Y-114800000D01*
X102630000Y-114800000D02*
X105370000Y-114800000D01*
X104000000Y-107490000D02*
X104000000Y-108260000D01*
X104000000Y-115570000D02*
X104000000Y-114800000D01*
X105370000Y-108260000D02*
X102630000Y-108260000D01*
X105370000Y-114800000D02*
X105370000Y-108260000D01*
X113130000Y-108200000D02*
X113130000Y-114740000D01*
X113130000Y-114740000D02*
X115870000Y-114740000D01*
X114500000Y-107430000D02*
X114500000Y-108200000D01*
X114500000Y-115510000D02*
X114500000Y-114740000D01*
X115870000Y-108200000D02*
X113130000Y-108200000D01*
X115870000Y-114740000D02*
X115870000Y-108200000D01*
X70630000Y-135260000D02*
X70630000Y-141800000D01*
X70630000Y-141800000D02*
X73370000Y-141800000D01*
X72000000Y-134490000D02*
X72000000Y-135260000D01*
X72000000Y-142570000D02*
X72000000Y-141800000D01*
X73370000Y-135260000D02*
X70630000Y-135260000D01*
X73370000Y-141800000D02*
X73370000Y-135260000D01*
X64130000Y-91700000D02*
X64130000Y-98240000D01*
X64130000Y-98240000D02*
X66870000Y-98240000D01*
X65500000Y-90930000D02*
X65500000Y-91700000D01*
X65500000Y-99010000D02*
X65500000Y-98240000D01*
X66870000Y-91700000D02*
X64130000Y-91700000D01*
X66870000Y-98240000D02*
X66870000Y-91700000D01*
X99130000Y-108280000D02*
X99130000Y-114820000D01*
X99130000Y-114820000D02*
X101870000Y-114820000D01*
X100500000Y-107510000D02*
X100500000Y-108280000D01*
X100500000Y-115590000D02*
X100500000Y-114820000D01*
X101870000Y-108280000D02*
X99130000Y-108280000D01*
X101870000Y-114820000D02*
X101870000Y-108280000D01*
X86170000Y-110770000D02*
X86170000Y-118450000D01*
X86170000Y-110770000D02*
X88830000Y-110770000D01*
X86170000Y-118450000D02*
X88830000Y-118450000D01*
X87500000Y-108170000D02*
X88830000Y-108170000D01*
X88830000Y-108170000D02*
X88830000Y-109500000D01*
X88830000Y-110770000D02*
X88830000Y-118450000D01*
X67130000Y-135260000D02*
X67130000Y-141800000D01*
X67130000Y-141800000D02*
X69870000Y-141800000D01*
X68500000Y-134490000D02*
X68500000Y-135260000D01*
X68500000Y-142570000D02*
X68500000Y-141800000D01*
X69870000Y-135260000D02*
X67130000Y-135260000D01*
X69870000Y-141800000D02*
X69870000Y-135260000D01*
X81130000Y-135260000D02*
X81130000Y-141800000D01*
X81130000Y-141800000D02*
X83870000Y-141800000D01*
X82500000Y-134490000D02*
X82500000Y-135260000D01*
X82500000Y-142570000D02*
X82500000Y-141800000D01*
X83870000Y-135260000D02*
X81130000Y-135260000D01*
X83870000Y-141800000D02*
X83870000Y-135260000D01*
X53630000Y-91780000D02*
X53630000Y-98320000D01*
X53630000Y-98320000D02*
X56370000Y-98320000D01*
X55000000Y-91010000D02*
X55000000Y-91780000D01*
X55000000Y-99090000D02*
X55000000Y-98320000D01*
X56370000Y-91780000D02*
X53630000Y-91780000D01*
X56370000Y-98320000D02*
X56370000Y-91780000D01*
X80751000Y-87300000D02*
G75*
G02*
X78249000Y-87300000I-1251000J0D01*
G01*
X78249000Y-87300000D02*
G75*
G02*
X80751000Y-87300000I1251000J0D01*
G01*
X60130000Y-135200000D02*
X60130000Y-141740000D01*
X60130000Y-141740000D02*
X62870000Y-141740000D01*
X61500000Y-134430000D02*
X61500000Y-135200000D01*
X61500000Y-142510000D02*
X61500000Y-141740000D01*
X62870000Y-135200000D02*
X60130000Y-135200000D01*
X62870000Y-141740000D02*
X62870000Y-135200000D01*
X59251000Y-130700000D02*
G75*
G02*
X56749000Y-130700000I-1251000J0D01*
G01*
X56749000Y-130700000D02*
G75*
G02*
X59251000Y-130700000I1251000J0D01*
G01*
X120130000Y-95340000D02*
X120130000Y-101880000D01*
X120130000Y-101880000D02*
X122870000Y-101880000D01*
X121500000Y-94570000D02*
X121500000Y-95340000D01*
X121500000Y-102650000D02*
X121500000Y-101880000D01*
X122870000Y-95340000D02*
X120130000Y-95340000D01*
X122870000Y-101880000D02*
X122870000Y-95340000D01*
X60630000Y-91760000D02*
X60630000Y-98300000D01*
X60630000Y-98300000D02*
X63370000Y-98300000D01*
X62000000Y-90990000D02*
X62000000Y-91760000D01*
X62000000Y-99070000D02*
X62000000Y-98300000D01*
X63370000Y-91760000D02*
X60630000Y-91760000D01*
X63370000Y-98300000D02*
X63370000Y-91760000D01*
X51170000Y-110270000D02*
X51170000Y-117950000D01*
X51170000Y-110270000D02*
X53830000Y-110270000D01*
X51170000Y-117950000D02*
X53830000Y-117950000D01*
X52500000Y-107670000D02*
X53830000Y-107670000D01*
X53830000Y-107670000D02*
X53830000Y-109000000D01*
X53830000Y-110270000D02*
X53830000Y-117950000D01*
X119000000Y-61580000D02*
X119000000Y-72080000D01*
X122270000Y-58430000D02*
X122270000Y-59230000D01*
X122270000Y-58430000D02*
X123130000Y-58430000D01*
X122700000Y-72080000D02*
X119000000Y-72080000D01*
X122780000Y-61580000D02*
X119000000Y-61580000D01*
X128000000Y-61580000D02*
X124220000Y-61580000D01*
X128000000Y-61580000D02*
X128000000Y-72080000D01*
X128000000Y-72080000D02*
X124300000Y-72080000D01*
X125300000Y-66080000D02*
G75*
G02*
X121700000Y-66080000I-1800000J0D01*
G01*
X121700000Y-66080000D02*
G75*
G02*
X125300000Y-66080000I1800000J0D01*
G01*
X67630000Y-91700000D02*
X67630000Y-98240000D01*
X67630000Y-98240000D02*
X70370000Y-98240000D01*
X69000000Y-90930000D02*
X69000000Y-91700000D01*
X69000000Y-99010000D02*
X69000000Y-98240000D01*
X70370000Y-91700000D02*
X67630000Y-91700000D01*
X70370000Y-98240000D02*
X70370000Y-91700000D01*
X57151000Y-109000000D02*
G75*
G02*
X54649000Y-109000000I-1251000J0D01*
G01*
X54649000Y-109000000D02*
G75*
G02*
X57151000Y-109000000I1251000J0D01*
G01*
X106130000Y-108260000D02*
X106130000Y-114800000D01*
X106130000Y-114800000D02*
X108870000Y-114800000D01*
X107500000Y-107490000D02*
X107500000Y-108260000D01*
X107500000Y-115570000D02*
X107500000Y-114800000D01*
X108870000Y-108260000D02*
X106130000Y-108260000D01*
X108870000Y-114800000D02*
X108870000Y-108260000D01*
X63990000Y-75900000D02*
X65010000Y-75900000D01*
X65010000Y-74430000D02*
X65010000Y-77370000D01*
X65010000Y-77370000D02*
X70450000Y-77370000D01*
X65790000Y-74430000D02*
X65790000Y-77370000D01*
X65910000Y-74430000D02*
X65910000Y-77370000D01*
X66030000Y-74430000D02*
X66030000Y-77370000D01*
X70450000Y-74430000D02*
X65010000Y-74430000D01*
X70450000Y-77370000D02*
X70450000Y-74430000D01*
X71470000Y-75900000D02*
X70450000Y-75900000D01*
X69230000Y-80270000D02*
X69230000Y-83870000D01*
X69238259Y-80258125D02*
G75*
G02*
X73530000Y-81250000I1841741J-1811875D01*
G01*
X73530000Y-82850000D02*
G75*
G02*
X69252316Y-83878445I-2450000J780000D01*
G01*
X57151000Y-114100000D02*
G75*
G02*
X54649000Y-114100000I-1251000J0D01*
G01*
X54649000Y-114100000D02*
G75*
G02*
X57151000Y-114100000I1251000J0D01*
G01*
X63630000Y-135260000D02*
X63630000Y-141800000D01*
X63630000Y-141800000D02*
X66370000Y-141800000D01*
X65000000Y-134490000D02*
X65000000Y-135260000D01*
X65000000Y-142570000D02*
X65000000Y-141800000D01*
X66370000Y-135260000D02*
X63630000Y-135260000D01*
X66370000Y-141800000D02*
X66370000Y-135260000D01*
X109630000Y-95280000D02*
X109630000Y-101820000D01*
X109630000Y-101820000D02*
X112370000Y-101820000D01*
X111000000Y-94510000D02*
X111000000Y-95280000D01*
X111000000Y-102590000D02*
X111000000Y-101820000D01*
X112370000Y-95280000D02*
X109630000Y-95280000D01*
X112370000Y-101820000D02*
X112370000Y-95280000D01*
X85351000Y-109500000D02*
G75*
G02*
X82849000Y-109500000I-1251000J0D01*
G01*
X82849000Y-109500000D02*
G75*
G02*
X85351000Y-109500000I1251000J0D01*
G01*
X94000000Y-137170000D02*
X97700000Y-137170000D01*
X94000000Y-147670000D02*
X94000000Y-137170000D01*
X94000000Y-147670000D02*
X97780000Y-147670000D01*
X99220000Y-147670000D02*
X103000000Y-147670000D01*
X99300000Y-137170000D02*
X103000000Y-137170000D01*
X99730000Y-150820000D02*
X98870000Y-150820000D01*
X99730000Y-150820000D02*
X99730000Y-150020000D01*
X103000000Y-147670000D02*
X103000000Y-137170000D01*
X100300000Y-143170000D02*
G75*
G02*
X96700000Y-143170000I-1800000J0D01*
G01*
X96700000Y-143170000D02*
G75*
G02*
X100300000Y-143170000I1800000J0D01*
G01*
X116630000Y-108260000D02*
X116630000Y-114800000D01*
X116630000Y-114800000D02*
X119370000Y-114800000D01*
X118000000Y-107490000D02*
X118000000Y-108260000D01*
X118000000Y-115570000D02*
X118000000Y-114800000D01*
X119370000Y-108260000D02*
X116630000Y-108260000D01*
X119370000Y-114800000D02*
X119370000Y-108260000D01*
X73251000Y-146300000D02*
G75*
G02*
X70749000Y-146300000I-1251000J0D01*
G01*
X70749000Y-146300000D02*
G75*
G02*
X73251000Y-146300000I1251000J0D01*
G01*
X53130000Y-135200000D02*
X53130000Y-141740000D01*
X53130000Y-141740000D02*
X55870000Y-141740000D01*
X54500000Y-134430000D02*
X54500000Y-135200000D01*
X54500000Y-142510000D02*
X54500000Y-141740000D01*
X55870000Y-135200000D02*
X53130000Y-135200000D01*
X55870000Y-141740000D02*
X55870000Y-135200000D01*
X109630000Y-108260000D02*
X109630000Y-114800000D01*
X109630000Y-114800000D02*
X112370000Y-114800000D01*
X111000000Y-107490000D02*
X111000000Y-108260000D01*
X111000000Y-115570000D02*
X111000000Y-114800000D01*
X112370000Y-108260000D02*
X109630000Y-108260000D01*
X112370000Y-114800000D02*
X112370000Y-108260000D01*
X81151000Y-66700000D02*
G75*
G02*
X78649000Y-66700000I-1251000J0D01*
G01*
X78649000Y-66700000D02*
G75*
G02*
X81151000Y-66700000I1251000J0D01*
G01*
X85130000Y-91700000D02*
X85130000Y-98240000D01*
X85130000Y-98240000D02*
X87870000Y-98240000D01*
X86500000Y-90930000D02*
X86500000Y-91700000D01*
X86500000Y-99010000D02*
X86500000Y-98240000D01*
X87870000Y-91700000D02*
X85130000Y-91700000D01*
X87870000Y-98240000D02*
X87870000Y-91700000D01*
X63470000Y-55400000D02*
X64240000Y-55400000D01*
X64240000Y-54030000D02*
X64240000Y-56770000D01*
X64240000Y-56770000D02*
X70780000Y-56770000D01*
X70780000Y-54030000D02*
X64240000Y-54030000D01*
X70780000Y-56770000D02*
X70780000Y-54030000D01*
X71550000Y-55400000D02*
X70780000Y-55400000D01*
X81151000Y-63600000D02*
G75*
G02*
X78649000Y-63600000I-1251000J0D01*
G01*
X78649000Y-63600000D02*
G75*
G02*
X81151000Y-63600000I1251000J0D01*
G01*
X116630000Y-95280000D02*
X116630000Y-101820000D01*
X116630000Y-101820000D02*
X119370000Y-101820000D01*
X118000000Y-94510000D02*
X118000000Y-95280000D01*
X118000000Y-102590000D02*
X118000000Y-101820000D01*
X119370000Y-95280000D02*
X116630000Y-95280000D01*
X119370000Y-101820000D02*
X119370000Y-95280000D01*
X63470000Y-72700000D02*
X64240000Y-72700000D01*
X64240000Y-71330000D02*
X64240000Y-74070000D01*
X64240000Y-74070000D02*
X70780000Y-74070000D01*
X70780000Y-71330000D02*
X64240000Y-71330000D01*
X70780000Y-74070000D02*
X70780000Y-71330000D01*
X71550000Y-72700000D02*
X70780000Y-72700000D01*
X64090000Y-52200000D02*
X65110000Y-52200000D01*
X65110000Y-50730000D02*
X65110000Y-53670000D01*
X65110000Y-53670000D02*
X70550000Y-53670000D01*
X69530000Y-53670000D02*
X69530000Y-50730000D01*
X69650000Y-53670000D02*
X69650000Y-50730000D01*
X69770000Y-53670000D02*
X69770000Y-50730000D01*
X70550000Y-50730000D02*
X65110000Y-50730000D01*
X70550000Y-53670000D02*
X70550000Y-50730000D01*
X71570000Y-52200000D02*
X70550000Y-52200000D01*
X105530000Y-76030000D02*
X105530000Y-78750000D01*
X105530000Y-83250000D02*
X105530000Y-87620000D01*
X107350000Y-87620000D02*
X105530000Y-87620000D01*
X116470000Y-76030000D02*
X105530000Y-76030000D01*
X116470000Y-76030000D02*
X116470000Y-78750000D01*
X116470000Y-83250000D02*
X116470000Y-87620000D01*
X116470000Y-87620000D02*
X114650000Y-87620000D01*
X119000000Y-137170000D02*
X122700000Y-137170000D01*
X119000000Y-147670000D02*
X119000000Y-137170000D01*
X119000000Y-147670000D02*
X122780000Y-147670000D01*
X124220000Y-147670000D02*
X128000000Y-147670000D01*
X124300000Y-137170000D02*
X128000000Y-137170000D01*
X124730000Y-150820000D02*
X123870000Y-150820000D01*
X124730000Y-150820000D02*
X124730000Y-150020000D01*
X128000000Y-147670000D02*
X128000000Y-137170000D01*
X125300000Y-143170000D02*
G75*
G02*
X121700000Y-143170000I-1800000J0D01*
G01*
X121700000Y-143170000D02*
G75*
G02*
X125300000Y-143170000I1800000J0D01*
G01*
X85351000Y-117200000D02*
G75*
G02*
X82849000Y-117200000I-1251000J0D01*
G01*
X82849000Y-117200000D02*
G75*
G02*
X85351000Y-117200000I1251000J0D01*
G01*
X81630000Y-91680000D02*
X81630000Y-98220000D01*
X81630000Y-98220000D02*
X84370000Y-98220000D01*
X83000000Y-90910000D02*
X83000000Y-91680000D01*
X83000000Y-98990000D02*
X83000000Y-98220000D01*
X84370000Y-91680000D02*
X81630000Y-91680000D01*
X84370000Y-98220000D02*
X84370000Y-91680000D01*
X105530000Y-119030000D02*
X105530000Y-121750000D01*
X105530000Y-126250000D02*
X105530000Y-130620000D01*
X107350000Y-130620000D02*
X105530000Y-130620000D01*
X116470000Y-119030000D02*
X105530000Y-119030000D01*
X116470000Y-119030000D02*
X116470000Y-121750000D01*
X116470000Y-126250000D02*
X116470000Y-130620000D01*
X116470000Y-130620000D02*
X114650000Y-130620000D01*
X68730000Y-83870000D02*
X68730000Y-80270000D01*
X64430000Y-81290000D02*
G75*
G02*
X68707684Y-80261555I2450000J-780000D01*
G01*
X68721741Y-83881875D02*
G75*
G02*
X64430000Y-82890000I-1841741J1811875D01*
G01*
X71050000Y-156910000D02*
X71050000Y-153310000D01*
X66750000Y-154330000D02*
G75*
G02*
X71027684Y-153301555I2450000J-780000D01*
G01*
X71041741Y-156921875D02*
G75*
G02*
X66750000Y-155930000I-1841741J1811875D01*
G01*
X77251000Y-87300000D02*
G75*
G02*
X74749000Y-87300000I-1251000J0D01*
G01*
X74749000Y-87300000D02*
G75*
G02*
X77251000Y-87300000I1251000J0D01*
G01*
X81151000Y-60500000D02*
G75*
G02*
X78649000Y-60500000I-1251000J0D01*
G01*
X78649000Y-60500000D02*
G75*
G02*
X81151000Y-60500000I1251000J0D01*
G01*
X106130000Y-95280000D02*
X106130000Y-101820000D01*
X106130000Y-101820000D02*
X108870000Y-101820000D01*
X107500000Y-94510000D02*
X107500000Y-95280000D01*
X107500000Y-102590000D02*
X107500000Y-101820000D01*
X108870000Y-95280000D02*
X106130000Y-95280000D01*
X108870000Y-101820000D02*
X108870000Y-95280000D01*
X56630000Y-135260000D02*
X56630000Y-141800000D01*
X56630000Y-141800000D02*
X59370000Y-141800000D01*
X58000000Y-134490000D02*
X58000000Y-135260000D01*
X58000000Y-142570000D02*
X58000000Y-141800000D01*
X59370000Y-135260000D02*
X56630000Y-135260000D01*
X59370000Y-141800000D02*
X59370000Y-135260000D01*
X80251000Y-146300000D02*
G75*
G02*
X77749000Y-146300000I-1251000J0D01*
G01*
X77749000Y-146300000D02*
G75*
G02*
X80251000Y-146300000I1251000J0D01*
G01*
X113130000Y-95280000D02*
X113130000Y-101820000D01*
X113130000Y-101820000D02*
X115870000Y-101820000D01*
X114500000Y-94510000D02*
X114500000Y-95280000D01*
X114500000Y-102590000D02*
X114500000Y-101820000D01*
X115870000Y-95280000D02*
X113130000Y-95280000D01*
X115870000Y-101820000D02*
X115870000Y-95280000D01*
X62030000Y-107940000D02*
X62030000Y-118440000D01*
X62030000Y-118440000D02*
X80050000Y-118440000D01*
X62090000Y-110940000D02*
X62090000Y-115440000D01*
X62090000Y-115440000D02*
X79990000Y-115440000D01*
X79990000Y-110940000D02*
X62090000Y-110940000D01*
X79990000Y-112190000D02*
X79990000Y-110940000D01*
X79990000Y-115440000D02*
X79990000Y-114190000D01*
X80050000Y-107940000D02*
X62030000Y-107940000D01*
X80050000Y-118440000D02*
X80050000Y-107940000D01*
X79990000Y-114190000D02*
G75*
G02*
X79990000Y-112190000I0J1000000D01*
G01*
X71530000Y-153300000D02*
X71530000Y-156900000D01*
X71538259Y-153288125D02*
G75*
G02*
X75830000Y-154280000I1841741J-1811875D01*
G01*
X75830000Y-155880000D02*
G75*
G02*
X71552316Y-156908445I-2450000J780000D01*
G01*
X94000000Y-61580000D02*
X94000000Y-72080000D01*
X97270000Y-58430000D02*
X97270000Y-59230000D01*
X97270000Y-58430000D02*
X98130000Y-58430000D01*
X97700000Y-72080000D02*
X94000000Y-72080000D01*
X97780000Y-61580000D02*
X94000000Y-61580000D01*
X103000000Y-61580000D02*
X99220000Y-61580000D01*
X103000000Y-61580000D02*
X103000000Y-72080000D01*
X103000000Y-72080000D02*
X99300000Y-72080000D01*
X100300000Y-66080000D02*
G75*
G02*
X96700000Y-66080000I-1800000J0D01*
G01*
X96700000Y-66080000D02*
G75*
G02*
X100300000Y-66080000I1800000J0D01*
G01*
X59751000Y-87200000D02*
G75*
G02*
X57249000Y-87200000I-1251000J0D01*
G01*
X57249000Y-87200000D02*
G75*
G02*
X59751000Y-87200000I1251000J0D01*
G01*
X74130000Y-135260000D02*
X74130000Y-141800000D01*
X74130000Y-141800000D02*
X76870000Y-141800000D01*
X75500000Y-134490000D02*
X75500000Y-135260000D01*
X75500000Y-142570000D02*
X75500000Y-141800000D01*
X76870000Y-135260000D02*
X74130000Y-135260000D01*
X76870000Y-141800000D02*
X76870000Y-135260000D01*
%LPC*%
D12*
X104000000Y-93470000D03*
D13*
X104000000Y-103630000D03*
D14*
X127200000Y-53800000D03*
D12*
X58500000Y-100110000D03*
D13*
X58500000Y-89950000D03*
D12*
X86000000Y-143610000D03*
D13*
X86000000Y-133450000D03*
D15*
X111000000Y-149650000D03*
D16*
X111000000Y-138250000D03*
X111000000Y-146550000D03*
D12*
X76000000Y-89890000D03*
D13*
X76000000Y-100050000D03*
D12*
X79500000Y-89890000D03*
D13*
X79500000Y-100050000D03*
D12*
X72500000Y-89870000D03*
D13*
X72500000Y-100030000D03*
D12*
X79000000Y-143610000D03*
D13*
X79000000Y-133450000D03*
D15*
X111000000Y-59520000D03*
D16*
X111000000Y-70920000D03*
X111000000Y-62620000D03*
D12*
X104000000Y-116610000D03*
D13*
X104000000Y-106450000D03*
D12*
X114500000Y-106390000D03*
D13*
X114500000Y-116550000D03*
D12*
X72000000Y-143610000D03*
D13*
X72000000Y-133450000D03*
D12*
X65500000Y-89890000D03*
D13*
X65500000Y-100050000D03*
D12*
X100500000Y-116630000D03*
D13*
X100500000Y-106470000D03*
D14*
X127200000Y-157200000D03*
D17*
X87500000Y-109500000D03*
D18*
X87500000Y-112040000D03*
X87500000Y-114580000D03*
X87500000Y-117120000D03*
D12*
X68500000Y-143610000D03*
D13*
X68500000Y-133450000D03*
D12*
X82500000Y-143610000D03*
D13*
X82500000Y-133450000D03*
D12*
X55000000Y-100130000D03*
D13*
X55000000Y-89970000D03*
D19*
X79500000Y-87300000D03*
D12*
X61500000Y-133390000D03*
D13*
X61500000Y-143550000D03*
D19*
X58000000Y-130700000D03*
D12*
X121500000Y-103690000D03*
D13*
X121500000Y-93530000D03*
D12*
X62000000Y-100110000D03*
D13*
X62000000Y-89950000D03*
D14*
X86200000Y-53800000D03*
D17*
X52500000Y-109000000D03*
D18*
X52500000Y-111540000D03*
X52500000Y-114080000D03*
X52500000Y-116620000D03*
D15*
X123500000Y-59600000D03*
D16*
X123500000Y-71000000D03*
X123500000Y-62700000D03*
D12*
X69000000Y-89890000D03*
D13*
X69000000Y-100050000D03*
D19*
X55900000Y-109000000D03*
D12*
X107500000Y-116610000D03*
D13*
X107500000Y-106450000D03*
D20*
X62650000Y-75900000D03*
D21*
X72810000Y-75900000D03*
D22*
X70680000Y-80800000D03*
D23*
X72750000Y-82070000D03*
X70680000Y-83340000D03*
D19*
X55900000Y-114100000D03*
D12*
X65000000Y-143610000D03*
D13*
X65000000Y-133450000D03*
D12*
X111000000Y-93470000D03*
D13*
X111000000Y-103630000D03*
D19*
X84100000Y-109500000D03*
D15*
X98500000Y-149650000D03*
D16*
X98500000Y-138250000D03*
X98500000Y-146550000D03*
D12*
X118000000Y-116610000D03*
D13*
X118000000Y-106450000D03*
D19*
X72000000Y-146300000D03*
D12*
X54500000Y-133390000D03*
D13*
X54500000Y-143550000D03*
D12*
X111000000Y-116610000D03*
D13*
X111000000Y-106450000D03*
D14*
X86200000Y-157200000D03*
X53800000Y-82000000D03*
D19*
X79900000Y-66700000D03*
D12*
X86500000Y-89890000D03*
D13*
X86500000Y-100050000D03*
D12*
X72590000Y-55400000D03*
D13*
X62430000Y-55400000D03*
D14*
X94800000Y-157200000D03*
D19*
X79900000Y-63600000D03*
D12*
X118000000Y-93470000D03*
D13*
X118000000Y-103630000D03*
D12*
X72590000Y-72700000D03*
D13*
X62430000Y-72700000D03*
D20*
X72910000Y-52200000D03*
D21*
X62750000Y-52200000D03*
D24*
X106250000Y-81000000D03*
X115750000Y-81000000D03*
D25*
X108500000Y-88500000D03*
D26*
X111000000Y-88500000D03*
X113500000Y-88500000D03*
D15*
X123500000Y-149650000D03*
D16*
X123500000Y-138250000D03*
X123500000Y-146550000D03*
D19*
X84100000Y-117200000D03*
D12*
X83000000Y-89870000D03*
D13*
X83000000Y-100030000D03*
D24*
X106250000Y-124000000D03*
X115750000Y-124000000D03*
D25*
X108500000Y-131500000D03*
D26*
X111000000Y-131500000D03*
X113500000Y-131500000D03*
D22*
X67280000Y-83340000D03*
D27*
X65210000Y-82070000D03*
X67280000Y-80800000D03*
D22*
X69600000Y-156380000D03*
D27*
X67530000Y-155110000D03*
X69600000Y-153840000D03*
D19*
X76000000Y-87300000D03*
X79900000Y-60500000D03*
D12*
X107500000Y-93470000D03*
D13*
X107500000Y-103630000D03*
D14*
X53800000Y-157200000D03*
D12*
X58000000Y-143610000D03*
D13*
X58000000Y-133450000D03*
D14*
X94800000Y-82000000D03*
D19*
X79000000Y-146300000D03*
D12*
X114500000Y-93470000D03*
D13*
X114500000Y-103630000D03*
D28*
X78660000Y-109380000D03*
D29*
X76120000Y-109380000D03*
X73580000Y-109380000D03*
X71040000Y-109380000D03*
X68500000Y-109380000D03*
X65960000Y-109380000D03*
X63420000Y-109380000D03*
X63420000Y-117000000D03*
X65960000Y-117000000D03*
X68500000Y-117000000D03*
X71040000Y-117000000D03*
X73580000Y-117000000D03*
X76120000Y-117000000D03*
X78660000Y-117000000D03*
D22*
X72980000Y-153830000D03*
D23*
X75050000Y-155100000D03*
X72980000Y-156370000D03*
D15*
X98500000Y-59600000D03*
D16*
X98500000Y-71000000D03*
X98500000Y-62700000D03*
D19*
X58500000Y-87200000D03*
D12*
X75500000Y-143610000D03*
D13*
X75500000Y-133450000D03*
D30*
X54930000Y-67580000D03*
D31*
X57470000Y-67580000D03*
X54930000Y-65040000D03*
X57470000Y-65040000D03*
X54930000Y-62500000D03*
X57470000Y-62500000D03*
X54930000Y-59960000D03*
X57470000Y-59960000D03*
X54930000Y-57420000D03*
X57470000Y-57420000D03*
D32*
X71080000Y-122000000D03*
D33*
X71080000Y-120000000D03*
D17*
X93500000Y-109500000D03*
D18*
X93500000Y-112040000D03*
X93500000Y-114580000D03*
X93500000Y-117120000D03*
D17*
X128500000Y-110000000D03*
D18*
X128500000Y-112540000D03*
X128500000Y-115080000D03*
X128500000Y-117620000D03*
D34*
X57950000Y-149500000D03*
X55410000Y-149500000D03*
X52870000Y-149500000D03*
D32*
X70800000Y-59527401D03*
D33*
X70800000Y-61527401D03*
D32*
X70800000Y-66527401D03*
D33*
X70800000Y-68527401D03*
D32*
X71080000Y-106000000D03*
D33*
X71080000Y-104000000D03*
D35*
X65000000Y-66300000D03*
D12*
X65000000Y-68800000D03*
D35*
X65000000Y-59317621D03*
D12*
X65000000Y-61817621D03*
D34*
X87050000Y-80500000D03*
X84510000Y-80500000D03*
X81970000Y-80500000D03*
%LPD*%
M02*
