M48
; DRILL file {KiCad 8.0.2-1} date 2024-05-07T18:20:18+0200
; FORMAT={-:-/ absolute / metric / decimal}
; #@! TF.CreationDate,2024-05-07T18:20:18+02:00
; #@! TF.GenerationSoftware,Kicad,Pcbnew,8.0.2-1
; #@! TF.FileFunction,Plated,1,2,PTH
FMAT,2
METRIC
; #@! TA.AperFunction,Plated,PTH,ViaDrill
T1C0.400
; #@! TA.AperFunction,Plated,PTH,ComponentDrill
T2C0.600
; #@! TA.AperFunction,Plated,PTH,ComponentDrill
T3C0.750
; #@! TA.AperFunction,Plated,PTH,ComponentDrill
T4C0.800
; #@! TA.AperFunction,Plated,PTH,ComponentDrill
T5C1.000
; #@! TA.AperFunction,Plated,PTH,ComponentDrill
T6C1.100
; #@! TA.AperFunction,Plated,PTH,ComponentDrill
T7C1.220
; #@! TA.AperFunction,Plated,PTH,ComponentDrill
T8C1.420
; #@! TA.AperFunction,Plated,PTH,ComponentDrill
T9C1.430
; #@! TA.AperFunction,Plated,PTH,ComponentDrill
T10C2.000
%
G90
G05
T1
X53.4Y-125.2
T2
X70.8Y-59.527
X70.8Y-61.527
X70.8Y-66.527
X70.8Y-68.527
X71.08Y-104.0
X71.08Y-106.0
X71.08Y-120.0
X71.08Y-122.0
T3
X65.61Y-82.07
X66.88Y-80.8
X66.88Y-83.34
X67.93Y-155.11
X69.2Y-153.84
X69.2Y-156.38
X71.08Y-80.8
X71.08Y-83.34
X72.35Y-82.07
X73.38Y-153.83
X73.38Y-156.37
X74.65Y-155.1
T4
X52.87Y-149.5
X54.5Y-133.39
X54.5Y-143.55
X55.0Y-89.97
X55.0Y-100.13
X55.41Y-149.5
X57.95Y-149.5
X58.0Y-133.45
X58.0Y-143.61
X58.5Y-89.95
X58.5Y-100.11
X61.5Y-133.39
X61.5Y-143.55
X62.0Y-89.95
X62.0Y-100.11
X62.43Y-55.4
X62.43Y-72.7
X63.42Y-109.38
X63.42Y-117.0
X65.0Y-59.318
X65.0Y-61.818
X65.0Y-66.3
X65.0Y-68.8
X65.0Y-133.45
X65.0Y-143.61
X65.5Y-89.89
X65.5Y-100.05
X65.96Y-109.38
X65.96Y-117.0
X68.5Y-109.38
X68.5Y-117.0
X68.5Y-133.45
X68.5Y-143.61
X69.0Y-89.89
X69.0Y-100.05
X71.04Y-109.38
X71.04Y-117.0
X72.0Y-133.45
X72.0Y-143.61
X72.5Y-89.87
X72.5Y-100.03
X72.59Y-55.4
X72.59Y-72.7
X73.58Y-109.38
X73.58Y-117.0
X75.5Y-133.45
X75.5Y-143.61
X76.0Y-89.89
X76.0Y-100.05
X76.12Y-109.38
X76.12Y-117.0
X78.66Y-109.38
X78.66Y-117.0
X79.0Y-133.45
X79.0Y-143.61
X79.5Y-89.89
X79.5Y-100.05
X81.97Y-80.5
X82.5Y-133.45
X82.5Y-143.61
X83.0Y-89.87
X83.0Y-100.03
X84.51Y-80.5
X86.0Y-133.45
X86.0Y-143.61
X86.5Y-89.89
X86.5Y-100.05
X87.05Y-80.5
X100.5Y-106.47
X100.5Y-116.63
X104.0Y-93.47
X104.0Y-103.63
X104.0Y-106.45
X104.0Y-116.61
X107.5Y-93.47
X107.5Y-103.63
X107.5Y-106.45
X107.5Y-116.61
X111.0Y-93.47
X111.0Y-103.63
X111.0Y-106.45
X111.0Y-116.61
X114.5Y-93.47
X114.5Y-103.63
X114.5Y-106.39
X114.5Y-116.55
X118.0Y-93.47
X118.0Y-103.63
X118.0Y-106.45
X118.0Y-116.61
X121.5Y-93.53
X121.5Y-103.69
T5
X52.5Y-109.0
X52.5Y-111.54
X52.5Y-114.08
X52.5Y-116.62
X54.93Y-57.42
X54.93Y-59.96
X54.93Y-62.5
X54.93Y-65.04
X54.93Y-67.58
X55.9Y-109.0
X55.9Y-114.1
X57.47Y-57.42
X57.47Y-59.96
X57.47Y-62.5
X57.47Y-65.04
X57.47Y-67.58
X58.0Y-130.7
X58.5Y-87.2
X72.0Y-146.3
X76.0Y-87.3
X79.0Y-146.3
X79.5Y-87.3
X79.9Y-60.5
X79.9Y-63.6
X79.9Y-66.7
X84.1Y-109.5
X84.1Y-117.2
X87.5Y-109.5
X87.5Y-112.04
X87.5Y-114.58
X87.5Y-117.12
X93.5Y-109.5
X93.5Y-112.04
X93.5Y-114.58
X93.5Y-117.12
X108.5Y-88.5
X108.5Y-131.5
X111.0Y-88.5
X111.0Y-131.5
X113.5Y-88.5
X113.5Y-131.5
X128.5Y-110.0
X128.5Y-112.54
X128.5Y-115.08
X128.5Y-117.62
T6
X62.65Y-75.9
X62.75Y-52.2
X72.81Y-75.9
X72.91Y-52.2
T7
X98.5Y-59.6
X98.5Y-149.65
X111.0Y-59.52
X111.0Y-149.65
X123.5Y-59.6
X123.5Y-149.65
T8
X98.5Y-62.7
X98.5Y-146.55
X111.0Y-62.62
X111.0Y-146.55
X123.5Y-62.7
X123.5Y-146.55
T9
X98.5Y-71.0
X98.5Y-138.25
X111.0Y-70.92
X111.0Y-138.25
X123.5Y-71.0
X123.5Y-138.25
T10
X106.25Y-81.0
X106.25Y-124.0
X115.75Y-81.0
X115.75Y-124.0
M30
