G04 #@! TF.GenerationSoftware,KiCad,Pcbnew,8.0.5*
G04 #@! TF.CreationDate,2024-11-03T10:01:33+01:00*
G04 #@! TF.ProjectId,euro-mate,6575726f-2d6d-4617-9465-2e6b69636164,rev?*
G04 #@! TF.SameCoordinates,Original*
G04 #@! TF.FileFunction,Legend,Bot*
G04 #@! TF.FilePolarity,Positive*
%FSLAX46Y46*%
G04 Gerber Fmt 4.6, Leading zero omitted, Abs format (unit mm)*
G04 Created by KiCad (PCBNEW 8.0.5) date 2024-11-03 10:01:33*
%MOMM*%
%LPD*%
G01*
G04 APERTURE LIST*
G04 Aperture macros list*
%AMRoundRect*
0 Rectangle with rounded corners*
0 $1 Rounding radius*
0 $2 $3 $4 $5 $6 $7 $8 $9 X,Y pos of 4 corners*
0 Add a 4 corners polygon primitive as box body*
4,1,4,$2,$3,$4,$5,$6,$7,$8,$9,$2,$3,0*
0 Add four circle primitives for the rounded corners*
1,1,$1+$1,$2,$3*
1,1,$1+$1,$4,$5*
1,1,$1+$1,$6,$7*
1,1,$1+$1,$8,$9*
0 Add four rect primitives between the rounded corners*
20,1,$1+$1,$2,$3,$4,$5,0*
20,1,$1+$1,$4,$5,$6,$7,0*
20,1,$1+$1,$6,$7,$8,$9,0*
20,1,$1+$1,$8,$9,$2,$3,0*%
G04 Aperture macros list end*
%ADD10C,0.150000*%
%ADD11C,1.600000*%
%ADD12O,1.600000X1.600000*%
%ADD13R,1.830000X1.930000*%
%ADD14C,2.130000*%
%ADD15C,3.200000*%
%ADD16R,1.700000X1.700000*%
%ADD17O,1.700000X1.700000*%
%ADD18R,1.930000X1.830000*%
%ADD19C,1.750000*%
%ADD20C,4.000000*%
%ADD21C,2.500000*%
%ADD22R,2.200000X2.200000*%
%ADD23O,2.200000X2.200000*%
%ADD24RoundRect,0.250000X-0.600000X0.600000X-0.600000X-0.600000X0.600000X-0.600000X0.600000X0.600000X0*%
%ADD25C,1.700000*%
%ADD26R,1.600000X1.600000*%
%ADD27R,1.800000X1.800000*%
%ADD28C,1.800000*%
%ADD29C,8.600000*%
%ADD30R,1.200000X1.200000*%
%ADD31C,1.200000*%
%ADD32O,4.000000X4.000000*%
%ADD33R,1.600000X2.400000*%
%ADD34O,1.600000X2.400000*%
%ADD35R,2.400000X1.600000*%
%ADD36O,2.400000X1.600000*%
%ADD37C,0.500000*%
%ADD38C,1.100000*%
%ADD39C,2.800000*%
%ADD40C,0.600000*%
%ADD41C,3.400000*%
%ADD42C,0.700000*%
%ADD43C,1.300000*%
%ADD44C,0.800000*%
%ADD45C,1.400000*%
%ADD46C,3.900000*%
%ADD47C,0.900000*%
%ADD48C,4.400000*%
%ADD49C,1.000000*%
%ADD50C,2.200000*%
G04 APERTURE END LIST*
D10*
X225423809Y-116954819D02*
X224852380Y-116954819D01*
X225263095Y-117954819D02*
X225138095Y-116954819D01*
X224644047Y-117954819D02*
X224519047Y-116954819D01*
X224215475Y-117954819D02*
X224149999Y-117431009D01*
X224149999Y-117431009D02*
X224185713Y-117335771D01*
X224185713Y-117335771D02*
X224274999Y-117288152D01*
X224274999Y-117288152D02*
X224417856Y-117288152D01*
X224417856Y-117288152D02*
X224519047Y-117335771D01*
X224519047Y-117335771D02*
X224572618Y-117383390D01*
X223739285Y-117954819D02*
X223655951Y-117288152D01*
X223614285Y-116954819D02*
X223667856Y-117002438D01*
X223667856Y-117002438D02*
X223626189Y-117050057D01*
X223626189Y-117050057D02*
X223572618Y-117002438D01*
X223572618Y-117002438D02*
X223614285Y-116954819D01*
X223614285Y-116954819D02*
X223626189Y-117050057D01*
X222828571Y-117907200D02*
X222929761Y-117954819D01*
X222929761Y-117954819D02*
X223120238Y-117954819D01*
X223120238Y-117954819D02*
X223209523Y-117907200D01*
X223209523Y-117907200D02*
X223251190Y-117859580D01*
X223251190Y-117859580D02*
X223286904Y-117764342D01*
X223286904Y-117764342D02*
X223251190Y-117478628D01*
X223251190Y-117478628D02*
X223191666Y-117383390D01*
X223191666Y-117383390D02*
X223138095Y-117335771D01*
X223138095Y-117335771D02*
X223036904Y-117288152D01*
X223036904Y-117288152D02*
X222846428Y-117288152D01*
X222846428Y-117288152D02*
X222757142Y-117335771D01*
X222405952Y-117954819D02*
X222280952Y-116954819D01*
X222263095Y-117573866D02*
X222024999Y-117954819D01*
X221941666Y-117288152D02*
X222370237Y-117669104D01*
X221513094Y-117288152D02*
X221596428Y-117954819D01*
X221524999Y-117383390D02*
X221471428Y-117335771D01*
X221471428Y-117335771D02*
X221370237Y-117288152D01*
X221370237Y-117288152D02*
X221227380Y-117288152D01*
X221227380Y-117288152D02*
X221138094Y-117335771D01*
X221138094Y-117335771D02*
X221102380Y-117431009D01*
X221102380Y-117431009D02*
X221167856Y-117954819D01*
X220304761Y-117907200D02*
X220405951Y-117954819D01*
X220405951Y-117954819D02*
X220596428Y-117954819D01*
X220596428Y-117954819D02*
X220685713Y-117907200D01*
X220685713Y-117907200D02*
X220721428Y-117811961D01*
X220721428Y-117811961D02*
X220673809Y-117431009D01*
X220673809Y-117431009D02*
X220614285Y-117335771D01*
X220614285Y-117335771D02*
X220513094Y-117288152D01*
X220513094Y-117288152D02*
X220322618Y-117288152D01*
X220322618Y-117288152D02*
X220233332Y-117335771D01*
X220233332Y-117335771D02*
X220197618Y-117431009D01*
X220197618Y-117431009D02*
X220209523Y-117526247D01*
X220209523Y-117526247D02*
X220697618Y-117621485D01*
X219876189Y-117907200D02*
X219786904Y-117954819D01*
X219786904Y-117954819D02*
X219596427Y-117954819D01*
X219596427Y-117954819D02*
X219495237Y-117907200D01*
X219495237Y-117907200D02*
X219435713Y-117811961D01*
X219435713Y-117811961D02*
X219429761Y-117764342D01*
X219429761Y-117764342D02*
X219465475Y-117669104D01*
X219465475Y-117669104D02*
X219554761Y-117621485D01*
X219554761Y-117621485D02*
X219697618Y-117621485D01*
X219697618Y-117621485D02*
X219786904Y-117573866D01*
X219786904Y-117573866D02*
X219822618Y-117478628D01*
X219822618Y-117478628D02*
X219816666Y-117431009D01*
X219816666Y-117431009D02*
X219757142Y-117335771D01*
X219757142Y-117335771D02*
X219655951Y-117288152D01*
X219655951Y-117288152D02*
X219513094Y-117288152D01*
X219513094Y-117288152D02*
X219423808Y-117335771D01*
X219066665Y-117907200D02*
X218977380Y-117954819D01*
X218977380Y-117954819D02*
X218786903Y-117954819D01*
X218786903Y-117954819D02*
X218685713Y-117907200D01*
X218685713Y-117907200D02*
X218626189Y-117811961D01*
X218626189Y-117811961D02*
X218620237Y-117764342D01*
X218620237Y-117764342D02*
X218655951Y-117669104D01*
X218655951Y-117669104D02*
X218745237Y-117621485D01*
X218745237Y-117621485D02*
X218888094Y-117621485D01*
X218888094Y-117621485D02*
X218977380Y-117573866D01*
X218977380Y-117573866D02*
X219013094Y-117478628D01*
X219013094Y-117478628D02*
X219007142Y-117431009D01*
X219007142Y-117431009D02*
X218947618Y-117335771D01*
X218947618Y-117335771D02*
X218846427Y-117288152D01*
X218846427Y-117288152D02*
X218703570Y-117288152D01*
X218703570Y-117288152D02*
X218614284Y-117335771D01*
X218149998Y-117431009D02*
X217388094Y-117431009D01*
X217423808Y-117716723D02*
X218185713Y-117716723D01*
X216453570Y-117954819D02*
X217024999Y-117954819D01*
X216739284Y-117954819D02*
X216614284Y-116954819D01*
X216614284Y-116954819D02*
X216727380Y-117097676D01*
X216727380Y-117097676D02*
X216834523Y-117192914D01*
X216834523Y-117192914D02*
X216935713Y-117240533D01*
X216013094Y-117859580D02*
X215971427Y-117907200D01*
X215971427Y-117907200D02*
X216024999Y-117954819D01*
X216024999Y-117954819D02*
X216066665Y-117907200D01*
X216066665Y-117907200D02*
X216013094Y-117859580D01*
X216013094Y-117859580D02*
X216024999Y-117954819D01*
X214995237Y-116954819D02*
X215185713Y-116954819D01*
X215185713Y-116954819D02*
X215286904Y-117002438D01*
X215286904Y-117002438D02*
X215340475Y-117050057D01*
X215340475Y-117050057D02*
X215453571Y-117192914D01*
X215453571Y-117192914D02*
X215524999Y-117383390D01*
X215524999Y-117383390D02*
X215572618Y-117764342D01*
X215572618Y-117764342D02*
X215536904Y-117859580D01*
X215536904Y-117859580D02*
X215495237Y-117907200D01*
X215495237Y-117907200D02*
X215405952Y-117954819D01*
X215405952Y-117954819D02*
X215215475Y-117954819D01*
X215215475Y-117954819D02*
X215114285Y-117907200D01*
X215114285Y-117907200D02*
X215060713Y-117859580D01*
X215060713Y-117859580D02*
X215001190Y-117764342D01*
X215001190Y-117764342D02*
X214971428Y-117526247D01*
X214971428Y-117526247D02*
X215007142Y-117431009D01*
X215007142Y-117431009D02*
X215048809Y-117383390D01*
X215048809Y-117383390D02*
X215138094Y-117335771D01*
X215138094Y-117335771D02*
X215328571Y-117335771D01*
X215328571Y-117335771D02*
X215429761Y-117383390D01*
X215429761Y-117383390D02*
X215483332Y-117431009D01*
X215483332Y-117431009D02*
X215542856Y-117526247D01*
X214596428Y-117954819D02*
X214513094Y-117288152D01*
X214524999Y-117383390D02*
X214471428Y-117335771D01*
X214471428Y-117335771D02*
X214370237Y-117288152D01*
X214370237Y-117288152D02*
X214227380Y-117288152D01*
X214227380Y-117288152D02*
X214138094Y-117335771D01*
X214138094Y-117335771D02*
X214102380Y-117431009D01*
X214102380Y-117431009D02*
X214167856Y-117954819D01*
X214102380Y-117431009D02*
X214042856Y-117335771D01*
X214042856Y-117335771D02*
X213941666Y-117288152D01*
X213941666Y-117288152D02*
X213798809Y-117288152D01*
X213798809Y-117288152D02*
X213709523Y-117335771D01*
X213709523Y-117335771D02*
X213673809Y-117431009D01*
X213673809Y-117431009D02*
X213739285Y-117954819D01*
X213263095Y-117954819D02*
X213179761Y-117288152D01*
X213191666Y-117383390D02*
X213138095Y-117335771D01*
X213138095Y-117335771D02*
X213036904Y-117288152D01*
X213036904Y-117288152D02*
X212894047Y-117288152D01*
X212894047Y-117288152D02*
X212804761Y-117335771D01*
X212804761Y-117335771D02*
X212769047Y-117431009D01*
X212769047Y-117431009D02*
X212834523Y-117954819D01*
X212769047Y-117431009D02*
X212709523Y-117335771D01*
X212709523Y-117335771D02*
X212608333Y-117288152D01*
X212608333Y-117288152D02*
X212465476Y-117288152D01*
X212465476Y-117288152D02*
X212376190Y-117335771D01*
X212376190Y-117335771D02*
X212340476Y-117431009D01*
X212340476Y-117431009D02*
X212405952Y-117954819D01*
X240423809Y-122288152D02*
X240423809Y-122954819D01*
X240661904Y-121907200D02*
X240899999Y-122621485D01*
X240899999Y-122621485D02*
X240280952Y-122621485D01*
X239899999Y-122859580D02*
X239852380Y-122907200D01*
X239852380Y-122907200D02*
X239899999Y-122954819D01*
X239899999Y-122954819D02*
X239947618Y-122907200D01*
X239947618Y-122907200D02*
X239899999Y-122859580D01*
X239899999Y-122859580D02*
X239899999Y-122954819D01*
X239280952Y-122383390D02*
X239376190Y-122335771D01*
X239376190Y-122335771D02*
X239423809Y-122288152D01*
X239423809Y-122288152D02*
X239471428Y-122192914D01*
X239471428Y-122192914D02*
X239471428Y-122145295D01*
X239471428Y-122145295D02*
X239423809Y-122050057D01*
X239423809Y-122050057D02*
X239376190Y-122002438D01*
X239376190Y-122002438D02*
X239280952Y-121954819D01*
X239280952Y-121954819D02*
X239090476Y-121954819D01*
X239090476Y-121954819D02*
X238995238Y-122002438D01*
X238995238Y-122002438D02*
X238947619Y-122050057D01*
X238947619Y-122050057D02*
X238900000Y-122145295D01*
X238900000Y-122145295D02*
X238900000Y-122192914D01*
X238900000Y-122192914D02*
X238947619Y-122288152D01*
X238947619Y-122288152D02*
X238995238Y-122335771D01*
X238995238Y-122335771D02*
X239090476Y-122383390D01*
X239090476Y-122383390D02*
X239280952Y-122383390D01*
X239280952Y-122383390D02*
X239376190Y-122431009D01*
X239376190Y-122431009D02*
X239423809Y-122478628D01*
X239423809Y-122478628D02*
X239471428Y-122573866D01*
X239471428Y-122573866D02*
X239471428Y-122764342D01*
X239471428Y-122764342D02*
X239423809Y-122859580D01*
X239423809Y-122859580D02*
X239376190Y-122907200D01*
X239376190Y-122907200D02*
X239280952Y-122954819D01*
X239280952Y-122954819D02*
X239090476Y-122954819D01*
X239090476Y-122954819D02*
X238995238Y-122907200D01*
X238995238Y-122907200D02*
X238947619Y-122859580D01*
X238947619Y-122859580D02*
X238900000Y-122764342D01*
X238900000Y-122764342D02*
X238900000Y-122573866D01*
X238900000Y-122573866D02*
X238947619Y-122478628D01*
X238947619Y-122478628D02*
X238995238Y-122431009D01*
X238995238Y-122431009D02*
X239090476Y-122383390D01*
X228328571Y-114954819D02*
X228899999Y-114954819D01*
X228614285Y-114954819D02*
X228614285Y-113954819D01*
X228614285Y-113954819D02*
X228709523Y-114097676D01*
X228709523Y-114097676D02*
X228804761Y-114192914D01*
X228804761Y-114192914D02*
X228899999Y-114240533D01*
X227899999Y-114859580D02*
X227852380Y-114907200D01*
X227852380Y-114907200D02*
X227899999Y-114954819D01*
X227899999Y-114954819D02*
X227947618Y-114907200D01*
X227947618Y-114907200D02*
X227899999Y-114859580D01*
X227899999Y-114859580D02*
X227899999Y-114954819D01*
X226995238Y-114288152D02*
X226995238Y-114954819D01*
X227233333Y-113907200D02*
X227471428Y-114621485D01*
X227471428Y-114621485D02*
X226852381Y-114621485D01*
X231090476Y-120954819D02*
X231661904Y-120954819D01*
X231376190Y-120954819D02*
X231376190Y-119954819D01*
X231376190Y-119954819D02*
X231471428Y-120097676D01*
X231471428Y-120097676D02*
X231566666Y-120192914D01*
X231566666Y-120192914D02*
X231661904Y-120240533D01*
X230614285Y-120954819D02*
X230423809Y-120954819D01*
X230423809Y-120954819D02*
X230328571Y-120907200D01*
X230328571Y-120907200D02*
X230280952Y-120859580D01*
X230280952Y-120859580D02*
X230185714Y-120716723D01*
X230185714Y-120716723D02*
X230138095Y-120526247D01*
X230138095Y-120526247D02*
X230138095Y-120145295D01*
X230138095Y-120145295D02*
X230185714Y-120050057D01*
X230185714Y-120050057D02*
X230233333Y-120002438D01*
X230233333Y-120002438D02*
X230328571Y-119954819D01*
X230328571Y-119954819D02*
X230519047Y-119954819D01*
X230519047Y-119954819D02*
X230614285Y-120002438D01*
X230614285Y-120002438D02*
X230661904Y-120050057D01*
X230661904Y-120050057D02*
X230709523Y-120145295D01*
X230709523Y-120145295D02*
X230709523Y-120383390D01*
X230709523Y-120383390D02*
X230661904Y-120478628D01*
X230661904Y-120478628D02*
X230614285Y-120526247D01*
X230614285Y-120526247D02*
X230519047Y-120573866D01*
X230519047Y-120573866D02*
X230328571Y-120573866D01*
X230328571Y-120573866D02*
X230233333Y-120526247D01*
X230233333Y-120526247D02*
X230185714Y-120478628D01*
X230185714Y-120478628D02*
X230138095Y-120383390D01*
X237423809Y-122288152D02*
X237423809Y-122954819D01*
X237661904Y-121907200D02*
X237899999Y-122621485D01*
X237899999Y-122621485D02*
X237280952Y-122621485D01*
X236899999Y-122859580D02*
X236852380Y-122907200D01*
X236852380Y-122907200D02*
X236899999Y-122954819D01*
X236899999Y-122954819D02*
X236947618Y-122907200D01*
X236947618Y-122907200D02*
X236899999Y-122859580D01*
X236899999Y-122859580D02*
X236899999Y-122954819D01*
X235900000Y-122954819D02*
X236471428Y-122954819D01*
X236185714Y-122954819D02*
X236185714Y-121954819D01*
X236185714Y-121954819D02*
X236280952Y-122097676D01*
X236280952Y-122097676D02*
X236376190Y-122192914D01*
X236376190Y-122192914D02*
X236471428Y-122240533D01*
X228947618Y-121954819D02*
X228328571Y-121954819D01*
X228328571Y-121954819D02*
X228661904Y-122335771D01*
X228661904Y-122335771D02*
X228519047Y-122335771D01*
X228519047Y-122335771D02*
X228423809Y-122383390D01*
X228423809Y-122383390D02*
X228376190Y-122431009D01*
X228376190Y-122431009D02*
X228328571Y-122526247D01*
X228328571Y-122526247D02*
X228328571Y-122764342D01*
X228328571Y-122764342D02*
X228376190Y-122859580D01*
X228376190Y-122859580D02*
X228423809Y-122907200D01*
X228423809Y-122907200D02*
X228519047Y-122954819D01*
X228519047Y-122954819D02*
X228804761Y-122954819D01*
X228804761Y-122954819D02*
X228899999Y-122907200D01*
X228899999Y-122907200D02*
X228947618Y-122859580D01*
X227899999Y-122859580D02*
X227852380Y-122907200D01*
X227852380Y-122907200D02*
X227899999Y-122954819D01*
X227899999Y-122954819D02*
X227947618Y-122907200D01*
X227947618Y-122907200D02*
X227899999Y-122859580D01*
X227899999Y-122859580D02*
X227899999Y-122954819D01*
X227471428Y-122050057D02*
X227423809Y-122002438D01*
X227423809Y-122002438D02*
X227328571Y-121954819D01*
X227328571Y-121954819D02*
X227090476Y-121954819D01*
X227090476Y-121954819D02*
X226995238Y-122002438D01*
X226995238Y-122002438D02*
X226947619Y-122050057D01*
X226947619Y-122050057D02*
X226900000Y-122145295D01*
X226900000Y-122145295D02*
X226900000Y-122240533D01*
X226900000Y-122240533D02*
X226947619Y-122383390D01*
X226947619Y-122383390D02*
X227519047Y-122954819D01*
X227519047Y-122954819D02*
X226900000Y-122954819D01*
X226019047Y-120669104D02*
X225542857Y-120669104D01*
X226114285Y-120954819D02*
X225780952Y-119954819D01*
X225780952Y-119954819D02*
X225447619Y-120954819D01*
X225209523Y-119954819D02*
X224971428Y-120954819D01*
X224971428Y-120954819D02*
X224780952Y-120240533D01*
X224780952Y-120240533D02*
X224590476Y-120954819D01*
X224590476Y-120954819D02*
X224352381Y-119954819D01*
X223447619Y-120002438D02*
X223542857Y-119954819D01*
X223542857Y-119954819D02*
X223685714Y-119954819D01*
X223685714Y-119954819D02*
X223828571Y-120002438D01*
X223828571Y-120002438D02*
X223923809Y-120097676D01*
X223923809Y-120097676D02*
X223971428Y-120192914D01*
X223971428Y-120192914D02*
X224019047Y-120383390D01*
X224019047Y-120383390D02*
X224019047Y-120526247D01*
X224019047Y-120526247D02*
X223971428Y-120716723D01*
X223971428Y-120716723D02*
X223923809Y-120811961D01*
X223923809Y-120811961D02*
X223828571Y-120907200D01*
X223828571Y-120907200D02*
X223685714Y-120954819D01*
X223685714Y-120954819D02*
X223590476Y-120954819D01*
X223590476Y-120954819D02*
X223447619Y-120907200D01*
X223447619Y-120907200D02*
X223400000Y-120859580D01*
X223400000Y-120859580D02*
X223400000Y-120526247D01*
X223400000Y-120526247D02*
X223590476Y-120526247D01*
X221923809Y-121335771D02*
X221971428Y-121288152D01*
X221971428Y-121288152D02*
X222066666Y-121145295D01*
X222066666Y-121145295D02*
X222114285Y-121050057D01*
X222114285Y-121050057D02*
X222161904Y-120907200D01*
X222161904Y-120907200D02*
X222209523Y-120669104D01*
X222209523Y-120669104D02*
X222209523Y-120478628D01*
X222209523Y-120478628D02*
X222161904Y-120240533D01*
X222161904Y-120240533D02*
X222114285Y-120097676D01*
X222114285Y-120097676D02*
X222066666Y-120002438D01*
X222066666Y-120002438D02*
X221971428Y-119859580D01*
X221971428Y-119859580D02*
X221923809Y-119811961D01*
X221114285Y-120954819D02*
X221114285Y-120431009D01*
X221114285Y-120431009D02*
X221161904Y-120335771D01*
X221161904Y-120335771D02*
X221257142Y-120288152D01*
X221257142Y-120288152D02*
X221447618Y-120288152D01*
X221447618Y-120288152D02*
X221542856Y-120335771D01*
X221114285Y-120907200D02*
X221209523Y-120954819D01*
X221209523Y-120954819D02*
X221447618Y-120954819D01*
X221447618Y-120954819D02*
X221542856Y-120907200D01*
X221542856Y-120907200D02*
X221590475Y-120811961D01*
X221590475Y-120811961D02*
X221590475Y-120716723D01*
X221590475Y-120716723D02*
X221542856Y-120621485D01*
X221542856Y-120621485D02*
X221447618Y-120573866D01*
X221447618Y-120573866D02*
X221209523Y-120573866D01*
X221209523Y-120573866D02*
X221114285Y-120526247D01*
X220638094Y-120288152D02*
X220638094Y-121288152D01*
X220638094Y-120335771D02*
X220542856Y-120288152D01*
X220542856Y-120288152D02*
X220352380Y-120288152D01*
X220352380Y-120288152D02*
X220257142Y-120335771D01*
X220257142Y-120335771D02*
X220209523Y-120383390D01*
X220209523Y-120383390D02*
X220161904Y-120478628D01*
X220161904Y-120478628D02*
X220161904Y-120764342D01*
X220161904Y-120764342D02*
X220209523Y-120859580D01*
X220209523Y-120859580D02*
X220257142Y-120907200D01*
X220257142Y-120907200D02*
X220352380Y-120954819D01*
X220352380Y-120954819D02*
X220542856Y-120954819D01*
X220542856Y-120954819D02*
X220638094Y-120907200D01*
X219733332Y-120288152D02*
X219733332Y-121288152D01*
X219733332Y-120335771D02*
X219638094Y-120288152D01*
X219638094Y-120288152D02*
X219447618Y-120288152D01*
X219447618Y-120288152D02*
X219352380Y-120335771D01*
X219352380Y-120335771D02*
X219304761Y-120383390D01*
X219304761Y-120383390D02*
X219257142Y-120478628D01*
X219257142Y-120478628D02*
X219257142Y-120764342D01*
X219257142Y-120764342D02*
X219304761Y-120859580D01*
X219304761Y-120859580D02*
X219352380Y-120907200D01*
X219352380Y-120907200D02*
X219447618Y-120954819D01*
X219447618Y-120954819D02*
X219638094Y-120954819D01*
X219638094Y-120954819D02*
X219733332Y-120907200D01*
X218828570Y-120954819D02*
X218828570Y-120288152D01*
X218828570Y-120478628D02*
X218780951Y-120383390D01*
X218780951Y-120383390D02*
X218733332Y-120335771D01*
X218733332Y-120335771D02*
X218638094Y-120288152D01*
X218638094Y-120288152D02*
X218542856Y-120288152D01*
X218066665Y-120954819D02*
X218161903Y-120907200D01*
X218161903Y-120907200D02*
X218209522Y-120859580D01*
X218209522Y-120859580D02*
X218257141Y-120764342D01*
X218257141Y-120764342D02*
X218257141Y-120478628D01*
X218257141Y-120478628D02*
X218209522Y-120383390D01*
X218209522Y-120383390D02*
X218161903Y-120335771D01*
X218161903Y-120335771D02*
X218066665Y-120288152D01*
X218066665Y-120288152D02*
X217923808Y-120288152D01*
X217923808Y-120288152D02*
X217828570Y-120335771D01*
X217828570Y-120335771D02*
X217780951Y-120383390D01*
X217780951Y-120383390D02*
X217733332Y-120478628D01*
X217733332Y-120478628D02*
X217733332Y-120764342D01*
X217733332Y-120764342D02*
X217780951Y-120859580D01*
X217780951Y-120859580D02*
X217828570Y-120907200D01*
X217828570Y-120907200D02*
X217923808Y-120954819D01*
X217923808Y-120954819D02*
X218066665Y-120954819D01*
X217399998Y-120954819D02*
X216876189Y-120288152D01*
X217399998Y-120288152D02*
X216876189Y-120954819D01*
X216495236Y-120859580D02*
X216447617Y-120907200D01*
X216447617Y-120907200D02*
X216495236Y-120954819D01*
X216495236Y-120954819D02*
X216542855Y-120907200D01*
X216542855Y-120907200D02*
X216495236Y-120859580D01*
X216495236Y-120859580D02*
X216495236Y-120954819D01*
X216114284Y-121335771D02*
X216066665Y-121288152D01*
X216066665Y-121288152D02*
X215971427Y-121145295D01*
X215971427Y-121145295D02*
X215923808Y-121050057D01*
X215923808Y-121050057D02*
X215876189Y-120907200D01*
X215876189Y-120907200D02*
X215828570Y-120669104D01*
X215828570Y-120669104D02*
X215828570Y-120478628D01*
X215828570Y-120478628D02*
X215876189Y-120240533D01*
X215876189Y-120240533D02*
X215923808Y-120097676D01*
X215923808Y-120097676D02*
X215971427Y-120002438D01*
X215971427Y-120002438D02*
X216066665Y-119859580D01*
X216066665Y-119859580D02*
X216114284Y-119811961D01*
X234090476Y-120954819D02*
X234661904Y-120954819D01*
X234376190Y-120954819D02*
X234376190Y-119954819D01*
X234376190Y-119954819D02*
X234471428Y-120097676D01*
X234471428Y-120097676D02*
X234566666Y-120192914D01*
X234566666Y-120192914D02*
X234661904Y-120240533D01*
X233519047Y-120383390D02*
X233614285Y-120335771D01*
X233614285Y-120335771D02*
X233661904Y-120288152D01*
X233661904Y-120288152D02*
X233709523Y-120192914D01*
X233709523Y-120192914D02*
X233709523Y-120145295D01*
X233709523Y-120145295D02*
X233661904Y-120050057D01*
X233661904Y-120050057D02*
X233614285Y-120002438D01*
X233614285Y-120002438D02*
X233519047Y-119954819D01*
X233519047Y-119954819D02*
X233328571Y-119954819D01*
X233328571Y-119954819D02*
X233233333Y-120002438D01*
X233233333Y-120002438D02*
X233185714Y-120050057D01*
X233185714Y-120050057D02*
X233138095Y-120145295D01*
X233138095Y-120145295D02*
X233138095Y-120192914D01*
X233138095Y-120192914D02*
X233185714Y-120288152D01*
X233185714Y-120288152D02*
X233233333Y-120335771D01*
X233233333Y-120335771D02*
X233328571Y-120383390D01*
X233328571Y-120383390D02*
X233519047Y-120383390D01*
X233519047Y-120383390D02*
X233614285Y-120431009D01*
X233614285Y-120431009D02*
X233661904Y-120478628D01*
X233661904Y-120478628D02*
X233709523Y-120573866D01*
X233709523Y-120573866D02*
X233709523Y-120764342D01*
X233709523Y-120764342D02*
X233661904Y-120859580D01*
X233661904Y-120859580D02*
X233614285Y-120907200D01*
X233614285Y-120907200D02*
X233519047Y-120954819D01*
X233519047Y-120954819D02*
X233328571Y-120954819D01*
X233328571Y-120954819D02*
X233233333Y-120907200D01*
X233233333Y-120907200D02*
X233185714Y-120859580D01*
X233185714Y-120859580D02*
X233138095Y-120764342D01*
X233138095Y-120764342D02*
X233138095Y-120573866D01*
X233138095Y-120573866D02*
X233185714Y-120478628D01*
X233185714Y-120478628D02*
X233233333Y-120431009D01*
X233233333Y-120431009D02*
X233328571Y-120383390D01*
X226019048Y-131954819D02*
X226019048Y-131288152D01*
X226019048Y-131383390D02*
X225971429Y-131335771D01*
X225971429Y-131335771D02*
X225876191Y-131288152D01*
X225876191Y-131288152D02*
X225733334Y-131288152D01*
X225733334Y-131288152D02*
X225638096Y-131335771D01*
X225638096Y-131335771D02*
X225590477Y-131431009D01*
X225590477Y-131431009D02*
X225590477Y-131954819D01*
X225590477Y-131431009D02*
X225542858Y-131335771D01*
X225542858Y-131335771D02*
X225447620Y-131288152D01*
X225447620Y-131288152D02*
X225304763Y-131288152D01*
X225304763Y-131288152D02*
X225209524Y-131335771D01*
X225209524Y-131335771D02*
X225161905Y-131431009D01*
X225161905Y-131431009D02*
X225161905Y-131954819D01*
X224257144Y-131954819D02*
X224257144Y-131431009D01*
X224257144Y-131431009D02*
X224304763Y-131335771D01*
X224304763Y-131335771D02*
X224400001Y-131288152D01*
X224400001Y-131288152D02*
X224590477Y-131288152D01*
X224590477Y-131288152D02*
X224685715Y-131335771D01*
X224257144Y-131907200D02*
X224352382Y-131954819D01*
X224352382Y-131954819D02*
X224590477Y-131954819D01*
X224590477Y-131954819D02*
X224685715Y-131907200D01*
X224685715Y-131907200D02*
X224733334Y-131811961D01*
X224733334Y-131811961D02*
X224733334Y-131716723D01*
X224733334Y-131716723D02*
X224685715Y-131621485D01*
X224685715Y-131621485D02*
X224590477Y-131573866D01*
X224590477Y-131573866D02*
X224352382Y-131573866D01*
X224352382Y-131573866D02*
X224257144Y-131526247D01*
X223876191Y-131954819D02*
X223352382Y-131288152D01*
X223876191Y-131288152D02*
X223352382Y-131954819D01*
X222971429Y-131859580D02*
X222923810Y-131907200D01*
X222923810Y-131907200D02*
X222971429Y-131954819D01*
X222971429Y-131954819D02*
X223019048Y-131907200D01*
X223019048Y-131907200D02*
X222971429Y-131859580D01*
X222971429Y-131859580D02*
X222971429Y-131954819D01*
X221161906Y-131859580D02*
X221209525Y-131907200D01*
X221209525Y-131907200D02*
X221352382Y-131954819D01*
X221352382Y-131954819D02*
X221447620Y-131954819D01*
X221447620Y-131954819D02*
X221590477Y-131907200D01*
X221590477Y-131907200D02*
X221685715Y-131811961D01*
X221685715Y-131811961D02*
X221733334Y-131716723D01*
X221733334Y-131716723D02*
X221780953Y-131526247D01*
X221780953Y-131526247D02*
X221780953Y-131383390D01*
X221780953Y-131383390D02*
X221733334Y-131192914D01*
X221733334Y-131192914D02*
X221685715Y-131097676D01*
X221685715Y-131097676D02*
X221590477Y-131002438D01*
X221590477Y-131002438D02*
X221447620Y-130954819D01*
X221447620Y-130954819D02*
X221352382Y-130954819D01*
X221352382Y-130954819D02*
X221209525Y-131002438D01*
X221209525Y-131002438D02*
X221161906Y-131050057D01*
X220304763Y-131288152D02*
X220304763Y-131954819D01*
X220733334Y-131288152D02*
X220733334Y-131811961D01*
X220733334Y-131811961D02*
X220685715Y-131907200D01*
X220685715Y-131907200D02*
X220590477Y-131954819D01*
X220590477Y-131954819D02*
X220447620Y-131954819D01*
X220447620Y-131954819D02*
X220352382Y-131907200D01*
X220352382Y-131907200D02*
X220304763Y-131859580D01*
X219828572Y-131954819D02*
X219828572Y-131288152D01*
X219828572Y-131478628D02*
X219780953Y-131383390D01*
X219780953Y-131383390D02*
X219733334Y-131335771D01*
X219733334Y-131335771D02*
X219638096Y-131288152D01*
X219638096Y-131288152D02*
X219542858Y-131288152D01*
X219209524Y-131954819D02*
X219209524Y-131288152D01*
X219209524Y-131478628D02*
X219161905Y-131383390D01*
X219161905Y-131383390D02*
X219114286Y-131335771D01*
X219114286Y-131335771D02*
X219019048Y-131288152D01*
X219019048Y-131288152D02*
X218923810Y-131288152D01*
X218209524Y-131907200D02*
X218304762Y-131954819D01*
X218304762Y-131954819D02*
X218495238Y-131954819D01*
X218495238Y-131954819D02*
X218590476Y-131907200D01*
X218590476Y-131907200D02*
X218638095Y-131811961D01*
X218638095Y-131811961D02*
X218638095Y-131431009D01*
X218638095Y-131431009D02*
X218590476Y-131335771D01*
X218590476Y-131335771D02*
X218495238Y-131288152D01*
X218495238Y-131288152D02*
X218304762Y-131288152D01*
X218304762Y-131288152D02*
X218209524Y-131335771D01*
X218209524Y-131335771D02*
X218161905Y-131431009D01*
X218161905Y-131431009D02*
X218161905Y-131526247D01*
X218161905Y-131526247D02*
X218638095Y-131621485D01*
X217733333Y-131288152D02*
X217733333Y-131954819D01*
X217733333Y-131383390D02*
X217685714Y-131335771D01*
X217685714Y-131335771D02*
X217590476Y-131288152D01*
X217590476Y-131288152D02*
X217447619Y-131288152D01*
X217447619Y-131288152D02*
X217352381Y-131335771D01*
X217352381Y-131335771D02*
X217304762Y-131431009D01*
X217304762Y-131431009D02*
X217304762Y-131954819D01*
X216971428Y-131288152D02*
X216590476Y-131288152D01*
X216828571Y-130954819D02*
X216828571Y-131811961D01*
X216828571Y-131811961D02*
X216780952Y-131907200D01*
X216780952Y-131907200D02*
X216685714Y-131954819D01*
X216685714Y-131954819D02*
X216590476Y-131954819D01*
X215209523Y-132335771D02*
X215257142Y-132288152D01*
X215257142Y-132288152D02*
X215352380Y-132145295D01*
X215352380Y-132145295D02*
X215399999Y-132050057D01*
X215399999Y-132050057D02*
X215447618Y-131907200D01*
X215447618Y-131907200D02*
X215495237Y-131669104D01*
X215495237Y-131669104D02*
X215495237Y-131478628D01*
X215495237Y-131478628D02*
X215447618Y-131240533D01*
X215447618Y-131240533D02*
X215399999Y-131097676D01*
X215399999Y-131097676D02*
X215352380Y-131002438D01*
X215352380Y-131002438D02*
X215257142Y-130859580D01*
X215257142Y-130859580D02*
X215209523Y-130811961D01*
X214876189Y-131669104D02*
X214399999Y-131669104D01*
X214971427Y-131954819D02*
X214638094Y-130954819D01*
X214638094Y-130954819D02*
X214304761Y-131954819D01*
X214066665Y-132335771D02*
X214019046Y-132288152D01*
X214019046Y-132288152D02*
X213923808Y-132145295D01*
X213923808Y-132145295D02*
X213876189Y-132050057D01*
X213876189Y-132050057D02*
X213828570Y-131907200D01*
X213828570Y-131907200D02*
X213780951Y-131669104D01*
X213780951Y-131669104D02*
X213780951Y-131478628D01*
X213780951Y-131478628D02*
X213828570Y-131240533D01*
X213828570Y-131240533D02*
X213876189Y-131097676D01*
X213876189Y-131097676D02*
X213923808Y-131002438D01*
X213923808Y-131002438D02*
X214019046Y-130859580D01*
X214019046Y-130859580D02*
X214066665Y-130811961D01*
X240899999Y-114050057D02*
X240852380Y-114002438D01*
X240852380Y-114002438D02*
X240757142Y-113954819D01*
X240757142Y-113954819D02*
X240519047Y-113954819D01*
X240519047Y-113954819D02*
X240423809Y-114002438D01*
X240423809Y-114002438D02*
X240376190Y-114050057D01*
X240376190Y-114050057D02*
X240328571Y-114145295D01*
X240328571Y-114145295D02*
X240328571Y-114240533D01*
X240328571Y-114240533D02*
X240376190Y-114383390D01*
X240376190Y-114383390D02*
X240947618Y-114954819D01*
X240947618Y-114954819D02*
X240328571Y-114954819D01*
X239899999Y-114859580D02*
X239852380Y-114907200D01*
X239852380Y-114907200D02*
X239899999Y-114954819D01*
X239899999Y-114954819D02*
X239947618Y-114907200D01*
X239947618Y-114907200D02*
X239899999Y-114859580D01*
X239899999Y-114859580D02*
X239899999Y-114954819D01*
X239519047Y-113954819D02*
X238852381Y-113954819D01*
X238852381Y-113954819D02*
X239280952Y-114954819D01*
X226019047Y-129669104D02*
X225542857Y-129669104D01*
X226114285Y-129954819D02*
X225780952Y-128954819D01*
X225780952Y-128954819D02*
X225447619Y-129954819D01*
X225209523Y-128954819D02*
X224971428Y-129954819D01*
X224971428Y-129954819D02*
X224780952Y-129240533D01*
X224780952Y-129240533D02*
X224590476Y-129954819D01*
X224590476Y-129954819D02*
X224352381Y-128954819D01*
X223447619Y-129002438D02*
X223542857Y-128954819D01*
X223542857Y-128954819D02*
X223685714Y-128954819D01*
X223685714Y-128954819D02*
X223828571Y-129002438D01*
X223828571Y-129002438D02*
X223923809Y-129097676D01*
X223923809Y-129097676D02*
X223971428Y-129192914D01*
X223971428Y-129192914D02*
X224019047Y-129383390D01*
X224019047Y-129383390D02*
X224019047Y-129526247D01*
X224019047Y-129526247D02*
X223971428Y-129716723D01*
X223971428Y-129716723D02*
X223923809Y-129811961D01*
X223923809Y-129811961D02*
X223828571Y-129907200D01*
X223828571Y-129907200D02*
X223685714Y-129954819D01*
X223685714Y-129954819D02*
X223590476Y-129954819D01*
X223590476Y-129954819D02*
X223447619Y-129907200D01*
X223447619Y-129907200D02*
X223400000Y-129859580D01*
X223400000Y-129859580D02*
X223400000Y-129526247D01*
X223400000Y-129526247D02*
X223590476Y-129526247D01*
X221923809Y-130335771D02*
X221971428Y-130288152D01*
X221971428Y-130288152D02*
X222066666Y-130145295D01*
X222066666Y-130145295D02*
X222114285Y-130050057D01*
X222114285Y-130050057D02*
X222161904Y-129907200D01*
X222161904Y-129907200D02*
X222209523Y-129669104D01*
X222209523Y-129669104D02*
X222209523Y-129478628D01*
X222209523Y-129478628D02*
X222161904Y-129240533D01*
X222161904Y-129240533D02*
X222114285Y-129097676D01*
X222114285Y-129097676D02*
X222066666Y-129002438D01*
X222066666Y-129002438D02*
X221971428Y-128859580D01*
X221971428Y-128859580D02*
X221923809Y-128811961D01*
X221114285Y-129954819D02*
X221114285Y-129431009D01*
X221114285Y-129431009D02*
X221161904Y-129335771D01*
X221161904Y-129335771D02*
X221257142Y-129288152D01*
X221257142Y-129288152D02*
X221447618Y-129288152D01*
X221447618Y-129288152D02*
X221542856Y-129335771D01*
X221114285Y-129907200D02*
X221209523Y-129954819D01*
X221209523Y-129954819D02*
X221447618Y-129954819D01*
X221447618Y-129954819D02*
X221542856Y-129907200D01*
X221542856Y-129907200D02*
X221590475Y-129811961D01*
X221590475Y-129811961D02*
X221590475Y-129716723D01*
X221590475Y-129716723D02*
X221542856Y-129621485D01*
X221542856Y-129621485D02*
X221447618Y-129573866D01*
X221447618Y-129573866D02*
X221209523Y-129573866D01*
X221209523Y-129573866D02*
X221114285Y-129526247D01*
X220638094Y-129288152D02*
X220638094Y-130288152D01*
X220638094Y-129335771D02*
X220542856Y-129288152D01*
X220542856Y-129288152D02*
X220352380Y-129288152D01*
X220352380Y-129288152D02*
X220257142Y-129335771D01*
X220257142Y-129335771D02*
X220209523Y-129383390D01*
X220209523Y-129383390D02*
X220161904Y-129478628D01*
X220161904Y-129478628D02*
X220161904Y-129764342D01*
X220161904Y-129764342D02*
X220209523Y-129859580D01*
X220209523Y-129859580D02*
X220257142Y-129907200D01*
X220257142Y-129907200D02*
X220352380Y-129954819D01*
X220352380Y-129954819D02*
X220542856Y-129954819D01*
X220542856Y-129954819D02*
X220638094Y-129907200D01*
X219733332Y-129288152D02*
X219733332Y-130288152D01*
X219733332Y-129335771D02*
X219638094Y-129288152D01*
X219638094Y-129288152D02*
X219447618Y-129288152D01*
X219447618Y-129288152D02*
X219352380Y-129335771D01*
X219352380Y-129335771D02*
X219304761Y-129383390D01*
X219304761Y-129383390D02*
X219257142Y-129478628D01*
X219257142Y-129478628D02*
X219257142Y-129764342D01*
X219257142Y-129764342D02*
X219304761Y-129859580D01*
X219304761Y-129859580D02*
X219352380Y-129907200D01*
X219352380Y-129907200D02*
X219447618Y-129954819D01*
X219447618Y-129954819D02*
X219638094Y-129954819D01*
X219638094Y-129954819D02*
X219733332Y-129907200D01*
X218828570Y-129954819D02*
X218828570Y-129288152D01*
X218828570Y-129478628D02*
X218780951Y-129383390D01*
X218780951Y-129383390D02*
X218733332Y-129335771D01*
X218733332Y-129335771D02*
X218638094Y-129288152D01*
X218638094Y-129288152D02*
X218542856Y-129288152D01*
X218066665Y-129954819D02*
X218161903Y-129907200D01*
X218161903Y-129907200D02*
X218209522Y-129859580D01*
X218209522Y-129859580D02*
X218257141Y-129764342D01*
X218257141Y-129764342D02*
X218257141Y-129478628D01*
X218257141Y-129478628D02*
X218209522Y-129383390D01*
X218209522Y-129383390D02*
X218161903Y-129335771D01*
X218161903Y-129335771D02*
X218066665Y-129288152D01*
X218066665Y-129288152D02*
X217923808Y-129288152D01*
X217923808Y-129288152D02*
X217828570Y-129335771D01*
X217828570Y-129335771D02*
X217780951Y-129383390D01*
X217780951Y-129383390D02*
X217733332Y-129478628D01*
X217733332Y-129478628D02*
X217733332Y-129764342D01*
X217733332Y-129764342D02*
X217780951Y-129859580D01*
X217780951Y-129859580D02*
X217828570Y-129907200D01*
X217828570Y-129907200D02*
X217923808Y-129954819D01*
X217923808Y-129954819D02*
X218066665Y-129954819D01*
X217399998Y-129954819D02*
X216876189Y-129288152D01*
X217399998Y-129288152D02*
X216876189Y-129954819D01*
X216495236Y-129859580D02*
X216447617Y-129907200D01*
X216447617Y-129907200D02*
X216495236Y-129954819D01*
X216495236Y-129954819D02*
X216542855Y-129907200D01*
X216542855Y-129907200D02*
X216495236Y-129859580D01*
X216495236Y-129859580D02*
X216495236Y-129954819D01*
X216114284Y-130335771D02*
X216066665Y-130288152D01*
X216066665Y-130288152D02*
X215971427Y-130145295D01*
X215971427Y-130145295D02*
X215923808Y-130050057D01*
X215923808Y-130050057D02*
X215876189Y-129907200D01*
X215876189Y-129907200D02*
X215828570Y-129669104D01*
X215828570Y-129669104D02*
X215828570Y-129478628D01*
X215828570Y-129478628D02*
X215876189Y-129240533D01*
X215876189Y-129240533D02*
X215923808Y-129097676D01*
X215923808Y-129097676D02*
X215971427Y-129002438D01*
X215971427Y-129002438D02*
X216066665Y-128859580D01*
X216066665Y-128859580D02*
X216114284Y-128811961D01*
X234661904Y-112050057D02*
X234614285Y-112002438D01*
X234614285Y-112002438D02*
X234519047Y-111954819D01*
X234519047Y-111954819D02*
X234280952Y-111954819D01*
X234280952Y-111954819D02*
X234185714Y-112002438D01*
X234185714Y-112002438D02*
X234138095Y-112050057D01*
X234138095Y-112050057D02*
X234090476Y-112145295D01*
X234090476Y-112145295D02*
X234090476Y-112240533D01*
X234090476Y-112240533D02*
X234138095Y-112383390D01*
X234138095Y-112383390D02*
X234709523Y-112954819D01*
X234709523Y-112954819D02*
X234090476Y-112954819D01*
X233185714Y-111954819D02*
X233661904Y-111954819D01*
X233661904Y-111954819D02*
X233709523Y-112431009D01*
X233709523Y-112431009D02*
X233661904Y-112383390D01*
X233661904Y-112383390D02*
X233566666Y-112335771D01*
X233566666Y-112335771D02*
X233328571Y-112335771D01*
X233328571Y-112335771D02*
X233233333Y-112383390D01*
X233233333Y-112383390D02*
X233185714Y-112431009D01*
X233185714Y-112431009D02*
X233138095Y-112526247D01*
X233138095Y-112526247D02*
X233138095Y-112764342D01*
X233138095Y-112764342D02*
X233185714Y-112859580D01*
X233185714Y-112859580D02*
X233233333Y-112907200D01*
X233233333Y-112907200D02*
X233328571Y-112954819D01*
X233328571Y-112954819D02*
X233566666Y-112954819D01*
X233566666Y-112954819D02*
X233661904Y-112907200D01*
X233661904Y-112907200D02*
X233709523Y-112859580D01*
X237804761Y-131954819D02*
X237614285Y-131954819D01*
X237614285Y-131954819D02*
X237519047Y-131907200D01*
X237519047Y-131907200D02*
X237471428Y-131859580D01*
X237471428Y-131859580D02*
X237376190Y-131716723D01*
X237376190Y-131716723D02*
X237328571Y-131526247D01*
X237328571Y-131526247D02*
X237328571Y-131145295D01*
X237328571Y-131145295D02*
X237376190Y-131050057D01*
X237376190Y-131050057D02*
X237423809Y-131002438D01*
X237423809Y-131002438D02*
X237519047Y-130954819D01*
X237519047Y-130954819D02*
X237709523Y-130954819D01*
X237709523Y-130954819D02*
X237804761Y-131002438D01*
X237804761Y-131002438D02*
X237852380Y-131050057D01*
X237852380Y-131050057D02*
X237899999Y-131145295D01*
X237899999Y-131145295D02*
X237899999Y-131383390D01*
X237899999Y-131383390D02*
X237852380Y-131478628D01*
X237852380Y-131478628D02*
X237804761Y-131526247D01*
X237804761Y-131526247D02*
X237709523Y-131573866D01*
X237709523Y-131573866D02*
X237519047Y-131573866D01*
X237519047Y-131573866D02*
X237423809Y-131526247D01*
X237423809Y-131526247D02*
X237376190Y-131478628D01*
X237376190Y-131478628D02*
X237328571Y-131383390D01*
X236899999Y-131859580D02*
X236852380Y-131907200D01*
X236852380Y-131907200D02*
X236899999Y-131954819D01*
X236899999Y-131954819D02*
X236947618Y-131907200D01*
X236947618Y-131907200D02*
X236899999Y-131859580D01*
X236899999Y-131859580D02*
X236899999Y-131954819D01*
X236519047Y-130954819D02*
X235900000Y-130954819D01*
X235900000Y-130954819D02*
X236233333Y-131335771D01*
X236233333Y-131335771D02*
X236090476Y-131335771D01*
X236090476Y-131335771D02*
X235995238Y-131383390D01*
X235995238Y-131383390D02*
X235947619Y-131431009D01*
X235947619Y-131431009D02*
X235900000Y-131526247D01*
X235900000Y-131526247D02*
X235900000Y-131764342D01*
X235900000Y-131764342D02*
X235947619Y-131859580D01*
X235947619Y-131859580D02*
X235995238Y-131907200D01*
X235995238Y-131907200D02*
X236090476Y-131954819D01*
X236090476Y-131954819D02*
X236376190Y-131954819D01*
X236376190Y-131954819D02*
X236471428Y-131907200D01*
X236471428Y-131907200D02*
X236519047Y-131859580D01*
X240661904Y-112050057D02*
X240614285Y-112002438D01*
X240614285Y-112002438D02*
X240519047Y-111954819D01*
X240519047Y-111954819D02*
X240280952Y-111954819D01*
X240280952Y-111954819D02*
X240185714Y-112002438D01*
X240185714Y-112002438D02*
X240138095Y-112050057D01*
X240138095Y-112050057D02*
X240090476Y-112145295D01*
X240090476Y-112145295D02*
X240090476Y-112240533D01*
X240090476Y-112240533D02*
X240138095Y-112383390D01*
X240138095Y-112383390D02*
X240709523Y-112954819D01*
X240709523Y-112954819D02*
X240090476Y-112954819D01*
X239709523Y-112050057D02*
X239661904Y-112002438D01*
X239661904Y-112002438D02*
X239566666Y-111954819D01*
X239566666Y-111954819D02*
X239328571Y-111954819D01*
X239328571Y-111954819D02*
X239233333Y-112002438D01*
X239233333Y-112002438D02*
X239185714Y-112050057D01*
X239185714Y-112050057D02*
X239138095Y-112145295D01*
X239138095Y-112145295D02*
X239138095Y-112240533D01*
X239138095Y-112240533D02*
X239185714Y-112383390D01*
X239185714Y-112383390D02*
X239757142Y-112954819D01*
X239757142Y-112954819D02*
X239138095Y-112954819D01*
X226019048Y-122954819D02*
X226019048Y-122288152D01*
X226019048Y-122383390D02*
X225971429Y-122335771D01*
X225971429Y-122335771D02*
X225876191Y-122288152D01*
X225876191Y-122288152D02*
X225733334Y-122288152D01*
X225733334Y-122288152D02*
X225638096Y-122335771D01*
X225638096Y-122335771D02*
X225590477Y-122431009D01*
X225590477Y-122431009D02*
X225590477Y-122954819D01*
X225590477Y-122431009D02*
X225542858Y-122335771D01*
X225542858Y-122335771D02*
X225447620Y-122288152D01*
X225447620Y-122288152D02*
X225304763Y-122288152D01*
X225304763Y-122288152D02*
X225209524Y-122335771D01*
X225209524Y-122335771D02*
X225161905Y-122431009D01*
X225161905Y-122431009D02*
X225161905Y-122954819D01*
X224257144Y-122954819D02*
X224257144Y-122431009D01*
X224257144Y-122431009D02*
X224304763Y-122335771D01*
X224304763Y-122335771D02*
X224400001Y-122288152D01*
X224400001Y-122288152D02*
X224590477Y-122288152D01*
X224590477Y-122288152D02*
X224685715Y-122335771D01*
X224257144Y-122907200D02*
X224352382Y-122954819D01*
X224352382Y-122954819D02*
X224590477Y-122954819D01*
X224590477Y-122954819D02*
X224685715Y-122907200D01*
X224685715Y-122907200D02*
X224733334Y-122811961D01*
X224733334Y-122811961D02*
X224733334Y-122716723D01*
X224733334Y-122716723D02*
X224685715Y-122621485D01*
X224685715Y-122621485D02*
X224590477Y-122573866D01*
X224590477Y-122573866D02*
X224352382Y-122573866D01*
X224352382Y-122573866D02*
X224257144Y-122526247D01*
X223876191Y-122954819D02*
X223352382Y-122288152D01*
X223876191Y-122288152D02*
X223352382Y-122954819D01*
X222971429Y-122859580D02*
X222923810Y-122907200D01*
X222923810Y-122907200D02*
X222971429Y-122954819D01*
X222971429Y-122954819D02*
X223019048Y-122907200D01*
X223019048Y-122907200D02*
X222971429Y-122859580D01*
X222971429Y-122859580D02*
X222971429Y-122954819D01*
X221161906Y-122859580D02*
X221209525Y-122907200D01*
X221209525Y-122907200D02*
X221352382Y-122954819D01*
X221352382Y-122954819D02*
X221447620Y-122954819D01*
X221447620Y-122954819D02*
X221590477Y-122907200D01*
X221590477Y-122907200D02*
X221685715Y-122811961D01*
X221685715Y-122811961D02*
X221733334Y-122716723D01*
X221733334Y-122716723D02*
X221780953Y-122526247D01*
X221780953Y-122526247D02*
X221780953Y-122383390D01*
X221780953Y-122383390D02*
X221733334Y-122192914D01*
X221733334Y-122192914D02*
X221685715Y-122097676D01*
X221685715Y-122097676D02*
X221590477Y-122002438D01*
X221590477Y-122002438D02*
X221447620Y-121954819D01*
X221447620Y-121954819D02*
X221352382Y-121954819D01*
X221352382Y-121954819D02*
X221209525Y-122002438D01*
X221209525Y-122002438D02*
X221161906Y-122050057D01*
X220304763Y-122288152D02*
X220304763Y-122954819D01*
X220733334Y-122288152D02*
X220733334Y-122811961D01*
X220733334Y-122811961D02*
X220685715Y-122907200D01*
X220685715Y-122907200D02*
X220590477Y-122954819D01*
X220590477Y-122954819D02*
X220447620Y-122954819D01*
X220447620Y-122954819D02*
X220352382Y-122907200D01*
X220352382Y-122907200D02*
X220304763Y-122859580D01*
X219828572Y-122954819D02*
X219828572Y-122288152D01*
X219828572Y-122478628D02*
X219780953Y-122383390D01*
X219780953Y-122383390D02*
X219733334Y-122335771D01*
X219733334Y-122335771D02*
X219638096Y-122288152D01*
X219638096Y-122288152D02*
X219542858Y-122288152D01*
X219209524Y-122954819D02*
X219209524Y-122288152D01*
X219209524Y-122478628D02*
X219161905Y-122383390D01*
X219161905Y-122383390D02*
X219114286Y-122335771D01*
X219114286Y-122335771D02*
X219019048Y-122288152D01*
X219019048Y-122288152D02*
X218923810Y-122288152D01*
X218209524Y-122907200D02*
X218304762Y-122954819D01*
X218304762Y-122954819D02*
X218495238Y-122954819D01*
X218495238Y-122954819D02*
X218590476Y-122907200D01*
X218590476Y-122907200D02*
X218638095Y-122811961D01*
X218638095Y-122811961D02*
X218638095Y-122431009D01*
X218638095Y-122431009D02*
X218590476Y-122335771D01*
X218590476Y-122335771D02*
X218495238Y-122288152D01*
X218495238Y-122288152D02*
X218304762Y-122288152D01*
X218304762Y-122288152D02*
X218209524Y-122335771D01*
X218209524Y-122335771D02*
X218161905Y-122431009D01*
X218161905Y-122431009D02*
X218161905Y-122526247D01*
X218161905Y-122526247D02*
X218638095Y-122621485D01*
X217733333Y-122288152D02*
X217733333Y-122954819D01*
X217733333Y-122383390D02*
X217685714Y-122335771D01*
X217685714Y-122335771D02*
X217590476Y-122288152D01*
X217590476Y-122288152D02*
X217447619Y-122288152D01*
X217447619Y-122288152D02*
X217352381Y-122335771D01*
X217352381Y-122335771D02*
X217304762Y-122431009D01*
X217304762Y-122431009D02*
X217304762Y-122954819D01*
X216971428Y-122288152D02*
X216590476Y-122288152D01*
X216828571Y-121954819D02*
X216828571Y-122811961D01*
X216828571Y-122811961D02*
X216780952Y-122907200D01*
X216780952Y-122907200D02*
X216685714Y-122954819D01*
X216685714Y-122954819D02*
X216590476Y-122954819D01*
X215209523Y-123335771D02*
X215257142Y-123288152D01*
X215257142Y-123288152D02*
X215352380Y-123145295D01*
X215352380Y-123145295D02*
X215399999Y-123050057D01*
X215399999Y-123050057D02*
X215447618Y-122907200D01*
X215447618Y-122907200D02*
X215495237Y-122669104D01*
X215495237Y-122669104D02*
X215495237Y-122478628D01*
X215495237Y-122478628D02*
X215447618Y-122240533D01*
X215447618Y-122240533D02*
X215399999Y-122097676D01*
X215399999Y-122097676D02*
X215352380Y-122002438D01*
X215352380Y-122002438D02*
X215257142Y-121859580D01*
X215257142Y-121859580D02*
X215209523Y-121811961D01*
X214876189Y-122669104D02*
X214399999Y-122669104D01*
X214971427Y-122954819D02*
X214638094Y-121954819D01*
X214638094Y-121954819D02*
X214304761Y-122954819D01*
X214066665Y-123335771D02*
X214019046Y-123288152D01*
X214019046Y-123288152D02*
X213923808Y-123145295D01*
X213923808Y-123145295D02*
X213876189Y-123050057D01*
X213876189Y-123050057D02*
X213828570Y-122907200D01*
X213828570Y-122907200D02*
X213780951Y-122669104D01*
X213780951Y-122669104D02*
X213780951Y-122478628D01*
X213780951Y-122478628D02*
X213828570Y-122240533D01*
X213828570Y-122240533D02*
X213876189Y-122097676D01*
X213876189Y-122097676D02*
X213923808Y-122002438D01*
X213923808Y-122002438D02*
X214019046Y-121859580D01*
X214019046Y-121859580D02*
X214066665Y-121811961D01*
X237090476Y-120954819D02*
X237661904Y-120954819D01*
X237376190Y-120954819D02*
X237376190Y-119954819D01*
X237376190Y-119954819D02*
X237471428Y-120097676D01*
X237471428Y-120097676D02*
X237566666Y-120192914D01*
X237566666Y-120192914D02*
X237661904Y-120240533D01*
X236757142Y-119954819D02*
X236090476Y-119954819D01*
X236090476Y-119954819D02*
X236519047Y-120954819D01*
X228090476Y-129954819D02*
X228661904Y-129954819D01*
X228376190Y-129954819D02*
X228376190Y-128954819D01*
X228376190Y-128954819D02*
X228471428Y-129097676D01*
X228471428Y-129097676D02*
X228566666Y-129192914D01*
X228566666Y-129192914D02*
X228661904Y-129240533D01*
X227138095Y-129954819D02*
X227709523Y-129954819D01*
X227423809Y-129954819D02*
X227423809Y-128954819D01*
X227423809Y-128954819D02*
X227519047Y-129097676D01*
X227519047Y-129097676D02*
X227614285Y-129192914D01*
X227614285Y-129192914D02*
X227709523Y-129240533D01*
X225280952Y-125954819D02*
X224709523Y-125954819D01*
X225120238Y-126954819D02*
X224995238Y-125954819D01*
X224489285Y-126859580D02*
X224447618Y-126907200D01*
X224447618Y-126907200D02*
X224501190Y-126954819D01*
X224501190Y-126954819D02*
X224542856Y-126907200D01*
X224542856Y-126907200D02*
X224489285Y-126859580D01*
X224489285Y-126859580D02*
X224501190Y-126954819D01*
X223263095Y-126954819D02*
X223179761Y-126288152D01*
X223138095Y-125954819D02*
X223191666Y-126002438D01*
X223191666Y-126002438D02*
X223149999Y-126050057D01*
X223149999Y-126050057D02*
X223096428Y-126002438D01*
X223096428Y-126002438D02*
X223138095Y-125954819D01*
X223138095Y-125954819D02*
X223149999Y-126050057D01*
X222703571Y-126288152D02*
X222786905Y-126954819D01*
X222715476Y-126383390D02*
X222661905Y-126335771D01*
X222661905Y-126335771D02*
X222560714Y-126288152D01*
X222560714Y-126288152D02*
X222417857Y-126288152D01*
X222417857Y-126288152D02*
X222328571Y-126335771D01*
X222328571Y-126335771D02*
X222292857Y-126431009D01*
X222292857Y-126431009D02*
X222358333Y-126954819D01*
X221447619Y-126907200D02*
X221548809Y-126954819D01*
X221548809Y-126954819D02*
X221739286Y-126954819D01*
X221739286Y-126954819D02*
X221828571Y-126907200D01*
X221828571Y-126907200D02*
X221870238Y-126859580D01*
X221870238Y-126859580D02*
X221905952Y-126764342D01*
X221905952Y-126764342D02*
X221870238Y-126478628D01*
X221870238Y-126478628D02*
X221810714Y-126383390D01*
X221810714Y-126383390D02*
X221757143Y-126335771D01*
X221757143Y-126335771D02*
X221655952Y-126288152D01*
X221655952Y-126288152D02*
X221465476Y-126288152D01*
X221465476Y-126288152D02*
X221376190Y-126335771D01*
X221025000Y-126954819D02*
X220941666Y-126288152D01*
X220965476Y-126478628D02*
X220905952Y-126383390D01*
X220905952Y-126383390D02*
X220852381Y-126335771D01*
X220852381Y-126335771D02*
X220751190Y-126288152D01*
X220751190Y-126288152D02*
X220655952Y-126288152D01*
X220019047Y-126907200D02*
X220120237Y-126954819D01*
X220120237Y-126954819D02*
X220310714Y-126954819D01*
X220310714Y-126954819D02*
X220399999Y-126907200D01*
X220399999Y-126907200D02*
X220435714Y-126811961D01*
X220435714Y-126811961D02*
X220388095Y-126431009D01*
X220388095Y-126431009D02*
X220328571Y-126335771D01*
X220328571Y-126335771D02*
X220227380Y-126288152D01*
X220227380Y-126288152D02*
X220036904Y-126288152D01*
X220036904Y-126288152D02*
X219947618Y-126335771D01*
X219947618Y-126335771D02*
X219911904Y-126431009D01*
X219911904Y-126431009D02*
X219923809Y-126526247D01*
X219923809Y-126526247D02*
X220411904Y-126621485D01*
X219120237Y-126954819D02*
X219054761Y-126431009D01*
X219054761Y-126431009D02*
X219090475Y-126335771D01*
X219090475Y-126335771D02*
X219179761Y-126288152D01*
X219179761Y-126288152D02*
X219370237Y-126288152D01*
X219370237Y-126288152D02*
X219471428Y-126335771D01*
X219114285Y-126907200D02*
X219215475Y-126954819D01*
X219215475Y-126954819D02*
X219453571Y-126954819D01*
X219453571Y-126954819D02*
X219542856Y-126907200D01*
X219542856Y-126907200D02*
X219578571Y-126811961D01*
X219578571Y-126811961D02*
X219566666Y-126716723D01*
X219566666Y-126716723D02*
X219507142Y-126621485D01*
X219507142Y-126621485D02*
X219405952Y-126573866D01*
X219405952Y-126573866D02*
X219167856Y-126573866D01*
X219167856Y-126573866D02*
X219066666Y-126526247D01*
X218685713Y-126907200D02*
X218596428Y-126954819D01*
X218596428Y-126954819D02*
X218405951Y-126954819D01*
X218405951Y-126954819D02*
X218304761Y-126907200D01*
X218304761Y-126907200D02*
X218245237Y-126811961D01*
X218245237Y-126811961D02*
X218239285Y-126764342D01*
X218239285Y-126764342D02*
X218274999Y-126669104D01*
X218274999Y-126669104D02*
X218364285Y-126621485D01*
X218364285Y-126621485D02*
X218507142Y-126621485D01*
X218507142Y-126621485D02*
X218596428Y-126573866D01*
X218596428Y-126573866D02*
X218632142Y-126478628D01*
X218632142Y-126478628D02*
X218626190Y-126431009D01*
X218626190Y-126431009D02*
X218566666Y-126335771D01*
X218566666Y-126335771D02*
X218465475Y-126288152D01*
X218465475Y-126288152D02*
X218322618Y-126288152D01*
X218322618Y-126288152D02*
X218233332Y-126335771D01*
X217447618Y-126907200D02*
X217548808Y-126954819D01*
X217548808Y-126954819D02*
X217739285Y-126954819D01*
X217739285Y-126954819D02*
X217828570Y-126907200D01*
X217828570Y-126907200D02*
X217864285Y-126811961D01*
X217864285Y-126811961D02*
X217816666Y-126431009D01*
X217816666Y-126431009D02*
X217757142Y-126335771D01*
X217757142Y-126335771D02*
X217655951Y-126288152D01*
X217655951Y-126288152D02*
X217465475Y-126288152D01*
X217465475Y-126288152D02*
X217376189Y-126335771D01*
X217376189Y-126335771D02*
X217340475Y-126431009D01*
X217340475Y-126431009D02*
X217352380Y-126526247D01*
X217352380Y-126526247D02*
X217840475Y-126621485D01*
X216911903Y-126431009D02*
X216149999Y-126431009D01*
X216185713Y-126716723D02*
X216947618Y-126716723D01*
X215673808Y-126050057D02*
X215620237Y-126002438D01*
X215620237Y-126002438D02*
X215519047Y-125954819D01*
X215519047Y-125954819D02*
X215280951Y-125954819D01*
X215280951Y-125954819D02*
X215191666Y-126002438D01*
X215191666Y-126002438D02*
X215149999Y-126050057D01*
X215149999Y-126050057D02*
X215114285Y-126145295D01*
X215114285Y-126145295D02*
X215126189Y-126240533D01*
X215126189Y-126240533D02*
X215191666Y-126383390D01*
X215191666Y-126383390D02*
X215834523Y-126954819D01*
X215834523Y-126954819D02*
X215215475Y-126954819D01*
X214471427Y-125954819D02*
X214376189Y-125954819D01*
X214376189Y-125954819D02*
X214286904Y-126002438D01*
X214286904Y-126002438D02*
X214245237Y-126050057D01*
X214245237Y-126050057D02*
X214209523Y-126145295D01*
X214209523Y-126145295D02*
X214185713Y-126335771D01*
X214185713Y-126335771D02*
X214215475Y-126573866D01*
X214215475Y-126573866D02*
X214286904Y-126764342D01*
X214286904Y-126764342D02*
X214346427Y-126859580D01*
X214346427Y-126859580D02*
X214399999Y-126907200D01*
X214399999Y-126907200D02*
X214501189Y-126954819D01*
X214501189Y-126954819D02*
X214596427Y-126954819D01*
X214596427Y-126954819D02*
X214685713Y-126907200D01*
X214685713Y-126907200D02*
X214727380Y-126859580D01*
X214727380Y-126859580D02*
X214763094Y-126764342D01*
X214763094Y-126764342D02*
X214786904Y-126573866D01*
X214786904Y-126573866D02*
X214757142Y-126335771D01*
X214757142Y-126335771D02*
X214685713Y-126145295D01*
X214685713Y-126145295D02*
X214626189Y-126050057D01*
X214626189Y-126050057D02*
X214572618Y-126002438D01*
X214572618Y-126002438D02*
X214471427Y-125954819D01*
X213566666Y-125954819D02*
X213667856Y-126002438D01*
X213667856Y-126002438D02*
X213727380Y-126097676D01*
X213727380Y-126097676D02*
X213691666Y-126192914D01*
X213691666Y-126192914D02*
X213602380Y-126240533D01*
X213602380Y-126240533D02*
X213501189Y-126192914D01*
X213501189Y-126192914D02*
X213441666Y-126097676D01*
X213441666Y-126097676D02*
X213477380Y-126002438D01*
X213477380Y-126002438D02*
X213566666Y-125954819D01*
X212489284Y-126859580D02*
X212542856Y-126907200D01*
X212542856Y-126907200D02*
X212691665Y-126954819D01*
X212691665Y-126954819D02*
X212786903Y-126954819D01*
X212786903Y-126954819D02*
X212923808Y-126907200D01*
X212923808Y-126907200D02*
X213007141Y-126811961D01*
X213007141Y-126811961D02*
X213042856Y-126716723D01*
X213042856Y-126716723D02*
X213066665Y-126526247D01*
X213066665Y-126526247D02*
X213048808Y-126383390D01*
X213048808Y-126383390D02*
X212977380Y-126192914D01*
X212977380Y-126192914D02*
X212917856Y-126097676D01*
X212917856Y-126097676D02*
X212810713Y-126002438D01*
X212810713Y-126002438D02*
X212661903Y-125954819D01*
X212661903Y-125954819D02*
X212566665Y-125954819D01*
X212566665Y-125954819D02*
X212429761Y-126002438D01*
X212429761Y-126002438D02*
X212388094Y-126050057D01*
X231947618Y-121954819D02*
X231328571Y-121954819D01*
X231328571Y-121954819D02*
X231661904Y-122335771D01*
X231661904Y-122335771D02*
X231519047Y-122335771D01*
X231519047Y-122335771D02*
X231423809Y-122383390D01*
X231423809Y-122383390D02*
X231376190Y-122431009D01*
X231376190Y-122431009D02*
X231328571Y-122526247D01*
X231328571Y-122526247D02*
X231328571Y-122764342D01*
X231328571Y-122764342D02*
X231376190Y-122859580D01*
X231376190Y-122859580D02*
X231423809Y-122907200D01*
X231423809Y-122907200D02*
X231519047Y-122954819D01*
X231519047Y-122954819D02*
X231804761Y-122954819D01*
X231804761Y-122954819D02*
X231899999Y-122907200D01*
X231899999Y-122907200D02*
X231947618Y-122859580D01*
X230899999Y-122859580D02*
X230852380Y-122907200D01*
X230852380Y-122907200D02*
X230899999Y-122954819D01*
X230899999Y-122954819D02*
X230947618Y-122907200D01*
X230947618Y-122907200D02*
X230899999Y-122859580D01*
X230899999Y-122859580D02*
X230899999Y-122954819D01*
X229947619Y-121954819D02*
X230423809Y-121954819D01*
X230423809Y-121954819D02*
X230471428Y-122431009D01*
X230471428Y-122431009D02*
X230423809Y-122383390D01*
X230423809Y-122383390D02*
X230328571Y-122335771D01*
X230328571Y-122335771D02*
X230090476Y-122335771D01*
X230090476Y-122335771D02*
X229995238Y-122383390D01*
X229995238Y-122383390D02*
X229947619Y-122431009D01*
X229947619Y-122431009D02*
X229900000Y-122526247D01*
X229900000Y-122526247D02*
X229900000Y-122764342D01*
X229900000Y-122764342D02*
X229947619Y-122859580D01*
X229947619Y-122859580D02*
X229995238Y-122907200D01*
X229995238Y-122907200D02*
X230090476Y-122954819D01*
X230090476Y-122954819D02*
X230328571Y-122954819D01*
X230328571Y-122954819D02*
X230423809Y-122907200D01*
X230423809Y-122907200D02*
X230471428Y-122859580D01*
X226019048Y-114954819D02*
X226019048Y-114288152D01*
X226019048Y-114383390D02*
X225971429Y-114335771D01*
X225971429Y-114335771D02*
X225876191Y-114288152D01*
X225876191Y-114288152D02*
X225733334Y-114288152D01*
X225733334Y-114288152D02*
X225638096Y-114335771D01*
X225638096Y-114335771D02*
X225590477Y-114431009D01*
X225590477Y-114431009D02*
X225590477Y-114954819D01*
X225590477Y-114431009D02*
X225542858Y-114335771D01*
X225542858Y-114335771D02*
X225447620Y-114288152D01*
X225447620Y-114288152D02*
X225304763Y-114288152D01*
X225304763Y-114288152D02*
X225209524Y-114335771D01*
X225209524Y-114335771D02*
X225161905Y-114431009D01*
X225161905Y-114431009D02*
X225161905Y-114954819D01*
X224257144Y-114954819D02*
X224257144Y-114431009D01*
X224257144Y-114431009D02*
X224304763Y-114335771D01*
X224304763Y-114335771D02*
X224400001Y-114288152D01*
X224400001Y-114288152D02*
X224590477Y-114288152D01*
X224590477Y-114288152D02*
X224685715Y-114335771D01*
X224257144Y-114907200D02*
X224352382Y-114954819D01*
X224352382Y-114954819D02*
X224590477Y-114954819D01*
X224590477Y-114954819D02*
X224685715Y-114907200D01*
X224685715Y-114907200D02*
X224733334Y-114811961D01*
X224733334Y-114811961D02*
X224733334Y-114716723D01*
X224733334Y-114716723D02*
X224685715Y-114621485D01*
X224685715Y-114621485D02*
X224590477Y-114573866D01*
X224590477Y-114573866D02*
X224352382Y-114573866D01*
X224352382Y-114573866D02*
X224257144Y-114526247D01*
X223876191Y-114954819D02*
X223352382Y-114288152D01*
X223876191Y-114288152D02*
X223352382Y-114954819D01*
X222971429Y-114859580D02*
X222923810Y-114907200D01*
X222923810Y-114907200D02*
X222971429Y-114954819D01*
X222971429Y-114954819D02*
X223019048Y-114907200D01*
X223019048Y-114907200D02*
X222971429Y-114859580D01*
X222971429Y-114859580D02*
X222971429Y-114954819D01*
X221161906Y-114859580D02*
X221209525Y-114907200D01*
X221209525Y-114907200D02*
X221352382Y-114954819D01*
X221352382Y-114954819D02*
X221447620Y-114954819D01*
X221447620Y-114954819D02*
X221590477Y-114907200D01*
X221590477Y-114907200D02*
X221685715Y-114811961D01*
X221685715Y-114811961D02*
X221733334Y-114716723D01*
X221733334Y-114716723D02*
X221780953Y-114526247D01*
X221780953Y-114526247D02*
X221780953Y-114383390D01*
X221780953Y-114383390D02*
X221733334Y-114192914D01*
X221733334Y-114192914D02*
X221685715Y-114097676D01*
X221685715Y-114097676D02*
X221590477Y-114002438D01*
X221590477Y-114002438D02*
X221447620Y-113954819D01*
X221447620Y-113954819D02*
X221352382Y-113954819D01*
X221352382Y-113954819D02*
X221209525Y-114002438D01*
X221209525Y-114002438D02*
X221161906Y-114050057D01*
X220304763Y-114288152D02*
X220304763Y-114954819D01*
X220733334Y-114288152D02*
X220733334Y-114811961D01*
X220733334Y-114811961D02*
X220685715Y-114907200D01*
X220685715Y-114907200D02*
X220590477Y-114954819D01*
X220590477Y-114954819D02*
X220447620Y-114954819D01*
X220447620Y-114954819D02*
X220352382Y-114907200D01*
X220352382Y-114907200D02*
X220304763Y-114859580D01*
X219828572Y-114954819D02*
X219828572Y-114288152D01*
X219828572Y-114478628D02*
X219780953Y-114383390D01*
X219780953Y-114383390D02*
X219733334Y-114335771D01*
X219733334Y-114335771D02*
X219638096Y-114288152D01*
X219638096Y-114288152D02*
X219542858Y-114288152D01*
X219209524Y-114954819D02*
X219209524Y-114288152D01*
X219209524Y-114478628D02*
X219161905Y-114383390D01*
X219161905Y-114383390D02*
X219114286Y-114335771D01*
X219114286Y-114335771D02*
X219019048Y-114288152D01*
X219019048Y-114288152D02*
X218923810Y-114288152D01*
X218209524Y-114907200D02*
X218304762Y-114954819D01*
X218304762Y-114954819D02*
X218495238Y-114954819D01*
X218495238Y-114954819D02*
X218590476Y-114907200D01*
X218590476Y-114907200D02*
X218638095Y-114811961D01*
X218638095Y-114811961D02*
X218638095Y-114431009D01*
X218638095Y-114431009D02*
X218590476Y-114335771D01*
X218590476Y-114335771D02*
X218495238Y-114288152D01*
X218495238Y-114288152D02*
X218304762Y-114288152D01*
X218304762Y-114288152D02*
X218209524Y-114335771D01*
X218209524Y-114335771D02*
X218161905Y-114431009D01*
X218161905Y-114431009D02*
X218161905Y-114526247D01*
X218161905Y-114526247D02*
X218638095Y-114621485D01*
X217733333Y-114288152D02*
X217733333Y-114954819D01*
X217733333Y-114383390D02*
X217685714Y-114335771D01*
X217685714Y-114335771D02*
X217590476Y-114288152D01*
X217590476Y-114288152D02*
X217447619Y-114288152D01*
X217447619Y-114288152D02*
X217352381Y-114335771D01*
X217352381Y-114335771D02*
X217304762Y-114431009D01*
X217304762Y-114431009D02*
X217304762Y-114954819D01*
X216971428Y-114288152D02*
X216590476Y-114288152D01*
X216828571Y-113954819D02*
X216828571Y-114811961D01*
X216828571Y-114811961D02*
X216780952Y-114907200D01*
X216780952Y-114907200D02*
X216685714Y-114954819D01*
X216685714Y-114954819D02*
X216590476Y-114954819D01*
X215209523Y-115335771D02*
X215257142Y-115288152D01*
X215257142Y-115288152D02*
X215352380Y-115145295D01*
X215352380Y-115145295D02*
X215399999Y-115050057D01*
X215399999Y-115050057D02*
X215447618Y-114907200D01*
X215447618Y-114907200D02*
X215495237Y-114669104D01*
X215495237Y-114669104D02*
X215495237Y-114478628D01*
X215495237Y-114478628D02*
X215447618Y-114240533D01*
X215447618Y-114240533D02*
X215399999Y-114097676D01*
X215399999Y-114097676D02*
X215352380Y-114002438D01*
X215352380Y-114002438D02*
X215257142Y-113859580D01*
X215257142Y-113859580D02*
X215209523Y-113811961D01*
X214876189Y-114669104D02*
X214399999Y-114669104D01*
X214971427Y-114954819D02*
X214638094Y-113954819D01*
X214638094Y-113954819D02*
X214304761Y-114954819D01*
X214066665Y-115335771D02*
X214019046Y-115288152D01*
X214019046Y-115288152D02*
X213923808Y-115145295D01*
X213923808Y-115145295D02*
X213876189Y-115050057D01*
X213876189Y-115050057D02*
X213828570Y-114907200D01*
X213828570Y-114907200D02*
X213780951Y-114669104D01*
X213780951Y-114669104D02*
X213780951Y-114478628D01*
X213780951Y-114478628D02*
X213828570Y-114240533D01*
X213828570Y-114240533D02*
X213876189Y-114097676D01*
X213876189Y-114097676D02*
X213923808Y-114002438D01*
X213923808Y-114002438D02*
X214019046Y-113859580D01*
X214019046Y-113859580D02*
X214066665Y-113811961D01*
X242233332Y-128954819D02*
X241566666Y-128954819D01*
X241566666Y-128954819D02*
X241995237Y-129954819D01*
X228661904Y-120050057D02*
X228614285Y-120002438D01*
X228614285Y-120002438D02*
X228519047Y-119954819D01*
X228519047Y-119954819D02*
X228280952Y-119954819D01*
X228280952Y-119954819D02*
X228185714Y-120002438D01*
X228185714Y-120002438D02*
X228138095Y-120050057D01*
X228138095Y-120050057D02*
X228090476Y-120145295D01*
X228090476Y-120145295D02*
X228090476Y-120240533D01*
X228090476Y-120240533D02*
X228138095Y-120383390D01*
X228138095Y-120383390D02*
X228709523Y-120954819D01*
X228709523Y-120954819D02*
X228090476Y-120954819D01*
X227471428Y-119954819D02*
X227376190Y-119954819D01*
X227376190Y-119954819D02*
X227280952Y-120002438D01*
X227280952Y-120002438D02*
X227233333Y-120050057D01*
X227233333Y-120050057D02*
X227185714Y-120145295D01*
X227185714Y-120145295D02*
X227138095Y-120335771D01*
X227138095Y-120335771D02*
X227138095Y-120573866D01*
X227138095Y-120573866D02*
X227185714Y-120764342D01*
X227185714Y-120764342D02*
X227233333Y-120859580D01*
X227233333Y-120859580D02*
X227280952Y-120907200D01*
X227280952Y-120907200D02*
X227376190Y-120954819D01*
X227376190Y-120954819D02*
X227471428Y-120954819D01*
X227471428Y-120954819D02*
X227566666Y-120907200D01*
X227566666Y-120907200D02*
X227614285Y-120859580D01*
X227614285Y-120859580D02*
X227661904Y-120764342D01*
X227661904Y-120764342D02*
X227709523Y-120573866D01*
X227709523Y-120573866D02*
X227709523Y-120335771D01*
X227709523Y-120335771D02*
X227661904Y-120145295D01*
X227661904Y-120145295D02*
X227614285Y-120050057D01*
X227614285Y-120050057D02*
X227566666Y-120002438D01*
X227566666Y-120002438D02*
X227471428Y-119954819D01*
X231661904Y-112050057D02*
X231614285Y-112002438D01*
X231614285Y-112002438D02*
X231519047Y-111954819D01*
X231519047Y-111954819D02*
X231280952Y-111954819D01*
X231280952Y-111954819D02*
X231185714Y-112002438D01*
X231185714Y-112002438D02*
X231138095Y-112050057D01*
X231138095Y-112050057D02*
X231090476Y-112145295D01*
X231090476Y-112145295D02*
X231090476Y-112240533D01*
X231090476Y-112240533D02*
X231138095Y-112383390D01*
X231138095Y-112383390D02*
X231709523Y-112954819D01*
X231709523Y-112954819D02*
X231090476Y-112954819D01*
X230757142Y-111954819D02*
X230090476Y-111954819D01*
X230090476Y-111954819D02*
X230519047Y-112954819D01*
X228661904Y-112050057D02*
X228614285Y-112002438D01*
X228614285Y-112002438D02*
X228519047Y-111954819D01*
X228519047Y-111954819D02*
X228280952Y-111954819D01*
X228280952Y-111954819D02*
X228185714Y-112002438D01*
X228185714Y-112002438D02*
X228138095Y-112050057D01*
X228138095Y-112050057D02*
X228090476Y-112145295D01*
X228090476Y-112145295D02*
X228090476Y-112240533D01*
X228090476Y-112240533D02*
X228138095Y-112383390D01*
X228138095Y-112383390D02*
X228709523Y-112954819D01*
X228709523Y-112954819D02*
X228090476Y-112954819D01*
X227614285Y-112954819D02*
X227423809Y-112954819D01*
X227423809Y-112954819D02*
X227328571Y-112907200D01*
X227328571Y-112907200D02*
X227280952Y-112859580D01*
X227280952Y-112859580D02*
X227185714Y-112716723D01*
X227185714Y-112716723D02*
X227138095Y-112526247D01*
X227138095Y-112526247D02*
X227138095Y-112145295D01*
X227138095Y-112145295D02*
X227185714Y-112050057D01*
X227185714Y-112050057D02*
X227233333Y-112002438D01*
X227233333Y-112002438D02*
X227328571Y-111954819D01*
X227328571Y-111954819D02*
X227519047Y-111954819D01*
X227519047Y-111954819D02*
X227614285Y-112002438D01*
X227614285Y-112002438D02*
X227661904Y-112050057D01*
X227661904Y-112050057D02*
X227709523Y-112145295D01*
X227709523Y-112145295D02*
X227709523Y-112383390D01*
X227709523Y-112383390D02*
X227661904Y-112478628D01*
X227661904Y-112478628D02*
X227614285Y-112526247D01*
X227614285Y-112526247D02*
X227519047Y-112573866D01*
X227519047Y-112573866D02*
X227328571Y-112573866D01*
X227328571Y-112573866D02*
X227233333Y-112526247D01*
X227233333Y-112526247D02*
X227185714Y-112478628D01*
X227185714Y-112478628D02*
X227138095Y-112383390D01*
X231328571Y-114954819D02*
X231899999Y-114954819D01*
X231614285Y-114954819D02*
X231614285Y-113954819D01*
X231614285Y-113954819D02*
X231709523Y-114097676D01*
X231709523Y-114097676D02*
X231804761Y-114192914D01*
X231804761Y-114192914D02*
X231899999Y-114240533D01*
X230899999Y-114859580D02*
X230852380Y-114907200D01*
X230852380Y-114907200D02*
X230899999Y-114954819D01*
X230899999Y-114954819D02*
X230947618Y-114907200D01*
X230947618Y-114907200D02*
X230899999Y-114859580D01*
X230899999Y-114859580D02*
X230899999Y-114954819D01*
X230519047Y-113954819D02*
X229852381Y-113954819D01*
X229852381Y-113954819D02*
X230280952Y-114954819D01*
X240090476Y-120954819D02*
X240661904Y-120954819D01*
X240376190Y-120954819D02*
X240376190Y-119954819D01*
X240376190Y-119954819D02*
X240471428Y-120097676D01*
X240471428Y-120097676D02*
X240566666Y-120192914D01*
X240566666Y-120192914D02*
X240661904Y-120240533D01*
X239185714Y-119954819D02*
X239661904Y-119954819D01*
X239661904Y-119954819D02*
X239709523Y-120431009D01*
X239709523Y-120431009D02*
X239661904Y-120383390D01*
X239661904Y-120383390D02*
X239566666Y-120335771D01*
X239566666Y-120335771D02*
X239328571Y-120335771D01*
X239328571Y-120335771D02*
X239233333Y-120383390D01*
X239233333Y-120383390D02*
X239185714Y-120431009D01*
X239185714Y-120431009D02*
X239138095Y-120526247D01*
X239138095Y-120526247D02*
X239138095Y-120764342D01*
X239138095Y-120764342D02*
X239185714Y-120859580D01*
X239185714Y-120859580D02*
X239233333Y-120907200D01*
X239233333Y-120907200D02*
X239328571Y-120954819D01*
X239328571Y-120954819D02*
X239566666Y-120954819D01*
X239566666Y-120954819D02*
X239661904Y-120907200D01*
X239661904Y-120907200D02*
X239709523Y-120859580D01*
X232090475Y-129954819D02*
X231899999Y-129954819D01*
X231899999Y-129954819D02*
X231804761Y-129907200D01*
X231804761Y-129907200D02*
X231757142Y-129859580D01*
X231757142Y-129859580D02*
X231661904Y-129716723D01*
X231661904Y-129716723D02*
X231614285Y-129526247D01*
X231614285Y-129526247D02*
X231614285Y-129145295D01*
X231614285Y-129145295D02*
X231661904Y-129050057D01*
X231661904Y-129050057D02*
X231709523Y-129002438D01*
X231709523Y-129002438D02*
X231804761Y-128954819D01*
X231804761Y-128954819D02*
X231995237Y-128954819D01*
X231995237Y-128954819D02*
X232090475Y-129002438D01*
X232090475Y-129002438D02*
X232138094Y-129050057D01*
X232138094Y-129050057D02*
X232185713Y-129145295D01*
X232185713Y-129145295D02*
X232185713Y-129383390D01*
X232185713Y-129383390D02*
X232138094Y-129478628D01*
X232138094Y-129478628D02*
X232090475Y-129526247D01*
X232090475Y-129526247D02*
X231995237Y-129573866D01*
X231995237Y-129573866D02*
X231804761Y-129573866D01*
X231804761Y-129573866D02*
X231709523Y-129526247D01*
X231709523Y-129526247D02*
X231661904Y-129478628D01*
X231661904Y-129478628D02*
X231614285Y-129383390D01*
X228947618Y-130954819D02*
X228280952Y-130954819D01*
X228280952Y-130954819D02*
X228709523Y-131954819D01*
X227899999Y-131859580D02*
X227852380Y-131907200D01*
X227852380Y-131907200D02*
X227899999Y-131954819D01*
X227899999Y-131954819D02*
X227947618Y-131907200D01*
X227947618Y-131907200D02*
X227899999Y-131859580D01*
X227899999Y-131859580D02*
X227899999Y-131954819D01*
X227471428Y-131050057D02*
X227423809Y-131002438D01*
X227423809Y-131002438D02*
X227328571Y-130954819D01*
X227328571Y-130954819D02*
X227090476Y-130954819D01*
X227090476Y-130954819D02*
X226995238Y-131002438D01*
X226995238Y-131002438D02*
X226947619Y-131050057D01*
X226947619Y-131050057D02*
X226900000Y-131145295D01*
X226900000Y-131145295D02*
X226900000Y-131240533D01*
X226900000Y-131240533D02*
X226947619Y-131383390D01*
X226947619Y-131383390D02*
X227519047Y-131954819D01*
X227519047Y-131954819D02*
X226900000Y-131954819D01*
X234947618Y-121954819D02*
X234328571Y-121954819D01*
X234328571Y-121954819D02*
X234661904Y-122335771D01*
X234661904Y-122335771D02*
X234519047Y-122335771D01*
X234519047Y-122335771D02*
X234423809Y-122383390D01*
X234423809Y-122383390D02*
X234376190Y-122431009D01*
X234376190Y-122431009D02*
X234328571Y-122526247D01*
X234328571Y-122526247D02*
X234328571Y-122764342D01*
X234328571Y-122764342D02*
X234376190Y-122859580D01*
X234376190Y-122859580D02*
X234423809Y-122907200D01*
X234423809Y-122907200D02*
X234519047Y-122954819D01*
X234519047Y-122954819D02*
X234804761Y-122954819D01*
X234804761Y-122954819D02*
X234899999Y-122907200D01*
X234899999Y-122907200D02*
X234947618Y-122859580D01*
X233899999Y-122859580D02*
X233852380Y-122907200D01*
X233852380Y-122907200D02*
X233899999Y-122954819D01*
X233899999Y-122954819D02*
X233947618Y-122907200D01*
X233947618Y-122907200D02*
X233899999Y-122859580D01*
X233899999Y-122859580D02*
X233899999Y-122954819D01*
X233280952Y-122383390D02*
X233376190Y-122335771D01*
X233376190Y-122335771D02*
X233423809Y-122288152D01*
X233423809Y-122288152D02*
X233471428Y-122192914D01*
X233471428Y-122192914D02*
X233471428Y-122145295D01*
X233471428Y-122145295D02*
X233423809Y-122050057D01*
X233423809Y-122050057D02*
X233376190Y-122002438D01*
X233376190Y-122002438D02*
X233280952Y-121954819D01*
X233280952Y-121954819D02*
X233090476Y-121954819D01*
X233090476Y-121954819D02*
X232995238Y-122002438D01*
X232995238Y-122002438D02*
X232947619Y-122050057D01*
X232947619Y-122050057D02*
X232900000Y-122145295D01*
X232900000Y-122145295D02*
X232900000Y-122192914D01*
X232900000Y-122192914D02*
X232947619Y-122288152D01*
X232947619Y-122288152D02*
X232995238Y-122335771D01*
X232995238Y-122335771D02*
X233090476Y-122383390D01*
X233090476Y-122383390D02*
X233280952Y-122383390D01*
X233280952Y-122383390D02*
X233376190Y-122431009D01*
X233376190Y-122431009D02*
X233423809Y-122478628D01*
X233423809Y-122478628D02*
X233471428Y-122573866D01*
X233471428Y-122573866D02*
X233471428Y-122764342D01*
X233471428Y-122764342D02*
X233423809Y-122859580D01*
X233423809Y-122859580D02*
X233376190Y-122907200D01*
X233376190Y-122907200D02*
X233280952Y-122954819D01*
X233280952Y-122954819D02*
X233090476Y-122954819D01*
X233090476Y-122954819D02*
X232995238Y-122907200D01*
X232995238Y-122907200D02*
X232947619Y-122859580D01*
X232947619Y-122859580D02*
X232900000Y-122764342D01*
X232900000Y-122764342D02*
X232900000Y-122573866D01*
X232900000Y-122573866D02*
X232947619Y-122478628D01*
X232947619Y-122478628D02*
X232995238Y-122431009D01*
X232995238Y-122431009D02*
X233090476Y-122383390D01*
X242804761Y-131954819D02*
X243376189Y-131954819D01*
X243090475Y-131954819D02*
X243090475Y-130954819D01*
X243090475Y-130954819D02*
X243185713Y-131097676D01*
X243185713Y-131097676D02*
X243280951Y-131192914D01*
X243280951Y-131192914D02*
X243376189Y-131240533D01*
X242185713Y-130954819D02*
X242090475Y-130954819D01*
X242090475Y-130954819D02*
X241995237Y-131002438D01*
X241995237Y-131002438D02*
X241947618Y-131050057D01*
X241947618Y-131050057D02*
X241899999Y-131145295D01*
X241899999Y-131145295D02*
X241852380Y-131335771D01*
X241852380Y-131335771D02*
X241852380Y-131573866D01*
X241852380Y-131573866D02*
X241899999Y-131764342D01*
X241899999Y-131764342D02*
X241947618Y-131859580D01*
X241947618Y-131859580D02*
X241995237Y-131907200D01*
X241995237Y-131907200D02*
X242090475Y-131954819D01*
X242090475Y-131954819D02*
X242185713Y-131954819D01*
X242185713Y-131954819D02*
X242280951Y-131907200D01*
X242280951Y-131907200D02*
X242328570Y-131859580D01*
X242328570Y-131859580D02*
X242376189Y-131764342D01*
X242376189Y-131764342D02*
X242423808Y-131573866D01*
X242423808Y-131573866D02*
X242423808Y-131335771D01*
X242423808Y-131335771D02*
X242376189Y-131145295D01*
X242376189Y-131145295D02*
X242328570Y-131050057D01*
X242328570Y-131050057D02*
X242280951Y-131002438D01*
X242280951Y-131002438D02*
X242185713Y-130954819D01*
X241423808Y-131859580D02*
X241376189Y-131907200D01*
X241376189Y-131907200D02*
X241423808Y-131954819D01*
X241423808Y-131954819D02*
X241471427Y-131907200D01*
X241471427Y-131907200D02*
X241423808Y-131859580D01*
X241423808Y-131859580D02*
X241423808Y-131954819D01*
X241042856Y-130954819D02*
X240423809Y-130954819D01*
X240423809Y-130954819D02*
X240757142Y-131335771D01*
X240757142Y-131335771D02*
X240614285Y-131335771D01*
X240614285Y-131335771D02*
X240519047Y-131383390D01*
X240519047Y-131383390D02*
X240471428Y-131431009D01*
X240471428Y-131431009D02*
X240423809Y-131526247D01*
X240423809Y-131526247D02*
X240423809Y-131764342D01*
X240423809Y-131764342D02*
X240471428Y-131859580D01*
X240471428Y-131859580D02*
X240519047Y-131907200D01*
X240519047Y-131907200D02*
X240614285Y-131954819D01*
X240614285Y-131954819D02*
X240899999Y-131954819D01*
X240899999Y-131954819D02*
X240995237Y-131907200D01*
X240995237Y-131907200D02*
X241042856Y-131859580D01*
X237661904Y-112050057D02*
X237614285Y-112002438D01*
X237614285Y-112002438D02*
X237519047Y-111954819D01*
X237519047Y-111954819D02*
X237280952Y-111954819D01*
X237280952Y-111954819D02*
X237185714Y-112002438D01*
X237185714Y-112002438D02*
X237138095Y-112050057D01*
X237138095Y-112050057D02*
X237090476Y-112145295D01*
X237090476Y-112145295D02*
X237090476Y-112240533D01*
X237090476Y-112240533D02*
X237138095Y-112383390D01*
X237138095Y-112383390D02*
X237709523Y-112954819D01*
X237709523Y-112954819D02*
X237090476Y-112954819D01*
X236757142Y-111954819D02*
X236138095Y-111954819D01*
X236138095Y-111954819D02*
X236471428Y-112335771D01*
X236471428Y-112335771D02*
X236328571Y-112335771D01*
X236328571Y-112335771D02*
X236233333Y-112383390D01*
X236233333Y-112383390D02*
X236185714Y-112431009D01*
X236185714Y-112431009D02*
X236138095Y-112526247D01*
X236138095Y-112526247D02*
X236138095Y-112764342D01*
X236138095Y-112764342D02*
X236185714Y-112859580D01*
X236185714Y-112859580D02*
X236233333Y-112907200D01*
X236233333Y-112907200D02*
X236328571Y-112954819D01*
X236328571Y-112954819D02*
X236614285Y-112954819D01*
X236614285Y-112954819D02*
X236709523Y-112907200D01*
X236709523Y-112907200D02*
X236757142Y-112859580D01*
X234899999Y-114050057D02*
X234852380Y-114002438D01*
X234852380Y-114002438D02*
X234757142Y-113954819D01*
X234757142Y-113954819D02*
X234519047Y-113954819D01*
X234519047Y-113954819D02*
X234423809Y-114002438D01*
X234423809Y-114002438D02*
X234376190Y-114050057D01*
X234376190Y-114050057D02*
X234328571Y-114145295D01*
X234328571Y-114145295D02*
X234328571Y-114240533D01*
X234328571Y-114240533D02*
X234376190Y-114383390D01*
X234376190Y-114383390D02*
X234947618Y-114954819D01*
X234947618Y-114954819D02*
X234328571Y-114954819D01*
X233899999Y-114859580D02*
X233852380Y-114907200D01*
X233852380Y-114907200D02*
X233899999Y-114954819D01*
X233899999Y-114954819D02*
X233947618Y-114907200D01*
X233947618Y-114907200D02*
X233899999Y-114859580D01*
X233899999Y-114859580D02*
X233899999Y-114954819D01*
X233233333Y-113954819D02*
X233138095Y-113954819D01*
X233138095Y-113954819D02*
X233042857Y-114002438D01*
X233042857Y-114002438D02*
X232995238Y-114050057D01*
X232995238Y-114050057D02*
X232947619Y-114145295D01*
X232947619Y-114145295D02*
X232900000Y-114335771D01*
X232900000Y-114335771D02*
X232900000Y-114573866D01*
X232900000Y-114573866D02*
X232947619Y-114764342D01*
X232947619Y-114764342D02*
X232995238Y-114859580D01*
X232995238Y-114859580D02*
X233042857Y-114907200D01*
X233042857Y-114907200D02*
X233138095Y-114954819D01*
X233138095Y-114954819D02*
X233233333Y-114954819D01*
X233233333Y-114954819D02*
X233328571Y-114907200D01*
X233328571Y-114907200D02*
X233376190Y-114859580D01*
X233376190Y-114859580D02*
X233423809Y-114764342D01*
X233423809Y-114764342D02*
X233471428Y-114573866D01*
X233471428Y-114573866D02*
X233471428Y-114335771D01*
X233471428Y-114335771D02*
X233423809Y-114145295D01*
X233423809Y-114145295D02*
X233376190Y-114050057D01*
X233376190Y-114050057D02*
X233328571Y-114002438D01*
X233328571Y-114002438D02*
X233233333Y-113954819D01*
X226019047Y-112669104D02*
X225542857Y-112669104D01*
X226114285Y-112954819D02*
X225780952Y-111954819D01*
X225780952Y-111954819D02*
X225447619Y-112954819D01*
X225209523Y-111954819D02*
X224971428Y-112954819D01*
X224971428Y-112954819D02*
X224780952Y-112240533D01*
X224780952Y-112240533D02*
X224590476Y-112954819D01*
X224590476Y-112954819D02*
X224352381Y-111954819D01*
X223447619Y-112002438D02*
X223542857Y-111954819D01*
X223542857Y-111954819D02*
X223685714Y-111954819D01*
X223685714Y-111954819D02*
X223828571Y-112002438D01*
X223828571Y-112002438D02*
X223923809Y-112097676D01*
X223923809Y-112097676D02*
X223971428Y-112192914D01*
X223971428Y-112192914D02*
X224019047Y-112383390D01*
X224019047Y-112383390D02*
X224019047Y-112526247D01*
X224019047Y-112526247D02*
X223971428Y-112716723D01*
X223971428Y-112716723D02*
X223923809Y-112811961D01*
X223923809Y-112811961D02*
X223828571Y-112907200D01*
X223828571Y-112907200D02*
X223685714Y-112954819D01*
X223685714Y-112954819D02*
X223590476Y-112954819D01*
X223590476Y-112954819D02*
X223447619Y-112907200D01*
X223447619Y-112907200D02*
X223400000Y-112859580D01*
X223400000Y-112859580D02*
X223400000Y-112526247D01*
X223400000Y-112526247D02*
X223590476Y-112526247D01*
X221923809Y-113335771D02*
X221971428Y-113288152D01*
X221971428Y-113288152D02*
X222066666Y-113145295D01*
X222066666Y-113145295D02*
X222114285Y-113050057D01*
X222114285Y-113050057D02*
X222161904Y-112907200D01*
X222161904Y-112907200D02*
X222209523Y-112669104D01*
X222209523Y-112669104D02*
X222209523Y-112478628D01*
X222209523Y-112478628D02*
X222161904Y-112240533D01*
X222161904Y-112240533D02*
X222114285Y-112097676D01*
X222114285Y-112097676D02*
X222066666Y-112002438D01*
X222066666Y-112002438D02*
X221971428Y-111859580D01*
X221971428Y-111859580D02*
X221923809Y-111811961D01*
X221114285Y-112954819D02*
X221114285Y-112431009D01*
X221114285Y-112431009D02*
X221161904Y-112335771D01*
X221161904Y-112335771D02*
X221257142Y-112288152D01*
X221257142Y-112288152D02*
X221447618Y-112288152D01*
X221447618Y-112288152D02*
X221542856Y-112335771D01*
X221114285Y-112907200D02*
X221209523Y-112954819D01*
X221209523Y-112954819D02*
X221447618Y-112954819D01*
X221447618Y-112954819D02*
X221542856Y-112907200D01*
X221542856Y-112907200D02*
X221590475Y-112811961D01*
X221590475Y-112811961D02*
X221590475Y-112716723D01*
X221590475Y-112716723D02*
X221542856Y-112621485D01*
X221542856Y-112621485D02*
X221447618Y-112573866D01*
X221447618Y-112573866D02*
X221209523Y-112573866D01*
X221209523Y-112573866D02*
X221114285Y-112526247D01*
X220638094Y-112288152D02*
X220638094Y-113288152D01*
X220638094Y-112335771D02*
X220542856Y-112288152D01*
X220542856Y-112288152D02*
X220352380Y-112288152D01*
X220352380Y-112288152D02*
X220257142Y-112335771D01*
X220257142Y-112335771D02*
X220209523Y-112383390D01*
X220209523Y-112383390D02*
X220161904Y-112478628D01*
X220161904Y-112478628D02*
X220161904Y-112764342D01*
X220161904Y-112764342D02*
X220209523Y-112859580D01*
X220209523Y-112859580D02*
X220257142Y-112907200D01*
X220257142Y-112907200D02*
X220352380Y-112954819D01*
X220352380Y-112954819D02*
X220542856Y-112954819D01*
X220542856Y-112954819D02*
X220638094Y-112907200D01*
X219733332Y-112288152D02*
X219733332Y-113288152D01*
X219733332Y-112335771D02*
X219638094Y-112288152D01*
X219638094Y-112288152D02*
X219447618Y-112288152D01*
X219447618Y-112288152D02*
X219352380Y-112335771D01*
X219352380Y-112335771D02*
X219304761Y-112383390D01*
X219304761Y-112383390D02*
X219257142Y-112478628D01*
X219257142Y-112478628D02*
X219257142Y-112764342D01*
X219257142Y-112764342D02*
X219304761Y-112859580D01*
X219304761Y-112859580D02*
X219352380Y-112907200D01*
X219352380Y-112907200D02*
X219447618Y-112954819D01*
X219447618Y-112954819D02*
X219638094Y-112954819D01*
X219638094Y-112954819D02*
X219733332Y-112907200D01*
X218828570Y-112954819D02*
X218828570Y-112288152D01*
X218828570Y-112478628D02*
X218780951Y-112383390D01*
X218780951Y-112383390D02*
X218733332Y-112335771D01*
X218733332Y-112335771D02*
X218638094Y-112288152D01*
X218638094Y-112288152D02*
X218542856Y-112288152D01*
X218066665Y-112954819D02*
X218161903Y-112907200D01*
X218161903Y-112907200D02*
X218209522Y-112859580D01*
X218209522Y-112859580D02*
X218257141Y-112764342D01*
X218257141Y-112764342D02*
X218257141Y-112478628D01*
X218257141Y-112478628D02*
X218209522Y-112383390D01*
X218209522Y-112383390D02*
X218161903Y-112335771D01*
X218161903Y-112335771D02*
X218066665Y-112288152D01*
X218066665Y-112288152D02*
X217923808Y-112288152D01*
X217923808Y-112288152D02*
X217828570Y-112335771D01*
X217828570Y-112335771D02*
X217780951Y-112383390D01*
X217780951Y-112383390D02*
X217733332Y-112478628D01*
X217733332Y-112478628D02*
X217733332Y-112764342D01*
X217733332Y-112764342D02*
X217780951Y-112859580D01*
X217780951Y-112859580D02*
X217828570Y-112907200D01*
X217828570Y-112907200D02*
X217923808Y-112954819D01*
X217923808Y-112954819D02*
X218066665Y-112954819D01*
X217399998Y-112954819D02*
X216876189Y-112288152D01*
X217399998Y-112288152D02*
X216876189Y-112954819D01*
X216495236Y-112859580D02*
X216447617Y-112907200D01*
X216447617Y-112907200D02*
X216495236Y-112954819D01*
X216495236Y-112954819D02*
X216542855Y-112907200D01*
X216542855Y-112907200D02*
X216495236Y-112859580D01*
X216495236Y-112859580D02*
X216495236Y-112954819D01*
X216114284Y-113335771D02*
X216066665Y-113288152D01*
X216066665Y-113288152D02*
X215971427Y-113145295D01*
X215971427Y-113145295D02*
X215923808Y-113050057D01*
X215923808Y-113050057D02*
X215876189Y-112907200D01*
X215876189Y-112907200D02*
X215828570Y-112669104D01*
X215828570Y-112669104D02*
X215828570Y-112478628D01*
X215828570Y-112478628D02*
X215876189Y-112240533D01*
X215876189Y-112240533D02*
X215923808Y-112097676D01*
X215923808Y-112097676D02*
X215971427Y-112002438D01*
X215971427Y-112002438D02*
X216066665Y-111859580D01*
X216066665Y-111859580D02*
X216114284Y-111811961D01*
X232709523Y-131383390D02*
X232804761Y-131335771D01*
X232804761Y-131335771D02*
X232852380Y-131288152D01*
X232852380Y-131288152D02*
X232899999Y-131192914D01*
X232899999Y-131192914D02*
X232899999Y-131145295D01*
X232899999Y-131145295D02*
X232852380Y-131050057D01*
X232852380Y-131050057D02*
X232804761Y-131002438D01*
X232804761Y-131002438D02*
X232709523Y-130954819D01*
X232709523Y-130954819D02*
X232519047Y-130954819D01*
X232519047Y-130954819D02*
X232423809Y-131002438D01*
X232423809Y-131002438D02*
X232376190Y-131050057D01*
X232376190Y-131050057D02*
X232328571Y-131145295D01*
X232328571Y-131145295D02*
X232328571Y-131192914D01*
X232328571Y-131192914D02*
X232376190Y-131288152D01*
X232376190Y-131288152D02*
X232423809Y-131335771D01*
X232423809Y-131335771D02*
X232519047Y-131383390D01*
X232519047Y-131383390D02*
X232709523Y-131383390D01*
X232709523Y-131383390D02*
X232804761Y-131431009D01*
X232804761Y-131431009D02*
X232852380Y-131478628D01*
X232852380Y-131478628D02*
X232899999Y-131573866D01*
X232899999Y-131573866D02*
X232899999Y-131764342D01*
X232899999Y-131764342D02*
X232852380Y-131859580D01*
X232852380Y-131859580D02*
X232804761Y-131907200D01*
X232804761Y-131907200D02*
X232709523Y-131954819D01*
X232709523Y-131954819D02*
X232519047Y-131954819D01*
X232519047Y-131954819D02*
X232423809Y-131907200D01*
X232423809Y-131907200D02*
X232376190Y-131859580D01*
X232376190Y-131859580D02*
X232328571Y-131764342D01*
X232328571Y-131764342D02*
X232328571Y-131573866D01*
X232328571Y-131573866D02*
X232376190Y-131478628D01*
X232376190Y-131478628D02*
X232423809Y-131431009D01*
X232423809Y-131431009D02*
X232519047Y-131383390D01*
X231899999Y-131859580D02*
X231852380Y-131907200D01*
X231852380Y-131907200D02*
X231899999Y-131954819D01*
X231899999Y-131954819D02*
X231947618Y-131907200D01*
X231947618Y-131907200D02*
X231899999Y-131859580D01*
X231899999Y-131859580D02*
X231899999Y-131954819D01*
X231471428Y-131050057D02*
X231423809Y-131002438D01*
X231423809Y-131002438D02*
X231328571Y-130954819D01*
X231328571Y-130954819D02*
X231090476Y-130954819D01*
X231090476Y-130954819D02*
X230995238Y-131002438D01*
X230995238Y-131002438D02*
X230947619Y-131050057D01*
X230947619Y-131050057D02*
X230900000Y-131145295D01*
X230900000Y-131145295D02*
X230900000Y-131240533D01*
X230900000Y-131240533D02*
X230947619Y-131383390D01*
X230947619Y-131383390D02*
X231519047Y-131954819D01*
X231519047Y-131954819D02*
X230900000Y-131954819D01*
X243423809Y-121954819D02*
X243614285Y-121954819D01*
X243614285Y-121954819D02*
X243709523Y-122002438D01*
X243709523Y-122002438D02*
X243757142Y-122050057D01*
X243757142Y-122050057D02*
X243852380Y-122192914D01*
X243852380Y-122192914D02*
X243899999Y-122383390D01*
X243899999Y-122383390D02*
X243899999Y-122764342D01*
X243899999Y-122764342D02*
X243852380Y-122859580D01*
X243852380Y-122859580D02*
X243804761Y-122907200D01*
X243804761Y-122907200D02*
X243709523Y-122954819D01*
X243709523Y-122954819D02*
X243519047Y-122954819D01*
X243519047Y-122954819D02*
X243423809Y-122907200D01*
X243423809Y-122907200D02*
X243376190Y-122859580D01*
X243376190Y-122859580D02*
X243328571Y-122764342D01*
X243328571Y-122764342D02*
X243328571Y-122526247D01*
X243328571Y-122526247D02*
X243376190Y-122431009D01*
X243376190Y-122431009D02*
X243423809Y-122383390D01*
X243423809Y-122383390D02*
X243519047Y-122335771D01*
X243519047Y-122335771D02*
X243709523Y-122335771D01*
X243709523Y-122335771D02*
X243804761Y-122383390D01*
X243804761Y-122383390D02*
X243852380Y-122431009D01*
X243852380Y-122431009D02*
X243899999Y-122526247D01*
X242899999Y-122859580D02*
X242852380Y-122907200D01*
X242852380Y-122907200D02*
X242899999Y-122954819D01*
X242899999Y-122954819D02*
X242947618Y-122907200D01*
X242947618Y-122907200D02*
X242899999Y-122859580D01*
X242899999Y-122859580D02*
X242899999Y-122954819D01*
X242233333Y-121954819D02*
X242138095Y-121954819D01*
X242138095Y-121954819D02*
X242042857Y-122002438D01*
X242042857Y-122002438D02*
X241995238Y-122050057D01*
X241995238Y-122050057D02*
X241947619Y-122145295D01*
X241947619Y-122145295D02*
X241900000Y-122335771D01*
X241900000Y-122335771D02*
X241900000Y-122573866D01*
X241900000Y-122573866D02*
X241947619Y-122764342D01*
X241947619Y-122764342D02*
X241995238Y-122859580D01*
X241995238Y-122859580D02*
X242042857Y-122907200D01*
X242042857Y-122907200D02*
X242138095Y-122954819D01*
X242138095Y-122954819D02*
X242233333Y-122954819D01*
X242233333Y-122954819D02*
X242328571Y-122907200D01*
X242328571Y-122907200D02*
X242376190Y-122859580D01*
X242376190Y-122859580D02*
X242423809Y-122764342D01*
X242423809Y-122764342D02*
X242471428Y-122573866D01*
X242471428Y-122573866D02*
X242471428Y-122335771D01*
X242471428Y-122335771D02*
X242423809Y-122145295D01*
X242423809Y-122145295D02*
X242376190Y-122050057D01*
X242376190Y-122050057D02*
X242328571Y-122002438D01*
X242328571Y-122002438D02*
X242233333Y-121954819D01*
X237899999Y-114050057D02*
X237852380Y-114002438D01*
X237852380Y-114002438D02*
X237757142Y-113954819D01*
X237757142Y-113954819D02*
X237519047Y-113954819D01*
X237519047Y-113954819D02*
X237423809Y-114002438D01*
X237423809Y-114002438D02*
X237376190Y-114050057D01*
X237376190Y-114050057D02*
X237328571Y-114145295D01*
X237328571Y-114145295D02*
X237328571Y-114240533D01*
X237328571Y-114240533D02*
X237376190Y-114383390D01*
X237376190Y-114383390D02*
X237947618Y-114954819D01*
X237947618Y-114954819D02*
X237328571Y-114954819D01*
X236899999Y-114859580D02*
X236852380Y-114907200D01*
X236852380Y-114907200D02*
X236899999Y-114954819D01*
X236899999Y-114954819D02*
X236947618Y-114907200D01*
X236947618Y-114907200D02*
X236899999Y-114859580D01*
X236899999Y-114859580D02*
X236899999Y-114954819D01*
X235995238Y-114288152D02*
X235995238Y-114954819D01*
X236233333Y-113907200D02*
X236471428Y-114621485D01*
X236471428Y-114621485D02*
X235852381Y-114621485D01*
X243090476Y-120954819D02*
X243661904Y-120954819D01*
X243376190Y-120954819D02*
X243376190Y-119954819D01*
X243376190Y-119954819D02*
X243471428Y-120097676D01*
X243471428Y-120097676D02*
X243566666Y-120192914D01*
X243566666Y-120192914D02*
X243661904Y-120240533D01*
X242757142Y-119954819D02*
X242138095Y-119954819D01*
X242138095Y-119954819D02*
X242471428Y-120335771D01*
X242471428Y-120335771D02*
X242328571Y-120335771D01*
X242328571Y-120335771D02*
X242233333Y-120383390D01*
X242233333Y-120383390D02*
X242185714Y-120431009D01*
X242185714Y-120431009D02*
X242138095Y-120526247D01*
X242138095Y-120526247D02*
X242138095Y-120764342D01*
X242138095Y-120764342D02*
X242185714Y-120859580D01*
X242185714Y-120859580D02*
X242233333Y-120907200D01*
X242233333Y-120907200D02*
X242328571Y-120954819D01*
X242328571Y-120954819D02*
X242614285Y-120954819D01*
X242614285Y-120954819D02*
X242709523Y-120907200D01*
X242709523Y-120907200D02*
X242757142Y-120859580D01*
X236995237Y-129383390D02*
X237090475Y-129335771D01*
X237090475Y-129335771D02*
X237138094Y-129288152D01*
X237138094Y-129288152D02*
X237185713Y-129192914D01*
X237185713Y-129192914D02*
X237185713Y-129145295D01*
X237185713Y-129145295D02*
X237138094Y-129050057D01*
X237138094Y-129050057D02*
X237090475Y-129002438D01*
X237090475Y-129002438D02*
X236995237Y-128954819D01*
X236995237Y-128954819D02*
X236804761Y-128954819D01*
X236804761Y-128954819D02*
X236709523Y-129002438D01*
X236709523Y-129002438D02*
X236661904Y-129050057D01*
X236661904Y-129050057D02*
X236614285Y-129145295D01*
X236614285Y-129145295D02*
X236614285Y-129192914D01*
X236614285Y-129192914D02*
X236661904Y-129288152D01*
X236661904Y-129288152D02*
X236709523Y-129335771D01*
X236709523Y-129335771D02*
X236804761Y-129383390D01*
X236804761Y-129383390D02*
X236995237Y-129383390D01*
X236995237Y-129383390D02*
X237090475Y-129431009D01*
X237090475Y-129431009D02*
X237138094Y-129478628D01*
X237138094Y-129478628D02*
X237185713Y-129573866D01*
X237185713Y-129573866D02*
X237185713Y-129764342D01*
X237185713Y-129764342D02*
X237138094Y-129859580D01*
X237138094Y-129859580D02*
X237090475Y-129907200D01*
X237090475Y-129907200D02*
X236995237Y-129954819D01*
X236995237Y-129954819D02*
X236804761Y-129954819D01*
X236804761Y-129954819D02*
X236709523Y-129907200D01*
X236709523Y-129907200D02*
X236661904Y-129859580D01*
X236661904Y-129859580D02*
X236614285Y-129764342D01*
X236614285Y-129764342D02*
X236614285Y-129573866D01*
X236614285Y-129573866D02*
X236661904Y-129478628D01*
X236661904Y-129478628D02*
X236709523Y-129431009D01*
X236709523Y-129431009D02*
X236804761Y-129383390D01*
X243947618Y-113954819D02*
X243328571Y-113954819D01*
X243328571Y-113954819D02*
X243661904Y-114335771D01*
X243661904Y-114335771D02*
X243519047Y-114335771D01*
X243519047Y-114335771D02*
X243423809Y-114383390D01*
X243423809Y-114383390D02*
X243376190Y-114431009D01*
X243376190Y-114431009D02*
X243328571Y-114526247D01*
X243328571Y-114526247D02*
X243328571Y-114764342D01*
X243328571Y-114764342D02*
X243376190Y-114859580D01*
X243376190Y-114859580D02*
X243423809Y-114907200D01*
X243423809Y-114907200D02*
X243519047Y-114954819D01*
X243519047Y-114954819D02*
X243804761Y-114954819D01*
X243804761Y-114954819D02*
X243899999Y-114907200D01*
X243899999Y-114907200D02*
X243947618Y-114859580D01*
X242899999Y-114859580D02*
X242852380Y-114907200D01*
X242852380Y-114907200D02*
X242899999Y-114954819D01*
X242899999Y-114954819D02*
X242947618Y-114907200D01*
X242947618Y-114907200D02*
X242899999Y-114859580D01*
X242899999Y-114859580D02*
X242899999Y-114954819D01*
X242233333Y-113954819D02*
X242138095Y-113954819D01*
X242138095Y-113954819D02*
X242042857Y-114002438D01*
X242042857Y-114002438D02*
X241995238Y-114050057D01*
X241995238Y-114050057D02*
X241947619Y-114145295D01*
X241947619Y-114145295D02*
X241900000Y-114335771D01*
X241900000Y-114335771D02*
X241900000Y-114573866D01*
X241900000Y-114573866D02*
X241947619Y-114764342D01*
X241947619Y-114764342D02*
X241995238Y-114859580D01*
X241995238Y-114859580D02*
X242042857Y-114907200D01*
X242042857Y-114907200D02*
X242138095Y-114954819D01*
X242138095Y-114954819D02*
X242233333Y-114954819D01*
X242233333Y-114954819D02*
X242328571Y-114907200D01*
X242328571Y-114907200D02*
X242376190Y-114859580D01*
X242376190Y-114859580D02*
X242423809Y-114764342D01*
X242423809Y-114764342D02*
X242471428Y-114573866D01*
X242471428Y-114573866D02*
X242471428Y-114335771D01*
X242471428Y-114335771D02*
X242423809Y-114145295D01*
X242423809Y-114145295D02*
X242376190Y-114050057D01*
X242376190Y-114050057D02*
X242328571Y-114002438D01*
X242328571Y-114002438D02*
X242233333Y-113954819D01*
X243661904Y-112050057D02*
X243614285Y-112002438D01*
X243614285Y-112002438D02*
X243519047Y-111954819D01*
X243519047Y-111954819D02*
X243280952Y-111954819D01*
X243280952Y-111954819D02*
X243185714Y-112002438D01*
X243185714Y-112002438D02*
X243138095Y-112050057D01*
X243138095Y-112050057D02*
X243090476Y-112145295D01*
X243090476Y-112145295D02*
X243090476Y-112240533D01*
X243090476Y-112240533D02*
X243138095Y-112383390D01*
X243138095Y-112383390D02*
X243709523Y-112954819D01*
X243709523Y-112954819D02*
X243090476Y-112954819D01*
X242138095Y-112954819D02*
X242709523Y-112954819D01*
X242423809Y-112954819D02*
X242423809Y-111954819D01*
X242423809Y-111954819D02*
X242519047Y-112097676D01*
X242519047Y-112097676D02*
X242614285Y-112192914D01*
X242614285Y-112192914D02*
X242709523Y-112240533D01*
%LPC*%
D11*
X82860000Y-90500000D03*
D12*
X72700000Y-90500000D03*
D13*
X58520000Y-76000000D03*
D14*
X69920000Y-76000000D03*
X61620000Y-76000000D03*
D11*
X82860000Y-94500000D03*
D12*
X72700000Y-94500000D03*
D15*
X54000000Y-146000000D03*
D11*
X157000000Y-87170000D03*
X157000000Y-82170000D03*
D16*
X220000000Y-139080000D03*
D17*
X220000000Y-141620000D03*
X220000000Y-144160000D03*
X220000000Y-146700000D03*
D18*
X144950000Y-121600000D03*
D14*
X144950000Y-133000000D03*
X144950000Y-124700000D03*
D19*
X185920000Y-125000000D03*
D20*
X191000000Y-125000000D03*
D19*
X196080000Y-125000000D03*
D21*
X187190000Y-122460000D03*
X193540000Y-119920000D03*
D11*
X77540000Y-119380000D03*
X82540000Y-119380000D03*
D15*
X246000000Y-54000000D03*
D11*
X139370000Y-106000000D03*
D12*
X149530000Y-106000000D03*
D11*
X139450000Y-116500000D03*
X144450000Y-116500000D03*
X151920000Y-109500000D03*
D12*
X162080000Y-109500000D03*
D22*
X244000000Y-80000000D03*
D23*
X244000000Y-90160000D03*
D24*
X177080000Y-55000000D03*
D25*
X177080000Y-57540000D03*
X174540000Y-55000000D03*
X174540000Y-57540000D03*
X172000000Y-55000000D03*
X172000000Y-57540000D03*
X169460000Y-55000000D03*
X169460000Y-57540000D03*
X166920000Y-55000000D03*
X166920000Y-57540000D03*
D16*
X155825000Y-139225000D03*
D17*
X158365000Y-139225000D03*
D26*
X202000000Y-84000000D03*
D11*
X199500000Y-84000000D03*
X142750000Y-90270000D03*
X142750000Y-95270000D03*
D16*
X135380000Y-139000000D03*
D17*
X137920000Y-139000000D03*
X140460000Y-139000000D03*
X143000000Y-139000000D03*
D26*
X173000000Y-98000000D03*
D12*
X165380000Y-98000000D03*
D22*
X220000000Y-90000000D03*
D23*
X220000000Y-79840000D03*
D11*
X151920000Y-106000000D03*
D12*
X162080000Y-106000000D03*
D11*
X240750000Y-90460000D03*
D12*
X240750000Y-80300000D03*
D16*
X59490000Y-130380000D03*
D17*
X62030000Y-130380000D03*
X64570000Y-130380000D03*
X67110000Y-130380000D03*
X69650000Y-130380000D03*
X72190000Y-130380000D03*
D11*
X139420000Y-113000000D03*
D12*
X149580000Y-113000000D03*
D24*
X233080000Y-55080000D03*
D25*
X233080000Y-57620000D03*
X230540000Y-55080000D03*
X230540000Y-57620000D03*
X228000000Y-55080000D03*
X228000000Y-57620000D03*
X225460000Y-55080000D03*
X225460000Y-57620000D03*
X222920000Y-55080000D03*
X222920000Y-57620000D03*
X220380000Y-55080000D03*
X220380000Y-57620000D03*
X217840000Y-55080000D03*
X217840000Y-57620000D03*
X215300000Y-55080000D03*
X215300000Y-57620000D03*
D26*
X193000000Y-98000000D03*
D12*
X185380000Y-98000000D03*
D11*
X236920000Y-100000000D03*
D12*
X247080000Y-100000000D03*
D13*
X58520000Y-65000000D03*
D14*
X69920000Y-65000000D03*
X61620000Y-65000000D03*
D11*
X139420000Y-102500000D03*
D12*
X149580000Y-102500000D03*
D11*
X139450000Y-99000000D03*
X144450000Y-99000000D03*
D16*
X59490000Y-138380000D03*
D17*
X62030000Y-138380000D03*
X64570000Y-138380000D03*
X67110000Y-138380000D03*
X69650000Y-138380000D03*
X72190000Y-138380000D03*
D11*
X82700000Y-125380000D03*
X77700000Y-125380000D03*
D26*
X151950000Y-99500000D03*
D12*
X159570000Y-99500000D03*
D27*
X242000000Y-96280000D03*
D28*
X242000000Y-93740000D03*
D13*
X58520000Y-98000000D03*
D14*
X69920000Y-98000000D03*
X61620000Y-98000000D03*
D11*
X161920000Y-139250000D03*
D12*
X172080000Y-139250000D03*
D11*
X223250000Y-80140000D03*
D12*
X223250000Y-90300000D03*
D29*
X220000000Y-73000000D03*
D11*
X82860000Y-68500000D03*
D12*
X72700000Y-68500000D03*
D11*
X139340000Y-109500000D03*
D12*
X149500000Y-109500000D03*
D11*
X196160000Y-139250000D03*
D12*
X186000000Y-139250000D03*
D30*
X228750000Y-82750000D03*
D31*
X228750000Y-84750000D03*
D16*
X230000000Y-139080000D03*
D17*
X230000000Y-141620000D03*
X230000000Y-144160000D03*
X230000000Y-146700000D03*
D11*
X82860000Y-72500000D03*
D12*
X72700000Y-72500000D03*
D32*
X89250000Y-125000000D03*
X98750000Y-125000000D03*
D27*
X91500000Y-132500000D03*
D28*
X94000000Y-132500000D03*
X96500000Y-132500000D03*
D32*
X166250000Y-105000000D03*
X175750000Y-105000000D03*
D27*
X168500000Y-112500000D03*
D28*
X171000000Y-112500000D03*
X173500000Y-112500000D03*
D11*
X211250000Y-80140000D03*
D12*
X211250000Y-90300000D03*
D16*
X175130000Y-138950000D03*
D17*
X177670000Y-138950000D03*
X180210000Y-138950000D03*
X182750000Y-138950000D03*
D32*
X105250000Y-105000000D03*
X114750000Y-105000000D03*
D27*
X107500000Y-112500000D03*
D28*
X110000000Y-112500000D03*
X112500000Y-112500000D03*
D29*
X244000000Y-73000000D03*
D15*
X246000000Y-146000000D03*
D32*
X186250000Y-105000000D03*
X195750000Y-105000000D03*
D27*
X188500000Y-112500000D03*
D28*
X191000000Y-112500000D03*
X193500000Y-112500000D03*
D30*
X228750000Y-89750000D03*
D31*
X228750000Y-91750000D03*
D16*
X72190000Y-114380000D03*
D17*
X69650000Y-114380000D03*
X67110000Y-114380000D03*
X64570000Y-114380000D03*
X62030000Y-114380000D03*
X59490000Y-114380000D03*
D29*
X208000000Y-73000000D03*
D11*
X216970000Y-100000000D03*
D12*
X227130000Y-100000000D03*
D33*
X74540000Y-118380000D03*
D34*
X72000000Y-118380000D03*
X69460000Y-118380000D03*
X66920000Y-118380000D03*
X64380000Y-118380000D03*
X61840000Y-118380000D03*
X59300000Y-118380000D03*
X59300000Y-126000000D03*
X61840000Y-126000000D03*
X64380000Y-126000000D03*
X66920000Y-126000000D03*
X69460000Y-126000000D03*
X72000000Y-126000000D03*
X74540000Y-126000000D03*
D11*
X203920000Y-100000000D03*
D12*
X214080000Y-100000000D03*
D18*
X156000000Y-121600000D03*
D14*
X156000000Y-133000000D03*
X156000000Y-124700000D03*
D16*
X72140000Y-106380000D03*
D17*
X69600000Y-106380000D03*
X67060000Y-106380000D03*
X64520000Y-106380000D03*
X61980000Y-106380000D03*
X59440000Y-106380000D03*
D35*
X146000000Y-87420000D03*
D36*
X146000000Y-89960000D03*
X146000000Y-92500000D03*
X146000000Y-95040000D03*
X153620000Y-95040000D03*
X153620000Y-92500000D03*
X153620000Y-89960000D03*
X153620000Y-87420000D03*
D35*
X91200000Y-72375000D03*
D36*
X91200000Y-74915000D03*
X91200000Y-77455000D03*
X91200000Y-79995000D03*
X91200000Y-82535000D03*
X91200000Y-85075000D03*
X91200000Y-87615000D03*
X98820000Y-87615000D03*
X98820000Y-85075000D03*
X98820000Y-82535000D03*
X98820000Y-79995000D03*
X98820000Y-77455000D03*
X98820000Y-74915000D03*
X98820000Y-72375000D03*
D29*
X232000000Y-73000000D03*
D27*
X209000000Y-93730000D03*
D28*
X209000000Y-96270000D03*
D11*
X151920000Y-102500000D03*
D12*
X162080000Y-102500000D03*
D16*
X103675000Y-138975000D03*
D17*
X106215000Y-138975000D03*
X108755000Y-138975000D03*
X111295000Y-138975000D03*
X113835000Y-138975000D03*
X116375000Y-138975000D03*
D16*
X210000000Y-139080000D03*
D17*
X210000000Y-141620000D03*
X210000000Y-144160000D03*
X210000000Y-146700000D03*
D22*
X208000000Y-90000000D03*
D23*
X208000000Y-79840000D03*
D27*
X221000000Y-93730000D03*
D28*
X221000000Y-96270000D03*
D32*
X105250000Y-125000000D03*
X114750000Y-125000000D03*
D27*
X107500000Y-132500000D03*
D28*
X110000000Y-132500000D03*
X112500000Y-132500000D03*
D15*
X54000000Y-54000000D03*
D16*
X72140000Y-110380000D03*
D17*
X69600000Y-110380000D03*
X67060000Y-110380000D03*
X64520000Y-110380000D03*
X61980000Y-110380000D03*
X59440000Y-110380000D03*
D18*
X133900000Y-121600000D03*
D14*
X133900000Y-133000000D03*
X133900000Y-124700000D03*
D30*
X202000000Y-90000000D03*
D31*
X200000000Y-90000000D03*
D16*
X87300000Y-139000000D03*
D17*
X89840000Y-139000000D03*
X92380000Y-139000000D03*
X94920000Y-139000000D03*
X97460000Y-139000000D03*
X100000000Y-139000000D03*
D24*
X177080000Y-66000000D03*
D25*
X177080000Y-68540000D03*
X174540000Y-66000000D03*
X174540000Y-68540000D03*
X172000000Y-66000000D03*
X172000000Y-68540000D03*
X169460000Y-66000000D03*
X169460000Y-68540000D03*
X166920000Y-66000000D03*
X166920000Y-68540000D03*
X164380000Y-66000000D03*
X164380000Y-68540000D03*
X161840000Y-66000000D03*
X161840000Y-68540000D03*
X159300000Y-66000000D03*
X159300000Y-68540000D03*
D13*
X58520000Y-87000000D03*
D14*
X69920000Y-87000000D03*
X61620000Y-87000000D03*
D16*
X75000000Y-77460000D03*
D17*
X75000000Y-80000000D03*
X75000000Y-82540000D03*
X75000000Y-85080000D03*
D11*
X151920000Y-113000000D03*
D12*
X162080000Y-113000000D03*
D18*
X122850000Y-121600000D03*
D14*
X122850000Y-133000000D03*
X122850000Y-124700000D03*
D16*
X59490000Y-134380000D03*
D17*
X62030000Y-134380000D03*
X64570000Y-134380000D03*
X67110000Y-134380000D03*
X69650000Y-134380000D03*
X72190000Y-134380000D03*
D11*
X87800000Y-80000000D03*
X87800000Y-85000000D03*
D16*
X240000000Y-139080000D03*
D17*
X240000000Y-141620000D03*
X240000000Y-144160000D03*
X240000000Y-146700000D03*
D26*
X151950000Y-116000000D03*
D12*
X159570000Y-116000000D03*
D32*
X89250000Y-105000000D03*
X98750000Y-105000000D03*
D27*
X91500000Y-112500000D03*
D28*
X94000000Y-112500000D03*
X96500000Y-112500000D03*
D11*
X102200000Y-85000000D03*
X102200000Y-80000000D03*
D37*
X227900000Y-109500000D03*
D38*
X227900000Y-117500000D03*
D39*
X227900000Y-126500000D03*
D40*
X230900000Y-109500000D03*
D31*
X230900000Y-117500000D03*
D41*
X231900000Y-126500000D03*
D42*
X233900000Y-109500000D03*
D43*
X233900000Y-117500000D03*
D44*
X236900000Y-109500000D03*
D45*
X236900000Y-117500000D03*
D46*
X236900000Y-126500000D03*
D47*
X239900000Y-109500000D03*
D25*
X239900000Y-117500000D03*
D48*
X241900000Y-126500000D03*
D49*
X242900000Y-109500000D03*
D50*
X242900000Y-117500000D03*
D26*
X234750000Y-82250000D03*
D11*
X234750000Y-84750000D03*
D19*
X165920000Y-125000000D03*
D20*
X171000000Y-125000000D03*
D19*
X176080000Y-125000000D03*
D21*
X167190000Y-122460000D03*
X173540000Y-119920000D03*
D26*
X234750000Y-89750000D03*
D11*
X234750000Y-92250000D03*
%LPD*%
M02*
