M48
; DRILL file {KiCad 8.0.5} date 2024-11-03T10:01:35+0100
; FORMAT={-:-/ absolute / metric / decimal}
; #@! TF.CreationDate,2024-11-03T10:01:35+01:00
; #@! TF.GenerationSoftware,Kicad,Pcbnew,8.0.5
; #@! TF.FileFunction,Plated,1,2,PTH
FMAT,2
METRIC
; #@! TA.AperFunction,Plated,PTH,ViaDrill
T1C0.400
; #@! TA.AperFunction,Plated,PTH,ComponentDrill
T2C0.600
; #@! TA.AperFunction,Plated,PTH,ComponentDrill
T3C0.800
; #@! TA.AperFunction,Plated,PTH,ComponentDrill
T4C0.900
; #@! TA.AperFunction,Plated,PTH,ComponentDrill
T5C1.000
; #@! TA.AperFunction,Plated,PTH,ComponentDrill
T6C1.100
; #@! TA.AperFunction,Plated,PTH,ComponentDrill
T7C1.220
; #@! TA.AperFunction,Plated,PTH,ComponentDrill
T8C1.420
; #@! TA.AperFunction,Plated,PTH,ComponentDrill
T9C1.430
; #@! TA.AperFunction,Plated,PTH,ComponentDrill
T10C1.500
; #@! TA.AperFunction,Plated,PTH,ComponentDrill
T11C2.000
; #@! TA.AperFunction,Plated,PTH,ComponentDrill
T12C4.300
%
G90
G05
T1
X77.54Y-96.0
X99.0Y-69.5
X199.4Y-124.2
T2
X200.0Y-90.0
X202.0Y-90.0
X228.75Y-82.75
X228.75Y-84.75
X228.75Y-89.75
X228.75Y-91.75
T3
X59.3Y-118.38
X59.3Y-126.0
X61.84Y-118.38
X61.84Y-126.0
X64.38Y-118.38
X64.38Y-126.0
X66.92Y-118.38
X66.92Y-126.0
X69.46Y-118.38
X69.46Y-126.0
X72.0Y-118.38
X72.0Y-126.0
X72.7Y-68.5
X72.7Y-72.5
X72.7Y-90.5
X72.7Y-94.5
X74.54Y-118.38
X74.54Y-126.0
X77.54Y-119.38
X77.7Y-125.38
X82.54Y-119.38
X82.7Y-125.38
X82.86Y-68.5
X82.86Y-72.5
X82.86Y-90.5
X82.86Y-94.5
X87.8Y-80.0
X87.8Y-85.0
X91.2Y-72.375
X91.2Y-74.915
X91.2Y-77.455
X91.2Y-79.995
X91.2Y-82.535
X91.2Y-85.075
X91.2Y-87.615
X98.82Y-72.375
X98.82Y-74.915
X98.82Y-77.455
X98.82Y-79.995
X98.82Y-82.535
X98.82Y-85.075
X98.82Y-87.615
X102.2Y-80.0
X102.2Y-85.0
X139.34Y-109.5
X139.37Y-106.0
X139.42Y-102.5
X139.42Y-113.0
X139.45Y-99.0
X139.45Y-116.5
X142.75Y-90.27
X142.75Y-95.27
X144.45Y-99.0
X144.45Y-116.5
X146.0Y-87.42
X146.0Y-89.96
X146.0Y-92.5
X146.0Y-95.04
X149.5Y-109.5
X149.53Y-106.0
X149.58Y-102.5
X149.58Y-113.0
X151.92Y-102.5
X151.92Y-106.0
X151.92Y-109.5
X151.92Y-113.0
X151.95Y-99.5
X151.95Y-116.0
X153.62Y-87.42
X153.62Y-89.96
X153.62Y-92.5
X153.62Y-95.04
X157.0Y-82.17
X157.0Y-87.17
X159.57Y-99.5
X159.57Y-116.0
X161.92Y-139.25
X162.08Y-102.5
X162.08Y-106.0
X162.08Y-109.5
X162.08Y-113.0
X165.38Y-98.0
X172.08Y-139.25
X173.0Y-98.0
X185.38Y-98.0
X186.0Y-139.25
X193.0Y-98.0
X196.16Y-139.25
X199.5Y-84.0
X202.0Y-84.0
X203.92Y-100.0
X211.25Y-80.14
X211.25Y-90.3
X214.08Y-100.0
X216.97Y-100.0
X223.25Y-80.14
X223.25Y-90.3
X227.13Y-100.0
X234.75Y-82.25
X234.75Y-84.75
X234.75Y-89.75
X234.75Y-92.25
X236.92Y-100.0
X240.75Y-80.3
X240.75Y-90.46
X247.08Y-100.0
T4
X209.0Y-93.73
X209.0Y-96.27
X221.0Y-93.73
X221.0Y-96.27
X242.0Y-93.74
X242.0Y-96.28
T5
X59.44Y-106.38
X59.44Y-110.38
X59.49Y-114.38
X59.49Y-130.38
X59.49Y-134.38
X59.49Y-138.38
X61.98Y-106.38
X61.98Y-110.38
X62.03Y-114.38
X62.03Y-130.38
X62.03Y-134.38
X62.03Y-138.38
X64.52Y-106.38
X64.52Y-110.38
X64.57Y-114.38
X64.57Y-130.38
X64.57Y-134.38
X64.57Y-138.38
X67.06Y-106.38
X67.06Y-110.38
X67.11Y-114.38
X67.11Y-130.38
X67.11Y-134.38
X67.11Y-138.38
X69.6Y-106.38
X69.6Y-110.38
X69.65Y-114.38
X69.65Y-130.38
X69.65Y-134.38
X69.65Y-138.38
X72.14Y-106.38
X72.14Y-110.38
X72.19Y-114.38
X72.19Y-130.38
X72.19Y-134.38
X72.19Y-138.38
X75.0Y-77.46
X75.0Y-80.0
X75.0Y-82.54
X75.0Y-85.08
X87.3Y-139.0
X89.84Y-139.0
X91.5Y-112.5
X91.5Y-132.5
X92.38Y-139.0
X94.0Y-112.5
X94.0Y-132.5
X94.92Y-139.0
X96.5Y-112.5
X96.5Y-132.5
X97.46Y-139.0
X100.0Y-139.0
X103.675Y-138.975
X106.215Y-138.975
X107.5Y-112.5
X107.5Y-132.5
X108.755Y-138.975
X110.0Y-112.5
X110.0Y-132.5
X111.295Y-138.975
X112.5Y-112.5
X112.5Y-132.5
X113.835Y-138.975
X116.375Y-138.975
X135.38Y-139.0
X137.92Y-139.0
X140.46Y-139.0
X143.0Y-139.0
X155.825Y-139.225
X158.365Y-139.225
X159.3Y-66.0
X159.3Y-68.54
X161.84Y-66.0
X161.84Y-68.54
X164.38Y-66.0
X164.38Y-68.54
X166.92Y-55.0
X166.92Y-57.54
X166.92Y-66.0
X166.92Y-68.54
X168.5Y-112.5
X169.46Y-55.0
X169.46Y-57.54
X169.46Y-66.0
X169.46Y-68.54
X171.0Y-112.5
X172.0Y-55.0
X172.0Y-57.54
X172.0Y-66.0
X172.0Y-68.54
X173.5Y-112.5
X174.54Y-55.0
X174.54Y-57.54
X174.54Y-66.0
X174.54Y-68.54
X175.13Y-138.95
X177.08Y-55.0
X177.08Y-57.54
X177.08Y-66.0
X177.08Y-68.54
X177.67Y-138.95
X180.21Y-138.95
X182.75Y-138.95
X188.5Y-112.5
X191.0Y-112.5
X193.5Y-112.5
X210.0Y-139.08
X210.0Y-141.62
X210.0Y-144.16
X210.0Y-146.7
X215.3Y-55.08
X215.3Y-57.62
X217.84Y-55.08
X217.84Y-57.62
X220.0Y-139.08
X220.0Y-141.62
X220.0Y-144.16
X220.0Y-146.7
X220.38Y-55.08
X220.38Y-57.62
X222.92Y-55.08
X222.92Y-57.62
X225.46Y-55.08
X225.46Y-57.62
X228.0Y-55.08
X228.0Y-57.62
X230.0Y-139.08
X230.0Y-141.62
X230.0Y-144.16
X230.0Y-146.7
X230.54Y-55.08
X230.54Y-57.62
X233.08Y-55.08
X233.08Y-57.62
X240.0Y-139.08
X240.0Y-141.62
X240.0Y-144.16
X240.0Y-146.7
T6
X208.0Y-79.84
X208.0Y-90.0
X220.0Y-79.84
X220.0Y-90.0
X244.0Y-80.0
X244.0Y-90.16
T7
X58.52Y-65.0
X58.52Y-76.0
X58.52Y-87.0
X58.52Y-98.0
X122.85Y-121.6
X133.9Y-121.6
X144.95Y-121.6
X156.0Y-121.6
T8
X61.62Y-65.0
X61.62Y-76.0
X61.62Y-87.0
X61.62Y-98.0
X122.85Y-124.7
X133.9Y-124.7
X144.95Y-124.7
X156.0Y-124.7
T9
X69.92Y-65.0
X69.92Y-76.0
X69.92Y-87.0
X69.92Y-98.0
X122.85Y-133.0
X133.9Y-133.0
X144.95Y-133.0
X156.0Y-133.0
T10
X167.19Y-122.46
X173.54Y-119.92
X187.19Y-122.46
X193.54Y-119.92
T11
X89.25Y-105.0
X89.25Y-125.0
X98.75Y-105.0
X98.75Y-125.0
X105.25Y-105.0
X105.25Y-125.0
X114.75Y-105.0
X114.75Y-125.0
X166.25Y-105.0
X175.75Y-105.0
X186.25Y-105.0
X195.75Y-105.0
T12
X208.0Y-73.0
X220.0Y-73.0
X232.0Y-73.0
X244.0Y-73.0
M30
