G04 #@! TF.GenerationSoftware,KiCad,Pcbnew,8.0.2-1*
G04 #@! TF.CreationDate,2024-06-17T09:11:19+02:00*
G04 #@! TF.ProjectId,3340,33333430-2e6b-4696-9361-645f70636258,rev?*
G04 #@! TF.SameCoordinates,Original*
G04 #@! TF.FileFunction,Other,User*
%FSLAX46Y46*%
G04 Gerber Fmt 4.6, Leading zero omitted, Abs format (unit mm)*
G04 Created by KiCad (PCBNEW 8.0.2-1) date 2024-06-17 09:11:19*
%MOMM*%
%LPD*%
G01*
G04 APERTURE LIST*
%ADD10C,1.000000*%
%ADD11C,0.150000*%
%ADD12C,0.100000*%
G04 APERTURE END LIST*
D10*
X100500000Y-49500000D02*
X100500000Y-160500000D01*
D11*
X110842857Y-40454819D02*
X111176190Y-41454819D01*
X111176190Y-41454819D02*
X111509523Y-40454819D01*
X111795238Y-41407200D02*
X111890476Y-41454819D01*
X111890476Y-41454819D02*
X112080952Y-41454819D01*
X112080952Y-41454819D02*
X112176190Y-41407200D01*
X112176190Y-41407200D02*
X112223809Y-41311961D01*
X112223809Y-41311961D02*
X112223809Y-41264342D01*
X112223809Y-41264342D02*
X112176190Y-41169104D01*
X112176190Y-41169104D02*
X112080952Y-41121485D01*
X112080952Y-41121485D02*
X111938095Y-41121485D01*
X111938095Y-41121485D02*
X111842857Y-41073866D01*
X111842857Y-41073866D02*
X111795238Y-40978628D01*
X111795238Y-40978628D02*
X111795238Y-40931009D01*
X111795238Y-40931009D02*
X111842857Y-40835771D01*
X111842857Y-40835771D02*
X111938095Y-40788152D01*
X111938095Y-40788152D02*
X112080952Y-40788152D01*
X112080952Y-40788152D02*
X112176190Y-40835771D01*
X113080952Y-41407200D02*
X112985714Y-41454819D01*
X112985714Y-41454819D02*
X112795238Y-41454819D01*
X112795238Y-41454819D02*
X112700000Y-41407200D01*
X112700000Y-41407200D02*
X112652381Y-41359580D01*
X112652381Y-41359580D02*
X112604762Y-41264342D01*
X112604762Y-41264342D02*
X112604762Y-40978628D01*
X112604762Y-40978628D02*
X112652381Y-40883390D01*
X112652381Y-40883390D02*
X112700000Y-40835771D01*
X112700000Y-40835771D02*
X112795238Y-40788152D01*
X112795238Y-40788152D02*
X112985714Y-40788152D01*
X112985714Y-40788152D02*
X113080952Y-40835771D01*
X113652381Y-41454819D02*
X113557143Y-41407200D01*
X113557143Y-41407200D02*
X113509524Y-41359580D01*
X113509524Y-41359580D02*
X113461905Y-41264342D01*
X113461905Y-41264342D02*
X113461905Y-40978628D01*
X113461905Y-40978628D02*
X113509524Y-40883390D01*
X113509524Y-40883390D02*
X113557143Y-40835771D01*
X113557143Y-40835771D02*
X113652381Y-40788152D01*
X113652381Y-40788152D02*
X113795238Y-40788152D01*
X113795238Y-40788152D02*
X113890476Y-40835771D01*
X113890476Y-40835771D02*
X113938095Y-40883390D01*
X113938095Y-40883390D02*
X113985714Y-40978628D01*
X113985714Y-40978628D02*
X113985714Y-41264342D01*
X113985714Y-41264342D02*
X113938095Y-41359580D01*
X113938095Y-41359580D02*
X113890476Y-41407200D01*
X113890476Y-41407200D02*
X113795238Y-41454819D01*
X113795238Y-41454819D02*
X113652381Y-41454819D01*
X114414286Y-41454819D02*
X114414286Y-40788152D01*
X114414286Y-40978628D02*
X114461905Y-40883390D01*
X114461905Y-40883390D02*
X114509524Y-40835771D01*
X114509524Y-40835771D02*
X114604762Y-40788152D01*
X114604762Y-40788152D02*
X114700000Y-40788152D01*
X115414286Y-41407200D02*
X115319048Y-41454819D01*
X115319048Y-41454819D02*
X115128572Y-41454819D01*
X115128572Y-41454819D02*
X115033334Y-41407200D01*
X115033334Y-41407200D02*
X114985715Y-41311961D01*
X114985715Y-41311961D02*
X114985715Y-40931009D01*
X114985715Y-40931009D02*
X115033334Y-40835771D01*
X115033334Y-40835771D02*
X115128572Y-40788152D01*
X115128572Y-40788152D02*
X115319048Y-40788152D01*
X115319048Y-40788152D02*
X115414286Y-40835771D01*
X115414286Y-40835771D02*
X115461905Y-40931009D01*
X115461905Y-40931009D02*
X115461905Y-41026247D01*
X115461905Y-41026247D02*
X114985715Y-41121485D01*
D12*
X100500000Y-49500000D02*
X100500000Y-41000000D01*
X100500000Y-49500000D02*
X99913579Y-48373496D01*
X100500000Y-49500000D02*
X101086421Y-48373496D01*
X100500000Y-41000000D02*
X110122619Y-41000000D01*
X100500000Y-49500000D02*
X100500000Y-41000000D01*
X100500000Y-49500000D02*
X99913579Y-48373496D01*
X100500000Y-49500000D02*
X101086421Y-48373496D01*
X100500000Y-41000000D02*
X110122619Y-41000000D01*
M02*
