G04 #@! TF.GenerationSoftware,KiCad,Pcbnew,8.0.2-1*
G04 #@! TF.CreationDate,2024-05-07T18:45:23+02:00*
G04 #@! TF.ProjectId,scribble,73637269-6262-46c6-952e-6b696361645f,rev?*
G04 #@! TF.SameCoordinates,Original*
G04 #@! TF.FileFunction,Copper,L1,Top*
G04 #@! TF.FilePolarity,Positive*
%FSLAX46Y46*%
G04 Gerber Fmt 4.6, Leading zero omitted, Abs format (unit mm)*
G04 Created by KiCad (PCBNEW 8.0.2-1) date 2024-05-07 18:45:23*
%MOMM*%
%LPD*%
G01*
G04 APERTURE LIST*
G04 Aperture macros list*
%AMRoundRect*
0 Rectangle with rounded corners*
0 $1 Rounding radius*
0 $2 $3 $4 $5 $6 $7 $8 $9 X,Y pos of 4 corners*
0 Add a 4 corners polygon primitive as box body*
4,1,4,$2,$3,$4,$5,$6,$7,$8,$9,$2,$3,0*
0 Add four circle primitives for the rounded corners*
1,1,$1+$1,$2,$3*
1,1,$1+$1,$4,$5*
1,1,$1+$1,$6,$7*
1,1,$1+$1,$8,$9*
0 Add four rect primitives between the rounded corners*
20,1,$1+$1,$2,$3,$4,$5,0*
20,1,$1+$1,$4,$5,$6,$7,0*
20,1,$1+$1,$6,$7,$8,$9,0*
20,1,$1+$1,$8,$9,$2,$3,0*%
G04 Aperture macros list end*
G04 #@! TA.AperFunction,ComponentPad*
%ADD10C,1.600000*%
G04 #@! TD*
G04 #@! TA.AperFunction,ComponentPad*
%ADD11O,1.600000X1.600000*%
G04 #@! TD*
G04 #@! TA.AperFunction,ComponentPad*
%ADD12R,1.800000X1.100000*%
G04 #@! TD*
G04 #@! TA.AperFunction,ComponentPad*
%ADD13RoundRect,0.275000X0.625000X-0.275000X0.625000X0.275000X-0.625000X0.275000X-0.625000X-0.275000X0*%
G04 #@! TD*
G04 #@! TA.AperFunction,ComponentPad*
%ADD14O,4.000000X4.000000*%
G04 #@! TD*
G04 #@! TA.AperFunction,ComponentPad*
%ADD15R,1.800000X1.800000*%
G04 #@! TD*
G04 #@! TA.AperFunction,ComponentPad*
%ADD16C,1.800000*%
G04 #@! TD*
G04 #@! TA.AperFunction,ComponentPad*
%ADD17R,1.600000X1.600000*%
G04 #@! TD*
G04 #@! TA.AperFunction,ComponentPad*
%ADD18R,2.200000X2.200000*%
G04 #@! TD*
G04 #@! TA.AperFunction,ComponentPad*
%ADD19O,2.200000X2.200000*%
G04 #@! TD*
G04 #@! TA.AperFunction,ComponentPad*
%ADD20C,2.000000*%
G04 #@! TD*
G04 #@! TA.AperFunction,ComponentPad*
%ADD21R,1.700000X1.700000*%
G04 #@! TD*
G04 #@! TA.AperFunction,ComponentPad*
%ADD22O,1.700000X1.700000*%
G04 #@! TD*
G04 #@! TA.AperFunction,ComponentPad*
%ADD23R,2.400000X1.600000*%
G04 #@! TD*
G04 #@! TA.AperFunction,ComponentPad*
%ADD24O,2.400000X1.600000*%
G04 #@! TD*
G04 #@! TA.AperFunction,ComponentPad*
%ADD25R,1.930000X1.830000*%
G04 #@! TD*
G04 #@! TA.AperFunction,ComponentPad*
%ADD26C,2.130000*%
G04 #@! TD*
G04 #@! TA.AperFunction,ComponentPad*
%ADD27R,1.830000X1.930000*%
G04 #@! TD*
G04 #@! TA.AperFunction,ComponentPad*
%ADD28C,2.850000*%
G04 #@! TD*
G04 #@! TA.AperFunction,ComponentPad*
%ADD29R,1.200000X1.200000*%
G04 #@! TD*
G04 #@! TA.AperFunction,ComponentPad*
%ADD30C,1.200000*%
G04 #@! TD*
G04 #@! TA.AperFunction,ComponentPad*
%ADD31RoundRect,0.250000X-0.600000X-0.600000X0.600000X-0.600000X0.600000X0.600000X-0.600000X0.600000X0*%
G04 #@! TD*
G04 #@! TA.AperFunction,ComponentPad*
%ADD32C,1.700000*%
G04 #@! TD*
G04 #@! TA.AperFunction,ViaPad*
%ADD33C,0.800000*%
G04 #@! TD*
G04 #@! TA.AperFunction,Conductor*
%ADD34C,0.300000*%
G04 #@! TD*
G04 #@! TA.AperFunction,Conductor*
%ADD35C,0.500000*%
G04 #@! TD*
G04 #@! TA.AperFunction,Conductor*
%ADD36C,0.250000*%
G04 #@! TD*
G04 APERTURE END LIST*
D10*
X78600000Y-114020000D03*
D11*
X78600000Y-124180000D03*
D12*
X82400000Y-102000000D03*
D13*
X80330000Y-100730000D03*
X82400000Y-99460000D03*
D14*
X106250000Y-74000000D03*
X115750000Y-74000000D03*
D15*
X108500000Y-81500000D03*
D16*
X111000000Y-81500000D03*
X113500000Y-81500000D03*
D17*
X80620000Y-82600000D03*
D11*
X73000000Y-82600000D03*
D10*
X80630000Y-95200000D03*
D11*
X70470000Y-95200000D03*
D18*
X61870000Y-75800000D03*
D19*
X72030000Y-75800000D03*
D20*
X78000000Y-64000000D03*
D21*
X88000000Y-70000000D03*
D22*
X88000000Y-72540000D03*
X88000000Y-75080000D03*
X88000000Y-77620000D03*
D20*
X75400000Y-100000000D03*
D10*
X118000000Y-129930000D03*
D11*
X118000000Y-119770000D03*
D21*
X88000000Y-85000000D03*
D22*
X88000000Y-87540000D03*
X88000000Y-90080000D03*
X88000000Y-92620000D03*
D20*
X71000000Y-144000000D03*
D14*
X106250000Y-90925000D03*
X115750000Y-90925000D03*
D15*
X108500000Y-98425000D03*
D16*
X111000000Y-98425000D03*
X113500000Y-98425000D03*
D15*
X109710000Y-112000000D03*
D16*
X112250000Y-112000000D03*
D14*
X106250000Y-57025000D03*
X115750000Y-57025000D03*
D15*
X108500000Y-64525000D03*
D16*
X111000000Y-64525000D03*
X113500000Y-64525000D03*
D20*
X56000000Y-115000000D03*
D18*
X72210000Y-52000000D03*
D19*
X62050000Y-52000000D03*
D10*
X72200000Y-114020000D03*
D11*
X72200000Y-124180000D03*
D17*
X96250000Y-104940000D03*
D11*
X96250000Y-112560000D03*
D10*
X126980000Y-138400000D03*
D11*
X116820000Y-138400000D03*
D10*
X80630000Y-85600000D03*
D11*
X70470000Y-85600000D03*
D23*
X57380000Y-132260000D03*
D24*
X57380000Y-134800000D03*
X57380000Y-137340000D03*
X57380000Y-139880000D03*
X57380000Y-142420000D03*
X57380000Y-144960000D03*
X57380000Y-147500000D03*
X65000000Y-147500000D03*
X65000000Y-144960000D03*
X65000000Y-142420000D03*
X65000000Y-139880000D03*
X65000000Y-137340000D03*
X65000000Y-134800000D03*
X65000000Y-132260000D03*
D10*
X75400000Y-124180000D03*
D11*
X75400000Y-114020000D03*
D17*
X54000000Y-127500000D03*
D11*
X61620000Y-127500000D03*
D10*
X99250000Y-112530000D03*
D11*
X99250000Y-102370000D03*
D17*
X123750000Y-85940000D03*
D11*
X123750000Y-93560000D03*
D20*
X78000000Y-59600000D03*
D21*
X80000000Y-135000000D03*
D22*
X82540000Y-135000000D03*
X85080000Y-135000000D03*
X87620000Y-135000000D03*
D10*
X80600000Y-88800000D03*
D11*
X70440000Y-88800000D03*
D10*
X81800000Y-124180000D03*
D11*
X81800000Y-114020000D03*
D17*
X80620000Y-80000000D03*
D11*
X73000000Y-80000000D03*
D21*
X52000000Y-115000000D03*
D22*
X52000000Y-112460000D03*
X52000000Y-109920000D03*
X52000000Y-107380000D03*
D17*
X121000000Y-93560000D03*
D11*
X121000000Y-85940000D03*
D25*
X111000000Y-118000000D03*
D26*
X111000000Y-129400000D03*
X111000000Y-121100000D03*
D27*
X115620000Y-145000000D03*
D26*
X127020000Y-145000000D03*
X118720000Y-145000000D03*
D23*
X57500000Y-95375000D03*
D24*
X57500000Y-97915000D03*
X57500000Y-100455000D03*
X57500000Y-102995000D03*
X57500000Y-105535000D03*
X57500000Y-108075000D03*
X57500000Y-110615000D03*
X65120000Y-110615000D03*
X65120000Y-108075000D03*
X65120000Y-105535000D03*
X65120000Y-102995000D03*
X65120000Y-100455000D03*
X65120000Y-97915000D03*
X65120000Y-95375000D03*
D10*
X70470000Y-92000000D03*
D11*
X80630000Y-92000000D03*
D10*
X59400000Y-114020000D03*
D11*
X59400000Y-124180000D03*
D20*
X77500000Y-104600000D03*
D10*
X105180000Y-138300000D03*
D11*
X95020000Y-138300000D03*
D10*
X61770000Y-55200000D03*
D11*
X71930000Y-55200000D03*
D10*
X61570000Y-72400000D03*
D11*
X71730000Y-72400000D03*
D20*
X122350000Y-96570000D03*
D10*
X69000000Y-124180000D03*
D11*
X69000000Y-114020000D03*
D27*
X106380000Y-145000000D03*
D26*
X94980000Y-145000000D03*
X103280000Y-145000000D03*
D20*
X78000000Y-68600000D03*
D10*
X65800000Y-114020000D03*
D11*
X65800000Y-124180000D03*
D10*
X62600000Y-114020000D03*
D11*
X62600000Y-124180000D03*
D28*
X96000000Y-62000000D03*
X96000000Y-57300000D03*
X96000000Y-52600000D03*
D20*
X81000000Y-106000000D03*
X87600000Y-130300000D03*
D21*
X129000000Y-85000000D03*
D22*
X129000000Y-87540000D03*
X129000000Y-90080000D03*
X129000000Y-92620000D03*
D17*
X64000000Y-66000000D03*
D10*
X64000000Y-68500000D03*
X54000000Y-119750000D03*
X54000000Y-124750000D03*
D21*
X121000000Y-135000000D03*
D22*
X123540000Y-135000000D03*
X126080000Y-135000000D03*
X128620000Y-135000000D03*
D29*
X69800000Y-66227401D03*
D30*
X69800000Y-68227401D03*
D17*
X64000000Y-59000000D03*
D10*
X64000000Y-61500000D03*
D21*
X129000000Y-70000000D03*
D22*
X129000000Y-72540000D03*
X129000000Y-75080000D03*
X129000000Y-77620000D03*
D21*
X93000000Y-115000000D03*
D22*
X93000000Y-112460000D03*
X93000000Y-109920000D03*
X93000000Y-107380000D03*
D10*
X68000000Y-154000000D03*
X68000000Y-159000000D03*
D29*
X54000000Y-103000000D03*
D30*
X52000000Y-103000000D03*
D31*
X54000000Y-73720000D03*
D32*
X56540000Y-73720000D03*
X54000000Y-71180000D03*
X56540000Y-71180000D03*
X54000000Y-68640000D03*
X56540000Y-68640000D03*
X54000000Y-66100000D03*
X56540000Y-66100000D03*
X54000000Y-63560000D03*
X56540000Y-63560000D03*
X54000000Y-61020000D03*
X56540000Y-61020000D03*
X54000000Y-58480000D03*
X56540000Y-58480000D03*
X54000000Y-55940000D03*
X56540000Y-55940000D03*
D29*
X70000000Y-140000000D03*
D30*
X68000000Y-140000000D03*
D10*
X61000000Y-154000000D03*
X61000000Y-159000000D03*
D29*
X69800000Y-59227401D03*
D30*
X69800000Y-61227401D03*
D29*
X71000000Y-103000000D03*
D30*
X69000000Y-103000000D03*
D29*
X54000000Y-140000000D03*
D30*
X52000000Y-140000000D03*
D33*
X61875000Y-107000000D03*
D34*
X124400000Y-68150000D02*
X118750000Y-62500000D01*
X110500000Y-62500000D02*
X108500000Y-64500000D01*
X124400000Y-85290000D02*
X124400000Y-68150000D01*
X123750000Y-85940000D02*
X124400000Y-85290000D01*
X118750000Y-62500000D02*
X110500000Y-62500000D01*
X123540000Y-131440000D02*
X123540000Y-135000000D01*
X107000000Y-97500000D02*
X107000000Y-124692894D01*
X110100000Y-96900000D02*
X107600000Y-96900000D01*
X111000000Y-97800000D02*
X110100000Y-96900000D01*
X119600000Y-127500000D02*
X123540000Y-131440000D01*
X113500000Y-64500000D02*
X118100000Y-69100000D01*
X111000000Y-98500000D02*
X111000000Y-97800000D01*
X109807106Y-127500000D02*
X119600000Y-127500000D01*
X118100000Y-93900000D02*
X113500000Y-98500000D01*
X107600000Y-96900000D02*
X107000000Y-97500000D01*
X113500000Y-98500000D02*
X111000000Y-98500000D01*
X107000000Y-124692894D02*
X109807106Y-127500000D01*
X118100000Y-69100000D02*
X118100000Y-93900000D01*
X111000000Y-64500000D02*
X113500000Y-64500000D01*
D35*
X77627401Y-59227401D02*
X78000000Y-59600000D01*
X69800000Y-59227401D02*
X64227401Y-59227401D01*
X64227401Y-59227401D02*
X64000000Y-59000000D01*
X69800000Y-59227401D02*
X77627401Y-59227401D01*
X64000000Y-59000000D02*
X64000000Y-57480000D01*
X64000000Y-57480000D02*
X61720000Y-55200000D01*
X70000000Y-140000000D02*
X70000000Y-125160000D01*
X70000000Y-125160000D02*
X69000000Y-124160000D01*
X69527401Y-68500000D02*
X69800000Y-68227401D01*
X67750000Y-139750000D02*
X68000000Y-140000000D01*
X69000000Y-103000000D02*
X67750000Y-104250000D01*
X65120000Y-102995000D02*
X68995000Y-102995000D01*
X65000000Y-139880000D02*
X67880000Y-139880000D01*
X61520000Y-70980000D02*
X64000000Y-68500000D01*
X68995000Y-102995000D02*
X69000000Y-103000000D01*
X67880000Y-139880000D02*
X68000000Y-140000000D01*
X61520000Y-72400000D02*
X61520000Y-70980000D01*
X77627401Y-68227401D02*
X78000000Y-68600000D01*
X69800000Y-68227401D02*
X77627401Y-68227401D01*
X64000000Y-68500000D02*
X69527401Y-68500000D01*
X67750000Y-104250000D02*
X67750000Y-139750000D01*
D34*
X71000000Y-151000000D02*
X68000000Y-154000000D01*
X68000000Y-154000000D02*
X61000000Y-154000000D01*
X71000000Y-144000000D02*
X71000000Y-151000000D01*
X82540000Y-135000000D02*
X73540000Y-144000000D01*
X73540000Y-144000000D02*
X71000000Y-144000000D01*
X56000000Y-122750000D02*
X54000000Y-124750000D01*
X57500000Y-100455000D02*
X59050000Y-102005000D01*
X56000000Y-115000000D02*
X56000000Y-122750000D01*
X59050000Y-111950000D02*
X56000000Y-115000000D01*
X54000000Y-127500000D02*
X54000000Y-124750000D01*
X59050000Y-102005000D02*
X59050000Y-111950000D01*
D35*
X72160000Y-54920000D02*
X71880000Y-55200000D01*
X72160000Y-52000000D02*
X72160000Y-54920000D01*
X56540000Y-63620000D02*
X54000000Y-63620000D01*
X58500000Y-55500000D02*
X62000000Y-52000000D01*
X58500000Y-61660000D02*
X58500000Y-55500000D01*
X56540000Y-63620000D02*
X58500000Y-61660000D01*
X56540000Y-73780000D02*
X54000000Y-73780000D01*
X58560000Y-75800000D02*
X56540000Y-73780000D01*
X61920000Y-75800000D02*
X58560000Y-75800000D01*
X71680000Y-75400000D02*
X72080000Y-75800000D01*
X71680000Y-72400000D02*
X71680000Y-75400000D01*
D34*
X121000000Y-93560000D02*
X123750000Y-93560000D01*
X122350000Y-96570000D02*
X122350000Y-94960000D01*
X122350000Y-94960000D02*
X123750000Y-93560000D01*
X121000000Y-89073402D02*
X119000000Y-91073402D01*
X119000000Y-91073402D02*
X119000000Y-97750000D01*
X116750000Y-100000000D02*
X110000000Y-100000000D01*
X121000000Y-85940000D02*
X121000000Y-89073402D01*
X110000000Y-100000000D02*
X108500000Y-98500000D01*
X119000000Y-97750000D02*
X116750000Y-100000000D01*
X118000000Y-117750000D02*
X118000000Y-119740000D01*
X112250000Y-112000000D02*
X118000000Y-117750000D01*
X73000000Y-80000000D02*
X57625000Y-95375000D01*
X57625000Y-95375000D02*
X57500000Y-95375000D01*
X108500000Y-83492894D02*
X96250000Y-95742894D01*
X108500000Y-81500000D02*
X108500000Y-83492894D01*
X96250000Y-95742894D02*
X96250000Y-104940000D01*
X96250000Y-112560000D02*
X93100000Y-112560000D01*
X93100000Y-112560000D02*
X93000000Y-112460000D01*
X68200000Y-88800000D02*
X65120000Y-91880000D01*
X73000000Y-82600000D02*
X73000000Y-86260000D01*
X65120000Y-91880000D02*
X65120000Y-95375000D01*
X73000000Y-86260000D02*
X70460000Y-88800000D01*
X70460000Y-88800000D02*
X68200000Y-88800000D01*
X100200000Y-61500000D02*
X119164213Y-61500000D01*
X125400000Y-67735788D02*
X125400000Y-81400000D01*
X119164213Y-61500000D02*
X125400000Y-67735788D01*
X96000000Y-57300000D02*
X100200000Y-61500000D01*
X125400000Y-81400000D02*
X129000000Y-85000000D01*
D36*
X80620000Y-85600000D02*
X80620000Y-82600000D01*
D34*
X81000000Y-106000000D02*
X86800000Y-100200000D01*
X86800000Y-86200000D02*
X88000000Y-85000000D01*
X86800000Y-100200000D02*
X86800000Y-86200000D01*
D36*
X96000000Y-52600000D02*
X91375000Y-57225000D01*
X96590000Y-109920000D02*
X93000000Y-109920000D01*
X99250000Y-112580000D02*
X96590000Y-109920000D01*
X91375000Y-57225000D02*
X91375000Y-108295000D01*
X91375000Y-108295000D02*
X93000000Y-109920000D01*
X57380000Y-132260000D02*
X57380000Y-119220000D01*
X80730000Y-101370000D02*
X80730000Y-100730000D01*
X57380000Y-119220000D02*
X62600000Y-114000000D01*
X62600000Y-114000000D02*
X62600000Y-100435000D01*
X77915000Y-97915000D02*
X80730000Y-100730000D01*
X77500000Y-104600000D02*
X80730000Y-101370000D01*
X65120000Y-97915000D02*
X77915000Y-97915000D01*
X62600000Y-100435000D02*
X65120000Y-97915000D01*
D34*
X95020000Y-138300000D02*
X95020000Y-144960000D01*
X95020000Y-144960000D02*
X94980000Y-145000000D01*
X126980000Y-144980000D02*
X127000000Y-145000000D01*
X126980000Y-138400000D02*
X126980000Y-144980000D01*
X70420000Y-95200000D02*
X69095000Y-96525000D01*
X64475000Y-96525000D02*
X61875000Y-99125000D01*
X61875000Y-99125000D02*
X61875000Y-107000000D01*
X69095000Y-96525000D02*
X64475000Y-96525000D01*
X72200000Y-114000000D02*
X69000000Y-114000000D01*
X74945000Y-100455000D02*
X75400000Y-100000000D01*
X75400000Y-100000000D02*
X75400000Y-114000000D01*
X65120000Y-100455000D02*
X74945000Y-100455000D01*
X59400000Y-124160000D02*
X62600000Y-124160000D01*
X59400000Y-142940000D02*
X57380000Y-144960000D01*
X59400000Y-124160000D02*
X59400000Y-142940000D01*
X66250000Y-146350000D02*
X77450000Y-135150000D01*
X55475000Y-143925000D02*
X55475000Y-145321346D01*
X77450000Y-115150000D02*
X78600000Y-114000000D01*
X57380000Y-142420000D02*
X56980000Y-142420000D01*
X81800000Y-114000000D02*
X78600000Y-114000000D01*
X56980000Y-142420000D02*
X55475000Y-143925000D01*
X55475000Y-145321346D02*
X56503654Y-146350000D01*
X77450000Y-135150000D02*
X77450000Y-115150000D01*
X56503654Y-146350000D02*
X66250000Y-146350000D01*
X52000000Y-109920000D02*
X53200000Y-108720000D01*
X51000000Y-104682943D02*
X51000000Y-81000000D01*
X51000000Y-81000000D02*
X53150000Y-78850000D01*
X53150000Y-78850000D02*
X79470000Y-78850000D01*
X53200000Y-108720000D02*
X53200000Y-106882943D01*
X79470000Y-78850000D02*
X80620000Y-80000000D01*
X53200000Y-106882943D02*
X51000000Y-104682943D01*
D36*
X54000000Y-56000000D02*
X50375000Y-59625000D01*
X50375000Y-105755000D02*
X52000000Y-107380000D01*
X54000000Y-56000000D02*
X56540000Y-56000000D01*
X50375000Y-59625000D02*
X50375000Y-105755000D01*
D34*
X82100000Y-88500000D02*
X86800000Y-83800000D01*
X82100000Y-93680000D02*
X82100000Y-88500000D01*
X89600000Y-84000000D02*
X89600000Y-85940000D01*
X80580000Y-95200000D02*
X82100000Y-93680000D01*
X89400000Y-83800000D02*
X89600000Y-84000000D01*
X89600000Y-85940000D02*
X88000000Y-87540000D01*
X86800000Y-83800000D02*
X89400000Y-83800000D01*
X118957106Y-62000000D02*
X96000000Y-62000000D01*
X124900000Y-85980000D02*
X124900000Y-67942894D01*
X124900000Y-67942894D02*
X118957106Y-62000000D01*
X129000000Y-90080000D02*
X124900000Y-85980000D01*
X118000000Y-131400000D02*
X121000000Y-134400000D01*
X118000000Y-129900000D02*
X118000000Y-131400000D01*
X121000000Y-134400000D02*
X121000000Y-135000000D01*
D36*
X56930000Y-119033604D02*
X56930000Y-130060000D01*
X87620000Y-135000000D02*
X87620000Y-130680000D01*
X87620000Y-130680000D02*
X87900000Y-130400000D01*
X55000000Y-131990000D02*
X55000000Y-146000000D01*
X56500000Y-147500000D02*
X57380000Y-147500000D01*
X56930000Y-130060000D02*
X55000000Y-131990000D01*
X59400000Y-114000000D02*
X59400000Y-116563604D01*
X55000000Y-146000000D02*
X56500000Y-147500000D01*
X59400000Y-116563604D02*
X56930000Y-119033604D01*
D34*
X107280000Y-136200000D02*
X105180000Y-138300000D01*
X124880000Y-136200000D02*
X107280000Y-136200000D01*
X126080000Y-135000000D02*
X124880000Y-136200000D01*
X125220000Y-138400000D02*
X116820000Y-138400000D01*
X128620000Y-135000000D02*
X125220000Y-138400000D01*
X54000000Y-117000000D02*
X52000000Y-115000000D01*
X54000000Y-119750000D02*
X54000000Y-117000000D01*
X93000000Y-115000000D02*
X96600000Y-115000000D01*
X96600000Y-115000000D02*
X111000000Y-129400000D01*
X55655000Y-112460000D02*
X57500000Y-110615000D01*
X52000000Y-112460000D02*
X55655000Y-112460000D01*
X99250000Y-102420000D02*
X99250000Y-93450000D01*
X99250000Y-93450000D02*
X111000000Y-81700000D01*
X111000000Y-81700000D02*
X111000000Y-81500000D01*
M02*
