G04 #@! TF.GenerationSoftware,KiCad,Pcbnew,8.0.2-1*
G04 #@! TF.CreationDate,2024-06-17T10:00:25+02:00*
G04 #@! TF.ProjectId,7555,37353535-2e6b-4696-9361-645f70636258,rev?*
G04 #@! TF.SameCoordinates,Original*
G04 #@! TF.FileFunction,Soldermask,Bot*
G04 #@! TF.FilePolarity,Negative*
%FSLAX46Y46*%
G04 Gerber Fmt 4.6, Leading zero omitted, Abs format (unit mm)*
G04 Created by KiCad (PCBNEW 8.0.2-1) date 2024-06-17 10:00:25*
%MOMM*%
%LPD*%
G01*
G04 APERTURE LIST*
G04 Aperture macros list*
%AMRoundRect*
0 Rectangle with rounded corners*
0 $1 Rounding radius*
0 $2 $3 $4 $5 $6 $7 $8 $9 X,Y pos of 4 corners*
0 Add a 4 corners polygon primitive as box body*
4,1,4,$2,$3,$4,$5,$6,$7,$8,$9,$2,$3,0*
0 Add four circle primitives for the rounded corners*
1,1,$1+$1,$2,$3*
1,1,$1+$1,$4,$5*
1,1,$1+$1,$6,$7*
1,1,$1+$1,$8,$9*
0 Add four rect primitives between the rounded corners*
20,1,$1+$1,$2,$3,$4,$5,0*
20,1,$1+$1,$4,$5,$6,$7,0*
20,1,$1+$1,$6,$7,$8,$9,0*
20,1,$1+$1,$8,$9,$2,$3,0*%
G04 Aperture macros list end*
%ADD10C,1.600000*%
%ADD11O,1.600000X1.600000*%
%ADD12R,1.600000X1.600000*%
%ADD13O,4.000000X4.000000*%
%ADD14R,1.800000X1.800000*%
%ADD15C,1.800000*%
%ADD16R,1.700000X1.700000*%
%ADD17O,1.700000X1.700000*%
%ADD18C,3.200000*%
%ADD19R,1.100000X1.800000*%
%ADD20RoundRect,0.275000X-0.275000X-0.625000X0.275000X-0.625000X0.275000X0.625000X-0.275000X0.625000X0*%
%ADD21C,2.850000*%
%ADD22R,1.930000X1.830000*%
%ADD23C,2.130000*%
%ADD24R,2.400000X1.600000*%
%ADD25O,2.400000X1.600000*%
%ADD26R,2.200000X2.200000*%
%ADD27O,2.200000X2.200000*%
%ADD28C,2.000000*%
%ADD29R,1.200000X1.200000*%
%ADD30C,1.200000*%
%ADD31RoundRect,0.250000X-0.600000X0.600000X-0.600000X-0.600000X0.600000X-0.600000X0.600000X0.600000X0*%
%ADD32C,1.700000*%
G04 APERTURE END LIST*
D10*
X99000000Y-134420000D03*
D11*
X99000000Y-144580000D03*
D12*
X121000000Y-119190000D03*
D11*
X121000000Y-126810000D03*
D13*
X106250000Y-71000000D03*
X115750000Y-71000000D03*
D14*
X108500000Y-78500000D03*
D15*
X111000000Y-78500000D03*
X113500000Y-78500000D03*
D12*
X80750000Y-104560000D03*
D11*
X80750000Y-96940000D03*
D10*
X74500000Y-94400000D03*
D11*
X74500000Y-104560000D03*
D16*
X53000000Y-80920000D03*
D17*
X53000000Y-83460000D03*
X53000000Y-86000000D03*
X53000000Y-88540000D03*
X53000000Y-91080000D03*
X53000000Y-93620000D03*
X53000000Y-96160000D03*
X53000000Y-98700000D03*
D10*
X59750000Y-110420000D03*
D11*
X59750000Y-120580000D03*
D10*
X120000000Y-95920000D03*
D11*
X120000000Y-106080000D03*
D12*
X94000000Y-105000000D03*
D11*
X101620000Y-105000000D03*
D10*
X109000000Y-144580000D03*
D11*
X109000000Y-134420000D03*
D14*
X102730000Y-142000000D03*
D15*
X105270000Y-142000000D03*
D18*
X95000000Y-75000000D03*
D10*
X123000000Y-144530000D03*
D11*
X123000000Y-134370000D03*
D19*
X68750000Y-90400000D03*
D20*
X70020000Y-88330000D03*
X71290000Y-90400000D03*
D18*
X127000000Y-75000000D03*
D13*
X106250000Y-85000000D03*
X115750000Y-85000000D03*
D14*
X108500000Y-92500000D03*
D15*
X111000000Y-92500000D03*
X113500000Y-92500000D03*
D10*
X77000000Y-118250000D03*
X77000000Y-113250000D03*
D18*
X54000000Y-157000000D03*
D21*
X106300000Y-113000000D03*
X111000000Y-113000000D03*
X115700000Y-113000000D03*
D10*
X101000000Y-81920000D03*
D11*
X101000000Y-92080000D03*
D10*
X74920000Y-62000000D03*
D11*
X85080000Y-62000000D03*
D19*
X68750000Y-84400000D03*
D20*
X70020000Y-82330000D03*
X71290000Y-84400000D03*
D10*
X74500000Y-81970000D03*
D11*
X74500000Y-92130000D03*
D22*
X111000000Y-119520000D03*
D23*
X111000000Y-130920000D03*
X111000000Y-122620000D03*
D10*
X56500000Y-120580000D03*
D11*
X56500000Y-110420000D03*
D18*
X54000000Y-75000000D03*
D24*
X73800000Y-126000000D03*
D25*
X73800000Y-123460000D03*
X73800000Y-120920000D03*
X73800000Y-118380000D03*
X73800000Y-115840000D03*
X73800000Y-113300000D03*
X73800000Y-110760000D03*
X66180000Y-110760000D03*
X66180000Y-113300000D03*
X66180000Y-115840000D03*
X66180000Y-118380000D03*
X66180000Y-120920000D03*
X66180000Y-123460000D03*
X66180000Y-126000000D03*
D10*
X118000000Y-119170000D03*
D11*
X118000000Y-129330000D03*
D19*
X68750000Y-96400000D03*
D20*
X70020000Y-94330000D03*
X71290000Y-96400000D03*
D14*
X116730000Y-142000000D03*
D15*
X119270000Y-142000000D03*
D10*
X113000000Y-134420000D03*
D11*
X113000000Y-144580000D03*
D10*
X120000000Y-64030000D03*
D11*
X120000000Y-53870000D03*
D10*
X120000000Y-78080000D03*
D11*
X120000000Y-67920000D03*
D22*
X104000000Y-147520000D03*
D23*
X104000000Y-158920000D03*
X104000000Y-150620000D03*
D26*
X52000000Y-51950000D03*
D27*
X52000000Y-62110000D03*
D14*
X96270000Y-57000000D03*
D15*
X93730000Y-57000000D03*
D16*
X53000000Y-143380000D03*
D17*
X53000000Y-145920000D03*
X53000000Y-148460000D03*
X53000000Y-151000000D03*
D18*
X127000000Y-157000000D03*
X86000000Y-75000000D03*
X95000000Y-157000000D03*
D22*
X118000000Y-147520000D03*
D23*
X118000000Y-158920000D03*
X118000000Y-150620000D03*
D10*
X63000000Y-113250000D03*
X63000000Y-118250000D03*
D26*
X88000000Y-62160000D03*
D27*
X88000000Y-52000000D03*
D10*
X77750000Y-99250000D03*
X77750000Y-104250000D03*
D18*
X86000000Y-157000000D03*
D12*
X123000000Y-85810000D03*
D11*
X123000000Y-78190000D03*
D10*
X65250000Y-104830000D03*
D11*
X65250000Y-94670000D03*
D10*
X65250000Y-92330000D03*
D11*
X65250000Y-82170000D03*
D16*
X87000000Y-110000000D03*
D17*
X87000000Y-112540000D03*
X87000000Y-115080000D03*
X87000000Y-117620000D03*
X87000000Y-120160000D03*
X87000000Y-122700000D03*
X87000000Y-125240000D03*
X87000000Y-127780000D03*
D12*
X101810000Y-108000000D03*
D11*
X94190000Y-108000000D03*
D13*
X106250000Y-57000000D03*
X115750000Y-57000000D03*
D14*
X108500000Y-64500000D03*
D15*
X111000000Y-64500000D03*
X113500000Y-64500000D03*
D12*
X66000000Y-133000000D03*
D11*
X66000000Y-135540000D03*
X66000000Y-138080000D03*
X66000000Y-140620000D03*
X73620000Y-140620000D03*
X73620000Y-138080000D03*
X73620000Y-135540000D03*
X73620000Y-133000000D03*
D10*
X62000000Y-92330000D03*
D11*
X62000000Y-82170000D03*
D10*
X65080000Y-62000000D03*
D11*
X54920000Y-62000000D03*
D10*
X100000000Y-62080000D03*
D11*
X100000000Y-51920000D03*
D10*
X63000000Y-120420000D03*
D11*
X63000000Y-130580000D03*
D13*
X106250000Y-99000000D03*
X115750000Y-99000000D03*
D14*
X108500000Y-106500000D03*
D15*
X111000000Y-106500000D03*
X113500000Y-106500000D03*
D16*
X53000000Y-120000000D03*
D17*
X53000000Y-117460000D03*
D28*
X66000000Y-144000000D03*
D10*
X52500000Y-125000000D03*
X57500000Y-125000000D03*
D12*
X78000000Y-140500000D03*
D10*
X80500000Y-140500000D03*
D12*
X85000000Y-67000000D03*
D10*
X87500000Y-67000000D03*
D16*
X94000000Y-81000000D03*
D17*
X94000000Y-83540000D03*
X94000000Y-86080000D03*
X94000000Y-88620000D03*
X94000000Y-91160000D03*
X94000000Y-93700000D03*
X94000000Y-96240000D03*
X94000000Y-98780000D03*
D28*
X83500000Y-112500000D03*
D29*
X81000000Y-67000000D03*
D30*
X79000000Y-67000000D03*
D31*
X62000000Y-54000000D03*
D32*
X62000000Y-56540000D03*
X64540000Y-54000000D03*
X64540000Y-56540000D03*
X67080000Y-54000000D03*
X67080000Y-56540000D03*
X69620000Y-54000000D03*
X69620000Y-56540000D03*
X72160000Y-54000000D03*
X72160000Y-56540000D03*
X74700000Y-54000000D03*
X74700000Y-56540000D03*
X77240000Y-54000000D03*
X77240000Y-56540000D03*
X79780000Y-54000000D03*
X79780000Y-56540000D03*
D28*
X73750000Y-129250000D03*
X70000000Y-75000000D03*
X81500000Y-92000000D03*
X75000000Y-75000000D03*
X62000000Y-140750000D03*
X58750000Y-145500000D03*
D16*
X128000000Y-110000000D03*
D17*
X128000000Y-112540000D03*
X128000000Y-115080000D03*
X128000000Y-117620000D03*
X128000000Y-120160000D03*
X128000000Y-122700000D03*
X128000000Y-125240000D03*
X128000000Y-127780000D03*
D10*
X52500000Y-131200000D03*
X57500000Y-131200000D03*
D28*
X78000000Y-92000000D03*
D16*
X94000000Y-120000000D03*
D17*
X94000000Y-117460000D03*
D28*
X62000000Y-137250000D03*
X65000000Y-75000000D03*
D29*
X61000000Y-67000000D03*
D30*
X59000000Y-67000000D03*
D16*
X70000000Y-62475000D03*
D17*
X70000000Y-65015000D03*
X70000000Y-67555000D03*
D16*
X94000000Y-143380000D03*
D17*
X94000000Y-145920000D03*
X94000000Y-148460000D03*
X94000000Y-151000000D03*
D28*
X57000000Y-151250000D03*
X80500000Y-133500000D03*
D12*
X52500000Y-67000000D03*
D10*
X55000000Y-67000000D03*
D28*
X53000000Y-138250000D03*
M02*
