G04 #@! TF.GenerationSoftware,KiCad,Pcbnew,8.0.2-1*
G04 #@! TF.CreationDate,2024-06-17T10:28:58+02:00*
G04 #@! TF.ProjectId,active-mult,61637469-7665-42d6-9d75-6c742e6b6963,rev?*
G04 #@! TF.SameCoordinates,Original*
G04 #@! TF.FileFunction,Legend,Top*
G04 #@! TF.FilePolarity,Positive*
%FSLAX46Y46*%
G04 Gerber Fmt 4.6, Leading zero omitted, Abs format (unit mm)*
G04 Created by KiCad (PCBNEW 8.0.2-1) date 2024-06-17 10:28:58*
%MOMM*%
%LPD*%
G01*
G04 APERTURE LIST*
G04 Aperture macros list*
%AMRoundRect*
0 Rectangle with rounded corners*
0 $1 Rounding radius*
0 $2 $3 $4 $5 $6 $7 $8 $9 X,Y pos of 4 corners*
0 Add a 4 corners polygon primitive as box body*
4,1,4,$2,$3,$4,$5,$6,$7,$8,$9,$2,$3,0*
0 Add four circle primitives for the rounded corners*
1,1,$1+$1,$2,$3*
1,1,$1+$1,$4,$5*
1,1,$1+$1,$6,$7*
1,1,$1+$1,$8,$9*
0 Add four rect primitives between the rounded corners*
20,1,$1+$1,$2,$3,$4,$5,0*
20,1,$1+$1,$4,$5,$6,$7,0*
20,1,$1+$1,$6,$7,$8,$9,0*
20,1,$1+$1,$8,$9,$2,$3,0*%
G04 Aperture macros list end*
%ADD10C,0.150000*%
%ADD11C,0.100000*%
%ADD12C,0.120000*%
%ADD13C,3.200000*%
%ADD14C,2.850000*%
%ADD15C,1.600000*%
%ADD16O,1.600000X1.600000*%
%ADD17R,1.930000X1.830000*%
%ADD18C,2.130000*%
%ADD19R,1.700000X1.700000*%
%ADD20O,1.700000X1.700000*%
%ADD21R,2.200000X2.200000*%
%ADD22O,2.200000X2.200000*%
%ADD23R,1.600000X2.400000*%
%ADD24O,1.600000X2.400000*%
%ADD25R,2.400000X1.600000*%
%ADD26O,2.400000X1.600000*%
%ADD27R,1.600000X1.600000*%
%ADD28R,1.800000X1.800000*%
%ADD29C,1.800000*%
%ADD30R,1.800000X1.100000*%
%ADD31RoundRect,0.275000X0.625000X-0.275000X0.625000X0.275000X-0.625000X0.275000X-0.625000X-0.275000X0*%
%ADD32RoundRect,0.275000X-0.625000X0.275000X-0.625000X-0.275000X0.625000X-0.275000X0.625000X0.275000X0*%
%ADD33R,1.200000X1.200000*%
%ADD34C,1.200000*%
%ADD35RoundRect,0.250000X-0.600000X-0.600000X0.600000X-0.600000X0.600000X0.600000X-0.600000X0.600000X0*%
%ADD36C,1.700000*%
G04 APERTURE END LIST*
D10*
X114269819Y-109891792D02*
X113793628Y-110225125D01*
X114269819Y-110463220D02*
X113269819Y-110463220D01*
X113269819Y-110463220D02*
X113269819Y-110082268D01*
X113269819Y-110082268D02*
X113317438Y-109987030D01*
X113317438Y-109987030D02*
X113365057Y-109939411D01*
X113365057Y-109939411D02*
X113460295Y-109891792D01*
X113460295Y-109891792D02*
X113603152Y-109891792D01*
X113603152Y-109891792D02*
X113698390Y-109939411D01*
X113698390Y-109939411D02*
X113746009Y-109987030D01*
X113746009Y-109987030D02*
X113793628Y-110082268D01*
X113793628Y-110082268D02*
X113793628Y-110463220D01*
X114222200Y-109082268D02*
X114269819Y-109177506D01*
X114269819Y-109177506D02*
X114269819Y-109367982D01*
X114269819Y-109367982D02*
X114222200Y-109463220D01*
X114222200Y-109463220D02*
X114126961Y-109510839D01*
X114126961Y-109510839D02*
X113746009Y-109510839D01*
X113746009Y-109510839D02*
X113650771Y-109463220D01*
X113650771Y-109463220D02*
X113603152Y-109367982D01*
X113603152Y-109367982D02*
X113603152Y-109177506D01*
X113603152Y-109177506D02*
X113650771Y-109082268D01*
X113650771Y-109082268D02*
X113746009Y-109034649D01*
X113746009Y-109034649D02*
X113841247Y-109034649D01*
X113841247Y-109034649D02*
X113936485Y-109510839D01*
X113603152Y-108701315D02*
X114269819Y-108463220D01*
X114269819Y-108463220D02*
X113603152Y-108225125D01*
X114174580Y-107844172D02*
X114222200Y-107796553D01*
X114222200Y-107796553D02*
X114269819Y-107844172D01*
X114269819Y-107844172D02*
X114222200Y-107891791D01*
X114222200Y-107891791D02*
X114174580Y-107844172D01*
X114174580Y-107844172D02*
X114269819Y-107844172D01*
X114269819Y-106844173D02*
X114269819Y-107415601D01*
X114269819Y-107129887D02*
X113269819Y-107129887D01*
X113269819Y-107129887D02*
X113412676Y-107225125D01*
X113412676Y-107225125D02*
X113507914Y-107320363D01*
X113507914Y-107320363D02*
X113555533Y-107415601D01*
X111659819Y-110039411D02*
X111659819Y-108134649D01*
X112802676Y-110420363D02*
X108802676Y-109087030D01*
X108802676Y-109087030D02*
X112802676Y-107753696D01*
X112612200Y-104706078D02*
X112802676Y-105087030D01*
X112802676Y-105087030D02*
X112802676Y-105848935D01*
X112802676Y-105848935D02*
X112612200Y-106229887D01*
X112612200Y-106229887D02*
X112421723Y-106420364D01*
X112421723Y-106420364D02*
X112040771Y-106610840D01*
X112040771Y-106610840D02*
X110897914Y-106610840D01*
X110897914Y-106610840D02*
X110516961Y-106420364D01*
X110516961Y-106420364D02*
X110326485Y-106229887D01*
X110326485Y-106229887D02*
X110136009Y-105848935D01*
X110136009Y-105848935D02*
X110136009Y-105087030D01*
X110136009Y-105087030D02*
X110326485Y-104706078D01*
X110136009Y-103563221D02*
X110136009Y-102039412D01*
X108802676Y-102991793D02*
X112231247Y-102991793D01*
X112231247Y-102991793D02*
X112612200Y-102801316D01*
X112612200Y-102801316D02*
X112802676Y-102420364D01*
X112802676Y-102420364D02*
X112802676Y-102039412D01*
X112802676Y-100706079D02*
X110136009Y-100706079D01*
X108802676Y-100706079D02*
X108993152Y-100896555D01*
X108993152Y-100896555D02*
X109183628Y-100706079D01*
X109183628Y-100706079D02*
X108993152Y-100515602D01*
X108993152Y-100515602D02*
X108802676Y-100706079D01*
X108802676Y-100706079D02*
X109183628Y-100706079D01*
X110136009Y-99182269D02*
X112802676Y-98229888D01*
X112802676Y-98229888D02*
X110136009Y-97277507D01*
X112612200Y-94229888D02*
X112802676Y-94610840D01*
X112802676Y-94610840D02*
X112802676Y-95372745D01*
X112802676Y-95372745D02*
X112612200Y-95753698D01*
X112612200Y-95753698D02*
X112231247Y-95944174D01*
X112231247Y-95944174D02*
X110707438Y-95944174D01*
X110707438Y-95944174D02*
X110326485Y-95753698D01*
X110326485Y-95753698D02*
X110136009Y-95372745D01*
X110136009Y-95372745D02*
X110136009Y-94610840D01*
X110136009Y-94610840D02*
X110326485Y-94229888D01*
X110326485Y-94229888D02*
X110707438Y-94039412D01*
X110707438Y-94039412D02*
X111088390Y-94039412D01*
X111088390Y-94039412D02*
X111469342Y-95944174D01*
X112802676Y-89277508D02*
X108802676Y-89277508D01*
X108802676Y-89277508D02*
X111659819Y-87944174D01*
X111659819Y-87944174D02*
X108802676Y-86610841D01*
X108802676Y-86610841D02*
X112802676Y-86610841D01*
X110136009Y-82991793D02*
X112802676Y-82991793D01*
X110136009Y-84706079D02*
X112231247Y-84706079D01*
X112231247Y-84706079D02*
X112612200Y-84515602D01*
X112612200Y-84515602D02*
X112802676Y-84134650D01*
X112802676Y-84134650D02*
X112802676Y-83563221D01*
X112802676Y-83563221D02*
X112612200Y-83182269D01*
X112612200Y-83182269D02*
X112421723Y-82991793D01*
X112802676Y-80515602D02*
X112612200Y-80896554D01*
X112612200Y-80896554D02*
X112231247Y-81087031D01*
X112231247Y-81087031D02*
X108802676Y-81087031D01*
X110136009Y-79563221D02*
X110136009Y-78039412D01*
X108802676Y-78991793D02*
X112231247Y-78991793D01*
X112231247Y-78991793D02*
X112612200Y-78801316D01*
X112612200Y-78801316D02*
X112802676Y-78420364D01*
X112802676Y-78420364D02*
X112802676Y-78039412D01*
X101012969Y-160469819D02*
X100536779Y-160469819D01*
X100536779Y-160469819D02*
X100536779Y-159469819D01*
X101346303Y-159946009D02*
X101679636Y-159946009D01*
X101822493Y-160469819D02*
X101346303Y-160469819D01*
X101346303Y-160469819D02*
X101346303Y-159469819D01*
X101346303Y-159469819D02*
X101822493Y-159469819D01*
X102251065Y-160469819D02*
X102251065Y-159469819D01*
X102251065Y-159469819D02*
X102822493Y-160469819D01*
X102822493Y-160469819D02*
X102822493Y-159469819D01*
X103298684Y-160469819D02*
X103298684Y-159469819D01*
X103774874Y-160469819D02*
X103774874Y-159469819D01*
X103774874Y-159469819D02*
X104108207Y-160184104D01*
X104108207Y-160184104D02*
X104441540Y-159469819D01*
X104441540Y-159469819D02*
X104441540Y-160469819D01*
X104870112Y-160184104D02*
X105346302Y-160184104D01*
X104774874Y-160469819D02*
X105108207Y-159469819D01*
X105108207Y-159469819D02*
X105441540Y-160469819D01*
X106251064Y-160469819D02*
X105774874Y-160469819D01*
X105774874Y-160469819D02*
X105774874Y-159469819D01*
X107346303Y-160469819D02*
X107346303Y-159469819D01*
X107346303Y-159469819D02*
X107727255Y-159469819D01*
X107727255Y-159469819D02*
X107822493Y-159517438D01*
X107822493Y-159517438D02*
X107870112Y-159565057D01*
X107870112Y-159565057D02*
X107917731Y-159660295D01*
X107917731Y-159660295D02*
X107917731Y-159803152D01*
X107917731Y-159803152D02*
X107870112Y-159898390D01*
X107870112Y-159898390D02*
X107822493Y-159946009D01*
X107822493Y-159946009D02*
X107727255Y-159993628D01*
X107727255Y-159993628D02*
X107346303Y-159993628D01*
X108917731Y-160374580D02*
X108870112Y-160422200D01*
X108870112Y-160422200D02*
X108727255Y-160469819D01*
X108727255Y-160469819D02*
X108632017Y-160469819D01*
X108632017Y-160469819D02*
X108489160Y-160422200D01*
X108489160Y-160422200D02*
X108393922Y-160326961D01*
X108393922Y-160326961D02*
X108346303Y-160231723D01*
X108346303Y-160231723D02*
X108298684Y-160041247D01*
X108298684Y-160041247D02*
X108298684Y-159898390D01*
X108298684Y-159898390D02*
X108346303Y-159707914D01*
X108346303Y-159707914D02*
X108393922Y-159612676D01*
X108393922Y-159612676D02*
X108489160Y-159517438D01*
X108489160Y-159517438D02*
X108632017Y-159469819D01*
X108632017Y-159469819D02*
X108727255Y-159469819D01*
X108727255Y-159469819D02*
X108870112Y-159517438D01*
X108870112Y-159517438D02*
X108917731Y-159565057D01*
X109679636Y-159946009D02*
X109822493Y-159993628D01*
X109822493Y-159993628D02*
X109870112Y-160041247D01*
X109870112Y-160041247D02*
X109917731Y-160136485D01*
X109917731Y-160136485D02*
X109917731Y-160279342D01*
X109917731Y-160279342D02*
X109870112Y-160374580D01*
X109870112Y-160374580D02*
X109822493Y-160422200D01*
X109822493Y-160422200D02*
X109727255Y-160469819D01*
X109727255Y-160469819D02*
X109346303Y-160469819D01*
X109346303Y-160469819D02*
X109346303Y-159469819D01*
X109346303Y-159469819D02*
X109679636Y-159469819D01*
X109679636Y-159469819D02*
X109774874Y-159517438D01*
X109774874Y-159517438D02*
X109822493Y-159565057D01*
X109822493Y-159565057D02*
X109870112Y-159660295D01*
X109870112Y-159660295D02*
X109870112Y-159755533D01*
X109870112Y-159755533D02*
X109822493Y-159850771D01*
X109822493Y-159850771D02*
X109774874Y-159898390D01*
X109774874Y-159898390D02*
X109679636Y-159946009D01*
X109679636Y-159946009D02*
X109346303Y-159946009D01*
X111108208Y-160469819D02*
X111108208Y-159469819D01*
X111108208Y-159469819D02*
X111346303Y-159469819D01*
X111346303Y-159469819D02*
X111489160Y-159517438D01*
X111489160Y-159517438D02*
X111584398Y-159612676D01*
X111584398Y-159612676D02*
X111632017Y-159707914D01*
X111632017Y-159707914D02*
X111679636Y-159898390D01*
X111679636Y-159898390D02*
X111679636Y-160041247D01*
X111679636Y-160041247D02*
X111632017Y-160231723D01*
X111632017Y-160231723D02*
X111584398Y-160326961D01*
X111584398Y-160326961D02*
X111489160Y-160422200D01*
X111489160Y-160422200D02*
X111346303Y-160469819D01*
X111346303Y-160469819D02*
X111108208Y-160469819D01*
X112108208Y-159946009D02*
X112441541Y-159946009D01*
X112584398Y-160469819D02*
X112108208Y-160469819D01*
X112108208Y-160469819D02*
X112108208Y-159469819D01*
X112108208Y-159469819D02*
X112584398Y-159469819D01*
X112965351Y-160422200D02*
X113108208Y-160469819D01*
X113108208Y-160469819D02*
X113346303Y-160469819D01*
X113346303Y-160469819D02*
X113441541Y-160422200D01*
X113441541Y-160422200D02*
X113489160Y-160374580D01*
X113489160Y-160374580D02*
X113536779Y-160279342D01*
X113536779Y-160279342D02*
X113536779Y-160184104D01*
X113536779Y-160184104D02*
X113489160Y-160088866D01*
X113489160Y-160088866D02*
X113441541Y-160041247D01*
X113441541Y-160041247D02*
X113346303Y-159993628D01*
X113346303Y-159993628D02*
X113155827Y-159946009D01*
X113155827Y-159946009D02*
X113060589Y-159898390D01*
X113060589Y-159898390D02*
X113012970Y-159850771D01*
X113012970Y-159850771D02*
X112965351Y-159755533D01*
X112965351Y-159755533D02*
X112965351Y-159660295D01*
X112965351Y-159660295D02*
X113012970Y-159565057D01*
X113012970Y-159565057D02*
X113060589Y-159517438D01*
X113060589Y-159517438D02*
X113155827Y-159469819D01*
X113155827Y-159469819D02*
X113393922Y-159469819D01*
X113393922Y-159469819D02*
X113536779Y-159517438D01*
X113965351Y-160469819D02*
X113965351Y-159469819D01*
X114965350Y-159517438D02*
X114870112Y-159469819D01*
X114870112Y-159469819D02*
X114727255Y-159469819D01*
X114727255Y-159469819D02*
X114584398Y-159517438D01*
X114584398Y-159517438D02*
X114489160Y-159612676D01*
X114489160Y-159612676D02*
X114441541Y-159707914D01*
X114441541Y-159707914D02*
X114393922Y-159898390D01*
X114393922Y-159898390D02*
X114393922Y-160041247D01*
X114393922Y-160041247D02*
X114441541Y-160231723D01*
X114441541Y-160231723D02*
X114489160Y-160326961D01*
X114489160Y-160326961D02*
X114584398Y-160422200D01*
X114584398Y-160422200D02*
X114727255Y-160469819D01*
X114727255Y-160469819D02*
X114822493Y-160469819D01*
X114822493Y-160469819D02*
X114965350Y-160422200D01*
X114965350Y-160422200D02*
X115012969Y-160374580D01*
X115012969Y-160374580D02*
X115012969Y-160041247D01*
X115012969Y-160041247D02*
X114822493Y-160041247D01*
X115441541Y-160469819D02*
X115441541Y-159469819D01*
X115441541Y-159469819D02*
X116012969Y-160469819D01*
X116012969Y-160469819D02*
X116012969Y-159469819D01*
X117441541Y-159469819D02*
X117536779Y-159469819D01*
X117536779Y-159469819D02*
X117632017Y-159517438D01*
X117632017Y-159517438D02*
X117679636Y-159565057D01*
X117679636Y-159565057D02*
X117727255Y-159660295D01*
X117727255Y-159660295D02*
X117774874Y-159850771D01*
X117774874Y-159850771D02*
X117774874Y-160088866D01*
X117774874Y-160088866D02*
X117727255Y-160279342D01*
X117727255Y-160279342D02*
X117679636Y-160374580D01*
X117679636Y-160374580D02*
X117632017Y-160422200D01*
X117632017Y-160422200D02*
X117536779Y-160469819D01*
X117536779Y-160469819D02*
X117441541Y-160469819D01*
X117441541Y-160469819D02*
X117346303Y-160422200D01*
X117346303Y-160422200D02*
X117298684Y-160374580D01*
X117298684Y-160374580D02*
X117251065Y-160279342D01*
X117251065Y-160279342D02*
X117203446Y-160088866D01*
X117203446Y-160088866D02*
X117203446Y-159850771D01*
X117203446Y-159850771D02*
X117251065Y-159660295D01*
X117251065Y-159660295D02*
X117298684Y-159565057D01*
X117298684Y-159565057D02*
X117346303Y-159517438D01*
X117346303Y-159517438D02*
X117441541Y-159469819D01*
X118679636Y-159469819D02*
X118203446Y-159469819D01*
X118203446Y-159469819D02*
X118155827Y-159946009D01*
X118155827Y-159946009D02*
X118203446Y-159898390D01*
X118203446Y-159898390D02*
X118298684Y-159850771D01*
X118298684Y-159850771D02*
X118536779Y-159850771D01*
X118536779Y-159850771D02*
X118632017Y-159898390D01*
X118632017Y-159898390D02*
X118679636Y-159946009D01*
X118679636Y-159946009D02*
X118727255Y-160041247D01*
X118727255Y-160041247D02*
X118727255Y-160279342D01*
X118727255Y-160279342D02*
X118679636Y-160374580D01*
X118679636Y-160374580D02*
X118632017Y-160422200D01*
X118632017Y-160422200D02*
X118536779Y-160469819D01*
X118536779Y-160469819D02*
X118298684Y-160469819D01*
X118298684Y-160469819D02*
X118203446Y-160422200D01*
X118203446Y-160422200D02*
X118155827Y-160374580D01*
X119155827Y-160374580D02*
X119203446Y-160422200D01*
X119203446Y-160422200D02*
X119155827Y-160469819D01*
X119155827Y-160469819D02*
X119108208Y-160422200D01*
X119108208Y-160422200D02*
X119155827Y-160374580D01*
X119155827Y-160374580D02*
X119155827Y-160469819D01*
X119584398Y-159565057D02*
X119632017Y-159517438D01*
X119632017Y-159517438D02*
X119727255Y-159469819D01*
X119727255Y-159469819D02*
X119965350Y-159469819D01*
X119965350Y-159469819D02*
X120060588Y-159517438D01*
X120060588Y-159517438D02*
X120108207Y-159565057D01*
X120108207Y-159565057D02*
X120155826Y-159660295D01*
X120155826Y-159660295D02*
X120155826Y-159755533D01*
X120155826Y-159755533D02*
X120108207Y-159898390D01*
X120108207Y-159898390D02*
X119536779Y-160469819D01*
X119536779Y-160469819D02*
X120155826Y-160469819D01*
X120774874Y-159469819D02*
X120870112Y-159469819D01*
X120870112Y-159469819D02*
X120965350Y-159517438D01*
X120965350Y-159517438D02*
X121012969Y-159565057D01*
X121012969Y-159565057D02*
X121060588Y-159660295D01*
X121060588Y-159660295D02*
X121108207Y-159850771D01*
X121108207Y-159850771D02*
X121108207Y-160088866D01*
X121108207Y-160088866D02*
X121060588Y-160279342D01*
X121060588Y-160279342D02*
X121012969Y-160374580D01*
X121012969Y-160374580D02*
X120965350Y-160422200D01*
X120965350Y-160422200D02*
X120870112Y-160469819D01*
X120870112Y-160469819D02*
X120774874Y-160469819D01*
X120774874Y-160469819D02*
X120679636Y-160422200D01*
X120679636Y-160422200D02*
X120632017Y-160374580D01*
X120632017Y-160374580D02*
X120584398Y-160279342D01*
X120584398Y-160279342D02*
X120536779Y-160088866D01*
X120536779Y-160088866D02*
X120536779Y-159850771D01*
X120536779Y-159850771D02*
X120584398Y-159660295D01*
X120584398Y-159660295D02*
X120632017Y-159565057D01*
X120632017Y-159565057D02*
X120679636Y-159517438D01*
X120679636Y-159517438D02*
X120774874Y-159469819D01*
X121489160Y-159565057D02*
X121536779Y-159517438D01*
X121536779Y-159517438D02*
X121632017Y-159469819D01*
X121632017Y-159469819D02*
X121870112Y-159469819D01*
X121870112Y-159469819D02*
X121965350Y-159517438D01*
X121965350Y-159517438D02*
X122012969Y-159565057D01*
X122012969Y-159565057D02*
X122060588Y-159660295D01*
X122060588Y-159660295D02*
X122060588Y-159755533D01*
X122060588Y-159755533D02*
X122012969Y-159898390D01*
X122012969Y-159898390D02*
X121441541Y-160469819D01*
X121441541Y-160469819D02*
X122060588Y-160469819D01*
X122917731Y-159803152D02*
X122917731Y-160469819D01*
X122679636Y-159422200D02*
X122441541Y-160136485D01*
X122441541Y-160136485D02*
X123060588Y-160136485D01*
X51469819Y-135887030D02*
X51469819Y-136363220D01*
X51469819Y-136363220D02*
X50469819Y-136363220D01*
X50946009Y-135553696D02*
X50946009Y-135220363D01*
X51469819Y-135077506D02*
X51469819Y-135553696D01*
X51469819Y-135553696D02*
X50469819Y-135553696D01*
X50469819Y-135553696D02*
X50469819Y-135077506D01*
X51469819Y-134648934D02*
X50469819Y-134648934D01*
X50469819Y-134648934D02*
X51469819Y-134077506D01*
X51469819Y-134077506D02*
X50469819Y-134077506D01*
X51469819Y-133601315D02*
X50469819Y-133601315D01*
X51469819Y-133125125D02*
X50469819Y-133125125D01*
X50469819Y-133125125D02*
X51184104Y-132791792D01*
X51184104Y-132791792D02*
X50469819Y-132458459D01*
X50469819Y-132458459D02*
X51469819Y-132458459D01*
X51184104Y-132029887D02*
X51184104Y-131553697D01*
X51469819Y-132125125D02*
X50469819Y-131791792D01*
X50469819Y-131791792D02*
X51469819Y-131458459D01*
X51469819Y-130648935D02*
X51469819Y-131125125D01*
X51469819Y-131125125D02*
X50469819Y-131125125D01*
X51469819Y-129553696D02*
X50469819Y-129553696D01*
X50469819Y-129553696D02*
X50469819Y-129172744D01*
X50469819Y-129172744D02*
X50517438Y-129077506D01*
X50517438Y-129077506D02*
X50565057Y-129029887D01*
X50565057Y-129029887D02*
X50660295Y-128982268D01*
X50660295Y-128982268D02*
X50803152Y-128982268D01*
X50803152Y-128982268D02*
X50898390Y-129029887D01*
X50898390Y-129029887D02*
X50946009Y-129077506D01*
X50946009Y-129077506D02*
X50993628Y-129172744D01*
X50993628Y-129172744D02*
X50993628Y-129553696D01*
X51374580Y-127982268D02*
X51422200Y-128029887D01*
X51422200Y-128029887D02*
X51469819Y-128172744D01*
X51469819Y-128172744D02*
X51469819Y-128267982D01*
X51469819Y-128267982D02*
X51422200Y-128410839D01*
X51422200Y-128410839D02*
X51326961Y-128506077D01*
X51326961Y-128506077D02*
X51231723Y-128553696D01*
X51231723Y-128553696D02*
X51041247Y-128601315D01*
X51041247Y-128601315D02*
X50898390Y-128601315D01*
X50898390Y-128601315D02*
X50707914Y-128553696D01*
X50707914Y-128553696D02*
X50612676Y-128506077D01*
X50612676Y-128506077D02*
X50517438Y-128410839D01*
X50517438Y-128410839D02*
X50469819Y-128267982D01*
X50469819Y-128267982D02*
X50469819Y-128172744D01*
X50469819Y-128172744D02*
X50517438Y-128029887D01*
X50517438Y-128029887D02*
X50565057Y-127982268D01*
X50946009Y-127220363D02*
X50993628Y-127077506D01*
X50993628Y-127077506D02*
X51041247Y-127029887D01*
X51041247Y-127029887D02*
X51136485Y-126982268D01*
X51136485Y-126982268D02*
X51279342Y-126982268D01*
X51279342Y-126982268D02*
X51374580Y-127029887D01*
X51374580Y-127029887D02*
X51422200Y-127077506D01*
X51422200Y-127077506D02*
X51469819Y-127172744D01*
X51469819Y-127172744D02*
X51469819Y-127553696D01*
X51469819Y-127553696D02*
X50469819Y-127553696D01*
X50469819Y-127553696D02*
X50469819Y-127220363D01*
X50469819Y-127220363D02*
X50517438Y-127125125D01*
X50517438Y-127125125D02*
X50565057Y-127077506D01*
X50565057Y-127077506D02*
X50660295Y-127029887D01*
X50660295Y-127029887D02*
X50755533Y-127029887D01*
X50755533Y-127029887D02*
X50850771Y-127077506D01*
X50850771Y-127077506D02*
X50898390Y-127125125D01*
X50898390Y-127125125D02*
X50946009Y-127220363D01*
X50946009Y-127220363D02*
X50946009Y-127553696D01*
X51469819Y-125791791D02*
X50469819Y-125791791D01*
X50469819Y-125791791D02*
X50469819Y-125553696D01*
X50469819Y-125553696D02*
X50517438Y-125410839D01*
X50517438Y-125410839D02*
X50612676Y-125315601D01*
X50612676Y-125315601D02*
X50707914Y-125267982D01*
X50707914Y-125267982D02*
X50898390Y-125220363D01*
X50898390Y-125220363D02*
X51041247Y-125220363D01*
X51041247Y-125220363D02*
X51231723Y-125267982D01*
X51231723Y-125267982D02*
X51326961Y-125315601D01*
X51326961Y-125315601D02*
X51422200Y-125410839D01*
X51422200Y-125410839D02*
X51469819Y-125553696D01*
X51469819Y-125553696D02*
X51469819Y-125791791D01*
X50946009Y-124791791D02*
X50946009Y-124458458D01*
X51469819Y-124315601D02*
X51469819Y-124791791D01*
X51469819Y-124791791D02*
X50469819Y-124791791D01*
X50469819Y-124791791D02*
X50469819Y-124315601D01*
X51422200Y-123934648D02*
X51469819Y-123791791D01*
X51469819Y-123791791D02*
X51469819Y-123553696D01*
X51469819Y-123553696D02*
X51422200Y-123458458D01*
X51422200Y-123458458D02*
X51374580Y-123410839D01*
X51374580Y-123410839D02*
X51279342Y-123363220D01*
X51279342Y-123363220D02*
X51184104Y-123363220D01*
X51184104Y-123363220D02*
X51088866Y-123410839D01*
X51088866Y-123410839D02*
X51041247Y-123458458D01*
X51041247Y-123458458D02*
X50993628Y-123553696D01*
X50993628Y-123553696D02*
X50946009Y-123744172D01*
X50946009Y-123744172D02*
X50898390Y-123839410D01*
X50898390Y-123839410D02*
X50850771Y-123887029D01*
X50850771Y-123887029D02*
X50755533Y-123934648D01*
X50755533Y-123934648D02*
X50660295Y-123934648D01*
X50660295Y-123934648D02*
X50565057Y-123887029D01*
X50565057Y-123887029D02*
X50517438Y-123839410D01*
X50517438Y-123839410D02*
X50469819Y-123744172D01*
X50469819Y-123744172D02*
X50469819Y-123506077D01*
X50469819Y-123506077D02*
X50517438Y-123363220D01*
X51469819Y-122934648D02*
X50469819Y-122934648D01*
X50517438Y-121934649D02*
X50469819Y-122029887D01*
X50469819Y-122029887D02*
X50469819Y-122172744D01*
X50469819Y-122172744D02*
X50517438Y-122315601D01*
X50517438Y-122315601D02*
X50612676Y-122410839D01*
X50612676Y-122410839D02*
X50707914Y-122458458D01*
X50707914Y-122458458D02*
X50898390Y-122506077D01*
X50898390Y-122506077D02*
X51041247Y-122506077D01*
X51041247Y-122506077D02*
X51231723Y-122458458D01*
X51231723Y-122458458D02*
X51326961Y-122410839D01*
X51326961Y-122410839D02*
X51422200Y-122315601D01*
X51422200Y-122315601D02*
X51469819Y-122172744D01*
X51469819Y-122172744D02*
X51469819Y-122077506D01*
X51469819Y-122077506D02*
X51422200Y-121934649D01*
X51422200Y-121934649D02*
X51374580Y-121887030D01*
X51374580Y-121887030D02*
X51041247Y-121887030D01*
X51041247Y-121887030D02*
X51041247Y-122077506D01*
X51469819Y-121458458D02*
X50469819Y-121458458D01*
X50469819Y-121458458D02*
X51469819Y-120887030D01*
X51469819Y-120887030D02*
X50469819Y-120887030D01*
X50469819Y-119458458D02*
X50469819Y-119363220D01*
X50469819Y-119363220D02*
X50517438Y-119267982D01*
X50517438Y-119267982D02*
X50565057Y-119220363D01*
X50565057Y-119220363D02*
X50660295Y-119172744D01*
X50660295Y-119172744D02*
X50850771Y-119125125D01*
X50850771Y-119125125D02*
X51088866Y-119125125D01*
X51088866Y-119125125D02*
X51279342Y-119172744D01*
X51279342Y-119172744D02*
X51374580Y-119220363D01*
X51374580Y-119220363D02*
X51422200Y-119267982D01*
X51422200Y-119267982D02*
X51469819Y-119363220D01*
X51469819Y-119363220D02*
X51469819Y-119458458D01*
X51469819Y-119458458D02*
X51422200Y-119553696D01*
X51422200Y-119553696D02*
X51374580Y-119601315D01*
X51374580Y-119601315D02*
X51279342Y-119648934D01*
X51279342Y-119648934D02*
X51088866Y-119696553D01*
X51088866Y-119696553D02*
X50850771Y-119696553D01*
X50850771Y-119696553D02*
X50660295Y-119648934D01*
X50660295Y-119648934D02*
X50565057Y-119601315D01*
X50565057Y-119601315D02*
X50517438Y-119553696D01*
X50517438Y-119553696D02*
X50469819Y-119458458D01*
X50469819Y-118220363D02*
X50469819Y-118696553D01*
X50469819Y-118696553D02*
X50946009Y-118744172D01*
X50946009Y-118744172D02*
X50898390Y-118696553D01*
X50898390Y-118696553D02*
X50850771Y-118601315D01*
X50850771Y-118601315D02*
X50850771Y-118363220D01*
X50850771Y-118363220D02*
X50898390Y-118267982D01*
X50898390Y-118267982D02*
X50946009Y-118220363D01*
X50946009Y-118220363D02*
X51041247Y-118172744D01*
X51041247Y-118172744D02*
X51279342Y-118172744D01*
X51279342Y-118172744D02*
X51374580Y-118220363D01*
X51374580Y-118220363D02*
X51422200Y-118267982D01*
X51422200Y-118267982D02*
X51469819Y-118363220D01*
X51469819Y-118363220D02*
X51469819Y-118601315D01*
X51469819Y-118601315D02*
X51422200Y-118696553D01*
X51422200Y-118696553D02*
X51374580Y-118744172D01*
X51374580Y-117744172D02*
X51422200Y-117696553D01*
X51422200Y-117696553D02*
X51469819Y-117744172D01*
X51469819Y-117744172D02*
X51422200Y-117791791D01*
X51422200Y-117791791D02*
X51374580Y-117744172D01*
X51374580Y-117744172D02*
X51469819Y-117744172D01*
X50565057Y-117315601D02*
X50517438Y-117267982D01*
X50517438Y-117267982D02*
X50469819Y-117172744D01*
X50469819Y-117172744D02*
X50469819Y-116934649D01*
X50469819Y-116934649D02*
X50517438Y-116839411D01*
X50517438Y-116839411D02*
X50565057Y-116791792D01*
X50565057Y-116791792D02*
X50660295Y-116744173D01*
X50660295Y-116744173D02*
X50755533Y-116744173D01*
X50755533Y-116744173D02*
X50898390Y-116791792D01*
X50898390Y-116791792D02*
X51469819Y-117363220D01*
X51469819Y-117363220D02*
X51469819Y-116744173D01*
X50469819Y-116125125D02*
X50469819Y-116029887D01*
X50469819Y-116029887D02*
X50517438Y-115934649D01*
X50517438Y-115934649D02*
X50565057Y-115887030D01*
X50565057Y-115887030D02*
X50660295Y-115839411D01*
X50660295Y-115839411D02*
X50850771Y-115791792D01*
X50850771Y-115791792D02*
X51088866Y-115791792D01*
X51088866Y-115791792D02*
X51279342Y-115839411D01*
X51279342Y-115839411D02*
X51374580Y-115887030D01*
X51374580Y-115887030D02*
X51422200Y-115934649D01*
X51422200Y-115934649D02*
X51469819Y-116029887D01*
X51469819Y-116029887D02*
X51469819Y-116125125D01*
X51469819Y-116125125D02*
X51422200Y-116220363D01*
X51422200Y-116220363D02*
X51374580Y-116267982D01*
X51374580Y-116267982D02*
X51279342Y-116315601D01*
X51279342Y-116315601D02*
X51088866Y-116363220D01*
X51088866Y-116363220D02*
X50850771Y-116363220D01*
X50850771Y-116363220D02*
X50660295Y-116315601D01*
X50660295Y-116315601D02*
X50565057Y-116267982D01*
X50565057Y-116267982D02*
X50517438Y-116220363D01*
X50517438Y-116220363D02*
X50469819Y-116125125D01*
X50565057Y-115410839D02*
X50517438Y-115363220D01*
X50517438Y-115363220D02*
X50469819Y-115267982D01*
X50469819Y-115267982D02*
X50469819Y-115029887D01*
X50469819Y-115029887D02*
X50517438Y-114934649D01*
X50517438Y-114934649D02*
X50565057Y-114887030D01*
X50565057Y-114887030D02*
X50660295Y-114839411D01*
X50660295Y-114839411D02*
X50755533Y-114839411D01*
X50755533Y-114839411D02*
X50898390Y-114887030D01*
X50898390Y-114887030D02*
X51469819Y-115458458D01*
X51469819Y-115458458D02*
X51469819Y-114839411D01*
X50803152Y-113982268D02*
X51469819Y-113982268D01*
X50422200Y-114220363D02*
X51136485Y-114458458D01*
X51136485Y-114458458D02*
X51136485Y-113839411D01*
X96689160Y-107622200D02*
X96832017Y-107669819D01*
X96832017Y-107669819D02*
X97070112Y-107669819D01*
X97070112Y-107669819D02*
X97165350Y-107622200D01*
X97165350Y-107622200D02*
X97212969Y-107574580D01*
X97212969Y-107574580D02*
X97260588Y-107479342D01*
X97260588Y-107479342D02*
X97260588Y-107384104D01*
X97260588Y-107384104D02*
X97212969Y-107288866D01*
X97212969Y-107288866D02*
X97165350Y-107241247D01*
X97165350Y-107241247D02*
X97070112Y-107193628D01*
X97070112Y-107193628D02*
X96879636Y-107146009D01*
X96879636Y-107146009D02*
X96784398Y-107098390D01*
X96784398Y-107098390D02*
X96736779Y-107050771D01*
X96736779Y-107050771D02*
X96689160Y-106955533D01*
X96689160Y-106955533D02*
X96689160Y-106860295D01*
X96689160Y-106860295D02*
X96736779Y-106765057D01*
X96736779Y-106765057D02*
X96784398Y-106717438D01*
X96784398Y-106717438D02*
X96879636Y-106669819D01*
X96879636Y-106669819D02*
X97117731Y-106669819D01*
X97117731Y-106669819D02*
X97260588Y-106717438D01*
X98117731Y-107003152D02*
X98117731Y-107669819D01*
X97689160Y-107003152D02*
X97689160Y-107526961D01*
X97689160Y-107526961D02*
X97736779Y-107622200D01*
X97736779Y-107622200D02*
X97832017Y-107669819D01*
X97832017Y-107669819D02*
X97974874Y-107669819D01*
X97974874Y-107669819D02*
X98070112Y-107622200D01*
X98070112Y-107622200D02*
X98117731Y-107574580D01*
X98593922Y-107669819D02*
X98593922Y-107003152D01*
X98593922Y-107098390D02*
X98641541Y-107050771D01*
X98641541Y-107050771D02*
X98736779Y-107003152D01*
X98736779Y-107003152D02*
X98879636Y-107003152D01*
X98879636Y-107003152D02*
X98974874Y-107050771D01*
X98974874Y-107050771D02*
X99022493Y-107146009D01*
X99022493Y-107146009D02*
X99022493Y-107669819D01*
X99022493Y-107146009D02*
X99070112Y-107050771D01*
X99070112Y-107050771D02*
X99165350Y-107003152D01*
X99165350Y-107003152D02*
X99308207Y-107003152D01*
X99308207Y-107003152D02*
X99403446Y-107050771D01*
X99403446Y-107050771D02*
X99451065Y-107146009D01*
X99451065Y-107146009D02*
X99451065Y-107669819D01*
X95389160Y-92784104D02*
X95865350Y-92784104D01*
X95293922Y-93069819D02*
X95627255Y-92069819D01*
X95627255Y-92069819D02*
X95960588Y-93069819D01*
X96198684Y-92403152D02*
X96436779Y-93069819D01*
X96436779Y-93069819D02*
X96674874Y-92403152D01*
X97436779Y-93022200D02*
X97341541Y-93069819D01*
X97341541Y-93069819D02*
X97151065Y-93069819D01*
X97151065Y-93069819D02*
X97055827Y-93022200D01*
X97055827Y-93022200D02*
X97008208Y-92926961D01*
X97008208Y-92926961D02*
X97008208Y-92546009D01*
X97008208Y-92546009D02*
X97055827Y-92450771D01*
X97055827Y-92450771D02*
X97151065Y-92403152D01*
X97151065Y-92403152D02*
X97341541Y-92403152D01*
X97341541Y-92403152D02*
X97436779Y-92450771D01*
X97436779Y-92450771D02*
X97484398Y-92546009D01*
X97484398Y-92546009D02*
X97484398Y-92641247D01*
X97484398Y-92641247D02*
X97008208Y-92736485D01*
X97912970Y-93069819D02*
X97912970Y-92403152D01*
X97912970Y-92593628D02*
X97960589Y-92498390D01*
X97960589Y-92498390D02*
X98008208Y-92450771D01*
X98008208Y-92450771D02*
X98103446Y-92403152D01*
X98103446Y-92403152D02*
X98198684Y-92403152D01*
X98960589Y-93069819D02*
X98960589Y-92546009D01*
X98960589Y-92546009D02*
X98912970Y-92450771D01*
X98912970Y-92450771D02*
X98817732Y-92403152D01*
X98817732Y-92403152D02*
X98627256Y-92403152D01*
X98627256Y-92403152D02*
X98532018Y-92450771D01*
X98960589Y-93022200D02*
X98865351Y-93069819D01*
X98865351Y-93069819D02*
X98627256Y-93069819D01*
X98627256Y-93069819D02*
X98532018Y-93022200D01*
X98532018Y-93022200D02*
X98484399Y-92926961D01*
X98484399Y-92926961D02*
X98484399Y-92831723D01*
X98484399Y-92831723D02*
X98532018Y-92736485D01*
X98532018Y-92736485D02*
X98627256Y-92688866D01*
X98627256Y-92688866D02*
X98865351Y-92688866D01*
X98865351Y-92688866D02*
X98960589Y-92641247D01*
X99865351Y-92403152D02*
X99865351Y-93212676D01*
X99865351Y-93212676D02*
X99817732Y-93307914D01*
X99817732Y-93307914D02*
X99770113Y-93355533D01*
X99770113Y-93355533D02*
X99674875Y-93403152D01*
X99674875Y-93403152D02*
X99532018Y-93403152D01*
X99532018Y-93403152D02*
X99436780Y-93355533D01*
X99865351Y-93022200D02*
X99770113Y-93069819D01*
X99770113Y-93069819D02*
X99579637Y-93069819D01*
X99579637Y-93069819D02*
X99484399Y-93022200D01*
X99484399Y-93022200D02*
X99436780Y-92974580D01*
X99436780Y-92974580D02*
X99389161Y-92879342D01*
X99389161Y-92879342D02*
X99389161Y-92593628D01*
X99389161Y-92593628D02*
X99436780Y-92498390D01*
X99436780Y-92498390D02*
X99484399Y-92450771D01*
X99484399Y-92450771D02*
X99579637Y-92403152D01*
X99579637Y-92403152D02*
X99770113Y-92403152D01*
X99770113Y-92403152D02*
X99865351Y-92450771D01*
X100722494Y-93022200D02*
X100627256Y-93069819D01*
X100627256Y-93069819D02*
X100436780Y-93069819D01*
X100436780Y-93069819D02*
X100341542Y-93022200D01*
X100341542Y-93022200D02*
X100293923Y-92926961D01*
X100293923Y-92926961D02*
X100293923Y-92546009D01*
X100293923Y-92546009D02*
X100341542Y-92450771D01*
X100341542Y-92450771D02*
X100436780Y-92403152D01*
X100436780Y-92403152D02*
X100627256Y-92403152D01*
X100627256Y-92403152D02*
X100722494Y-92450771D01*
X100722494Y-92450771D02*
X100770113Y-92546009D01*
X100770113Y-92546009D02*
X100770113Y-92641247D01*
X100770113Y-92641247D02*
X100293923Y-92736485D01*
X122789160Y-107622200D02*
X122932017Y-107669819D01*
X122932017Y-107669819D02*
X123170112Y-107669819D01*
X123170112Y-107669819D02*
X123265350Y-107622200D01*
X123265350Y-107622200D02*
X123312969Y-107574580D01*
X123312969Y-107574580D02*
X123360588Y-107479342D01*
X123360588Y-107479342D02*
X123360588Y-107384104D01*
X123360588Y-107384104D02*
X123312969Y-107288866D01*
X123312969Y-107288866D02*
X123265350Y-107241247D01*
X123265350Y-107241247D02*
X123170112Y-107193628D01*
X123170112Y-107193628D02*
X122979636Y-107146009D01*
X122979636Y-107146009D02*
X122884398Y-107098390D01*
X122884398Y-107098390D02*
X122836779Y-107050771D01*
X122836779Y-107050771D02*
X122789160Y-106955533D01*
X122789160Y-106955533D02*
X122789160Y-106860295D01*
X122789160Y-106860295D02*
X122836779Y-106765057D01*
X122836779Y-106765057D02*
X122884398Y-106717438D01*
X122884398Y-106717438D02*
X122979636Y-106669819D01*
X122979636Y-106669819D02*
X123217731Y-106669819D01*
X123217731Y-106669819D02*
X123360588Y-106717438D01*
X124217731Y-107003152D02*
X124217731Y-107669819D01*
X123789160Y-107003152D02*
X123789160Y-107526961D01*
X123789160Y-107526961D02*
X123836779Y-107622200D01*
X123836779Y-107622200D02*
X123932017Y-107669819D01*
X123932017Y-107669819D02*
X124074874Y-107669819D01*
X124074874Y-107669819D02*
X124170112Y-107622200D01*
X124170112Y-107622200D02*
X124217731Y-107574580D01*
X124693922Y-107669819D02*
X124693922Y-107003152D01*
X124693922Y-107098390D02*
X124741541Y-107050771D01*
X124741541Y-107050771D02*
X124836779Y-107003152D01*
X124836779Y-107003152D02*
X124979636Y-107003152D01*
X124979636Y-107003152D02*
X125074874Y-107050771D01*
X125074874Y-107050771D02*
X125122493Y-107146009D01*
X125122493Y-107146009D02*
X125122493Y-107669819D01*
X125122493Y-107146009D02*
X125170112Y-107050771D01*
X125170112Y-107050771D02*
X125265350Y-107003152D01*
X125265350Y-107003152D02*
X125408207Y-107003152D01*
X125408207Y-107003152D02*
X125503446Y-107050771D01*
X125503446Y-107050771D02*
X125551065Y-107146009D01*
X125551065Y-107146009D02*
X125551065Y-107669819D01*
X121489160Y-92784104D02*
X121965350Y-92784104D01*
X121393922Y-93069819D02*
X121727255Y-92069819D01*
X121727255Y-92069819D02*
X122060588Y-93069819D01*
X122298684Y-92403152D02*
X122536779Y-93069819D01*
X122536779Y-93069819D02*
X122774874Y-92403152D01*
X123536779Y-93022200D02*
X123441541Y-93069819D01*
X123441541Y-93069819D02*
X123251065Y-93069819D01*
X123251065Y-93069819D02*
X123155827Y-93022200D01*
X123155827Y-93022200D02*
X123108208Y-92926961D01*
X123108208Y-92926961D02*
X123108208Y-92546009D01*
X123108208Y-92546009D02*
X123155827Y-92450771D01*
X123155827Y-92450771D02*
X123251065Y-92403152D01*
X123251065Y-92403152D02*
X123441541Y-92403152D01*
X123441541Y-92403152D02*
X123536779Y-92450771D01*
X123536779Y-92450771D02*
X123584398Y-92546009D01*
X123584398Y-92546009D02*
X123584398Y-92641247D01*
X123584398Y-92641247D02*
X123108208Y-92736485D01*
X124012970Y-93069819D02*
X124012970Y-92403152D01*
X124012970Y-92593628D02*
X124060589Y-92498390D01*
X124060589Y-92498390D02*
X124108208Y-92450771D01*
X124108208Y-92450771D02*
X124203446Y-92403152D01*
X124203446Y-92403152D02*
X124298684Y-92403152D01*
X125060589Y-93069819D02*
X125060589Y-92546009D01*
X125060589Y-92546009D02*
X125012970Y-92450771D01*
X125012970Y-92450771D02*
X124917732Y-92403152D01*
X124917732Y-92403152D02*
X124727256Y-92403152D01*
X124727256Y-92403152D02*
X124632018Y-92450771D01*
X125060589Y-93022200D02*
X124965351Y-93069819D01*
X124965351Y-93069819D02*
X124727256Y-93069819D01*
X124727256Y-93069819D02*
X124632018Y-93022200D01*
X124632018Y-93022200D02*
X124584399Y-92926961D01*
X124584399Y-92926961D02*
X124584399Y-92831723D01*
X124584399Y-92831723D02*
X124632018Y-92736485D01*
X124632018Y-92736485D02*
X124727256Y-92688866D01*
X124727256Y-92688866D02*
X124965351Y-92688866D01*
X124965351Y-92688866D02*
X125060589Y-92641247D01*
X125965351Y-92403152D02*
X125965351Y-93212676D01*
X125965351Y-93212676D02*
X125917732Y-93307914D01*
X125917732Y-93307914D02*
X125870113Y-93355533D01*
X125870113Y-93355533D02*
X125774875Y-93403152D01*
X125774875Y-93403152D02*
X125632018Y-93403152D01*
X125632018Y-93403152D02*
X125536780Y-93355533D01*
X125965351Y-93022200D02*
X125870113Y-93069819D01*
X125870113Y-93069819D02*
X125679637Y-93069819D01*
X125679637Y-93069819D02*
X125584399Y-93022200D01*
X125584399Y-93022200D02*
X125536780Y-92974580D01*
X125536780Y-92974580D02*
X125489161Y-92879342D01*
X125489161Y-92879342D02*
X125489161Y-92593628D01*
X125489161Y-92593628D02*
X125536780Y-92498390D01*
X125536780Y-92498390D02*
X125584399Y-92450771D01*
X125584399Y-92450771D02*
X125679637Y-92403152D01*
X125679637Y-92403152D02*
X125870113Y-92403152D01*
X125870113Y-92403152D02*
X125965351Y-92450771D01*
X126822494Y-93022200D02*
X126727256Y-93069819D01*
X126727256Y-93069819D02*
X126536780Y-93069819D01*
X126536780Y-93069819D02*
X126441542Y-93022200D01*
X126441542Y-93022200D02*
X126393923Y-92926961D01*
X126393923Y-92926961D02*
X126393923Y-92546009D01*
X126393923Y-92546009D02*
X126441542Y-92450771D01*
X126441542Y-92450771D02*
X126536780Y-92403152D01*
X126536780Y-92403152D02*
X126727256Y-92403152D01*
X126727256Y-92403152D02*
X126822494Y-92450771D01*
X126822494Y-92450771D02*
X126870113Y-92546009D01*
X126870113Y-92546009D02*
X126870113Y-92641247D01*
X126870113Y-92641247D02*
X126393923Y-92736485D01*
D11*
X94309800Y-101333332D02*
X94357419Y-101190475D01*
X94357419Y-101190475D02*
X94357419Y-100952380D01*
X94357419Y-100952380D02*
X94309800Y-100857142D01*
X94309800Y-100857142D02*
X94262180Y-100809523D01*
X94262180Y-100809523D02*
X94166942Y-100761904D01*
X94166942Y-100761904D02*
X94071704Y-100761904D01*
X94071704Y-100761904D02*
X93976466Y-100809523D01*
X93976466Y-100809523D02*
X93928847Y-100857142D01*
X93928847Y-100857142D02*
X93881228Y-100952380D01*
X93881228Y-100952380D02*
X93833609Y-101142856D01*
X93833609Y-101142856D02*
X93785990Y-101238094D01*
X93785990Y-101238094D02*
X93738371Y-101285713D01*
X93738371Y-101285713D02*
X93643133Y-101333332D01*
X93643133Y-101333332D02*
X93547895Y-101333332D01*
X93547895Y-101333332D02*
X93452657Y-101285713D01*
X93452657Y-101285713D02*
X93405038Y-101238094D01*
X93405038Y-101238094D02*
X93357419Y-101142856D01*
X93357419Y-101142856D02*
X93357419Y-100904761D01*
X93357419Y-100904761D02*
X93405038Y-100761904D01*
X93357419Y-100428570D02*
X94357419Y-100190475D01*
X94357419Y-100190475D02*
X93643133Y-99999999D01*
X93643133Y-99999999D02*
X94357419Y-99809523D01*
X94357419Y-99809523D02*
X93357419Y-99571428D01*
X94357419Y-98666666D02*
X94357419Y-99238094D01*
X94357419Y-98952380D02*
X93357419Y-98952380D01*
X93357419Y-98952380D02*
X93500276Y-99047618D01*
X93500276Y-99047618D02*
X93595514Y-99142856D01*
X93595514Y-99142856D02*
X93643133Y-99238094D01*
D10*
X105154819Y-64216666D02*
X104678628Y-64549999D01*
X105154819Y-64788094D02*
X104154819Y-64788094D01*
X104154819Y-64788094D02*
X104154819Y-64407142D01*
X104154819Y-64407142D02*
X104202438Y-64311904D01*
X104202438Y-64311904D02*
X104250057Y-64264285D01*
X104250057Y-64264285D02*
X104345295Y-64216666D01*
X104345295Y-64216666D02*
X104488152Y-64216666D01*
X104488152Y-64216666D02*
X104583390Y-64264285D01*
X104583390Y-64264285D02*
X104631009Y-64311904D01*
X104631009Y-64311904D02*
X104678628Y-64407142D01*
X104678628Y-64407142D02*
X104678628Y-64788094D01*
X105154819Y-63264285D02*
X105154819Y-63835713D01*
X105154819Y-63549999D02*
X104154819Y-63549999D01*
X104154819Y-63549999D02*
X104297676Y-63645237D01*
X104297676Y-63645237D02*
X104392914Y-63740475D01*
X104392914Y-63740475D02*
X104440533Y-63835713D01*
X129154819Y-157761904D02*
X129154819Y-157571428D01*
X129154819Y-157571428D02*
X129202438Y-157476190D01*
X129202438Y-157476190D02*
X129297676Y-157380952D01*
X129297676Y-157380952D02*
X129488152Y-157333333D01*
X129488152Y-157333333D02*
X129821485Y-157333333D01*
X129821485Y-157333333D02*
X130011961Y-157380952D01*
X130011961Y-157380952D02*
X130107200Y-157476190D01*
X130107200Y-157476190D02*
X130154819Y-157571428D01*
X130154819Y-157571428D02*
X130154819Y-157761904D01*
X130154819Y-157761904D02*
X130107200Y-157857142D01*
X130107200Y-157857142D02*
X130011961Y-157952380D01*
X130011961Y-157952380D02*
X129821485Y-157999999D01*
X129821485Y-157999999D02*
X129488152Y-157999999D01*
X129488152Y-157999999D02*
X129297676Y-157952380D01*
X129297676Y-157952380D02*
X129202438Y-157857142D01*
X129202438Y-157857142D02*
X129154819Y-157761904D01*
X129154819Y-156904761D02*
X129964342Y-156904761D01*
X129964342Y-156904761D02*
X130059580Y-156857142D01*
X130059580Y-156857142D02*
X130107200Y-156809523D01*
X130107200Y-156809523D02*
X130154819Y-156714285D01*
X130154819Y-156714285D02*
X130154819Y-156523809D01*
X130154819Y-156523809D02*
X130107200Y-156428571D01*
X130107200Y-156428571D02*
X130059580Y-156380952D01*
X130059580Y-156380952D02*
X129964342Y-156333333D01*
X129964342Y-156333333D02*
X129154819Y-156333333D01*
X129154819Y-155999999D02*
X129154819Y-155428571D01*
X130154819Y-155714285D02*
X129154819Y-155714285D01*
X130154819Y-155095237D02*
X129154819Y-155095237D01*
X129154819Y-155095237D02*
X129154819Y-154714285D01*
X129154819Y-154714285D02*
X129202438Y-154619047D01*
X129202438Y-154619047D02*
X129250057Y-154571428D01*
X129250057Y-154571428D02*
X129345295Y-154523809D01*
X129345295Y-154523809D02*
X129488152Y-154523809D01*
X129488152Y-154523809D02*
X129583390Y-154571428D01*
X129583390Y-154571428D02*
X129631009Y-154619047D01*
X129631009Y-154619047D02*
X129678628Y-154714285D01*
X129678628Y-154714285D02*
X129678628Y-155095237D01*
X129154819Y-154095237D02*
X129964342Y-154095237D01*
X129964342Y-154095237D02*
X130059580Y-154047618D01*
X130059580Y-154047618D02*
X130107200Y-153999999D01*
X130107200Y-153999999D02*
X130154819Y-153904761D01*
X130154819Y-153904761D02*
X130154819Y-153714285D01*
X130154819Y-153714285D02*
X130107200Y-153619047D01*
X130107200Y-153619047D02*
X130059580Y-153571428D01*
X130059580Y-153571428D02*
X129964342Y-153523809D01*
X129964342Y-153523809D02*
X129154819Y-153523809D01*
X129154819Y-153190475D02*
X129154819Y-152619047D01*
X130154819Y-152904761D02*
X129154819Y-152904761D01*
X130250057Y-152523809D02*
X130250057Y-151761904D01*
X129631009Y-151190475D02*
X129678628Y-151047618D01*
X129678628Y-151047618D02*
X129726247Y-150999999D01*
X129726247Y-150999999D02*
X129821485Y-150952380D01*
X129821485Y-150952380D02*
X129964342Y-150952380D01*
X129964342Y-150952380D02*
X130059580Y-150999999D01*
X130059580Y-150999999D02*
X130107200Y-151047618D01*
X130107200Y-151047618D02*
X130154819Y-151142856D01*
X130154819Y-151142856D02*
X130154819Y-151523808D01*
X130154819Y-151523808D02*
X129154819Y-151523808D01*
X129154819Y-151523808D02*
X129154819Y-151190475D01*
X129154819Y-151190475D02*
X129202438Y-151095237D01*
X129202438Y-151095237D02*
X129250057Y-151047618D01*
X129250057Y-151047618D02*
X129345295Y-150999999D01*
X129345295Y-150999999D02*
X129440533Y-150999999D01*
X129440533Y-150999999D02*
X129535771Y-151047618D01*
X129535771Y-151047618D02*
X129583390Y-151095237D01*
X129583390Y-151095237D02*
X129631009Y-151190475D01*
X129631009Y-151190475D02*
X129631009Y-151523808D01*
X129154819Y-150619046D02*
X129154819Y-149999999D01*
X129154819Y-149999999D02*
X129535771Y-150333332D01*
X129535771Y-150333332D02*
X129535771Y-150190475D01*
X129535771Y-150190475D02*
X129583390Y-150095237D01*
X129583390Y-150095237D02*
X129631009Y-150047618D01*
X129631009Y-150047618D02*
X129726247Y-149999999D01*
X129726247Y-149999999D02*
X129964342Y-149999999D01*
X129964342Y-149999999D02*
X130059580Y-150047618D01*
X130059580Y-150047618D02*
X130107200Y-150095237D01*
X130107200Y-150095237D02*
X130154819Y-150190475D01*
X130154819Y-150190475D02*
X130154819Y-150476189D01*
X130154819Y-150476189D02*
X130107200Y-150571427D01*
X130107200Y-150571427D02*
X130059580Y-150619046D01*
X79633333Y-86254819D02*
X79300000Y-85778628D01*
X79061905Y-86254819D02*
X79061905Y-85254819D01*
X79061905Y-85254819D02*
X79442857Y-85254819D01*
X79442857Y-85254819D02*
X79538095Y-85302438D01*
X79538095Y-85302438D02*
X79585714Y-85350057D01*
X79585714Y-85350057D02*
X79633333Y-85445295D01*
X79633333Y-85445295D02*
X79633333Y-85588152D01*
X79633333Y-85588152D02*
X79585714Y-85683390D01*
X79585714Y-85683390D02*
X79538095Y-85731009D01*
X79538095Y-85731009D02*
X79442857Y-85778628D01*
X79442857Y-85778628D02*
X79061905Y-85778628D01*
X80538095Y-85254819D02*
X80061905Y-85254819D01*
X80061905Y-85254819D02*
X80014286Y-85731009D01*
X80014286Y-85731009D02*
X80061905Y-85683390D01*
X80061905Y-85683390D02*
X80157143Y-85635771D01*
X80157143Y-85635771D02*
X80395238Y-85635771D01*
X80395238Y-85635771D02*
X80490476Y-85683390D01*
X80490476Y-85683390D02*
X80538095Y-85731009D01*
X80538095Y-85731009D02*
X80585714Y-85826247D01*
X80585714Y-85826247D02*
X80585714Y-86064342D01*
X80585714Y-86064342D02*
X80538095Y-86159580D01*
X80538095Y-86159580D02*
X80490476Y-86207200D01*
X80490476Y-86207200D02*
X80395238Y-86254819D01*
X80395238Y-86254819D02*
X80157143Y-86254819D01*
X80157143Y-86254819D02*
X80061905Y-86207200D01*
X80061905Y-86207200D02*
X80014286Y-86159580D01*
X114654819Y-64692857D02*
X114178628Y-65026190D01*
X114654819Y-65264285D02*
X113654819Y-65264285D01*
X113654819Y-65264285D02*
X113654819Y-64883333D01*
X113654819Y-64883333D02*
X113702438Y-64788095D01*
X113702438Y-64788095D02*
X113750057Y-64740476D01*
X113750057Y-64740476D02*
X113845295Y-64692857D01*
X113845295Y-64692857D02*
X113988152Y-64692857D01*
X113988152Y-64692857D02*
X114083390Y-64740476D01*
X114083390Y-64740476D02*
X114131009Y-64788095D01*
X114131009Y-64788095D02*
X114178628Y-64883333D01*
X114178628Y-64883333D02*
X114178628Y-65264285D01*
X113654819Y-64359523D02*
X113654819Y-63740476D01*
X113654819Y-63740476D02*
X114035771Y-64073809D01*
X114035771Y-64073809D02*
X114035771Y-63930952D01*
X114035771Y-63930952D02*
X114083390Y-63835714D01*
X114083390Y-63835714D02*
X114131009Y-63788095D01*
X114131009Y-63788095D02*
X114226247Y-63740476D01*
X114226247Y-63740476D02*
X114464342Y-63740476D01*
X114464342Y-63740476D02*
X114559580Y-63788095D01*
X114559580Y-63788095D02*
X114607200Y-63835714D01*
X114607200Y-63835714D02*
X114654819Y-63930952D01*
X114654819Y-63930952D02*
X114654819Y-64216666D01*
X114654819Y-64216666D02*
X114607200Y-64311904D01*
X114607200Y-64311904D02*
X114559580Y-64359523D01*
X113750057Y-63359523D02*
X113702438Y-63311904D01*
X113702438Y-63311904D02*
X113654819Y-63216666D01*
X113654819Y-63216666D02*
X113654819Y-62978571D01*
X113654819Y-62978571D02*
X113702438Y-62883333D01*
X113702438Y-62883333D02*
X113750057Y-62835714D01*
X113750057Y-62835714D02*
X113845295Y-62788095D01*
X113845295Y-62788095D02*
X113940533Y-62788095D01*
X113940533Y-62788095D02*
X114083390Y-62835714D01*
X114083390Y-62835714D02*
X114654819Y-63407142D01*
X114654819Y-63407142D02*
X114654819Y-62788095D01*
X74238095Y-138224819D02*
X74238095Y-137224819D01*
X74238095Y-137701009D02*
X74809523Y-137701009D01*
X74809523Y-138224819D02*
X74809523Y-137224819D01*
X75761904Y-137224819D02*
X75285714Y-137224819D01*
X75285714Y-137224819D02*
X75238095Y-137701009D01*
X75238095Y-137701009D02*
X75285714Y-137653390D01*
X75285714Y-137653390D02*
X75380952Y-137605771D01*
X75380952Y-137605771D02*
X75619047Y-137605771D01*
X75619047Y-137605771D02*
X75714285Y-137653390D01*
X75714285Y-137653390D02*
X75761904Y-137701009D01*
X75761904Y-137701009D02*
X75809523Y-137796247D01*
X75809523Y-137796247D02*
X75809523Y-138034342D01*
X75809523Y-138034342D02*
X75761904Y-138129580D01*
X75761904Y-138129580D02*
X75714285Y-138177200D01*
X75714285Y-138177200D02*
X75619047Y-138224819D01*
X75619047Y-138224819D02*
X75380952Y-138224819D01*
X75380952Y-138224819D02*
X75285714Y-138177200D01*
X75285714Y-138177200D02*
X75238095Y-138129580D01*
X58408333Y-91459580D02*
X58360714Y-91507200D01*
X58360714Y-91507200D02*
X58217857Y-91554819D01*
X58217857Y-91554819D02*
X58122619Y-91554819D01*
X58122619Y-91554819D02*
X57979762Y-91507200D01*
X57979762Y-91507200D02*
X57884524Y-91411961D01*
X57884524Y-91411961D02*
X57836905Y-91316723D01*
X57836905Y-91316723D02*
X57789286Y-91126247D01*
X57789286Y-91126247D02*
X57789286Y-90983390D01*
X57789286Y-90983390D02*
X57836905Y-90792914D01*
X57836905Y-90792914D02*
X57884524Y-90697676D01*
X57884524Y-90697676D02*
X57979762Y-90602438D01*
X57979762Y-90602438D02*
X58122619Y-90554819D01*
X58122619Y-90554819D02*
X58217857Y-90554819D01*
X58217857Y-90554819D02*
X58360714Y-90602438D01*
X58360714Y-90602438D02*
X58408333Y-90650057D01*
X58741667Y-90554819D02*
X59360714Y-90554819D01*
X59360714Y-90554819D02*
X59027381Y-90935771D01*
X59027381Y-90935771D02*
X59170238Y-90935771D01*
X59170238Y-90935771D02*
X59265476Y-90983390D01*
X59265476Y-90983390D02*
X59313095Y-91031009D01*
X59313095Y-91031009D02*
X59360714Y-91126247D01*
X59360714Y-91126247D02*
X59360714Y-91364342D01*
X59360714Y-91364342D02*
X59313095Y-91459580D01*
X59313095Y-91459580D02*
X59265476Y-91507200D01*
X59265476Y-91507200D02*
X59170238Y-91554819D01*
X59170238Y-91554819D02*
X58884524Y-91554819D01*
X58884524Y-91554819D02*
X58789286Y-91507200D01*
X58789286Y-91507200D02*
X58741667Y-91459580D01*
X83857142Y-152259580D02*
X83809523Y-152307200D01*
X83809523Y-152307200D02*
X83666666Y-152354819D01*
X83666666Y-152354819D02*
X83571428Y-152354819D01*
X83571428Y-152354819D02*
X83428571Y-152307200D01*
X83428571Y-152307200D02*
X83333333Y-152211961D01*
X83333333Y-152211961D02*
X83285714Y-152116723D01*
X83285714Y-152116723D02*
X83238095Y-151926247D01*
X83238095Y-151926247D02*
X83238095Y-151783390D01*
X83238095Y-151783390D02*
X83285714Y-151592914D01*
X83285714Y-151592914D02*
X83333333Y-151497676D01*
X83333333Y-151497676D02*
X83428571Y-151402438D01*
X83428571Y-151402438D02*
X83571428Y-151354819D01*
X83571428Y-151354819D02*
X83666666Y-151354819D01*
X83666666Y-151354819D02*
X83809523Y-151402438D01*
X83809523Y-151402438D02*
X83857142Y-151450057D01*
X84809523Y-152354819D02*
X84238095Y-152354819D01*
X84523809Y-152354819D02*
X84523809Y-151354819D01*
X84523809Y-151354819D02*
X84428571Y-151497676D01*
X84428571Y-151497676D02*
X84333333Y-151592914D01*
X84333333Y-151592914D02*
X84238095Y-151640533D01*
X85761904Y-152354819D02*
X85190476Y-152354819D01*
X85476190Y-152354819D02*
X85476190Y-151354819D01*
X85476190Y-151354819D02*
X85380952Y-151497676D01*
X85380952Y-151497676D02*
X85285714Y-151592914D01*
X85285714Y-151592914D02*
X85190476Y-151640533D01*
X92854819Y-71914285D02*
X91854819Y-71914285D01*
X92854819Y-71438095D02*
X91854819Y-71438095D01*
X91854819Y-71438095D02*
X92854819Y-70866667D01*
X92854819Y-70866667D02*
X91854819Y-70866667D01*
X92854819Y-70390476D02*
X91854819Y-70390476D01*
X91854819Y-70390476D02*
X91854819Y-70009524D01*
X91854819Y-70009524D02*
X91902438Y-69914286D01*
X91902438Y-69914286D02*
X91950057Y-69866667D01*
X91950057Y-69866667D02*
X92045295Y-69819048D01*
X92045295Y-69819048D02*
X92188152Y-69819048D01*
X92188152Y-69819048D02*
X92283390Y-69866667D01*
X92283390Y-69866667D02*
X92331009Y-69914286D01*
X92331009Y-69914286D02*
X92378628Y-70009524D01*
X92378628Y-70009524D02*
X92378628Y-70390476D01*
X91854819Y-69390476D02*
X92664342Y-69390476D01*
X92664342Y-69390476D02*
X92759580Y-69342857D01*
X92759580Y-69342857D02*
X92807200Y-69295238D01*
X92807200Y-69295238D02*
X92854819Y-69200000D01*
X92854819Y-69200000D02*
X92854819Y-69009524D01*
X92854819Y-69009524D02*
X92807200Y-68914286D01*
X92807200Y-68914286D02*
X92759580Y-68866667D01*
X92759580Y-68866667D02*
X92664342Y-68819048D01*
X92664342Y-68819048D02*
X91854819Y-68819048D01*
X91854819Y-68485714D02*
X91854819Y-67914286D01*
X92854819Y-68200000D02*
X91854819Y-68200000D01*
X92950057Y-67819048D02*
X92950057Y-67057143D01*
X92569104Y-66866666D02*
X92569104Y-66390476D01*
X92854819Y-66961904D02*
X91854819Y-66628571D01*
X91854819Y-66628571D02*
X92854819Y-66295238D01*
X92854819Y-65438095D02*
X92854819Y-66009523D01*
X92854819Y-65723809D02*
X91854819Y-65723809D01*
X91854819Y-65723809D02*
X91997676Y-65819047D01*
X91997676Y-65819047D02*
X92092914Y-65914285D01*
X92092914Y-65914285D02*
X92140533Y-66009523D01*
X79633333Y-89354819D02*
X79300000Y-88878628D01*
X79061905Y-89354819D02*
X79061905Y-88354819D01*
X79061905Y-88354819D02*
X79442857Y-88354819D01*
X79442857Y-88354819D02*
X79538095Y-88402438D01*
X79538095Y-88402438D02*
X79585714Y-88450057D01*
X79585714Y-88450057D02*
X79633333Y-88545295D01*
X79633333Y-88545295D02*
X79633333Y-88688152D01*
X79633333Y-88688152D02*
X79585714Y-88783390D01*
X79585714Y-88783390D02*
X79538095Y-88831009D01*
X79538095Y-88831009D02*
X79442857Y-88878628D01*
X79442857Y-88878628D02*
X79061905Y-88878628D01*
X80490476Y-88688152D02*
X80490476Y-89354819D01*
X80252381Y-88307200D02*
X80014286Y-89021485D01*
X80014286Y-89021485D02*
X80633333Y-89021485D01*
X80357142Y-56454819D02*
X80023809Y-55978628D01*
X79785714Y-56454819D02*
X79785714Y-55454819D01*
X79785714Y-55454819D02*
X80166666Y-55454819D01*
X80166666Y-55454819D02*
X80261904Y-55502438D01*
X80261904Y-55502438D02*
X80309523Y-55550057D01*
X80309523Y-55550057D02*
X80357142Y-55645295D01*
X80357142Y-55645295D02*
X80357142Y-55788152D01*
X80357142Y-55788152D02*
X80309523Y-55883390D01*
X80309523Y-55883390D02*
X80261904Y-55931009D01*
X80261904Y-55931009D02*
X80166666Y-55978628D01*
X80166666Y-55978628D02*
X79785714Y-55978628D01*
X81309523Y-56454819D02*
X80738095Y-56454819D01*
X81023809Y-56454819D02*
X81023809Y-55454819D01*
X81023809Y-55454819D02*
X80928571Y-55597676D01*
X80928571Y-55597676D02*
X80833333Y-55692914D01*
X80833333Y-55692914D02*
X80738095Y-55740533D01*
X82166666Y-55454819D02*
X81976190Y-55454819D01*
X81976190Y-55454819D02*
X81880952Y-55502438D01*
X81880952Y-55502438D02*
X81833333Y-55550057D01*
X81833333Y-55550057D02*
X81738095Y-55692914D01*
X81738095Y-55692914D02*
X81690476Y-55883390D01*
X81690476Y-55883390D02*
X81690476Y-56264342D01*
X81690476Y-56264342D02*
X81738095Y-56359580D01*
X81738095Y-56359580D02*
X81785714Y-56407200D01*
X81785714Y-56407200D02*
X81880952Y-56454819D01*
X81880952Y-56454819D02*
X82071428Y-56454819D01*
X82071428Y-56454819D02*
X82166666Y-56407200D01*
X82166666Y-56407200D02*
X82214285Y-56359580D01*
X82214285Y-56359580D02*
X82261904Y-56264342D01*
X82261904Y-56264342D02*
X82261904Y-56026247D01*
X82261904Y-56026247D02*
X82214285Y-55931009D01*
X82214285Y-55931009D02*
X82166666Y-55883390D01*
X82166666Y-55883390D02*
X82071428Y-55835771D01*
X82071428Y-55835771D02*
X81880952Y-55835771D01*
X81880952Y-55835771D02*
X81785714Y-55883390D01*
X81785714Y-55883390D02*
X81738095Y-55931009D01*
X81738095Y-55931009D02*
X81690476Y-56026247D01*
X56907142Y-156254819D02*
X56573809Y-155778628D01*
X56335714Y-156254819D02*
X56335714Y-155254819D01*
X56335714Y-155254819D02*
X56716666Y-155254819D01*
X56716666Y-155254819D02*
X56811904Y-155302438D01*
X56811904Y-155302438D02*
X56859523Y-155350057D01*
X56859523Y-155350057D02*
X56907142Y-155445295D01*
X56907142Y-155445295D02*
X56907142Y-155588152D01*
X56907142Y-155588152D02*
X56859523Y-155683390D01*
X56859523Y-155683390D02*
X56811904Y-155731009D01*
X56811904Y-155731009D02*
X56716666Y-155778628D01*
X56716666Y-155778628D02*
X56335714Y-155778628D01*
X57288095Y-155350057D02*
X57335714Y-155302438D01*
X57335714Y-155302438D02*
X57430952Y-155254819D01*
X57430952Y-155254819D02*
X57669047Y-155254819D01*
X57669047Y-155254819D02*
X57764285Y-155302438D01*
X57764285Y-155302438D02*
X57811904Y-155350057D01*
X57811904Y-155350057D02*
X57859523Y-155445295D01*
X57859523Y-155445295D02*
X57859523Y-155540533D01*
X57859523Y-155540533D02*
X57811904Y-155683390D01*
X57811904Y-155683390D02*
X57240476Y-156254819D01*
X57240476Y-156254819D02*
X57859523Y-156254819D01*
X58192857Y-155254819D02*
X58811904Y-155254819D01*
X58811904Y-155254819D02*
X58478571Y-155635771D01*
X58478571Y-155635771D02*
X58621428Y-155635771D01*
X58621428Y-155635771D02*
X58716666Y-155683390D01*
X58716666Y-155683390D02*
X58764285Y-155731009D01*
X58764285Y-155731009D02*
X58811904Y-155826247D01*
X58811904Y-155826247D02*
X58811904Y-156064342D01*
X58811904Y-156064342D02*
X58764285Y-156159580D01*
X58764285Y-156159580D02*
X58716666Y-156207200D01*
X58716666Y-156207200D02*
X58621428Y-156254819D01*
X58621428Y-156254819D02*
X58335714Y-156254819D01*
X58335714Y-156254819D02*
X58240476Y-156207200D01*
X58240476Y-156207200D02*
X58192857Y-156159580D01*
X55258333Y-106059580D02*
X55210714Y-106107200D01*
X55210714Y-106107200D02*
X55067857Y-106154819D01*
X55067857Y-106154819D02*
X54972619Y-106154819D01*
X54972619Y-106154819D02*
X54829762Y-106107200D01*
X54829762Y-106107200D02*
X54734524Y-106011961D01*
X54734524Y-106011961D02*
X54686905Y-105916723D01*
X54686905Y-105916723D02*
X54639286Y-105726247D01*
X54639286Y-105726247D02*
X54639286Y-105583390D01*
X54639286Y-105583390D02*
X54686905Y-105392914D01*
X54686905Y-105392914D02*
X54734524Y-105297676D01*
X54734524Y-105297676D02*
X54829762Y-105202438D01*
X54829762Y-105202438D02*
X54972619Y-105154819D01*
X54972619Y-105154819D02*
X55067857Y-105154819D01*
X55067857Y-105154819D02*
X55210714Y-105202438D01*
X55210714Y-105202438D02*
X55258333Y-105250057D01*
X56210714Y-106154819D02*
X55639286Y-106154819D01*
X55925000Y-106154819D02*
X55925000Y-105154819D01*
X55925000Y-105154819D02*
X55829762Y-105297676D01*
X55829762Y-105297676D02*
X55734524Y-105392914D01*
X55734524Y-105392914D02*
X55639286Y-105440533D01*
X56907142Y-149854819D02*
X56573809Y-149378628D01*
X56335714Y-149854819D02*
X56335714Y-148854819D01*
X56335714Y-148854819D02*
X56716666Y-148854819D01*
X56716666Y-148854819D02*
X56811904Y-148902438D01*
X56811904Y-148902438D02*
X56859523Y-148950057D01*
X56859523Y-148950057D02*
X56907142Y-149045295D01*
X56907142Y-149045295D02*
X56907142Y-149188152D01*
X56907142Y-149188152D02*
X56859523Y-149283390D01*
X56859523Y-149283390D02*
X56811904Y-149331009D01*
X56811904Y-149331009D02*
X56716666Y-149378628D01*
X56716666Y-149378628D02*
X56335714Y-149378628D01*
X57288095Y-148950057D02*
X57335714Y-148902438D01*
X57335714Y-148902438D02*
X57430952Y-148854819D01*
X57430952Y-148854819D02*
X57669047Y-148854819D01*
X57669047Y-148854819D02*
X57764285Y-148902438D01*
X57764285Y-148902438D02*
X57811904Y-148950057D01*
X57811904Y-148950057D02*
X57859523Y-149045295D01*
X57859523Y-149045295D02*
X57859523Y-149140533D01*
X57859523Y-149140533D02*
X57811904Y-149283390D01*
X57811904Y-149283390D02*
X57240476Y-149854819D01*
X57240476Y-149854819D02*
X57859523Y-149854819D01*
X58811904Y-149854819D02*
X58240476Y-149854819D01*
X58526190Y-149854819D02*
X58526190Y-148854819D01*
X58526190Y-148854819D02*
X58430952Y-148997676D01*
X58430952Y-148997676D02*
X58335714Y-149092914D01*
X58335714Y-149092914D02*
X58240476Y-149140533D01*
X69387142Y-153054819D02*
X69053809Y-152578628D01*
X68815714Y-153054819D02*
X68815714Y-152054819D01*
X68815714Y-152054819D02*
X69196666Y-152054819D01*
X69196666Y-152054819D02*
X69291904Y-152102438D01*
X69291904Y-152102438D02*
X69339523Y-152150057D01*
X69339523Y-152150057D02*
X69387142Y-152245295D01*
X69387142Y-152245295D02*
X69387142Y-152388152D01*
X69387142Y-152388152D02*
X69339523Y-152483390D01*
X69339523Y-152483390D02*
X69291904Y-152531009D01*
X69291904Y-152531009D02*
X69196666Y-152578628D01*
X69196666Y-152578628D02*
X68815714Y-152578628D01*
X69768095Y-152150057D02*
X69815714Y-152102438D01*
X69815714Y-152102438D02*
X69910952Y-152054819D01*
X69910952Y-152054819D02*
X70149047Y-152054819D01*
X70149047Y-152054819D02*
X70244285Y-152102438D01*
X70244285Y-152102438D02*
X70291904Y-152150057D01*
X70291904Y-152150057D02*
X70339523Y-152245295D01*
X70339523Y-152245295D02*
X70339523Y-152340533D01*
X70339523Y-152340533D02*
X70291904Y-152483390D01*
X70291904Y-152483390D02*
X69720476Y-153054819D01*
X69720476Y-153054819D02*
X70339523Y-153054819D01*
X71244285Y-152054819D02*
X70768095Y-152054819D01*
X70768095Y-152054819D02*
X70720476Y-152531009D01*
X70720476Y-152531009D02*
X70768095Y-152483390D01*
X70768095Y-152483390D02*
X70863333Y-152435771D01*
X70863333Y-152435771D02*
X71101428Y-152435771D01*
X71101428Y-152435771D02*
X71196666Y-152483390D01*
X71196666Y-152483390D02*
X71244285Y-152531009D01*
X71244285Y-152531009D02*
X71291904Y-152626247D01*
X71291904Y-152626247D02*
X71291904Y-152864342D01*
X71291904Y-152864342D02*
X71244285Y-152959580D01*
X71244285Y-152959580D02*
X71196666Y-153007200D01*
X71196666Y-153007200D02*
X71101428Y-153054819D01*
X71101428Y-153054819D02*
X70863333Y-153054819D01*
X70863333Y-153054819D02*
X70768095Y-153007200D01*
X70768095Y-153007200D02*
X70720476Y-152959580D01*
X105054819Y-82516666D02*
X104578628Y-82849999D01*
X105054819Y-83088094D02*
X104054819Y-83088094D01*
X104054819Y-83088094D02*
X104054819Y-82707142D01*
X104054819Y-82707142D02*
X104102438Y-82611904D01*
X104102438Y-82611904D02*
X104150057Y-82564285D01*
X104150057Y-82564285D02*
X104245295Y-82516666D01*
X104245295Y-82516666D02*
X104388152Y-82516666D01*
X104388152Y-82516666D02*
X104483390Y-82564285D01*
X104483390Y-82564285D02*
X104531009Y-82611904D01*
X104531009Y-82611904D02*
X104578628Y-82707142D01*
X104578628Y-82707142D02*
X104578628Y-83088094D01*
X104150057Y-82135713D02*
X104102438Y-82088094D01*
X104102438Y-82088094D02*
X104054819Y-81992856D01*
X104054819Y-81992856D02*
X104054819Y-81754761D01*
X104054819Y-81754761D02*
X104102438Y-81659523D01*
X104102438Y-81659523D02*
X104150057Y-81611904D01*
X104150057Y-81611904D02*
X104245295Y-81564285D01*
X104245295Y-81564285D02*
X104340533Y-81564285D01*
X104340533Y-81564285D02*
X104483390Y-81611904D01*
X104483390Y-81611904D02*
X105054819Y-82183332D01*
X105054819Y-82183332D02*
X105054819Y-81564285D01*
D11*
X120309800Y-101333332D02*
X120357419Y-101190475D01*
X120357419Y-101190475D02*
X120357419Y-100952380D01*
X120357419Y-100952380D02*
X120309800Y-100857142D01*
X120309800Y-100857142D02*
X120262180Y-100809523D01*
X120262180Y-100809523D02*
X120166942Y-100761904D01*
X120166942Y-100761904D02*
X120071704Y-100761904D01*
X120071704Y-100761904D02*
X119976466Y-100809523D01*
X119976466Y-100809523D02*
X119928847Y-100857142D01*
X119928847Y-100857142D02*
X119881228Y-100952380D01*
X119881228Y-100952380D02*
X119833609Y-101142856D01*
X119833609Y-101142856D02*
X119785990Y-101238094D01*
X119785990Y-101238094D02*
X119738371Y-101285713D01*
X119738371Y-101285713D02*
X119643133Y-101333332D01*
X119643133Y-101333332D02*
X119547895Y-101333332D01*
X119547895Y-101333332D02*
X119452657Y-101285713D01*
X119452657Y-101285713D02*
X119405038Y-101238094D01*
X119405038Y-101238094D02*
X119357419Y-101142856D01*
X119357419Y-101142856D02*
X119357419Y-100904761D01*
X119357419Y-100904761D02*
X119405038Y-100761904D01*
X119357419Y-100428570D02*
X120357419Y-100190475D01*
X120357419Y-100190475D02*
X119643133Y-99999999D01*
X119643133Y-99999999D02*
X120357419Y-99809523D01*
X120357419Y-99809523D02*
X119357419Y-99571428D01*
X119452657Y-99238094D02*
X119405038Y-99190475D01*
X119405038Y-99190475D02*
X119357419Y-99095237D01*
X119357419Y-99095237D02*
X119357419Y-98857142D01*
X119357419Y-98857142D02*
X119405038Y-98761904D01*
X119405038Y-98761904D02*
X119452657Y-98714285D01*
X119452657Y-98714285D02*
X119547895Y-98666666D01*
X119547895Y-98666666D02*
X119643133Y-98666666D01*
X119643133Y-98666666D02*
X119785990Y-98714285D01*
X119785990Y-98714285D02*
X120357419Y-99285713D01*
X120357419Y-99285713D02*
X120357419Y-98666666D01*
D10*
X79633333Y-83054819D02*
X79300000Y-82578628D01*
X79061905Y-83054819D02*
X79061905Y-82054819D01*
X79061905Y-82054819D02*
X79442857Y-82054819D01*
X79442857Y-82054819D02*
X79538095Y-82102438D01*
X79538095Y-82102438D02*
X79585714Y-82150057D01*
X79585714Y-82150057D02*
X79633333Y-82245295D01*
X79633333Y-82245295D02*
X79633333Y-82388152D01*
X79633333Y-82388152D02*
X79585714Y-82483390D01*
X79585714Y-82483390D02*
X79538095Y-82531009D01*
X79538095Y-82531009D02*
X79442857Y-82578628D01*
X79442857Y-82578628D02*
X79061905Y-82578628D01*
X80490476Y-82054819D02*
X80300000Y-82054819D01*
X80300000Y-82054819D02*
X80204762Y-82102438D01*
X80204762Y-82102438D02*
X80157143Y-82150057D01*
X80157143Y-82150057D02*
X80061905Y-82292914D01*
X80061905Y-82292914D02*
X80014286Y-82483390D01*
X80014286Y-82483390D02*
X80014286Y-82864342D01*
X80014286Y-82864342D02*
X80061905Y-82959580D01*
X80061905Y-82959580D02*
X80109524Y-83007200D01*
X80109524Y-83007200D02*
X80204762Y-83054819D01*
X80204762Y-83054819D02*
X80395238Y-83054819D01*
X80395238Y-83054819D02*
X80490476Y-83007200D01*
X80490476Y-83007200D02*
X80538095Y-82959580D01*
X80538095Y-82959580D02*
X80585714Y-82864342D01*
X80585714Y-82864342D02*
X80585714Y-82626247D01*
X80585714Y-82626247D02*
X80538095Y-82531009D01*
X80538095Y-82531009D02*
X80490476Y-82483390D01*
X80490476Y-82483390D02*
X80395238Y-82435771D01*
X80395238Y-82435771D02*
X80204762Y-82435771D01*
X80204762Y-82435771D02*
X80109524Y-82483390D01*
X80109524Y-82483390D02*
X80061905Y-82531009D01*
X80061905Y-82531009D02*
X80014286Y-82626247D01*
X129154819Y-125761904D02*
X129154819Y-125571428D01*
X129154819Y-125571428D02*
X129202438Y-125476190D01*
X129202438Y-125476190D02*
X129297676Y-125380952D01*
X129297676Y-125380952D02*
X129488152Y-125333333D01*
X129488152Y-125333333D02*
X129821485Y-125333333D01*
X129821485Y-125333333D02*
X130011961Y-125380952D01*
X130011961Y-125380952D02*
X130107200Y-125476190D01*
X130107200Y-125476190D02*
X130154819Y-125571428D01*
X130154819Y-125571428D02*
X130154819Y-125761904D01*
X130154819Y-125761904D02*
X130107200Y-125857142D01*
X130107200Y-125857142D02*
X130011961Y-125952380D01*
X130011961Y-125952380D02*
X129821485Y-125999999D01*
X129821485Y-125999999D02*
X129488152Y-125999999D01*
X129488152Y-125999999D02*
X129297676Y-125952380D01*
X129297676Y-125952380D02*
X129202438Y-125857142D01*
X129202438Y-125857142D02*
X129154819Y-125761904D01*
X129154819Y-124904761D02*
X129964342Y-124904761D01*
X129964342Y-124904761D02*
X130059580Y-124857142D01*
X130059580Y-124857142D02*
X130107200Y-124809523D01*
X130107200Y-124809523D02*
X130154819Y-124714285D01*
X130154819Y-124714285D02*
X130154819Y-124523809D01*
X130154819Y-124523809D02*
X130107200Y-124428571D01*
X130107200Y-124428571D02*
X130059580Y-124380952D01*
X130059580Y-124380952D02*
X129964342Y-124333333D01*
X129964342Y-124333333D02*
X129154819Y-124333333D01*
X129154819Y-123999999D02*
X129154819Y-123428571D01*
X130154819Y-123714285D02*
X129154819Y-123714285D01*
X130154819Y-123095237D02*
X129154819Y-123095237D01*
X129154819Y-123095237D02*
X129154819Y-122714285D01*
X129154819Y-122714285D02*
X129202438Y-122619047D01*
X129202438Y-122619047D02*
X129250057Y-122571428D01*
X129250057Y-122571428D02*
X129345295Y-122523809D01*
X129345295Y-122523809D02*
X129488152Y-122523809D01*
X129488152Y-122523809D02*
X129583390Y-122571428D01*
X129583390Y-122571428D02*
X129631009Y-122619047D01*
X129631009Y-122619047D02*
X129678628Y-122714285D01*
X129678628Y-122714285D02*
X129678628Y-123095237D01*
X129154819Y-122095237D02*
X129964342Y-122095237D01*
X129964342Y-122095237D02*
X130059580Y-122047618D01*
X130059580Y-122047618D02*
X130107200Y-121999999D01*
X130107200Y-121999999D02*
X130154819Y-121904761D01*
X130154819Y-121904761D02*
X130154819Y-121714285D01*
X130154819Y-121714285D02*
X130107200Y-121619047D01*
X130107200Y-121619047D02*
X130059580Y-121571428D01*
X130059580Y-121571428D02*
X129964342Y-121523809D01*
X129964342Y-121523809D02*
X129154819Y-121523809D01*
X129154819Y-121190475D02*
X129154819Y-120619047D01*
X130154819Y-120904761D02*
X129154819Y-120904761D01*
X130250057Y-120523809D02*
X130250057Y-119761904D01*
X129631009Y-119190475D02*
X129678628Y-119047618D01*
X129678628Y-119047618D02*
X129726247Y-118999999D01*
X129726247Y-118999999D02*
X129821485Y-118952380D01*
X129821485Y-118952380D02*
X129964342Y-118952380D01*
X129964342Y-118952380D02*
X130059580Y-118999999D01*
X130059580Y-118999999D02*
X130107200Y-119047618D01*
X130107200Y-119047618D02*
X130154819Y-119142856D01*
X130154819Y-119142856D02*
X130154819Y-119523808D01*
X130154819Y-119523808D02*
X129154819Y-119523808D01*
X129154819Y-119523808D02*
X129154819Y-119190475D01*
X129154819Y-119190475D02*
X129202438Y-119095237D01*
X129202438Y-119095237D02*
X129250057Y-119047618D01*
X129250057Y-119047618D02*
X129345295Y-118999999D01*
X129345295Y-118999999D02*
X129440533Y-118999999D01*
X129440533Y-118999999D02*
X129535771Y-119047618D01*
X129535771Y-119047618D02*
X129583390Y-119095237D01*
X129583390Y-119095237D02*
X129631009Y-119190475D01*
X129631009Y-119190475D02*
X129631009Y-119523808D01*
X130154819Y-117999999D02*
X130154819Y-118571427D01*
X130154819Y-118285713D02*
X129154819Y-118285713D01*
X129154819Y-118285713D02*
X129297676Y-118380951D01*
X129297676Y-118380951D02*
X129392914Y-118476189D01*
X129392914Y-118476189D02*
X129440533Y-118571427D01*
X69387142Y-159454819D02*
X69053809Y-158978628D01*
X68815714Y-159454819D02*
X68815714Y-158454819D01*
X68815714Y-158454819D02*
X69196666Y-158454819D01*
X69196666Y-158454819D02*
X69291904Y-158502438D01*
X69291904Y-158502438D02*
X69339523Y-158550057D01*
X69339523Y-158550057D02*
X69387142Y-158645295D01*
X69387142Y-158645295D02*
X69387142Y-158788152D01*
X69387142Y-158788152D02*
X69339523Y-158883390D01*
X69339523Y-158883390D02*
X69291904Y-158931009D01*
X69291904Y-158931009D02*
X69196666Y-158978628D01*
X69196666Y-158978628D02*
X68815714Y-158978628D01*
X69768095Y-158550057D02*
X69815714Y-158502438D01*
X69815714Y-158502438D02*
X69910952Y-158454819D01*
X69910952Y-158454819D02*
X70149047Y-158454819D01*
X70149047Y-158454819D02*
X70244285Y-158502438D01*
X70244285Y-158502438D02*
X70291904Y-158550057D01*
X70291904Y-158550057D02*
X70339523Y-158645295D01*
X70339523Y-158645295D02*
X70339523Y-158740533D01*
X70339523Y-158740533D02*
X70291904Y-158883390D01*
X70291904Y-158883390D02*
X69720476Y-159454819D01*
X69720476Y-159454819D02*
X70339523Y-159454819D01*
X70672857Y-158454819D02*
X71339523Y-158454819D01*
X71339523Y-158454819D02*
X70910952Y-159454819D01*
X79741905Y-52454819D02*
X79741905Y-51454819D01*
X79741905Y-51454819D02*
X79980000Y-51454819D01*
X79980000Y-51454819D02*
X80122857Y-51502438D01*
X80122857Y-51502438D02*
X80218095Y-51597676D01*
X80218095Y-51597676D02*
X80265714Y-51692914D01*
X80265714Y-51692914D02*
X80313333Y-51883390D01*
X80313333Y-51883390D02*
X80313333Y-52026247D01*
X80313333Y-52026247D02*
X80265714Y-52216723D01*
X80265714Y-52216723D02*
X80218095Y-52311961D01*
X80218095Y-52311961D02*
X80122857Y-52407200D01*
X80122857Y-52407200D02*
X79980000Y-52454819D01*
X79980000Y-52454819D02*
X79741905Y-52454819D01*
X80646667Y-51454819D02*
X81265714Y-51454819D01*
X81265714Y-51454819D02*
X80932381Y-51835771D01*
X80932381Y-51835771D02*
X81075238Y-51835771D01*
X81075238Y-51835771D02*
X81170476Y-51883390D01*
X81170476Y-51883390D02*
X81218095Y-51931009D01*
X81218095Y-51931009D02*
X81265714Y-52026247D01*
X81265714Y-52026247D02*
X81265714Y-52264342D01*
X81265714Y-52264342D02*
X81218095Y-52359580D01*
X81218095Y-52359580D02*
X81170476Y-52407200D01*
X81170476Y-52407200D02*
X81075238Y-52454819D01*
X81075238Y-52454819D02*
X80789524Y-52454819D01*
X80789524Y-52454819D02*
X80694286Y-52407200D01*
X80694286Y-52407200D02*
X80646667Y-52359580D01*
X79559580Y-128166666D02*
X79607200Y-128214285D01*
X79607200Y-128214285D02*
X79654819Y-128357142D01*
X79654819Y-128357142D02*
X79654819Y-128452380D01*
X79654819Y-128452380D02*
X79607200Y-128595237D01*
X79607200Y-128595237D02*
X79511961Y-128690475D01*
X79511961Y-128690475D02*
X79416723Y-128738094D01*
X79416723Y-128738094D02*
X79226247Y-128785713D01*
X79226247Y-128785713D02*
X79083390Y-128785713D01*
X79083390Y-128785713D02*
X78892914Y-128738094D01*
X78892914Y-128738094D02*
X78797676Y-128690475D01*
X78797676Y-128690475D02*
X78702438Y-128595237D01*
X78702438Y-128595237D02*
X78654819Y-128452380D01*
X78654819Y-128452380D02*
X78654819Y-128357142D01*
X78654819Y-128357142D02*
X78702438Y-128214285D01*
X78702438Y-128214285D02*
X78750057Y-128166666D01*
X78654819Y-127261904D02*
X78654819Y-127738094D01*
X78654819Y-127738094D02*
X79131009Y-127785713D01*
X79131009Y-127785713D02*
X79083390Y-127738094D01*
X79083390Y-127738094D02*
X79035771Y-127642856D01*
X79035771Y-127642856D02*
X79035771Y-127404761D01*
X79035771Y-127404761D02*
X79083390Y-127309523D01*
X79083390Y-127309523D02*
X79131009Y-127261904D01*
X79131009Y-127261904D02*
X79226247Y-127214285D01*
X79226247Y-127214285D02*
X79464342Y-127214285D01*
X79464342Y-127214285D02*
X79559580Y-127261904D01*
X79559580Y-127261904D02*
X79607200Y-127309523D01*
X79607200Y-127309523D02*
X79654819Y-127404761D01*
X79654819Y-127404761D02*
X79654819Y-127642856D01*
X79654819Y-127642856D02*
X79607200Y-127738094D01*
X79607200Y-127738094D02*
X79559580Y-127785713D01*
X67203333Y-83054819D02*
X66870000Y-82578628D01*
X66631905Y-83054819D02*
X66631905Y-82054819D01*
X66631905Y-82054819D02*
X67012857Y-82054819D01*
X67012857Y-82054819D02*
X67108095Y-82102438D01*
X67108095Y-82102438D02*
X67155714Y-82150057D01*
X67155714Y-82150057D02*
X67203333Y-82245295D01*
X67203333Y-82245295D02*
X67203333Y-82388152D01*
X67203333Y-82388152D02*
X67155714Y-82483390D01*
X67155714Y-82483390D02*
X67108095Y-82531009D01*
X67108095Y-82531009D02*
X67012857Y-82578628D01*
X67012857Y-82578628D02*
X66631905Y-82578628D01*
X67679524Y-83054819D02*
X67870000Y-83054819D01*
X67870000Y-83054819D02*
X67965238Y-83007200D01*
X67965238Y-83007200D02*
X68012857Y-82959580D01*
X68012857Y-82959580D02*
X68108095Y-82816723D01*
X68108095Y-82816723D02*
X68155714Y-82626247D01*
X68155714Y-82626247D02*
X68155714Y-82245295D01*
X68155714Y-82245295D02*
X68108095Y-82150057D01*
X68108095Y-82150057D02*
X68060476Y-82102438D01*
X68060476Y-82102438D02*
X67965238Y-82054819D01*
X67965238Y-82054819D02*
X67774762Y-82054819D01*
X67774762Y-82054819D02*
X67679524Y-82102438D01*
X67679524Y-82102438D02*
X67631905Y-82150057D01*
X67631905Y-82150057D02*
X67584286Y-82245295D01*
X67584286Y-82245295D02*
X67584286Y-82483390D01*
X67584286Y-82483390D02*
X67631905Y-82578628D01*
X67631905Y-82578628D02*
X67679524Y-82626247D01*
X67679524Y-82626247D02*
X67774762Y-82673866D01*
X67774762Y-82673866D02*
X67965238Y-82673866D01*
X67965238Y-82673866D02*
X68060476Y-82626247D01*
X68060476Y-82626247D02*
X68108095Y-82578628D01*
X68108095Y-82578628D02*
X68155714Y-82483390D01*
X79633333Y-95554819D02*
X79300000Y-95078628D01*
X79061905Y-95554819D02*
X79061905Y-94554819D01*
X79061905Y-94554819D02*
X79442857Y-94554819D01*
X79442857Y-94554819D02*
X79538095Y-94602438D01*
X79538095Y-94602438D02*
X79585714Y-94650057D01*
X79585714Y-94650057D02*
X79633333Y-94745295D01*
X79633333Y-94745295D02*
X79633333Y-94888152D01*
X79633333Y-94888152D02*
X79585714Y-94983390D01*
X79585714Y-94983390D02*
X79538095Y-95031009D01*
X79538095Y-95031009D02*
X79442857Y-95078628D01*
X79442857Y-95078628D02*
X79061905Y-95078628D01*
X79966667Y-94554819D02*
X80585714Y-94554819D01*
X80585714Y-94554819D02*
X80252381Y-94935771D01*
X80252381Y-94935771D02*
X80395238Y-94935771D01*
X80395238Y-94935771D02*
X80490476Y-94983390D01*
X80490476Y-94983390D02*
X80538095Y-95031009D01*
X80538095Y-95031009D02*
X80585714Y-95126247D01*
X80585714Y-95126247D02*
X80585714Y-95364342D01*
X80585714Y-95364342D02*
X80538095Y-95459580D01*
X80538095Y-95459580D02*
X80490476Y-95507200D01*
X80490476Y-95507200D02*
X80395238Y-95554819D01*
X80395238Y-95554819D02*
X80109524Y-95554819D01*
X80109524Y-95554819D02*
X80014286Y-95507200D01*
X80014286Y-95507200D02*
X79966667Y-95459580D01*
X56907142Y-146654819D02*
X56573809Y-146178628D01*
X56335714Y-146654819D02*
X56335714Y-145654819D01*
X56335714Y-145654819D02*
X56716666Y-145654819D01*
X56716666Y-145654819D02*
X56811904Y-145702438D01*
X56811904Y-145702438D02*
X56859523Y-145750057D01*
X56859523Y-145750057D02*
X56907142Y-145845295D01*
X56907142Y-145845295D02*
X56907142Y-145988152D01*
X56907142Y-145988152D02*
X56859523Y-146083390D01*
X56859523Y-146083390D02*
X56811904Y-146131009D01*
X56811904Y-146131009D02*
X56716666Y-146178628D01*
X56716666Y-146178628D02*
X56335714Y-146178628D01*
X57288095Y-145750057D02*
X57335714Y-145702438D01*
X57335714Y-145702438D02*
X57430952Y-145654819D01*
X57430952Y-145654819D02*
X57669047Y-145654819D01*
X57669047Y-145654819D02*
X57764285Y-145702438D01*
X57764285Y-145702438D02*
X57811904Y-145750057D01*
X57811904Y-145750057D02*
X57859523Y-145845295D01*
X57859523Y-145845295D02*
X57859523Y-145940533D01*
X57859523Y-145940533D02*
X57811904Y-146083390D01*
X57811904Y-146083390D02*
X57240476Y-146654819D01*
X57240476Y-146654819D02*
X57859523Y-146654819D01*
X58430952Y-146083390D02*
X58335714Y-146035771D01*
X58335714Y-146035771D02*
X58288095Y-145988152D01*
X58288095Y-145988152D02*
X58240476Y-145892914D01*
X58240476Y-145892914D02*
X58240476Y-145845295D01*
X58240476Y-145845295D02*
X58288095Y-145750057D01*
X58288095Y-145750057D02*
X58335714Y-145702438D01*
X58335714Y-145702438D02*
X58430952Y-145654819D01*
X58430952Y-145654819D02*
X58621428Y-145654819D01*
X58621428Y-145654819D02*
X58716666Y-145702438D01*
X58716666Y-145702438D02*
X58764285Y-145750057D01*
X58764285Y-145750057D02*
X58811904Y-145845295D01*
X58811904Y-145845295D02*
X58811904Y-145892914D01*
X58811904Y-145892914D02*
X58764285Y-145988152D01*
X58764285Y-145988152D02*
X58716666Y-146035771D01*
X58716666Y-146035771D02*
X58621428Y-146083390D01*
X58621428Y-146083390D02*
X58430952Y-146083390D01*
X58430952Y-146083390D02*
X58335714Y-146131009D01*
X58335714Y-146131009D02*
X58288095Y-146178628D01*
X58288095Y-146178628D02*
X58240476Y-146273866D01*
X58240476Y-146273866D02*
X58240476Y-146464342D01*
X58240476Y-146464342D02*
X58288095Y-146559580D01*
X58288095Y-146559580D02*
X58335714Y-146607200D01*
X58335714Y-146607200D02*
X58430952Y-146654819D01*
X58430952Y-146654819D02*
X58621428Y-146654819D01*
X58621428Y-146654819D02*
X58716666Y-146607200D01*
X58716666Y-146607200D02*
X58764285Y-146559580D01*
X58764285Y-146559580D02*
X58811904Y-146464342D01*
X58811904Y-146464342D02*
X58811904Y-146273866D01*
X58811904Y-146273866D02*
X58764285Y-146178628D01*
X58764285Y-146178628D02*
X58716666Y-146131009D01*
X58716666Y-146131009D02*
X58621428Y-146083390D01*
X67203333Y-86154819D02*
X66870000Y-85678628D01*
X66631905Y-86154819D02*
X66631905Y-85154819D01*
X66631905Y-85154819D02*
X67012857Y-85154819D01*
X67012857Y-85154819D02*
X67108095Y-85202438D01*
X67108095Y-85202438D02*
X67155714Y-85250057D01*
X67155714Y-85250057D02*
X67203333Y-85345295D01*
X67203333Y-85345295D02*
X67203333Y-85488152D01*
X67203333Y-85488152D02*
X67155714Y-85583390D01*
X67155714Y-85583390D02*
X67108095Y-85631009D01*
X67108095Y-85631009D02*
X67012857Y-85678628D01*
X67012857Y-85678628D02*
X66631905Y-85678628D01*
X67774762Y-85583390D02*
X67679524Y-85535771D01*
X67679524Y-85535771D02*
X67631905Y-85488152D01*
X67631905Y-85488152D02*
X67584286Y-85392914D01*
X67584286Y-85392914D02*
X67584286Y-85345295D01*
X67584286Y-85345295D02*
X67631905Y-85250057D01*
X67631905Y-85250057D02*
X67679524Y-85202438D01*
X67679524Y-85202438D02*
X67774762Y-85154819D01*
X67774762Y-85154819D02*
X67965238Y-85154819D01*
X67965238Y-85154819D02*
X68060476Y-85202438D01*
X68060476Y-85202438D02*
X68108095Y-85250057D01*
X68108095Y-85250057D02*
X68155714Y-85345295D01*
X68155714Y-85345295D02*
X68155714Y-85392914D01*
X68155714Y-85392914D02*
X68108095Y-85488152D01*
X68108095Y-85488152D02*
X68060476Y-85535771D01*
X68060476Y-85535771D02*
X67965238Y-85583390D01*
X67965238Y-85583390D02*
X67774762Y-85583390D01*
X67774762Y-85583390D02*
X67679524Y-85631009D01*
X67679524Y-85631009D02*
X67631905Y-85678628D01*
X67631905Y-85678628D02*
X67584286Y-85773866D01*
X67584286Y-85773866D02*
X67584286Y-85964342D01*
X67584286Y-85964342D02*
X67631905Y-86059580D01*
X67631905Y-86059580D02*
X67679524Y-86107200D01*
X67679524Y-86107200D02*
X67774762Y-86154819D01*
X67774762Y-86154819D02*
X67965238Y-86154819D01*
X67965238Y-86154819D02*
X68060476Y-86107200D01*
X68060476Y-86107200D02*
X68108095Y-86059580D01*
X68108095Y-86059580D02*
X68155714Y-85964342D01*
X68155714Y-85964342D02*
X68155714Y-85773866D01*
X68155714Y-85773866D02*
X68108095Y-85678628D01*
X68108095Y-85678628D02*
X68060476Y-85631009D01*
X68060476Y-85631009D02*
X67965238Y-85583390D01*
X56907142Y-159454819D02*
X56573809Y-158978628D01*
X56335714Y-159454819D02*
X56335714Y-158454819D01*
X56335714Y-158454819D02*
X56716666Y-158454819D01*
X56716666Y-158454819D02*
X56811904Y-158502438D01*
X56811904Y-158502438D02*
X56859523Y-158550057D01*
X56859523Y-158550057D02*
X56907142Y-158645295D01*
X56907142Y-158645295D02*
X56907142Y-158788152D01*
X56907142Y-158788152D02*
X56859523Y-158883390D01*
X56859523Y-158883390D02*
X56811904Y-158931009D01*
X56811904Y-158931009D02*
X56716666Y-158978628D01*
X56716666Y-158978628D02*
X56335714Y-158978628D01*
X57288095Y-158550057D02*
X57335714Y-158502438D01*
X57335714Y-158502438D02*
X57430952Y-158454819D01*
X57430952Y-158454819D02*
X57669047Y-158454819D01*
X57669047Y-158454819D02*
X57764285Y-158502438D01*
X57764285Y-158502438D02*
X57811904Y-158550057D01*
X57811904Y-158550057D02*
X57859523Y-158645295D01*
X57859523Y-158645295D02*
X57859523Y-158740533D01*
X57859523Y-158740533D02*
X57811904Y-158883390D01*
X57811904Y-158883390D02*
X57240476Y-159454819D01*
X57240476Y-159454819D02*
X57859523Y-159454819D01*
X58716666Y-158788152D02*
X58716666Y-159454819D01*
X58478571Y-158407200D02*
X58240476Y-159121485D01*
X58240476Y-159121485D02*
X58859523Y-159121485D01*
X56907142Y-153054819D02*
X56573809Y-152578628D01*
X56335714Y-153054819D02*
X56335714Y-152054819D01*
X56335714Y-152054819D02*
X56716666Y-152054819D01*
X56716666Y-152054819D02*
X56811904Y-152102438D01*
X56811904Y-152102438D02*
X56859523Y-152150057D01*
X56859523Y-152150057D02*
X56907142Y-152245295D01*
X56907142Y-152245295D02*
X56907142Y-152388152D01*
X56907142Y-152388152D02*
X56859523Y-152483390D01*
X56859523Y-152483390D02*
X56811904Y-152531009D01*
X56811904Y-152531009D02*
X56716666Y-152578628D01*
X56716666Y-152578628D02*
X56335714Y-152578628D01*
X57288095Y-152150057D02*
X57335714Y-152102438D01*
X57335714Y-152102438D02*
X57430952Y-152054819D01*
X57430952Y-152054819D02*
X57669047Y-152054819D01*
X57669047Y-152054819D02*
X57764285Y-152102438D01*
X57764285Y-152102438D02*
X57811904Y-152150057D01*
X57811904Y-152150057D02*
X57859523Y-152245295D01*
X57859523Y-152245295D02*
X57859523Y-152340533D01*
X57859523Y-152340533D02*
X57811904Y-152483390D01*
X57811904Y-152483390D02*
X57240476Y-153054819D01*
X57240476Y-153054819D02*
X57859523Y-153054819D01*
X58240476Y-152150057D02*
X58288095Y-152102438D01*
X58288095Y-152102438D02*
X58383333Y-152054819D01*
X58383333Y-152054819D02*
X58621428Y-152054819D01*
X58621428Y-152054819D02*
X58716666Y-152102438D01*
X58716666Y-152102438D02*
X58764285Y-152150057D01*
X58764285Y-152150057D02*
X58811904Y-152245295D01*
X58811904Y-152245295D02*
X58811904Y-152340533D01*
X58811904Y-152340533D02*
X58764285Y-152483390D01*
X58764285Y-152483390D02*
X58192857Y-153054819D01*
X58192857Y-153054819D02*
X58811904Y-153054819D01*
X56907142Y-143454819D02*
X56573809Y-142978628D01*
X56335714Y-143454819D02*
X56335714Y-142454819D01*
X56335714Y-142454819D02*
X56716666Y-142454819D01*
X56716666Y-142454819D02*
X56811904Y-142502438D01*
X56811904Y-142502438D02*
X56859523Y-142550057D01*
X56859523Y-142550057D02*
X56907142Y-142645295D01*
X56907142Y-142645295D02*
X56907142Y-142788152D01*
X56907142Y-142788152D02*
X56859523Y-142883390D01*
X56859523Y-142883390D02*
X56811904Y-142931009D01*
X56811904Y-142931009D02*
X56716666Y-142978628D01*
X56716666Y-142978628D02*
X56335714Y-142978628D01*
X57288095Y-142550057D02*
X57335714Y-142502438D01*
X57335714Y-142502438D02*
X57430952Y-142454819D01*
X57430952Y-142454819D02*
X57669047Y-142454819D01*
X57669047Y-142454819D02*
X57764285Y-142502438D01*
X57764285Y-142502438D02*
X57811904Y-142550057D01*
X57811904Y-142550057D02*
X57859523Y-142645295D01*
X57859523Y-142645295D02*
X57859523Y-142740533D01*
X57859523Y-142740533D02*
X57811904Y-142883390D01*
X57811904Y-142883390D02*
X57240476Y-143454819D01*
X57240476Y-143454819D02*
X57859523Y-143454819D01*
X58478571Y-142454819D02*
X58573809Y-142454819D01*
X58573809Y-142454819D02*
X58669047Y-142502438D01*
X58669047Y-142502438D02*
X58716666Y-142550057D01*
X58716666Y-142550057D02*
X58764285Y-142645295D01*
X58764285Y-142645295D02*
X58811904Y-142835771D01*
X58811904Y-142835771D02*
X58811904Y-143073866D01*
X58811904Y-143073866D02*
X58764285Y-143264342D01*
X58764285Y-143264342D02*
X58716666Y-143359580D01*
X58716666Y-143359580D02*
X58669047Y-143407200D01*
X58669047Y-143407200D02*
X58573809Y-143454819D01*
X58573809Y-143454819D02*
X58478571Y-143454819D01*
X58478571Y-143454819D02*
X58383333Y-143407200D01*
X58383333Y-143407200D02*
X58335714Y-143359580D01*
X58335714Y-143359580D02*
X58288095Y-143264342D01*
X58288095Y-143264342D02*
X58240476Y-143073866D01*
X58240476Y-143073866D02*
X58240476Y-142835771D01*
X58240476Y-142835771D02*
X58288095Y-142645295D01*
X58288095Y-142645295D02*
X58335714Y-142550057D01*
X58335714Y-142550057D02*
X58383333Y-142502438D01*
X58383333Y-142502438D02*
X58478571Y-142454819D01*
X117454819Y-82992857D02*
X116978628Y-83326190D01*
X117454819Y-83564285D02*
X116454819Y-83564285D01*
X116454819Y-83564285D02*
X116454819Y-83183333D01*
X116454819Y-83183333D02*
X116502438Y-83088095D01*
X116502438Y-83088095D02*
X116550057Y-83040476D01*
X116550057Y-83040476D02*
X116645295Y-82992857D01*
X116645295Y-82992857D02*
X116788152Y-82992857D01*
X116788152Y-82992857D02*
X116883390Y-83040476D01*
X116883390Y-83040476D02*
X116931009Y-83088095D01*
X116931009Y-83088095D02*
X116978628Y-83183333D01*
X116978628Y-83183333D02*
X116978628Y-83564285D01*
X117454819Y-82040476D02*
X117454819Y-82611904D01*
X117454819Y-82326190D02*
X116454819Y-82326190D01*
X116454819Y-82326190D02*
X116597676Y-82421428D01*
X116597676Y-82421428D02*
X116692914Y-82516666D01*
X116692914Y-82516666D02*
X116740533Y-82611904D01*
X117454819Y-81564285D02*
X117454819Y-81373809D01*
X117454819Y-81373809D02*
X117407200Y-81278571D01*
X117407200Y-81278571D02*
X117359580Y-81230952D01*
X117359580Y-81230952D02*
X117216723Y-81135714D01*
X117216723Y-81135714D02*
X117026247Y-81088095D01*
X117026247Y-81088095D02*
X116645295Y-81088095D01*
X116645295Y-81088095D02*
X116550057Y-81135714D01*
X116550057Y-81135714D02*
X116502438Y-81183333D01*
X116502438Y-81183333D02*
X116454819Y-81278571D01*
X116454819Y-81278571D02*
X116454819Y-81469047D01*
X116454819Y-81469047D02*
X116502438Y-81564285D01*
X116502438Y-81564285D02*
X116550057Y-81611904D01*
X116550057Y-81611904D02*
X116645295Y-81659523D01*
X116645295Y-81659523D02*
X116883390Y-81659523D01*
X116883390Y-81659523D02*
X116978628Y-81611904D01*
X116978628Y-81611904D02*
X117026247Y-81564285D01*
X117026247Y-81564285D02*
X117073866Y-81469047D01*
X117073866Y-81469047D02*
X117073866Y-81278571D01*
X117073866Y-81278571D02*
X117026247Y-81183333D01*
X117026247Y-81183333D02*
X116978628Y-81135714D01*
X116978628Y-81135714D02*
X116883390Y-81088095D01*
X108254819Y-64692857D02*
X107778628Y-65026190D01*
X108254819Y-65264285D02*
X107254819Y-65264285D01*
X107254819Y-65264285D02*
X107254819Y-64883333D01*
X107254819Y-64883333D02*
X107302438Y-64788095D01*
X107302438Y-64788095D02*
X107350057Y-64740476D01*
X107350057Y-64740476D02*
X107445295Y-64692857D01*
X107445295Y-64692857D02*
X107588152Y-64692857D01*
X107588152Y-64692857D02*
X107683390Y-64740476D01*
X107683390Y-64740476D02*
X107731009Y-64788095D01*
X107731009Y-64788095D02*
X107778628Y-64883333D01*
X107778628Y-64883333D02*
X107778628Y-65264285D01*
X108254819Y-63740476D02*
X108254819Y-64311904D01*
X108254819Y-64026190D02*
X107254819Y-64026190D01*
X107254819Y-64026190D02*
X107397676Y-64121428D01*
X107397676Y-64121428D02*
X107492914Y-64216666D01*
X107492914Y-64216666D02*
X107540533Y-64311904D01*
X107254819Y-62835714D02*
X107254819Y-63311904D01*
X107254819Y-63311904D02*
X107731009Y-63359523D01*
X107731009Y-63359523D02*
X107683390Y-63311904D01*
X107683390Y-63311904D02*
X107635771Y-63216666D01*
X107635771Y-63216666D02*
X107635771Y-62978571D01*
X107635771Y-62978571D02*
X107683390Y-62883333D01*
X107683390Y-62883333D02*
X107731009Y-62835714D01*
X107731009Y-62835714D02*
X107826247Y-62788095D01*
X107826247Y-62788095D02*
X108064342Y-62788095D01*
X108064342Y-62788095D02*
X108159580Y-62835714D01*
X108159580Y-62835714D02*
X108207200Y-62883333D01*
X108207200Y-62883333D02*
X108254819Y-62978571D01*
X108254819Y-62978571D02*
X108254819Y-63216666D01*
X108254819Y-63216666D02*
X108207200Y-63311904D01*
X108207200Y-63311904D02*
X108159580Y-63359523D01*
X50324819Y-99251904D02*
X51134342Y-99251904D01*
X51134342Y-99251904D02*
X51229580Y-99204285D01*
X51229580Y-99204285D02*
X51277200Y-99156666D01*
X51277200Y-99156666D02*
X51324819Y-99061428D01*
X51324819Y-99061428D02*
X51324819Y-98870952D01*
X51324819Y-98870952D02*
X51277200Y-98775714D01*
X51277200Y-98775714D02*
X51229580Y-98728095D01*
X51229580Y-98728095D02*
X51134342Y-98680476D01*
X51134342Y-98680476D02*
X50324819Y-98680476D01*
X51324819Y-97680476D02*
X51324819Y-98251904D01*
X51324819Y-97966190D02*
X50324819Y-97966190D01*
X50324819Y-97966190D02*
X50467676Y-98061428D01*
X50467676Y-98061428D02*
X50562914Y-98156666D01*
X50562914Y-98156666D02*
X50610533Y-98251904D01*
X66727142Y-79954819D02*
X66393809Y-79478628D01*
X66155714Y-79954819D02*
X66155714Y-78954819D01*
X66155714Y-78954819D02*
X66536666Y-78954819D01*
X66536666Y-78954819D02*
X66631904Y-79002438D01*
X66631904Y-79002438D02*
X66679523Y-79050057D01*
X66679523Y-79050057D02*
X66727142Y-79145295D01*
X66727142Y-79145295D02*
X66727142Y-79288152D01*
X66727142Y-79288152D02*
X66679523Y-79383390D01*
X66679523Y-79383390D02*
X66631904Y-79431009D01*
X66631904Y-79431009D02*
X66536666Y-79478628D01*
X66536666Y-79478628D02*
X66155714Y-79478628D01*
X67679523Y-79954819D02*
X67108095Y-79954819D01*
X67393809Y-79954819D02*
X67393809Y-78954819D01*
X67393809Y-78954819D02*
X67298571Y-79097676D01*
X67298571Y-79097676D02*
X67203333Y-79192914D01*
X67203333Y-79192914D02*
X67108095Y-79240533D01*
X68298571Y-78954819D02*
X68393809Y-78954819D01*
X68393809Y-78954819D02*
X68489047Y-79002438D01*
X68489047Y-79002438D02*
X68536666Y-79050057D01*
X68536666Y-79050057D02*
X68584285Y-79145295D01*
X68584285Y-79145295D02*
X68631904Y-79335771D01*
X68631904Y-79335771D02*
X68631904Y-79573866D01*
X68631904Y-79573866D02*
X68584285Y-79764342D01*
X68584285Y-79764342D02*
X68536666Y-79859580D01*
X68536666Y-79859580D02*
X68489047Y-79907200D01*
X68489047Y-79907200D02*
X68393809Y-79954819D01*
X68393809Y-79954819D02*
X68298571Y-79954819D01*
X68298571Y-79954819D02*
X68203333Y-79907200D01*
X68203333Y-79907200D02*
X68155714Y-79859580D01*
X68155714Y-79859580D02*
X68108095Y-79764342D01*
X68108095Y-79764342D02*
X68060476Y-79573866D01*
X68060476Y-79573866D02*
X68060476Y-79335771D01*
X68060476Y-79335771D02*
X68108095Y-79145295D01*
X68108095Y-79145295D02*
X68155714Y-79050057D01*
X68155714Y-79050057D02*
X68203333Y-79002438D01*
X68203333Y-79002438D02*
X68298571Y-78954819D01*
X91854819Y-141690476D02*
X91854819Y-141500000D01*
X91854819Y-141500000D02*
X91902438Y-141404762D01*
X91902438Y-141404762D02*
X91997676Y-141309524D01*
X91997676Y-141309524D02*
X92188152Y-141261905D01*
X92188152Y-141261905D02*
X92521485Y-141261905D01*
X92521485Y-141261905D02*
X92711961Y-141309524D01*
X92711961Y-141309524D02*
X92807200Y-141404762D01*
X92807200Y-141404762D02*
X92854819Y-141500000D01*
X92854819Y-141500000D02*
X92854819Y-141690476D01*
X92854819Y-141690476D02*
X92807200Y-141785714D01*
X92807200Y-141785714D02*
X92711961Y-141880952D01*
X92711961Y-141880952D02*
X92521485Y-141928571D01*
X92521485Y-141928571D02*
X92188152Y-141928571D01*
X92188152Y-141928571D02*
X91997676Y-141880952D01*
X91997676Y-141880952D02*
X91902438Y-141785714D01*
X91902438Y-141785714D02*
X91854819Y-141690476D01*
X91854819Y-140833333D02*
X92664342Y-140833333D01*
X92664342Y-140833333D02*
X92759580Y-140785714D01*
X92759580Y-140785714D02*
X92807200Y-140738095D01*
X92807200Y-140738095D02*
X92854819Y-140642857D01*
X92854819Y-140642857D02*
X92854819Y-140452381D01*
X92854819Y-140452381D02*
X92807200Y-140357143D01*
X92807200Y-140357143D02*
X92759580Y-140309524D01*
X92759580Y-140309524D02*
X92664342Y-140261905D01*
X92664342Y-140261905D02*
X91854819Y-140261905D01*
X91854819Y-139928571D02*
X91854819Y-139357143D01*
X92854819Y-139642857D02*
X91854819Y-139642857D01*
X92854819Y-139023809D02*
X91854819Y-139023809D01*
X91854819Y-139023809D02*
X91854819Y-138642857D01*
X91854819Y-138642857D02*
X91902438Y-138547619D01*
X91902438Y-138547619D02*
X91950057Y-138500000D01*
X91950057Y-138500000D02*
X92045295Y-138452381D01*
X92045295Y-138452381D02*
X92188152Y-138452381D01*
X92188152Y-138452381D02*
X92283390Y-138500000D01*
X92283390Y-138500000D02*
X92331009Y-138547619D01*
X92331009Y-138547619D02*
X92378628Y-138642857D01*
X92378628Y-138642857D02*
X92378628Y-139023809D01*
X91854819Y-138023809D02*
X92664342Y-138023809D01*
X92664342Y-138023809D02*
X92759580Y-137976190D01*
X92759580Y-137976190D02*
X92807200Y-137928571D01*
X92807200Y-137928571D02*
X92854819Y-137833333D01*
X92854819Y-137833333D02*
X92854819Y-137642857D01*
X92854819Y-137642857D02*
X92807200Y-137547619D01*
X92807200Y-137547619D02*
X92759580Y-137500000D01*
X92759580Y-137500000D02*
X92664342Y-137452381D01*
X92664342Y-137452381D02*
X91854819Y-137452381D01*
X91854819Y-137119047D02*
X91854819Y-136547619D01*
X92854819Y-136833333D02*
X91854819Y-136833333D01*
X92950057Y-136452381D02*
X92950057Y-135690476D01*
X92569104Y-135499999D02*
X92569104Y-135023809D01*
X92854819Y-135595237D02*
X91854819Y-135261904D01*
X91854819Y-135261904D02*
X92854819Y-134928571D01*
X91950057Y-134642856D02*
X91902438Y-134595237D01*
X91902438Y-134595237D02*
X91854819Y-134499999D01*
X91854819Y-134499999D02*
X91854819Y-134261904D01*
X91854819Y-134261904D02*
X91902438Y-134166666D01*
X91902438Y-134166666D02*
X91950057Y-134119047D01*
X91950057Y-134119047D02*
X92045295Y-134071428D01*
X92045295Y-134071428D02*
X92140533Y-134071428D01*
X92140533Y-134071428D02*
X92283390Y-134119047D01*
X92283390Y-134119047D02*
X92854819Y-134690475D01*
X92854819Y-134690475D02*
X92854819Y-134071428D01*
X71429580Y-136212857D02*
X71477200Y-136260476D01*
X71477200Y-136260476D02*
X71524819Y-136403333D01*
X71524819Y-136403333D02*
X71524819Y-136498571D01*
X71524819Y-136498571D02*
X71477200Y-136641428D01*
X71477200Y-136641428D02*
X71381961Y-136736666D01*
X71381961Y-136736666D02*
X71286723Y-136784285D01*
X71286723Y-136784285D02*
X71096247Y-136831904D01*
X71096247Y-136831904D02*
X70953390Y-136831904D01*
X70953390Y-136831904D02*
X70762914Y-136784285D01*
X70762914Y-136784285D02*
X70667676Y-136736666D01*
X70667676Y-136736666D02*
X70572438Y-136641428D01*
X70572438Y-136641428D02*
X70524819Y-136498571D01*
X70524819Y-136498571D02*
X70524819Y-136403333D01*
X70524819Y-136403333D02*
X70572438Y-136260476D01*
X70572438Y-136260476D02*
X70620057Y-136212857D01*
X71524819Y-135260476D02*
X71524819Y-135831904D01*
X71524819Y-135546190D02*
X70524819Y-135546190D01*
X70524819Y-135546190D02*
X70667676Y-135641428D01*
X70667676Y-135641428D02*
X70762914Y-135736666D01*
X70762914Y-135736666D02*
X70810533Y-135831904D01*
X70620057Y-134879523D02*
X70572438Y-134831904D01*
X70572438Y-134831904D02*
X70524819Y-134736666D01*
X70524819Y-134736666D02*
X70524819Y-134498571D01*
X70524819Y-134498571D02*
X70572438Y-134403333D01*
X70572438Y-134403333D02*
X70620057Y-134355714D01*
X70620057Y-134355714D02*
X70715295Y-134308095D01*
X70715295Y-134308095D02*
X70810533Y-134308095D01*
X70810533Y-134308095D02*
X70953390Y-134355714D01*
X70953390Y-134355714D02*
X71524819Y-134927142D01*
X71524819Y-134927142D02*
X71524819Y-134308095D01*
X130154819Y-71885713D02*
X129154819Y-71885713D01*
X130154819Y-71409523D02*
X129154819Y-71409523D01*
X129154819Y-71409523D02*
X130154819Y-70838095D01*
X130154819Y-70838095D02*
X129154819Y-70838095D01*
X130154819Y-70361904D02*
X129154819Y-70361904D01*
X129154819Y-70361904D02*
X129154819Y-69980952D01*
X129154819Y-69980952D02*
X129202438Y-69885714D01*
X129202438Y-69885714D02*
X129250057Y-69838095D01*
X129250057Y-69838095D02*
X129345295Y-69790476D01*
X129345295Y-69790476D02*
X129488152Y-69790476D01*
X129488152Y-69790476D02*
X129583390Y-69838095D01*
X129583390Y-69838095D02*
X129631009Y-69885714D01*
X129631009Y-69885714D02*
X129678628Y-69980952D01*
X129678628Y-69980952D02*
X129678628Y-70361904D01*
X129154819Y-69361904D02*
X129964342Y-69361904D01*
X129964342Y-69361904D02*
X130059580Y-69314285D01*
X130059580Y-69314285D02*
X130107200Y-69266666D01*
X130107200Y-69266666D02*
X130154819Y-69171428D01*
X130154819Y-69171428D02*
X130154819Y-68980952D01*
X130154819Y-68980952D02*
X130107200Y-68885714D01*
X130107200Y-68885714D02*
X130059580Y-68838095D01*
X130059580Y-68838095D02*
X129964342Y-68790476D01*
X129964342Y-68790476D02*
X129154819Y-68790476D01*
X129154819Y-68457142D02*
X129154819Y-67885714D01*
X130154819Y-68171428D02*
X129154819Y-68171428D01*
X130250057Y-67790476D02*
X130250057Y-67028571D01*
X129631009Y-66457142D02*
X129678628Y-66314285D01*
X129678628Y-66314285D02*
X129726247Y-66266666D01*
X129726247Y-66266666D02*
X129821485Y-66219047D01*
X129821485Y-66219047D02*
X129964342Y-66219047D01*
X129964342Y-66219047D02*
X130059580Y-66266666D01*
X130059580Y-66266666D02*
X130107200Y-66314285D01*
X130107200Y-66314285D02*
X130154819Y-66409523D01*
X130154819Y-66409523D02*
X130154819Y-66790475D01*
X130154819Y-66790475D02*
X129154819Y-66790475D01*
X129154819Y-66790475D02*
X129154819Y-66457142D01*
X129154819Y-66457142D02*
X129202438Y-66361904D01*
X129202438Y-66361904D02*
X129250057Y-66314285D01*
X129250057Y-66314285D02*
X129345295Y-66266666D01*
X129345295Y-66266666D02*
X129440533Y-66266666D01*
X129440533Y-66266666D02*
X129535771Y-66314285D01*
X129535771Y-66314285D02*
X129583390Y-66361904D01*
X129583390Y-66361904D02*
X129631009Y-66457142D01*
X129631009Y-66457142D02*
X129631009Y-66790475D01*
X130154819Y-65266666D02*
X130154819Y-65838094D01*
X130154819Y-65552380D02*
X129154819Y-65552380D01*
X129154819Y-65552380D02*
X129297676Y-65647618D01*
X129297676Y-65647618D02*
X129392914Y-65742856D01*
X129392914Y-65742856D02*
X129440533Y-65838094D01*
X82138095Y-147554819D02*
X82138095Y-148364342D01*
X82138095Y-148364342D02*
X82185714Y-148459580D01*
X82185714Y-148459580D02*
X82233333Y-148507200D01*
X82233333Y-148507200D02*
X82328571Y-148554819D01*
X82328571Y-148554819D02*
X82519047Y-148554819D01*
X82519047Y-148554819D02*
X82614285Y-148507200D01*
X82614285Y-148507200D02*
X82661904Y-148459580D01*
X82661904Y-148459580D02*
X82709523Y-148364342D01*
X82709523Y-148364342D02*
X82709523Y-147554819D01*
X83138095Y-147650057D02*
X83185714Y-147602438D01*
X83185714Y-147602438D02*
X83280952Y-147554819D01*
X83280952Y-147554819D02*
X83519047Y-147554819D01*
X83519047Y-147554819D02*
X83614285Y-147602438D01*
X83614285Y-147602438D02*
X83661904Y-147650057D01*
X83661904Y-147650057D02*
X83709523Y-147745295D01*
X83709523Y-147745295D02*
X83709523Y-147840533D01*
X83709523Y-147840533D02*
X83661904Y-147983390D01*
X83661904Y-147983390D02*
X83090476Y-148554819D01*
X83090476Y-148554819D02*
X83709523Y-148554819D01*
X80701905Y-63554819D02*
X80701905Y-62554819D01*
X80701905Y-62554819D02*
X80940000Y-62554819D01*
X80940000Y-62554819D02*
X81082857Y-62602438D01*
X81082857Y-62602438D02*
X81178095Y-62697676D01*
X81178095Y-62697676D02*
X81225714Y-62792914D01*
X81225714Y-62792914D02*
X81273333Y-62983390D01*
X81273333Y-62983390D02*
X81273333Y-63126247D01*
X81273333Y-63126247D02*
X81225714Y-63316723D01*
X81225714Y-63316723D02*
X81178095Y-63411961D01*
X81178095Y-63411961D02*
X81082857Y-63507200D01*
X81082857Y-63507200D02*
X80940000Y-63554819D01*
X80940000Y-63554819D02*
X80701905Y-63554819D01*
X82130476Y-62888152D02*
X82130476Y-63554819D01*
X81892381Y-62507200D02*
X81654286Y-63221485D01*
X81654286Y-63221485D02*
X82273333Y-63221485D01*
X68624819Y-138208094D02*
X67624819Y-138208094D01*
X67624819Y-138208094D02*
X67624819Y-137969999D01*
X67624819Y-137969999D02*
X67672438Y-137827142D01*
X67672438Y-137827142D02*
X67767676Y-137731904D01*
X67767676Y-137731904D02*
X67862914Y-137684285D01*
X67862914Y-137684285D02*
X68053390Y-137636666D01*
X68053390Y-137636666D02*
X68196247Y-137636666D01*
X68196247Y-137636666D02*
X68386723Y-137684285D01*
X68386723Y-137684285D02*
X68481961Y-137731904D01*
X68481961Y-137731904D02*
X68577200Y-137827142D01*
X68577200Y-137827142D02*
X68624819Y-137969999D01*
X68624819Y-137969999D02*
X68624819Y-138208094D01*
X67624819Y-136731904D02*
X67624819Y-137208094D01*
X67624819Y-137208094D02*
X68101009Y-137255713D01*
X68101009Y-137255713D02*
X68053390Y-137208094D01*
X68053390Y-137208094D02*
X68005771Y-137112856D01*
X68005771Y-137112856D02*
X68005771Y-136874761D01*
X68005771Y-136874761D02*
X68053390Y-136779523D01*
X68053390Y-136779523D02*
X68101009Y-136731904D01*
X68101009Y-136731904D02*
X68196247Y-136684285D01*
X68196247Y-136684285D02*
X68434342Y-136684285D01*
X68434342Y-136684285D02*
X68529580Y-136731904D01*
X68529580Y-136731904D02*
X68577200Y-136779523D01*
X68577200Y-136779523D02*
X68624819Y-136874761D01*
X68624819Y-136874761D02*
X68624819Y-137112856D01*
X68624819Y-137112856D02*
X68577200Y-137208094D01*
X68577200Y-137208094D02*
X68529580Y-137255713D01*
X91854819Y-125690476D02*
X91854819Y-125500000D01*
X91854819Y-125500000D02*
X91902438Y-125404762D01*
X91902438Y-125404762D02*
X91997676Y-125309524D01*
X91997676Y-125309524D02*
X92188152Y-125261905D01*
X92188152Y-125261905D02*
X92521485Y-125261905D01*
X92521485Y-125261905D02*
X92711961Y-125309524D01*
X92711961Y-125309524D02*
X92807200Y-125404762D01*
X92807200Y-125404762D02*
X92854819Y-125500000D01*
X92854819Y-125500000D02*
X92854819Y-125690476D01*
X92854819Y-125690476D02*
X92807200Y-125785714D01*
X92807200Y-125785714D02*
X92711961Y-125880952D01*
X92711961Y-125880952D02*
X92521485Y-125928571D01*
X92521485Y-125928571D02*
X92188152Y-125928571D01*
X92188152Y-125928571D02*
X91997676Y-125880952D01*
X91997676Y-125880952D02*
X91902438Y-125785714D01*
X91902438Y-125785714D02*
X91854819Y-125690476D01*
X91854819Y-124833333D02*
X92664342Y-124833333D01*
X92664342Y-124833333D02*
X92759580Y-124785714D01*
X92759580Y-124785714D02*
X92807200Y-124738095D01*
X92807200Y-124738095D02*
X92854819Y-124642857D01*
X92854819Y-124642857D02*
X92854819Y-124452381D01*
X92854819Y-124452381D02*
X92807200Y-124357143D01*
X92807200Y-124357143D02*
X92759580Y-124309524D01*
X92759580Y-124309524D02*
X92664342Y-124261905D01*
X92664342Y-124261905D02*
X91854819Y-124261905D01*
X91854819Y-123928571D02*
X91854819Y-123357143D01*
X92854819Y-123642857D02*
X91854819Y-123642857D01*
X92854819Y-123023809D02*
X91854819Y-123023809D01*
X91854819Y-123023809D02*
X91854819Y-122642857D01*
X91854819Y-122642857D02*
X91902438Y-122547619D01*
X91902438Y-122547619D02*
X91950057Y-122500000D01*
X91950057Y-122500000D02*
X92045295Y-122452381D01*
X92045295Y-122452381D02*
X92188152Y-122452381D01*
X92188152Y-122452381D02*
X92283390Y-122500000D01*
X92283390Y-122500000D02*
X92331009Y-122547619D01*
X92331009Y-122547619D02*
X92378628Y-122642857D01*
X92378628Y-122642857D02*
X92378628Y-123023809D01*
X91854819Y-122023809D02*
X92664342Y-122023809D01*
X92664342Y-122023809D02*
X92759580Y-121976190D01*
X92759580Y-121976190D02*
X92807200Y-121928571D01*
X92807200Y-121928571D02*
X92854819Y-121833333D01*
X92854819Y-121833333D02*
X92854819Y-121642857D01*
X92854819Y-121642857D02*
X92807200Y-121547619D01*
X92807200Y-121547619D02*
X92759580Y-121500000D01*
X92759580Y-121500000D02*
X92664342Y-121452381D01*
X92664342Y-121452381D02*
X91854819Y-121452381D01*
X91854819Y-121119047D02*
X91854819Y-120547619D01*
X92854819Y-120833333D02*
X91854819Y-120833333D01*
X92950057Y-120452381D02*
X92950057Y-119690476D01*
X92569104Y-119499999D02*
X92569104Y-119023809D01*
X92854819Y-119595237D02*
X91854819Y-119261904D01*
X91854819Y-119261904D02*
X92854819Y-118928571D01*
X92854819Y-118071428D02*
X92854819Y-118642856D01*
X92854819Y-118357142D02*
X91854819Y-118357142D01*
X91854819Y-118357142D02*
X91997676Y-118452380D01*
X91997676Y-118452380D02*
X92092914Y-118547618D01*
X92092914Y-118547618D02*
X92140533Y-118642856D01*
X129054819Y-141761904D02*
X129054819Y-141571428D01*
X129054819Y-141571428D02*
X129102438Y-141476190D01*
X129102438Y-141476190D02*
X129197676Y-141380952D01*
X129197676Y-141380952D02*
X129388152Y-141333333D01*
X129388152Y-141333333D02*
X129721485Y-141333333D01*
X129721485Y-141333333D02*
X129911961Y-141380952D01*
X129911961Y-141380952D02*
X130007200Y-141476190D01*
X130007200Y-141476190D02*
X130054819Y-141571428D01*
X130054819Y-141571428D02*
X130054819Y-141761904D01*
X130054819Y-141761904D02*
X130007200Y-141857142D01*
X130007200Y-141857142D02*
X129911961Y-141952380D01*
X129911961Y-141952380D02*
X129721485Y-141999999D01*
X129721485Y-141999999D02*
X129388152Y-141999999D01*
X129388152Y-141999999D02*
X129197676Y-141952380D01*
X129197676Y-141952380D02*
X129102438Y-141857142D01*
X129102438Y-141857142D02*
X129054819Y-141761904D01*
X129054819Y-140904761D02*
X129864342Y-140904761D01*
X129864342Y-140904761D02*
X129959580Y-140857142D01*
X129959580Y-140857142D02*
X130007200Y-140809523D01*
X130007200Y-140809523D02*
X130054819Y-140714285D01*
X130054819Y-140714285D02*
X130054819Y-140523809D01*
X130054819Y-140523809D02*
X130007200Y-140428571D01*
X130007200Y-140428571D02*
X129959580Y-140380952D01*
X129959580Y-140380952D02*
X129864342Y-140333333D01*
X129864342Y-140333333D02*
X129054819Y-140333333D01*
X129054819Y-139999999D02*
X129054819Y-139428571D01*
X130054819Y-139714285D02*
X129054819Y-139714285D01*
X130054819Y-139095237D02*
X129054819Y-139095237D01*
X129054819Y-139095237D02*
X129054819Y-138714285D01*
X129054819Y-138714285D02*
X129102438Y-138619047D01*
X129102438Y-138619047D02*
X129150057Y-138571428D01*
X129150057Y-138571428D02*
X129245295Y-138523809D01*
X129245295Y-138523809D02*
X129388152Y-138523809D01*
X129388152Y-138523809D02*
X129483390Y-138571428D01*
X129483390Y-138571428D02*
X129531009Y-138619047D01*
X129531009Y-138619047D02*
X129578628Y-138714285D01*
X129578628Y-138714285D02*
X129578628Y-139095237D01*
X129054819Y-138095237D02*
X129864342Y-138095237D01*
X129864342Y-138095237D02*
X129959580Y-138047618D01*
X129959580Y-138047618D02*
X130007200Y-137999999D01*
X130007200Y-137999999D02*
X130054819Y-137904761D01*
X130054819Y-137904761D02*
X130054819Y-137714285D01*
X130054819Y-137714285D02*
X130007200Y-137619047D01*
X130007200Y-137619047D02*
X129959580Y-137571428D01*
X129959580Y-137571428D02*
X129864342Y-137523809D01*
X129864342Y-137523809D02*
X129054819Y-137523809D01*
X129054819Y-137190475D02*
X129054819Y-136619047D01*
X130054819Y-136904761D02*
X129054819Y-136904761D01*
X130150057Y-136523809D02*
X130150057Y-135761904D01*
X129531009Y-135190475D02*
X129578628Y-135047618D01*
X129578628Y-135047618D02*
X129626247Y-134999999D01*
X129626247Y-134999999D02*
X129721485Y-134952380D01*
X129721485Y-134952380D02*
X129864342Y-134952380D01*
X129864342Y-134952380D02*
X129959580Y-134999999D01*
X129959580Y-134999999D02*
X130007200Y-135047618D01*
X130007200Y-135047618D02*
X130054819Y-135142856D01*
X130054819Y-135142856D02*
X130054819Y-135523808D01*
X130054819Y-135523808D02*
X129054819Y-135523808D01*
X129054819Y-135523808D02*
X129054819Y-135190475D01*
X129054819Y-135190475D02*
X129102438Y-135095237D01*
X129102438Y-135095237D02*
X129150057Y-135047618D01*
X129150057Y-135047618D02*
X129245295Y-134999999D01*
X129245295Y-134999999D02*
X129340533Y-134999999D01*
X129340533Y-134999999D02*
X129435771Y-135047618D01*
X129435771Y-135047618D02*
X129483390Y-135095237D01*
X129483390Y-135095237D02*
X129531009Y-135190475D01*
X129531009Y-135190475D02*
X129531009Y-135523808D01*
X129150057Y-134571427D02*
X129102438Y-134523808D01*
X129102438Y-134523808D02*
X129054819Y-134428570D01*
X129054819Y-134428570D02*
X129054819Y-134190475D01*
X129054819Y-134190475D02*
X129102438Y-134095237D01*
X129102438Y-134095237D02*
X129150057Y-134047618D01*
X129150057Y-134047618D02*
X129245295Y-133999999D01*
X129245295Y-133999999D02*
X129340533Y-133999999D01*
X129340533Y-133999999D02*
X129483390Y-134047618D01*
X129483390Y-134047618D02*
X130054819Y-134619046D01*
X130054819Y-134619046D02*
X130054819Y-133999999D01*
X79157142Y-92454819D02*
X78823809Y-91978628D01*
X78585714Y-92454819D02*
X78585714Y-91454819D01*
X78585714Y-91454819D02*
X78966666Y-91454819D01*
X78966666Y-91454819D02*
X79061904Y-91502438D01*
X79061904Y-91502438D02*
X79109523Y-91550057D01*
X79109523Y-91550057D02*
X79157142Y-91645295D01*
X79157142Y-91645295D02*
X79157142Y-91788152D01*
X79157142Y-91788152D02*
X79109523Y-91883390D01*
X79109523Y-91883390D02*
X79061904Y-91931009D01*
X79061904Y-91931009D02*
X78966666Y-91978628D01*
X78966666Y-91978628D02*
X78585714Y-91978628D01*
X80109523Y-92454819D02*
X79538095Y-92454819D01*
X79823809Y-92454819D02*
X79823809Y-91454819D01*
X79823809Y-91454819D02*
X79728571Y-91597676D01*
X79728571Y-91597676D02*
X79633333Y-91692914D01*
X79633333Y-91692914D02*
X79538095Y-91740533D01*
X81061904Y-92454819D02*
X80490476Y-92454819D01*
X80776190Y-92454819D02*
X80776190Y-91454819D01*
X80776190Y-91454819D02*
X80680952Y-91597676D01*
X80680952Y-91597676D02*
X80585714Y-91692914D01*
X80585714Y-91692914D02*
X80490476Y-91740533D01*
X127261905Y-54454819D02*
X127261905Y-53454819D01*
X127261905Y-53454819D02*
X127500000Y-53454819D01*
X127500000Y-53454819D02*
X127642857Y-53502438D01*
X127642857Y-53502438D02*
X127738095Y-53597676D01*
X127738095Y-53597676D02*
X127785714Y-53692914D01*
X127785714Y-53692914D02*
X127833333Y-53883390D01*
X127833333Y-53883390D02*
X127833333Y-54026247D01*
X127833333Y-54026247D02*
X127785714Y-54216723D01*
X127785714Y-54216723D02*
X127738095Y-54311961D01*
X127738095Y-54311961D02*
X127642857Y-54407200D01*
X127642857Y-54407200D02*
X127500000Y-54454819D01*
X127500000Y-54454819D02*
X127261905Y-54454819D01*
X128690476Y-53454819D02*
X128500000Y-53454819D01*
X128500000Y-53454819D02*
X128404762Y-53502438D01*
X128404762Y-53502438D02*
X128357143Y-53550057D01*
X128357143Y-53550057D02*
X128261905Y-53692914D01*
X128261905Y-53692914D02*
X128214286Y-53883390D01*
X128214286Y-53883390D02*
X128214286Y-54264342D01*
X128214286Y-54264342D02*
X128261905Y-54359580D01*
X128261905Y-54359580D02*
X128309524Y-54407200D01*
X128309524Y-54407200D02*
X128404762Y-54454819D01*
X128404762Y-54454819D02*
X128595238Y-54454819D01*
X128595238Y-54454819D02*
X128690476Y-54407200D01*
X128690476Y-54407200D02*
X128738095Y-54359580D01*
X128738095Y-54359580D02*
X128785714Y-54264342D01*
X128785714Y-54264342D02*
X128785714Y-54026247D01*
X128785714Y-54026247D02*
X128738095Y-53931009D01*
X128738095Y-53931009D02*
X128690476Y-53883390D01*
X128690476Y-53883390D02*
X128595238Y-53835771D01*
X128595238Y-53835771D02*
X128404762Y-53835771D01*
X128404762Y-53835771D02*
X128309524Y-53883390D01*
X128309524Y-53883390D02*
X128261905Y-53931009D01*
X128261905Y-53931009D02*
X128214286Y-54026247D01*
X130154819Y-87885713D02*
X129154819Y-87885713D01*
X130154819Y-87409523D02*
X129154819Y-87409523D01*
X129154819Y-87409523D02*
X130154819Y-86838095D01*
X130154819Y-86838095D02*
X129154819Y-86838095D01*
X130154819Y-86361904D02*
X129154819Y-86361904D01*
X129154819Y-86361904D02*
X129154819Y-85980952D01*
X129154819Y-85980952D02*
X129202438Y-85885714D01*
X129202438Y-85885714D02*
X129250057Y-85838095D01*
X129250057Y-85838095D02*
X129345295Y-85790476D01*
X129345295Y-85790476D02*
X129488152Y-85790476D01*
X129488152Y-85790476D02*
X129583390Y-85838095D01*
X129583390Y-85838095D02*
X129631009Y-85885714D01*
X129631009Y-85885714D02*
X129678628Y-85980952D01*
X129678628Y-85980952D02*
X129678628Y-86361904D01*
X129154819Y-85361904D02*
X129964342Y-85361904D01*
X129964342Y-85361904D02*
X130059580Y-85314285D01*
X130059580Y-85314285D02*
X130107200Y-85266666D01*
X130107200Y-85266666D02*
X130154819Y-85171428D01*
X130154819Y-85171428D02*
X130154819Y-84980952D01*
X130154819Y-84980952D02*
X130107200Y-84885714D01*
X130107200Y-84885714D02*
X130059580Y-84838095D01*
X130059580Y-84838095D02*
X129964342Y-84790476D01*
X129964342Y-84790476D02*
X129154819Y-84790476D01*
X129154819Y-84457142D02*
X129154819Y-83885714D01*
X130154819Y-84171428D02*
X129154819Y-84171428D01*
X130250057Y-83790476D02*
X130250057Y-83028571D01*
X129631009Y-82457142D02*
X129678628Y-82314285D01*
X129678628Y-82314285D02*
X129726247Y-82266666D01*
X129726247Y-82266666D02*
X129821485Y-82219047D01*
X129821485Y-82219047D02*
X129964342Y-82219047D01*
X129964342Y-82219047D02*
X130059580Y-82266666D01*
X130059580Y-82266666D02*
X130107200Y-82314285D01*
X130107200Y-82314285D02*
X130154819Y-82409523D01*
X130154819Y-82409523D02*
X130154819Y-82790475D01*
X130154819Y-82790475D02*
X129154819Y-82790475D01*
X129154819Y-82790475D02*
X129154819Y-82457142D01*
X129154819Y-82457142D02*
X129202438Y-82361904D01*
X129202438Y-82361904D02*
X129250057Y-82314285D01*
X129250057Y-82314285D02*
X129345295Y-82266666D01*
X129345295Y-82266666D02*
X129440533Y-82266666D01*
X129440533Y-82266666D02*
X129535771Y-82314285D01*
X129535771Y-82314285D02*
X129583390Y-82361904D01*
X129583390Y-82361904D02*
X129631009Y-82457142D01*
X129631009Y-82457142D02*
X129631009Y-82790475D01*
X129250057Y-81838094D02*
X129202438Y-81790475D01*
X129202438Y-81790475D02*
X129154819Y-81695237D01*
X129154819Y-81695237D02*
X129154819Y-81457142D01*
X129154819Y-81457142D02*
X129202438Y-81361904D01*
X129202438Y-81361904D02*
X129250057Y-81314285D01*
X129250057Y-81314285D02*
X129345295Y-81266666D01*
X129345295Y-81266666D02*
X129440533Y-81266666D01*
X129440533Y-81266666D02*
X129583390Y-81314285D01*
X129583390Y-81314285D02*
X130154819Y-81885713D01*
X130154819Y-81885713D02*
X130154819Y-81266666D01*
X84659580Y-128166666D02*
X84707200Y-128214285D01*
X84707200Y-128214285D02*
X84754819Y-128357142D01*
X84754819Y-128357142D02*
X84754819Y-128452380D01*
X84754819Y-128452380D02*
X84707200Y-128595237D01*
X84707200Y-128595237D02*
X84611961Y-128690475D01*
X84611961Y-128690475D02*
X84516723Y-128738094D01*
X84516723Y-128738094D02*
X84326247Y-128785713D01*
X84326247Y-128785713D02*
X84183390Y-128785713D01*
X84183390Y-128785713D02*
X83992914Y-128738094D01*
X83992914Y-128738094D02*
X83897676Y-128690475D01*
X83897676Y-128690475D02*
X83802438Y-128595237D01*
X83802438Y-128595237D02*
X83754819Y-128452380D01*
X83754819Y-128452380D02*
X83754819Y-128357142D01*
X83754819Y-128357142D02*
X83802438Y-128214285D01*
X83802438Y-128214285D02*
X83850057Y-128166666D01*
X83850057Y-127785713D02*
X83802438Y-127738094D01*
X83802438Y-127738094D02*
X83754819Y-127642856D01*
X83754819Y-127642856D02*
X83754819Y-127404761D01*
X83754819Y-127404761D02*
X83802438Y-127309523D01*
X83802438Y-127309523D02*
X83850057Y-127261904D01*
X83850057Y-127261904D02*
X83945295Y-127214285D01*
X83945295Y-127214285D02*
X84040533Y-127214285D01*
X84040533Y-127214285D02*
X84183390Y-127261904D01*
X84183390Y-127261904D02*
X84754819Y-127833332D01*
X84754819Y-127833332D02*
X84754819Y-127214285D01*
X69229580Y-116636666D02*
X69277200Y-116684285D01*
X69277200Y-116684285D02*
X69324819Y-116827142D01*
X69324819Y-116827142D02*
X69324819Y-116922380D01*
X69324819Y-116922380D02*
X69277200Y-117065237D01*
X69277200Y-117065237D02*
X69181961Y-117160475D01*
X69181961Y-117160475D02*
X69086723Y-117208094D01*
X69086723Y-117208094D02*
X68896247Y-117255713D01*
X68896247Y-117255713D02*
X68753390Y-117255713D01*
X68753390Y-117255713D02*
X68562914Y-117208094D01*
X68562914Y-117208094D02*
X68467676Y-117160475D01*
X68467676Y-117160475D02*
X68372438Y-117065237D01*
X68372438Y-117065237D02*
X68324819Y-116922380D01*
X68324819Y-116922380D02*
X68324819Y-116827142D01*
X68324819Y-116827142D02*
X68372438Y-116684285D01*
X68372438Y-116684285D02*
X68420057Y-116636666D01*
X68324819Y-115779523D02*
X68324819Y-115969999D01*
X68324819Y-115969999D02*
X68372438Y-116065237D01*
X68372438Y-116065237D02*
X68420057Y-116112856D01*
X68420057Y-116112856D02*
X68562914Y-116208094D01*
X68562914Y-116208094D02*
X68753390Y-116255713D01*
X68753390Y-116255713D02*
X69134342Y-116255713D01*
X69134342Y-116255713D02*
X69229580Y-116208094D01*
X69229580Y-116208094D02*
X69277200Y-116160475D01*
X69277200Y-116160475D02*
X69324819Y-116065237D01*
X69324819Y-116065237D02*
X69324819Y-115874761D01*
X69324819Y-115874761D02*
X69277200Y-115779523D01*
X69277200Y-115779523D02*
X69229580Y-115731904D01*
X69229580Y-115731904D02*
X69134342Y-115684285D01*
X69134342Y-115684285D02*
X68896247Y-115684285D01*
X68896247Y-115684285D02*
X68801009Y-115731904D01*
X68801009Y-115731904D02*
X68753390Y-115779523D01*
X68753390Y-115779523D02*
X68705771Y-115874761D01*
X68705771Y-115874761D02*
X68705771Y-116065237D01*
X68705771Y-116065237D02*
X68753390Y-116160475D01*
X68753390Y-116160475D02*
X68801009Y-116208094D01*
X68801009Y-116208094D02*
X68896247Y-116255713D01*
X67750057Y-123295238D02*
X67702438Y-123390476D01*
X67702438Y-123390476D02*
X67607200Y-123485714D01*
X67607200Y-123485714D02*
X67464342Y-123628571D01*
X67464342Y-123628571D02*
X67416723Y-123723809D01*
X67416723Y-123723809D02*
X67416723Y-123819047D01*
X67654819Y-123771428D02*
X67607200Y-123866666D01*
X67607200Y-123866666D02*
X67511961Y-123961904D01*
X67511961Y-123961904D02*
X67321485Y-124009523D01*
X67321485Y-124009523D02*
X66988152Y-124009523D01*
X66988152Y-124009523D02*
X66797676Y-123961904D01*
X66797676Y-123961904D02*
X66702438Y-123866666D01*
X66702438Y-123866666D02*
X66654819Y-123771428D01*
X66654819Y-123771428D02*
X66654819Y-123580952D01*
X66654819Y-123580952D02*
X66702438Y-123485714D01*
X66702438Y-123485714D02*
X66797676Y-123390476D01*
X66797676Y-123390476D02*
X66988152Y-123342857D01*
X66988152Y-123342857D02*
X67321485Y-123342857D01*
X67321485Y-123342857D02*
X67511961Y-123390476D01*
X67511961Y-123390476D02*
X67607200Y-123485714D01*
X67607200Y-123485714D02*
X67654819Y-123580952D01*
X67654819Y-123580952D02*
X67654819Y-123771428D01*
X67654819Y-122390476D02*
X67654819Y-122961904D01*
X67654819Y-122676190D02*
X66654819Y-122676190D01*
X66654819Y-122676190D02*
X66797676Y-122771428D01*
X66797676Y-122771428D02*
X66892914Y-122866666D01*
X66892914Y-122866666D02*
X66940533Y-122961904D01*
X92854819Y-87914285D02*
X91854819Y-87914285D01*
X92854819Y-87438095D02*
X91854819Y-87438095D01*
X91854819Y-87438095D02*
X92854819Y-86866667D01*
X92854819Y-86866667D02*
X91854819Y-86866667D01*
X92854819Y-86390476D02*
X91854819Y-86390476D01*
X91854819Y-86390476D02*
X91854819Y-86009524D01*
X91854819Y-86009524D02*
X91902438Y-85914286D01*
X91902438Y-85914286D02*
X91950057Y-85866667D01*
X91950057Y-85866667D02*
X92045295Y-85819048D01*
X92045295Y-85819048D02*
X92188152Y-85819048D01*
X92188152Y-85819048D02*
X92283390Y-85866667D01*
X92283390Y-85866667D02*
X92331009Y-85914286D01*
X92331009Y-85914286D02*
X92378628Y-86009524D01*
X92378628Y-86009524D02*
X92378628Y-86390476D01*
X91854819Y-85390476D02*
X92664342Y-85390476D01*
X92664342Y-85390476D02*
X92759580Y-85342857D01*
X92759580Y-85342857D02*
X92807200Y-85295238D01*
X92807200Y-85295238D02*
X92854819Y-85200000D01*
X92854819Y-85200000D02*
X92854819Y-85009524D01*
X92854819Y-85009524D02*
X92807200Y-84914286D01*
X92807200Y-84914286D02*
X92759580Y-84866667D01*
X92759580Y-84866667D02*
X92664342Y-84819048D01*
X92664342Y-84819048D02*
X91854819Y-84819048D01*
X91854819Y-84485714D02*
X91854819Y-83914286D01*
X92854819Y-84200000D02*
X91854819Y-84200000D01*
X92950057Y-83819048D02*
X92950057Y-83057143D01*
X92569104Y-82866666D02*
X92569104Y-82390476D01*
X92854819Y-82961904D02*
X91854819Y-82628571D01*
X91854819Y-82628571D02*
X92854819Y-82295238D01*
X91950057Y-82009523D02*
X91902438Y-81961904D01*
X91902438Y-81961904D02*
X91854819Y-81866666D01*
X91854819Y-81866666D02*
X91854819Y-81628571D01*
X91854819Y-81628571D02*
X91902438Y-81533333D01*
X91902438Y-81533333D02*
X91950057Y-81485714D01*
X91950057Y-81485714D02*
X92045295Y-81438095D01*
X92045295Y-81438095D02*
X92140533Y-81438095D01*
X92140533Y-81438095D02*
X92283390Y-81485714D01*
X92283390Y-81485714D02*
X92854819Y-82057142D01*
X92854819Y-82057142D02*
X92854819Y-81438095D01*
X79633333Y-79954819D02*
X79300000Y-79478628D01*
X79061905Y-79954819D02*
X79061905Y-78954819D01*
X79061905Y-78954819D02*
X79442857Y-78954819D01*
X79442857Y-78954819D02*
X79538095Y-79002438D01*
X79538095Y-79002438D02*
X79585714Y-79050057D01*
X79585714Y-79050057D02*
X79633333Y-79145295D01*
X79633333Y-79145295D02*
X79633333Y-79288152D01*
X79633333Y-79288152D02*
X79585714Y-79383390D01*
X79585714Y-79383390D02*
X79538095Y-79431009D01*
X79538095Y-79431009D02*
X79442857Y-79478628D01*
X79442857Y-79478628D02*
X79061905Y-79478628D01*
X79966667Y-78954819D02*
X80633333Y-78954819D01*
X80633333Y-78954819D02*
X80204762Y-79954819D01*
X73250057Y-128935238D02*
X73202438Y-129030476D01*
X73202438Y-129030476D02*
X73107200Y-129125714D01*
X73107200Y-129125714D02*
X72964342Y-129268571D01*
X72964342Y-129268571D02*
X72916723Y-129363809D01*
X72916723Y-129363809D02*
X72916723Y-129459047D01*
X73154819Y-129411428D02*
X73107200Y-129506666D01*
X73107200Y-129506666D02*
X73011961Y-129601904D01*
X73011961Y-129601904D02*
X72821485Y-129649523D01*
X72821485Y-129649523D02*
X72488152Y-129649523D01*
X72488152Y-129649523D02*
X72297676Y-129601904D01*
X72297676Y-129601904D02*
X72202438Y-129506666D01*
X72202438Y-129506666D02*
X72154819Y-129411428D01*
X72154819Y-129411428D02*
X72154819Y-129220952D01*
X72154819Y-129220952D02*
X72202438Y-129125714D01*
X72202438Y-129125714D02*
X72297676Y-129030476D01*
X72297676Y-129030476D02*
X72488152Y-128982857D01*
X72488152Y-128982857D02*
X72821485Y-128982857D01*
X72821485Y-128982857D02*
X73011961Y-129030476D01*
X73011961Y-129030476D02*
X73107200Y-129125714D01*
X73107200Y-129125714D02*
X73154819Y-129220952D01*
X73154819Y-129220952D02*
X73154819Y-129411428D01*
X72250057Y-128601904D02*
X72202438Y-128554285D01*
X72202438Y-128554285D02*
X72154819Y-128459047D01*
X72154819Y-128459047D02*
X72154819Y-128220952D01*
X72154819Y-128220952D02*
X72202438Y-128125714D01*
X72202438Y-128125714D02*
X72250057Y-128078095D01*
X72250057Y-128078095D02*
X72345295Y-128030476D01*
X72345295Y-128030476D02*
X72440533Y-128030476D01*
X72440533Y-128030476D02*
X72583390Y-128078095D01*
X72583390Y-128078095D02*
X73154819Y-128649523D01*
X73154819Y-128649523D02*
X73154819Y-128030476D01*
X98557142Y-110854819D02*
X98223809Y-110378628D01*
X97985714Y-110854819D02*
X97985714Y-109854819D01*
X97985714Y-109854819D02*
X98366666Y-109854819D01*
X98366666Y-109854819D02*
X98461904Y-109902438D01*
X98461904Y-109902438D02*
X98509523Y-109950057D01*
X98509523Y-109950057D02*
X98557142Y-110045295D01*
X98557142Y-110045295D02*
X98557142Y-110188152D01*
X98557142Y-110188152D02*
X98509523Y-110283390D01*
X98509523Y-110283390D02*
X98461904Y-110331009D01*
X98461904Y-110331009D02*
X98366666Y-110378628D01*
X98366666Y-110378628D02*
X97985714Y-110378628D01*
X99509523Y-110854819D02*
X98938095Y-110854819D01*
X99223809Y-110854819D02*
X99223809Y-109854819D01*
X99223809Y-109854819D02*
X99128571Y-109997676D01*
X99128571Y-109997676D02*
X99033333Y-110092914D01*
X99033333Y-110092914D02*
X98938095Y-110140533D01*
X99890476Y-109950057D02*
X99938095Y-109902438D01*
X99938095Y-109902438D02*
X100033333Y-109854819D01*
X100033333Y-109854819D02*
X100271428Y-109854819D01*
X100271428Y-109854819D02*
X100366666Y-109902438D01*
X100366666Y-109902438D02*
X100414285Y-109950057D01*
X100414285Y-109950057D02*
X100461904Y-110045295D01*
X100461904Y-110045295D02*
X100461904Y-110140533D01*
X100461904Y-110140533D02*
X100414285Y-110283390D01*
X100414285Y-110283390D02*
X99842857Y-110854819D01*
X99842857Y-110854819D02*
X100461904Y-110854819D01*
X80157142Y-60054819D02*
X79823809Y-59578628D01*
X79585714Y-60054819D02*
X79585714Y-59054819D01*
X79585714Y-59054819D02*
X79966666Y-59054819D01*
X79966666Y-59054819D02*
X80061904Y-59102438D01*
X80061904Y-59102438D02*
X80109523Y-59150057D01*
X80109523Y-59150057D02*
X80157142Y-59245295D01*
X80157142Y-59245295D02*
X80157142Y-59388152D01*
X80157142Y-59388152D02*
X80109523Y-59483390D01*
X80109523Y-59483390D02*
X80061904Y-59531009D01*
X80061904Y-59531009D02*
X79966666Y-59578628D01*
X79966666Y-59578628D02*
X79585714Y-59578628D01*
X81109523Y-60054819D02*
X80538095Y-60054819D01*
X80823809Y-60054819D02*
X80823809Y-59054819D01*
X80823809Y-59054819D02*
X80728571Y-59197676D01*
X80728571Y-59197676D02*
X80633333Y-59292914D01*
X80633333Y-59292914D02*
X80538095Y-59340533D01*
X81442857Y-59054819D02*
X82109523Y-59054819D01*
X82109523Y-59054819D02*
X81680952Y-60054819D01*
X72224819Y-115308094D02*
X71224819Y-115308094D01*
X71224819Y-115308094D02*
X71224819Y-115069999D01*
X71224819Y-115069999D02*
X71272438Y-114927142D01*
X71272438Y-114927142D02*
X71367676Y-114831904D01*
X71367676Y-114831904D02*
X71462914Y-114784285D01*
X71462914Y-114784285D02*
X71653390Y-114736666D01*
X71653390Y-114736666D02*
X71796247Y-114736666D01*
X71796247Y-114736666D02*
X71986723Y-114784285D01*
X71986723Y-114784285D02*
X72081961Y-114831904D01*
X72081961Y-114831904D02*
X72177200Y-114927142D01*
X72177200Y-114927142D02*
X72224819Y-115069999D01*
X72224819Y-115069999D02*
X72224819Y-115308094D01*
X72224819Y-113784285D02*
X72224819Y-114355713D01*
X72224819Y-114069999D02*
X71224819Y-114069999D01*
X71224819Y-114069999D02*
X71367676Y-114165237D01*
X71367676Y-114165237D02*
X71462914Y-114260475D01*
X71462914Y-114260475D02*
X71510533Y-114355713D01*
X91854819Y-157590476D02*
X91854819Y-157400000D01*
X91854819Y-157400000D02*
X91902438Y-157304762D01*
X91902438Y-157304762D02*
X91997676Y-157209524D01*
X91997676Y-157209524D02*
X92188152Y-157161905D01*
X92188152Y-157161905D02*
X92521485Y-157161905D01*
X92521485Y-157161905D02*
X92711961Y-157209524D01*
X92711961Y-157209524D02*
X92807200Y-157304762D01*
X92807200Y-157304762D02*
X92854819Y-157400000D01*
X92854819Y-157400000D02*
X92854819Y-157590476D01*
X92854819Y-157590476D02*
X92807200Y-157685714D01*
X92807200Y-157685714D02*
X92711961Y-157780952D01*
X92711961Y-157780952D02*
X92521485Y-157828571D01*
X92521485Y-157828571D02*
X92188152Y-157828571D01*
X92188152Y-157828571D02*
X91997676Y-157780952D01*
X91997676Y-157780952D02*
X91902438Y-157685714D01*
X91902438Y-157685714D02*
X91854819Y-157590476D01*
X91854819Y-156733333D02*
X92664342Y-156733333D01*
X92664342Y-156733333D02*
X92759580Y-156685714D01*
X92759580Y-156685714D02*
X92807200Y-156638095D01*
X92807200Y-156638095D02*
X92854819Y-156542857D01*
X92854819Y-156542857D02*
X92854819Y-156352381D01*
X92854819Y-156352381D02*
X92807200Y-156257143D01*
X92807200Y-156257143D02*
X92759580Y-156209524D01*
X92759580Y-156209524D02*
X92664342Y-156161905D01*
X92664342Y-156161905D02*
X91854819Y-156161905D01*
X91854819Y-155828571D02*
X91854819Y-155257143D01*
X92854819Y-155542857D02*
X91854819Y-155542857D01*
X92854819Y-154923809D02*
X91854819Y-154923809D01*
X91854819Y-154923809D02*
X91854819Y-154542857D01*
X91854819Y-154542857D02*
X91902438Y-154447619D01*
X91902438Y-154447619D02*
X91950057Y-154400000D01*
X91950057Y-154400000D02*
X92045295Y-154352381D01*
X92045295Y-154352381D02*
X92188152Y-154352381D01*
X92188152Y-154352381D02*
X92283390Y-154400000D01*
X92283390Y-154400000D02*
X92331009Y-154447619D01*
X92331009Y-154447619D02*
X92378628Y-154542857D01*
X92378628Y-154542857D02*
X92378628Y-154923809D01*
X91854819Y-153923809D02*
X92664342Y-153923809D01*
X92664342Y-153923809D02*
X92759580Y-153876190D01*
X92759580Y-153876190D02*
X92807200Y-153828571D01*
X92807200Y-153828571D02*
X92854819Y-153733333D01*
X92854819Y-153733333D02*
X92854819Y-153542857D01*
X92854819Y-153542857D02*
X92807200Y-153447619D01*
X92807200Y-153447619D02*
X92759580Y-153400000D01*
X92759580Y-153400000D02*
X92664342Y-153352381D01*
X92664342Y-153352381D02*
X91854819Y-153352381D01*
X91854819Y-153019047D02*
X91854819Y-152447619D01*
X92854819Y-152733333D02*
X91854819Y-152733333D01*
X92950057Y-152352381D02*
X92950057Y-151590476D01*
X92569104Y-151399999D02*
X92569104Y-150923809D01*
X92854819Y-151495237D02*
X91854819Y-151161904D01*
X91854819Y-151161904D02*
X92854819Y-150828571D01*
X91854819Y-150590475D02*
X91854819Y-149971428D01*
X91854819Y-149971428D02*
X92235771Y-150304761D01*
X92235771Y-150304761D02*
X92235771Y-150161904D01*
X92235771Y-150161904D02*
X92283390Y-150066666D01*
X92283390Y-150066666D02*
X92331009Y-150019047D01*
X92331009Y-150019047D02*
X92426247Y-149971428D01*
X92426247Y-149971428D02*
X92664342Y-149971428D01*
X92664342Y-149971428D02*
X92759580Y-150019047D01*
X92759580Y-150019047D02*
X92807200Y-150066666D01*
X92807200Y-150066666D02*
X92854819Y-150161904D01*
X92854819Y-150161904D02*
X92854819Y-150447618D01*
X92854819Y-150447618D02*
X92807200Y-150542856D01*
X92807200Y-150542856D02*
X92759580Y-150590475D01*
X64238095Y-138224819D02*
X64238095Y-137224819D01*
X64238095Y-137701009D02*
X64809523Y-137701009D01*
X64809523Y-138224819D02*
X64809523Y-137224819D01*
X65238095Y-137320057D02*
X65285714Y-137272438D01*
X65285714Y-137272438D02*
X65380952Y-137224819D01*
X65380952Y-137224819D02*
X65619047Y-137224819D01*
X65619047Y-137224819D02*
X65714285Y-137272438D01*
X65714285Y-137272438D02*
X65761904Y-137320057D01*
X65761904Y-137320057D02*
X65809523Y-137415295D01*
X65809523Y-137415295D02*
X65809523Y-137510533D01*
X65809523Y-137510533D02*
X65761904Y-137653390D01*
X65761904Y-137653390D02*
X65190476Y-138224819D01*
X65190476Y-138224819D02*
X65809523Y-138224819D01*
X122137142Y-110854819D02*
X121803809Y-110378628D01*
X121565714Y-110854819D02*
X121565714Y-109854819D01*
X121565714Y-109854819D02*
X121946666Y-109854819D01*
X121946666Y-109854819D02*
X122041904Y-109902438D01*
X122041904Y-109902438D02*
X122089523Y-109950057D01*
X122089523Y-109950057D02*
X122137142Y-110045295D01*
X122137142Y-110045295D02*
X122137142Y-110188152D01*
X122137142Y-110188152D02*
X122089523Y-110283390D01*
X122089523Y-110283390D02*
X122041904Y-110331009D01*
X122041904Y-110331009D02*
X121946666Y-110378628D01*
X121946666Y-110378628D02*
X121565714Y-110378628D01*
X122518095Y-109950057D02*
X122565714Y-109902438D01*
X122565714Y-109902438D02*
X122660952Y-109854819D01*
X122660952Y-109854819D02*
X122899047Y-109854819D01*
X122899047Y-109854819D02*
X122994285Y-109902438D01*
X122994285Y-109902438D02*
X123041904Y-109950057D01*
X123041904Y-109950057D02*
X123089523Y-110045295D01*
X123089523Y-110045295D02*
X123089523Y-110140533D01*
X123089523Y-110140533D02*
X123041904Y-110283390D01*
X123041904Y-110283390D02*
X122470476Y-110854819D01*
X122470476Y-110854819D02*
X123089523Y-110854819D01*
X123565714Y-110854819D02*
X123756190Y-110854819D01*
X123756190Y-110854819D02*
X123851428Y-110807200D01*
X123851428Y-110807200D02*
X123899047Y-110759580D01*
X123899047Y-110759580D02*
X123994285Y-110616723D01*
X123994285Y-110616723D02*
X124041904Y-110426247D01*
X124041904Y-110426247D02*
X124041904Y-110045295D01*
X124041904Y-110045295D02*
X123994285Y-109950057D01*
X123994285Y-109950057D02*
X123946666Y-109902438D01*
X123946666Y-109902438D02*
X123851428Y-109854819D01*
X123851428Y-109854819D02*
X123660952Y-109854819D01*
X123660952Y-109854819D02*
X123565714Y-109902438D01*
X123565714Y-109902438D02*
X123518095Y-109950057D01*
X123518095Y-109950057D02*
X123470476Y-110045295D01*
X123470476Y-110045295D02*
X123470476Y-110283390D01*
X123470476Y-110283390D02*
X123518095Y-110378628D01*
X123518095Y-110378628D02*
X123565714Y-110426247D01*
X123565714Y-110426247D02*
X123660952Y-110473866D01*
X123660952Y-110473866D02*
X123851428Y-110473866D01*
X123851428Y-110473866D02*
X123946666Y-110426247D01*
X123946666Y-110426247D02*
X123994285Y-110378628D01*
X123994285Y-110378628D02*
X124041904Y-110283390D01*
X63433333Y-106059580D02*
X63385714Y-106107200D01*
X63385714Y-106107200D02*
X63242857Y-106154819D01*
X63242857Y-106154819D02*
X63147619Y-106154819D01*
X63147619Y-106154819D02*
X63004762Y-106107200D01*
X63004762Y-106107200D02*
X62909524Y-106011961D01*
X62909524Y-106011961D02*
X62861905Y-105916723D01*
X62861905Y-105916723D02*
X62814286Y-105726247D01*
X62814286Y-105726247D02*
X62814286Y-105583390D01*
X62814286Y-105583390D02*
X62861905Y-105392914D01*
X62861905Y-105392914D02*
X62909524Y-105297676D01*
X62909524Y-105297676D02*
X63004762Y-105202438D01*
X63004762Y-105202438D02*
X63147619Y-105154819D01*
X63147619Y-105154819D02*
X63242857Y-105154819D01*
X63242857Y-105154819D02*
X63385714Y-105202438D01*
X63385714Y-105202438D02*
X63433333Y-105250057D01*
X64290476Y-105488152D02*
X64290476Y-106154819D01*
X64052381Y-105107200D02*
X63814286Y-105821485D01*
X63814286Y-105821485D02*
X64433333Y-105821485D01*
X117754819Y-64692857D02*
X117278628Y-65026190D01*
X117754819Y-65264285D02*
X116754819Y-65264285D01*
X116754819Y-65264285D02*
X116754819Y-64883333D01*
X116754819Y-64883333D02*
X116802438Y-64788095D01*
X116802438Y-64788095D02*
X116850057Y-64740476D01*
X116850057Y-64740476D02*
X116945295Y-64692857D01*
X116945295Y-64692857D02*
X117088152Y-64692857D01*
X117088152Y-64692857D02*
X117183390Y-64740476D01*
X117183390Y-64740476D02*
X117231009Y-64788095D01*
X117231009Y-64788095D02*
X117278628Y-64883333D01*
X117278628Y-64883333D02*
X117278628Y-65264285D01*
X117754819Y-63740476D02*
X117754819Y-64311904D01*
X117754819Y-64026190D02*
X116754819Y-64026190D01*
X116754819Y-64026190D02*
X116897676Y-64121428D01*
X116897676Y-64121428D02*
X116992914Y-64216666D01*
X116992914Y-64216666D02*
X117040533Y-64311904D01*
X117183390Y-63169047D02*
X117135771Y-63264285D01*
X117135771Y-63264285D02*
X117088152Y-63311904D01*
X117088152Y-63311904D02*
X116992914Y-63359523D01*
X116992914Y-63359523D02*
X116945295Y-63359523D01*
X116945295Y-63359523D02*
X116850057Y-63311904D01*
X116850057Y-63311904D02*
X116802438Y-63264285D01*
X116802438Y-63264285D02*
X116754819Y-63169047D01*
X116754819Y-63169047D02*
X116754819Y-62978571D01*
X116754819Y-62978571D02*
X116802438Y-62883333D01*
X116802438Y-62883333D02*
X116850057Y-62835714D01*
X116850057Y-62835714D02*
X116945295Y-62788095D01*
X116945295Y-62788095D02*
X116992914Y-62788095D01*
X116992914Y-62788095D02*
X117088152Y-62835714D01*
X117088152Y-62835714D02*
X117135771Y-62883333D01*
X117135771Y-62883333D02*
X117183390Y-62978571D01*
X117183390Y-62978571D02*
X117183390Y-63169047D01*
X117183390Y-63169047D02*
X117231009Y-63264285D01*
X117231009Y-63264285D02*
X117278628Y-63311904D01*
X117278628Y-63311904D02*
X117373866Y-63359523D01*
X117373866Y-63359523D02*
X117564342Y-63359523D01*
X117564342Y-63359523D02*
X117659580Y-63311904D01*
X117659580Y-63311904D02*
X117707200Y-63264285D01*
X117707200Y-63264285D02*
X117754819Y-63169047D01*
X117754819Y-63169047D02*
X117754819Y-62978571D01*
X117754819Y-62978571D02*
X117707200Y-62883333D01*
X117707200Y-62883333D02*
X117659580Y-62835714D01*
X117659580Y-62835714D02*
X117564342Y-62788095D01*
X117564342Y-62788095D02*
X117373866Y-62788095D01*
X117373866Y-62788095D02*
X117278628Y-62835714D01*
X117278628Y-62835714D02*
X117231009Y-62883333D01*
X117231009Y-62883333D02*
X117183390Y-62978571D01*
X69387142Y-156254819D02*
X69053809Y-155778628D01*
X68815714Y-156254819D02*
X68815714Y-155254819D01*
X68815714Y-155254819D02*
X69196666Y-155254819D01*
X69196666Y-155254819D02*
X69291904Y-155302438D01*
X69291904Y-155302438D02*
X69339523Y-155350057D01*
X69339523Y-155350057D02*
X69387142Y-155445295D01*
X69387142Y-155445295D02*
X69387142Y-155588152D01*
X69387142Y-155588152D02*
X69339523Y-155683390D01*
X69339523Y-155683390D02*
X69291904Y-155731009D01*
X69291904Y-155731009D02*
X69196666Y-155778628D01*
X69196666Y-155778628D02*
X68815714Y-155778628D01*
X69768095Y-155350057D02*
X69815714Y-155302438D01*
X69815714Y-155302438D02*
X69910952Y-155254819D01*
X69910952Y-155254819D02*
X70149047Y-155254819D01*
X70149047Y-155254819D02*
X70244285Y-155302438D01*
X70244285Y-155302438D02*
X70291904Y-155350057D01*
X70291904Y-155350057D02*
X70339523Y-155445295D01*
X70339523Y-155445295D02*
X70339523Y-155540533D01*
X70339523Y-155540533D02*
X70291904Y-155683390D01*
X70291904Y-155683390D02*
X69720476Y-156254819D01*
X69720476Y-156254819D02*
X70339523Y-156254819D01*
X71196666Y-155254819D02*
X71006190Y-155254819D01*
X71006190Y-155254819D02*
X70910952Y-155302438D01*
X70910952Y-155302438D02*
X70863333Y-155350057D01*
X70863333Y-155350057D02*
X70768095Y-155492914D01*
X70768095Y-155492914D02*
X70720476Y-155683390D01*
X70720476Y-155683390D02*
X70720476Y-156064342D01*
X70720476Y-156064342D02*
X70768095Y-156159580D01*
X70768095Y-156159580D02*
X70815714Y-156207200D01*
X70815714Y-156207200D02*
X70910952Y-156254819D01*
X70910952Y-156254819D02*
X71101428Y-156254819D01*
X71101428Y-156254819D02*
X71196666Y-156207200D01*
X71196666Y-156207200D02*
X71244285Y-156159580D01*
X71244285Y-156159580D02*
X71291904Y-156064342D01*
X71291904Y-156064342D02*
X71291904Y-155826247D01*
X71291904Y-155826247D02*
X71244285Y-155731009D01*
X71244285Y-155731009D02*
X71196666Y-155683390D01*
X71196666Y-155683390D02*
X71101428Y-155635771D01*
X71101428Y-155635771D02*
X70910952Y-155635771D01*
X70910952Y-155635771D02*
X70815714Y-155683390D01*
X70815714Y-155683390D02*
X70768095Y-155731009D01*
X70768095Y-155731009D02*
X70720476Y-155826247D01*
X101461905Y-54354819D02*
X101461905Y-53354819D01*
X101461905Y-53354819D02*
X101700000Y-53354819D01*
X101700000Y-53354819D02*
X101842857Y-53402438D01*
X101842857Y-53402438D02*
X101938095Y-53497676D01*
X101938095Y-53497676D02*
X101985714Y-53592914D01*
X101985714Y-53592914D02*
X102033333Y-53783390D01*
X102033333Y-53783390D02*
X102033333Y-53926247D01*
X102033333Y-53926247D02*
X101985714Y-54116723D01*
X101985714Y-54116723D02*
X101938095Y-54211961D01*
X101938095Y-54211961D02*
X101842857Y-54307200D01*
X101842857Y-54307200D02*
X101700000Y-54354819D01*
X101700000Y-54354819D02*
X101461905Y-54354819D01*
X102414286Y-53450057D02*
X102461905Y-53402438D01*
X102461905Y-53402438D02*
X102557143Y-53354819D01*
X102557143Y-53354819D02*
X102795238Y-53354819D01*
X102795238Y-53354819D02*
X102890476Y-53402438D01*
X102890476Y-53402438D02*
X102938095Y-53450057D01*
X102938095Y-53450057D02*
X102985714Y-53545295D01*
X102985714Y-53545295D02*
X102985714Y-53640533D01*
X102985714Y-53640533D02*
X102938095Y-53783390D01*
X102938095Y-53783390D02*
X102366667Y-54354819D01*
X102366667Y-54354819D02*
X102985714Y-54354819D01*
X117854819Y-144092857D02*
X117378628Y-144426190D01*
X117854819Y-144664285D02*
X116854819Y-144664285D01*
X116854819Y-144664285D02*
X116854819Y-144283333D01*
X116854819Y-144283333D02*
X116902438Y-144188095D01*
X116902438Y-144188095D02*
X116950057Y-144140476D01*
X116950057Y-144140476D02*
X117045295Y-144092857D01*
X117045295Y-144092857D02*
X117188152Y-144092857D01*
X117188152Y-144092857D02*
X117283390Y-144140476D01*
X117283390Y-144140476D02*
X117331009Y-144188095D01*
X117331009Y-144188095D02*
X117378628Y-144283333D01*
X117378628Y-144283333D02*
X117378628Y-144664285D01*
X116854819Y-143759523D02*
X116854819Y-143140476D01*
X116854819Y-143140476D02*
X117235771Y-143473809D01*
X117235771Y-143473809D02*
X117235771Y-143330952D01*
X117235771Y-143330952D02*
X117283390Y-143235714D01*
X117283390Y-143235714D02*
X117331009Y-143188095D01*
X117331009Y-143188095D02*
X117426247Y-143140476D01*
X117426247Y-143140476D02*
X117664342Y-143140476D01*
X117664342Y-143140476D02*
X117759580Y-143188095D01*
X117759580Y-143188095D02*
X117807200Y-143235714D01*
X117807200Y-143235714D02*
X117854819Y-143330952D01*
X117854819Y-143330952D02*
X117854819Y-143616666D01*
X117854819Y-143616666D02*
X117807200Y-143711904D01*
X117807200Y-143711904D02*
X117759580Y-143759523D01*
X116854819Y-142521428D02*
X116854819Y-142426190D01*
X116854819Y-142426190D02*
X116902438Y-142330952D01*
X116902438Y-142330952D02*
X116950057Y-142283333D01*
X116950057Y-142283333D02*
X117045295Y-142235714D01*
X117045295Y-142235714D02*
X117235771Y-142188095D01*
X117235771Y-142188095D02*
X117473866Y-142188095D01*
X117473866Y-142188095D02*
X117664342Y-142235714D01*
X117664342Y-142235714D02*
X117759580Y-142283333D01*
X117759580Y-142283333D02*
X117807200Y-142330952D01*
X117807200Y-142330952D02*
X117854819Y-142426190D01*
X117854819Y-142426190D02*
X117854819Y-142521428D01*
X117854819Y-142521428D02*
X117807200Y-142616666D01*
X117807200Y-142616666D02*
X117759580Y-142664285D01*
X117759580Y-142664285D02*
X117664342Y-142711904D01*
X117664342Y-142711904D02*
X117473866Y-142759523D01*
X117473866Y-142759523D02*
X117235771Y-142759523D01*
X117235771Y-142759523D02*
X117045295Y-142711904D01*
X117045295Y-142711904D02*
X116950057Y-142664285D01*
X116950057Y-142664285D02*
X116902438Y-142616666D01*
X116902438Y-142616666D02*
X116854819Y-142521428D01*
X109854819Y-135622857D02*
X109378628Y-135956190D01*
X109854819Y-136194285D02*
X108854819Y-136194285D01*
X108854819Y-136194285D02*
X108854819Y-135813333D01*
X108854819Y-135813333D02*
X108902438Y-135718095D01*
X108902438Y-135718095D02*
X108950057Y-135670476D01*
X108950057Y-135670476D02*
X109045295Y-135622857D01*
X109045295Y-135622857D02*
X109188152Y-135622857D01*
X109188152Y-135622857D02*
X109283390Y-135670476D01*
X109283390Y-135670476D02*
X109331009Y-135718095D01*
X109331009Y-135718095D02*
X109378628Y-135813333D01*
X109378628Y-135813333D02*
X109378628Y-136194285D01*
X109854819Y-134670476D02*
X109854819Y-135241904D01*
X109854819Y-134956190D02*
X108854819Y-134956190D01*
X108854819Y-134956190D02*
X108997676Y-135051428D01*
X108997676Y-135051428D02*
X109092914Y-135146666D01*
X109092914Y-135146666D02*
X109140533Y-135241904D01*
X109188152Y-133813333D02*
X109854819Y-133813333D01*
X108807200Y-134051428D02*
X109521485Y-134289523D01*
X109521485Y-134289523D02*
X109521485Y-133670476D01*
X113054819Y-135642857D02*
X112578628Y-135976190D01*
X113054819Y-136214285D02*
X112054819Y-136214285D01*
X112054819Y-136214285D02*
X112054819Y-135833333D01*
X112054819Y-135833333D02*
X112102438Y-135738095D01*
X112102438Y-135738095D02*
X112150057Y-135690476D01*
X112150057Y-135690476D02*
X112245295Y-135642857D01*
X112245295Y-135642857D02*
X112388152Y-135642857D01*
X112388152Y-135642857D02*
X112483390Y-135690476D01*
X112483390Y-135690476D02*
X112531009Y-135738095D01*
X112531009Y-135738095D02*
X112578628Y-135833333D01*
X112578628Y-135833333D02*
X112578628Y-136214285D01*
X112054819Y-135309523D02*
X112054819Y-134690476D01*
X112054819Y-134690476D02*
X112435771Y-135023809D01*
X112435771Y-135023809D02*
X112435771Y-134880952D01*
X112435771Y-134880952D02*
X112483390Y-134785714D01*
X112483390Y-134785714D02*
X112531009Y-134738095D01*
X112531009Y-134738095D02*
X112626247Y-134690476D01*
X112626247Y-134690476D02*
X112864342Y-134690476D01*
X112864342Y-134690476D02*
X112959580Y-134738095D01*
X112959580Y-134738095D02*
X113007200Y-134785714D01*
X113007200Y-134785714D02*
X113054819Y-134880952D01*
X113054819Y-134880952D02*
X113054819Y-135166666D01*
X113054819Y-135166666D02*
X113007200Y-135261904D01*
X113007200Y-135261904D02*
X112959580Y-135309523D01*
X113054819Y-133738095D02*
X113054819Y-134309523D01*
X113054819Y-134023809D02*
X112054819Y-134023809D01*
X112054819Y-134023809D02*
X112197676Y-134119047D01*
X112197676Y-134119047D02*
X112292914Y-134214285D01*
X112292914Y-134214285D02*
X112340533Y-134309523D01*
X105054819Y-144092857D02*
X104578628Y-144426190D01*
X105054819Y-144664285D02*
X104054819Y-144664285D01*
X104054819Y-144664285D02*
X104054819Y-144283333D01*
X104054819Y-144283333D02*
X104102438Y-144188095D01*
X104102438Y-144188095D02*
X104150057Y-144140476D01*
X104150057Y-144140476D02*
X104245295Y-144092857D01*
X104245295Y-144092857D02*
X104388152Y-144092857D01*
X104388152Y-144092857D02*
X104483390Y-144140476D01*
X104483390Y-144140476D02*
X104531009Y-144188095D01*
X104531009Y-144188095D02*
X104578628Y-144283333D01*
X104578628Y-144283333D02*
X104578628Y-144664285D01*
X105054819Y-143140476D02*
X105054819Y-143711904D01*
X105054819Y-143426190D02*
X104054819Y-143426190D01*
X104054819Y-143426190D02*
X104197676Y-143521428D01*
X104197676Y-143521428D02*
X104292914Y-143616666D01*
X104292914Y-143616666D02*
X104340533Y-143711904D01*
X104054819Y-142807142D02*
X104054819Y-142188095D01*
X104054819Y-142188095D02*
X104435771Y-142521428D01*
X104435771Y-142521428D02*
X104435771Y-142378571D01*
X104435771Y-142378571D02*
X104483390Y-142283333D01*
X104483390Y-142283333D02*
X104531009Y-142235714D01*
X104531009Y-142235714D02*
X104626247Y-142188095D01*
X104626247Y-142188095D02*
X104864342Y-142188095D01*
X104864342Y-142188095D02*
X104959580Y-142235714D01*
X104959580Y-142235714D02*
X105007200Y-142283333D01*
X105007200Y-142283333D02*
X105054819Y-142378571D01*
X105054819Y-142378571D02*
X105054819Y-142664285D01*
X105054819Y-142664285D02*
X105007200Y-142759523D01*
X105007200Y-142759523D02*
X104959580Y-142807142D01*
D12*
X103330000Y-60780000D02*
X103330000Y-67320000D01*
X103330000Y-67320000D02*
X106070000Y-67320000D01*
X104700000Y-60010000D02*
X104700000Y-60780000D01*
X104700000Y-68090000D02*
X104700000Y-67320000D01*
X106070000Y-60780000D02*
X103330000Y-60780000D01*
X106070000Y-67320000D02*
X106070000Y-60780000D01*
X119500000Y-147500000D02*
X119500000Y-158000000D01*
X122770000Y-144350000D02*
X122770000Y-145150000D01*
X122770000Y-144350000D02*
X123630000Y-144350000D01*
X123200000Y-158000000D02*
X119500000Y-158000000D01*
X123280000Y-147500000D02*
X119500000Y-147500000D01*
X128500000Y-147500000D02*
X124720000Y-147500000D01*
X128500000Y-147500000D02*
X128500000Y-158000000D01*
X128500000Y-158000000D02*
X124800000Y-158000000D01*
X125800000Y-152000000D02*
G75*
G02*
X122200000Y-152000000I-1800000J0D01*
G01*
X122200000Y-152000000D02*
G75*
G02*
X125800000Y-152000000I1800000J0D01*
G01*
X75760000Y-85800000D02*
X76530000Y-85800000D01*
X76530000Y-84430000D02*
X76530000Y-87170000D01*
X76530000Y-87170000D02*
X83070000Y-87170000D01*
X83070000Y-84430000D02*
X76530000Y-84430000D01*
X83070000Y-87170000D02*
X83070000Y-84430000D01*
X83840000Y-85800000D02*
X83070000Y-85800000D01*
X112830000Y-60780000D02*
X112830000Y-67320000D01*
X112830000Y-67320000D02*
X115570000Y-67320000D01*
X114200000Y-60010000D02*
X114200000Y-60780000D01*
X114200000Y-68090000D02*
X114200000Y-67320000D01*
X115570000Y-60780000D02*
X112830000Y-60780000D01*
X115570000Y-67320000D02*
X115570000Y-60780000D01*
X73670000Y-133730000D02*
X73670000Y-115890000D01*
X73670000Y-136330000D02*
X73670000Y-135000000D01*
X75000000Y-136330000D02*
X73670000Y-136330000D01*
X76330000Y-115890000D02*
X73670000Y-115890000D01*
X76330000Y-133730000D02*
X73670000Y-133730000D01*
X76330000Y-133730000D02*
X76330000Y-115890000D01*
X55955000Y-89730000D02*
X55955000Y-90045000D01*
X55955000Y-89730000D02*
X61195000Y-89730000D01*
X55955000Y-92155000D02*
X55955000Y-92470000D01*
X55955000Y-92470000D02*
X61195000Y-92470000D01*
X61195000Y-89730000D02*
X61195000Y-90045000D01*
X61195000Y-92155000D02*
X61195000Y-92470000D01*
X80780000Y-150530000D02*
X80780000Y-153270000D01*
X80780000Y-150530000D02*
X88220000Y-150530000D01*
X80780000Y-153270000D02*
X88220000Y-153270000D01*
X88220000Y-150530000D02*
X88220000Y-153270000D01*
X99800000Y-66000000D02*
G75*
G02*
X96200000Y-66000000I-1800000J0D01*
G01*
X96200000Y-66000000D02*
G75*
G02*
X99800000Y-66000000I1800000J0D01*
G01*
X102500000Y-72000000D02*
X98800000Y-72000000D01*
X102500000Y-61500000D02*
X102500000Y-72000000D01*
X102500000Y-61500000D02*
X98720000Y-61500000D01*
X97280000Y-61500000D02*
X93500000Y-61500000D01*
X97200000Y-72000000D02*
X93500000Y-72000000D01*
X96770000Y-58350000D02*
X97630000Y-58350000D01*
X96770000Y-58350000D02*
X96770000Y-59150000D01*
X93500000Y-61500000D02*
X93500000Y-72000000D01*
X75760000Y-88900000D02*
X76530000Y-88900000D01*
X76530000Y-87530000D02*
X76530000Y-90270000D01*
X76530000Y-90270000D02*
X83070000Y-90270000D01*
X83070000Y-87530000D02*
X76530000Y-87530000D01*
X83070000Y-90270000D02*
X83070000Y-87530000D01*
X83840000Y-88900000D02*
X83070000Y-88900000D01*
X76960000Y-56000000D02*
X77730000Y-56000000D01*
X77730000Y-54630000D02*
X77730000Y-57370000D01*
X77730000Y-57370000D02*
X84270000Y-57370000D01*
X84270000Y-54630000D02*
X77730000Y-54630000D01*
X84270000Y-57370000D02*
X84270000Y-54630000D01*
X85040000Y-56000000D02*
X84270000Y-56000000D01*
X53510000Y-155800000D02*
X54280000Y-155800000D01*
X54280000Y-154430000D02*
X54280000Y-157170000D01*
X54280000Y-157170000D02*
X60820000Y-157170000D01*
X60820000Y-154430000D02*
X54280000Y-154430000D01*
X60820000Y-157170000D02*
X60820000Y-154430000D01*
X61590000Y-155800000D02*
X60820000Y-155800000D01*
X51705000Y-107070000D02*
X51705000Y-104330000D01*
X59145000Y-104330000D02*
X51705000Y-104330000D01*
X59145000Y-107070000D02*
X51705000Y-107070000D01*
X59145000Y-107070000D02*
X59145000Y-104330000D01*
X53510000Y-149400000D02*
X54280000Y-149400000D01*
X54280000Y-148030000D02*
X54280000Y-150770000D01*
X54280000Y-150770000D02*
X60820000Y-150770000D01*
X60820000Y-148030000D02*
X54280000Y-148030000D01*
X60820000Y-150770000D02*
X60820000Y-148030000D01*
X61590000Y-149400000D02*
X60820000Y-149400000D01*
X65990000Y-152600000D02*
X66760000Y-152600000D01*
X66760000Y-151230000D02*
X66760000Y-153970000D01*
X66760000Y-153970000D02*
X73300000Y-153970000D01*
X73300000Y-151230000D02*
X66760000Y-151230000D01*
X73300000Y-153970000D02*
X73300000Y-151230000D01*
X74070000Y-152600000D02*
X73300000Y-152600000D01*
X103230000Y-79080000D02*
X103230000Y-85620000D01*
X103230000Y-85620000D02*
X105970000Y-85620000D01*
X104600000Y-78310000D02*
X104600000Y-79080000D01*
X104600000Y-86390000D02*
X104600000Y-85620000D01*
X105970000Y-79080000D02*
X103230000Y-79080000D01*
X105970000Y-85620000D02*
X105970000Y-79080000D01*
X75760000Y-82600000D02*
X76530000Y-82600000D01*
X76530000Y-81230000D02*
X76530000Y-83970000D01*
X76530000Y-83970000D02*
X83070000Y-83970000D01*
X83070000Y-81230000D02*
X76530000Y-81230000D01*
X83070000Y-83970000D02*
X83070000Y-81230000D01*
X83840000Y-82600000D02*
X83070000Y-82600000D01*
X119500000Y-115500000D02*
X119500000Y-126000000D01*
X122770000Y-112350000D02*
X122770000Y-113150000D01*
X122770000Y-112350000D02*
X123630000Y-112350000D01*
X123200000Y-126000000D02*
X119500000Y-126000000D01*
X123280000Y-115500000D02*
X119500000Y-115500000D01*
X128500000Y-115500000D02*
X124720000Y-115500000D01*
X128500000Y-115500000D02*
X128500000Y-126000000D01*
X128500000Y-126000000D02*
X124800000Y-126000000D01*
X125800000Y-120000000D02*
G75*
G02*
X122200000Y-120000000I-1800000J0D01*
G01*
X122200000Y-120000000D02*
G75*
G02*
X125800000Y-120000000I1800000J0D01*
G01*
X65990000Y-159000000D02*
X66760000Y-159000000D01*
X66760000Y-157630000D02*
X66760000Y-160370000D01*
X66760000Y-160370000D02*
X73300000Y-160370000D01*
X73300000Y-157630000D02*
X66760000Y-157630000D01*
X73300000Y-160370000D02*
X73300000Y-157630000D01*
X74070000Y-159000000D02*
X73300000Y-159000000D01*
X77260000Y-52000000D02*
X78280000Y-52000000D01*
X78280000Y-50530000D02*
X78280000Y-53470000D01*
X78280000Y-53470000D02*
X83720000Y-53470000D01*
X82700000Y-53470000D02*
X82700000Y-50530000D01*
X82820000Y-53470000D02*
X82820000Y-50530000D01*
X82940000Y-53470000D02*
X82940000Y-50530000D01*
X83720000Y-50530000D02*
X78280000Y-50530000D01*
X83720000Y-53470000D02*
X83720000Y-50530000D01*
X84740000Y-52000000D02*
X83720000Y-52000000D01*
X77830000Y-125380000D02*
X77830000Y-130620000D01*
X78145000Y-125380000D02*
X77830000Y-125380000D01*
X78145000Y-130620000D02*
X77830000Y-130620000D01*
X80570000Y-125380000D02*
X80255000Y-125380000D01*
X80570000Y-125380000D02*
X80570000Y-130620000D01*
X80570000Y-130620000D02*
X80255000Y-130620000D01*
X63330000Y-82600000D02*
X64100000Y-82600000D01*
X64100000Y-81230000D02*
X64100000Y-83970000D01*
X64100000Y-83970000D02*
X70640000Y-83970000D01*
X70640000Y-81230000D02*
X64100000Y-81230000D01*
X70640000Y-83970000D02*
X70640000Y-81230000D01*
X71410000Y-82600000D02*
X70640000Y-82600000D01*
X75760000Y-95100000D02*
X76530000Y-95100000D01*
X76530000Y-93730000D02*
X76530000Y-96470000D01*
X76530000Y-96470000D02*
X83070000Y-96470000D01*
X83070000Y-93730000D02*
X76530000Y-93730000D01*
X83070000Y-96470000D02*
X83070000Y-93730000D01*
X83840000Y-95100000D02*
X83070000Y-95100000D01*
X53510000Y-146200000D02*
X54280000Y-146200000D01*
X54280000Y-144830000D02*
X54280000Y-147570000D01*
X54280000Y-147570000D02*
X60820000Y-147570000D01*
X60820000Y-144830000D02*
X54280000Y-144830000D01*
X60820000Y-147570000D02*
X60820000Y-144830000D01*
X61590000Y-146200000D02*
X60820000Y-146200000D01*
X63330000Y-85700000D02*
X64100000Y-85700000D01*
X64100000Y-84330000D02*
X64100000Y-87070000D01*
X64100000Y-87070000D02*
X70640000Y-87070000D01*
X70640000Y-84330000D02*
X64100000Y-84330000D01*
X70640000Y-87070000D02*
X70640000Y-84330000D01*
X71410000Y-85700000D02*
X70640000Y-85700000D01*
X53510000Y-159000000D02*
X54280000Y-159000000D01*
X54280000Y-157630000D02*
X54280000Y-160370000D01*
X54280000Y-160370000D02*
X60820000Y-160370000D01*
X60820000Y-157630000D02*
X54280000Y-157630000D01*
X60820000Y-160370000D02*
X60820000Y-157630000D01*
X61590000Y-159000000D02*
X60820000Y-159000000D01*
X53510000Y-152600000D02*
X54280000Y-152600000D01*
X54280000Y-151230000D02*
X54280000Y-153970000D01*
X54280000Y-153970000D02*
X60820000Y-153970000D01*
X60820000Y-151230000D02*
X54280000Y-151230000D01*
X60820000Y-153970000D02*
X60820000Y-151230000D01*
X61590000Y-152600000D02*
X60820000Y-152600000D01*
X53510000Y-143000000D02*
X54280000Y-143000000D01*
X54280000Y-141630000D02*
X54280000Y-144370000D01*
X54280000Y-144370000D02*
X60820000Y-144370000D01*
X60820000Y-141630000D02*
X54280000Y-141630000D01*
X60820000Y-144370000D02*
X60820000Y-141630000D01*
X61590000Y-143000000D02*
X60820000Y-143000000D01*
X115630000Y-79080000D02*
X115630000Y-85620000D01*
X115630000Y-85620000D02*
X118370000Y-85620000D01*
X117000000Y-78310000D02*
X117000000Y-79080000D01*
X117000000Y-86390000D02*
X117000000Y-85620000D01*
X118370000Y-79080000D02*
X115630000Y-79080000D01*
X118370000Y-85620000D02*
X118370000Y-79080000D01*
X106430000Y-60780000D02*
X106430000Y-67320000D01*
X106430000Y-67320000D02*
X109170000Y-67320000D01*
X107800000Y-60010000D02*
X107800000Y-60780000D01*
X107800000Y-68090000D02*
X107800000Y-67320000D01*
X109170000Y-60780000D02*
X106430000Y-60780000D01*
X109170000Y-67320000D02*
X109170000Y-60780000D01*
X51810000Y-93240000D02*
X51810000Y-103740000D01*
X51810000Y-103740000D02*
X69830000Y-103740000D01*
X51870000Y-96240000D02*
X51870000Y-97490000D01*
X51870000Y-99490000D02*
X51870000Y-100740000D01*
X51870000Y-100740000D02*
X69770000Y-100740000D01*
X69770000Y-96240000D02*
X51870000Y-96240000D01*
X69770000Y-100740000D02*
X69770000Y-96240000D01*
X69830000Y-93240000D02*
X51810000Y-93240000D01*
X69830000Y-103740000D02*
X69830000Y-93240000D01*
X51870000Y-97490000D02*
G75*
G02*
X51870000Y-99490000I0J-1000000D01*
G01*
X63330000Y-79500000D02*
X64100000Y-79500000D01*
X64100000Y-78130000D02*
X64100000Y-80870000D01*
X64100000Y-80870000D02*
X70640000Y-80870000D01*
X70640000Y-78130000D02*
X64100000Y-78130000D01*
X70640000Y-80870000D02*
X70640000Y-78130000D01*
X71410000Y-79500000D02*
X70640000Y-79500000D01*
X93500000Y-131500000D02*
X93500000Y-142000000D01*
X96770000Y-128350000D02*
X96770000Y-129150000D01*
X96770000Y-128350000D02*
X97630000Y-128350000D01*
X97200000Y-142000000D02*
X93500000Y-142000000D01*
X97280000Y-131500000D02*
X93500000Y-131500000D01*
X102500000Y-131500000D02*
X98720000Y-131500000D01*
X102500000Y-131500000D02*
X102500000Y-142000000D01*
X102500000Y-142000000D02*
X98800000Y-142000000D01*
X99800000Y-136000000D02*
G75*
G02*
X96200000Y-136000000I-1800000J0D01*
G01*
X96200000Y-136000000D02*
G75*
G02*
X99800000Y-136000000I1800000J0D01*
G01*
X69700000Y-131850000D02*
X72440000Y-131850000D01*
X69700000Y-139290000D02*
X69700000Y-131850000D01*
X69700000Y-139290000D02*
X72440000Y-139290000D01*
X72440000Y-139290000D02*
X72440000Y-131850000D01*
X119500000Y-61500000D02*
X119500000Y-72000000D01*
X122770000Y-58350000D02*
X122770000Y-59150000D01*
X122770000Y-58350000D02*
X123630000Y-58350000D01*
X123200000Y-72000000D02*
X119500000Y-72000000D01*
X123280000Y-61500000D02*
X119500000Y-61500000D01*
X128500000Y-61500000D02*
X124720000Y-61500000D01*
X128500000Y-61500000D02*
X128500000Y-72000000D01*
X128500000Y-72000000D02*
X124800000Y-72000000D01*
X125800000Y-66000000D02*
G75*
G02*
X122200000Y-66000000I-1800000J0D01*
G01*
X122200000Y-66000000D02*
G75*
G02*
X125800000Y-66000000I1800000J0D01*
G01*
X77740000Y-131995000D02*
X77740000Y-150015000D01*
X77740000Y-150015000D02*
X88240000Y-150015000D01*
X80740000Y-132055000D02*
X80740000Y-149955000D01*
X80740000Y-149955000D02*
X81990000Y-149955000D01*
X83990000Y-149955000D02*
X85240000Y-149955000D01*
X85240000Y-132055000D02*
X80740000Y-132055000D01*
X85240000Y-149955000D02*
X85240000Y-132055000D01*
X88240000Y-131995000D02*
X77740000Y-131995000D01*
X88240000Y-150015000D02*
X88240000Y-131995000D01*
X81990000Y-149955000D02*
G75*
G02*
X83990000Y-149955000I1000000J0D01*
G01*
X77180000Y-63100000D02*
X78200000Y-63100000D01*
X78200000Y-61630000D02*
X78200000Y-64570000D01*
X78200000Y-64570000D02*
X83640000Y-64570000D01*
X78980000Y-61630000D02*
X78980000Y-64570000D01*
X79100000Y-61630000D02*
X79100000Y-64570000D01*
X79220000Y-61630000D02*
X79220000Y-64570000D01*
X83640000Y-61630000D02*
X78200000Y-61630000D01*
X83640000Y-64570000D02*
X83640000Y-61630000D01*
X84660000Y-63100000D02*
X83640000Y-63100000D01*
X67050000Y-134460000D02*
X67050000Y-138700000D01*
X67050000Y-138700000D02*
X69290000Y-138700000D01*
X68170000Y-133810000D02*
X68170000Y-134460000D01*
X68170000Y-139350000D02*
X68170000Y-138700000D01*
X69290000Y-134460000D02*
X67050000Y-134460000D01*
X69290000Y-135060000D02*
X67050000Y-135060000D01*
X69290000Y-135180000D02*
X67050000Y-135180000D01*
X69290000Y-135300000D02*
X67050000Y-135300000D01*
X69290000Y-138700000D02*
X69290000Y-134460000D01*
X93500000Y-115500000D02*
X93500000Y-126000000D01*
X96770000Y-112350000D02*
X96770000Y-113150000D01*
X96770000Y-112350000D02*
X97630000Y-112350000D01*
X97200000Y-126000000D02*
X93500000Y-126000000D01*
X97280000Y-115500000D02*
X93500000Y-115500000D01*
X102500000Y-115500000D02*
X98720000Y-115500000D01*
X102500000Y-115500000D02*
X102500000Y-126000000D01*
X102500000Y-126000000D02*
X98800000Y-126000000D01*
X99800000Y-120000000D02*
G75*
G02*
X96200000Y-120000000I-1800000J0D01*
G01*
X96200000Y-120000000D02*
G75*
G02*
X99800000Y-120000000I1800000J0D01*
G01*
X119500000Y-131500000D02*
X119500000Y-142000000D01*
X122770000Y-128350000D02*
X122770000Y-129150000D01*
X122770000Y-128350000D02*
X123630000Y-128350000D01*
X123200000Y-142000000D02*
X119500000Y-142000000D01*
X123280000Y-131500000D02*
X119500000Y-131500000D01*
X128500000Y-131500000D02*
X124720000Y-131500000D01*
X128500000Y-131500000D02*
X128500000Y-142000000D01*
X128500000Y-142000000D02*
X124800000Y-142000000D01*
X125800000Y-136000000D02*
G75*
G02*
X122200000Y-136000000I-1800000J0D01*
G01*
X122200000Y-136000000D02*
G75*
G02*
X125800000Y-136000000I1800000J0D01*
G01*
X75760000Y-92000000D02*
X76530000Y-92000000D01*
X76530000Y-90630000D02*
X76530000Y-93370000D01*
X76530000Y-93370000D02*
X83070000Y-93370000D01*
X83070000Y-90630000D02*
X76530000Y-90630000D01*
X83070000Y-93370000D02*
X83070000Y-90630000D01*
X83840000Y-92000000D02*
X83070000Y-92000000D01*
X126560000Y-55545000D02*
X126560000Y-52455000D01*
X121010000Y-54000462D02*
G75*
G02*
X126560000Y-52455170I2990000J462D01*
G01*
X126560000Y-55544830D02*
G75*
G02*
X121010000Y-53999538I-2560000J1544830D01*
G01*
X126500000Y-54000000D02*
G75*
G02*
X121500000Y-54000000I-2500000J0D01*
G01*
X121500000Y-54000000D02*
G75*
G02*
X126500000Y-54000000I2500000J0D01*
G01*
X119500000Y-77500000D02*
X119500000Y-88000000D01*
X122770000Y-74350000D02*
X122770000Y-75150000D01*
X122770000Y-74350000D02*
X123630000Y-74350000D01*
X123200000Y-88000000D02*
X119500000Y-88000000D01*
X123280000Y-77500000D02*
X119500000Y-77500000D01*
X128500000Y-77500000D02*
X124720000Y-77500000D01*
X128500000Y-77500000D02*
X128500000Y-88000000D01*
X128500000Y-88000000D02*
X124800000Y-88000000D01*
X125800000Y-82000000D02*
G75*
G02*
X122200000Y-82000000I-1800000J0D01*
G01*
X122200000Y-82000000D02*
G75*
G02*
X125800000Y-82000000I1800000J0D01*
G01*
X85430000Y-125380000D02*
X85745000Y-125380000D01*
X85430000Y-130620000D02*
X85430000Y-125380000D01*
X85430000Y-130620000D02*
X85745000Y-130620000D01*
X87855000Y-125380000D02*
X88170000Y-125380000D01*
X87855000Y-130620000D02*
X88170000Y-130620000D01*
X88170000Y-130620000D02*
X88170000Y-125380000D01*
X67500000Y-112750000D02*
X67500000Y-120190000D01*
X70240000Y-112750000D02*
X67500000Y-112750000D01*
X70240000Y-112750000D02*
X70240000Y-120190000D01*
X70240000Y-120190000D02*
X67500000Y-120190000D01*
X72920000Y-125000000D02*
X72920000Y-121400000D01*
X68620000Y-122420000D02*
G75*
G02*
X72897684Y-121391555I2450000J-780000D01*
G01*
X72911741Y-125011875D02*
G75*
G02*
X68620000Y-124020000I-1841741J1811875D01*
G01*
X93500000Y-77500000D02*
X93500000Y-88000000D01*
X96770000Y-74350000D02*
X96770000Y-75150000D01*
X96770000Y-74350000D02*
X97630000Y-74350000D01*
X97200000Y-88000000D02*
X93500000Y-88000000D01*
X97280000Y-77500000D02*
X93500000Y-77500000D01*
X102500000Y-77500000D02*
X98720000Y-77500000D01*
X102500000Y-77500000D02*
X102500000Y-88000000D01*
X102500000Y-88000000D02*
X98800000Y-88000000D01*
X99800000Y-82000000D02*
G75*
G02*
X96200000Y-82000000I-1800000J0D01*
G01*
X96200000Y-82000000D02*
G75*
G02*
X99800000Y-82000000I1800000J0D01*
G01*
X75760000Y-79500000D02*
X76530000Y-79500000D01*
X76530000Y-78130000D02*
X76530000Y-80870000D01*
X76530000Y-80870000D02*
X83070000Y-80870000D01*
X83070000Y-78130000D02*
X76530000Y-78130000D01*
X83070000Y-80870000D02*
X83070000Y-78130000D01*
X83840000Y-79500000D02*
X83070000Y-79500000D01*
X67020000Y-127040000D02*
X67020000Y-130640000D01*
X67028259Y-127028125D02*
G75*
G02*
X71320000Y-128020000I1841741J-1811875D01*
G01*
X71320000Y-129620000D02*
G75*
G02*
X67042316Y-130648445I-2450000J780000D01*
G01*
X95160000Y-110400000D02*
X95930000Y-110400000D01*
X95930000Y-109030000D02*
X95930000Y-111770000D01*
X95930000Y-111770000D02*
X102470000Y-111770000D01*
X102470000Y-109030000D02*
X95930000Y-109030000D01*
X102470000Y-111770000D02*
X102470000Y-109030000D01*
X103240000Y-110400000D02*
X102470000Y-110400000D01*
X76760000Y-59600000D02*
X77530000Y-59600000D01*
X77530000Y-58230000D02*
X77530000Y-60970000D01*
X77530000Y-60970000D02*
X84070000Y-60970000D01*
X84070000Y-58230000D02*
X77530000Y-58230000D01*
X84070000Y-60970000D02*
X84070000Y-58230000D01*
X84840000Y-59600000D02*
X84070000Y-59600000D01*
X70650000Y-113340000D02*
X70650000Y-117580000D01*
X70650000Y-116740000D02*
X72890000Y-116740000D01*
X70650000Y-116860000D02*
X72890000Y-116860000D01*
X70650000Y-116980000D02*
X72890000Y-116980000D01*
X70650000Y-117580000D02*
X72890000Y-117580000D01*
X71770000Y-112690000D02*
X71770000Y-113340000D01*
X71770000Y-118230000D02*
X71770000Y-117580000D01*
X72890000Y-113340000D02*
X70650000Y-113340000D01*
X72890000Y-117580000D02*
X72890000Y-113340000D01*
X93500000Y-147500000D02*
X93500000Y-158000000D01*
X96770000Y-144350000D02*
X96770000Y-145150000D01*
X96770000Y-144350000D02*
X97630000Y-144350000D01*
X97200000Y-158000000D02*
X93500000Y-158000000D01*
X97280000Y-147500000D02*
X93500000Y-147500000D01*
X102500000Y-147500000D02*
X98720000Y-147500000D01*
X102500000Y-147500000D02*
X102500000Y-158000000D01*
X102500000Y-158000000D02*
X98800000Y-158000000D01*
X99800000Y-152000000D02*
G75*
G02*
X96200000Y-152000000I-1800000J0D01*
G01*
X96200000Y-152000000D02*
G75*
G02*
X99800000Y-152000000I1800000J0D01*
G01*
X63670000Y-133730000D02*
X63670000Y-115890000D01*
X63670000Y-136330000D02*
X63670000Y-135000000D01*
X65000000Y-136330000D02*
X63670000Y-136330000D01*
X66330000Y-115890000D02*
X63670000Y-115890000D01*
X66330000Y-133730000D02*
X63670000Y-133730000D01*
X66330000Y-133730000D02*
X66330000Y-115890000D01*
X118740000Y-110400000D02*
X119510000Y-110400000D01*
X119510000Y-109030000D02*
X119510000Y-111770000D01*
X119510000Y-111770000D02*
X126050000Y-111770000D01*
X126050000Y-109030000D02*
X119510000Y-109030000D01*
X126050000Y-111770000D02*
X126050000Y-109030000D01*
X126820000Y-110400000D02*
X126050000Y-110400000D01*
X60955000Y-104380000D02*
X60955000Y-104695000D01*
X60955000Y-104380000D02*
X66195000Y-104380000D01*
X60955000Y-106805000D02*
X60955000Y-107120000D01*
X60955000Y-107120000D02*
X66195000Y-107120000D01*
X66195000Y-104380000D02*
X66195000Y-104695000D01*
X66195000Y-106805000D02*
X66195000Y-107120000D01*
X115930000Y-60780000D02*
X115930000Y-67320000D01*
X115930000Y-67320000D02*
X118670000Y-67320000D01*
X117300000Y-60010000D02*
X117300000Y-60780000D01*
X117300000Y-68090000D02*
X117300000Y-67320000D01*
X118670000Y-60780000D02*
X115930000Y-60780000D01*
X118670000Y-67320000D02*
X118670000Y-60780000D01*
X65990000Y-155800000D02*
X66760000Y-155800000D01*
X66760000Y-154430000D02*
X66760000Y-157170000D01*
X66760000Y-157170000D02*
X73300000Y-157170000D01*
X73300000Y-154430000D02*
X66760000Y-154430000D01*
X73300000Y-157170000D02*
X73300000Y-154430000D01*
X74070000Y-155800000D02*
X73300000Y-155800000D01*
X95440000Y-52455000D02*
X95440000Y-55545000D01*
X95440000Y-52455170D02*
G75*
G02*
X100990000Y-54000462I2560000J-1544830D01*
G01*
X100990000Y-53999538D02*
G75*
G02*
X95440000Y-55544830I-2990000J-462D01*
G01*
X100500000Y-54000000D02*
G75*
G02*
X95500000Y-54000000I-2500000J0D01*
G01*
X95500000Y-54000000D02*
G75*
G02*
X100500000Y-54000000I2500000J0D01*
G01*
X118770000Y-146720000D02*
X118770000Y-140180000D01*
X118770000Y-140180000D02*
X116030000Y-140180000D01*
X117400000Y-147490000D02*
X117400000Y-146720000D01*
X117400000Y-139410000D02*
X117400000Y-140180000D01*
X116030000Y-146720000D02*
X118770000Y-146720000D01*
X116030000Y-140180000D02*
X116030000Y-146720000D01*
X110770000Y-138250000D02*
X110770000Y-131710000D01*
X110770000Y-131710000D02*
X108030000Y-131710000D01*
X109400000Y-139020000D02*
X109400000Y-138250000D01*
X109400000Y-130940000D02*
X109400000Y-131710000D01*
X108030000Y-138250000D02*
X110770000Y-138250000D01*
X108030000Y-131710000D02*
X108030000Y-138250000D01*
X113970000Y-138270000D02*
X113970000Y-131730000D01*
X113970000Y-131730000D02*
X111230000Y-131730000D01*
X112600000Y-139040000D02*
X112600000Y-138270000D01*
X112600000Y-130960000D02*
X112600000Y-131730000D01*
X111230000Y-138270000D02*
X113970000Y-138270000D01*
X111230000Y-131730000D02*
X111230000Y-138270000D01*
X105970000Y-146720000D02*
X105970000Y-140180000D01*
X105970000Y-140180000D02*
X103230000Y-140180000D01*
X104600000Y-147490000D02*
X104600000Y-146720000D01*
X104600000Y-139410000D02*
X104600000Y-140180000D01*
X103230000Y-146720000D02*
X105970000Y-146720000D01*
X103230000Y-140180000D02*
X103230000Y-146720000D01*
%LPC*%
D13*
X111000000Y-53900000D03*
X70000000Y-54000000D03*
X111000000Y-74000000D03*
X111000000Y-147000000D03*
X70000000Y-74000000D03*
X70000000Y-147000000D03*
D14*
X98000000Y-104700000D03*
X98000000Y-100000000D03*
X98000000Y-95300000D03*
D15*
X104700000Y-58970000D03*
D16*
X104700000Y-69130000D03*
D17*
X124000000Y-145520000D03*
D18*
X124000000Y-156920000D03*
X124000000Y-148620000D03*
D15*
X74720000Y-85800000D03*
D16*
X84880000Y-85800000D03*
D15*
X114200000Y-58970000D03*
D16*
X114200000Y-69130000D03*
D19*
X75000000Y-135000000D03*
D20*
X75000000Y-132460000D03*
X75000000Y-129920000D03*
X75000000Y-127380000D03*
X75000000Y-124840000D03*
X75000000Y-122300000D03*
X75000000Y-119760000D03*
X75000000Y-117220000D03*
D15*
X56075000Y-91100000D03*
X61075000Y-91100000D03*
X82000000Y-151900000D03*
X87000000Y-151900000D03*
D18*
X98000000Y-62620000D03*
X98000000Y-70920000D03*
D17*
X98000000Y-59520000D03*
D15*
X84880000Y-88900000D03*
D16*
X74720000Y-88900000D03*
D15*
X75920000Y-56000000D03*
D16*
X86080000Y-56000000D03*
D15*
X62630000Y-155800000D03*
D16*
X52470000Y-155800000D03*
D15*
X57925000Y-105700000D03*
X52925000Y-105700000D03*
X52470000Y-149400000D03*
D16*
X62630000Y-149400000D03*
D15*
X75110000Y-152600000D03*
D16*
X64950000Y-152600000D03*
D15*
X104600000Y-77270000D03*
D16*
X104600000Y-87430000D03*
D14*
X124000000Y-104700000D03*
X124000000Y-100000000D03*
X124000000Y-95300000D03*
D15*
X74720000Y-82600000D03*
D16*
X84880000Y-82600000D03*
D17*
X124000000Y-113520000D03*
D18*
X124000000Y-124920000D03*
X124000000Y-116620000D03*
D15*
X75110000Y-159000000D03*
D16*
X64950000Y-159000000D03*
D21*
X86080000Y-52000000D03*
D22*
X75920000Y-52000000D03*
D15*
X79200000Y-125500000D03*
X79200000Y-130500000D03*
X62290000Y-82600000D03*
D16*
X72450000Y-82600000D03*
D15*
X84880000Y-95100000D03*
D16*
X74720000Y-95100000D03*
D15*
X62630000Y-146200000D03*
D16*
X52470000Y-146200000D03*
D15*
X62290000Y-85700000D03*
D16*
X72450000Y-85700000D03*
D15*
X62630000Y-159000000D03*
D16*
X52470000Y-159000000D03*
D15*
X62630000Y-152600000D03*
D16*
X52470000Y-152600000D03*
D15*
X52470000Y-143000000D03*
D16*
X62630000Y-143000000D03*
D15*
X117000000Y-77270000D03*
D16*
X117000000Y-87430000D03*
D15*
X107800000Y-58970000D03*
D16*
X107800000Y-69130000D03*
D23*
X53200000Y-102300000D03*
D24*
X55740000Y-102300000D03*
X58280000Y-102300000D03*
X60820000Y-102300000D03*
X63360000Y-102300000D03*
X65900000Y-102300000D03*
X68440000Y-102300000D03*
X68440000Y-94680000D03*
X65900000Y-94680000D03*
X63360000Y-94680000D03*
X60820000Y-94680000D03*
X58280000Y-94680000D03*
X55740000Y-94680000D03*
X53200000Y-94680000D03*
D15*
X62290000Y-79500000D03*
D16*
X72450000Y-79500000D03*
D17*
X98000000Y-129520000D03*
D18*
X98000000Y-140920000D03*
X98000000Y-132620000D03*
D15*
X71070000Y-138070000D03*
X71070000Y-133070000D03*
D17*
X124000000Y-59520000D03*
D18*
X124000000Y-70920000D03*
X124000000Y-62620000D03*
D25*
X86800000Y-148625000D03*
D26*
X86800000Y-146085000D03*
X86800000Y-143545000D03*
X86800000Y-141005000D03*
X86800000Y-138465000D03*
X86800000Y-135925000D03*
X86800000Y-133385000D03*
X79180000Y-133385000D03*
X79180000Y-135925000D03*
X79180000Y-138465000D03*
X79180000Y-141005000D03*
X79180000Y-143545000D03*
X79180000Y-146085000D03*
X79180000Y-148625000D03*
D21*
X75840000Y-63100000D03*
D22*
X86000000Y-63100000D03*
D27*
X68170000Y-132770000D03*
D16*
X68170000Y-140390000D03*
D17*
X98000000Y-113520000D03*
D18*
X98000000Y-124920000D03*
X98000000Y-116620000D03*
D17*
X124000000Y-129520000D03*
D18*
X124000000Y-140920000D03*
X124000000Y-132620000D03*
D15*
X74720000Y-92000000D03*
D16*
X84880000Y-92000000D03*
D28*
X125270000Y-54000000D03*
D29*
X122730000Y-54000000D03*
D17*
X124000000Y-75520000D03*
D18*
X124000000Y-86920000D03*
X124000000Y-78620000D03*
D15*
X86800000Y-130500000D03*
X86800000Y-125500000D03*
X68870000Y-113970000D03*
X68870000Y-118970000D03*
D30*
X71470000Y-124470000D03*
D31*
X69400000Y-123200000D03*
X71470000Y-121930000D03*
D17*
X98000000Y-75520000D03*
D18*
X98000000Y-86920000D03*
X98000000Y-78620000D03*
D15*
X74720000Y-79500000D03*
D16*
X84880000Y-79500000D03*
D30*
X68470000Y-127570000D03*
D32*
X70540000Y-128840000D03*
X68470000Y-130110000D03*
D15*
X94120000Y-110400000D03*
D16*
X104280000Y-110400000D03*
D15*
X75720000Y-59600000D03*
D16*
X85880000Y-59600000D03*
D27*
X71770000Y-119270000D03*
D16*
X71770000Y-111650000D03*
D17*
X98000000Y-145520000D03*
D18*
X98000000Y-156920000D03*
X98000000Y-148620000D03*
D19*
X65000000Y-135000000D03*
D20*
X65000000Y-132460000D03*
X65000000Y-129920000D03*
X65000000Y-127380000D03*
X65000000Y-124840000D03*
X65000000Y-122300000D03*
X65000000Y-119760000D03*
X65000000Y-117220000D03*
D15*
X127860000Y-110400000D03*
D16*
X117700000Y-110400000D03*
D15*
X61075000Y-105750000D03*
X66075000Y-105750000D03*
X117300000Y-58970000D03*
D16*
X117300000Y-69130000D03*
D15*
X75110000Y-155800000D03*
D16*
X64950000Y-155800000D03*
D28*
X96730000Y-54000000D03*
D29*
X99270000Y-54000000D03*
D33*
X70000000Y-59250000D03*
D34*
X70000000Y-61250000D03*
D35*
X54000000Y-66160000D03*
D36*
X56540000Y-66160000D03*
X54000000Y-63620000D03*
X56540000Y-63620000D03*
X54000000Y-61080000D03*
X56540000Y-61080000D03*
X54000000Y-58540000D03*
X56540000Y-58540000D03*
X54000000Y-56000000D03*
X56540000Y-56000000D03*
D19*
X116000000Y-135000000D03*
D20*
X116000000Y-132460000D03*
X116000000Y-129920000D03*
X116000000Y-127380000D03*
X116000000Y-124840000D03*
X116000000Y-122300000D03*
X116000000Y-119760000D03*
X116000000Y-117220000D03*
D27*
X64000000Y-66000000D03*
D15*
X64000000Y-68500000D03*
D33*
X70000000Y-66250000D03*
D34*
X70000000Y-68250000D03*
D19*
X106000000Y-135030000D03*
D20*
X106000000Y-132490000D03*
X106000000Y-129950000D03*
X106000000Y-127410000D03*
X106000000Y-124870000D03*
X106000000Y-122330000D03*
X106000000Y-119790000D03*
X106000000Y-117250000D03*
D27*
X64000000Y-59000000D03*
D15*
X64000000Y-61500000D03*
D16*
X117400000Y-138370000D03*
D15*
X117400000Y-148530000D03*
D16*
X109400000Y-129900000D03*
D15*
X109400000Y-140060000D03*
D16*
X112600000Y-129920000D03*
D15*
X112600000Y-140080000D03*
D16*
X104600000Y-138370000D03*
D15*
X104600000Y-148530000D03*
%LPD*%
M02*
